<svg xmlns="http://www.w3.org/2000/svg" width="40" height="40" viewbox="0.0 0.0 180.0 180.0">
  <g id="bb" fill="none" transform="scale(0.2222222222222222 0.2222222222222222)">
    <path d="M88.8052 109.073C88.6489 109.073 88.4672 109.021 88.2585 108.917C88.1027 108.761 87.9722 108.682 87.8681 108.682C85.2131 108.786 83.8856 109.281 83.8856 110.166C83.8856 111.52 85.5253 112.197 88.8052 112.197C92.1375 112.197 93.8031 111.52 93.8031 110.166C93.8031 109.281 92.4756 108.786 89.8206 108.682C89.6642 108.682 89.4819 108.761 89.2738 108.917C89.0657 109.021 88.9093 109.073 88.8052 109.073ZM113.561 37.3058C115.539 36.5769 117.7 36.2125 120.043 36.2125C122.437 36.1604 123.4 35.2493 122.932 33.4792C122.463 31.7612 121.057 31.1625 118.715 31.6831C116.216 32.2037 114.029 32.8024 112.155 33.4792C107.313 35.2493 105.153 36.7591 105.673 38.0086C106.142 39.3101 108.771 39.0759 113.561 37.3058ZM97.4734 92.9076C99.9202 92.5954 101.118 91.8923 101.066 90.7993C100.962 89.6541 99.4781 89.2114 96.6144 89.4718C93.7513 89.7317 92.3715 90.4348 92.4756 91.5801C92.5796 92.5695 93.7513 93.0639 95.9901 93.0639C95.6256 92.9076 95.4433 92.6213 95.4433 92.205C95.4433 91.5283 95.8337 91.1897 96.6144 91.1897C97.3957 91.1897 97.7861 91.5283 97.7861 92.205C97.7338 92.4654 97.6297 92.6994 97.4734 92.9076ZM80.1371 92.9076C79.9808 92.6471 79.9026 92.4131 79.9026 92.205C79.9026 91.5283 80.2671 91.1897 80.9961 91.1897C81.7768 91.1897 82.1672 91.5283 82.1672 92.205C82.1672 92.6213 81.9855 92.9076 81.621 93.0639C83.8592 93.0639 85.0309 92.5695 85.1349 91.5801C85.1873 90.3825 83.8074 89.6799 80.9961 89.4718C78.0806 89.2114 76.5967 89.6541 76.545 90.7993C76.4927 91.8923 77.6903 92.5954 80.1371 92.9076ZM88.8052 94.5478C87.7123 94.5478 87.1656 96.3698 87.1656 100.014C87.1656 100.326 87.1132 100.587 87.0092 100.795C86.3325 101.264 85.9939 101.836 85.9939 102.513C85.9939 103.555 86.5148 104.127 87.5559 104.231C88.0245 105.012 88.4407 105.402 88.8052 105.402C89.118 105.402 89.5342 105.012 90.0551 104.231C91.0963 104.179 91.6166 103.606 91.6166 102.513C91.6166 101.888 91.2786 101.316 90.6013 100.795C90.5496 100.587 90.5237 100.326 90.5237 100.014C90.5237 96.3698 89.9505 94.5478 88.8052 94.5478ZM108.562 72.6036C108.823 71.9786 108.979 71.6147 109.031 71.5101C109.604 69.7404 110.15 68.3083 110.671 67.2154H66.9392C67.3037 68.1002 67.8504 69.5318 68.5794 71.5101C68.7876 72.0309 68.9439 72.3954 69.048 72.6036H108.562ZM105.127 82.9901C106.116 83.1983 106.793 82.3652 107.157 80.4909C107.47 78.6167 107.183 77.6796 106.298 77.6796H71.3126C70.3755 77.6796 70.0892 78.6167 70.4537 80.4909C70.8182 82.3652 71.4949 83.1983 72.4837 82.9901H105.127ZM90.8359 127.425C93.8031 127.425 96.2241 126.643 98.0983 125.082C97.2135 123.988 96.5104 122.973 95.9901 122.036C94.1676 122.661 92.4497 122.973 90.8359 122.973H86.7752C85.1091 122.973 83.4171 122.661 81.6992 122.036C81.0742 122.973 80.3452 123.988 79.5122 125.082C81.3347 126.643 83.7551 127.425 86.7752 127.425H90.8359ZM33.8281 165.221V159.911C33.776 159.287 33.75 158.766 33.75 158.349C33.8021 157.933 33.8281 157.412 33.8281 156.787C33.8281 149.135 36.4312 142.522 41.6374 136.952C46.5312 131.642 52.8828 128.518 60.6921 127.581C67.5118 126.748 72.9523 123.208 77.0136 116.96C76.8572 116.908 76.7531 116.804 76.7008 116.648C75.816 115.346 74.7748 114.175 73.5773 113.134C68.5271 108.708 66.0021 102.071 66.0021 93.2203C66.0021 89.3154 66.393 85.9573 67.1738 83.1459C66.2884 83.1459 65.8463 82.2353 65.8463 80.4128C64.3883 74.8423 62.2541 69.3495 59.4428 63.9354C58.1929 61.4886 58.3751 59.9006 59.9889 59.1716C61.3946 58.599 62.7486 59.3539 64.0502 61.4363C66.4447 62.1653 69.1521 62.5298 72.1716 62.5298C79.1477 62.5298 83.8856 60.3692 86.3842 56.048C86.0203 53.3408 87.0351 50.4514 89.4302 47.3797C91.5649 42.7462 97.4734 37.7483 107.157 32.3859C109.656 31.0323 112.103 29.8349 114.498 28.7936C115.695 28.4813 116.893 28.2731 118.09 28.1689C120.433 28.0127 122.672 28.2731 124.806 28.9499C127.67 29.8349 129.205 31.2926 129.413 33.3231C129.726 37.1235 126.524 39.4664 119.808 40.3514C109.031 41.8611 100.519 44.7766 94.2716 49.0978C92.3456 51.1802 91.3826 53.0544 91.3826 54.7204C91.3826 55.1369 91.4344 55.5013 91.5384 55.8137C91.5908 56.3861 91.8248 56.907 92.2416 57.3756C95.0524 60.8119 99.5299 62.5298 105.673 62.5298C108.589 62.5298 111.27 62.1653 113.717 61.4363C114.914 59.3016 116.242 58.5467 117.7 59.1716C119.261 59.9006 119.443 61.4886 118.246 63.9354C115.279 69.714 113.144 75.2068 111.842 80.4128C111.842 82.2353 111.4 83.1459 110.515 83.1459C111.296 85.9573 111.687 89.3154 111.687 93.2203C111.687 102.122 109.162 108.761 104.111 113.134C102.966 114.123 101.925 115.295 100.988 116.648C100.884 116.804 100.78 116.987 100.675 117.195C104.84 123.286 110.254 126.748 116.918 127.581C124.676 128.518 131.027 131.642 135.973 136.952C141.179 142.575 143.782 149.186 143.782 156.787C143.782 157.412 143.782 157.933 143.782 158.349C143.835 158.766 143.835 159.287 143.782 159.911V165.221H33.8281Z" fill="#1A1F25" />
    <path d="M88.8052 109.073C88.6489 109.073 88.4666 109.021 88.2585 108.917C88.1027 108.761 87.9722 108.682 87.8681 108.682C85.2131 108.786 83.8856 109.281 83.8856 110.166C83.8856 111.52 85.5253 112.197 88.8052 112.197C92.1375 112.197 93.8031 111.52 93.8031 110.166C93.8031 109.281 92.4756 108.787 89.8206 108.682C89.6642 108.682 89.4819 108.761 89.2738 108.917C89.0657 109.021 88.9093 109.073 88.8052 109.073ZM113.561 37.3059C115.539 36.577 117.7 36.2126 120.043 36.2126C122.437 36.1605 123.4 35.2494 122.932 33.4793C122.463 31.7613 121.057 31.1626 118.714 31.6832C116.216 32.2038 114.029 32.8025 112.155 33.4793C107.313 35.2494 105.153 36.7592 105.673 38.0087C106.142 39.3103 108.771 39.076 113.561 37.3059ZM97.4734 92.9076C99.9202 92.5954 101.118 91.8928 101.066 90.7993C100.962 89.6541 99.4781 89.2114 96.6144 89.4718C93.7513 89.7323 92.3715 90.4348 92.4756 91.5801C92.5796 92.5695 93.7513 93.0639 95.9901 93.0639C95.6256 92.9076 95.4433 92.6213 95.4433 92.205C95.4433 91.5283 95.8337 91.1897 96.6144 91.1897C97.3952 91.1897 97.7861 91.5283 97.7861 92.205C97.7338 92.4654 97.6297 92.6994 97.4734 92.9076ZM80.1371 92.9076C79.9807 92.6477 79.9026 92.4131 79.9026 92.205C79.9026 91.5283 80.2671 91.1897 80.9961 91.1897C81.7768 91.1897 82.1672 91.5283 82.1672 92.205C82.1672 92.6213 81.9849 92.9076 81.621 93.0639C83.8592 93.0639 85.0309 92.5695 85.1349 91.5801C85.1872 90.3831 83.8074 89.6799 80.9961 89.4718C78.0806 89.2114 76.5967 89.6541 76.545 90.7993C76.4927 91.8928 77.6902 92.5954 80.1371 92.9076ZM88.8052 94.5478C87.7117 94.5478 87.1656 96.3698 87.1656 100.014C87.1656 100.326 87.1132 100.587 87.0092 100.795C86.3325 101.264 85.9939 101.836 85.9939 102.513C85.9939 103.555 86.5147 104.127 87.5559 104.231C88.0245 105.012 88.4407 105.402 88.8052 105.402C89.118 105.402 89.5342 105.012 90.0551 104.231C91.0963 104.179 91.6166 103.606 91.6166 102.513C91.6166 101.888 91.278 101.316 90.6013 100.795C90.5495 100.587 90.5231 100.326 90.5231 100.014C90.5231 96.3698 89.9505 94.5478 88.8052 94.5478ZM108.562 72.6036C108.823 71.9792 108.979 71.6147 109.031 71.5106C109.604 69.7404 110.15 68.3089 110.671 67.2154H66.9392C67.3037 68.1002 67.8504 69.5323 68.5794 71.5106C68.7876 72.0309 68.9439 72.3954 69.048 72.6036H108.562ZM105.127 82.9901C106.116 83.1983 106.793 82.3652 107.157 80.4909C107.47 78.6167 107.183 77.6796 106.298 77.6796H71.3126C70.3755 77.6796 70.0892 78.6167 70.4537 80.4909C70.8182 82.3652 71.4949 83.1983 72.4837 82.9901H105.127ZM90.8359 127.425C93.8031 127.425 96.224 126.644 98.0983 125.082C97.2135 123.989 96.5104 122.973 95.9901 122.036C94.1676 122.661 92.4497 122.973 90.8359 122.973H86.7746C85.1091 122.973 83.4171 122.661 81.6986 122.036C81.0742 122.973 80.3452 123.989 79.5122 125.082C81.3347 126.644 83.7551 127.425 86.7746 127.425H90.8359Z" fill="#D83A56" />
  </g>
  <g id="bk" fill="none" transform="scale(0.2222222222222222 0.2222222222222222)">
    <path d="M92.3929 84.0392C87.5509 84.0392 85.1304 81.6182 85.1304 76.7768C85.1304 71.883 87.5509 69.4361 92.3929 69.4361C97.2349 69.4361 99.6553 71.883 99.6553 76.7768C99.6553 81.6182 97.2349 84.0392 92.3929 84.0392ZM92.3929 123.398C110.562 123.398 124.333 125.038 133.704 128.318C133.756 125.038 134.433 121.654 135.734 118.166C138.129 111.658 142.372 106.374 148.463 102.313C154.034 98.5646 156.819 93.15 156.819 86.0698C156.819 83.2584 156.169 80.4471 154.867 77.6357C152.576 72.6379 148.828 69.2016 143.621 67.3273C141.227 66.4425 138.858 65.9998 136.515 65.9998C132.819 65.9998 129.305 67.0933 125.972 69.2797C112.905 77.8179 103.638 89.5579 98.172 104.5C96.0891 110.279 95.0479 114.834 95.0479 118.166H89.7379C89.7379 114.834 88.6967 110.252 86.6137 104.421C81.1474 89.532 71.8808 77.8179 58.8133 69.2797C55.429 67.0933 51.8888 65.9998 48.1925 65.9998C45.8497 65.9998 43.5069 66.4166 41.1641 67.2491C35.958 69.1757 32.1835 72.6379 29.8407 77.6357C28.5392 80.3947 27.8884 83.1803 27.8884 85.9916C27.8884 93.0718 30.6997 98.5123 36.3224 102.313C42.4657 106.426 46.7087 111.71 49.0515 118.166C50.1968 121.341 50.8736 124.725 51.0819 128.318C60.2449 125.038 74.0149 123.398 92.3929 123.398ZM92.3929 139.953C110.406 139.953 124.125 141.568 133.548 144.795C133.548 144.066 133.522 142.973 133.469 141.515C133.418 140.058 133.391 138.964 133.391 138.235C126.207 135.424 112.54 134.018 92.3929 134.018C72.1929 134.018 58.5264 135.424 51.3942 138.235C51.3942 138.964 51.3682 140.058 51.3161 141.515C51.3161 142.973 51.3161 144.066 51.3161 144.795C60.6352 141.568 74.3276 139.953 92.3929 139.953ZM92.3929 159.398C101.504 159.398 111.083 158.774 121.131 157.524C130.398 156.379 135.031 155.442 135.031 154.713C135.031 153.308 129.383 152.136 118.085 151.199C109.079 150.418 100.514 150.028 92.3929 150.028C82.8135 150.028 73.1042 150.652 63.2644 151.902C54.2577 153.047 49.7543 153.984 49.7543 154.713C49.7543 156.067 55.403 157.238 66.7007 158.227C75.9156 159.008 84.4796 159.398 92.3929 159.398ZM92.3929 164.709C84.0628 164.709 75.3165 164.136 66.1539 162.991C51.6286 161.169 44.3659 158.41 44.3659 154.713C44.3659 153.88 44.8605 153.047 45.8497 152.214C46.0059 147.893 46.0839 144.015 46.0839 140.578C46.0839 135.008 45.9017 130.166 45.5373 126.053C44.9646 123.346 44.444 121.315 43.9755 119.962C41.9971 114.6 38.2747 110.07 32.8082 106.374C25.9361 101.741 22.5 94.9461 22.5 85.9916C22.5 82.3995 23.333 78.8591 24.999 75.3711C27.9665 68.9676 32.7301 64.5683 39.2899 62.1731C42.3095 61.0802 45.277 60.5334 48.1925 60.5334C52.3054 60.5334 56.2882 61.6269 60.1408 63.8134C64.7218 66.4684 69.4856 70.3468 74.4317 75.4493C74.7439 71.0758 76.5141 67.2756 79.7417 64.0474L74.4317 64.1256V28.125H110.354V64.1256L105.044 64.0474C108.168 67.2232 109.911 71.0499 110.276 75.5274C115.222 70.425 120.012 66.5207 124.645 63.8134C128.446 61.6269 132.428 60.5334 136.593 60.5334C139.509 60.5334 142.476 61.0802 145.496 62.1731C152.056 64.5683 156.819 68.9676 159.787 75.3711C161.453 78.8591 162.286 82.3995 162.286 85.9916C162.286 88.9071 161.739 91.8225 160.646 94.7379C158.928 99.4759 156.065 103.354 152.056 106.374C146.693 109.706 142.945 114.235 140.81 119.962C140.237 121.472 139.717 123.502 139.249 126.053C138.884 130.583 138.702 135.424 138.702 140.578C138.702 144.066 138.78 147.945 138.936 152.214C139.925 153.047 140.42 153.88 140.42 154.713C140.42 158.41 133.157 161.169 118.632 162.991C109.417 164.136 100.671 164.709 92.3929 164.709ZM79.7417 54.5984V58.8156H83.9587L92.3929 50.1471L100.827 58.8156H105.122V54.5984L96.4536 46.0863L105.122 37.2619V33.4353H101.296L92.3929 42.1036L83.9587 33.4353H79.7417V37.6523L88.4104 46.0863L79.7417 54.5984ZM92.3929 89.4279C95.8809 89.4279 98.8487 88.2045 101.296 85.7571C103.794 83.2584 105.044 80.2648 105.044 76.7768C105.044 73.2887 103.794 70.3209 101.296 67.8741C98.8487 65.3754 95.8809 64.1256 92.3929 64.1256C88.8525 64.1256 85.8589 65.349 83.412 67.7959C80.9651 70.2427 79.7417 73.2364 79.7417 76.7768C79.7417 80.3171 80.9651 83.3102 83.412 85.7571C85.8589 88.2045 88.8525 89.4279 92.3929 89.4279ZM85.4426 118.322C73.9373 118.634 64.2274 119.728 56.3141 121.602C55.9497 120.248 55.5331 118.947 55.0646 117.697C52.2012 109.888 47.2033 103.666 40.0708 99.0332C37.1033 97.1589 35.0989 94.6862 34.0577 91.6144C32.6521 87.8136 32.7822 84.1174 34.4482 80.5253C36.1662 76.8808 38.9254 74.3557 42.726 72.9501C44.444 72.3257 46.1621 72.0129 47.8801 72.0129C50.4832 72.0129 52.9822 72.7678 55.377 74.2776C68.2363 82.2954 77.2689 93.4363 82.4749 107.701C83.6724 111.138 84.6619 114.677 85.4426 118.322ZM99.4213 118.322C100.098 114.677 101.061 111.138 102.311 107.701C107.465 93.5404 116.498 82.3995 129.409 74.2776C131.804 72.7678 134.303 72.0129 136.906 72.0129C138.572 72.0129 140.29 72.3257 142.06 72.9501C145.808 74.3557 148.542 76.8808 150.259 80.5253C151.977 84.1697 152.16 87.8659 150.806 91.6144C149.661 94.7379 147.656 97.2107 144.793 99.0332C137.608 103.719 132.585 109.94 129.721 117.697C129.148 119.259 128.732 120.586 128.472 121.68C120.766 119.806 111.083 118.686 99.4213 118.322Z" fill="#1A1F25" />
    <path d="M92.3928 84.0392C87.5508 84.0392 85.1298 81.6182 85.1298 76.7767C85.1298 71.883 87.5508 69.4361 92.3928 69.4361C97.2343 69.4361 99.6553 71.883 99.6553 76.7767C99.6553 81.6182 97.2343 84.0392 92.3928 84.0392ZM92.3928 123.398C110.562 123.398 124.332 125.038 133.703 128.317C133.756 125.038 134.432 121.654 135.734 118.165C138.129 111.658 142.372 106.374 148.463 102.313C154.034 98.5646 156.819 93.15 156.819 86.0698C156.819 83.2584 156.168 80.447 154.867 77.6357C152.576 72.6379 148.827 69.2015 143.621 67.3273C141.226 66.4425 138.858 65.9998 136.515 65.9998C132.819 65.9998 129.304 67.0933 125.972 69.2797C112.905 77.8179 103.638 89.5578 98.1714 104.5C96.089 110.278 95.0478 114.834 95.0478 118.165H89.7373C89.7373 114.834 88.6961 110.252 86.6137 104.421C81.1473 89.532 71.8802 77.8179 58.8127 69.2797C55.4287 67.0933 51.8885 65.9998 48.1922 65.9998C45.8494 65.9998 43.5066 66.4166 41.1638 67.2491C35.9577 69.1757 32.1832 72.6379 29.8404 77.6357C28.5389 80.3947 27.8881 83.1802 27.8881 85.9916C27.8881 93.0718 30.6994 98.5123 36.3221 102.313C42.4654 106.426 46.7084 111.71 49.0512 118.165C50.1965 121.341 50.8733 124.725 51.0816 128.317C60.2443 125.038 74.0148 123.398 92.3928 123.398ZM92.3928 139.953C110.406 139.953 124.124 141.568 133.548 144.795C133.548 144.066 133.521 142.973 133.469 141.515C133.417 140.057 133.391 138.964 133.391 138.235C126.206 135.424 112.54 134.018 92.3923 134.018C72.1924 134.018 58.5264 135.424 51.3939 138.235C51.3939 138.964 51.3679 140.057 51.3158 141.515C51.3158 142.973 51.3158 144.066 51.3158 144.795C60.6347 141.568 74.327 139.953 92.3928 139.953ZM92.3928 159.398C101.503 159.398 111.082 158.774 121.13 157.524C130.398 156.379 135.031 155.442 135.031 154.713C135.031 153.308 129.382 152.136 118.085 151.199C109.078 150.418 100.514 150.028 92.3928 150.028C82.8135 150.028 73.1036 150.652 63.2638 151.902C54.2574 153.047 49.754 153.984 49.754 154.713C49.754 156.067 55.4027 157.238 66.7001 158.227C75.915 159.008 84.479 159.398 92.3928 159.398ZM79.7417 54.5983V58.8155H83.9587L92.3928 50.1471L100.826 58.8155H105.122V54.5983L96.4535 46.0862L105.122 37.2618V33.4353H101.295L92.3928 42.1035L83.9587 33.4353H79.7417V37.6523L88.4098 46.0862L79.7417 54.5983ZM92.3928 89.4279C95.8809 89.4279 98.8481 88.2039 101.295 85.757C103.794 83.2584 105.043 80.2648 105.043 76.7767C105.043 73.2887 103.794 70.3209 101.295 67.874C98.8481 65.3749 95.8809 64.1255 92.3928 64.1255C88.8525 64.1255 85.8588 65.349 83.412 67.7959C80.9651 70.2427 79.7417 73.2364 79.7417 76.7767C79.7417 80.3171 80.9651 83.3102 83.412 85.757C85.8588 88.2039 88.8525 89.4279 92.3928 89.4279ZM85.4426 118.322C73.9367 118.634 64.2273 119.728 56.3135 121.602C55.9494 120.248 55.5328 118.947 55.0643 117.697C52.2009 109.888 47.203 103.666 40.0705 99.0332C37.103 97.1589 35.0986 94.6856 34.0574 91.6144C32.6517 87.8135 32.7819 84.1174 34.4479 80.5252C36.1659 76.8808 38.9252 74.3557 42.7257 72.95C44.4437 72.3251 46.1618 72.0129 47.8798 72.0129C50.4829 72.0129 52.9819 72.7678 55.3767 74.2775C68.2357 82.2954 77.2689 93.4363 82.4748 107.701C83.6724 111.138 84.6613 114.677 85.4426 118.322ZM99.4207 118.322C100.098 114.677 101.061 111.138 102.31 107.701C107.464 93.5404 116.497 82.3995 129.409 74.2775C131.803 72.7678 134.302 72.0129 136.905 72.0129C138.571 72.0129 140.289 72.3251 142.059 72.95C145.808 74.3557 148.541 76.8808 150.259 80.5252C151.977 84.1697 152.16 87.8659 150.806 91.6144C149.66 94.7379 147.656 97.2107 144.793 99.0332C137.608 103.719 132.584 109.94 129.721 117.697C129.148 119.259 128.731 120.586 128.472 121.68C120.766 119.806 111.082 118.686 99.4207 118.322Z" fill="#D83A56" />
  </g>
  <g id="bn" fill="none" transform="scale(0.2222222222222222 0.2222222222222222)">
    <path d="M73.6206 55.3817C70.2366 58.3492 68.8309 60.5098 69.4035 61.8632C69.9244 63.0608 71.1737 63.1907 73.152 62.2536C73.8287 61.9414 74.3754 61.5251 74.7917 61.0042C75.7811 59.3904 77.2909 58.167 79.3215 57.3339C81.7161 56.3968 82.7837 55.4077 82.5233 54.3665C82.2105 53.0649 80.4409 52.8306 77.2127 53.6636C75.6512 54.0801 74.4536 54.6528 73.6206 55.3817ZM48.7872 123.947C49.2557 123.166 50.0887 122.125 51.2861 120.823C52.1191 119.782 53.2384 118.376 54.6441 116.606C55.0605 116.085 55.0605 115.721 54.6441 115.513C54.2276 115.253 53.4206 115.148 52.2232 115.201C50.9737 115.305 50.0106 115.695 49.3338 116.372C47.9802 117.361 46.6786 118.637 45.4291 120.198C45.0648 120.667 44.7523 121.188 44.492 121.76C43.4508 124.259 43.7111 125.743 45.273 126.211C46.4704 126.576 47.6418 125.821 48.7872 123.947ZM65.4992 57.2557C65.3428 54.809 65.5509 51.9976 66.1236 48.8218C67.2171 42.3662 69.1954 37.3422 72.0585 33.75C75.4425 36.9258 78.228 41.5333 80.4144 47.5724C80.6231 48.1971 80.9353 49.1603 81.3516 50.4618C81.4556 50.618 81.5597 50.6961 81.6643 50.6961C81.7684 50.6961 81.8983 50.618 82.0547 50.4618C83.1999 43.9541 85.2041 38.9041 88.0678 35.3118C91.3995 38.6438 94.1591 43.2773 96.3456 49.2123C96.3979 49.5247 96.84 49.9412 97.6731 50.4618L109.387 51.0085L114.385 56.0064L124.615 58.6614L124.459 63.5034L135.236 67.8763L133.127 73.9676L144.685 80.0589L140.234 82.5581L148.355 92.9441L144.06 94.0376L153.744 106.454L148.355 106.298L156.555 119.261L150.62 117.622L155.306 130.038L150.073 130.116L156.555 143.782L151.167 144.485L155.852 155.809L151.401 157.292L154.915 165.57H50.8177C50.7136 165.05 50.6615 164.529 50.6615 164.009C50.6615 157.709 54.3058 151.019 61.5943 143.939C62.0111 143.522 65.7073 140.242 72.6834 134.099C78.8788 128.632 82.0806 125.795 82.2893 125.587C86.5058 121.63 89.2131 118.48 90.4106 116.138C91.6599 113.743 92.5189 111.452 92.9874 109.266C89.7081 110.828 85.8291 111.4 81.3521 110.984C79.0093 110.828 76.7447 110.307 74.5577 109.422C70.6011 113.639 66.7226 116.424 62.9218 117.778C62.0893 119.808 61.0476 121.682 59.7983 123.401C57.6636 126.472 55.0868 128.997 52.0672 130.975C48.0584 133.63 44.7786 134.047 42.2275 132.225C40.978 131.392 40.1971 130.507 39.8847 129.57C39.4682 129.57 38.6353 129.387 37.3858 129.023C33.377 127.982 30.6438 125.275 29.1861 120.902C27.8845 117.049 27.7804 113.04 28.8737 108.875C30.1232 104.242 32.492 100.598 35.9801 97.9425C41.9672 92.2674 46.835 85.6294 50.5834 78.0289C55.1128 68.7617 60.0846 61.8373 65.4992 57.2557ZM42.2273 107.86C43.9454 105.829 45.1949 104.424 45.9758 103.643C46.7047 102.81 46.6526 101.821 45.8197 100.675C44.6744 99.2694 42.5398 100.961 39.4161 105.751C38.9997 107.313 39.1558 108.407 39.8847 109.031C40.5615 109.604 41.3424 109.213 42.2274 107.86H42.2273ZM71.7463 75.5297C74.0891 74.124 75.2603 72.9006 75.2603 71.8594C75.2603 70.4014 73.9851 69.9069 71.4341 70.3755C66.5921 71.2603 62.6355 73.5514 59.5637 77.2476C58.2103 78.8096 57.7941 80.0066 58.3144 80.8397C59.0434 82.1413 61.0217 81.9849 64.2493 80.3711C66.1236 82.4535 68.076 82.9221 70.1066 81.7768C72.0326 80.6316 72.5794 78.5492 71.7463 75.5297ZM102.593 101.066C106.654 95.7555 108.944 89.8206 109.465 83.2607C109.517 82.3759 109.544 81.6986 109.544 81.2301C109.439 78.471 108.554 77.0912 106.888 77.0912C105.17 77.0912 104.311 78.4451 104.311 81.1524C104.259 81.3606 104.207 81.9332 104.155 82.8703C103.739 88.389 101.812 93.465 98.3762 98.0983C96.3979 100.806 96.1116 102.68 97.5172 103.721C97.8812 103.982 98.2457 104.111 98.6102 104.111C99.7037 104.111 101.031 103.096 102.593 101.066H102.593ZM105.795 107.079C109.96 103.331 112.823 98.9572 114.385 93.9594C115.166 91.5643 114.905 90.1069 113.604 89.586C112.199 89.0657 111.079 89.9769 110.246 92.3192C110.194 92.5279 110.012 92.9964 109.699 93.7249C108.294 97.2135 106.159 100.311 103.296 103.018C101.422 104.424 100.927 105.803 101.812 107.157C102.593 108.511 103.921 108.485 105.795 107.079ZM108.45 112.546C112.042 111.036 114.463 109.057 115.712 106.611L116.259 105.517C116.988 103.018 116.728 101.456 115.478 100.832C114.177 100.207 112.979 101.04 111.886 103.331C111.574 103.903 111.417 104.164 111.417 104.111C110.376 105.986 108.736 107.495 106.498 108.641C104.831 109.474 104.285 110.541 104.858 111.842C105.431 113.092 106.628 113.326 108.45 112.546ZM145.388 158.62C145.648 154.247 145.778 148.286 145.778 140.737C145.778 115.799 141.951 96.6667 134.299 83.3389C133.778 81.8809 132.867 80.1113 131.565 78.0283C130.107 75.6338 129.118 74.6443 128.598 75.0611C128.025 75.5297 128.494 76.9089 130.003 79.2C130.628 80.7097 131.123 82.0373 131.487 83.1825C136.329 93.699 138.75 107.235 138.75 123.791C138.75 129.83 138.203 138.524 137.11 149.874C136.849 152.737 136.485 155.653 136.016 158.62C136.016 159.245 137.604 159.557 140.78 159.557C143.852 159.557 145.388 159.245 145.388 158.62Z" fill="#1A1F25" />
    <path d="M73.6205 55.3818C70.2365 58.3492 68.8309 60.5098 69.4035 61.8638C69.9244 63.0608 71.1737 63.1912 73.152 62.2541C73.8287 61.9414 74.3754 61.5251 74.7917 61.0042C75.7811 59.3904 77.2909 58.167 79.3215 57.3339C81.716 56.3968 82.7837 55.4078 82.5232 54.3666C82.2105 53.065 80.4409 52.8308 77.2127 53.6637C75.6512 54.0803 74.4536 54.6529 73.6205 55.3818ZM48.7871 123.947C49.2556 123.166 50.0886 122.125 51.286 120.823C52.119 119.782 53.2384 118.376 54.644 116.606C55.0605 116.086 55.0605 115.721 54.644 115.513C54.2276 115.253 53.4206 115.149 52.2232 115.201C50.9737 115.305 50.0106 115.695 49.3338 116.372C47.9801 117.361 46.6786 118.637 45.4291 120.198C45.0647 120.667 44.7523 121.188 44.492 121.76C43.4507 124.26 43.7111 125.743 45.2729 126.211C46.4704 126.576 47.6417 125.821 48.7871 123.947ZM42.2273 107.86C43.9454 105.83 45.1948 104.424 45.9758 103.643C46.7046 102.81 46.6526 101.821 45.8197 100.676C44.6743 99.27 42.5398 100.962 39.4161 105.752C38.9996 107.313 39.1558 108.407 39.8847 109.032C40.5614 109.604 41.3423 109.214 42.2273 107.86ZM71.7463 75.5297C74.0891 74.124 75.2602 72.9006 75.2602 71.8594C75.2602 70.4014 73.985 69.9069 71.4341 70.3755C66.5921 71.2609 62.6355 73.5514 59.5637 77.2476C58.2103 78.8096 57.794 80.0072 58.3144 80.8403C59.0434 82.1413 61.0217 81.9855 64.2493 80.3717C66.1235 82.4541 68.076 82.9226 70.1066 81.7768C72.0326 80.6316 72.5794 78.5492 71.7463 75.5297ZM102.593 101.066C106.654 95.7555 108.944 89.8206 109.465 83.2607C109.517 82.3759 109.543 81.6992 109.543 81.2306C109.439 78.471 108.554 77.0918 106.888 77.0918C105.17 77.0918 104.311 78.4451 104.311 81.1524C104.259 81.3606 104.207 81.9332 104.155 82.8703C103.738 88.389 101.812 93.465 98.3762 98.0983C96.3979 100.806 96.1115 102.68 97.5172 103.721C97.8812 103.982 98.2457 104.111 98.6102 104.111C99.7037 104.111 101.031 103.096 102.593 101.066ZM105.794 107.079C109.96 103.331 112.823 98.9572 114.385 93.9594C115.166 91.5649 114.905 90.1069 113.604 89.5866C112.198 89.0657 111.079 89.9769 110.246 92.3197C110.194 92.5279 110.011 92.9964 109.699 93.7254C108.294 97.2135 106.159 100.311 103.296 103.019C101.422 104.424 100.927 105.803 101.812 107.157C102.593 108.511 103.921 108.485 105.794 107.079ZM108.45 112.546C112.042 111.036 114.463 109.057 115.712 106.611L116.259 105.517C116.988 103.019 116.728 101.456 115.478 100.832C114.177 100.207 112.979 101.04 111.886 103.331C111.574 103.903 111.417 104.164 111.417 104.111C110.376 105.986 108.736 107.495 106.498 108.641C104.831 109.474 104.285 110.541 104.858 111.843C105.43 113.092 106.627 113.326 108.45 112.546ZM145.388 158.62C145.648 154.247 145.778 148.286 145.778 140.737C145.778 115.8 141.951 96.6667 134.299 83.3389C133.778 81.8814 132.867 80.1113 131.565 78.0289C130.107 75.6338 129.118 74.6449 128.598 75.0611C128.025 75.5297 128.494 76.9095 130.003 79.2C130.628 80.7097 131.123 82.0372 131.487 83.1825C136.329 93.699 138.75 107.235 138.75 123.791C138.75 129.83 138.203 138.525 137.11 149.874C136.849 152.737 136.485 155.653 136.016 158.62C136.016 159.245 137.604 159.557 140.78 159.557C143.852 159.557 145.388 159.245 145.388 158.62Z" fill="#D83A56" />
  </g>
  <g id="bp" fill="none" transform="scale(0.2222222222222222 0.2222222222222222)">
    <path d="M92.3243 121.37C96.5413 121.37 99.9253 121.084 102.476 120.511C104.194 120.094 104.949 119.131 104.741 117.622C104.533 116.268 103.543 115.539 101.773 115.435C99.7948 115.955 96.6454 116.216 92.3243 116.216C87.9508 116.216 84.8014 115.955 82.8748 115.435C81.1046 115.487 80.1416 116.216 79.9852 117.622C79.7254 119.131 80.4538 120.094 82.1723 120.511C84.6191 121.084 88.0031 121.37 92.3243 121.37ZM92.3243 58.9742C93.6259 58.9742 94.7711 58.8178 95.76 58.5056C97.3221 58.1411 97.947 57.1258 97.6343 55.4597C97.3221 53.7417 96.3849 53.0128 94.8229 53.2731C93.9898 53.5855 93.1573 53.7417 92.3243 53.7417C91.4912 53.7417 90.6581 53.5855 89.8251 53.2731C88.2112 53.0128 87.2741 53.7417 87.0137 55.4597C86.7015 57.1776 87.3264 58.1929 88.8879 58.5056C89.9291 58.8696 91.0744 59.0259 92.3243 58.9742ZM101.227 55.3817C104.715 60.7438 108.932 65.5858 113.878 69.9069C114.919 70.8441 115.283 71.7553 114.971 72.6401C114.659 73.5773 113.774 74.0458 112.316 74.0458H105.288C106.172 76.9089 107.656 79.2782 109.739 81.1524C115.153 86.0979 117.861 92.0593 117.861 99.0354C117.861 106.532 114.945 112.675 109.114 117.465C111.405 120.12 113.982 122.333 116.845 124.103C123.821 127.799 129.366 133.032 133.479 139.8C137.592 146.516 139.649 153.83 139.649 161.744C139.649 162.837 139.544 164.217 139.336 165.883H45.3124C45.1041 163.644 45 162.264 45 161.744C45 153.83 47.0304 146.516 51.0912 139.8C55.2041 133.032 60.7747 127.799 67.8032 124.103C70.6146 122.333 73.1914 120.12 75.5342 117.465C69.7033 112.728 66.7879 106.584 66.7879 99.0354C66.7879 92.0593 69.4952 86.0979 74.9092 81.1524C76.8876 79.2782 78.3714 76.9089 79.3609 74.0458H72.3324C70.8744 74.0458 69.9896 73.5773 69.6774 72.6401C69.3129 71.7553 69.6774 70.8441 70.7704 69.9069C75.7164 65.5335 79.9335 60.6921 83.4216 55.3817C80.9224 52.8827 79.6731 49.8891 79.6731 46.401C79.6731 42.9128 80.8965 39.9453 83.3434 37.4984C85.8426 34.9995 88.8362 33.75 92.3243 33.75C95.8123 33.75 98.7795 34.9995 101.227 37.4984C103.726 39.9453 104.975 42.9128 104.975 46.401C104.975 49.785 103.726 52.7786 101.227 55.3817ZM87.2483 71.3908C85.4781 71.3908 84.5927 72.3015 84.5927 74.124C84.5927 75.8942 85.4781 76.779 87.2483 76.779H97.4002C99.1704 76.779 100.081 75.8942 100.133 74.124C100.133 72.3015 99.2222 71.3908 97.4002 71.3908H87.2483Z" fill="#1A1F25" />
    <path d="M92.3243 121.37C96.5413 121.37 99.9253 121.084 102.476 120.511C104.194 120.094 104.949 119.131 104.741 117.622C104.533 116.268 103.543 115.539 101.773 115.435C99.7948 115.955 96.6454 116.216 92.3243 116.216C87.9508 116.216 84.8014 115.955 82.8748 115.435C81.1046 115.487 80.1416 116.216 79.9853 117.622C79.7254 119.131 80.4538 120.094 82.1723 120.511C84.6191 121.084 88.0031 121.37 92.3243 121.37ZM92.3243 58.9742C93.6259 58.9742 94.7711 58.8178 95.76 58.5056C97.3221 58.1411 97.947 57.1258 97.6343 55.4598C97.3221 53.7417 96.385 53.0129 94.8229 53.2732C93.9904 53.5855 93.1573 53.7417 92.3243 53.7417C91.4912 53.7417 90.6581 53.5855 89.8251 53.2732C88.2113 53.0129 87.2741 53.7417 87.0137 55.4598C86.7015 57.1776 87.3265 58.1929 88.888 58.5056C89.9291 58.8696 91.0744 59.0259 92.3243 58.9742ZM87.2483 71.3908C85.4781 71.3908 84.5927 72.3015 84.5927 74.124C84.5927 75.8942 85.4781 76.779 87.2483 76.779H97.4003C99.1705 76.779 100.081 75.8942 100.133 74.124C100.133 72.3015 99.2222 71.3908 97.4003 71.3908H87.2483Z" fill="#D83A56" />
  </g>
  <g id="bq" fill="none" transform="scale(0.2222222222222222 0.2222222222222222)">
    <path d="M48.8953 136.444L55.6113 138.475L67.5596 129.572L53.3466 125.277C51.212 126.839 49.6502 128.01 48.661 128.791C48.7651 131.342 48.8432 133.893 48.8953 136.444ZM89.6597 121.997C85.2345 124.184 80.7829 126.422 76.3059 128.713L82.9434 132.071C85.1822 133.216 87.4209 134.31 89.6597 135.351L103.013 128.713L89.6597 121.997ZM89.6597 118.483C105.07 118.483 117.07 119.498 125.66 121.529C128.42 122.205 130.189 121.555 130.971 119.576C131.179 119.108 131.283 118.665 131.283 118.249C131.283 116.687 129.981 115.489 127.378 114.656C118.007 111.533 105.434 109.97 89.6597 109.97C73.8849 109.97 61.3119 111.533 51.9409 114.656C49.3378 115.489 48.0363 116.687 48.0363 118.249C48.0363 118.665 48.1404 119.108 48.3487 119.576C49.1296 121.555 50.8997 122.205 53.659 121.529C62.1973 119.498 74.1971 118.483 89.6597 118.483ZM89.6597 147.299C105.07 147.299 117.07 148.314 125.66 150.344C128.42 151.021 130.189 150.371 130.971 148.392C131.179 147.923 131.283 147.481 131.283 147.065C131.283 145.503 129.981 144.28 127.378 143.394C118.059 140.323 105.486 138.787 89.6597 138.787C73.7809 138.787 61.2079 140.323 51.9409 143.394C49.3378 144.28 48.0363 145.503 48.0363 147.065C48.0363 147.481 48.1404 147.923 48.3487 148.392C49.1296 150.371 50.8997 151.021 53.659 150.344C62.1973 148.314 74.1971 147.299 89.6597 147.299ZM89.6597 163.074C81.2779 163.074 72.4792 162.423 63.2644 161.121C48.8432 159.039 41.6327 155.915 41.6327 151.75C41.6327 150.917 42.1013 150.032 43.0383 149.095C43.4028 145.659 43.585 141.468 43.585 136.522C43.585 127.776 43.1425 120.175 42.2574 113.719C41.9451 112.834 41.6067 111.923 41.2422 110.986L40.227 108.097C37.3636 100.287 34.1098 92.7382 30.4654 85.4494C25.1552 85.4494 22.5 82.7944 22.5 77.4844C22.5 72.1738 25.1552 69.5188 30.4654 69.5188C35.7757 69.5188 38.4309 72.1738 38.4309 77.4844C38.4309 78.9941 38.1185 80.1911 37.4938 81.0765C39.1597 83.5234 41.7368 87.1414 45.2249 91.9311C45.5894 92.3996 46.2401 93.285 47.1773 94.5866C50.8736 100.105 53.4767 102.786 54.9865 102.63C57.7457 102.37 59.1255 97.8666 59.1255 89.1203C59.1255 84.7468 58.7869 79.3322 58.1102 72.8769C53.5808 72.1997 51.3161 69.5706 51.3161 64.9896C51.3161 59.7313 53.9713 57.1022 59.2819 57.1022C64.5919 57.1022 67.2469 59.7313 67.2469 64.9896C67.2469 67.5405 66.2839 69.597 64.3579 71.1585C65.8153 79.9571 69.4074 89.4066 75.1342 99.5063C76.2795 99.3499 77.2166 99.2722 77.9456 99.2722C80.4448 96.0964 82.4749 89.6664 84.0369 79.983C85.1822 72.9028 85.8589 66.0825 86.0676 59.5226C86.0676 58.1693 86.2234 56.5296 86.5361 54.6031C83.3079 53.3536 81.6941 50.9327 81.6941 47.3405C81.6941 42.0302 84.3491 39.375 89.6597 39.375C94.9697 39.375 97.6252 42.0302 97.6252 47.3405C97.6252 50.9327 96.0114 53.3536 92.7832 54.6031C93.0954 56.8935 93.2518 58.5338 93.2518 59.5226C93.4082 66.1348 94.059 72.9546 95.2042 79.983C96.7663 89.6664 98.8222 96.0964 101.374 99.2722C102.05 99.2722 102.988 99.3499 104.185 99.5063C109.911 89.2502 113.504 79.8008 114.961 71.1585C113.035 69.597 112.072 67.5405 112.072 64.9896C112.072 59.7313 114.727 57.1022 120.037 57.1022C125.348 57.1022 128.003 59.7313 128.003 64.9896C128.003 69.5706 125.738 72.1997 121.209 72.8769C120.532 79.3322 120.194 84.7468 120.194 89.1203C120.194 97.8666 121.574 102.37 124.333 102.63C125.791 102.786 128.393 100.105 132.142 94.5866C133.6 92.6083 135.734 89.5624 138.545 85.4494C139.431 83.9919 140.524 82.5339 141.825 81.0765C141.201 80.1911 140.888 78.9941 140.888 77.4844C140.888 72.1738 143.543 69.5188 148.854 69.5188C154.164 69.5188 156.819 72.1738 156.819 77.4844C156.819 82.7944 154.164 85.4494 148.854 85.4494C145.313 92.3737 142.06 99.9231 139.092 108.097L137.062 113.719C136.177 120.487 135.734 128.088 135.734 136.522C135.734 141.468 135.916 145.659 136.281 149.095C137.218 149.928 137.686 150.813 137.686 151.75C137.686 155.915 130.476 159.039 116.055 161.121C106.84 162.423 98.0415 163.074 89.6597 163.074ZM130.424 136.444C130.424 133.893 130.502 131.342 130.658 128.791C129.617 128.01 128.055 126.839 125.972 125.277L111.76 129.572L117.695 134.024C119.673 135.533 121.678 137.017 123.708 138.475C125.895 137.85 128.133 137.173 130.424 136.444Z" fill="#1A1F25" />
    <path d="M48.8951 136.444L55.611 138.475L67.5591 129.572L53.3464 125.277C51.2118 126.839 49.6499 128.01 48.6608 128.791C48.7648 131.342 48.8429 133.893 48.8951 136.444ZM89.6592 121.997C85.234 124.184 80.7829 126.422 76.3054 128.713L82.9435 132.071C85.1822 133.216 87.421 134.31 89.6592 135.351L103.013 128.713L89.6592 121.997ZM89.6592 118.483C105.069 118.483 117.07 119.498 125.66 121.529C128.419 122.205 130.19 121.555 130.97 119.576C131.178 119.108 131.282 118.665 131.282 118.249C131.282 116.687 129.981 115.489 127.378 114.656C118.007 111.533 105.434 109.971 89.6592 109.971C73.8844 109.971 61.312 111.533 51.9407 114.656C49.3376 115.489 48.036 116.687 48.036 118.249C48.036 118.665 48.1401 119.108 48.3484 119.576C49.1293 121.555 50.8994 122.205 53.6587 121.529C62.1968 119.498 74.1972 118.483 89.6592 118.483ZM89.6592 147.299C105.069 147.299 117.07 148.314 125.66 150.344C128.419 151.022 130.19 150.371 130.97 148.393C131.178 147.924 131.282 147.481 131.282 147.065C131.282 145.503 129.981 144.28 127.378 143.394C118.059 140.323 105.486 138.787 89.6592 138.787C73.7803 138.787 61.2079 140.323 51.9407 143.394C49.3376 144.28 48.036 145.503 48.036 147.065C48.036 147.481 48.1401 147.924 48.3484 148.393C49.1293 150.371 50.8994 151.022 53.6587 150.344C62.1968 148.314 74.1972 147.299 89.6592 147.299ZM130.424 136.444C130.424 133.893 130.502 131.342 130.658 128.791C129.617 128.01 128.055 126.839 125.972 125.277L111.76 129.572L117.695 134.024C119.673 135.533 121.677 137.017 123.708 138.475C125.894 137.85 128.133 137.173 130.424 136.444Z" fill="#D83A56" />
  </g>
  <g id="br" fill="none" transform="scale(0.2222222222222222 0.2222222222222222)">
    <path d="M53.8244 49.1296L57.9634 55.7674H119.969L124.108 49.1296H53.8244ZM98.3374 22.5L98.9618 31.793H112.94L113.644 22.5H130.355V49.1296L123.639 59.8281V118.398L130.355 129.097V145.105H132.932V161.036H45V145.105H47.577V129.097L54.293 118.398V59.8281L47.577 49.1296V22.5H64.3669L64.9918 31.793H78.9705L79.6731 22.5H98.3374ZM53.0435 37.1033V43.8193H124.889V37.1033H53.0435ZM51.6379 146.355V153.071H126.294V146.355H51.6379ZM53.0435 129.097V135.812H124.889V129.097H53.0435ZM59.6812 115.743V122.38H118.329V115.743H59.6812Z" fill="#1A1F25" />
    <path d="M53.8244 49.1296L57.9634 55.7674H119.969L124.108 49.1296H53.8244ZM53.0435 37.1033V43.8192H124.889V37.1033H53.0435ZM51.6378 146.355V153.071H126.294V146.355H51.6378ZM53.0435 129.097V135.812H124.889V129.097H53.0435ZM59.6813 115.743V122.38H118.329V115.743H59.6813Z" fill="#D83A56" />
  </g>
  <g id="wb" fill="none" transform="scale(0.2222222222222222 0.2222222222222222)">
    <path d="M88.8052 109.073C88.9093 109.073 89.0657 109.021 89.2738 108.917C89.4819 108.761 89.6642 108.682 89.8206 108.682C92.4756 108.786 93.8031 109.281 93.8031 110.166C93.8031 111.52 92.1375 112.197 88.8052 112.197C85.5253 112.197 83.8856 111.52 83.8856 110.166C83.8856 109.281 85.2131 108.786 87.8681 108.682C87.9722 108.682 88.1027 108.761 88.2585 108.917C88.4672 109.021 88.6489 109.073 88.8052 109.073ZM107.157 77.8359C108.199 73.6706 109.37 70.209 110.671 67.4494C109.213 67.5534 108.667 67.6058 109.031 67.6058C107.938 67.7098 106.871 67.7616 105.829 67.7616C99.7903 67.7616 94.6626 66.1219 90.4455 62.8419C89.8729 62.4251 89.3261 62.217 88.8052 62.217C88.1809 62.217 87.66 62.4251 87.2438 62.8419C83.0267 66.1219 77.8984 67.7616 71.8594 67.7616C70.8182 67.7616 69.7506 67.7098 68.6576 67.6058C68.9698 67.6058 68.4231 67.5534 67.0174 67.4494C68.3713 70.4689 69.5683 73.9311 70.6095 77.8359H107.157ZM97.3958 92.7518C97.5516 92.5431 97.6556 92.3349 97.7079 92.1268C97.7079 91.5019 97.3434 91.1897 96.6144 91.1897C95.9377 91.1897 95.5991 91.5019 95.5991 92.1268C95.5991 92.4913 95.7555 92.7518 96.0677 92.9076C94.0376 92.9076 92.97 92.4654 92.8659 91.5801C92.7619 90.5389 94.0117 89.8881 96.6144 89.6276C99.1654 89.4195 100.519 89.8363 100.676 90.8775C100.676 91.8664 99.5822 92.4913 97.3958 92.7518ZM72.4837 83.1459C71.703 86.3218 71.3126 89.784 71.3126 93.5325C71.3126 100.769 73.0828 105.923 76.6226 108.995C78.0283 110.296 79.4604 111.962 80.9179 113.993C82.7404 116.544 84.8486 117.819 87.2438 117.819H90.4455C92.8401 117.819 94.9489 116.544 96.7708 113.993C98.1765 111.962 99.6081 110.296 101.066 108.995C104.606 105.923 106.376 100.769 106.376 93.5325C106.376 89.784 105.986 86.3218 105.205 83.1459H72.4837ZM80.2153 92.7518C77.9766 92.4913 76.8831 91.8664 76.9354 90.8775C76.9871 89.784 78.3411 89.3678 80.9961 89.6276C83.5993 89.8881 84.8486 90.5389 84.7446 91.5801C84.6405 92.4131 83.5734 92.8558 81.5428 92.9076C81.855 92.7518 82.0114 92.4913 82.0114 92.1268C82.0114 91.5019 81.6727 91.1897 80.9961 91.1897C80.3194 91.1897 79.9807 91.5019 79.9807 92.1268C79.9807 92.3873 80.0589 92.5954 80.2153 92.7518ZM88.8052 94.9382C89.8464 94.9382 90.3673 96.6302 90.3673 100.014C90.3673 100.379 90.3932 100.613 90.4455 100.717C91.0699 101.081 91.3826 101.602 91.3826 102.279C91.3826 103.216 90.8876 103.736 89.8988 103.841C89.4819 104.518 89.118 104.856 88.8052 104.856C88.4407 104.856 88.0762 104.518 87.7123 103.841C86.7229 103.737 86.2284 103.216 86.2284 102.279C86.2284 101.654 86.5406 101.134 87.1656 100.717C87.2696 100.561 87.3214 100.326 87.3214 100.014C87.3214 96.6302 87.8164 94.9382 88.8052 94.9382ZM138.472 159.911V155.069C138.472 149.759 136.208 144.761 131.678 140.075C127.67 135.963 122.698 133.568 116.763 132.891C108.381 131.902 101.717 127.815 96.7708 120.63C95.0529 122.192 92.9441 122.973 90.4455 122.973H87.2438C84.5364 122.973 82.4018 122.192 80.8397 120.63C75.7901 127.815 69.1262 131.902 60.8484 132.891C54.8611 133.568 49.8892 135.963 45.9325 140.075C41.4032 144.709 39.1384 149.707 39.1384 155.069V159.911H138.472ZM33.8281 165.221V159.911C33.776 159.287 33.75 158.766 33.75 158.349C33.8021 157.933 33.8281 157.412 33.8281 156.787C33.8281 149.135 36.4312 142.522 41.6374 136.952C46.5312 131.642 52.8828 128.518 60.6921 127.581C67.5118 126.748 72.9523 123.208 77.0136 116.96C76.8572 116.908 76.7531 116.804 76.7008 116.648C75.816 115.346 74.7748 114.175 73.5773 113.134C68.5271 108.708 66.0021 102.071 66.0021 93.2203C66.0021 89.3154 66.393 85.9573 67.1738 83.1459C66.2884 83.1459 65.8463 82.2353 65.8463 80.4128C64.3883 74.8423 62.2541 69.3495 59.4428 63.9354C58.1929 61.4886 58.3751 59.9006 59.9889 59.1716C61.3946 58.599 62.7486 59.3539 64.0502 61.4363C66.4447 62.1653 69.1521 62.5298 72.1716 62.5298C79.1477 62.5298 83.8856 60.3692 86.3842 56.048C86.0203 53.3408 87.0351 50.4514 89.4302 47.3797C91.5649 42.7462 97.4734 37.7483 107.157 32.3859C109.656 31.0323 112.103 29.8349 114.498 28.7936C115.695 28.4813 116.893 28.2731 118.09 28.1689C120.433 28.0127 122.672 28.2731 124.806 28.9499C127.67 29.8349 129.205 31.2926 129.413 33.3231C129.726 37.1235 126.524 39.4664 119.808 40.3514C109.031 41.8611 100.519 44.7766 94.2716 49.0978C92.3456 51.1802 91.3826 53.0544 91.3826 54.7204C91.3826 55.1369 91.4344 55.5013 91.5384 55.8137C91.5908 56.3861 91.8248 56.907 92.2416 57.3756C95.0524 60.8119 99.5299 62.5298 105.673 62.5298C108.589 62.5298 111.27 62.1653 113.717 61.4363C114.914 59.3016 116.242 58.5467 117.7 59.1716C119.261 59.9006 119.443 61.4886 118.246 63.9354C115.279 69.714 113.144 75.2068 111.842 80.4128C111.842 82.2353 111.4 83.1459 110.515 83.1459C111.296 85.9573 111.687 89.3154 111.687 93.2203C111.687 102.122 109.162 108.761 104.111 113.134C102.966 114.123 101.925 115.295 100.988 116.648C100.884 116.804 100.78 116.987 100.675 117.195C104.84 123.286 110.254 126.748 116.918 127.581C124.676 128.518 131.027 131.642 135.973 136.952C141.179 142.575 143.782 149.186 143.782 156.787C143.782 157.412 143.782 157.933 143.782 158.349C143.835 158.766 143.835 159.287 143.782 159.911V165.221H33.8281Z" fill="#1A1F25" />
    <path d="M88.8052 109.073C88.9093 109.073 89.0657 109.021 89.2738 108.917C89.4819 108.761 89.6642 108.682 89.8205 108.682C92.4755 108.786 93.803 109.281 93.803 110.166C93.803 111.52 92.1375 112.197 88.8052 112.197C85.5253 112.197 83.8856 111.52 83.8856 110.166C83.8856 109.281 85.2131 108.786 87.8681 108.682C87.9722 108.682 88.1027 108.761 88.2585 108.917C88.4672 109.021 88.6489 109.073 88.8052 109.073ZM107.157 77.836C108.199 73.6707 109.37 70.209 110.671 67.4494C109.213 67.5535 108.667 67.6058 109.031 67.6058C107.938 67.7098 106.87 67.7616 105.829 67.7616C99.7903 67.7616 94.6626 66.1219 90.4455 62.842C89.8729 62.4252 89.3261 62.217 88.8052 62.217C88.1809 62.217 87.66 62.4252 87.2437 62.842C83.0267 66.1219 77.8984 67.7616 71.8594 67.7616C70.8182 67.7616 69.7506 67.7098 68.6576 67.6058C68.9698 67.6058 68.4231 67.5535 67.0174 67.4494C68.3713 70.4689 69.5683 73.9311 70.6095 77.836H107.157ZM97.3957 92.7518C97.5516 92.5431 97.6556 92.335 97.7079 92.1268C97.7079 91.5019 97.3434 91.1897 96.6144 91.1897C95.9377 91.1897 95.5991 91.5019 95.5991 92.1268C95.5991 92.4913 95.7555 92.7518 96.0677 92.9076C94.0376 92.9076 92.9706 92.4655 92.8659 91.5801C92.7619 90.5389 94.0117 89.8881 96.6144 89.6277C99.1654 89.4195 100.519 89.8363 100.676 90.8775C100.676 91.8664 99.5822 92.4914 97.3957 92.7518ZM72.4837 83.146C71.703 86.3218 71.3126 89.784 71.3126 93.5325C71.3126 100.769 73.0828 105.923 76.6226 108.995C78.0283 110.296 79.4604 111.962 80.9179 113.993C82.7404 116.544 84.8486 117.819 87.2437 117.819H90.4455C92.8401 117.819 94.9489 116.544 96.7708 113.993C98.1765 111.962 99.6081 110.296 101.066 108.995C104.606 105.923 106.376 100.769 106.376 93.5325C106.376 89.784 105.986 86.3218 105.205 83.146H72.4837ZM80.2153 92.7518C77.9766 92.4914 76.883 91.8664 76.9354 90.8775C76.9871 89.784 78.341 89.3678 80.996 89.6277C83.5993 89.8881 84.8486 90.5389 84.7446 91.5801C84.6405 92.4132 83.5734 92.8558 81.5428 92.9076C81.855 92.7518 82.0114 92.4913 82.0114 92.1268C82.0114 91.5019 81.6727 91.1897 80.996 91.1897C80.3194 91.1897 79.9807 91.5019 79.9807 92.1268C79.9807 92.3873 80.0589 92.5954 80.2153 92.7518ZM88.8052 94.9382C89.8464 94.9382 90.3673 96.6302 90.3673 100.014C90.3673 100.379 90.3932 100.613 90.4455 100.717C91.0699 101.081 91.3826 101.602 91.3826 102.279C91.3826 103.216 90.8876 103.736 89.8987 103.841C89.4819 104.518 89.118 104.856 88.8052 104.856C88.4407 104.856 88.0762 104.518 87.7123 103.841C86.7229 103.737 86.2284 103.216 86.2284 102.279C86.2284 101.654 86.5406 101.134 87.1656 100.717C87.2696 100.561 87.3214 100.326 87.3214 100.014C87.3214 96.6302 87.8164 94.9382 88.8052 94.9382ZM138.472 159.911V155.069C138.472 149.759 136.208 144.761 131.678 140.075C127.669 135.963 122.698 133.568 116.763 132.891C108.381 131.902 101.717 127.815 96.7708 120.63C95.0529 122.192 92.9441 122.973 90.4455 122.973H87.2437C84.5364 122.973 82.4017 122.192 80.8397 120.63C75.7901 127.815 69.1262 131.902 60.8484 132.891C54.8611 133.568 49.8892 135.963 45.9325 140.075C41.4031 144.709 39.1385 149.707 39.1385 155.069V159.911H138.472Z" fill="#66DE93" />
  </g>
  <g id="wk" fill="none" transform="scale(0.2222222222222222 0.2222222222222222)">
    <path d="M143.153 106.452C146.485 102.808 148.151 98.3824 148.151 93.1759C148.151 87.6577 146.199 82.9462 142.294 79.0414C138.39 75.1365 133.678 73.1846 128.159 73.1846C123.526 73.1846 119.361 74.6421 115.665 77.5575C107.751 85.2626 101.92 94.2176 98.172 104.421C96.6099 108.691 95.5429 112.335 94.9697 115.355C113.191 115.563 126.519 117.359 134.953 120.743C135.057 120.222 135.318 119.363 135.734 118.166C137.14 114.209 139.613 110.305 143.153 106.452ZM41.6327 106.452C45.2249 110.409 47.6979 114.313 49.0515 118.166C49.4159 119.155 49.6762 120.014 49.8324 120.743C58.2142 117.359 71.5421 115.563 89.8161 115.355C89.1388 112.179 88.0717 108.534 86.6137 104.421C82.8658 94.2694 77.0349 85.3149 69.1211 77.5575C65.3726 74.6421 61.2079 73.1846 56.6263 73.1846C51.1079 73.1846 46.3963 75.1365 42.4917 79.0414C38.5871 82.9462 36.6348 87.6577 36.6348 93.1759C36.6348 98.3301 38.3007 102.755 41.6327 106.452ZM33.1206 100.126C31.8711 96.4299 31.2464 94.113 31.2464 93.1759C31.2464 86.4079 33.6412 80.4471 38.4309 75.2929C42.5438 70.8677 48.1664 68.6548 55.2989 68.6548C56.4964 68.6548 57.7198 68.7071 58.9691 68.8112C56.6786 67.8741 53.711 67.1709 50.0667 66.7024C46.4744 66.2338 43.5069 66.4161 41.1641 67.2491C35.9059 69.1757 32.2095 72.6114 30.075 77.5575C28.8255 80.4729 28.2008 83.4143 28.2008 86.382C28.2008 89.5579 28.8515 92.6814 30.1531 95.7533C30.5696 96.7421 31.5587 98.2001 33.1206 100.126ZM92.3929 144.717C110.354 144.717 124.072 146.331 133.548 149.559C133.548 148.83 133.522 147.737 133.469 146.279C133.418 144.821 133.391 143.728 133.391 142.999C126.207 140.24 112.54 138.86 92.3929 138.86C72.1929 138.86 58.5264 140.24 51.3942 142.999C51.3942 143.728 51.3682 144.821 51.3161 146.279C51.3161 147.737 51.3161 148.83 51.3161 149.559C60.687 146.331 74.3794 144.717 92.3929 144.717ZM92.3929 159.398C101.504 159.398 111.083 158.774 121.131 157.524C130.398 156.379 135.031 155.442 135.031 154.713C135.031 153.308 129.383 152.136 118.085 151.199C109.079 150.418 100.514 150.028 92.3929 150.028C82.8135 150.028 73.1042 150.652 63.2644 151.902C54.2577 153.047 49.7543 153.984 49.7543 154.713C49.7543 156.067 55.403 157.238 66.7007 158.227C75.9156 159.008 84.4796 159.398 92.3929 159.398ZM92.3929 133.55C110.458 133.55 124.125 135.164 133.391 138.392C133.391 134.747 133.548 130.426 133.86 125.429C127.04 122.253 113.218 120.665 92.3929 120.665C71.5162 120.665 57.6939 122.253 50.9257 125.429C51.134 130.426 51.2902 134.747 51.3943 138.392C60.6094 135.164 74.2753 133.55 92.3929 133.55ZM92.3929 164.709C84.0628 164.709 75.3165 164.136 66.1539 162.991C51.6286 161.169 44.3659 158.41 44.3659 154.713C44.3659 153.88 44.8605 153.047 45.8497 152.214C46.0059 147.893 46.0839 144.015 46.0839 140.578C46.0839 135.008 45.9017 130.166 45.5373 126.053C44.9646 123.346 44.444 121.315 43.9755 119.962C41.9971 114.599 38.2486 109.966 32.7301 106.062C25.91 100.231 22.5 93.5404 22.5 85.9916C22.5 82.3995 23.333 78.8591 24.999 75.3711C27.9665 68.9676 32.7301 64.5683 39.2899 62.1731C42.3095 61.0802 45.277 60.5334 48.1925 60.5334C52.3054 60.5334 56.2882 61.6269 60.1408 63.8134C64.7218 66.4684 69.4856 70.3468 74.4317 75.4493C74.7439 71.0758 76.5141 67.2756 79.7417 64.0474L74.4317 64.1256V28.125H110.354V64.1256L105.044 64.0474C108.168 67.2756 109.938 71.0758 110.354 75.4493C115.3 70.3468 120.064 66.4684 124.645 63.8134C128.446 61.6269 132.428 60.5334 136.593 60.5334C139.509 60.5334 142.476 61.0802 145.496 62.1731C152.056 64.5683 156.819 68.9676 159.787 75.3711C161.453 78.8591 162.286 82.3995 162.286 85.9916C162.286 93.5404 158.876 100.231 152.056 106.062C146.537 109.914 142.788 114.547 140.81 119.962C140.237 121.524 139.717 123.554 139.249 126.053C138.884 130.583 138.702 135.424 138.702 140.578C138.702 144.066 138.78 147.945 138.936 152.214C139.925 153.047 140.42 153.88 140.42 154.713C140.42 158.41 133.157 161.169 118.632 162.991C109.417 164.136 100.671 164.709 92.3929 164.709ZM92.3929 104.968L93.2518 102.625C94.2413 99.7622 95.5164 96.8726 97.0785 93.9572C95.5687 94.4258 94.0067 94.6597 92.3929 94.6597C90.8831 94.6597 89.3734 94.4775 87.8636 94.113C89.4251 97.3929 90.6486 100.231 91.5339 102.625L92.3929 104.968ZM101.296 33.4353H83.412L92.3929 42.4159L101.296 33.4353ZM105.122 55.0669V37.1837L96.1414 46.1644L105.122 55.0669ZM83.4902 58.8156H101.374L92.3929 49.8347L83.4902 58.8156ZM79.8199 54.9888L88.6444 46.0863L79.7417 37.2618L79.8199 54.9888ZM92.3929 89.4279C95.8809 89.4279 98.8487 88.2045 101.296 85.7571C103.794 83.2584 105.044 80.2648 105.044 76.7768C105.044 73.2887 103.794 70.3209 101.296 67.8741C98.8487 65.3749 95.8809 64.1256 92.3929 64.1256C88.8525 64.1256 85.8589 65.349 83.412 67.7959C80.9651 70.2427 79.7417 73.2364 79.7417 76.7768C79.7417 80.3171 80.9651 83.3102 83.412 85.7571C85.8589 88.2045 88.8525 89.4279 92.3929 89.4279ZM151.977 100.126C153.956 97.5752 155.257 95.2065 155.882 93.0201C156.507 90.8331 156.819 88.6725 156.819 86.5384C156.819 83.5189 156.194 80.5253 154.945 77.5575C152.759 72.5597 149.114 69.1234 144.012 67.2491C141.617 66.4166 138.598 66.2344 134.953 66.7029C131.309 67.1715 128.368 67.8741 126.129 68.8112C127.378 68.7071 128.576 68.6554 129.721 68.6554C136.853 68.6554 142.502 70.8677 146.667 75.2929C151.457 80.4471 153.852 86.4084 153.852 93.1764C153.852 94.2176 153.227 96.534 151.977 100.127V100.126Z" fill="#1A1F25" />
    <path d="M143.153 106.452C146.485 102.808 148.151 98.3824 148.151 93.1759C148.151 87.6577 146.199 82.9462 142.294 79.0414C138.39 75.1365 133.678 73.1846 128.159 73.1846C123.526 73.1846 119.361 74.642 115.665 77.5575C107.751 85.2626 101.92 94.217 98.172 104.421C96.6099 108.691 95.5429 112.335 94.9702 115.354C113.192 115.563 126.519 117.359 134.953 120.743C135.057 120.222 135.318 119.363 135.735 118.165C137.14 114.209 139.613 110.305 143.153 106.452ZM41.6328 106.452C45.225 110.409 47.698 114.313 49.0516 118.165C49.416 119.155 49.6763 120.014 49.8325 120.743C58.2142 117.359 71.5421 115.563 89.8161 115.354C89.1394 112.179 88.0717 108.534 86.6143 104.421C82.8658 94.2694 77.0349 85.3149 69.1211 77.5575C65.3732 74.642 61.2079 73.1846 56.6263 73.1846C51.108 73.1846 46.3965 75.1365 42.4918 79.0414C38.5872 82.9462 36.6349 87.6577 36.6349 93.1759C36.6349 98.33 38.3008 102.755 41.6328 106.452ZM33.1207 100.126C31.8712 96.4299 31.2465 94.113 31.2465 93.1759C31.2465 86.4079 33.6413 80.447 38.431 75.2929C42.5439 70.8677 48.1665 68.6548 55.299 68.6548C56.4964 68.6548 57.7198 68.7071 58.9691 68.8112C56.6786 67.874 53.7111 67.1709 50.0668 66.7024C46.4745 66.2338 43.507 66.416 41.1642 67.2491C35.906 69.1757 32.2096 72.6114 30.0751 77.5575C28.8256 80.4729 28.2009 83.4142 28.2009 86.382C28.2009 89.5579 28.8516 92.6814 30.1532 95.7532C30.5697 96.7421 31.5588 98.2001 33.1207 100.126ZM92.3929 144.717C110.354 144.717 124.072 146.331 133.548 149.559C133.548 148.83 133.522 147.737 133.469 146.279C133.418 144.821 133.391 143.728 133.391 142.999C126.207 140.24 112.541 138.86 92.3929 138.86C72.1929 138.86 58.527 140.24 51.3943 142.999C51.3943 143.728 51.3683 144.821 51.3162 146.279C51.3162 147.737 51.3162 148.83 51.3162 149.559C60.6876 146.331 74.3794 144.717 92.3929 144.717ZM92.3929 159.398C101.504 159.398 111.083 158.774 121.131 157.524C130.398 156.379 135.031 155.442 135.031 154.713C135.031 153.307 129.383 152.136 118.086 151.199C109.079 150.418 100.515 150.028 92.3929 150.028C82.8135 150.028 73.1042 150.652 63.2644 151.902C54.2578 153.047 49.7544 153.984 49.7544 154.713C49.7544 156.067 55.4031 157.238 66.7007 158.227C75.9156 159.008 84.4796 159.398 92.3929 159.398ZM92.3929 133.55C110.459 133.55 124.125 135.164 133.392 138.392C133.392 134.747 133.548 130.426 133.86 125.428C127.04 122.253 113.218 120.665 92.3929 120.665C71.5162 120.665 57.6939 122.253 50.9258 125.428C51.1341 130.426 51.2903 134.747 51.3944 138.392C60.6094 135.164 74.2753 133.55 92.3929 133.55ZM92.3929 104.968L93.2518 102.625C94.2412 99.7622 95.5164 96.8726 97.0785 93.9572C95.5687 94.4257 94.0067 94.6597 92.3929 94.6597C90.8831 94.6597 89.3734 94.4775 87.8636 94.113C89.4257 97.3929 90.6491 100.23 91.5339 102.625L92.3929 104.968ZM101.296 33.4353H83.4126L92.3929 42.4159L101.296 33.4353ZM105.122 55.0669V37.1837L96.1414 46.1644L105.122 55.0669ZM83.4902 58.8155H101.374L92.3929 49.8347L83.4902 58.8155ZM79.8199 54.9888L88.6444 46.0862L79.7422 37.2618L79.8199 54.9888ZM92.3929 89.4274C95.8809 89.4274 98.8487 88.2039 101.296 85.757C103.795 83.2584 105.044 80.2648 105.044 76.7767C105.044 73.2887 103.795 70.3209 101.296 67.874C98.8487 65.3749 95.8809 64.1255 92.3929 64.1255C88.8531 64.1255 85.8594 65.349 83.4126 67.7959C80.9657 70.2427 79.7422 73.2364 79.7422 76.7767C79.7422 80.3171 80.9657 83.3102 83.4126 85.757C85.8594 88.2039 88.8531 89.4274 92.3929 89.4274ZM151.977 100.126C153.956 97.5752 155.257 95.2065 155.882 93.02C156.507 90.833 156.819 88.6725 156.819 86.5383C156.819 83.5188 156.194 80.5252 154.945 77.5575C152.759 72.5597 149.114 69.1234 144.012 67.2491C141.617 66.4166 138.598 66.2344 134.953 66.7029C131.309 67.1715 128.368 67.874 126.129 68.8112C127.379 68.7071 128.576 68.6554 129.721 68.6554C136.853 68.6554 142.503 70.8677 146.667 75.2929C151.457 80.447 153.852 86.4078 153.852 93.1764C153.852 94.2176 153.227 96.534 151.977 100.126Z" fill="#66DE93" />
  </g>
  <g id="wn" fill="none" transform="scale(0.2222222222222222 0.2222222222222222)">
    <path d="M74.3237 75.9983C75.0004 78.4451 74.115 80.3711 71.6681 81.7768C69.2213 83.2348 67.1648 83.0267 65.4992 81.1524C62.4274 82.0896 60.579 81.9849 59.9546 80.8397C58.7571 78.8096 60.9694 76.1805 66.5921 72.9523C68.8832 71.5989 71.0173 70.74 72.9956 70.3755C74.9739 70.0633 76.1974 70.2973 76.6659 71.0781C77.2909 72.2239 76.5101 73.8636 74.3237 75.9983ZM49.0214 99.738C49.7503 100.727 49.8023 101.586 49.1775 102.315C47.4595 104.137 45.403 106.766 43.0082 110.203C42.5396 111.244 41.967 111.452 41.2902 110.827C40.9257 110.567 40.7435 110.15 40.7435 109.578C40.7435 108.38 41.6286 106.532 43.3986 104.033C46.21 99.9726 48.0842 98.541 49.0213 99.738H49.0214ZM76.1974 52.4141L75.1826 49.4466C74.5054 47.6765 73.7246 45.8283 72.8398 43.9021C72.2149 46.401 71.7986 48.3793 71.5899 49.837C71.4341 50.6701 71.226 51.9977 70.9656 53.8198C72.6311 53.143 74.2714 52.6745 75.8852 52.4141C76.0416 52.4141 76.1456 52.4141 76.1974 52.4141ZM65.4992 57.2557C65.3428 54.809 65.5509 51.9977 66.1236 48.8218C67.2171 42.3662 69.1954 37.3422 72.0585 33.75C75.4425 36.9258 78.228 41.5333 80.4144 47.5724C80.6231 48.1971 80.9353 49.1603 81.3516 50.4618C81.4556 50.618 81.5597 50.6961 81.6643 50.6961C81.7684 50.6961 81.8983 50.618 82.0547 50.4618C83.1999 43.9541 85.2041 38.9041 88.0678 35.3118C91.3995 38.6438 94.1591 43.2773 96.3456 49.2123C96.3979 49.5247 96.84 49.9412 97.6731 50.4618L109.387 51.0085L114.385 56.0064L124.615 58.6614L124.459 63.5034L135.236 67.8763L133.127 73.9676L144.685 80.0589L140.234 82.5581L148.355 92.9441L144.06 94.0376L153.744 106.454L148.355 106.298L156.555 119.261L150.62 117.622L155.306 130.038L150.073 130.116L156.555 143.782L151.167 144.485L155.852 155.809L151.401 157.292L154.915 165.57H50.8177C50.7136 165.05 50.6615 164.529 50.6615 164.009C50.6615 157.709 54.3058 151.019 61.5943 143.939C62.0111 143.522 65.7073 140.242 72.6834 134.099C78.8788 128.632 82.0806 125.795 82.2893 125.587C86.5058 121.63 89.2131 118.48 90.4106 116.138C91.6599 113.743 92.5189 111.452 92.9874 109.266C89.7081 110.828 85.8291 111.4 81.3521 110.984C79.0093 110.828 76.7447 110.307 74.5577 109.422C70.6011 113.639 66.7226 116.424 62.9218 117.778C62.0893 119.808 61.0476 121.682 59.7983 123.401C57.6636 126.472 55.0868 128.997 52.0672 130.975C48.0584 133.63 44.7786 134.047 42.2275 132.225C40.978 131.392 40.1971 130.507 39.8847 129.57C39.4682 129.57 38.6353 129.387 37.3858 129.023C33.377 127.982 30.6438 125.274 29.1861 120.902C27.8845 117.049 27.7804 113.04 28.8737 108.875C30.1232 104.242 32.492 100.598 35.9801 97.9425C41.9672 92.2674 46.835 85.6294 50.5834 78.0289C55.1128 68.7617 60.0846 61.8373 65.4992 57.2557ZM134.845 83.8074C133.023 78.9654 129.223 73.8112 123.443 68.3449C118.029 63.1389 112.745 59.3904 107.591 57.0999C103.998 55.4858 100.589 54.6788 97.3609 54.6788C95.7471 54.6788 94.2109 54.861 92.7534 55.2255C92.3889 54.4966 91.8422 53.117 91.1132 51.0865C90.4888 49.3165 89.7339 47.4423 88.8486 45.4639C87.5993 50.3577 86.9484 54.3144 86.8961 57.3339C83.0436 58.0106 80.4409 60.0413 79.0869 63.4253C78.6707 64.1019 78.1763 64.6487 77.6031 65.0649C75.6248 66.4189 74.2714 66.5229 73.5424 65.3777C73.3343 65.0649 73.2819 64.5705 73.3866 63.8938C73.6988 62.28 74.7923 60.2235 76.6665 57.7243C73.8028 58.3493 71.7986 59.0782 70.6534 59.9107C64.9266 64.3365 59.8764 71.0263 55.5032 79.9807C51.13 88.8834 45.5854 96.4063 38.8694 102.549C36.5267 104.684 34.9388 107.261 34.1058 110.281C33.377 112.988 33.2988 115.643 33.8715 118.246C34.6003 121.422 36.2143 123.322 38.7132 123.947C40.5354 119.469 43.0605 115.721 46.2882 112.701C47.0171 111.921 48.0063 111.478 49.2558 111.374C50.5053 111.322 51.3383 111.426 51.7547 111.687C52.1192 111.947 52.1192 112.389 51.7547 113.014C50.6615 114.472 49.5161 116.164 48.3187 118.09C47.0692 119.6 46.106 121.006 45.4292 122.307C45.221 122.619 44.9346 123.166 44.5703 123.947C43.9976 125.665 44.1797 126.94 45.1168 127.774C46.1581 128.762 48.0063 128.008 50.6615 125.509C52.4315 123.843 53.9673 122.098 55.2689 120.277C56.6747 118.246 57.7159 116.32 58.3926 114.498C63.7031 112.155 68.2583 109.266 72.0591 105.829C71.5905 104.476 71.2778 103.2 71.1219 102.003C70.6534 99.2959 71.2778 97.7861 72.9962 97.4734C74.61 97.2135 75.7029 98.4105 76.2756 101.066C76.4843 101.899 76.7964 103.122 77.2127 104.736C79.5555 105.465 81.7425 105.829 83.7726 105.829C90.1243 105.829 95.5648 103.278 100.094 98.1765C104.363 93.4386 106.784 87.7899 107.357 81.2301C107.409 80.6057 107.461 80.0589 107.513 79.5904C107.513 76.8831 108.372 75.5297 110.09 75.5297C111.756 75.5297 112.641 76.9089 112.745 79.6686C112.745 80.1371 112.719 80.7879 112.667 81.621C112.042 89.586 108.944 96.4845 103.374 102.315C109.361 99.0354 113.552 94.0112 115.946 87.2432C116.311 86.202 116.467 85.6817 116.415 85.6817C117.144 83.1307 118.342 82.0631 120.008 82.4799C121.622 82.8962 122.09 84.4324 121.413 87.0874C119.487 95.0006 114.828 101.352 107.435 106.142C114.359 105.673 118.967 103.018 121.257 98.1765C121.257 98.2806 121.387 97.9942 121.647 97.3176C122.689 94.662 123.938 93.6208 125.396 94.1934C126.749 94.7666 127.166 96.4586 126.645 99.2694C126.385 99.8944 126.229 100.311 126.177 100.519C124.147 104.84 120.424 107.782 115.01 109.344C111.521 110.333 107.929 110.827 104.233 110.827C102.098 110.827 99.9118 110.671 97.6731 110.359C95.9029 116.763 92.9874 121.917 88.9268 125.821C84.7097 129.517 78.3844 135.062 69.9503 142.455C63.0259 148.546 58.7829 154.481 57.2209 160.26H145.856C146.168 155.887 146.325 149.587 146.325 141.362C146.325 116.372 142.498 97.1871 134.845 83.8074Z" fill="#1A1F25" />
    <path d="M74.3231 75.9982C75.0004 78.4451 74.115 80.3711 71.6681 81.7768C69.2212 83.2348 67.1647 83.0267 65.4992 81.1524C62.4274 82.0896 60.579 81.9849 59.9546 80.8397C58.757 78.8096 60.9694 76.1805 66.5921 72.9523C68.8832 71.5989 71.0173 70.74 72.9956 70.3755C74.9739 70.0633 76.1974 70.2973 76.6659 71.0781C77.2909 72.2239 76.5101 73.8636 74.3231 75.9982ZM49.0213 99.738C49.7502 100.727 49.8023 101.586 49.1774 102.315C47.4595 104.137 45.403 106.766 43.0082 110.203C42.5396 111.244 41.9669 111.452 41.2901 110.828C40.9257 110.567 40.7435 110.15 40.7435 109.578C40.7435 108.38 41.6285 106.532 43.3986 104.033C46.2099 99.9726 48.0843 98.541 49.0213 99.738ZM76.1974 52.4141L75.1826 49.4466C74.5054 47.6765 73.7246 45.8283 72.8398 43.9021C72.2149 46.401 71.7986 48.3794 71.5899 49.8371C71.4341 50.6701 71.226 51.9977 70.9655 53.8198C72.6311 53.143 74.2714 52.6745 75.8852 52.4141C76.0415 52.4141 76.1456 52.4141 76.1974 52.4141ZM134.845 83.8074C133.023 78.9654 129.223 73.8112 123.443 68.3449C118.029 63.1389 112.745 59.3904 107.591 57.0999C103.998 55.4858 100.588 54.6788 97.3609 54.6788C95.747 54.6788 94.2109 54.8611 92.7534 55.2255C92.3889 54.4966 91.8422 53.117 91.1132 51.0866C90.4888 49.3165 89.7339 47.4423 88.8485 45.4639C87.5992 50.3577 86.9484 54.3144 86.8961 57.3339C83.0435 58.0106 80.4409 60.0412 79.0869 63.4252C78.6707 64.1019 78.1762 64.6487 77.603 65.0649C75.6247 66.4189 74.2714 66.5229 73.5424 65.3777C73.3342 65.0649 73.2819 64.5705 73.3865 63.8938C73.6987 62.28 74.7922 60.2235 76.6665 57.7243C73.8028 58.3492 71.7986 59.0782 70.6534 59.9113C64.9265 64.3365 59.8764 71.0263 55.5032 79.9807C51.13 88.8834 45.5854 96.4063 38.8694 102.549C36.5266 104.684 34.9388 107.261 34.1058 110.281C33.3769 112.988 33.2988 115.643 33.8715 118.246C34.6003 121.422 36.2142 123.322 38.7132 123.947C40.5354 119.47 43.0604 115.721 46.2882 112.701C47.0171 111.921 48.0063 111.478 49.2557 111.374C50.5052 111.322 51.3382 111.426 51.7547 111.687C52.1192 111.947 52.1192 112.389 51.7547 113.014C50.6614 114.472 49.5161 116.164 48.3186 118.09C47.0691 119.6 46.106 121.006 45.4292 122.307C45.2209 122.619 44.9346 123.166 44.5702 123.947C43.9975 125.665 44.1797 126.94 45.1168 127.774C46.1581 128.762 48.0063 128.008 50.6614 125.509C52.4315 123.843 53.9673 122.098 55.2688 120.277C56.6747 118.246 57.7159 116.32 58.3925 114.498C63.7031 112.155 68.2582 109.266 72.059 105.829C71.5905 104.476 71.2777 103.2 71.1219 102.003C70.6534 99.2959 71.2777 97.7861 72.9962 97.4734C74.61 97.2135 75.7029 98.4105 76.2755 101.066C76.4842 101.899 76.7964 103.122 77.2127 104.736C79.5555 105.465 81.7425 105.829 83.7725 105.829C90.1243 105.829 95.5648 103.278 100.094 98.1765C104.363 93.4386 106.784 87.7899 107.356 81.2301C107.409 80.6057 107.461 80.0589 107.513 79.5904C107.513 76.8831 108.372 75.5297 110.09 75.5297C111.756 75.5297 112.641 76.9089 112.745 79.6686C112.745 80.1371 112.719 80.7879 112.667 81.621C112.042 89.586 108.944 96.4845 103.374 102.315C109.361 99.0354 113.552 94.0117 115.946 87.2432C116.311 86.202 116.467 85.6817 116.415 85.6817C117.144 83.1307 118.342 82.0631 120.008 82.4799C121.621 82.8962 122.09 84.4324 121.413 87.0874C119.487 95.0006 114.828 101.352 107.435 106.142C114.359 105.673 118.966 103.018 121.257 98.1765C121.257 98.2806 121.387 97.9942 121.647 97.3176C122.689 94.662 123.938 93.6208 125.396 94.1934C126.749 94.7666 127.166 96.4586 126.645 99.2694C126.385 99.8944 126.229 100.311 126.177 100.519C124.147 104.84 120.424 107.782 115.01 109.344C111.521 110.333 107.929 110.828 104.233 110.828C102.098 110.828 99.9118 110.671 97.673 110.359C95.9029 116.763 92.9874 121.917 88.9267 125.821C84.7097 129.517 78.3844 135.062 69.9502 142.455C63.0259 148.546 58.7829 154.481 57.2209 160.26H145.856C146.168 155.887 146.325 149.587 146.325 141.362C146.325 116.372 142.498 97.1871 134.845 83.8074Z" fill="#66DE93" />
  </g>
  <g id="wp" fill="none" transform="scale(0.2222222222222222 0.2222222222222222)">
    <path d="M134.26 160.572C133.999 153.7 132.073 147.479 128.481 141.908C126.19 138.316 122.286 134.516 116.767 130.507C110.624 126.029 106.485 122.541 104.351 120.043C100.914 120.927 96.9058 121.37 92.3243 121.37C87.6904 121.37 83.682 120.927 80.298 120.043C78.1633 122.541 73.9986 126.029 67.8032 130.507C62.3368 134.516 58.4319 138.316 56.0891 141.908C52.4448 147.479 50.5446 153.7 50.3884 160.572H134.26ZM92.4024 116.216C97.5043 116.216 101.383 115.721 104.038 114.732C109.765 111.088 112.628 105.856 112.628 99.0354C112.628 93.6731 110.572 89.0657 106.459 85.2131C103.127 82.1936 100.94 78.471 99.8989 74.0458H84.7491C83.6556 78.471 81.4691 82.1936 78.1892 85.2131C74.1285 89.0134 72.0979 93.6208 72.0979 99.0354C72.0979 105.856 74.9616 111.088 80.6884 114.732C83.2393 115.721 87.1442 116.216 92.4024 116.216ZM96.8535 58.1929C95.4478 58.7655 93.9381 59.0518 92.3243 59.0518C90.9186 59.0518 89.4606 58.7919 87.9508 58.2711C85.1394 62.2277 82.3545 65.664 79.5949 68.5794H105.053C101.929 65.4036 99.1963 61.9414 96.8535 58.1929ZM101.227 55.3817C104.715 60.7438 108.932 65.5858 113.878 69.9069C114.919 70.8441 115.283 71.7553 114.971 72.6401C114.659 73.5773 113.774 74.0458 112.316 74.0458H105.288C106.172 76.9089 107.656 79.2782 109.739 81.1524C115.153 86.0979 117.861 92.0593 117.861 99.0354C117.861 106.532 114.945 112.675 109.114 117.465C111.405 120.12 113.982 122.333 116.845 124.103C123.821 127.799 129.366 133.032 133.479 139.8C137.592 146.516 139.649 153.83 139.649 161.744C139.649 162.837 139.544 164.217 139.336 165.883H45.3124C45.1041 163.644 45 162.264 45 161.744C45 153.83 47.0304 146.516 51.0912 139.8C55.2041 133.032 60.7747 127.799 67.8032 124.103C70.6146 122.333 73.1914 120.12 75.5342 117.465C69.7033 112.728 66.7879 106.584 66.7879 99.0354C66.7879 92.0593 69.4952 86.0979 74.9092 81.1524C76.8876 79.2782 78.3714 76.9089 79.3609 74.0458H72.3324C70.8744 74.0458 69.9896 73.5773 69.6774 72.6401C69.3129 71.7553 69.6774 70.8441 70.7704 69.9069C75.7164 65.5335 79.9335 60.6921 83.4216 55.3817C80.9224 52.8827 79.6731 49.8891 79.6731 46.401C79.6731 42.9128 80.8965 39.9453 83.3434 37.4984C85.8426 34.9995 88.8362 33.75 92.3243 33.75C95.8123 33.75 98.7795 34.9995 101.227 37.4984C103.726 39.9453 104.975 42.9128 104.975 46.401C104.975 49.785 103.726 52.7786 101.227 55.3817ZM92.3243 53.7417C97.218 53.7417 99.6649 51.2948 99.6649 46.401C99.6649 41.4551 97.218 38.9822 92.3243 38.9822C87.4305 38.9822 84.9836 41.4551 84.9836 46.401C84.9836 51.2948 87.4305 53.7417 92.3243 53.7417Z" fill="#1A1F25" />
    <path d="M134.26 160.572C134 153.7 132.073 147.479 128.481 141.908C126.19 138.316 122.286 134.516 116.767 130.507C110.624 126.029 106.485 122.541 104.35 120.043C100.914 120.927 96.9058 121.37 92.3242 121.37C87.6909 121.37 83.682 120.927 80.298 120.043C78.1633 122.541 73.9985 126.029 67.8031 130.507C62.3368 134.516 58.4319 138.316 56.0892 141.908C52.4449 147.479 50.5446 153.7 50.3884 160.572H134.26ZM92.4024 116.216C97.5043 116.216 101.383 115.721 104.038 114.732C109.765 111.088 112.628 105.856 112.628 99.0354C112.628 93.6731 110.572 89.0657 106.459 85.2131C103.127 82.1936 100.941 78.471 99.8994 74.0458H84.749C83.6561 78.471 81.4691 82.1936 78.1891 85.2131C74.1285 89.0134 72.0984 93.6208 72.0984 99.0354C72.0984 105.856 74.9615 111.088 80.6883 114.732C83.2393 115.721 87.1441 116.216 92.4024 116.216ZM96.8535 58.1929C95.4478 58.7655 93.938 59.0518 92.3242 59.0518C90.9185 59.0518 89.4605 58.7919 87.9508 58.271C85.1394 62.2277 82.3545 65.664 79.5948 68.5794H105.053C101.929 65.4035 99.1963 61.9414 96.8535 58.1929ZM92.3242 53.7417C97.218 53.7417 99.6648 51.2948 99.6648 46.401C99.6648 41.4552 97.218 38.9822 92.3242 38.9822C87.4305 38.9822 84.9836 41.4552 84.9836 46.401C84.9836 51.2948 87.4305 53.7417 92.3242 53.7417Z" fill="#66DE93" />
  </g>
  <g id="wq" fill="none" transform="scale(0.2222222222222222 0.2222222222222222)">
    <path d="M89.6597 49.9956C91.4299 49.9956 92.3147 49.1105 92.3147 47.3405C92.3147 45.5703 91.4299 44.6853 89.6597 44.6853C87.8895 44.6853 87.0047 45.5703 87.0047 47.3405C87.0047 49.1105 87.8895 49.9956 89.6597 49.9956ZM89.6597 55.3059C84.3491 55.3059 81.6941 52.6507 81.6941 47.3405C81.6941 42.0302 84.3491 39.375 89.6597 39.375C94.9697 39.375 97.6252 42.0302 97.6252 47.3405C97.6252 52.6507 94.9697 55.3059 89.6597 55.3059ZM59.2819 72.9546C53.9713 72.9546 51.3161 70.2996 51.3161 64.9896C51.3161 59.7313 53.9713 57.1022 59.2819 57.1022C64.5919 57.1022 67.2469 59.7313 67.2469 64.9896C67.2469 70.2996 64.5919 72.9546 59.2819 72.9546ZM59.2819 67.6446C61.0515 67.6446 61.9369 66.7598 61.9369 64.9896C61.9369 63.2194 61.0515 62.334 59.2819 62.334C57.5117 62.334 56.6263 63.2194 56.6263 64.9896C56.6263 66.7598 57.5117 67.6446 59.2819 67.6446ZM37.3376 87.7146C40.3051 93.9099 42.9082 100.183 45.1469 106.535C46.0839 106.066 47.5157 105.363 49.4419 104.426C48.0883 102.864 46.7348 100.834 45.3812 98.3351C43.1945 95.211 40.5133 91.6712 37.3376 87.7146ZM89.6597 111.064C109.183 111.064 123.162 113.224 131.595 117.546C131.804 116.036 132.038 113.745 132.298 110.674C131.673 109.632 129.721 108.669 126.441 107.784C125.4 108.461 124.385 108.695 123.396 108.487C122.406 108.331 121.495 107.706 120.662 106.613C116.289 105.78 111.057 105.129 104.966 104.66C104.445 105.129 103.898 105.389 103.326 105.441C102.388 105.494 101.478 105.155 100.592 104.426C97.0526 104.27 93.4082 104.192 89.6597 104.192C85.9112 104.192 82.2667 104.27 78.7269 104.426C77.8416 105.155 76.9567 105.494 76.0714 105.441C75.3947 105.389 74.8221 105.129 74.3535 104.66C68.2104 105.129 63.0039 105.78 58.7351 106.613C57.8497 107.706 56.9126 108.331 55.9236 108.487C54.8824 108.695 53.8672 108.461 52.878 107.784C49.5461 108.669 47.5937 109.632 47.0211 110.674C47.0731 111.819 47.3074 114.11 47.7239 117.546C56.1058 113.224 70.0847 111.064 89.6597 111.064ZM70.8396 99.8966C68.3404 95.9923 65.8412 90.7858 63.3426 84.2782C63.1344 91.3067 62.4313 96.9553 61.2337 101.224C64.4096 100.651 67.6114 100.209 70.8396 99.8966ZM89.6597 98.8813C92.0025 98.8813 94.3453 98.9078 96.6881 98.9595C93.7727 93.0246 91.4299 84.6169 89.6597 73.7359C87.7854 84.6686 85.4426 93.0769 82.6312 98.9595C84.9741 98.9078 87.3169 98.8813 89.6597 98.8813ZM141.982 87.7146C138.077 92.4519 135.396 95.9923 133.938 98.3351C133.001 99.8449 131.647 101.875 129.877 104.426C130.814 104.947 132.246 105.649 134.173 106.535C136.307 100.183 138.91 93.9099 141.982 87.7146ZM108.48 99.8966C111.603 100.157 114.832 100.6 118.163 101.224C116.862 97.0071 116.133 91.3584 115.977 84.2782C113.426 90.7858 110.927 95.9923 108.48 99.8966ZM89.6597 162.996V157.763C97.2607 157.763 105.174 157.399 113.4 156.67C125.999 155.577 132.298 153.937 132.298 151.75C132.298 149.564 126.025 147.923 113.478 146.831C105.2 146.102 97.2607 145.737 89.6597 145.737C82.0063 145.737 74.0672 146.102 65.8412 146.831C53.2945 147.923 47.0211 149.564 47.0211 151.75C47.0211 153.937 53.3206 155.577 65.9194 156.67C74.0931 157.399 82.0063 157.763 89.6597 157.763V162.996C81.2256 162.996 72.4269 162.345 63.2644 161.043C48.8432 159.013 41.6327 155.915 41.6327 151.75C41.6327 150.917 42.1013 150.032 43.0383 149.095C43.4028 145.659 43.585 141.468 43.585 136.522C43.585 127.776 43.1425 120.175 42.2574 113.719C41.9451 112.834 41.6067 111.923 41.2422 110.986L40.227 108.097C37.3636 100.287 34.1098 92.7382 30.4654 85.4494C34.0057 85.4494 36.4525 83.7838 37.8061 80.4516C40.5133 83.7315 43.8453 88.209 47.802 93.8835C50.6654 100.027 53.0602 102.943 54.9865 102.63C56.6527 102.37 57.7716 99.4804 58.3447 93.9617C58.5529 91.5671 58.6569 88.9116 58.6569 85.9961C58.6569 82.1436 58.4747 77.7707 58.1102 72.8769C58.5787 72.9287 58.9691 72.9551 59.2819 72.9551C61.1556 72.9551 62.874 72.3302 64.4355 71.0809C68.1322 83.9919 71.6985 93.4673 75.1342 99.5063C76.2795 99.3504 77.2166 99.2722 77.9456 99.2722C81.3819 94.8988 84.0892 81.6491 86.0676 59.5232L86.2234 57.024C86.3274 56.191 86.4315 55.384 86.5361 54.6031C87.525 55.0716 88.5662 55.306 89.6597 55.306C90.7009 55.306 91.7421 55.0716 92.7832 54.6031L93.2518 59.5232C95.1261 81.6491 97.8334 94.8988 101.373 99.2722C102.05 99.2722 102.988 99.3504 104.185 99.5063C107.517 93.519 111.109 84.0701 114.961 71.1585C116.419 72.3561 118.111 72.9551 120.037 72.9551C120.298 72.9551 120.688 72.9287 121.209 72.8769C120.792 77.8224 120.584 82.2476 120.584 86.1525C120.584 89.0156 120.688 91.6189 120.896 93.9617C121.469 99.4804 122.615 102.37 124.333 102.63C126.207 102.943 128.602 100.027 131.517 93.8835C133.964 90.0309 137.296 85.554 141.513 80.4516C142.815 83.7838 145.262 85.4494 148.854 85.4494C145.313 92.3737 142.06 99.9231 139.092 108.097L137.062 113.719C136.177 120.487 135.734 128.088 135.734 136.522C135.734 141.26 135.89 145.451 136.203 149.095C137.192 149.928 137.686 150.813 137.686 151.75C137.686 155.915 130.476 159.013 116.055 161.043C106.892 162.345 98.0938 162.996 89.6597 162.996ZM130.814 145.893C130.554 142.822 130.424 139.698 130.424 136.522C130.424 131.836 130.632 127.125 131.048 122.388C130.997 120.201 124.801 118.561 112.463 117.467C104.497 116.739 96.8962 116.375 89.6597 116.375C82.0586 116.375 74.1454 116.765 65.9194 117.546C54.0494 118.691 48.1664 120.305 48.2705 122.388C48.6871 128.999 48.8953 133.711 48.8953 136.522C48.8953 139.177 48.7912 142.301 48.5829 145.893C57.9021 142.249 71.5944 140.427 89.6597 140.427C107.517 140.427 121.235 142.249 130.814 145.893ZM120.037 72.9546C114.727 72.9546 112.072 70.2996 112.072 64.9896C112.072 59.7313 114.727 57.1022 120.037 57.1022C125.348 57.1022 128.003 59.7313 128.003 64.9896C128.003 70.2996 125.348 72.9546 120.037 72.9546ZM120.037 67.6446C121.808 67.6446 122.693 66.7598 122.693 64.9896C122.693 63.2194 121.808 62.334 120.037 62.334C118.267 62.334 117.382 63.2194 117.382 64.9896C117.382 66.7598 118.267 67.6446 120.037 67.6446ZM148.854 85.4494C143.543 85.4494 140.888 82.7944 140.888 77.4844C140.888 72.1738 143.543 69.5188 148.854 69.5188C154.164 69.5188 156.819 72.1738 156.819 77.4844C156.819 82.7944 154.164 85.4494 148.854 85.4494ZM148.854 80.1394C150.624 80.1394 151.509 79.2546 151.509 77.4844C151.509 75.7142 150.624 74.8288 148.854 74.8288C147.084 74.8288 146.199 75.7142 146.199 77.4844C146.199 79.2546 147.084 80.1394 148.854 80.1394ZM30.4654 85.4494C25.1552 85.4494 22.5 82.7944 22.5 77.4844C22.5 72.1738 25.1552 69.5188 30.4654 69.5188C35.7757 69.5188 38.4309 72.1738 38.4309 77.4844C38.4309 82.7944 35.7757 85.4494 30.4654 85.4494ZM30.4654 80.1394C32.2355 80.1394 33.1206 79.2546 33.1206 77.4844C33.1206 75.7142 32.2355 74.8288 30.4654 74.8288C28.6953 74.8288 27.8103 75.7142 27.8103 77.4844C27.8103 79.2546 28.6953 80.1394 30.4654 80.1394Z" fill="#1A1F25" />
    <path d="M89.6597 49.9955C91.4299 49.9955 92.3153 49.1105 92.3153 47.3404C92.3153 45.5703 91.4299 44.6853 89.6597 44.6853C87.8895 44.6853 87.0047 45.5703 87.0047 47.3404C87.0047 49.1105 87.8895 49.9955 89.6597 49.9955ZM59.2819 67.6445C61.0521 67.6445 61.9369 66.7592 61.9369 64.9895C61.9369 63.2194 61.0521 62.334 59.2819 62.334C57.5117 62.334 56.6269 63.2194 56.6269 64.9895C56.6269 66.7592 57.5117 67.6445 59.2819 67.6445ZM37.3378 87.714C40.3054 93.9094 42.9084 100.183 45.1471 106.535C46.0842 106.066 47.5159 105.363 49.4422 104.426C48.0886 102.864 46.735 100.834 45.3814 98.3351C43.1948 95.211 40.5136 91.6712 37.3378 87.714ZM89.6597 111.064C109.183 111.064 123.162 113.224 131.596 117.546C131.804 116.036 132.038 113.745 132.298 110.674C131.674 109.632 129.722 108.669 126.442 107.784C125.4 108.461 124.385 108.695 123.396 108.487C122.407 108.331 121.496 107.706 120.662 106.613C116.29 105.78 111.057 105.129 104.966 104.66C104.446 105.129 103.899 105.389 103.326 105.441C102.389 105.493 101.478 105.155 100.593 104.426C97.0527 104.27 93.4082 104.192 89.6597 104.192C85.9112 104.192 82.2674 104.27 78.727 104.426C77.8416 105.155 76.9568 105.493 76.072 105.441C75.3947 105.389 74.8221 105.129 74.3535 104.66C68.2105 105.129 63.0045 105.78 58.7352 106.613C57.8504 107.706 56.9132 108.331 55.9239 108.487C54.8827 108.695 53.8675 108.461 52.8783 107.784C49.5463 108.669 47.594 109.632 47.0213 110.674C47.0734 111.819 47.3077 114.109 47.7242 117.546C56.1061 113.224 70.0847 111.064 89.6597 111.064ZM70.8396 99.8966C68.3404 95.9923 65.8418 90.7858 63.3426 84.2782C63.1345 91.3067 62.4314 96.9553 61.2344 101.224C64.4102 100.651 67.612 100.209 70.8396 99.8966ZM89.6597 98.8813C92.0025 98.8813 94.3453 98.9077 96.6882 98.9595C93.7727 93.0245 91.4299 84.6168 89.6597 73.7358C87.7855 84.6686 85.4427 93.0769 82.6313 98.9595C84.9741 98.9077 87.3169 98.8813 89.6597 98.8813ZM141.982 87.714C138.077 92.4519 135.396 95.9923 133.939 98.3351C133.001 99.8449 131.648 101.875 129.877 104.426C130.814 104.947 132.247 105.649 134.173 106.535C136.307 100.183 138.911 93.9094 141.982 87.714ZM108.48 99.8966C111.604 100.157 114.832 100.6 118.164 101.224C116.862 97.007 116.133 91.3584 115.977 84.2782C113.426 90.7858 110.927 95.9923 108.48 99.8966ZM130.814 145.893C130.555 142.822 130.424 139.698 130.424 136.522C130.424 131.836 130.632 127.125 131.049 122.388C130.997 120.201 124.801 118.561 112.463 117.467C104.497 116.738 96.8963 116.374 89.6597 116.374C82.0587 116.374 74.1454 116.765 65.92 117.546C54.0497 118.691 48.1667 120.305 48.2708 122.388C48.6873 128.999 48.8956 133.711 48.8956 136.522C48.8956 139.177 48.7915 142.301 48.5832 145.893C57.9021 142.249 71.5945 140.427 89.6597 140.427C107.517 140.427 121.235 142.249 130.814 145.893ZM120.038 67.6445C121.808 67.6445 122.693 66.7592 122.693 64.9895C122.693 63.2194 121.808 62.334 120.038 62.334C118.268 62.334 117.383 63.2194 117.383 64.9895C117.383 66.7592 118.268 67.6445 120.038 67.6445ZM148.854 80.1394C150.624 80.1394 151.509 79.254 151.509 77.4843C151.509 75.7142 150.624 74.8288 148.854 74.8288C147.084 74.8288 146.199 75.7142 146.199 77.4843C146.199 79.254 147.084 80.1394 148.854 80.1394ZM30.4657 80.1394C32.2358 80.1394 33.1208 79.254 33.1208 77.4843C33.1208 75.7142 32.2358 74.8288 30.4657 74.8288C28.6956 74.8288 27.8105 75.7142 27.8105 77.4843C27.8105 79.254 28.6956 80.1394 30.4657 80.1394Z" fill="#66DE93" />
    <path d="M89.6598 157.763C97.2608 157.763 105.174 157.399 113.4 156.67C125.999 155.577 132.298 153.937 132.298 151.75C132.298 149.564 126.025 147.923 113.478 146.83C105.201 146.101 97.2608 145.737 89.6598 145.737C82.007 145.737 74.0673 146.101 65.8418 146.83C53.2948 147.923 47.0214 149.564 47.0214 151.75C47.0214 153.937 53.3209 155.577 65.92 156.67C74.0937 157.399 82.007 157.763 89.6598 157.763Z" fill="#66DE93" />
  </g>
  <g id="wr" fill="none" transform="scale(0.2222222222222222 0.2222222222222222)">
    <path d="M59.6812 59.8281V118.398H118.251V59.8281H59.6812ZM53.0435 134.407V145.105H124.889V134.407H53.0435ZM57.1044 123.786L53.8244 129.097H124.108L120.828 123.786H57.1044ZM50.3884 150.416V155.726H127.7V150.416H50.3884ZM99.6649 22.5L100.29 31.793H111.613L112.238 22.5H130.355V49.1296L123.639 59.8281V118.398L130.355 129.097V145.105H132.932V161.036H45V145.105H47.577V129.097L54.293 118.398V59.8281L47.577 49.1296V22.5H65.6162L66.3193 31.793H77.6424L78.2674 22.5H99.6649ZM53.8244 49.1296L57.1044 54.3618H120.828L124.108 49.1296H53.8244ZM53.0435 43.8193H124.889V27.8103H117.626L116.923 37.1033H94.9793L94.2767 27.8103H83.6556L82.953 37.1033H61.0087L60.3062 27.8103H53.0435V43.8193Z" fill="#1A1F25" />
    <path d="M59.6812 59.828V118.398H118.251V59.828H59.6812ZM53.0436 134.407V145.105H124.889V134.407H53.0436ZM57.1044 123.786L53.8245 129.097H124.108L120.828 123.786H57.1044ZM50.3885 150.416V155.726H127.7V150.416H50.3885ZM53.8245 49.1295L57.1044 54.3617H120.828L124.108 49.1295H53.8245ZM53.0436 43.8192H124.889V27.8103H117.626L116.923 37.1033H94.9792L94.2767 27.8103H83.6561L82.953 37.1033H61.0093L60.3062 27.8103H53.0436V43.8192Z" fill="#66DE93" />
  </g>
</svg>