<svg xmlns="http://www.w3.org/2000/svg" width="40" height="40" viewbox="0.0 0.0 256.0 256.0">
  <g id="bb" fill="none" transform="scale(0.15625 0.15625)">
    <path d="M201.847 205.376H187.952V186.848C187.952 185.62 187.463 184.441 186.595 183.573C185.726 182.704 184.548 182.216 183.319 182.216H179.799L181.559 180.271C191.408 169.293 196.935 155.113 197.115 140.364C197.294 125.617 192.111 111.307 182.532 100.096L143.348 54.333C143.726 52.9915 143.929 51.6051 143.949 50.2108C143.949 44.4201 140.86 39.0685 135.845 36.1715C130.828 33.2762 124.65 33.2762 119.633 36.1715C114.617 39.0684 111.528 44.4201 111.528 50.2108C111.55 51.605 111.752 52.9914 112.13 54.333L72.946 100.048V100.05C63.3511 111.253 58.1543 125.562 58.325 140.31C58.4957 155.058 64.0213 169.245 73.8718 180.225L75.632 182.17H72.1582C69.6009 182.17 67.5259 184.245 67.5259 186.802V205.33H53.6307C51.0734 205.33 49 207.403 49 209.96V233.12C49 234.348 49.487 235.527 50.3554 236.395C51.2254 237.264 52.4025 237.751 53.6307 237.751H201.849C203.077 237.751 204.254 237.264 205.124 236.395C205.993 235.527 206.48 234.348 206.48 233.12V210.007C206.48 208.778 205.993 207.601 205.124 206.731C204.254 205.863 203.077 205.376 201.849 205.376L201.847 205.376ZM127.738 43.2622C130.124 43.2653 132.344 44.4936 133.614 46.5158C134.882 48.5381 135.025 51.0691 133.991 53.2216C133.215 54.7616 131.894 55.9603 130.286 56.5806C128.676 57.201 126.893 57.201 125.283 56.5806C123.673 55.9603 122.353 54.7616 121.578 53.2216C121.12 52.2834 120.882 51.2537 120.883 50.21C120.883 48.3831 121.601 46.6307 122.885 45.3296C124.168 44.03 125.911 43.287 127.738 43.2622ZM80.7719 174.064C72.4257 164.759 67.7438 152.737 67.5993 140.238C67.4535 127.738 71.8563 115.613 79.9838 106.115L117.037 62.5758L117.039 62.5773C119.954 65.0353 123.645 66.3845 127.46 66.3845C131.274 66.3845 134.966 65.0353 137.882 62.5773L153.537 80.8721L123.755 119.177H123.754C122.181 121.198 122.544 124.112 124.565 125.684C126.586 127.258 129.5 126.894 131.072 124.873L160.161 88.0508L175.63 106.115C183.76 115.612 188.16 127.737 188.016 140.237C187.872 152.736 183.19 164.758 174.842 174.063L167.339 182.214H88.1368L80.7719 174.064ZM76.7895 191.479H178.685V205.374H76.7895V191.479ZM197.213 228.533H58.2613V214.637H197.213V228.533Z" fill="black" />
    <path d="M80.7719 174.064C72.4257 164.759 67.7438 152.737 67.5993 140.238C67.4535 127.738 71.8563 115.613 79.9838 106.115L117.037 62.5758L117.039 62.5773C119.954 65.0353 123.645 66.3845 127.46 66.3845C131.274 66.3845 134.966 65.0353 137.882 62.5773L153.537 80.8721L123.755 119.177H123.754C122.181 121.198 122.544 124.112 124.565 125.684C126.586 127.258 129.5 126.894 131.072 124.873L160.161 88.0508L175.63 106.115C183.76 115.612 188.16 127.737 188.016 140.237C187.872 152.736 183.19 164.758 174.842 174.063L167.339 182.214H88.1368L80.7719 174.064Z" fill="#444F5A" />
    <path d="M76.7895 191.479H178.685V205.374H76.7895V191.479Z" fill="#3E4149" />
    <path d="M197.213 228.533H58.2613V214.637H197.213V228.533Z" fill="#444F5A" />
    <path d="M127.738 43.2622C130.124 43.2653 132.344 44.4936 133.614 46.5158C134.882 48.5381 135.025 51.0691 133.991 53.2216C133.215 54.7616 131.894 55.9603 130.286 56.5806C128.676 57.201 126.893 57.201 125.283 56.5806C123.673 55.9603 122.353 54.7616 121.578 53.2216C121.12 52.2834 120.882 51.2537 120.883 50.21C120.883 48.3831 121.601 46.6307 122.885 45.3296C124.168 44.03 125.911 43.287 127.738 43.2622Z" fill="#444F5A" />
  </g>
  <g id="bk" fill="none" transform="scale(0.15625 0.15625)">
    <path d="M200.748 205.374H186.853V186.846C186.853 185.618 186.364 184.439 185.496 183.571C184.627 182.703 183.449 182.214 182.22 182.214H181.572C195.791 169.801 219.274 145.161 219.274 117.371C219.569 100.781 211.557 85.1406 197.922 75.6855C181.757 65.2641 159.34 66.0517 131.273 77.8628V57.1582H145.168C147.726 57.1582 149.799 55.0847 149.799 52.5275C149.799 49.9687 147.726 47.8952 145.168 47.8952H131.273V38.6323C131.273 36.0734 129.198 34 126.641 34C124.084 34 122.009 36.0734 122.009 38.6323V47.8952H108.113C105.556 47.8952 103.483 49.9687 103.483 52.5275C103.483 55.0847 105.556 57.1582 108.113 57.1582H122.009V77.8628C93.9407 66.0519 71.5253 65.2642 55.3592 75.6855C41.7245 85.1406 33.7133 100.781 34.0079 117.371C34.0079 145.162 57.49 169.804 71.7095 182.214H71.0613C68.504 182.214 66.429 184.289 66.429 186.846V205.374H52.5338C49.9765 205.374 47.9031 207.447 47.9031 210.004V233.164C47.9031 234.392 48.3901 235.57 49.2586 236.44C50.1286 237.308 51.3056 237.795 52.5339 237.795H200.752C201.98 237.795 203.157 237.308 204.027 236.44C204.896 235.57 205.383 234.392 205.383 233.164V210.004C205.383 208.776 204.896 207.599 204.027 206.729C203.157 205.861 201.98 205.374 200.752 205.374L200.748 205.374ZM43.2675 117.37C43.0225 103.926 49.3933 91.2183 60.3126 83.3727C74.718 74.1097 96.9503 76.194 124.647 89.1154C125.894 89.7016 127.336 89.7016 128.583 89.1154C156.374 76.1924 178.558 74.2015 192.918 83.3727C203.855 91.2088 210.244 103.918 210.01 117.37C210.01 148.587 173.511 177.21 166.796 182.212H86.4813C79.7647 177.258 43.2675 148.633 43.2675 117.37ZM75.6902 191.479H177.586V205.374H75.6902V191.479ZM196.114 228.532H57.162V214.637H196.114V228.532Z" fill="black" />
    <path d="M43.2675 117.37C43.0225 103.926 49.3933 91.2183 60.3126 83.3727C74.718 74.1097 96.9503 76.194 124.647 89.1154C125.894 89.7016 127.336 89.7016 128.583 89.1154C156.374 76.1924 178.558 74.2015 192.918 83.3727C203.855 91.2088 210.244 103.918 210.01 117.37C210.01 148.587 173.511 177.21 166.796 182.212H86.4813C79.7647 177.258 43.2675 148.633 43.2675 117.37Z" fill="#444F5A" />
    <path d="M75.6902 191.479H177.586V205.374H75.6902V191.479Z" fill="#3E4149" />
    <path d="M196.114 228.532H57.162V214.637H196.114V228.532Z" fill="#444F5A" />
  </g>
  <g id="bn" fill="none" transform="scale(0.15625 0.15625)">
    <path d="M201.846 205.701H187.95V187.173C187.95 185.945 187.462 184.766 186.593 183.898C185.725 183.029 184.546 182.541 183.318 182.541H177.991L174.055 159.383L187.95 100.05C188.278 98.628 187.918 97.1345 186.976 96.0197L136.029 35.8058V35.8073C134.783 34.1883 132.623 33.5773 130.714 34.3015C128.803 35.0272 127.595 36.9192 127.738 38.9572V58.8726L65.9519 80.9203C63.8722 81.6492 62.5944 83.7397 62.8953 85.9218L67.5275 118.344H67.526C67.8625 120.835 70.1236 122.602 72.6219 122.328L106.017 118.994L78.2265 146.785V146.783C77.313 147.653 76.7951 148.858 76.7904 150.119V182.542L72.1582 182.54C69.6009 182.54 67.5259 184.615 67.5259 187.172V205.7H53.6307C51.0734 205.7 49 207.773 49 210.33V233.49C49 234.718 49.487 235.895 50.3554 236.765C51.2254 237.634 52.4025 238.121 53.6307 238.121H201.849C203.077 238.121 204.254 237.634 205.124 236.765C205.993 235.895 206.48 234.718 206.48 233.49V210.33C206.48 209.102 205.993 207.925 205.124 207.055C204.254 206.187 203.077 205.7 201.849 205.7L201.846 205.701ZM86.0508 152.017L121.761 116.307C123.141 114.919 123.5 112.815 122.659 111.048C121.817 109.282 119.956 108.235 118.01 108.434L76.3241 112.602L72.8503 88.3321L133.942 66.469C135.776 65.8068 136.998 64.0652 136.998 62.1158V51.6015L178.267 100.374L164.789 158.317C164.671 158.914 164.671 159.526 164.789 160.123L168.587 182.54H123.102V165.125L131.856 147.571C132.449 146.467 132.568 145.169 132.188 143.975C131.807 142.782 130.958 141.793 129.837 141.235C128.714 140.676 127.415 140.597 126.233 141.014C125.051 141.432 124.088 142.311 123.566 143.449L114.303 161.977C113.994 162.611 113.836 163.309 113.839 164.014V182.542L86.0486 182.54L86.0508 152.017ZM76.7879 191.805H178.683V205.701H76.7879V191.805ZM197.212 228.859H58.2596V214.963H197.212V228.859Z" fill="black" />
    <path d="M86.0508 152.017L121.761 116.307C123.141 114.919 123.5 112.815 122.659 111.048C121.817 109.282 119.956 108.235 118.01 108.434L76.3241 112.602L72.8503 88.3321L133.942 66.469C135.776 65.8068 136.998 64.0652 136.998 62.1158V51.6015L178.267 100.374L164.789 158.317C164.671 158.914 164.671 159.526 164.789 160.123L168.587 182.54H123.102V165.125L131.856 147.571C132.449 146.467 132.568 145.169 132.188 143.975C131.807 142.782 130.958 141.793 129.837 141.235C128.714 140.676 127.415 140.597 126.233 141.014C125.051 141.432 124.088 142.311 123.566 143.449L114.303 161.977C113.994 162.611 113.836 163.309 113.839 164.014V182.542L86.0486 182.54L86.0508 152.017Z" fill="#444F5A" />
    <path d="M76.7879 191.805H178.683V205.701H76.7879V191.805Z" fill="#3E4149" />
    <path d="M197.212 228.859H58.2596V214.963H197.212V228.859Z" fill="#444F5A" />
  </g>
  <g id="bp" fill="none" transform="scale(0.15625 0.15625)">
    <path d="M201.847 205.111H187.952V186.584C187.952 185.356 187.464 184.177 186.595 183.309C185.727 182.44 184.548 181.952 183.32 181.952H175.817C171.185 177.69 155.529 160.321 155.529 126.371C165.965 118.544 172.618 106.679 173.849 93.6925C175.082 80.706 170.78 67.8018 162.003 58.1513C153.225 48.5021 140.785 43 127.739 43C114.693 43 102.253 48.5021 93.4754 58.1513C84.698 67.8022 80.396 80.706 81.6287 93.6925C82.8601 106.679 89.5129 118.544 99.9486 126.371C99.9486 160.321 84.1537 177.692 79.6608 181.952H72.1582C69.6009 181.952 67.5259 184.027 67.5259 186.584V205.111H53.6307C51.0734 205.111 49 207.185 49 209.742V232.902C49 234.13 49.487 235.307 50.3554 236.177C51.2254 237.046 52.4025 237.533 53.6307 237.533H201.849C203.077 237.533 204.254 237.046 205.124 236.177C205.993 235.307 206.48 234.13 206.48 232.902V209.742C206.48 208.514 205.993 207.337 205.124 206.467C204.254 205.598 203.077 205.111 201.849 205.111L201.847 205.111ZM90.6856 89.3167C90.6856 79.4892 94.589 70.0651 101.538 63.1159C108.487 56.1667 117.912 52.2633 127.739 52.2633C137.566 52.2633 146.991 56.1667 153.94 63.1159C160.889 70.0651 164.792 79.4892 164.792 89.3167C164.792 99.1442 160.889 108.568 153.94 115.518C146.991 122.467 137.566 126.37 127.739 126.37C117.912 126.37 108.487 122.467 101.538 115.518C94.589 108.568 90.6856 99.1442 90.6856 89.3167ZM109.213 131.649H109.212L109.213 131.65C121.123 136.961 134.728 136.961 146.637 131.649C146.949 149.752 152.836 167.316 163.496 181.95H91.9835C102.776 167.362 108.795 149.793 109.213 131.65L109.213 131.649ZM76.7904 191.216H178.686V205.111H76.7904V191.216ZM197.214 228.27H58.2621V214.374H197.214V228.27Z" fill="black" />
    <path d="M90.6856 89.3167C90.6856 79.4892 94.589 70.0651 101.538 63.1159C108.487 56.1667 117.912 52.2633 127.739 52.2633C137.566 52.2633 146.991 56.1667 153.94 63.1159C160.889 70.0651 164.792 79.4892 164.792 89.3167C164.792 99.1442 160.889 108.568 153.94 115.518C146.991 122.467 137.566 126.37 127.739 126.37C117.912 126.37 108.487 122.467 101.538 115.518C94.589 108.568 90.6856 99.1442 90.6856 89.3167Z" fill="#444F5A" />
    <path d="M146.637 131.649C134.728 136.961 121.123 136.961 109.213 131.65C108.795 149.793 102.776 167.362 91.9835 181.95H163.496C152.836 167.316 146.949 149.752 146.637 131.649Z" fill="#444F5A" />
    <path d="M76.7904 191.216H178.686V205.111H76.7904V191.216Z" fill="#3E4149" />
    <path d="M197.214 228.27H58.2621V214.374H197.214V228.27Z" fill="#444F5A" />
  </g>
  <g id="bq" fill="none" transform="scale(0.15625 0.15625)">
    <path d="M210.954 71.0538C206.655 71.0538 202.531 72.7628 199.49 75.8024C196.451 78.842 194.743 82.9656 194.743 87.2659C194.756 89.6728 195.309 92.0487 196.364 94.2136C196.829 95.0789 197.372 95.8993 197.984 96.6685L171.028 126.634L176.864 79.9942C181.926 79.0234 186.225 75.7046 188.444 71.0537C189.514 68.8934 190.083 66.5175 190.111 64.1061C190.111 58.3153 187.022 52.9637 182.005 50.0667C176.99 47.1714 170.81 47.1714 165.794 50.0667C160.779 52.9636 157.688 58.3153 157.688 64.1061C157.702 66.5144 158.256 68.8888 159.311 71.0537C160.34 73.0961 161.793 74.895 163.57 76.3342L143.515 116.4L134.252 64.5233C137.644 63.0454 140.425 60.4449 142.126 57.1584C143.196 54.9982 143.766 52.6223 143.793 50.2108C143.793 44.4201 140.704 39.0685 135.688 36.1715C130.671 33.2762 124.493 33.2762 119.476 36.1715C114.461 39.0684 111.372 44.4201 111.372 50.2108C111.384 52.6192 111.938 54.9936 112.992 57.1584C114.633 60.4198 117.325 63.0298 120.635 64.5698L111.372 116.399L91.5012 76.5633C93.2815 75.1288 94.7346 73.3283 95.7626 71.2843V71.0517C96.8482 68.8945 97.4344 66.5203 97.4763 64.1041C97.4763 58.3134 94.3855 52.9617 89.3702 50.0648C84.3548 47.1694 78.175 47.1694 73.1597 50.0648C68.1427 52.9617 65.0536 58.3134 65.0536 64.1041C65.066 66.5125 65.6212 68.8868 66.6742 71.0517C68.9508 75.6141 73.2403 78.8398 78.254 79.7596L84.1361 126.634L57.0869 96.8992C57.6979 96.1455 58.2407 95.3406 58.7075 94.4908C59.8349 92.2483 60.4226 89.7747 60.4211 87.2657C60.4211 81.4733 57.3319 76.1217 52.3166 73.2263C47.2997 70.331 41.1214 70.331 36.1045 73.2263C31.0891 76.1217 28 81.4733 28 87.2657C28.0124 89.6725 28.5661 92.0484 29.6206 94.2133C30.9357 96.9721 33.0013 99.3045 35.5836 100.944C38.1641 102.583 41.154 103.461 44.2105 103.476H44.5347L74.5491 182.214H72.0011C69.4438 182.214 67.3689 184.289 67.3689 186.847V205.374H53.4737C50.9164 205.374 48.843 207.448 48.843 210.005V233.165C48.843 234.393 49.3299 235.57 50.1984 236.44C51.0684 237.308 52.2454 237.795 53.4737 237.795H201.692C202.92 237.795 204.097 237.308 204.967 236.44C205.836 235.57 206.323 234.393 206.323 233.165V210.005C206.323 208.777 205.836 207.599 204.967 206.729C204.097 205.861 202.92 205.374 201.692 205.374H187.797V186.847C187.797 185.618 187.308 184.44 186.44 183.571C185.571 182.703 184.393 182.214 183.164 182.214H180.616L210.631 103.476H210.955C214.004 103.451 216.985 102.569 219.556 100.931C222.129 99.2936 224.186 96.9658 225.499 94.2131C226.573 92.0048 227.128 89.5808 227.119 87.1258C227.083 82.8579 225.365 78.7779 222.34 75.7694C219.312 72.7608 215.223 71.0657 210.955 71.0534L210.954 71.0538ZM173.9 57.1586C176.382 57.3742 178.56 58.8971 179.615 61.1549C180.67 63.4113 180.44 66.0599 179.014 68.1025C177.587 70.1433 175.178 71.2692 172.696 71.0537C170.501 70.6396 168.631 69.216 167.648 67.2092C166.568 65.0505 166.689 62.4856 167.964 60.4367C169.239 58.3865 171.486 57.1462 173.9 57.1586ZM127.582 43.2634C129.968 43.2665 132.188 44.4948 133.458 46.517C134.726 48.5393 134.869 51.0702 133.835 53.2228C132.813 55.3893 130.749 56.8765 128.369 57.1588C127.79 57.2859 127.189 57.2859 126.609 57.1588C124.367 56.8424 122.425 55.4389 121.422 53.4074C120.307 51.2549 120.394 48.6774 121.652 46.6055C122.911 44.5336 125.158 43.2665 127.582 43.2634ZM75.0579 67.2092C74.0157 65.0567 74.1538 62.5182 75.4239 60.4911C76.694 58.4642 78.9194 57.2344 81.3107 57.2344C83.7035 57.2344 85.9274 58.4642 87.1975 60.4911C88.4676 62.518 88.6072 65.0566 87.5635 67.2092C86.7508 68.805 85.3582 70.0317 83.6725 70.638C83.1716 70.8458 82.6396 70.9699 82.0984 71.0071L81.2641 71.0536C79.9754 71.0521 78.7115 70.6923 77.615 70.0131C76.5202 69.3338 75.6348 68.363 75.0579 67.2092ZM38.0045 90.3674V90.3689C37.9925 90.3449 37.9806 90.3209 37.9688 90.2968C37.0485 88.4129 37.0264 86.2118 37.9146 84.3082C38.814 82.3821 40.5463 80.9725 42.6151 80.4839C44.6854 79.9954 46.8643 80.4824 48.5297 81.8052C50.1953 83.1265 51.1645 85.1379 51.1583 87.2656C51.1227 89.0971 50.3798 90.8433 49.0833 92.1381C47.7884 93.433 46.0422 94.1774 44.2109 94.2131C42.9051 94.2053 41.6272 93.8331 40.5215 93.1368C39.4241 92.4463 38.5399 91.4615 37.9688 90.2968C37.9653 90.2897 37.9615 90.2827 37.958 90.2756L37.9688 90.2968L38.0045 90.3674ZM197.057 228.533H58.1049V214.638H197.057V228.533ZM76.6332 205.375V191.48H178.529V205.375H76.6332ZM84.4602 182.217L57.2716 110.839L87.1463 143.633V143.631C88.5079 145.12 90.6775 145.556 92.5091 144.709C94.339 143.862 95.4122 141.929 95.1594 139.926L89.2773 92.6827L109.61 133.304H109.612C110.376 134.866 111.95 135.866 113.687 135.899H114.335C116.317 135.607 117.887 134.075 118.226 132.101L127.582 79.1125L136.845 132.053C137.185 134.027 138.754 135.56 140.736 135.851H141.477C143.222 135.845 144.815 134.86 145.6 133.303L165.932 92.6815L160.005 139.973C159.752 141.975 160.825 143.909 162.655 144.756C164.487 145.602 166.656 145.167 168.018 143.678L197.893 110.884L170.704 182.214L84.4602 182.217ZM217.159 90.3697C216.584 91.5235 215.699 92.4928 214.602 93.172C213.506 93.8513 212.242 94.2126 210.953 94.2142C209.857 94.3165 208.756 94.0731 207.803 93.5194C206.628 92.806 205.693 91.7577 205.117 90.5078C204.308 88.7662 204.176 86.7843 204.747 84.9497C205.195 83.5338 206.088 82.2978 207.295 81.4294C208.379 80.7098 209.65 80.3236 210.953 80.319C212.788 80.319 214.545 81.0525 215.833 82.3583C217.122 83.6641 217.832 85.432 217.808 87.2665C217.826 88.3365 217.604 89.3958 217.159 90.3697Z" fill="black" />
    <path d="M84.4602 182.217L57.2716 110.839L87.1463 143.633V143.631C88.5079 145.12 90.6775 145.556 92.5091 144.709C94.339 143.862 95.4122 141.929 95.1594 139.926L89.2773 92.6827L109.61 133.304H109.612C110.376 134.866 111.95 135.866 113.687 135.899H114.335C116.317 135.607 117.887 134.075 118.226 132.101L127.582 79.1125L136.845 132.053C137.185 134.027 138.754 135.56 140.736 135.851H141.477C143.222 135.845 144.815 134.86 145.6 133.303L165.932 92.6815L160.005 139.973C159.752 141.975 160.825 143.909 162.655 144.756C164.487 145.602 166.656 145.167 168.018 143.678L197.893 110.884L170.704 182.214L84.4602 182.217Z" fill="#444F5A" />
    <path d="M76.6332 205.375V191.48H178.529V205.375H76.6332Z" fill="#3E4149" />
    <path d="M197.057 228.533H58.1049V214.638H197.057V228.533Z" fill="#444F5A" />
    <path d="M38.0045 90.3674V90.3689C37.9925 90.3449 37.9806 90.3209 37.9688 90.2968L37.958 90.2756C38.5287 91.4496 39.4173 92.4421 40.5215 93.1368C41.6272 93.8331 42.9051 94.2053 44.2109 94.2131C46.0422 94.1774 47.7884 93.433 49.0833 92.1381C50.3798 90.8433 51.1227 89.0971 51.1583 87.2656C51.1645 85.1379 50.1953 83.1265 48.5297 81.8052C46.8643 80.4824 44.6854 79.9954 42.6151 80.4839C40.5463 80.9725 38.814 82.3821 37.9146 84.3082C37.0264 86.2118 37.0485 88.4129 37.9688 90.2968L38.0045 90.3674Z" fill="#444F5A" />
    <path d="M75.0579 67.2092C74.0157 65.0567 74.1538 62.5182 75.4239 60.4911C76.694 58.4642 78.9194 57.2344 81.3107 57.2344C83.7035 57.2344 85.9274 58.4642 87.1975 60.4911C88.4676 62.518 88.6072 65.0566 87.5635 67.2092C86.7508 68.805 85.3582 70.0317 83.6725 70.638C83.1716 70.8458 82.6396 70.9699 82.0984 71.0071L81.2641 71.0536C79.9754 71.0521 78.7115 70.6923 77.615 70.0131C76.5202 69.3338 75.6348 68.363 75.0579 67.2092Z" fill="#444F5A" />
    <path d="M127.582 43.2634C129.968 43.2665 132.188 44.4948 133.458 46.517C134.726 48.5393 134.869 51.0702 133.835 53.2228C132.813 55.3893 130.749 56.8765 128.369 57.1588C127.79 57.2859 127.189 57.2859 126.609 57.1588C124.367 56.8424 122.425 55.4389 121.422 53.4074C120.307 51.2549 120.394 48.6774 121.652 46.6055C122.911 44.5336 125.158 43.2665 127.582 43.2634Z" fill="#444F5A" />
    <path d="M173.9 57.1586C176.382 57.3742 178.56 58.8971 179.615 61.1549C180.67 63.4113 180.44 66.0599 179.014 68.1025C177.587 70.1433 175.178 71.2692 172.696 71.0537C170.501 70.6396 168.631 69.216 167.648 67.2092C166.568 65.0505 166.689 62.4856 167.964 60.4367C169.239 58.3865 171.486 57.1462 173.9 57.1586Z" fill="#444F5A" />
    <path d="M217.159 90.3697C216.584 91.5235 215.699 92.4928 214.602 93.172C213.506 93.8513 212.242 94.2126 210.953 94.2142C209.857 94.3165 208.756 94.0731 207.803 93.5194C206.628 92.806 205.693 91.7577 205.117 90.5078C204.308 88.7662 204.176 86.7843 204.747 84.9497C205.195 83.5338 206.088 82.2978 207.295 81.4294C208.379 80.7098 209.65 80.3236 210.953 80.319C212.788 80.319 214.545 81.0525 215.833 82.3583C217.122 83.6641 217.832 85.432 217.808 87.2665C217.826 88.3365 217.604 89.3958 217.159 90.3697Z" fill="#444F5A" />
  </g>
  <g id="br" fill="none" transform="scale(0.15625 0.15625)">
    <path d="M201.847 205.11H187.952V186.583C187.952 185.355 187.464 184.176 186.595 183.307C185.727 182.439 184.548 181.951 183.32 181.951H177.16C167.517 158.332 161.776 133.301 160.162 107.845H183.32C184.548 107.845 185.727 107.357 186.595 106.488C187.464 105.62 187.952 104.441 187.952 103.213V47.6323C187.952 46.404 187.464 45.2254 186.595 44.357C185.727 43.4885 184.548 43 183.32 43H160.162C157.603 43 155.529 45.075 155.529 47.6323V66.1597H146.266V47.6323C146.266 46.404 145.778 45.2254 144.909 44.357C144.041 43.4885 142.862 43 141.634 43H113.844C111.287 43 109.212 45.075 109.212 47.6323V66.1597H99.9486V47.6323C99.9486 46.404 99.4601 45.2254 98.5916 44.357C97.7232 43.4885 96.5446 43 95.3163 43H72.1582C69.6009 43 67.5259 45.075 67.5259 47.6323V103.213C67.5259 104.441 68.0144 105.62 68.8829 106.488C69.7513 107.357 70.9299 107.845 72.1582 107.845H95.3163C93.7391 133.295 88.0447 158.325 78.4574 181.951H72.1582C69.6009 181.951 67.5259 184.025 67.5259 186.583V205.11H53.6307C51.0734 205.11 49 207.184 49 209.741V232.901C49 234.129 49.487 235.306 50.3554 236.176C51.2254 237.044 52.4025 237.531 53.6307 237.531H201.849C203.077 237.531 204.254 237.044 205.124 236.176C205.993 235.306 206.48 234.129 206.48 232.901V209.741C206.48 208.513 205.993 207.336 205.124 206.466C204.254 205.597 203.077 205.11 201.849 205.11L201.847 205.11ZM76.7904 52.2629H90.6856V70.7888C90.6856 72.0171 91.1726 73.1957 92.041 74.0641C92.911 74.9326 94.0881 75.4211 95.3163 75.4211H113.844C115.072 75.4211 116.251 74.9326 117.119 74.0641C117.988 73.1957 118.476 72.0171 118.476 70.7888V52.2629H137.004L137.002 70.7888C137.002 72.0171 137.491 73.1957 138.359 74.0641C139.227 74.9326 140.406 75.4211 141.634 75.4211H160.162C161.39 75.4211 162.567 74.9326 163.437 74.0641C164.305 73.1957 164.792 72.0171 164.792 70.7888V52.2629H178.688V98.5777H76.7921L76.7904 52.2629ZM104.581 107.844H150.896C152.294 133.251 157.752 158.271 167.061 181.949H88.3191C97.661 158.273 103.149 133.252 104.578 107.844H104.581ZM76.7904 191.215H178.686V205.11H76.7904V191.215ZM197.214 228.268H58.2621V214.373H197.214V228.268Z" fill="black" />
    <path d="M76.7904 52.2629H90.6856V70.7888C90.6856 72.0171 91.1726 73.1957 92.041 74.0641C92.911 74.9326 94.0881 75.4211 95.3163 75.4211H113.844C115.072 75.4211 116.251 74.9326 117.119 74.0641C117.988 73.1957 118.476 72.0171 118.476 70.7888V52.2629H137.004L137.002 70.7888C137.002 72.0171 137.491 73.1957 138.359 74.0641C139.227 74.9326 140.406 75.4211 141.634 75.4211H160.162C161.39 75.4211 162.567 74.9326 163.437 74.0641C164.305 73.1957 164.792 72.0171 164.792 70.7888V52.2629H178.688V98.5777H76.7921L76.7904 52.2629Z" fill="#444F5A" />
    <path d="M104.581 107.844H150.896C152.294 133.251 157.752 158.271 167.061 181.949H88.3191C97.661 158.273 103.149 133.252 104.578 107.844H104.581Z" fill="#444F5A" />
    <path d="M76.7904 191.215H178.686V205.11H76.7904V191.215Z" fill="#3E4149" />
    <path d="M197.214 228.268H58.2621V214.373H197.214V228.268Z" fill="#444F5A" />
  </g>
  <g id="wb" fill="none" transform="scale(0.15625 0.15625)">
    <path d="M201.847 205.376H187.952V186.848C187.952 185.62 187.463 184.441 186.595 183.573C185.726 182.704 184.548 182.216 183.319 182.216H179.799L181.559 180.271C191.408 169.293 196.935 155.113 197.115 140.364C197.294 125.617 192.111 111.307 182.532 100.096L143.348 54.333C143.726 52.9915 143.929 51.6051 143.949 50.2108C143.949 44.4201 140.86 39.0685 135.845 36.1715C130.828 33.2762 124.65 33.2762 119.633 36.1715C114.617 39.0684 111.528 44.4201 111.528 50.2108C111.55 51.605 111.752 52.9914 112.13 54.333L72.946 100.048V100.05C63.3511 111.253 58.1543 125.562 58.325 140.31C58.4957 155.058 64.0213 169.245 73.8718 180.225L75.632 182.17H72.1582C69.6009 182.17 67.5259 184.245 67.5259 186.802V205.33H53.6307C51.0734 205.33 49 207.403 49 209.96V233.12C49 234.348 49.487 235.527 50.3554 236.395C51.2254 237.264 52.4025 237.751 53.6307 237.751H201.849C203.077 237.751 204.254 237.264 205.124 236.395C205.993 235.527 206.48 234.348 206.48 233.12V210.007C206.48 208.778 205.993 207.601 205.124 206.731C204.254 205.863 203.077 205.376 201.849 205.376L201.847 205.376ZM127.738 43.2622C130.124 43.2653 132.344 44.4936 133.614 46.5158C134.882 48.5381 135.025 51.0691 133.991 53.2216C133.215 54.7616 131.894 55.9603 130.286 56.5806C128.676 57.201 126.893 57.201 125.283 56.5806C123.673 55.9603 122.353 54.7616 121.578 53.2216C121.12 52.2834 120.882 51.2537 120.883 50.21C120.883 48.3831 121.601 46.6307 122.885 45.3296C124.168 44.03 125.911 43.287 127.738 43.2622ZM80.7719 174.064C72.4257 164.759 67.7438 152.737 67.5993 140.238C67.4535 127.738 71.8563 115.613 79.9838 106.115L117.037 62.5758L117.039 62.5773C119.954 65.0353 123.645 66.3845 127.46 66.3845C131.274 66.3845 134.966 65.0353 137.882 62.5773L153.537 80.8721L123.755 119.177H123.754C122.181 121.198 122.544 124.112 124.565 125.684C126.586 127.258 129.5 126.894 131.072 124.873L160.161 88.0508L175.63 106.115C183.76 115.612 188.16 127.737 188.016 140.237C187.872 152.736 183.19 164.758 174.842 174.063L167.339 182.214H88.1368L80.7719 174.064ZM76.7895 191.479H178.685V205.374H76.7895V191.479ZM197.213 228.533H58.2613V214.637H197.213V228.533Z" fill="black" />
    <path d="M80.7719 174.064C72.4257 164.759 67.7438 152.737 67.5993 140.238C67.4535 127.738 71.8563 115.613 79.9838 106.115L117.037 62.5758L117.039 62.5773C119.954 65.0353 123.645 66.3845 127.46 66.3845C131.274 66.3845 134.966 65.0353 137.882 62.5773L153.537 80.8721L123.755 119.177H123.754C122.181 121.198 122.544 124.112 124.565 125.684C126.586 127.258 129.5 126.894 131.072 124.873L160.161 88.0508L175.63 106.115C183.76 115.612 188.16 127.737 188.016 140.237C187.872 152.736 183.19 164.758 174.842 174.063L167.339 182.214H88.1368L80.7719 174.064Z" fill="#FFC8C8" />
    <path d="M76.7895 191.479H178.685V205.374H76.7895V191.479Z" fill="#FF9999" />
    <path d="M197.213 228.533H58.2613V214.637H197.213V228.533Z" fill="#FFC8C8" />
    <path d="M127.738 43.2622C130.124 43.2653 132.344 44.4936 133.614 46.5158C134.882 48.5381 135.025 51.0691 133.991 53.2216C133.215 54.7616 131.894 55.9603 130.286 56.5806C128.676 57.201 126.893 57.201 125.283 56.5806C123.673 55.9603 122.353 54.7616 121.578 53.2216C121.12 52.2834 120.882 51.2537 120.883 50.21C120.883 48.3831 121.601 46.6307 122.885 45.3296C124.168 44.03 125.911 43.287 127.738 43.2622Z" fill="#FFC8C8" />
  </g>
  <g id="wk" fill="none" transform="scale(0.15625 0.15625)">
    <path d="M201.748 205.374H187.853V186.846C187.853 185.618 187.364 184.439 186.496 183.571C185.627 182.703 184.449 182.214 183.22 182.214H182.572C196.791 169.801 220.274 145.161 220.274 117.371C220.569 100.781 212.557 85.1406 198.922 75.6855C182.757 65.2641 160.34 66.0517 132.273 77.8628V57.1582H146.168C148.726 57.1582 150.799 55.0847 150.799 52.5275C150.799 49.9687 148.726 47.8952 146.168 47.8952H132.273V38.6323C132.273 36.0734 130.198 34 127.641 34C125.084 34 123.009 36.0734 123.009 38.6323V47.8952H109.113C106.556 47.8952 104.483 49.9687 104.483 52.5275C104.483 55.0847 106.556 57.1582 109.113 57.1582H123.009V77.8628C94.9407 66.0519 72.5253 65.2642 56.3592 75.6855C42.7245 85.1406 34.7133 100.781 35.0079 117.371C35.0079 145.162 58.49 169.804 72.7095 182.214H72.0613C69.504 182.214 67.429 184.289 67.429 186.846V205.374H53.5338C50.9765 205.374 48.9031 207.447 48.9031 210.004V233.164C48.9031 234.392 49.3901 235.57 50.2586 236.44C51.1286 237.308 52.3056 237.795 53.5339 237.795H201.752C202.98 237.795 204.157 237.308 205.027 236.44C205.896 235.57 206.383 234.392 206.383 233.164V210.004C206.383 208.776 205.896 207.599 205.027 206.729C204.157 205.861 202.98 205.374 201.752 205.374L201.748 205.374ZM44.2675 117.37C44.0225 103.926 50.3933 91.2183 61.3126 83.3727C75.718 74.1097 97.9503 76.194 125.647 89.1154C126.894 89.7016 128.336 89.7016 129.583 89.1154C157.374 76.1924 179.558 74.2015 193.918 83.3727C204.855 91.2088 211.244 103.918 211.01 117.37C211.01 148.587 174.511 177.21 167.796 182.212H87.4813C80.7647 177.258 44.2675 148.633 44.2675 117.37ZM76.6902 191.479H178.586V205.374H76.6902V191.479ZM197.114 228.532H58.162V214.637H197.114V228.532Z" fill="black" />
    <path d="M44.2675 117.37C44.0225 103.926 50.3933 91.2183 61.3126 83.3727C75.718 74.1097 97.9503 76.194 125.647 89.1154C126.894 89.7016 128.336 89.7016 129.583 89.1154C157.374 76.1924 179.558 74.2015 193.918 83.3727C204.855 91.2088 211.244 103.918 211.01 117.37C211.01 148.587 174.511 177.21 167.796 182.212H87.4813C80.7647 177.258 44.2675 148.633 44.2675 117.37Z" fill="#FFC8C8" />
    <path d="M76.6902 191.479H178.586V205.374H76.6902V191.479Z" fill="#FF9999" />
    <path d="M197.114 228.532H58.162V214.637H197.114V228.532Z" fill="#FFC8C8" />
  </g>
  <g id="wn" fill="none" transform="scale(0.15625 0.15625)">
    <path d="M201.846 205.701H187.95V187.173C187.95 185.945 187.462 184.766 186.593 183.898C185.725 183.029 184.546 182.541 183.318 182.541H177.991L174.055 159.383L187.95 100.05C188.278 98.628 187.918 97.1345 186.976 96.0197L136.029 35.8058V35.8073C134.783 34.1883 132.623 33.5773 130.714 34.3015C128.803 35.0272 127.595 36.9192 127.738 38.9572V58.8726L65.9519 80.9203C63.8722 81.6492 62.5944 83.7397 62.8953 85.9218L67.5275 118.344H67.526C67.8625 120.835 70.1236 122.602 72.6219 122.328L106.017 118.994L78.2265 146.785V146.783C77.313 147.653 76.7951 148.858 76.7904 150.119V182.542L72.1582 182.54C69.6009 182.54 67.5259 184.615 67.5259 187.172V205.7H53.6307C51.0734 205.7 49 207.773 49 210.33V233.49C49 234.718 49.487 235.895 50.3554 236.765C51.2254 237.634 52.4025 238.121 53.6307 238.121H201.849C203.077 238.121 204.254 237.634 205.124 236.765C205.993 235.895 206.48 234.718 206.48 233.49V210.33C206.48 209.102 205.993 207.925 205.124 207.055C204.254 206.187 203.077 205.7 201.849 205.7L201.846 205.701ZM86.0508 152.017L121.761 116.307C123.141 114.919 123.5 112.815 122.659 111.048C121.817 109.282 119.956 108.235 118.01 108.434L76.3241 112.602L72.8503 88.3321L133.942 66.469C135.776 65.8068 136.998 64.0652 136.998 62.1158V51.6015L178.267 100.374L164.789 158.317C164.671 158.914 164.671 159.526 164.789 160.123L168.587 182.54H123.102V165.125L131.856 147.571C132.449 146.467 132.568 145.169 132.188 143.975C131.807 142.782 130.958 141.793 129.837 141.235C128.714 140.676 127.415 140.597 126.233 141.014C125.051 141.432 124.088 142.311 123.566 143.449L114.303 161.977C113.994 162.611 113.836 163.309 113.839 164.014V182.542L86.0486 182.54L86.0508 152.017ZM76.7879 191.805H178.683V205.701H76.7879V191.805ZM197.212 228.859H58.2596V214.963H197.212V228.859Z" fill="black" />
    <path d="M86.0508 152.017L121.761 116.307C123.141 114.919 123.5 112.815 122.659 111.048C121.817 109.282 119.956 108.235 118.01 108.434L76.3241 112.602L72.8503 88.3321L133.942 66.469C135.776 65.8068 136.998 64.0652 136.998 62.1158V51.6015L178.267 100.374L164.789 158.317C164.671 158.914 164.671 159.526 164.789 160.123L168.587 182.54H123.102V165.125L131.856 147.571C132.449 146.467 132.568 145.169 132.188 143.975C131.807 142.782 130.958 141.793 129.837 141.235C128.714 140.676 127.415 140.597 126.233 141.014C125.051 141.432 124.088 142.311 123.566 143.449L114.303 161.977C113.994 162.611 113.836 163.309 113.839 164.014V182.542L86.0486 182.54L86.0508 152.017Z" fill="#FFC8C8" />
    <path d="M76.7879 191.805H178.683V205.701H76.7879V191.805Z" fill="#FF9999" />
    <path d="M197.212 228.859H58.2596V214.963H197.212V228.859Z" fill="#FFC8C8" />
  </g>
  <g id="wp" fill="none" transform="scale(0.15625 0.15625)">
    <path d="M201.847 205.111H187.952V186.584C187.952 185.356 187.464 184.177 186.595 183.309C185.727 182.44 184.548 181.952 183.32 181.952H175.817C171.185 177.69 155.529 160.321 155.529 126.371C165.965 118.544 172.618 106.679 173.849 93.6925C175.082 80.706 170.78 67.8018 162.003 58.1513C153.225 48.5021 140.785 43 127.739 43C114.693 43 102.253 48.5021 93.4754 58.1513C84.698 67.8022 80.396 80.706 81.6287 93.6925C82.8601 106.679 89.5129 118.544 99.9486 126.371C99.9486 160.321 84.1537 177.692 79.6608 181.952H72.1582C69.6009 181.952 67.5259 184.027 67.5259 186.584V205.111H53.6307C51.0734 205.111 49 207.185 49 209.742V232.902C49 234.13 49.487 235.307 50.3554 236.177C51.2254 237.046 52.4025 237.533 53.6307 237.533H201.849C203.077 237.533 204.254 237.046 205.124 236.177C205.993 235.307 206.48 234.13 206.48 232.902V209.742C206.48 208.514 205.993 207.337 205.124 206.467C204.254 205.598 203.077 205.111 201.849 205.111L201.847 205.111ZM90.6856 89.3167C90.6856 79.4892 94.589 70.0651 101.538 63.1159C108.487 56.1667 117.912 52.2633 127.739 52.2633C137.566 52.2633 146.991 56.1667 153.94 63.1159C160.889 70.0651 164.792 79.4892 164.792 89.3167C164.792 99.1442 160.889 108.568 153.94 115.518C146.991 122.467 137.566 126.37 127.739 126.37C117.912 126.37 108.487 122.467 101.538 115.518C94.589 108.568 90.6856 99.1442 90.6856 89.3167ZM109.213 131.649H109.212L109.213 131.65C121.123 136.961 134.728 136.961 146.637 131.649C146.949 149.752 152.836 167.316 163.496 181.95H91.9835C102.776 167.362 108.795 149.793 109.213 131.65L109.213 131.649ZM76.7904 191.216H178.686V205.111H76.7904V191.216ZM197.214 228.27H58.2621V214.374H197.214V228.27Z" fill="black" />
    <path d="M90.6856 89.3167C90.6856 79.4892 94.589 70.0651 101.538 63.1159C108.487 56.1667 117.912 52.2633 127.739 52.2633C137.566 52.2633 146.991 56.1667 153.94 63.1159C160.889 70.0651 164.792 79.4892 164.792 89.3167C164.792 99.1442 160.889 108.568 153.94 115.518C146.991 122.467 137.566 126.37 127.739 126.37C117.912 126.37 108.487 122.467 101.538 115.518C94.589 108.568 90.6856 99.1442 90.6856 89.3167Z" fill="#FFC8C8" />
    <path d="M146.637 131.649C134.728 136.961 121.123 136.961 109.213 131.65C108.795 149.793 102.776 167.362 91.9835 181.95H163.496C152.836 167.316 146.949 149.752 146.637 131.649Z" fill="#FFC8C8" />
    <path d="M76.7904 191.216H178.686V205.111H76.7904V191.216Z" fill="#FF9999" />
    <path d="M197.214 228.27H58.2621V214.374H197.214V228.27Z" fill="#FFC8C8" />
  </g>
  <g id="wq" fill="none" transform="scale(0.15625 0.15625)">
    <path d="M210.954 71.0538C206.655 71.0538 202.531 72.7628 199.49 75.8024C196.451 78.842 194.743 82.9656 194.743 87.2659C194.756 89.6728 195.309 92.0487 196.364 94.2136C196.829 95.0789 197.372 95.8993 197.984 96.6685L171.028 126.634L176.864 79.9942C181.926 79.0234 186.225 75.7046 188.444 71.0537C189.514 68.8934 190.083 66.5175 190.111 64.1061C190.111 58.3153 187.022 52.9637 182.005 50.0667C176.99 47.1714 170.81 47.1714 165.794 50.0667C160.779 52.9636 157.688 58.3153 157.688 64.1061C157.702 66.5144 158.256 68.8888 159.311 71.0537C160.34 73.0961 161.793 74.895 163.57 76.3342L143.515 116.4L134.252 64.5233C137.644 63.0454 140.425 60.4449 142.126 57.1584C143.196 54.9982 143.766 52.6223 143.793 50.2108C143.793 44.4201 140.704 39.0685 135.688 36.1715C130.671 33.2762 124.493 33.2762 119.476 36.1715C114.461 39.0684 111.372 44.4201 111.372 50.2108C111.384 52.6192 111.938 54.9936 112.992 57.1584C114.633 60.4198 117.325 63.0298 120.635 64.5698L111.372 116.399L91.5012 76.5633C93.2815 75.1288 94.7346 73.3283 95.7626 71.2843V71.0517C96.8482 68.8945 97.4344 66.5203 97.4763 64.1041C97.4763 58.3134 94.3855 52.9617 89.3702 50.0648C84.3548 47.1694 78.175 47.1694 73.1597 50.0648C68.1427 52.9617 65.0536 58.3134 65.0536 64.1041C65.066 66.5125 65.6212 68.8868 66.6742 71.0517C68.9508 75.6141 73.2403 78.8398 78.254 79.7596L84.1361 126.634L57.0869 96.8992C57.6979 96.1455 58.2407 95.3406 58.7075 94.4908C59.8349 92.2483 60.4226 89.7747 60.4211 87.2657C60.4211 81.4733 57.3319 76.1217 52.3166 73.2263C47.2997 70.331 41.1214 70.331 36.1045 73.2263C31.0891 76.1217 28 81.4733 28 87.2657C28.0124 89.6725 28.5661 92.0484 29.6206 94.2133C30.9357 96.9721 33.0013 99.3045 35.5836 100.944C38.1641 102.583 41.154 103.461 44.2105 103.476H44.5347L74.5491 182.214H72.0011C69.4438 182.214 67.3689 184.289 67.3689 186.847V205.374H53.4737C50.9164 205.374 48.843 207.448 48.843 210.005V233.165C48.843 234.393 49.3299 235.57 50.1984 236.44C51.0684 237.308 52.2454 237.795 53.4737 237.795H201.692C202.92 237.795 204.097 237.308 204.967 236.44C205.836 235.57 206.323 234.393 206.323 233.165V210.005C206.323 208.777 205.836 207.599 204.967 206.729C204.097 205.861 202.92 205.374 201.692 205.374H187.797V186.847C187.797 185.618 187.308 184.44 186.44 183.571C185.571 182.703 184.393 182.214 183.164 182.214H180.616L210.631 103.476H210.955C214.004 103.451 216.985 102.569 219.556 100.931C222.129 99.2936 224.186 96.9658 225.499 94.2131C226.573 92.0048 227.128 89.5808 227.119 87.1258C227.083 82.8579 225.365 78.7779 222.34 75.7694C219.312 72.7608 215.223 71.0657 210.955 71.0534L210.954 71.0538ZM173.9 57.1586C176.382 57.3742 178.56 58.8971 179.615 61.1549C180.67 63.4113 180.44 66.0599 179.014 68.1025C177.587 70.1433 175.178 71.2692 172.696 71.0537C170.501 70.6396 168.631 69.216 167.648 67.2092C166.568 65.0505 166.689 62.4856 167.964 60.4367C169.239 58.3865 171.486 57.1462 173.9 57.1586ZM127.582 43.2634C129.968 43.2665 132.188 44.4948 133.458 46.517C134.726 48.5393 134.869 51.0702 133.835 53.2228C132.813 55.3893 130.749 56.8765 128.369 57.1588C127.79 57.2859 127.189 57.2859 126.609 57.1588C124.367 56.8424 122.425 55.4389 121.422 53.4074C120.307 51.2549 120.394 48.6774 121.652 46.6055C122.911 44.5336 125.158 43.2665 127.582 43.2634ZM75.0579 67.2092C74.0157 65.0567 74.1538 62.5182 75.4239 60.4911C76.694 58.4642 78.9194 57.2344 81.3107 57.2344C83.7035 57.2344 85.9274 58.4642 87.1975 60.4911C88.4676 62.518 88.6072 65.0566 87.5635 67.2092C86.7508 68.805 85.3582 70.0317 83.6725 70.638C83.1716 70.8458 82.6396 70.9699 82.0984 71.0071L81.2641 71.0536C79.9754 71.0521 78.7115 70.6923 77.615 70.0131C76.5202 69.3338 75.6348 68.363 75.0579 67.2092ZM38.0045 90.3674V90.3689C37.9925 90.3449 37.9806 90.3209 37.9688 90.2968C37.0485 88.4129 37.0264 86.2118 37.9146 84.3082C38.814 82.3821 40.5463 80.9725 42.6151 80.4839C44.6854 79.9954 46.8643 80.4824 48.5297 81.8052C50.1953 83.1265 51.1645 85.1379 51.1583 87.2656C51.1227 89.0971 50.3798 90.8433 49.0833 92.1381C47.7884 93.433 46.0422 94.1774 44.2109 94.2131C42.9051 94.2053 41.6272 93.8331 40.5215 93.1368C39.4241 92.4463 38.5399 91.4615 37.9688 90.2968C37.9653 90.2897 37.9615 90.2827 37.958 90.2756L37.9688 90.2968L38.0045 90.3674ZM197.057 228.533H58.1049V214.638H197.057V228.533ZM76.6332 205.375V191.48H178.529V205.375H76.6332ZM84.4602 182.217L57.2716 110.839L87.1463 143.633V143.631C88.5079 145.12 90.6775 145.556 92.5091 144.709C94.339 143.862 95.4122 141.929 95.1594 139.926L89.2773 92.6827L109.61 133.304H109.612C110.376 134.866 111.95 135.866 113.687 135.899H114.335C116.317 135.607 117.887 134.075 118.226 132.101L127.582 79.1125L136.845 132.053C137.185 134.027 138.754 135.56 140.736 135.851H141.477C143.222 135.845 144.815 134.86 145.6 133.303L165.932 92.6815L160.005 139.973C159.752 141.975 160.825 143.909 162.655 144.756C164.487 145.602 166.656 145.167 168.018 143.678L197.893 110.884L170.704 182.214L84.4602 182.217ZM217.159 90.3697C216.584 91.5235 215.699 92.4928 214.602 93.172C213.506 93.8513 212.242 94.2126 210.953 94.2142C209.857 94.3165 208.756 94.0731 207.803 93.5194C206.628 92.806 205.693 91.7577 205.117 90.5078C204.308 88.7662 204.176 86.7843 204.747 84.9497C205.195 83.5338 206.088 82.2978 207.295 81.4294C208.379 80.7098 209.65 80.3236 210.953 80.319C212.788 80.319 214.545 81.0525 215.833 82.3583C217.122 83.6641 217.832 85.432 217.808 87.2665C217.826 88.3365 217.604 89.3958 217.159 90.3697Z" fill="black" />
    <path d="M84.4602 182.217L57.2716 110.839L87.1463 143.633V143.631C88.5079 145.12 90.6775 145.556 92.5091 144.709C94.339 143.862 95.4122 141.929 95.1594 139.926L89.2773 92.6827L109.61 133.304H109.612C110.376 134.866 111.95 135.866 113.687 135.899H114.335C116.317 135.607 117.887 134.075 118.226 132.101L127.582 79.1125L136.845 132.053C137.185 134.027 138.754 135.56 140.736 135.851H141.477C143.222 135.845 144.815 134.86 145.6 133.303L165.932 92.6815L160.005 139.973C159.752 141.975 160.825 143.909 162.655 144.756C164.487 145.602 166.656 145.167 168.018 143.678L197.893 110.884L170.704 182.214L84.4602 182.217Z" fill="#FFC8C8" />
    <path d="M76.6332 205.375V191.48H178.529V205.375H76.6332Z" fill="#FF9999" />
    <path d="M197.057 228.533H58.1049V214.638H197.057V228.533Z" fill="#FFC8C8" />
    <path d="M38.0045 90.3674V90.3689C37.9925 90.3449 37.9806 90.3209 37.9688 90.2968L37.958 90.2756C38.5287 91.4496 39.4173 92.4421 40.5215 93.1368C41.6272 93.8331 42.9051 94.2053 44.2109 94.2131C46.0422 94.1774 47.7884 93.433 49.0833 92.1381C50.3798 90.8433 51.1227 89.0971 51.1583 87.2656C51.1645 85.1379 50.1953 83.1265 48.5297 81.8052C46.8643 80.4824 44.6854 79.9954 42.6151 80.4839C40.5463 80.9725 38.814 82.3821 37.9146 84.3082C37.0264 86.2118 37.0485 88.4129 37.9688 90.2968L38.0045 90.3674Z" fill="#FFC8C8" />
    <path d="M75.0579 67.2092C74.0157 65.0567 74.1538 62.5182 75.4239 60.4911C76.694 58.4642 78.9194 57.2344 81.3107 57.2344C83.7035 57.2344 85.9274 58.4642 87.1975 60.4911C88.4676 62.518 88.6072 65.0566 87.5635 67.2092C86.7508 68.805 85.3582 70.0317 83.6725 70.638C83.1716 70.8458 82.6396 70.9699 82.0984 71.0071L81.2641 71.0536C79.9754 71.0521 78.7115 70.6923 77.615 70.0131C76.5202 69.3338 75.6348 68.363 75.0579 67.2092Z" fill="#FFC8C8" />
    <path d="M127.582 43.2634C129.968 43.2665 132.188 44.4948 133.458 46.517C134.726 48.5393 134.869 51.0702 133.835 53.2228C132.813 55.3893 130.749 56.8765 128.369 57.1588C127.79 57.2859 127.189 57.2859 126.609 57.1588C124.367 56.8424 122.425 55.4389 121.422 53.4074C120.307 51.2549 120.394 48.6774 121.652 46.6055C122.911 44.5336 125.158 43.2665 127.582 43.2634Z" fill="#FFC8C8" />
    <path d="M173.9 57.1586C176.382 57.3742 178.56 58.8971 179.615 61.1549C180.67 63.4113 180.44 66.0599 179.014 68.1025C177.587 70.1433 175.178 71.2692 172.696 71.0537C170.501 70.6396 168.631 69.216 167.648 67.2092C166.568 65.0505 166.689 62.4856 167.964 60.4367C169.239 58.3865 171.486 57.1462 173.9 57.1586Z" fill="#FFC8C8" />
    <path d="M217.159 90.3697C216.584 91.5235 215.699 92.4928 214.602 93.172C213.506 93.8513 212.242 94.2126 210.953 94.2142C209.857 94.3165 208.756 94.0731 207.803 93.5194C206.628 92.806 205.693 91.7577 205.117 90.5078C204.308 88.7662 204.176 86.7843 204.747 84.9497C205.195 83.5338 206.088 82.2978 207.295 81.4294C208.379 80.7098 209.65 80.3236 210.953 80.319C212.788 80.319 214.545 81.0525 215.833 82.3583C217.122 83.6641 217.832 85.432 217.808 87.2665C217.826 88.3365 217.604 89.3958 217.159 90.3697Z" fill="#FFC8C8" />
  </g>
  <g id="wr" fill="none" transform="scale(0.15625 0.15625)">
    <path d="M201.847 205.11H187.952V186.583C187.952 185.355 187.464 184.176 186.595 183.307C185.727 182.439 184.548 181.951 183.32 181.951H177.16C167.517 158.332 161.776 133.301 160.162 107.845H183.32C184.548 107.845 185.727 107.357 186.595 106.488C187.464 105.62 187.952 104.441 187.952 103.213V47.6323C187.952 46.404 187.464 45.2254 186.595 44.357C185.727 43.4885 184.548 43 183.32 43H160.162C157.603 43 155.529 45.075 155.529 47.6323V66.1597H146.266V47.6323C146.266 46.404 145.778 45.2254 144.909 44.357C144.041 43.4885 142.862 43 141.634 43H113.844C111.287 43 109.212 45.075 109.212 47.6323V66.1597H99.9486V47.6323C99.9486 46.404 99.4601 45.2254 98.5916 44.357C97.7232 43.4885 96.5446 43 95.3163 43H72.1582C69.6009 43 67.5259 45.075 67.5259 47.6323V103.213C67.5259 104.441 68.0144 105.62 68.8829 106.488C69.7513 107.357 70.9299 107.845 72.1582 107.845H95.3163C93.7391 133.295 88.0447 158.325 78.4574 181.951H72.1582C69.6009 181.951 67.5259 184.025 67.5259 186.583V205.11H53.6307C51.0734 205.11 49 207.184 49 209.741V232.901C49 234.129 49.487 235.306 50.3554 236.176C51.2254 237.044 52.4025 237.531 53.6307 237.531H201.849C203.077 237.531 204.254 237.044 205.124 236.176C205.993 235.306 206.48 234.129 206.48 232.901V209.741C206.48 208.513 205.993 207.336 205.124 206.466C204.254 205.597 203.077 205.11 201.849 205.11L201.847 205.11ZM76.7904 52.2629H90.6856V70.7888C90.6856 72.0171 91.1726 73.1957 92.041 74.0641C92.911 74.9326 94.0881 75.4211 95.3163 75.4211H113.844C115.072 75.4211 116.251 74.9326 117.119 74.0641C117.988 73.1957 118.476 72.0171 118.476 70.7888V52.2629H137.004L137.002 70.7888C137.002 72.0171 137.491 73.1957 138.359 74.0641C139.227 74.9326 140.406 75.4211 141.634 75.4211H160.162C161.39 75.4211 162.567 74.9326 163.437 74.0641C164.305 73.1957 164.792 72.0171 164.792 70.7888V52.2629H178.688V98.5777H76.7921L76.7904 52.2629ZM104.581 107.844H150.896C152.294 133.251 157.752 158.271 167.061 181.949H88.3191C97.661 158.273 103.149 133.252 104.578 107.844H104.581ZM76.7904 191.215H178.686V205.11H76.7904V191.215ZM197.214 228.268H58.2621V214.373H197.214V228.268Z" fill="black" />
    <path d="M76.7904 52.2629H90.6856V70.7888C90.6856 72.0171 91.1726 73.1957 92.041 74.0641C92.911 74.9326 94.0881 75.4211 95.3163 75.4211H113.844C115.072 75.4211 116.251 74.9326 117.119 74.0641C117.988 73.1957 118.476 72.0171 118.476 70.7888V52.2629H137.004L137.002 70.7888C137.002 72.0171 137.491 73.1957 138.359 74.0641C139.227 74.9326 140.406 75.4211 141.634 75.4211H160.162C161.39 75.4211 162.567 74.9326 163.437 74.0641C164.305 73.1957 164.792 72.0171 164.792 70.7888V52.2629H178.688V98.5777H76.7921L76.7904 52.2629Z" fill="#FFC8C8" />
    <path d="M104.581 107.844H150.896C152.294 133.251 157.752 158.271 167.061 181.949H88.3191C97.661 158.273 103.149 133.252 104.578 107.844H104.581Z" fill="#FFC8C8" />
    <path d="M76.7904 191.215H178.686V205.11H76.7904V191.215Z" fill="#FF9999" />
    <path d="M197.214 228.268H58.2621V214.373H197.214V228.268Z" fill="#FFC8C8" />
  </g>
</svg>