<svg xmlns="http://www.w3.org/2000/svg" width="40" height="40" viewbox="0.0 0.0 180.0 180.0">
  <g id="bb" fill="none" transform="scale(0.2222222222222222 0.2222222222222222)">
    <path d="M123.794 65.7399H59.0282V47.1586C59.0282 38.8805 61.9763 31.7637 67.8718 25.8082C73.8276 19.8528 81.0039 16.875 89.4009 16.875C97.8576 16.875 104.885 20.0612 110.483 26.4336C110.246 32.5081 111.139 37.7192 113.163 42.0667C114.533 42.7813 118.404 43.5257 124.777 44.3C131.209 45.0742 136.985 45.7293 142.107 46.2653C139.01 49.5408 135.943 52.7866 132.906 56.0025C129.868 59.2183 126.831 62.4639 123.794 65.7399ZM134.603 141.94L139.249 163.29H39.375L43.8416 141.94H134.603ZM133.352 135.687H45.2709L56.3479 83.8744H122.275L133.352 135.687ZM121.114 77.8888H57.5989L58.7599 71.7249H119.863L121.114 77.8888Z" fill="#092A35" />
    <path d="M123.794 65.74H59.0282L58.7599 71.725H119.863L123.794 65.74Z" fill="#76A665" />
    <path d="M56.3478 83.8743H122.275L121.114 77.8888H57.5988L56.3478 83.8743Z" fill="#76A665" />
    <path d="M43.8416 141.94H134.603L133.352 135.687H45.2709L43.8416 141.94Z" fill="#76A665" />
  </g>
  <g id="bk" fill="none" transform="scale(0.2222222222222222 0.2222222222222222)">
    <path d="M138.986 71.7249H38.9342C37.8026 61.0054 35.7182 50.2853 32.681 39.5654C47.6292 45.3422 63.2031 48.707 79.4019 49.6599C79.4019 49.2431 79.4019 48.8262 79.4019 48.4093C79.4019 47.9328 79.4019 47.4266 79.4019 46.8906C79.4019 42.4835 78.7466 37.8383 77.4366 32.9548C77.1384 31.2873 76.9899 29.9473 76.9899 28.9348C76.9899 25.6593 78.1509 22.8305 80.4735 20.4483C82.8557 18.0661 85.7441 16.875 89.1388 16.875C92.4739 16.875 95.3027 18.0661 97.6253 20.4483C100.007 22.8305 101.199 25.6593 101.199 28.9348C101.199 29.9473 101.05 31.2873 100.752 32.9548C99.4421 37.8383 98.7868 42.4835 98.7868 46.8906C98.7868 48.1413 98.8166 49.0644 98.8762 49.6599C115.015 48.707 130.589 45.3422 145.597 39.5654C142.321 50.6426 140.118 61.3626 138.986 71.7249ZM138.629 77.7105C138.212 83.6657 138.004 88.7872 138.004 93.0752C138.004 94.5045 138.063 95.5468 138.182 96.2021H40.2742C40.2742 95.7257 40.2444 95.2194 40.1848 94.6834C40.1848 94.1473 40.1848 93.6112 40.1848 93.0752C40.1848 87.5964 39.9764 82.4749 39.5596 77.7105H138.629ZM138.361 102.277C138.361 103.349 138.391 104.391 138.45 105.403C138.51 106.415 138.57 107.398 138.629 108.351H39.4702C39.5893 107.398 39.6786 106.415 39.7382 105.403C39.7977 104.391 39.9169 103.349 40.0955 102.277H138.361ZM139.433 114.426C139.969 120.679 140.862 126.754 142.113 132.649L35.8969 132.56C37.3858 126.664 38.4578 120.62 39.1129 114.426H139.433ZM143.274 138.992C144.168 142.684 145.21 146.317 146.401 149.89C147.592 153.464 148.813 156.948 150.064 160.342H89.1388H28.125C30.7454 153.255 32.9787 146.139 34.8249 138.992H143.274Z" fill="#092A35" />
    <path d="M138.986 71.7249H38.9342L39.5595 77.7099H138.629L138.986 71.7249Z" fill="#76A665" />
    <path d="M138.629 108.351H39.4702L39.1129 114.425L139.433 114.426L138.629 108.351Z" fill="#76A665" />
    <path d="M142.113 132.649L35.897 132.56L34.8249 138.992H143.274L142.113 132.649Z" fill="#76A665" />
    <path d="M138.182 96.2021H40.2743L40.0956 102.277H138.361L138.182 96.2021Z" fill="#76A665" />
  </g>
  <g id="bn" fill="none" transform="scale(0.2222222222222222 0.2222222222222222)">
    <path d="M36.51 55.6505C34.6969 54.9912 32.9388 57.0791 31.2356 61.9138C29.3676 66.7485 29.3401 69.5233 31.1532 70.2371C32.9113 70.9515 34.6969 68.8365 36.5099 63.8916C38.1581 59.0017 38.1581 56.2551 36.5099 55.6505H36.51ZM162.352 106.746H62.4696C64.2825 101.801 65.1893 96.3894 65.1893 90.5107C65.1893 83.5329 63.7605 77.1874 60.9036 71.4735C58.8707 72.4624 56.6736 73.1216 54.3108 73.4512C51.344 74.9346 49.7782 77.3522 49.6134 80.7036C49.3936 83.6156 49.9156 85.7582 51.1792 87.1318C52.4429 90.9225 52.8275 95.0979 52.333 99.6581C51.9484 102.955 50.6847 105.729 48.5421 107.982C46.3993 110.18 43.927 111.278 41.125 111.278C40.7954 111.278 40.4932 111.278 40.2185 111.278C39.9987 111.278 39.7515 111.278 39.4768 111.278C35.7408 111.113 32.307 110.399 29.1754 109.136C26.0437 107.817 23.8186 105.922 22.5 103.449V35.7893C25.7415 35.7343 29.0654 36.7233 32.4718 38.7561C32.4718 38.6463 32.4718 38.5364 32.4718 38.4265C32.4718 38.3167 32.4718 38.2067 32.4718 38.0968C32.4718 34.5256 33.0761 31.2292 34.2848 28.2075C34.6145 28.1524 35.6584 28.125 37.4165 28.125C41.8118 28.125 45.7401 29.4161 49.2013 31.9983C52.6626 34.5806 55.0801 37.7946 56.4536 41.6405C69.4744 40.8164 81.864 44.882 93.6214 53.8374C105.379 62.7379 112.658 76.4454 115.46 94.9607C119.196 94.2463 123.015 93.8891 126.915 93.8891C130.816 93.8891 134.745 93.8891 138.7 93.8891C141.063 93.8891 143.508 93.9994 146.035 94.2193C148.617 94.4387 150.98 94.8786 153.122 95.5378C158.122 98.0651 161.198 101.801 162.352 106.746ZM160.869 143.501C159.33 151.413 156.886 157.978 153.534 163.198H39.3119C39.3119 156.604 40.3009 150.039 42.2788 143.501H160.869ZM162.764 112.267C162.929 113.366 162.929 114.437 162.764 115.481C162.82 117.02 162.82 117.926 162.764 118.201H56.2888C57.717 116.223 59.0085 114.245 60.1622 112.267H162.764ZM44.3391 137.65C45.9873 133.53 48.4597 128.914 51.7561 123.805H162.682C162.572 129.079 162.27 133.694 161.776 137.65H44.3391Z" fill="#092A35" />
    <path d="M36.5098 55.6504C34.6967 54.9911 32.9385 57.0791 31.2354 61.9138C29.3674 66.7485 29.3399 69.5233 31.1529 70.2371C32.911 70.9515 34.6966 68.8365 36.5097 63.8916C38.1579 59.0018 38.158 56.2551 36.5098 55.6504Z" fill="#76A665" />
    <path d="M162.352 106.746H62.4696L60.1617 112.267H162.764L162.352 106.746Z" fill="#76A665" />
    <path d="M162.764 118.201H56.2882L51.7558 123.805H162.682L162.764 118.201Z" fill="#76A665" />
    <path d="M42.2785 143.501H160.869L161.775 137.65H44.3388L42.2785 143.501Z" fill="#76A665" />
  </g>
  <g id="bp" fill="none" transform="scale(0.2222222222222222 0.2222222222222222)">
    <path d="M104.769 77.1654H70.2866L73.0564 70.5549C68.4703 66.5646 66.1776 61.3834 66.1776 55.0111C66.1776 49.1747 68.2324 44.1721 72.3414 40.0033C76.5101 35.8344 81.5428 33.75 87.4389 33.75C93.2749 33.75 98.2777 35.8344 102.446 40.0033C106.615 44.1721 108.7 49.1747 108.7 55.0111C108.7 61.1454 106.437 66.3266 101.91 70.5549L104.769 77.1654ZM131.836 141.306L141.038 162.746L33.75 162.656L42.9512 141.306H131.836ZM109.95 89.3149H65.016L67.6963 83.2399H107.449L109.95 89.3149ZM45.5419 134.963L62.5151 95.3893H112.184L129.336 134.874L45.5419 134.963Z" fill="#092A35" />
    <path d="M104.77 77.1654H70.2872L67.6963 83.2398H107.449L104.77 77.1654Z" fill="#76A665" />
    <path d="M109.951 89.3149H65.0166L62.5151 95.3893H112.184L109.951 89.3149Z" fill="#76A665" />
    <path d="M42.9514 141.306H131.837L129.336 134.874L45.5421 134.963L42.9514 141.306Z" fill="#76A665" />
  </g>
  <g id="bq" fill="none" transform="scale(0.2222222222222222 0.2222222222222222)">
    <path d="M126.027 83.3265H52.4175C51.8815 76.716 50.9286 69.5992 49.5589 61.9762H79.0386C78.3833 58.9387 77.877 56.7653 77.5198 55.4548C77.2222 53.7873 77.0732 52.4473 77.0732 51.4348C77.0732 48.1593 78.2347 45.3305 80.5573 42.9483C82.9395 40.5661 85.8279 39.375 89.2226 39.375C92.5577 39.375 95.3865 40.5661 97.7091 42.9483C100.091 45.3305 101.282 48.1593 101.282 51.4348C101.282 52.4473 101.134 53.7873 100.835 55.4548C100.121 58.1946 99.6446 60.3681 99.4061 61.9762H128.886C127.456 69.5992 126.503 76.716 126.027 83.3265ZM52.5068 89.4009H126.027C125.968 90.4731 125.908 91.5154 125.849 92.5279C125.789 93.5404 125.759 94.5225 125.759 95.4754C125.759 98.9297 125.789 101.461 125.849 103.069H52.4176C52.5962 100.687 52.6856 98.1557 52.6856 95.4754C52.6856 92.7956 52.626 90.7706 52.507 89.4009H52.5068ZM126.831 115.307H51.5242C51.8815 112.568 52.09 110.513 52.1495 109.144H126.295C126.355 111.228 126.533 113.282 126.831 115.307ZM50.6309 121.471H127.635C128.291 126.057 129.154 130.583 130.226 135.05H48.2189C48.7549 132.846 49.2015 130.613 49.5589 128.35C49.9162 126.087 50.2736 123.794 50.6309 121.471ZM46.7003 141.392H131.744C133.829 149.075 136.271 156.192 139.07 162.743H89.2226H39.375C42.1145 156.192 44.5562 149.075 46.7003 141.392Z" fill="#092A35" />
    <path d="M126.027 83.3265H52.4171L52.5064 89.4009H126.027V83.3265Z" fill="#76A665" />
    <path d="M125.848 103.069H52.4171L52.149 109.144H126.295L125.848 103.069Z" fill="#76A665" />
    <path d="M126.831 115.307H51.5237L50.6304 121.471H127.635L126.831 115.307Z" fill="#76A665" />
    <path d="M130.226 135.05H48.2185L46.6998 141.392H131.744L130.226 135.05Z" fill="#76A665" />
  </g>
  <g id="br" fill="none" transform="scale(0.2222222222222222 0.2222222222222222)">
    <path d="M124.163 94.6834L134.347 134.258H40.0122L50.5534 94.6834H124.163ZM120.947 82.6234L122.555 88.6089H51.9827L53.68 82.5339L120.947 82.6234ZM136.58 140.6L142.119 161.951H32.2403L38.1362 140.6H136.58ZM91.8248 50.3746C90.8719 48.8857 90.3954 47.1884 90.3954 45.2827C90.3954 43.6151 90.7234 41.9178 91.3781 40.1907L93.7007 35.1881C96.2021 29.7686 99.9242 25.3616 104.867 21.9669C109.87 18.5723 115.468 16.875 121.662 16.875C129.225 16.875 135.836 19.4061 141.494 24.4682C147.151 29.4708 150.605 35.7241 151.856 43.228L157.931 77.4422L126.933 69.1346C126.277 68.9557 125.652 68.8663 125.057 68.8663C121.066 68.8663 119.071 70.8913 119.071 74.9407C119.071 75.4768 119.131 75.8638 119.25 76.1023L119.428 76.4595H55.2878L55.5558 75.834C55.6154 75.5961 55.6452 75.2985 55.6452 74.9407C55.6452 70.8913 53.6203 68.8663 49.5706 68.8663C48.975 68.8663 48.3795 68.9557 47.7839 69.1346L16.875 77.4422L22.8603 43.228C23.9918 35.7241 27.3864 29.4708 33.0442 24.4682C38.7614 19.4061 45.4316 16.875 53.0546 16.875C59.1885 16.875 64.7573 18.5723 69.7596 21.9669C74.7624 25.3616 78.5143 29.7686 81.0158 35.1881L83.3383 40.2801C83.9931 41.888 84.321 43.5556 84.321 45.2827C84.321 47.248 83.8148 48.9453 82.8023 50.3746C81.0754 51.8635 80.2114 53.6203 80.2114 55.6452C80.2114 60.3501 82.5936 62.7024 87.3579 62.7024C92.0633 62.7024 94.4156 60.3501 94.4156 55.6452C94.4156 53.5607 93.5516 51.8039 91.8248 50.3746Z" fill="#092A35" />
    <path d="M53.6801 82.534L120.947 82.6234L119.428 76.4595H55.2879L53.6801 82.534Z" fill="#76A665" />
    <path d="M50.5534 94.6834H124.163L122.555 88.6089H51.9827L50.5534 94.6834Z" fill="#76A665" />
    <path d="M134.347 134.257H40.0122L38.1363 140.6H136.581L134.347 134.257Z" fill="#76A665" />
  </g>
  <g id="wb" fill="none" transform="scale(0.2222222222222222 0.2222222222222222)">
    <path d="M142.107 46.2653C138.296 50.315 134.514 54.3647 130.762 58.4145C127.01 62.4639 123.258 66.5139 119.506 70.5639L139.249 163.29H39.375L58.8493 71.8144L59.0282 47.1586C59.0282 38.8805 61.9757 31.7637 67.8718 25.8082C73.8276 19.8528 81.0039 16.875 89.4009 16.875C97.8576 16.875 104.885 20.0612 110.483 26.4336C110.245 32.5081 111.138 37.7192 113.163 42.0667C114.533 42.7813 118.404 43.5258 124.777 44.3C131.208 45.0742 136.985 45.7293 142.107 46.2653ZM129.243 50.9106C125.849 50.7914 121.739 50.3746 116.916 49.6599C112.151 48.8857 109.322 48.052 108.429 47.1586C105.987 41.084 104.766 35.2774 104.766 29.7388C100.478 25.2127 95.3567 22.9496 89.4009 22.9496C82.6712 22.9496 76.9241 25.3318 72.1597 30.0962C67.3954 34.8605 65.0132 40.548 65.0132 47.1586V65.6505H115.575C117.898 63.2087 120.161 60.7967 122.365 58.4145C124.628 55.9727 126.921 53.4714 129.243 50.9106ZM131.744 157.216L128.261 141.851H50.3629L46.9682 157.216H131.744ZM115.933 83.9632H62.5123L51.4348 135.776H127.01L115.933 83.9632ZM114.592 77.8888L113.253 71.8144H64.9237L63.6733 77.8888H114.592Z" fill="#092A35" />
    <path d="M129.243 50.9106C125.849 50.7914 121.739 50.3746 116.915 49.6599C112.151 48.8857 109.322 48.0519 108.429 47.1586C105.987 41.084 104.766 35.2774 104.766 29.7388C100.478 25.2126 95.3561 22.9496 89.401 22.9496C82.6712 22.9496 76.9241 25.3318 72.1598 30.0961C67.3954 34.8605 65.0132 40.548 65.0132 47.1586V65.6505H115.575C117.898 63.2087 120.161 60.7967 122.365 58.4145C124.628 55.9727 126.92 53.4714 129.243 50.9106ZM131.744 157.216L128.261 141.851H50.3627L46.9681 157.216H131.744ZM115.932 83.9632H62.5118L51.4347 135.776H127.01L115.932 83.9632ZM114.593 77.8888L113.253 71.8144H64.9238L63.6733 77.8888H114.593Z" fill="#FFDD5C" />
  </g>
  <g id="wk" fill="none" transform="scale(0.2222222222222222 0.2222222222222222)">
    <path d="M89.1388 160.342H28.125C36.1649 138.903 40.1848 116.48 40.1848 93.0752C40.1848 74.7326 37.6836 56.8958 32.681 39.5654C47.6292 45.3422 63.2031 48.707 79.4019 49.6599C79.4019 49.2431 79.4019 48.8262 79.4019 48.4093C79.4019 47.9328 79.4019 47.4266 79.4019 46.8906C79.4019 42.4835 78.7466 37.8383 77.4366 32.9548C77.1384 31.2873 76.9899 29.9473 76.9899 28.9348C76.9899 25.6593 78.1509 22.8305 80.4735 20.4483C82.8557 18.0661 85.7441 16.875 89.1388 16.875C92.4739 16.875 95.3027 18.0661 97.6253 20.4483C100.007 22.8305 101.199 25.6593 101.199 28.9348C101.199 29.9473 101.05 31.2873 100.752 32.9548C99.4421 37.8383 98.7868 42.4835 98.7868 46.8906C98.7868 48.1413 98.8166 49.0644 98.8762 49.6599C115.015 48.707 130.589 45.3422 145.597 39.5654C140.534 57.0746 138.004 74.9109 138.004 93.0752C138.004 116.242 142.023 138.665 150.064 160.342H89.1388ZM132.823 71.7249C133.597 63.9231 134.847 56.2702 136.574 48.7666C122.46 52.995 108.018 55.3176 93.2484 55.7345C92.9503 52.1017 92.8012 49.1537 92.8012 46.8906C92.8012 42.6027 93.4268 37.6894 94.6778 32.1508C95.0349 30.2451 95.2132 29.1731 95.2132 28.9348C95.2132 24.8851 93.1888 22.8603 89.1388 22.8603C85.0894 22.8603 83.0644 24.8851 83.0644 28.9348C83.0644 29.6495 83.2432 30.7215 83.6004 32.1508C84.8509 37.6894 85.4764 42.6027 85.4764 46.8906C85.4764 47.7839 85.4167 49.0942 85.2975 50.8213C85.1782 52.4888 85.1192 54.1265 85.1192 55.7345C70.2304 55.3176 55.7287 52.995 41.6141 48.7666C43.4008 56.7467 44.6812 64.3995 45.4555 71.7249H132.823ZM46.2594 77.7105C46.4381 80.271 46.5274 82.8619 46.5274 85.482C46.587 88.0431 46.6167 90.5743 46.6167 93.0752C46.6167 93.6112 46.6167 94.1473 46.6167 94.6834C46.6167 95.2194 46.6167 95.7257 46.6167 96.2021H131.75C131.691 95.4872 131.661 94.4449 131.661 93.0752C131.661 87.5964 131.87 82.4749 132.286 77.7105H46.2594ZM131.929 102.366L46.4381 102.277C46.319 104.421 46.1404 106.445 45.9021 108.351H132.376C132.078 106.207 131.929 104.212 131.929 102.366ZM45.4555 114.426C44.8599 120.084 43.8475 126.158 42.4182 132.649H135.681C134.49 127.408 133.507 121.334 132.733 114.426H45.4555ZM137.111 138.992H41.3462C40.7506 141.553 40.0657 144.084 39.2915 146.585C38.5173 149.087 37.7729 151.558 37.0582 154H89.1388H141.22C139.731 149.653 138.361 144.65 137.111 138.992Z" fill="#092A35" />
    <path d="M132.823 71.7249C133.597 63.9236 134.847 56.2708 136.574 48.7667C122.46 52.995 108.018 55.3177 93.2485 55.7346C92.9503 52.1017 92.8018 49.1538 92.8018 46.8907C92.8018 42.6027 93.4268 37.6895 94.6778 32.1509C95.035 30.2451 95.2138 29.1731 95.2138 28.9349C95.2138 24.8852 93.1888 22.8603 89.1388 22.8603C85.0894 22.8603 83.0644 24.8852 83.0644 28.9349C83.0644 29.6495 83.2433 30.7215 83.6005 32.1509C84.8509 37.6895 85.4764 42.6027 85.4764 46.8907C85.4764 47.784 85.4168 49.0942 85.2975 50.8213C85.1788 52.4888 85.1192 54.1266 85.1192 55.7346C70.2304 55.3177 55.7287 52.995 41.6142 48.7667C43.4009 56.7472 44.6813 64.4 45.4555 71.7249H132.823ZM46.2595 77.7105C46.4382 80.271 46.5275 82.8619 46.5275 85.482C46.5871 88.043 46.6168 90.5743 46.6168 93.0752C46.6168 93.6112 46.6168 94.1473 46.6168 94.6834C46.6168 95.2194 46.6168 95.7257 46.6168 96.2021H131.75C131.691 95.4872 131.661 94.4454 131.661 93.0752C131.661 87.5964 131.87 82.4749 132.287 77.7105H46.2595ZM131.929 102.366L46.4382 102.277C46.319 104.421 46.1404 106.445 45.9022 108.351H132.376C132.078 106.207 131.929 104.212 131.929 102.366ZM45.4555 114.426C44.86 120.084 43.8475 126.158 42.4182 132.65H135.681C134.49 127.408 133.507 121.334 132.733 114.426H45.4555ZM137.111 138.992H41.3463C40.7507 141.553 40.0658 144.084 39.2916 146.585C38.5174 149.087 37.773 151.558 37.0583 154H89.1388H141.22C139.731 149.653 138.361 144.65 137.111 138.992Z" fill="#FFDD5C" />
  </g>
  <g id="wn" fill="none" transform="scale(0.2222222222222222 0.2222222222222222)">
    <path d="M155.347 143.501H48.7069C47.0037 148.611 45.9873 153.226 45.6576 157.346H150.32C152.408 153.336 154.084 148.72 155.347 143.501ZM156.501 137.65C157.051 133.694 157.435 129.079 157.655 123.805H59.4202C55.4646 128.805 52.5802 133.419 50.7671 137.65H156.501ZM157.49 118.201C157.435 117.212 157.408 116.223 157.408 115.234C157.408 114.245 157.408 113.256 157.408 112.267H66.5899C66.0954 113.256 65.5464 114.272 64.9418 115.316C64.3928 116.36 63.8977 117.322 63.4584 118.201H157.49ZM37.911 56.5571C39.3394 57.1612 39.3394 59.5789 37.911 63.8094C36.2627 68.0394 34.7244 69.8529 33.2959 69.2482C31.7026 68.7538 31.7026 66.3637 33.2959 62.0786C34.7244 57.9032 36.2627 56.0625 37.911 56.5571ZM156.748 106.746C155.924 104.603 154.331 102.68 151.968 100.977C150.1 100.317 147.985 99.9056 145.623 99.7408C143.26 99.5209 140.953 99.4112 138.7 99.4112C133.921 99.4112 129.14 99.4112 124.361 99.4112C119.636 99.3561 115.158 99.9878 110.928 101.306C110.598 99.3836 110.351 98.01 110.186 97.1859C107.219 78.7258 100.132 65.2928 88.9239 56.8868C77.7707 48.4806 65.574 45.4863 52.333 47.9037C52.0583 44.2776 50.6023 41.1185 47.9652 38.4265C45.3829 35.6794 42.2238 34.1411 38.4878 33.8114C38.1582 35.2398 37.9934 36.6683 37.9934 38.0968C37.9934 40.4043 38.4329 42.7393 39.3119 45.1018C39.4768 45.4314 39.5592 45.8435 39.5592 46.338C39.5592 48.4806 38.5702 49.552 36.5924 49.552C35.3287 49.552 34.5321 49.0026 34.2024 47.9037C32.4993 45.3215 30.4939 43.6184 28.1864 42.7943V99.9056C29.0654 103.312 32.9388 105.207 39.8064 105.592C39.9713 105.592 40.1635 105.592 40.3833 105.592C40.658 105.592 40.9602 105.592 41.2898 105.592C44.7511 104.768 46.7839 102.735 47.3883 99.4933C47.663 97.9003 47.6905 96.2792 47.4707 94.6311C47.3059 92.9278 47.0861 91.5272 46.8115 90.4281C44.7787 87.1864 43.8446 83.8626 44.0094 80.4561C44.3391 74.358 47.3059 70.2371 52.9099 68.0946C57.1404 67.545 60.4091 65.8969 62.7171 63.1496C68.1013 70.7867 70.7934 79.9071 70.7934 90.5107C70.7934 93.3126 70.6832 96.0868 70.4638 98.8341C70.2439 101.526 69.7219 104.163 68.8978 106.746H156.748ZM153.534 163.198H39.3119C39.3119 154.682 40.8228 146.605 43.8446 138.968C46.8663 131.277 51.0144 124.382 56.2888 118.283C62.2226 109.822 65.1893 100.565 65.1893 90.5107C65.1893 83.5329 63.7605 77.1874 60.9036 71.4735C58.8707 72.4624 56.6736 73.1216 54.3108 73.4512C51.344 74.9346 49.7782 77.3522 49.6134 80.7036C49.3936 83.6156 49.9156 85.7582 51.1792 87.1318C52.4429 90.9225 52.8275 95.0979 52.333 99.6581C51.9484 102.955 50.6847 105.729 48.5421 107.982C46.3993 110.179 43.927 111.278 41.125 111.278C40.7954 111.278 40.4932 111.278 40.2185 111.278C39.9987 111.278 39.7515 111.278 39.4768 111.278C35.7408 111.113 32.307 110.399 29.1754 109.136C26.0437 107.817 23.8186 105.922 22.5 103.449V35.7893C25.7415 35.7343 29.0654 36.7233 32.4718 38.7561C32.4718 38.6462 32.4718 38.5363 32.4718 38.4265C32.4718 38.3165 32.4718 38.2067 32.4718 38.0968C32.4718 34.5256 33.0761 31.2292 34.2848 28.2074C34.6145 28.1524 35.6584 28.125 37.4165 28.125C41.8118 28.125 45.7401 29.4161 49.2013 31.9983C52.6626 34.5806 55.0801 37.7946 56.4536 41.6405C69.4744 40.8164 81.864 44.882 93.6214 53.8374C105.379 62.7379 112.658 76.4454 115.46 94.9607C119.196 94.2463 123.015 93.8891 126.915 93.8891C130.816 93.8891 134.745 93.8891 138.7 93.8891C141.063 93.8891 143.508 93.9994 146.035 94.2193C148.617 94.4387 150.98 94.8786 153.122 95.5378C159.66 98.8341 162.929 103.861 162.929 110.619C162.929 111.443 162.929 112.267 162.929 113.091C162.984 113.861 162.929 114.657 162.764 115.481C162.764 115.481 162.764 116.113 162.764 117.377C162.764 125.783 162.298 133.886 161.363 141.688C160.43 149.435 157.82 156.604 153.534 163.198Z" fill="#092A35" />
    <path d="M155.347 143.501H48.7069C47.0037 148.611 45.9873 153.226 45.6577 157.346H150.32C152.408 153.336 154.084 148.72 155.347 143.501ZM156.501 137.65C157.051 133.694 157.435 129.079 157.655 123.805H59.4202C55.4647 128.805 52.5802 133.419 50.7672 137.65H156.501ZM157.49 118.201C157.435 117.212 157.408 116.223 157.408 115.234C157.408 114.245 157.408 113.256 157.408 112.267H66.5904C66.0954 113.256 65.5464 114.272 64.9417 115.316C64.3927 116.36 63.8983 117.322 63.4584 118.201H157.49ZM37.911 56.5571C39.3395 57.1613 39.3395 59.5789 37.911 63.8094C36.2628 68.0394 34.7244 69.8529 33.2959 69.2482C31.7026 68.7538 31.7026 66.3637 33.2959 62.0786C34.7244 57.9032 36.2628 56.0625 37.911 56.5571ZM156.748 106.746C155.924 104.603 154.331 102.68 151.968 100.977C150.1 100.317 147.985 99.9056 145.623 99.7408C143.26 99.5209 140.953 99.4112 138.7 99.4112C133.921 99.4112 129.14 99.4112 124.361 99.4112C119.636 99.3561 115.158 99.9878 110.928 101.306C110.598 99.3836 110.351 98.01 110.186 97.1859C107.219 78.7258 100.132 65.2928 88.9239 56.8868C77.7707 48.4806 65.574 45.4863 52.333 47.9037C52.0583 44.2776 50.6024 41.1185 47.9652 38.4264C45.383 35.6794 42.2239 34.141 38.4879 33.8114C38.1582 35.2398 37.9934 36.6683 37.9934 38.0968C37.9934 40.4043 38.433 42.7393 39.312 45.1018C39.4768 45.4314 39.5592 45.8435 39.5592 46.3379C39.5592 48.4806 38.5703 49.552 36.5924 49.552C35.3287 49.552 34.5321 49.0026 34.2025 47.9037C32.4993 45.3215 30.4939 43.6183 28.1865 42.7942V99.9056C29.0655 103.312 32.9389 105.207 39.8065 105.592C39.9713 105.592 40.1636 105.592 40.3833 105.592C40.658 105.592 40.9602 105.592 41.2898 105.592C44.7512 104.768 46.784 102.735 47.3883 99.4933C47.663 97.9003 47.6905 96.2792 47.4708 94.6311C47.3059 92.9278 47.0862 91.5266 46.8115 90.4281C44.7787 87.1864 43.8447 83.8626 44.0095 80.4561C44.3392 74.358 47.306 70.2371 52.91 68.0946C57.1404 67.545 60.4097 65.8969 62.717 63.1496C68.1013 70.7867 70.7934 79.9071 70.7934 90.5107C70.7934 93.3126 70.6832 96.0868 70.4638 98.8341C70.2439 101.526 69.7219 104.163 68.8978 106.746H156.748Z" fill="#FFDD5C" />
  </g>
  <g id="wp" fill="none" transform="scale(0.2222222222222222 0.2222222222222222)">
    <path fill-rule="evenodd" clip-rule="evenodd" d="M87.4389 33.75C93.2749 33.75 98.2777 35.8344 102.446 40.0033C106.615 44.1721 108.7 49.1747 108.7 55.0111C108.7 61.3237 106.407 66.5049 101.821 70.5549L141.038 162.656H87.4389H33.75L73.0564 70.5549C68.4703 66.5646 66.1776 61.3834 66.1776 55.0111C66.1776 49.1747 68.2324 44.1721 72.3414 40.0033C76.5101 35.8344 81.5428 33.75 87.4389 33.75ZM131.748 156.314H87.4389H43.1299L49.4725 141.306H87.4389H125.405L131.748 156.314ZM104.858 134.874H87.4389H69.9294H52.3311L60.5497 115.221C63.2891 108.61 66.0583 102 68.8573 95.3893H78.0587H87.4389H96.6398H106.02C108.7 102 111.409 108.61 114.149 115.221C116.948 121.772 119.717 128.323 122.457 134.874H104.858ZM95.2999 89.3149H87.4389H79.488H71.5376C71.9544 88.3024 72.3712 87.3197 72.7881 86.3668C73.2645 85.3543 73.7409 84.312 74.2174 83.2399H80.8279H87.4389H93.96H100.57C100.987 84.312 101.404 85.3543 101.821 86.3668C102.297 87.3197 102.774 88.3024 103.25 89.3149H95.2999ZM98.2479 77.1654H87.4389H76.6294L80.2918 68.5001C74.8727 65.6415 72.1631 61.1454 72.1631 55.0111C72.1631 50.8422 73.6515 47.269 76.6294 44.2912C79.6073 41.2539 83.2101 39.7353 87.4389 39.7353C91.6076 39.7353 95.1806 41.2539 98.1585 44.2912C101.136 47.269 102.625 50.8422 102.625 55.0111C102.625 61.1454 99.9152 65.6415 94.4961 68.5001L98.2479 77.1654Z" fill="#092A35" />
    <path d="M87.4389 134.874H104.858H122.457C119.717 128.323 116.948 121.772 114.149 115.221C111.409 108.61 108.7 102 106.02 95.3893H96.6397H87.4389H78.0587H68.8579C66.0583 102 63.2891 108.61 60.5497 115.221L52.3311 134.874H69.9294H87.4389Z" fill="#FFDD5C" />
    <path d="M87.439 156.314H131.748L125.405 141.306H87.439H49.4725L43.1299 156.314H87.439Z" fill="#FFDD5C" />
    <path d="M87.439 89.3149H95.2999H103.25C102.774 88.3024 102.297 87.3197 101.821 86.3668C101.404 85.3543 100.987 84.312 100.571 83.2399H93.96H87.439H80.8279H74.2174C73.741 84.312 73.2645 85.3543 72.7881 86.3668C72.3713 87.3197 71.9545 88.3024 71.5377 89.3149H79.488H87.439Z" fill="#FFDD5C" />
    <path d="M87.439 77.1654H98.248L94.4961 68.5001C99.9152 65.6415 102.625 61.1454 102.625 55.0111C102.625 50.8423 101.136 47.269 98.1585 44.2912C95.1806 41.254 91.6076 39.7353 87.439 39.7353C83.2101 39.7353 79.6073 41.254 76.6294 44.2912C73.6515 47.269 72.1631 50.8423 72.1631 55.0111C72.1631 61.1454 74.8727 65.6415 80.2924 68.5001L76.6294 77.1654H87.439Z" fill="#FFDD5C" />
  </g>
  <g id="wq" fill="none" transform="scale(0.2222222222222222 0.2222222222222222)">
    <path d="M89.2226 156.4H129.958C128.231 151.517 126.712 146.514 125.402 141.392H53.2215C52.5068 144.013 51.7326 146.573 50.8989 149.075C50.0651 151.576 49.2313 154.018 48.3976 156.4H89.2226ZM54.6508 135.05H124.151C123.616 132.846 123.109 130.613 122.633 128.35C122.156 126.087 121.769 123.794 121.471 121.471H57.1523C56.3186 126.653 55.4846 131.179 54.6508 135.05ZM57.7772 115.307L120.756 115.397C120.518 114.027 120.369 111.943 120.31 109.144H58.2244C58.1647 110.513 58.0157 112.568 57.7772 115.307ZM119.863 103.069C119.744 101.401 119.685 98.8701 119.685 95.4754C119.685 92.7956 119.715 90.7706 119.774 89.4009H58.5816C58.7008 92.1403 58.7599 94.1653 58.7599 95.4754C58.7599 97.2028 58.7008 99.7341 58.5816 103.069H119.863ZM99.4061 61.9762H128.886C126.802 72.9939 125.759 84.1601 125.759 95.4754C125.759 119.059 130.196 141.482 139.07 162.743H89.2226H39.375C48.2487 141.244 52.6855 118.821 52.6855 95.4754C52.6855 84.1601 51.6433 72.9939 49.5589 61.9762H79.0386C78.3833 58.9387 77.877 56.7653 77.5198 55.4548C77.2222 53.7873 77.0732 52.4473 77.0732 51.4348C77.0732 48.1593 78.2347 45.3305 80.5573 42.9483C82.9395 40.5661 85.8279 39.375 89.2226 39.375C92.5577 39.375 95.3865 40.5661 97.7091 42.9483C100.091 45.3305 101.282 48.1593 101.282 51.4348C101.282 52.4473 101.134 53.7873 100.835 55.4548C100.121 58.1946 99.6446 60.3681 99.4061 61.9762ZM92.8851 68.0507C92.9447 64.2392 93.5702 59.7724 94.761 54.6508C95.1182 52.8641 95.2971 51.7922 95.2971 51.4348C95.2971 47.4447 93.2721 45.4496 89.2226 45.4496C85.1726 45.4496 83.1476 47.4447 83.1476 51.4348C83.1476 52.2686 83.3265 53.3406 83.6837 54.6508C84.7558 59.3556 85.3813 63.8224 85.5596 68.0507H56.6162C57.3902 73.053 57.9262 78.1453 58.2244 83.3265H120.31C120.489 80.7654 120.667 78.2049 120.846 75.6439C121.084 73.0828 121.382 70.5521 121.739 68.0507H92.8851Z" fill="#092A35" />
    <path d="M89.2221 156.4H129.958C128.23 151.517 126.712 146.514 125.402 141.392H53.2213C52.5066 144.013 51.7324 146.573 50.8987 149.075C50.0649 151.576 49.2311 154.018 48.3973 156.4H89.2221ZM54.6506 135.05H124.151C123.615 132.846 123.109 130.613 122.632 128.35C122.156 126.087 121.769 123.794 121.471 121.471H57.1517C56.3181 126.652 55.4844 131.179 54.6506 135.05ZM57.7772 115.307L120.756 115.397C120.518 114.027 120.369 111.943 120.31 109.144H58.2238C58.1642 110.513 58.0157 112.568 57.7772 115.307ZM119.863 103.069C119.744 101.401 119.685 98.87 119.685 95.4754C119.685 92.7956 119.715 90.7706 119.774 89.4009H58.5816C58.7003 92.1403 58.7599 94.1653 58.7599 95.4754C58.7599 97.2028 58.7003 99.734 58.5816 103.069H119.863ZM92.8851 68.0507C92.9441 64.2392 93.5696 59.7724 94.761 54.6508C95.1182 52.8641 95.2965 51.7922 95.2965 51.4348C95.2965 47.4447 93.2721 45.4496 89.2221 45.4496C85.1726 45.4496 83.1476 47.4447 83.1476 51.4348C83.1476 52.2686 83.3265 53.3406 83.6837 54.6508C84.7558 59.3555 85.3808 63.8224 85.5596 68.0507H56.6162C57.3902 73.053 57.9263 78.1453 58.2238 83.3265H120.31C120.489 80.7654 120.667 78.2049 120.846 75.6439C121.084 73.0828 121.382 70.5521 121.739 68.0507H92.8851Z" fill="#FFDD5C" />
  </g>
  <g id="wr" fill="none" transform="scale(0.2222222222222222 0.2222222222222222)">
    <path d="M113.086 76.4595C113.026 76.1023 112.996 75.5961 112.996 74.9407C112.996 71.6057 114.158 68.7471 116.48 66.3649C118.862 63.9827 121.721 62.7919 125.056 62.7919C125.652 62.7919 126.605 62.8515 127.915 62.9702L149.89 68.7769L145.067 40.816C143.637 35.6348 140.749 31.3766 136.401 28.0415C132.113 24.6469 127.2 22.9496 121.661 22.9496C111.835 22.9496 104.629 27.3566 100.043 36.1708L96.9165 42.8707C96.5593 43.7044 96.3804 44.5084 96.3804 45.2827C96.3804 46.4142 96.7376 47.5755 97.4526 48.7666C98.7626 50.9701 99.4179 53.263 99.4179 55.6452C99.4179 58.9804 98.2266 61.839 95.8444 64.2212C93.5218 66.6034 90.693 67.7942 87.3579 67.7942C83.9633 67.7942 81.0748 66.6034 78.6926 64.2212C76.3701 61.839 75.2091 58.9804 75.2091 55.6452C75.2091 53.3225 75.8936 51.0297 77.2633 48.7666C77.9186 47.6946 78.246 46.5333 78.246 45.2827C78.246 44.5084 78.0677 43.7044 77.7099 42.8707L74.5836 36.1708C70.0571 27.3566 62.8807 22.9496 53.0544 22.9496C47.4563 22.9496 42.5132 24.6469 38.2253 28.0415C33.9374 31.3766 31.0787 35.6348 29.6494 40.816L24.8255 68.7769L46.7119 63.0596C47.7838 62.8813 48.7367 62.7919 49.5705 62.7919C52.9055 62.7919 55.7642 63.9827 58.1462 66.3649C60.5284 68.7471 61.7197 71.6057 61.7197 74.9407C61.7197 75.2389 61.7197 75.5066 61.7197 75.7451C61.7794 75.9831 61.8092 76.2216 61.8092 76.4595H113.086ZM116.212 88.6089L114.515 82.5339H60.0221L58.5928 88.6089H116.212ZM128.272 134.258L117.82 94.6834H56.9852L46.3546 134.258H128.272ZM133.99 155.608L130.059 140.6H44.8359L40.816 155.608H133.99ZM32.2401 161.951L55.5558 75.834C55.6154 75.5961 55.6452 75.2985 55.6452 74.9407C55.6452 70.8913 53.6203 68.8663 49.5706 68.8663C48.975 68.8663 48.3795 68.9557 47.7839 69.1346L16.875 77.4422L22.8603 43.228C23.9918 35.7241 27.3864 29.4708 33.0441 24.4682C38.7614 19.4061 45.4315 16.875 53.0546 16.875C59.1885 16.875 64.7573 18.5723 69.7596 21.9669C74.7624 25.3616 78.5143 29.7686 81.0157 35.1881L83.3383 40.2801C83.9931 41.888 84.321 43.5556 84.321 45.2827C84.321 47.4266 83.7551 49.5706 82.6234 51.7146C81.7301 53.0248 81.2835 54.335 81.2835 55.6452C81.2835 59.6947 83.3085 61.7197 87.3579 61.7197C91.4079 61.7197 93.4329 59.6947 93.4329 55.6452C93.4329 54.335 92.9863 53.0248 92.0925 51.7146C90.9613 49.5706 90.3954 47.4266 90.3954 45.2827C90.3954 43.6151 90.7228 41.9178 91.3781 40.1907L93.7007 35.1881C96.2021 29.7686 99.9242 25.3616 104.867 21.9669C109.87 18.5723 115.468 16.875 121.661 16.875C129.225 16.875 135.836 19.4061 141.493 24.4682C147.151 29.4708 150.605 35.7241 151.856 43.228L157.93 77.4422L126.932 69.1346C126.277 68.9557 125.652 68.8663 125.056 68.8663C121.066 68.8663 119.071 70.8913 119.071 74.9407C119.071 75.4768 119.131 75.8638 119.249 76.1023L142.118 161.951H32.2401Z" fill="#092A35" />
    <path d="M113.086 76.4595C113.026 76.1023 112.996 75.596 112.996 74.9407C112.996 71.6057 114.157 68.747 116.48 66.3648C118.862 63.9827 121.721 62.7919 125.056 62.7919C125.651 62.7919 126.604 62.8515 127.915 62.9702L149.89 68.7768L145.066 40.816C143.637 35.6347 140.749 31.3766 136.401 28.0415C132.113 24.6469 127.2 22.9496 121.661 22.9496C111.835 22.9496 104.628 27.3566 100.043 36.1707L96.9159 42.8706C96.5587 43.7044 96.3804 44.5084 96.3804 45.2826C96.3804 46.4142 96.7376 47.5755 97.452 48.7666C98.7626 50.9701 99.4174 53.2629 99.4174 55.6451C99.4174 58.9804 98.2266 61.839 95.8444 64.2212C93.5218 66.6034 90.693 67.7942 87.3579 67.7942C83.9632 67.7942 81.0748 66.6034 78.6926 64.2212C76.3701 61.839 75.2085 58.9804 75.2085 55.6451C75.2085 53.3225 75.8936 51.0296 77.2633 48.7666C77.9181 47.6946 78.246 46.5332 78.246 45.2826C78.246 44.5084 78.0671 43.7044 77.7099 42.8706L74.583 36.1707C70.0571 27.3566 62.8808 22.9496 53.0542 22.9496C47.456 22.9496 42.5129 24.6469 38.225 28.0415C33.937 31.3766 31.0784 35.6347 29.6491 40.816L24.8251 68.7768L46.7115 63.0596C47.7835 62.8813 48.7364 62.7919 49.5701 62.7919C52.9052 62.7919 55.7638 63.9827 58.1462 66.3648C60.5284 68.747 61.7192 71.6057 61.7192 74.9407C61.7192 75.2389 61.7192 75.5066 61.7192 75.7451C61.7788 75.983 61.8086 76.2215 61.8086 76.4595H113.086ZM116.212 88.6089L114.515 82.5339H60.0221L58.5928 88.6089H116.212ZM128.272 134.257L117.82 94.6834H56.9846L46.3542 134.257H128.272ZM133.989 155.608L130.058 140.6H44.8356L40.8157 155.608H133.989Z" fill="#FFDD5C" />
  </g>
</svg>