<svg xmlns="http://www.w3.org/2000/svg" width="40" height="40" viewbox="0.0 0.0 512.0 512.0">
  <g id="bb" fill="none" transform="scale(0.078125 0.078125)">
    <path d="M192 341.25C191.167 347.75 189 354.583 185.5 361.75H326.5C323.5 355.75 321.333 348.917 320 341.25H192ZM315.75 323L327.25 304.75C303.583 296.583 279.833 292.667 256 293C232 292.667 208.25 296.583 184.75 304.75L196.25 323C215.917 316.333 235.833 313.167 256 313.5C276 313.167 295.917 316.333 315.75 323ZM207.75 379.75H156C167.167 360.417 173.167 341.333 174 322.5C155 302.667 141.5 284.042 133.5 266.625C125.5 249.208 125 230.583 132 210.75C137.5 194.75 147.333 178.958 161.5 163.375C175.667 147.792 201.667 127.25 239.5 101.75C236.667 99.9167 232.833 96.9167 228 92.75C223.167 88.5833 220.75 82 220.75 73C220.75 63.3333 224.167 55.3333 231 49C237.833 42.6667 246.167 39.5 256 39.5C265.667 39.5 273.958 42.6667 280.875 49C287.792 55.3333 291.25 63.3333 291.25 73C291.25 82 288.792 88.5833 283.875 92.75C278.958 96.9167 275.167 99.9167 272.5 101.75C310.167 127.25 336.083 147.792 350.25 163.375C364.417 178.958 374.333 194.75 380 210.75C387 230.583 386.5 249.208 378.5 266.625C370.5 284.042 357 302.667 338 322.5C338.667 341.333 344.667 360.417 356 379.75H304.25C303.917 379.083 304.75 380.417 306.75 383.75C312.25 392.583 318.083 397.583 324.25 398.75C330.417 399.917 337.833 400.5 346.5 400.5H409C421.667 400.5 433.458 405.667 444.375 416C455.292 426.333 460.75 441.25 460.75 460.75H337C316.5 460.75 297.875 453.708 281.125 439.625C264.375 425.542 256 409 256 390C256 409 247.583 425.542 230.75 439.625C213.917 453.708 195.333 460.75 175 460.75H51.25C51.25 441.25 56.6667 426.333 67.5 416C78.3333 405.667 90.1667 400.5 103 400.5H165.5C174 400.5 181.333 399.917 187.5 398.75C193.667 397.583 199.583 392.583 205.25 383.75C207.25 380.417 208.083 379.083 207.75 379.75ZM244.25 204.5H220.5V226.75H244.25V268H267.75V226.75H291.5V204.5H267.75V178.5H244.25V204.5Z" fill="#170C2D" />
    <path d="M190.385 351.674L193.599 341.912H318.401L321.615 351.674L324.829 361.437H187.171L190.385 351.674ZM191.269 312.737L186.856 305.257L198.106 301.99C219.272 295.843 241.209 293.591 266.847 294.932C280.569 295.65 295.213 297.177 299.39 298.326C303.566 299.474 311.084 301.477 316.097 302.777L325.212 305.141L320.765 312.679C315.683 321.292 314.937 321.427 297.868 316.825C280.688 312.194 231.311 312.194 214.131 316.825C197.074 321.424 196.315 321.288 191.269 312.737ZM245.152 245.369V224.759H221.288V205.234H245.153V179.2H266.847V205.234H290.712V224.759H266.847V265.979H245.152V245.369Z" fill="#E4D2A3" />
  </g>
  <g id="bk" fill="none" transform="scale(0.078125 0.078125)">
    <path d="M256 442.25H378.25L375.25 424H136.75L133.75 442.25H256ZM256 212C251.833 202 246.667 192.75 240.5 184.25C245.667 176.25 250.833 170.833 256 168C261 170.833 266.167 176.25 271.5 184.25C265.167 192.75 260 202 256 212ZM231.75 325.5C206.083 327.333 180.833 332.167 156 340C135.5 322 118.833 304.208 106 286.625C93.1667 269.042 86.75 252.25 86.75 236.25C86.75 221.417 92.875 208.167 105.125 196.5C117.375 184.833 129.75 179 142.25 179C153.417 179 164.625 184.208 175.875 194.625C187.125 205.042 195.667 215.917 201.5 227.25C206.5 236.25 212.75 250.833 220.25 271C227.75 291.167 231.583 309.333 231.75 325.5ZM144.25 379.75L137.75 418.75L174 397.75L144.25 379.75ZM256 153C248.167 153 236.833 163.083 222 183.25C216.833 177.25 212.667 172.667 209.5 169.5C225 146.167 240.5 134.5 256 134.5C271.333 134.5 286.833 146.167 302.5 169.5C299.167 172.667 295 177.25 290 183.25C275 163.083 263.667 153 256 153ZM256 346.75C255.833 325.75 252.333 303.458 245.5 279.875C238.667 256.292 231.667 237.417 224.5 223.25C223.167 220.917 222 218.667 221 216.5C220 214.333 219 212.417 218 210.75C213.333 203.583 209.333 197.833 206 193.5C197.5 183 187.5 174.25 176 167.25C164.5 160.25 153.333 156.75 142.5 156.75C125.333 156.75 108 164.5 90.5 180C73 195.5 64.25 214.583 64.25 237.25C64.25 257.25 72.5 278.458 89 300.875C105.5 323.292 126.25 344.917 151.25 365.75C184.75 353.417 219.667 347.083 256 346.75ZM256 460.75H112L127.25 369.5C73.0833 322.833 45.9167 278.25 45.75 235.75C45.5833 209.25 56 186.375 77 167.125C98 147.875 120.25 138.25 143.75 138.25C156.75 138.25 169.958 142.167 183.375 150C196.792 157.833 208.667 167.75 219 179.75C229.167 192.083 237.375 205.792 243.625 220.875C249.875 235.958 254 248.5 256 258.5C258 248.5 262.083 235.958 268.25 220.875C274.417 205.792 282.667 192.083 293 179.75C303.167 167.75 315 157.833 328.5 150C342 142.167 355.25 138.25 368.25 138.25C391.583 138.25 413.75 147.875 434.75 167.125C455.75 186.375 466.25 209.25 466.25 235.75C465.917 278.25 438.75 322.833 384.75 369.5L400 460.75H256ZM280.25 325.5C280.25 309.333 284 291.167 291.5 271C299 250.833 305.333 236.25 310.5 227.25C316.167 215.917 324.625 205.042 335.875 194.625C347.125 184.208 358.417 179 369.75 179C382.083 179 394.375 184.833 406.625 196.5C418.875 208.167 425.083 221.417 425.25 236.25C425.25 252.25 418.833 269.042 406 286.625C393.167 304.208 376.5 322 356 340C331 332.167 305.75 327.333 280.25 325.5ZM367.75 379.75L338 397.75L374.25 418.75L367.75 379.75ZM256 346.75C292.167 347.083 327.083 353.417 360.75 365.75C385.75 344.917 406.5 323.292 423 300.875C439.5 278.458 447.75 257.25 447.75 237.25C447.75 214.583 438.958 195.5 421.375 180C403.792 164.5 386.5 156.75 369.5 156.75C358.5 156.75 347.25 160.25 335.75 167.25C324.25 174.25 314.333 183 306 193.5C302.5 197.833 298.5 203.583 294 210.75C293 212.417 291.958 214.333 290.875 216.5L287.5 223.25C280.167 237.417 273.083 256.292 266.25 279.875C259.417 303.458 256 325.75 256 346.75ZM221.25 386.5L256 408L290.75 387L256 365.5L221.25 386.5ZM244.25 74.5V50.75H267.75V74.5H294.5V98.25H267.75V136.5C259.75 133.833 251.917 133.833 244.25 136.5V98.25H217.5V74.5H244.25Z" fill="#170C2D" />
    <path d="M350.373 361.256C330.657 354.263 280.161 345.383 260.109 345.383C256.716 345.383 258.017 322.149 262.592 301.031C274.227 247.327 296.21 201.616 320.462 180.696C346.534 158.207 371.068 153.123 395.932 165.059C421.359 177.265 438.146 196.678 444.085 220.743C447.073 232.851 447.212 237.202 444.993 249.242C439.981 276.442 424.648 300.581 389.684 336.318C362.185 364.424 361.152 365.079 350.373 361.256ZM381.077 316.341C414.768 280.975 424.948 262.725 425.125 237.381C425.242 220.622 421.767 211.922 409.744 198.879C373.892 159.984 330.968 178.016 301.145 244.502C290.49 268.256 282.023 296.026 280.516 312.164C279.089 327.442 277.958 326.538 301.717 329.106C308.366 329.825 322.522 332.7 333.174 335.495C343.827 338.29 353.668 340.683 355.044 340.811C356.419 340.939 368.134 329.928 381.077 316.341ZM130.673 344.691C70.7136 286.957 53.6458 244.027 74.2511 202.769C76.9271 197.411 84.5018 188.101 91.0836 182.082C116.93 158.443 143.377 152.688 168.332 165.272C194.567 178.502 212.669 199.579 227.813 234.529C242.445 268.296 253.831 312.068 253.831 334.554V345.038L239.187 346.373C213.185 348.743 185.491 353.769 168.221 359.254L151.359 364.608L130.673 344.691ZM177.269 335.722C188.951 332.795 203.878 329.807 210.441 329.083C234.197 326.46 232.919 327.531 231.421 311.483C229.767 293.768 217.307 256.776 204.808 232.471C182.72 189.52 152.291 170.217 124.787 181.709C113.747 186.322 95.6773 203.583 90.8486 214.129C86.0858 224.531 85.6018 247.175 89.8856 259.181C95.5493 275.054 107.655 291.915 130.923 316.341C143.866 329.928 154.81 341.044 155.243 341.044C155.675 341.044 165.587 338.649 177.269 335.722ZM250.844 237.435C246.713 224.796 232.83 196.386 226.515 187.649C223.177 183.031 223.54 182.369 236.91 168.666C246.411 158.928 252.408 154.468 256 154.468C259.592 154.468 265.589 158.929 275.09 168.666C288.52 182.43 288.835 183.011 285.41 187.649C279.405 195.782 260.474 235.431 259.043 242.875C258.297 246.753 257.063 249.918 256.301 249.91C255.539 249.901 253.083 244.288 250.844 237.435ZM265.01 198.015L272.936 183.061L265.803 175.273C261.879 170.989 257.468 167.485 256 167.485C254.532 167.485 250.121 170.989 246.198 175.273L239.064 183.061L246.99 198.015C251.349 206.24 255.404 212.97 256 212.97C256.597 212.97 260.651 206.24 265.01 198.015ZM240.271 396.889C232.217 391.855 225.636 387.237 225.646 386.628C225.656 386.018 232.412 381.356 240.66 376.268L255.656 367.017L271.014 376.257C279.462 381.339 286.373 386.122 286.373 386.887C286.373 388.116 257.412 406.196 255.621 406.085C255.233 406.061 248.326 401.923 240.271 396.889ZM139.694 413.08C140.286 411.047 141.435 404.502 142.248 398.536C144.497 382.036 145.008 381.738 157.831 389.464C164.095 393.239 169.221 396.942 169.221 397.693C169.221 398.445 162.335 403.046 153.92 407.918C142.64 414.448 138.901 415.805 139.694 413.08ZM357.966 407.931C350.21 403.355 343.618 398.873 343.317 397.972C342.705 396.142 365.053 382.12 366.414 383.481C367.268 384.335 373.03 415.724 372.396 416.071C372.216 416.17 365.722 412.507 357.966 407.931ZM136.266 433.248L137.153 425.654H374.848L375.734 433.248L376.62 440.841H135.38L136.266 433.248Z" fill="#E4D2A3" />
  </g>
  <g id="bn" fill="none" transform="scale(0.078125 0.078125)">
    <path d="M125.5 217L112.5 217.25L106 233.25L123.25 238.5L134.75 224.75L125.5 217ZM259.5 170.25C265.167 170.417 263.833 164.75 255.5 153.25C247.167 141.75 240.5 138.25 235.5 142.75L206.5 170L259.5 170.25ZM175 145.75C176 139.25 185.625 130.292 203.875 118.875C222.125 107.458 240.5 95.5 259 83L287.75 44.5L311.75 98.75C368.75 127.417 404.792 162.208 419.875 203.125C434.958 244.042 438.917 294.333 431.75 354C428.75 375.333 429.125 395 432.875 413C436.625 431 441.417 446.833 447.25 460.5L136.75 460.75C135.25 431.083 138.5 405.958 146.5 385.375C154.5 364.792 169.75 345 192.25 326C200.583 324.167 207.458 320.875 212.875 316.125C218.292 311.375 222.75 306.5 226.25 301.5L241.875 301.25L276.375 294L311.125 269.75L327.75 218C327.75 215.167 327.042 212.333 325.625 209.5C324.208 206.667 323.25 203.583 322.75 200.25C312.417 238.25 299 262.292 282.5 272.375C266 282.458 250.083 287.333 234.75 287C195.417 280 171.083 285 161.75 302L147.75 327.5L93.5 297.25L122.25 276.75L109.5 264.25L79 285.75L76 211.5L175 145.75ZM420.25 443.75C403.25 422.083 396.167 396.375 399 366.625C401.833 336.875 404.083 306.667 405.75 276C407.417 245.333 403.25 216.042 393.25 188.125C383.25 160.208 356.917 137.25 314.25 119.25C350.917 146.583 371.958 175.083 377.375 204.75C382.792 234.417 384.167 263.625 381.5 292.375C378.833 321.125 377.833 348.542 378.5 374.625C379.167 400.708 393.083 423.75 420.25 443.75Z" fill="#170C2D" />
    <path d="M400.326 423.26C380.056 400.823 377.43 384.125 381.769 305.248C386.864 212.635 379.581 181.468 344.13 144.163C337.043 136.705 332.176 130.604 333.316 130.604C337.57 130.604 358.343 145.212 369.478 156.035C383.741 169.898 391.013 183.008 396.888 205.451C405.636 238.872 406.274 255.936 401.22 321.405C396.222 386.145 396.834 399.56 405.734 420.323C408.159 425.979 409.767 430.983 409.308 431.442C408.848 431.902 404.807 428.22 400.326 423.26ZM224.175 155.333C238.096 142.016 239.281 141.342 243.701 144.238C250.218 148.508 262.802 165.255 261.308 167.671C260.634 168.762 248.669 169.622 234.719 169.582L209.356 169.51L224.175 155.333ZM116.067 235.362C109.207 233.712 108.25 231.691 110.827 224.297C112.748 218.788 114.448 217.383 119.198 217.383C122.476 217.383 126.788 219.185 128.781 221.387C132.179 225.142 132.123 225.75 127.875 231.15C125.384 234.317 122.684 236.795 121.876 236.657C121.068 236.519 118.454 235.936 116.067 235.362Z" fill="#E4D2A3" />
  </g>
  <g id="bp" fill="none" transform="scale(0.078125 0.078125)">
    <path d="M256 460.75H111.5V442.25C110.833 428.917 114.291 417.5 121.875 408C129.458 398.5 139.916 389.5 153.25 381C172.75 365.833 187.041 347.708 196.125 326.625C205.208 305.542 211.75 283.25 215.75 259.75H144L215 200C200.666 187.667 193.5 172 193.5 153C193.5 135.833 199.583 121.083 211.75 108.75C223.916 96.4167 238.666 90.25 256 90.25C273.166 90.25 287.875 96.4167 300.125 108.75C312.375 121.083 318.5 135.833 318.5 153C318.5 172 311.333 187.667 297 200L368 259.75H296.25C300.083 283.25 306.583 305.542 315.75 326.625C324.916 347.708 339.25 365.833 358.75 381C371.916 389.5 382.291 398.5 389.875 408C397.458 417.5 401 428.917 400.5 442.25V460.75H256Z" fill="#170C2D" />
  </g>
  <g id="bq" fill="none" transform="scale(0.078125 0.078125)">
    <path d="M147.5 379.75C148.167 391.75 146.917 404.917 143.75 419.25L177.25 397.75L147.5 379.75ZM256 460.75H110.25C129.25 422.25 134.042 384.208 124.625 346.625C115.208 309.042 98.3333 271.583 74 234.25C72 234.583 70.4167 234.75 69.25 234.75C60.25 234.75 52.5417 231.542 46.125 225.125C39.7083 218.708 36.5 211 36.5 202C36.5 193 39.7083 185.292 46.125 178.875C52.5417 172.458 60.25 169.25 69.25 169.25C78.25 169.25 85.9583 172.458 92.375 178.875C98.7917 185.292 102 193 102 202C102 205.333 101.5 208.5 100.5 211.5C99.8333 213.833 98.5833 216.583 96.75 219.75L145.75 254.5L170.75 133C160.083 127.833 154.083 119.25 152.75 107.25C151.917 99.9166 154.333 92.3333 160 84.5C165.667 76.6666 173 72.25 182 71.25C191 70.4166 199 72.8333 206 78.5C213 84.1666 217 91.5 218 100.5C219.167 111.833 215.333 121.333 206.5 129L256 232L305.5 129C296.5 121.333 292.667 111.833 294 100.5C295 91.5 299 84.1666 306 78.5C313 72.8333 321 70.4166 330 71.25C339 72.25 346.292 76.6666 351.875 84.5C357.458 92.3333 359.917 99.9166 359.25 107.25C357.75 119.25 351.75 127.833 341.25 133L366.25 254.5L415.25 219.75C413.25 216.583 412 213.833 411.5 211.5C410.5 208.5 410 205.333 410 202C410 193 413.208 185.292 419.625 178.875C426.042 172.458 433.75 169.25 442.75 169.25C451.75 169.25 459.458 172.458 465.875 178.875C472.292 185.292 475.5 193 475.5 202C475.5 211 472.292 218.708 465.875 225.125C459.458 231.542 451.75 234.75 442.75 234.75C441.583 234.75 440 234.583 438 234.25C413.5 271.583 396.583 309.042 387.25 346.625C377.917 384.208 382.75 422.25 401.75 460.75H256ZM256 348.25C274.167 348.25 292.667 350.625 311.5 355.375C330.333 360.125 348.083 365.75 364.75 372.25C365.083 365.417 366 358 367.5 350C349.5 343 331.042 337.333 312.125 333C293.208 328.667 274.5 326.5 256 326.5C237.5 326.5 218.75 328.667 199.75 333C180.75 337.333 162.333 343 144.5 350C145.833 358 146.75 365.417 147.25 372.25C163.75 365.75 181.417 360.125 200.25 355.375C219.083 350.625 237.667 348.25 256 348.25ZM256 442.25H375.5C373 436.583 371 430.5 369.5 424H142.5C140.833 430.5 138.833 436.583 136.5 442.25H256ZM364.5 379.75L334.75 397.75L368.25 419.25C364.917 404.917 363.667 391.75 364.5 379.75ZM221.25 391.5L256 413.25L290.75 392.25L256 370.75L221.25 391.5Z" fill="#170C2D" />
    <path d="M138.848 439.646C138.848 439.227 139.919 435.81 141.229 432.053L143.611 425.22H368.389L370.771 432.053C372.081 435.81 373.153 439.227 373.153 439.646C373.153 440.064 320.434 440.407 256 440.407C191.566 440.407 138.848 440.064 138.848 439.646ZM238.091 400.608L223.436 391.295L239.72 381.978L256.004 372.661L271.189 381.682C279.54 386.643 286.354 391.391 286.331 392.233C286.274 394.36 259.11 410.047 255.604 409.978C254.032 409.947 246.151 405.73 238.091 400.608ZM353.231 408.167C346.45 403.824 340.885 399.295 340.863 398.102C340.841 396.909 345.901 392.725 352.107 388.805L363.39 381.678L364.691 398.568C365.406 407.857 365.894 415.594 365.775 415.76C365.657 415.927 360.012 412.51 353.231 408.167ZM147.2 363.133C147.021 359.098 146.777 354.723 146.658 353.41C146.134 347.646 197.638 333.213 232.601 329.325C250.607 327.323 261.273 327.304 278.62 329.243C313.764 333.17 365.862 347.688 365.343 353.41C365.223 354.723 364.979 359.098 364.8 363.133L364.475 370.469L338.983 362.321C305.504 351.62 286.282 348.394 256 348.394C225.719 348.394 206.496 351.62 173.017 362.321L147.526 370.469L147.2 363.133ZM146.913 400.689C147.441 392.107 148.044 384.337 148.253 383.423C148.462 382.508 154.316 385.315 161.261 389.659C168.206 394.003 173.082 398.307 172.096 399.224C171.111 400.141 164.826 404.357 158.129 408.592L145.953 416.294L146.913 400.689Z" fill="#E4D2A3" />
  </g>
  <g id="br" fill="none" transform="scale(0.078125 0.078125)">
    <path d="M256 460.75H95.75L103 394.75L142.75 365.25L155.25 200.5L118 173.75L113.75 88.5H186V125.25H220.25V88.5H291.75V125.25H326V88.5H398.25L394 173.75L356.75 200.5L369.25 365.25L409 394.75L416.25 460.75H256ZM256 213.5H339.25L337.75 191.5H174.25L172.75 213.5H256ZM256 375.25H351.25L349.75 353.5H162.25L160.75 375.25H256Z" fill="#170C2D" />
    <path d="M162.712 364.258V354.495H349.288V374.02H162.712V364.258ZM173.559 209.41C173.559 207.173 174.169 202.292 174.915 198.562L176.271 191.783H335.729L337.085 198.563C340.351 214.895 348.055 213.478 256 213.478C176.837 213.478 173.559 213.316 173.559 209.41Z" fill="#E4D2A3" />
  </g>
  <g id="wb" fill="none" transform="scale(0.078125 0.078125)">
    <path d="M256 89C267 89 272.333 83.5 272 72.5C272.167 63.3333 266.833 58.75 256 58.75C245 58.75 239.667 63.3333 240 72.5C239.5 83.5 244.833 89 256 89ZM256 390C256 409 247.583 425.542 230.75 439.625C213.917 453.708 195.333 460.75 175 460.75H51.25C51.25 441.25 56.6667 426.333 67.5 416C78.3333 405.667 90.1667 400.5 103 400.5H165.5C174 400.5 181.333 399.917 187.5 398.75C193.667 397.583 199.583 392.583 205.25 383.75C207.25 380.417 208.083 379.083 207.75 379.75H226.75C225.583 383.25 225.333 384.333 226 383C218.5 400.5 209.417 410.875 198.75 414.125C188.083 417.375 175.917 419 162.25 419H102.25C93.5833 419 86.4167 422.333 80.75 429C75.0833 435.667 72.25 440.083 72.25 442.25H178.25C189.25 442.25 202.458 436.833 217.875 426C233.292 415.167 241.083 399.75 241.25 379.75H156C167.167 360.417 173.167 341.333 174 322.5C155 302.667 141.5 284.042 133.5 266.625C125.5 249.208 125 230.583 132 210.75C137.5 194.75 147.333 178.958 161.5 163.375C175.667 147.792 201.667 127.25 239.5 101.75C236.667 99.9167 232.833 96.9167 228 92.75C223.167 88.5833 220.75 82 220.75 73C220.75 63.3333 224.167 55.3333 231 49C237.833 42.6667 246.167 39.5 256 39.5C265.667 39.5 273.958 42.6667 280.875 49C287.792 55.3333 291.25 63.3333 291.25 73C291.25 82 288.792 88.5833 283.875 92.75C278.958 96.9167 275.167 99.9167 272.5 101.75C310.167 127.25 336.083 147.792 350.25 163.375C364.417 178.958 374.333 194.75 380 210.75C387 230.583 386.5 249.208 378.5 266.625C370.5 284.042 357 302.667 338 322.5C338.667 341.333 344.667 360.417 356 379.75H270.75C270.75 399.75 278.5 415.167 294 426C309.5 436.833 322.75 442.25 333.75 442.25H439.75C439.75 440.083 436.875 435.667 431.125 429C425.375 422.333 418.25 419 409.75 419H349.75C335.917 419 323.708 417.375 313.125 414.125C302.542 410.875 293.5 400.5 286 383C286.667 384.333 286.417 383.25 285.25 379.75H304.25C303.917 379.083 304.75 380.417 306.75 383.75C312.25 392.583 318.083 397.583 324.25 398.75C330.417 399.917 337.833 400.5 346.5 400.5H409C421.667 400.5 433.458 405.667 444.375 416C455.292 426.333 460.75 441.25 460.75 460.75H337C316.5 460.75 297.875 453.708 281.125 439.625C264.375 425.542 256 409 256 390ZM256 361.5H326.75C322.083 347.5 319.667 334.667 319.5 323C299.5 316.167 278.333 313 256 313.5C233.5 313 212.333 316.167 192.5 323C192.167 334.667 189.75 347.5 185.25 361.5H256ZM256 294.75C282.5 294.583 306.25 298.083 327.25 305.25C358.75 275.25 370.583 246.417 362.75 218.75C352.75 186.583 317.167 150.667 256 111C194.667 150.667 159.083 186.583 149.25 218.75C141.25 246.417 153.083 275.25 184.75 305.25C205.583 298.083 229.333 294.583 256 294.75ZM244.25 204.5V178.5H267.75V204.5H291.5V226.75H267.75V268H244.25V226.75H220.5V204.5H244.25Z" fill="#170C2D" />
    <path d="M245.045 83.3361C239.497 77.7886 239.497 69.3578 245.045 63.8106C254.004 54.8511 271.079 61.2538 271.079 73.5731C271.079 80.9376 263.823 87.6751 255.892 87.6751C252.276 87.6751 247.455 85.7466 245.045 83.3361ZM172.889 290.731C151.385 264.905 143.282 236.352 151.588 215.675C157.453 201.075 173.494 179.305 189.802 163.814C206.466 147.985 238.261 123.386 250.749 116.66L257.583 112.98L280.282 129.522C337.859 171.482 367.088 210.383 363.574 240.374C361.872 254.903 352.064 274.915 338.895 290.731L327.883 303.956L311.955 299.591C298.664 295.948 289.385 295.226 255.892 295.226C222.399 295.226 213.121 295.948 199.829 299.591L183.902 303.956L172.889 290.731ZM268.909 249.302V228.692H292.774V202.658H268.909V176.624H242.875V202.658H219.011V228.692H242.875V269.912H268.909V249.302ZM186.494 360.489C186.508 360.19 187.961 354.577 189.723 348.014C191.484 341.451 192.937 333.424 192.951 330.176C192.974 324.887 194.279 323.868 205.452 320.414C223.173 314.934 288.347 314.848 305.879 320.282L317.9 324.007L320.456 338.911C321.861 347.109 323.634 355.439 324.396 357.423C325.669 360.741 320.181 361.031 256.124 361.031C217.814 361.031 186.48 360.787 186.494 360.489ZM78.0564 434.706C87.6071 421.293 89.6124 420.812 141.889 419.397C168.206 418.684 193.221 416.975 197.5 415.597C207.158 412.487 219.327 400.562 224.461 389.176C227.659 382.083 229.432 380.556 234.473 380.556C240.203 380.556 240.514 381.011 239.299 387.607C235.395 408.816 224.584 421.786 200.821 433.77L185.885 441.302H73.3594L78.0564 434.706ZM310.963 433.77C287.066 421.718 277.19 410.269 273.457 390.289C271.677 380.763 271.759 380.558 277.325 380.621C281.935 380.673 284.367 383.034 290.179 393.095C303.643 416.405 313.332 419.543 371.96 419.585C417.888 419.617 423.209 420.889 433.34 434.251L438.686 441.302H325.899L310.963 433.77Z" fill="#F5E3B4" />
  </g>
  <g id="wk" fill="none" transform="scale(0.078125 0.078125)">
    <path d="M244.25 74.5V50.75H267.75V74.5H294.5V98.25H267.75V136.5C259.75 133.833 251.917 133.833 244.25 136.5V98.25H217.5V74.5H244.25ZM256 153C248.167 153 236.833 163.083 222 183.25C216.833 177.25 212.667 172.667 209.5 169.5C225 146.167 240.5 134.5 256 134.5C271.333 134.5 286.833 146.167 302.5 169.5C299.167 172.667 295 177.25 290 183.25C275 163.083 263.667 153 256 153ZM144.25 379.75L137.75 418.75L174 397.75L144.25 379.75ZM246.75 328.25C246.583 303.75 243.542 280.875 237.625 259.625C231.708 238.375 225 222.25 217.5 211.25C210 196.583 199.042 183.833 184.625 173C170.208 162.167 156.167 156.75 142.5 156.75C125.333 156.75 108 164.5 90.5 180C73 195.5 64.25 214.583 64.25 237.25C64.25 255.417 71.4583 275.083 85.875 296.25C100.292 317.417 117.167 336 136.5 352C171.833 337.333 208.583 329.417 246.75 328.25ZM256 460.75H112L127.25 369.5C73.0833 322.833 45.9167 278.25 45.75 235.75C45.5833 209.25 56 186.375 77 167.125C98 147.875 120.25 138.25 143.75 138.25C156.75 138.25 169.958 142.167 183.375 150C196.792 157.833 208.667 167.75 219 179.75C229.167 192.083 237.375 205.792 243.625 220.875C249.875 235.958 254 248.5 256 258.5C258 248.5 262.083 235.958 268.25 220.875C274.417 205.792 282.667 192.083 293 179.75C303.167 167.75 315 157.833 328.5 150C342 142.167 355.25 138.25 368.25 138.25C391.583 138.25 413.75 147.875 434.75 167.125C455.75 186.375 466.25 209.25 466.25 235.75C465.917 278.25 438.75 322.833 384.75 369.5L400 460.75H256ZM256 442.25H378.25L365.75 367.75C329.75 353.75 293.167 346.75 256 346.75C218.833 346.75 182.25 353.75 146.25 367.75L133.75 442.25H256ZM367.75 379.75L374.25 418.75L338 397.75L367.75 379.75ZM265.25 328.25C303.417 329.417 340.167 337.333 375.5 352C394.667 336 411.5 317.417 426 296.25C440.5 275.083 447.75 255.417 447.75 237.25C447.75 214.583 438.958 195.5 421.375 180C403.792 164.5 386.5 156.75 369.5 156.75C355.667 156.75 341.542 162.167 327.125 173C312.708 183.833 301.833 196.583 294.5 211.25C286.833 222.25 280.042 238.375 274.125 259.625C268.208 280.875 265.25 303.75 265.25 328.25ZM221.25 386.5L256.5 365.5L290.75 387L255.5 408L221.25 386.5Z" fill="#170C2D" />
    <path d="M116.869 331.184C83.1862 296.342 66.7617 266.274 66.437 238.861C66.175 216.747 71.4352 203.542 87.235 186.652C121.914 149.58 161.435 149.412 196.638 186.188C212.264 202.512 223.464 221.901 232.261 247.859C239.219 268.388 245.13 299.731 245.144 316.167C245.154 327.261 243.054 328.799 227.797 328.872C213.984 328.939 181.492 335.617 158.373 343.141L135.593 350.555L116.869 331.184ZM253.064 244.245C250.842 233.137 238.516 205.534 230.709 194.185L223.286 183.394L231.302 173.612C250.876 149.724 261.124 149.724 280.699 173.612L288.714 183.394L281.291 194.185C273.485 205.534 261.159 233.137 258.937 244.245C257.263 252.616 254.738 252.616 253.064 244.245Z" fill="#F5E3B4" />
    <path d="M117.594 331.42C81.5443 291.2 69.429 269.704 67.7093 242.909C66.4468 223.231 69.894 209.962 79.5585 197.301C83.5303 192.098 86.78 186.873 86.78 185.69C86.78 184.507 87.8713 183.539 89.2053 183.539C90.5393 183.539 95.132 180.465 99.4115 176.708C118.698 159.774 142.968 155.086 164.21 164.191C203.197 180.902 230.717 225.49 241.665 289.684C247.609 324.533 246.07 328.895 227.833 328.895C213.253 328.895 187.311 334.139 161.634 342.277C149.698 346.061 138.697 349.395 137.187 349.686C135.677 349.977 126.86 341.757 117.595 331.42H117.594ZM352.527 342.829C330.353 335.582 297.825 328.938 284.204 328.872C268.554 328.797 266.848 327.415 266.848 314.824C266.848 297.985 272.71 267.355 279.853 246.874C288.612 221.759 300.09 202.142 315.363 186.188C350.565 149.413 390.087 149.58 424.766 186.653C440.593 203.571 445.84 216.763 445.533 238.861C445.278 257.158 438.992 273.984 424.142 296.118C413.649 311.759 384.022 345.014 377.801 348.135C375.509 349.286 366.495 347.393 352.527 342.829ZM136.032 433.573C137.972 420.949 139.729 418.967 158.666 408.044L176.387 397.822L164.669 390.703C146.647 379.756 145.186 378.304 146.686 372.843C148.186 367.385 167.041 360.5 199.865 353.423C225.391 347.919 286.61 347.919 312.135 353.423C344.96 360.5 363.814 367.385 365.314 372.843C366.815 378.304 365.353 379.756 347.332 390.703L335.613 397.822L353.335 408.044C372.271 418.967 374.029 420.949 375.969 433.573L377.219 441.708H134.782L136.032 433.573ZM273.561 398.88C283.001 393.223 290.417 387.67 290.04 386.54C289.664 385.411 281.982 379.863 272.969 374.213L256.583 363.94L239.652 374.1C230.34 379.688 222.434 385.226 222.084 386.408C221.577 388.117 252.582 409.166 255.606 409.166C256.041 409.166 264.121 404.537 273.561 398.88Z" fill="#F5E3B4" />
  </g>
  <g id="wn" fill="none" transform="scale(0.078125 0.078125)">
    <path d="M251 273C256.167 275.833 260.667 279.333 264.5 283.5C268 281 271.042 279.875 273.625 280.125C276.208 280.375 279 280.25 282 279.75C295 277.917 305.708 270.833 314.125 258.5C322.542 246.167 326.917 232.417 327.25 217.25L322.5 200.5C313.333 240.333 297.667 261.75 275.5 264.75C272 265.25 268.25 265.708 264.25 266.125C260.25 266.542 255.833 268.833 251 273ZM186.5 160.75L175 145.75C176 139.25 185.625 130.292 203.875 118.875C222.125 107.458 240.5 95.5 259 83L287.75 44.5L311.75 98.75C368.75 127.417 404.792 162.208 419.875 203.125C434.958 244.042 438.917 294.333 431.75 354C428.75 375.333 429.125 395.042 432.875 413.125C436.625 431.208 441.417 447.083 447.25 460.75H136.75C135.25 431.083 138.5 405.958 146.5 385.375C154.5 364.792 169.75 345 192.25 326C205.25 323.333 214.833 317.417 221 308.25C227.167 299.083 231.75 292 234.75 287C195.417 280 171.083 285 161.75 302L147.75 327.5L93.5 297.25L122.25 276.75L109.5 264.25L79 285.75L76 211.5L175 145.75C177 148.75 178.917 151.333 180.75 153.5C182.583 155.667 184.5 158.083 186.5 160.75L95 221L96 252.25L112 242L146.5 278L127 294.25L138.75 301.25L148.375 290L175.5 271.75C184.5 268.75 198.25 266.5 216.75 265C235.25 263.5 251.167 269.667 264.5 283.5C255.167 294 247.583 305.042 241.75 316.625C235.917 328.208 223.25 336.75 203.75 342.25C188.417 355.417 176.25 370.125 167.25 386.375C158.25 402.625 154.25 421.25 155.25 442.25H410C404.167 420.083 401.5 400.542 402 383.625C402.5 366.708 403.542 350.125 405.125 333.875C406.708 317.625 407.458 300.542 407.375 282.625C407.292 264.708 403.917 243.667 397.25 219.5C388.75 198.5 377.583 179 363.75 161C349.917 143 328.083 127.333 298.25 114L283.5 80.75L271.25 98C254.75 108.333 237.417 119.25 219.25 130.75C201.083 142.25 190.167 152.25 186.5 160.75ZM259.5 168.25L206.5 167.75L235.5 142.75C240.5 138.583 247.167 141.792 255.5 152.375C263.833 162.958 265.167 168.25 259.5 168.25ZM125.5 217L134.75 224.75L123.25 238.5L109 232L117.25 218L125.5 217Z" fill="#170C2D" />
    <path d="M156.987 426.577C158.753 407.573 164.652 391.655 175.991 375.291C189.894 355.227 199.575 346.254 214.776 339.343C232.602 331.237 234.622 329.372 248.421 308.285C263.974 284.518 267.519 281.176 277.237 281.119C287.814 281.056 300.965 274.788 309.584 265.702C323.619 250.907 330.997 223.203 325.409 206.274L322.683 198.012L316.771 215.631C308.239 241.062 300.398 252.256 285.917 259.682C281.49 261.953 275.357 263.81 272.288 263.81C269.219 263.81 263.152 265.296 258.805 267.113C251.657 270.099 249.868 270.072 240.103 266.828C228.456 262.96 204.083 263.734 184.463 268.595C173.757 271.247 144.533 289.716 142.449 295.146C140.92 299.13 136.396 299.542 132.872 296.017C130.979 294.124 132.537 291.587 139.256 285.625L148.145 277.737L130.742 259.399L113.339 241.061L105.756 244.678L98.172 248.294L96.815 238.393C96.0685 232.948 95.458 227.139 95.458 225.484C95.458 223.829 115.966 208.9 141.031 192.31C166.096 175.719 189.282 158.904 192.556 154.944C201.621 143.978 204.668 141.699 240.233 119.297C264.175 104.216 274.613 96.3233 278.12 90.649L282.96 82.817L290.349 99.3383C296.854 113.882 298.805 116.339 306.649 119.869C354.258 141.29 390.028 188.211 401.497 244.285C406.385 268.182 406.453 281.561 402.154 374.454C401.098 397.272 401.578 407.508 404.331 420.788C406.275 430.163 407.865 438.705 407.865 439.771C407.865 440.886 354.299 441.708 281.723 441.708H155.581L156.987 426.577ZM131.95 221.091C125.153 213.855 117.98 214.62 112.79 223.132C107.15 232.382 107.259 232.911 115.526 236.408C122.259 239.258 122.894 239.093 129.616 232.746L136.656 226.1L131.95 221.091ZM262.843 162.978C261.678 156.324 249.71 142.456 243.866 140.989C237.702 139.442 233.422 142.024 216.95 157.228L205.017 168.242L234.305 167.755C262.157 167.292 263.557 167.058 262.843 162.978Z" fill="#F5E3B4" />
  </g>
  <g id="wp" fill="none" transform="scale(0.078125 0.078125)">
    <path d="M130.001 442.25H382.001C383.334 426.083 372.334 410.917 349.001 396.75C327.001 379.917 310.626 359.958 299.876 336.875C289.126 313.792 282.501 288.083 280.001 259.75H232.001C229.501 288.083 222.876 313.792 212.126 336.875C201.376 359.958 185.001 379.917 163.001 396.75C139.501 410.917 128.501 426.083 130.001 442.25ZM256.001 460.75H111.501V442.25C110.834 428.917 114.292 417.5 121.876 408C129.459 398.5 139.917 389.5 153.251 381C172.751 365.833 187.042 347.708 196.126 326.625C205.209 305.542 211.751 283.25 215.751 259.75H144.001L215.001 200C200.667 187.667 193.501 172 193.501 153C193.501 135.833 199.584 121.083 211.751 108.75C223.917 96.4167 238.667 90.25 256.001 90.25C273.167 90.25 287.876 96.4167 300.126 108.75C312.376 121.083 318.501 135.833 318.501 153C318.501 172 311.334 187.667 297.001 200L368.001 259.75H296.251C300.084 283.25 306.584 305.542 315.751 326.625C324.917 347.708 339.251 365.833 358.751 381C371.917 389.5 382.292 398.5 389.876 408C397.459 417.5 401.001 428.917 400.501 442.25V460.75H256.001ZM189.001 243.5H323.001L266.751 195.75C289.084 190.583 300.251 176.333 300.251 153C300.251 140.333 295.876 129.792 287.126 121.375C278.376 112.958 268.001 108.75 256.001 108.75C243.834 108.75 233.417 112.958 224.751 121.375C216.084 129.792 211.751 140.333 211.751 153C211.751 176.333 222.917 190.583 245.251 195.75L189.001 243.5Z" fill="#170C2D" />
    <path d="M218.364 220.337C232.501 208.359 244.339 197.781 244.671 196.83C245.004 195.879 241.281 193.3 236.4 191.099C198.337 173.935 209.377 115.465 251.625 110.461C260.509 109.409 264.415 110.2 274.365 115.068C306.684 130.881 307.429 176.746 275.599 191.099C270.718 193.3 266.996 195.879 267.328 196.83C267.66 197.781 279.498 208.359 293.635 220.337L319.339 242.115H192.66L218.364 220.337Z" fill="#F5E3B4" />
    <path d="M195.255 240.467C195.255 239.561 197.012 237.723 199.16 236.381C204.459 233.072 243.892 198.364 244.765 196.241C245.148 195.309 242.951 193.916 239.883 193.146C236.815 192.376 234.305 191.041 234.305 190.179C234.305 189.317 231.875 187.31 228.903 185.72C216.509 179.087 210.815 153.838 217.894 136.896C219.39 133.316 220.766 129.654 220.951 128.759C221.504 126.092 229.794 118.454 232.136 118.454C233.329 118.454 234.305 117.646 234.305 116.657C234.305 113.357 254.792 109.961 263.226 111.863C275.909 114.723 292.424 127.395 294.778 136.073C299.712 154.261 299.636 161.733 294.414 171.817C290.426 179.52 277.91 191.168 271.403 193.233C268.766 194.07 266.907 195.471 267.271 196.346C268.125 198.4 307.71 233.177 312.841 236.381C314.989 237.723 316.746 239.561 316.746 240.468C316.746 241.374 289.411 242.115 256 242.115C222.59 242.115 195.255 241.374 195.255 240.468V240.467ZM130.17 439.469C130.17 435.507 136.729 421.386 140.558 417.105C142.6 414.822 153.084 405.849 163.856 397.166C202.091 366.344 222.253 330.538 230.351 279.075L233.094 261.641H278.907L281.65 279.075C289.41 328.393 310.07 366.458 343.677 393.356C372.437 416.375 377.137 421.787 380.483 435.742L381.914 441.708H256.042C170.962 441.708 130.17 440.983 130.17 439.469Z" fill="#F5E3B4" />
  </g>
  <g id="wq" fill="none" transform="scale(0.078125 0.078125)">
    <path d="M256 442.25H375.5C366.667 420.583 363.083 397.25 364.75 372.25C348.083 365.75 330.333 360.125 311.5 355.375C292.667 350.625 274.167 348.25 256 348.25C237.667 348.25 219.083 350.625 200.25 355.375C181.417 360.125 163.75 365.75 147.25 372.25C148.75 397.25 145.167 420.583 136.5 442.25H256ZM256 329.75C274.5 329.75 293.125 331.958 311.875 336.375C330.625 340.792 349 346.417 367 353.25C369.833 335.75 374.875 318.042 382.125 300.125C389.375 282.208 398.167 264.5 408.5 247L353.5 285.75L322.75 135.5L256 274.25L189.25 135.5L158.5 285.75L103.5 247C113.667 264.5 122.375 282.208 129.625 300.125C136.875 318.042 142 335.75 145 353.25C163 346.417 181.375 340.792 200.125 336.375C218.875 331.958 237.5 329.75 256 329.75ZM256 460.75H110.25C129.25 422.25 134.042 384.208 124.625 346.625C115.208 309.042 98.3333 271.583 74 234.25C72 234.583 70.4167 234.75 69.25 234.75C60.25 234.75 52.5417 231.542 46.125 225.125C39.7083 218.708 36.5 211 36.5 202C36.5 193 39.7083 185.292 46.125 178.875C52.5417 172.458 60.25 169.25 69.25 169.25C78.25 169.25 85.9583 172.458 92.375 178.875C98.7917 185.292 102 193 102 202C102 205.333 101.5 208.5 100.5 211.5C99.8333 213.833 98.5833 216.583 96.75 219.75L145.75 254.5L170.75 133C160.083 127.833 154.083 119.25 152.75 107.25C151.917 99.9166 154.333 92.3333 160 84.5C165.667 76.6666 173 72.25 182 71.25C191 70.4166 199 72.8333 206 78.5C213 84.1666 217 91.5 218 100.5C219.167 111.833 215.333 121.333 206.5 129L256 232L305.5 129C296.5 121.333 292.667 111.833 294 100.5C295 91.5 299 84.1666 306 78.5C313 72.8333 321 70.4166 330 71.25C339 72.25 346.292 76.6666 351.875 84.5C357.458 92.3333 359.917 99.9166 359.25 107.25C357.75 119.25 351.75 127.833 341.25 133L366.25 254.5L415.25 219.75C413.25 216.583 412 213.833 411.5 211.5C410.5 208.5 410 205.333 410 202C410 193 413.208 185.292 419.625 178.875C426.042 172.458 433.75 169.25 442.75 169.25C451.75 169.25 459.458 172.458 465.875 178.875C472.292 185.292 475.5 193 475.5 202C475.5 211 472.292 218.708 465.875 225.125C459.458 231.542 451.75 234.75 442.75 234.75C441.583 234.75 440 234.583 438 234.25C413.5 271.583 396.583 309.042 387.25 346.625C377.917 384.208 382.75 422.25 401.75 460.75H256ZM69 186.5C58.6667 186.5 53.5 191.667 53.5 202C53.5 212.333 58.6667 217.5 69 217.5C79.5 217.5 84.75 212.333 84.75 202C84.75 191.667 79.5 186.5 69 186.5ZM185.5 88C175.167 88 170 93.1666 170 103.5C170 113.833 175.167 119 185.5 119C195.833 119 201 113.833 201 103.5C201 93.1666 195.833 88 185.5 88ZM147.5 379.75L177.25 397.75L143.75 419.25C146.917 404.917 148.167 391.75 147.5 379.75ZM443 186.5C432.5 186.5 427.25 191.667 427.25 202C427.25 212.333 432.5 217.5 443 217.5C453.333 217.5 458.5 212.333 458.5 202C458.5 191.667 453.333 186.5 443 186.5ZM326.5 88C316.167 88 311 93.1666 311 103.5C311 113.833 316.167 119 326.5 119C336.833 119 342 113.833 342 103.5C342 93.1666 336.833 88 326.5 88ZM364.5 379.75L334.75 397.75L368.25 419.25C364.917 404.917 363.667 391.75 364.5 379.75ZM221.25 391.5L256 370.75L290.75 392.25L256 413.25L221.25 391.5Z" fill="#170C2D" />
    <path d="M144.194 343.539C140.627 326.854 131.112 300.179 121.24 279.191C115.398 266.769 111.032 256.191 111.538 255.685C112.044 255.179 122.995 262.229 135.874 271.352L159.29 287.939L173.901 216.756C181.938 177.605 188.809 144.18 189.172 142.477C189.534 140.775 204.408 169.819 222.225 207.02C240.042 244.22 255.24 274.657 256 274.657C256.76 274.657 271.959 244.22 289.775 207.02C307.592 169.819 322.466 140.775 322.828 142.477C323.191 144.18 330.062 177.605 338.099 216.756L352.711 287.939L376.126 271.351C389.005 262.228 400.012 255.234 400.586 255.808C401.16 256.382 397.597 264.874 392.667 274.678C383.049 293.809 373.088 320.779 368.839 339.2C367.394 345.464 365.576 350.572 364.801 350.551C364.025 350.53 354.386 347.671 343.381 344.197C307.747 332.951 290.134 330.111 256 330.111C221.867 330.111 204.254 332.951 168.62 344.197C157.615 347.671 147.956 350.53 147.156 350.551C146.356 350.572 145.023 347.417 144.194 343.539Z" fill="#F5E3B4" />
    <path d="M139.732 436.827C140.496 434.142 141.675 429.43 142.35 426.355C143.244 422.29 148.251 417.852 160.706 410.084C170.126 404.21 177.848 398.783 177.866 398.025C177.884 397.267 171.065 392.518 162.712 387.471C154.36 382.425 147.526 377.136 147.526 375.72C147.526 372.528 182.856 360.767 210.365 354.802C238.106 348.786 273.895 348.786 301.636 354.802C329.145 360.767 364.475 372.528 364.475 375.72C364.475 377.137 357.641 382.425 349.289 387.471C340.936 392.518 334.124 397.267 334.15 398.025C334.176 398.783 341.507 404 350.441 409.619C366.151 419.5 368.892 422.857 372.286 436.38L373.623 441.708H138.342L139.732 436.827ZM274.364 403.58C283.356 398.121 290.707 392.996 290.701 392.19C290.688 390.404 258.773 370.115 255.977 370.115C252.295 370.115 221.071 390.072 221.726 392.007C222.576 394.519 251.975 413.17 255.381 413.359C256.83 413.439 265.373 409.039 274.364 403.58ZM434.549 214.36C427.568 209.922 427.586 194.028 434.577 189.583C443.411 183.965 457.763 191.639 457.763 201.98C457.763 212.337 443.41 219.992 434.549 214.36ZM321.085 116.994C312.516 113.812 309.412 100.065 315.816 93.66C320.21 89.266 332.807 89.266 337.201 93.66C341.292 97.7505 341.656 107.579 337.899 112.497C334.862 116.473 326.038 118.832 321.085 116.994ZM180.068 116.994C171.499 113.812 168.395 100.065 174.799 93.66C179.193 89.266 191.79 89.266 196.184 93.66C200.275 97.7505 200.639 107.579 196.882 112.497C193.845 116.473 185.021 118.832 180.068 116.994ZM58.5766 211.742C53.0291 206.195 53.0291 197.764 58.5766 192.217C62.9369 187.856 72.6016 186.517 77.4516 189.6C84.4326 194.037 84.4149 209.932 77.4241 214.377C72.5991 217.444 62.9269 216.093 58.5766 211.742Z" fill="#F5E3B4" />
  </g>
  <g id="wr" fill="none" transform="scale(0.078125 0.078125)">
    <path d="M256 375.25H160.75L162 356.75H350L351.25 375.25H256ZM256 210H173L174.25 191.5H337.75L339 210H256ZM256 460.75H95.75L103 394.75L142.75 365.25L155.25 200.5L118 173.75L113.75 88.5H186V125.25H220.25V88.5H291.75V125.25H326V88.5H398.25L394 173.75L356.75 200.5L369.25 365.25L409 394.75L416.25 460.75H256ZM256 442.25H395.25L391.5 405L351.25 375.25L337.75 191.5L375.75 164.25L379 106.75H344.5V143.75H273.25V106.75H238.75V143.75H167.5V106.75H133L136.25 164.25L174.25 191.5L160.75 375.25L120.5 405L116.75 442.25H256Z" fill="#170C2D" />
    <path d="M163.958 344.624C165.214 332.203 173.559 219.482 173.559 214.943C173.559 212.178 184.776 211.742 256 211.742C327.224 211.742 338.441 212.178 338.441 214.943C338.441 219.482 346.786 332.203 348.042 344.624L349.084 354.929H162.916L163.958 344.624ZM156.196 176.912L137.763 163.776L136.351 145.997C135.574 136.218 134.842 123.58 134.724 117.912L134.508 107.607H167.051V144.488H240.813V107.607H271.186V144.488H344.949V107.607H377.491L377.276 117.912C377.158 123.58 376.426 136.218 375.649 145.997L374.237 163.776L355.804 176.912L337.37 190.048H174.629L156.196 176.912ZM117.917 437.912C118.498 435.824 119.604 427.647 120.376 419.741L121.779 405.367L141.613 390.995L161.446 376.624H350.553L370.387 390.995L390.221 405.367L391.624 419.741C392.395 427.647 393.502 435.823 394.083 437.912C395.081 441.499 387.47 441.708 256 441.708C124.53 441.708 116.918 441.499 117.917 437.912Z" fill="#F5E3B4" />
  </g>
</svg>