<svg xmlns="http://www.w3.org/2000/svg" width="40" height="40" viewbox="0.0 0.0 512.0 512.0">
  <g id="bb" fill="none" transform="scale(0.078125 0.078125)">
    <path d="M258.283 85.0915C255.375 73.3648 253.356 57.8626 255.912 40.7997C256.31 38.1409 254.579 35.5814 251.932 35.1102L240.497 33.075C237.925 32.617 235.447 34.3028 235.041 36.8841C231.992 56.2305 234.196 73.7065 237.755 87.4206C207.063 96.266 196.061 128.645 184.113 163.807C176.64 185.799 168.797 208.879 155.535 227.97L155.546 227.973C124.664 272.423 104.007 310.633 104 350.471C104 438.966 166.712 489.365 254.863 490.029V490.054C255.159 490.054 255.442 490.043 255.735 490.04C255.854 490.041 255.972 490.044 256.089 490.046C256.261 490.05 256.432 490.054 256.606 490.054L256.603 490.026C344.751 489.366 407.466 438.964 407.466 350.467C407.466 310.632 386.809 272.421 355.927 227.97C342.662 208.879 334.818 185.796 327.345 163.802C313.583 123.302 301.075 86.4923 258.283 85.0915Z" fill="#00331A" />
    <path d="M274.501 110.934C276.337 109.022 276.275 105.983 274.362 104.147C272.45 102.311 269.411 102.373 267.576 104.286C263.925 108.089 258.373 110.399 252.411 111.605C246.507 112.799 240.785 112.79 237.466 112.437C234.83 112.156 232.466 114.066 232.186 116.702C231.905 119.338 233.815 121.702 236.451 121.983C240.652 122.43 247.362 122.42 254.314 121.014C261.208 119.62 268.936 116.731 274.501 110.934Z" fill="#FDFFA9" />
    <path d="M355.057 394.864C350.081 403.279 343.882 410.688 336.621 417.024L336.621 417.029C335.384 418.108 334.116 419.156 332.818 420.172C330.136 422.273 327.045 418.17 329.085 415.443C366.651 365.231 340.997 288.238 328.403 250.444C327.81 248.663 327.245 246.969 326.718 245.369C326.488 244.385 327.94 243.789 328.492 244.634C329.191 245.705 329.881 246.732 330.489 247.606C353.635 280.868 369.06 309.569 369.06 339.407C369.06 361.02 364.069 379.608 355.057 394.864Z" fill="#FDFFA9" />
    <path fill-rule="evenodd" clip-rule="evenodd" d="M229.504 279.392L220.062 245.345C217.544 244.507 216.565 253.377 216.39 257.916C216.74 260.186 217.124 264.726 215.865 264.726C214.606 264.726 214.641 270.313 214.816 273.106C212.298 275.62 209.571 280.439 208.521 282.534C204.745 282.953 195.757 286.201 191.735 287.772C191.735 288.799 190.616 289.602 189.401 290.474C188.756 290.936 188.085 291.418 187.539 291.963L182.293 297.201C180.658 295.894 179.431 299.068 178.484 301.516L178.378 301.789C177.854 303.14 177.418 304.195 177.048 304.01C176.208 303.591 170.753 313.264 168.13 318.152C168.55 318.99 164.458 331.771 162.36 338.056C157.639 339.802 148.092 343.294 147.672 343.294C147.522 343.294 146.981 343.424 146.263 343.596C144.481 344.024 141.601 344.715 140.853 344.342C139.804 343.818 139.279 346.961 139.279 349.056C139.279 350.47 145.491 350.691 149.852 350.846C151.954 350.921 153.626 350.981 153.967 351.151C154.806 351.57 155.716 349.929 156.065 349.056C156.59 349.754 157.744 351.046 158.164 350.627C158.583 350.208 162.185 350.453 163.934 350.627C163.934 352.024 164.248 354.922 165.507 355.341C165.158 355.691 164.668 357.227 165.507 360.579C166.557 364.77 168.655 368.436 168.655 368.96C168.655 369.379 172.152 373.325 173.9 375.246L174.95 375.769V376.817L179.998 381.207C180.939 382.102 181.441 382.579 181.244 382.579C180.405 382.579 180.895 387.467 181.244 389.912C180.405 389.912 179.845 393.054 179.671 394.626C177.572 397.14 178.796 401.61 179.671 403.53C183.028 404.368 184.217 402.832 184.392 401.959C184.916 400.911 185.965 398.502 185.965 397.245C185.965 395.988 187.014 394.277 187.539 393.578C187.889 391.658 188.798 387.921 189.637 388.34C189.637 387.467 189.847 385.826 190.686 386.245C191.386 386.769 192.994 387.817 193.834 387.817C194.673 387.817 197.331 390.261 198.555 391.483C199.604 392.007 202.227 392.95 204.325 392.531C205.724 393.054 208.731 394.102 209.571 394.102C210.41 394.102 211.319 394.8 211.669 395.15C213.942 395.324 218.698 395.673 219.537 395.673C220.586 395.673 227.406 397.245 228.979 395.673C230.553 394.102 235.799 396.721 235.799 395.15C240.835 394.312 249.088 389.562 252.585 387.293C253.984 387.118 256.466 386.978 255.208 387.817C253.949 388.655 257.131 390.261 258.879 390.959C258.46 393.892 262.202 399.515 264.125 401.959C267.098 403.879 272.413 406.254 269.895 400.388C267.377 394.521 266.398 383.626 266.223 378.912C264.545 378.912 266.573 374.373 267.797 372.103C269.895 370.881 273.882 367.912 273.043 365.817C272.203 363.722 273.742 362.151 274.616 361.627C274.267 360.056 273.777 357.122 274.616 357.96C275.456 358.798 276.365 354.468 276.715 352.199C275.036 351.361 276.365 347.31 277.239 345.389C279.337 346.227 283.009 344.342 284.583 343.294C285.003 341.199 294.899 339.279 299.795 338.58L300.844 333.866L277.764 332.295C277.764 329.361 276.365 326.533 275.665 325.485C279.023 322.971 275.316 315.708 273.043 312.391C273.882 309.038 265.699 300.518 261.502 296.677C259.404 293.325 255.732 289.693 254.158 288.296C251.536 288.122 245.451 286.83 242.093 283.058C238.736 279.287 232.302 279.043 229.504 279.392ZM227.406 313.962C225.727 313.543 221.81 300.518 220.062 294.058C220.062 294.274 219.178 296.358 218.13 298.828L218.129 298.83C217.146 301.148 216.018 303.807 215.341 305.581C216.491 307.495 215.12 311.925 214.298 314.581C213.995 315.56 213.767 316.299 213.767 316.581C213.767 316.853 213.132 318.146 212.265 319.912C209.787 324.958 205.413 333.866 208.521 333.866C211.879 333.866 218.663 335.263 221.636 335.961C227.091 335.542 233.351 333.342 235.799 332.295C233.7 326.358 229.084 314.381 227.406 313.962ZM259.929 344.866C257.83 346.123 254.858 345.739 253.634 345.389C254.893 347.485 254.158 351.151 253.634 352.723C255.312 354.818 255.382 358.135 255.207 359.532C256.257 360.056 258.46 361.313 258.879 362.151C259.299 362.989 260.103 361.452 260.453 360.579C260.033 359.741 260.278 357.786 260.453 356.913C262.551 354.399 263.775 347.834 264.125 344.866C263.6 344.342 262.027 343.609 259.929 344.866ZM191.211 308.724C192.89 306.629 201.702 301.216 205.899 298.772C206.318 301.705 203.975 306.978 202.751 309.248C202.402 311.343 201.387 315.638 200.128 316.057C198.87 316.476 198.905 320.422 199.079 322.343C196.561 325.695 195.932 331.422 195.932 333.866C195.512 334.285 190.512 333.342 188.064 332.818C187.014 333.342 176.523 335.961 178.097 333.342C179.671 330.723 180.195 328.628 179.671 328.628C179.251 328.628 180.895 325.136 181.769 323.39C180.93 322.552 182.468 320.946 183.343 320.247C182.084 318.152 185.616 314.486 187.539 312.914C188.064 312.391 189.532 310.819 191.211 308.724ZM178.097 349.056C180.195 348.881 184.601 348.427 185.441 348.008C186.49 348.183 189.008 348.427 190.686 348.008C189.288 349.929 186.595 354.084 187.014 355.341C185.79 357.437 183.657 361.941 184.916 363.198C184.406 364.387 183.598 366.831 184.326 367.35C182.56 366.287 179.256 364.136 179.671 363.722C180.09 363.303 179.146 359.357 178.621 357.437C178.447 356.04 178.202 353.142 178.621 352.723C178.097 351.675 177.258 349.475 178.097 349.056ZM235.799 297.724C239.82 300.343 247.969 305.581 248.388 305.581C248.913 305.581 259.929 315.533 262.551 323.914C263.6 324.438 265.699 326.847 265.699 332.295C265.324 332.295 264.814 332.334 264.263 332.377C263.016 332.473 261.56 332.585 260.978 332.295C260.138 331.876 252.235 332.818 248.388 333.342C247.339 329.676 244.506 321.504 241.569 318.152C241.919 317.628 242.093 315.743 239.995 312.391C237.372 308.2 233.176 299.296 235.799 297.724ZM205.374 346.437C208.172 346.262 213.977 346.227 214.816 347.485C216.215 346.786 219.537 345.808 221.636 347.485C223.734 349.161 234.05 347.485 238.946 346.437C239.296 348.532 240.205 352.618 241.044 352.199C240.52 352.723 240.625 355.865 245.241 364.246C245.416 366.865 246.185 372.103 247.864 372.103C249.542 372.103 248.213 374.198 247.339 375.246C246.29 376.468 243.352 379.122 239.995 379.96C235.799 381.007 230.029 382.579 227.93 383.626C226.252 384.464 218.488 383.277 214.816 382.579L214.292 383.626C212.194 381.88 207.472 378.703 205.374 379.96C203.451 378.214 199.394 375.036 198.555 376.293C197.506 377.865 195.408 371.579 196.457 372.103C197.296 372.522 197.855 365.294 198.03 361.627C200.128 357.786 204.325 349.999 204.325 349.58C204.325 349.498 204.312 349.378 204.297 349.232C204.212 348.44 204.046 346.879 205.374 346.437Z" fill="#A5EF5C" />
  </g>
  <g id="bk" fill="none" transform="scale(0.078125 0.078125)">
    <path d="M246.005 34.0002C246.005 29.5818 249.586 26 254.005 26H258.005C262.423 26 266.005 29.5818 266.005 34.0002V74.0011H288.006C292.424 74.0011 296.006 77.5829 296.006 82.0013V86.0014C296.006 90.4198 292.424 94.0016 288.006 94.0016H266.005V107.702C288.619 111.375 307.267 126.867 315.405 147.633C369.74 124.044 429.533 137.053 454.419 180.157C476.201 217.885 464.645 267.244 429.508 302.614C432.12 310.146 428.597 318.563 424.566 324.43C423.167 326.467 423.794 329.398 425.885 330.714C433.795 335.694 438.47 342.895 440.761 351.331C441.157 351.433 441.539 351.533 441.908 351.631C445.416 352.568 447.472 355.748 447.375 359.379C446.986 374.015 445.129 396.142 440.02 408.954C438.552 412.634 434.623 414.06 430.783 413.38C425.525 425.288 419.347 435.666 414.123 442.337C413.79 442.761 413.383 443.082 412.933 443.299C404.105 468.187 380.354 486.011 352.44 486.011C337.266 486.011 323.322 480.744 312.336 471.938C303.861 477.414 286.388 483.811 256.861 483.811H254.661C224.976 483.811 207.474 477.345 199.05 471.85C188.048 480.708 174.061 486.011 158.836 486.011C130.856 486.011 107.059 468.103 98.2809 443.123C97.9475 442.917 97.6442 442.65 97.3867 442.321C92.1617 435.646 85.984 425.265 80.728 413.356C76.8466 414.092 72.8439 412.676 71.3593 408.954C66.25 396.142 64.3935 374.015 64.0037 359.379C63.907 355.748 65.963 352.568 69.4716 351.631C69.8869 351.52 70.3205 351.407 70.7717 351.292C73.0676 342.869 77.7436 335.679 85.6476 330.707C87.7388 329.392 88.3546 326.467 86.9557 324.43C82.9332 318.575 79.416 310.181 81.9976 302.66C46.8249 267.287 35.2495 217.901 57.041 180.157C81.9032 137.095 141.605 124.07 195.899 147.565C204.139 126.609 223.086 111.038 246.005 107.587V94.0016H224.004C219.586 94.0016 216.004 90.4198 216.004 86.0014V82.0013C216.004 77.5829 219.586 74.0011 224.004 74.0011H246.005V34.0002Z" fill="#00331A" />
    <path d="M419.745 217.898C421.089 223.714 430.683 226.454 430.945 220.491C431.372 210.742 429.323 201.306 424.491 192.897C414.528 175.56 394.889 166.335 372.304 166.009C369.875 165.974 369.912 169.941 372.265 170.545C389.299 174.912 404.091 185.25 413.038 200.82C416.165 206.261 418.384 212.003 419.745 217.898Z" fill="#FDFFA9" />
    <path d="M255.897 198.004C265.744 184.38 278.659 172.018 294.222 162.019C297.754 159.75 302.373 160.453 305.248 163.513C306.844 165.212 306.436 167.956 304.46 169.194C279.66 184.73 262.689 207.389 255.897 231.005C249.105 207.389 232.135 184.73 207.335 169.194C205.359 167.956 204.95 165.212 206.547 163.513C209.421 160.453 214.04 159.75 217.572 162.019C233.136 172.018 246.051 184.38 255.897 198.004Z" fill="#FDFFA9" />
    <path d="M255.639 285.806C248.102 285.998 239.778 286.296 231.026 286.711C228.209 286.845 226.038 289.236 226.162 292.053L226.343 296.165C226.524 300.257 230.02 303.402 234.111 303.21C241.45 302.865 248.668 302.673 255.639 302.673C262.609 302.673 270.194 302.865 277.533 303.21C281.624 303.402 285.12 300.257 285.301 296.165L285.482 292.053C285.606 289.236 283.434 286.845 280.618 286.711C271.866 286.296 263.175 285.998 255.639 285.806Z" fill="white" />
    <path d="M163.555 302.409L163.021 297.265C162.733 294.488 164.718 291.987 167.492 291.664C178.176 290.42 189.468 289.388 200.72 288.549C203.115 288.37 205.204 290.155 205.412 292.548L205.935 298.569C206.249 302.194 203.571 305.387 199.95 305.741C190.365 306.679 180.906 307.775 171.848 308.947C167.738 309.478 163.982 306.531 163.555 302.409Z" fill="white" />
    <path d="M106.223 314.783C100.162 306.863 113.801 300.859 136.071 296.417C140.404 295.552 144.555 298.47 145.347 302.816L146.157 307.264C146.675 310.107 144.743 312.816 141.889 313.271C132.206 314.815 123.662 316.322 116.801 317.63C112.956 318.362 108.602 317.89 106.223 314.783Z" fill="white" />
    <path d="M348.622 297.265L348.089 302.409C347.662 306.531 343.906 309.478 339.796 308.947C330.738 307.775 321.278 306.679 311.694 305.741C308.073 305.387 305.394 302.194 305.709 298.569L306.232 292.548C306.44 290.155 308.528 288.37 310.924 288.549C322.176 289.388 333.468 290.42 344.152 291.664C346.926 291.987 348.911 294.488 348.622 297.265Z" fill="white" />
    <path d="M405.421 314.783C411.482 306.863 397.843 300.859 375.572 296.417C371.24 295.552 367.089 298.47 366.297 302.816L365.487 307.264C364.969 310.107 366.9 312.816 369.754 313.271C379.438 314.815 387.982 316.322 394.843 317.63C398.687 318.362 403.042 317.89 405.421 314.783Z" fill="white" />
    <path d="M210.16 453.344C182.712 399.545 134.984 405.459 111.587 416.328C109.867 417.127 107.808 416.61 106.846 414.976C106.149 413.792 105.391 412.535 104.594 411.213C103.907 410.072 103.19 408.883 102.457 407.651C117.158 404.274 134.313 401.11 149.253 398.92C160.114 397.328 168.201 387.689 167.304 376.749L165.607 356.05C164.686 344.805 154.668 336.585 143.503 338.213C129.499 340.256 112.954 342.945 98.5373 345.571C102.692 341.147 108.37 336.948 115.935 333.107C128.891 328.34 174.97 318.807 255.639 318.807C336.307 318.807 382.753 328.34 395.709 333.107C403.244 336.934 408.886 341.145 413.002 345.6C398.548 342.965 381.932 340.263 367.876 338.213C356.711 336.585 346.693 344.805 345.771 356.05L344.075 376.749C343.178 387.689 351.265 397.328 362.125 398.92C377.135 401.12 394.38 404.304 409.126 407.698C408.274 409.149 407.442 410.54 406.651 411.862L406.65 411.864L406.649 411.866C406 412.951 405.379 413.989 404.798 414.976C403.836 416.61 401.777 417.127 400.057 416.328C376.66 405.459 328.932 399.545 301.484 453.344C300.759 454.765 299.616 455.98 298.15 456.61C290.949 459.7 275.02 464.377 255.639 464.377C236.257 464.377 220.695 459.7 213.494 456.61C212.027 455.98 210.885 454.765 210.16 453.344Z" fill="white" />
    <path d="M88.4775 393.075C85.3142 386.291 84.1647 374.573 83.9234 366.822C83.8635 364.9 85.1364 363.216 87.3088 362.72C95.8977 360.757 117.186 357.605 133.145 355.614C140.057 354.752 146.26 359.105 146.83 365.06L147.881 376.021C148.436 381.814 143.429 386.919 136.705 387.762C122.588 389.532 105.277 392.504 95.048 395.241C92.4254 395.943 89.4955 395.259 88.4775 393.075Z" fill="white" />
    <path d="M422.901 393.075C426.064 386.291 427.214 374.573 427.455 366.822C427.515 364.9 426.242 363.216 424.07 362.72C415.481 360.757 394.192 357.605 378.234 355.614C371.321 354.752 365.119 359.105 364.548 365.06L363.498 376.021C362.943 381.814 367.949 386.919 374.674 387.762C388.791 389.532 406.101 392.504 416.331 395.241C418.953 395.943 421.883 395.259 422.901 393.075Z" fill="white" />
  </g>
  <g id="bn" fill="none" transform="scale(0.078125 0.078125)">
    <path fill-rule="evenodd" clip-rule="evenodd" d="M250.789 286.194V317.391C250.789 320.803 250.469 324.207 249.555 327.493C244.339 346.248 229.083 380.587 199.93 400.023C172.092 418.582 166.107 455.015 166.624 477.18C166.742 482.232 171.032 486 176.084 486H461.695C467.013 486 471.408 481.858 471.597 476.543C475.449 368.362 452.541 161.851 331.368 118.845C326.977 117.287 322.291 116.662 317.632 116.662L292.497 115.87L265.321 116.662L243.524 74.2792C241.505 71.05 236.016 66.5292 230.203 74.2792C224.391 82.0292 209.214 94.4616 202.351 99.709L151.492 71.8573C147.455 70.2427 139.382 69.4354 139.382 79.1229C139.382 88.8105 140.997 118.68 141.804 132.404C131.921 139.982 113.97 156.648 107.705 172H77.2469C67.2258 172 57.8218 176.166 50.7938 183.739C47.8647 186.884 45.7146 190.554 43.9461 194.406C43.4986 194.994 43.2116 195.661 43.0618 196.409C40.4946 202.911 39.3875 210.008 40.3359 217.268L40.5588 218.897C41.5393 226.338 44.1475 233.122 47.7684 239.15C48.0447 240.03 48.5029 240.809 49.1946 241.415C56.2872 251.949 66.9092 259.54 79.0641 262.076C72.4928 273.227 66.0165 283.563 61.8821 288.616C50.9836 301.937 30.3975 369.749 95.7885 383.07C105.476 398.005 130.906 414.312 155.125 360.062C158.354 349.971 169.898 327.609 190.242 318.89C215.672 307.991 248.367 289.827 250.789 286.194ZM75.7634 339.843C81.0033 338.004 90.6636 333.959 96.0521 326.774C99.5397 322.124 95.9701 317.49 92.5565 314.526C89.9616 312.274 86.2215 312.289 83.3966 314.245C80.1544 316.491 76.2274 319.716 75.1113 322.786C73.3121 327.734 74.0077 335.192 74.4642 339.029C74.5388 339.655 75.1679 340.052 75.7634 339.843ZM156.336 93.9324L157.877 119.859L180.314 107.394L156.336 93.9324Z" fill="#00331A" />
    <path fill-rule="evenodd" clip-rule="evenodd" d="M233.187 200.834C231.904 198.054 229.635 193.77 227.51 191.494C222.411 186.014 215.588 183 208.311 183H77.0228C69.7525 183 62.9298 186.014 57.831 191.494C55.7059 193.77 54.146 196.425 52.8629 199.213C52.5383 199.638 52.33 200.12 52.2214 200.662C50.3588 205.366 49.5556 210.502 50.2437 215.755L50.4054 216.933C51.1168 222.317 53.0091 227.226 55.636 231.588C55.8365 232.225 56.1689 232.788 56.6708 233.227C63.0461 242.671 73.3521 248.845 84.8339 248.845H94.6071C108.135 248.845 120.659 242.977 129.878 233.174C129.901 233.152 129.92 233.13 129.94 233.108C129.959 233.086 129.979 233.064 130.002 233.042C134.081 228.674 137.488 223.553 140.022 217.751C140.168 217.51 140.292 217.269 140.386 216.998C140.45 216.847 140.525 216.702 140.6 216.556C140.689 216.385 140.778 216.214 140.849 216.033C142.741 211.262 142.935 206.222 141.876 201.437C141.876 201.411 141.883 201.387 141.891 201.363C141.899 201.339 141.907 201.316 141.907 201.291C141.907 200.661 141.698 200.098 141.405 199.586C140.609 196.988 139.542 194.465 137.881 192.197C137.387 191.538 136.878 190.91 136.345 190.317H149C148.467 190.91 147.949 191.539 147.477 192.19C145.817 194.458 144.75 196.982 143.954 199.579C143.654 200.098 143.444 200.661 143.444 201.291C143.444 201.317 143.452 201.341 143.46 201.365C143.468 201.388 143.475 201.412 143.475 201.437C142.417 206.222 142.618 211.269 144.518 216.069C144.583 216.236 144.664 216.392 144.745 216.549C144.817 216.688 144.889 216.829 144.951 216.977C145.044 217.262 145.175 217.526 145.338 217.774C147.81 223.451 151.14 228.478 155.119 232.787C155.14 232.813 155.161 232.839 155.182 232.865C155.29 232.997 155.392 233.124 155.529 233.24C164.738 243 177.239 248.845 190.736 248.845H200.51C211.99 248.845 222.297 242.671 228.671 233.218C229.173 232.78 229.506 232.216 229.706 231.579C232.325 227.219 234.225 222.31 234.937 216.925L235.098 215.732C235.472 212.891 235.406 210.08 234.97 207.352C254.363 189.768 274.688 190.397 282.722 193.075C288.322 193.074 296.161 191.394 282.722 184.675C269.617 178.122 244.799 192.334 233.187 200.834ZM221.896 202.51C221.345 201.492 220.685 200.446 219.935 199.548C219.801 199.383 219.683 199.205 219.564 199.028C219.407 198.792 219.249 198.556 219.055 198.346C215.732 194.739 211.354 192.755 206.733 192.755H167.155C163.08 192.755 159.264 194.8 156.674 198.367C156.523 198.577 156.412 198.807 156.301 199.038C156.218 199.211 156.134 199.383 156.034 199.548C155.683 200.23 155.167 201.332 154.711 202.51H221.896ZM157.45 219.93C157.854 220.648 158.281 221.343 158.726 222.02H222.844C223.064 221.336 223.261 220.639 223.438 219.93C223.765 218.42 224.407 214.948 224.357 213.136C224.366 212.764 224.369 212.392 224.364 212.021H154.166C154.259 212.395 154.363 212.767 154.479 213.136C154.925 214.527 156.145 217.832 157.45 219.93ZM169.646 233.517C169.025 233.11 168.157 232.383 167.217 231.531H217.476C216.851 232.298 216.256 233.001 215.809 233.517C211.415 237.756 205.702 240.31 199.569 240.31H190.591C182.997 240.31 175.785 237.844 169.646 233.517ZM63.4441 202.51H130.629C130.173 201.332 129.656 200.23 129.306 199.548C129.206 199.383 129.122 199.211 129.039 199.039C128.928 198.807 128.817 198.577 128.666 198.367C126.076 194.8 122.26 192.755 118.185 192.755H78.6073C73.9864 192.755 69.6076 194.739 66.2852 198.346C66.0908 198.556 65.9332 198.792 65.7759 199.027C65.6574 199.205 65.539 199.382 65.4048 199.548C64.6554 200.446 63.9949 201.492 63.4441 202.51ZM127.89 219.93C127.486 220.647 127.06 221.343 126.615 222.02H62.4956C62.2763 221.336 62.0788 220.639 61.9022 219.93C61.5748 218.42 60.9326 214.948 60.9832 213.136C60.974 212.764 60.9713 212.392 60.9757 212.021H131.174C131.081 212.395 130.977 212.767 130.861 213.136C130.415 214.527 129.195 217.832 127.89 219.93ZM118.124 231.531H67.8636C68.4889 232.298 69.0835 233.001 69.5306 233.517C73.9246 237.756 79.6382 240.31 85.7709 240.31H94.7493C102.343 240.31 109.555 237.844 115.694 233.517C116.315 233.11 117.183 232.382 118.124 231.531Z" fill="#A5EF5C" />
    <path d="M156.336 93.9324L157.877 119.859L180.314 107.394L156.336 93.9324Z" fill="#FDFFA9" />
    <path d="M124.286 359.868C122.711 362.945 121.571 365.225 120.95 366.81C117.789 372.333 113.582 373.39 108.049 370.136C102.091 366.893 101.386 362.862 106.039 358.033C107.333 357.096 108.384 355.863 109.106 354.438C113.759 344.698 117.706 339.786 121.126 339.786C125.778 339.786 128.317 342.242 128.586 346.977C128.586 348.387 127.188 352.687 124.286 359.868Z" fill="#FDFFA9" />
    <path d="M272.544 271.439C284.564 255.648 290.449 238.105 290.263 218.801C289.569 213.102 286.325 210.304 280.523 210.304C272.637 210.304 269.57 213.195 271.228 218.977C271.756 228.458 270.886 236.261 268.43 242.405C264.472 252.145 260.089 259.43 255.354 264.248C252.722 269.429 254.297 273.201 260.006 275.563C265.446 278.112 269.653 276.796 272.544 271.439Z" fill="#FDFFA9" />
    <path d="M435.453 458C438.031 458 440.185 456.102 440.39 453.533C447.104 369.491 426.2 199.56 326.5 147.5C326.073 147.358 325.552 147.166 324.929 146.938C319.508 144.947 306.439 140.148 281.958 140.685C278.404 140.763 276.198 144.509 277.746 147.709L279.449 151.229C281.025 154.484 284.221 156.573 287.792 157.145C335.213 164.746 415.514 232.633 403.316 452.597C403.157 455.475 405.435 458 408.318 458H435.453Z" fill="#FDFFA9" />
    <path d="M75.7633 339.843C81.0032 338.005 90.6635 333.959 96.052 326.774C99.5396 322.124 95.97 317.49 92.5564 314.527C89.9615 312.274 86.2214 312.289 83.3965 314.245C80.1544 316.491 76.2273 319.716 75.1112 322.786C73.312 327.734 74.0076 335.193 74.4641 339.029C74.5387 339.655 75.1678 340.052 75.7633 339.843Z" fill="#FDFFA9" />
  </g>
  <g id="bp" fill="none" transform="scale(0.078125 0.078125)">
    <path d="M387.927 402.463C386.362 395.236 379.088 389.52 371.636 389.52H348.721L280.437 138.221C279.919 132.533 264.199 131 254.856 131C245.513 131 229.791 132.533 229.267 138.221L160.995 389.52H140.535C133.08 389.52 125.803 395.236 124.258 402.463L108.418 468.751C106.165 478.18 113.313 487.237 123.007 487.237H388.25C397.863 487.237 404.994 478.323 402.884 468.945L387.927 402.463Z" fill="#00331A" />
    <path d="M254.995 449.46C204.958 449.46 164.207 438.938 162.386 425.798C162.904 418.771 168.027 417.536 170.523 417.796C185.04 426.337 217.419 432.289 255.052 432.289C292.678 432.289 325.056 426.342 339.571 417.805C342.264 417.541 347.638 418.771 347.596 425.798C345.797 438.941 305.039 449.46 254.995 449.46Z" fill="#FDFFA9" />
    <path d="M204.735 315.856C224.595 320.754 264.205 325.587 305.457 315.722C308.787 314.926 310.737 311.508 309.84 308.204C308.912 304.785 305.319 302.846 301.89 303.735C269.253 312.194 229.537 307.748 208.255 303.343C204.768 302.621 201.26 304.676 200.329 308.113C199.411 311.503 201.325 315.015 204.735 315.856Z" fill="#FDFFA9" />
    <path d="M237.316 196.44C246.306 197.57 259.957 198.361 272.897 196.547C276.361 196.062 278.459 192.595 277.542 189.219C276.684 186.058 273.486 184.154 270.244 184.624C258.974 186.259 247.384 185.548 239.74 184.517C236.54 184.085 233.411 186.001 232.566 189.118C231.642 192.531 233.808 196 237.316 196.44Z" fill="#FDFFA9" />
  </g>
  <g id="bq" fill="none" transform="scale(0.078125 0.078125)">
    <path d="M255.562 138.54C154.456 138.54 72.2019 210.295 72.2019 298.49C72.2019 337.187 75.2601 381.094 111.758 412.455C125.73 424.46 147.068 431.318 164.212 436.831C166.396 437.533 168.498 438.21 170.479 438.864C171.524 439.21 171.999 439.367 173.325 446.322C174.746 453.774 176.691 463.977 187.139 473.09C190.937 476.401 202.491 486.483 256.111 487H256.249H256.386C310.006 486.483 321.561 476.404 325.359 473.09C335.804 463.976 337.752 453.774 339.173 446.322C340.499 439.367 340.977 439.21 342.022 438.864C344.003 438.21 346.101 437.536 348.285 436.831C365.43 431.318 386.768 424.46 400.736 412.455C437.238 381.096 440.296 337.186 440.296 298.49C440.289 210.293 357.42 138.54 255.561 138.54H255.562Z" fill="#00331A" />
    <path d="M179.5 335.215C156.987 335.215 143 345.203 143 361.28C143 379.306 159.716 394.534 179.5 394.534C200.307 394.534 216 381.783 216 364.874C216 347.966 200.308 335.215 179.5 335.215Z" fill="#A5EF5C" />
    <path d="M331.5 335.216C310.693 335.216 295 347.967 295 364.874C295 381.783 310.692 394.534 331.5 394.534C351.283 394.534 368 379.304 368 361.28C368 345.203 354.014 335.216 331.5 335.216Z" fill="#A5EF5C" />
    <path d="M256.51 382.332C261.201 382.132 265.41 384.743 266.74 388.671L277.577 420.632C279.173 425.333 276.115 430.276 270.75 431.672C269.79 431.924 268.816 432.044 267.862 432.044C264.206 432.044 260.783 430.295 258.999 427.465C256.939 430.725 252.664 432.615 248.252 431.886C242.753 430.977 239.14 426.332 240.178 421.514L247.071 389.55C247.941 385.524 251.84 382.541 256.51 382.332Z" fill="#A5EF5C" />
    <path d="M273.691 94.2999C285.208 87.8993 293 75.6096 293 61.5C293 40.7893 276.211 24 255.5 24C234.789 24 218 40.7893 218 61.5C218 76.5821 226.904 89.5847 239.742 95.5381C234.181 250.789 199.251 182.906 175.073 105.787C180.641 99.2438 184 90.7642 184 81.5C184 60.7893 167.211 44 146.5 44C125.789 44 109 60.7893 109 81.5C109 99.8289 122.15 115.087 139.53 118.353C161.763 248.256 121.897 239.752 88.1795 176.575C91.8654 170.771 94 163.885 94 156.5C94 135.789 77.2107 119 56.5 119C35.7893 119 19 135.789 19 156.5C19 177.211 35.7893 194 56.5 194C56.8111 194 57.1214 193.996 57.4308 193.989C66.4776 227.486 71.4502 275.094 73 299.5C73 287.031 155.38 276.923 257 276.923C358.62 276.923 441 287.031 441 299.5C442.033 275.097 446.088 227.495 454.746 193.999C475.344 193.867 492 177.128 492 156.5C492 135.789 475.211 119 454.5 119C433.789 119 417 135.789 417 156.5C417 163.802 419.087 170.617 422.697 176.38C387.279 235.889 346.878 241.191 374.33 117.698C390.273 113.38 402 98.8093 402 81.5C402 60.7893 385.211 44 364.5 44C343.789 44 327 60.7893 327 81.5C327 92.3567 331.614 102.136 338.987 108.984C314.236 186.392 279.037 252.476 273.691 94.2999Z" fill="#00331A" />
    <path d="M255.5 80C265.717 80 274 71.7173 274 61.5C274 51.2827 265.717 43 255.5 43C245.283 43 237 51.2827 237 61.5C237 71.7173 245.283 80 255.5 80Z" fill="#FDFFA9" />
    <path d="M165 81.5C165 91.7173 156.717 100 146.5 100C136.283 100 128 91.7173 128 81.5C128 71.2827 136.283 63 146.5 63C156.717 63 165 71.2827 165 81.5Z" fill="#FDFFA9" />
    <path d="M364.5 100C374.717 100 383 91.7173 383 81.5C383 71.2827 374.717 63 364.5 63C354.283 63 346 71.2827 346 81.5C346 91.7173 354.283 100 364.5 100Z" fill="#FDFFA9" />
    <path d="M473 156.5C473 166.717 464.717 175 454.5 175C444.283 175 436 166.717 436 156.5C436 146.283 444.283 138 454.5 138C464.717 138 473 146.283 473 156.5Z" fill="#FDFFA9" />
    <path d="M75 156.5C75 166.717 66.7173 175 56.5 175C46.2827 175 38 166.717 38 156.5C38 146.283 46.2827 138 56.5 138C66.7173 138 75 146.283 75 156.5Z" fill="#FDFFA9" />
    <path d="M424.988 268.927C427.165 243.943 431.082 213.034 437.407 188.393C428.561 203.226 418.961 215.763 409.338 224.442C403.91 229.337 397.809 233.611 391.254 235.993C384.609 238.408 376.439 239.206 368.382 235.122C352.003 226.822 347.877 205.623 347.339 188.153C346.769 169.658 349.731 145.113 356.553 114.064C350.291 133.849 343.188 153.543 335.83 169.56C331.911 178.091 327.673 186.123 323.167 192.714C318.991 198.823 313.088 205.954 305.325 209.541C301.088 211.499 295.97 212.542 290.446 211.325C284.916 210.107 280.391 206.934 276.914 203.114C270.529 196.101 266.812 186.005 264.298 176.082C260.781 162.205 258.252 128.761 256.728 103.254C255.208 128.152 252.717 161.156 249.261 174.73C246.783 184.463 243.099 194.476 236.712 201.413C233.223 205.202 228.68 208.33 223.14 209.477C217.618 210.62 212.536 209.5 208.365 207.51C200.724 203.865 194.934 196.76 190.846 190.702C186.43 184.16 182.279 176.203 178.441 167.761C170.74 150.823 164.423 134.94 158 114.064C164.216 149.15 164.918 172.384 163.601 192.348C162.943 202.321 161.33 211.626 158.182 219.518C154.969 227.572 149.633 235.321 141.311 239.336C133.001 243.346 124.698 242.191 118.042 239.397C111.515 236.657 105.553 231.978 100.325 226.749C91.9629 218.385 83.7111 206.826 76.0425 193.303C81.9534 217.116 85.9954 245.731 88.4586 269.063C98.3188 266.635 110.78 264.556 124.995 262.811C159.1 258.627 205.763 256.083 257 256.083C308.237 256.083 354.9 258.627 389.005 262.811C402.956 264.523 415.217 266.557 424.988 268.927Z" fill="#FDFFA9" />
  </g>
  <g id="br" fill="none" transform="scale(0.078125 0.078125)">
    <path d="M328.469 486.071H131.179C123.348 486.071 117 478.927 117 470.114V81.2916C117 75.0413 119.925 69.2527 124.698 66.0563L164.771 39.2203C169.853 35.817 175.831 34 181.948 34H375.279C386.645 34 395.859 43.214 395.859 54.58V407.05C395.859 413.422 393.826 419.583 390.129 424.41L352.339 473.759C346.353 481.576 337.638 486.071 328.469 486.071Z" fill="#00331A" />
    <path d="M208.899 296.317C207.265 294.535 205.855 292.679 204.667 290.749C203.479 288.67 202.588 286.591 201.994 284.512C201.697 285.552 201.474 286.517 201.326 287.408L200.435 290.081L199.544 292.308C199.098 293.05 198.504 293.719 197.762 294.313C198.95 295.352 199.841 296.169 200.435 296.763C201.029 297.357 201.548 298.025 201.994 298.767L203.108 300.995C203.553 301.886 204.221 303.148 205.112 304.781C206.894 307.899 208.453 311.092 209.789 314.359C210.977 317.477 211.868 320.595 212.462 323.713C210.68 325.05 208.899 326.238 207.117 327.277C205.186 328.316 203.33 329.059 201.548 329.504C200.361 338.562 198.727 347.249 196.648 355.564C194.57 363.879 192.194 371.601 189.521 378.728C193.976 382.737 198.801 385.855 203.998 388.083C209.195 390.31 214.615 391.646 220.258 392.092L220.481 304.336C218.253 303.445 216.175 302.331 214.244 300.995C212.165 299.51 210.384 297.951 208.899 296.317Z" fill="#A5EF5C" />
    <path d="M188.853 352.446C190.783 344.873 192.491 337.077 193.976 329.059C191.897 324.604 189.447 320.15 186.625 315.695C183.804 311.24 180.537 307.008 176.825 302.999C175.34 310.869 173.41 318.219 171.034 325.05C168.51 331.88 165.54 337.968 162.125 343.314C163.61 346.58 165.095 349.624 166.58 352.446C168.064 355.267 169.698 357.94 171.48 360.464C173.113 362.84 174.895 365.141 176.825 367.369C178.607 369.596 180.537 371.749 182.616 373.828C184.844 367.146 186.922 360.019 188.853 352.446Z" fill="#A5EF5C" />
    <path d="M285.964 259.789C286.558 258.453 286.855 256.968 286.855 255.335V247.984H297.323C296.135 243.084 294.799 238.407 293.314 233.952C291.829 229.349 290.27 224.82 288.636 220.366C285.221 226.454 282.4 233.358 280.173 241.08C277.945 248.801 276.609 257.265 276.164 266.471C277.648 266.471 279.059 266.248 280.395 265.803C281.583 265.209 282.697 264.392 283.736 263.353C284.627 262.314 285.37 261.126 285.964 259.789Z" fill="#A5EF5C" />
    <path d="M280.395 290.526C279.059 289.784 277.648 289.413 276.164 289.413C276.46 294.016 277.054 298.47 277.945 302.777C278.688 307.083 279.653 311.24 280.841 315.249C281.88 319.11 283.142 322.822 284.627 326.386C286.112 329.95 287.746 333.291 289.527 336.409C291.161 332.103 292.646 327.648 293.982 323.045C295.318 318.442 296.506 313.616 297.546 308.568L286.855 308.122V300.549C286.855 299.213 286.558 297.876 285.964 296.54C285.37 295.204 284.627 294.016 283.736 292.976C282.697 291.937 281.583 291.12 280.395 290.526Z" fill="#A5EF5C" />
    <path d="M266.809 260.235C267.403 261.72 268.294 262.982 269.482 264.021C269.927 258.824 270.669 253.924 271.709 249.321C272.6 244.569 273.713 240.115 275.05 235.957C276.386 231.651 277.945 227.642 279.727 223.929C281.509 220.217 283.514 216.876 285.741 213.907C283.068 207.819 279.95 202.102 276.386 196.756C272.823 191.262 268.962 186.214 264.804 181.61C261.686 190.817 259.013 201.062 256.786 212.347C254.41 223.484 252.703 235.437 251.663 248.207L253.445 247.984V308.122L251.663 307.899C252.109 314.136 252.777 320.224 253.668 326.163C254.41 332.103 255.375 337.894 256.563 343.536C257.603 349.03 258.865 354.302 260.35 359.35C261.686 364.399 263.171 369.225 264.804 373.828C269.11 369.225 273.045 364.325 276.609 359.128C280.173 353.782 283.217 348.214 285.741 342.423C283.514 339.453 281.509 336.112 279.727 332.4C277.945 328.688 276.386 324.753 275.05 320.595C273.713 316.289 272.6 311.834 271.709 307.231C270.669 302.48 269.927 297.505 269.482 292.308C268.294 293.347 267.403 294.61 266.809 296.095C266.066 297.579 265.695 299.139 265.695 300.772V308.122H259.236V247.984H265.695V255.557C265.695 257.042 266.066 258.601 266.809 260.235Z" fill="#A5EF5C" />
    <path d="M186.18 250.657C189.447 249.172 192.862 248.207 196.426 247.762C195.089 235.14 193.307 223.336 191.08 212.347C188.704 201.211 185.883 191.114 182.616 182.056C178.756 186.065 175.118 190.594 171.702 195.643C168.139 200.543 164.946 206.037 162.125 212.125C165.837 217.767 169.03 224.375 171.702 231.948C174.227 239.372 176.083 247.39 177.271 256.003C179.943 253.776 182.913 251.994 186.18 250.657Z" fill="#A5EF5C" />
    <path d="M161.011 288.744C159.526 288.15 158.042 287.779 156.557 287.631C156.408 286.294 156.557 285.106 157.002 284.067C157.448 283.028 158.116 282.137 159.007 281.394C159.898 280.503 160.937 279.909 162.125 279.612C163.164 279.167 164.278 279.018 165.466 279.167C165.466 276.346 165.986 273.599 167.025 270.926C167.916 268.253 169.178 265.951 170.811 264.021C170.366 259.715 169.846 255.483 169.252 251.325C168.51 247.168 167.619 243.159 166.58 239.298C165.392 235.437 164.129 231.799 162.793 228.384C161.457 224.82 159.972 221.554 158.338 218.584C155.072 227.493 152.547 236.996 150.766 247.094C148.835 257.042 147.87 267.362 147.87 278.053C147.87 288.447 148.761 298.47 150.543 308.122C152.325 317.774 154.775 327.054 157.893 335.964C160.863 330.915 163.461 325.05 165.689 318.368C167.767 311.537 169.252 304.187 170.143 296.317C169.698 295.129 169.03 294.016 168.139 292.976C167.099 291.937 165.986 291.12 164.798 290.526C163.61 289.784 162.348 289.19 161.011 288.744Z" fill="#A5EF5C" />
    <path d="M212.24 253.998C214.912 255.335 217.659 256.3 220.481 256.894L220.258 164.683C214.764 164.831 209.493 165.945 204.444 168.024C199.247 169.954 194.347 172.775 189.744 176.488C191.674 181.388 193.456 186.659 195.089 192.302C196.574 197.796 197.985 203.587 199.321 209.675C200.509 215.614 201.548 221.851 202.439 228.384C203.33 234.918 204.073 241.674 204.667 248.653C207.043 250.731 209.567 252.513 212.24 253.998Z" fill="#A5EF5C" />
    <path d="M228.722 164.906V257.562C231.246 257.413 233.845 256.968 236.517 256.226C239.042 255.335 241.417 254.072 243.645 252.439C244.09 245.163 244.833 238.11 245.872 231.28C246.763 224.449 247.877 217.916 249.213 211.679C250.401 205.294 251.812 199.28 253.445 193.638C254.93 187.847 256.637 182.427 258.568 177.379C254.113 173.666 249.436 170.771 244.536 168.692C239.487 166.613 234.216 165.351 228.722 164.906Z" fill="#A5EF5C" />
    <path d="M246.317 327.945C245.427 321.56 244.758 315.027 244.313 308.345C241.789 308.642 239.264 308.716 236.74 308.568C234.067 308.419 231.394 307.974 228.722 307.231L228.499 392.092C233.993 391.349 239.339 389.865 244.536 387.637C249.733 385.261 254.559 382.217 259.013 378.505C257.083 373.754 255.375 368.705 253.89 363.36C252.257 357.865 250.846 352.223 249.658 346.432C248.322 340.492 247.208 334.33 246.317 327.945Z" fill="#A5EF5C" />
    <path d="M291.977 292.976V304.113H314.251V299.658H305.341V293.867H300.664V299.658H296.655V292.976H291.977Z" fill="#A5EF5C" />
    <path d="M291.977 285.403V290.081H314.251V285.403H291.977Z" fill="#A5EF5C" />
    <path fill-rule="evenodd" clip-rule="evenodd" d="M291.977 275.158V282.062H314.251V275.158C314.251 274.267 314.102 273.376 313.805 272.485C313.657 272.04 313.434 271.668 313.137 271.371L312.023 270.258C311.132 269.664 310.019 269.218 308.682 268.921C307.346 268.476 305.49 268.253 303.114 268.253C302.223 268.253 301.481 268.327 300.887 268.476C300.144 268.476 299.402 268.55 298.659 268.699C297.323 268.847 296.135 269.218 295.096 269.812C294.056 270.406 293.24 271.074 292.646 271.817C292.2 272.708 291.977 273.821 291.977 275.158ZM309.351 277.608H296.878L296.878 276.271C296.878 275.083 297.323 274.193 298.214 273.599C299.253 273.153 300.887 272.93 303.114 272.93C305.045 272.93 306.381 273.005 307.123 273.153C308.014 273.45 308.534 273.821 308.683 274.267C308.831 274.415 308.979 274.712 309.128 275.158C309.276 275.455 309.351 275.826 309.351 276.271V277.608Z" fill="#A5EF5C" />
    <path d="M291.977 253.776V266.026H314.251V253.553H309.351V261.571H304.896V254.221H300.219V261.571H296.655V253.776H291.977Z" fill="#A5EF5C" />
    <path d="M323.709 84.2154H144.608C140.577 84.2154 132.255 82.046 135.059 78.9031C139.043 74.438 145.102 74.4674 150.886 74.4955C151.342 74.4978 151.795 74.5 152.246 74.5H320.483C327.281 74.5 335.79 74.411 341.322 70.1221L366.5 51C371.074 47.4539 379.54 42.1558 384.026 45.8332C386 47.4999 378.149 53.9953 374.753 56.7927L352 75.4999C343.871 82.1959 343.5 91.7308 343.5 102.809V443.161C343.5 449.334 342.745 459.465 337.488 461.82C333.791 463.476 333.5 456.314 333.5 451.972V98.3816C333.5 90.4131 328.213 84.2154 323.709 84.2154Z" fill="#FDFFA9" />
    <path d="M185.159 49.0604L179.906 51.9029C176.44 53.7787 178.011 58.319 182.127 58.319H227.854C231.046 58.319 234.159 57.4832 236.766 55.9265L241.118 53.3275C244.401 51.3674 242.76 47 238.742 47H193.487C190.535 47 187.645 47.715 185.159 49.0604Z" fill="#FDFFA9" />
    <path d="M268.684 49.8011L265.232 52.1004C262.161 54.1458 263.872 58.319 267.781 58.319H316.33C319.536 58.319 322.662 57.4758 325.276 55.9064L329.579 53.3222C332.851 51.3574 331.207 47 327.194 47H278.244C274.775 47 271.408 47.9866 268.684 49.8011Z" fill="#FDFFA9" />
  </g>
  <g id="wb" fill="none" transform="scale(0.078125 0.078125)">
    <path d="M155.535 228.37C193.7 173.432 186.986 85.4504 255.731 85.4504C324.475 85.4504 317.758 173.435 355.927 228.37C386.809 272.821 407.466 311.032 407.466 350.868C407.466 439.365 344.751 489.766 256.603 490.426L256.606 490.454C256.313 490.454 256.031 490.443 255.735 490.44C255.442 490.443 255.159 490.454 254.863 490.454V490.429C166.712 489.766 104 439.366 104 350.871C104.007 311.033 124.664 272.823 155.546 228.374L155.535 228.37Z" fill="#1F1A17" />
    <path fill-rule="evenodd" clip-rule="evenodd" d="M193.727 188.72C190.169 198.501 186.124 208.655 181.145 218.561L176.071 228.05L169.619 238.151C138.809 282.496 121.143 316.824 121.136 350.874C121.136 390.799 135.129 420.652 157.763 440.783C180.663 461.151 214.039 472.986 254.992 473.294L255.495 473.298L256.475 473.29C297.426 472.984 330.801 461.15 353.702 440.782C376.337 420.65 390.33 390.795 390.33 350.868C390.33 316.824 372.666 282.496 341.854 238.147C331.038 222.58 323.701 205.126 317.733 188.722C315.168 181.672 312.954 175.14 310.844 168.915C307.736 159.747 304.855 151.246 301.411 142.74C295.855 129.016 290.177 119.058 283.249 112.509C276.941 106.546 268.742 102.586 255.731 102.586C242.72 102.586 234.52 106.546 228.212 112.509C221.284 119.058 215.605 129.016 210.049 142.739C206.605 151.245 203.723 159.747 200.615 168.915L200.614 168.92C198.505 175.143 196.291 181.673 193.727 188.72Z" fill="#FDFFA9" />
    <path d="M244.634 119.424C244.818 119.82 245.027 120.193 245.256 120.54C241.806 120.827 238.754 120.745 236.71 120.528C233.019 120.135 229.709 122.809 229.317 126.499C228.924 130.19 231.598 133.5 235.288 133.892C239.665 134.358 246.574 134.345 253.735 132.896C260.815 131.465 268.979 128.459 274.926 122.264C277.496 119.586 277.41 115.333 274.732 112.762C272.055 110.192 267.801 110.279 265.231 112.956C264.8 113.405 264.336 113.833 263.844 114.241C260.07 105.879 250.467 80.7426 254.952 50.7997C255.351 48.1409 253.619 45.5814 250.972 45.1103L239.538 43.075C236.965 42.617 234.488 44.3028 234.081 46.8841C228.981 79.2532 238.584 106.386 244.634 119.424Z" fill="#1F1A17" />
    <path d="M349.297 395.86C344.321 404.274 338.122 411.684 330.861 418.02L330.861 418.024C329.624 419.103 328.356 420.151 327.058 421.168C324.376 423.269 321.285 419.166 323.326 416.438C360.891 366.226 335.237 289.234 322.643 251.439C322.05 249.658 321.485 247.964 320.958 246.364C320.729 245.381 322.181 244.784 322.732 245.63C323.431 246.7 324.121 247.727 324.729 248.602C347.875 281.864 363.3 310.564 363.3 340.402C363.3 362.016 358.309 380.604 349.297 395.86Z" fill="#1F1A17" />
    <path fill-rule="evenodd" clip-rule="evenodd" d="M230.512 279.792L221.07 245.746C218.552 244.908 217.573 253.777 217.398 258.317C217.748 260.587 218.132 265.126 216.873 265.126C215.614 265.126 215.649 270.713 215.824 273.507C213.306 276.021 210.579 280.84 209.53 282.935C205.753 283.354 196.765 286.602 192.744 288.173C192.744 289.2 191.624 290.003 190.409 290.874C189.764 291.337 189.093 291.819 188.547 292.363L183.301 297.601C181.666 296.295 180.439 299.468 179.492 301.916L179.386 302.19C178.862 303.54 178.426 304.595 178.056 304.411C177.217 303.991 171.761 313.664 169.138 318.553C169.558 319.391 165.466 332.171 163.368 338.457C158.647 340.203 149.1 343.695 148.68 343.695C148.53 343.695 147.989 343.825 147.271 343.997C145.489 344.425 142.609 345.116 141.861 344.742C140.812 344.219 140.287 347.361 140.287 349.457C140.287 350.87 146.499 351.092 150.86 351.247C152.962 351.322 154.634 351.381 154.975 351.552C155.814 351.971 156.724 350.33 157.073 349.457C157.598 350.155 158.752 351.447 159.172 351.028C159.591 350.609 163.193 350.853 164.942 351.028C164.942 352.425 165.257 355.323 166.515 355.742C166.166 356.091 165.676 357.628 166.515 360.98C167.565 365.17 169.663 368.837 169.663 369.361C169.663 369.78 173.16 373.726 174.908 375.646L175.958 376.17V377.218L181.006 381.608C181.947 382.503 182.449 382.979 182.252 382.979C181.413 382.979 181.903 387.868 182.252 390.312C181.413 390.312 180.853 393.455 180.679 395.026C178.58 397.541 179.804 402.01 180.679 403.931C184.036 404.769 185.225 403.232 185.4 402.36C185.924 401.312 186.973 398.903 186.973 397.645C186.973 396.388 188.022 394.677 188.547 393.979C188.897 392.058 189.806 388.322 190.645 388.741C190.645 387.868 190.855 386.227 191.694 386.646C192.394 387.17 194.002 388.217 194.842 388.217C195.681 388.217 198.339 390.662 199.563 391.884C200.612 392.408 203.235 393.35 205.333 392.931C206.732 393.455 209.739 394.503 210.579 394.503C211.418 394.503 212.327 395.201 212.677 395.55C214.95 395.725 219.706 396.074 220.545 396.074C221.594 396.074 228.414 397.645 229.987 396.074C231.561 394.503 236.807 397.122 236.807 395.55C241.843 394.712 250.096 389.963 253.593 387.693C254.992 387.519 257.475 387.379 256.216 388.217C254.957 389.055 258.139 390.662 259.888 391.36C259.468 394.293 263.21 399.915 265.133 402.36C268.106 404.28 273.421 406.655 270.903 400.788C268.385 394.922 267.406 384.027 267.231 379.313C265.553 379.313 267.581 374.773 268.805 372.503C270.903 371.281 274.89 368.313 274.051 366.218C273.211 364.123 274.75 362.551 275.624 362.028C275.275 360.456 274.785 357.523 275.624 358.361C276.464 359.199 277.373 354.869 277.723 352.599C276.044 351.761 277.373 347.711 278.247 345.79C280.345 346.628 284.017 344.742 285.591 343.695C286.011 341.6 295.907 339.679 300.803 338.981L301.852 334.267L278.772 332.695C278.772 329.762 277.373 326.934 276.673 325.886C280.031 323.372 276.324 316.109 274.051 312.791C274.89 309.439 266.707 300.919 262.51 297.077C260.412 293.725 256.74 290.094 255.166 288.697C252.544 288.522 246.459 287.23 243.101 283.459C239.744 279.688 233.31 279.443 230.512 279.792ZM228.414 314.363C226.735 313.944 222.818 300.919 221.07 294.459C221.07 294.675 220.186 296.758 219.138 299.229L219.137 299.23C218.154 301.549 217.026 304.207 216.349 305.982C217.499 307.895 216.128 312.325 215.307 314.982C215.004 315.961 214.775 316.699 214.775 316.982C214.775 317.253 214.14 318.546 213.273 320.313C210.795 325.359 206.421 334.267 209.53 334.267C212.887 334.267 219.671 335.663 222.644 336.362C228.099 335.943 234.359 333.743 236.807 332.695C234.709 326.759 230.092 314.782 228.414 314.363ZM260.937 345.266C258.838 346.523 255.866 346.139 254.642 345.79C255.901 347.885 255.166 351.552 254.642 353.123C256.32 355.218 256.39 358.536 256.216 359.932C257.265 360.456 259.468 361.713 259.887 362.551C260.307 363.389 261.111 361.853 261.461 360.98C261.042 360.142 261.286 358.186 261.461 357.313C263.559 354.799 264.783 348.234 265.133 345.266C264.609 344.742 263.035 344.009 260.937 345.266ZM192.219 309.125C193.898 307.03 202.71 301.617 206.907 299.173C207.326 302.106 204.983 307.379 203.759 309.648C203.41 311.744 202.395 316.039 201.137 316.458C199.878 316.877 199.913 320.823 200.087 322.743C197.57 326.096 196.94 331.822 196.94 334.267C196.52 334.686 191.52 333.743 189.072 333.219C188.022 333.743 177.531 336.362 179.105 333.743C180.679 331.124 181.203 329.029 180.679 329.029C180.259 329.029 181.903 325.537 182.777 323.791C181.938 322.953 183.476 321.346 184.351 320.648C183.092 318.553 186.624 314.886 188.547 313.315C189.072 312.791 190.54 311.22 192.219 309.125ZM179.105 349.457C181.203 349.282 185.61 348.828 186.449 348.409C187.498 348.584 190.016 348.828 191.694 348.409C190.296 350.33 187.603 354.485 188.022 355.742C186.799 357.837 184.665 362.342 185.924 363.599C185.414 364.788 184.606 367.232 185.334 367.75C183.568 366.688 180.264 364.537 180.679 364.123C181.098 363.704 180.154 359.758 179.629 357.837C179.455 356.441 179.21 353.542 179.629 353.123C179.105 352.076 178.266 349.876 179.105 349.457ZM236.807 298.125C240.828 300.744 248.977 305.982 249.396 305.982C249.921 305.982 260.937 315.934 263.559 324.315C264.609 324.838 266.707 327.248 266.707 332.695C266.332 332.695 265.822 332.735 265.271 332.777C264.024 332.873 262.568 332.986 261.986 332.695C261.146 332.276 253.243 333.219 249.396 333.743C248.347 330.076 245.514 321.905 242.577 318.553C242.927 318.029 243.101 316.143 241.003 312.791C238.38 308.601 234.184 299.696 236.807 298.125ZM206.382 346.838C209.18 346.663 214.985 346.628 215.824 347.885C217.223 347.187 220.545 346.209 222.644 347.885C224.742 349.561 235.058 347.885 239.954 346.838C240.304 348.933 241.213 353.018 242.052 352.599C241.528 353.123 241.633 356.266 246.249 364.647C246.424 367.266 247.193 372.503 248.872 372.503C250.55 372.503 249.221 374.599 248.347 375.646C247.298 376.868 244.361 379.522 241.003 380.36C236.807 381.408 231.037 382.979 228.938 384.027C227.26 384.865 219.496 383.678 215.824 382.979L215.3 384.027C213.202 382.281 208.48 379.103 206.382 380.36C204.459 378.614 200.402 375.437 199.563 376.694C198.514 378.265 196.416 371.98 197.465 372.503C198.304 372.922 198.863 365.694 199.038 362.028C201.137 358.186 205.333 350.399 205.333 349.98C205.333 349.899 205.32 349.779 205.305 349.632C205.22 348.841 205.054 347.28 206.382 346.838Z" fill="#003C1F" />
  </g>
  <g id="wk" fill="none" transform="scale(0.078125 0.078125)">
    <path d="M246.005 34.0002C246.005 29.5818 249.586 26 254.005 26H258.005C262.423 26 266.005 29.5818 266.005 34.0002V74.0011H288.006C292.424 74.0011 296.006 77.5829 296.006 82.0013V86.0014C296.006 90.4198 292.424 94.0016 288.006 94.0016H266.005V107.702C288.619 111.375 307.267 126.867 315.405 147.633C369.74 124.044 429.533 137.053 454.419 180.157C476.201 217.885 464.645 267.244 429.508 302.614C432.12 310.146 428.597 318.563 424.566 324.43C423.167 326.467 423.794 329.398 425.885 330.714C433.795 335.694 438.47 342.895 440.761 351.331C441.157 351.433 441.539 351.533 441.908 351.631C445.416 352.568 447.472 355.748 447.375 359.379C446.986 374.015 445.129 396.142 440.02 408.954C438.552 412.634 434.623 414.06 430.783 413.38C425.525 425.288 419.347 435.666 414.123 442.337C413.79 442.761 413.383 443.082 412.933 443.299C404.106 468.187 380.354 486.011 352.44 486.011C337.266 486.011 323.322 480.744 312.336 471.938C303.861 477.414 286.388 483.811 256.861 483.811H254.661C224.976 483.811 207.474 477.345 199.05 471.85C188.048 480.708 174.061 486.011 158.836 486.011C130.856 486.011 107.059 468.103 98.2806 443.123C97.9473 442.917 97.6441 442.65 97.3868 442.321C92.1617 435.646 85.984 425.265 80.7281 413.356C76.8466 414.092 72.8439 412.676 71.3593 408.954C66.25 396.142 64.3936 374.015 64.0038 359.379C63.9071 355.748 65.963 352.568 69.4717 351.631C69.8869 351.52 70.3205 351.407 70.7718 351.292C73.0677 342.869 77.7436 335.679 85.6477 330.707C87.7388 329.392 88.3547 326.467 86.9557 324.43C82.9332 318.575 79.416 310.181 81.9976 302.66C46.8249 267.287 35.2495 217.901 57.041 180.157C81.9032 137.095 141.605 124.069 195.899 147.565C204.139 126.609 223.086 111.038 246.005 107.587V94.0016H224.004C219.586 94.0016 216.004 90.4198 216.004 86.0014V82.0013C216.004 77.5829 219.586 74.0011 224.004 74.0011H246.005V34.0002Z" fill="#1F1A17" />
    <path d="M255.639 285.806C248.102 285.998 239.778 286.296 231.026 286.711C228.21 286.845 226.038 289.236 226.162 292.053L226.344 296.165C226.524 300.257 230.02 303.402 234.111 303.21C241.45 302.865 248.668 302.673 255.639 302.673C262.61 302.673 270.194 302.865 277.533 303.21C281.624 303.402 285.121 300.257 285.301 296.165L285.482 292.053C285.606 289.236 283.435 286.845 280.618 286.711C271.866 286.296 263.175 285.998 255.639 285.806Z" fill="white" />
    <path d="M163.555 302.409L163.022 297.265C162.734 294.488 164.719 291.987 167.492 291.664C178.176 290.42 189.468 289.388 200.72 288.549C203.116 288.37 205.204 290.155 205.412 292.548L205.935 298.569C206.25 302.194 203.571 305.387 199.95 305.741C190.366 306.679 180.906 307.775 171.848 308.947C167.738 309.478 163.983 306.531 163.555 302.409Z" fill="white" />
    <path d="M106.224 314.783C100.162 306.863 113.801 300.859 136.072 296.417C140.405 295.552 144.555 298.47 145.347 302.816L146.157 307.264C146.675 310.107 144.744 312.816 141.89 313.271C132.206 314.815 123.662 316.322 116.801 317.63C112.957 318.362 108.602 317.89 106.224 314.783Z" fill="white" />
    <path d="M348.623 297.265L348.089 302.409C347.662 306.531 343.907 309.478 339.797 308.947C330.738 307.775 321.279 306.679 311.694 305.741C308.073 305.387 305.395 302.194 305.709 298.569L306.232 292.548C306.44 290.155 308.529 288.37 310.924 288.549C322.176 289.388 333.468 290.42 344.152 291.664C346.926 291.987 348.911 294.488 348.623 297.265Z" fill="white" />
    <path d="M405.421 314.783C411.483 306.863 397.843 300.859 375.573 296.417C371.24 295.552 367.089 298.47 366.297 302.816L365.487 307.264C364.969 310.107 366.901 312.816 369.755 313.271C379.438 314.815 387.982 316.322 394.843 317.63C398.688 318.362 403.042 317.89 405.421 314.783Z" fill="white" />
    <path d="M210.16 453.344C182.712 399.545 134.984 405.459 111.587 416.328C109.868 417.127 107.809 416.61 106.847 414.976C106.149 413.792 105.391 412.535 104.595 411.213C103.907 410.072 103.19 408.883 102.458 407.651C117.158 404.274 134.313 401.11 149.254 398.92C160.114 397.328 168.201 387.689 167.304 376.749L165.608 356.051C164.686 344.805 154.668 336.585 143.503 338.213C129.499 340.256 112.954 342.945 98.5376 345.571C102.692 341.147 108.37 336.948 115.936 333.107C128.892 328.34 174.97 318.807 255.639 318.807C336.307 318.807 382.753 328.34 395.709 333.107C403.244 336.934 408.886 341.145 413.002 345.6C398.548 342.965 381.932 340.263 367.876 338.213C356.711 336.585 346.693 344.805 345.771 356.051L344.075 376.749C343.178 387.689 351.265 397.328 362.126 398.92C377.136 401.12 394.38 404.304 409.126 407.698C408.274 409.149 407.442 410.54 406.652 411.862L406.65 411.864L406.649 411.866C406 412.951 405.379 413.989 404.798 414.976C403.836 416.61 401.777 417.127 400.057 416.328C376.66 405.459 328.932 399.545 301.484 453.344C300.759 454.765 299.617 455.98 298.15 456.61C290.949 459.7 275.021 464.377 255.639 464.377C236.257 464.377 220.695 459.7 213.494 456.61C212.028 455.98 210.886 454.765 210.16 453.344Z" fill="white" />
    <path d="M88.4778 393.075C85.3144 386.291 84.165 374.573 83.9237 366.822C83.8638 364.9 85.1367 363.216 87.3091 362.72C95.8979 360.757 117.187 357.605 133.145 355.614C140.057 354.752 146.26 359.105 146.831 365.06L147.881 376.021C148.436 381.814 143.429 386.919 136.705 387.762C122.588 389.532 105.278 392.504 95.0483 395.241C92.4257 395.943 89.4957 395.259 88.4778 393.075Z" fill="white" />
    <path d="M422.901 393.075C426.065 386.291 427.214 374.573 427.455 366.822C427.515 364.9 426.242 363.216 424.07 362.72C415.481 360.757 394.192 357.605 378.234 355.614C371.322 354.752 365.119 359.105 364.548 365.06L363.498 376.021C362.943 381.814 367.95 386.919 374.674 387.762C388.791 389.532 406.101 392.504 416.331 395.241C418.953 395.943 421.883 395.259 422.901 393.075Z" fill="white" />
    <path d="M297.85 156.68C280.583 167.063 266.366 180.307 255.73 195.024C244.882 180.014 230.309 166.535 212.573 156.062C218.767 138.549 235.471 126.002 255.105 126.002C274.969 126.002 291.834 138.845 297.85 156.68Z" fill="#FDFFA9" />
    <path fill-rule="evenodd" clip-rule="evenodd" d="M256 269.673C326.85 269.673 395.207 279.402 418.589 291.48C446.48 262.03 455.328 221.845 437.5 190.967C414.697 151.471 356.885 142.158 308.373 170.166C281.444 185.714 263.041 209.494 255.897 234.332C248.754 209.494 230.351 185.714 203.422 170.166C154.91 142.158 97.0975 151.471 74.2943 190.967C56.486 221.812 65.296 261.944 93.1164 291.386C116.667 279.352 185.334 269.673 256 269.673ZM425.532 244.331C424.557 250.218 415.208 247.076 414.529 241.147C413.388 231.178 410.286 221.425 405.06 212.374C393.692 192.684 374.421 180.035 352.432 175.488C350.051 174.996 349.942 171.091 352.372 171.032C381.026 170.329 406.245 181.331 418.732 202.959C425.917 215.404 427.948 229.74 425.532 244.331Z" fill="#FDFFA9" />
    <path d="M323.33 458.193C345.893 425.574 375.965 427.339 396.752 436.201C390.7 454.893 373.149 468.41 352.44 468.41C341.425 468.41 331.303 464.586 323.33 458.193Z" fill="#FDFFA9" />
    <path d="M114.554 436.293C135.321 427.363 165.472 425.466 188.103 458.066C180.106 464.535 169.924 468.41 158.836 468.41C138.162 468.41 120.634 454.938 114.554 436.293Z" fill="#FDFFA9" />
  </g>
  <g id="wn" fill="none" transform="scale(0.078125 0.078125)">
    <path fill-rule="evenodd" clip-rule="evenodd" d="M245.789 317.391V286.194C243.367 289.827 210.672 307.991 185.242 318.89C164.898 327.609 153.354 349.971 150.125 360.062C125.906 414.312 100.476 398.005 90.7885 383.07C25.3975 369.749 45.9836 301.937 56.8821 288.616C65.6009 277.96 84.7338 243.811 93.2104 228.069L100.476 182.053C100.476 164.616 124.695 141.688 136.804 132.404C135.997 118.68 134.382 88.8105 134.382 79.1229C134.382 69.4354 142.455 70.2427 146.492 71.8573L197.351 99.709C204.213 94.4616 219.391 82.0292 225.203 74.2792C231.016 66.5292 236.505 71.05 238.524 74.2792L260.321 116.662L287.497 115.87L312.632 116.662C317.291 116.662 321.977 117.287 326.368 118.845C447.541 161.851 470.449 368.362 466.597 476.543C466.408 481.858 462.013 486 456.695 486H171.084C166.032 486 161.742 482.232 161.624 477.18C161.107 455.015 167.092 418.582 194.93 400.023C224.083 380.587 239.339 346.248 244.555 327.493C245.469 324.207 245.789 320.803 245.789 317.391Z" fill="#1F1A17" />
    <path fill-rule="evenodd" clip-rule="evenodd" d="M108.004 352.203C113.252 348.57 123.845 345.918 119.97 362.387C118.356 365.616 114.039 371.761 110.164 375.636C106.289 379.511 110.473 380.717 112.492 381.121C116.124 381.524 121.138 380.338 126.951 370.65C128.32 368.369 131.022 364.782 132.934 360.679C141.171 343.001 154.306 310.163 183.79 299.352C219.436 286.282 266.942 264.041 267.569 217.45C267.593 215.692 267.946 213.876 269.189 212.632C272.768 209.049 280.023 206.152 284.971 213.093C285.717 214.14 286.087 215.397 286.183 216.679C287.047 228.325 285.09 254.06 264.063 276.915C267.696 306.785 262.941 376.717 207.722 413.529C197.801 421.543 180.869 437.423 181.505 462.871C181.569 465.433 183.743 467.377 186.305 467.377H439.134C441.864 467.377 444.09 465.254 444.119 462.524C445.182 360.676 429.297 169.813 319.657 139.304C314.006 137.69 294.779 134.845 254.091 135.814C251.266 133.392 240.815 120.089 230.159 93.9324C221.279 103.62 200.502 121.141 175.314 130.828C143.829 142.938 127.236 159.045 119.97 182.053C114.158 200.459 112.895 220.4 112.492 228.069C109.666 236.546 97.4923 262.46 79.0859 288.616C56.078 321.312 49.5236 356.903 95.5394 364.169C96.3467 362.554 98.3166 360.921 108.004 352.203ZM91.0521 326.774C85.6636 333.959 76.0033 338.004 70.7634 339.843C70.1679 340.052 69.5388 339.655 69.4642 339.029C69.0077 335.192 68.312 327.734 70.1113 322.786C71.2274 319.716 75.1544 316.491 78.3966 314.245C81.2215 312.289 84.9616 312.274 87.5565 314.526C90.9701 317.49 94.5397 322.124 91.0521 326.774Z" fill="#FDFFA9" />
    <path d="M151.336 93.9324L152.877 119.859L175.314 107.394L151.336 93.9324Z" fill="#FDFFA9" />
    <path d="M47.0011 182H301.299V191.688L310.985 191.688V201.375H301.298L301.299 191.688L240.751 191.688V203.797H233.485V211.063L223.797 211.063V218.329L214.11 218.329V228.016H168.094V218.329L158.406 218.329V211.063H151.141V191.688L136.61 191.688L136.609 211.063H126.922V218.329L119.657 218.329V228.016H71.2189V218.329L63.9534 218.329V211.063H54.2645V201.375L47 201.375L47.0011 182Z" fill="#003C1F" />
    <path d="M110.163 191.741H102.898V199.006H110.163V191.741Z" fill="#FDFFA9" />
    <path d="M93.21 201.428H100.476V208.694H93.21V201.428Z" fill="#FDFFA9" />
    <path d="M110.163 201.428H117.428V208.694H110.163V201.428Z" fill="#FDFFA9" />
    <path d="M93.2097 211.116H85.9441V218.382H93.2097V211.116Z" fill="#FDFFA9" />
    <path d="M100.475 211.116H107.741V218.382H100.475V211.116Z" fill="#FDFFA9" />
    <path d="M119.85 191.741H127.116V199.006H119.85V191.741Z" fill="#FDFFA9" />
    <path d="M204.616 191.741H197.351V199.006H204.616V191.741Z" fill="#FDFFA9" />
    <path d="M187.663 201.428H194.929V208.694H187.663V201.428Z" fill="#FDFFA9" />
    <path d="M204.616 201.428H211.881V208.694H204.616V201.428Z" fill="#FDFFA9" />
    <path d="M187.663 211.116H180.397V218.382H187.663V211.116Z" fill="#FDFFA9" />
    <path d="M194.928 211.116H202.193V218.382H194.928V211.116Z" fill="#FDFFA9" />
    <path d="M214.303 191.741H221.569V199.006H214.303V191.741Z" fill="#FDFFA9" />
  </g>
  <g id="wp" fill="none" transform="scale(0.078125 0.078125)">
    <path d="M388.25 487.237C397.932 487.237 405.077 478.202 402.846 468.781L387.143 402.463C385.579 395.236 378.305 389.52 370.852 389.52H347.937L279.654 138.221C279.135 132.533 263.416 131 254.073 131C244.73 131 229.008 132.533 228.483 138.221L160.211 389.52H139.752C132.297 389.52 125.019 395.236 123.475 402.463L108.379 468.914C106.247 478.301 113.381 487.237 123.006 487.237H388.25Z" fill="#1F1A17" />
    <path d="M243.25 144.79C246.876 145.54 256.349 146.585 265.235 144.766L275.223 181.563C259.005 185.24 240.509 183.095 233.288 181.563L243.25 144.79Z" fill="#FDFFA9" />
    <path d="M230.071 193.437L201.222 299.926C221.143 304.905 270.258 311.877 307.352 299.926L278.443 193.425C260.205 197.399 238.595 195.089 230.071 193.437Z" fill="#FDFFA9" />
    <path fill-rule="evenodd" clip-rule="evenodd" d="M310.679 312.183C262.541 325.36 215.436 317.674 197.902 312.183L172.374 406.414L141.034 406.23C139.895 406.23 137.228 408.084 135.666 415.502C134.104 422.919 128.183 449.824 125.418 462.35C124.93 464.952 126.296 470.255 135.666 470.646C145.036 471.036 218.951 470.808 254.737 470.646H255.14C290.926 470.808 364.841 471.036 374.211 470.646C383.58 470.255 384.947 464.952 384.459 462.35C381.693 449.824 375.772 422.919 374.211 415.502C372.649 408.084 369.981 406.23 368.843 406.23L336.257 406.414L310.679 312.183ZM161.603 423.798C163.423 436.938 204.174 447.46 254.211 447.46C304.255 447.46 345.014 436.941 346.812 423.798C346.855 416.771 341.48 415.541 338.788 415.805C324.272 424.342 291.895 430.289 254.268 430.289C216.636 430.289 184.256 424.337 169.74 415.796C167.243 415.536 162.121 416.771 161.603 423.798Z" fill="#FDFFA9" />
  </g>
  <g id="wq" fill="none" transform="scale(0.078125 0.078125)">
    <path d="M256.562 123.54C155.456 123.54 73.2019 198.384 73.2019 290.376C73.2019 330.738 76.2601 376.535 112.758 409.247C126.73 421.768 148.068 428.921 165.212 434.671C167.396 435.404 169.498 436.11 171.479 436.792C172.524 437.153 172.999 437.317 174.325 444.571C175.746 452.343 177.691 462.986 188.139 472.492C191.937 475.945 203.491 486.461 257.111 487H257.249H257.386C311.006 486.461 322.561 475.947 326.359 472.492C336.804 462.985 338.752 452.343 340.173 444.571C341.499 437.317 341.977 437.153 343.022 436.792C345.003 436.11 347.101 435.407 349.285 434.671C366.43 428.921 387.768 421.768 401.736 409.247C438.238 376.538 441.296 330.737 441.296 290.376C441.289 198.382 358.42 123.54 256.561 123.54H256.562Z" fill="#1F1A17" />
    <path d="M388.395 396.046C377.827 405.505 358.549 411.962 343.053 417.153C340.706 417.938 338.451 418.692 336.328 419.425C320.927 424.726 318.639 437.231 317.124 445.506C315.975 451.793 314.982 457.225 309.951 461.794C309.077 462.588 300.162 469.553 256.333 470.007C212.505 469.55 203.59 462.588 202.716 461.794C197.689 457.225 196.695 451.793 195.542 445.506C194.029 437.231 191.74 424.726 176.339 419.425C174.213 418.692 171.958 417.938 169.611 417.153C154.118 411.963 134.836 405.505 124.268 396.046C96.4356 371.13 90.8403 336.746 90.8403 289.346C90.8403 206.768 164.757 139.589 255.617 139.589C347.261 139.589 421.822 206.768 421.822 289.346C421.825 336.747 416.23 371.133 388.397 396.046H388.395Z" fill="#FDFFA9" />
    <path d="M333.108 322.169C308.43 322.169 289.819 338.135 289.819 359.305C289.819 380.478 308.43 396.444 333.108 396.444C356.572 396.444 376.398 377.374 376.398 354.806C376.398 334.675 359.811 322.169 333.108 322.169Z" fill="#003C1F" />
    <path d="M181.391 322.17C154.689 322.17 138.101 334.676 138.101 354.807C138.101 377.377 157.927 396.444 181.391 396.444C206.069 396.444 224.681 380.478 224.681 359.306C224.681 338.135 206.07 322.17 181.391 322.17Z" fill="#003C1F" />
    <path d="M256.614 372.258C262.341 372.005 267.478 375.315 269.102 380.293L282.33 420.804C284.279 426.763 280.546 433.028 273.997 434.797C272.825 435.116 271.637 435.268 270.471 435.268C266.008 435.268 261.83 433.052 259.653 429.465C257.138 433.597 251.919 435.992 246.533 435.069C239.821 433.916 235.41 428.029 236.677 421.922L245.092 381.407C246.153 376.304 250.914 372.523 256.614 372.258Z" fill="#003C1F" />
    <path d="M293 61.5C293 75.6096 285.208 87.8993 273.691 94.2999C279.037 252.476 314.236 186.392 338.987 108.984C331.614 102.136 327 92.3567 327 81.5C327 60.7893 343.789 44 364.5 44C385.211 44 402 60.7893 402 81.5C402 98.8093 390.273 113.38 374.33 117.698C346.878 241.191 387.279 235.889 422.697 176.38C419.087 170.617 417 163.802 417 156.5C417 135.789 433.789 119 454.5 119C475.211 119 492 135.789 492 156.5C492 177.128 475.344 193.867 454.746 193.999C446.088 227.495 442.033 275.097 441 299.5C441 287.031 358.62 276.923 257 276.923C155.38 276.923 73 287.031 73 299.5C71.4502 275.094 66.4776 227.486 57.4308 193.989C57.1214 193.996 56.8111 194 56.5 194C35.7893 194 19 177.211 19 156.5C19 135.789 35.7893 119 56.5 119C77.2107 119 94 135.789 94 156.5C94 163.885 91.8654 170.771 88.1795 176.575C121.897 239.752 161.763 248.256 139.53 118.353C122.15 115.087 109 99.8289 109 81.5C109 60.7893 125.789 44 146.5 44C167.211 44 184 60.7893 184 81.5C184 90.7642 180.641 99.2438 175.073 105.787C199.251 182.906 234.181 250.789 239.742 95.5381C226.904 89.5847 218 76.5821 218 61.5C218 40.7893 234.789 24 255.5 24C276.211 24 293 40.7893 293 61.5Z" fill="#1F1A17" />
    <path d="M255.5 80C265.717 80 274 71.7173 274 61.5C274 51.2827 265.717 43 255.5 43C245.283 43 237 51.2827 237 61.5C237 71.7173 245.283 80 255.5 80Z" fill="#A5EF5C" />
    <path d="M364.5 100C374.717 100 383 91.7173 383 81.5C383 71.2827 374.717 63 364.5 63C354.283 63 346 71.2827 346 81.5C346 91.7173 354.283 100 364.5 100Z" fill="#A5EF5C" />
    <path d="M56.5 175C66.7173 175 75 166.717 75 156.5C75 146.283 66.7173 138 56.5 138C46.2827 138 38 146.283 38 156.5C38 166.717 46.2827 175 56.5 175Z" fill="#A5EF5C" />
    <path d="M473 156.5C473 166.717 464.717 175 454.5 175C444.283 175 436 166.717 436 156.5C436 146.283 444.283 138 454.5 138C464.717 138 473 146.283 473 156.5Z" fill="#A5EF5C" />
    <path d="M146.5 100C156.717 100 165 91.7173 165 81.5C165 71.2827 156.717 63 146.5 63C136.283 63 128 71.2827 128 81.5C128 91.7173 136.283 100 146.5 100Z" fill="#A5EF5C" />
    <path d="M424.988 268.927C427.165 243.943 431.082 213.034 437.407 188.393C428.561 203.226 418.961 215.763 409.338 224.442C403.91 229.337 397.809 233.611 391.254 235.993C384.609 238.408 376.439 239.206 368.382 235.122C352.003 226.822 347.877 205.623 347.339 188.153C346.769 169.658 349.731 145.113 356.553 114.064C350.291 133.849 343.188 153.543 335.83 169.56C331.911 178.091 327.673 186.123 323.167 192.714C318.991 198.823 313.088 205.954 305.325 209.541C301.088 211.499 295.97 212.542 290.446 211.325C284.916 210.107 280.391 206.934 276.914 203.114C270.529 196.101 266.812 186.005 264.298 176.082C260.781 162.205 258.252 128.761 256.728 103.254C255.208 128.152 252.717 161.156 249.261 174.73C246.783 184.463 243.099 194.476 236.712 201.413C233.223 205.202 228.68 208.33 223.14 209.477C217.618 210.62 212.536 209.5 208.365 207.51C200.724 203.865 194.934 196.76 190.846 190.702C186.43 184.16 182.279 176.203 178.441 167.761C170.74 150.823 164.423 134.94 158 114.064C164.216 149.15 164.918 172.384 163.601 192.348C162.943 202.321 161.33 211.626 158.182 219.518C154.969 227.572 149.633 235.321 141.311 239.336C133.001 243.346 124.698 242.191 118.042 239.397C111.515 236.657 105.553 231.978 100.325 226.749C91.9629 218.385 83.7111 206.826 76.0425 193.303C81.9534 217.116 85.9954 245.731 88.4586 269.063C98.3188 266.635 110.78 264.556 124.995 262.811C159.1 258.627 205.763 256.083 257 256.083C308.237 256.083 354.9 258.627 389.005 262.811C402.956 264.523 415.217 266.557 424.988 268.927Z" fill="#A5EF5C" />
  </g>
  <g id="wr" fill="none" transform="scale(0.078125 0.078125)">
    <path d="M328.469 488.071H131.179C123.348 488.071 117 480.927 117 472.114V83.2916C117 77.0413 119.925 71.2527 124.698 68.0563L164.771 41.2203C169.853 37.817 175.831 36 181.948 36H375.279C386.645 36 395.859 45.214 395.859 56.58V409.05C395.859 415.422 393.826 421.583 390.129 426.41L352.339 475.759C346.353 483.576 337.638 488.071 328.469 488.071Z" fill="#1F1A17" />
    <path d="M375.002 421.131C378.776 416.282 380.857 410.055 380.857 403.609V57.8801C380.857 52.1971 376.25 47.5901 370.567 47.5901H191.628C186.258 47.5901 181.022 49.2706 176.656 52.3961L140.668 78.154C135.522 81.6529 132.884 87.156 132.884 93.4464V461.477C132.884 467.352 137.116 472.115 142.337 472.115H323.393C330.055 472.115 336.408 468.95 340.887 463.4L375.002 421.131Z" fill="#FDFFA9" />
    <path d="M319.149 89.1674H151.168C147.275 89.1674 145.293 83.903 148.002 80.7563C152.153 75.9336 158.216 75.8662 164.183 75.8662H319.047C325.613 75.8662 332.015 73.5579 337.359 69.2638L348.331 60.4463C353.973 55.9121 361.232 52.0204 368.02 54.5346L368.891 54.8575C372.625 56.2404 373.736 60.2401 370.649 62.7539L354.185 75.8662C343.734 85.7687 341.721 93.0224 341.721 104.114V447.435C341.721 453.616 339.598 459.186 334.521 461.544C330.95 463.201 327.027 460.247 327.027 455.9V98.0319C327.027 93.1361 323.5 89.1674 319.149 89.1674Z" fill="#1F1A17" />
    <path d="M183.383 60.3163L188.632 56.9569C191.116 55.3669 194.003 54.5219 196.953 54.5219H242.171C246.186 54.5219 247.825 59.6834 244.545 61.9999L240.196 65.0714C237.592 66.9111 234.481 67.8989 231.292 67.8989H185.602C181.49 67.8989 179.92 62.5331 183.383 60.3163Z" fill="#1F1A17" />
    <path d="M268.929 57.8323L265.479 60.5497C262.411 62.967 264.12 67.8989 268.027 67.8989H316.536C319.739 67.8989 322.863 66.9025 325.474 65.0477L329.774 61.9936C333.043 59.6716 331.4 54.5219 327.39 54.5219H278.48C275.015 54.5219 271.651 55.688 268.929 57.8323Z" fill="#1F1A17" />
    <path d="M210.956 298.318C209.323 296.536 207.912 294.68 206.725 292.749C205.537 290.67 204.646 288.592 204.052 286.513C203.755 287.552 203.532 288.517 203.384 289.408L202.493 292.081L201.602 294.308C201.156 295.051 200.562 295.719 199.82 296.313C201.008 297.352 201.899 298.169 202.493 298.763C203.087 299.357 203.606 300.025 204.052 300.768L205.165 302.995C205.611 303.886 206.279 305.148 207.17 306.781C208.952 309.9 210.511 313.092 211.847 316.359C213.035 319.477 213.926 322.595 214.52 325.714C212.738 327.05 210.956 328.238 209.175 329.277C207.244 330.317 205.388 331.059 203.606 331.505C202.418 340.562 200.785 349.249 198.706 357.564C196.627 365.879 194.252 373.601 191.579 380.728C196.033 384.737 200.859 387.856 206.056 390.083C211.253 392.31 216.673 393.647 222.316 394.092L222.539 306.336C220.311 305.445 218.232 304.331 216.302 302.995C214.223 301.51 212.441 299.951 210.956 298.318Z" fill="#003C1F" />
    <path d="M190.911 354.446C192.841 346.873 194.549 339.077 196.033 331.059C193.955 326.604 191.505 322.15 188.683 317.695C185.862 313.24 182.595 309.009 178.883 304.999C177.398 312.869 175.468 320.219 173.092 327.05C170.568 333.88 167.598 339.968 164.183 345.314C165.668 348.581 167.153 351.625 168.637 354.446C170.122 357.267 171.756 359.94 173.538 362.464C175.171 364.84 176.953 367.142 178.883 369.369C180.665 371.596 182.595 373.749 184.674 375.828C186.901 369.146 188.98 362.019 190.911 354.446Z" fill="#003C1F" />
    <path d="M288.022 261.79C288.616 260.453 288.913 258.968 288.913 257.335V249.985H299.381C298.193 245.085 296.857 240.407 295.372 235.953C293.887 231.35 292.328 226.821 290.694 222.366C287.279 228.454 284.458 235.359 282.231 243.08C280.003 250.801 278.667 259.265 278.221 268.471C279.706 268.471 281.117 268.249 282.453 267.803C283.641 267.209 284.755 266.393 285.794 265.353C286.685 264.314 287.428 263.126 288.022 261.79Z" fill="#003C1F" />
    <path d="M282.453 292.526C281.117 291.784 279.706 291.413 278.221 291.413C278.518 296.016 279.112 300.471 280.003 304.777C280.746 309.083 281.711 313.241 282.899 317.25C283.938 321.11 285.2 324.823 286.685 328.386C288.17 331.95 289.803 335.291 291.585 338.409C293.219 334.103 294.704 329.648 296.04 325.045C297.376 320.442 298.564 315.616 299.604 310.568L288.913 310.122V302.549C288.913 301.213 288.616 299.877 288.022 298.54C287.428 297.204 286.685 296.016 285.794 294.977C284.755 293.937 283.641 293.12 282.453 292.526Z" fill="#003C1F" />
    <path d="M268.867 262.235C269.461 263.72 270.352 264.982 271.539 266.021C271.985 260.824 272.727 255.924 273.767 251.321C274.658 246.57 275.771 242.115 277.108 237.957C278.444 233.651 280.003 229.642 281.785 225.93C283.567 222.218 285.572 218.877 287.799 215.907C285.126 209.819 282.008 204.102 278.444 198.756C274.88 193.262 271.02 188.214 266.862 183.611C263.744 192.817 261.071 203.063 258.844 214.348C256.468 225.484 254.76 237.438 253.721 250.207L255.503 249.985V310.122L253.721 309.9C254.166 316.136 254.835 322.224 255.726 328.164C256.468 334.103 257.433 339.894 258.621 345.537C259.66 351.031 260.923 356.302 262.407 361.351C263.744 366.399 265.229 371.225 266.862 375.828C271.168 371.225 275.103 366.325 278.667 361.128C282.231 355.782 285.275 350.214 287.799 344.423C285.572 341.453 283.567 338.112 281.785 334.4C280.003 330.688 278.444 326.753 277.108 322.595C275.771 318.289 274.658 313.834 273.767 309.231C272.727 304.48 271.985 299.505 271.539 294.308C270.352 295.348 269.461 296.61 268.867 298.095C268.124 299.58 267.753 301.139 267.753 302.772V310.122H261.294V249.985H267.753V257.558C267.753 259.042 268.124 260.602 268.867 262.235Z" fill="#003C1F" />
    <path d="M188.238 252.658C191.505 251.173 194.92 250.207 198.484 249.762C197.147 237.141 195.365 225.336 193.138 214.348C190.762 203.211 187.941 193.114 184.674 184.056C180.813 188.065 177.175 192.594 173.76 197.643C170.197 202.543 167.004 208.037 164.183 214.125C167.895 219.767 171.087 226.375 173.76 233.948C176.285 241.372 178.141 249.391 179.329 258.003C182.001 255.776 184.971 253.994 188.238 252.658Z" fill="#003C1F" />
    <path d="M163.069 290.745C161.584 290.151 160.099 289.779 158.615 289.631C158.466 288.295 158.615 287.107 159.06 286.067C159.505 285.028 160.174 284.137 161.065 283.394C161.956 282.504 162.995 281.91 164.183 281.613C165.222 281.167 166.336 281.019 167.524 281.167C167.524 278.346 168.044 275.599 169.083 272.926C169.974 270.253 171.236 267.952 172.869 266.021C172.424 261.715 171.904 257.483 171.31 253.326C170.568 249.168 169.677 245.159 168.637 241.298C167.45 237.438 166.187 233.8 164.851 230.384C163.515 226.821 162.03 223.554 160.396 220.584C157.13 229.493 154.605 238.997 152.824 249.094C150.893 259.042 149.928 269.362 149.928 280.054C149.928 290.448 150.819 300.471 152.601 310.122C154.383 319.774 156.833 329.054 159.951 337.964C162.921 332.915 165.519 327.05 167.747 320.368C169.825 313.538 171.31 306.187 172.201 298.318C171.756 297.13 171.088 296.016 170.197 294.977C169.157 293.937 168.044 293.12 166.856 292.526C165.668 291.784 164.406 291.19 163.069 290.745Z" fill="#003C1F" />
    <path d="M214.297 255.999C216.97 257.335 219.717 258.3 222.539 258.894L222.316 166.683C216.822 166.832 211.55 167.945 206.502 170.024C201.305 171.954 196.405 174.776 191.802 178.488C193.732 183.388 195.514 188.659 197.147 194.302C198.632 199.796 200.043 205.587 201.379 211.675C202.567 217.614 203.606 223.851 204.497 230.384C205.388 236.918 206.131 243.674 206.725 250.653C209.1 252.732 211.625 254.514 214.297 255.999Z" fill="#003C1F" />
    <path d="M230.78 166.906V259.562C233.304 259.414 235.902 258.968 238.575 258.226C241.099 257.335 243.475 256.073 245.703 254.439C246.148 247.163 246.891 240.11 247.93 233.28C248.821 226.449 249.935 219.916 251.271 213.679C252.459 207.294 253.869 201.281 255.503 195.638C256.988 189.847 258.695 184.427 260.626 179.379C256.171 175.667 251.494 172.771 246.594 170.692C241.545 168.613 236.274 167.351 230.78 166.906Z" fill="#003C1F" />
    <path d="M248.375 329.945C247.484 323.56 246.816 317.027 246.371 310.345C243.847 310.642 241.322 310.716 238.798 310.568C236.125 310.419 233.452 309.974 230.78 309.231L230.557 394.092C236.051 393.35 241.396 391.865 246.594 389.638C251.791 387.262 256.616 384.218 261.071 380.506C259.141 375.754 257.433 370.705 255.948 365.36C254.315 359.866 252.904 354.223 251.716 348.432C250.38 342.493 249.266 336.33 248.375 329.945Z" fill="#003C1F" />
    <path d="M294.035 294.977V306.113H316.309V301.658H307.399V295.867H302.722V301.658H298.713V294.977H294.035Z" fill="#003C1F" />
    <path d="M294.035 287.404V292.081H316.309V287.404H294.035Z" fill="#003C1F" />
    <path fill-rule="evenodd" clip-rule="evenodd" d="M294.035 277.158V284.063H316.308V277.158C316.308 276.267 316.16 275.376 315.863 274.485C315.715 274.04 315.492 273.669 315.195 273.372L314.081 272.258C313.19 271.664 312.077 271.218 310.74 270.921C309.404 270.476 307.548 270.253 305.172 270.253C304.281 270.253 303.539 270.328 302.945 270.476C302.202 270.476 301.46 270.55 300.717 270.699C299.381 270.847 298.193 271.218 297.154 271.812C296.114 272.406 295.298 273.075 294.704 273.817C294.258 274.708 294.035 275.822 294.035 277.158ZM311.408 279.608H298.935L298.936 278.272C298.936 277.084 299.381 276.193 300.272 275.599C301.311 275.153 302.945 274.931 305.172 274.931C307.102 274.931 308.439 275.005 309.181 275.153C310.072 275.45 310.592 275.822 310.74 276.267C310.889 276.416 311.037 276.713 311.186 277.158C311.334 277.455 311.408 277.826 311.408 278.272V279.608Z" fill="#003C1F" />
    <path d="M294.035 255.776V268.026H316.309V255.553H311.408V263.571H306.954V256.221H302.276V263.571H298.713V255.776H294.035Z" fill="#003C1F" />
  </g>
</svg>