<svg xmlns="http://www.w3.org/2000/svg" width="40" height="40" viewbox="0.0 0.0 48.0 48.0">
  <g id="bb" transform="scale(0.8333333333333334 0.8333333333333334)">
    <g stroke-linecap="round" transform="translate(-116 -59.099316)">
      <path d="m137.28729 67.283203c.00079.648749.50111 1.442174.88867 1.933594-1.14682 1.024409-3.69048 3.057912-5.30664 5.025391-1.79692 2.187507-3.3359 4.64243-3.33594 7.080078v.002c.0101 2.578077 1.56488 5.042984 3.51172 6.789062l-.006.02734c-.39565 1.724968-.96879 2.98533-1.7832 4.486328l-.59961 1.107422h6.32422c-.17502.28686-.36965.874389-.58203 1.105469-.46425.505139-.95242.790995-1.49805.791015-1.25516.00003-4.60195-.04533-5.82268.171835-1.2207.21715-2.43572.726915-3.52343 1.777344-.67246.649429-1.12854 1.25194-1.3418 2.199219l-.20508.91406 12.14885.00004h.002c1.08821-.007 2.02764-.55149 2.7793-1.103513.50425-.37032.75531-.639845 1.05469-.927735.29937.28789.55044.557405 1.05469.927735.75166.552023 1.69108 1.096633 2.77929 1.103513h.002l12.16508-.00004-.20507-.91406c-.21327-.947259-.66935-1.54978-1.3418-2.199219-1.08771-1.050429-2.30272-1.560194-3.52344-1.777344-1.22073-.217149-4.58375-.171805-5.83891-.171835-.54563-.00002-1.03379-.285876-1.49804-.791015-.21238-.23108-.40701-.818609-.58203-1.105469h6.32421l-.5996-1.107422c-.81441-1.500978-1.38754-2.76135-1.78321-4.486328l-.006-.02344c1.9489-1.746129 3.5057-4.213032 3.51563-6.792969v-.002c-.00004-2.437648-1.53902-4.892571-3.33594-7.080078-.40075-.487871-.85857-.979447-1.33789-1.458985l-5.00977 6.269531c-.39029.515925-1.12474.616891-1.64062.226563-.51546-.389923-.61782-1.122744-.22852-1.638672l5.20118-6.427734c-.90976-.810661-1.75454-1.516874-2.29102-1.996094.38756-.49142.88787-1.284835.88867-1.933594-.00086-1.534318-1.21954-2.792968-2.70694-2.79296-1.4874.000009-2.70593 1.258649-2.70694 2.792967z" stroke-width="1.5" />
      <path d="m140 87.78125c-1.08485 0-2.06581.04411-2.94727.111328-1.24229.136059-2.09932.318281-2.51953.417969l-.42384 1.533203c1.29047-.251704 3.19807-.515625 5.89062-.515625 2.70367 0 4.61562.266896 5.90625.519531l-.4122-1.53125c-.40714-.0976-1.27471-.284584-2.54492-.423828-.88186-.0674-1.86348-.111328-2.94911-.111328z" fill="#fff" stroke-width="1.52285" />
    </g>
  </g>
  <g id="bk" transform="scale(0.8333333333333334 0.8333333333333334)">
    <g transform="translate(-232 -59.099319)">
      <path d="m252.32416 64.751954v.5 6.78125h3.07812c-1.94835.180592-3.67216 1.255937-5 2.4375-1.45533-1.122636-3.0317-1.841797-4.61328-1.841797-2.47611 0-4.57319 1.178031-6.0332 2.791015-1.46001 1.612986-2.32714 3.659783-2.37891 5.582032-.12984 4.822792 2.61768 9.723111 7.33789 11.791015-.20272 1.27793-.80823 4.620081-1.93359 6.806641l-.5625 1.09375h27.5625l-.5625-1.09375c-1.1238-2.182463-1.73038-5.526677-1.93359-6.806641 4.72021-2.067904 7.46774-6.968223 7.33789-11.791015-.0517-1.922259-.91888-3.970638-2.37891-5.583985-1.46003-1.613345-3.55685-2.790487-6.0332-2.789062-1.58658.000899-3.17297.724728-4.63867 1.853515-1.33238-1.192456-3.06773-2.267134-5.02344-2.449218h3.125v-7.28125z" stroke-linecap="round" stroke-width="1.5" />
      <g fill="#fff">
        <g stroke-linecap="round">
          <path d="m245.70228 94.319265-.96742 3.50912 4.65196-2.54165z" />
          <path d="m256.00015 93.144775-4.04635 1.79945 4.04635 1.84506 4.04635-1.84506z" />
          <path d="m266.29802 94.319265.96742 3.50912-4.65196-2.54165z" />
          <path d="m245.78905 73.904295c-2.02495-.001-3.74424.95611-4.98046 2.32227-1.24849 1.37973-1.97247 3.14202-2.01367 4.67187-.11514 4.27673 2.37628 8.71093 6.54883 10.52394l.22265.0977.23829-.0527c.7434-.16373 4.55604-1.06346 10.16601-1.06495 5.62127-.002 9.4892.90335 10.22852 1.06495l.23633.0527.22265-.0977c4.1716-1.81351 6.66201-6.24784 6.54687-10.52394-.0412-1.5298-.76515-3.29212-2.01367-4.67187-1.23624-1.36617-2.95551-2.32343-4.98046-2.32227-.98868.00058-2.03305.44813-3.11719 1.1543s-2.19166 1.69612-3.16212 2.89063c-1.32414 1.62985-3.00729 4.33328-3.95898 7.39843-.9457-3.06567-2.61707-5.77118-3.93163-7.40039-.96364-1.19427-2.06372-2.1829-3.14258-2.88867s-2.1212-1.15372-3.10939-1.1543zm0 1.5c.47911.00028 1.35622.30118 2.28712.91016s1.93091 1.50099 2.79688 2.57422c1.65323 2.04891 3.98994 6.10877 4.25194 10.0664-4.95223.0856-8.37734.78889-9.33398.99464-3.46252-1.59254-5.5931-5.409-5.4961-9.01221.0284-1.05305.62633-2.59733 1.62695-3.70313 1.01291-1.11937 2.30837-1.83095 3.86719-1.83008zm20.42189 0c1.55879-.00089 2.85426.7107 3.86717 1.83008 1.00063 1.1058 1.59859 2.65009 1.62696 3.70313.097 3.60278-2.03251 7.41933-5.49413 9.01221-.9551-.20394-4.42086-.91107-9.39258-.99464.26475-3.95569 2.61197-8.01069 4.27734-10.06054.87252-1.07395 1.87948-1.96784 2.81641-2.57813.93692-.61028 1.82025-.91183 2.29883-.91211z" />
        </g>
        <g stroke-miterlimit="3">
          <path d="m255.18358 73.613435c-.83492.13879-1.68014.4961-2.55663 1.07031-.1506.0987-.26941.19148-.38867.27734l-.71681.51563.62891.6289c1.16368 1.2081 2.19769 2.65575 2.99805 4.19532.0518.0996.10402.23192.1875.40039l.67383 1.35937.66992-1.35937c.79987-1.62122 1.86426-3.20551 3.15039-4.56641l.59179-.62695-.70312-.5c-.62263-.4425-1.35477-.9159-2.04688-1.16016-.82472-.29107-1.65724-.37252-2.48828-.23437zm.2461 1.48047c.59114-.0983 1.12193-.0509 1.74218.16796.24217.0855.6613.36754 1.04297.60157-.8407.98449-1.54349 2.04539-2.16601 3.14062-.65519-1.15194-1.43216-2.21789-2.28906-3.19922.60286-.35171 1.1751-.62868 1.66992-.71093z" />
          <path d="m253.32422 65.750975v.94531l1.7168 1.69727-1.7168 1.69727v.94335h.96484l1.71094-1.6914 1.71094 1.6914h.96289v-.94335l-1.7168-1.69727 1.7168-1.69727v-.94531h-.96289l-1.71094 1.69141-1.71094-1.69141z" />
        </g>
      </g>
    </g>
  </g>
  <g id="bn" transform="scale(0.8333333333333334 0.8333333333333334)">
    <g stroke-linecap="round" transform="translate(-58 -59.099319)">
      <path d="m82.275681 64.507812-.943359.613282-.714844 3.486328c-2.061629.472271-3.47982 1.501412-4.488281 3.195312l-4.785156 2.34375c-1.018192.499036-2.417578 1.159429-3.494141 2.13086-.53828.485714-1.004845 1.060783-1.255859 1.765625-.251014.704844-.252276 1.532829.07422 2.355469l1.134765 2.857421c.000648-.000654.0013-.0013.002-.002l4.867188-1.892578c.489532-.190352.835359.642084.566406.84961l-4.044922 3.121093c-.0087.007-.01788.01353-.02734.01953l-.03516.02148 1.109375 2.5625 9.947266-2.205078c.0031.04974.02341.01655.01758.08398-.03144.363346-.296827 1.09158-1.783203 2.115235-1.693498 1.166297-3.346164 2.596999-4.658203 4.03125-1.312042 1.434253-2.301759 2.831892-2.603516 4.164062-.521878 2.303998-.05273 4.019527-.05273 4.019527l.152344.54883h26.326171l-.65039-1.124998c-1.174677-2.034598-1.335492-3.705331-1.158203-5.699218.177285-1.993886.738796-4.286365.984375-7.265625.25089-3.043737.20805-6.837242-1.144532-10.392578-1.332768-3.503261-4.009927-6.744395-8.763671-8.636719-.584054-1.083362-1.552045-1.823213-2.425782-2.271485-.971092-.498217-1.833984-.714843-1.833984-.714843z" />
      <g fill="#fff">
        <path d="m87.316697 81.351562c-.226606.710101-.61369 1.320243-1.085937 1.810547-.723296.75095-1.624688 1.252902-2.496094 1.607422-.697801.300376-1.384805.453425-2.064453.597657.03221.176163.04725.368687.0293.576171-.02733.315927-.121588.653068-.296875 1.00586.387024-.04572 1.079052-.178746 2.185546-.628907.871404-.35452 1.772796-.858424 2.496094-1.609374.723294-.750951 1.251354-1.777457 1.298828-3.025391.0038-.114947-.01896-.229221-.06641-.333985z" />
        <path d="m87.492478 70.005859c.215291 1.049507 1.376083 1.987698 1.933594 2.839844.338593.463906.622231.977255.873045 1.39844 1.862346 2.789245 2.687224 6.3007 2.925622 9.71852.238397 3.41782-.600254 6.389227-.653557 9.485182-.0533 3.095954.483304 4.08173 2.040442 5.194772-.58133-1.690701-.842258-3.346382-.699219-4.955078.197896-2.225654.751045-4.444983.982422-7.251953.237546-2.881816.166179-6.384521-1.017578-9.496094-1.050437-2.761133-2.915064-5.233016-6.384766-6.933594z" stroke-width=".999994" />
        <path d="m80.225394 71.628614c-1.318307.471995-2.028073 1.810603-1.382456 2.908193l4.035015-1.854348c-.186344-1.128726-1.334251-1.525838-2.652559-1.053845z" />
      </g>
    </g>
  </g>
  <g id="bp" transform="scale(0.8333333333333334 0.8333333333333334)">
    <path d="m24.000001 67.664039c-3.310898-.000207-6.012508 2.699386-6.012301 6.010283.0018 1.737883.924141 3.193548 2.182989 4.315541l-2.800361.661756-2.245533 4.642385h4.428523c-.04328 1.064825-.192282 2.455555-.615353 3.841416-.533374 1.747181-1.478249 3.434053-3.135273 4.493085-5.118736 3.271474-5.689493 8.207396-5.689493 8.207396l-.0928.857459h27.959219l-.0928-.857459s-.570757-4.935922-5.689492-8.207396c-1.657039-1.059031-2.601921-2.745902-3.135282-4.493085-.423064-1.385862-.572062-2.776582-.615353-3.841416h4.428524l-2.245534-4.642385-2.800361-.661756c1.258849-1.121993 2.181223-2.577657 2.182989-4.315541.000208-3.310897-2.701403-6.01049-6.0123-6.010283z" stroke-linecap="round" transform="translate(0 -59.099319)" />
  </g>
  <g id="bq" transform="scale(0.8333333333333334 0.8333333333333334)">
    <g stroke-linecap="round" transform="translate(-290 -59.099319)">
      <path d="m308.08893 64.960938c-.11551-.000015-.23191.0061-.34766.01758h-.002c-.92535.09158-1.7824.547583-2.37305 1.263672-.59202.717747-.87406 1.647887-.7832 2.570313.0911.922433.55015 1.776275 1.26953 2.363281.19251.157094.42643.233014.64453.34375l-.30664 7.03125-4.32422-1.917969c.0489-.433234.15496-.865867.0391-1.292969-.24353-.896064-.83985-1.661844-1.64648-2.121093h-.002c-.80781-.459899-1.77092-.579793-2.66797-.335938-.89709.243408-1.67.834305-2.13477 1.640625-.4642.805489-.58841 1.767788-.3457 2.66211.2432.894802.8393 1.661514 1.64648 2.121093.70067.398893 1.51711.494108 2.31055.365235 2.86758 3.894229 4.10627 9.159835 3.81641 11.984375l-.0744.525437s-.62379 4.69466-2.02539 7.417969l-.5625 1.093751h27.5625l-.5625-1.093751c-1.39989-2.718646-2.02735-7.419922-2.02735-7.419922l-.0744-.523484c-.28986-2.82454.94883-8.090146 3.81641-11.984375.79344.128873 1.61183.03366 2.3125-.365235.80719-.459579 1.40133-1.226291 1.64453-2.121093.24271-.894322.1185-1.856621-.3457-2.66211-.46477-.80632-1.23768-1.397217-2.13477-1.640625-.89705-.243855-1.86016-.123963-2.66797.335938-.80663.459249-1.4049 1.225029-1.64843 2.121093-.11591.427071-.01.859737.0391 1.292969l-4.32422 1.917969-.30859-7.03125c.2183-.110622.45377-.184755.64648-.341797.71977-.586527 1.17973-1.440942 1.27148-2.363281.0915-.922383-.18972-1.852178-.78124-2.570313-.59056-.716968-1.44898-1.173863-2.375-1.265625-.92596-.0922-1.85731.186053-2.57813.773438-.72128.587748-1.18165 1.44489-1.27344 2.367187-.0896.902948.19066 1.805444.75586 2.515625l-3.16601 6.691407-3.16797-6.691407c.56492-.709605.84472-1.61129.75586-2.513672-.0912-.922286-.54863-1.778941-1.26953-2.367187-.63037-.514392-1.42193-.792861-2.23047-.792969z" stroke-width="1.5" />
      <g fill="#fff">
        <path d="m314.10553 88.425781c-3.76945-.0088-6.8099.679907-9.6875 1.347657v1.541015c2.97609-.689903 5.96177-1.397322 9.68359-1.388672 3.70855.0087 6.59964.713731 9.48242 1.386719v-1.541016c-2.77992-.650852-5.73023-1.336923-9.47851-1.345703z" />
        <path d="m303.93164 94.378906c-.20822 1.116533-.56536 2.282161-.88672 3.279297l4.34375-2.373047z" />
        <path d="m324.10352 94.369141-3.48829.916015 4.37891 2.394532c-.25734-.755343-.49084-1.527567-.66602-2.28711-.0907-.393446-.16218-.724702-.2246-1.023437z" />
        <path d="m314.00195 93.144531-4.04687 1.798828 4.04687 1.845703 4.04493-1.845703z" />
      </g>
    </g>
  </g>
  <g id="br" transform="scale(0.8333333333333334 0.8333333333333334)">
    <g transform="translate(-174 -59.099319)">
      <path d="m192.2832 66.572266-.64062.01563-5.58594.142578.0918 4.789063.0273.09375s.8583 2.607308 3.4375 5.162109l-1.70703 16.632813c-3.68344 2.423744-3.79687 6.535151-3.79687 6.535151v.75h27.78124v-.75s-.11343-4.111407-3.79687-6.535151l-1.70703-16.632813c2.5792-2.554801 3.4375-5.162109 3.4375-5.162109l.0273-.09375.0918-4.789063-6.22656-.158203-.67969 3.660156-1.74219-.109375-.15625-3.498047h-6.27734l-.1543 3.498047-1.74414.109375z" stroke-linecap="round" stroke-width="1.5" />
      <path d="m189.21782 93.774801h17.56435" fill="#0f0" stroke-width="1.5" />
      <g fill="#fff">
        <path d="m189.60742 91.503906-.15234 1.5h17.07226l-.18945-1.5z" />
        <path d="m191.01953 77.75-.1543 1.5h13.93555l-.1875-1.5z" />
      </g>
    </g>
  </g>
  <g id="wb" transform="scale(0.8333333333333334 0.8333333333333334)">
    <g fill="#fff" stroke="#000" stroke-linecap="round" stroke-width="1.5" transform="translate(-116)">
      <path d="m138.20742 33.884766c-.55383 1.357765-1.67656 3.034595-3.29884 3.083984l-5.25333.159934c-1.48166.04511-2.60016.632703-3.57936 1.578347-.52846.510353-.94799 1.324491-1.13084 2.136719h11.21744c1.63909-.01036 3.31785-1.782563 3.83789-2.279297.52004.496734 2.1988 2.268937 3.83789 2.279297h11.21745c-.18286-.812228-.60239-1.626351-1.13085-2.136719-.97921-.945644-2.0977-1.533239-3.57936-1.578347l-5.25333-.159934c-1.62228-.04939-2.74501-1.726219-3.29883-3.083984" />
      <path d="m145.76172 29.208984c2.16653-1.567216 3.93922-4.387033 3.94922-6.986328-.00004-2.467577-1.95421-5.309488-4.10742-7.693359l-4.45508 5.537109c-.49982.660721-1.44091.790891-2.10156.291016-.66013-.499357-.79152-1.438884-.29297-2.09961l4.73242-5.890624c-.78482-.746635-1.52045-1.39725-2.10742-1.894532.65432-.45277 1.04587-1.1978322 1.04687-1.9941404-.00091-1.3407406-1.08657-2.4272764-2.42578-2.4277344-1.33921.000458-2.42487 1.0869938-2.42578 2.4277344.001.7963082.39255 1.5413704 1.04687 1.9941404-2.66784 2.260214-8.33197 7.548795-8.33203 11.75.01 2.599295 1.78268 5.419112 3.94922 6.986328" />
      <path d="m133.77783 29.209482c-.41348 1.802694-1.02488 3.147079-1.85363 4.674506h16.15237c-.82878-1.527427-1.44016-2.871812-1.85365-4.674506 0 0-2.65095-.726192-6.22254-.726192-3.57158 0-6.22255.726192-6.22255.726192z" />
    </g>
  </g>
  <g id="wk" transform="scale(0.8333333333333334 0.8333333333333334)">
    <g transform="translate(-232)">
      <g stroke-linecap="round">
        <g fill="#fff" stroke="#000" stroke-width="1.5">
          <path d="m261.50444 16.346028c-1.41705-1.387579-3.41154-2.692129-5.53131-2.692522-2.09497-.000045-4.06454 1.287992-5.4781 2.652618l5.50496 9.635936z" />
          <path d="m266.61153 33.174299c4.64877-1.832835 7.38679-6.599521 7.26154-11.250915-.0917-3.408377-3.18205-7.645979-7.66156-7.643402-4.4795.0026-10.23812 7.319048-10.23812 12.372206l-.002 5.465175.002-5.465175c0-5.053158-5.70532-12.372206-10.18482-12.372206h-.00008c-4.47951 0-7.56978 4.235025-7.66157 7.643402-.12524 4.651394 2.61279 9.41808 7.26156 11.250915" />
          <path d="m256.10058 31.568361c-4.04432-.0094-7.20471.848001-10.54862 1.605938 0 0-.58885 4.726007-2.10376 7.669451h25.10333c-1.5135-2.939295-2.10382-7.67026-2.10382-7.67026-3.25666-.737319-6.3028-1.595657-10.34713-1.605129z" />
        </g>
        <path d="m245.70213 35.219665-.96742 3.509118 4.65196-2.541653z" />
        <path d="m256 34.045178-4.04635 1.799449 4.04635 1.845052 4.04635-1.845052z" />
        <path d="m266.29787 35.219665.96742 3.509118-4.65196-2.541653z" />
      </g>
      <g stroke="#000" stroke-miterlimit="3">
        <path d="m252.82431 6.152718h6.34948v6.281495h-6.34948z" fill="#fff" />
        <path d="m252.82431 6.152718 6.34948 6.281495m0-6.281495-6.34948 6.281495" fill="none" stroke-width="1.2" />
      </g>
    </g>
  </g>
  <g id="wn" transform="scale(0.8333333333333334 0.8333333333333334)">
    <g stroke-linecap="round" transform="translate(-58)">
      <path d="m81.274147 10.04275c-2.40381.392094-3.661605 1.35323-4.711433 3.283609l-4.887468 2.395436c-2.042804 1.001215-5.380877 2.601081-4.309412 5.300792l.97072 2.445874 4.29013-1.667969c.614864-.247747 1.589843 1.07858 1.099713 1.498459l-3.798573 2.930728.755073 1.741066 9.98366-2.2146s1.368812 1.497942-1.817877 3.692587c-3.289504 2.265452-6.472542 5.605934-6.956812 7.743853-.48426 2.137918-.0615 3.651165-.0615 3.651165h24.45704c-2.50558-4.339791-.753862-7.568405-.273096-13.40088.49202-5.969018-.213209-14.748065-9.621336-18.3649165-.844018-2.0711238-3.98233-2.8621831-3.98233-2.8621831l-.405947.2642707z" fill="#fff" stroke="#000" stroke-width="1.5" />
      <path d="m87.317117 20.751214c-.226606.710101-.61369 1.320242-1.085938 1.810547-.723296.75095-1.624687 1.252901-2.496094 1.607422-.996169.428811-1.980514.567161-2.93398.790078l.23092 1.421189s.813765.04855 2.556576-.660486c.871404-.354521 1.772795-.858424 2.496094-1.609375.723294-.750951 1.251354-1.777456 1.298828-3.025391.0038-.114947-.01896-.22922-.06641-.333984z" />
      <path d="m80.664628 13.069886c-1.387661.496826-2.134767 1.905856-1.455185 3.061189l4.247291-1.951903c-.196148-1.188106-1.404444-1.60611-2.792106-1.109286z" />
    </g>
  </g>
  <g id="wp" transform="scale(0.8333333333333334 0.8333333333333334)">
    <g fill="#fff" stroke="#000" stroke-linecap="round" stroke-width="1.5">
      <path d="m20.345472 23.419666c.0076 2.271636-.408143 7.385486-4.125208 9.761127-4.849432 3.099356-5.337632 7.638229-5.337632 7.638229h26.234736s-.4882-4.538873-5.337631-7.638229c-3.717066-2.375641-4.132741-7.489491-4.125209-9.761127" />
      <path d="m23.999999 9.3382905c-2.892172-.0001808-5.236788 2.3444345-5.236607 5.2366075.0021 2.026455 1.173205 3.869795 3.006802 4.732609l-3.863784.913039-1.546356 3.198344h15.279891l-1.546356-3.198344-3.863784-.913039c1.833597-.862814 3.004739-2.706154 3.006802-4.732609.000181-2.892173-2.344435-5.2367883-5.236608-5.2366075z" stroke-miterlimit="3" />
    </g>
  </g>
  <g id="wq" transform="scale(0.8333333333333334 0.8333333333333334)">
    <g stroke-linecap="round" transform="translate(-290)">
      <path d="m324.44768 33.17354c-.5827-3.115323.74046-9.086439 4.11328-13.421875.0695.0252.13946.05092.21093.07031.70062.190452 1.47502.09023 2.10352-.267578.62845-.357815 1.10405-.970924 1.29297-1.666016.18866-.695158.0896-1.465233-.27149-2.091797-.36116-.626574-.98093-1.100892-1.68164-1.291016-.70062-.190457-1.47309-.09413-2.10156.263672-.62847.357814-1.10601.970924-1.29492 1.666016-.1408.518807-.12051 1.080072.0488 1.591797l-5.75781 2.554687-.37681-8.586558.00019-.002c.34166-.104553.66434-.272332.94049-.497364.56062-.45684.92756-1.138899.99887-1.8556661.0711-.7167891-.15412-1.4615914-.61391-2.0197923-.45979-.5581998-1.14715-.9247315-1.86966-.9963269-.72246-.071936-1.47045.1520185-2.03107.6088601-.56063.4568397-.92792 1.1427884-.99925 1.8595537-.0711.7167909.15449 1.4577035.6143 2.0159055.0871.105695.18262.203945.28471.295213l-4.05729 8.576556-4.05738-8.575298c.10215-.0912.19776-.189386.28491-.295022.46018-.557893.68624-1.298654.61565-2.0154924-.0709-.7168132-.43768-1.4030084-.99801-1.8602245-.5603-.457218-1.30814-.6816752-2.03066-.6102241l.00006-.0000059c-.72255.07111-1.41016.43718-1.87032.9950709-.46017.5578919-.68587 1.3025428-.61526 2.0193794.0708.7168146.4373 1.3991206.99762 1.8563376.27599.225216.59856.393213.94015.497995l.0002.002-.37626 8.587103-5.75781-2.554687c.16931-.511725.18963-1.07299.0488-1.591797-.18891-.695092-.66645-1.308202-1.29492-1.666016-.62847-.357801-1.40094-.454129-2.10156-.263672-.70071.190124-1.32048.664442-1.68164 1.291016-.36109.626564-.46015 1.396639-.27149 2.091797.18892.695092.66452 1.308201 1.29297 1.666016.6285.357807 1.4029.45803 2.10352.267578.0715-.01939.14143-.04511.21093-.07031 3.37282 4.335436 4.69598 10.306552 4.11328 13.421875" fill="#fff" stroke="#000" stroke-width="1.5" />
      <path d="m314.10176 31.567602c-4.04432-.0094-7.20471.848001-10.54862 1.605938 0 0-.58885 4.726007-2.10376 7.669451h25.10333c-1.5135-2.939295-2.10382-7.67026-2.10382-7.67026-3.25666-.737319-6.3028-1.595657-10.34713-1.605129z" fill="#fff" stroke="#000" stroke-width="1.5" />
      <path d="m303.70331 35.218906-.96742 3.509118 4.65196-2.541653z" />
      <path d="m314.00118 34.044419-4.04635 1.799449 4.04635 1.845052 4.04635-1.845052z" />
      <path d="m324.29905 35.218906.96742 3.509118-4.65196-2.541653z" />
    </g>
  </g>
  <g id="wr" transform="scale(0.8333333333333334 0.8333333333333334)">
    <g fill="#fff" stroke="#000" stroke-linecap="round" stroke-width="1.5" transform="translate(-174)">
      <path d="m205.61096 17.461269c2.74724-2.538418 3.49235-5.156987 3.49235-5.156987l.077-3.9459459-4.84153-.1247467-.68533 3.6855926-3.07795-.193496-.15375-3.4543445h-4.84353l-.15274 3.4559855-3.07896.191855-.68533-3.6855926-4.84152.1247467.077 3.9459459s.74509 2.618569 3.49233 5.156987" />
      <path d="m207.37747 34.656598c3.76305 2.172598 3.76305 6.184045 3.76305 6.184045h-26.28105s0-4.011447 3.76305-6.184045" />
      <path d="m188.62252 34.656598 1.76648-17.195329h15.22196l1.76651 17.195329z" />
    </g>
  </g>
</svg>