<svg xmlns:ns0="http://www.inkscape.org/namespaces/inkscape" xmlns:ns1="http://sodipodi.sourceforge.net/DTD/sodipodi-0.dtd" xmlns="http://www.w3.org/2000/svg" width="40" height="40" viewbox="0.0 0.0 512.0 512.0">
  <g id="bb" transform="scale(0.078125 0.078125)">
    <namedview pagecolor="#ffffff" bordercolor="#666666" borderopacity="1" objecttolerance="10" gridtolerance="10" guidetolerance="10" ns0:pageopacity="0" ns0:pageshadow="2" ns0:window-width="1244" ns0:window-height="725" id="bbnamedview12" showgrid="false" ns0:zoom="1.22" ns0:cx="3.22709" ns0:cy="312.63535" ns0:window-x="230" ns0:window-y="13" ns0:window-maximized="0" ns0:current-layer="svg2" />
    <defs id="bbdefs12" />
    <metadata id="bbmetadata_rdf" />
    <path style="fill:#000000;fill-opacity:1;stroke:#000000;stroke-width:8;stroke-linecap:round;stroke-miterlimit:4;stroke-opacity:1;stroke-dasharray:none" d="m 166.49538,404.47616 c 45.57924,3.2814 68.16588,2.84171 88.8256,-14.67498 -4.54678,20.38254 49.10715,14.94149 64.91508,12.55286 45.20491,-9.89659 113.69647,-2.13067 135.5829,34.08405 -51.65004,-3.26107 -18.72887,39.08737 -69.26743,36.88016 -7.60677,-30.76609 -64.1794,-18.36158 -89.7196,-13.75299 -53.27636,2.71195 -55.59149,-20.17269 -54.64738,-32.86085 -5.339,10.32882 -58.67083,53.45456 -111.34288,32.49231 -25.74888,-16.62488 -55.736693,-3.06081 -88.077959,18.5255 6.778724,-74.06207 93.691929,-80.72172 123.731669,-73.24606 z" id="bbpath3770" ns0:connector-curvature="0" ns1:nodetypes="cccccccccc" />
    <path style="fill:#000000;fill-opacity:1;stroke:#333333;stroke-width:8;stroke-opacity:1;marker:none" d="m 261.8125,379.0625 c -32.668,30.59911 -74.89798,23.3027 -113.32896,19.08442 -66.886028,0.36096 -108.92185,30.85087 -110.45229,87.54058 42.876436,-34.02513 72.7188,-25.21452 117.0742,-17.00849 30.73363,1.6292 61.04943,-11.6426 83.64455,-31.96026 2.80608,19.6645 24.9206,26.48162 42.10015,26.86387 23.86648,1.8705 46.83615,-8.21668 70.79528,-6.31156 12.93182,-0.009 30.13369,4.68174 31.72957,19.91644 14.7824,1.55594 33.07294,-1.71673 39.23263,-17.20353 3.52072,-15.00695 18.37073,-22.33848 32.95487,-19.54647 9.28161,2.49626 6.91381,-2.17165 2.54361,-7.87378 -24.79012,-68.0452 -127.6981,-35.7987 -153.24012,-32.47851 -25.54202,3.32019 -48.43425,6.40698 -43.05349,-21.02271 z m -8.86097,18.63903 c -5.19098,28.30717 83.11737,12.82063 115.21519,10.61617 32.09782,-2.20446 43.87682,-3.84049 63.63562,17.71239 -16.38511,-1.36609 -18.864,1.96738 -23.52934,16.56446 -7.0236,13.44772 -9.02758,27.12792 -17.73939,23.33484 -4.67779,-34.35626 -50.30105,-27.17912 -71.61368,-24.49265 -24.19471,2.5787 -73.85461,13.04087 -72.28457,-24.85784 -33.69123,22.59701 -51.9407,37.23239 -92.492,35.00902 -40.5513,-2.22337 -53.49473,-14.07167 -96.165711,5.31586 29.021648,-38.64056 61.123351,-45.85669 111.057111,-42.52525 27.45388,1.44083 60.13924,0.21962 83.91677,-16.677 z" id="bbpath3768" ns0:connector-curvature="0" ns1:nodetypes="ccccccccccczcczccccccccc" />
    <path ns1:nodetypes="sssss" ns0:connector-curvature="0" id="bbpath3765" d="m 252,15 c -19.27074,0 -35,15.729257 -35,35 0,19.270743 15.72926,35 35,35 19.27074,0 35,-15.729257 35,-35 0,-19.270743 -15.72926,-35 -35,-35 z" style="fill:#000000;fill-opacity:1;fill-rule:nonzero;stroke:#333333;stroke-width:8;stroke-opacity:1;marker:none" />
    <path style="fill:#000000;fill-opacity:1;fill-rule:nonzero;stroke:#333333;stroke-width:8;stroke-opacity:1;marker:none" d="m 252,15 c -19.27074,0 -35,15.729257 -35,35 0,19.270743 15.72926,35 35,35 19.27074,0 35,-15.729257 35,-35 0,-19.270743 -15.72926,-35 -35,-35 z m -0.88496,14.424779 c 13.80583,1.294017 21.46018,5.823923 21.46018,19.690265 0,13.866342 -11.13366,25 -20.57522,25.884956 -13.80583,1.294018 -25,-11.133658 -25,-25 0,-11.211475 14.67348,-21.460177 24.11504,-20.575221 z" id="bbcircle3785" ns0:connector-curvature="0" ns1:nodetypes="ssssssssss" />
    <path ns1:nodetypes="cccczczccc" ns0:connector-curvature="0" id="bbpath3958" d="m 374.19393,354.12291 c -5.01067,21.82806 -59.17904,30.64043 -86.47262,35.26402 -39.39604,3.22555 -94.9273,-3.03755 -151.01804,-18.69617 23.20304,-49.97497 3.46225,-64.04525 -24.3064,-87.04096 -53.683283,-71.48986 13.37476,-151.02223 66.62132,-163.87196 53.24656,-12.84973 48.53556,2.65527 72.24787,-31.526534 19.61436,35.622444 51.09159,18.290074 103.67678,41.457854 52.58519,23.16777 85.46721,122.58939 -1.65572,168.27004 0,0 24.14271,37.65597 20.90716,56.14372 z" style="fill:#000000;fill-opacity:1;stroke:#333333;stroke-width:8;stroke-linecap:round;stroke-miterlimit:4;stroke-opacity:1;stroke-dasharray:none" />
    <path style="fill:#000000;fill-opacity:1;stroke:#333333;stroke-width:8;stroke-linecap:round;stroke-miterlimit:4;stroke-opacity:1;stroke-dasharray:none" d="m 194.95939,129.8611 c -28.76515,6.5381 -63.13373,26.36085 -76.47884,72.95104 -3.73014,24.38845 10.53186,59.61269 30.18064,74.24096 6.13741,5.31056 145.10286,16.59335 148.91037,27.89 2.6079,7.7375 -172.39875,-26.37353 -126.31481,49.34851 50.74955,17.04503 129.0125,28.60929 176.23669,6.82308 -19.87826,-5.20409 -169.23488,-21.0811 -152.45155,-22.48684 54.31534,-4.54934 172.08871,14.58822 127.24401,-40.03172 88.71118,-43.66251 64.3027,-151.42806 -16.6742,-169.45693 -20.98029,-7.31666 -41.49312,-0.52036 -53.49088,-27.64459 -13.78022,26.08691 -28.39628,21.8284 -57.16143,28.36649 z m 179.23454,224.26181 c -5.01067,21.82806 -59.17904,30.64043 -86.47262,35.26402 -39.39604,3.22555 -94.9273,-3.03755 -151.01804,-18.69617 23.20304,-49.97497 3.46225,-64.04525 -24.3064,-87.04096 -53.683283,-71.48986 13.37476,-151.02223 66.62132,-163.87196 53.24656,-12.84973 48.53556,2.65527 72.24787,-31.526534 19.61436,35.622444 51.09159,18.290074 103.67678,41.457854 52.58519,23.16777 85.46721,122.58939 -1.65572,168.27004 0,0 24.14271,37.65597 20.90716,56.14372 z" id="bbpath3955" ns0:connector-curvature="0" ns1:nodetypes="zccsccsccczcccczczccc" />
    <path style="fill:#eeeeee;fill-opacity:1;stroke:#333333;stroke-width:8;stroke-linecap:round;stroke-miterlimit:4;stroke-opacity:1;stroke-dasharray:none" d="m 302,218 c 4.2265,0.0598 8.45089,-1.63776 11.46083,-4.60544 3.00994,-2.96768 4.76704,-7.16764 4.76704,-11.39456 0,-4.22692 -1.7571,-8.42688 -4.76704,-11.39456 C 310.45089,187.63776 306.2265,185.94023 302,186 L 268.48605,185.73554 268,152 c 0.0584,-4.26698 -1.67576,-8.53024 -4.69616,-11.54483 -3.02039,-3.01458 -7.28698,-4.74056 -11.55384,-4.67392 -4.18353,0.0654 -8.31454,1.85029 -11.22941,4.85191 C 237.60572,143.63478 235.94271,147.81635 236,152 L 235.9074,185.94215 202,186 c -4.2265,-0.0598 -8.45089,1.63776 -11.46083,4.60544 -3.00994,2.96768 -4.76704,7.16764 -4.76704,11.39456 0,4.22692 1.7571,8.42688 4.76704,11.39456 C 193.54911,216.36224 197.7735,218.05977 202,218 L 235.89961,217.8588 236,252 c -0.0598,4.2265 1.63776,8.45089 4.60544,11.46083 2.96768,3.00994 7.16764,4.76704 11.39456,4.76704 4.22692,0 8.42688,-1.7571 11.39456,-4.76704 C 266.36224,260.45089 268.0598,256.2265 268,252 l -0.39307,-33.91947 z" id="bbpath3777" ns0:connector-curvature="0" ns1:nodetypes="cssscccscscccssscccsssccc" />
    <path ns1:nodetypes="sccssccs" ns0:connector-curvature="0" id="bbpath2990" d="m 195.04189,338.62785 c 26.76386,-4.91497 109.63075,9.33699 138.51194,-15.17382 1.66704,12.85125 5.66841,16.03958 21.00797,32.63089 -18.7499,5.62534 -176.46071,-14.34603 -159.51991,-17.45707 z M 297.57156,304.9431 c 1.30395,3.86875 -94.49924,-4.93064 -128.02023,12.35047 0.70007,-12.02974 -0.39044,-19.49548 -18.33727,-36.90966 5.7022,2.1757 142.55,13.26254 146.3575,24.55919 z" style="fill:#eeeeee;fill-opacity:1;stroke:#333333;stroke-width:8;stroke-linecap:round;stroke-miterlimit:4;stroke-opacity:1;stroke-dasharray:none" />
  </g>
  <g id="bk" transform="scale(0.078125 0.078125)">
    <namedview pagecolor="#ffffff" bordercolor="#666666" borderopacity="1" objecttolerance="10" gridtolerance="10" guidetolerance="10" ns0:pageopacity="0" ns0:pageshadow="2" ns0:window-width="1600" ns0:window-height="838" id="bknamedview12" showgrid="false" ns0:zoom="1.22" ns0:cx="321.43317" ns0:cy="258.88098" ns0:window-x="-8" ns0:window-y="-8" ns0:window-maximized="1" ns0:current-layer="svg2" />
    <defs id="bkdefs12" />
    <metadata id="bkmetadata_rdf" />
    <path style="fill:#000000;fill-opacity:1;stroke:#333333;stroke-width:8;stroke-linecap:round;stroke-miterlimit:4;stroke-opacity:1" d="m 222.10858,147.19935 c 18.11593,24.49482 22.37559,43.28025 26.97699,61.48481 3.51865,-14.78317 26.79189,-64.20409 42.00031,-73.35178 -8.86547,-13.27765 -8.01032,-22.65652 -23.52107,-41.186979 L 302,94 c 4.2265,0.0598 8.45089,-1.63776 11.46083,-4.60544 3.00994,-2.96768 4.76704,-7.16764 4.76704,-11.39456 0,-4.22692 -1.7571,-8.42688 -4.76704,-11.39456 C 310.45089,63.63776 306.2265,61.94023 302,62 L 268.48605,61.73554 268,28 c 0.0584,-4.26698 -1.67576,-8.53024 -4.69616,-11.54483 -3.02039,-3.01458 -7.28698,-4.74056 -11.55384,-4.67392 -4.18353,0.0654 -8.31454,1.85029 -11.22941,4.85191 C 237.60572,19.63478 235.94271,23.81635 236,28 L 235.9074,61.94215 202,62 c -4.2265,-0.0598 -8.45089,1.63776 -11.46083,4.60544 -3.00994,2.96768 -4.76704,7.16764 -4.76704,11.39456 0,4.22692 1.7571,8.42688 4.76704,11.39456 C 193.54911,92.36224 197.7735,94.05977 202,94 l 33.7652,0.575077 c -0.40798,22.611043 -3.59215,31.332613 -13.65662,52.624273 z" id="bkpath3001" ns0:connector-curvature="0" ns1:nodetypes="cccccssscccscscccsssccc" />
    <path ns1:nodetypes="czcccccc" ns0:connector-curvature="0" id="bkpath3002" d="m 424.19393,414.12291 c -5.01067,21.82806 -20.15185,38.40824 -83.80595,57.93069 -63.6541,19.52245 -243.216246,0.63617 -249.68471,-33.36284 23.20304,-49.97497 3.46225,-64.04525 -24.3064,-87.04096 C -127.94675,105.37237 247.24009,-2.313802 249.93273,234.91797 248.10658,-1.091116 694.31728,108.68446 403.28712,357.9792 c 0,0 24.14271,37.65597 20.90716,56.14372 z" style="fill:#ffffff;fill-opacity:1;stroke:#333333;stroke-width:8;stroke-linecap:round;stroke-miterlimit:4;stroke-opacity:1" />
    <path style="fill:#000000;fill-opacity:1;stroke:#333333;stroke-width:8;stroke-linecap:round;stroke-miterlimit:4;stroke-opacity:1;stroke-dasharray:none" d="M 245.62605,340.52777 C 247.14975,295.44921 230.42335,76.794117 63.813883,130.14548 24.72802,154.73537 17.429032,319.0387 114.66119,361.0531 c 6.13741,5.31056 117.01129,33.44094 232.91037,10.55667 -93.3921,51.7375 -252.39875,-18.37353 -224.98148,56.01517 53.05319,26.25957 240.84951,27.95732 274.90336,-6.51025 -22.48664,10.59976 -218.97069,17.07752 -252.45155,-7.82017 41.47573,6.08492 288.98986,20.20294 227.24401,-54.69839 C 532.70868,242.79174 472.64876,145.42933 444.27837,133.80586 267.79856,58.913108 273.55418,285.2897 245.62605,340.52777 z m 178.56788,73.59514 c -5.01067,21.82806 -20.15185,38.40824 -83.80595,57.93069 -63.6541,19.52245 -243.216246,0.63617 -249.68471,-33.36284 23.20304,-49.97497 3.46225,-64.04525 -24.3064,-87.04096 C -127.94675,105.37237 247.24009,-0.313802 249.93273,236.91797 248.10658,0.908884 694.31728,108.68446 403.28712,357.9792 c 0,0 24.14271,37.65597 20.90716,56.14372 z" id="bkpath3955" ns0:connector-curvature="0" ns1:nodetypes="ccccccccccczcccccc" />
    <path ns1:nodetypes="ccccc" ns0:connector-curvature="0" id="bkpath3003" d="m 254.22829,114.79413 c -2.42237,14.30266 -7.70083,22.34601 -12.97251,32.47519 3.82032,7.96862 7.3263,12.19299 8.55892,21.39523 3.39477,-9.71668 13.16483,-19.86088 23.02684,-33.06184 -5.04155,-12.64499 -10.83761,-18.79468 -18.61325,-20.80858 z" style="fill:#ffffff;fill-opacity:1;stroke:#333333;stroke-width:8;stroke-linecap:round;stroke-miterlimit:4;stroke-opacity:1" />
    <path ns1:nodetypes="cccccc" ns0:connector-curvature="0" id="bkpath3006" d="M 242.34736,345.44581 C 218.61361,351.8954 263.04766,117.41063 72.010605,126.86679 29.251521,138.60041 5.080942,336.241 131.8743,356.95474 232.9698,372.94526 315.15645,380.70432 376.38426,341.38302 518.4369,225.57863 460.05815,154.44572 435.26198,142.82225 273.93194,61.299707 281.76209,291.61391 242.34736,345.44581 z" style="fill:#000000;fill-opacity:1;stroke:#333333;stroke-width:8;stroke-linecap:round;stroke-miterlimit:4;stroke-opacity:1;stroke-dasharray:none" />
  </g>
  <g id="bn" transform="scale(0.078125 0.078125)">
    <namedview pagecolor="#ffffff" bordercolor="#666666" borderopacity="1" objecttolerance="10" gridtolerance="10" guidetolerance="10" ns0:pageopacity="0" ns0:pageshadow="2" ns0:window-width="1600" ns0:window-height="838" id="bnnamedview3028" showgrid="false" ns0:zoom="1.31" ns0:cx="161.02994" ns0:cy="220.56815" ns0:window-x="-8" ns0:window-y="-8" ns0:window-maximized="1" ns0:current-layer="svg2" />
    <defs id="bndefs12" />
    <metadata id="bnmetadata_rdf" />
    <path ns1:nodetypes="cscssscccczccc" ns0:connector-curvature="0" id="bnpath2999" d="m 257.93449,263.85911 c -21.21543,38.26193 -142.29056,154.28277 -157.82544,108.82157 -3.589174,-10.50336 -13.982539,-4.77488 -31.744554,1.90198 -97.585452,-43.442 16.360445,-115.01794 10.633409,-174.04887 -2.706134,-27.89324 29.548625,-71.36727 52.988975,-91.26082 27.55351,-23.384342 30.83039,-32.006381 45.41647,-47.710684 14.58609,-15.704302 10.48136,-38.490867 18.84416,-47.883645 9.23508,7.854998 27.94242,78.128757 57.09526,54.016639 12.41845,-14.316089 4.39721,-27.989164 15.39543,-53.894922 14.77912,4.62708 38.31869,44.382466 42.42007,57.164642 192.63142,42.58985 183.57737,248.13644 178.96295,314.76094 -4.61442,66.6245 17.23511,88.10038 -39.86729,85.27111 -111.50598,7.85082 -233.16803,8.48855 -349.52751,3.39782 54.6259,-38.93207 153.09969,-144.62419 157.20807,-210.53576 z" style="fill:#000000;fill-opacity:1;stroke:#333333;stroke-width:8;stroke-linecap:round;stroke-miterlimit:4;stroke-opacity:1;stroke-dasharray:none" />
    <path style="fill:#000000;fill-opacity:1;stroke:#333333;stroke-width:8;stroke-linecap:round;stroke-miterlimit:4;stroke-opacity:1;stroke-dasharray:none" d="m 257.93449,263.85911 c -21.21543,38.26193 -142.29056,154.28277 -157.82544,108.82157 -3.589174,-10.50336 -13.982539,-4.77488 -31.744554,1.90198 -97.585452,-43.442 16.360445,-115.01794 10.633409,-174.04887 -2.706134,-27.89324 29.548625,-71.36727 52.988975,-91.26082 27.55351,-23.384342 30.83039,-32.006381 45.41647,-47.710684 14.58609,-15.704302 10.48136,-38.490867 18.84416,-47.883645 9.23508,7.854998 27.94242,78.128757 57.09526,54.016639 12.41845,-14.316089 4.39721,-27.989164 15.39543,-53.894922 14.77912,4.62708 38.31869,44.382466 42.42007,57.164642 192.63142,42.58985 183.57737,248.13644 178.96295,314.76094 -4.61442,66.6245 17.23511,88.10038 -39.86729,85.27111 -111.50598,7.85082 -233.16803,8.48855 -349.52751,3.39782 54.6259,-38.93207 153.09969,-144.62419 157.20807,-210.53576 z m 204.2457,184.35477 c 5.63433,-80.37425 7.66134,-357.463146 -158.68838,-354.2908 -11.7279,-4.59779 -20.51085,-35.841654 -27.03265,-55.237411 -6.65104,17.036679 -10.13318,38.15325 -37.97666,54.161346 -29.25476,-2.94198 -29.56984,-27.064531 -41.44188,-46.97943 -3.98011,5.652647 -2.94317,23.416655 -19.29081,39.136465 -16.34764,15.71981 -27.97299,25.6855 -37.06395,32.32165 -27.48954,32.49839 -42.072217,66.32314 -45.017666,91.43225 -4.993721,42.57005 -96.27308777,113.45942 -27.114213,152.25 14.565017,-14.02367 26.578397,17.63818 62.641229,-40.92272 -87.015999,145.95894 148.61749,-58.25978 137.56205,-129.84468 47.35336,63.49478 -51.61493,198.85237 -122.86006,262.27859 117.54718,15.17838 212.56157,13.84321 316.28299,-4.30526 z" id="bnpath3006" ns0:connector-curvature="0" ns1:nodetypes="cscssscccczccccccccscsccccc" />
    <path style="fill:#ffffff;fill-opacity:1;stroke:#333333;stroke-width:1;stroke-linecap:round;stroke-linejoin:round;stroke-miterlimit:4;stroke-opacity:1;stroke-dasharray:none" d="m 174.04361,130.84721 c -6.01462,5.31656 -9.44625,15.07325 -15.78632,19.92347 8.37977,13.66581 0.53267,20.6878 -13.07902,15.53661 -2.03774,1.46626 -11.48184,12.02101 -13.74461,13.13671 2.7719,-27.09323 22.49042,-40.50618 42.60995,-48.59679 z" id="bnpath2994" ns0:connector-curvature="0" ns1:nodetypes="ccccc" />
    <path ns1:nodetypes="ccccc" ns0:connector-curvature="0" id="bnpath2997" d="m 66.77634,291.42865 c 7.67153,-3.15575 5.76765,-2.83443 10.08083,-3.998 4.890633,7.38415 3.929427,5.07494 6.3211,14.87664 -2.03774,1.46626 -11.48184,12.02101 -13.74461,13.13671 -4.017965,-4.21102 -7.57241,-16.77188 -2.65732,-24.01535 z" style="fill:#ffffff;fill-opacity:1;stroke:#333333;stroke-width:6;stroke-linecap:round;stroke-linejoin:round;stroke-miterlimit:4;stroke-opacity:1;stroke-dasharray:none" />
    <path style="fill:#ffffff;fill-opacity:1;stroke:#333333;stroke-width:4;stroke-linecap:round;stroke-miterlimit:4;stroke-opacity:1;stroke-dasharray:none" d="m 459.90294,446.5407 c -23.91514,4.41669 -14.87957,5.39548 -47.61333,9.30669 57.75936,-21.69535 49.33597,-323.85586 -108.80428,-351.13323 196.98638,11.9542 148.3787,342.37025 156.41761,341.82654 z" id="bnpath3006-1" ns0:connector-curvature="0" ns1:nodetypes="cccc" />
  </g>
  <g id="bp" transform="scale(0.078125 0.078125)">
    <namedview pagecolor="#ffffff" bordercolor="#666666" borderopacity="1" objecttolerance="10" gridtolerance="10" guidetolerance="10" ns0:pageopacity="0" ns0:pageshadow="2" ns0:window-width="1600" ns0:window-height="838" id="bpnamedview3028" showgrid="false" ns0:zoom="1.31" ns0:cx="345.38109" ns0:cy="234.95033" ns0:window-x="-8" ns0:window-y="-8" ns0:window-maximized="1" ns0:current-layer="svg2" />
    <defs id="bpdefs12" />
    <metadata id="bpmetadata_rdf" />
    <path ns1:nodetypes="cccczcccccc" ns0:connector-curvature="0" id="bppath3009" d="M 193.17113,280.82094 C 118.67922,227.5738 136.1786,198.63352 208.28816,144.81167 197.21899,128.36945 163.9282,94.219828 186.35438,66.350397 c 23.22583,-27.480212 68.24316,-39.555863 99.83236,-32.38796 19.36939,8.9162 40.72028,23.934119 42.83542,46.709942 2.11514,22.775821 -8.35089,37.659691 -24.83358,56.792101 80.42798,35.92479 80.62404,75.3901 12.96969,135.50052 63.85278,21.32211 102.99393,55.30911 126.09272,114.28766 12.05825,40.66242 24.10534,86.57366 -32.99706,83.74439 -111.50598,7.85082 -233.16803,8.48855 -349.527512,3.39782 8.061023,-97.71069 52.000452,-156.67 132.444712,-193.57393 z" style="fill:#000000;fill-opacity:1;stroke:#333333;stroke-width:8;stroke-linecap:round;stroke-miterlimit:4;stroke-opacity:1;stroke-dasharray:none" />
    <path style="fill:#000000;fill-opacity:1;stroke:#333333;stroke-width:8;stroke-linecap:round;stroke-miterlimit:4;stroke-opacity:1;stroke-dasharray:none" d="M 193.17113,280.82094 C 118.67922,227.5738 136.1786,198.63352 208.28816,144.81167 197.21899,128.36945 163.9282,94.219828 186.35438,66.350397 c 23.22583,-27.480212 68.24316,-39.555863 99.83236,-32.38796 19.36939,8.9162 40.72028,23.934119 42.83542,46.709942 2.11514,22.775821 -8.35089,37.659691 -24.83358,56.792101 80.42798,35.92479 80.62404,75.3901 12.96969,135.50052 63.85278,21.32211 102.99393,55.30911 126.09272,114.28766 12.05825,40.66242 24.10534,86.57366 -32.99706,83.74439 -111.50598,7.85082 -233.16803,8.48855 -349.527512,3.39782 8.061023,-97.71069 52.000452,-156.67 132.444712,-193.57393 z m 229.00906,167.39294 c -14.74574,-70.56162 -15.91838,-116.18402 -100.68838,-152.2908 -11.7279,-4.59779 -50.75512,-14.83402 -27.50593,-26.59619 36.09705,-21.13126 80.08055,-74.16736 26.28288,-98.61728 -17.80438,-9.04885 -34.30267,-20.85079 -53.04493,-27.78859 34.02451,-29.91608 48.66684,-59.478317 12.92767,-84.373944 -36.45607,-23.025646 -71.37033,6.818814 -74.72729,27.65171 0.0612,22.617554 8.18145,49.699244 27.45039,59.077284 -25.53978,19.17533 -46.15456,36.67253 -61.29291,47.83471 -27.04777,43.09398 40.47676,64.85415 50.10166,92.12762 -72.52521,26.68042 -118.48355,62.32924 -136.396833,167.28074 117.547173,15.17838 233.172253,13.84321 336.893673,-4.30526 z" id="bppath3006" ns0:connector-curvature="0" ns1:nodetypes="cccczcccccccccccccccccc" />
  </g>
  <g id="bq" transform="scale(0.078125 0.078125)">
    <namedview pagecolor="#ffffff" bordercolor="#666666" borderopacity="1" objecttolerance="10" gridtolerance="10" guidetolerance="10" ns0:pageopacity="0" ns0:pageshadow="2" ns0:window-width="1600" ns0:window-height="838" id="bqnamedview12" showgrid="false" ns0:zoom="1.61" ns0:cx="384.83801" ns0:cy="205.21948" ns0:window-x="-8" ns0:window-y="-8" ns0:window-maximized="1" ns0:current-layer="svg2" />
    <defs id="bqdefs12" />
    <metadata id="bqmetadata_rdf" />
    <path ns1:nodetypes="czccccscccc" ns0:connector-curvature="0" id="bqpath3008" d="m 424.19393,414.12291 c -5.01067,21.82806 -20.15185,38.40824 -83.80595,57.93069 -63.6541,19.52245 -243.216246,0.63617 -249.68471,-33.36284 23.20304,-49.97497 3.46225,-64.04525 -24.3064,-87.04096 C 12.713587,280.15994 61.77163,205.9609 40.351523,127.77784 72.26475,173.59478 135.55375,261.09978 157.93273,294.91797 c 9.80718,17.81122 176.9271,19.85529 188.80766,2.0661 28.81104,-43.13982 99.24319,-134.8588 125.53578,-172.60824 -20.74814,71.16777 14.13388,195.92272 -68.98905,233.60337 0,0 24.14271,37.65597 20.90716,56.14372 z" style="fill:#ffffff;fill-opacity:1;stroke:#333333;stroke-width:8;stroke-linecap:round;stroke-miterlimit:4;stroke-opacity:1" />
    <path style="fill:#ffffff;fill-opacity:1;stroke:#333333;stroke-width:8;stroke-linecap:round;stroke-miterlimit:4;stroke-opacity:1" d="M 158.39687,305.6498 C 104.71359,234.15994 153.77163,159.9609 132.35152,81.77784 164.26475,127.59478 227.55375,215.09978 249.93273,248.91797 269.981,268.94386 356.67757,123.36608 388.27617,78.37583 367.52803,149.5436 402.41005,274.29855 319.28712,311.9792 281.62285,333.7936 163.05737,322.41812 158.39687,305.6498 z" id="bqpath3006" ns0:connector-curvature="0" ns1:nodetypes="cccccc" />
    <path ns1:nodetypes="cccccccccccc" ns0:connector-curvature="0" id="bqpath2999" d="m 151.81388,135.47881 c 2.44249,32.1405 -5.75489,144.21988 54.84731,179.57429 69.38244,-2.45306 12.16281,-1.55615 81.62471,-2.45697 67.37785,-48.99584 60.96937,-126.09473 77.3258,-180.1236 -30.38471,50.78132 -78.27955,145.1882 -122.82421,155.02208 -12.60912,11.1388 -45.3601,-101.89379 -90.97361,-152.0158 z m 6.58299,170.17099 C 104.71359,234.15994 153.77163,159.9609 132.35152,81.77784 164.26475,127.59478 227.55375,215.09978 249.93273,248.91797 269.981,268.94386 356.67757,123.36608 388.27617,78.37583 367.52803,149.5436 402.41005,274.29855 319.28712,311.9792 281.62285,333.7936 163.05737,322.41812 158.39687,305.6498 z" style="fill:#000000;fill-opacity:1;stroke:#333333;stroke-width:8;stroke-linecap:round;stroke-miterlimit:4;stroke-opacity:1;stroke-dasharray:none" />
    <path ns1:nodetypes="cccc" ns0:connector-curvature="0" id="bqpath3015" d="m 186.39687,309.64979 c 8.98339,-66.15652 50.04143,-184.35556 63.28798,-247.87195 42.5799,49.81694 49.8689,217.32194 72.24788,251.14013 -22.74943,14.03571 -89.57428,26.262 -135.53586,-3.26818 z" style="fill:#ffffff;fill-opacity:1;stroke:#333333;stroke-width:8;stroke-linecap:round;stroke-miterlimit:4;stroke-opacity:1" />
    <path style="fill:#000000;fill-opacity:1;stroke:#333333;stroke-width:8;stroke-linecap:round;stroke-miterlimit:4;stroke-opacity:1;stroke-dasharray:none" d="m 152.50418,139.87097 c -5.97123,37.14839 4.5492,128.0845 31.32471,152.75562 0,0 11.96426,-42.43889 17.62527,-51.79865 -13.70876,-17.47368 -31.8859,-75.38292 -48.94998,-100.95697 z" id="bqpath3004" ns0:connector-curvature="0" ns1:nodetypes="cccc" />
    <path style="fill:#000000;fill-opacity:1;stroke:#333333;stroke-width:8;stroke-linecap:round;stroke-miterlimit:4;stroke-opacity:1;stroke-dasharray:none" d="m 253.14721,126.14548 c 2.44249,32.1405 -41.75489,142.88655 -46.48602,184.90762 16.82983,1.34266 20.51039,8.78936 92.1263,-3.5585 -12.60912,11.1388 -0.0268,-131.22711 -45.64028,-181.34912 z M 183.7302,310.98313 c 8.98339,-66.15652 52.7081,-185.6889 65.95465,-249.20529 42.5799,49.81694 52.53556,218.65527 74.91454,252.47346 -22.74943,14.03571 -94.90761,26.26201 -140.86919,-3.26817 z" id="bqpath3001" ns0:connector-curvature="0" ns1:nodetypes="cccccccc" />
    <g id="bqg2999" style="fill:#000000">
      <path style="fill:#000000;fill-opacity:1;fill-rule:nonzero;stroke:#333333;stroke-width:8;stroke-opacity:1;marker:none" d="m 252,15 c -19.27074,0 -35,15.729257 -35,35 0,19.270743 15.72926,35 35,35 19.27074,0 35,-15.729257 35,-35 0,-19.270743 -15.72926,-35 -35,-35 z" id="bqpath3765" ns0:connector-curvature="0" ns1:nodetypes="sssss" />
      <path ns1:nodetypes="ssssssssss" ns0:connector-curvature="0" id="bqcircle3785" d="m 252,15 c -19.27074,0 -35,15.729257 -35,35 0,19.270743 15.72926,35 35,35 19.27074,0 35,-15.729257 35,-35 0,-19.270743 -15.72926,-35 -35,-35 z m -0.88496,14.424779 c 13.80583,1.294017 21.46018,5.823923 21.46018,19.690265 0,13.866342 -11.13366,25 -20.57522,25.884956 -13.80583,1.294018 -25,-11.133658 -25,-25 0,-11.211475 14.67348,-21.460177 24.11504,-20.575221 z" style="fill:#000000;fill-opacity:1;fill-rule:nonzero;stroke:#333333;stroke-width:8;stroke-opacity:1;marker:none" />
    </g>
    <path ns1:nodetypes="cccc" ns0:connector-curvature="0" id="bqpath3002" d="m 254.75383,129.77281 c -2.19989,31.75363 -43.69114,140.94095 -48.92155,177.47597 16.82983,1.34266 52.75619,2.52491 84.92528,1.60303 -18.1974,-3.50765 -4.56347,-118.82809 -36.00373,-179.079 z" style="fill:#000000;fill-opacity:1;stroke:#333333;stroke-width:8;stroke-linecap:round;stroke-miterlimit:4;stroke-opacity:1;stroke-dasharray:none" />
    <path style="fill:#000000;fill-opacity:1;stroke:#333333;stroke-width:8;stroke-linecap:round;stroke-miterlimit:4;stroke-opacity:1;stroke-dasharray:none" d="m 144.29272,320.52777 c -17.34679,-30.40152 -43.13373,-94.97249 -84.478837,-139.04896 2.442488,32.1405 -5.754891,144.21988 54.847307,179.57429 6.13741,5.31056 117.01129,33.44094 232.91037,10.55667 -93.3921,51.7375 -252.39875,-18.37353 -224.98148,56.01517 53.05319,26.25957 240.84951,27.95732 274.90336,-6.51025 -22.48664,10.59976 -218.97069,17.07752 -252.45155,-7.82017 41.47573,6.08492 288.98986,20.20294 227.24401,-54.69839 67.37785,-48.99584 60.96937,-126.09473 77.3258,-180.1236 -30.38471,50.78132 -78.27955,145.1882 -122.82421,155.02208 -39.03846,0.99304 -165.14798,17.43468 -182.49477,-12.96684 z m 279.90121,93.59514 c -5.01067,21.82806 -20.15185,38.40824 -83.80595,57.93069 -63.6541,19.52245 -243.216246,0.63617 -249.68471,-33.36284 23.20304,-49.97497 3.46225,-64.04525 -24.3064,-87.04096 C 12.713587,280.15994 61.77163,205.9609 40.351523,127.77784 72.26475,173.59478 135.55375,261.09978 157.93273,294.91797 c 9.80718,17.81122 176.9271,19.85529 188.80766,2.0661 28.81104,-43.13982 99.24319,-134.8588 125.53578,-172.60824 -20.74814,71.16777 14.13388,195.92272 -68.98905,233.60337 0,0 24.14271,37.65597 20.90716,56.14372 z" id="bqpath3955" ns0:connector-curvature="0" ns1:nodetypes="zccccccccczczccccscccc" />
    <g id="bqg3003" transform="translate(-210,68)" style="fill:#000000">
      <path ns1:nodetypes="sssss" ns0:connector-curvature="0" id="bqpath3005" d="m 252,15 c -19.27074,0 -35,15.729257 -35,35 0,19.270743 15.72926,35 35,35 19.27074,0 35,-15.729257 35,-35 0,-19.270743 -15.72926,-35 -35,-35 z" style="fill:#000000;fill-opacity:1;fill-rule:nonzero;stroke:#333333;stroke-width:8;stroke-opacity:1;marker:none" />
      <path style="fill:#000000;fill-opacity:1;fill-rule:nonzero;stroke:#333333;stroke-width:8;stroke-opacity:1;marker:none" d="m 252,15 c -19.27074,0 -35,15.729257 -35,35 0,19.270743 15.72926,35 35,35 19.27074,0 35,-15.729257 35,-35 0,-19.270743 -15.72926,-35 -35,-35 z m -0.88496,14.424779 c 13.80583,1.294017 21.46018,5.823923 21.46018,19.690265 0,13.866342 -11.13366,25 -20.57522,25.884956 -13.80583,1.294018 -25,-11.133658 -25,-25 0,-11.211475 14.67348,-21.460177 24.11504,-20.575221 z" id="bqpath3007" ns0:connector-curvature="0" ns1:nodetypes="ssssssssss" />
    </g>
    <g id="bqg3009" transform="translate(222,72)" style="fill:#000000">
      <path style="fill:#000000;fill-opacity:1;fill-rule:nonzero;stroke:#333333;stroke-width:8;stroke-opacity:1;marker:none" d="m 252,15 c -19.27074,0 -35,15.729257 -35,35 0,19.270743 15.72926,35 35,35 19.27074,0 35,-15.729257 35,-35 0,-19.270743 -15.72926,-35 -35,-35 z" id="bqpath3011" ns0:connector-curvature="0" ns1:nodetypes="sssss" />
      <path ns1:nodetypes="ssssssssss" ns0:connector-curvature="0" id="bqpath3013" d="m 252,15 c -19.27074,0 -35,15.729257 -35,35 0,19.270743 15.72926,35 35,35 19.27074,0 35,-15.729257 35,-35 0,-19.270743 -15.72926,-35 -35,-35 z m -0.88496,14.424779 c 13.80583,1.294017 21.46018,5.823923 21.46018,19.690265 0,13.866342 -11.13366,25 -20.57522,25.884956 -13.80583,1.294018 -25,-11.133658 -25,-25 0,-11.211475 14.67348,-21.460177 24.11504,-20.575221 z" style="fill:#000000;fill-opacity:1;fill-rule:nonzero;stroke:#333333;stroke-width:8;stroke-opacity:1;marker:none" />
    </g>
    <g id="bqg3015" transform="translate(-114,24)" style="fill:#000000">
      <path ns1:nodetypes="sssss" ns0:connector-curvature="0" id="bqpath3017" d="m 252,15 c -19.27074,0 -35,15.729257 -35,35 0,19.270743 15.72926,35 35,35 19.27074,0 35,-15.729257 35,-35 0,-19.270743 -15.72926,-35 -35,-35 z" style="fill:#000000;fill-opacity:1;fill-rule:nonzero;stroke:#333333;stroke-width:8;stroke-opacity:1;marker:none" />
      <path style="fill:#000000;fill-opacity:1;fill-rule:nonzero;stroke:#333333;stroke-width:8;stroke-opacity:1;marker:none" d="m 252,15 c -19.27074,0 -35,15.729257 -35,35 0,19.270743 15.72926,35 35,35 19.27074,0 35,-15.729257 35,-35 0,-19.270743 -15.72926,-35 -35,-35 z m -0.88496,14.424779 c 13.80583,1.294017 21.46018,5.823923 21.46018,19.690265 0,13.866342 -11.13366,25 -20.57522,25.884956 -13.80583,1.294018 -25,-11.133658 -25,-25 0,-11.211475 14.67348,-21.460177 24.11504,-20.575221 z" id="bqpath3019" ns0:connector-curvature="0" ns1:nodetypes="ssssssssss" />
    </g>
    <g id="bqg3021" transform="translate(126,22)" style="fill:#000000">
      <path style="fill:#000000;fill-opacity:1;fill-rule:nonzero;stroke:#333333;stroke-width:8;stroke-opacity:1;marker:none" d="m 252,15 c -19.27074,0 -35,15.729257 -35,35 0,19.270743 15.72926,35 35,35 19.27074,0 35,-15.729257 35,-35 0,-19.270743 -15.72926,-35 -35,-35 z" id="bqpath3023" ns0:connector-curvature="0" ns1:nodetypes="sssss" />
      <path ns1:nodetypes="ssssssssss" ns0:connector-curvature="0" id="bqpath3025" d="m 252,15 c -19.27074,0 -35,15.729257 -35,35 0,19.270743 15.72926,35 35,35 19.27074,0 35,-15.729257 35,-35 0,-19.270743 -15.72926,-35 -35,-35 z m -0.88496,14.424779 c 13.80583,1.294017 21.46018,5.823923 21.46018,19.690265 0,13.866342 -11.13366,25 -20.57522,25.884956 -13.80583,1.294018 -25,-11.133658 -25,-25 0,-11.211475 14.67348,-21.460177 24.11504,-20.575221 z" style="fill:#000000;fill-opacity:1;fill-rule:nonzero;stroke:#333333;stroke-width:8;stroke-opacity:1;marker:none" />
    </g>
    <path ns1:nodetypes="cccc" ns0:connector-curvature="0" id="bqpath3009" d="m 312.2859,265.92946 c 9.60079,3.76278 31.42502,-68.53656 50.44381,-126.41759 -11.71804,20.46024 -49.88203,80.0452 -59.76002,93.60593 1.46768,6.7009 6.49142,22.32743 9.31621,32.81166 z" style="fill:#000000;fill-opacity:1;stroke:#333333;stroke-width:8;stroke-linecap:round;stroke-miterlimit:4;stroke-opacity:1;stroke-dasharray:none" />
    <path ns1:nodetypes="zcccccz" ns0:connector-curvature="0" id="bqpath3012" d="M 132.49148,332.32901 C 115.14469,301.92749 101.78011,228.03975 60.435001,183.96328 c 2.442488,32.1405 -6.376009,140.49317 54.226189,175.84758 46.30954,9.87732 180.88773,26.01083 253.898,-14.87933 36.67018,-14.41647 61.83003,-99.59609 77.32581,-154.65775 -30.38471,50.78132 -80.76403,147.05155 -125.30869,156.88543 -39.03846,0.99304 -170.73804,15.57132 -188.08483,-14.8302 z" style="fill:#000000;fill-opacity:1;stroke:#333333;stroke-width:8;stroke-linecap:round;stroke-miterlimit:4;stroke-opacity:1;stroke-dasharray:none" />
  </g>
  <g id="br" transform="scale(0.078125 0.078125)">
    <namedview pagecolor="#ffffff" bordercolor="#666666" borderopacity="1" objecttolerance="10" gridtolerance="10" guidetolerance="10" ns0:pageopacity="0" ns0:pageshadow="2" ns0:window-width="1600" ns0:window-height="838" id="brnamedview3028" showgrid="false" ns0:zoom="1.31" ns0:cx="218.74761" ns0:cy="246.88024" ns0:window-x="-8" ns0:window-y="-8" ns0:window-maximized="1" ns0:current-layer="svg2" />
    <defs id="brdefs12" />
    <metadata id="brmetadata_rdf" />
    <path ns1:nodetypes="ccccccccccccccccccccccccccc" ns0:connector-curvature="0" id="brpath3775" d="m 33.546636,486.04874 c 0.397952,-24.50387 -2.62915,-65.64682 1.822089,-76.81877 28.632577,-6.54861 52.186994,-29.0559 71.364915,-35.71244 37.75795,-27.97261 18.97253,-85.51941 17.98594,-170.84015 0.72678,-16.83297 1.43421,-35.73728 -19.77148,-28.48959 9.07916,-36.85727 -30.623843,-28.85807 -55.273435,-27.97047 5.317027,-27.05899 4.029322,-88.247698 2.904922,-115.617708 39.984921,-3.584315 79.724903,-1.722565 117.423553,-1.522573 16.25272,8.050587 -15.77094,40.847306 6.64114,34.115912 36.72243,2.233019 22.56077,-21.675625 23.3849,-36.91498 25.77899,1.514546 44.75537,3.07666 67.61051,0.726051 15.18507,4.398864 40.94407,-8.496467 38.91033,17.164495 -0.14743,17.056169 0.14212,31.551313 22.98338,26.028418 0.14727,-19.627354 3.68967,-16.871263 5.71413,-38.737841 41.12823,6.626338 80.65772,-2.105751 120.31515,1.570806 0.84095,24.147434 1.46049,47.395638 1.83551,68.96266 1.58951,28.76466 -0.88972,38.15806 -29.14506,37.69933 -11.49594,3.28102 2.7582,9.04588 -12.88279,6.99958 -29.48052,3.11949 -10.01257,28.9983 -32.33425,34.1109 3.07441,33.89794 -0.95045,67.85968 0.49527,101.77943 7.65931,16.47934 -13.18563,49.03655 15.05964,48.70606 19.13724,0.28169 16.01386,24.56213 16.82819,30.86293 28.7958,-9.44911 18.33999,23.82235 23.82002,36.01145 17.70191,-4.96368 36.52926,-5.41273 36.49143,21.74758 -2.32111,24.10689 12.30798,34.21843 -15.42656,55.8966 -27.22209,14.98099 -112.34637,6.07186 -165.36623,10.6333 -52.85647,1.518 -229.743703,-1.78476 -261.391214,-0.39098 z" style="fill:#000000;fill-opacity:1;stroke:#333333;stroke-width:8;stroke-linecap:round;stroke-miterlimit:4;stroke-opacity:1;stroke-dasharray:none" />
    <path style="fill:#000000;fill-opacity:1;stroke:#333333;stroke-width:8;stroke-linecap:round;stroke-miterlimit:4;stroke-opacity:1;stroke-dasharray:none" d="m 230.9722,461.15823 c 76.43575,14.95858 148.54154,-2.90784 217.3778,-2.62136 1.61098,-21.80554 1.48935,-35.20808 -4.7172,-41.17293 -18.84719,8.33685 -45.67087,-3.89753 -38.25345,-23.74025 6.28744,-22.37099 -32.91149,1.34589 -22.2957,-23.51806 6.4721,-26.64447 -46.13316,-12.34249 -30.2426,-43.59575 -0.80906,-26.60002 -2.49157,-53.13403 0.22941,-79.73106 1.1468,-21.817 -2.3294,-43.54027 -1.80361,-65.32089 43.43278,-22.41192 29.00107,-20.23003 29.50177,-21.93596 -6.38972,-24.74483 22.16811,-29.63891 39.18728,-33.70919 7.7243,-28.974593 3.3985,6.66209 1.67848,-61.897053 C 417.47749,40.584682 357.66539,57.862878 347.8092,56.47913 346.17173,91.038998 362.51287,86.361213 313.15579,91.169452 294.18772,94.260243 268.03632,90.220304 280.80995,64.961889 293.0688,33.72737 246.905,52.038529 230.50761,47.563656 c -5.95396,9.590487 -3.59044,21.780521 -7.02682,36.484045 -23.98487,1.804212 -35.55026,-2.093185 -59.35083,1.007626 -14.1703,-0.143303 -27.77804,3.356248 -25.2833,-18.253512 0.92401,-17.706909 0.74912,-22.312788 -13.79662,-16.406399 -12.73985,-1.533015 -19.11237,-1.883871 -41.080419,-4.757864 2.584786,27.381227 3.156871,49.950195 0.861098,77.123878 6.071496,8.83046 27.702481,0.72531 38.611111,0.37107 3.65668,11.56176 -12.86049,43.45403 28.49262,34.06746 2.57206,45.38349 5.40852,143.47247 -0.28873,187.71203 -13.02322,1.19944 -11.38139,0.1593 -23.12807,3.38796 6.45504,21.47737 2.31119,19.94825 2.81261,30.93115 -18.51019,7.88928 -30.70883,-5.12058 -34.491003,8.00655 8.699633,23.01634 -8.217622,36.94901 -32.701719,32.40569 -1.88694,15.3528 -0.681173,-6.98372 -4.729342,45.46747 57.050154,-2.92123 118.520754,-2.88457 171.564004,-3.95258 z M 35.368725,409.22997 c 28.632577,-6.54861 52.186994,-29.0559 71.364915,-35.71244 37.75795,-27.97261 18.97253,-85.51941 17.98594,-170.84015 0.72678,-16.83297 1.43421,-35.73728 -19.77148,-28.48959 9.07916,-36.85727 -30.623843,-28.85807 -55.273435,-27.97047 5.317027,-27.05899 4.029322,-88.247698 2.904922,-115.617708 39.984921,-3.584315 79.724903,-1.722565 117.423553,-1.522573 16.25272,8.050587 -15.77094,40.847306 6.64114,34.115912 36.72243,2.233019 22.56077,-21.675625 23.3849,-36.91498 25.77899,1.514546 44.75537,3.07666 67.61051,0.726051 15.18507,4.398864 40.94407,-8.496467 38.91033,17.164495 -0.14743,17.056169 0.14212,31.551313 22.98338,26.028418 0.14727,-19.627354 3.68967,-16.871263 5.71413,-38.737841 41.12823,6.626338 80.65772,-2.105751 120.31515,1.570806 0.84095,24.147434 1.46049,47.395638 1.83551,68.96266 1.58951,28.76466 -0.88972,38.15806 -29.14506,37.69933 -11.49594,3.28102 2.7582,9.04588 -12.88279,6.99958 -29.48052,3.11949 -10.01257,28.9983 -32.33425,34.1109 3.07441,33.89794 -0.95045,67.85968 0.49527,101.77943 7.65931,16.47934 -13.18563,49.03655 15.05964,48.70606 19.13724,0.28169 16.01386,24.56213 16.82819,30.86293 28.7958,-9.44911 18.33999,23.82235 23.82002,36.01145 17.70191,-4.96368 36.52926,-5.41273 36.49143,21.74758 -2.32111,24.10689 12.30798,34.21843 -15.42656,55.8966 -27.22209,14.98099 -112.34637,6.07186 -165.36623,10.6333 -87.6532,-4.25337 -174.50744,-3.84528 -260.749346,-1.17341 -0.243916,-22.95808 -3.271018,-64.86439 1.180221,-76.03634 z" id="brpath2994" ns0:connector-curvature="0" ns1:nodetypes="ccccccccccccccccccccccccccccccccccccccccccccccccccccccccc" />
    <path style="fill:#ffffff;fill-opacity:1;stroke:#333333;stroke-width:8;stroke-linecap:round;stroke-miterlimit:4;stroke-opacity:1" d="m 366.28125,123.84375 -220.625,0.78125 a 8.0008,8.0008 0 1 0 0.0625,16 l 220.625,-0.78125 a 8.0008,8.0008 0 1 0 -0.0625,-16 z" id="brpath2997" ns0:connector-curvature="0" />
    <path style="fill:#ffffff;fill-opacity:1;stroke:#333333;stroke-width:8;stroke-linecap:round;stroke-miterlimit:4;stroke-opacity:1" d="m 366.28125,373.84375 -220.625,0.78125 a 8.0008,8.0008 0 1 0 0.0625,16 l 220.625,-0.78125 a 8.0008,8.0008 0 1 0 -0.0625,-16 z" id="brpath3767" ns0:connector-curvature="0" />
    <path style="fill:#ffffff;fill-opacity:1;stroke:#333333;stroke-width:8;stroke-linecap:round;stroke-miterlimit:4;stroke-opacity:1" d="m 388.40625,405.84375 -271,1.53125 a 8.0008,8.0008 0 1 0 0.0937,16 l 271,-1.53125 a 8.0008,8.0008 0 1 0 -0.0937,-16 z" id="brpath3769" ns0:connector-curvature="0" />
    <path style="fill:#ffffff;fill-opacity:1;stroke:#333333;stroke-width:8;stroke-linecap:round;stroke-miterlimit:4;stroke-opacity:1" d="m 173.46875,331.09375 a 8.0008,8.0008 0 1 0 0,16 l 161.0625,0 a 8.0008,8.0008 0 1 0 0,-16 l -161.0625,0 z" id="brpath3771" ns0:connector-curvature="0" />
    <path style="fill:#ffffff;fill-opacity:1;stroke:#333333;stroke-width:8;stroke-linecap:round;stroke-miterlimit:4;stroke-opacity:1" d="m 173.46875,171.09375 a 8.0008,8.0008 0 1 0 0,16 l 161.0625,0 a 8.0008,8.0008 0 1 0 0,-16 l -161.0625,0 z" id="brpath3773" ns0:connector-curvature="0" />
  </g>
  <g id="wb" transform="scale(0.078125 0.078125)">
    <namedview pagecolor="#ffffff" bordercolor="#666666" borderopacity="1" objecttolerance="10" gridtolerance="10" guidetolerance="10" ns0:pageopacity="0" ns0:pageshadow="2" ns0:window-width="1244" ns0:window-height="725" id="wbnamedview12" showgrid="false" ns0:zoom="1.97" ns0:cx="239.14488" ns0:cy="321.68212" ns0:window-x="154" ns0:window-y="8" ns0:window-maximized="0" ns0:current-layer="svg2" />
    <defs id="wbdefs12" />
    <metadata id="wbmetadata_rdf" />
    <path style="fill:#ffffff;fill-opacity:1;stroke:#000000;stroke-width:8;stroke-linecap:round;stroke-miterlimit:4;stroke-opacity:1;stroke-dasharray:none" d="m 166.49538,404.47616 c 45.57924,3.2814 68.16588,2.84171 88.8256,-14.67498 -4.54678,20.38254 49.10715,14.94149 64.91508,12.55286 45.20491,-9.89659 113.69647,-2.13067 135.5829,34.08405 -51.65004,-3.26107 -18.72887,39.08737 -69.26743,36.88016 -7.60677,-30.76609 -64.1794,-18.36158 -89.7196,-13.75299 -53.27636,2.71195 -55.59149,-20.17269 -54.64738,-32.86085 -5.339,10.32882 -58.67083,53.45456 -111.34288,32.49231 -25.74888,-16.62488 -55.736693,-3.06081 -88.077959,18.5255 6.778724,-74.06207 93.691929,-80.72172 123.731669,-73.24606 z" id="wbpath3770" ns0:connector-curvature="0" ns1:nodetypes="cccccccccc" />
    <path style="fill:#000000;fill-opacity:1;stroke:#333333;stroke-width:8;stroke-opacity:1;marker:none" d="m 261.8125,379.0625 c -32.668,30.59911 -74.89798,23.3027 -113.32896,19.08442 -66.886028,0.36096 -108.92185,30.85087 -110.45229,87.54058 42.876436,-34.02513 72.7188,-25.21452 117.0742,-17.00849 30.73363,1.6292 61.04943,-11.6426 83.64455,-31.96026 2.80608,19.6645 24.9206,26.48162 42.10015,26.86387 23.86648,1.8705 46.83615,-8.21668 70.79528,-6.31156 12.93182,-0.009 30.13369,4.68174 31.72957,19.91644 14.7824,1.55594 33.07294,-1.71673 39.23263,-17.20353 3.52072,-15.00695 18.37073,-22.33848 32.95487,-19.54647 9.28161,2.49626 6.91381,-2.17165 2.54361,-7.87378 -24.79012,-68.0452 -127.6981,-35.7987 -153.24012,-32.47851 -25.54202,3.32019 -48.43425,6.40698 -43.05349,-21.02271 z m -8.86097,18.63903 c -5.19098,28.30717 83.11737,12.82063 115.21519,10.61617 32.09782,-2.20446 43.87682,-3.84049 63.63562,17.71239 -16.38511,-1.36609 -18.864,1.96738 -23.52934,16.56446 -7.0236,13.44772 -9.02758,27.12792 -17.73939,23.33484 -4.67779,-34.35626 -50.30105,-27.17912 -71.61368,-24.49265 -24.19471,2.5787 -73.85461,13.04087 -72.28457,-24.85784 -33.69123,22.59701 -51.9407,37.23239 -92.492,35.00902 -40.5513,-2.22337 -53.49473,-14.07167 -96.165711,5.31586 29.021648,-38.64056 61.123351,-45.85669 111.057111,-42.52525 27.45388,1.44083 60.13924,0.21962 83.91677,-16.677 z" id="wbpath3768" ns0:connector-curvature="0" ns1:nodetypes="ccccccccccczcczccccccccc" />
    <path ns1:nodetypes="sssss" ns0:connector-curvature="0" id="wbpath3765" d="m 252,15 c -19.27074,0 -35,15.729257 -35,35 0,19.270743 15.72926,35 35,35 19.27074,0 35,-15.729257 35,-35 0,-19.270743 -15.72926,-35 -35,-35 z" style="fill:#ffffff;fill-opacity:1;fill-rule:nonzero;stroke:#333333;stroke-width:8;stroke-opacity:1;marker:none" />
    <path style="fill:#000000;fill-opacity:1;fill-rule:nonzero;stroke:#333333;stroke-width:8;stroke-opacity:1;marker:none" d="m 252,15 c -19.27074,0 -35,15.729257 -35,35 0,19.270743 15.72926,35 35,35 19.27074,0 35,-15.729257 35,-35 0,-19.270743 -15.72926,-35 -35,-35 z m -0.88496,14.424779 c 13.80583,1.294017 21.46018,5.823923 21.46018,19.690265 0,13.866342 -11.13366,25 -20.57522,25.884956 -13.80583,1.294018 -25,-11.133658 -25,-25 0,-11.211475 14.67348,-21.460177 24.11504,-20.575221 z" id="wbcircle3785" ns0:connector-curvature="0" ns1:nodetypes="ssssssssss" />
    <path ns1:nodetypes="cccczczccc" ns0:connector-curvature="0" id="wbpath3958" d="m 374.19393,354.12291 c -5.01067,21.82806 -59.17904,30.64043 -86.47262,35.26402 -39.39604,3.22555 -94.9273,-3.03755 -151.01804,-18.69617 23.20304,-49.97497 3.46225,-64.04525 -24.3064,-87.04096 -53.683283,-71.48986 13.37476,-151.02223 66.62132,-163.87196 53.24656,-12.84973 48.53556,2.65527 72.24787,-31.526534 19.61436,35.622444 51.09159,18.290074 103.67678,41.457854 52.58519,23.16777 85.46721,122.58939 -1.65572,168.27004 0,0 24.14271,37.65597 20.90716,56.14372 z" style="fill:#ffffff;fill-opacity:1;stroke:#333333;stroke-width:8;stroke-linecap:round;stroke-miterlimit:4;stroke-opacity:1;stroke-dasharray:none" />
    <path style="fill:#000000;fill-opacity:1;stroke:#333333;stroke-width:8;stroke-linecap:round;stroke-miterlimit:4;stroke-opacity:1;stroke-dasharray:none" d="m 194.95939,129.8611 c -28.76515,6.5381 -63.13373,26.36085 -76.47884,72.95104 -3.73014,24.38845 10.53186,59.61269 30.18064,74.24096 6.13741,5.31056 145.10286,16.59335 148.91037,27.89 2.6079,7.7375 -172.39875,-26.37353 -126.31481,49.34851 50.74955,17.04503 129.0125,28.60929 176.23669,6.82308 -19.87826,-5.20409 -169.23488,-21.0811 -152.45155,-22.48684 54.31534,-4.54934 172.08871,14.58822 127.24401,-40.03172 88.71118,-43.66251 64.3027,-151.42806 -16.6742,-169.45693 -20.98029,-7.31666 -41.49312,-0.52036 -53.49088,-27.64459 -13.78022,26.08691 -28.39628,21.8284 -57.16143,28.36649 z m 179.23454,224.26181 c -5.01067,21.82806 -59.17904,30.64043 -86.47262,35.26402 -39.39604,3.22555 -94.9273,-3.03755 -151.01804,-18.69617 23.20304,-49.97497 3.46225,-64.04525 -24.3064,-87.04096 -53.683283,-71.48986 13.37476,-151.02223 66.62132,-163.87196 53.24656,-12.84973 48.53556,2.65527 72.24787,-31.526534 19.61436,35.622444 51.09159,18.290074 103.67678,41.457854 52.58519,23.16777 85.46721,122.58939 -1.65572,168.27004 0,0 24.14271,37.65597 20.90716,56.14372 z" id="wbpath3955" ns0:connector-curvature="0" ns1:nodetypes="zccsccsccczcccczczccc" />
    <path style="fill:#000000;fill-opacity:1;stroke:#333333;stroke-width:8;stroke-linecap:round;stroke-miterlimit:4;stroke-opacity:1;stroke-dasharray:none" d="m 302,218 c 4.2265,0.0598 8.45089,-1.63776 11.46083,-4.60544 3.00994,-2.96768 4.76704,-7.16764 4.76704,-11.39456 0,-4.22692 -1.7571,-8.42688 -4.76704,-11.39456 C 310.45089,187.63776 306.2265,185.94023 302,186 L 268.48605,185.73554 268,152 c 0.0584,-4.26698 -1.67576,-8.53024 -4.69616,-11.54483 -3.02039,-3.01458 -7.28698,-4.74056 -11.55384,-4.67392 -4.18353,0.0654 -8.31454,1.85029 -11.22941,4.85191 C 237.60572,143.63478 235.94271,147.81635 236,152 L 235.9074,185.94215 202,186 c -4.2265,-0.0598 -8.45089,1.63776 -11.46083,4.60544 -3.00994,2.96768 -4.76704,7.16764 -4.76704,11.39456 0,4.22692 1.7571,8.42688 4.76704,11.39456 C 193.54911,216.36224 197.7735,218.05977 202,218 L 235.89961,217.8588 236,252 c -0.0598,4.2265 1.63776,8.45089 4.60544,11.46083 2.96768,3.00994 7.16764,4.76704 11.39456,4.76704 4.22692,0 8.42688,-1.7571 11.39456,-4.76704 C 266.36224,260.45089 268.0598,256.2265 268,252 l -0.39307,-33.91947 z" id="wbpath3777" ns0:connector-curvature="0" ns1:nodetypes="cssscccscscccssscccsssccc" />
  </g>
  <g id="wk" transform="scale(0.078125 0.078125)">
    <namedview pagecolor="#ffffff" bordercolor="#666666" borderopacity="1" objecttolerance="10" gridtolerance="10" guidetolerance="10" ns0:pageopacity="0" ns0:pageshadow="2" ns0:window-width="1600" ns0:window-height="838" id="wknamedview12" showgrid="false" ns0:zoom="1.85" ns0:cx="321.43317" ns0:cy="224.78609" ns0:window-x="-8" ns0:window-y="-8" ns0:window-maximized="1" ns0:current-layer="svg2" />
    <defs id="wkdefs12" />
    <metadata id="wkmetadata_rdf" />
    <path style="fill:#000000;fill-opacity:1;stroke:#333333;stroke-width:8;stroke-linecap:round;stroke-miterlimit:4;stroke-opacity:1" d="m 222.10858,147.19935 c 18.11593,24.49482 22.37559,43.28025 26.97699,61.48481 3.51865,-14.78317 26.79189,-64.20409 42.00031,-73.35178 -8.86547,-13.27765 -8.01032,-22.65652 -23.52107,-41.186979 L 302,94 c 4.2265,0.0598 8.45089,-1.63776 11.46083,-4.60544 3.00994,-2.96768 4.76704,-7.16764 4.76704,-11.39456 0,-4.22692 -1.7571,-8.42688 -4.76704,-11.39456 C 310.45089,63.63776 306.2265,61.94023 302,62 L 268.48605,61.73554 268,28 c 0.0584,-4.26698 -1.67576,-8.53024 -4.69616,-11.54483 -3.02039,-3.01458 -7.28698,-4.74056 -11.55384,-4.67392 -4.18353,0.0654 -8.31454,1.85029 -11.22941,4.85191 C 237.60572,19.63478 235.94271,23.81635 236,28 L 235.9074,61.94215 202,62 c -4.2265,-0.0598 -8.45089,1.63776 -11.46083,4.60544 -3.00994,2.96768 -4.76704,7.16764 -4.76704,11.39456 0,4.22692 1.7571,8.42688 4.76704,11.39456 C 193.54911,92.36224 197.7735,94.05977 202,94 l 33.7652,0.575077 c -0.40798,22.611043 -3.59215,31.332613 -13.65662,52.624273 z" id="wkpath3001" ns0:connector-curvature="0" ns1:nodetypes="cccccssscccscscccsssccc" />
    <path ns1:nodetypes="czcccccc" ns0:connector-curvature="0" id="wkpath3002" d="m 424.19393,414.12291 c -5.01067,21.82806 -20.15185,38.40824 -83.80595,57.93069 -63.6541,19.52245 -243.216246,0.63617 -249.68471,-33.36284 23.20304,-49.97497 3.46225,-64.04525 -24.3064,-87.04096 C -127.94675,105.37237 247.24009,-2.313802 249.93273,234.91797 248.10658,-1.091116 694.31728,108.68446 403.28712,357.9792 c 0,0 24.14271,37.65597 20.90716,56.14372 z" style="fill:#ffffff;fill-opacity:1;stroke:#333333;stroke-width:8;stroke-linecap:round;stroke-miterlimit:4;stroke-opacity:1" />
    <path ns1:nodetypes="cccccc" ns0:connector-curvature="0" id="wkpath3006" d="M 237.55339,342.25572 C 218.43768,303.60727 221.66547,44.772395 57.243215,132.3608 5.4318047,150.84242 33.300604,343.56952 135.65809,353.39692 236.75359,369.38744 351.26934,373.58361 381.78967,340.84248 509.92317,230.76157 450.33098,155.29264 432.20925,141.20063 261.82114,36.120295 277.52439,284.30456 237.55339,342.25572 z" style="fill:none;stroke:#000000;stroke-width:16;stroke-linecap:round;stroke-miterlimit:4;stroke-opacity:1;stroke-dasharray:none" />
    <path style="fill:#000000;fill-opacity:1;stroke:#333333;stroke-width:8;stroke-linecap:round;stroke-miterlimit:4;stroke-opacity:1;stroke-dasharray:none" d="M 245.62605,340.52777 C 247.14975,295.44921 230.42335,76.794117 63.813883,130.14548 24.72802,154.73537 17.429032,319.0387 114.66119,361.0531 c 6.13741,5.31056 117.01129,33.44094 232.91037,10.55667 -93.3921,51.7375 -252.39875,-18.37353 -224.98148,56.01517 53.05319,26.25957 240.84951,27.95732 274.90336,-6.51025 -22.48664,10.59976 -218.97069,17.07752 -252.45155,-7.82017 41.47573,6.08492 288.98986,20.20294 227.24401,-54.69839 C 532.70868,242.79174 472.64876,145.42933 444.27837,133.80586 267.79856,58.913108 273.55418,285.2897 245.62605,340.52777 z m 178.56788,73.59514 c -5.01067,21.82806 -20.15185,38.40824 -83.80595,57.93069 -63.6541,19.52245 -243.216246,0.63617 -249.68471,-33.36284 23.20304,-49.97497 3.46225,-64.04525 -24.3064,-87.04096 C -127.94675,105.37237 247.24009,-0.313802 249.93273,236.91797 248.10658,0.908884 694.31728,108.68446 403.28712,357.9792 c 0,0 24.14271,37.65597 20.90716,56.14372 z" id="wkpath3955" ns0:connector-curvature="0" ns1:nodetypes="ccccccccccczcccccc" />
    <path ns1:nodetypes="ccccc" ns0:connector-curvature="0" id="wkpath3003" d="m 254.22829,114.79413 c -2.42237,14.30266 -7.70083,22.34601 -12.97251,32.47519 3.82032,7.96862 7.3263,12.19299 8.55892,21.39523 3.39477,-9.71668 13.16483,-19.86088 23.02684,-33.06184 -5.04155,-12.64499 -10.83761,-18.79468 -18.61325,-20.80858 z" style="fill:#ffffff;fill-opacity:1;stroke:#333333;stroke-width:8;stroke-linecap:round;stroke-miterlimit:4;stroke-opacity:1" />
  </g>
  <g id="wn" transform="scale(0.078125 0.078125)">
    <namedview pagecolor="#ffffff" bordercolor="#666666" borderopacity="1" objecttolerance="10" gridtolerance="10" guidetolerance="10" ns0:pageopacity="0" ns0:pageshadow="2" ns0:window-width="1600" ns0:window-height="838" id="wnnamedview3028" showgrid="false" ns0:zoom="1.31" ns0:cx="280.11391" ns0:cy="253.36879" ns0:window-x="-8" ns0:window-y="-8" ns0:window-maximized="1" ns0:current-layer="svg2" />
    <defs id="wndefs12" />
    <metadata id="wnmetadata_rdf" />
    <path ns1:nodetypes="cscssscccczccc" ns0:connector-curvature="0" id="wnpath2999" d="m 257.93449,263.85911 c -21.21543,38.26193 -142.29056,154.28277 -157.82544,108.82157 -3.589174,-10.50336 -13.982539,-4.77488 -31.744554,1.90198 -97.585452,-43.442 16.360445,-115.01794 10.633409,-174.04887 -2.706134,-27.89324 29.548625,-71.36727 52.988975,-91.26082 27.55351,-23.384342 30.83039,-32.006381 45.41647,-47.710684 14.58609,-15.704302 10.48136,-38.490867 18.84416,-47.883645 9.23508,7.854998 27.94242,78.128757 57.09526,54.016639 12.41845,-14.316089 4.39721,-27.989164 15.39543,-53.894922 14.77912,4.62708 38.31869,44.382466 42.42007,57.164642 192.63142,42.58985 183.57737,248.13644 178.96295,314.76094 -4.61442,66.6245 17.23511,88.10038 -39.86729,85.27111 -111.50598,7.85082 -233.16803,8.48855 -349.52751,3.39782 54.6259,-38.93207 153.09969,-144.62419 157.20807,-210.53576 z" style="fill:#ffffff;fill-opacity:1;stroke:#333333;stroke-width:8;stroke-linecap:round;stroke-miterlimit:4;stroke-opacity:1;stroke-dasharray:none" />
    <path style="fill:#000000;fill-opacity:1;stroke:#333333;stroke-width:8;stroke-linecap:round;stroke-miterlimit:4;stroke-opacity:1;stroke-dasharray:none" d="m 257.93449,263.85911 c -21.21543,38.26193 -142.29056,154.28277 -157.82544,108.82157 -3.589174,-10.50336 -13.982539,-4.77488 -31.744554,1.90198 -97.585452,-43.442 16.360445,-115.01794 10.633409,-174.04887 -2.706134,-27.89324 29.548625,-71.36727 52.988975,-91.26082 27.55351,-23.384342 30.83039,-32.006381 45.41647,-47.710684 14.58609,-15.704302 10.48136,-38.490867 18.84416,-47.883645 9.23508,7.854998 27.94242,78.128757 57.09526,54.016639 12.41845,-14.316089 4.39721,-27.989164 15.39543,-53.894922 14.77912,4.62708 38.31869,44.382466 42.42007,57.164642 192.63142,42.58985 183.57737,248.13644 178.96295,314.76094 -4.61442,66.6245 17.23511,88.10038 -39.86729,85.27111 -111.50598,7.85082 -233.16803,8.48855 -349.52751,3.39782 54.6259,-38.93207 153.09969,-144.62419 157.20807,-210.53576 z m 204.2457,184.35477 c 5.63433,-80.37425 7.66134,-357.463146 -158.68838,-354.2908 -11.7279,-4.59779 -20.51085,-35.841654 -27.03265,-55.237411 -6.65104,17.036679 -10.13318,38.15325 -37.97666,54.161346 -29.25476,-2.94198 -29.56984,-27.064531 -41.44188,-46.97943 -3.98011,5.652647 -2.94317,23.416655 -19.29081,39.136465 -16.34764,15.71981 -27.97299,25.6855 -37.06395,32.32165 -27.48954,32.49839 -42.072217,66.32314 -45.017666,91.43225 -4.993721,42.57005 -96.27308777,113.45942 -27.114213,152.25 14.565017,-14.02367 26.578397,17.63818 62.641229,-40.92272 -87.015999,145.95894 148.61749,-58.25978 137.56205,-129.84468 47.35336,63.49478 -51.61493,198.85237 -122.86006,262.27859 117.54718,15.17838 212.56157,13.84321 316.28299,-4.30526 z" id="wnpath3006" ns0:connector-curvature="0" ns1:nodetypes="cscssscccczccccccccscsccccc" />
    <path style="fill:#000000;fill-opacity:1;stroke:#333333;stroke-width:8;stroke-linecap:round;stroke-linejoin:round;stroke-miterlimit:4;stroke-opacity:1;stroke-dasharray:none" d="m 169.46346,134.664 c -6.01462,5.31656 -6.39282,15.07325 -12.73289,19.92347 3.08235,11.54685 -2.81771,14.92017 -11.5523,11.71982 -2.03774,1.46626 -11.48184,12.02101 -13.74461,13.13671 5.64626,-21.09296 16.81893,-33.53082 38.0298,-44.78 z" id="wnpath2994" ns0:connector-curvature="0" ns1:nodetypes="ccccc" />
    <path ns1:nodetypes="ccccc" ns0:connector-curvature="0" id="wnpath2997" d="m 66.77634,291.42865 c 7.67153,-3.15575 5.76765,-2.83443 10.08083,-3.998 4.890633,7.38415 3.929427,5.07494 6.3211,14.87664 -2.03774,1.46626 -11.48184,12.02101 -13.74461,13.13671 -4.017965,-4.21102 -7.57241,-16.77188 -2.65732,-24.01535 z" style="fill:#000000;fill-opacity:1;stroke:#333333;stroke-width:8;stroke-linecap:round;stroke-linejoin:round;stroke-miterlimit:4;stroke-opacity:1;stroke-dasharray:none" />
  </g>
  <g id="wp" transform="scale(0.078125 0.078125)">
    <namedview pagecolor="#ffffff" bordercolor="#666666" borderopacity="1" objecttolerance="10" gridtolerance="10" guidetolerance="10" ns0:pageopacity="0" ns0:pageshadow="2" ns0:window-width="1600" ns0:window-height="838" id="wpnamedview3028" showgrid="false" ns0:zoom="1.31" ns0:cx="345.38109" ns0:cy="234.95033" ns0:window-x="-8" ns0:window-y="-8" ns0:window-maximized="1" ns0:current-layer="svg2" />
    <defs id="wpdefs12" />
    <metadata id="wpmetadata_rdf" />
    <path ns1:nodetypes="cccczcccccc" ns0:connector-curvature="0" id="wppath3009" d="M 193.17113,280.82094 C 118.67922,227.5738 136.1786,198.63352 208.28816,144.81167 197.21899,128.36945 163.9282,94.219828 186.35438,66.350397 c 23.22583,-27.480212 68.24316,-39.555863 99.83236,-32.38796 19.36939,8.9162 40.72028,23.934119 42.83542,46.709942 2.11514,22.775821 -8.35089,37.659691 -24.83358,56.792101 80.42798,35.92479 80.62404,75.3901 12.96969,135.50052 63.85278,21.32211 102.99393,55.30911 126.09272,114.28766 12.05825,40.66242 24.10534,86.57366 -32.99706,83.74439 -111.50598,7.85082 -233.16803,8.48855 -349.527512,3.39782 8.061023,-97.71069 52.000452,-156.67 132.444712,-193.57393 z" style="fill:#ffffff;fill-opacity:1;stroke:#333333;stroke-width:8;stroke-linecap:round;stroke-miterlimit:4;stroke-opacity:1;stroke-dasharray:none" />
    <path style="fill:#000000;fill-opacity:1;stroke:#333333;stroke-width:8;stroke-linecap:round;stroke-miterlimit:4;stroke-opacity:1;stroke-dasharray:none" d="M 193.17113,280.82094 C 118.67922,227.5738 136.1786,198.63352 208.28816,144.81167 197.21899,128.36945 163.9282,94.219828 186.35438,66.350397 c 23.22583,-27.480212 68.24316,-39.555863 99.83236,-32.38796 19.36939,8.9162 40.72028,23.934119 42.83542,46.709942 2.11514,22.775821 -8.35089,37.659691 -24.83358,56.792101 80.42798,35.92479 80.62404,75.3901 12.96969,135.50052 63.85278,21.32211 102.99393,55.30911 126.09272,114.28766 12.05825,40.66242 24.10534,86.57366 -32.99706,83.74439 -111.50598,7.85082 -233.16803,8.48855 -349.527512,3.39782 8.061023,-97.71069 52.000452,-156.67 132.444712,-193.57393 z m 229.00906,167.39294 c -14.74574,-70.56162 -15.91838,-116.18402 -100.68838,-152.2908 -11.7279,-4.59779 -50.75512,-14.83402 -27.50593,-26.59619 36.09705,-21.13126 80.08055,-74.16736 26.28288,-98.61728 -17.80438,-9.04885 -34.30267,-20.85079 -53.04493,-27.78859 34.02451,-29.91608 48.66684,-59.478317 12.92767,-84.373944 -36.45607,-23.025646 -71.37033,6.818814 -74.72729,27.65171 0.0612,22.617554 8.18145,49.699244 27.45039,59.077284 -25.53978,19.17533 -46.15456,36.67253 -61.29291,47.83471 -27.04777,43.09398 40.47676,64.85415 50.10166,92.12762 -72.52521,26.68042 -118.48355,62.32924 -136.396833,167.28074 117.547173,15.17838 233.172253,13.84321 336.893673,-4.30526 z" id="wppath3006" ns0:connector-curvature="0" ns1:nodetypes="cccczcccccccccccccccccc" />
  </g>
  <g id="wq" transform="scale(0.078125 0.078125)">
    <namedview pagecolor="#ffffff" bordercolor="#666666" borderopacity="1" objecttolerance="10" gridtolerance="10" guidetolerance="10" ns0:pageopacity="0" ns0:pageshadow="2" ns0:window-width="1920" ns0:window-height="1178" id="wqnamedview12" showgrid="false" ns0:zoom="0.75" ns0:cx="79.811547" ns0:cy="306.03407" ns0:window-x="1912" ns0:window-y="-8" ns0:window-maximized="1" ns0:current-layer="svg2" />
    <defs id="wqdefs12" />
    <metadata id="wqmetadata_rdf" />
    <path ns1:nodetypes="czccccscccc" ns0:connector-curvature="0" id="wqpath3008" d="m 424.19393,414.12291 c -5.01067,21.82806 -20.15185,38.40824 -83.80595,57.93069 -63.6541,19.52245 -243.216246,0.63617 -249.68471,-33.36284 23.20304,-49.97497 3.46225,-64.04525 -24.3064,-87.04096 C 12.713587,280.15994 61.77163,205.9609 40.351523,127.77784 72.26475,173.59478 135.55375,261.09978 157.93273,294.91797 c 9.80718,17.81122 176.9271,19.85529 188.80766,2.0661 28.81104,-43.13982 99.24319,-134.8588 125.53578,-172.60824 -20.74814,71.16777 14.13388,195.92272 -68.98905,233.60337 0,0 24.14271,37.65597 20.90716,56.14372 z" style="fill:#ffffff;fill-opacity:1;stroke:#333333;stroke-width:8;stroke-linecap:round;stroke-miterlimit:4;stroke-opacity:1" />
    <path style="fill:#ffffff;fill-opacity:1;stroke:#333333;stroke-width:8;stroke-linecap:round;stroke-miterlimit:4;stroke-opacity:1" d="M 158.39687,305.6498 C 104.71359,234.15994 153.77163,159.9609 132.35152,81.77784 164.26475,127.59478 227.55375,215.09978 249.93273,248.91797 269.981,268.94386 356.67757,123.36608 388.27617,78.37583 367.52803,149.5436 402.41005,274.29855 319.28712,311.9792 281.62285,333.7936 163.05737,322.41812 158.39687,305.6498 z" id="wqpath3006" ns0:connector-curvature="0" ns1:nodetypes="cccccc" />
    <path ns1:nodetypes="cccccccccccc" ns0:connector-curvature="0" id="wqpath2999" d="m 151.81388,135.47881 c 2.44249,32.1405 -5.75489,144.21988 54.84731,179.57429 69.38244,-2.45306 12.16281,-1.55615 81.62471,-2.45697 67.37785,-48.99584 60.96937,-126.09473 77.3258,-180.1236 -30.38471,50.78132 -78.27955,145.1882 -122.82421,155.02208 -12.60912,11.1388 -45.3601,-101.89379 -90.97361,-152.0158 z m 6.58299,170.17099 C 104.71359,234.15994 153.77163,159.9609 132.35152,81.77784 164.26475,127.59478 227.55375,215.09978 249.93273,248.91797 269.981,268.94386 356.67757,123.36608 388.27617,78.37583 367.52803,149.5436 402.41005,274.29855 319.28712,311.9792 281.62285,333.7936 163.05737,322.41812 158.39687,305.6498 z" style="fill:#000000;fill-opacity:1;stroke:#333333;stroke-width:8;stroke-linecap:round;stroke-miterlimit:4;stroke-opacity:1;stroke-dasharray:none" />
    <path ns1:nodetypes="cccc" ns0:connector-curvature="0" id="wqpath3015" d="m 186.39687,309.64979 c 8.98339,-66.15652 50.04143,-184.35556 63.28798,-247.87195 42.5799,49.81694 49.8689,217.32194 72.24788,251.14013 -22.74943,14.03571 -89.57428,26.262 -135.53586,-3.26818 z" style="fill:#ffffff;fill-opacity:1;stroke:#333333;stroke-width:8;stroke-linecap:round;stroke-miterlimit:4;stroke-opacity:1" />
    <path style="fill:#000000;fill-opacity:1;stroke:#333333;stroke-width:8;stroke-linecap:round;stroke-miterlimit:4;stroke-opacity:1;stroke-dasharray:none" d="m 253.14721,126.14548 c 2.44249,32.1405 -41.75489,142.88655 -46.48602,184.90762 16.82983,1.34266 20.51039,8.78936 92.1263,-3.5585 -12.60912,11.1388 -0.0268,-131.22711 -45.64028,-181.34912 z M 183.7302,310.98313 c 8.98339,-66.15652 52.7081,-185.6889 65.95465,-249.20529 42.5799,49.81694 52.53556,218.65527 74.91454,252.47346 -22.74943,14.03571 -94.90761,26.26201 -140.86919,-3.26817 z" id="wqpath3001" ns0:connector-curvature="0" ns1:nodetypes="cccccccc" />
    <g id="wqg2999">
      <path style="fill:#ffffff;fill-opacity:1;fill-rule:nonzero;stroke:#333333;stroke-width:8;stroke-opacity:1;marker:none" d="m 252,15 c -19.27074,0 -35,15.729257 -35,35 0,19.270743 15.72926,35 35,35 19.27074,0 35,-15.729257 35,-35 0,-19.270743 -15.72926,-35 -35,-35 z" id="wqpath3765" ns0:connector-curvature="0" ns1:nodetypes="sssss" />
      <path ns1:nodetypes="ssssssssss" ns0:connector-curvature="0" id="wqcircle3785" d="m 252,15 c -19.27074,0 -35,15.729257 -35,35 0,19.270743 15.72926,35 35,35 19.27074,0 35,-15.729257 35,-35 0,-19.270743 -15.72926,-35 -35,-35 z m -0.88496,14.424779 c 13.80583,1.294017 21.46018,5.823923 21.46018,19.690265 0,13.866342 -11.13366,25 -20.57522,25.884956 -13.80583,1.294018 -25,-11.133658 -25,-25 0,-11.211475 14.67348,-21.460177 24.11504,-20.575221 z" style="fill:#000000;fill-opacity:1;fill-rule:nonzero;stroke:#333333;stroke-width:8;stroke-opacity:1;marker:none" />
    </g>
    <path style="fill:#000000;fill-opacity:1;stroke:#333333;stroke-width:8;stroke-linecap:round;stroke-miterlimit:4;stroke-opacity:1;stroke-dasharray:none" d="m 144.29272,320.52777 c -17.34679,-30.40152 -43.13373,-94.97249 -84.478837,-139.04896 2.442488,32.1405 -5.754891,144.21988 54.847307,179.57429 6.13741,5.31056 117.01129,33.44094 232.91037,10.55667 -93.3921,51.7375 -252.39875,-18.37353 -224.98148,56.01517 53.05319,26.25957 240.84951,27.95732 274.90336,-6.51025 -22.48664,10.59976 -218.97069,17.07752 -252.45155,-7.82017 41.47573,6.08492 288.98986,20.20294 227.24401,-54.69839 67.37785,-48.99584 60.96937,-126.09473 77.3258,-180.1236 -30.38471,50.78132 -78.27955,145.1882 -122.82421,155.02208 -39.03846,0.99304 -165.14798,17.43468 -182.49477,-12.96684 z m 279.90121,93.59514 c -5.01067,21.82806 -20.15185,38.40824 -83.80595,57.93069 -63.6541,19.52245 -243.216246,0.63617 -249.68471,-33.36284 23.20304,-49.97497 3.46225,-64.04525 -24.3064,-87.04096 C 12.713587,280.15994 61.77163,205.9609 40.351523,127.77784 72.26475,173.59478 135.55375,261.09978 157.93273,294.91797 c 9.80718,17.81122 176.9271,19.85529 188.80766,2.0661 28.81104,-43.13982 99.24319,-134.8588 125.53578,-172.60824 -20.74814,71.16777 14.13388,195.92272 -68.98905,233.60337 0,0 24.14271,37.65597 20.90716,56.14372 z" id="wqpath3955" ns0:connector-curvature="0" ns1:nodetypes="zccccccccczczccccscccc" />
    <g id="wqg3003" transform="translate(-210,68)">
      <path ns1:nodetypes="sssss" ns0:connector-curvature="0" id="wqpath3005" d="m 252,15 c -19.27074,0 -35,15.729257 -35,35 0,19.270743 15.72926,35 35,35 19.27074,0 35,-15.729257 35,-35 0,-19.270743 -15.72926,-35 -35,-35 z" style="fill:#ffffff;fill-opacity:1;fill-rule:nonzero;stroke:#333333;stroke-width:8;stroke-opacity:1;marker:none" />
      <path style="fill:#000000;fill-opacity:1;fill-rule:nonzero;stroke:#333333;stroke-width:8;stroke-opacity:1;marker:none" d="m 252,15 c -19.27074,0 -35,15.729257 -35,35 0,19.270743 15.72926,35 35,35 19.27074,0 35,-15.729257 35,-35 0,-19.270743 -15.72926,-35 -35,-35 z m -0.88496,14.424779 c 13.80583,1.294017 21.46018,5.823923 21.46018,19.690265 0,13.866342 -11.13366,25 -20.57522,25.884956 -13.80583,1.294018 -25,-11.133658 -25,-25 0,-11.211475 14.67348,-21.460177 24.11504,-20.575221 z" id="wqpath3007" ns0:connector-curvature="0" ns1:nodetypes="ssssssssss" />
    </g>
    <g id="wqg3009" transform="translate(222,72)">
      <path style="fill:#ffffff;fill-opacity:1;fill-rule:nonzero;stroke:#333333;stroke-width:8;stroke-opacity:1;marker:none" d="m 252,15 c -19.27074,0 -35,15.729257 -35,35 0,19.270743 15.72926,35 35,35 19.27074,0 35,-15.729257 35,-35 0,-19.270743 -15.72926,-35 -35,-35 z" id="wqpath3011" ns0:connector-curvature="0" ns1:nodetypes="sssss" />
      <path ns1:nodetypes="ssssssssss" ns0:connector-curvature="0" id="wqpath3013" d="m 252,15 c -19.27074,0 -35,15.729257 -35,35 0,19.270743 15.72926,35 35,35 19.27074,0 35,-15.729257 35,-35 0,-19.270743 -15.72926,-35 -35,-35 z m -0.88496,14.424779 c 13.80583,1.294017 21.46018,5.823923 21.46018,19.690265 0,13.866342 -11.13366,25 -20.57522,25.884956 -13.80583,1.294018 -25,-11.133658 -25,-25 0,-11.211475 14.67348,-21.460177 24.11504,-20.575221 z" style="fill:#000000;fill-opacity:1;fill-rule:nonzero;stroke:#333333;stroke-width:8;stroke-opacity:1;marker:none" />
    </g>
    <g id="wqg3015" transform="translate(-114,24)">
      <path ns1:nodetypes="sssss" ns0:connector-curvature="0" id="wqpath3017" d="m 252,15 c -19.27074,0 -35,15.729257 -35,35 0,19.270743 15.72926,35 35,35 19.27074,0 35,-15.729257 35,-35 0,-19.270743 -15.72926,-35 -35,-35 z" style="fill:#ffffff;fill-opacity:1;fill-rule:nonzero;stroke:#333333;stroke-width:8;stroke-opacity:1;marker:none" />
      <path style="fill:#000000;fill-opacity:1;fill-rule:nonzero;stroke:#333333;stroke-width:8;stroke-opacity:1;marker:none" d="m 252,15 c -19.27074,0 -35,15.729257 -35,35 0,19.270743 15.72926,35 35,35 19.27074,0 35,-15.729257 35,-35 0,-19.270743 -15.72926,-35 -35,-35 z m -0.88496,14.424779 c 13.80583,1.294017 21.46018,5.823923 21.46018,19.690265 0,13.866342 -11.13366,25 -20.57522,25.884956 -13.80583,1.294018 -25,-11.133658 -25,-25 0,-11.211475 14.67348,-21.460177 24.11504,-20.575221 z" id="wqpath3019" ns0:connector-curvature="0" ns1:nodetypes="ssssssssss" />
    </g>
    <g id="wqg3021" transform="translate(126,22)">
      <path style="fill:#ffffff;fill-opacity:1;fill-rule:nonzero;stroke:#333333;stroke-width:8;stroke-opacity:1;marker:none" d="m 252,15 c -19.27074,0 -35,15.729257 -35,35 0,19.270743 15.72926,35 35,35 19.27074,0 35,-15.729257 35,-35 0,-19.270743 -15.72926,-35 -35,-35 z" id="wqpath3023" ns0:connector-curvature="0" ns1:nodetypes="sssss" />
      <path ns1:nodetypes="ssssssssss" ns0:connector-curvature="0" id="wqpath3025" d="m 252,15 c -19.27074,0 -35,15.729257 -35,35 0,19.270743 15.72926,35 35,35 19.27074,0 35,-15.729257 35,-35 0,-19.270743 -15.72926,-35 -35,-35 z m -0.88496,14.424779 c 13.80583,1.294017 21.46018,5.823923 21.46018,19.690265 0,13.866342 -11.13366,25 -20.57522,25.884956 -13.80583,1.294018 -25,-11.133658 -25,-25 0,-11.211475 14.67348,-21.460177 24.11504,-20.575221 z" style="fill:#000000;fill-opacity:1;fill-rule:nonzero;stroke:#333333;stroke-width:8;stroke-opacity:1;marker:none" />
    </g>
  </g>
  <g id="wr" transform="scale(0.078125 0.078125)">
    <namedview pagecolor="#ffffff" bordercolor="#666666" borderopacity="1" objecttolerance="10" gridtolerance="10" guidetolerance="10" ns0:pageopacity="0" ns0:pageshadow="2" ns0:window-width="1600" ns0:window-height="838" id="wrnamedview3028" showgrid="false" ns0:zoom="1.31" ns0:cx="218.74761" ns0:cy="246.88024" ns0:window-x="-8" ns0:window-y="-8" ns0:window-maximized="1" ns0:current-layer="svg2" />
    <defs id="wrdefs12" />
    <metadata id="wrmetadata_rdf" />
    <path ns1:nodetypes="ccccccccccccccccccccccccccc" ns0:connector-curvature="0" id="wrpath3775" d="m 33.546636,486.04874 c 0.397952,-24.50387 -2.62915,-65.64682 1.822089,-76.81877 28.632577,-6.54861 52.186994,-29.0559 71.364915,-35.71244 37.75795,-27.97261 18.97253,-85.51941 17.98594,-170.84015 0.72678,-16.83297 1.43421,-35.73728 -19.77148,-28.48959 9.07916,-36.85727 -30.623843,-28.85807 -55.273435,-27.97047 5.317027,-27.05899 4.029322,-88.247698 2.904922,-115.617708 39.984921,-3.584315 79.724903,-1.722565 117.423553,-1.522573 16.25272,8.050587 -15.77094,40.847306 6.64114,34.115912 36.72243,2.233019 22.56077,-21.675625 23.3849,-36.91498 25.77899,1.514546 44.75537,3.07666 67.61051,0.726051 15.18507,4.398864 40.94407,-8.496467 38.91033,17.164495 -0.14743,17.056169 0.14212,31.551313 22.98338,26.028418 0.14727,-19.627354 3.68967,-16.871263 5.71413,-38.737841 41.12823,6.626338 80.65772,-2.105751 120.31515,1.570806 0.84095,24.147434 1.46049,47.395638 1.83551,68.96266 1.58951,28.76466 -0.88972,38.15806 -29.14506,37.69933 -11.49594,3.28102 2.7582,9.04588 -12.88279,6.99958 -29.48052,3.11949 -10.01257,28.9983 -32.33425,34.1109 3.07441,33.89794 -0.95045,67.85968 0.49527,101.77943 7.65931,16.47934 -13.18563,49.03655 15.05964,48.70606 19.13724,0.28169 16.01386,24.56213 16.82819,30.86293 28.7958,-9.44911 18.33999,23.82235 23.82002,36.01145 17.70191,-4.96368 36.52926,-5.41273 36.49143,21.74758 -2.32111,24.10689 12.30798,34.21843 -15.42656,55.8966 -27.22209,14.98099 -112.34637,6.07186 -165.36623,10.6333 -52.85647,1.518 -229.743703,-1.78476 -261.391214,-0.39098 z" style="fill:#ffffff;fill-opacity:1;stroke:#333333;stroke-width:8;stroke-linecap:round;stroke-miterlimit:4;stroke-opacity:1;stroke-dasharray:none" />
    <path style="fill:#000000;fill-opacity:1;stroke:#333333;stroke-width:8;stroke-linecap:round;stroke-miterlimit:4;stroke-opacity:1;stroke-dasharray:none" d="m 230.9722,461.15823 c 76.43575,14.95858 148.54154,-2.90784 217.3778,-2.62136 1.61098,-21.80554 1.48935,-35.20808 -4.7172,-41.17293 -18.84719,8.33685 -45.67087,-3.89753 -38.25345,-23.74025 6.28744,-22.37099 -32.91149,1.34589 -22.2957,-23.51806 6.4721,-26.64447 -46.13316,-12.34249 -30.2426,-43.59575 -0.80906,-26.60002 -2.49157,-53.13403 0.22941,-79.73106 1.1468,-21.817 -2.3294,-43.54027 -1.80361,-65.32089 43.43278,-22.41192 29.00107,-20.23003 29.50177,-21.93596 -6.38972,-24.74483 22.16811,-29.63891 39.18728,-33.70919 7.7243,-28.974593 3.3985,6.66209 1.67848,-61.897053 C 417.47749,40.584682 357.66539,57.862878 347.8092,56.47913 346.17173,91.038998 362.51287,86.361213 313.15579,91.169452 294.18772,94.260243 268.03632,90.220304 280.80995,64.961889 293.0688,33.72737 246.905,52.038529 230.50761,47.563656 c -5.95396,9.590487 -3.59044,21.780521 -7.02682,36.484045 -23.98487,1.804212 -35.55026,-2.093185 -59.35083,1.007626 -14.1703,-0.143303 -27.77804,3.356248 -25.2833,-18.253512 0.92401,-17.706909 0.74912,-22.312788 -13.79662,-16.406399 -12.73985,-1.533015 -19.11237,-1.883871 -41.080419,-4.757864 2.584786,27.381227 3.156871,49.950195 0.861098,77.123878 6.071496,8.83046 27.702481,0.72531 38.611111,0.37107 3.65668,11.56176 -12.86049,43.45403 28.49262,34.06746 2.57206,45.38349 5.40852,143.47247 -0.28873,187.71203 -13.02322,1.19944 -11.38139,0.1593 -23.12807,3.38796 6.45504,21.47737 2.31119,19.94825 2.81261,30.93115 -18.51019,7.88928 -30.70883,-5.12058 -34.491003,8.00655 8.699633,23.01634 -8.217622,36.94901 -32.701719,32.40569 -1.88694,15.3528 -0.681173,-6.98372 -4.729342,45.46747 57.050154,-2.92123 118.520754,-2.88457 171.564004,-3.95258 z M 35.368725,409.22997 c 28.632577,-6.54861 52.186994,-29.0559 71.364915,-35.71244 37.75795,-27.97261 18.97253,-85.51941 17.98594,-170.84015 0.72678,-16.83297 1.43421,-35.73728 -19.77148,-28.48959 9.07916,-36.85727 -30.623843,-28.85807 -55.273435,-27.97047 5.317027,-27.05899 4.029322,-88.247698 2.904922,-115.617708 39.984921,-3.584315 79.724903,-1.722565 117.423553,-1.522573 16.25272,8.050587 -15.77094,40.847306 6.64114,34.115912 36.72243,2.233019 22.56077,-21.675625 23.3849,-36.91498 25.77899,1.514546 44.75537,3.07666 67.61051,0.726051 15.18507,4.398864 40.94407,-8.496467 38.91033,17.164495 -0.14743,17.056169 0.14212,31.551313 22.98338,26.028418 0.14727,-19.627354 3.68967,-16.871263 5.71413,-38.737841 41.12823,6.626338 80.65772,-2.105751 120.31515,1.570806 0.84095,24.147434 1.46049,47.395638 1.83551,68.96266 1.58951,28.76466 -0.88972,38.15806 -29.14506,37.69933 -11.49594,3.28102 2.7582,9.04588 -12.88279,6.99958 -29.48052,3.11949 -10.01257,28.9983 -32.33425,34.1109 3.07441,33.89794 -0.95045,67.85968 0.49527,101.77943 7.65931,16.47934 -13.18563,49.03655 15.05964,48.70606 19.13724,0.28169 16.01386,24.56213 16.82819,30.86293 28.7958,-9.44911 18.33999,23.82235 23.82002,36.01145 17.70191,-4.96368 36.52926,-5.41273 36.49143,21.74758 -2.32111,24.10689 12.30798,34.21843 -15.42656,55.8966 -27.22209,14.98099 -112.34637,6.07186 -165.36623,10.6333 -87.6532,-4.25337 -174.50744,-3.84528 -260.749346,-1.17341 -0.243916,-22.95808 -3.271018,-64.86439 1.180221,-76.03634 z" id="wrpath2994" ns0:connector-curvature="0" ns1:nodetypes="ccccccccccccccccccccccccccccccccccccccccccccccccccccccccc" />
    <path style="fill:#000000;fill-opacity:1;stroke:#333333;stroke-width:8;stroke-linecap:round;stroke-miterlimit:4;stroke-opacity:1" d="m 366.28125,123.84375 -220.625,0.78125 a 8.0008,8.0008 0 1 0 0.0625,16 l 220.625,-0.78125 a 8.0008,8.0008 0 1 0 -0.0625,-16 z" id="wrpath2997" ns0:connector-curvature="0" />
    <path style="fill:#000000;fill-opacity:1;stroke:#333333;stroke-width:8;stroke-linecap:round;stroke-miterlimit:4;stroke-opacity:1" d="m 366.28125,373.84375 -220.625,0.78125 a 8.0008,8.0008 0 1 0 0.0625,16 l 220.625,-0.78125 a 8.0008,8.0008 0 1 0 -0.0625,-16 z" id="wrpath3767" ns0:connector-curvature="0" />
    <path style="fill:#000000;fill-opacity:1;stroke:#333333;stroke-width:8;stroke-linecap:round;stroke-miterlimit:4;stroke-opacity:1" d="m 388.40625,405.84375 -271,1.53125 a 8.0008,8.0008 0 1 0 0.0937,16 l 271,-1.53125 a 8.0008,8.0008 0 1 0 -0.0937,-16 z" id="wrpath3769" ns0:connector-curvature="0" />
    <path style="fill:#000000;fill-opacity:1;stroke:#333333;stroke-width:8;stroke-linecap:round;stroke-miterlimit:4;stroke-opacity:1" d="m 173.46875,331.09375 a 8.0008,8.0008 0 1 0 0,16 l 161.0625,0 a 8.0008,8.0008 0 1 0 0,-16 l -161.0625,0 z" id="wrpath3771" ns0:connector-curvature="0" />
    <path style="fill:#000000;fill-opacity:1;stroke:#333333;stroke-width:8;stroke-linecap:round;stroke-miterlimit:4;stroke-opacity:1" d="m 173.46875,171.09375 a 8.0008,8.0008 0 1 0 0,16 l 161.0625,0 a 8.0008,8.0008 0 1 0 0,-16 l -161.0625,0 z" id="wrpath3773" ns0:connector-curvature="0" />
  </g>
</svg>