<svg xmlns="http://www.w3.org/2000/svg" width="40" height="40" viewbox="0.0 0.0 180.0 180.0">
  <g id="bb" fill="none" transform="scale(0.2222222222222222 0.2222222222222222)">
    <path d="M95.2088 133.589H131.205L152.906 141.77V164.676L131.205 156.581H95.2088V133.589ZM90.7307 22.5L109.676 41.4453L99.6868 51.4347V54.3626C106.576 54.2478 112.719 55.1664 118.115 57.1185C123.512 59.013 126.21 59.9603 126.21 59.9603L107.265 78.9053L114.413 86.0529L134.822 65.6438C138.841 68.7437 141.223 72.3032 141.969 76.3223C142.773 80.3408 143.175 82.35 143.175 82.35V98.3678C142.142 104.74 140.132 110.079 137.147 114.385C134.161 118.634 132.669 120.758 132.669 120.758V124.202H48.7065V119.982C44.1137 114.528 41.2432 109.591 40.095 105.171C38.9468 100.75 38.3727 98.5399 38.3727 98.5399V82.5221C38.4302 75.2884 40.6978 69.777 45.1758 65.988C49.7112 62.1416 54.6485 59.3572 59.9878 57.6349C65.3844 55.9127 70.3215 54.9367 74.7996 54.7071C79.2776 54.4774 81.5164 54.3626 81.5164 54.3626V51.5208L71.6991 41.6176L90.7307 22.5ZM85.8223 133.589V156.581H49.7399L28.125 164.676V141.77L49.7399 133.589H85.8223ZM80.8273 41.5315L90.7307 51.5208L100.72 41.5315L90.7307 31.5421L80.8273 41.5315Z" fill="#54123B" />
    <path d="M80.8273 41.5315L90.7306 51.5208L100.72 41.5315L90.7306 31.5421L80.8273 41.5315Z" fill="#C02739" />
  </g>
  <g id="bk" fill="none" transform="scale(0.2222222222222222 0.2222222222222222)">
    <path d="M100.837 48.0176H106.693V59.2987H122.194C122.194 59.2987 123.887 59.7004 127.275 60.5042C130.662 61.308 134.48 62.973 138.728 65.4992C142.976 67.9674 147.024 71.5556 150.87 76.2632C154.774 80.9713 157.243 87.2286 158.276 95.0366V112.432C158.276 112.432 157.645 114.929 156.382 119.924C155.118 124.861 150.009 130.43 141.053 136.63V163.24H87.5756H34.098V136.63C25.0846 130.43 19.9464 124.861 18.6834 119.924C17.4778 114.929 16.875 112.432 16.875 112.432V95.0366C17.851 87.2286 20.2622 80.9713 24.1087 76.2632C28.0126 71.5556 32.0887 67.9674 36.337 65.4992C40.6428 62.973 44.4893 61.308 47.8765 60.5042C51.2637 59.7004 52.9573 59.2987 52.9573 59.2987H68.4579V48.0176H74.3141C73.5677 46.4676 73.1942 44.7452 73.1942 42.8507C73.1942 38.9468 74.5723 35.5309 77.328 32.603C80.0837 29.6177 83.4997 28.125 87.5756 28.125C91.5941 28.125 94.9815 29.6177 97.7372 32.603C100.55 35.5309 101.957 38.9468 101.957 42.8507C101.957 44.7452 101.584 46.4676 100.837 48.0176ZM98.2541 52.1511C97.1629 53.1845 95.6992 54.2179 93.8621 55.2513C92.0824 56.2849 89.9871 56.8012 87.5756 56.8012C83.3844 56.8012 79.8542 55.2513 76.9832 52.1511H76.2086V59.1266L85.509 94.4336H87.5756H89.6422L98.9426 59.1266V52.1511H98.2541ZM40.9012 141.28C40.9012 141.28 45.5227 142.572 54.7657 145.155C64.0659 147.739 75.0026 145.443 87.5756 138.266C100.091 145.443 110.999 147.739 120.3 145.155C129.657 142.572 134.336 141.28 134.336 141.28L141.053 136.716C141.053 135.396 141.053 133.788 141.053 131.894C141.053 129.942 141.053 128.277 141.053 126.899C132.671 134.19 123.859 137.692 114.616 137.405C105.43 137.061 96.417 134.161 87.5756 128.707C79.2512 134.219 70.2377 137.003 60.5357 137.061C50.8905 137.118 42.078 133.903 34.098 127.416V136.716C36.2796 138.324 38.5473 139.845 40.9012 141.28Z" fill="#54123B" />
    <path d="M98.2541 52.1509C97.1634 53.1843 95.6992 54.2177 93.8621 55.2511C92.0824 56.2843 89.9871 56.8012 87.5756 56.8012C83.385 56.8012 79.8542 55.2511 76.9837 52.1509H76.2086V59.1261L85.509 94.4336H87.5756H89.6422L98.9426 59.1261V52.1509H98.2541ZM40.9012 141.28C40.9012 141.28 45.5227 142.572 54.7658 145.155C64.0665 147.739 75.0026 145.442 87.5756 138.266C100.091 145.442 110.999 147.739 120.3 145.155C129.657 142.572 134.336 141.28 134.336 141.28L141.053 136.716C141.053 135.395 141.053 133.788 141.053 131.894C141.053 129.941 141.053 128.277 141.053 126.899C132.671 134.19 123.859 137.692 114.616 137.405C105.43 137.06 96.417 134.161 87.5756 128.707C79.2512 134.219 70.2377 137.003 60.5357 137.06C50.8906 137.118 42.0781 133.903 34.0981 127.416V136.716C36.2797 138.324 38.5474 139.845 40.9012 141.28Z" fill="#C02739" />
  </g>
  <g id="bn" fill="none" transform="scale(0.2222222222222222 0.2222222222222222)">
    <path d="M73.3354 55.0515V68.6576H87.2859L73.3354 55.0515ZM88.2332 24.6529L88.3198 22.5L106.231 40.412C118.173 44.3158 127.244 48.9086 133.444 54.1904C139.701 59.472 144.151 64.5244 146.792 69.3467C149.49 74.1116 150.954 78.1881 151.184 81.5749C151.471 84.9049 151.614 86.5699 151.614 86.5699V161.576H37.1671V154.601C38.3727 150.123 41.5303 146.649 46.6398 144.181C51.8067 141.712 57.2321 139.933 62.9156 138.842C68.5991 137.693 73.7089 137.033 78.2443 136.861C82.8371 136.631 85.1332 136.516 85.1332 136.516L93.3142 127.044V119.035H86.4247C80.5691 114.27 76.2632 109.448 73.5075 104.568L50.6011 116.452H42.334L28.125 103.276V96.3006L56.2849 69.5188V66.4189H53.1845V62.0269C55.6532 59.4433 58.2654 56.8884 61.0211 54.3626C63.7768 51.7792 66.4464 49.7411 69.03 48.2484C74.1966 45.3205 78.6746 43.5408 82.4636 42.9093C86.31 42.2778 88.2332 41.962 88.2332 41.962V24.6529Z" fill="#54123B" />
    <path d="M73.3354 55.0515V68.6576H87.286L73.3354 55.0515Z" fill="#C02739" />
  </g>
  <g id="bp" fill="none" transform="scale(0.2222222222222222 0.2222222222222222)">
    <path d="M82.3781 67.6969C79.2973 65.1094 77.7566 61.7906 77.7566 57.7406C77.7566 54.1969 78.9457 51.1875 81.3246 48.7125C83.7028 46.2375 86.5946 45 90 45C93.3514 45 96.2162 46.2375 98.5944 48.7125C101.027 51.1875 102.243 54.1969 102.243 57.7406C102.243 61.8469 100.703 65.1656 97.6213 67.6969C102.378 69.2156 106.297 72.0281 109.378 76.1344C112.513 80.2406 114.081 84.9094 114.081 90.1406C114.081 99.3094 110.081 106.116 102.081 110.559C110.676 112.753 118.054 116.972 124.216 123.216C130.432 129.459 133.973 136.575 134.838 144.563C134.892 144.9 134.919 145.828 134.919 147.347L135 151.819L134.919 163.125H45.0811C45.027 163.125 45 161.466 45 158.147C45 154.772 45 152.494 45 151.312C45 150.075 45 148.781 45 147.431C45 146.025 45.027 145.097 45.0811 144.647C46.0541 136.378 49.6487 129.15 55.8649 122.963C62.1349 116.775 69.5947 112.612 78.2432 110.475C70.2433 105.919 66.2434 99.1406 66.2434 90.1406C66.2434 84.9094 67.7295 80.2125 70.7029 76.05C73.6217 72.0563 77.5136 69.2719 82.3781 67.6969Z" fill="#54123B" />
  </g>
  <g id="bq" fill="none" transform="scale(0.2222222222222222 0.2222222222222222)">
    <path d="M142.862 137.981H107.038C104.339 137.981 101.096 136.746 97.3069 134.278C93.5752 131.752 90.5034 129.025 88.0926 126.097C85.6811 129.025 82.5812 131.752 78.7916 134.278C75.0026 136.746 71.7879 137.981 69.147 137.981H33.323V134.794L16.875 65.2995C22.3864 74.5999 27.0079 80.1973 30.7396 82.0918C34.5286 83.9863 38.2029 87.6893 41.7623 93.2006C43.5994 82.8669 45.2069 74.8007 46.5847 69.0024C47.9626 63.1463 49.3979 56.1998 50.8905 48.1623L72.6778 96.5593L88.0926 22.5L103.507 96.5593L125.294 48.1623L133.217 93.8036C136.317 88.8086 140.077 85.2204 144.498 83.0391C148.976 80.8577 153.913 74.9441 159.31 65.2995L142.862 134.794V137.981ZM142.862 146.42V161.835H88.0926H33.323V146.42C37.6288 146.42 43.1688 146.42 49.9433 146.42C56.7748 146.42 62.3728 146.42 66.7356 146.42C69.7213 146.42 73.2516 145.645 77.328 144.095C81.4612 142.545 85.0494 139.875 88.0926 136.086C89.9871 138.382 92.8001 140.679 96.5317 142.975C100.263 145.214 104.569 146.362 109.449 146.42C113.754 146.42 119.294 146.42 126.069 146.42C132.901 146.42 138.498 146.42 142.862 146.42Z" fill="#54123B" />
    <path d="M142.861 137.981H107.038C104.339 137.981 101.095 136.746 97.3063 134.278C93.5747 131.752 90.5034 129.025 88.092 126.097C85.6811 129.025 82.5806 131.752 78.7916 134.278C75.0026 136.746 71.7879 137.981 69.147 137.981H33.3229V146.42H49.9431H66.7355C69.7207 146.42 73.2515 145.645 77.328 144.095C81.4612 142.544 85.0494 139.875 88.092 136.086C89.9865 138.382 92.7995 140.678 96.5317 142.975C100.263 145.214 104.569 146.363 109.449 146.42H126.069H142.861V137.981Z" fill="#C02739" />
  </g>
  <g id="br" fill="none" transform="scale(0.2222222222222222 0.2222222222222222)">
    <path d="M47.9004 141.793V149.716H133.499V141.793H47.9004ZM133.585 141.793H142.025V165.733H39.375V141.793H47.8143L57.7176 79.0155H46.3503V45H69.7736V53.956H78.9879V45.0861H102.498V53.956H111.023V45H135.049V79.0155H122.563L133.585 141.793ZM57.7176 79.0155H122.563V70.7484H57.7176V79.0155Z" fill="#54123B" />
    <path d="M47.9004 141.793V149.716H133.499V141.793H47.9004ZM57.7176 79.0155H122.563V70.7484H57.7176V79.0155Z" fill="#C02739" />
  </g>
  <g id="wb" fill="none" transform="scale(0.2222222222222222 0.2222222222222222)">
    <path d="M85.8223 133.589V156.581H49.7399L28.125 164.676V141.77L49.7399 133.589H85.8223ZM79.2776 140.047H50.7733L34.4975 146.248V155.548L48.1037 150.381H79.2776V140.047ZM101.581 140.219V150.123H132.583L146.361 155.548V146.248L130.344 140.219H101.581ZM81.6885 60.9075C81.6885 60.9075 79.794 60.9936 76.005 61.1657C72.216 61.2804 68.0248 61.9982 63.432 63.3184C58.8966 64.5818 54.6772 66.6771 50.7733 69.6049C46.9268 72.5327 44.9175 76.7813 44.7452 82.35V98.2817C44.7452 98.2817 45.348 100.234 46.5537 104.137C47.8167 108.041 50.5723 112.605 54.8207 117.83H126.21C126.21 117.83 127.789 115.476 130.947 110.768C134.104 106.061 136.056 101.726 136.802 97.7647V82.5221C136.802 80.4555 135.998 77.8146 134.391 74.5999L114.154 94.7509L98.1366 78.8192L114.24 62.7159C114.413 62.6586 112.948 62.3138 109.848 61.6826C106.806 60.9936 103.304 60.7354 99.3426 60.9075L90.6446 55.9988L81.6885 60.9075ZM90.7307 22.5L109.59 41.4453L99.6008 51.4347L101.064 54.3626C107.954 54.3626 113.838 55.3099 118.718 57.2046C123.655 59.0417 126.124 59.9603 126.124 59.9603L107.179 78.9053L114.326 86.0529L134.822 65.6438C138.841 68.7437 141.223 72.3032 141.969 76.3223C142.716 80.3408 143.089 82.35 143.089 82.35V98.3678C142.055 104.74 140.046 110.079 137.061 114.385C134.075 118.634 132.583 120.758 132.583 120.758V124.202H48.7065V119.982C44.1137 114.528 41.2432 109.591 40.095 105.171C38.9468 100.75 38.3727 98.5399 38.3727 98.5399V82.5221C38.4302 75.2884 40.6405 69.777 45.0036 65.988C49.3667 62.1416 54.1318 59.3572 59.2987 57.6349C64.4659 55.9127 69.2021 54.9367 73.5075 54.7071C77.8134 54.4774 79.9661 54.3626 79.9661 54.3626L81.5164 51.5208L71.613 41.6176L90.7307 22.5ZM95.1227 133.589H131.205L152.82 141.77V164.676L131.205 156.581H95.1227V133.589ZM80.6552 41.5315L90.5586 51.5208L100.548 41.5315L90.5586 31.5421L80.6552 41.5315Z" fill="#54123B" />
    <path d="M79.2776 140.047H50.7734L34.4976 146.248V155.548L48.1038 150.382H79.2776V140.047ZM101.581 140.219V150.123H132.583L146.361 155.548V146.248L130.344 140.219H101.581ZM81.6885 60.9075C81.6885 60.9075 79.794 60.9936 76.005 61.1657C72.216 61.2804 68.0254 61.9982 63.4326 63.3189C58.8972 64.5817 54.6773 66.677 50.7734 69.6049C46.9269 72.5332 44.9176 76.7812 44.7453 82.35V98.2817C44.7453 98.2817 45.3481 100.234 46.5538 104.137C47.8167 108.041 50.5724 112.605 54.8208 117.83H126.21C126.21 117.83 127.789 115.476 130.947 110.768C134.104 106.06 136.056 101.726 136.802 97.7647V82.5221C136.802 80.4555 135.999 77.8146 134.391 74.5999L114.154 94.7509L98.1366 78.8192L114.24 62.7159C114.413 62.6585 112.948 62.3137 109.848 61.6826C106.806 60.9936 103.304 60.7354 99.3426 60.9075L90.6446 55.9989L81.6885 60.9075ZM80.6552 41.5316L90.5586 51.5209L100.548 41.5316L90.5586 31.5422L80.6552 41.5316Z" fill="#29C7AC" />
  </g>
  <g id="wk" fill="none" transform="scale(0.2222222222222222 0.2222222222222222)">
    <path d="M114.099 139.128C123.801 139.128 131.351 136.774 136.747 132.066C142.201 127.301 145.703 124.086 147.253 122.421C149.377 120.125 150.67 117.943 151.129 115.876C151.588 113.752 151.818 112.69 151.818 112.69V95.8978C151.818 91.8214 150.641 87.8602 148.287 84.0139C145.991 80.1101 143.665 77.1531 141.311 75.1438C137.752 72.216 134.049 69.9486 130.202 68.3409C126.356 66.6759 123.514 65.8434 121.677 65.8434H103.852L90.8482 118.632V132.583C90.8482 132.583 93.0583 133.76 97.479 136.114C101.9 138.41 107.44 139.415 114.099 139.128ZM98.2541 52.1511C97.1629 53.1845 95.6992 54.2179 93.8621 55.2513C92.0824 56.2849 89.9871 56.8012 87.5756 56.8012C83.3844 56.8012 79.8542 55.2513 76.9832 52.1511H76.2086V59.1266L85.509 94.4336H87.5756H89.6422L98.9426 59.1266V52.1511H98.2541ZM61.1381 138.869C64.5829 138.869 67.7115 138.553 70.5246 137.922C73.3956 137.29 75.8638 136.573 77.9304 135.769C79.9402 135.022 81.4899 134.334 82.5812 133.702C83.7292 133.013 84.303 132.669 84.303 132.669V118.632L71.4718 65.8434H53.0434C52.6989 65.8434 51.1202 66.1877 48.307 66.8768C45.494 67.5084 42.3651 68.886 38.9205 71.0106C35.4759 73.0772 32.2035 76.1484 29.1034 80.2249C26.0032 84.2434 24.0513 89.64 23.2475 96.4142V112.69C24.855 120.728 29.6774 127.129 37.7149 131.894C45.7523 136.601 53.5601 138.927 61.1381 138.869ZM87.5756 138.266C75.0026 145.443 64.0659 147.739 54.7657 145.155C45.5227 142.572 40.9012 141.28 40.9012 141.28V156.695H87.5756H134.25V141.28C134.25 141.28 129.6 142.572 120.3 145.155C110.999 147.739 100.091 145.443 87.5756 138.266ZM100.837 48.0176H106.693V59.2987H122.194C122.194 59.2987 123.887 59.7004 127.275 60.5042C130.662 61.308 134.48 62.973 138.728 65.4992C142.976 67.9674 147.024 71.5556 150.87 76.2632C154.774 80.9713 157.243 87.2286 158.276 95.0366V112.432C158.276 112.432 157.645 114.929 156.382 119.924C155.118 124.861 150.009 130.43 141.053 136.63V163.24H87.5756H34.098V136.63C25.0846 130.43 19.9464 124.861 18.6834 119.924C17.4778 114.929 16.875 112.432 16.875 112.432V95.0366C17.851 87.2286 20.2622 80.9713 24.1087 76.2632C28.0126 71.5556 32.0887 67.9674 36.337 65.4992C40.6428 62.973 44.4893 61.308 47.8765 60.5042C51.2637 59.7004 52.9573 59.2987 52.9573 59.2987H68.4579V48.0176H74.3141C73.5677 46.4676 73.1942 44.7452 73.1942 42.8507C73.1942 38.9468 74.5723 35.5309 77.328 32.603C80.0837 29.6177 83.4997 28.125 87.5756 28.125C91.5941 28.125 94.9815 29.6177 97.7372 32.603C100.55 35.5309 101.957 38.9468 101.957 42.8507C101.957 44.7452 101.584 46.4676 100.837 48.0176ZM87.5756 34.4114C82.1216 34.4114 79.3946 37.081 79.3946 42.4201C79.3946 47.8167 82.1216 50.515 87.5756 50.515C93.0296 50.515 95.7566 47.8167 95.7566 42.4201C95.7566 37.081 93.0296 34.4114 87.5756 34.4114Z" fill="#54123B" />
    <path d="M114.099 139.128C123.801 139.128 131.351 136.774 136.748 132.066C142.202 127.301 145.703 124.086 147.254 122.421C149.378 120.125 150.67 117.943 151.129 115.877C151.588 113.752 151.818 112.69 151.818 112.69V95.8978C151.818 91.8214 150.641 87.8603 148.287 84.0139C145.991 80.1101 143.665 77.1531 141.312 75.1438C137.752 72.216 134.049 69.9486 130.202 68.341C126.356 66.676 123.514 65.8435 121.677 65.8435H103.852L90.8483 118.632V132.583C90.8483 132.583 93.0583 133.76 97.479 136.114C101.9 138.41 107.44 139.415 114.099 139.128ZM98.2541 52.1512C97.1635 53.1846 95.6993 54.2179 93.8621 55.2513C92.0824 56.2849 89.9871 56.8013 87.5757 56.8013C83.385 56.8013 79.8542 55.2513 76.9838 52.1512H76.2086V59.1266L85.509 94.4336H87.5757H89.6423L98.9426 59.1266V52.1512H98.2541ZM61.1382 138.869C64.5829 138.869 67.7115 138.553 70.5251 137.922C73.3956 137.291 75.8638 136.573 77.931 135.769C79.9403 135.023 81.49 134.334 82.5812 133.702C83.7293 133.013 84.3036 132.669 84.3036 132.669V118.632L71.4724 65.8435H53.0435C52.699 65.8435 51.1202 66.1877 48.3071 66.8768C45.4941 67.5085 42.3652 68.886 38.9206 71.0106C35.476 73.0772 32.2036 76.1485 29.1034 80.2249C26.0033 84.2434 24.0513 89.64 23.2476 96.4142V112.69C24.8551 120.728 29.6775 127.129 37.715 131.894C45.7524 136.601 53.5602 138.927 61.1382 138.869ZM87.5757 138.266C75.0027 145.443 64.066 147.739 54.7658 145.155C45.5228 142.572 40.9013 141.28 40.9013 141.28V156.695H87.5757H134.25V141.28C134.25 141.28 129.6 142.572 120.3 145.155C110.999 147.739 100.091 145.443 87.5757 138.266ZM87.5757 34.4114C82.1217 34.4114 79.3947 37.081 79.3947 42.4202C79.3947 47.8167 82.1217 50.515 87.5757 50.515C93.0297 50.515 95.7566 47.8167 95.7566 42.4202C95.7566 37.081 93.0297 34.4114 87.5757 34.4114Z" fill="#29C7AC" />
  </g>
  <g id="wn" fill="none" transform="scale(0.2222222222222222 0.2222222222222222)">
    <path d="M88.2332 24.739L88.3198 22.5L106.231 40.412C118.173 44.3158 127.244 48.9086 133.444 54.1904C139.701 59.472 144.151 64.5244 146.792 69.3467C149.49 74.169 150.954 78.2454 151.184 81.5749C151.471 84.9049 151.614 86.5699 151.614 86.5699V161.576H37.1671V154.601C38.3727 150.123 41.5303 146.678 46.6398 144.267C51.8067 141.798 57.2321 140.019 62.9156 138.928C68.5991 137.779 73.7089 137.119 78.2443 136.947C82.8371 136.717 85.1332 136.603 85.1332 136.603L93.3142 127.044V119.035H86.4247C80.5691 114.27 76.2632 109.448 73.5075 104.568L50.6011 116.452H42.334L28.125 103.362V96.3866L56.2849 69.6049V66.5049H53.1845V62.1129C55.6532 59.472 58.2654 56.8884 61.0211 54.3626C63.7768 51.7792 66.4464 49.7411 69.03 48.2484C74.1966 45.3205 78.6746 43.5408 82.4636 42.9093C86.31 42.2778 88.2332 41.962 88.2332 41.962V24.739ZM74.2826 55.9127L86.4247 67.7964H74.2826V55.9127ZM94.8645 47.3012C94.8645 47.3012 91.9074 47.8753 85.9944 49.0235C80.1388 50.1717 75.7468 51.6643 72.819 53.5015C67.5945 56.6589 62.8583 60.9936 58.6097 66.5049H61.9684V72.7914L34.0669 99.7453L46.0369 111.199L74.9717 96.1284C77.2678 98.9415 79.6792 102.071 82.2054 105.515C84.7316 108.902 87.1999 111.314 89.6113 112.749H99.8589V129.628L87.8889 142.975C87.8889 142.975 85.9944 143.032 82.2054 143.147C78.4738 143.262 74.1966 143.664 69.3743 144.353C64.5519 144.984 59.8151 145.989 55.1651 147.367C50.5149 148.745 47.2999 150.697 45.5202 153.223V154.773L144.38 154.601V88.4644C144.38 88.4644 144.265 86.9428 144.036 83.9002C143.864 80.8577 142.572 77.1834 140.161 72.8775C137.749 68.5142 133.731 63.9214 128.105 59.0991C122.479 54.2765 114.269 50.0856 103.476 46.5262L94.8645 38.173V47.3012Z" fill="#54123B" />
    <path d="M74.2826 55.9128L86.4247 67.797H74.2826V55.9128ZM94.8645 47.3013C94.8645 47.3013 91.9074 47.8754 85.9944 49.0236C80.1388 50.1719 75.7468 51.6645 72.819 53.5016C67.5945 56.6589 62.8582 60.9936 58.6097 66.5049H61.9684V72.7914L34.0669 99.7453L46.0369 111.199L74.9717 96.1284C77.2678 98.9415 79.6792 102.071 82.2054 105.515C84.7316 108.902 87.1999 111.314 89.6113 112.749H99.8589V129.628L87.8889 142.975C87.8889 142.975 85.9944 143.033 82.2054 143.147C78.4738 143.262 74.1965 143.664 69.3742 144.353C64.5519 144.984 59.8151 145.989 55.1651 147.367C50.5148 148.745 47.2999 150.697 45.5202 153.223V154.773L144.38 154.601V88.4644C144.38 88.4644 144.265 86.9428 144.036 83.9003C143.864 80.8577 142.572 77.1834 140.161 72.8775C137.749 68.5142 133.731 63.9214 128.105 59.0991C122.479 54.2766 114.269 50.0857 103.476 46.5263L94.8645 38.1731V47.3013Z" fill="#29C7AC" />
  </g>
  <g id="wp" fill="none" transform="scale(0.2222222222222222 0.2222222222222222)">
    <path d="M92.9661 116.476C84.4695 116.476 75.4273 119.432 65.8401 125.345C56.3096 131.201 51.5447 139.268 51.5447 149.544C51.5447 150.749 51.5447 151.926 51.5447 153.075C51.5447 154.166 51.5447 155.285 51.5447 156.433C51.5447 156.893 51.5447 157.323 51.5447 157.725C51.5447 158.069 51.5447 158.241 51.5447 158.241L134.129 158.155V149.458C134.014 139.468 129.25 131.488 119.834 125.518C110.476 119.49 101.521 116.476 92.9661 116.476ZM84.699 68.1649C81.4269 65.5239 79.7906 62.1371 79.7906 58.0033C79.7906 54.3865 81.0534 51.3151 83.5796 48.7891C86.1058 46.263 89.1771 45 92.7939 45C96.3534 45 99.396 46.263 101.922 48.7891C104.506 51.3151 105.797 54.3865 105.797 58.0033C105.797 62.1945 104.161 65.5813 100.889 68.1649C105.941 69.7151 110.103 72.5856 113.375 76.7768C116.705 80.9674 118.37 85.7323 118.37 91.0716C118.37 100.429 114.122 107.376 105.625 111.912C114.753 114.15 122.59 118.456 129.135 124.829C135.737 131.201 139.497 138.464 140.416 146.616C140.473 146.96 140.502 147.908 140.502 149.458L140.588 154.022L140.502 165.561H45.0861C45.0287 165.561 45 163.867 45 160.481C45 157.036 45 154.711 45 153.505C45 152.242 45 150.922 45 149.544C45 148.108 45.0287 147.161 45.0861 146.702C46.1195 138.263 49.9373 130.885 56.5397 124.571C63.1991 118.256 71.1214 114.007 80.307 111.826C71.8104 107.175 67.5624 100.257 67.5624 91.0716C67.5624 85.7323 69.1408 80.9387 72.2987 76.6901C75.3986 72.6142 79.5324 69.7725 84.699 68.1649ZM93.1382 108.725C98.7649 108.725 103.329 107.003 106.831 103.559C110.39 100.114 112.17 95.8365 112.17 90.7273C112.17 85.6749 110.447 81.2829 107.003 77.5513C103.558 73.8197 99.0231 71.9539 93.3969 71.9539C87.7134 71.9539 83.0627 73.8197 79.4458 77.5513C75.8295 81.2829 74.0211 85.6749 74.0211 90.7273C74.0211 95.8365 75.7721 100.114 79.2737 103.559C82.8332 107.003 87.4547 108.725 93.1382 108.725ZM92.7939 51.2864C88.3159 51.2864 86.0771 53.5254 86.0771 58.0033C86.0771 62.4814 88.3159 64.7201 92.7939 64.7201C97.272 64.7201 99.5107 62.4814 99.5107 58.0033C99.5107 53.5254 97.272 51.2864 92.7939 51.2864Z" fill="#54123B" />
    <path d="M92.9661 116.476C84.4695 116.476 75.4273 119.432 65.8401 125.345C56.3096 131.201 51.5447 139.268 51.5447 149.544C51.5447 150.749 51.5447 151.926 51.5447 153.075C51.5447 154.166 51.5447 155.285 51.5447 156.433C51.5447 156.893 51.5447 157.323 51.5447 157.725C51.5447 158.069 51.5447 158.241 51.5447 158.241L134.129 158.155V149.458C134.014 139.469 129.25 131.488 119.834 125.518C110.476 119.49 101.521 116.476 92.9661 116.476ZM93.1382 108.725C98.7649 108.725 103.329 107.003 106.831 103.559C110.39 100.114 112.17 95.8365 112.17 90.7273C112.17 85.675 110.447 81.283 107.003 77.5513C103.558 73.8197 99.0231 71.9539 93.3969 71.9539C87.7134 71.9539 83.0627 73.8197 79.4464 77.5513C75.8295 81.283 74.0211 85.675 74.0211 90.7273C74.0211 95.8365 75.7721 100.114 79.2737 103.559C82.8332 107.003 87.4547 108.725 93.1382 108.725ZM92.7939 51.2864C88.3159 51.2864 86.0771 53.5254 86.0771 58.0033C86.0771 62.4814 88.3159 64.7201 92.7939 64.7201C97.272 64.7201 99.5107 62.4814 99.5107 58.0033C99.5107 53.5254 97.272 51.2864 92.7939 51.2864Z" fill="#29C7AC" />
  </g>
  <g id="wq" fill="none" transform="scale(0.2222222222222222 0.2222222222222222)">
    <path d="M88.0926 56.9458L73.3663 123.255L53.7323 74.772L46.6708 113.093C43.5707 107.237 38.5473 101.726 31.6007 96.5593C33.0934 103.62 34.586 110.711 36.0787 117.83C37.6288 124.891 39.1789 131.952 40.7289 139.014H69.147C71.7879 139.014 75.0026 137.779 78.7916 135.311C82.5812 132.785 85.6811 130.058 88.0926 127.13C90.5034 130.058 93.5752 132.785 97.3069 135.311C101.096 137.779 104.339 139.014 107.038 139.014H135.456L144.584 96.3866C138.728 100.234 133.705 105.802 129.514 113.093L122.452 74.772L102.818 123.255L88.0926 56.9458ZM88.0926 161.835H33.323V134.794L16.875 65.2995C22.3864 74.5999 27.0079 80.1973 30.7396 82.0918C34.5286 83.9863 38.2029 87.6893 41.7623 93.2006C43.5994 82.8669 45.2069 74.8007 46.5847 69.0024C47.9626 63.1463 49.3979 56.1998 50.8905 48.1623L72.6778 96.5593L88.0926 22.5L103.507 96.5593L125.294 48.1623L133.217 93.8036C136.317 88.8086 140.077 85.2204 144.498 83.0391C148.976 80.8577 153.913 74.9441 159.31 65.2995L142.862 134.794V161.835H88.0926ZM88.0926 155.203H135.456V145.731C131.092 145.731 126.73 145.731 122.366 145.731C118.06 145.731 113.754 145.731 109.449 145.731C104.569 145.616 100.263 144.439 96.5317 142.2C92.8001 139.904 89.9871 137.607 88.0926 135.311C85.0494 139.1 81.4612 141.798 77.328 143.406C73.2516 144.956 69.7213 145.731 66.7356 145.731C62.3728 145.731 58.0095 145.731 53.6462 145.731C49.3404 145.731 45.0346 145.731 40.7289 145.731V155.203H88.0926Z" fill="#54123B" />
    <path d="M88.092 56.9458L73.3663 123.255L53.7322 74.772L46.6708 113.093C43.5706 107.237 38.5472 101.726 31.6006 96.5593C33.0932 103.62 34.5859 110.711 36.0786 117.83C37.6286 124.891 39.1787 131.952 40.7288 139.014H69.147C71.7879 139.014 75.0026 137.779 78.7916 135.311C82.5806 132.785 85.6811 130.058 88.092 127.13C90.5034 130.058 93.5746 132.785 97.3063 135.311C101.096 137.779 104.339 139.014 107.038 139.014H135.456L144.584 96.3866C138.728 100.234 133.705 105.802 129.513 113.093L122.452 74.772L102.818 123.255L88.092 56.9458ZM88.092 155.203H135.456V145.731C131.092 145.731 126.729 145.731 122.366 145.731C118.06 145.731 113.754 145.731 109.449 145.731C104.569 145.616 100.263 144.439 96.5317 142.2C92.7995 139.904 89.9865 137.607 88.092 135.311C85.0494 139.1 81.4612 141.798 77.328 143.406C73.2515 144.956 69.7207 145.731 66.7355 145.731C62.3722 145.731 58.0095 145.731 53.6461 145.731C49.3403 145.731 45.0346 145.731 40.7288 145.731V155.203H88.092Z" fill="#29C7AC" />
  </g>
  <g id="wr" fill="none" transform="scale(0.2222222222222222 0.2222222222222222)">
    <path d="M46.3503 45H69.7736V53.956H78.9879V45.0861H102.498V53.956H111.023V45H135.049V79.0155H46.3503V45ZM51.8617 50.942V72.9872H128.59V50.942H117.051V59.9839H95.9529V50.942H84.6714V59.9839H63.7459V50.942H51.8617ZM57.7176 79.0155L47.8143 141.793H53.8423L63.7459 79.0155H57.7176ZM116.534 79.0155L127.557 141.793H133.585L122.563 79.0155H116.534ZM39.375 141.793H142.025V165.733H39.375V141.793ZM44.8864 147.908V159.275H135.996V147.908H44.8864Z" fill="#54123B" />
    <path d="M51.8617 50.942V72.9878H128.59V50.942H117.051V59.9839H95.9529V50.942H84.6714V59.9839H63.7453V50.942H51.8617ZM44.8864 147.908V159.275H135.996V147.908H44.8864Z" fill="#29C7AC" />
    <path d="M116.534 79.0155H63.7453L53.8423 141.793H127.557L116.534 79.0155Z" fill="#29C7AC" />
  </g>
</svg>