<svg xmlns="http://www.w3.org/2000/svg" width="40" height="40" viewbox="-50.0 -100.0 436.833 553.0">
  <g id="bb" transform="scale(0.0831054857931172 0.0831054857931172)">
    <defs>
      <clipPath id="bbclip1">
        <path d="M 0 70 L 291.316406 70 L 291.316406 431.652344 L 0 431.652344 Z M 0 70 " />
      </clipPath>
    </defs>
    <g id="bbsurface1">
      <path style=" stroke:none;fill-rule:nonzero;fill:rgb(50.196838%,50.196838%,50.196838%);fill-opacity:1;" d="M 180.359375 49.832031 C 180.359375 69.070312 164.765625 84.664062 145.527344 84.664062 C 126.289062 84.664062 110.695312 69.070312 110.695312 49.832031 C 110.695312 30.59375 126.289062 15 145.527344 15 C 164.765625 15 180.359375 30.59375 180.359375 49.832031 " />
      <path style="fill:none;stroke-width:30;stroke-linecap:butt;stroke-linejoin:round;stroke:rgb(0%,0%,0%);stroke-opacity:1;stroke-miterlimit:10;" d="M -0.000825 0.00066875 C -0.000825 -19.237612 -15.594575 -34.831362 -34.832856 -34.831362 C -54.071138 -34.831362 -69.664888 -19.237612 -69.664888 0.00066875 C -69.664888 19.23895 -54.071138 34.8327 -34.832856 34.8327 C -15.594575 34.8327 -0.000825 19.23895 -0.000825 0.00066875 Z M -0.000825 0.00066875 " transform="matrix(1,0,0,-1,180.3602,49.8327)" />
      <path style=" stroke:none;fill-rule:nonzero;fill:rgb(30.195618%,30.195618%,30.195618%);fill-opacity:1;" d="M 248.148438 169.859375 C 191.621094 185.222656 153.882812 281.285156 153.882812 281.285156 C 153.882812 281.285156 158.558594 194.765625 198.730469 121.183594 C 170.835938 98.917969 146.109375 85.140625 146.109375 85.140625 C 146.109375 85.140625 14.097656 157.269531 15.003906 239.835938 C 15.914062 322.402344 81.238281 386.820312 73.074219 404.0625 C 64.90625 421.300781 227.316406 420.394531 219.148438 404.0625 C 210.984375 387.730469 275.402344 321.496094 276.3125 239.835938 C 276.585938 215.125 264.761719 191.207031 248.148438 169.859375 " />
      <path style=" stroke:none;fill-rule:nonzero;fill:rgb(50.196838%,50.196838%,50.196838%);fill-opacity:1;" d="M 150.316406 91.773438 C 99.816406 178.773438 87.816406 217.773438 87.816406 244.773438 C 87.816406 301.695312 138.816406 392.773438 114.316406 406.773438 L 78.316406 406.773438 L 33.316406 316.773438 L 15.316406 253.773438 L 24.316406 199.773438 L 60.316406 154.773438 Z M 150.316406 91.773438 " />
      <g clip-path="url(#bbclip1)" clip-rule="nonzero">
        <path style=" stroke:none;fill-rule:nonzero;fill:rgb(0%,0%,0%);fill-opacity:1;" d="M 88.683594 397.546875 C 98.078125 399.609375 117.390625 401.652344 144.464844 401.652344 C 145.039062 401.652344 145.613281 401.652344 146.191406 401.652344 C 174.054688 401.5625 193.957031 399.398438 203.597656 397.277344 C 204.878906 386.949219 211.6875 374.679688 221.015625 357.875 C 237.800781 327.625 260.796875 286.195312 261.3125 239.667969 C 261.492188 223.597656 255.25 206.214844 242.746094 187.882812 C 206.597656 205.46875 176.847656 263.9375 167.839844 286.78125 C 165.140625 293.625 157.867188 297.511719 150.6875 295.9375 C 143.496094 294.367188 138.507812 287.824219 138.902344 280.476562 C 139.089844 276.988281 143.742188 198.164062 179.652344 125.386719 C 165.730469 114.941406 153.421875 107.042969 146.046875 102.527344 C 134.773438 109.316406 112.015625 123.863281 89.625 143.21875 C 62.203125 166.929688 29.597656 202.910156 30.003906 239.671875 C 30.519531 286.613281 53.785156 327.574219 70.773438 357.484375 C 80.496094 374.601562 87.527344 386.980469 88.683594 397.546875 M 144.574219 431.652344 C 128.140625 431.652344 112.257812 430.902344 99.648438 429.523438 C 77.027344 427.050781 69.535156 423.246094 65.195312 419.847656 C 58.785156 414.832031 56.3125 407.03125 58.640625 399.839844 C 57.511719 394.878906 50.4375 382.425781 44.6875 372.300781 C 27.132812 341.394531 0.605469 294.691406 0.00390625 240 C -0.421875 201.132812 23.269531 160.816406 70.421875 120.164062 C 104.132812 91.105469 137.515625 72.742188 138.917969 71.976562 C 143.4375 69.503906 148.914062 69.527344 153.414062 72.035156 C 154.464844 72.625 179.546875 86.679688 208.089844 109.460938 C 213.78125 114.003906 215.386719 121.980469 211.894531 128.375 C 198.992188 152.007812 189.890625 177.238281 183.5 200.273438 C 202.769531 176.179688 223.117188 161.117188 244.214844 155.382812 C 250.046875 153.796875 256.269531 155.871094 259.988281 160.648438 C 281.054688 187.71875 291.59375 214.417969 291.308594 240.003906 C 290.707031 294.117188 264.554688 341.246094 247.246094 372.433594 C 241.660156 382.5 234.792969 394.867188 233.59375 399.859375 C 235.847656 406.792969 233.570312 414.335938 227.503906 419.296875 C 223.3125 422.71875 215.996094 426.574219 193.464844 429.191406 C 180.375 430.707031 163.753906 431.582031 146.660156 431.648438 C 145.964844 431.652344 145.269531 431.652344 144.574219 431.652344 " />
      </g>
      <path style="fill:none;stroke-width:30;stroke-linecap:round;stroke-linejoin:round;stroke:rgb(0%,0%,0%);stroke-opacity:1;stroke-miterlimit:10;" d="M 0.00020625 0.0006625 C 15.582238 -24.335275 181.500206 -28.839181 198.000206 0.0006625 " transform="matrix(1,0,0,-1,47.3162,344.2741)" />
    </g>
  </g>
  <g id="bk" transform="scale(0.08354812162935546 0.08354812162935547)">
    <defs>
      <clipPath id="bkclip1">
        <path d="M 44 356 L 345 356 L 345 431.578125 L 44 431.578125 Z M 44 356 " />
      </clipPath>
      <clipPath id="bkclip2">
        <path d="M 241 127 L 388.765625 127 L 388.765625 322 L 241 322 Z M 241 127 " />
      </clipPath>
      <clipPath id="bkclip3">
        <path d="M 0 0 L 388.765625 0 L 388.765625 431.578125 L 0 431.578125 Z M 0 0 " />
      </clipPath>
      <clipPath id="bkclip4">
        <path d="M 0 0 L 388.765625 0 L 388.765625 431.578125 L 0 431.578125 Z M 0 0 " />
      </clipPath>
      <clipPath id="bkclip5">
        <path d="M 0 0 L 388.765625 0 L 388.765625 431.578125 L 0 431.578125 Z M 0 0 " />
      </clipPath>
    </defs>
    <g id="bksurface1">
      <path style=" stroke:none;fill-rule:nonzero;fill:rgb(30.195618%,30.195618%,30.195618%);fill-opacity:1;" d="M 319.382812 416.578125 L 69.382812 416.578125 C 63.859375 416.578125 59.382812 412.101562 59.382812 406.578125 L 59.382812 381.578125 C 59.382812 376.058594 63.859375 371.578125 69.382812 371.578125 L 319.382812 371.578125 C 324.90625 371.578125 329.382812 376.058594 329.382812 381.578125 L 329.382812 406.578125 C 329.382812 412.101562 324.90625 416.578125 319.382812 416.578125 " />
      <path style=" stroke:none;fill-rule:nonzero;fill:rgb(50.196838%,50.196838%,50.196838%);fill-opacity:1;" d="M 95.382812 413.578125 L 59.382812 413.578125 L 59.382812 368.578125 L 95.382812 368.578125 Z M 95.382812 413.578125 " />
      <g clip-path="url(#bkclip1)" clip-rule="nonzero">
        <path style=" stroke:none;fill-rule:nonzero;fill:rgb(0%,0%,0%);fill-opacity:1;" d="M 74.382812 401.578125 L 314.382812 401.578125 L 314.382812 386.578125 L 74.382812 386.578125 Z M 319.382812 431.578125 L 69.382812 431.578125 C 55.597656 431.578125 44.382812 420.363281 44.382812 406.578125 L 44.382812 381.578125 C 44.382812 367.792969 55.597656 356.578125 69.382812 356.578125 L 319.382812 356.578125 C 333.167969 356.578125 344.382812 367.792969 344.382812 381.578125 L 344.382812 406.578125 C 344.382812 420.363281 333.167969 431.578125 319.382812 431.578125 " />
      </g>
      <path style=" stroke:none;fill-rule:nonzero;fill:rgb(30.195618%,30.195618%,30.195618%);fill-opacity:1;" d="M 328.382812 371.578125 L 60.382812 371.578125 C 54.859375 371.578125 50.382812 367.101562 50.382812 361.578125 L 50.382812 315.578125 C 50.382812 310.058594 54.859375 305.578125 60.382812 305.578125 L 328.382812 305.578125 C 333.90625 305.578125 338.382812 310.058594 338.382812 315.578125 L 338.382812 361.578125 C 338.382812 367.101562 333.90625 371.578125 328.382812 371.578125 " />
      <path style=" stroke:none;fill-rule:nonzero;fill:rgb(50.196838%,50.196838%,50.196838%);fill-opacity:1;" d="M 88.382812 359.578125 L 53.382812 359.578125 L 53.382812 314.578125 L 88.382812 314.578125 Z M 88.382812 359.578125 " />
      <path style=" stroke:none;fill-rule:nonzero;fill:rgb(0%,0%,0%);fill-opacity:1;" d="M 65.382812 356.578125 L 323.382812 356.578125 L 323.382812 320.578125 L 65.382812 320.578125 Z M 328.382812 386.578125 L 60.382812 386.578125 C 46.597656 386.578125 35.382812 375.363281 35.382812 361.578125 L 35.382812 315.578125 C 35.382812 301.792969 46.597656 290.578125 60.382812 290.578125 L 328.382812 290.578125 C 342.167969 290.578125 353.382812 301.792969 353.382812 315.578125 L 353.382812 361.578125 C 353.382812 375.363281 342.167969 386.578125 328.382812 386.578125 " />
      <path style="fill:none;stroke-width:30;stroke-linecap:round;stroke-linejoin:miter;stroke:rgb(0%,0%,0%);stroke-opacity:1;stroke-miterlimit:10;" d="M 0.0000125 0.001825 L 0.0000125 123.1737 " transform="matrix(1,0,0,-1,194.3828,138.1737)" />
      <path style="fill:none;stroke-width:30;stroke-linecap:round;stroke-linejoin:miter;stroke:rgb(0%,0%,0%);stroke-opacity:1;stroke-miterlimit:10;" d="M 0.0000125 -0.0001 L 72.000012 -0.0001 " transform="matrix(1,0,0,-1,158.3828,50.9999)" />
      <path style=" stroke:none;fill-rule:nonzero;fill:rgb(39.99939%,39.99939%,39.99939%);fill-opacity:1;" d="M 207.375 97.875 L 183.222656 97.875 C 178.054688 97.875 173.386719 100.945312 171.335938 105.683594 L 156.351562 140.308594 C 154.933594 143.589844 154.933594 147.3125 156.351562 150.59375 L 171.335938 185.21875 C 173.386719 189.957031 178.054688 193.023438 183.222656 193.023438 L 207.375 193.023438 C 212.539062 193.023438 217.210938 189.957031 219.261719 185.21875 L 234.242188 150.59375 C 235.660156 147.3125 235.660156 143.589844 234.242188 140.308594 L 219.261719 105.683594 C 217.210938 100.945312 212.539062 97.875 207.375 97.875 " />
      <path style=" stroke:none;fill-rule:nonzero;fill:rgb(0%,0%,0%);fill-opacity:1;" d="M 184.566406 178.023438 L 206.03125 178.023438 L 220.125 145.449219 L 206.03125 112.875 L 184.566406 112.875 L 170.46875 145.449219 Z M 207.375 208.023438 L 183.21875 208.023438 C 172.066406 208.023438 161.996094 201.410156 157.566406 191.171875 L 142.585938 156.550781 C 139.535156 149.5 139.535156 141.40625 142.585938 134.351562 L 157.566406 99.726562 C 161.996094 89.492188 172.066406 82.875 183.21875 82.875 L 207.375 82.875 C 218.53125 82.875 228.597656 89.492188 233.027344 99.726562 L 248.007812 134.351562 C 251.058594 141.40625 251.058594 149.5 248.007812 156.550781 L 233.027344 191.171875 C 228.597656 201.410156 218.53125 208.023438 207.375 208.023438 " />
      <path style=" stroke:none;fill-rule:nonzero;fill:rgb(30.195618%,30.195618%,30.195618%);fill-opacity:1;" d="M 315.148438 141.59375 C 347.523438 141.59375 373.765625 165.707031 373.765625 195.449219 C 373.765625 258.28125 324.917969 294.183594 315.148438 303.160156 C 305.378906 312.136719 256.527344 303.160156 256.527344 303.160156 L 256.527344 195.449219 C 256.527344 165.707031 282.773438 141.59375 315.148438 141.59375 " />
      <path style=" stroke:none;fill-rule:nonzero;fill:rgb(50.196838%,50.196838%,50.196838%);fill-opacity:1;" d="M 371.382812 148.578125 C 344.382812 192.578125 300.382812 143.578125 282.382812 292.578125 C 282.382812 292.578125 293.382812 319.527344 275.382812 293.578125 C 257.382812 267.628906 277.382812 219.527344 277.382812 193.578125 C 277.382812 167.628906 299.382812 151.449219 317.382812 142.800781 C 335.382812 134.152344 371.382812 148.578125 371.382812 148.578125 " />
      <g clip-path="url(#bkclip2)" clip-rule="nonzero">
        <path style=" stroke:none;fill-rule:nonzero;fill:rgb(0%,0%,0%);fill-opacity:1;" d="M 271.527344 290.894531 C 286.589844 292.851562 300.960938 293.359375 305.71875 291.894531 C 306.558594 291.152344 307.515625 290.328125 308.578125 289.417969 C 322.300781 277.625 358.765625 246.304688 358.765625 195.449219 C 358.765625 173.703125 339.199219 156.011719 315.148438 156.011719 C 291.09375 156.011719 271.527344 173.703125 271.527344 195.449219 Z M 295.691406 321.578125 C 291.265625 321.578125 286.347656 321.34375 280.875 320.886719 C 266.839844 319.714844 254.242188 317.417969 253.710938 317.320312 L 241.527344 315.082031 L 241.527344 195.449219 C 241.527344 157.804688 274.554688 127.179688 315.148438 127.179688 C 355.742188 127.179688 388.765625 157.804688 388.765625 195.449219 C 388.765625 259.207031 343.457031 298.125 328.566406 310.917969 C 327.292969 312.011719 326.191406 312.957031 325.511719 313.582031 C 319.585938 319.027344 310.335938 321.578125 295.691406 321.578125 " />
      </g>
      <path style=" stroke:none;fill-rule:nonzero;fill:rgb(30.195618%,30.195618%,30.195618%);fill-opacity:1;" d="M 253 137.996094 C 285.375 137.996094 311.621094 162.105469 311.621094 191.851562 C 311.621094 254.683594 262.773438 290.585938 253 299.5625 C 243.230469 308.535156 194.382812 299.5625 194.382812 299.5625 L 194.382812 191.851562 C 194.382812 162.105469 220.628906 137.996094 253 137.996094 " />
      <path style=" stroke:none;fill-rule:nonzero;fill:rgb(50.196838%,50.196838%,50.196838%);fill-opacity:1;" d="M 289.382812 148.578125 C 250.382812 170.578125 233.382812 149.578125 228.382812 302.578125 C 228.382812 302.578125 220.382812 317.527344 202.382812 291.578125 C 184.382812 265.628906 195.382812 219.527344 195.382812 193.578125 C 195.382812 167.628906 217.382812 151.449219 235.382812 142.800781 C 253.382812 134.152344 289.382812 148.578125 289.382812 148.578125 " />
      <path style=" stroke:none;fill-rule:nonzero;fill:rgb(0%,0%,0%);fill-opacity:1;" d="M 209.382812 287.296875 C 224.441406 289.253906 238.816406 289.761719 243.570312 288.296875 C 244.414062 287.550781 245.367188 286.730469 246.429688 285.820312 C 260.15625 274.03125 296.621094 242.707031 296.621094 191.851562 C 296.621094 170.105469 277.054688 152.410156 253 152.410156 C 228.949219 152.410156 209.382812 170.105469 209.382812 191.851562 Z M 233.546875 317.980469 C 229.117188 317.980469 224.199219 317.746094 218.730469 317.289062 C 204.695312 316.117188 192.097656 313.816406 191.566406 313.722656 L 179.382812 311.484375 L 179.382812 191.851562 C 179.382812 154.207031 212.40625 123.578125 253 123.578125 C 293.59375 123.578125 326.621094 154.207031 326.621094 191.851562 C 326.621094 255.609375 281.308594 294.53125 266.417969 307.320312 C 265.144531 308.414062 264.042969 309.359375 263.363281 309.984375 C 257.441406 315.425781 248.191406 317.980469 233.546875 317.980469 " />
      <path style=" stroke:none;fill-rule:nonzero;fill:rgb(30.195618%,30.195618%,30.195618%);fill-opacity:1;" d="M 73.617188 141.59375 C 41.246094 141.59375 15 165.707031 15 195.449219 C 15 258.28125 63.847656 294.183594 73.617188 303.160156 C 83.386719 312.136719 132.238281 303.160156 132.238281 303.160156 L 132.238281 195.449219 C 132.238281 165.707031 105.992188 141.59375 73.617188 141.59375 " />
      <path style=" stroke:none;fill-rule:nonzero;fill:rgb(50.196838%,50.196838%,50.196838%);fill-opacity:1;" d="M 81.382812 139.917969 C 18.382812 178.578125 50.382812 236.027344 95.382812 296.578125 C 95.382812 296.578125 72.382812 312.914062 54.382812 286.96875 C 36.382812 261.015625 9.382812 226.417969 9.382812 200.46875 C 9.382812 174.519531 27.382812 148.566406 45.382812 139.917969 C 63.382812 131.269531 81.382812 139.917969 81.382812 139.917969 " />
      <path style=" stroke:none;fill-rule:nonzero;fill:rgb(0%,0%,0%);fill-opacity:1;" d="M 83.046875 291.894531 C 87.804688 293.359375 102.175781 292.851562 117.238281 290.894531 L 117.238281 195.449219 C 117.238281 173.703125 97.667969 156.011719 73.617188 156.011719 C 49.566406 156.011719 30 173.703125 30 195.449219 C 30 246.304688 66.464844 277.625 80.191406 289.417969 C 81.25 290.328125 82.207031 291.152344 83.046875 291.894531 M 93.074219 321.578125 C 78.425781 321.578125 69.179688 319.027344 63.253906 313.582031 C 62.574219 312.957031 61.472656 312.011719 60.195312 310.917969 C 45.308594 298.125 0 259.207031 0 195.449219 C 0 157.804688 33.027344 127.179688 73.617188 127.179688 C 114.210938 127.179688 147.238281 157.804688 147.238281 195.449219 L 147.238281 315.082031 L 135.054688 317.320312 C 134.523438 317.417969 121.925781 319.714844 107.890625 320.886719 C 102.417969 321.34375 97.5 321.578125 93.074219 321.578125 " />
      <path style=" stroke:none;fill-rule:nonzero;fill:rgb(30.195618%,30.195618%,30.195618%);fill-opacity:1;" d="M 135.765625 137.996094 C 103.390625 137.996094 77.144531 162.105469 77.144531 191.851562 C 77.144531 254.683594 125.992188 290.585938 135.765625 299.5625 C 145.535156 308.535156 194.382812 299.5625 194.382812 299.5625 L 194.382812 191.851562 C 194.382812 162.105469 168.136719 137.996094 135.765625 137.996094 " />
      <path style=" stroke:none;fill-rule:nonzero;fill:rgb(50.196838%,50.196838%,50.196838%);fill-opacity:1;" d="M 152.382812 138.578125 C 116.382812 172.007812 122.382812 232.027344 167.382812 292.578125 C 167.382812 292.578125 149.382812 318.800781 131.382812 292.851562 C 113.382812 266.898438 82.382812 222.527344 82.382812 196.578125 C 82.382812 170.628906 104.382812 154.449219 122.382812 145.800781 C 140.382812 137.152344 152.382812 138.578125 152.382812 138.578125 " />
      <path style=" stroke:none;fill-rule:nonzero;fill:rgb(0%,0%,0%);fill-opacity:1;" d="M 145.195312 288.296875 C 149.960938 289.765625 164.335938 289.261719 179.382812 287.304688 L 179.382812 191.851562 C 179.382812 170.105469 159.816406 152.410156 135.765625 152.410156 C 111.714844 152.410156 92.144531 170.105469 92.144531 191.851562 C 92.144531 242.707031 128.609375 274.03125 142.339844 285.820312 C 143.398438 286.730469 144.351562 287.550781 145.195312 288.296875 M 155.21875 317.980469 C 140.574219 317.980469 131.328125 315.425781 125.398438 309.984375 C 124.722656 309.359375 123.621094 308.414062 122.347656 307.320312 C 107.457031 294.53125 62.144531 255.609375 62.144531 191.851562 C 62.144531 154.207031 95.171875 123.578125 135.765625 123.578125 C 176.355469 123.578125 209.382812 154.207031 209.382812 191.851562 L 209.382812 311.484375 L 197.199219 313.722656 C 196.671875 313.816406 184.074219 316.117188 170.035156 317.289062 C 164.566406 317.746094 159.644531 317.980469 155.21875 317.980469 " />
      <path style=" stroke:none;fill-rule:nonzero;fill:rgb(100%,100%,100%);fill-opacity:1;" d="M 104.382812 305.578125 L 136.234375 374.578125 " />
      <g clip-path="url(#bkclip3)" clip-rule="nonzero">
        <path style="fill:none;stroke-width:30;stroke-linecap:butt;stroke-linejoin:miter;stroke:rgb(0%,0%,0%);stroke-opacity:1;stroke-miterlimit:10;" d="M 0.0000125 0.000875 L 31.851575 -68.999125 " transform="matrix(1,0,0,-1,104.3828,305.579)" />
      </g>
      <path style=" stroke:none;fill-rule:nonzero;fill:rgb(100%,100%,100%);fill-opacity:1;" d="M 178.707031 305.578125 L 210.558594 374.578125 " />
      <g clip-path="url(#bkclip4)" clip-rule="nonzero">
        <path style="fill:none;stroke-width:30;stroke-linecap:butt;stroke-linejoin:miter;stroke:rgb(0%,0%,0%);stroke-opacity:1;stroke-miterlimit:10;" d="M 0.00093125 0.000875 L 31.852494 -68.999125 " transform="matrix(1,0,0,-1,178.7061,305.579)" />
      </g>
      <path style=" stroke:none;fill-rule:nonzero;fill:rgb(100%,100%,100%);fill-opacity:1;" d="M 253.03125 305.578125 L 284.882812 374.578125 " />
      <g clip-path="url(#bkclip5)" clip-rule="nonzero">
        <path style="fill:none;stroke-width:30;stroke-linecap:butt;stroke-linejoin:miter;stroke:rgb(0%,0%,0%);stroke-opacity:1;stroke-miterlimit:10;" d="M 0.00095 0.000875 L 31.852512 -68.999125 " transform="matrix(1,0,0,-1,253.0303,305.579)" />
      </g>
    </g>
  </g>
  <g id="bn" transform="scale(0.09174311926605505 0.09174311926605504)">
    <defs>
      <clipPath id="bnclip1">
        <path d="M 0 0 L 308.039062 0 L 308.039062 395.019531 L 0 395.019531 Z M 0 0 " />
      </clipPath>
    </defs>
    <g id="bnsurface1">
      <path style=" stroke:none;fill-rule:nonzero;fill:rgb(30.195618%,30.195618%,30.195618%);fill-opacity:1;" d="M 39.136719 363.308594 C 66.4375 371.472656 106.089844 380.0625 154.300781 379.574219 C 198.707031 379.121094 235.46875 371.117188 261.574219 363.308594 C 261.113281 361.632812 260.40625 358.789062 259.613281 355.253906 C 256.617188 341.933594 252.199219 313.835938 261.574219 284.179688 C 274.429688 243.515625 307.5 192.917969 285.09375 118.230469 C 261.355469 39.101562 150.6875 15.425781 150.6875 15.425781 L 152.492188 52.472656 L 23.21875 146.183594 C 15.015625 152.128906 13.023438 163.46875 18.613281 171.914062 C 21.265625 175.921875 24.011719 180.453125 26.335938 185.105469 C 28.617188 189.664062 39.371094 206.195312 46.046875 210.496094 C 51.460938 213.988281 58.4375 213.773438 63.675781 210.023438 C 71.632812 204.328125 81.625 191.652344 109.636719 194.363281 C 183.730469 207.011719 202.191406 166.597656 202.191406 166.597656 C 202.191406 166.597656 190.445312 190.722656 142.664062 213.183594 C 92.855469 232.289062 60.324219 264.816406 43.777344 319.871094 C 35.882812 346.128906 39.136719 363.308594 39.136719 363.308594 " />
      <path style=" stroke:none;fill-rule:nonzero;fill:rgb(50.196838%,50.196838%,50.196838%);fill-opacity:1;" d="M 27.363281 179.964844 L 183.453125 94.410156 C 183.453125 94.410156 201.964844 85.15625 192.707031 66.644531 C 188.570312 58.367188 156.941406 22.621094 156.941406 22.621094 L 156.941406 59.644531 L 18.109375 161.453125 Z M 27.363281 179.964844 " />
      <path style=" stroke:none;fill-rule:nonzero;fill:rgb(50.196838%,50.196838%,50.196838%);fill-opacity:1;" d="M 215.558594 173.796875 C 183.679688 227.269531 145.457031 255.199219 123.859375 279.878906 C 105.828125 300.488281 92.832031 349.3125 93.859375 369.878906 C 94.480469 382.246094 42.789062 359.933594 42.789062 359.933594 L 56.160156 296.171875 L 83.925781 243.726562 L 129.175781 210.816406 Z M 215.558594 173.796875 " />
      <g clip-path="url(#bnclip1)" clip-rule="nonzero">
        <path style=" stroke:none;fill-rule:nonzero;fill:rgb(0%,0%,0%);fill-opacity:1;" d="M 53.941406 351.472656 C 86.640625 360.230469 120.285156 364.507812 154.144531 364.148438 C 184.226562 363.84375 214.144531 359.890625 243.28125 352.390625 C 239.757812 333.425781 238.167969 307.046875 246.867188 279.53125 C 249.605469 270.867188 253.089844 262.074219 256.78125 252.765625 C 270.804688 217.375 286.699219 177.265625 270.320312 122.664062 C 255.230469 72.367188 197.871094 46.65625 167.148438 36.246094 L 167.902344 51.71875 C 168.15625 56.925781 165.765625 61.90625 161.546875 64.960938 L 32.269531 158.671875 C 30.785156 159.75 30.433594 161.828125 31.476562 163.398438 C 34.878906 168.535156 37.789062 173.519531 40.132812 178.210938 C 42.210938 182.367188 50.882812 194.886719 54.429688 197.546875 C 54.511719 197.578125 54.625 197.53125 54.699219 197.480469 C 55.496094 196.90625 56.519531 196.074219 57.699219 195.109375 C 65.84375 188.464844 80.996094 176.097656 111.121094 179.007812 C 111.492188 179.042969 111.863281 179.09375 112.230469 179.15625 C 157.992188 186.96875 177.792969 172.445312 184.921875 164.515625 C 187.410156 161.46875 188.417969 159.644531 188.453125 159.582031 C 188.359375 159.753906 188.320312 159.84375 188.320312 159.84375 L 195.164062 159.105469 C 204.609375 158.082031 213.449219 163.917969 216.222656 173.003906 C 216.191406 173.070312 216.136719 173.1875 216.058594 173.347656 C 215.972656 173.527344 215.839844 173.789062 215.65625 174.132812 C 215.117188 175.152344 214.191406 176.765625 212.804688 178.765625 C 206.242188 188.363281 188.785156 208.546875 149.226562 227.144531 C 148.886719 227.304688 148.539062 227.453125 148.1875 227.585938 C 100.84375 245.742188 73.199219 275.574219 58.546875 324.3125 C 55.117188 335.734375 54.113281 345.113281 53.941406 351.472656 M 150.347656 395.019531 C 111.191406 395.019531 72.316406 389.328125 34.71875 378.089844 C 29.195312 376.4375 25.050781 371.84375 23.980469 366.179688 C 23.574219 364.042969 20.277344 344.457031 29.003906 315.433594 C 43.652344 266.710938 70.257812 232.753906 111.828125 210.328125 C 110.441406 210.125 109.046875 209.90625 107.628906 209.667969 C 90.535156 208.132812 83.757812 213.664062 77.207031 219.011719 C 75.753906 220.199219 74.246094 221.425781 72.65625 222.566406 C 62.191406 230.058594 48.460938 230.410156 37.6875 223.460938 C 26.375 216.167969 14.011719 194.953125 12.539062 192.003906 C 10.75 188.425781 8.464844 184.53125 5.75 180.429688 C -4.441406 165.035156 -0.746094 144.503906 14.164062 133.695312 L 136.679688 44.882812 L 135.277344 16.175781 C 135.046875 11.390625 137.046875 6.769531 140.695312 3.671875 C 144.347656 0.566406 149.234375 -0.660156 153.914062 0.339844 C 158.796875 1.382812 273.808594 26.925781 299.871094 113.796875 C 319.328125 178.664062 299.753906 228.0625 285.460938 264.128906 C 281.980469 272.914062 278.691406 281.210938 276.285156 288.832031 C 268.257812 314.222656 271.820312 339.230469 274.664062 351.875 C 275.625 356.164062 276.273438 358.574219 276.449219 359.210938 C 278.675781 367.300781 274.035156 375.6875 265.996094 378.089844 C 229.753906 388.925781 192.226562 394.617188 154.457031 395 C 153.089844 395.011719 151.714844 395.019531 150.347656 395.019531 " />
      </g>
      <path style="fill-rule:nonzero;fill:rgb(100%,100%,100%);fill-opacity:1;stroke-width:30;stroke-linecap:round;stroke-linejoin:round;stroke:rgb(0%,0%,0%);stroke-opacity:1;stroke-miterlimit:10;" d="M -0.00119375 0.001475 C 23.662869 -7.1079 58.178494 -14.611806 100.166775 -14.057119 C 137.924588 -13.561025 169.21365 -6.709463 191.549588 0.001475 " transform="matrix(1,0,0,-1,55.0051,312.0796)" />
      <path style=" stroke:none;fill-rule:nonzero;fill:rgb(0%,0%,0%);fill-opacity:1;" d="M 169.683594 113.578125 C 169.683594 121.953125 162.894531 128.742188 154.519531 128.742188 C 146.144531 128.742188 139.355469 121.953125 139.355469 113.578125 C 139.355469 105.203125 146.144531 98.417969 154.519531 98.417969 C 162.894531 98.417969 169.683594 105.203125 169.683594 113.578125 " />
    </g>
  </g>
  <g id="bp" transform="scale(0.08971768088766673 0.08971768088766673)">
    <defs>
      <clipPath id="bpclip1">
        <path d="M 0 0 L 255.84375 0 L 255.84375 376.460938 L 0 376.460938 Z M 0 0 " />
      </clipPath>
    </defs>
    <g id="bpsurface1">
      <path style=" stroke:none;fill-rule:nonzero;fill:rgb(30.195618%,30.195618%,30.195618%);fill-opacity:1;" d="M 239.523438 340.414062 C 239.523438 250.117188 165.070312 220.546875 173.609375 164.167969 C 195.230469 149.144531 209.210938 123.890625 208.496094 95.402344 C 207.417969 52.394531 172.324219 17.355469 129.316406 16.34375 C 83.59375 15.265625 46.195312 52.007812 46.195312 97.484375 C 46.195312 125.09375 59.992188 149.46875 81.058594 164.132812 C 90.621094 220.546875 16.320312 250.484375 16.320312 340.414062 C 49.273438 350.292969 70.652344 360.140625 128.484375 360.140625 C 186.316406 360.140625 206.570312 350.292969 239.523438 340.414062 " />
      <path style=" stroke:none;fill-rule:nonzero;fill:rgb(50.196838%,50.196838%,50.196838%);fill-opacity:1;" d="M 126 30.414062 C 126 30.414062 101.085938 56.332031 100 94.414062 C 98.910156 132.496094 114 154.972656 114 160.414062 C 114 165.855469 114.441406 188.828125 109 208.414062 C 103.558594 228 73 297.414062 75 344.414062 C 76.394531 377.175781 19.425781 334.027344 19.425781 334.027344 L 27.039062 277.449219 L 83.617188 194.757812 L 79.265625 159.941406 L 45.535156 107.714844 L 65.121094 45.695312 Z M 126 30.414062 " />
      <g clip-path="url(#bpclip1)" clip-rule="nonzero">
        <path style=" stroke:none;fill-rule:nonzero;fill:rgb(0%,0%,0%);fill-opacity:1;" d="M 239.523438 340.414062 L 239.53125 340.414062 Z M 33.136719 328.53125 C 33.757812 328.726562 34.375 328.925781 34.992188 329.117188 C 61.007812 337.332031 81.558594 343.820312 128.484375 343.820312 C 174.789062 343.820312 194.710938 337.472656 219.929688 329.433594 C 220.851562 329.140625 221.777344 328.84375 222.710938 328.546875 C 219.652344 292.101562 202.753906 267.496094 186.359375 243.628906 C 169.726562 219.414062 152.527344 194.371094 157.472656 161.722656 C 158.144531 157.289062 160.613281 153.324219 164.296875 150.765625 C 182.304688 138.25 192.730469 117.707031 192.179688 95.8125 C 191.328125 61.789062 162.957031 33.460938 128.933594 32.660156 C 111.28125 32.21875 94.648438 38.789062 82.054688 51.09375 C 69.453125 63.398438 62.515625 79.875 62.515625 97.484375 C 62.515625 118.683594 72.929688 138.59375 90.378906 150.734375 C 93.976562 153.238281 96.417969 157.085938 97.148438 161.402344 C 102.734375 194.359375 85.550781 219.703125 68.929688 244.210938 C 52.804688 267.996094 36.179688 292.511719 33.136719 328.53125 M 128.484375 376.460938 C 76.527344 376.460938 51.578125 368.585938 25.164062 360.246094 C 20.804688 358.867188 16.300781 357.445312 11.632812 356.046875 C 4.730469 353.976562 0 347.621094 0 340.414062 C 0 287.707031 23.242188 253.433594 41.914062 225.894531 C 56.996094 203.648438 66.105469 189.292969 65.578125 172.871094 C 43.089844 154.425781 29.875 126.78125 29.875 97.484375 C 29.875 71.011719 40.304688 46.242188 59.246094 27.742188 C 78.179688 9.246094 103.195312 -0.582031 129.699219 0.0273438 C 154.710938 0.613281 178.3125 10.753906 196.160156 28.574219 C 214.007812 46.398438 224.183594 69.984375 224.8125 94.992188 C 225.570312 125.234375 212.40625 153.753906 189.269531 172.769531 C 189.214844 190.128906 199.992188 205.820312 213.265625 225.148438 C 232.234375 252.769531 255.84375 287.136719 255.84375 340.414062 C 255.84375 347.621094 251.113281 353.976562 244.210938 356.046875 C 239.222656 357.542969 234.453125 359.0625 229.84375 360.53125 C 204.140625 368.726562 179.863281 376.460938 128.484375 376.460938 " />
      </g>
    </g>
  </g>
  <g id="bq" transform="scale(0.0851063829787234 0.0851063829787234)">
    <g id="bqsurface1">
      <path style=" stroke:none;fill-rule:nonzero;fill:rgb(30.195618%,30.195618%,30.195618%);fill-opacity:1;" d="M 319.324219 393 L 88.675781 393 C 93.175781 387.421875 106.421875 369.527344 106.421875 343.5 C 106.421875 336.527344 105.46875 314.820312 88.675781 294 L 319.324219 294 C 314.824219 299.578125 301.582031 317.472656 301.582031 343.5 C 301.582031 350.472656 302.53125 372.179688 319.324219 393 " />
      <path style=" stroke:none;fill-rule:nonzero;fill:rgb(50.196838%,50.196838%,50.196838%);fill-opacity:1;" d="M 140 393 C 143.5625 382.71875 151.433594 367.226562 152 348 C 152.699219 324.203125 143.898438 306.277344 140 295 C 129.320312 295 112.746094 294 102.066406 294 L 117.628906 348 L 92.914062 393 Z M 140 393 " />
      <path style=" stroke:none;fill-rule:nonzero;fill:rgb(0%,0%,0%);fill-opacity:1;" d="M 113.503906 378 L 294.484375 378 C 288.960938 363.984375 287.851562 351.363281 287.851562 343.5 C 287.851562 330.179688 290.679688 318.585938 294.496094 309 L 113.515625 309 C 119.039062 323.015625 120.148438 335.636719 120.148438 343.5 C 120.148438 356.820312 117.320312 368.414062 113.503906 378 M 319.320312 408 L 88.679688 408 C 83.28125 408 78.386719 404.546875 76.167969 399.175781 C 73.945312 393.800781 74.8125 387.507812 78.378906 383.082031 C 83.722656 376.453125 92.691406 362.496094 92.691406 343.5 C 92.691406 335.347656 90.832031 319.359375 78.375 303.914062 C 74.8125 299.492188 73.945312 293.195312 76.167969 287.824219 C 78.386719 282.453125 83.28125 279 88.679688 279 L 319.320312 279 C 324.71875 279 329.613281 282.453125 331.832031 287.824219 C 334.054688 293.199219 333.191406 299.492188 329.621094 303.917969 C 324.277344 310.546875 315.308594 324.503906 315.308594 343.5 C 315.308594 351.652344 317.167969 367.640625 329.621094 383.085938 C 333.191406 387.507812 334.054688 393.804688 331.832031 399.175781 C 329.613281 404.546875 324.71875 408 319.320312 408 " />
      <path style=" stroke:none;fill-rule:nonzero;fill:rgb(30.195618%,30.195618%,30.195618%);fill-opacity:1;" d="M 91.101562 254.300781 L 55.730469 127.332031 C 58.96875 129.28125 106.164062 196.375 129.863281 181.5 C 148.714844 169.667969 144.792969 97.320312 146.339844 69 C 154.636719 95.242188 182.425781 162.75 204 162.75 C 225.574219 162.75 253.363281 95.242188 261.660156 69 C 262.183594 72.230469 253.832031 166.15625 286.371094 181.5 C 304.957031 190.265625 346.253906 129.988281 352.273438 127.332031 C 346.105469 162.539062 323.464844 211.136719 317.300781 254.128906 C 314.019531 277.011719 294.652344 294 271.792969 294 L 136.582031 294 C 113.792969 294 94.441406 277.109375 91.101562 254.300781 " />
      <path style=" stroke:none;fill-rule:nonzero;fill:rgb(50.196838%,50.196838%,50.196838%);fill-opacity:1;" d="M 86.828125 159 C 153 192 93 279 230 279 L 129.972656 294 C 118.78125 283.53125 95.90625 259.226562 86.828125 222 C 80.238281 194.984375 83.628906 172.277344 86.828125 159 " />
      <path style=" stroke:none;fill-rule:nonzero;fill:rgb(0%,0%,0%);fill-opacity:1;" d="M 203.703125 147.773438 Z M 204.296875 147.773438 Z M 122.902344 168.582031 Z M 84.824219 180.261719 L 104.234375 249.933594 C 104.417969 250.589844 104.558594 251.257812 104.65625 251.933594 C 106.917969 267.363281 120.644531 279 136.582031 279 L 271.796875 279 C 287.78125 279 301.515625 267.308594 303.738281 251.808594 C 307.132812 228.152344 314.886719 203.921875 322.640625 180.378906 C 307.742188 194.117188 293.871094 201.375 280.933594 195.269531 C 264.292969 187.425781 253.726562 166.667969 249.515625 133.5625 C 233.488281 163.707031 219.019531 177.75 204 177.75 C 188.921875 177.75 174.40625 163.601562 158.308594 133.230469 C 158.277344 133.167969 158.242188 133.101562 158.210938 133.039062 C 156.144531 163.214844 150.90625 185.59375 136.703125 194.507812 C 132.097656 197.394531 127.265625 198.667969 122.320312 198.667969 C 109.929688 198.667969 96.832031 190.683594 84.824219 180.261719 M 271.796875 309 L 136.582031 309 C 122.457031 309 108.75 303.824219 97.980469 294.421875 C 87.230469 285.042969 80.0625 272.058594 77.714844 257.761719 L 42.597656 131.703125 C 40.96875 125.863281 42.742188 119.53125 47.082031 115.683594 C 51.417969 111.835938 57.457031 111.25 62.347656 114.191406 C 64.976562 115.769531 66.46875 117.597656 71.417969 123.648438 C 77.84375 131.503906 89.808594 146.128906 101.933594 156.75 C 115.402344 168.546875 121.777344 169.0625 122.949219 168.535156 C 123.4375 168.027344 127.523438 163.175781 129.925781 141.46875 C 131.703125 125.375 131.929688 106.113281 132.109375 90.632812 C 132.214844 81.820312 132.300781 74.207031 132.636719 68.105469 C 133.023438 60.960938 137.980469 55.113281 144.472656 54.140625 C 150.957031 53.167969 157.175781 57.335938 159.316406 64.101562 C 163.410156 77.054688 171.667969 98.105469 180.882812 115.925781 C 193.089844 139.535156 201.402344 146.683594 204 147.679688 C 206.597656 146.683594 214.910156 139.535156 227.117188 115.925781 C 236.332031 98.105469 244.589844 77.054688 248.683594 64.101562 C 250.726562 57.640625 256.511719 53.515625 262.746094 54.046875 C 268.980469 54.585938 274.097656 59.667969 275.183594 66.398438 C 275.507812 68.40625 275.449219 69.847656 275.261719 74.621094 C 272.359375 148.035156 285.558594 163.878906 290.953125 167.253906 C 292.488281 166.824219 297.296875 164.816406 307.039062 155.488281 C 315.347656 147.535156 323.703125 137.699219 330.417969 129.792969 C 339.308594 119.324219 342.632812 115.410156 347.128906 113.425781 C 351.789062 111.367188 357.105469 112.257812 360.988281 115.746094 C 364.871094 119.230469 366.699219 124.757812 365.753906 130.152344 C 362.765625 147.21875 356.457031 166.34375 349.777344 186.59375 C 342.042969 210.046875 334.042969 234.300781 330.863281 256.449219 C 328.746094 271.222656 321.507812 284.679688 310.480469 294.347656 C 299.695312 303.796875 285.960938 309 271.796875 309 " />
      <path style=" stroke:none;fill-rule:nonzero;fill:rgb(50.196838%,50.196838%,50.196838%);fill-opacity:1;" d="M 168 42 C 168 56.910156 155.910156 69 141 69 C 126.089844 69 114 56.910156 114 42 C 114 27.089844 126.089844 15 141 15 C 155.910156 15 168 27.089844 168 42 " />
      <path style="fill:none;stroke-width:30;stroke-linecap:butt;stroke-linejoin:round;stroke:rgb(0%,0%,0%);stroke-opacity:1;stroke-miterlimit:10;" d="M 0 0 C 0 -14.910156 -12.089844 -27 -27 -27 C -41.910156 -27 -54 -14.910156 -54 0 C -54 14.910156 -41.910156 27 -27 27 C -12.089844 27 0 14.910156 0 0 Z M 0 0 " transform="matrix(1,0,0,-1,168,42)" />
      <path style=" stroke:none;fill-rule:nonzero;fill:rgb(50.196838%,50.196838%,50.196838%);fill-opacity:1;" d="M 294 42 C 294 56.910156 281.910156 69 267 69 C 252.089844 69 240 56.910156 240 42 C 240 27.089844 252.089844 15 267 15 C 281.910156 15 294 27.089844 294 42 " />
      <path style="fill:none;stroke-width:30;stroke-linecap:butt;stroke-linejoin:round;stroke:rgb(0%,0%,0%);stroke-opacity:1;stroke-miterlimit:10;" d="M 0 0 C 0 -14.910156 -12.089844 -27 -27 -27 C -41.910156 -27 -54 -14.910156 -54 0 C -54 14.910156 -41.910156 27 -27 27 C -12.089844 27 0 14.910156 0 0 Z M 0 0 " transform="matrix(1,0,0,-1,294,42)" />
      <path style=" stroke:none;fill-rule:nonzero;fill:rgb(50.196838%,50.196838%,50.196838%);fill-opacity:1;" d="M 393 96 C 393 110.910156 380.910156 123 366 123 C 351.089844 123 339 110.910156 339 96 C 339 81.089844 351.089844 69 366 69 C 380.910156 69 393 81.089844 393 96 " />
      <path style="fill:none;stroke-width:30;stroke-linecap:butt;stroke-linejoin:round;stroke:rgb(0%,0%,0%);stroke-opacity:1;stroke-miterlimit:10;" d="M 0 0 C 0 -14.910156 -12.089844 -27 -27 -27 C -41.910156 -27 -54 -14.910156 -54 0 C -54 14.910156 -41.910156 27 -27 27 C -12.089844 27 0 14.910156 0 0 Z M 0 0 " transform="matrix(1,0,0,-1,393,96)" />
      <path style=" stroke:none;fill-rule:nonzero;fill:rgb(50.196838%,50.196838%,50.196838%);fill-opacity:1;" d="M 69 96 C 69 110.910156 56.910156 123 42 123 C 27.089844 123 15 110.910156 15 96 C 15 81.089844 27.089844 69 42 69 C 56.910156 69 69 81.089844 69 96 " />
      <path style="fill:none;stroke-width:30;stroke-linecap:butt;stroke-linejoin:round;stroke:rgb(0%,0%,0%);stroke-opacity:1;stroke-miterlimit:10;" d="M 0 0 C 0 -14.910156 -12.089844 -27 -27 -27 C -41.910156 -27 -54 -14.910156 -54 0 C -54 14.910156 -41.910156 27 -27 27 C -12.089844 27 0 14.910156 0 0 Z M 0 0 " transform="matrix(1,0,0,-1,69,96)" />
      <path style="fill:none;stroke-width:30;stroke-linecap:butt;stroke-linejoin:round;stroke:rgb(0%,0%,0%);stroke-opacity:1;stroke-miterlimit:10;" d="M 0.00004375 0 L 197.695356 0 " transform="matrix(1,0,0,-1,105.1523,348)" />
    </g>
  </g>
  <g id="br" transform="scale(0.09174311926605505 0.09174311926605504)">
    <defs>
      <clipPath id="brclip1">
        <path d="M 0 0 L 296.832031 0 L 296.832031 373 L 0 373 Z M 0 0 " />
      </clipPath>
    </defs>
    <g id="brsurface1">
      <path style=" stroke:none;fill-rule:nonzero;fill:rgb(30.195618%,30.195618%,30.195618%);fill-opacity:1;" d="M 49.320312 182.347656 C 49.804688 113.917969 5.804688 57.183594 18.757812 16.238281 L 278.078125 16.238281 C 291.03125 57.183594 247.03125 113.917969 247.515625 182.347656 C 248.023438 254.550781 291.425781 314.5625 278.078125 356.765625 L 18.757812 356.765625 C 5.40625 314.5625 48.808594 254.550781 49.320312 182.347656 " />
      <path style=" stroke:none;fill-rule:nonzero;fill:rgb(50.196838%,50.196838%,50.196838%);fill-opacity:1;" d="M 92.859375 18 C 83.117188 73.203125 98.859375 143.324219 98.859375 191 C 98.859375 237.542969 80.613281 292.054688 83.859375 357 L 23.519531 356.765625 L 42.859375 191 L 23.519531 15.804688 Z M 92.859375 18 " />
      <g clip-path="url(#brclip1)" clip-rule="nonzero">
        <path style=" stroke:none;fill-rule:nonzero;fill:rgb(0%,0%,0%);fill-opacity:1;" d="M 251.265625 281.757812 C 242.019531 252.527344 231.539062 219.402344 231.277344 182.464844 C 231.023438 146.65625 241.722656 114.730469 251.160156 86.5625 C 258.113281 65.804688 264.324219 47.269531 264.226562 32.472656 L 32.605469 32.472656 C 32.507812 47.269531 38.71875 65.804688 45.671875 86.5625 C 55.109375 114.730469 65.808594 146.65625 65.554688 182.464844 C 65.292969 219.402344 54.8125 252.53125 45.566406 281.757812 C 38.40625 304.402344 32.019531 324.585938 32.464844 340.527344 L 264.371094 340.527344 C 264.8125 324.585938 258.429688 304.402344 251.265625 281.757812 M 3.277344 361.660156 C -5.246094 334.722656 4.398438 304.238281 14.605469 271.964844 C 23.160156 244.925781 32.855469 214.277344 33.082031 182.234375 C 33.300781 151.839844 23.9375 123.898438 14.882812 96.878906 C 4.65625 66.355469 -5.007812 37.523438 3.277344 11.339844 C 5.410156 4.589844 11.675781 0 18.757812 0 L 278.078125 0 C 285.15625 0 291.421875 4.589844 293.558594 11.339844 C 301.839844 37.523438 292.179688 66.355469 281.949219 96.878906 C 272.894531 123.898438 263.535156 151.839844 263.75 182.234375 C 263.976562 214.277344 273.671875 244.921875 282.226562 271.964844 C 292.4375 304.234375 302.078125 334.722656 293.558594 361.660156 C 291.421875 368.410156 285.15625 373 278.078125 373 L 18.757812 373 C 11.675781 373 5.410156 368.410156 3.277344 361.660156 " />
      </g>
      <path style="fill:none;stroke-width:30;stroke-linecap:butt;stroke-linejoin:round;stroke:rgb(0%,0%,0%);stroke-opacity:1;stroke-miterlimit:10;" d="M -0.00136875 -0.00096875 L -0.00136875 -58.137687 " transform="matrix(1,0,0,-1,98.5834,24.542)" />
      <path style="fill:none;stroke-width:30;stroke-linecap:butt;stroke-linejoin:round;stroke:rgb(0%,0%,0%);stroke-opacity:1;stroke-miterlimit:10;" d="M -0.0004 -0.00096875 L -0.0004 -58.137687 " transform="matrix(1,0,0,-1,198.2504,24.542)" />
      <path style="fill:none;stroke-width:30;stroke-linecap:butt;stroke-linejoin:round;stroke:rgb(0%,0%,0%);stroke-opacity:1;stroke-miterlimit:10;" d="M -0.00135 -0.0019375 L 250.143181 -0.0019375 " transform="matrix(1,0,0,-1,23.3451,298.2715)" />
      <path style="fill:none;stroke-width:30;stroke-linecap:butt;stroke-linejoin:round;stroke:rgb(0%,0%,0%);stroke-opacity:1;stroke-miterlimit:10;" d="M 0.0006125 -0.0010125 L 215.945925 -0.0010125 " transform="matrix(1,0,0,-1,40.4447,140.8193)" />
    </g>
  </g>
  <g id="wb" transform="scale(0.0831054857931172 0.0831054857931172)">
    <defs>
      <clipPath id="wbclip1">
        <path d="M 0 70 L 291.316406 70 L 291.316406 431.652344 L 0 431.652344 Z M 0 70 " />
      </clipPath>
    </defs>
    <g id="wbsurface1">
      <path style=" stroke:none;fill-rule:nonzero;fill:rgb(100%,100%,100%);fill-opacity:1;" d="M 180.359375 49.832031 C 180.359375 69.070312 164.765625 84.664062 145.527344 84.664062 C 126.289062 84.664062 110.695312 69.070312 110.695312 49.832031 C 110.695312 30.59375 126.289062 15 145.527344 15 C 164.765625 15 180.359375 30.59375 180.359375 49.832031 " />
      <path style="fill:none;stroke-width:30;stroke-linecap:butt;stroke-linejoin:round;stroke:rgb(0%,0%,0%);stroke-opacity:1;stroke-miterlimit:10;" d="M -0.000825 0.00066875 C -0.000825 -19.237612 -15.594575 -34.831362 -34.832856 -34.831362 C -54.071138 -34.831362 -69.664888 -19.237612 -69.664888 0.00066875 C -69.664888 19.23895 -54.071138 34.8327 -34.832856 34.8327 C -15.594575 34.8327 -0.000825 19.23895 -0.000825 0.00066875 Z M -0.000825 0.00066875 " transform="matrix(1,0,0,-1,180.3602,49.8327)" />
      <path style=" stroke:none;fill-rule:nonzero;fill:rgb(80.000305%,80.000305%,80.000305%);fill-opacity:1;" d="M 248.148438 169.859375 C 191.621094 185.222656 153.882812 281.285156 153.882812 281.285156 C 153.882812 281.285156 158.558594 194.765625 198.730469 121.183594 C 170.835938 98.917969 146.109375 85.140625 146.109375 85.140625 C 146.109375 85.140625 14.097656 157.269531 15.003906 239.835938 C 15.914062 322.402344 81.238281 386.820312 73.074219 404.0625 C 64.90625 421.300781 227.316406 420.394531 219.148438 404.0625 C 210.984375 387.730469 275.402344 321.496094 276.3125 239.835938 C 276.585938 215.125 264.761719 191.207031 248.148438 169.859375 " />
      <path style=" stroke:none;fill-rule:nonzero;fill:rgb(100%,100%,100%);fill-opacity:1;" d="M 150.316406 91.773438 C 99.816406 178.773438 87.816406 217.773438 87.816406 244.773438 C 87.816406 301.695312 138.816406 392.773438 114.316406 406.773438 L 78.316406 406.773438 L 33.316406 316.773438 L 15.316406 253.773438 L 24.316406 199.773438 L 60.316406 154.773438 Z M 150.316406 91.773438 " />
      <g clip-path="url(#wbclip1)" clip-rule="nonzero">
        <path style=" stroke:none;fill-rule:nonzero;fill:rgb(0%,0%,0%);fill-opacity:1;" d="M 88.683594 397.546875 C 98.078125 399.609375 117.390625 401.652344 144.464844 401.652344 C 145.039062 401.652344 145.613281 401.652344 146.191406 401.652344 C 174.054688 401.5625 193.957031 399.398438 203.597656 397.277344 C 204.878906 386.949219 211.6875 374.679688 221.015625 357.875 C 237.800781 327.625 260.796875 286.195312 261.3125 239.667969 C 261.492188 223.597656 255.25 206.214844 242.746094 187.882812 C 206.597656 205.46875 176.847656 263.9375 167.839844 286.78125 C 165.140625 293.625 157.867188 297.511719 150.6875 295.9375 C 143.496094 294.367188 138.507812 287.824219 138.902344 280.476562 C 139.089844 276.988281 143.742188 198.164062 179.652344 125.386719 C 165.730469 114.941406 153.421875 107.042969 146.046875 102.527344 C 134.773438 109.316406 112.015625 123.863281 89.625 143.21875 C 62.203125 166.929688 29.597656 202.910156 30.003906 239.671875 C 30.519531 286.613281 53.785156 327.574219 70.773438 357.484375 C 80.496094 374.601562 87.527344 386.980469 88.683594 397.546875 M 144.574219 431.652344 C 128.140625 431.652344 112.257812 430.902344 99.648438 429.523438 C 77.027344 427.050781 69.535156 423.246094 65.195312 419.847656 C 58.785156 414.832031 56.3125 407.03125 58.640625 399.839844 C 57.511719 394.878906 50.4375 382.425781 44.6875 372.300781 C 27.132812 341.394531 0.605469 294.691406 0.00390625 240 C -0.421875 201.132812 23.269531 160.816406 70.421875 120.164062 C 104.132812 91.105469 137.515625 72.742188 138.917969 71.976562 C 143.4375 69.503906 148.914062 69.527344 153.414062 72.035156 C 154.464844 72.625 179.546875 86.679688 208.089844 109.460938 C 213.78125 114.003906 215.386719 121.980469 211.894531 128.375 C 198.992188 152.007812 189.890625 177.238281 183.5 200.273438 C 202.769531 176.179688 223.117188 161.117188 244.214844 155.382812 C 250.046875 153.796875 256.269531 155.871094 259.988281 160.648438 C 281.054688 187.71875 291.59375 214.417969 291.308594 240.003906 C 290.707031 294.117188 264.554688 341.246094 247.246094 372.433594 C 241.660156 382.5 234.792969 394.867188 233.59375 399.859375 C 235.847656 406.792969 233.570312 414.335938 227.503906 419.296875 C 223.3125 422.71875 215.996094 426.574219 193.464844 429.191406 C 180.375 430.707031 163.753906 431.582031 146.660156 431.648438 C 145.964844 431.652344 145.269531 431.652344 144.574219 431.652344 " />
      </g>
      <path style="fill:none;stroke-width:30;stroke-linecap:round;stroke-linejoin:round;stroke:rgb(0%,0%,0%);stroke-opacity:1;stroke-miterlimit:10;" d="M 0.00020625 0.0006625 C 15.582238 -24.335275 181.500206 -28.839181 198.000206 0.0006625 " transform="matrix(1,0,0,-1,47.3162,344.2741)" />
    </g>
  </g>
  <g id="wk" transform="scale(0.08354812162935546 0.08354812162935547)">
    <defs>
      <clipPath id="wkclip1">
        <path d="M 44 356 L 345 356 L 345 431.578125 L 44 431.578125 Z M 44 356 " />
      </clipPath>
      <clipPath id="wkclip2">
        <path d="M 241 127 L 388.765625 127 L 388.765625 322 L 241 322 Z M 241 127 " />
      </clipPath>
      <clipPath id="wkclip3">
        <path d="M 0 0 L 388.765625 0 L 388.765625 431.578125 L 0 431.578125 Z M 0 0 " />
      </clipPath>
      <clipPath id="wkclip4">
        <path d="M 0 0 L 388.765625 0 L 388.765625 431.578125 L 0 431.578125 Z M 0 0 " />
      </clipPath>
      <clipPath id="wkclip5">
        <path d="M 0 0 L 388.765625 0 L 388.765625 431.578125 L 0 431.578125 Z M 0 0 " />
      </clipPath>
    </defs>
    <g id="wksurface1">
      <path style=" stroke:none;fill-rule:nonzero;fill:rgb(80.000305%,80.000305%,80.000305%);fill-opacity:1;" d="M 319.382812 416.578125 L 69.382812 416.578125 C 63.859375 416.578125 59.382812 412.101562 59.382812 406.578125 L 59.382812 381.578125 C 59.382812 376.058594 63.859375 371.578125 69.382812 371.578125 L 319.382812 371.578125 C 324.90625 371.578125 329.382812 376.058594 329.382812 381.578125 L 329.382812 406.578125 C 329.382812 412.101562 324.90625 416.578125 319.382812 416.578125 " />
      <path style=" stroke:none;fill-rule:nonzero;fill:rgb(100%,100%,100%);fill-opacity:1;" d="M 95.382812 413.578125 L 59.382812 413.578125 L 59.382812 368.578125 L 95.382812 368.578125 Z M 95.382812 413.578125 " />
      <g clip-path="url(#wkclip1)" clip-rule="nonzero">
        <path style=" stroke:none;fill-rule:nonzero;fill:rgb(0%,0%,0%);fill-opacity:1;" d="M 74.382812 401.578125 L 314.382812 401.578125 L 314.382812 386.578125 L 74.382812 386.578125 Z M 319.382812 431.578125 L 69.382812 431.578125 C 55.597656 431.578125 44.382812 420.363281 44.382812 406.578125 L 44.382812 381.578125 C 44.382812 367.792969 55.597656 356.578125 69.382812 356.578125 L 319.382812 356.578125 C 333.167969 356.578125 344.382812 367.792969 344.382812 381.578125 L 344.382812 406.578125 C 344.382812 420.363281 333.167969 431.578125 319.382812 431.578125 " />
      </g>
      <path style=" stroke:none;fill-rule:nonzero;fill:rgb(80.000305%,80.000305%,80.000305%);fill-opacity:1;" d="M 328.382812 371.578125 L 60.382812 371.578125 C 54.859375 371.578125 50.382812 367.101562 50.382812 361.578125 L 50.382812 315.578125 C 50.382812 310.058594 54.859375 305.578125 60.382812 305.578125 L 328.382812 305.578125 C 333.90625 305.578125 338.382812 310.058594 338.382812 315.578125 L 338.382812 361.578125 C 338.382812 367.101562 333.90625 371.578125 328.382812 371.578125 " />
      <path style=" stroke:none;fill-rule:nonzero;fill:rgb(100%,100%,100%);fill-opacity:1;" d="M 88.382812 359.578125 L 53.382812 359.578125 L 53.382812 314.578125 L 88.382812 314.578125 Z M 88.382812 359.578125 " />
      <path style=" stroke:none;fill-rule:nonzero;fill:rgb(0%,0%,0%);fill-opacity:1;" d="M 65.382812 356.578125 L 323.382812 356.578125 L 323.382812 320.578125 L 65.382812 320.578125 Z M 328.382812 386.578125 L 60.382812 386.578125 C 46.597656 386.578125 35.382812 375.363281 35.382812 361.578125 L 35.382812 315.578125 C 35.382812 301.792969 46.597656 290.578125 60.382812 290.578125 L 328.382812 290.578125 C 342.167969 290.578125 353.382812 301.792969 353.382812 315.578125 L 353.382812 361.578125 C 353.382812 375.363281 342.167969 386.578125 328.382812 386.578125 " />
      <path style="fill:none;stroke-width:30;stroke-linecap:round;stroke-linejoin:miter;stroke:rgb(0%,0%,0%);stroke-opacity:1;stroke-miterlimit:10;" d="M 0.0000125 0.001825 L 0.0000125 123.1737 " transform="matrix(1,0,0,-1,194.3828,138.1737)" />
      <path style="fill:none;stroke-width:30;stroke-linecap:round;stroke-linejoin:miter;stroke:rgb(0%,0%,0%);stroke-opacity:1;stroke-miterlimit:10;" d="M 0.0000125 -0.0001 L 72.000012 -0.0001 " transform="matrix(1,0,0,-1,158.3828,50.9999)" />
      <path style=" stroke:none;fill-rule:nonzero;fill:rgb(80.000305%,80.000305%,80.000305%);fill-opacity:1;" d="M 207.375 97.875 L 183.222656 97.875 C 178.054688 97.875 173.386719 100.945312 171.335938 105.683594 L 156.351562 140.308594 C 154.933594 143.589844 154.933594 147.3125 156.351562 150.59375 L 171.335938 185.21875 C 173.386719 189.957031 178.054688 193.023438 183.222656 193.023438 L 207.375 193.023438 C 212.539062 193.023438 217.210938 189.957031 219.261719 185.21875 L 234.242188 150.59375 C 235.660156 147.3125 235.660156 143.589844 234.242188 140.308594 L 219.261719 105.683594 C 217.210938 100.945312 212.539062 97.875 207.375 97.875 " />
      <path style=" stroke:none;fill-rule:nonzero;fill:rgb(0%,0%,0%);fill-opacity:1;" d="M 184.566406 178.023438 L 206.03125 178.023438 L 220.125 145.449219 L 206.03125 112.875 L 184.566406 112.875 L 170.46875 145.449219 Z M 207.375 208.023438 L 183.21875 208.023438 C 172.066406 208.023438 161.996094 201.410156 157.566406 191.171875 L 142.585938 156.550781 C 139.535156 149.5 139.535156 141.40625 142.585938 134.351562 L 157.566406 99.726562 C 161.996094 89.492188 172.066406 82.875 183.21875 82.875 L 207.375 82.875 C 218.53125 82.875 228.597656 89.492188 233.027344 99.726562 L 248.007812 134.351562 C 251.058594 141.40625 251.058594 149.5 248.007812 156.550781 L 233.027344 191.171875 C 228.597656 201.410156 218.53125 208.023438 207.375 208.023438 " />
      <path style=" stroke:none;fill-rule:nonzero;fill:rgb(80.000305%,80.000305%,80.000305%);fill-opacity:1;" d="M 315.148438 141.59375 C 347.523438 141.59375 373.765625 165.707031 373.765625 195.449219 C 373.765625 258.28125 324.917969 294.183594 315.148438 303.160156 C 305.378906 312.136719 256.527344 303.160156 256.527344 303.160156 L 256.527344 195.449219 C 256.527344 165.707031 282.773438 141.59375 315.148438 141.59375 " />
      <path style=" stroke:none;fill-rule:nonzero;fill:rgb(100%,100%,100%);fill-opacity:1;" d="M 371.382812 148.578125 C 344.382812 192.578125 300.382812 143.578125 282.382812 292.578125 C 282.382812 292.578125 293.382812 319.527344 275.382812 293.578125 C 257.382812 267.628906 277.382812 219.527344 277.382812 193.578125 C 277.382812 167.628906 299.382812 151.449219 317.382812 142.800781 C 335.382812 134.152344 371.382812 148.578125 371.382812 148.578125 " />
      <g clip-path="url(#wkclip2)" clip-rule="nonzero">
        <path style=" stroke:none;fill-rule:nonzero;fill:rgb(0%,0%,0%);fill-opacity:1;" d="M 271.527344 290.894531 C 286.589844 292.851562 300.960938 293.359375 305.71875 291.894531 C 306.558594 291.152344 307.515625 290.328125 308.578125 289.417969 C 322.300781 277.625 358.765625 246.304688 358.765625 195.449219 C 358.765625 173.703125 339.199219 156.011719 315.148438 156.011719 C 291.09375 156.011719 271.527344 173.703125 271.527344 195.449219 Z M 295.691406 321.578125 C 291.265625 321.578125 286.347656 321.34375 280.875 320.886719 C 266.839844 319.714844 254.242188 317.417969 253.710938 317.320312 L 241.527344 315.082031 L 241.527344 195.449219 C 241.527344 157.804688 274.554688 127.179688 315.148438 127.179688 C 355.742188 127.179688 388.765625 157.804688 388.765625 195.449219 C 388.765625 259.207031 343.457031 298.125 328.566406 310.917969 C 327.292969 312.011719 326.191406 312.957031 325.511719 313.582031 C 319.585938 319.027344 310.335938 321.578125 295.691406 321.578125 " />
      </g>
      <path style=" stroke:none;fill-rule:nonzero;fill:rgb(80.000305%,80.000305%,80.000305%);fill-opacity:1;" d="M 253 137.996094 C 285.375 137.996094 311.621094 162.105469 311.621094 191.851562 C 311.621094 254.683594 262.773438 290.585938 253 299.5625 C 243.230469 308.535156 194.382812 299.5625 194.382812 299.5625 L 194.382812 191.851562 C 194.382812 162.105469 220.628906 137.996094 253 137.996094 " />
      <path style=" stroke:none;fill-rule:nonzero;fill:rgb(100%,100%,100%);fill-opacity:1;" d="M 289.382812 148.578125 C 250.382812 170.578125 233.382812 149.578125 228.382812 302.578125 C 228.382812 302.578125 220.382812 317.527344 202.382812 291.578125 C 184.382812 265.628906 195.382812 219.527344 195.382812 193.578125 C 195.382812 167.628906 217.382812 151.449219 235.382812 142.800781 C 253.382812 134.152344 289.382812 148.578125 289.382812 148.578125 " />
      <path style=" stroke:none;fill-rule:nonzero;fill:rgb(0%,0%,0%);fill-opacity:1;" d="M 209.382812 287.296875 C 224.441406 289.253906 238.816406 289.761719 243.570312 288.296875 C 244.414062 287.550781 245.367188 286.730469 246.429688 285.820312 C 260.15625 274.03125 296.621094 242.707031 296.621094 191.851562 C 296.621094 170.105469 277.054688 152.410156 253 152.410156 C 228.949219 152.410156 209.382812 170.105469 209.382812 191.851562 Z M 233.546875 317.980469 C 229.117188 317.980469 224.199219 317.746094 218.730469 317.289062 C 204.695312 316.117188 192.097656 313.816406 191.566406 313.722656 L 179.382812 311.484375 L 179.382812 191.851562 C 179.382812 154.207031 212.40625 123.578125 253 123.578125 C 293.59375 123.578125 326.621094 154.207031 326.621094 191.851562 C 326.621094 255.609375 281.308594 294.53125 266.417969 307.320312 C 265.144531 308.414062 264.042969 309.359375 263.363281 309.984375 C 257.441406 315.425781 248.191406 317.980469 233.546875 317.980469 " />
      <path style=" stroke:none;fill-rule:nonzero;fill:rgb(80.000305%,80.000305%,80.000305%);fill-opacity:1;" d="M 73.617188 141.59375 C 41.246094 141.59375 15 165.707031 15 195.449219 C 15 258.28125 63.847656 294.183594 73.617188 303.160156 C 83.386719 312.136719 132.238281 303.160156 132.238281 303.160156 L 132.238281 195.449219 C 132.238281 165.707031 105.992188 141.59375 73.617188 141.59375 " />
      <path style=" stroke:none;fill-rule:nonzero;fill:rgb(100%,100%,100%);fill-opacity:1;" d="M 81.382812 139.917969 C 18.382812 178.578125 50.382812 236.027344 95.382812 296.578125 C 95.382812 296.578125 72.382812 312.914062 54.382812 286.96875 C 36.382812 261.015625 9.382812 226.417969 9.382812 200.46875 C 9.382812 174.519531 27.382812 148.566406 45.382812 139.917969 C 63.382812 131.269531 81.382812 139.917969 81.382812 139.917969 " />
      <path style=" stroke:none;fill-rule:nonzero;fill:rgb(0%,0%,0%);fill-opacity:1;" d="M 83.046875 291.894531 C 87.804688 293.359375 102.175781 292.851562 117.238281 290.894531 L 117.238281 195.449219 C 117.238281 173.703125 97.667969 156.011719 73.617188 156.011719 C 49.566406 156.011719 30 173.703125 30 195.449219 C 30 246.304688 66.464844 277.625 80.191406 289.417969 C 81.25 290.328125 82.207031 291.152344 83.046875 291.894531 M 93.074219 321.578125 C 78.425781 321.578125 69.179688 319.027344 63.253906 313.582031 C 62.574219 312.957031 61.472656 312.011719 60.195312 310.917969 C 45.308594 298.125 0 259.207031 0 195.449219 C 0 157.804688 33.027344 127.179688 73.617188 127.179688 C 114.210938 127.179688 147.238281 157.804688 147.238281 195.449219 L 147.238281 315.082031 L 135.054688 317.320312 C 134.523438 317.417969 121.925781 319.714844 107.890625 320.886719 C 102.417969 321.34375 97.5 321.578125 93.074219 321.578125 " />
      <path style=" stroke:none;fill-rule:nonzero;fill:rgb(80.000305%,80.000305%,80.000305%);fill-opacity:1;" d="M 135.765625 137.996094 C 103.390625 137.996094 77.144531 162.105469 77.144531 191.851562 C 77.144531 254.683594 125.992188 290.585938 135.765625 299.5625 C 145.535156 308.535156 194.382812 299.5625 194.382812 299.5625 L 194.382812 191.851562 C 194.382812 162.105469 168.136719 137.996094 135.765625 137.996094 " />
      <path style=" stroke:none;fill-rule:nonzero;fill:rgb(100%,100%,100%);fill-opacity:1;" d="M 152.382812 138.578125 C 116.382812 172.007812 122.382812 232.027344 167.382812 292.578125 C 167.382812 292.578125 149.382812 318.800781 131.382812 292.851562 C 113.382812 266.898438 82.382812 222.527344 82.382812 196.578125 C 82.382812 170.628906 104.382812 154.449219 122.382812 145.800781 C 140.382812 137.152344 152.382812 138.578125 152.382812 138.578125 " />
      <path style=" stroke:none;fill-rule:nonzero;fill:rgb(0%,0%,0%);fill-opacity:1;" d="M 145.195312 288.296875 C 149.960938 289.765625 164.335938 289.261719 179.382812 287.304688 L 179.382812 191.851562 C 179.382812 170.105469 159.816406 152.410156 135.765625 152.410156 C 111.714844 152.410156 92.144531 170.105469 92.144531 191.851562 C 92.144531 242.707031 128.609375 274.03125 142.339844 285.820312 C 143.398438 286.730469 144.351562 287.550781 145.195312 288.296875 M 155.21875 317.980469 C 140.574219 317.980469 131.328125 315.425781 125.398438 309.984375 C 124.722656 309.359375 123.621094 308.414062 122.347656 307.320312 C 107.457031 294.53125 62.144531 255.609375 62.144531 191.851562 C 62.144531 154.207031 95.171875 123.578125 135.765625 123.578125 C 176.355469 123.578125 209.382812 154.207031 209.382812 191.851562 L 209.382812 311.484375 L 197.199219 313.722656 C 196.671875 313.816406 184.074219 316.117188 170.035156 317.289062 C 164.566406 317.746094 159.644531 317.980469 155.21875 317.980469 " />
      <path style=" stroke:none;fill-rule:nonzero;fill:rgb(100%,100%,100%);fill-opacity:1;" d="M 104.382812 305.578125 L 136.234375 374.578125 " />
      <g clip-path="url(#wkclip3)" clip-rule="nonzero">
        <path style="fill:none;stroke-width:30;stroke-linecap:butt;stroke-linejoin:miter;stroke:rgb(0%,0%,0%);stroke-opacity:1;stroke-miterlimit:10;" d="M 0.0000125 0.000875 L 31.851575 -68.999125 " transform="matrix(1,0,0,-1,104.3828,305.579)" />
      </g>
      <path style=" stroke:none;fill-rule:nonzero;fill:rgb(100%,100%,100%);fill-opacity:1;" d="M 178.707031 305.578125 L 210.558594 374.578125 " />
      <g clip-path="url(#wkclip4)" clip-rule="nonzero">
        <path style="fill:none;stroke-width:30;stroke-linecap:butt;stroke-linejoin:miter;stroke:rgb(0%,0%,0%);stroke-opacity:1;stroke-miterlimit:10;" d="M 0.00093125 0.000875 L 31.852494 -68.999125 " transform="matrix(1,0,0,-1,178.7061,305.579)" />
      </g>
      <path style=" stroke:none;fill-rule:nonzero;fill:rgb(100%,100%,100%);fill-opacity:1;" d="M 253.03125 305.578125 L 284.882812 374.578125 " />
      <g clip-path="url(#wkclip5)" clip-rule="nonzero">
        <path style="fill:none;stroke-width:30;stroke-linecap:butt;stroke-linejoin:miter;stroke:rgb(0%,0%,0%);stroke-opacity:1;stroke-miterlimit:10;" d="M 0.00095 0.000875 L 31.852512 -68.999125 " transform="matrix(1,0,0,-1,253.0303,305.579)" />
      </g>
    </g>
  </g>
  <g id="wn" transform="scale(0.09174311926605505 0.09174311926605504)">
    <defs>
      <clipPath id="wnclip1">
        <path d="M 0 0 L 308.039062 0 L 308.039062 395.019531 L 0 395.019531 Z M 0 0 " />
      </clipPath>
    </defs>
    <g id="wnsurface1">
      <path style=" stroke:none;fill-rule:nonzero;fill:rgb(80.000305%,80.000305%,80.000305%);fill-opacity:1;" d="M 39.136719 363.308594 C 66.4375 371.472656 106.089844 380.0625 154.300781 379.574219 C 198.707031 379.121094 235.46875 371.117188 261.574219 363.308594 C 261.113281 361.632812 260.40625 358.789062 259.613281 355.253906 C 256.617188 341.933594 252.199219 313.835938 261.574219 284.179688 C 274.429688 243.515625 307.5 192.917969 285.09375 118.230469 C 261.355469 39.101562 150.6875 15.425781 150.6875 15.425781 L 152.492188 52.472656 L 23.21875 146.183594 C 15.015625 152.128906 13.023438 163.46875 18.613281 171.914062 C 21.265625 175.921875 24.011719 180.453125 26.335938 185.105469 C 28.617188 189.664062 39.371094 206.195312 46.046875 210.496094 C 51.460938 213.988281 58.4375 213.773438 63.675781 210.023438 C 71.632812 204.328125 81.625 191.652344 109.636719 194.363281 C 183.730469 207.011719 202.191406 166.597656 202.191406 166.597656 C 202.191406 166.597656 190.445312 190.722656 142.664062 213.183594 C 92.855469 232.289062 60.324219 264.816406 43.777344 319.871094 C 35.882812 346.128906 39.136719 363.308594 39.136719 363.308594 " />
      <path style=" stroke:none;fill-rule:nonzero;fill:rgb(100%,100%,100%);fill-opacity:1;" d="M 27.363281 179.964844 L 183.453125 94.410156 C 183.453125 94.410156 201.964844 85.15625 192.707031 66.644531 C 188.570312 58.367188 156.941406 22.621094 156.941406 22.621094 L 156.941406 59.644531 L 18.109375 161.453125 Z M 27.363281 179.964844 " />
      <path style=" stroke:none;fill-rule:nonzero;fill:rgb(100%,100%,100%);fill-opacity:1;" d="M 215.558594 173.796875 C 183.679688 227.269531 145.457031 255.199219 123.859375 279.878906 C 105.828125 300.488281 92.832031 349.3125 93.859375 369.878906 C 94.480469 382.246094 42.789062 359.933594 42.789062 359.933594 L 56.160156 296.171875 L 83.925781 243.726562 L 129.175781 210.816406 Z M 215.558594 173.796875 " />
      <g clip-path="url(#wnclip1)" clip-rule="nonzero">
        <path style=" stroke:none;fill-rule:nonzero;fill:rgb(0%,0%,0%);fill-opacity:1;" d="M 53.941406 351.472656 C 86.640625 360.230469 120.285156 364.507812 154.144531 364.148438 C 184.226562 363.84375 214.144531 359.890625 243.28125 352.390625 C 239.757812 333.425781 238.167969 307.046875 246.867188 279.53125 C 249.605469 270.867188 253.089844 262.074219 256.78125 252.765625 C 270.804688 217.375 286.699219 177.265625 270.320312 122.664062 C 255.230469 72.367188 197.871094 46.65625 167.148438 36.246094 L 167.902344 51.71875 C 168.15625 56.925781 165.765625 61.90625 161.546875 64.960938 L 32.269531 158.671875 C 30.785156 159.75 30.433594 161.828125 31.476562 163.398438 C 34.878906 168.535156 37.789062 173.519531 40.132812 178.210938 C 42.210938 182.367188 50.882812 194.886719 54.429688 197.546875 C 54.511719 197.578125 54.625 197.53125 54.699219 197.480469 C 55.496094 196.90625 56.519531 196.074219 57.699219 195.109375 C 65.84375 188.464844 80.996094 176.097656 111.121094 179.007812 C 111.492188 179.042969 111.863281 179.09375 112.230469 179.15625 C 157.992188 186.96875 177.792969 172.445312 184.921875 164.515625 C 187.410156 161.46875 188.417969 159.644531 188.453125 159.582031 C 188.359375 159.753906 188.320312 159.84375 188.320312 159.84375 L 195.164062 159.105469 C 204.609375 158.082031 213.449219 163.917969 216.222656 173.003906 C 216.191406 173.070312 216.136719 173.1875 216.058594 173.347656 C 215.972656 173.527344 215.839844 173.789062 215.65625 174.132812 C 215.117188 175.152344 214.191406 176.765625 212.804688 178.765625 C 206.242188 188.363281 188.785156 208.546875 149.226562 227.144531 C 148.886719 227.304688 148.539062 227.453125 148.1875 227.585938 C 100.84375 245.742188 73.199219 275.574219 58.546875 324.3125 C 55.117188 335.734375 54.113281 345.113281 53.941406 351.472656 M 150.347656 395.019531 C 111.191406 395.019531 72.316406 389.328125 34.71875 378.089844 C 29.195312 376.4375 25.050781 371.84375 23.980469 366.179688 C 23.574219 364.042969 20.277344 344.457031 29.003906 315.433594 C 43.652344 266.710938 70.257812 232.753906 111.828125 210.328125 C 110.441406 210.125 109.046875 209.90625 107.628906 209.667969 C 90.535156 208.132812 83.757812 213.664062 77.207031 219.011719 C 75.753906 220.199219 74.246094 221.425781 72.65625 222.566406 C 62.191406 230.058594 48.460938 230.410156 37.6875 223.460938 C 26.375 216.167969 14.011719 194.953125 12.539062 192.003906 C 10.75 188.425781 8.464844 184.53125 5.75 180.429688 C -4.441406 165.035156 -0.746094 144.503906 14.164062 133.695312 L 136.679688 44.882812 L 135.277344 16.175781 C 135.046875 11.390625 137.046875 6.769531 140.695312 3.671875 C 144.347656 0.566406 149.234375 -0.660156 153.914062 0.339844 C 158.796875 1.382812 273.808594 26.925781 299.871094 113.796875 C 319.328125 178.664062 299.753906 228.0625 285.460938 264.128906 C 281.980469 272.914062 278.691406 281.210938 276.285156 288.832031 C 268.257812 314.222656 271.820312 339.230469 274.664062 351.875 C 275.625 356.164062 276.273438 358.574219 276.449219 359.210938 C 278.675781 367.300781 274.035156 375.6875 265.996094 378.089844 C 229.753906 388.925781 192.226562 394.617188 154.457031 395 C 153.089844 395.011719 151.714844 395.019531 150.347656 395.019531 " />
      </g>
      <path style="fill-rule:nonzero;fill:rgb(100%,100%,100%);fill-opacity:1;stroke-width:30;stroke-linecap:round;stroke-linejoin:round;stroke:rgb(0%,0%,0%);stroke-opacity:1;stroke-miterlimit:10;" d="M -0.00119375 0.001475 C 23.662869 -7.1079 58.178494 -14.611806 100.166775 -14.057119 C 137.924588 -13.561025 169.21365 -6.709463 191.549588 0.001475 " transform="matrix(1,0,0,-1,55.0051,312.0796)" />
      <path style=" stroke:none;fill-rule:nonzero;fill:rgb(0%,0%,0%);fill-opacity:1;" d="M 169.683594 113.578125 C 169.683594 121.953125 162.894531 128.742188 154.519531 128.742188 C 146.144531 128.742188 139.355469 121.953125 139.355469 113.578125 C 139.355469 105.203125 146.144531 98.417969 154.519531 98.417969 C 162.894531 98.417969 169.683594 105.203125 169.683594 113.578125 " />
    </g>
  </g>
  <g id="wp" transform="scale(0.08971768088766673 0.08971768088766673)">
    <defs>
      <clipPath id="wpclip1">
        <path d="M 0 0 L 255.84375 0 L 255.84375 376.460938 L 0 376.460938 Z M 0 0 " />
      </clipPath>
    </defs>
    <g id="wpsurface1">
      <path style=" stroke:none;fill-rule:nonzero;fill:rgb(80.000305%,80.000305%,80.000305%);fill-opacity:1;" d="M 239.523438 340.414062 C 239.523438 250.117188 165.070312 220.546875 173.609375 164.167969 C 195.230469 149.144531 209.210938 123.890625 208.496094 95.402344 C 207.417969 52.394531 172.324219 17.355469 129.316406 16.34375 C 83.59375 15.265625 46.195312 52.007812 46.195312 97.484375 C 46.195312 125.09375 59.992188 149.46875 81.058594 164.132812 C 90.621094 220.546875 16.320312 250.484375 16.320312 340.414062 C 49.273438 350.292969 70.652344 360.140625 128.484375 360.140625 C 186.316406 360.140625 206.570312 350.292969 239.523438 340.414062 " />
      <path style=" stroke:none;fill-rule:nonzero;fill:rgb(100%,100%,100%);fill-opacity:1;" d="M 126 30.414062 C 126 30.414062 101.085938 56.332031 100 94.414062 C 98.910156 132.496094 114 154.972656 114 160.414062 C 114 165.855469 114.441406 188.828125 109 208.414062 C 103.558594 228 73 297.414062 75 344.414062 C 76.394531 377.175781 19.425781 334.027344 19.425781 334.027344 L 27.039062 277.449219 L 83.617188 194.757812 L 79.265625 159.941406 L 45.535156 107.714844 L 65.121094 45.695312 Z M 126 30.414062 " />
      <g clip-path="url(#wpclip1)" clip-rule="nonzero">
        <path style=" stroke:none;fill-rule:nonzero;fill:rgb(0%,0%,0%);fill-opacity:1;" d="M 239.523438 340.414062 L 239.53125 340.414062 Z M 33.136719 328.53125 C 33.757812 328.726562 34.375 328.925781 34.992188 329.117188 C 61.007812 337.332031 81.558594 343.820312 128.484375 343.820312 C 174.789062 343.820312 194.710938 337.472656 219.929688 329.433594 C 220.851562 329.140625 221.777344 328.84375 222.710938 328.546875 C 219.652344 292.101562 202.753906 267.496094 186.359375 243.628906 C 169.726562 219.414062 152.527344 194.371094 157.472656 161.722656 C 158.144531 157.289062 160.613281 153.324219 164.296875 150.765625 C 182.304688 138.25 192.730469 117.707031 192.179688 95.8125 C 191.328125 61.789062 162.957031 33.460938 128.933594 32.660156 C 111.28125 32.21875 94.648438 38.789062 82.054688 51.09375 C 69.453125 63.398438 62.515625 79.875 62.515625 97.484375 C 62.515625 118.683594 72.929688 138.59375 90.378906 150.734375 C 93.976562 153.238281 96.417969 157.085938 97.148438 161.402344 C 102.734375 194.359375 85.550781 219.703125 68.929688 244.210938 C 52.804688 267.996094 36.179688 292.511719 33.136719 328.53125 M 128.484375 376.460938 C 76.527344 376.460938 51.578125 368.585938 25.164062 360.246094 C 20.804688 358.867188 16.300781 357.445312 11.632812 356.046875 C 4.730469 353.976562 0 347.621094 0 340.414062 C 0 287.707031 23.242188 253.433594 41.914062 225.894531 C 56.996094 203.648438 66.105469 189.292969 65.578125 172.871094 C 43.089844 154.425781 29.875 126.78125 29.875 97.484375 C 29.875 71.011719 40.304688 46.242188 59.246094 27.742188 C 78.179688 9.246094 103.195312 -0.582031 129.699219 0.0273438 C 154.710938 0.613281 178.3125 10.753906 196.160156 28.574219 C 214.007812 46.398438 224.183594 69.984375 224.8125 94.992188 C 225.570312 125.234375 212.40625 153.753906 189.269531 172.769531 C 189.214844 190.128906 199.992188 205.820312 213.265625 225.148438 C 232.234375 252.769531 255.84375 287.136719 255.84375 340.414062 C 255.84375 347.621094 251.113281 353.976562 244.210938 356.046875 C 239.222656 357.542969 234.453125 359.0625 229.84375 360.53125 C 204.140625 368.726562 179.863281 376.460938 128.484375 376.460938 " />
      </g>
    </g>
  </g>
  <g id="wq" transform="scale(0.0851063829787234 0.0851063829787234)">
    <g id="wqsurface1">
      <path style=" stroke:none;fill-rule:nonzero;fill:rgb(80.000305%,80.000305%,80.000305%);fill-opacity:1;" d="M 319.324219 393 L 88.675781 393 C 93.175781 387.421875 106.421875 369.527344 106.421875 343.5 C 106.421875 336.527344 105.46875 314.820312 88.675781 294 L 319.324219 294 C 314.824219 299.578125 301.582031 317.472656 301.582031 343.5 C 301.582031 350.472656 302.53125 372.179688 319.324219 393 " />
      <path style=" stroke:none;fill-rule:nonzero;fill:rgb(100%,100%,100%);fill-opacity:1;" d="M 140 393 C 143.5625 382.71875 151.433594 367.226562 152 348 C 152.699219 324.203125 143.898438 306.277344 140 295 C 129.320312 295 112.746094 294 102.066406 294 L 117.628906 348 L 92.914062 393 Z M 140 393 " />
      <path style=" stroke:none;fill-rule:nonzero;fill:rgb(0%,0%,0%);fill-opacity:1;" d="M 113.503906 378 L 294.484375 378 C 288.960938 363.984375 287.851562 351.363281 287.851562 343.5 C 287.851562 330.179688 290.679688 318.585938 294.496094 309 L 113.515625 309 C 119.039062 323.015625 120.148438 335.636719 120.148438 343.5 C 120.148438 356.820312 117.320312 368.414062 113.503906 378 M 319.320312 408 L 88.679688 408 C 83.28125 408 78.386719 404.546875 76.167969 399.175781 C 73.945312 393.800781 74.8125 387.507812 78.378906 383.082031 C 83.722656 376.453125 92.691406 362.496094 92.691406 343.5 C 92.691406 335.347656 90.832031 319.359375 78.375 303.914062 C 74.8125 299.492188 73.945312 293.195312 76.167969 287.824219 C 78.386719 282.453125 83.28125 279 88.679688 279 L 319.320312 279 C 324.71875 279 329.613281 282.453125 331.832031 287.824219 C 334.054688 293.199219 333.191406 299.492188 329.621094 303.917969 C 324.277344 310.546875 315.308594 324.503906 315.308594 343.5 C 315.308594 351.652344 317.167969 367.640625 329.621094 383.085938 C 333.191406 387.507812 334.054688 393.804688 331.832031 399.175781 C 329.613281 404.546875 324.71875 408 319.320312 408 " />
      <path style=" stroke:none;fill-rule:nonzero;fill:rgb(80.000305%,80.000305%,80.000305%);fill-opacity:1;" d="M 91.101562 254.300781 L 55.730469 127.332031 C 58.96875 129.28125 106.164062 196.375 129.863281 181.5 C 148.714844 169.667969 144.792969 97.320312 146.339844 69 C 154.636719 95.242188 182.425781 162.75 204 162.75 C 225.574219 162.75 253.363281 95.242188 261.660156 69 C 262.183594 72.230469 253.832031 166.15625 286.371094 181.5 C 304.957031 190.265625 346.253906 129.988281 352.273438 127.332031 C 346.105469 162.539062 323.464844 211.136719 317.300781 254.128906 C 314.019531 277.011719 294.652344 294 271.792969 294 L 136.582031 294 C 113.792969 294 94.441406 277.109375 91.101562 254.300781 " />
      <path style=" stroke:none;fill-rule:nonzero;fill:rgb(100%,100%,100%);fill-opacity:1;" d="M 86.828125 159 C 153 192 93 279 230 279 L 129.972656 294 C 118.78125 283.53125 95.90625 259.226562 86.828125 222 C 80.238281 194.984375 83.628906 172.277344 86.828125 159 " />
      <path style=" stroke:none;fill-rule:nonzero;fill:rgb(0%,0%,0%);fill-opacity:1;" d="M 203.703125 147.773438 Z M 204.296875 147.773438 Z M 122.902344 168.582031 Z M 84.824219 180.261719 L 104.234375 249.933594 C 104.417969 250.589844 104.558594 251.257812 104.65625 251.933594 C 106.917969 267.363281 120.644531 279 136.582031 279 L 271.796875 279 C 287.78125 279 301.515625 267.308594 303.738281 251.808594 C 307.132812 228.152344 314.886719 203.921875 322.640625 180.378906 C 307.742188 194.117188 293.871094 201.375 280.933594 195.269531 C 264.292969 187.425781 253.726562 166.667969 249.515625 133.5625 C 233.488281 163.707031 219.019531 177.75 204 177.75 C 188.921875 177.75 174.40625 163.601562 158.308594 133.230469 C 158.277344 133.167969 158.242188 133.101562 158.210938 133.039062 C 156.144531 163.214844 150.90625 185.59375 136.703125 194.507812 C 132.097656 197.394531 127.265625 198.667969 122.320312 198.667969 C 109.929688 198.667969 96.832031 190.683594 84.824219 180.261719 M 271.796875 309 L 136.582031 309 C 122.457031 309 108.75 303.824219 97.980469 294.421875 C 87.230469 285.042969 80.0625 272.058594 77.714844 257.761719 L 42.597656 131.703125 C 40.96875 125.863281 42.742188 119.53125 47.082031 115.683594 C 51.417969 111.835938 57.457031 111.25 62.347656 114.191406 C 64.976562 115.769531 66.46875 117.597656 71.417969 123.648438 C 77.84375 131.503906 89.808594 146.128906 101.933594 156.75 C 115.402344 168.546875 121.777344 169.0625 122.949219 168.535156 C 123.4375 168.027344 127.523438 163.175781 129.925781 141.46875 C 131.703125 125.375 131.929688 106.113281 132.109375 90.632812 C 132.214844 81.820312 132.300781 74.207031 132.636719 68.105469 C 133.023438 60.960938 137.980469 55.113281 144.472656 54.140625 C 150.957031 53.167969 157.175781 57.335938 159.316406 64.101562 C 163.410156 77.054688 171.667969 98.105469 180.882812 115.925781 C 193.089844 139.535156 201.402344 146.683594 204 147.679688 C 206.597656 146.683594 214.910156 139.535156 227.117188 115.925781 C 236.332031 98.105469 244.589844 77.054688 248.683594 64.101562 C 250.726562 57.640625 256.511719 53.515625 262.746094 54.046875 C 268.980469 54.585938 274.097656 59.667969 275.183594 66.398438 C 275.507812 68.40625 275.449219 69.847656 275.261719 74.621094 C 272.359375 148.035156 285.558594 163.878906 290.953125 167.253906 C 292.488281 166.824219 297.296875 164.816406 307.039062 155.488281 C 315.347656 147.535156 323.703125 137.699219 330.417969 129.792969 C 339.308594 119.324219 342.632812 115.410156 347.128906 113.425781 C 351.789062 111.367188 357.105469 112.257812 360.988281 115.746094 C 364.871094 119.230469 366.699219 124.757812 365.753906 130.152344 C 362.765625 147.21875 356.457031 166.34375 349.777344 186.59375 C 342.042969 210.046875 334.042969 234.300781 330.863281 256.449219 C 328.746094 271.222656 321.507812 284.679688 310.480469 294.347656 C 299.695312 303.796875 285.960938 309 271.796875 309 " />
      <path style=" stroke:none;fill-rule:nonzero;fill:rgb(94.902039%,94.902039%,94.902039%);fill-opacity:1;" d="M 168 42 C 168 56.910156 155.910156 69 141 69 C 126.089844 69 114 56.910156 114 42 C 114 27.089844 126.089844 15 141 15 C 155.910156 15 168 27.089844 168 42 " />
      <path style="fill:none;stroke-width:30;stroke-linecap:butt;stroke-linejoin:round;stroke:rgb(0%,0%,0%);stroke-opacity:1;stroke-miterlimit:10;" d="M 0 0 C 0 -14.910156 -12.089844 -27 -27 -27 C -41.910156 -27 -54 -14.910156 -54 0 C -54 14.910156 -41.910156 27 -27 27 C -12.089844 27 0 14.910156 0 0 Z M 0 0 " transform="matrix(1,0,0,-1,168,42)" />
      <path style=" stroke:none;fill-rule:nonzero;fill:rgb(94.902039%,94.902039%,94.902039%);fill-opacity:1;" d="M 294 42 C 294 56.910156 281.910156 69 267 69 C 252.089844 69 240 56.910156 240 42 C 240 27.089844 252.089844 15 267 15 C 281.910156 15 294 27.089844 294 42 " />
      <path style="fill:none;stroke-width:30;stroke-linecap:butt;stroke-linejoin:round;stroke:rgb(0%,0%,0%);stroke-opacity:1;stroke-miterlimit:10;" d="M 0 0 C 0 -14.910156 -12.089844 -27 -27 -27 C -41.910156 -27 -54 -14.910156 -54 0 C -54 14.910156 -41.910156 27 -27 27 C -12.089844 27 0 14.910156 0 0 Z M 0 0 " transform="matrix(1,0,0,-1,294,42)" />
      <path style=" stroke:none;fill-rule:nonzero;fill:rgb(94.902039%,94.902039%,94.902039%);fill-opacity:1;" d="M 393 96 C 393 110.910156 380.910156 123 366 123 C 351.089844 123 339 110.910156 339 96 C 339 81.089844 351.089844 69 366 69 C 380.910156 69 393 81.089844 393 96 " />
      <path style="fill:none;stroke-width:30;stroke-linecap:butt;stroke-linejoin:round;stroke:rgb(0%,0%,0%);stroke-opacity:1;stroke-miterlimit:10;" d="M 0 0 C 0 -14.910156 -12.089844 -27 -27 -27 C -41.910156 -27 -54 -14.910156 -54 0 C -54 14.910156 -41.910156 27 -27 27 C -12.089844 27 0 14.910156 0 0 Z M 0 0 " transform="matrix(1,0,0,-1,393,96)" />
      <path style=" stroke:none;fill-rule:nonzero;fill:rgb(94.902039%,94.902039%,94.902039%);fill-opacity:1;" d="M 69 96 C 69 110.910156 56.910156 123 42 123 C 27.089844 123 15 110.910156 15 96 C 15 81.089844 27.089844 69 42 69 C 56.910156 69 69 81.089844 69 96 " />
      <path style="fill:none;stroke-width:30;stroke-linecap:butt;stroke-linejoin:round;stroke:rgb(0%,0%,0%);stroke-opacity:1;stroke-miterlimit:10;" d="M 0 0 C 0 -14.910156 -12.089844 -27 -27 -27 C -41.910156 -27 -54 -14.910156 -54 0 C -54 14.910156 -41.910156 27 -27 27 C -12.089844 27 0 14.910156 0 0 Z M 0 0 " transform="matrix(1,0,0,-1,69,96)" />
      <path style="fill:none;stroke-width:30;stroke-linecap:butt;stroke-linejoin:round;stroke:rgb(0%,0%,0%);stroke-opacity:1;stroke-miterlimit:10;" d="M 0.00004375 0 L 197.695356 0 " transform="matrix(1,0,0,-1,105.1523,348)" />
    </g>
  </g>
  <g id="wr" transform="scale(0.09156817364988451 0.09156817364988451)">
    <defs>
      <clipPath id="wrclip1">
        <path d="M 0 0 L 296.832031 0 L 296.832031 373 L 0 373 Z M 0 0 " />
      </clipPath>
    </defs>
    <g id="wrsurface1">
      <path style=" stroke:none;fill-rule:nonzero;fill:rgb(80.000305%,80.000305%,80.000305%);fill-opacity:1;" d="M 49.320312 182.347656 C 49.804688 113.917969 5.804688 57.183594 18.757812 16.238281 L 278.078125 16.238281 C 291.03125 57.183594 247.03125 113.917969 247.515625 182.347656 C 248.023438 254.550781 291.425781 314.5625 278.078125 356.765625 L 18.757812 356.765625 C 5.40625 314.5625 48.808594 254.550781 49.320312 182.347656 " />
      <path style=" stroke:none;fill-rule:nonzero;fill:rgb(100%,100%,100%);fill-opacity:1;" d="M 92.859375 18 C 83.117188 73.203125 98.859375 143.324219 98.859375 191 C 98.859375 237.542969 80.613281 292.054688 83.859375 357 L 23.519531 356.765625 L 42.859375 191 L 23.519531 15.804688 Z M 92.859375 18 " />
      <g clip-path="url(#wrclip1)" clip-rule="nonzero">
        <path style=" stroke:none;fill-rule:nonzero;fill:rgb(0%,0%,0%);fill-opacity:1;" d="M 251.265625 281.757812 C 242.019531 252.527344 231.539062 219.402344 231.277344 182.464844 C 231.023438 146.65625 241.722656 114.730469 251.160156 86.5625 C 258.113281 65.804688 264.324219 47.269531 264.226562 32.472656 L 32.605469 32.472656 C 32.507812 47.269531 38.71875 65.804688 45.671875 86.5625 C 55.109375 114.730469 65.808594 146.65625 65.554688 182.464844 C 65.292969 219.402344 54.8125 252.53125 45.566406 281.757812 C 38.40625 304.402344 32.019531 324.585938 32.464844 340.527344 L 264.371094 340.527344 C 264.8125 324.585938 258.429688 304.402344 251.265625 281.757812 M 3.277344 361.660156 C -5.246094 334.722656 4.398438 304.238281 14.605469 271.964844 C 23.160156 244.925781 32.855469 214.277344 33.082031 182.234375 C 33.300781 151.839844 23.9375 123.898438 14.882812 96.878906 C 4.65625 66.355469 -5.007812 37.523438 3.277344 11.339844 C 5.410156 4.589844 11.675781 0 18.757812 0 L 278.078125 0 C 285.15625 0 291.421875 4.589844 293.558594 11.339844 C 301.839844 37.523438 292.179688 66.355469 281.949219 96.878906 C 272.894531 123.898438 263.535156 151.839844 263.75 182.234375 C 263.976562 214.277344 273.671875 244.921875 282.226562 271.964844 C 292.4375 304.234375 302.078125 334.722656 293.558594 361.660156 C 291.421875 368.410156 285.15625 373 278.078125 373 L 18.757812 373 C 11.675781 373 5.410156 368.410156 3.277344 361.660156 " />
      </g>
      <path style="fill:none;stroke-width:30;stroke-linecap:butt;stroke-linejoin:round;stroke:rgb(0%,0%,0%);stroke-opacity:1;stroke-miterlimit:10;" d="M -0.00136875 -0.00096875 L -0.00136875 -58.137687 " transform="matrix(1,0,0,-1,98.5834,24.542)" />
      <path style="fill:none;stroke-width:30;stroke-linecap:butt;stroke-linejoin:round;stroke:rgb(0%,0%,0%);stroke-opacity:1;stroke-miterlimit:10;" d="M -0.0004 -0.00096875 L -0.0004 -58.137687 " transform="matrix(1,0,0,-1,198.2504,24.542)" />
      <path style="fill:none;stroke-width:30;stroke-linecap:butt;stroke-linejoin:round;stroke:rgb(0%,0%,0%);stroke-opacity:1;stroke-miterlimit:10;" d="M -0.00135 -0.0019375 L 250.143181 -0.0019375 " transform="matrix(1,0,0,-1,23.3451,298.2715)" />
      <path style="fill:none;stroke-width:30;stroke-linecap:butt;stroke-linejoin:round;stroke:rgb(0%,0%,0%);stroke-opacity:1;stroke-miterlimit:10;" d="M 0.0006125 -0.0010125 L 215.945925 -0.0010125 " transform="matrix(1,0,0,-1,40.4447,140.8193)" />
    </g>
  </g>
</svg>