<svg xmlns="http://www.w3.org/2000/svg" width="40" height="40" viewbox="0.0 0.0 100.0 100.0">
  <g id="bb" fill="none" transform="scale(0.4 0.4)">
    <path d="M57.7594 17.5572C57.7594 21.3173 54.7117 24.365 50.9517 24.365C47.1917 24.365 44.144 21.3173 44.144 17.5572C44.144 13.7972 47.1917 10.7495 50.9517 10.7495C54.7117 10.7495 57.7594 13.7972 57.7594 17.5572Z" fill="#8DB962" />
    <path d="M57.7594 17.5572C57.7594 21.3173 54.7117 24.365 50.9517 24.365C47.1917 24.365 44.144 21.3173 44.144 17.5572C44.144 13.7972 47.1917 10.7495 50.9517 10.7495C54.7117 10.7495 57.7594 13.7972 57.7594 17.5572Z" stroke="black" stroke-width="5.86335" stroke-miterlimit="10" stroke-linejoin="round" />
    <path d="M71.0084 41.016C59.9605 44.0186 52.5847 62.7936 52.5847 62.7936C52.5847 62.7936 53.4986 45.8838 61.3499 31.5025C55.8981 27.1508 51.0654 24.4581 51.0654 24.4581C51.0654 24.4581 25.2644 38.5553 25.4415 54.6925C25.6194 70.8297 38.3867 83.4199 36.7911 86.7898C35.1947 90.1589 66.9369 89.9818 65.3405 86.7898C63.7449 83.5978 76.3351 70.6526 76.513 54.6925C76.5664 49.8629 74.2554 45.1883 71.0084 41.016Z" fill="#469140" />
    <path d="M51.8877 25.7545C42.0177 42.7582 39.6724 50.3805 39.6724 55.6575C39.6724 66.7826 49.6401 84.5834 44.8517 87.3196H37.8157L29.0206 69.7296L25.5026 57.4165L27.2616 46.8625L34.2976 38.0675L51.8877 25.7545Z" fill="#8DB962" />
    <path d="M39.8419 85.5163C41.678 85.9194 45.4525 86.3187 50.744 86.3187C50.8563 86.3187 50.9685 86.3187 51.0815 86.3187C56.5272 86.3012 60.417 85.8782 62.3012 85.4637C62.5516 83.4451 63.8824 81.0471 65.7055 77.7627C68.9861 71.8505 73.4805 63.7532 73.5813 54.6597C73.6164 51.5188 72.3964 48.1215 69.9526 44.5386C62.8876 47.9756 57.0731 59.4031 55.3125 63.8678C54.785 65.2053 53.3634 65.965 51.9602 65.6573C50.5547 65.3504 49.5798 64.0716 49.6569 62.6355C49.6935 61.9538 50.6028 46.548 57.6212 32.324C54.9003 30.2825 52.4946 28.7388 51.0532 27.8563C48.8499 29.1832 44.402 32.0263 40.0259 35.8092C34.6664 40.4434 28.2938 47.4756 28.3732 54.6605C28.474 63.8349 33.0211 71.8405 36.3414 77.6863C38.2417 81.0318 39.6159 83.4512 39.8419 85.5163ZM50.7654 92.1821C47.5535 92.1821 44.4493 92.0355 41.9849 91.766C37.5637 91.2827 36.0994 90.5391 35.2512 89.8749C33.9984 88.8946 33.5151 87.37 33.9701 85.9645C33.7495 84.9949 32.3669 82.561 31.243 80.5821C27.8121 74.5416 22.6274 65.4138 22.5099 54.7246C22.4266 47.1282 27.057 39.2486 36.2727 31.3033C42.8613 25.6239 49.3858 22.0349 49.6599 21.8853C50.5432 21.402 51.6136 21.4066 52.4931 21.8967C52.6985 22.012 57.6006 24.7589 63.1792 29.2114C64.2916 30.0993 64.6053 31.6583 63.9228 32.9081C61.4011 37.527 59.6223 42.4581 58.3732 46.9602C62.1394 42.2512 66.1162 39.3074 70.2397 38.1866C71.3795 37.8766 72.5957 38.282 73.3225 39.2157C77.4398 44.5065 79.4996 49.7247 79.4439 54.7254C79.3263 65.3015 74.215 74.5126 70.8321 80.6081C69.7404 82.5755 68.3982 84.9926 68.1638 85.9683C68.6043 87.3234 68.1592 88.7977 66.9736 89.7673C66.1544 90.4361 64.7244 91.1896 60.3208 91.7011C57.7625 91.9973 54.514 92.1683 51.1731 92.1813C51.0372 92.1821 50.9013 92.1821 50.7654 92.1821Z" fill="black" />
    <path d="M31.7568 75.1043C34.8023 79.8607 67.2301 80.7409 70.4549 75.1043" stroke="black" stroke-width="5.86335" stroke-miterlimit="10" stroke-linecap="round" stroke-linejoin="round" />
  </g>
  <g id="bk" fill="none" transform="scale(0.4 0.4)">
    <path d="M74.9243 87.5377H26.9929C25.9339 87.5377 25.0757 86.6794 25.0757 85.6204V80.8273C25.0757 79.7691 25.9339 78.91 26.9929 78.91H74.9243C75.9833 78.91 76.8415 79.7691 76.8415 80.8273V85.6204C76.8415 86.6794 75.9833 87.5377 74.9243 87.5377Z" fill="#469140" />
    <path d="M31.9778 86.9625H25.0757V78.3348H31.9778V86.9625Z" fill="#8DB962" />
    <path d="M27.9515 84.6618H73.9657V81.7859H27.9515V84.6618ZM74.9243 90.4136H26.9929C24.3499 90.4136 22.1998 88.2634 22.1998 85.6204V80.8273C22.1998 78.1843 24.3499 76.0341 26.9929 76.0341H74.9243C77.5672 76.0341 79.7174 78.1843 79.7174 80.8273V85.6204C79.7174 88.2634 77.5672 90.4136 74.9243 90.4136Z" fill="black" />
    <path d="M76.6498 78.91H25.2674C24.2084 78.91 23.3501 78.0517 23.3501 76.9928V68.1734C23.3501 67.1152 24.2084 66.2561 25.2674 66.2561H76.6498C77.7088 66.2561 78.5671 67.1152 78.5671 68.1734V76.9928C78.5671 78.0517 77.7088 78.91 76.6498 78.91Z" fill="#469140" />
    <path d="M30.6357 76.6093H23.9253V67.9817H30.6357V76.6093Z" fill="#8DB962" />
    <path d="M26.226 76.0341H75.6912V69.132H26.226V76.0341ZM76.6498 81.7859H25.2674C22.6244 81.7859 20.4742 79.6357 20.4742 76.9928V68.1734C20.4742 65.5304 22.6244 63.3803 25.2674 63.3803H76.6498C79.2928 63.3803 81.4429 65.5304 81.4429 68.1734V76.9928C81.4429 79.6357 79.2928 81.7859 76.6498 81.7859Z" fill="black" />
    <path d="M50.9586 34.1601V10.5449" stroke="black" stroke-width="5.75177" stroke-miterlimit="10" stroke-linecap="round" />
    <path d="M44.0565 17.447H57.8607" stroke="black" stroke-width="5.75177" stroke-miterlimit="10" stroke-linecap="round" />
    <path d="M53.4495 26.4342H48.8189C47.8281 26.4342 46.9331 27.0228 46.5399 27.9313L43.667 34.5698C43.3952 35.1989 43.3952 35.9126 43.667 36.5417L46.5399 43.1802C46.9331 44.0886 47.8281 44.6765 48.8189 44.6765H53.4495C54.4396 44.6765 55.3353 44.0886 55.7285 43.1802L58.6006 36.5417C58.8725 35.9126 58.8725 35.1989 58.6006 34.5698L55.7285 27.9313C55.3353 27.0228 54.4396 26.4342 53.4495 26.4342Z" fill="#469140" />
    <path d="M49.0765 41.8007H53.1919L55.894 35.5553L53.1919 29.31H49.0765L46.3737 35.5553L49.0765 41.8007ZM53.4495 47.5524H48.8182C46.68 47.5524 44.7492 46.2845 43.8999 44.3215L41.0278 37.6838C40.4429 36.332 40.4429 34.7802 41.0278 33.4276L43.8999 26.7891C44.7492 24.827 46.68 23.5583 48.8182 23.5583H53.4495C55.5885 23.5583 57.5185 24.827 58.3677 26.7891L61.2399 33.4276C61.8248 34.7802 61.8248 36.332 61.2399 37.6838L58.3677 44.3215C57.5185 46.2845 55.5885 47.5524 53.4495 47.5524Z" fill="black" />
    <path d="M74.1124 34.8162C80.3195 34.8162 85.3508 39.4393 85.3508 45.1416C85.3508 57.1881 75.9855 64.0715 74.1124 65.7926C72.2394 67.5136 62.8733 65.7926 62.8733 65.7926V45.1416C62.8733 39.4393 67.9053 34.8162 74.1124 34.8162Z" fill="#469140" />
    <path d="M84.1271 36.1552C79.7174 44.5912 71.2815 35.1966 67.8304 63.7637C67.8304 63.7637 69.9394 68.9306 66.4884 63.9554C63.0373 58.9803 66.8718 49.758 66.8718 44.7829C66.8718 39.8078 71.0898 36.7057 74.5408 35.0476C77.9919 33.3895 84.894 36.1552 84.1271 36.1552Z" fill="#8DB962" />
    <path d="M65.7492 63.4409C68.637 63.8161 71.3923 63.9135 72.3045 63.6326C72.4656 63.4904 72.649 63.3323 72.8528 63.1578C75.4837 60.8968 82.475 54.8919 82.475 45.1416C82.475 40.9723 78.7236 37.5804 74.1124 37.5804C69.5006 37.5804 65.7492 40.9723 65.7492 45.1416V63.4409ZM70.382 69.3237C69.5335 69.3237 68.5906 69.2788 67.5414 69.1912C64.8505 68.9665 62.4352 68.5261 62.3333 68.5074L59.9974 68.0783V45.1416C59.9974 37.9242 66.3296 32.0526 74.1124 32.0526C81.8953 32.0526 88.2267 37.9242 88.2267 45.1416C88.2267 57.3656 79.5399 64.8272 76.685 67.2799C76.4409 67.4896 76.2297 67.6709 76.0994 67.7907C74.9632 68.8347 73.1898 69.3237 70.382 69.3237Z" fill="black" />
    <path d="M62.197 34.1264C68.4041 34.1264 73.4362 38.7488 73.4362 44.4519C73.4362 56.4984 64.0708 63.3818 62.197 65.1028C60.3239 66.8231 50.9586 65.1028 50.9586 65.1028V44.4519C50.9586 38.7488 55.9906 34.1264 62.197 34.1264Z" fill="#469140" />
    <path d="M69.1725 36.1552C61.6952 40.3732 58.4359 36.347 57.4773 65.681C57.4773 65.681 55.9434 68.5471 52.4924 63.572C49.0413 58.5969 51.1503 49.758 51.1503 44.7829C51.1503 39.8078 55.3683 36.7057 58.8193 35.0476C62.2704 33.3895 69.1725 36.1552 69.1725 36.1552Z" fill="#8DB962" />
    <path d="M53.8345 62.7512C56.7216 63.1264 59.4776 63.2237 60.3891 62.9429C60.5509 62.7998 60.7336 62.6426 60.9373 62.4681C63.569 60.2078 70.5603 54.2022 70.5603 44.4519C70.5603 40.2826 66.8089 36.8899 62.197 36.8899C57.5858 36.8899 53.8345 40.2826 53.8345 44.4519V62.7512ZM58.4673 68.634C57.6181 68.634 56.6752 68.5891 55.6267 68.5014C52.9358 68.2768 50.5205 67.8356 50.4186 67.8177L48.0827 67.3885V44.4519C48.0827 37.2344 54.4141 31.3621 62.197 31.3621C69.9799 31.3621 76.312 37.2344 76.312 44.4519C76.312 56.6759 67.6245 64.1382 64.7696 66.5902C64.5254 66.7999 64.3142 66.9811 64.1839 67.1009C63.0485 68.1442 61.2751 68.634 58.4673 68.634Z" fill="black" />
    <path d="M27.8047 34.8162C21.5984 34.8162 16.5663 39.4393 16.5663 45.1416C16.5663 57.1881 25.9317 64.0715 27.8047 65.7926C29.6778 67.5136 39.0439 65.7926 39.0439 65.7926V45.1416C39.0439 39.4393 34.0119 34.8162 27.8047 34.8162Z" fill="#469140" />
    <path d="M29.2936 34.4949C17.2149 41.907 23.3501 52.9215 31.9778 64.5306C31.9778 64.5306 27.5681 67.6626 24.117 62.6882C20.666 57.7124 15.4894 51.0791 15.4894 46.104C15.4894 41.1289 18.9404 36.153 22.3915 34.4949C25.8425 32.8367 29.2936 34.4949 29.2936 34.4949Z" fill="#8DB962" />
    <path d="M29.6126 63.6326C30.5248 63.9135 33.2801 63.8161 36.168 63.4409V45.1416C36.168 40.9723 32.4159 37.5804 27.8047 37.5804C23.1936 37.5804 19.4422 40.9723 19.4422 45.1416C19.4422 54.8919 26.4335 60.8968 29.0652 63.1578C29.2681 63.3323 29.4516 63.4904 29.6126 63.6326ZM31.5351 69.3237C28.7267 69.3237 26.954 68.8347 25.8178 67.7907C25.6875 67.6709 25.4763 67.4896 25.2314 67.2799C22.3773 64.8272 13.6904 57.3656 13.6904 45.1416C13.6904 37.9242 20.0226 32.0526 27.8047 32.0526C35.5876 32.0526 41.9198 37.9242 41.9198 45.1416V68.0783L39.5839 68.5074C39.482 68.5261 37.0667 68.9665 34.3758 69.1912C33.3266 69.2788 32.3837 69.3237 31.5351 69.3237Z" fill="black" />
    <path d="M39.7202 34.1264C33.5131 34.1264 28.481 38.7488 28.481 44.4519C28.481 56.4984 37.8464 63.3818 39.7202 65.1028C41.5932 66.8231 50.9586 65.1028 50.9586 65.1028V44.4519C50.9586 38.7488 45.9265 34.1264 39.7202 34.1264Z" fill="#469140" />
    <path d="M42.9061 34.238C36.004 40.6473 37.1544 52.1546 45.782 63.7637C45.782 63.7637 42.3309 68.7913 38.8799 63.8161C35.4288 58.8403 29.4853 50.3332 29.4853 45.3581C29.4853 40.3829 33.7033 37.2809 37.1544 35.6228C40.6054 33.9646 42.9061 34.238 42.9061 34.238Z" fill="#8DB962" />
    <path d="M41.5281 62.9429C42.4418 63.2245 45.1978 63.1279 48.0827 62.7527V44.4519C48.0827 40.2826 44.3313 36.8899 39.7202 36.8899C35.109 36.8899 31.3569 40.2826 31.3569 44.4519C31.3569 54.2022 38.3481 60.2078 40.9806 62.4681C41.1836 62.6426 41.3663 62.7998 41.5281 62.9429ZM43.4498 68.634C40.6421 68.634 38.8694 68.1442 37.7325 67.1009C37.603 66.9811 37.3918 66.7999 37.1476 66.5902C34.2927 64.1382 25.6051 56.6759 25.6051 44.4519C25.6051 37.2344 31.9373 31.3621 39.7202 31.3621C47.5023 31.3621 53.8345 37.2344 53.8345 44.4519V67.3885L51.4986 67.8177C51.3975 67.8356 48.9822 68.2768 46.2905 68.5014C45.242 68.5891 44.2984 68.634 43.4498 68.634Z" fill="black" />
    <path d="M33.7033 66.2561L39.81 79.4852Z" fill="#FFF3E1" />
    <path d="M33.7033 66.2561L39.81 79.4852" stroke="black" stroke-width="5.75177" stroke-miterlimit="10" />
    <path d="M47.9531 66.2561L54.0599 79.4852Z" fill="#FFF3E1" />
    <path d="M47.9531 66.2561L54.0599 79.4852" stroke="black" stroke-width="5.75177" stroke-miterlimit="10" />
    <path d="M62.203 66.2561L68.3097 79.4852Z" fill="#FFF3E1" />
    <path d="M62.203 66.2561L68.3097 79.4852" stroke="black" stroke-width="5.75177" stroke-miterlimit="10" />
  </g>
  <g id="bn" fill="none" transform="scale(0.4 0.4)">
    <path d="M28.455 85.4493C33.8079 87.0501 41.5826 88.7343 51.0353 88.6385C59.7421 88.5497 66.95 86.9804 72.0685 85.4493C71.9781 85.1208 71.8395 84.5632 71.684 83.87C71.0966 81.2583 70.2303 75.7492 72.0685 69.9345C74.5891 61.9614 81.0732 52.0407 76.68 37.3967C72.0256 21.8818 50.3269 17.2397 50.3269 17.2397L50.6807 24.5035L25.334 42.8775C23.7256 44.0432 23.335 46.2666 24.431 47.9225C24.951 48.7083 25.4894 49.5967 25.9451 50.5089C26.3924 51.4027 28.501 54.644 29.8099 55.4873C30.8714 56.172 32.2393 56.1299 33.2664 55.3946C34.8265 54.2779 36.7857 51.7926 42.278 52.3241C56.8056 54.8041 60.4253 46.8801 60.4253 46.8801C60.4253 46.8801 58.1222 51.6103 48.7537 56.0142C38.9877 59.7602 32.6093 66.1379 29.3649 76.9325C27.817 82.0809 28.455 85.4493 28.455 85.4493Z" fill="#469140" />
    <path d="M26.1466 49.501L56.7512 32.7262C56.7512 32.7262 60.3808 30.9118 58.5657 27.2822C57.7546 25.6592 51.5531 18.6505 51.5531 18.6505V25.9097L24.3322 45.8714L26.1466 49.501Z" fill="#8DB962" />
    <path d="M63.0462 48.2916C56.7957 58.776 49.3013 64.2522 45.0666 69.0912C41.5312 73.1321 38.9831 82.7051 39.1845 86.7376C39.3063 89.1624 29.1711 84.7876 29.1711 84.7876L31.7928 72.2858L37.2368 62.0028L46.109 55.5501L63.0462 48.2916Z" fill="#8DB962" />
    <path d="M31.3578 83.1286C37.7691 84.8458 44.3658 85.6845 51.0047 85.614C56.9029 85.5543 62.7689 84.7792 68.4818 83.3086C67.7909 79.5902 67.4792 74.4181 69.1849 69.023C69.7218 67.3243 70.405 65.6002 71.1287 63.7751C73.8783 56.836 76.9948 48.9717 73.7833 38.266C70.8247 28.4042 59.5782 23.3631 53.5544 21.3219L53.7022 24.3557C53.752 25.3766 53.2832 26.3531 52.4561 26.9521L27.1086 45.3261C26.8175 45.5374 26.7486 45.9449 26.9531 46.2528C27.6202 47.26 28.1908 48.2372 28.6503 49.1571C29.0578 49.972 30.7581 52.4267 31.4535 52.9483C31.4696 52.9544 31.4918 52.9452 31.5064 52.9353C31.6626 52.8227 31.8633 52.6596 32.0946 52.4704C33.6915 51.1676 36.6624 48.7427 42.569 49.3133C42.6418 49.3202 42.7146 49.3302 42.7866 49.3424C51.7591 50.8742 55.6414 48.0266 57.0392 46.4718C57.5271 45.8744 57.7247 45.5168 57.7316 45.5045C57.7132 45.5382 57.7055 45.5558 57.7055 45.5558L59.0474 45.4111C60.8994 45.2104 62.6326 46.3547 63.1764 48.1361C63.1702 48.1492 63.1595 48.1721 63.1442 48.2035C63.1274 48.2388 63.1013 48.2901 63.0653 48.3575C62.9596 48.5574 62.7781 48.8737 62.5062 49.2659C61.2195 51.1477 57.7967 55.1051 50.0404 58.7515C49.9738 58.7829 49.9056 58.812 49.8367 58.8381C40.5539 62.398 35.1337 68.2472 32.2608 77.8033C31.5883 80.0428 31.3915 81.8818 31.3578 83.1286ZM50.2602 91.6669C42.5828 91.6669 34.9606 90.551 27.5888 88.3475C26.5058 88.0235 25.6932 87.1228 25.4833 86.0123C25.4037 85.5933 24.7572 81.7531 26.4683 76.0624C29.3404 66.5094 34.5569 59.8514 42.7077 55.4543C42.4358 55.4145 42.1623 55.3716 41.8843 55.3249C38.5327 55.0239 37.2039 56.1084 35.9195 57.1569C35.6346 57.3898 35.3389 57.6303 35.0272 57.8539C32.9754 59.3229 30.2832 59.3918 28.1709 58.0293C25.9528 56.5994 23.5287 52.4397 23.24 51.8615C22.8892 51.1599 22.4411 50.3963 21.9088 49.5921C19.9106 46.5737 20.6352 42.5481 23.5586 40.4289L47.5803 23.0153L47.3054 17.3867C47.2602 16.4485 47.6523 15.5424 48.3677 14.9351C49.0838 14.3262 50.0419 14.0857 50.9595 14.2818C51.9169 14.4863 74.4673 19.4945 79.5774 36.5274C83.3923 49.2459 79.5544 58.9315 76.752 66.0031C76.0696 67.7256 75.4247 69.3524 74.9529 70.8467C73.3789 75.825 74.0775 80.7283 74.635 83.2075C74.8234 84.0485 74.9506 84.5211 74.985 84.6459C75.4216 86.2321 74.5117 87.8765 72.9355 88.3475C65.8295 90.4721 58.4714 91.588 51.0659 91.6631C50.7979 91.6654 50.5283 91.6669 50.2602 91.6669Z" fill="black" />
    <path d="M31.5661 75.4045C36.2059 76.7985 42.9734 78.2698 51.2061 78.161C58.6093 78.0637 64.7442 76.7203 69.1236 75.4045" fill="#FFF3E1" />
    <path d="M31.5661 75.4045C36.2059 76.7985 42.9734 78.2698 51.2061 78.161C58.6093 78.0637 64.7442 76.7203 69.1236 75.4045" stroke="black" stroke-width="5.88212" stroke-miterlimit="10" stroke-linecap="round" stroke-linejoin="round" />
    <path d="M54.0514 36.4845C54.0514 38.1266 52.7203 39.4577 51.0782 39.4577C49.4361 39.4577 48.105 38.1266 48.105 36.4845C48.105 34.8424 49.4361 33.512 51.0782 33.512C52.7203 33.512 54.0514 34.8424 54.0514 36.4845Z" fill="black" />
  </g>
  <g id="bp" fill="none" transform="scale(0.4 0.4)">
    <path d="M73.0228 83.01C73.0228 65.181 58.3222 59.3424 60.0082 48.2105C64.2773 45.2442 67.0377 40.2578 66.8965 34.6329C66.6837 26.1411 59.7545 19.2227 51.2627 19.0229C42.2348 18.81 34.8505 26.0647 34.8505 35.044C34.8505 40.4954 37.5747 45.3082 41.7342 48.2036C43.6223 59.3424 28.9518 65.2535 28.9518 83.01C35.4583 84.9606 39.6795 86.905 51.0984 86.905C62.5172 86.905 66.5163 84.9606 73.0228 83.01Z" fill="#469140" />
    <path d="M50.6078 21.8011C50.6078 21.8011 45.6886 26.9185 45.4742 34.4377C45.259 41.957 48.2385 46.3949 48.2385 47.4693C48.2385 48.5437 48.3256 53.0796 47.2512 56.9468C46.1768 60.814 40.1431 74.5197 40.538 83.7998C40.8133 90.2685 29.565 81.7489 29.565 81.7489L31.0682 70.5777L42.2394 54.2504L41.3802 47.376L34.7202 37.064L38.5874 24.8183L50.6078 21.8011Z" fill="#8DB962" />
    <path d="M73.0228 83.01H73.0244H73.0228ZM32.2722 80.6638C32.3948 80.7023 32.5167 80.7417 32.6385 80.7794C37.7753 82.4014 41.833 83.6825 51.0984 83.6825C60.2412 83.6825 64.1747 82.4292 69.1541 80.8419C69.3361 80.7841 69.5189 80.7255 69.7032 80.6668C69.0993 73.4708 65.7628 68.6125 62.5257 63.8999C59.2416 59.1188 55.8456 54.1741 56.8221 47.7277C56.9547 46.8523 57.4422 46.0694 58.1695 45.5643C61.7251 43.0931 63.7837 39.0369 63.6749 34.7139C63.5068 27.996 57.9049 22.4027 51.1871 22.2445C47.7017 22.1574 44.4175 23.4547 41.9309 25.8842C39.4428 28.3138 38.073 31.567 38.073 35.044C38.073 39.2297 40.1292 43.1609 43.5745 45.5581C44.2849 46.0525 44.7669 46.8122 44.9112 47.6645C46.0141 54.1718 42.6212 59.1758 39.3394 64.0149C36.1556 68.7112 32.873 73.5518 32.2722 80.6638ZM51.0984 90.1274C40.8396 90.1274 35.9134 88.5725 30.698 86.9258C29.8372 86.6535 28.9479 86.3728 28.0262 86.0967C26.6634 85.6879 25.7294 84.433 25.7294 83.01C25.7294 72.6031 30.3185 65.8359 34.0052 60.3983C36.9831 56.0059 38.7818 53.1714 38.6777 49.9289C34.2374 46.2869 31.6281 40.8286 31.6281 35.044C31.6281 29.817 33.6875 24.9263 37.4274 21.2735C41.1658 17.6215 46.1051 15.6809 51.3382 15.8013C56.2768 15.9169 60.9368 17.9192 64.4608 21.4378C67.9848 24.9571 69.994 29.6141 70.1182 34.5519C70.2678 40.5232 67.6686 46.1543 63.1003 49.9089C63.0895 53.3365 65.2175 56.4347 67.8383 60.251C71.5836 65.7047 76.2453 72.4905 76.2453 83.01C76.2453 84.433 75.3112 85.6879 73.9484 86.0967C72.9634 86.3921 72.0217 86.6921 71.1116 86.9821C66.0366 88.6002 61.243 90.1274 51.0984 90.1274Z" fill="black" />
  </g>
  <g id="bq" fill="none" transform="scale(0.4 0.4)">
    <path d="M72.7887 87.6894H29.1053C29.9575 86.6329 32.4663 83.2438 32.4663 78.3144C32.4663 76.9938 32.2857 72.8826 29.1053 68.9394H72.7887C71.9364 69.9959 69.4284 73.385 69.4284 78.3144C69.4284 79.635 69.6082 83.7462 72.7887 87.6894Z" fill="#469140" />
    <path d="M38.8258 87.6894C39.5005 85.7422 40.9912 82.8081 41.0985 79.1667C41.2309 74.6597 39.5641 71.2646 38.8258 69.1288C36.8031 69.1288 33.664 68.9394 31.6414 68.9394L34.5888 79.1667L29.908 87.6894H38.8258Z" fill="#8DB962" />
    <path d="M33.8076 84.8485H68.0842C67.0381 82.194 66.8279 79.8036 66.8279 78.3144C66.8279 75.7916 67.3636 73.5958 68.0864 71.7803H33.8098C34.8559 74.4348 35.066 76.8251 35.066 78.3144C35.066 80.8372 34.5304 83.033 33.8076 84.8485ZM72.7879 90.5303H29.106C28.0836 90.5303 27.1566 89.8763 26.7364 88.859C26.3154 87.8411 26.4796 86.6492 27.1551 85.811C28.1672 84.5555 29.8658 81.9121 29.8658 78.3144C29.8658 76.7704 29.5136 73.7423 27.1544 70.8171C26.4796 69.9796 26.3154 68.787 26.7364 67.7697C27.1566 66.7525 28.0836 66.0985 29.106 66.0985H72.7879C73.8104 66.0985 74.7374 66.7525 75.1576 67.7697C75.5785 68.7877 75.415 69.9796 74.7388 70.8178C73.7268 72.0733 72.0281 74.7166 72.0281 78.3144C72.0281 79.8584 72.3803 82.8865 74.7388 85.8117C75.415 86.6492 75.5785 87.8418 75.1576 88.859C74.7374 89.8763 73.8104 90.5303 72.7879 90.5303Z" fill="black" />
    <path d="M29.5647 61.4206L22.8656 37.3735C23.4789 37.7427 32.4174 50.4498 36.9059 47.6326C40.4763 45.3917 39.7335 31.6895 40.0265 26.3258C41.5979 31.2959 46.861 44.0814 50.947 44.0814C55.033 44.0814 60.2961 31.2959 61.8675 26.3258C61.9666 26.9376 60.3849 44.7266 66.5476 47.6326C70.0676 49.2927 77.889 37.8766 79.0291 37.3735C77.8609 44.0415 73.5729 53.2456 72.4055 61.3881C71.784 65.7219 68.116 68.9394 63.7866 68.9394H38.1784C33.8623 68.9394 30.1972 65.7404 29.5647 61.4206Z" fill="#469140" />
    <path d="M28.7553 43.3712C41.2879 49.6212 29.9242 66.0985 55.8712 66.0985L36.9266 68.9394C34.8071 66.9567 30.4747 62.3535 28.7553 55.303C27.5073 50.1864 28.1494 45.8859 28.7553 43.3712Z" fill="#8DB962" />
    <path d="M28.3758 47.398L32.052 60.5935C32.0867 60.7178 32.1134 60.8443 32.1319 60.9723C32.5602 63.8946 35.1599 66.0985 38.1784 66.0985H63.7873C66.8146 66.0985 69.4158 63.8842 69.8368 60.9486C70.4797 56.4682 71.9482 51.8791 73.4168 47.4202C70.5951 50.0222 67.968 51.3968 65.5177 50.2404C62.3661 48.7549 60.3649 44.8235 59.5673 38.5535C56.5319 44.2627 53.7916 46.9223 50.947 46.9223C48.0913 46.9223 45.3421 44.2427 42.2933 38.4906C42.2874 38.4788 42.2807 38.4662 42.2748 38.4544C41.8834 44.1695 40.8913 48.4079 38.2013 50.0962C37.3291 50.6429 36.4139 50.8841 35.4773 50.8841C33.1306 50.8841 30.65 49.3719 28.3758 47.398ZM63.7873 71.7803H38.1784C35.5032 71.7803 32.9072 70.8 30.8675 69.0193C28.8315 67.243 27.474 64.7838 27.0293 62.0761L20.3783 38.2013C20.0698 37.0953 20.4057 35.8961 21.2277 35.1673C22.0489 34.4386 23.1926 34.3276 24.1189 34.8847C24.6168 35.1836 24.8994 35.5299 25.8367 36.6758C27.0537 38.1636 29.3198 40.9335 31.6162 42.9451C34.1671 45.1793 35.3745 45.277 35.5964 45.1771C35.6889 45.0809 36.4628 44.1621 36.9178 40.0509C37.2544 37.0028 37.2973 33.3548 37.3313 30.4229C37.3513 28.7538 37.3676 27.3119 37.4312 26.1563C37.5044 24.8032 38.4433 23.6957 39.6728 23.5115C40.9009 23.3273 42.0787 24.1166 42.4842 25.398C43.2595 27.8513 44.8235 31.8381 46.5687 35.2132C48.8806 39.6847 50.455 41.0386 50.947 41.2272C51.4389 41.0386 53.0133 39.6847 55.3252 35.2132C57.0705 31.8381 58.6344 27.8513 59.4098 25.398C59.7967 24.1744 60.8924 23.3931 62.0731 23.4937C63.2539 23.5958 64.223 24.5583 64.4287 25.833C64.4901 26.2133 64.479 26.4863 64.4435 27.3903C63.8938 41.2945 66.3937 44.2952 67.4154 44.9344C67.7061 44.8531 68.6168 44.4728 70.4619 42.7061C72.0355 41.1998 73.618 39.337 74.8898 37.8396C76.5736 35.8569 77.2032 35.1156 78.0547 34.7397C78.9373 34.3498 79.9442 34.5185 80.6796 35.1792C81.415 35.8391 81.7612 36.8859 81.5822 37.9076C81.0162 41.1399 79.8214 44.7621 78.5563 48.5973C77.0915 53.0392 75.5763 57.6327 74.9741 61.8275C74.5731 64.6255 73.2022 67.1742 71.1137 69.0052C69.0711 70.7949 66.4699 71.7803 63.7873 71.7803Z" fill="black" />
    <path d="M44.1288 21.2121C44.1288 24.036 41.839 26.3258 39.0152 26.3258C36.1913 26.3258 33.9015 24.036 33.9015 21.2121C33.9015 18.3882 36.1913 16.0985 39.0152 16.0985C41.839 16.0985 44.1288 18.3882 44.1288 21.2121Z" fill="#8DB962" />
    <path d="M44.1288 21.2121C44.1288 24.036 41.839 26.3258 39.0152 26.3258C36.1913 26.3258 33.9015 24.036 33.9015 21.2121C33.9015 18.3882 36.1913 16.0985 39.0152 16.0985C41.839 16.0985 44.1288 18.3882 44.1288 21.2121Z" stroke="black" stroke-width="5.68182" stroke-miterlimit="10" stroke-linejoin="round" />
    <path d="M67.9924 21.2121C67.9924 24.036 65.7027 26.3258 62.8788 26.3258C60.0549 26.3258 57.7652 24.036 57.7652 21.2121C57.7652 18.3882 60.0549 16.0985 62.8788 16.0985C65.7027 16.0985 67.9924 18.3882 67.9924 21.2121Z" fill="#8DB962" />
    <path d="M67.9924 21.2121C67.9924 24.036 65.7027 26.3258 62.8788 26.3258C60.0549 26.3258 57.7652 24.036 57.7652 21.2121C57.7652 18.3882 60.0549 16.0985 62.8788 16.0985C65.7027 16.0985 67.9924 18.3882 67.9924 21.2121Z" stroke="black" stroke-width="5.68182" stroke-miterlimit="10" stroke-linejoin="round" />
    <path d="M86.7424 31.4394C86.7424 34.2633 84.4527 36.553 81.6288 36.553C78.8049 36.553 76.5152 34.2633 76.5152 31.4394C76.5152 28.6155 78.8049 26.3258 81.6288 26.3258C84.4527 26.3258 86.7424 28.6155 86.7424 31.4394Z" fill="#8DB962" />
    <path d="M86.7424 31.4394C86.7424 34.2633 84.4527 36.553 81.6288 36.553C78.8049 36.553 76.5152 34.2633 76.5152 31.4394C76.5152 28.6155 78.8049 26.3258 81.6288 26.3258C84.4527 26.3258 86.7424 28.6155 86.7424 31.4394Z" stroke="black" stroke-width="5.68182" stroke-miterlimit="10" stroke-linejoin="round" />
    <path d="M25.3788 31.4394C25.3788 34.2633 23.089 36.553 20.2652 36.553C17.4413 36.553 15.1515 34.2633 15.1515 31.4394C15.1515 28.6155 17.4413 26.3258 20.2652 26.3258C23.089 26.3258 25.3788 28.6155 25.3788 31.4394Z" fill="#8DB962" />
    <path d="M25.3788 31.4394C25.3788 34.2633 23.089 36.553 20.2652 36.553C17.4413 36.553 15.1515 34.2633 15.1515 31.4394C15.1515 28.6155 17.4413 26.3258 20.2652 26.3258C23.089 26.3258 25.3788 28.6155 25.3788 31.4394Z" stroke="black" stroke-width="5.68182" stroke-miterlimit="10" stroke-linejoin="round" />
    <path d="M32.2258 79.1667H69.6681" stroke="black" stroke-width="5.68182" stroke-miterlimit="10" stroke-linejoin="round" />
  </g>
  <g id="br" fill="none" transform="scale(0.4 0.4)">
    <path d="M31.293 52.1566C31.3893 38.5523 22.6418 27.2731 25.2169 19.1329H76.7717C79.3468 27.2731 70.5993 38.5523 70.6956 52.1566C70.7966 66.5111 79.4253 78.4418 76.7717 86.8321H25.2169C22.5626 78.4418 31.1912 66.5111 31.293 52.1566Z" fill="#469140" />
    <path d="M39.9489 19.4831C38.012 30.4579 41.1417 44.3985 41.1417 53.8767C41.1417 63.1298 37.5143 73.9671 38.1596 86.8787L26.1636 86.8321L30.0085 53.8767L26.1636 19.0467L39.9489 19.4831Z" fill="#8DB962" />
    <path d="M71.4413 71.92C69.6031 66.1088 67.5195 59.5233 67.4675 52.1799C67.417 45.0609 69.5441 38.7138 71.4203 33.1138C72.8026 28.987 74.0374 25.3021 74.018 22.3604H27.9701C27.9507 25.3021 29.1854 28.987 30.5678 33.1138C32.444 38.7138 34.5711 45.0609 34.5206 52.1799C34.4686 59.5233 32.385 66.1096 30.5468 71.92C29.1233 76.4219 27.8536 80.4346 27.9421 83.6038H74.0467C74.1345 80.4346 72.8656 76.4219 71.4413 71.92ZM22.1394 87.8052C20.4449 82.4498 22.3623 76.3893 24.3916 69.9731C26.0923 64.5976 28.0198 58.5044 28.0648 52.1341C28.1083 46.0914 26.2468 40.5365 24.4467 35.1648C22.4136 29.0965 20.4923 23.3645 22.1394 18.159C22.5635 16.8171 23.8091 15.9046 25.2171 15.9046H76.7718C78.179 15.9046 79.4246 16.8171 79.8494 18.159C81.4958 23.3645 79.5753 29.0965 77.5414 35.1648C75.7413 40.5365 73.8806 46.0914 73.9233 52.1341C73.9683 58.5044 75.8958 64.5968 77.5965 69.9731C79.6266 76.3885 81.5432 82.4498 79.8494 87.8052C79.4246 89.1471 78.179 90.0596 76.7718 90.0596H25.2171C23.8091 90.0596 22.5635 89.1471 22.1394 87.8052Z" fill="black" />
    <path d="M41.0866 20.7839V32.3419" stroke="black" stroke-width="5.96421" stroke-miterlimit="10" stroke-linejoin="round" />
    <path d="M60.9013 20.7839V32.3419" stroke="black" stroke-width="5.96421" stroke-miterlimit="10" stroke-linejoin="round" />
    <path d="M26.1287 75.2035H75.8592" stroke="black" stroke-width="5.96421" stroke-miterlimit="10" stroke-linejoin="round" />
    <path d="M29.5286 43.9007H72.4601" stroke="black" stroke-width="5.96421" stroke-miterlimit="10" stroke-linejoin="round" />
  </g>
  <g id="wb" fill="none" transform="scale(0.4 0.4)">
    <path d="M57.7594 17.5572C57.7594 21.3173 54.7117 24.365 50.9517 24.365C47.1917 24.365 44.144 21.3173 44.144 17.5572C44.144 13.7972 47.1917 10.7495 50.9517 10.7495C54.7117 10.7495 57.7594 13.7972 57.7594 17.5572Z" fill="#FFF3E1" />
    <path d="M57.7594 17.5572C57.7594 21.3173 54.7117 24.365 50.9517 24.365C47.1917 24.365 44.144 21.3173 44.144 17.5572C44.144 13.7972 47.1917 10.7495 50.9517 10.7495C54.7117 10.7495 57.7594 13.7972 57.7594 17.5572Z" stroke="black" stroke-width="5.86335" stroke-miterlimit="10" stroke-linejoin="round" />
    <path d="M71.0084 41.016C59.9605 44.0186 52.5847 62.7936 52.5847 62.7936C52.5847 62.7936 53.4986 45.8838 61.3499 31.5025C55.8981 27.1508 51.0654 24.4581 51.0654 24.4581C51.0654 24.4581 25.2644 38.5553 25.4415 54.6925C25.6194 70.8297 38.3867 83.4199 36.7911 86.7898C35.1947 90.1589 66.9369 89.9818 65.3405 86.7898C63.7449 83.5978 76.3351 70.6526 76.513 54.6925C76.5664 49.8629 74.2554 45.1883 71.0084 41.016Z" fill="#E9CAAF" />
    <path d="M51.8877 25.7545C42.0177 42.7582 39.6724 50.3805 39.6724 55.6575C39.6724 66.7826 49.6401 84.5834 44.8517 87.3196H37.8157L29.0206 69.7296L25.5026 57.4165L27.2616 46.8625L34.2976 38.0675L51.8877 25.7545Z" fill="#FFF3E1" />
    <path d="M39.8419 85.5163C41.678 85.9194 45.4525 86.3187 50.744 86.3187C50.8563 86.3187 50.9685 86.3187 51.0815 86.3187C56.5272 86.3012 60.417 85.8782 62.3012 85.4637C62.5516 83.4451 63.8824 81.0471 65.7055 77.7627C68.9861 71.8505 73.4805 63.7532 73.5813 54.6597C73.6164 51.5188 72.3964 48.1215 69.9526 44.5386C62.8876 47.9756 57.0731 59.4031 55.3125 63.8678C54.785 65.2053 53.3634 65.965 51.9602 65.6573C50.5547 65.3504 49.5798 64.0716 49.6569 62.6355C49.6935 61.9538 50.6028 46.548 57.6212 32.324C54.9003 30.2825 52.4946 28.7388 51.0532 27.8563C48.8499 29.1832 44.402 32.0263 40.0259 35.8092C34.6664 40.4434 28.2938 47.4756 28.3732 54.6605C28.474 63.8349 33.0211 71.8405 36.3414 77.6863C38.2417 81.0318 39.6159 83.4512 39.8419 85.5163ZM50.7654 92.1821C47.5535 92.1821 44.4493 92.0355 41.9849 91.766C37.5637 91.2827 36.0994 90.5391 35.2512 89.8749C33.9984 88.8946 33.5151 87.37 33.9701 85.9645C33.7495 84.9949 32.3669 82.561 31.243 80.5821C27.8121 74.5416 22.6274 65.4138 22.5099 54.7246C22.4266 47.1282 27.057 39.2486 36.2727 31.3033C42.8613 25.6239 49.3858 22.0349 49.6599 21.8853C50.5432 21.402 51.6136 21.4066 52.4931 21.8967C52.6985 22.012 57.6006 24.7589 63.1792 29.2114C64.2916 30.0993 64.6053 31.6583 63.9228 32.9081C61.4011 37.527 59.6223 42.4581 58.3732 46.9602C62.1394 42.2512 66.1162 39.3074 70.2397 38.1866C71.3795 37.8766 72.5957 38.282 73.3225 39.2157C77.4398 44.5065 79.4996 49.7247 79.4439 54.7254C79.3263 65.3015 74.215 74.5126 70.8321 80.6081C69.7404 82.5755 68.3982 84.9926 68.1638 85.9683C68.6043 87.3234 68.1592 88.7977 66.9736 89.7673C66.1544 90.4361 64.7244 91.1896 60.3208 91.7011C57.7625 91.9973 54.514 92.1683 51.1731 92.1813C51.0372 92.1821 50.9013 92.1821 50.7654 92.1821Z" fill="black" />
    <path d="M31.7568 75.1043C34.8023 79.8607 67.2301 80.7409 70.4549 75.1043" stroke="black" stroke-width="5.86335" stroke-miterlimit="10" stroke-linecap="round" stroke-linejoin="round" />
  </g>
  <g id="wk" fill="none" transform="scale(0.4 0.4)">
    <path d="M75.4115 89.2488H26.5432C25.4635 89.2488 24.5884 88.3737 24.5884 87.2941V82.4072C24.5884 81.3283 25.4635 80.4525 26.5432 80.4525H75.4115C76.4912 80.4525 77.3662 81.3283 77.3662 82.4072V87.2941C77.3662 88.3737 76.4912 89.2488 75.4115 89.2488Z" fill="#E9CAAF" />
    <path d="M31.6255 88.6624H24.5884V79.8661H31.6255V88.6624Z" fill="#FFF3E1" />
    <path d="M27.5205 86.3167H74.4341V83.3846H27.5205V86.3167ZM75.4115 92.1809H26.5432C23.8485 92.1809 21.6563 89.9887 21.6563 87.2941V82.4072C21.6563 79.7126 23.8485 77.5204 26.5432 77.5204H75.4115C78.1061 77.5204 80.2983 79.7126 80.2983 82.4072V87.2941C80.2983 89.9887 78.1061 92.1809 75.4115 92.1809Z" fill="black" />
    <path d="M77.1707 80.4525H24.7839C23.7042 80.4525 22.8292 79.5775 22.8292 78.4978V69.506C22.8292 68.4271 23.7042 67.5513 24.7839 67.5513H77.1707C78.2504 67.5513 79.1255 68.4271 79.1255 69.506V78.4978C79.1255 79.5775 78.2504 80.4525 77.1707 80.4525Z" fill="#E9CAAF" />
    <path d="M30.2572 78.1068H23.4156V69.3105H30.2572V78.1068Z" fill="#FFF3E1" />
    <path d="M25.7613 77.5204H76.1934V70.4834H25.7613V77.5204ZM77.1707 83.3846H24.7839C22.0893 83.3846 19.8971 81.1924 19.8971 78.4978V69.506C19.8971 66.8114 22.0893 64.6192 24.7839 64.6192H77.1707C79.8654 64.6192 82.0576 66.8114 82.0576 69.506V78.4978C82.0576 81.1924 79.8654 83.3846 77.1707 83.3846Z" fill="black" />
    <path d="M50.9773 34.8278V10.751" stroke="black" stroke-width="5.8642" stroke-miterlimit="10" stroke-linecap="round" />
    <path d="M43.9403 17.7881H58.0144" stroke="black" stroke-width="5.8642" stroke-miterlimit="10" stroke-linecap="round" />
    <path d="M53.517 26.9509H48.7958C47.7856 26.9509 46.8732 27.551 46.4723 28.4772L43.5432 35.2455C43.2661 35.8869 43.2661 36.6146 43.5432 37.256L46.4723 44.0242C46.8732 44.9504 47.7856 45.5498 48.7958 45.5498H53.517C54.5264 45.5498 55.4396 44.9504 55.8405 44.0242L58.7688 37.256C59.0459 36.6146 59.0459 35.8869 58.7688 35.2455L55.8405 28.4772C55.4396 27.551 54.5264 26.9509 53.517 26.9509Z" fill="#E9CAAF" />
    <path d="M49.0585 42.6177H53.2543L56.0092 36.2504L53.2543 29.883H49.0585L46.3028 36.2504L49.0585 42.6177ZM53.517 48.4819H48.7951C46.6151 48.4819 44.6466 47.1892 43.7807 45.1879L40.8524 38.4204C40.2561 37.0422 40.2561 35.4601 40.8524 34.0811L43.7807 27.3128C44.6466 25.3123 46.6151 24.0188 48.7951 24.0188H53.517C55.6977 24.0188 57.6654 25.3123 58.5313 27.3128L61.4596 34.0811C62.0559 35.4601 62.0559 37.0422 61.4596 38.4204L58.5313 45.1879C57.6654 47.1892 55.6977 48.4819 53.517 48.4819Z" fill="black" />
    <path d="M74.5838 35.4967C80.9122 35.4967 86.0419 40.2102 86.0419 46.024C86.0419 58.306 76.4935 65.3239 74.5838 67.0786C72.6741 68.8333 63.1249 67.0786 63.1249 67.0786V46.024C63.1249 40.2102 68.2553 35.4967 74.5838 35.4967Z" fill="#E9CAAF" />
    <path d="M84.7942 36.862C80.2983 45.4628 71.6975 35.8846 68.179 65.0101C68.179 65.0101 70.3292 70.278 66.8107 65.2056C63.2921 60.1332 67.2016 50.7306 67.2016 45.6583C67.2016 40.5859 71.502 37.4232 75.0205 35.7327C78.5391 34.0421 85.5761 36.862 84.7942 36.862Z" fill="#FFF3E1" />
    <path d="M66.057 64.681C69.0013 65.0636 71.8105 65.1628 72.7405 64.8765C72.9047 64.7314 73.0918 64.5703 73.2995 64.3924C75.9819 62.0872 83.1098 55.9649 83.1098 46.024C83.1098 41.7732 79.2851 38.315 74.5838 38.315C69.8817 38.315 66.057 41.7732 66.057 46.024V64.681ZM70.7804 70.6788C69.9153 70.6788 68.954 70.633 67.8842 70.5437C65.1407 70.3146 62.6782 69.8656 62.5744 69.8466L60.1928 69.409V46.024C60.1928 38.6655 66.6488 32.6792 74.5838 32.6792C82.5188 32.6792 88.974 38.6655 88.974 46.024C88.974 58.487 80.1173 66.0944 77.2066 68.5951C76.9577 68.8089 76.7424 68.9937 76.6095 69.1158C75.4512 70.1802 73.6431 70.6788 70.7804 70.6788Z" fill="black" />
    <path d="M62.4354 34.7935C68.7639 34.7935 73.8943 39.5062 73.8943 45.3208C73.8943 57.6027 64.3459 64.6207 62.4354 66.3754C60.5257 68.1293 50.9773 66.3754 50.9773 66.3754V45.3208C50.9773 39.5062 56.1077 34.7935 62.4354 34.7935Z" fill="#E9CAAF" />
    <path d="M69.5473 36.862C61.9238 41.1624 58.6008 37.0574 57.6234 66.9649C57.6234 66.9649 56.0596 69.887 52.5411 64.8146C49.0226 59.7423 51.1728 50.7306 51.1728 45.6583C51.1728 40.5859 55.4732 37.4232 58.9917 35.7327C62.5103 34.0421 69.5473 36.862 69.5473 36.862Z" fill="#FFF3E1" />
    <path d="M53.9094 63.9778C56.853 64.3603 59.6629 64.4596 60.5922 64.1732C60.7571 64.0274 60.9434 63.8671 61.1511 63.6891C63.8343 61.3847 70.9622 55.2617 70.9622 45.3208C70.9622 41.07 67.1375 37.611 62.4354 37.611C57.7341 37.611 53.9094 41.07 53.9094 45.3208V63.9778ZM58.6329 69.9756C57.767 69.9756 56.8056 69.9298 55.7366 69.8404C52.9932 69.6114 50.5306 69.1616 50.4268 69.1433L48.0452 68.7058V45.3208C48.0452 37.9623 54.5004 31.9751 62.4354 31.9751C70.3704 31.9751 76.8264 37.9623 76.8264 45.3208C76.8264 57.7837 67.969 65.3919 65.0583 67.8918C64.8094 68.1056 64.594 68.2904 64.4612 68.4126C63.3036 69.4762 61.4955 69.9756 58.6329 69.9756Z" fill="black" />
    <path d="M27.3709 35.4967C21.0432 35.4967 15.9128 40.2102 15.9128 46.024C15.9128 58.306 25.4612 65.3239 27.3709 67.0786C29.2806 68.8333 38.8297 67.0786 38.8297 67.0786V46.024C38.8297 40.2102 33.6993 35.4967 27.3709 35.4967Z" fill="#E9CAAF" />
    <path d="M28.8889 35.1691C16.574 42.7262 22.8292 53.9559 31.6255 65.792C31.6255 65.792 27.1296 68.9852 23.6111 63.9136C20.0926 58.8405 14.8148 52.0776 14.8148 47.0052C14.8148 41.9328 18.3333 36.8597 21.8518 35.1691C25.3703 33.4786 28.8889 35.1691 28.8889 35.1691Z" fill="#FFF3E1" />
    <path d="M29.2141 64.8765C30.1442 65.1628 32.9533 65.0636 35.8976 64.681V46.024C35.8976 41.7732 32.0722 38.315 27.3709 38.315C22.6696 38.315 18.8449 41.7732 18.8449 46.024C18.8449 55.9649 25.9728 62.0872 28.656 64.3924C28.8629 64.5703 29.05 64.7314 29.2141 64.8765ZM31.1742 70.6788C28.3108 70.6788 26.5035 70.1802 25.3451 69.1158C25.2123 68.9937 24.997 68.8089 24.7473 68.5951C21.8373 66.0944 12.9807 58.487 12.9807 46.024C12.9807 38.6655 19.4367 32.6792 27.3709 32.6792C35.3059 32.6792 41.7618 38.6655 41.7618 46.024V69.409L39.3803 69.8466C39.2764 69.8656 36.8139 70.3146 34.0704 70.5437C33.0007 70.633 32.0393 70.6788 31.1742 70.6788Z" fill="black" />
    <path d="M39.5192 34.7935C33.1908 34.7935 28.0604 39.5062 28.0604 45.3208C28.0604 57.6027 37.6088 64.6207 39.5192 66.3754C41.4289 68.1293 50.9773 66.3754 50.9773 66.3754V45.3208C50.9773 39.5062 45.8469 34.7935 39.5192 34.7935Z" fill="#E9CAAF" />
    <path d="M42.7675 34.9072C35.7304 41.4419 36.9033 53.1741 45.6996 65.0101C45.6996 65.0101 42.181 70.1359 38.6625 65.0636C35.144 59.9904 29.0843 51.3171 29.0843 46.2447C29.0843 41.1723 33.3847 38.0096 36.9033 36.3191C40.4218 34.6285 42.7675 34.9072 42.7675 34.9072Z" fill="#FFF3E1" />
    <path d="M41.3625 64.1732C42.2941 64.4603 45.104 64.3618 48.0452 63.9793V45.3208C48.0452 41.07 44.2205 37.611 39.5192 37.611C34.818 37.611 30.9925 41.07 30.9925 45.3208C30.9925 55.2617 38.1204 61.3847 40.8043 63.6891C41.0113 63.8671 41.1976 64.0274 41.3625 64.1732ZM43.3218 69.9756C40.4592 69.9756 38.6518 69.4762 37.4927 68.4126C37.3606 68.2904 37.1453 68.1056 36.8964 67.8918C33.9857 65.3919 25.1283 57.7837 25.1283 45.3208C25.1283 37.9623 31.5843 31.9751 39.5192 31.9751C47.4535 31.9751 53.9094 37.9623 53.9094 45.3208V68.7058L51.5279 69.1433C51.4248 69.1616 48.9623 69.6114 46.218 69.8404C45.149 69.9298 44.1869 69.9756 43.3218 69.9756Z" fill="black" />
    <path d="M33.3847 67.5513L39.6109 81.0389Z" fill="#FFF3E1" />
    <path d="M33.3847 67.5513L39.6109 81.0389" stroke="black" stroke-width="5.8642" stroke-miterlimit="10" />
    <path d="M47.9131 67.5513L54.1393 81.0389Z" fill="#FFF3E1" />
    <path d="M47.9131 67.5513L54.1393 81.0389" stroke="black" stroke-width="5.8642" stroke-miterlimit="10" />
    <path d="M62.4415 67.5513L68.6677 81.0389Z" fill="#FFF3E1" />
    <path d="M62.4415 67.5513L68.6677 81.0389" stroke="black" stroke-width="5.8642" stroke-miterlimit="10" />
  </g>
  <g id="wn" fill="none" transform="scale(0.4 0.4)">
    <path d="M28.455 85.4493C33.8079 87.0501 41.5826 88.7343 51.0353 88.6385C59.7421 88.5497 66.95 86.9804 72.0685 85.4493C71.9781 85.1208 71.8395 84.5632 71.684 83.87C71.0966 81.2583 70.2303 75.7492 72.0685 69.9345C74.5891 61.9614 81.0732 52.0407 76.68 37.3967C72.0256 21.8818 50.3269 17.2397 50.3269 17.2397L50.6807 24.5035L25.334 42.8775C23.7256 44.0432 23.335 46.2666 24.431 47.9225C24.951 48.7083 25.4894 49.5967 25.9451 50.5089C26.3924 51.4027 28.501 54.644 29.8099 55.4873C30.8714 56.172 32.2393 56.1299 33.2664 55.3946C34.8265 54.2779 36.7857 51.7926 42.278 52.3241C56.8056 54.8041 60.4253 46.8801 60.4253 46.8801C60.4253 46.8801 58.1222 51.6103 48.7537 56.0142C38.9877 59.7602 32.6093 66.1379 29.3649 76.9325C27.817 82.0809 28.455 85.4493 28.455 85.4493Z" fill="#E9CAAF" />
    <path d="M26.1466 49.501L56.7512 32.7262C56.7512 32.7262 60.3808 30.9118 58.5657 27.2822C57.7546 25.6592 51.5531 18.6505 51.5531 18.6505V25.9097L24.3322 45.8714L26.1466 49.501Z" fill="#FFF3E1" />
    <path d="M63.0462 48.2916C56.7957 58.776 49.3013 64.2522 45.0666 69.0912C41.5312 73.1321 38.9831 82.7051 39.1845 86.7376C39.3063 89.1624 29.1711 84.7876 29.1711 84.7876L31.7928 72.2858L37.2368 62.0028L46.109 55.5501L63.0462 48.2916Z" fill="#FFF3E1" />
    <path d="M31.3578 83.1286C37.7691 84.8458 44.3658 85.6845 51.0047 85.614C56.9029 85.5543 62.7689 84.7792 68.4818 83.3086C67.7909 79.5902 67.4792 74.4181 69.1849 69.023C69.7218 67.3243 70.405 65.6002 71.1287 63.7751C73.8783 56.836 76.9948 48.9717 73.7833 38.266C70.8247 28.4042 59.5782 23.3631 53.5544 21.3219L53.7022 24.3557C53.752 25.3766 53.2832 26.3531 52.4561 26.9521L27.1086 45.3261C26.8175 45.5374 26.7486 45.9449 26.9531 46.2528C27.6202 47.26 28.1908 48.2372 28.6503 49.1571C29.0578 49.972 30.7581 52.4267 31.4535 52.9483C31.4696 52.9544 31.4918 52.9452 31.5064 52.9353C31.6626 52.8227 31.8633 52.6596 32.0946 52.4704C33.6915 51.1676 36.6624 48.7427 42.569 49.3133C42.6418 49.3202 42.7146 49.3302 42.7866 49.3424C51.7591 50.8742 55.6414 48.0266 57.0392 46.4718C57.5271 45.8744 57.7247 45.5168 57.7316 45.5045C57.7132 45.5382 57.7055 45.5558 57.7055 45.5558L59.0474 45.4111C60.8994 45.2104 62.6326 46.3547 63.1764 48.1361C63.1703 48.1492 63.1595 48.1721 63.1442 48.2035C63.1274 48.2388 63.1013 48.2901 63.0653 48.3575C62.9596 48.5574 62.7781 48.8737 62.5062 49.2659C61.2195 51.1477 57.7967 55.1051 50.0404 58.7515C49.9738 58.7829 49.9056 58.812 49.8367 58.8381C40.554 62.398 35.1337 68.2472 32.2608 77.8033C31.5883 80.0428 31.3915 81.8818 31.3578 83.1286ZM50.2602 91.6669C42.5828 91.6669 34.9606 90.551 27.5888 88.3475C26.5058 88.0235 25.6932 87.1228 25.4833 86.0123C25.4037 85.5933 24.7572 81.7531 26.4683 76.0624C29.3404 66.5094 34.5569 59.8514 42.7077 55.4543C42.4358 55.4145 42.1623 55.3716 41.8843 55.3249C38.5327 55.0239 37.2039 56.1084 35.9195 57.1569C35.6346 57.3898 35.3389 57.6303 35.0272 57.8539C32.9754 59.3229 30.2832 59.3918 28.1709 58.0293C25.9528 56.5994 23.5287 52.4397 23.24 51.8615C22.8892 51.1599 22.4412 50.3963 21.9089 49.5921C19.9106 46.5737 20.6352 42.5481 23.5586 40.4289L47.5803 23.0153L47.3054 17.3867C47.2602 16.4485 47.6523 15.5424 48.3677 14.9351C49.0838 14.3262 50.0419 14.0857 50.9595 14.2818C51.9169 14.4863 74.4673 19.4945 79.5774 36.5274C83.3923 49.2459 79.5544 58.9315 76.752 66.0031C76.0696 67.7256 75.4247 69.3524 74.9529 70.8467C73.379 75.825 74.0775 80.7283 74.635 83.2075C74.8234 84.0485 74.9506 84.5211 74.985 84.6459C75.4216 86.2321 74.5117 87.8765 72.9355 88.3475C65.8295 90.4721 58.4714 91.588 51.0659 91.6631C50.7979 91.6654 50.5283 91.6669 50.2602 91.6669Z" fill="black" />
    <path d="M31.5661 75.4045C36.2059 76.7985 42.9734 78.2698 51.2061 78.161C58.6093 78.0637 64.7442 76.7203 69.1236 75.4045" fill="#FFF3E1" />
    <path d="M31.5661 75.4045C36.2059 76.7985 42.9734 78.2698 51.2061 78.161C58.6093 78.0637 64.7442 76.7203 69.1236 75.4045" stroke="black" stroke-width="5.88212" stroke-miterlimit="10" stroke-linecap="round" stroke-linejoin="round" />
    <path d="M54.0514 36.4845C54.0514 38.1266 52.7203 39.4577 51.0782 39.4577C49.4361 39.4577 48.105 38.1266 48.105 36.4845C48.105 34.8424 49.4361 33.512 51.0782 33.512C52.7203 33.512 54.0514 34.8424 54.0514 36.4845Z" fill="black" />
  </g>
  <g id="wp" fill="none" transform="scale(0.4 0.4)">
    <path d="M73.0228 83.01C73.0228 65.181 58.3222 59.3424 60.0082 48.2105C64.2773 45.2442 67.0377 40.2578 66.8965 34.6329C66.6837 26.1411 59.7545 19.2227 51.2627 19.0229C42.2348 18.81 34.8505 26.0647 34.8505 35.044C34.8505 40.4954 37.5747 45.3082 41.7342 48.2036C43.6223 59.3424 28.9518 65.2535 28.9518 83.01C35.4583 84.9606 39.6795 86.905 51.0984 86.905C62.5172 86.905 66.5163 84.9606 73.0228 83.01Z" fill="#E9CAAF" />
    <path d="M50.6078 21.8011C50.6078 21.8011 45.6886 26.9185 45.4742 34.4377C45.259 41.957 48.2384 46.3949 48.2384 47.4693C48.2384 48.5437 48.3256 53.0796 47.2512 56.9468C46.1768 60.814 40.1431 74.5197 40.538 83.7998C40.8133 90.2685 29.5649 81.7489 29.5649 81.7489L31.0682 70.5777L42.2394 54.2504L41.3802 47.376L34.7202 37.064L38.5874 24.8183L50.6078 21.8011Z" fill="#FFF3E1" />
    <path d="M73.0228 83.01H73.0244H73.0228ZM32.2722 80.6638C32.3948 80.7023 32.5167 80.7417 32.6385 80.7794C37.7753 82.4014 41.833 83.6825 51.0984 83.6825C60.2412 83.6825 64.1747 82.4292 69.1541 80.8419C69.3361 80.7841 69.5189 80.7255 69.7032 80.6668C69.0993 73.4708 65.7628 68.6125 62.5257 63.8999C59.2416 59.1188 55.8456 54.1741 56.8221 47.7277C56.9547 46.8523 57.4422 46.0694 58.1695 45.5643C61.7251 43.0931 63.7837 39.0369 63.6749 34.7139C63.5068 27.996 57.9049 22.4027 51.1871 22.2445C47.7017 22.1574 44.4175 23.4547 41.9309 25.8842C39.4428 28.3138 38.073 31.567 38.073 35.044C38.073 39.2297 40.1292 43.1609 43.5745 45.5581C44.2849 46.0525 44.7669 46.8122 44.9112 47.6645C46.0141 54.1718 42.6212 59.1758 39.3394 64.0149C36.1556 68.7112 32.873 73.5518 32.2722 80.6638ZM51.0984 90.1274C40.8396 90.1274 35.9134 88.5725 30.698 86.9258C29.8372 86.6535 28.9479 86.3728 28.0262 86.0967C26.6634 85.6879 25.7294 84.433 25.7294 83.01C25.7294 72.6031 30.3185 65.8359 34.0052 60.3983C36.9831 56.0059 38.7818 53.1714 38.6777 49.9289C34.2374 46.2869 31.6281 40.8286 31.6281 35.044C31.6281 29.817 33.6875 24.9263 37.4274 21.2735C41.1658 17.6215 46.1051 15.6809 51.3382 15.8013C56.2768 15.9169 60.9368 17.9192 64.4608 21.4378C67.9848 24.9571 69.994 29.6141 70.1182 34.5519C70.2678 40.5232 67.6686 46.1543 63.1003 49.9089C63.0895 53.3365 65.2175 56.4347 67.8383 60.251C71.5836 65.7047 76.2453 72.4905 76.2453 83.01C76.2453 84.433 75.3112 85.6879 73.9484 86.0967C72.9634 86.3921 72.0217 86.6921 71.1116 86.9821C66.0366 88.6002 61.243 90.1274 51.0984 90.1274Z" fill="black" />
  </g>
  <g id="wq" fill="none" transform="scale(0.09803921568627451 0.09803921568627451)">
    <path d="M296.978 357.773H118.749C122.227 353.462 132.462 339.635 132.462 319.523C132.462 314.135 131.726 297.361 118.749 281.273H296.978C293.501 285.583 283.268 299.411 283.268 319.523C283.268 324.911 284.001 341.684 296.978 357.773Z" fill="#E9CAAF" />
    <path d="M158.409 357.773C161.162 349.828 167.244 337.857 167.682 323C168.222 304.611 161.421 290.76 158.409 282.045C150.157 282.045 137.349 281.273 129.097 281.273L141.122 323L122.024 357.773H158.409Z" fill="#FFF3E1" />
    <path d="M137.935 346.182H277.783C273.515 335.352 272.658 325.599 272.658 319.523C272.658 309.23 274.843 300.271 277.792 292.864H137.944C142.212 303.694 143.069 313.447 143.069 319.523C143.069 329.816 140.884 338.775 137.935 346.182ZM296.975 369.364H118.752C114.581 369.364 110.799 366.695 109.084 362.545C107.367 358.392 108.037 353.529 110.793 350.109C114.922 344.987 121.852 334.202 121.852 319.523C121.852 313.223 120.416 300.869 110.79 288.934C108.037 285.517 107.367 280.651 109.084 276.501C110.799 272.35 114.581 269.682 118.752 269.682H296.975C301.146 269.682 304.928 272.35 306.643 276.501C308.36 280.654 307.693 285.517 304.934 288.937C300.805 294.059 293.875 304.844 293.875 319.523C293.875 325.822 295.312 338.177 304.934 350.112C307.693 353.529 308.36 358.395 306.643 362.545C304.928 366.695 301.146 369.364 296.975 369.364Z" fill="black" />
    <path d="M120.624 250.596L93.2917 152.484C95.7941 153.99 132.263 205.835 150.576 194.341C165.143 185.198 162.113 129.293 163.308 107.409C169.719 127.687 191.193 179.852 207.864 179.852C224.535 179.852 246.008 127.687 252.419 107.409C252.824 109.905 246.37 182.484 271.514 194.341C285.876 201.114 317.787 154.536 322.439 152.484C317.672 179.689 300.177 217.242 295.414 250.463C292.879 268.145 277.913 281.273 260.249 281.273H155.768C138.158 281.273 123.205 268.221 120.624 250.596Z" fill="#E9CAAF" />
    <path d="M117.322 176.955C168.455 202.455 122.091 269.682 227.955 269.682L150.661 281.273C142.013 273.183 124.337 254.402 117.322 225.636C112.23 204.761 114.85 187.214 117.322 176.955Z" fill="#FFF3E1" />
    <path d="M115.773 193.384L130.772 247.221C130.914 247.729 131.023 248.245 131.098 248.767C132.846 260.69 143.453 269.682 155.768 269.682H260.252C272.604 269.682 283.217 260.648 284.934 248.67C287.557 230.39 293.549 211.667 299.54 193.475C288.028 204.091 277.309 209.699 267.312 204.981C254.454 198.92 246.289 182.88 243.035 157.298C230.65 180.592 219.47 191.443 207.864 191.443C196.212 191.443 184.996 180.51 172.557 157.042C172.532 156.993 172.505 156.942 172.481 156.894C170.884 180.211 166.837 197.504 155.861 204.392C152.303 206.623 148.569 207.607 144.747 207.607C135.173 207.607 125.052 201.437 115.773 193.384ZM260.252 292.864H155.768C144.853 292.864 134.261 288.864 125.939 281.599C117.633 274.351 112.094 264.318 110.28 253.27L83.1436 155.862C81.8849 151.349 83.2553 146.456 86.6088 143.483C89.9593 140.51 94.6259 140.057 98.405 142.33C100.436 143.549 101.589 144.962 105.414 149.637C110.379 155.708 119.625 167.009 128.994 175.216C139.402 184.332 144.328 184.73 145.233 184.323C145.611 183.93 148.768 180.181 150.624 163.408C151.998 150.972 152.173 136.088 152.312 124.125C152.393 117.316 152.46 111.433 152.719 106.718C153.018 101.197 156.849 96.6784 161.865 95.9268C166.876 95.1753 171.681 98.396 173.335 103.624C176.499 113.633 182.88 129.9 190 143.67C199.433 161.914 205.856 167.437 207.864 168.207C209.871 167.437 216.294 161.914 225.727 143.67C232.847 129.9 239.228 113.633 242.392 103.624C243.97 98.6314 248.441 95.4439 253.258 95.8544C258.076 96.271 262.03 100.198 262.869 105.399C263.12 106.95 263.074 108.064 262.929 111.753C260.687 168.482 270.886 180.725 275.055 183.333C276.241 183.001 279.957 181.449 287.485 174.241C293.905 168.095 300.361 160.495 305.55 154.385C312.42 146.296 314.989 143.271 318.463 141.738C322.064 140.147 326.172 140.836 329.173 143.531C332.173 146.224 333.586 150.495 332.855 154.663C330.546 167.851 325.671 182.629 320.51 198.277C314.533 216.4 308.351 235.142 305.894 252.256C304.258 263.672 298.665 274.071 290.144 281.541C281.81 288.843 271.197 292.864 260.252 292.864Z" fill="black" />
    <path d="M180.045 86.5455C180.045 98.0669 170.703 107.409 159.182 107.409C147.66 107.409 138.318 98.0669 138.318 86.5455C138.318 75.024 147.66 65.6818 159.182 65.6818C170.703 65.6818 180.045 75.024 180.045 86.5455Z" fill="#FFF3E1" />
    <path d="M180.045 86.5455C180.045 98.0669 170.703 107.409 159.182 107.409C147.66 107.409 138.318 98.0669 138.318 86.5455C138.318 75.024 147.66 65.6818 159.182 65.6818C170.703 65.6818 180.045 75.024 180.045 86.5455Z" stroke="black" stroke-width="23.1818" stroke-miterlimit="10" stroke-linejoin="round" />
    <path d="M277.409 86.5455C277.409 98.0669 268.067 107.409 256.545 107.409C245.024 107.409 235.682 98.0669 235.682 86.5455C235.682 75.024 245.024 65.6818 256.545 65.6818C268.067 65.6818 277.409 75.024 277.409 86.5455Z" fill="#FFF3E1" />
    <path d="M277.409 86.5455C277.409 98.0669 268.067 107.409 256.545 107.409C245.024 107.409 235.682 98.0669 235.682 86.5455C235.682 75.024 245.024 65.6818 256.545 65.6818C268.067 65.6818 277.409 75.024 277.409 86.5455Z" stroke="black" stroke-width="23.1818" stroke-miterlimit="10" stroke-linejoin="round" />
    <path d="M353.909 128.273C353.909 139.794 344.567 149.136 333.045 149.136C321.524 149.136 312.182 139.794 312.182 128.273C312.182 116.751 321.524 107.409 333.045 107.409C344.567 107.409 353.909 116.751 353.909 128.273Z" fill="#FFF3E1" />
    <path d="M353.909 128.273C353.909 139.794 344.567 149.136 333.045 149.136C321.524 149.136 312.182 139.794 312.182 128.273C312.182 116.751 321.524 107.409 333.045 107.409C344.567 107.409 353.909 116.751 353.909 128.273Z" stroke="black" stroke-width="23.1818" stroke-miterlimit="10" stroke-linejoin="round" />
    <path d="M103.545 128.273C103.545 139.794 94.2033 149.136 82.6818 149.136C71.1603 149.136 61.8182 139.794 61.8182 128.273C61.8182 116.751 71.1603 107.409 82.6818 107.409C94.2033 107.409 103.545 116.751 103.545 128.273Z" fill="#FFF3E1" />
    <path d="M103.545 128.273C103.545 139.794 94.2033 149.136 82.6818 149.136C71.1603 149.136 61.8182 139.794 61.8182 128.273C61.8182 116.751 71.1603 107.409 82.6818 107.409C94.2033 107.409 103.545 116.751 103.545 128.273Z" stroke="black" stroke-width="23.1818" stroke-miterlimit="10" stroke-linejoin="round" />
    <path d="M131.481 323H284.246" stroke="black" stroke-width="23.1818" stroke-miterlimit="10" stroke-linejoin="round" />
  </g>
  <g id="wr" fill="none" transform="scale(0.4 0.4)">
    <path d="M31.293 52.1566C31.3893 38.5523 22.6418 27.2731 25.2169 19.1329H76.7717C79.3468 27.2731 70.5993 38.5523 70.6956 52.1566C70.7966 66.5111 79.4253 78.4418 76.7717 86.8321H25.2169C22.5626 78.4418 31.1912 66.5111 31.293 52.1566Z" fill="#E9CAAF" />
    <path d="M39.9489 19.4831C38.012 30.4579 41.1417 44.3985 41.1417 53.8767C41.1417 63.1298 37.5143 73.9671 38.1596 86.8787L26.1636 86.8321L30.0085 53.8767L26.1636 19.0467L39.9489 19.4831Z" fill="#FFF3E1" />
    <path d="M71.4413 71.92C69.6031 66.1088 67.5195 59.5233 67.4675 52.1799C67.417 45.0609 69.5441 38.7138 71.4203 33.1138C72.8026 28.987 74.0374 25.3021 74.018 22.3604H27.9701C27.9507 25.3021 29.1854 28.987 30.5678 33.1138C32.444 38.7138 34.5711 45.0609 34.5206 52.1799C34.4686 59.5233 32.385 66.1096 30.5468 71.92C29.1233 76.4219 27.8536 80.4346 27.9421 83.6038H74.0467C74.1345 80.4346 72.8656 76.4219 71.4413 71.92ZM22.1394 87.8052C20.4449 82.4498 22.3623 76.3893 24.3916 69.9731C26.0923 64.5976 28.0198 58.5044 28.0648 52.1341C28.1083 46.0914 26.2468 40.5365 24.4467 35.1648C22.4136 29.0965 20.4923 23.3645 22.1394 18.159C22.5635 16.8171 23.8091 15.9046 25.2171 15.9046H76.7718C78.179 15.9046 79.4246 16.8171 79.8494 18.159C81.4958 23.3645 79.5753 29.0965 77.5414 35.1648C75.7413 40.5365 73.8806 46.0914 73.9233 52.1341C73.9683 58.5044 75.8958 64.5968 77.5965 69.9731C79.6266 76.3885 81.5432 82.4498 79.8494 87.8052C79.4246 89.1471 78.179 90.0596 76.7718 90.0596H25.2171C23.8091 90.0596 22.5635 89.1471 22.1394 87.8052Z" fill="black" />
    <path d="M41.0866 20.7839V32.3419" stroke="black" stroke-width="5.96421" stroke-miterlimit="10" stroke-linejoin="round" />
    <path d="M60.9013 20.7839V32.3419" stroke="black" stroke-width="5.96421" stroke-miterlimit="10" stroke-linejoin="round" />
    <path d="M26.1287 75.2035H75.8592" stroke="black" stroke-width="5.96421" stroke-miterlimit="10" stroke-linejoin="round" />
    <path d="M29.5286 43.9007H72.4601" stroke="black" stroke-width="5.96421" stroke-miterlimit="10" stroke-linejoin="round" />
  </g>
</svg>