<svg xmlns="http://www.w3.org/2000/svg" width="40" height="40" viewbox="0.0 0.0 180.0 180.0">
  <g id="bb" fill="none" transform="scale(0.2222222222222222 0.2222222222222222)">
    <path d="M79.9763 111.038C72.1496 111.038 68.2363 112.261 68.2363 114.707C68.2363 116.908 71.6608 118.192 78.5087 118.559C78.2646 118.559 82.4833 118.559 91.1661 118.559C106.452 118.559 114.095 117.275 114.095 114.707C114.095 112.261 110.182 111.038 102.355 111.038H79.9763ZM79.9763 96.7303C76.0629 96.7303 73.1284 96.975 71.1714 97.4638C69.2151 97.8311 68.2363 98.8093 68.2363 100.399C68.2363 102.233 69.8265 103.273 73.0057 103.517C77.0417 103.884 83.0948 104.068 91.1661 104.068C99.2368 104.068 105.352 103.884 109.509 103.517C112.566 103.273 114.095 102.233 114.095 100.399C114.095 97.9532 110.182 96.7303 102.355 96.7303H79.9763ZM122.533 106.636C122.533 107.859 123.267 110.671 124.734 115.074C125.224 116.419 125.713 118.131 126.202 120.21C126.813 122.167 127.119 123.512 127.119 124.246C127.119 129.504 121.677 132.684 110.793 133.784C115.807 135.618 119.72 136.78 122.533 137.269C126.324 137.881 129.871 138.187 133.172 138.187C134.517 138.187 137.086 138.125 140.876 138.003C144.79 137.758 146.685 137.636 146.563 137.636C151.087 137.636 154.94 139.043 158.119 141.855C160.443 143.934 162.889 147.419 165.457 152.311C163.133 155.735 160.871 159.22 158.669 162.767C156.102 166.68 153.044 169.37 149.498 170.838C148.886 168.27 145.951 166.497 140.693 165.518C139.47 165.274 135.679 164.907 129.32 164.418C110.243 162.705 97.5251 158.67 91.1661 152.311C85.1738 158.425 76.0629 162.033 63.8342 163.133C61.3884 163.378 57.7811 163.806 53.0116 164.418C47.1417 164.907 43.4119 165.274 41.8221 165.518C36.319 166.619 33.323 168.392 32.8338 170.838C28.9205 169.126 25.1907 165.274 21.6443 159.281C20.0545 156.591 18.4647 154.267 16.875 152.311C19.4431 147.297 21.8889 143.812 24.2124 141.855C27.2697 139.043 31.1218 137.636 35.7688 137.636C35.6465 137.636 37.4808 137.758 41.2718 138.003C45.1851 138.125 47.8143 138.187 49.1595 138.187C56.3743 138.187 63.7729 136.719 71.3548 133.784C60.5936 132.684 55.2128 129.504 55.2128 124.246C55.2128 122.533 56.0077 119.782 57.5972 115.991C59.1874 112.078 59.9822 109.265 59.9822 107.553C50.6881 96.0576 46.0411 86.0299 46.0411 77.4697C46.0411 67.4421 50.9938 58.2705 60.8991 49.9546C69.5818 42.6173 76.0022 38.6428 80.1596 38.0314C76.8577 34.1182 75.2074 29.838 75.2074 25.191C75.2074 20.6663 76.6744 17.2422 79.6095 14.9187C82.6667 12.4729 86.5187 11.25 91.1661 11.25C95.6908 11.25 99.4815 12.4729 102.539 14.9187C105.596 17.3645 107.125 20.7886 107.125 25.191C107.125 29.7157 105.474 33.9959 102.172 38.0314C104.984 38.7651 109.326 41.1498 115.196 45.1853C122.533 50.3215 128.098 56.0691 131.888 62.4279C134.823 67.1974 136.291 72.2115 136.291 77.4697C136.291 86.3966 131.705 96.1189 122.533 106.636ZM95.3848 85.3577V74.718H103.273V66.0966H95.3848V56.1914H86.9468V66.0966H79.0594V74.718H86.9468V85.3577H95.3848ZM91.1661 20.6052C89.5759 20.6052 88.1696 21.1555 86.9468 22.256C85.7239 23.3567 85.1124 24.6407 85.1124 26.1082C85.1124 27.6979 85.7239 29.0431 86.9468 30.1437C88.1696 31.2443 89.5759 31.7946 91.1661 31.7946C94.9568 31.7946 96.8524 29.8991 96.8524 26.1082C96.8524 22.4395 94.9568 20.6052 91.1661 20.6052Z" fill="#222831" />
    <path d="M79.9768 111.038C72.1502 111.038 68.2369 112.261 68.2369 114.707C68.2369 116.908 71.6608 118.192 78.5093 118.559C78.2646 118.559 82.4833 118.559 91.1661 118.559C106.452 118.559 114.095 117.275 114.095 114.707C114.095 112.261 110.182 111.038 102.355 111.038H79.9768ZM79.9768 96.7303C76.0635 96.7303 73.1284 96.975 71.172 97.4644C69.2151 97.8311 68.2369 98.8093 68.2369 100.399C68.2369 102.233 69.8265 103.273 73.0063 103.517C77.0417 103.884 83.0948 104.068 91.1661 104.068C99.2374 104.068 105.352 103.884 109.51 103.517C112.567 103.273 114.095 102.233 114.095 100.399C114.095 97.9532 110.182 96.7303 102.355 96.7303H79.9768ZM95.3848 85.3577V74.7186H103.273V66.0971H95.3848V56.1914H86.9473V66.0971H79.0594V74.7186H86.9473V85.3577H95.3848ZM91.1661 20.6052C89.5764 20.6052 88.1702 21.1555 86.9473 22.2561C85.7244 23.3567 85.113 24.6408 85.113 26.1082C85.113 27.698 85.7244 29.0432 86.9473 30.1438C88.1702 31.2444 89.5764 31.7947 91.1661 31.7947C94.9573 31.7947 96.8524 29.8992 96.8524 26.1082C96.8524 22.4395 94.9573 20.6052 91.1661 20.6052Z" fill="#F96D00" />
  </g>
  <g id="bk" fill="none" transform="scale(0.2222222222222222 0.2222222222222222)">
    <path d="M95.31 107.961C95.31 110.753 93.2794 112.15 89.2181 112.15C84.7761 112.15 82.5548 110.753 82.5548 107.961C82.5548 94.5079 78.1762 83.7838 69.4192 75.7879C61.9307 68.8073 54.4427 65.3169 46.9545 65.3169C40.4817 65.3169 35.3415 67.0303 31.534 70.4571C27.7265 73.8838 25.8227 78.7702 25.8227 85.1164C25.8227 89.5584 28.6149 95.841 34.1993 103.964C38.5145 110.31 42.5124 115.005 46.193 118.051C48.6044 120.082 52.7928 121.097 58.7576 121.097C64.9766 121.097 75.0032 119.955 88.8373 117.671C102.799 119.955 112.888 121.097 119.107 121.097C125.2 121.097 129.388 120.082 131.672 118.051C135.987 114.244 140.239 109.231 144.428 103.012C149.504 95.5232 152.043 89.5584 152.043 85.1164C152.043 78.7702 150.139 73.8838 146.331 70.4571C142.523 67.0303 137.383 65.3169 130.911 65.3169C123.676 65.3169 116.188 68.8708 108.446 75.978C99.6891 83.8468 95.31 94.5079 95.31 107.961ZM146.902 84.9257C146.902 89.7486 144.11 95.5237 138.526 102.25C133.449 108.215 129.007 112.15 125.2 114.054C122.026 114.561 118.853 114.815 115.68 114.815C105.781 114.815 100.895 112.848 101.022 108.914C101.148 96.7292 104.766 87.147 111.873 80.1664C117.711 74.2011 123.93 71.2187 130.53 71.2187C135.099 71.2187 138.843 72.3611 141.762 74.6454C145.189 77.0569 146.902 80.4836 146.902 84.9257ZM124.247 145.466C124.247 143.054 119.869 141.341 111.112 140.326C103.116 139.564 95.8179 139.183 89.2181 139.183C82.872 139.183 77.2881 139.437 72.4652 139.945L66.7536 140.516C58.1231 141.658 53.8081 143.245 53.8081 145.275C53.8081 147.56 55.9657 148.702 60.2809 148.702C62.0578 148.702 65.5481 148.448 70.7518 147.94C80.1433 146.925 86.2357 146.418 89.028 146.418C92.2005 146.418 96.9604 146.798 103.306 147.56C109.652 148.321 114.411 148.702 117.584 148.702C122.027 148.702 124.247 147.623 124.247 145.466ZM137.574 151.177C137.32 161.965 121.138 167.359 89.028 167.359C57.1714 167.359 41.0528 162.029 40.6721 151.367C40.4183 140.579 38.8952 131.505 36.1031 124.143C34.4531 119.828 31.1533 114.307 26.2034 107.581C19.9845 99.3307 16.875 91.9063 16.875 85.3065C16.875 77.3106 19.7941 70.5842 25.6323 65.1268C31.4705 59.6694 38.3876 56.9402 46.3834 56.9402C54.633 56.9402 62.5022 59.9867 69.9902 66.0786C69.9902 62.3981 70.1803 58.8442 70.5611 55.4174C70.6882 54.2752 71.1956 52.8156 72.0844 51.0388C73.3534 47.7389 77.0338 44.0583 83.1262 39.9969V34.476L73.4169 28.5743V20.0073H82.1745L85.0297 11.25H93.0257L96.2623 20.0073H104.829V28.5743L95.1199 34.476V39.9969C101.212 44.439 104.893 48.1196 106.162 51.0388C106.923 52.6887 107.494 54.9732 107.875 57.8925C108.002 59.796 108.192 62.5247 108.446 66.0786C115.808 59.9867 123.549 56.9402 131.672 56.9402C139.541 56.9402 146.458 59.6059 152.423 64.9361C158.388 70.2669 161.371 77.0569 161.371 85.3065C161.371 91.9063 158.262 99.3943 152.043 107.771C150.393 110.055 148.552 112.657 146.522 115.576C142.841 121.288 140.303 128.014 138.907 135.757C138.145 139.691 137.701 144.831 137.574 151.177ZM31.1533 84.9257C31.1533 80.6108 32.7397 77.2476 35.9126 74.8361C39.0856 72.4247 42.8297 71.2187 47.1449 71.2187C53.8715 71.2187 60.2173 74.2646 66.1826 80.3571C73.0361 87.2106 76.59 96.7292 76.8437 108.914C76.9708 110.944 75.6383 112.467 72.846 113.482C70.1803 114.371 66.69 114.815 62.3751 114.815C59.0754 114.815 55.8388 114.561 52.6659 114.054C48.4775 112.023 43.972 108.025 39.1491 102.06C33.8185 95.3331 31.1533 89.622 31.1533 84.9257Z" fill="#222831" />
    <path d="M95.31 107.961C95.31 110.753 93.2794 112.15 89.2181 112.15C84.7761 112.15 82.5548 110.753 82.5548 107.961C82.5548 94.5079 78.1763 83.7838 69.4187 75.7879C61.9307 68.8073 54.4426 65.3169 46.9545 65.3169C40.4817 65.3169 35.3415 67.0303 31.534 70.4571C27.7264 73.8838 25.8227 78.7702 25.8227 85.1164C25.8227 89.5584 28.6149 95.841 34.1993 103.964C38.5145 110.31 42.5124 115.005 46.193 118.051C48.6044 120.082 52.7927 121.097 58.7576 121.097C64.9766 121.097 75.0032 119.955 88.8373 117.671C102.799 119.955 112.888 121.097 119.107 121.097C125.2 121.097 129.388 120.082 131.672 118.051C135.987 114.244 140.239 109.231 144.428 103.012C149.504 95.5232 152.043 89.5584 152.043 85.1164C152.043 78.7702 150.139 73.8838 146.331 70.4571C142.523 67.0303 137.383 65.3169 130.911 65.3169C123.676 65.3169 116.188 68.8708 108.446 75.978C99.6891 83.8468 95.31 94.5079 95.31 107.961ZM146.903 84.9257C146.903 89.7486 144.11 95.5232 138.526 102.25C133.449 108.215 129.007 112.15 125.2 114.054C122.027 114.561 118.853 114.815 115.68 114.815C105.781 114.815 100.895 112.848 101.022 108.914C101.148 96.7292 104.766 87.147 111.873 80.1664C117.711 74.2011 123.93 71.2187 130.53 71.2187C135.099 71.2187 138.843 72.3611 141.762 74.6454C145.189 77.0569 146.903 80.4836 146.903 84.9257ZM124.247 145.466C124.247 143.054 119.869 141.34 111.112 140.325C103.116 139.564 95.8179 139.183 89.2181 139.183C82.872 139.183 77.2881 139.437 72.4652 139.945L66.7536 140.516C58.1231 141.658 53.8081 143.245 53.8081 145.275C53.8081 147.56 55.9657 148.702 60.2809 148.702C62.0578 148.702 65.5481 148.448 70.7518 147.94C80.1433 146.925 86.2358 146.418 89.028 146.418C92.2005 146.418 96.9604 146.798 103.306 147.559C109.652 148.321 114.411 148.702 117.584 148.702C122.027 148.702 124.247 147.623 124.247 145.466ZM31.1532 84.9257C31.1532 80.6108 32.7397 77.247 35.9126 74.8356C39.0856 72.4241 42.8297 71.2187 47.1449 71.2187C53.8715 71.2187 60.2173 74.2646 66.1826 80.3565C73.0361 87.2106 76.59 96.7292 76.8437 108.914C76.9708 110.944 75.6377 112.467 72.846 113.482C70.1803 114.371 66.69 114.815 62.3751 114.815C59.0749 114.815 55.8388 114.561 52.6658 114.054C48.4775 112.023 43.9719 108.025 39.149 102.059C33.8185 95.3331 31.1532 89.622 31.1532 84.9257Z" fill="#F96D00" />
  </g>
  <g id="bn" fill="none" transform="scale(0.2222222222222222 0.2222222222222222)">
    <path d="M31.3437 109.312C29.186 109.312 27.2823 110.01 25.6323 111.406C24.1094 112.802 23.3478 114.579 23.3478 116.737C23.3478 117.498 23.6017 118.323 24.1093 119.211C26.14 119.211 27.9169 118.577 29.4399 117.308C31.0899 115.912 31.9148 114.198 31.9148 112.168C31.9148 111.533 31.7244 110.581 31.3437 109.312ZM148.045 146.055C148.171 140.216 148.235 137.297 148.235 137.297C148.235 111.406 141.635 90.2109 128.436 73.7111C117.14 59.3696 106.796 52.1988 97.4042 52.1988C96.7697 52.1988 96.0086 52.3257 95.1199 52.5795C94.9927 52.5795 94.8662 52.5161 94.7391 52.3892C94.4854 52.3892 94.2947 52.3892 94.1681 52.3892H93.7873C91.6296 52.3892 90.5507 53.2141 90.5507 54.8641C90.5507 55.6256 91.0586 56.4508 92.0739 57.339C100.577 57.9735 109.906 64.0654 120.059 75.6152C133.005 90.7183 139.477 112.294 139.477 140.343C139.477 140.597 139.414 141.105 139.287 141.866C139.287 142.627 139.287 143.199 139.287 143.58V145.483C139.287 146.372 139.287 146.816 139.287 146.816C139.414 148.466 139.922 149.799 140.81 150.814C141.699 151.829 142.778 152.337 144.047 152.337C145.062 152.337 145.951 151.829 146.712 150.814C147.473 149.672 147.918 148.085 148.045 146.055ZM48.4775 77.7094H48.6679H49.0487C49.3026 77.7094 49.4929 77.7729 49.6199 77.8995H49.8102C52.9832 77.8995 56.4097 76.3132 60.0907 73.1402C63.8983 69.9671 65.8018 67.2384 65.8018 64.9541C65.8018 64.3196 65.5481 63.6851 65.0402 63.0501C63.5175 62.1619 61.9307 61.7175 60.2809 61.7175C57.2349 61.7175 54.1889 62.9871 51.1429 65.5251C48.0968 67.9365 46.5738 70.6652 46.5738 73.7111C46.5738 75.4881 47.2084 76.8206 48.4775 77.7094ZM158.896 162.998L58.5675 162.617C58.8212 155.129 60.2173 148.91 62.7559 143.961C65.421 139.011 68.9749 133.743 73.4169 128.159C77.3516 123.209 80.0167 119.592 81.4129 117.308C83.6972 113.373 85.0933 109.122 85.6012 104.552C77.7319 107.725 71.5134 111.787 66.9442 116.737C64.7865 119.148 63.1367 121.242 61.9942 123.019C60.3444 125.938 57.7423 130.063 54.1889 135.393C53.1735 136.536 52.0312 137.17 50.7621 137.297C46.7007 137.297 44.67 134.822 44.67 129.872C43.0201 131.903 41.1798 132.919 39.1491 132.919C38.8952 132.919 37.3723 132.538 34.5801 131.776C29.6303 130.507 25.9496 128.92 23.5382 127.017C21.2537 124.986 19.0326 121.623 16.875 116.927C17.7634 111.089 20.746 102.839 25.8227 92.178C28.488 86.3398 32.0417 78.9148 36.4839 69.9036C41.3067 60.2578 44.67 51.945 46.5738 44.9645C46.8276 42.8069 46.9546 40.7127 46.9546 38.6821C46.9546 37.7936 46.5104 33.5419 45.6219 25.9268H46.0027H46.5738C46.8276 25.9268 47.018 25.8634 47.1449 25.7364H47.5257C54.6331 25.7364 62.4386 28.0844 70.9419 32.7804C71.8307 33.288 72.2745 33.6053 72.2745 33.7322C76.8437 26.2441 80.334 22.5 82.7454 22.5C86.6801 24.5307 89.5354 26.8152 91.3123 29.3536C92.7084 31.5112 94.3582 35.6995 96.2623 41.9185C97.4042 41.5377 98.7367 41.3473 100.26 41.3473C113.332 41.3473 126.024 49.5335 138.336 65.9059C152.677 84.8166 159.848 110.518 159.848 143.008C159.848 149.608 159.531 156.271 158.896 162.998Z" fill="#222831" />
    <path d="M31.3438 109.312C29.1863 109.312 27.2825 110.01 25.6326 111.406C24.1095 112.802 23.348 114.579 23.348 116.737C23.348 117.498 23.6018 118.323 24.1095 119.211C26.1402 119.211 27.9171 118.577 29.4401 117.308C31.09 115.912 31.915 114.198 31.915 112.168C31.915 111.533 31.7246 110.581 31.3438 109.312ZM148.045 146.055C148.172 140.216 148.235 137.297 148.235 137.297C148.235 111.406 141.635 90.2109 128.436 73.7111C117.14 59.3696 106.796 52.1988 97.4047 52.1988C96.7702 52.1988 96.0086 52.3257 95.1199 52.5796C94.9933 52.5796 94.8662 52.5161 94.7391 52.3892C94.4854 52.3892 94.2952 52.3892 94.1681 52.3892H93.7873C91.6296 52.3892 90.5512 53.2141 90.5512 54.8641C90.5512 55.6256 91.0586 56.4508 92.0739 57.339C100.578 57.9735 109.906 64.0654 120.059 75.6152C133.005 90.7183 139.478 112.294 139.478 140.343C139.478 140.597 139.414 141.105 139.287 141.866C139.287 142.627 139.287 143.199 139.287 143.58V145.483C139.287 146.372 139.287 146.816 139.287 146.816C139.414 148.466 139.922 149.799 140.811 150.814C141.699 151.829 142.778 152.337 144.047 152.337C145.063 152.337 145.951 151.829 146.712 150.814C147.473 149.672 147.918 148.085 148.045 146.055ZM48.4777 77.7094H48.6682H49.0489C49.3027 77.7094 49.4931 77.7729 49.62 77.8995H49.8104C52.9833 77.8995 56.4103 76.3133 60.0907 73.1402C63.8983 69.9671 65.8018 67.2384 65.8018 64.9541C65.8018 64.3196 65.5481 63.6851 65.0407 63.0501C63.5175 62.1619 61.9312 61.7175 60.2809 61.7175C57.2349 61.7175 54.1891 62.9871 51.1431 65.5251C48.097 67.9365 46.574 70.6652 46.574 73.7111C46.574 75.4881 47.2085 76.8206 48.4777 77.7094Z" fill="#F96D00" />
  </g>
  <g id="bp" fill="none" transform="scale(0.2222222222222222 0.2222222222222222)">
    <path d="M39.752 163.125C39.5007 160.319 39.375 156.62 39.375 152.028C39.375 140.293 41.449 130.281 45.597 121.99C49.9965 112.934 58.4809 105.217 71.0511 98.8391C66.9026 97.5639 63.5721 94.7576 61.0583 90.4208C58.7953 86.4669 57.6641 82.1301 57.6641 77.4107C57.6641 66.6962 63.0692 59.1069 73.8793 54.6429C71.1141 49.9234 69.7309 45.3954 69.7309 41.0587C69.7309 35.574 71.8678 31.0459 76.1417 27.4745C80.0387 24.1582 84.6894 22.5 90.0945 22.5C95.499 22.5 100.213 24.2857 104.235 27.8571C108.258 31.301 110.269 35.7015 110.269 41.0587C110.269 45.3954 108.887 49.9234 106.121 54.6429C111.903 56.9385 116.051 60.1273 118.565 64.2094C121.079 68.2909 122.336 72.6913 122.336 77.4107C122.336 82.0024 121.142 86.4028 118.753 90.612C116.366 94.8212 113.16 97.5639 109.137 98.8391C121.708 105.344 130.192 113.125 134.592 122.181C138.614 130.217 140.625 140.166 140.625 152.028C140.625 156.62 140.5 160.319 140.248 163.125H39.752Z" fill="#222831" />
  </g>
  <g id="bq" fill="none" transform="scale(0.2222222222222222 0.2222222222222222)">
    <path d="M49.0309 140.135C49.0309 142.546 50.8078 143.752 54.3615 143.752C56.3923 143.752 59.2476 143.562 62.9286 143.181C66.7361 142.8 69.4012 142.61 70.9245 142.61L85.2024 142.039C86.5986 141.912 87.8046 141.848 88.8199 141.848C92.3732 141.848 97.0059 142.102 102.717 142.61C109.57 142.991 114.203 143.245 116.615 143.372C117.123 143.372 118.011 143.435 119.28 143.562C120.676 143.689 121.691 143.752 122.326 143.752C125.88 143.752 127.657 142.483 127.657 139.945C127.657 137.406 123.595 135.439 115.472 134.043C110.649 133.154 104.113 132.583 95.8635 132.33C93.4521 132.33 90.9771 132.33 88.4391 132.33C71.0511 132.33 59.0574 133.726 52.4577 136.518C50.1732 137.533 49.0309 138.739 49.0309 140.135ZM19.1418 40.568C17.4918 40.568 16.0957 41.1392 14.9535 42.2814C13.8112 43.4237 13.2401 44.8198 13.2401 46.4697C13.2401 48.1196 13.8112 49.5792 14.9535 50.8484C16.0957 51.9906 17.4918 52.5617 19.1418 52.5617C22.9493 52.5617 24.8531 50.5311 24.8531 46.4697C24.8531 42.5352 22.9493 40.568 19.1418 40.568ZM50.3635 25.5283C46.3022 25.5283 44.2715 27.4955 44.2715 31.4299C44.2715 35.4913 46.3022 37.522 50.3635 37.522C54.1711 37.522 56.0749 35.4913 56.0749 31.4299C56.0749 27.4955 54.1711 25.5283 50.3635 25.5283ZM126.324 25.5283C124.801 25.5283 123.468 26.1628 122.326 27.4321C121.184 28.5743 120.612 29.9069 120.612 31.4299C120.612 35.4913 122.516 37.522 126.324 37.522C130.258 37.522 132.226 35.4913 132.226 31.4299C132.226 27.4955 130.258 25.5283 126.324 25.5283ZM157.355 40.568C153.548 40.568 151.644 42.5352 151.644 46.4697C151.644 50.5311 153.548 52.5617 157.355 52.5617C161.29 52.5617 163.257 50.5311 163.257 46.4697C163.257 44.8198 162.686 43.4237 161.544 42.2814C160.401 41.1392 159.005 40.568 157.355 40.568ZM140.031 154.223C140.031 158.792 131.908 161.902 115.663 163.551C108.429 164.186 102.781 164.63 98.7193 164.884L92.4368 165.075C90.6598 165.075 89.2637 165.075 88.2484 165.075C69.084 165.075 54.298 163.424 43.8908 160.125C39.0679 158.601 36.6564 156.634 36.6564 154.223C36.6564 149.273 37.9256 144.07 40.4639 138.612C42.1139 135.312 42.9389 132.837 42.9389 131.187C42.9389 127.761 39.1948 121.732 31.7066 113.101C27.3914 108.025 25.1704 105.042 25.0435 104.154C25.0435 103.265 24.5993 101.108 23.7108 97.6809L20.6648 85.6873C19.7763 82.2606 19.0783 79.2146 18.5706 76.5495C17.6822 71.3458 17.0476 66.2057 16.6669 61.1286C9.30561 57.8289 5.625 52.9425 5.625 46.4697C5.625 42.7891 6.95767 39.6796 9.62291 37.1413C12.2882 34.476 15.4612 33.1433 19.1418 33.1433C22.6955 33.1433 25.805 34.476 28.4702 37.1413C31.1355 39.6796 32.4681 42.7891 32.4681 46.4697C32.4681 47.1043 32.2778 48.3735 31.897 50.2773C31.5163 52.8156 31.3258 54.5925 31.3258 55.6078C31.3258 62.4611 36.4026 71.1551 46.556 81.6896C47.4445 73.9474 47.8887 67.1574 47.8887 61.3192C47.8887 54.2117 47.1906 49.0715 45.7945 45.8986C44.7792 43.4872 43.2561 41.6468 41.2255 40.3777C38.3064 38.6008 36.8468 35.4913 36.8468 31.0492C36.8468 27.3685 38.116 24.2591 40.6543 21.7207C43.3196 19.0555 46.556 17.7228 50.3635 17.7228C53.9173 17.7228 57.0268 19.0555 59.6919 21.7207C62.3571 24.2591 63.6902 27.3685 63.6902 31.0492C63.6902 31.9376 63.4359 33.5241 62.9286 35.8086C62.4206 38.0931 62.1669 39.9334 62.1669 41.3295C62.1669 50.5946 66.4819 64.1745 75.1123 82.0704C76.1276 77.6278 77.4608 71.0286 79.1106 62.271C79.8722 56.4328 80.2524 51.5464 80.2524 47.612C80.2524 41.0123 79.047 34.9202 76.6356 29.3358C75.6202 27.1782 75.1123 25.5917 75.1123 24.5764C75.1123 20.8957 76.3819 17.7862 78.9199 15.2479C81.5856 12.5826 84.7581 11.25 88.4391 11.25C91.9924 11.25 95.0389 12.5826 97.5769 15.2479C100.115 17.7862 101.384 20.8957 101.384 24.5764C101.384 25.8455 100.813 27.8763 99.6711 30.6685C98.2749 34.0952 97.4503 36.2528 97.1961 37.1413C96.6887 39.6796 96.435 43.1698 96.435 47.612C96.435 54.5925 97.3232 62.5247 99.1001 71.4088C99.7346 74.709 100.496 78.2629 101.384 82.0704C109.888 63.9208 114.14 50.3407 114.14 41.3295C114.14 40.0603 113.886 38.347 113.378 36.1893C112.997 33.9049 112.807 32.1914 112.807 31.0492C112.807 27.2416 114.076 24.0687 116.615 21.5304C119.28 18.992 122.516 17.7228 126.324 17.7228C130.004 17.7228 133.114 19.0555 135.652 21.7207C138.318 24.386 139.65 27.4955 139.65 31.0492C139.65 35.4913 138.19 38.6643 135.272 40.568C131.845 42.8525 129.814 46.7236 129.18 52.181C128.799 54.7194 128.608 57.8289 128.608 61.5094C128.608 67.0939 129.053 73.8202 129.941 81.6896C140.095 71.1551 145.171 62.4611 145.171 55.6078C145.171 54.8463 144.981 53.0695 144.6 50.2773C144.219 48.2466 144.029 46.9774 144.029 46.4697C144.029 42.7891 145.362 39.6796 148.027 37.1413C150.692 34.476 153.802 33.1433 157.355 33.1433C161.036 33.1433 164.209 34.476 166.874 37.1413C169.539 39.6796 170.872 42.7891 170.872 46.4697C170.872 52.8156 167.191 57.7018 159.83 61.1286C159.45 65.9514 158.752 71.1551 157.736 76.7396C156.594 83.0857 154.627 91.2718 151.834 101.298C151.581 102.314 151.39 103.265 151.263 104.154C151.263 105.042 150.058 106.883 147.646 109.675L144.79 113.101C137.302 121.986 133.558 128.014 133.558 131.187C133.558 132.583 134.32 134.995 135.843 138.422C137.62 142.483 138.698 145.021 139.079 146.037C139.714 148.321 140.031 151.05 140.031 154.223ZM88.4391 18.294C86.7892 18.294 85.3931 18.8651 84.2507 20.0073C83.1082 21.1496 82.5373 22.5457 82.5373 24.1956C82.5373 25.7186 83.1082 27.1147 84.2507 28.3839C85.3931 29.5262 86.7892 30.0973 88.4391 30.0973C92.2466 30.0973 94.1501 28.1301 94.1501 24.1956C94.1501 22.5457 93.5792 21.1496 92.4368 20.0073C91.2943 18.8651 89.9617 18.294 88.4391 18.294ZM131.273 111.008C131.273 108.215 126.895 106.185 118.138 104.915C110.649 103.9 100.75 103.393 88.4391 103.393C76.1276 103.393 66.1646 103.963 58.5495 105.106C49.7924 106.502 45.4138 108.533 45.4138 111.198C45.4138 113.482 47.4445 114.625 51.5058 114.625C53.6635 114.625 56.646 114.497 60.4536 114.244C64.7685 113.863 67.7514 113.609 69.4013 113.482L84.8216 112.911C86.3449 112.911 87.6774 112.911 88.8199 112.911C94.2773 112.911 102.653 113.292 113.95 114.054C115.98 114.054 119.026 114.18 123.087 114.434C124.23 114.561 125.054 114.625 125.562 114.625C129.37 114.625 131.273 113.419 131.273 111.008Z" fill="#222831" />
    <path d="M49.0308 140.135C49.0308 142.547 50.8076 143.752 54.3612 143.752C56.3917 143.752 59.2476 143.562 62.928 143.181C66.7356 142.8 69.4012 142.61 70.9239 142.61L85.2024 142.039C86.5986 141.912 87.804 141.848 88.8193 141.848C92.3732 141.848 97.0059 142.102 102.717 142.61C109.57 142.991 114.203 143.245 116.615 143.372C117.122 143.372 118.011 143.435 119.28 143.562C120.676 143.689 121.691 143.752 122.326 143.752C125.88 143.752 127.657 142.483 127.657 139.945C127.657 137.406 123.595 135.439 115.472 134.043C110.649 133.154 104.113 132.583 95.8635 132.33C93.4521 132.33 90.9771 132.33 88.4385 132.33C71.0511 132.33 59.0574 133.726 52.4575 136.518C50.173 137.533 49.0308 138.739 49.0308 140.135ZM19.1416 40.5681C17.4917 40.5681 16.0955 41.1392 14.9533 42.2814C13.811 43.4237 13.2399 44.8198 13.2399 46.4697C13.2399 48.1197 13.811 49.5792 14.9533 50.8484C16.0955 51.9906 17.4917 52.5618 19.1416 52.5618C22.9491 52.5618 24.8529 50.5311 24.8529 46.4697C24.8529 42.5353 22.9491 40.5681 19.1416 40.5681ZM50.3634 25.5283C46.302 25.5283 44.2713 27.4955 44.2713 31.43C44.2713 35.4913 46.302 37.522 50.3634 37.522C54.1709 37.522 56.0747 35.4913 56.0747 31.43C56.0747 27.4955 54.1709 25.5283 50.3634 25.5283ZM126.323 25.5283C124.801 25.5283 123.468 26.1629 122.326 27.4321C121.183 28.5743 120.612 29.9069 120.612 31.43C120.612 35.4913 122.516 37.522 126.323 37.522C130.258 37.522 132.225 35.4913 132.225 31.43C132.225 27.4955 130.258 25.5283 126.323 25.5283ZM157.355 40.5681C153.547 40.5681 151.644 42.5353 151.644 46.4697C151.644 50.5311 153.547 52.5618 157.355 52.5618C161.29 52.5618 163.257 50.5311 163.257 46.4697C163.257 44.8198 162.686 43.4237 161.543 42.2814C160.401 41.1392 159.005 40.5681 157.355 40.5681ZM88.4385 18.294C86.7887 18.294 85.3926 18.8651 84.2507 20.0073C83.1082 21.1496 82.5373 22.5457 82.5373 24.1957C82.5373 25.7186 83.1082 27.1147 84.2507 28.3839C85.3926 29.5262 86.7887 30.0973 88.4385 30.0973C92.2461 30.0973 94.1501 28.1301 94.1501 24.1957C94.1501 22.5457 93.5786 21.1496 92.4368 20.0073C91.2943 18.8651 89.9617 18.294 88.4385 18.294ZM131.273 111.008C131.273 108.215 126.895 106.185 118.137 104.915C110.649 103.9 100.75 103.393 88.4385 103.393C76.1276 103.393 66.1646 103.963 58.5495 105.106C49.7922 106.502 45.4135 108.533 45.4135 111.198C45.4135 113.482 47.4443 114.625 51.5056 114.625C53.6632 114.625 56.646 114.497 60.4536 114.244C64.7685 113.863 67.7509 113.609 69.4013 113.482L84.8216 112.911C86.3443 112.911 87.6774 112.911 88.8193 112.911C94.2767 112.911 102.653 113.292 113.949 114.054C115.98 114.054 119.026 114.18 123.087 114.434C124.23 114.561 125.054 114.625 125.562 114.625C129.37 114.625 131.273 113.419 131.273 111.008Z" fill="#F96D00" />
  </g>
  <g id="br" fill="none" transform="scale(0.2222222222222222 0.2222222222222222)">
    <path d="M32.6941 166.91L28.125 162.341V145.587L52.3028 121.79V74.3867L33.6459 56.1104V34.7882L40.3091 28.125H57.2524L61.4408 32.3133V38.215H70.5791V32.3133L74.5768 28.125H101.039L105.037 32.3133V38.215H114.175V32.3133L118.173 28.125H135.307L141.971 34.7882V56.1104L123.313 74.3867V121.79L147.491 145.587V162.341L142.732 166.91H32.6941ZM60.8698 116.269V124.265H114.747V116.269H60.8698ZM60.8698 73.4349V81.4303H114.747V73.4349H60.8698Z" fill="#222831" />
    <path d="M60.8698 116.269V124.265H114.747V116.269H60.8698ZM60.8698 73.4349V81.4303H114.747V73.4349H60.8698Z" fill="#F96D00" />
  </g>
  <g id="wb" fill="none" transform="scale(0.2222222222222222 0.2222222222222222)">
    <path d="M90.9827 102.784C83.2781 102.784 76.5523 102.478 70.8047 101.867C68.9704 101.744 67.3808 101.561 66.0353 101.316C67.0134 103.151 67.5028 105.046 67.5028 107.003C67.5028 109.082 67.0747 110.977 66.2186 112.689C68.787 111.833 74.2286 111.161 82.5446 110.671C85.1124 110.549 87.9249 110.488 90.9827 110.488C103.089 110.488 111.344 111.221 115.746 112.689C114.768 110.977 114.279 109.082 114.279 107.003C114.279 105.168 114.768 103.273 115.746 101.316C108.653 102.295 100.399 102.784 90.9827 102.784ZM90.9827 19.688C89.0257 19.688 87.3135 20.4217 85.8465 21.8892C84.501 23.2343 83.8282 24.763 83.8282 26.475C83.8282 28.4317 84.501 30.0826 85.8465 31.4278C87.3135 32.6507 89.0257 33.2621 90.9827 33.2621C92.817 33.2621 94.4674 32.6507 95.9349 31.4278C97.4025 30.0826 98.1366 28.4317 98.1366 26.475C98.1366 24.6407 97.4025 23.0509 95.9349 21.7057C94.4674 20.3606 92.817 19.688 90.9827 19.688ZM90.9827 117.275C85.9686 117.275 78.4479 117.764 68.4202 118.743C65.4851 119.354 64.0176 120.822 64.0176 123.145C64.0176 125.102 68.1756 126.263 76.491 126.63C74.7793 126.508 79.6095 126.447 90.9827 126.447C108.836 126.447 117.764 125.346 117.764 123.145C117.764 120.332 114.951 118.559 109.326 117.825C108.348 117.703 104.496 117.581 97.7693 117.458C96.5464 117.458 94.8954 117.397 92.817 117.275H90.9827ZM90.7988 96.1802C107.798 96.1802 118.253 94.5906 122.166 91.4107C124.856 89.3317 126.752 84.0122 127.853 75.4521C127.241 67.8701 122.289 60.5329 112.994 53.4399C104.19 46.7139 96.7303 42.9841 90.6154 42.2504C84.7457 42.9841 77.4692 46.7139 68.787 53.4399C59.6149 60.5329 54.7236 67.8701 54.1121 75.4521C54.7236 79.9768 55.2739 83.0953 55.763 84.807C56.8637 88.3536 58.6367 90.8606 61.0824 92.3282C65.2404 94.896 75.1461 96.1802 90.7988 96.1802ZM86.7634 84.9904V74.718H79.0594V65.9132H86.7634V56.008H95.2014V65.9132H102.905V74.718H95.2014V84.9904H86.7634ZM90.6154 131.583C89.6372 131.583 87.6195 132.744 84.5623 135.068C82.4833 136.658 80.4043 138.187 78.3253 139.654C76.2463 141.122 74.2286 141.977 72.2723 142.222C67.7475 143.812 62.1219 144.912 55.3962 145.524C54.4179 145.524 51.9721 145.646 48.0588 145.891C42.1889 146.135 38.5202 146.38 37.0528 146.625C32.1612 147.725 29.7154 149.804 29.7154 152.861C30.3269 155.918 31.9166 157.447 34.4847 157.447C35.0961 157.447 36.8081 157.202 39.6208 156.713C43.1672 155.98 45.5519 155.613 46.7747 155.613C54.1122 155.613 62.4279 154.512 71.7216 152.311C81.5051 149.865 87.9249 145.768 90.9827 140.021C92.817 143.567 96.2409 146.563 101.254 149.009C107.125 151.822 114.401 153.717 123.083 154.695L129.136 155.429C131.215 155.552 133.172 155.613 135.007 155.613C136.352 155.613 138.797 155.98 142.344 156.713C145.034 157.202 146.685 157.447 147.297 157.447C149.987 157.447 151.638 155.918 152.25 152.861C152.25 149.804 149.804 147.725 144.912 146.625C143.322 146.38 139.654 146.135 133.906 145.891C131.093 145.769 126.569 145.402 120.332 144.79C117.152 144.423 113.606 143.567 109.693 142.222C107.736 141.855 105.779 141.06 103.823 139.838C102.6 139.226 100.582 137.82 97.7693 135.618C94.4674 132.928 92.0829 131.583 90.6154 131.583ZM90.9827 151.577C85.1124 157.692 76.0629 161.36 63.8342 162.583C58.0866 163.072 49.5263 164.173 38.1534 165.885C34.9738 166.619 33.2007 168.086 32.8338 170.287C28.7983 168.576 25.0684 164.723 21.6443 158.731C19.9322 155.918 18.3424 153.534 16.875 151.577C22.0111 141.916 28.3091 137.086 35.7687 137.086C37.2362 137.086 39.4374 137.208 42.3723 137.453C45.4295 137.697 47.692 137.82 49.1594 137.82C56.0076 137.82 63.3448 136.352 71.1714 133.417C60.4103 132.194 55.0293 128.954 55.0293 123.695C55.0293 122.105 55.763 119.231 57.2304 115.074C58.8201 110.793 59.6154 107.675 59.6154 105.718C50.4434 95.6908 45.8576 86.2133 45.8576 77.2864C45.8576 67.2587 50.8103 58.0871 60.7157 49.7712C69.3984 42.4338 75.8183 38.5817 79.9763 38.2148C76.6744 34.1793 75.0234 29.838 75.0234 25.191C75.0234 20.7885 76.6136 17.3033 79.7929 14.7353C82.6054 12.4117 86.3353 11.25 90.9827 11.25C95.5069 11.25 99.2368 12.534 102.172 15.1021C105.229 17.5479 106.758 20.9108 106.758 25.191C106.758 29.838 105.168 34.1793 101.989 38.2148C106.391 38.704 112.872 42.6173 121.432 49.9546C131.215 58.1479 136.107 67.2587 136.107 77.2864C136.107 86.0912 131.521 95.5687 122.349 105.718C122.349 107.675 123.083 110.793 124.551 115.074C126.141 119.231 126.935 122.105 126.935 123.695C126.935 128.954 121.494 132.194 110.61 133.417C118.437 136.352 125.774 137.82 132.622 137.82C134.212 137.82 136.474 137.697 139.409 137.453C142.344 137.208 144.606 137.086 146.196 137.086C153.656 137.086 159.954 141.916 165.09 151.577C162.766 155.123 160.504 158.67 158.303 162.217C155.735 166.007 152.678 168.698 149.131 170.287C148.642 167.72 145.707 165.946 140.326 164.968C139.103 164.723 135.312 164.296 128.953 163.684C109.876 161.972 97.2191 157.936 90.9827 151.577Z" fill="#393E46" />
    <path d="M90.9821 102.783C83.2781 102.783 76.5518 102.478 70.8041 101.866C68.9698 101.744 67.3802 101.56 66.0353 101.316C67.0135 103.151 67.5028 105.046 67.5028 107.003C67.5028 109.082 67.0748 110.977 66.2186 112.689C68.7864 111.833 74.2286 111.161 82.5441 110.671C85.1125 110.549 87.925 110.488 90.9821 110.488C103.089 110.488 111.344 111.221 115.746 112.689C114.767 110.977 114.278 109.082 114.278 107.003C114.278 105.168 114.767 103.273 115.746 101.316C108.653 102.295 100.398 102.783 90.9821 102.783ZM90.9821 19.688C89.0258 19.688 87.3135 20.4217 85.846 21.8891C84.501 23.2343 83.8283 24.7629 83.8283 26.475C83.8283 28.4316 84.501 30.0826 85.846 31.4277C87.3135 32.6506 89.0258 33.2621 90.9821 33.2621C92.8165 33.2621 94.4674 32.6506 95.9349 31.4277C97.4025 30.0826 98.136 28.4316 98.136 26.475C98.136 24.6406 97.4025 23.0509 95.9349 21.7057C94.4674 20.3605 92.8165 19.688 90.9821 19.688ZM90.9821 117.275C85.968 117.275 78.4474 117.764 68.4197 118.743C65.4846 119.354 64.017 120.822 64.017 123.145C64.017 125.102 68.175 126.263 76.491 126.63C74.7788 126.508 79.609 126.447 90.9821 126.447C108.836 126.447 117.763 125.346 117.763 123.145C117.763 120.332 114.951 118.559 109.326 117.825C108.347 117.703 104.495 117.58 97.7693 117.458C96.5464 117.458 94.8954 117.397 92.8164 117.275H90.9821ZM90.7988 96.1802C107.797 96.1802 118.253 94.59 122.166 91.4107C124.856 89.3317 126.752 84.0122 127.852 75.4521C127.241 67.8701 122.288 60.5329 112.994 53.4398C104.19 46.7139 96.7298 42.9841 90.6154 42.2503C84.7451 42.9841 77.4692 46.7139 68.7864 53.4398C59.6149 60.5329 54.7233 67.8701 54.1118 75.4521C54.7233 79.9768 55.2736 83.0947 55.7627 84.807C56.8631 88.3536 58.6367 90.8606 61.0825 92.3276C65.2405 94.896 75.1455 96.1802 90.7988 96.1802ZM86.7634 84.9904V74.718H79.0588V65.9132H86.7634V56.0079H95.2009V65.9132H102.905V74.718H95.2009V84.9904H86.7634ZM90.6154 131.583C89.6372 131.583 87.619 132.744 84.5618 135.068C82.4828 136.658 80.4043 138.187 78.3253 139.654C76.2463 141.121 74.2286 141.977 72.2717 142.222C67.7469 143.812 62.1219 144.912 55.3959 145.524C54.4176 145.524 51.9718 145.646 48.0586 145.891C42.1886 146.135 38.52 146.38 37.0525 146.625C32.1609 147.725 29.7151 149.804 29.7151 152.861C30.3266 155.918 31.9163 157.447 34.4844 157.447C35.0958 157.447 36.8079 157.202 39.6205 156.713C43.1669 155.98 45.5516 155.613 46.7745 155.613C54.1118 155.613 62.4274 154.512 71.7216 152.311C81.5046 149.865 87.925 145.768 90.9821 140.021C92.8165 143.567 96.2404 146.563 101.255 149.009C107.124 151.822 114.401 153.717 123.083 154.695L129.137 155.429C131.216 155.551 133.172 155.613 135.006 155.613C136.352 155.613 138.797 155.98 142.343 156.713C145.034 157.202 146.685 157.447 147.296 157.447C149.987 157.447 151.638 155.918 152.249 152.861C152.249 149.804 149.803 147.725 144.912 146.625C143.322 146.38 139.654 146.135 133.906 145.891C131.093 145.768 126.568 145.402 120.332 144.79C117.152 144.423 113.606 143.567 109.693 142.222C107.736 141.855 105.779 141.06 103.822 139.837C102.599 139.226 100.582 137.82 97.7693 135.618C94.4674 132.928 92.0829 131.583 90.6154 131.583Z" fill="#F2F2F2" />
  </g>
  <g id="wk" fill="none" transform="scale(0.2222222222222222 0.2222222222222222)">
    <path d="M89.028 167.74C57.4251 167.74 41.3701 162.409 40.8625 151.748C40.3548 140.071 38.8318 130.934 36.2935 124.334C34.5166 119.892 31.1533 114.371 26.2034 107.771C22.7767 103.202 20.5556 99.7751 19.5402 97.4908C17.7634 93.9369 16.875 90.0028 16.875 85.6873C16.875 79.722 18.6518 74.3282 22.2055 69.5053C25.7592 64.5553 30.3283 61.065 35.9127 59.0344C39.8471 57.6382 43.4008 57.0037 46.5738 57.1309C54.8234 57.258 62.6287 60.3039 69.9902 66.2687L70.1803 66.4594C70.1803 62.1439 70.371 58.527 70.7518 55.6078C70.7518 54.4655 71.2592 53.006 72.2745 51.2292C73.5441 48.0562 77.2245 44.3756 83.3164 40.1873V34.476L73.6071 28.7647V20.1977H82.3646L85.4106 11.25H92.6449L95.6908 20.1977H104.448V28.7647L94.7391 34.476V40.1873C100.451 43.9948 104.195 47.6755 105.971 51.2292C106.86 53.2599 107.304 54.8463 107.304 55.9885C107.431 57.0037 107.558 58.7171 107.685 61.1286C107.812 63.4134 107.875 65.1904 107.875 66.4594L108.065 66.2687C115.3 60.3039 123.105 57.258 131.482 57.1309C137.066 57.0037 142.397 58.527 147.473 61.7001C152.677 64.8726 156.421 69.0609 158.705 74.2646C160.356 77.8185 161.18 81.6261 161.18 85.6873C161.18 92.4143 158.134 99.7751 152.043 107.771C149.377 111.325 147.473 113.99 146.331 115.767C144.427 118.559 142.968 121.414 141.952 124.334C139.16 131.187 137.574 140.326 137.193 151.748C136.939 162.409 120.884 167.74 89.028 167.74ZM89.028 87.5914C89.1546 87.3371 89.6625 86.5125 90.5507 85.1164C92.7084 82.0704 94.4218 79.3412 95.6908 76.9298C96.9604 74.5183 97.9121 72.1704 98.5466 69.8861C98.9274 66.4594 99.1176 64.1745 99.1176 63.0326C99.1176 53.6406 95.8179 48.9446 89.2181 48.9446C82.3646 48.9446 78.9379 53.6406 78.9379 63.0326C78.9379 64.6824 79.128 66.9668 79.5088 69.8861C80.7784 74.3282 83.4435 79.4047 87.5047 85.1164C88.5201 86.5125 89.028 87.3371 89.028 87.5914ZM152.614 87.2106C152.614 80.1028 150.202 74.5819 145.379 70.6477C141.318 67.3476 136.685 65.6977 131.482 65.6977C124.501 65.6977 117.076 69.1881 109.208 76.1687C99.8156 84.2912 94.5489 95.2695 93.4065 109.104C93.4065 110.246 96.3253 111.452 102.164 112.721C107.113 113.736 115.427 114.371 127.103 114.625C129.134 114.752 130.974 114.815 132.624 114.815H133.386H136.812C137.447 113.799 138.336 112.594 139.477 111.198C140.747 109.675 142.27 107.835 144.047 105.677C147.473 100.727 149.885 96.6021 151.281 93.3024C152.169 90.891 152.614 88.8604 152.614 87.2106ZM89.028 119.194C85.8549 120.59 80.1433 121.669 71.8937 122.43C67.5787 122.684 61.1061 123.128 52.4755 123.763L45.4315 124.334C47.0815 130.553 48.1602 137.216 48.6679 144.323C59.7099 140.77 73.1632 138.993 89.028 138.993C105.019 138.993 118.536 140.77 129.578 144.323C129.959 136.581 130.974 129.918 132.624 124.334L125.77 123.763C121.328 123.509 114.792 123.065 106.162 122.43C101.593 121.922 98.6737 121.605 97.4042 121.478C94.1046 120.971 91.3123 120.209 89.028 119.194ZM25.4419 87.2106C25.4419 90.3831 27.0919 94.635 30.3918 99.9658C32.0417 102.504 33.3743 104.408 34.3897 105.677L36.2935 108.342C37.9434 110.119 39.5933 112.277 41.2432 114.815H45.4315C52.0312 114.815 60.3444 114.307 70.371 113.292C80.0167 112.404 84.8396 111.008 84.8396 109.104C83.5701 95.2695 78.2398 84.2912 68.8477 76.1687C61.1061 69.1881 53.6812 65.6977 46.5738 65.6977C44.4162 65.6977 42.0682 66.1421 39.5299 67.0303C34.0724 68.4264 30.0745 71.9167 27.5361 77.5012C26.14 80.4201 25.4419 83.6567 25.4419 87.2106ZM89.028 159.173C96.8968 159.173 104.702 158.665 112.444 157.65C118.917 156.888 122.154 155.873 122.154 154.604C122.154 152.573 119.234 151.113 113.396 150.225C104.893 149.083 96.8332 148.512 89.2181 148.512C81.4764 148.512 73.3534 149.083 64.8501 150.225C58.8847 151.113 55.9023 152.573 55.9023 154.604C55.9023 156.381 62.6923 157.777 76.2727 158.792C80.2069 159.046 84.4588 159.173 89.028 159.173Z" fill="#393E46" />
    <path d="M89.028 87.5914C89.1546 87.3371 89.6625 86.5125 90.5507 85.1164C92.7084 82.0704 94.4218 79.3412 95.6908 76.9297C96.9604 74.5183 97.9121 72.1704 98.5466 69.8861C98.9274 66.4594 99.1176 64.1745 99.1176 63.0326C99.1176 53.6406 95.8179 48.9446 89.2181 48.9446C82.3646 48.9446 78.9379 53.6406 78.9379 63.0326C78.9379 64.6824 79.128 66.9667 79.5088 69.8861C80.7784 74.3282 83.4435 79.4047 87.5047 85.1164C88.5201 86.5125 89.028 87.3371 89.028 87.5914ZM152.614 87.2106C152.614 80.1028 150.202 74.5819 145.379 70.6477C141.318 67.3476 136.685 65.6977 131.482 65.6977C124.501 65.6977 117.076 69.1881 109.208 76.1687C99.8156 84.2912 94.5489 95.2695 93.4065 109.104C93.4065 110.246 96.3253 111.451 102.164 112.721C107.113 113.736 115.427 114.371 127.103 114.625C129.134 114.752 130.974 114.815 132.624 114.815H133.386H136.812C137.447 113.799 138.336 112.594 139.477 111.198C140.747 109.675 142.27 107.835 144.047 105.677C147.473 100.727 149.885 96.6021 151.281 93.3024C152.169 90.891 152.614 88.8604 152.614 87.2106ZM89.028 119.194C85.8549 120.59 80.1433 121.669 71.8937 122.43C67.5787 122.684 61.1061 123.128 52.4755 123.763L45.4315 124.334C47.0814 130.553 48.1602 137.216 48.6679 144.323C59.7099 140.77 73.1632 138.993 89.028 138.993C105.019 138.993 118.536 140.77 129.578 144.323C129.959 136.581 130.974 129.918 132.624 124.334L125.77 123.763C121.328 123.509 114.792 123.065 106.162 122.43C101.593 121.922 98.6737 121.605 97.4042 121.478C94.1046 120.971 91.3123 120.209 89.028 119.194ZM25.4419 87.2106C25.4419 90.3831 27.0919 94.635 30.3917 99.9658C32.0417 102.504 33.3743 104.408 34.3896 105.677L36.2934 108.342C37.9433 110.119 39.5932 112.277 41.2432 114.815H45.4315C52.0312 114.815 60.3444 114.307 70.371 113.292C80.0167 112.404 84.8396 111.008 84.8396 109.104C83.5701 95.2695 78.2398 84.2912 68.8477 76.1687C61.1061 69.1881 53.6812 65.6977 46.5738 65.6977C44.4161 65.6977 42.0682 66.1421 39.5298 67.0303C34.0724 68.4264 30.0745 71.9167 27.5361 77.5012C26.14 80.4201 25.4419 83.6567 25.4419 87.2106ZM89.028 159.173C96.8968 159.173 104.702 158.665 112.444 157.65C118.917 156.888 122.153 155.873 122.153 154.604C122.153 152.573 119.234 151.113 113.396 150.225C104.893 149.083 96.8332 148.512 89.2181 148.512C81.4764 148.512 73.3534 149.083 64.8501 150.225C58.8847 151.113 55.9022 152.573 55.9022 154.604C55.9022 156.381 62.6923 157.777 76.2727 158.792C80.2069 159.046 84.4588 159.173 89.028 159.173Z" fill="#F2F2F2" />
  </g>
  <g id="wn" fill="none" transform="scale(0.2222222222222222 0.2222222222222222)">
    <path d="M34.0089 107.027C36.2934 107.027 37.4357 108.55 37.4357 111.596C37.4357 115.531 35.4684 117.498 31.534 117.498C31.7878 117.498 31.534 117.435 30.7725 117.308H30.011C29.3764 116.673 29.0591 115.467 29.0591 113.69C29.0591 109.248 30.709 107.027 34.0089 107.027ZM49.8102 77.8995C48.541 77.0113 47.9064 75.6787 47.9064 73.9018C47.9064 70.9824 49.4295 68.2538 52.4755 65.7158C55.5215 63.1772 58.5675 61.9082 61.6134 61.9082C63.2632 61.9082 64.8501 62.352 66.3727 63.2407C66.8807 63.8752 67.1344 64.5097 67.1344 65.1442C67.1344 67.8099 65.2309 70.6652 61.4233 73.7111C57.6157 76.6305 54.1888 78.0902 51.1428 78.0902H50.9524C50.6986 77.9631 50.5082 77.8995 50.3813 77.8995H50.0006H49.8102ZM53.0466 33.3515C53.6812 34.8745 53.9984 36.3341 53.9984 37.7301C53.9984 38.2379 53.8081 39.507 53.4274 41.5377H53.6177C54.5061 41.4107 56.4733 40.7762 59.5192 39.6339C60.9154 39.3801 62.3115 38.7455 63.7076 37.7301C61.2962 36.3341 59.5828 35.4456 58.5675 35.0648C57.5522 34.6841 55.7754 34.113 53.237 33.3515H53.0466ZM24.8708 115.023C25.5054 117.561 27.0284 119.783 29.4398 121.686C31.8513 123.463 34.3262 124.351 36.8646 124.351H37.4357C38.0703 124.351 39.7202 123.463 42.3854 121.686C43.6546 120.925 44.5431 120.544 45.0508 120.544C45.1777 120.671 45.4316 120.734 45.8123 120.734L46.0027 120.925C46.7642 120.925 47.1449 121.305 47.1449 122.067C47.1449 122.321 46.8911 123.019 46.3834 124.161C46.0026 125.304 45.8123 126.128 45.8123 126.636C45.8123 128.032 46.891 128.73 49.0486 128.73C49.4294 128.603 51.3967 125.811 54.9504 120.354C59.6464 113.373 65.2309 107.662 71.7036 103.22C75.5111 100.428 79.8896 97.9526 84.8396 95.7949C84.9662 94.3987 85.5377 92.0509 86.553 88.7512C88.4565 82.5322 90.9951 77.3921 94.1681 73.3309C95.5642 71.5539 96.8333 70.6652 97.9757 70.6652C98.3565 70.6652 98.8003 70.8559 99.3083 71.2367C99.9428 71.6169 100.26 72.4421 100.26 73.7111C100.26 74.9807 99.4984 77.6458 97.9757 81.7071C95.5643 87.9261 94.3582 92.4952 94.3582 95.4141C94.3582 96.3028 94.4854 97.3181 94.7391 98.4606C94.7391 109.756 89.9797 121.56 80.4606 133.871C74.2421 142.12 70.7518 148.974 69.9902 154.431H148.425C149.06 148.846 149.377 143.453 149.377 138.249C149.377 112.739 143.095 91.1627 130.53 73.521C127.23 68.8253 123.296 64.3196 118.727 60.0041C112.508 54.166 107.494 51.2469 103.687 51.2469C103.56 51.3738 103.433 51.4373 103.306 51.4373H102.735C99.5619 51.0566 97.785 50.8661 97.4042 50.8661C96.2623 50.8661 95.247 50.993 94.3582 51.2469C94.1046 51.2469 93.7237 51.3104 93.2158 51.4373C92.5813 51.4373 92.1375 51.4373 91.8833 51.4373C91.6296 51.4373 91.2487 51.4373 90.7414 51.4373C90.1063 51.3104 89.6625 51.2469 89.4088 51.2469C88.2664 50.8661 87.3146 49.2162 86.553 46.2971C86.1722 44.1395 85.4741 41.03 84.4588 36.9686C84.078 35.5726 83.3164 34.3034 82.1745 33.1611C80.1433 39.1263 74.2421 43.5684 64.4692 46.4875C59.1384 48.1374 55.5215 49.7874 53.6177 51.4373C51.9678 56.8946 46.7641 68.1272 38.0068 85.1338C36.6107 87.7995 33.5647 94.2086 28.8687 104.362C26.5842 109.058 25.2515 112.612 24.8708 115.023ZM158.135 163.189H58.3774C58.7576 156.208 60.2173 149.925 62.7559 144.341C64.7865 140.153 68.3404 134.759 73.4169 128.159C77.3516 123.082 79.9532 119.465 81.2222 117.308C83.5071 113.373 84.8396 109.122 85.2204 104.552C77.7319 107.852 72.0844 111.469 68.2768 115.404C64.4692 119.211 60.9789 123.78 57.8059 129.111C56.1561 131.903 54.8869 133.871 53.9984 135.013C52.7293 136.155 51.4601 136.726 50.1909 136.726C43.845 136.091 40.3548 133.87 39.7202 130.063C38.3241 130.825 36.7377 131.205 34.9608 131.205C27.5996 131.205 21.571 126.509 16.875 117.118C17.8904 111.152 20.8729 102.839 25.8227 92.178C26.965 89.6394 28.8052 85.7683 31.3436 80.5652C35.7857 71.4268 38.5779 65.5886 39.7202 63.0501C42.7662 56.3237 44.9873 50.2316 46.3834 44.7741C46.7641 42.4896 46.9545 40.5223 46.9545 38.8724C46.9545 37.984 46.4469 33.6053 45.4315 25.7364H45.8123H46.3834C46.6372 25.7364 46.8911 25.7364 47.1449 25.7364L47.3353 25.5461C54.3157 25.5461 61.677 27.7036 69.4192 32.0189C71.0691 33.0342 71.8937 33.6053 71.8937 33.7322C76.2092 26.2441 79.7631 22.5 82.5548 22.5C85.9821 24.2768 88.7737 26.5614 90.9315 29.3536C92.4547 31.765 94.041 35.8898 95.6908 41.7281C96.9604 41.4742 98.2929 41.3473 99.6891 41.3473C112.507 41.3473 125.072 49.4701 137.383 65.7158C151.852 84.6264 159.086 110.454 159.086 143.199C159.086 149.799 158.769 156.462 158.135 163.189Z" fill="#393E46" />
    <path d="M34.0087 107.027C36.2932 107.027 37.4356 108.55 37.4356 111.596C37.4356 115.531 35.4683 117.498 31.5338 117.498C31.7877 117.498 31.5339 117.435 30.7723 117.308H30.0108C29.3763 116.673 29.0589 115.467 29.0589 113.69C29.0589 109.248 30.7088 107.027 34.0087 107.027ZM49.81 77.8995C48.5408 77.0113 47.9063 75.6787 47.9063 73.9018C47.9063 70.9824 49.4293 68.2538 52.4753 65.7158C55.5213 63.1772 58.5675 61.9082 61.6134 61.9082C63.2632 61.9082 64.8501 62.352 66.3727 63.2407C66.8807 63.8752 67.1344 64.5097 67.1344 65.1442C67.1344 67.8099 65.2303 70.6652 61.4227 73.7111C57.6152 76.6305 54.1887 78.0902 51.1427 78.0902H50.9523C50.6985 77.9631 50.508 77.8995 50.3811 77.8995H50.0005H49.81ZM53.0464 33.3515C53.681 34.8745 53.9983 36.3341 53.9983 37.7301C53.9983 38.2378 53.808 39.507 53.4272 41.5377H53.6176C54.506 41.4108 56.4733 40.7762 59.5192 39.6339C60.9154 39.3801 62.3115 38.7455 63.7076 37.7301C61.2962 36.3341 59.5828 35.4456 58.5675 35.0648C57.5522 34.6841 55.7752 34.113 53.2368 33.3515H53.0464ZM24.8707 115.023C25.5052 117.561 27.0283 119.783 29.4397 121.686C31.8512 123.463 34.3261 124.352 36.8644 124.352H37.4356C38.0702 124.352 39.72 123.463 42.3853 121.686C43.6545 120.925 44.543 120.544 45.0506 120.544C45.1775 120.671 45.4314 120.734 45.8121 120.734L46.0025 120.925C46.764 120.925 47.1448 121.305 47.1448 122.067C47.1448 122.321 46.8909 123.019 46.3832 124.161C46.0025 125.304 45.8121 126.128 45.8121 126.636C45.8121 128.032 46.8909 128.73 49.0485 128.73C49.4292 128.603 51.3965 125.811 54.9502 120.354C59.6464 113.373 65.2303 107.662 71.7036 103.22C75.5111 100.428 79.8896 97.9526 84.8391 95.7949C84.9662 94.3987 85.5377 92.0509 86.553 88.7513C88.4565 82.5323 90.9951 77.3921 94.1676 73.3309C95.5637 71.5539 96.8333 70.6652 97.9751 70.6652C98.3559 70.6652 98.8003 70.8559 99.3082 71.2367C99.9427 71.6169 100.26 72.4421 100.26 73.7111C100.26 74.9807 99.4984 77.6458 97.9751 81.7071C95.5637 87.9261 94.3582 92.4952 94.3582 95.4141C94.3582 96.3028 94.4854 97.3181 94.7391 98.4606C94.7391 109.756 89.9797 121.56 80.4606 133.871C74.2416 142.12 70.7512 148.974 69.9902 154.431H148.425C149.06 148.846 149.377 143.453 149.377 138.249C149.377 112.739 143.095 91.1627 130.53 73.521C127.23 68.8253 123.295 64.3196 118.726 60.0041C112.507 54.166 107.494 51.2469 103.687 51.2469C103.56 51.3738 103.433 51.4373 103.306 51.4373H102.735C99.5619 51.0565 97.785 50.8661 97.4042 50.8661C96.2617 50.8661 95.2464 50.993 94.3582 51.2469C94.1046 51.2469 93.7237 51.3103 93.2158 51.4373C92.5813 51.4373 92.1369 51.4373 91.8833 51.4373C91.6296 51.4373 91.2487 51.4373 90.7408 51.4373C90.1063 51.3103 89.6625 51.2469 89.4082 51.2469C88.2664 50.8661 87.3141 49.2162 86.553 46.2971C86.1722 44.1395 85.4741 41.03 84.4588 36.9686C84.078 35.5726 83.3164 34.3034 82.1739 33.1611C80.1433 39.1263 74.2416 43.5684 64.4692 46.4875C59.1384 48.1374 55.5213 49.7874 53.6176 51.4373C51.9676 56.8946 46.764 68.1272 38.0067 85.1338C36.6105 87.7995 33.5645 94.2086 28.8686 104.362C26.584 109.058 25.2514 112.612 24.8707 115.023Z" fill="#F2F2F2" />
  </g>
  <g id="wp" fill="none" transform="scale(0.2222222222222222 0.2222222222222222)">
    <path d="M133.04 153.098C133.04 139.645 130.248 129.048 124.664 121.305C121.237 116.482 115.779 111.914 108.291 107.598C102.072 103.918 98.9629 100.555 98.9629 97.5083C98.9629 96.3664 99.2801 95.4776 99.9146 94.8431C100.676 94.2086 101.945 93.3834 103.722 92.3681C107.149 90.3375 109.56 88.3069 110.956 86.2763C112.353 84.2456 113.051 81.3263 113.051 77.5187C113.051 70.5386 109.307 64.827 101.819 60.3849C99.7881 59.1159 98.3284 58.1642 97.4396 57.5291C96.6786 56.7681 96.2978 55.8159 96.2978 54.6736C96.2978 51.7546 97.1224 49.2797 98.7728 47.249C99.7881 45.726 100.423 44.6472 100.676 44.0126C100.93 43.2511 101.057 42.0454 101.057 40.3954C101.057 37.7301 99.9146 35.4457 97.6303 33.5419C95.4726 31.6381 92.9976 30.6862 90.2059 30.6862C87.5402 30.6862 85.1287 31.6381 82.971 33.5419C80.8138 35.4457 79.7349 37.7301 79.7349 40.3954C79.7349 42.8069 80.4966 45.0914 82.0192 47.249C83.6691 49.2797 84.4943 51.7546 84.4943 54.6736C84.4943 55.8159 84.0499 56.8311 83.1617 57.7198C82.2729 58.4814 80.8768 59.3696 78.9733 60.3849C71.6119 64.827 67.9314 70.5386 67.9314 77.5187C67.9314 83.7377 71.0409 88.6877 77.2599 92.3681C78.5289 93.1297 79.6078 93.9549 80.4966 94.8431C81.3848 95.7319 81.8291 96.6201 81.8291 97.5083C81.8291 100.555 78.7196 103.918 72.5006 107.598C64.8855 112.168 59.4281 116.8 56.1282 121.496C50.6707 129.238 47.9419 139.772 47.9419 153.098H133.04ZM39.5653 162.617C39.4384 159.698 39.375 156.018 39.375 151.575C39.375 139.899 41.4056 129.872 45.467 121.496C50.036 112.485 58.6029 104.806 71.1681 98.4606C66.9797 97.191 63.6795 94.3988 61.2681 90.0838C58.9838 86.2763 57.8413 82.0243 57.8413 77.3286C57.8413 66.5404 63.2357 58.9252 74.0239 54.4833C71.3582 49.7873 70.0256 45.2818 70.0256 40.9666C70.0256 35.5091 72.0562 31.067 76.1175 27.6402C80.3059 24.2134 85.1288 22.5 90.5861 22.5C96.0441 22.5 100.803 24.2769 104.865 27.8305C108.926 31.2573 110.956 35.636 110.956 40.9666C110.956 45.2818 109.56 49.7873 106.768 54.4833C117.683 58.9252 123.141 66.5404 123.141 77.3286C123.141 81.7706 121.998 86.0226 119.714 90.0838C117.049 94.3988 113.685 97.191 109.624 98.4606C122.316 104.933 130.946 112.675 135.515 121.686C139.577 129.809 141.607 139.772 141.607 151.575C141.607 155.637 141.481 159.317 141.226 162.617H39.5653Z" fill="#393E46" />
    <path d="M133.04 153.098C133.04 139.645 130.248 129.048 124.664 121.305C121.237 116.482 115.779 111.914 108.291 107.598C102.072 103.918 98.9629 100.554 98.9629 97.5082C98.9629 96.3664 99.2801 95.4776 99.9146 94.8431C100.676 94.2086 101.945 93.3834 103.722 92.3681C107.149 90.3375 109.56 88.3069 110.956 86.2763C112.353 84.2456 113.051 81.3263 113.051 77.5187C113.051 70.5386 109.307 64.827 101.819 60.3849C99.7881 59.1159 98.3284 58.1636 97.4402 57.5291C96.6786 56.7681 96.2977 55.8159 96.2977 54.6736C96.2977 51.7546 97.1224 49.2797 98.7727 47.249C99.7881 45.726 100.423 44.6471 100.676 44.0126C100.93 43.2511 101.057 42.0453 101.057 40.3954C101.057 37.7301 99.9146 35.4456 97.6303 33.5418C95.4726 31.6381 92.9976 30.6862 90.2059 30.6862C87.5402 30.6862 85.1287 31.6381 82.971 33.5418C80.8138 35.4456 79.7349 37.7301 79.7349 40.3954C79.7349 42.8068 80.4966 45.0914 82.0192 47.249C83.6691 49.2797 84.4942 51.7546 84.4942 54.6736C84.4942 55.8159 84.0499 56.8311 83.1617 57.7198C82.2735 58.4814 80.8774 59.3696 78.9733 60.3849C71.6119 64.827 67.9314 70.5386 67.9314 77.5187C67.9314 83.7377 71.0409 88.6877 77.2599 92.3681C78.5289 93.1297 79.6078 93.9549 80.4966 94.8431C81.3847 95.7313 81.8291 96.6201 81.8291 97.5082C81.8291 100.554 78.7196 103.918 72.5006 107.598C64.8855 112.168 59.4281 116.8 56.1282 121.496C50.6707 129.238 47.9419 139.772 47.9419 153.098H133.04Z" fill="#F2F2F2" />
  </g>
  <g id="wq" fill="none" transform="scale(0.2222222222222222 0.2222222222222222)">
    <path d="M88.0583 111.579H90.7234C90.9771 111.579 91.4214 111.515 92.0559 111.388C92.5639 111.388 93.0077 111.388 93.3885 111.388C94.0236 111.388 96.8788 111.515 101.956 111.769C103.732 111.769 107.667 112.023 113.759 112.53C118.709 112.911 122.643 113.101 125.562 113.101C128.482 113.101 129.941 112.721 129.941 111.959C129.941 111.832 129.877 111.642 129.751 111.388V111.198V111.008C129.751 107.581 123.468 104.915 110.904 103.012C102.527 101.869 94.9753 101.298 88.2484 101.298C81.522 101.298 73.9704 101.869 65.5937 103.012C53.1557 104.789 46.9367 107.454 46.9367 111.008V111.388C46.6829 111.515 46.556 111.706 46.556 111.959C46.556 112.721 48.0156 113.101 50.9347 113.101C51.6962 113.101 55.6941 112.848 62.9286 112.34C71.4319 111.706 78.0953 111.388 82.9181 111.388C83.1718 111.388 83.6162 111.388 84.2507 111.388C84.8852 111.515 85.3296 111.579 85.5832 111.579H88.0583ZM126.895 122.24C113.822 120.59 100.94 119.765 88.2484 119.765C76.4454 119.765 66.4189 120.273 58.1692 121.288C55.123 121.542 52.3308 121.859 49.7924 122.24C51.6962 123.763 52.6481 126.872 52.6481 131.568C52.6481 134.36 52.1404 136.137 51.1251 136.898C61.659 135.122 74.034 134.233 88.2484 134.233C102.59 134.233 114.965 135.122 125.372 136.898C124.484 136.137 124.039 134.36 124.039 131.568C124.039 126.872 124.991 123.763 126.895 122.24ZM88.2484 142.61C79.1106 142.61 70.0993 143.054 61.2152 143.943C53.3461 144.577 49.4117 146.354 49.4117 149.273C49.4117 153.208 62.3571 155.175 88.2484 155.175C114.14 155.175 127.086 153.208 127.086 149.273C127.086 148.004 126.07 146.862 124.039 145.846C119.978 144.323 113.061 143.372 103.289 142.991C98.0848 142.737 93.0712 142.61 88.2484 142.61ZM88.2484 18.1036C84.3142 18.1036 82.3466 20.0708 82.3466 24.0052C82.3466 28.0666 84.3142 30.0973 88.2484 30.0973C92.0559 30.0973 93.96 28.0666 93.96 24.0052C93.96 20.0708 92.0559 18.1036 88.2484 18.1036ZM88.2484 11.25C91.9294 11.25 95.0389 12.5827 97.5769 15.2479C100.115 17.7863 101.384 20.8957 101.384 24.5764C101.384 25.7186 100.75 27.7493 99.4809 30.6685C98.0848 34.2222 97.3232 36.3797 97.1961 37.1413C96.5616 39.6796 96.2443 43.1064 96.2443 47.4216C96.2443 50.5946 96.6887 55.5443 97.5769 62.271C98.2114 67.4747 99.4809 74.0109 101.384 81.8797C109.888 63.8572 114.14 50.2773 114.14 41.1392C114.14 38.9815 113.822 36.5701 113.188 33.9048C112.934 32.5087 112.807 31.4934 112.807 30.8588C112.807 27.1782 114.076 24.0687 116.615 21.5304C119.28 18.8651 122.389 17.5324 125.943 17.5324C129.624 17.5324 132.797 18.8651 135.462 21.5304C138.127 24.0687 139.46 27.1782 139.46 30.8588C139.46 35.0471 138.064 38.2835 135.272 40.568C131.845 42.7256 129.751 46.5966 128.989 52.181C128.735 54.5924 128.608 57.7018 128.608 61.5094C128.608 66.4594 128.989 73.1222 129.751 81.4989C140.031 71.0916 145.171 62.4611 145.171 55.6078C145.171 54.5925 144.917 52.8156 144.41 50.2773C144.156 48.3735 144.029 47.0408 144.029 46.2793C144.029 42.7256 145.298 39.6161 147.836 36.9508C150.502 34.2856 153.611 32.9529 157.165 32.9529C160.846 32.9529 164.018 34.2856 166.684 36.9508C169.349 39.6161 170.682 42.7256 170.682 46.2793C170.682 52.7521 167.001 57.6382 159.64 60.9384C159.386 65.5076 158.688 70.7743 157.546 76.7396C156.911 80.4201 155.261 87.4007 152.596 97.6809L151.073 103.963C151.073 106.248 148.534 109.992 143.458 115.195C136.731 122.05 133.368 127.38 133.368 131.187C133.368 132.711 134.129 135.058 135.652 138.232C137.81 142.674 138.952 145.021 139.079 145.275C139.714 147.052 140.031 149.21 140.031 151.748C140.031 152.129 139.967 152.7 139.841 153.461C139.714 154.096 139.65 154.604 139.65 154.984V155.365L139.841 155.555C139.841 159.49 131.718 162.219 115.472 163.742C108.365 164.377 102.717 164.757 98.5286 164.884C93.8329 165.011 90.3426 165.075 88.0583 165.075C87.6774 165.075 86.4714 165.011 84.4408 164.884C82.0294 164.757 79.8086 164.694 77.778 164.694C63.1822 164.313 51.8231 163.044 43.7004 160.886C38.8775 159.49 36.466 157.713 36.466 155.555L36.6564 155.365V154.984C36.6564 154.857 36.5929 154.604 36.466 154.223C36.466 153.842 36.466 153.525 36.466 153.271V151.748C36.466 148.195 37.6717 143.943 40.0832 138.993C41.8601 135.312 42.7485 132.711 42.7485 131.187C42.7485 128.522 41.4159 125.539 38.7506 122.24C36.0853 119.32 32.2143 114.878 27.1376 108.913C25.8684 107.137 25.2338 105.487 25.2338 103.963C23.457 96.8563 21.6801 89.7486 19.9033 82.6414C18.1264 74.3917 17.0476 67.1574 16.6669 60.9384C9.30561 57.6382 5.625 52.7521 5.625 46.2793C5.625 42.7256 6.95767 39.6161 9.62291 36.9508C12.2882 34.2856 15.3976 32.9529 18.9514 32.9529C22.632 32.9529 25.7415 34.2856 28.2799 36.9508C30.9452 39.6161 32.2778 42.7256 32.2778 46.2793C32.2778 46.9139 32.1508 48.2466 31.897 50.2773C31.3893 52.8156 31.1355 54.5925 31.1355 55.6078C31.1355 62.4611 36.2122 71.0916 46.3656 81.4989C47.254 73.1222 47.6983 66.4594 47.6983 61.5094C47.6983 54.0213 47.0002 48.8177 45.6041 45.8986C44.9695 44.6294 44.2715 43.5506 43.51 42.6621C43.0023 42.1545 42.1773 41.393 41.0351 40.3777C39.3851 39.3623 38.3064 38.1566 37.7986 36.7605C37.0371 35.7451 36.6564 33.7779 36.6564 30.8588C36.6564 27.1782 37.9891 24.0687 40.6543 21.5304C43.3196 18.8651 46.4925 17.5324 50.1731 17.5324C53.8538 17.5324 56.9633 18.8651 59.5018 21.5304C62.1669 24.0687 63.4995 27.1782 63.4995 30.8588C63.4995 31.3665 63.3724 32.3818 63.1187 33.9048C62.4842 36.5701 62.1669 38.9815 62.1669 41.1392C62.1669 50.1503 66.4189 63.7307 74.9222 81.8797C78.3489 67.4111 80.0623 55.9251 80.0623 47.4216C80.0623 41.2026 78.8569 35.174 76.4454 29.3358C75.4296 27.1782 74.9222 25.5917 74.9222 24.5764C74.9222 20.8957 76.2548 17.7863 78.9199 15.2479C81.5856 12.5827 84.6951 11.25 88.2484 11.25ZM157.165 40.568C155.642 40.568 154.31 41.1392 153.167 42.2814C152.025 43.4237 151.454 44.7563 151.454 46.2793C151.454 47.9293 152.025 49.3888 153.167 50.658C154.31 51.8003 155.642 52.3714 157.165 52.3714C161.099 52.3714 163.066 50.3407 163.066 46.2793C163.066 42.4718 161.099 40.568 157.165 40.568ZM125.943 25.3379C124.42 25.3379 123.087 25.9725 121.945 27.2416C120.803 28.3839 120.232 29.7165 120.232 31.2396C120.232 32.8895 120.803 34.3491 121.945 35.6182C123.087 36.7605 124.42 37.3316 125.943 37.3316C130.004 37.3316 132.035 35.3009 132.035 31.2396C132.035 27.3051 130.004 25.3379 125.943 25.3379ZM50.1731 25.3379C46.2387 25.3379 44.2715 27.3051 44.2715 31.2396C44.2715 35.3009 46.2387 37.3316 50.1731 37.3316C53.9807 37.3316 55.8845 35.3009 55.8845 31.2396C55.8845 27.3051 53.9807 25.3379 50.1731 25.3379ZM18.9514 40.568C15.0169 40.568 13.0497 42.4718 13.0497 46.2793C13.0497 50.3407 15.0169 52.3714 18.9514 52.3714C22.7589 52.3714 24.6627 50.3407 24.6627 46.2793C24.6627 44.7563 24.0915 43.4237 22.9493 42.2814C21.8071 41.1392 20.4744 40.568 18.9514 40.568ZM88.2484 55.7981C87.741 58.8442 87.1695 61.7001 86.535 64.3652L85.0123 71.2187C83.4891 77.4377 81.7121 82.3877 79.6815 86.0681C79.3007 86.8297 78.6662 87.7815 77.778 88.9239C76.8892 90.0658 76.3183 91.0811 76.0646 91.9699C75.8104 91.5891 75.0493 90.6373 73.7797 89.1141C72.7644 87.9716 71.4954 86.5755 69.9722 84.9257C68.5761 83.1487 67.3706 81.3724 66.3553 79.5954C62.5478 72.7419 58.9303 64.2381 55.5037 54.0848C55.7576 55.8616 55.8845 58.1462 55.8845 60.9384C55.8845 63.7307 55.4403 69.6324 54.5519 78.6431C54.4249 80.0392 54.1076 82.1334 53.6 84.9257L51.8866 95.5867C43.383 90.6373 35.07 82.5142 26.9472 71.2187C28.4702 79.2146 29.8663 85.7509 31.1355 90.8274C32.2778 95.2695 32.9123 97.6809 33.0393 98.0617C34.0546 101.235 35.2603 103.075 36.6564 103.583C49.8559 96.0947 67.0534 92.3507 88.2484 92.3507C109.57 92.3507 126.768 96.0947 139.841 103.583C142.252 102.821 144.854 95.3331 147.646 81.1181C147.9 79.8491 148.281 77.9451 148.789 75.4071L149.55 71.2187C141.427 82.5142 133.177 90.6373 124.801 95.5867L124.039 91.9699C121.755 78.7702 120.612 69.1245 120.612 63.0326C120.612 59.8596 120.803 56.8772 121.184 54.0848C117.757 64.2381 114.076 72.7419 110.142 79.5954C108.619 82.2606 106.144 85.4336 102.717 89.1141C101.448 90.6373 100.686 91.5891 100.433 91.9699C99.6711 90.5737 98.4656 88.6067 96.8152 86.0681C96.1807 84.9257 95.3561 83.2123 94.3408 80.928C93.4521 78.5166 91.9924 72.9321 89.9618 64.1745C89.4544 61.5094 88.8829 58.7171 88.2484 55.7981Z" fill="#393E46" />
    <path d="M88.0582 111.579H90.7234C90.9771 111.579 91.4214 111.515 92.0559 111.388C92.5639 111.388 93.0077 111.388 93.3885 111.388C94.0236 111.388 96.8788 111.515 101.955 111.769C103.732 111.769 107.667 112.023 113.759 112.53C118.709 112.911 122.643 113.102 125.562 113.102C128.482 113.102 129.941 112.721 129.941 111.959C129.941 111.832 129.877 111.642 129.751 111.388V111.198V111.008C129.751 107.581 123.468 104.915 110.904 103.012C102.527 101.869 94.9753 101.298 88.2484 101.298C81.522 101.298 73.9704 101.869 65.5937 103.012C53.1557 104.789 46.9367 107.454 46.9367 111.008V111.388C46.6829 111.515 46.556 111.706 46.556 111.959C46.556 112.721 48.0156 113.102 50.9347 113.102C51.6962 113.102 55.6941 112.848 62.9286 112.34C71.4319 111.706 78.0952 111.388 82.9181 111.388C83.1718 111.388 83.6162 111.388 84.2507 111.388C84.8852 111.515 85.3296 111.579 85.5832 111.579H88.0582ZM126.895 122.24C113.822 120.59 100.94 119.765 88.2484 119.765C76.4454 119.765 66.4189 120.273 58.1692 121.288C55.123 121.542 52.3308 121.859 49.7924 122.24C51.6962 123.763 52.6481 126.872 52.6481 131.568C52.6481 134.36 52.1404 136.137 51.1251 136.899C61.659 135.122 74.0334 134.233 88.2484 134.233C102.59 134.233 114.965 135.122 125.372 136.899C124.483 136.137 124.039 134.36 124.039 131.568C124.039 126.872 124.991 123.763 126.895 122.24ZM88.2484 142.61C79.1106 142.61 70.0993 143.054 61.2152 143.943C53.3461 144.577 49.4116 146.354 49.4116 149.273C49.4116 153.208 62.3571 155.175 88.2484 155.175C114.14 155.175 127.086 153.208 127.086 149.273C127.086 148.004 126.07 146.862 124.039 145.847C119.978 144.323 113.061 143.372 103.288 142.991C98.0848 142.737 93.0712 142.61 88.2484 142.61ZM88.2484 18.1036C84.3142 18.1036 82.3466 20.0708 82.3466 24.0053C82.3466 28.0667 84.3142 30.0973 88.2484 30.0973C92.0559 30.0973 93.96 28.0667 93.96 24.0053C93.96 20.0708 92.0559 18.1036 88.2484 18.1036ZM157.165 40.5681C155.642 40.5681 154.309 41.1392 153.167 42.2814C152.025 43.4237 151.454 44.7563 151.454 46.2793C151.454 47.9293 152.025 49.3888 153.167 50.658C154.309 51.8003 155.642 52.3714 157.165 52.3714C161.099 52.3714 163.066 50.3407 163.066 46.2793C163.066 42.4718 161.099 40.5681 157.165 40.5681ZM125.943 25.3379C124.42 25.3379 123.087 25.9725 121.945 27.2416C120.803 28.3839 120.232 29.7166 120.232 31.2396C120.232 32.8895 120.803 34.3491 121.945 35.6183C123.087 36.7606 124.42 37.3317 125.943 37.3317C130.004 37.3317 132.035 35.301 132.035 31.2396C132.035 27.3052 130.004 25.3379 125.943 25.3379ZM50.1731 25.3379C46.2387 25.3379 44.2715 27.3052 44.2715 31.2396C44.2715 35.301 46.2387 37.3317 50.1731 37.3317C53.9807 37.3317 55.8845 35.301 55.8845 31.2396C55.8845 27.3052 53.9807 25.3379 50.1731 25.3379ZM18.9514 40.5681C15.0169 40.5681 13.0497 42.4718 13.0497 46.2793C13.0497 50.3407 15.0169 52.3714 18.9514 52.3714C22.7589 52.3714 24.6627 50.3407 24.6627 46.2793C24.6627 44.7563 24.0915 43.4237 22.9493 42.2814C21.8071 41.1392 20.4744 40.5681 18.9514 40.5681ZM88.2484 55.7982C87.741 58.8442 87.1695 61.7001 86.535 64.3652L85.0123 71.2187C83.4891 77.4377 81.7121 82.3877 79.6815 86.0681C79.3007 86.8297 78.6662 87.7815 77.778 88.9239C76.8892 90.0658 76.3183 91.0811 76.0646 91.9699C75.8104 91.5891 75.0493 90.6373 73.7797 89.1141C72.7644 87.9716 71.4954 86.5761 69.9722 84.9257C68.5761 83.1487 67.3706 81.3724 66.3553 79.5954C62.5477 72.7419 58.9303 64.2381 55.5037 54.0848C55.7575 55.8616 55.8845 58.1462 55.8845 60.9384C55.8845 63.7307 55.4403 69.6324 54.5519 78.6437C54.4249 80.0392 54.1076 82.1334 53.5999 84.9257L51.8866 95.5867C43.383 90.6373 35.07 82.5142 26.9472 71.2187C28.4702 79.2146 29.8663 85.7509 31.1355 90.8274C32.2778 95.2695 32.9123 97.6809 33.0393 98.0617C34.0546 101.235 35.2603 103.075 36.6564 103.583C49.8559 96.0947 67.0534 92.3507 88.2484 92.3507C109.57 92.3507 126.768 96.0947 139.841 103.583C142.252 102.821 144.854 95.3331 147.646 81.1181C147.9 79.8491 148.281 77.9456 148.789 75.4071L149.55 71.2187C141.427 82.5142 133.177 90.6373 124.801 95.5867L124.039 91.9699C121.755 78.7702 120.612 69.1245 120.612 63.0326C120.612 59.8596 120.803 56.8772 121.184 54.0848C117.757 64.2381 114.076 72.7419 110.142 79.5954C108.619 82.2606 106.144 85.4336 102.717 89.1141C101.448 90.6373 100.686 91.5891 100.433 91.9699C99.6711 90.5737 98.4656 88.6067 96.8152 86.0681C96.1807 84.9257 95.3561 83.2123 94.3408 80.928C93.4521 78.5166 91.9924 72.9321 89.9617 64.1745C89.4544 61.5094 88.8829 58.7171 88.2484 55.7982Z" fill="#F2F2F2" />
  </g>
  <g id="wr" fill="none" transform="scale(0.2222222222222222 0.2222222222222222)">
    <path d="M60.6797 75.3384V117.602H114.937V75.3384H60.6797ZM32.6941 167.671L28.125 163.102V146.73L52.4933 122.171V74.5768L31.5518 56.3006V34.7882L38.4054 28.125H59.7274L63.9157 32.1229V38.215H70.7692V32.1229L74.7675 28.125H101.039L105.037 32.1229V38.215H111.701V32.1229L115.888 28.125H137.401L144.255 34.7882V56.3006L123.313 74.5768V122.171L147.682 146.73V163.102L143.112 167.671H32.6941ZM36.5016 149.014V158.152H139.305V149.014H36.5016ZM59.7274 125.408L44.1166 140.638H131.69L116.079 125.408H59.7274ZM78.7652 38.0246V44.1166L75.3384 47.5435H59.9181L56.3006 44.1166V37.6439H42.9744L39.9284 40.8803V54.2066L56.1104 67.3425H119.696L135.878 54.2066V40.8803L132.832 37.6439H119.506V44.1166L115.888 47.5435H100.468L97.0414 44.1166V38.0246H78.7652Z" fill="#393E46" />
    <path d="M60.6797 75.3384V117.602H114.937V75.3384H60.6797ZM36.5017 149.014V158.152H139.305V149.014H36.5017ZM59.7279 125.408L44.1168 140.637H131.69L116.079 125.408H59.7279ZM78.7652 38.0246V44.1166L75.3384 47.5434H59.918L56.3012 44.1166V37.6438H42.9745L39.9285 40.8802V54.2066L56.1105 67.3425H119.697L135.879 54.2066V40.8802L132.833 37.6438H119.506V44.1166L115.889 47.5434H100.468L97.0414 44.1166V38.0246H78.7652Z" fill="#F2F2F2" />
  </g>
</svg>