<svg xmlns="http://www.w3.org/2000/svg" width="40" height="40" viewbox="0.0 0.0 45.0 45.0">
  <g id="bb" fill="none" transform="scale(0.8888888888888888 0.8888888888888888)">
    <path fill-rule="evenodd" clip-rule="evenodd" d="M9 36C12.39 35.03 19.11 36.43 22.5 34C25.89 36.43 32.61 35.03 36 36C36 36 37.65 36.54 39 38C38.32 38.97 37.35 38.99 36 38.5C32.61 37.53 25.89 38.96 22.5 37.5C19.11 38.96 12.39 37.53 9 38.5C7.646 38.99 6.677 38.97 6 38C7.354 36.06 9 36 9 36Z" fill="#112B3C" stroke="#112B3C" stroke-width="1.5" stroke-linejoin="round" />
    <path fill-rule="evenodd" clip-rule="evenodd" d="M15 32C17.5 34.5 27.5 34.5 30 32C30.5 30.5 30 30 30 30C30 27.5 27.5 26 27.5 26C33 24.5 33.5 14.5 22.5 10.5C11.5 14.5 12 24.5 17.5 26C17.5 26 15 27.5 15 30C15 30 14.5 30.5 15 32Z" fill="#112B3C" stroke="#112B3C" stroke-width="1.5" stroke-linejoin="round" />
    <path fill-rule="evenodd" clip-rule="evenodd" d="M25 8C25 8.66304 24.7366 9.29893 24.2678 9.76777C23.7989 10.2366 23.163 10.5 22.5 10.5C21.837 10.5 21.2011 10.2366 20.7322 9.76777C20.2634 9.29893 20 8.66304 20 8C20 7.33696 20.2634 6.70107 20.7322 6.23223C21.2011 5.76339 21.837 5.5 22.5 5.5C23.163 5.5 23.7989 5.76339 24.2678 6.23223C24.7366 6.70107 25 7.33696 25 8V8Z" fill="#112B3C" stroke="#112B3C" stroke-width="1.5" stroke-linejoin="round" />
    <path d="M17.5 26H27.5M15 30H30M22.5 15.5V20.5M20 18H25" stroke="#ECECEC" stroke-width="1.5" stroke-linecap="round" />
  </g>
  <g id="bk" fill="none" transform="scale(0.8888888888888888 0.8888888888888888)">
    <path d="M22.5 11.63V6" stroke="#112B3C" stroke-width="1.5" stroke-linecap="round" />
    <path fill-rule="evenodd" clip-rule="evenodd" d="M22.5 25C22.5 25 27 17.5 25.5 14.5C25.5 14.5 24.5 12 22.5 12C20.5 12 19.5 14.5 19.5 14.5C18 17.5 22.5 25 22.5 25Z" fill="#112B3C" stroke="#112B3C" stroke-width="1.5" />
    <path fill-rule="evenodd" clip-rule="evenodd" d="M11.5 37C17 40.5 27 40.5 32.5 37V30C32.5 30 41.5 25.5 38.5 19.5C34.5 13 25 16 22.5 23.5V27V23.5C19 16 9.5 13 6.5 19.5C3.5 25.5 11.5 29.5 11.5 29.5V37Z" fill="#112B3C" stroke="#112B3C" stroke-width="1.5" stroke-linecap="round" stroke-linejoin="round" />
    <path d="M20 8H25" stroke="#112B3C" stroke-width="1.5" stroke-linecap="round" />
    <path d="M32 29.5C32 29.5 40.5 25.5 38.03 19.85C34.15 14 25 18 22.5 24.5L22.51 26.6L22.5 24.5C20 18 9.90602 14 6.99702 19.85C4.50002 25.5 11.85 28.85 11.85 28.85" stroke="#ECECEC" stroke-width="1.5" stroke-linecap="round" stroke-linejoin="round" />
    <path d="M11.5 30C17 27 27 27 32.5 30M11.5 33.5C17 30.5 27 30.5 32.5 33.5M11.5 37C17 34 27 34 32.5 37" stroke="#ECECEC" stroke-width="1.5" stroke-linecap="round" stroke-linejoin="round" />
  </g>
  <g id="bn" fill="none" transform="scale(0.8888888888888888 0.8888888888888888)">
    <path fill-rule="evenodd" clip-rule="evenodd" d="M22 10C32.5 11 38.5 18 38 39H15C15 30 25 32.5 23 18" fill="#112B3C" />
    <path d="M22 10C32.5 11 38.5 18 38 39H15C15 30 25 32.5 23 18" stroke="#112B3C" stroke-width="1.5" stroke-linecap="round" stroke-linejoin="round" />
    <path fill-rule="evenodd" clip-rule="evenodd" d="M24 18C24.38 20.91 18.45 25.37 16 27C13 29 13.18 31.34 11 31C9.958 30.06 12.41 27.96 11 28C10 28 11.19 29.23 10 30C9 30 5.997 31 6 26C6 24 12 14 12 14C12 14 13.89 12.1 14 10.5C13.27 9.506 13.5 8.5 13.5 7.5C14.5 6.5 16.5 10 16.5 10H18.5C18.5 10 19.28 8.008 21 7C22 7 22 10 22 10" fill="#112B3C" />
    <path d="M24 18C24.38 20.91 18.45 25.37 16 27C13 29 13.18 31.34 11 31C9.958 30.06 12.41 27.96 11 28C10 28 11.19 29.23 10 30C9 30 5.997 31 6 26C6 24 12 14 12 14C12 14 13.89 12.1 14 10.5C13.27 9.506 13.5 8.5 13.5 7.5C14.5 6.5 16.5 10 16.5 10H18.5C18.5 10 19.28 8.008 21 7C22 7 22 10 22 10" stroke="#112B3C" stroke-width="1.5" stroke-linecap="round" stroke-linejoin="round" />
    <path fill-rule="evenodd" clip-rule="evenodd" d="M9.5 25.5C9.5 25.6326 9.44732 25.7598 9.35355 25.8535C9.25979 25.9473 9.13261 26 9 26C8.86739 26 8.74021 25.9473 8.64645 25.8535C8.55268 25.7598 8.5 25.6326 8.5 25.5C8.5 25.3674 8.55268 25.2402 8.64645 25.1464C8.74021 25.0527 8.86739 25 9 25C9.13261 25 9.25979 25.0527 9.35355 25.1464C9.44732 25.2402 9.5 25.3674 9.5 25.5ZM14.933 15.75C14.8345 15.9215 14.7255 16.0851 14.6123 16.2312C14.4992 16.3773 14.3841 16.5032 14.2737 16.6015C14.1632 16.6998 14.0597 16.7686 13.969 16.804C13.8782 16.8394 13.8021 16.8406 13.745 16.8076C13.6879 16.7747 13.6509 16.7081 13.6362 16.6119C13.6215 16.5156 13.6293 16.3915 13.6593 16.2468C13.6892 16.102 13.7406 15.9394 13.8106 15.7683C13.8806 15.5972 13.9677 15.4211 14.067 15.25C14.1655 15.0785 14.2745 14.9149 14.3877 14.7688C14.5008 14.6227 14.6159 14.4968 14.7263 14.3985C14.8368 14.3002 14.9403 14.2314 15.031 14.196C15.1218 14.1606 15.1979 14.1594 15.255 14.1923C15.3121 14.2253 15.3491 14.2918 15.3638 14.3881C15.3785 14.4844 15.3707 14.6085 15.3407 14.7532C15.3108 14.898 15.2594 15.0606 15.1894 15.2317C15.1194 15.4027 15.0323 15.5789 14.933 15.75V15.75Z" fill="#ECECEC" stroke="#ECECEC" stroke-width="1.5" stroke-linecap="round" stroke-linejoin="round" />
    <path fill-rule="evenodd" clip-rule="evenodd" d="M24.55 10.4L24.1 11.85L24.6 12C27.75 13 30.25 14.49 32.5 18.75C34.75 23.01 35.75 29.06 35.25 39L35.2 39.5H37.45L37.5 39C38 28.94 36.62 22.15 34.25 17.66C31.88 13.17 28.46 11.02 25.06 10.5L24.55 10.4Z" fill="#ECECEC" />
  </g>
  <g id="bp" fill="none" transform="scale(0.8888888888888888 0.8888888888888888)">
    <path d="M22.5 9C20.29 9 18.5 10.79 18.5 13C18.5 13.89 18.79 14.71 19.28 15.38C17.33 16.5 16 18.59 16 21C16 23.03 16.94 24.84 18.41 26.03C15.41 27.09 11 31.58 11 39.5H34C34 31.58 29.59 27.09 26.59 26.03C28.06 24.84 29 23.03 29 21C29 18.59 27.67 16.5 25.72 15.38C26.21 14.71 26.5 13.89 26.5 13C26.5 10.79 24.71 9 22.5 9Z" fill="#112B3C" stroke="#112B3C" stroke-width="1.5" stroke-linecap="round" />
  </g>
  <g id="bq" fill="none" transform="scale(0.8888888888888888 0.8888888888888888)">
    <path d="M6 14.75C7.51878 14.75 8.75 13.5188 8.75 12C8.75 10.4812 7.51878 9.25 6 9.25C4.48122 9.25 3.25 10.4812 3.25 12C3.25 13.5188 4.48122 14.75 6 14.75Z" fill="#112B3C" />
    <path d="M14 11.75C15.5188 11.75 16.75 10.5188 16.75 9C16.75 7.48122 15.5188 6.25 14 6.25C12.4812 6.25 11.25 7.48122 11.25 9C11.25 10.5188 12.4812 11.75 14 11.75Z" fill="#112B3C" />
    <path d="M22.5 10.75C24.0188 10.75 25.25 9.51878 25.25 8C25.25 6.48122 24.0188 5.25 22.5 5.25C20.9812 5.25 19.75 6.48122 19.75 8C19.75 9.51878 20.9812 10.75 22.5 10.75Z" fill="#112B3C" />
    <path d="M31 11.75C32.5188 11.75 33.75 10.5188 33.75 9C33.75 7.48122 32.5188 6.25 31 6.25C29.4812 6.25 28.25 7.48122 28.25 9C28.25 10.5188 29.4812 11.75 31 11.75Z" fill="#112B3C" />
    <path d="M39 14.75C40.5188 14.75 41.75 13.5188 41.75 12C41.75 10.4812 40.5188 9.25 39 9.25C37.4812 9.25 36.25 10.4812 36.25 12C36.25 13.5188 37.4812 14.75 39 14.75Z" fill="#112B3C" />
    <path fill-rule="evenodd" clip-rule="evenodd" d="M9 26C17.5 24.5 30 24.5 36 26L38.5 13.5L31 25L30.7 10.9L25.5 24.5L22.5 10L19.5 24.5L14.3 10.9L14 25L6.5 13.5L9 26Z" fill="#112B3C" stroke="#112B3C" stroke-width="1.5" stroke-linejoin="round" />
    <path fill-rule="evenodd" clip-rule="evenodd" d="M9 26C9 28 10.5 28 11.5 30C12.5 31.5 12.5 31 12 33.5C10.5 34.5 10.5 36 10.5 36C9 37.5 11 38.5 11 38.5C17.5 39.5 27.5 39.5 34 38.5C34 38.5 35.5 37.5 34 36C34 36 34.5 34.5 33 33.5C32.5 31 32.5 31.5 33.5 30C34.5 28 36 28 36 26C27.5 24.5 17.5 24.5 9 26Z" fill="#112B3C" stroke="#112B3C" stroke-width="1.5" stroke-linejoin="round" />
    <path d="M11 38.5C18.4478 41.091 26.5522 41.091 34 38.5" stroke="#112B3C" stroke-width="1.5" stroke-linejoin="round" />
    <path d="M11 29C18.4478 26.409 26.5522 26.409 34 29M12.5 31.5H32.5M11.5 34.5C18.6427 36.8647 26.3573 36.8647 33.5 34.5M10.5 37.5C18.25 40.3286 26.75 40.3286 34.5 37.5" stroke="#ECECEC" stroke-width="1.5" stroke-linecap="round" stroke-linejoin="round" />
  </g>
  <g id="br" fill="none" transform="scale(0.8888888888888888 0.8888888888888888)">
    <path fill-rule="evenodd" clip-rule="evenodd" d="M9 39H36V36H9V39ZM12.5 32L14 29.5H31L32.5 32H12.5ZM12 36V32H33V36H12Z" fill="#112B3C" stroke="#112B3C" stroke-width="1.5" stroke-linejoin="round" />
    <path fill-rule="evenodd" clip-rule="evenodd" d="M14 29.5V16.5H31V29.5H14Z" fill="#112B3C" stroke="#112B3C" stroke-width="1.5" />
    <path fill-rule="evenodd" clip-rule="evenodd" d="M14 16.5L11 14H34L31 16.5H14ZM11 14V9H15V11H20V9H25V11H30V9H34V14H11Z" fill="#112B3C" stroke="#112B3C" stroke-width="1.5" stroke-linejoin="round" />
    <path d="M11 14H34M12 35.5H33H12ZM13 31.5H32H13ZM14 29.5H31H14ZM14 16.5H31H14Z" stroke="#ECECEC" stroke-linecap="round" />
  </g>
  <g id="wb" fill="none" transform="scale(0.8888888888888888 0.8888888888888888)">
    <path fill-rule="evenodd" clip-rule="evenodd" d="M9 36C12.39 35.03 19.11 36.43 22.5 34C25.89 36.43 32.61 35.03 36 36C36 36 37.65 36.54 39 38C38.32 38.97 37.35 38.99 36 38.5C32.61 37.53 25.89 38.96 22.5 37.5C19.11 38.96 12.39 37.53 9 38.5C7.646 38.99 6.677 38.97 6 38C7.354 36.06 9 36 9 36Z" fill="white" stroke="#112B3C" stroke-width="1.5" stroke-linejoin="round" />
    <path fill-rule="evenodd" clip-rule="evenodd" d="M15 32C17.5 34.5 27.5 34.5 30 32C30.5 30.5 30 30 30 30C30 27.5 27.5 26 27.5 26C33 24.5 33.5 14.5 22.5 10.5C11.5 14.5 12 24.5 17.5 26C17.5 26 15 27.5 15 30C15 30 14.5 30.5 15 32Z" fill="white" stroke="#112B3C" stroke-width="1.5" stroke-linejoin="round" />
    <path fill-rule="evenodd" clip-rule="evenodd" d="M25 8C25 8.66304 24.7366 9.29893 24.2678 9.76777C23.7989 10.2366 23.163 10.5 22.5 10.5C21.837 10.5 21.2011 10.2366 20.7322 9.76777C20.2634 9.29893 20 8.66304 20 8C20 7.33696 20.2634 6.70107 20.7322 6.23223C21.2011 5.76339 21.837 5.5 22.5 5.5C23.163 5.5 23.7989 5.76339 24.2678 6.23223C24.7366 6.70107 25 7.33696 25 8V8Z" fill="white" stroke="#112B3C" stroke-width="1.5" stroke-linejoin="round" />
    <path d="M17.5 26H27.5M15 30H30M22.5 15.5V20.5M20 18H25" stroke="#112B3C" stroke-width="1.5" stroke-linecap="round" />
  </g>
  <g id="wk" fill="none" transform="scale(0.8888888888888888 0.8888888888888888)">
    <path d="M22.5 11.63V6M20 8H25" stroke="#112B3C" stroke-width="1.5" stroke-linecap="round" />
    <path fill-rule="evenodd" clip-rule="evenodd" d="M22.5 25C22.5 25 27 17.5 25.5 14.5C25.5 14.5 24.5 12 22.5 12C20.5 12 19.5 14.5 19.5 14.5C18 17.5 22.5 25 22.5 25Z" fill="white" stroke="#112B3C" stroke-width="1.5" />
    <path fill-rule="evenodd" clip-rule="evenodd" d="M11.5 37C17 40.5 27 40.5 32.5 37V30C32.5 30 41.5 25.5 38.5 19.5C34.5 13 25 16 22.5 23.5V27V23.5C19 16 9.5 13 6.5 19.5C3.5 25.5 11.5 29.5 11.5 29.5V37Z" fill="white" stroke="#112B3C" stroke-width="1.5" stroke-linecap="round" stroke-linejoin="round" />
    <path d="M11.5 30C17 27 27 27 32.5 30M11.5 33.5C17 30.5 27 30.5 32.5 33.5M11.5 37C17 34 27 34 32.5 37" stroke="#112B3C" stroke-width="1.5" stroke-linecap="round" stroke-linejoin="round" />
  </g>
  <g id="wn" fill="none" transform="scale(0.8888888888888888 0.8888888888888888)">
    <path fill-rule="evenodd" clip-rule="evenodd" d="M22 10C32.5 11 38.5 18 38 39H15C15 30 25 32.5 23 18" fill="white" />
    <path d="M22 10C32.5 11 38.5 18 38 39H15C15 30 25 32.5 23 18" stroke="#112B3C" stroke-width="1.5" stroke-linecap="round" stroke-linejoin="round" />
    <path fill-rule="evenodd" clip-rule="evenodd" d="M24 18C24.38 20.91 18.45 25.37 16 27C13 29 13.18 31.34 11 31C9.958 30.06 12.41 27.96 11 28C10 28 11.19 29.23 10 30C9 30 5.997 31 6 26C6 24 12 14 12 14C12 14 13.89 12.1 14 10.5C13.27 9.506 13.5 8.5 13.5 7.5C14.5 6.5 16.5 10 16.5 10H18.5C18.5 10 19.28 8.008 21 7C22 7 22 10 22 10" fill="white" />
    <path d="M24 18C24.38 20.91 18.45 25.37 16 27C13 29 13.18 31.34 11 31C9.958 30.06 12.41 27.96 11 28C10 28 11.19 29.23 10 30C9 30 5.997 31 6 26C6 24 12 14 12 14C12 14 13.89 12.1 14 10.5C13.27 9.506 13.5 8.5 13.5 7.5C14.5 6.5 16.5 10 16.5 10H18.5C18.5 10 19.28 8.008 21 7C22 7 22 10 22 10" stroke="#112B3C" stroke-width="1.5" stroke-linecap="round" stroke-linejoin="round" />
    <path fill-rule="evenodd" clip-rule="evenodd" d="M9.5 25.5C9.5 25.6326 9.44732 25.7598 9.35355 25.8535C9.25979 25.9473 9.13261 26 9 26C8.86739 26 8.74021 25.9473 8.64645 25.8535C8.55268 25.7598 8.5 25.6326 8.5 25.5C8.5 25.3674 8.55268 25.2402 8.64645 25.1464C8.74021 25.0527 8.86739 25 9 25C9.13261 25 9.25979 25.0527 9.35355 25.1464C9.44732 25.2402 9.5 25.3674 9.5 25.5ZM14.933 15.75C14.8345 15.9215 14.7255 16.0851 14.6123 16.2312C14.4992 16.3773 14.3841 16.5032 14.2737 16.6015C14.1632 16.6998 14.0597 16.7686 13.969 16.804C13.8782 16.8394 13.8021 16.8406 13.745 16.8076C13.6879 16.7747 13.6509 16.7081 13.6362 16.6119C13.6215 16.5156 13.6293 16.3915 13.6593 16.2468C13.6892 16.102 13.7406 15.9394 13.8106 15.7683C13.8806 15.5972 13.9677 15.4211 14.067 15.25C14.1655 15.0785 14.2745 14.9149 14.3877 14.7688C14.5008 14.6227 14.6159 14.4968 14.7263 14.3985C14.8368 14.3002 14.9403 14.2314 15.031 14.196C15.1218 14.1606 15.1979 14.1594 15.255 14.1923C15.3121 14.2253 15.3491 14.2918 15.3638 14.3881C15.3785 14.4844 15.3707 14.6085 15.3407 14.7532C15.3108 14.898 15.2594 15.0606 15.1894 15.2317C15.1194 15.4027 15.0323 15.5789 14.933 15.75V15.75Z" fill="#112B3C" stroke="#112B3C" stroke-width="1.5" stroke-linecap="round" stroke-linejoin="round" />
  </g>
  <g id="wp" fill="none" transform="scale(0.8888888888888888 0.8888888888888888)">
    <path d="M22.5 9C20.29 9 18.5 10.79 18.5 13C18.5 13.89 18.79 14.71 19.28 15.38C17.33 16.5 16 18.59 16 21C16 23.03 16.94 24.84 18.41 26.03C15.41 27.09 11 31.58 11 39.5H34C34 31.58 29.59 27.09 26.59 26.03C28.06 24.84 29 23.03 29 21C29 18.59 27.67 16.5 25.72 15.38C26.21 14.71 26.5 13.89 26.5 13C26.5 10.79 24.71 9 22.5 9Z" fill="white" stroke="#112B3C" stroke-width="1.5" stroke-linecap="round" />
  </g>
  <g id="wq" fill="none" transform="scale(0.8888888888888888 0.8888888888888888)">
    <path fill-rule="evenodd" clip-rule="evenodd" d="M8 12C8 12.5304 7.78929 13.0391 7.41421 13.4142C7.03914 13.7893 6.53043 14 6 14C5.46957 14 4.96086 13.7893 4.58579 13.4142C4.21071 13.0391 4 12.5304 4 12C4 11.4696 4.21071 10.9609 4.58579 10.5858C4.96086 10.2107 5.46957 10 6 10C6.53043 10 7.03914 10.2107 7.41421 10.5858C7.78929 10.9609 8 11.4696 8 12ZM24.5 7.5C24.5 8.03043 24.2893 8.53914 23.9142 8.91421C23.5391 9.28929 23.0304 9.5 22.5 9.5C21.9696 9.5 21.4609 9.28929 21.0858 8.91421C20.7107 8.53914 20.5 8.03043 20.5 7.5C20.5 6.96957 20.7107 6.46086 21.0858 6.08579C21.4609 5.71071 21.9696 5.5 22.5 5.5C23.0304 5.5 23.5391 5.71071 23.9142 6.08579C24.2893 6.46086 24.5 6.96957 24.5 7.5V7.5ZM41 12C41 12.5304 40.7893 13.0391 40.4142 13.4142C40.0391 13.7893 39.5304 14 39 14C38.4696 14 37.9609 13.7893 37.5858 13.4142C37.2107 13.0391 37 12.5304 37 12C37 11.4696 37.2107 10.9609 37.5858 10.5858C37.9609 10.2107 38.4696 10 39 10C39.5304 10 40.0391 10.2107 40.4142 10.5858C40.7893 10.9609 41 11.4696 41 12ZM16 8.5C16 9.03043 15.7893 9.53914 15.4142 9.91421C15.0391 10.2893 14.5304 10.5 14 10.5C13.4696 10.5 12.9609 10.2893 12.5858 9.91421C12.2107 9.53914 12 9.03043 12 8.5C12 7.96957 12.2107 7.46086 12.5858 7.08579C12.9609 6.71071 13.4696 6.5 14 6.5C14.5304 6.5 15.0391 6.71071 15.4142 7.08579C15.7893 7.46086 16 7.96957 16 8.5V8.5ZM33 9C33 9.53043 32.7893 10.0391 32.4142 10.4142C32.0391 10.7893 31.5304 11 31 11C30.4696 11 29.9609 10.7893 29.5858 10.4142C29.2107 10.0391 29 9.53043 29 9C29 8.46957 29.2107 7.96086 29.5858 7.58579C29.9609 7.21071 30.4696 7 31 7C31.5304 7 32.0391 7.21071 32.4142 7.58579C32.7893 7.96086 33 8.46957 33 9Z" fill="white" stroke="#112B3C" stroke-width="1.5" stroke-linecap="round" stroke-linejoin="round" />
    <path fill-rule="evenodd" clip-rule="evenodd" d="M9 26C17.5 24.5 30 24.5 36 26L38 14L31 25V11L25.5 24.5L22.5 9.5L19.5 24.5L14 10.5V25L7 14L9 26Z" fill="white" stroke="#112B3C" stroke-width="1.5" stroke-linejoin="round" />
    <path fill-rule="evenodd" clip-rule="evenodd" d="M9 26C9 28 10.5 28 11.5 30C12.5 31.5 12.5 31 12 33.5C10.5 34.5 10.5 36 10.5 36C9 37.5 11 38.5 11 38.5C17.5 39.5 27.5 39.5 34 38.5C34 38.5 35.5 37.5 34 36C34 36 34.5 34.5 33 33.5C32.5 31 32.5 31.5 33.5 30C34.5 28 36 28 36 26C27.5 24.5 17.5 24.5 9 26Z" fill="white" stroke="#112B3C" stroke-width="1.5" stroke-linejoin="round" />
    <path d="M11.5 30C15 29 30 29 33.5 30M12 33.5C18 32.5 27 32.5 33 33.5" stroke="#112B3C" stroke-width="1.5" stroke-linecap="round" stroke-linejoin="round" />
  </g>
  <g id="wr" fill="none" transform="scale(0.8888888888888888 0.8888888888888888)">
    <path fill-rule="evenodd" clip-rule="evenodd" d="M9 39H36V36H9V39ZM12 36V32H33V36H12ZM11 14V9H15V11H20V9H25V11H30V9H34V14" fill="white" />
    <path d="M11 14V9H15V11H20V9H25V11H30V9H34V14M9 39H36V36H9V39ZM12 36V32H33V36H12Z" stroke="#112B3C" stroke-width="1.5" stroke-linejoin="round" />
    <path fill-rule="evenodd" clip-rule="evenodd" d="M34 14L31 17H14L11 14" fill="white" />
    <path d="M34 14L31 17H14L11 14" stroke="#112B3C" stroke-width="1.5" stroke-linecap="round" stroke-linejoin="round" />
    <path fill-rule="evenodd" clip-rule="evenodd" d="M31 17V29.5H14V17" fill="white" />
    <path d="M31 17V29.5H14V17" stroke="#112B3C" stroke-width="1.5" />
    <path fill-rule="evenodd" clip-rule="evenodd" d="M31 29.5L32.5 32H12.5L14 29.5" fill="white" />
    <path d="M31 29.5L32.5 32H12.5L14 29.5" stroke="#112B3C" stroke-width="1.5" stroke-linecap="round" stroke-linejoin="round" />
    <path d="M11 14H34" stroke="#112B3C" stroke-width="1.5" stroke-linecap="round" />
  </g>
</svg>