<svg xmlns="http://www.w3.org/2000/svg" width="40" height="40" viewbox="0.0 0.0 933.0 933.0">
  <g id="bb" transform="scale(0.04287245444801715 0.04287245444801715)">
    <style id="bbstyle-base">.bbbase{fill-opacity:1;fill-rule:evenodd;stroke-miterlimit:4;stroke-dasharray:none;stroke-linecap:round;stroke-linejoin:round;stroke-opacity:1}.bbstroke-medium{stroke-width:20}.bbstroke-color{stroke:#000}</style>
    <defs id="bbdefs1927">
      <linearGradient href="#bbfillGradient" id="bbmain-gradient" x1="683" x2="739.5" y1="74" y2="69" gradientTransform="matrix(6.26023 0 0 7.12396 -3967 -262)" gradientUnits="userSpaceOnUse" />
      <linearGradient id="bbfillGradient">
        <stop id="bbstop0" offset="0" stop-color="#7f899b" stop-opacity="1" />
        <stop id="bbstop1" offset="1" stop-color="#1c1c2f" stop-opacity="1" />
      </linearGradient>
    </defs>
    <path id="bbboundary" fill="none" stroke-width="35" d="M468 50c-34 0-62 23-62 52 0 8 2 16 6 23-71 20-122 79-122 164 3 78 42 150 105 194-63 25-3 53-3 118-46 83-62 91-140 149-6 4-52 9-57 14-32 42-15 110 46 114 42 3 417 4 460-1 67-7 78-78 47-116-5-6-52-12-59-16-61-33-139-82-160-144 0-65 71-93 8-118 65-45 102-110 109-194 4-46-21-92-60-125l-65 146c-6 15-23 21-38 15-15-7-22-24-15-39l67-153a197 197 0 0 0-13-5c5-8 8-17 8-26 0-29-28-52-62-52z" class="bbbase bbstroke-color" />
    <path id="bbmain" fill="url(#bbmain-gradient)" d="M468 50c-34 0-62 23-62 52 0 8 2 16 6 23-71 20-122 79-122 164 3 78 42 150 105 194-63 25-3 53-3 118-46 83-62 91-140 149-6 4-52 9-57 14-32 42-15 110 46 114 42 3 417 4 460-1 67-7 78-78 47-116-5-6-52-12-59-16-61-33-139-82-160-144 0-65 71-93 8-118 65-45 102-110 109-194 4-46-21-92-60-125l-65 146c-6 15-23 21-38 15-15-7-22-24-15-39l67-153a197 197 0 0 0-13-5c5-8 8-17 8-26 0-29-28-52-62-52z" class="bbbase bbstroke-color bbstroke-medium" />
    <path id="bbdeco-lines" fill="none" d="M413 510h105zm-20 200h145zm-100 80h355z" class="bbbase bbstroke-color bbstroke-medium" opacity=".5" />
    <path id="bbdeco-top" fill="none" d="M350 410c40 48 237 35 287-129" class="bbbase bbstroke-color bbstroke-medium" opacity=".5" />
    <path id="bbdeco-side" fill="none" d="M685 867c67-7 77-49 46-88-5-6-52-11-58-15-62-34-139-92-160-153 0-66 70-113 7-137 65-45 102-110 110-195 4-46-5-52-44-85" class="bbbase bbstroke-color bbstroke-medium" opacity=".5" />
  </g>
  <g id="bk" transform="scale(0.04287245444801715 0.04287245444801715)">
    <style id="bkstyle-base">.bkbase{fill-opacity:1;fill-rule:evenodd;stroke-miterlimit:4;stroke-dasharray:none;stroke-linecap:round;stroke-linejoin:round;stroke-opacity:1}.bkstroke-medium{stroke-width:20}.bkstroke-color{stroke:#000}</style>
    <defs id="bkdefs787">
      <linearGradient href="#bkfillGradient" id="bkmain-gradient" x1="660.5" x2="757.7" y1="90.4" y2="103.7" gradientTransform="matrix(6.24848 0 0 7.12397 -3963 -235)" gradientUnits="userSpaceOnUse" />
      <linearGradient id="bkfillGradient">
        <stop id="bkstop0" offset="0" stop-color="#7f899b" stop-opacity="1" />
        <stop id="bkstop1" offset="1" stop-color="#1c1c2f" stop-opacity="1" />
      </linearGradient>
    </defs>
    <path id="bkboundary" fill="none" stroke-width="35" d="M422 56c-7 24 3 53 2 83l-94-4v93l92-4-5 105-43-3C189 247 38 189 177 445c13 23 75 75 39 110 14 37 45 29 63 72 7 19 11 92-29 117-6 3-66 18-70 24-33 41-15 110 45 114 42 2 453 3 497-2 67-7 77-77 46-116-4-6-57-14-72-25-27-20-41-87-34-112 9-39 45-36 55-68-57-41 31-83 45-110 133-252 2-202-189-122l-48 1-5-104 91 4v-93l-93 4c-3-28 10-63 2-83z" class="bkbase bkstroke-color" />
    <path id="bkmain" fill="url(#bkmain-gradient)" d="M422 56c-7 24 3 53 2 83l-94-4v93l92-4-5 105-43-3C189 247 38 189 177 445c13 23 75 75 39 110 14 37 45 29 63 72 7 19 11 92-29 117-6 3-66 18-70 24-33 41-15 110 45 114 42 2 453 3 497-2 67-7 77-77 46-116-4-6-57-14-72-25-27-20-41-87-34-112 9-39 45-36 55-68-57-41 31-83 45-110 133-252 2-202-189-122l-48 1-5-104 91 4v-93l-93 4c-3-28 10-63 2-83z" class="bkbase bkstroke-color bkstroke-medium" />
    <path id="bkdeco-side" fill="none" d="M696 880c67-7 81-68 50-107-4-6-52-9-67-20-27-20-42-101-36-126 10-39 36-36 46-68-47-45 31-74 45-100 133-253 41-194-171-119l-52-1-5-130 87 4 2-67-90 2c-6-29 11-58 3-82m-91 146-75-1" class="bkbase bkstroke-color bkstroke-medium" opacity=".5" />
    <path id="bkdeco-lines" fill="none" d="M258 560c152 17 275 15 382 0M311 728h242zm-56 65h429z" class="bkbase bkstroke-color bkstroke-medium" opacity=".5" />
    <path id="bkdeco-top" fill="none" d="M376 335c-55-13-170-60-216-59-13 0-21 4-22 13m72 176c58 71 494 59 555-95" class="bkbase bkstroke-color bkstroke-medium" opacity=".5" />
  </g>
  <g id="bn" transform="scale(0.04287245444801715 0.04287245444801715)">
    <style id="bnstyle-base">.bnbase{fill-opacity:1;fill-rule:evenodd;stroke-miterlimit:4;stroke-dasharray:none;stroke-linecap:round;stroke-linejoin:round;stroke-opacity:1}.bnstroke-medium{stroke-width:20}.bnstroke-color{stroke:#000}</style>
    <defs id="bndefs2202">
      <linearGradient href="#bnfillGradient" id="bnmain-gradient" x1="824.6" x2="992.7" y1="119.5" y2="168.5" gradientTransform="translate(-3372 -24) scale(4.2241)" gradientUnits="userSpaceOnUse" />
      <linearGradient id="bnfillGradient">
        <stop id="bnstop0" offset="0" stop-color="#7f899b" stop-opacity="1" />
        <stop id="bnstop1" offset="1" stop-color="#1c1c2f" stop-opacity="1" />
      </linearGradient>
    </defs>
    <path id="bnboundary" fill="none" stroke-width="35" d="m394 44-24 83-59-68-4 89c-91 91-38 111-172 316-9 13-25 24-29 42-15 80 88 60 106 69 71-57 100-58 137-98 42 15 108-3 147-45-26 77-136 132-169 267 39 37 0 74-47 71-52 12-34 109 19 109l452-3c63 0 72-92 30-108-40 0-58-41-26-69 4-74 3-143-12-214-2-7 2-22 10-24-6-23-30-45-40-69-5-11-18-17 19-18-11-22-61-58-76-78-6-7 25-13 19-19-35-37-85-50-109-68-8-6 23-15 14-21-33-21-102-48-145-65z" class="bnbase bnstroke-color" />
    <path id="bnmain" fill="url(#bnmain-gradient)" d="m394 44-24 83-59-68-4 89c-91 91-38 111-172 316-9 13-25 24-29 42-15 80 88 60 106 69 71-57 100-58 137-98 42 15 108-3 147-45-26 77-136 132-169 267 39 37 0 74-47 71-52 12-34 109 19 109l452-3c63 0 72-92 30-108-40 0-58-41-26-69 4-74 3-143-12-214-2-7 2-22 10-24-6-23-30-45-40-69-5-11-18-17 19-18-11-22-61-58-76-78-6-7 25-13 19-19-35-37-85-50-109-68-8-6 23-15 14-21-33-21-102-48-145-65z" class="bnbase bnstroke-color bnstroke-medium" />
    <path id="bneyebrow" fill="none" d="M336 282c-28 2-50 16-65 41" class="bnbase bnstroke-color bnstroke-medium" />
    <path id="bneye" fill="none" d="M310 316c12 8 25 5 22-12" class="bnbase bnstroke-color bnstroke-medium" />
    <path id="bnnose" fill="none" d="M155 501c-13-5-23 17-15 17" class="bnbase bnstroke-color bnstroke-medium" />
    <path id="bncheek" fill="none" d="M508 405c10-13 9-19 11-27" class="bnbase bnstroke-color bnstroke-medium" />
    <path id="bndeco-lines" fill="none" d="M644 699H370zm64 64H360z" class="bnbase bnstroke-color bnstroke-medium" opacity=".5" />
    <path id="bndeco-side" fill="none" d="M723 876c63 0 78-76 36-92-39 0-58-60-25-88 3-74 3-143-13-213-2-7 2-23 11-24-7-24-31-36-41-60-5-12-18-17 20-19-12-21-61-57-77-77-5-7 25-13 19-20-34-36-84-49-109-68-8-6 23-14 15-20-33-22-81-55-124-72" class="bnbase bnstroke-color bnstroke-medium" opacity=".5" />
  </g>
  <g id="bp" transform="scale(0.04285867352405443 0.04285867352405443)">
    <style id="bpstyle-base">.bpbase{fill-opacity:1;fill-rule:evenodd;stroke-miterlimit:4;stroke-dasharray:none;stroke-linecap:round;stroke-linejoin:round;stroke-opacity:1}.bpstroke-medium{stroke-width:20}.bpstroke-color{stroke:#000}</style>
    <defs id="bpdefs2718">
      <linearGradient href="#bpfillGradient" id="bpmain-gradient" x1="462.1" x2="1135.2" y1="776.1" y2="839.4" gradientTransform="matrix(.64593 0 0 .64727 -26.8 91.2)" gradientUnits="userSpaceOnUse" />
      <linearGradient id="bpfillGradient">
        <stop id="bpstop0" offset="0" stop-color="#7f899b" stop-opacity="1" />
        <stop id="bpstop1" offset="1" stop-color="#1c1c2f" stop-opacity="1" />
      </linearGradient>
    </defs>
    <path id="bpboundary" fill="none" stroke-width="35" d="M464 199.7c-72.1.9-129.8 57.9-134.5 124.2-2.4 33 45.3 89 73.2 106.6-137.4 31-2.7 70.6-2.7 127.7 0 39.4-53.5 65.7-24.2 91-15.9 64.2-62.6 87.4-119.2 113.5-27.9 35.7-13 95.3 39.4 98.7 36.7 2.4 307.5 3 345.4-1.1 58.3-6.4 67.4-67.3 40.5-101-57-17.6-118.7-42.6-131.1-108.7 30.3-25.4-31.6-52.2-31.6-92.4 0-57.1 150.2-90.4 6.4-127.7 27.9-17.6 72.4-73.6 73.2-106.6 1.6-64.7-65.8-125-134.7-124.2Z" class="bpbase bpstroke-color" />
    <path id="bpmain" fill="url(#bpmain-gradient)" d="M464 199.7c-72.1.9-129.8 57.9-134.5 124.2-2.4 33 45.3 89 73.2 106.6-137.4 31-2.7 70.6-2.7 127.7 0 39.4-53.5 65.7-24.2 91-15.9 64.2-62.6 87.4-119.2 113.5-27.9 35.7-13 95.3 39.4 98.7 36.7 2.4 307.5 3 345.4-1.1 58.3-6.4 67.4-67.3 40.5-101-57-17.6-118.7-42.6-131.1-108.7 30.3-25.4-31.6-52.2-31.6-92.4 0-57.1 150.2-90.4 6.4-127.7 27.9-17.6 72.4-73.6 73.2-106.6 1.6-64.7-65.8-125-134.7-124.2Z" class="bpbase bpstroke-color bpstroke-medium" />
    <path id="bpdeco-side" fill="none" d="M617.8 863.6c58.3-6.4 67.4-58 40.5-91.6-57-17.7-118.7-52-131.1-118 30.2-25.5-31.6-52.3-31.6-92.5 0-57.1 150.2-90.4 6.4-127.7 27.9-17.6 72.4-73.6 73.2-106.6 1.6-64.7-58.2-120-127.2-119.2" class="bpbase bpstroke-color bpstroke-medium" opacity=".5" />
    <path id="bpdeco-lines" fill="none" d="M416.6 466h94.8zM408 627.7h112.2zm-99.4 153.5h320z" class="bpbase bpstroke-color bpstroke-medium" opacity=".5" />
  </g>
  <g id="bq" transform="scale(0.04287245444801715 0.04287245444801715)">
    <style id="bqstyle-base">.bqbase{fill-opacity:1;fill-rule:evenodd;stroke-miterlimit:4;stroke-dasharray:none;stroke-linecap:round;stroke-linejoin:round;stroke-opacity:1}.bqstroke-medium{stroke-width:20}.bqstroke-color{stroke:#000}</style>
    <defs id="bqdefs1194">
      <linearGradient href="#bqfillGradient" id="bqmain-gradient" x1="660.5" x2="757.7" y1="90.4" y2="103.7" gradientTransform="matrix(6.24848 0 0 7.12396 -3975 -259)" gradientUnits="userSpaceOnUse" />
      <linearGradient id="bqfillGradient">
        <stop id="bqstop0" offset="0" stop-color="#7f899b" stop-opacity="1" />
        <stop id="bqstop1" offset="1" stop-color="#1c1c2f" stop-opacity="1" />
      </linearGradient>
    </defs>
    <path id="bqboundary" fill="none" stroke-width="35" d="M593 82c-29 0-53 22-53 48 0 17 10 32 25 41-43 105-76 239-108 240-44 0-70-137-99-236 15-8 26-24 26-41 0-27-24-48-53-48s-52 21-52 48c0 23 18 42 42 46 10 109 28 237-10 259-39 23-84-108-150-212 8-9 13-20 13-32 0-26-23-48-52-48s-52 22-53 48c-2 41 44 48 53 48 50 127 52 174 80 292 10 39 46 39 63 81 8 19 11 93-28 117-6 4-65 19-69 24-32 41-15 110 45 114 43 3 450 4 493-1 67-8 78-78 47-116-5-6-56-14-71-25-27-20-40-88-34-113 10-39 47-35 56-68 38-140 36-179 97-305h4c29 0 53-21 53-48 0-26-24-48-53-48s-53 22-53 48c0 13 6 24 14 32-76 95-128 230-165 209-44-25-10-144 5-260 23-5 39-24 39-46 0-26-23-48-52-48z" class="bqbase bqstroke-color" />
    <path id="bqmain" fill="url(#bqmain-gradient)" d="M593 82c-29 0-53 22-53 48 0 17 10 32 25 41-43 105-76 239-108 240-44 0-70-137-99-236 15-8 26-24 26-41 0-27-24-48-53-48s-52 21-52 48c0 23 18 42 42 46 10 109 28 237-10 259-39 23-84-108-150-212 8-9 13-20 13-32 0-26-23-48-52-48s-52 22-53 48c-2 41 44 48 53 48 50 127 52 174 80 292 10 39 46 39 63 81 8 19 11 93-28 117-6 4-65 19-69 24-32 41-15 110 45 114 43 3 450 4 493-1 67-8 78-78 47-116-5-6-56-14-71-25-27-20-40-88-34-113 10-39 47-35 56-68 38-140 36-179 97-305h4c29 0 53-21 53-48 0-26-24-48-53-48s-53 22-53 48c0 13 6 24 14 32-76 95-128 230-165 209-44-25-10-144 5-260 23-5 39-24 39-46 0-26-23-48-52-48z" class="bqbase bqstroke-color bqstroke-medium" />
    <path id="bqdeco-lines" fill="none" d="M284 578h317zm12 140h243zm-55 74h428z" class="bqbase bqstroke-color bqstroke-medium" opacity=".5" />
    <path id="bqdeco-side" fill="none" d="M590 440c-53-47-15-146-2-264 22-6 39-24 39-46 0-27-24-39-53-39m111 780c67-7 78-68 47-107-5-6-56-13-71-24-27-20-40-107-34-132 10-39 44-35 54-68 42-140 38-170 99-296h4c29 0 55-21 55-47 0-27-24-39-53-39" class="bqbase bqstroke-color bqstroke-medium" opacity=".5" />
  </g>
  <g id="br" transform="scale(0.04287245444801715 0.04287245444801715)">
    <style id="brstyle-base">.brbase{fill-opacity:1;fill-rule:evenodd;stroke-miterlimit:4;stroke-dasharray:none;stroke-linecap:round;stroke-linejoin:round;stroke-opacity:1}.brstroke-medium{stroke-width:20}.brstroke-color{stroke:#000}</style>
    <defs id="brdefs1553">
      <linearGradient href="#brfillGradient" id="brmain-gradient" x1="660.5" x2="757.7" y1="90.4" y2="103.7" gradientTransform="matrix(6.24848 0 0 7.11058 -3961 -265)" gradientUnits="userSpaceOnUse" />
      <linearGradient id="brfillGradient">
        <stop id="brstop0" offset="0" stop-color="#7f899b" stop-opacity="1" />
        <stop id="brstop1" offset="1" stop-color="#1c1c2f" stop-opacity="1" />
      </linearGradient>
    </defs>
    <path id="brboundary" fill="none" stroke-width="35" d="M775 112H649v81l-114 9v-80l-131 1v81l-109-11v-81l-117 3c-12 98 48 121 7 191l101 53c5 107 28 247 19 315-35 27 32 53-55 71-10 2-58 9-62 14-32 41-15 110 45 114 43 3 432 3 476-2 67-7 77-77 46-116-4-6-42-12-59-15-78-13-19-43-54-62-11-74 9-210 20-320l104-51c-32-77 20-88 9-195z" class="brbase brstroke-color" />
    <path id="brmain" fill="url(#brmain-gradient)" d="M775 112H649v81l-114 9v-80l-131 1v81l-109-11v-81l-117 3c-12 98 48 121 7 191l101 53c5 107 28 247 19 315-35 27 32 53-55 71-10 2-58 9-62 14-32 41-15 110 45 114 43 3 432 3 476-2 67-7 77-77 46-116-4-6-42-12-59-15-78-13-19-43-54-62-11-74 9-210 20-320l104-51c-32-77 20-88 9-195z" class="brbase brstroke-color brstroke-medium" />
    <path id="brdeco-lines" fill="none" d="m239 277 389 2zm100 81h215zm0 331h243Zm-80 86h429Z" class="brbase brstroke-color brstroke-medium" opacity=".5" />
    <path id="brdeco-side" fill="none" d="M670 871c67-7 100-61 69-99-5-6-43-16-60-19-78-13-21-56-56-75-11-74 11-223 23-333l99-51c-28-59 21-100 9-182" class="brbase brstroke-color brstroke-medium" opacity=".5" />
  </g>
  <g id="wb" transform="scale(0.04287245444801715 0.04287245444801715)">
    <style id="wbstyle-base">.wbbase{fill-opacity:1;fill-rule:evenodd;stroke-miterlimit:4;stroke-dasharray:none;stroke-linecap:round;stroke-linejoin:round;stroke-opacity:1}.wbstroke-medium{stroke-width:20}.wbstroke-color{stroke:#000}</style>
    <defs id="wbdefs1927">
      <linearGradient href="#wbfillGradient" id="wbmain-gradient" x1="683" x2="739.5" y1="74" y2="69" gradientTransform="matrix(6.26023 0 0 7.12396 -3967 -262)" gradientUnits="userSpaceOnUse" />
      <linearGradient id="wbfillGradient">
        <stop id="wbstop0" offset="0" stop-color="#fff" stop-opacity="1" />
        <stop id="wbstop1" offset="1" stop-color="#bfd3d7" stop-opacity="1" />
      </linearGradient>
    </defs>
    <path id="wbboundary" fill="none" stroke-width="35" d="M468 50c-34 0-62 23-62 52 0 8 2 16 6 23-71 20-122 79-122 164 3 78 42 150 105 194-63 25-3 53-3 118-46 83-62 91-140 149-6 4-52 9-57 14-32 42-15 110 46 114 42 3 417 4 460-1 67-7 78-78 47-116-5-6-52-12-59-16-61-33-139-82-160-144 0-65 71-93 8-118 65-45 102-110 109-194 4-46-21-92-60-125l-65 146c-6 15-23 21-38 15-15-7-22-24-15-39l67-153a197 197 0 0 0-13-5c5-8 8-17 8-26 0-29-28-52-62-52z" class="wbbase wbstroke-color" />
    <path id="wbmain" fill="url(#wbmain-gradient)" d="M468 50c-34 0-62 23-62 52 0 8 2 16 6 23-71 20-122 79-122 164 3 78 42 150 105 194-63 25-3 53-3 118-46 83-62 91-140 149-6 4-52 9-57 14-32 42-15 110 46 114 42 3 417 4 460-1 67-7 78-78 47-116-5-6-52-12-59-16-61-33-139-82-160-144 0-65 71-93 8-118 65-45 102-110 109-194 4-46-21-92-60-125l-65 146c-6 15-23 21-38 15-15-7-22-24-15-39l67-153a197 197 0 0 0-13-5c5-8 8-17 8-26 0-29-28-52-62-52z" class="wbbase wbstroke-color wbstroke-medium" />
    <path id="wbdeco-lines" fill="none" d="M413 510h105zm-20 200h145zm-100 80h355z" class="wbbase wbstroke-color wbstroke-medium" opacity=".5" />
    <path id="wbdeco-top" fill="none" d="M350 410c40 48 237 35 287-129" class="wbbase wbstroke-color wbstroke-medium" opacity=".5" />
    <path id="wbdeco-side" fill="none" d="M685 867c67-7 77-49 46-88-5-6-52-11-58-15-62-34-139-92-160-153 0-66 70-113 7-137 65-45 102-110 110-195 4-46-5-52-44-85" class="wbbase wbstroke-color wbstroke-medium" opacity=".5" />
  </g>
  <g id="wk" transform="scale(0.04287245444801715 0.04287245444801715)">
    <style id="wkstyle-base">.wkbase{fill-opacity:1;fill-rule:evenodd;stroke-miterlimit:4;stroke-dasharray:none;stroke-linecap:round;stroke-linejoin:round;stroke-opacity:1}.wkstroke-medium{stroke-width:20}.wkstroke-color{stroke:#000}</style>
    <defs id="wkdefs787">
      <linearGradient href="#wkfillGradient" id="wkmain-gradient" x1="660.5" x2="757.7" y1="90.4" y2="103.7" gradientTransform="matrix(6.24848 0 0 7.12397 -3963 -235)" gradientUnits="userSpaceOnUse" />
      <linearGradient id="wkfillGradient">
        <stop id="wkstop0" offset="0" stop-color="#fff" stop-opacity="1" />
        <stop id="wkstop1" offset="1" stop-color="#bfd3d7" stop-opacity="1" />
      </linearGradient>
    </defs>
    <path id="wkboundary" fill="none" stroke-width="35" d="M422 56c-7 24 3 53 2 83l-94-4v93l92-4-5 105-43-3C189 247 38 189 177 445c13 23 75 75 39 110 14 37 45 29 63 72 7 19 11 92-29 117-6 3-66 18-70 24-33 41-15 110 45 114 42 2 453 3 497-2 67-7 77-77 46-116-4-6-57-14-72-25-27-20-41-87-34-112 9-39 45-36 55-68-57-41 31-83 45-110 133-252 2-202-189-122l-48 1-5-104 91 4v-93l-93 4c-3-28 10-63 2-83z" class="wkbase wkstroke-color" />
    <path id="wkmain" fill="url(#wkmain-gradient)" d="M422 56c-7 24 3 53 2 83l-94-4v93l92-4-5 105-43-3C189 247 38 189 177 445c13 23 75 75 39 110 14 37 45 29 63 72 7 19 11 92-29 117-6 3-66 18-70 24-33 41-15 110 45 114 42 2 453 3 497-2 67-7 77-77 46-116-4-6-57-14-72-25-27-20-41-87-34-112 9-39 45-36 55-68-57-41 31-83 45-110 133-252 2-202-189-122l-48 1-5-104 91 4v-93l-93 4c-3-28 10-63 2-83z" class="wkbase wkstroke-color wkstroke-medium" />
    <path id="wkdeco-side" fill="none" d="M696 880c67-7 81-68 50-107-4-6-52-9-67-20-27-20-42-101-36-126 10-39 36-36 46-68-47-45 31-74 45-100 133-253 41-194-171-119l-52-1-5-130 87 4 2-67-90 2c-6-29 11-58 3-82m-91 146-75-1" class="wkbase wkstroke-color wkstroke-medium" opacity=".5" />
    <path id="wkdeco-lines" fill="none" d="M258 560c152 17 275 15 382 0M311 728h242zm-56 65h429z" class="wkbase wkstroke-color wkstroke-medium" opacity=".5" />
    <path id="wkdeco-top" fill="none" d="M376 335c-55-13-170-60-216-59-13 0-21 4-22 13m72 176c58 71 494 59 555-95" class="wkbase wkstroke-color wkstroke-medium" opacity=".5" />
  </g>
  <g id="wn" transform="scale(0.04287245444801715 0.04287245444801715)">
    <style id="wnstyle-base">.wnbase{fill-opacity:1;fill-rule:evenodd;stroke-miterlimit:4;stroke-dasharray:none;stroke-linecap:round;stroke-linejoin:round;stroke-opacity:1}.wnstroke-medium{stroke-width:20}.wnstroke-color{stroke:#000}</style>
    <defs id="wndefs2202">
      <linearGradient href="#wnfillGradient" id="wnmain-gradient" x1="824.6" x2="992.7" y1="119.5" y2="168.5" gradientTransform="translate(-3372 -24) scale(4.2241)" gradientUnits="userSpaceOnUse" />
      <linearGradient id="wnfillGradient">
        <stop id="wnstop0" offset="0" stop-color="#fff" stop-opacity="1" />
        <stop id="wnstop1" offset="1" stop-color="#bfd3d7" stop-opacity="1" />
      </linearGradient>
    </defs>
    <path id="wnboundary" fill="none" stroke-width="35" d="m394 44-24 83-59-68-4 89c-91 91-38 111-172 316-9 13-25 24-29 42-15 80 88 60 106 69 71-57 100-58 137-98 42 15 108-3 147-45-26 77-136 132-169 267 39 37 0 74-47 71-52 12-34 109 19 109l452-3c63 0 72-92 30-108-40 0-58-41-26-69 4-74 3-143-12-214-2-7 2-22 10-24-6-23-30-45-40-69-5-11-18-17 19-18-11-22-61-58-76-78-6-7 25-13 19-19-35-37-85-50-109-68-8-6 23-15 14-21-33-21-102-48-145-65z" class="wnbase wnstroke-color" />
    <path id="wnmain" fill="url(#wnmain-gradient)" d="m394 44-24 83-59-68-4 89c-91 91-38 111-172 316-9 13-25 24-29 42-15 80 88 60 106 69 71-57 100-58 137-98 42 15 108-3 147-45-26 77-136 132-169 267 39 37 0 74-47 71-52 12-34 109 19 109l452-3c63 0 72-92 30-108-40 0-58-41-26-69 4-74 3-143-12-214-2-7 2-22 10-24-6-23-30-45-40-69-5-11-18-17 19-18-11-22-61-58-76-78-6-7 25-13 19-19-35-37-85-50-109-68-8-6 23-15 14-21-33-21-102-48-145-65z" class="wnbase wnstroke-color wnstroke-medium" />
    <path id="wneyebrow" fill="none" d="M336 282c-28 2-50 16-65 41" class="wnbase wnstroke-color wnstroke-medium" />
    <path id="wneye" fill="none" d="M310 316c12 8 25 5 22-12" class="wnbase wnstroke-color wnstroke-medium" />
    <path id="wnnose" fill="none" d="M155 501c-13-5-23 17-15 17" class="wnbase wnstroke-color wnstroke-medium" />
    <path id="wncheek" fill="none" d="M508 405c10-13 9-19 11-27" class="wnbase wnstroke-color wnstroke-medium" />
    <path id="wndeco-lines" fill="none" d="M644 699H370zm64 64H360z" class="wnbase wnstroke-color wnstroke-medium" opacity=".5" />
    <path id="wndeco-side" fill="none" d="M723 876c63 0 78-76 36-92-39 0-58-60-25-88 3-74 3-143-13-213-2-7 2-23 11-24-7-24-31-36-41-60-5-12-18-17 20-19-12-21-61-57-77-77-5-7 25-13 19-20-34-36-84-49-109-68-8-6 23-14 15-20-33-22-81-55-124-72" class="wnbase wnstroke-color wnstroke-medium" opacity=".5" />
  </g>
  <g id="wp" transform="scale(0.04287245444801715 0.04287245444801715)">
    <style id="wpstyle-base">.wpbase{fill-opacity:1;fill-rule:evenodd;stroke-miterlimit:4;stroke-dasharray:none;stroke-linecap:round;stroke-linejoin:round;stroke-opacity:1}.wpstroke-medium{stroke-width:20}.wpstroke-color{stroke:#000}</style>
    <defs id="wpdefs2718">
      <linearGradient href="#wpfillGradient" id="wpmain-gradient" x1="462.1" x2="1135.2" y1="776.1" y2="839.4" gradientTransform="matrix(.64593 0 0 .64727 -27 91)" gradientUnits="userSpaceOnUse" />
      <linearGradient id="wpfillGradient">
        <stop id="wpstop0" offset="0" stop-color="#fff" stop-opacity="1" />
        <stop id="wpstop1" offset="1" stop-color="#bfd3d7" stop-opacity="1" />
      </linearGradient>
    </defs>
    <path id="wpboundary" fill="none" stroke-width="35" d="M464 200c-72 1-130 58-135 124-2 33 46 89 74 106-138 31-3 71-3 128 0 40-53 66-24 91-16 64-63 88-119 114-28 35-13 95 39 98 37 3 307 3 345-1 59-6 68-67 41-101-57-17-119-42-131-108 30-26-32-53-32-93 0-57 150-90 7-128 27-17 72-73 73-106 1-65-66-125-135-124Z" class="wpbase wpstroke-color" />
    <path id="wpmain" fill="url(#wpmain-gradient)" d="M464 200c-72 1-130 58-135 124-2 33 46 89 74 106-138 31-3 71-3 128 0 40-53 66-24 91-16 64-63 88-119 114-28 35-13 95 39 98 37 3 307 3 345-1 59-6 68-67 41-101-57-17-119-42-131-108 30-26-32-53-32-93 0-57 150-90 7-128 27-17 72-73 73-106 1-65-66-125-135-124Z" class="wpbase wpstroke-color wpstroke-medium" />
    <path id="wpdeco-side" fill="none" d="M618 864c58-7 67-58 40-92-57-18-118-52-131-118 30-25-31-52-31-93 0-57 150-90 6-127 28-18 72-74 73-107 2-65-58-120-127-119" class="wpbase wpstroke-color wpstroke-medium" opacity=".5" />
    <path id="wpdeco-lines" fill="none" d="M417 466h94zm-9 162h112zm-99 153h320z" class="wpbase wpstroke-color wpstroke-medium" opacity=".5" />
  </g>
  <g id="wq" transform="scale(0.04287245444801715 0.04287245444801715)">
    <style id="wqstyle-base">.wqbase{fill-opacity:1;fill-rule:evenodd;stroke-miterlimit:4;stroke-dasharray:none;stroke-linecap:round;stroke-linejoin:round;stroke-opacity:1}.wqstroke-medium{stroke-width:20}.wqstroke-color{stroke:#000}</style>
    <defs id="wqdefs1194">
      <linearGradient href="#wqfillGradient" id="wqmain-gradient" x1="660.5" x2="757.7" y1="90.4" y2="103.7" gradientTransform="matrix(6.24848 0 0 7.12396 -3975 -259)" gradientUnits="userSpaceOnUse" />
      <linearGradient id="wqfillGradient">
        <stop id="wqstop0" offset="0" stop-color="#fff" stop-opacity="1" />
        <stop id="wqstop1" offset="1" stop-color="#bfd3d7" stop-opacity="1" />
      </linearGradient>
    </defs>
    <path id="wqboundary" fill="none" stroke-width="35" d="M593 82c-29 0-53 22-53 48 0 17 10 32 25 41-43 105-76 239-108 240-44 0-70-137-99-236 15-8 26-24 26-41 0-27-24-48-53-48s-52 21-52 48c0 23 18 42 42 46 10 109 28 237-10 259-39 23-84-108-150-212 8-9 13-20 13-32 0-26-23-48-52-48s-52 22-53 48c-2 41 44 48 53 48 50 127 52 174 80 292 10 39 46 39 63 81 8 19 11 93-28 117-6 4-65 19-69 24-32 41-15 110 45 114 43 3 450 4 493-1 67-8 78-78 47-116-5-6-56-14-71-25-27-20-40-88-34-113 10-39 47-35 56-68 38-140 36-179 97-305h4c29 0 53-21 53-48 0-26-24-48-53-48s-53 22-53 48c0 13 6 24 14 32-76 95-128 230-165 209-44-25-10-144 5-260 23-5 39-24 39-46 0-26-23-48-52-48z" class="wqbase wqstroke-color" />
    <path id="wqmain" fill="url(#wqmain-gradient)" d="M593 82c-29 0-53 22-53 48 0 17 10 32 25 41-43 105-76 239-108 240-44 0-70-137-99-236 15-8 26-24 26-41 0-27-24-48-53-48s-52 21-52 48c0 23 18 42 42 46 10 109 28 237-10 259-39 23-84-108-150-212 8-9 13-20 13-32 0-26-23-48-52-48s-52 22-53 48c-2 41 44 48 53 48 50 127 52 174 80 292 10 39 46 39 63 81 8 19 11 93-28 117-6 4-65 19-69 24-32 41-15 110 45 114 43 3 450 4 493-1 67-8 78-78 47-116-5-6-56-14-71-25-27-20-40-88-34-113 10-39 47-35 56-68 38-140 36-179 97-305h4c29 0 53-21 53-48 0-26-24-48-53-48s-53 22-53 48c0 13 6 24 14 32-76 95-128 230-165 209-44-25-10-144 5-260 23-5 39-24 39-46 0-26-23-48-52-48z" class="wqbase wqstroke-color wqstroke-medium" />
    <path id="wqdeco-lines" fill="none" d="M284 578h317zm12 140h243zm-55 74h428z" class="wqbase wqstroke-color wqstroke-medium" opacity=".5" />
    <path id="wqdeco-side" fill="none" d="M590 440c-53-47-15-146-2-264 22-6 39-24 39-46 0-27-24-39-53-39m111 780c67-7 78-68 47-107-5-6-56-13-71-24-27-20-40-107-34-132 10-39 44-35 54-68 42-140 38-170 99-296h4c29 0 55-21 55-47 0-27-24-39-53-39" class="wqbase wqstroke-color wqstroke-medium" opacity=".5" />
  </g>
  <g id="wr" transform="scale(0.04287245444801715 0.04287245444801715)">
    <style id="wrstyle-base">.wrbase{fill-opacity:1;fill-rule:evenodd;stroke-miterlimit:4;stroke-dasharray:none;stroke-linecap:round;stroke-linejoin:round;stroke-opacity:1}.wrstroke-medium{stroke-width:20}.wrstroke-color{stroke:#000}</style>
    <defs id="wrdefs1553">
      <linearGradient href="#wrfillGradient" id="wrmain-gradient" x1="660.5" x2="757.7" y1="90.4" y2="103.7" gradientTransform="matrix(6.24848 0 0 7.11058 -3961 -265)" gradientUnits="userSpaceOnUse" />
      <linearGradient id="wrfillGradient">
        <stop id="wrstop0" offset="0" stop-color="#fff" stop-opacity="1" />
        <stop id="wrstop1" offset="1" stop-color="#bfd3d7" stop-opacity="1" />
      </linearGradient>
    </defs>
    <path id="wrboundary" fill="none" stroke-width="35" d="M775 112H649v81l-114 9v-80l-131 1v81l-109-11v-81l-117 3c-12 98 48 121 7 191l101 53c5 107 28 247 19 315-35 27 32 53-55 71-10 2-58 9-62 14-32 41-15 110 45 114 43 3 432 3 476-2 67-7 77-77 46-116-4-6-42-12-59-15-78-13-19-43-54-62-11-74 9-210 20-320l104-51c-32-77 20-88 9-195z" class="wrbase wrstroke-color" />
    <path id="wrmain" fill="url(#wrmain-gradient)" d="M775 112H649v81l-114 9v-80l-131 1v81l-109-11v-81l-117 3c-12 98 48 121 7 191l101 53c5 107 28 247 19 315-35 27 32 53-55 71-10 2-58 9-62 14-32 41-15 110 45 114 43 3 432 3 476-2 67-7 77-77 46-116-4-6-42-12-59-15-78-13-19-43-54-62-11-74 9-210 20-320l104-51c-32-77 20-88 9-195z" class="wrbase wrstroke-color wrstroke-medium" />
    <path id="wrdeco-lines" fill="none" d="m239 277 389 2zm100 81h215zm0 331h243Zm-80 86h429Z" class="wrbase wrstroke-color wrstroke-medium" opacity=".5" />
    <path id="wrdeco-side" fill="none" d="M670 871c67-7 100-61 69-99-5-6-43-16-60-19-78-13-21-56-56-75-11-74 11-223 23-333l99-51c-28-59 21-100 9-182" class="wrbase wrstroke-color wrstroke-medium" opacity=".5" />
  </g>
</svg>