<svg xmlns="http://www.w3.org/2000/svg" width="40" height="40" viewbox="0.0 0.0 257.0 256.0">
  <g id="bb" fill="none" transform="scale(0.1556420233463035 0.1556420233463035)">
    <path fill-rule="evenodd" clip-rule="evenodd" d="M128.396 220.116C156.385 220.116 181.99 212.389 200.766 199.582C219.512 186.797 231.962 168.513 231.962 147.57V109.545C231.962 88.602 219.512 70.3186 200.766 57.5329C181.99 44.7266 156.385 36.9993 128.396 36.9993C100.407 36.9993 74.8023 44.7266 56.0262 57.5329C37.2804 70.3186 24.8301 88.602 24.8301 109.545V147.57C24.8301 168.513 37.2804 186.797 56.0262 199.582C74.8023 212.389 100.407 220.116 128.396 220.116Z" fill="#0A0916" />
    <path d="M225.958 147.57C225.958 184.32 182.278 214.112 128.396 214.112C74.5141 214.112 30.834 184.32 30.834 147.57V109.545C30.834 72.795 74.5141 43.0029 128.396 43.0029C182.278 43.0029 225.958 72.795 225.958 109.545V147.57Z" fill="#46466E" />
    <path d="M128.396 214.112C182.278 214.112 225.958 184.32 225.958 147.57V109.546C225.958 146.296 182.278 176.088 128.396 176.088C74.5136 176.088 30.8335 146.296 30.8335 109.546V147.57C30.8335 184.32 74.5136 214.112 128.396 214.112Z" fill="black" fill-opacity="0.5" />
    <path d="M208.28 109.191C207.951 86.5598 172.739 68.2666 129.349 68.2666C85.9594 68.2666 50.7469 86.5598 50.4181 109.191C50.4165 109.061 50.4158 108.93 50.4158 108.8C50.4158 80.9156 85.7552 58.311 129.349 58.311C172.943 58.311 208.282 80.9156 208.282 108.8C208.282 108.931 208.282 109.061 208.28 109.191Z" fill="black" fill-opacity="0.5" />
    <path d="M129.349 159.289C170.9 159.289 204.952 138.753 208.052 112.684L208.28 109.191C207.951 86.5598 172.739 68.2666 129.349 68.2666C85.9594 68.2666 50.7469 86.5598 50.4181 109.191L50.6458 112.684C53.7462 138.753 87.7982 159.289 129.349 159.289Z" fill="black" fill-opacity="0.2" />
  </g>
  <g id="bk" fill="none" transform="scale(0.15625 0.15625)">
    <path fill-rule="evenodd" clip-rule="evenodd" d="M127.758 220.116C155.747 220.116 181.352 212.389 200.128 199.582C218.874 186.797 231.324 168.513 231.324 147.57V109.545C231.324 88.602 218.874 70.3186 200.128 57.5329C181.352 44.7266 155.747 36.9993 127.758 36.9993C99.7689 36.9993 74.1642 44.7266 55.388 57.5329C36.6422 70.3186 24.1919 88.602 24.1919 109.545V147.57C24.1919 168.513 36.6422 186.797 55.388 199.582C74.1642 212.389 99.7689 220.116 127.758 220.116Z" fill="#0A0916" />
    <path d="M225.32 147.57C225.32 184.32 181.64 214.112 127.757 214.112C73.8754 214.112 30.1953 184.32 30.1953 147.57V109.545C30.1953 72.795 73.8754 43.0029 127.757 43.0029C181.64 43.0029 225.32 72.795 225.32 109.545V147.57Z" fill="#46466E" />
    <path d="M127.757 214.112C181.64 214.112 225.32 184.32 225.32 147.57V109.546C225.32 146.296 181.64 176.088 127.757 176.088C73.8754 176.088 30.1953 146.296 30.1953 109.546V147.57C30.1953 184.32 73.8754 214.112 127.757 214.112Z" fill="black" fill-opacity="0.5" />
    <path d="M207.642 109.191C207.313 86.5598 172.101 68.2666 128.711 68.2666C85.3214 68.2666 50.109 86.5598 49.7802 109.191C49.7786 109.061 49.7778 108.93 49.7778 108.8C49.7778 80.9156 85.1173 58.311 128.711 58.311C172.305 58.311 207.645 80.9156 207.645 108.8C207.645 108.931 207.644 109.061 207.642 109.191Z" fill="black" fill-opacity="0.5" />
    <path d="M128.711 159.289C170.262 159.289 204.314 138.753 207.414 112.684L207.642 109.191C207.313 86.5598 172.101 68.2666 128.711 68.2666C85.3214 68.2666 50.109 86.5598 49.7802 109.191L50.0079 112.684C53.1083 138.753 87.1603 159.289 128.711 159.289Z" fill="black" fill-opacity="0.2" />
  </g>
  <g id="bn" fill="none" transform="scale(0.1556420233463035 0.1556420233463035)">
    <path fill-rule="evenodd" clip-rule="evenodd" d="M129.083 220.116C157.072 220.116 182.677 212.389 201.453 199.582C220.198 186.797 232.649 168.513 232.649 147.57V109.545C232.649 88.602 220.198 70.3186 201.453 57.5329C182.677 44.7266 157.072 36.9993 129.083 36.9993C101.094 36.9993 75.4891 44.7266 56.713 57.5329C37.9672 70.3186 25.5168 88.602 25.5168 109.545V147.57C25.5168 168.513 37.9672 186.797 56.713 199.582C75.4891 212.389 101.094 220.116 129.083 220.116Z" fill="#0A0916" />
    <path d="M226.645 147.57C226.645 184.32 182.965 214.112 129.083 214.112C75.2008 214.112 31.5208 184.32 31.5208 147.57V109.545C31.5208 72.795 75.2008 43.0029 129.083 43.0029C182.965 43.0029 226.645 72.795 226.645 109.545V147.57Z" fill="#46466E" />
    <path d="M129.083 214.112C182.965 214.112 226.645 184.32 226.645 147.57V109.546C226.645 146.296 182.965 176.088 129.083 176.088C75.2006 176.088 31.5205 146.296 31.5205 109.546V147.57C31.5205 184.32 75.2006 214.112 129.083 214.112Z" fill="black" fill-opacity="0.5" />
    <path d="M208.967 109.191C208.638 86.5598 173.426 68.2666 130.036 68.2666C86.6461 68.2666 51.4337 86.5598 51.1049 109.191C51.1033 109.061 51.1025 108.93 51.1025 108.8C51.1025 80.9156 86.442 58.311 130.036 58.311C173.63 58.311 208.969 80.9156 208.969 108.8C208.969 108.931 208.968 109.061 208.967 109.191Z" fill="black" fill-opacity="0.5" />
    <path d="M130.036 159.289C171.587 159.289 205.639 138.753 208.739 112.684L208.967 109.191C208.638 86.5598 173.426 68.2666 130.036 68.2666C86.6461 68.2666 51.4337 86.5598 51.1049 109.191L51.3326 112.684C54.433 138.753 88.485 159.289 130.036 159.289Z" fill="black" fill-opacity="0.2" />
  </g>
  <g id="bp" fill="none" transform="scale(0.1556420233463035 0.1556420233463035)">
    <path fill-rule="evenodd" clip-rule="evenodd" d="M128.347 220.116C156.336 220.116 181.941 212.389 200.717 199.582C219.463 186.797 231.913 168.513 231.913 147.57V109.545C231.913 88.602 219.463 70.3186 200.717 57.5329C181.941 44.7266 156.336 36.9993 128.347 36.9993C100.358 36.9993 74.7533 44.7266 55.9772 57.5329C37.2313 70.3186 24.781 88.602 24.781 109.545V147.57C24.781 168.513 37.2313 186.797 55.9772 199.582C74.7533 212.389 100.358 220.116 128.347 220.116Z" fill="#0A0916" />
    <path d="M225.909 147.57C225.909 184.32 182.229 214.112 128.347 214.112C74.465 214.112 30.7849 184.32 30.7849 147.57V109.545C30.7849 72.795 74.465 43.0029 128.347 43.0029C182.229 43.0029 225.909 72.795 225.909 109.545V147.57Z" fill="#46466E" />
    <path d="M128.347 214.112C182.229 214.112 225.909 184.32 225.909 147.57V109.546C225.909 146.296 182.229 176.088 128.347 176.088C74.4645 176.088 30.7844 146.296 30.7844 109.546V147.57C30.7844 184.32 74.4645 214.112 128.347 214.112Z" fill="black" fill-opacity="0.5" />
    <path d="M208.231 109.191C207.902 86.5598 172.69 68.2666 129.3 68.2666C85.9106 68.2666 50.6981 86.5598 50.3693 109.191C50.3677 109.061 50.3669 108.93 50.3669 108.8C50.3669 80.9156 85.7064 58.311 129.3 58.311C172.894 58.311 208.234 80.9156 208.234 108.8C208.234 108.931 208.233 109.061 208.231 109.191Z" fill="black" fill-opacity="0.5" />
    <path d="M129.3 159.289C170.851 159.289 204.903 138.753 208.004 112.684L208.231 109.191C207.902 86.5598 172.69 68.2666 129.3 68.2666C85.9106 68.2666 50.6981 86.5598 50.3693 109.191L50.597 112.684C53.6974 138.753 87.7494 159.289 129.3 159.289Z" fill="black" fill-opacity="0.2" />
  </g>
  <g id="bq" fill="none" transform="scale(0.1556420233463035 0.1556420233463035)">
    <path fill-rule="evenodd" clip-rule="evenodd" d="M128.445 220.116C156.434 220.116 182.039 212.389 200.815 199.582C219.561 186.797 232.011 168.513 232.011 147.57V109.545C232.011 88.602 219.561 70.3186 200.815 57.5329C182.039 44.7266 156.434 36.9993 128.445 36.9993C100.456 36.9993 74.8512 44.7266 56.0751 57.5329C37.3292 70.3186 24.8789 88.602 24.8789 109.545V147.57C24.8789 168.513 37.3292 186.797 56.0751 199.582C74.8512 212.389 100.456 220.116 128.445 220.116Z" fill="#0A0916" />
    <path d="M226.007 147.57C226.007 184.32 182.327 214.112 128.445 214.112C74.5629 214.112 30.8828 184.32 30.8828 147.57V109.545C30.8828 72.795 74.5629 43.0029 128.445 43.0029C182.327 43.0029 226.007 72.795 226.007 109.545V147.57Z" fill="#46466E" />
    <path d="M128.444 214.112C182.327 214.112 226.007 184.32 226.007 147.57V109.546C226.007 146.296 182.327 176.088 128.444 176.088C74.5624 176.088 30.8823 146.296 30.8823 109.546V147.57C30.8823 184.32 74.5624 214.112 128.444 214.112Z" fill="black" fill-opacity="0.5" />
    <path d="M208.329 109.191C208 86.5598 172.787 68.2666 129.398 68.2666C86.008 68.2666 50.7955 86.5598 50.4667 109.191C50.4651 109.061 50.4644 108.93 50.4644 108.8C50.4644 80.9156 85.8038 58.311 129.398 58.311C172.992 58.311 208.331 80.9156 208.331 108.8C208.331 108.931 208.33 109.061 208.329 109.191Z" fill="black" fill-opacity="0.5" />
    <path d="M129.398 159.289C170.949 159.289 205.001 138.753 208.101 112.684L208.329 109.191C208 86.5598 172.787 68.2666 129.398 68.2666C86.008 68.2666 50.7955 86.5598 50.4667 109.191L50.6944 112.684C53.7948 138.753 87.8468 159.289 129.398 159.289Z" fill="black" fill-opacity="0.2" />
  </g>
  <g id="br" fill="none" transform="scale(0.1556420233463035 0.1556420233463035)">
    <path fill-rule="evenodd" clip-rule="evenodd" d="M127.709 220.116C155.698 220.116 181.303 212.389 200.079 199.582C218.825 186.797 231.275 168.513 231.275 147.57V109.545C231.275 88.602 218.825 70.3186 200.079 57.5329C181.303 44.7266 155.698 36.9993 127.709 36.9993C99.7201 36.9993 74.1153 44.7266 55.3392 57.5329C36.5934 70.3186 24.1431 88.602 24.1431 109.545V147.57C24.1431 168.513 36.5934 186.797 55.3392 199.582C74.1153 212.389 99.7201 220.116 127.709 220.116Z" fill="#0A0916" />
    <path d="M225.271 147.57C225.271 184.32 181.591 214.112 127.709 214.112C73.8268 214.112 30.1467 184.32 30.1467 147.57V109.545C30.1467 72.795 73.8268 43.0029 127.709 43.0029C181.591 43.0029 225.271 72.795 225.271 109.545V147.57Z" fill="#46466E" />
    <path d="M127.709 214.112C181.591 214.112 225.271 184.32 225.271 147.57V109.546C225.271 146.296 181.591 176.088 127.709 176.088C73.8266 176.088 30.1465 146.296 30.1465 109.546V147.57C30.1465 184.32 73.8266 214.112 127.709 214.112Z" fill="black" fill-opacity="0.5" />
    <path d="M207.593 109.191C207.264 86.5598 172.052 68.2666 128.662 68.2666C85.2726 68.2666 50.0602 86.5598 49.7313 109.191C49.7298 109.061 49.729 108.93 49.729 108.8C49.729 80.9156 85.0685 58.311 128.662 58.311C172.256 58.311 207.596 80.9156 207.596 108.8C207.596 108.931 207.595 109.061 207.593 109.191Z" fill="black" fill-opacity="0.5" />
    <path d="M128.662 159.289C170.213 159.289 204.265 138.753 207.366 112.684L207.593 109.191C207.264 86.5598 172.052 68.2666 128.662 68.2666C85.2726 68.2666 50.0602 86.5598 49.7313 109.191L49.9591 112.684C53.0594 138.753 87.1115 159.289 128.662 159.289Z" fill="black" fill-opacity="0.2" />
  </g>
  <g id="wb" fill="none" transform="scale(0.1556420233463035 0.1556420233463035)">
    <path fill-rule="evenodd" clip-rule="evenodd" d="M128.672 220.116C156.661 220.116 182.266 212.389 201.042 199.582C219.788 186.797 232.238 168.513 232.238 147.57V109.545C232.238 88.602 219.788 70.3186 201.042 57.5329C182.266 44.7266 156.661 36.9993 128.672 36.9993C100.683 36.9993 75.0785 44.7266 56.3023 57.5329C37.5565 70.3186 25.1062 88.602 25.1062 109.545V147.57C25.1062 168.513 37.5565 186.797 56.3023 199.582C75.0785 212.389 100.683 220.116 128.672 220.116Z" fill="#5A1E4D" />
    <path d="M226.234 147.57C226.234 184.32 182.554 214.112 128.672 214.112C74.7901 214.112 31.11 184.32 31.11 147.57V109.545C31.11 72.795 74.7901 43.0029 128.672 43.0029C182.554 43.0029 226.234 72.795 226.234 109.545V147.57Z" fill="#FF8BA0" />
    <path d="M128.672 214.112C182.554 214.112 226.234 184.32 226.234 147.57V109.546C226.234 146.296 182.554 176.088 128.672 176.088C74.7898 176.088 31.1097 146.296 31.1097 109.546V147.57C31.1097 184.32 74.7898 214.112 128.672 214.112Z" fill="#1A0023" fill-opacity="0.4" />
    <path d="M208.556 109.191C208.227 86.5598 173.015 68.2666 129.625 68.2666C86.2356 68.2666 51.0232 86.5598 50.6943 109.191C50.6928 109.061 50.692 108.93 50.692 108.8C50.692 80.9156 86.0315 58.311 129.625 58.311C173.219 58.311 208.559 80.9156 208.559 108.8C208.559 108.931 208.558 109.061 208.556 109.191Z" fill="#1A0023" fill-opacity="0.4" />
    <path d="M129.625 159.289C171.176 159.289 205.228 138.753 208.329 112.684L208.556 109.191C208.227 86.5598 173.015 68.2666 129.625 68.2666C86.2356 68.2666 51.0232 86.5598 50.6943 109.191L50.9221 112.684C54.0225 138.753 88.0745 159.289 129.625 159.289Z" fill="#1A0023" fill-opacity="0.15" />
  </g>
  <g id="wk" fill="none" transform="scale(0.1556420233463035 0.1556420233463035)">
    <path fill-rule="evenodd" clip-rule="evenodd" d="M128.034 220.116C156.023 220.116 181.628 212.389 200.404 199.582C219.15 186.797 231.6 168.513 231.6 147.57V109.545C231.6 88.602 219.15 70.3186 200.404 57.5329C181.628 44.7266 156.023 36.9993 128.034 36.9993C100.045 36.9993 74.4403 44.7266 55.6642 57.5329C36.9183 70.3186 24.468 88.602 24.468 109.545V147.57C24.468 168.513 36.9183 186.797 55.6642 199.582C74.4403 212.389 100.045 220.116 128.034 220.116Z" fill="#5A1E4D" />
    <path d="M225.596 147.57C225.596 184.32 181.916 214.112 128.034 214.112C74.152 214.112 30.4719 184.32 30.4719 147.57V109.545C30.4719 72.795 74.152 43.0029 128.034 43.0029C181.916 43.0029 225.596 72.795 225.596 109.545V147.57Z" fill="#FF8BA0" />
    <path d="M128.034 214.112C181.916 214.112 225.596 184.32 225.596 147.57V109.546C225.596 146.296 181.916 176.088 128.034 176.088C74.1515 176.088 30.4714 146.296 30.4714 109.546V147.57C30.4714 184.32 74.1515 214.112 128.034 214.112Z" fill="#1A0023" fill-opacity="0.4" />
    <path d="M207.918 109.191C207.589 86.5598 172.377 68.2666 128.987 68.2666C85.5976 68.2666 50.3851 86.5598 50.0563 109.191C50.0547 109.061 50.054 108.93 50.054 108.8C50.054 80.9156 85.3934 58.311 128.987 58.311C172.581 58.311 207.921 80.9156 207.921 108.8C207.921 108.931 207.92 109.061 207.918 109.191Z" fill="#1A0023" fill-opacity="0.4" />
    <path d="M128.987 159.289C170.538 159.289 204.59 138.753 207.691 112.684L207.918 109.191C207.589 86.5598 172.377 68.2666 128.987 68.2666C85.5976 68.2666 50.3851 86.5598 50.0563 109.191L50.284 112.684C53.3844 138.753 87.4364 159.289 128.987 159.289Z" fill="#1A0023" fill-opacity="0.15" />
  </g>
  <g id="wn" fill="none" transform="scale(0.1556420233463035 0.1556420233463035)">
    <path fill-rule="evenodd" clip-rule="evenodd" d="M129.359 220.116C157.348 220.116 182.953 212.389 201.729 199.582C220.475 186.797 232.925 168.513 232.925 147.57V109.545C232.925 88.602 220.475 70.3186 201.729 57.5329C182.953 44.7266 157.348 36.9993 129.359 36.9993C101.37 36.9993 75.7656 44.7266 56.9895 57.5329C38.2437 70.3186 25.7933 88.602 25.7933 109.545V147.57C25.7933 168.513 38.2437 186.797 56.9895 199.582C75.7656 212.389 101.37 220.116 129.359 220.116Z" fill="#5A1E4D" />
    <path d="M226.921 147.57C226.921 184.32 183.241 214.112 129.359 214.112C75.4772 214.112 31.7971 184.32 31.7971 147.57V109.545C31.7971 72.795 75.4772 43.0029 129.359 43.0029C183.241 43.0029 226.921 72.795 226.921 109.545V147.57Z" fill="#FF8BA0" />
    <path d="M129.359 214.112C183.241 214.112 226.921 184.32 226.921 147.57V109.546C226.921 146.296 183.241 176.088 129.359 176.088C75.4768 176.088 31.7968 146.296 31.7968 109.546V147.57C31.7968 184.32 75.4768 214.112 129.359 214.112Z" fill="#1A0023" fill-opacity="0.4" />
    <path d="M209.243 109.191C208.914 86.5598 173.702 68.2666 130.312 68.2666C86.9223 68.2666 51.7098 86.5598 51.381 109.191C51.3794 109.061 51.3787 108.93 51.3787 108.8C51.3787 80.9156 86.7181 58.311 130.312 58.311C173.906 58.311 209.245 80.9156 209.245 108.8C209.245 108.931 209.245 109.061 209.243 109.191Z" fill="#1A0023" fill-opacity="0.4" />
    <path d="M130.312 159.289C171.863 159.289 205.915 138.753 209.015 112.684L209.243 109.191C208.914 86.5598 173.702 68.2666 130.312 68.2666C86.9223 68.2666 51.7098 86.5598 51.381 109.191L51.6087 112.684C54.7091 138.753 88.7611 159.289 130.312 159.289Z" fill="#1A0023" fill-opacity="0.15" />
  </g>
  <g id="wp" fill="none" transform="scale(0.1556420233463035 0.1556420233463035)">
    <path fill-rule="evenodd" clip-rule="evenodd" d="M128.623 220.116C156.612 220.116 182.217 212.389 200.993 199.582C219.739 186.797 232.189 168.513 232.189 147.57V109.545C232.189 88.602 219.739 70.3186 200.993 57.5329C182.217 44.7266 156.612 36.9993 128.623 36.9993C100.634 36.9993 75.0295 44.7266 56.2534 57.5329C37.5076 70.3186 25.0573 88.602 25.0573 109.545V147.57C25.0573 168.513 37.5076 186.797 56.2534 199.582C75.0295 212.389 100.634 220.116 128.623 220.116Z" fill="#5A1E4D" />
    <path d="M226.185 147.57C226.185 184.32 182.505 214.112 128.623 214.112C74.7412 214.112 31.0612 184.32 31.0612 147.57V109.545C31.0612 72.795 74.7412 43.0029 128.623 43.0029C182.505 43.0029 226.185 72.795 226.185 109.545V147.57Z" fill="#FF8BA0" />
    <path d="M128.623 214.112C182.505 214.112 226.185 184.32 226.185 147.57V109.546C226.185 146.296 182.505 176.088 128.623 176.088C74.7409 176.088 31.0608 146.296 31.0608 109.546V147.57C31.0608 184.32 74.7409 214.112 128.623 214.112Z" fill="#1A0023" fill-opacity="0.4" />
    <path d="M208.508 109.191C208.179 86.5598 172.966 68.2666 129.577 68.2666C86.1868 68.2666 50.9743 86.5598 50.6455 109.191C50.644 109.061 50.6432 108.93 50.6432 108.8C50.6432 80.9156 85.9827 58.311 129.577 58.311C173.17 58.311 208.51 80.9156 208.51 108.8C208.51 108.931 208.509 109.061 208.508 109.191Z" fill="#1A0023" fill-opacity="0.4" />
    <path d="M129.577 159.289C171.127 159.289 205.179 138.753 208.28 112.684L208.508 109.191C208.179 86.5598 172.966 68.2666 129.577 68.2666C86.1868 68.2666 50.9743 86.5598 50.6455 109.191L50.8732 112.684C53.9736 138.753 88.0256 159.289 129.577 159.289Z" fill="#1A0023" fill-opacity="0.15" />
  </g>
  <g id="wq" fill="none" transform="scale(0.1556420233463035 0.1556420233463035)">
    <path fill-rule="evenodd" clip-rule="evenodd" d="M128.721 220.116C156.71 220.116 182.315 212.389 201.091 199.582C219.837 186.797 232.287 168.513 232.287 147.57V109.545C232.287 88.602 219.837 70.3186 201.091 57.5329C182.315 44.7266 156.71 36.9993 128.721 36.9993C100.732 36.9993 75.1275 44.7266 56.3514 57.5329C37.6056 70.3186 25.1553 88.602 25.1553 109.545V147.57C25.1553 168.513 37.6056 186.797 56.3514 199.582C75.1275 212.389 100.732 220.116 128.721 220.116Z" fill="#5A1E4D" />
    <path d="M226.283 147.57C226.283 184.32 182.603 214.112 128.721 214.112C74.8392 214.112 31.1592 184.32 31.1592 147.57V109.545C31.1592 72.795 74.8392 43.0029 128.721 43.0029C182.603 43.0029 226.283 72.795 226.283 109.545V147.57Z" fill="#FF8BA0" />
    <path d="M128.721 214.112C182.603 214.112 226.283 184.32 226.283 147.57V109.546C226.283 146.296 182.603 176.088 128.721 176.088C74.8388 176.088 31.1587 146.296 31.1587 109.546V147.57C31.1587 184.32 74.8388 214.112 128.721 214.112Z" fill="#1A0023" fill-opacity="0.4" />
    <path d="M208.605 109.191C208.276 86.5598 173.064 68.2666 129.674 68.2666C86.2841 68.2666 51.0716 86.5598 50.7428 109.191C50.7413 109.061 50.7405 108.93 50.7405 108.8C50.7405 80.9156 86.0799 58.311 129.674 58.311C173.268 58.311 208.607 80.9156 208.607 108.8C208.607 108.931 208.606 109.061 208.605 109.191Z" fill="#1A0023" fill-opacity="0.4" />
    <path d="M129.674 159.289C171.225 159.289 205.277 138.753 208.377 112.684L208.605 109.191C208.276 86.5598 173.064 68.2666 129.674 68.2666C86.2841 68.2666 51.0716 86.5598 50.7428 109.191L50.9705 112.684C54.0709 138.753 88.1229 159.289 129.674 159.289Z" fill="#1A0023" fill-opacity="0.15" />
  </g>
  <g id="wr" fill="none" transform="scale(0.1556420233463035 0.1556420233463035)">
    <path fill-rule="evenodd" clip-rule="evenodd" d="M127.985 220.116C155.974 220.116 181.579 212.389 200.355 199.582C219.101 186.797 231.551 168.513 231.551 147.57V109.545C231.551 88.602 219.101 70.3186 200.355 57.5329C181.579 44.7266 155.974 36.9993 127.985 36.9993C99.9962 36.9993 74.3915 44.7266 55.6153 57.5329C36.8695 70.3186 24.4192 88.602 24.4192 109.545V147.57C24.4192 168.513 36.8695 186.797 55.6153 199.582C74.3915 212.389 99.9962 220.116 127.985 220.116Z" fill="#5A1E4D" />
    <path d="M225.547 147.57C225.547 184.32 181.867 214.112 127.985 214.112C74.1029 214.112 30.4229 184.32 30.4229 147.57V109.545C30.4229 72.795 74.1029 43.0029 127.985 43.0029C181.867 43.0029 225.547 72.795 225.547 109.545V147.57Z" fill="#FF8BA0" />
    <path d="M127.985 214.112C181.867 214.112 225.547 184.32 225.547 147.57V109.546C225.547 146.296 181.867 176.088 127.985 176.088C74.1027 176.088 30.4226 146.296 30.4226 109.546V147.57C30.4226 184.32 74.1027 214.112 127.985 214.112Z" fill="#1A0023" fill-opacity="0.4" />
    <path d="M207.869 109.191C207.541 86.5598 172.328 68.2666 128.938 68.2666C85.5487 68.2666 50.3363 86.5598 50.0074 109.191C50.0059 109.061 50.0051 108.93 50.0051 108.8C50.0051 80.9156 85.3446 58.311 128.938 58.311C172.532 58.311 207.872 80.9156 207.872 108.8C207.872 108.931 207.871 109.061 207.869 109.191Z" fill="#1A0023" fill-opacity="0.4" />
    <path d="M128.938 159.289C170.489 159.289 204.541 138.753 207.642 112.684L207.869 109.191C207.541 86.5598 172.328 68.2666 128.938 68.2666C85.5487 68.2666 50.3363 86.5598 50.0074 109.191L50.2352 112.684C53.3356 138.753 87.3876 159.289 128.938 159.289Z" fill="#1A0023" fill-opacity="0.15" />
  </g>
</svg>