<svg xmlns="http://www.w3.org/2000/svg" width="40" height="40" viewbox="0.0 0.0 68.0 68.0">
  <g id="bb" fill="none" transform="scale(0.5882352941176471 0.5882352941176471)">
    <path d="M27.984 55.472C26.1493 55.4293 24.6347 55.408 23.44 55.408C22.2453 55.3653 21.6053 55.28 21.52 55.152C20.9653 54.64 20.6667 54.0213 20.624 53.296C20.5813 52.5707 20.8373 51.9733 21.392 51.504C21.4347 51.4187 21.7973 50.9067 22.48 49.968C23.1627 48.9867 23.9733 47.792 24.912 46.384C23.2907 44.336 21.7547 42.3307 20.304 40.368C18.8533 38.3627 17.9787 37.1893 17.68 36.848C16.7413 36.0373 16.272 35.0347 16.272 33.84C16.272 32.6027 16.7413 31.5147 17.68 30.576C17.936 30.32 18.704 29.3387 19.984 27.632C21.3067 25.9253 22.7147 24.0693 24.208 22.064C25.744 20.0587 27.152 18.2027 28.432 16.496C29.7547 14.7467 30.5013 13.7867 30.672 13.616C30.8427 13.4453 30.9707 13.296 31.056 13.168C30.5867 12.656 30.096 12.1653 29.584 11.696C29.1147 11.2267 28.8373 10.9067 28.752 10.736C27.3867 9.54133 27.3867 8.34667 28.752 7.152C28.88 6.93867 29.456 6.34133 30.48 5.36C31.5467 4.37867 32.1653 3.76 32.336 3.504C33.488 2.39467 34.5973 2.39467 35.664 3.504L37.52 5.36C38.5013 6.34133 39.12 6.93867 39.376 7.152C40.5707 8.34667 40.5707 9.54133 39.376 10.736C39.2053 10.9067 38.864 11.2267 38.352 11.696C37.84 12.1653 37.3707 12.656 36.944 13.168C36.9867 13.168 37.0933 13.232 37.264 13.36C37.5627 13.7013 38.352 14.7467 39.632 16.496C40.912 18.2027 42.2773 20.0587 43.728 22.064C45.2213 24.0693 46.5867 25.9253 47.824 27.632C49.104 29.3387 49.872 30.32 50.128 30.576C51.024 31.5147 51.472 32.6027 51.472 33.84C51.472 35.0347 51.024 36.0373 50.128 36.848C49.8293 37.1893 48.976 38.32 47.568 40.24C46.2027 42.1173 44.752 44.08 43.216 46.128C44.2827 47.536 45.1787 48.7733 45.904 49.84C46.672 50.864 47.12 51.4187 47.248 51.504C48.4 52.6987 48.336 53.9147 47.056 55.152C46.9707 55.28 46.2667 55.3653 44.944 55.408C43.664 55.408 42.064 55.4293 40.144 55.472C40.016 56.4107 39.9733 56.88 40.016 56.88C40.2293 57.0933 40.9547 57.2 42.192 57.2C43.4293 57.1573 44.7947 57.1147 46.288 57.072C47.7813 57.0293 49.2107 57.008 50.576 57.008C51.984 56.9653 52.9653 57.0293 53.52 57.2C54.928 57.6693 55.9093 58.7573 56.464 60.464C57.0187 62.128 57.488 63.7493 57.872 65.328H40.784C39.888 65.328 39.0347 65.3067 38.224 65.264C37.456 65.1787 36.6667 64.944 35.856 64.56C35.088 64.176 34.5973 63.8987 34.384 63.728C34.1707 63.5147 34.0427 63.28 34 63.024C34 63.28 33.9147 63.5147 33.744 63.728C33.5733 63.8987 33.104 64.176 32.336 64.56C31.44 64.944 30.5867 65.1787 29.776 65.264C28.9653 65.3067 28.176 65.328 27.408 65.328H10.128C10.5973 63.7493 11.152 62.128 11.792 60.464C12.4747 58.7573 13.52 57.6693 14.928 57.2C15.44 57.0293 16.3573 56.9653 17.68 57.008C19.0453 57.008 20.432 57.0293 21.84 57.072C23.2907 57.1147 24.592 57.1573 25.744 57.2C26.9387 57.2 27.6427 57.0933 27.856 56.88C28.0693 56.752 28.1333 56.624 28.048 56.496C28.0053 56.3253 27.984 55.984 27.984 55.472ZM35.536 35.056H39.056V32.112H35.536V27.824H32.592V32.112H29.072V35.056H32.592V46.128H35.536V35.056ZM34 5.616C33.8293 5.872 33.296 6.448 32.4 7.344C31.5467 8.24 31.056 8.752 30.928 8.88C31.056 9.136 31.5467 9.712 32.4 10.608C33.296 11.4613 33.8293 11.952 34 12.08C34.128 11.952 34.64 11.4613 35.536 10.608L37.264 8.88C37.008 8.752 36.432 8.24 35.536 7.344C34.64 6.448 34.128 5.872 34 5.616ZM31.056 55.344H36.944L37.52 52.848H30.48L31.056 55.344Z" fill="#36383F" />
    <path fill-rule="evenodd" clip-rule="evenodd" d="M30.886 54.443C30.481 52.685 30.216 52.821 34.06 52.821H37.446L37.33 53.401C37.266 53.721 37.13 54.294 37.027 54.674L36.841 55.366H31.1L30.886 54.443ZM32.673 40.548V35.003H29.22V32.093H32.674V27.912H35.402V32.093H39.038V34.989L37.265 35.041L35.492 35.093L35.444 40.593L35.396 46.093H32.673V40.548ZM32.416 10.462L31 9.005L31.912 7.958C32.413 7.383 33.097 6.664 33.431 6.361L34.038 5.811L35.609 7.411L37.181 9.011L35.641 10.416C34.793 11.188 34.041 11.843 33.968 11.87C33.895 11.897 33.198 11.263 32.418 10.462H32.416Z" fill="#FF9999" />
    <path d="M27.984 55.472C26.1493 55.4293 24.6347 55.408 23.44 55.408C22.2453 55.3653 21.6053 55.28 21.52 55.152C20.9653 54.64 20.6667 54.0213 20.624 53.296C20.5813 52.5707 20.8373 51.9733 21.392 51.504C21.4347 51.4187 21.7973 50.9067 22.48 49.968C23.1627 48.9867 23.9733 47.792 24.912 46.384C23.2907 44.336 21.7547 42.3307 20.304 40.368C18.8533 38.3627 17.9787 37.1893 17.68 36.848C16.7413 36.0373 16.272 35.0347 16.272 33.84C16.272 32.6027 16.7413 31.5147 17.68 30.576C17.936 30.32 18.704 29.3387 19.984 27.632C21.3067 25.9253 22.7147 24.0693 24.208 22.064C25.744 20.0587 27.152 18.2027 28.432 16.496C29.7547 14.7467 30.5013 13.7867 30.672 13.616C30.8427 13.4453 30.9707 13.296 31.056 13.168C30.5867 12.656 30.096 12.1653 29.584 11.696C29.1147 11.2267 28.8373 10.9067 28.752 10.736C27.3867 9.54133 27.3867 8.34667 28.752 7.152C28.88 6.93867 29.456 6.34133 30.48 5.36C31.5467 4.37867 32.1653 3.76 32.336 3.504C33.488 2.39467 34.5973 2.39467 35.664 3.504L37.52 5.36C38.5013 6.34133 39.12 6.93867 39.376 7.152C40.5707 8.34667 40.5707 9.54133 39.376 10.736C39.2053 10.9067 38.864 11.2267 38.352 11.696C37.84 12.1653 37.3707 12.656 36.944 13.168C36.9867 13.168 37.0933 13.232 37.264 13.36C37.5627 13.7013 38.352 14.7467 39.632 16.496C40.912 18.2027 42.2773 20.0587 43.728 22.064C45.2213 24.0693 46.5867 25.9253 47.824 27.632C49.104 29.3387 49.872 30.32 50.128 30.576C51.024 31.5147 51.472 32.6027 51.472 33.84C51.472 35.0347 51.024 36.0373 50.128 36.848C49.8293 37.1893 48.976 38.32 47.568 40.24C46.2027 42.1173 44.752 44.08 43.216 46.128C44.2827 47.536 45.1787 48.7733 45.904 49.84C46.672 50.864 47.12 51.4187 47.248 51.504C48.4 52.6987 48.336 53.9147 47.056 55.152C46.9707 55.28 46.2667 55.3653 44.944 55.408C43.664 55.408 42.064 55.4293 40.144 55.472C40.016 56.4107 39.9733 56.88 40.016 56.88C40.2293 57.0933 40.9547 57.2 42.192 57.2C43.4293 57.1573 44.7947 57.1147 46.288 57.072C47.7813 57.0293 49.2107 57.008 50.576 57.008C51.984 56.9653 52.9653 57.0293 53.52 57.2C54.928 57.6693 55.9093 58.7573 56.464 60.464C57.0187 62.128 57.488 63.7493 57.872 65.328H40.784C39.888 65.328 39.0347 65.3067 38.224 65.264C37.456 65.1787 36.6667 64.944 35.856 64.56C35.088 64.176 34.5973 63.8987 34.384 63.728C34.1707 63.5147 34.0427 63.28 34 63.024C34 63.28 33.9147 63.5147 33.744 63.728C33.5733 63.8987 33.104 64.176 32.336 64.56C31.44 64.944 30.5867 65.1787 29.776 65.264C28.9653 65.3067 28.176 65.328 27.408 65.328H10.128C10.5973 63.7493 11.152 62.128 11.792 60.464C12.4747 58.7573 13.52 57.6693 14.928 57.2C15.44 57.0293 16.3573 56.9653 17.68 57.008C19.0453 57.008 20.432 57.0293 21.84 57.072C23.2907 57.1147 24.592 57.1573 25.744 57.2C26.9387 57.2 27.6427 57.0933 27.856 56.88C28.0693 56.752 28.1333 56.624 28.048 56.496C28.0053 56.3253 27.984 55.984 27.984 55.472Z" fill="#36383F" />
    <path fill-rule="evenodd" clip-rule="evenodd" d="M30.886 54.443C30.481 52.685 30.216 52.821 34.06 52.821H37.446L37.33 53.401C37.266 53.721 37.13 54.294 37.027 54.674L36.841 55.366H31.1L30.886 54.443ZM32.673 35.003H29.22V32.093H32.674V27.912H35.402V32.093H39.038V34.989L35.492 35.093L35.396 46.093H32.673V35.003ZM32.416 10.462L31 9.005L31.912 7.958C32.413 7.383 33.097 6.664 33.431 6.361L34.038 5.811L37.181 9.011L35.641 10.416C34.793 11.188 34.041 11.843 33.968 11.87C33.895 11.897 33.198 11.263 32.418 10.462H32.416Z" fill="#FF9999" />
  </g>
  <g id="bk" fill="none" transform="scale(0.5882352941176471 0.5882352941176471)">
    <path d="M50.346 52.528C50.6873 56.1973 51.114 60.2507 51.626 64.688H16.042C16.298 62.4693 16.5327 60.3147 16.746 58.224C16.9593 56.1333 17.194 54.2347 17.45 52.528C16.426 52.3147 15.402 51.9947 14.378 51.568C13.354 51.0987 12.2233 50.3947 10.986 49.456C9.27933 48.048 7.978 46.6613 7.082 45.296C6.186 43.9307 5.482 42.288 4.97 40.368C4.15933 37.2107 3.754 34.544 3.754 32.368C3.79666 31.472 3.90333 30.2987 4.074 28.848C4.28733 27.3973 4.75666 25.7547 5.482 23.92C6.07933 22 7.23133 20.2507 8.938 18.672C10.6447 17.0933 12.0527 16.0693 13.162 15.6C14.1433 15.088 16.1273 14.6827 19.114 14.384C22.1007 14.0853 24.682 14.2347 26.858 14.832C27.882 15.2587 28.5433 15.664 28.842 16.048C29.354 15.152 29.9513 14.2133 30.634 13.232C31.3593 12.208 32.042 11.248 32.682 10.352V9.264H29.738V6.192H32.682V3.312H35.626V6.192H38.378V9.264H35.626V10.352C36.2233 11.248 36.842 12.1867 37.482 13.168C38.1647 14.1067 38.762 15.024 39.274 15.92C39.5727 15.7067 39.8713 15.5147 40.17 15.344C40.5113 15.1733 40.8313 15.0027 41.13 14.832C43.3487 14.2347 45.93 14.0853 48.874 14.384C51.8607 14.6827 53.9087 15.088 55.018 15.6C55.9993 16.0693 57.3433 17.0933 59.05 18.672C60.7567 20.2507 61.9727 22 62.698 23.92C63.2953 25.7547 63.7007 27.3973 63.914 28.848C64.1273 30.2987 64.234 31.472 64.234 32.368C64.3193 34.5013 63.914 37.168 63.018 40.368C62.506 42.288 61.802 43.9307 60.906 45.296C60.0527 46.6613 58.7513 48.048 57.002 49.456C55.722 50.48 54.5487 51.2267 53.482 51.696C52.4153 52.1227 51.37 52.4 50.346 52.528Z" fill="#36383F" />
    <path fill-rule="evenodd" clip-rule="evenodd" d="M19.277 57.286V55.66L20.32 55.37C20.893 55.21 21.383 55.1 21.409 55.126C21.546 55.263 21.953 57.891 21.852 57.986C21.786 58.05 21.282 58.246 20.732 58.422C20.182 58.599 19.629 58.782 19.504 58.828C19.334 58.891 19.277 58.51 19.277 57.286ZM24.295 57.034C24.251 56.895 24.165 56.28 24.103 55.668C24.014 54.782 24.046 54.532 24.258 54.451C24.404 54.395 25.43 54.291 26.538 54.221L28.55 54.094V55.473C28.55 56.231 28.487 56.89 28.41 56.938C28.332 56.986 27.393 57.083 26.322 57.155C24.739 57.261 24.36 57.239 24.295 57.034ZM32.482 57.041L31.039 55.573L32.564 54.04C33.403 53.197 34.131 52.528 34.184 52.554C34.234 52.579 34.927 53.277 35.722 54.105L37.168 55.61L35.727 57.06C34.934 57.857 34.204 58.51 34.105 58.51C34.005 58.51 33.275 57.849 32.482 57.041ZM40.595 57.103L39.822 57.033V54.1L41.141 54.224C41.8159 54.2867 42.4894 54.3641 43.161 54.456C43.851 54.561 43.86 54.573 43.753 55.218C43.693 55.578 43.643 56.181 43.643 56.556L43.641 57.237L42.504 57.206C41.8669 57.1878 41.2304 57.1528 40.595 57.103ZM46.95 58.282C45.997 58.011 45.651 57.835 45.72 57.656C45.773 57.518 45.913 56.876 46.033 56.228C46.203 55.301 46.311 55.068 46.536 55.132C48.334 55.643 48.368 55.661 48.368 56.057C48.368 56.277 48.42 56.959 48.485 57.573C48.55 58.198 48.53 58.683 48.439 58.675C48.35 58.666 47.679 58.489 46.95 58.282ZM46.004 48.754C43.087 47.107 41.566 46.694 37.414 46.415L35.459 46.284V35.094L36.283 31.574C38.577 21.774 39.522 19.291 41.355 18.247C42.258 17.732 42.607 17.648 44.764 17.423C46.636 17.228 49.924 17.437 52.09 17.888C53.706 18.225 54.837 18.974 57.007 21.143C58.851 22.987 59.496 24.108 60.26 26.802C61.482 31.112 61.301 35.745 59.727 40.454C59.091 42.357 57.944 44.142 56.335 45.734C54.167 47.878 52.579 48.852 50.505 49.311C48.071 49.849 47.908 49.829 46.004 48.754ZM50.815 45.873C52.919 44.954 53.781 44.293 55.045 42.625C56.943 40.119 57.833 37.685 58.193 34.012C58.429 31.602 58.245 30.006 57.45 27.572C56.505 24.682 55.38 23.012 53.726 22.042C52.018 21.041 48.002 20.462 45.486 20.855C43.792 21.119 43.185 21.437 42.756 22.285C41.869 24.033 39.56 32.511 39.002 36.065C38.807 37.307 38.734 38.806 38.77 40.855L38.822 43.835L43.732 45.16C46.432 45.889 48.804 46.49 49.004 46.495C49.204 46.5 50.019 46.22 50.815 45.873ZM18.186 49.396C17.236 49.197 16.05 48.846 15.55 48.616C13.609 47.723 10.547 44.926 9.386 42.986C8.246 41.081 7.206 37.106 6.979 33.782C6.79 31.007 7.684 26.04 8.755 23.905C9.634 22.155 11.99 19.735 13.939 18.58C15.952 17.388 22.709 16.943 25.873 17.796C26.263 17.901 26.947 18.322 27.393 18.733C28.91 20.132 29.729 22.433 31.632 30.653L32.55 34.617V46.311L31.868 46.415C27.766 47.045 23.12 48.305 21.056 49.348C20.584 49.587 20.134 49.776 20.056 49.769C19.977 49.762 19.136 49.594 18.186 49.396ZM24.433 44.792C27.119 44.048 29.363 43.394 29.418 43.338C29.63 43.126 29.676 38.509 29.48 37.053C29.064 33.956 26.582 24.375 25.615 22.126C25.309 21.416 25.078 21.171 24.394 20.835C23.632 20.46 23.292 20.419 20.914 20.419C18.008 20.419 16.921 20.613 15.146 21.447C12.796 22.55 11.394 24.573 10.443 28.238C10.009 29.911 9.98 30.256 10.076 32.6C10.142 34.193 10.319 35.714 10.549 36.665C11.232 39.485 13.682 43.467 15.379 44.516C16.355 45.119 19.119 46.306 19.347 46.221C19.459 46.18 21.747 45.537 24.433 44.792ZM33.929 27.418C33.587 25.828 32.647 22.805 31.979 21.146C31.449 19.828 31.271 19.151 31.331 18.686C31.421 17.992 32.55 15.857 33.573 14.449L34.211 13.571L34.801 14.541L35.949 16.418C36.995 18.124 37.025 18.456 36.3 20.275C35.711 21.753 34.956 24.312 34.325 26.964L34.065 28.054L33.929 27.418Z" fill="#FF9999" />
  </g>
  <g id="bn" fill="none" transform="scale(0.5882352941176471 0.5882352941176471)">
    <path fill-rule="evenodd" clip-rule="evenodd" d="M24.848 39.728C24.592 40.1973 24.656 40.624 25.04 41.008C25.424 41.392 25.36 41.8827 24.848 42.48C24.3787 43.1627 23.504 44.08 22.224 45.232C20.9867 46.384 19.92 47.152 19.024 47.536C17.5733 48.3893 16.08 48.4533 14.544 47.728C13.776 47.344 12.816 46.5973 11.664 45.488C10.5547 44.3787 9.78667 43.4827 9.36 42.8C8.848 42.1173 8.656 41.5413 8.784 41.072C8.912 40.6027 8.93333 40.048 8.848 39.408C8.848 38.896 8.72 38.5333 8.464 38.32C8.208 38.064 8.336 37.232 8.848 35.824C9.36 34.544 10.448 32.432 12.112 29.488C13.776 26.544 14.8427 24.368 15.312 22.96C15.7813 21.68 15.696 21.104 15.056 21.232C14.4587 21.3173 14.288 21.0187 14.544 20.336C14.8 19.568 15.2693 18.544 15.952 17.264C16.6347 15.9413 17.2533 14.96 17.808 14.32C18.4053 13.7227 19.024 13.488 19.664 13.616C20.3467 13.7013 20.944 13.3173 21.456 12.464C21.9253 11.6533 22.3733 10.3947 22.8 8.688C23.2693 6.98133 23.76 5.424 24.272 4.016C24.912 5.33867 25.5947 6.59733 26.32 7.792C27.0453 8.98667 27.792 9.73333 28.56 10.032C30.48 9.30667 32.784 9.136 35.472 9.52C39.312 10.032 42.1493 10.8 43.984 11.824C45.8187 12.8053 48.016 14.8747 50.576 18.032C51.5573 19.2693 52.3467 20.592 52.944 22C53.5413 23.3653 54.0747 24.8587 54.544 26.48C55.0133 28.1013 55.376 29.9573 55.632 32.048C55.9307 34.1387 56.144 36.016 56.272 37.68C56.272 39.472 56.208 41.136 56.08 42.672C55.9947 44.1653 55.9947 45.68 56.08 47.216V50.992C56.08 51.9307 56.2507 53.1893 56.592 54.768C56.8053 56.0907 57.232 57.5627 57.872 59.184C58.512 60.8053 59.1093 62.4053 59.664 63.984H19.472C18.9173 62.8747 18.7253 61.6587 18.896 60.336C18.896 59.4827 19.0027 58.4373 19.216 57.2C19.4293 55.9627 19.7707 54.7893 20.24 53.68C20.624 52.6987 21.136 51.76 21.776 50.864C22.416 49.9253 23.0987 49.0293 23.824 48.176C25.1893 46.0427 26.4693 44.336 27.664 43.056C28.688 41.904 29.7973 40.816 30.992 39.792C32.2293 38.7253 33.36 37.5733 34.384 36.336C35.2373 35.0987 35.8133 33.968 36.112 32.944C36.3253 32.2613 36.304 31.344 36.048 30.192C35.792 28.9973 35.5573 28.4213 35.344 28.464C35.1733 28.5493 34.832 29.3387 34.32 30.832C33.808 32.3253 33.3173 33.328 32.848 33.84C32.3787 34.5653 31.8667 35.0773 31.312 35.376C30.8 35.632 30.352 35.888 29.968 36.144C29.456 36.4 29.0507 36.528 28.752 36.528C28.496 36.528 28.176 36.656 27.792 36.912C27.3227 37.2533 26.768 37.7013 26.128 38.256C25.5307 38.768 25.104 39.2587 24.848 39.728ZM48.976 56.112C47.0987 56.2827 45.4773 56.4107 44.112 56.496L43.92 53.232C44.6027 53.1893 46.0533 53.1253 48.272 53.04C50.4907 52.912 52.176 52.72 53.328 52.464L53.968 55.728C52.56 55.8133 50.896 55.9413 48.976 56.112Z" fill="#36383F" />
    <path d="M22.807 55.923C22.871 55.987 23.31 56.093 23.78 56.159C24.251 56.225 26.243 56.289 28.207 56.303C30.6705 56.3199 31.5423 56.3783 31.846 55.9911C32.0471 55.7347 31.999 55.2829 31.999 54.494C31.999 53.419 31.953 53.236 31.681 53.233C30.577 53.22 24.929 52.859 24.454 52.77L23.877 52.661L23.284 54.233C22.957 55.098 22.743 55.858 22.807 55.923Z" fill="#FF9999" />
    <path d="M34.64 54.87L36.272 56.509C37.169 57.41 37.979 58.122 38.073 58.09C38.167 58.059 38.922 57.296 39.75 56.396L41.256 54.759L37.996 51.514L34.64 54.87Z" fill="#FF9999" />
    <path d="M52.517 41.873C52.652 44.571 52.772 45.48 53.204 47.054L53.727 48.963L53.84 46.327C54.17 38.677 53.965 34.606 52.98 29.236C52.149 24.701 51.073 22.285 48.38 18.905C45.165 14.87 43.618 13.603 40.795 12.695C37.745 11.714 35.61 11.367 33.375 11.488C32.281 11.547 31.317 11.664 31.232 11.749C31.147 11.834 31.674 12.008 32.402 12.135C34.643 12.529 38.632 13.581 39.964 14.131C42.51 15.181 44.167 16.506 46.449 19.317C48.146 21.408 49.314 23.304 50.001 25.087C51.134 28.025 52.169 34.929 52.517 41.873Z" fill="#FF9999" />
    <path d="M19.379 23.614C18.677 24.449 18.83 25.94 19.642 26.166C20.427 26.385 20.626 26.341 22.1 25.629C23.71 24.849 24.055 24.537 23.968 23.939C23.894 23.432 22.64 23.063 20.97 23.058C19.941 23.054 19.812 23.1 19.379 23.614Z" fill="#FF9999" />
    <path d="M11.206 37.554C11.644 38.194 11.668 38.338 11.584 39.871H11.585L11.495 41.506L12.473 40.456C13.424 39.433 13.769 38.756 13.584 38.273C13.475 37.989 11.435 36.873 11.025 36.873C10.796 36.873 10.832 37.009 11.206 37.554Z" fill="#FF9999" />
    <path d="M48.976 56.112C47.0987 56.2827 45.4773 56.4107 44.112 56.496L43.92 53.232C44.6027 53.1893 46.0533 53.1253 48.272 53.04C50.4907 52.912 52.176 52.72 53.328 52.464L53.968 55.728C52.56 55.8133 50.896 55.9413 48.976 56.112Z" fill="#FF9999" />
  </g>
  <g id="bp" fill="none" transform="scale(0.5882352941176471 0.5882352941176471)">
    <path d="M27.792 29.328C27.792 28.6027 28.048 28.048 28.56 27.664C28.8587 27.536 29.4773 26.9387 30.416 25.872C28.9227 25.1893 27.6853 24.1653 26.704 22.8C25.7653 21.392 25.296 19.792 25.296 18C25.296 15.6107 26.1493 13.584 27.856 11.92C29.6053 10.2133 31.632 9.36 33.936 9.36C36.2827 9.36 38.288 10.2133 39.952 11.92C41.6587 13.584 42.512 15.6107 42.512 18C42.512 19.792 42.0213 21.392 41.04 22.8C40.1013 24.1653 38.9067 25.1893 37.456 25.872C38.352 26.9387 38.9707 27.536 39.312 27.664C39.7387 28.048 39.952 28.6027 39.952 29.328C39.952 30.0533 39.7387 30.6293 39.312 31.056L38.544 31.824C39.312 33.7013 40.0373 35.536 40.72 37.328C41.4027 39.12 42.064 40.72 42.704 42.128C43.216 43.408 43.92 44.24 44.816 44.624L46.224 45.2L48.976 46.864C50.8107 47.9733 51.8987 48.976 52.24 49.872C52.5387 50.7253 52.7307 51.9627 52.816 53.584C52.944 55.1627 53.0507 56.848 53.136 58.64H14.864C14.864 56.848 14.9067 55.1627 14.992 53.584C15.0773 51.9627 15.2907 50.7253 15.632 49.872C15.888 48.976 16.9547 47.9733 18.832 46.864L21.648 45.2L22.992 44.624C23.888 44.24 24.6133 43.408 25.168 42.128C25.7653 40.72 26.4267 39.12 27.152 37.328C27.8773 35.536 28.6027 33.7013 29.328 31.824L28.56 31.056C28.048 30.6293 27.792 30.0533 27.792 29.328Z" fill="#36383F" />
    <path fill-rule="evenodd" clip-rule="evenodd" d="M32.419 30.932L30.983 29.416L32.248 28.02C32.943 27.251 33.596 26.595 33.7 26.56C33.803 26.526 34.584 27.175 35.436 28.003L36.984 29.509L35.419 30.979L33.854 32.448L32.419 30.932Z" fill="#FF9999" />
  </g>
  <g id="bq" fill="none" transform="scale(0.5882352941176471 0.5882352941176471)">
    <path d="M19.104 48.048L8.35199 23.728C7.41333 23.984 6.64533 23.792 6.04799 23.152L4.63999 21.616C3.35999 20.5067 3.35999 19.312 4.63999 18.032L6.04799 16.688C7.15733 15.3227 8.33066 15.3227 9.56799 16.688L11.104 18.032C12.128 19.312 12.128 20.5067 11.104 21.616L10.336 22.384L21.28 30.96L20.32 17.136C19.7653 17.008 19.296 16.752 18.912 16.368L17.568 14.96C16.2453 13.7653 16.2453 12.592 17.568 11.44L18.912 9.904C20.1067 8.79467 21.3013 8.79467 22.496 9.904L24.032 11.44C25.056 12.592 25.056 13.7653 24.032 14.96L22.496 16.368L29.088 27.632L32.608 14.704L32.032 14.384L30.624 12.848C29.472 11.6533 29.472 10.4587 30.624 9.264L32.032 7.728C33.184 6.78933 34.3573 6.78933 35.552 7.728L36.96 9.264C38.2827 10.4587 38.2827 11.6533 36.96 12.848L35.552 14.384L34.912 14.704L38.496 27.76L45.088 16.688L43.552 15.152C42.528 13.9147 42.528 12.6773 43.552 11.44L44.96 10.032C46.1973 9.008 47.4133 9.008 48.608 10.032L50.016 11.44C51.2533 12.6773 51.2533 13.9147 50.016 15.152L48.608 16.496L47.392 17.264L46.624 30.832L57.888 20.848L56.928 20.08C55.904 18.8427 55.904 17.6053 56.928 16.368L58.464 14.96C59.6587 13.8507 60.8533 13.8507 62.048 14.96L63.392 16.368C64.6293 17.6053 64.6293 18.8427 63.392 20.08L62.048 21.424C61.3227 22.1493 60.5333 22.4053 59.68 22.192L48.48 48.496L51.552 60.976H14.624L19.104 48.048Z" fill="#36383F" />
    <path fill-rule="evenodd" clip-rule="evenodd" d="M19.748 55.859C19.748 55.794 20.046 54.777 20.411 53.599L21.074 51.455L22.048 52.296L23.022 53.137L21.522 54.547C20.113 55.871 19.748 56.141 19.748 55.859ZM25.66 53.126C25.596 52.543 25.528 51.909 25.51 51.716C25.481 51.428 25.692 51.311 26.695 51.056L27.915 50.747L28.019 51.589L28.207 53.091L28.291 53.752L27.264 53.881C26.699 53.951 26.134 54.049 26.007 54.097C25.846 54.159 25.743 53.87 25.66 53.126ZM32.233 53.465L30.626 51.847L32.195 50.411C33.057 49.621 33.851 48.976 33.959 48.976C34.067 48.976 34.766 49.646 35.513 50.467L36.87 51.959L35.355 53.521L33.839 55.084L32.233 53.465ZM39.884 53.843C39.11 53.763 39.113 53.773 39.407 51.991L39.611 50.754L40.816 51.062C41.63 51.27 42.01 51.453 41.988 51.627C41.9162 52.0628 41.8362 52.4972 41.748 52.93C41.52 54.08 41.631 54.026 39.884 53.843ZM45.512 54.553L44.094 53.339L45.052 52.486C45.579 52.016 46.054 51.675 46.107 51.727C46.258 51.878 47.159 55.795 47.038 55.781C46.978 55.773 46.292 55.221 45.512 54.553ZM44.02 45.334C39.597 43.182 35.935 42.427 32.035 42.866C29.472 43.155 27.84 43.604 24.408 44.966L21.522 46.11L20.989 44.936C20.588 44.05 20.507 43.702 20.659 43.519C20.974 43.139 23.691 41.859 25.256 41.353C28.986 40.147 33.776 39.704 37.358 40.234C40.053 40.633 41.848 41.208 44.794 42.617C47.08 43.711 47.194 43.791 47.038 44.191C46.686 45.092 46.122 46.339 46.073 46.323C46.044 46.315 45.121 45.87 44.021 45.334H44.02ZM59.495 18.66L59.034 18.07L59.609 17.477L60.184 16.884L60.773 17.454L61.361 18.024L60.873 18.636C60.604 18.973 60.288 19.248 60.17 19.248C60.052 19.248 59.749 18.983 59.495 18.659V18.66ZM46.112 13.885L45.495 13.248L46.121 12.601L46.748 11.955L47.345 12.605L47.942 13.257L47.46 13.889C47.195 14.237 46.921 14.521 46.853 14.521C46.784 14.521 46.451 14.235 46.112 13.885ZM33.148 11.831L32.474 11.141L33.21 10.423L33.946 9.705L34.555 10.43L35.165 11.156L34.592 11.823C34.278 12.19 33.976 12.497 33.922 12.506C33.867 12.514 33.519 12.211 33.148 11.831ZM20.073 13.719L19.58 13.124L20.17 12.552L20.76 11.981L21.332 12.553L21.904 13.125L21.441 13.732C21.186 14.066 20.885 14.333 20.771 14.326C20.659 14.319 20.344 14.046 20.073 13.719ZM7.03101 20.626L6.40601 19.977L6.92901 19.431C7.57501 18.756 7.73501 18.752 8.35301 19.397L8.84301 19.91L8.25001 20.592L7.65701 21.275L7.03101 20.626Z" fill="#FF9999" />
  </g>
  <g id="br" fill="none" transform="scale(0.5882352941176471 0.5882352941176471)">
    <path d="M48.464 25.008L50.896 44.528L53.712 50.544V63.472H14.16V50.544L16.784 44.528L19.216 25.008L14.288 14.256L17.36 4.528H26V12.848H29.712V4.528H38.48V12.848H42.128V4.528H50.768L53.84 14.256L48.464 25.008Z" fill="#36383F" />
    <path fill-rule="evenodd" clip-rule="evenodd" d="M22.132 25.464C22.022 24.889 21.892 24.234 21.843 24.009L21.756 23.599H46.127V24.211C46.127 24.547 46.075 25.201 46.011 25.665L45.895 26.509H22.335L22.132 25.464ZM32.002 37.076L30.332 35.297L32.042 33.594L33.752 31.89L34.258 32.33C34.8758 32.8912 35.4839 33.4629 36.082 34.045L37.4 35.32L35.63 37.097C34.656 38.074 33.817 38.87 33.766 38.865C33.714 38.86 32.919 38.055 32.001 37.077L32.002 37.076ZM18.196 48.464C18.432 47.939 18.731 47.284 18.86 47.009L19.094 46.509H48.486L49.218 47.964L49.949 49.418H17.768L18.196 48.464Z" fill="#FF9999" />
  </g>
  <g id="wb" fill="none" transform="scale(0.5882352941176471 0.5882352941176471)">
    <path d="M27.984 55.472C26.1493 55.4293 24.6347 55.408 23.44 55.408C22.2453 55.3653 21.6053 55.28 21.52 55.152C20.9653 54.64 20.6667 54.0213 20.624 53.296C20.5813 52.5707 20.8373 51.9733 21.392 51.504C21.4347 51.4187 21.7973 50.9067 22.48 49.968C23.1627 48.9867 23.9733 47.792 24.912 46.384C23.2907 44.336 21.7547 42.3307 20.304 40.368C18.8533 38.3627 17.9787 37.1893 17.68 36.848C16.7413 36.0373 16.272 35.0347 16.272 33.84C16.272 32.6027 16.7413 31.5147 17.68 30.576C17.936 30.32 18.704 29.3387 19.984 27.632C21.3067 25.9253 22.7147 24.0693 24.208 22.064C25.744 20.0587 27.152 18.2027 28.432 16.496C29.7547 14.7467 30.5013 13.7867 30.672 13.616C30.8427 13.4453 30.9707 13.296 31.056 13.168C30.5867 12.656 30.096 12.1653 29.584 11.696C29.1147 11.2267 28.8373 10.9067 28.752 10.736C27.3867 9.54133 27.3867 8.34667 28.752 7.152C28.88 6.93867 29.456 6.34133 30.48 5.36C31.5467 4.37867 32.1653 3.76 32.336 3.504C33.488 2.39467 34.5973 2.39467 35.664 3.504L37.52 5.36C38.5013 6.34133 39.12 6.93867 39.376 7.152C40.5707 8.34667 40.5707 9.54133 39.376 10.736C39.2053 10.9067 38.864 11.2267 38.352 11.696C37.84 12.1653 37.3707 12.656 36.944 13.168C36.9867 13.168 37.008 13.2107 37.008 13.296C37.0507 13.3387 37.136 13.36 37.264 13.36C37.5627 13.7013 38.352 14.7467 39.632 16.496C40.912 18.2027 42.2773 20.0587 43.728 22.064C45.2213 24.0693 46.5867 25.9253 47.824 27.632C49.104 29.3387 49.872 30.32 50.128 30.576C51.024 31.5147 51.472 32.6027 51.472 33.84C51.472 35.0347 51.024 36.0373 50.128 36.848C49.8293 37.1893 48.976 38.32 47.568 40.24C46.2027 42.1173 44.752 44.08 43.216 46.128C44.2827 47.536 45.1787 48.7733 45.904 49.84C46.672 50.864 47.12 51.4187 47.248 51.504C48.4 52.6987 48.336 53.9147 47.056 55.152C46.9707 55.28 46.2667 55.3653 44.944 55.408C43.664 55.408 42.064 55.4293 40.144 55.472C40.016 56.4107 39.9733 56.88 40.016 56.88C40.2293 57.0933 40.9547 57.2 42.192 57.2C43.4293 57.1573 44.7947 57.1147 46.288 57.072C47.7813 57.0293 49.2107 57.008 50.576 57.008C51.984 56.9653 52.9653 57.0293 53.52 57.2C54.928 57.6693 55.9093 58.7573 56.464 60.464C57.0187 62.128 57.488 63.7493 57.872 65.328H40.784C39.888 65.328 39.0347 65.3067 38.224 65.264C37.456 65.1787 36.6667 64.944 35.856 64.56C35.088 64.176 34.5973 63.8987 34.384 63.728C34.1707 63.5147 34.0427 63.28 34 63.024C34 63.28 33.9147 63.5147 33.744 63.728C33.5733 63.8987 33.104 64.176 32.336 64.56C31.44 64.944 30.5867 65.1787 29.776 65.264C28.9653 65.3067 28.176 65.328 27.408 65.328H10.128C10.5973 63.7493 11.152 62.128 11.792 60.464C12.4747 58.7573 13.52 57.6693 14.928 57.2C15.44 57.0293 16.3573 56.9653 17.68 57.008C19.0453 57.008 20.432 57.0293 21.84 57.072C23.2907 57.1147 24.592 57.1573 25.744 57.2C26.9387 57.2 27.6427 57.0933 27.856 56.88C28.0693 56.752 28.1333 56.624 28.048 56.496C28.0053 56.3253 27.984 55.984 27.984 55.472Z" fill="#343D45" />
    <path fill-rule="evenodd" clip-rule="evenodd" d="M14.228 62.048C14.541 61.024 14.86 60.463 15.287 60.183C15.701 59.911 16.419 59.886 22.166 59.941C29.376 60.011 29.33 60.017 30.156 58.689C30.511 58.117 30.578 57.782 30.554 56.684L30.526 55.366H33.086L33 57.141C32.911 58.987 32.824 59.262 31.88 60.674C30.767 62.339 30.08 62.454 21.343 62.456L14.103 62.457L14.228 62.048ZM39.128 62.365C38.7214 62.2413 38.313 62.1237 37.903 62.012C36.944 61.745 36.808 61.638 36.193 60.68C35.38 59.41 35.042 58.213 35.039 56.593L35.037 55.366H37.4V56.776C37.401 58.403 37.736 59.144 38.71 59.676C39.26 59.976 39.824 59.998 45.78 59.941L52.252 59.881L52.741 60.305C53.01 60.539 53.346 61.118 53.488 61.593L53.746 62.457L46.527 62.443C42.557 62.435 39.228 62.4 39.128 62.365ZM24.81 53.24C24.235 53.2 23.764 53.123 23.764 53.07C23.764 53.017 24.244 52.386 24.831 51.668C25.866 50.401 28.176 47.222 28.506 46.61C28.633 46.374 27.756 45.102 24.492 40.791C22.194 37.758 20.068 34.974 19.766 34.606C19.466 34.237 19.219 33.849 19.219 33.743C19.219 33.636 19.492 33.242 19.825 32.867C20.159 32.491 21.443 30.834 22.678 29.184C26.746 23.752 31.81 17.11 32.607 16.162C33.037 15.649 33.543 15.19 33.73 15.141C34.517 14.935 35.055 15.503 38.419 20.093C43.521 27.056 46.881 31.537 47.73 32.513C48.479 33.374 48.702 34.123 48.287 34.38C48.089 34.503 42.195 42.358 40.422 44.862C39.897 45.603 39.609 46.177 39.69 46.317C40.13 47.077 42.238 49.887 43.456 51.337C44.24 52.272 44.828 53.09 44.762 53.156C44.633 53.286 26.529 53.361 24.81 53.24ZM35.588 35.184H39.037V32.093H35.582V27.73H32.491V32.093H29.037V35.184H32.491V40.609C32.491 43.592 32.549 46.091 32.62 46.161C32.69 46.231 33.365 46.266 34.12 46.237L35.491 46.184L35.588 35.184ZM32.416 10.462L31 9.005L31.912 7.958C32.413 7.383 33.097 6.664 33.431 6.361L34.038 5.811L37.181 9.011L35.641 10.416C34.793 11.188 34.041 11.843 33.968 11.87C33.895 11.897 33.198 11.263 32.418 10.462H32.416Z" fill="#FFC8C8" />
  </g>
  <g id="wk" fill="none" transform="scale(0.5882352941176471 0.5882352941176471)">
    <path d="M50.346 52.528L51.626 64.688H16.042L17.45 52.528C16.426 52.3147 15.402 51.9947 14.378 51.568C13.354 51.0987 12.2233 50.3947 10.986 49.456C9.27933 48.048 7.978 46.6613 7.082 45.296C6.186 43.9307 5.482 42.288 4.97 40.368C4.15933 37.2107 3.754 34.544 3.754 32.368C3.79666 31.472 3.90333 30.2987 4.074 28.848C4.28733 27.3973 4.75666 25.7547 5.482 23.92C6.07933 22 7.23133 20.2507 8.938 18.672C10.6447 17.0933 12.0527 16.0693 13.162 15.6C14.1433 15.088 16.1273 14.6827 19.114 14.384C22.1007 14.0853 24.682 14.2347 26.858 14.832C27.882 15.2587 28.5433 15.664 28.842 16.048C29.354 15.152 29.9513 14.2133 30.634 13.232C31.3593 12.208 32.042 11.248 32.682 10.352V9.264H29.738V6.192H32.682V3.312H35.626V6.192H38.378V9.264H35.626V10.352C36.2233 11.248 36.842 12.1867 37.482 13.168C38.1647 14.1067 38.762 15.024 39.274 15.92C39.5727 15.7067 39.8713 15.5147 40.17 15.344C40.5113 15.1733 40.8313 15.0027 41.13 14.832C43.3487 14.2347 45.93 14.0853 48.874 14.384C51.8607 14.6827 53.9087 15.088 55.018 15.6C55.9993 16.0693 57.3433 17.0933 59.05 18.672C60.7567 20.2507 61.9727 22 62.698 23.92C63.2953 25.7547 63.7007 27.3973 63.914 28.848C64.1273 30.2987 64.234 31.472 64.234 32.368C64.3193 34.5013 63.914 37.168 63.018 40.368C62.506 42.288 61.802 43.9307 60.906 45.296C60.0527 46.6613 58.7513 48.048 57.002 49.456C55.722 50.48 54.5487 51.2267 53.482 51.696C52.4153 52.1227 51.37 52.4 50.346 52.528Z" fill="#343D45" />
    <path fill-rule="evenodd" clip-rule="evenodd" d="M22.03 59.555C23.066 58.43 23.982 57.459 24.066 57.397C24.15 57.336 25.173 57.241 26.339 57.186L28.459 57.086L30.459 59.045C31.559 60.122 32.661 61.138 32.909 61.302C33.329 61.581 32.935 61.6 26.752 61.6H20.146L22.03 59.555ZM20.064 56.588C20.129 56.195 20.183 55.685 20.184 55.455L20.186 55.036L20.826 55.524C21.532 56.063 21.5 56.196 20.491 56.914L19.946 57.303L20.064 56.588ZM32.591 57.005L31.095 55.502L32.686 53.92L34.277 52.34L35.764 53.941L37.251 55.543L35.761 57.026C34.941 57.842 34.228 58.509 34.178 58.509C34.128 58.509 33.414 57.833 32.591 57.005ZM35.389 61.208C35.677 60.992 36.735 60.008 37.74 59.021L39.567 57.226L41.649 57.348L43.732 57.471L45.52 59.218C46.503 60.178 47.386 61.107 47.48 61.282C47.644 61.582 47.294 61.6 41.259 61.6H34.864L35.389 61.208ZM46.776 56.46L46.025 55.691L46.727 55.19L47.43 54.688L47.557 55.88C47.627 56.535 47.649 57.107 47.606 57.15C47.563 57.193 47.189 56.883 46.776 56.46ZM41.138 54.153L39.817 54.031L37.458 51.697L35.1 49.364L37.234 49.487C40.159 49.654 41.544 49.983 43.41 50.954C44.287 51.41 45.12 51.857 45.26 51.947C45.464 52.077 45.333 52.337 44.624 53.209C43.631 54.431 43.765 54.394 41.138 54.153ZM22.755 53.351L21.791 52.375L23.125 51.824C24.84 51.116 25.8 50.797 27.625 50.331C28.884 50.01 32.232 49.423 32.825 49.419C32.927 49.419 31.985 50.451 30.735 51.713L28.459 54.008L26.641 54.16C23.667 54.408 23.833 54.442 22.755 53.351ZM18.186 49.396C17.236 49.197 16.05 48.846 15.55 48.616C13.609 47.723 10.547 44.926 9.386 42.986C8.246 41.081 7.206 37.106 6.979 33.782C6.79 31.007 7.684 26.04 8.755 23.905C9.634 22.155 11.99 19.735 13.939 18.58C15.959 17.383 22.679 16.945 25.902 17.8C27.032 18.1 28.346 19.557 29.082 21.324C29.746 22.918 30.905 27.362 31.898 32.12L32.55 35.245V46.311L31.868 46.415C27.766 47.045 23.12 48.305 21.056 49.348C20.584 49.587 20.134 49.776 20.056 49.769C19.977 49.762 19.136 49.594 18.186 49.396ZM46.004 48.754C43.089 47.108 41.564 46.694 37.422 46.416L35.477 46.286L35.579 40.624L35.68 34.964L36.392 31.604C38.35 22.367 39.485 19.312 41.355 18.247C42.258 17.732 42.607 17.648 44.764 17.423C46.636 17.228 49.924 17.437 52.09 17.888C53.706 18.225 54.837 18.974 57.007 21.143C58.851 22.987 59.496 24.108 60.26 26.802C61.482 31.112 61.301 35.745 59.727 40.454C59.091 42.357 57.944 44.142 56.335 45.734C54.167 47.878 52.579 48.852 50.505 49.311C48.071 49.849 47.909 49.829 46.005 48.754H46.004ZM33.929 27.418C33.587 25.828 32.647 22.805 31.979 21.146C31.449 19.828 31.271 19.151 31.331 18.686C31.421 17.992 32.55 15.857 33.573 14.449L34.211 13.571L34.801 14.541L35.949 16.418C36.995 18.124 37.025 18.456 36.3 20.275C35.711 21.753 34.956 24.312 34.325 26.964L34.065 28.054L33.929 27.418Z" fill="#FFC8C8" />
  </g>
  <g id="wn" fill="none" transform="scale(0.5882352941176471 0.5882352941176471)">
    <path d="M24.848 39.728C24.592 40.1973 24.656 40.624 25.04 41.008C25.424 41.392 25.36 41.8827 24.848 42.48C24.3787 43.1627 23.504 44.08 22.224 45.232C20.9867 46.384 19.92 47.152 19.024 47.536C17.5733 48.3893 16.08 48.4533 14.544 47.728C13.776 47.344 12.816 46.5973 11.664 45.488C10.5547 44.3787 9.78667 43.4827 9.36 42.8C8.848 42.1173 8.656 41.5413 8.784 41.072C8.912 40.6027 8.93333 40.048 8.848 39.408C8.848 38.896 8.72 38.5333 8.464 38.32C8.208 38.064 8.336 37.232 8.848 35.824C9.36 34.544 10.448 32.432 12.112 29.488C13.776 26.544 14.8427 24.368 15.312 22.96C15.7813 21.68 15.696 21.104 15.056 21.232C14.4587 21.3173 14.288 21.0187 14.544 20.336C14.8 19.568 15.2693 18.544 15.952 17.264C16.6347 15.9413 17.2533 14.96 17.808 14.32C18.4053 13.7227 19.024 13.488 19.664 13.616C20.3467 13.7013 20.944 13.3173 21.456 12.464C21.9253 11.6533 22.3733 10.3947 22.8 8.688C23.2693 6.98133 23.76 5.424 24.272 4.016C24.912 5.33867 25.5947 6.59733 26.32 7.792C27.0453 8.98667 27.792 9.73333 28.56 10.032C30.48 9.30667 32.784 9.136 35.472 9.52C39.312 10.032 42.1493 10.8 43.984 11.824C45.8187 12.8053 48.016 14.8747 50.576 18.032C51.5573 19.2693 52.3467 20.592 52.944 22C53.5413 23.3653 54.0747 24.8587 54.544 26.48C55.0133 28.1013 55.376 29.9573 55.632 32.048C55.9307 34.1387 56.144 36.016 56.272 37.68C56.272 39.472 56.208 41.136 56.08 42.672C55.9947 44.1653 55.9947 45.68 56.08 47.216V50.992C56.08 51.9307 56.2507 53.1893 56.592 54.768C56.8053 56.0907 57.232 57.5627 57.872 59.184C58.512 60.8053 59.1093 62.4053 59.664 63.984H19.472C18.9173 62.8747 18.7253 61.6587 18.896 60.336C18.896 59.4827 19.0027 58.4373 19.216 57.2C19.4293 55.9627 19.7707 54.7893 20.24 53.68C20.624 52.6987 21.136 51.76 21.776 50.864C22.416 49.9253 23.0987 49.0293 23.824 48.176C25.1893 46.0427 26.4693 44.336 27.664 43.056C28.688 41.904 29.776 40.8373 30.928 39.856C32.1227 38.8747 33.232 37.744 34.256 36.464C35.152 35.056 35.7067 33.8187 35.92 32.752C36.048 32.112 36.0267 31.2373 35.856 30.128C35.728 28.976 35.5573 28.4213 35.344 28.464C35.1733 28.5493 34.832 29.3387 34.32 30.832C33.808 32.3253 33.3173 33.328 32.848 33.84C32.3787 34.5653 31.8667 35.0773 31.312 35.376C30.8 35.632 30.352 35.888 29.968 36.144C29.456 36.4 29.0507 36.528 28.752 36.528C28.496 36.528 28.176 36.656 27.792 36.912C27.3227 37.2533 26.768 37.7013 26.128 38.256C25.5307 38.768 25.104 39.2587 24.848 39.728Z" fill="#343D45" />
    <path fill-rule="evenodd" clip-rule="evenodd" d="M21.995 61.133C21.733 60.444 21.779 58.977 22.115 57.283L22.412 55.783L23.615 55.879C25.53 56.029 30.568 56.327 31.269 56.329C31.855 56.332 32.083 56.524 33.999 58.627C35.36 60.12 36.344 61.038 36.818 61.257C37.538 61.589 37.472 61.592 29.858 61.596L22.172 61.6L21.995 61.133ZM38.909 61.285C39.259 61.116 40.568 59.984 41.818 58.768L44.09 56.558L48.797 56.255C51.386 56.089 53.534 55.983 53.57 56.019C53.63 56.079 54.17 57.859 54.977 60.645L55.253 61.6L46.763 61.596C38.666 61.592 38.302 61.577 38.909 61.285ZM36.272 56.509L34.64 54.87L36.318 53.192L37.996 51.514L39.626 53.136L41.256 54.759L39.75 56.396C38.922 57.296 38.167 58.059 38.073 58.09C37.979 58.122 37.168 57.41 36.271 56.509H36.272Z" fill="#FFC8C8" />
    <path fill-rule="evenodd" clip-rule="evenodd" d="M41.889 51.137C39.206 48.263 38.129 47.693 36.743 48.41C36.462 48.555 35.298 49.667 34.157 50.88L32.082 53.086L27.995 52.774C25.748 52.602 23.882 52.439 23.85 52.411C23.818 52.384 24.791 50.984 26.013 49.299C27.769 46.878 28.943 45.513 31.623 42.782C37.216 37.082 38.75 34.482 38.491 31.145C38.265 28.23 36.185 23.726 34.457 22.408C33.74 21.861 32.08 21.53 30.884 21.694C29.543 21.879 29.693 22.27 31.59 23.537C33.62 24.893 33.792 25.217 33.354 26.85C32.94 28.392 31.984 30.684 31.22 31.963C30.72 32.799 30.415 33.074 29.357 33.64C28.66 34.011 27.886 34.319 27.636 34.322C27.021 34.331 26.326 34.788 24.831 36.166C23.545 37.35 22.545 38.7 22.545 39.25C22.545 39.418 22.668 39.657 22.818 39.782C23.533 40.376 22.818 41.438 20.269 43.565C19.336 44.345 18.16 45.206 17.657 45.48L16.741 45.978L16.052 45.623C15.098 45.132 12.726 43.061 11.832 41.939C11.052 40.959 10.972 40.661 11.277 39.86C11.498 39.279 11.352 38.69 10.987 38.69C10.9171 38.6887 10.8505 38.6598 10.8018 38.6096C10.7531 38.5594 10.7262 38.4919 10.727 38.422C10.727 37.628 12.373 34.136 15.102 29.145C16.828 25.988 17.842 23.67 17.878 22.797C17.905 22.171 17.851 22.065 17.454 21.969C16.735 21.794 16.787 21.107 17.648 19.389C19.141 16.412 20.054 15.404 21.825 14.779C22.257 14.627 22.877 14.299 23.203 14.049C23.915 13.507 24.845 11.662 25.012 10.46L25.132 9.593L25.494 10.278C26.024 11.281 26.501 11.735 27.549 12.23C28.477 12.67 28.491 12.67 29.559 12.364C30.369 12.133 31.29 12.061 33.272 12.076C36.386 12.099 37.462 12.32 40.712 13.602C42.695 14.384 43.194 14.671 44.459 15.75C47.3 18.173 49.804 21.33 50.931 23.908C53.274 29.268 54.047 35.433 53.551 44.815C53.398 47.697 53.273 50.603 53.273 51.273V52.493L52.681 52.586C52.356 52.637 50.659 52.764 48.909 52.868C47.159 52.972 45.309 53.102 44.797 53.157L43.867 53.257L41.889 51.137ZM13.976 39.513C14.913 38.497 14.943 38.035 14.096 37.681C13.749 37.537 13.215 37.418 12.908 37.418C12.388 37.418 12.365 37.445 12.568 37.824C12.687 38.047 12.78 38.701 12.775 39.278C12.763 40.575 12.962 40.614 13.976 39.513ZM22.181 25.188C23.89 24.498 24.091 24.37 24.091 23.964C24.091 23.364 23.148 23.048 21.215 22.999C19.858 22.965 19.768 22.989 19.349 23.474C18.757 24.159 18.739 25.279 19.313 25.68C19.881 26.078 20.039 26.05 22.181 25.188Z" fill="#FFC8C8" />
  </g>
  <g id="wp" fill="none" transform="scale(0.5882352941176471 0.5882352941176471)">
    <path d="M22.992 44.752C23.888 44.3253 24.6133 43.4933 25.168 42.256C25.7653 40.8053 26.4267 39.184 27.152 37.392C27.8773 35.5573 28.6027 33.68 29.328 31.76C29.1573 31.632 28.9867 31.5253 28.816 31.44C28.688 31.3547 28.6027 31.2693 28.56 31.184C27.3653 29.8613 27.3653 28.7307 28.56 27.792L29.264 27.088L30.416 25.936C28.9227 25.2533 27.6853 24.208 26.704 22.8C25.7653 21.3493 25.296 19.7707 25.296 18.064C25.296 15.7173 26.1493 13.6693 27.856 11.92C29.6053 10.1707 31.632 9.296 33.936 9.296C36.2827 9.296 38.288 10.1707 39.952 11.92C41.6587 13.6693 42.512 15.7173 42.512 18.064C42.512 19.7707 42.0213 21.3493 41.04 22.8C40.1013 24.208 38.9067 25.2533 37.456 25.936C37.84 26.32 38.2027 26.704 38.544 27.088C38.8853 27.4293 39.1413 27.664 39.312 27.792C40.3787 28.7307 40.3787 29.8613 39.312 31.184C39.2267 31.2693 39.0987 31.3547 38.928 31.44C38.8 31.5253 38.672 31.632 38.544 31.76C39.312 33.68 40.0373 35.5573 40.72 37.392C41.4027 39.184 42.064 40.8053 42.704 42.256C43.216 43.4933 43.92 44.3253 44.816 44.752C45.7547 45.136 47.1413 45.8827 48.976 46.992C50.8107 48.0587 51.8987 49.04 52.24 49.936C52.5387 50.7893 52.7307 52.0267 52.816 53.648C52.944 55.2693 53.0507 56.9547 53.136 58.704H14.864C14.864 56.9547 14.9067 55.2693 14.992 53.648C15.0773 52.0267 15.2907 50.7893 15.632 49.936C15.888 49.04 16.9547 48.0587 18.832 46.992C20.7093 45.8827 22.096 45.136 22.992 44.752Z" fill="#343D45" />
    <path fill-rule="evenodd" clip-rule="evenodd" d="M17.945 55.138C17.945 54.12 18.349 51.135 18.535 50.788C18.845 50.203 19.123 50.033 22.425 48.402C24.912 47.175 25.698 46.695 26.311 46.029C27.229 45.034 28.458 42.495 30.326 37.741L31.663 34.336L32.122 34.758C33.49 36.014 34.1 36.071 35.328 35.056L36.205 34.331L36.427 34.92C37.673 38.22 39.229 41.991 39.96 43.485C41.265 46.148 41.79 46.617 45.49 48.419C47.19 49.248 48.768 50.126 48.996 50.371C49.426 50.833 49.621 51.728 49.849 54.281L49.967 55.599H17.945V55.138ZM32.37 30.939C31.636 30.176 31.036 29.458 31.036 29.343C31.036 29.229 31.641 28.534 32.381 27.799C33.934 26.257 33.661 26.226 35.719 28.169L36.996 29.374L35.512 30.85C34.696 31.662 33.955 32.326 33.867 32.326C33.777 32.326 33.105 31.702 32.37 30.939ZM32.146 23.204C28.416 22.047 27.256 17.326 29.946 14.262C30.953 13.116 31.968 12.639 33.608 12.544C35.367 12.442 36.382 12.779 37.541 13.848C39.6 15.745 39.959 18.821 38.398 21.179C37.695 22.242 36.638 22.951 35.175 23.34C33.957 23.664 33.572 23.647 32.146 23.204Z" fill="#FFC8C8" />
  </g>
  <g id="wq" fill="none" transform="scale(0.5882352941176471 0.5882352941176471)">
    <path d="M19.104 48.048C17.2267 43.9947 15.392 39.9413 13.6 35.888C11.8507 31.792 10.1013 27.7387 8.35199 23.728C7.41333 23.984 6.64533 23.792 6.04799 23.152L4.63999 21.616C3.35999 20.5067 3.35999 19.312 4.63999 18.032L6.04799 16.688C7.15733 15.3227 8.33066 15.3227 9.56799 16.688L11.104 18.032C12.128 19.312 12.128 20.5067 11.104 21.616L10.336 22.384L21.28 30.96L20.32 17.136C19.7653 17.008 19.296 16.752 18.912 16.368L17.568 14.96C16.2453 13.7653 16.2453 12.592 17.568 11.44L18.912 9.904C20.1067 8.79467 21.3013 8.79467 22.496 9.904L24.032 11.44C25.056 12.592 25.056 13.7653 24.032 14.96L22.496 16.368L29.088 27.632L32.608 14.704C32.736 14.704 32.544 14.5973 32.032 14.384L30.624 12.848C29.472 11.6533 29.472 10.4587 30.624 9.264L32.032 7.728C33.184 6.78933 34.3573 6.78933 35.552 7.728L36.96 9.264C38.2827 10.4587 38.2827 11.6533 36.96 12.848L35.552 14.384C35.3387 14.5973 35.1253 14.704 34.912 14.704L38.496 27.76L45.088 16.688L43.552 15.152C42.528 13.9147 42.528 12.6773 43.552 11.44L44.96 10.032C46.1973 9.008 47.4133 9.008 48.608 10.032L50.016 11.44C51.2533 12.6773 51.2533 13.9147 50.016 15.152L48.608 16.496L47.392 17.264L46.624 30.832L57.888 20.848L56.928 20.08C55.904 18.8427 55.904 17.6053 56.928 16.368L58.464 14.96C59.6587 13.8507 60.8533 13.8507 62.048 14.96L63.392 16.368C64.6293 17.6053 64.6293 18.8427 63.392 20.08L62.048 21.424C61.3227 22.1493 60.5333 22.4053 59.68 22.192L48.48 48.496L51.552 60.976H14.624L19.104 48.048Z" fill="#343D45" />
    <path fill-rule="evenodd" clip-rule="evenodd" d="M19.748 55.859C19.748 55.794 20.046 54.777 20.411 53.599L21.074 51.455L22.048 52.296L23.022 53.137L21.522 54.547C20.113 55.871 19.748 56.141 19.748 55.859ZM22.817 57.84C23.3497 57.1495 23.8945 56.4684 24.451 55.797L25.719 54.254L27.052 53.959L28.384 53.665L30.673 55.911C32.775 57.975 33.016 58.157 33.639 58.157C34.617 58.157 34.893 57.969 37.112 55.787L39.112 53.819L40.224 54.033C41.324 54.246 41.352 54.267 42.476 55.703C43.103 56.503 43.866 57.423 44.172 57.748L44.728 58.339H22.45L22.817 57.84Z" fill="#FFC8C8" />
    <path fill-rule="evenodd" clip-rule="evenodd" d="M32.233 53.465L30.626 51.847L32.195 50.411C33.057 49.621 33.851 48.976 33.959 48.976C34.067 48.976 34.766 49.646 35.513 50.467L36.87 51.959L35.355 53.521L33.839 55.084L32.233 53.465ZM45.512 54.553L44.094 53.339L45.052 52.486C45.579 52.016 46.054 51.675 46.107 51.727C46.258 51.878 47.159 55.795 47.038 55.781C46.978 55.773 46.292 55.221 45.512 54.553ZM40.69 50.921C39.573 50.641 39.49 50.578 37.556 48.511C36.463 47.342 35.302 46.255 34.976 46.094L34.384 45.802L34.93 45.804C35.905 45.808 38.175 46.29 39.384 46.749C40.374 47.126 43.87 48.789 44.087 48.987C44.2 49.091 42.214 51.241 42.021 51.224C41.921 51.214 41.322 51.079 40.691 50.921H40.69ZM24.213 50.17C23.619 49.568 23.169 49.043 23.213 49.004C23.41 48.826 24.604 48.279 26.426 47.534C28.469 46.696 30.63 46.085 32.203 45.9L33.112 45.792L32.566 46.128C32.266 46.314 31.146 47.404 30.076 48.553C28.196 50.572 28.098 50.648 27.076 50.869C26.496 50.995 25.857 51.135 25.657 51.181C25.394 51.241 24.993 50.96 24.213 50.17Z" fill="#FFC8C8" />
    <path fill-rule="evenodd" clip-rule="evenodd" d="M44.02 45.334C39.597 43.182 35.935 42.427 32.035 42.866C29.475 43.154 27.84 43.604 24.431 44.956L21.57 46.09L21.021 44.917C20.618 44.055 20.524 43.682 20.667 43.509C20.977 43.137 23.708 41.852 25.257 41.352C28.987 40.146 33.777 39.703 37.359 40.233C40.054 40.632 41.849 41.207 44.795 42.616C47.081 43.71 47.195 43.79 47.039 44.19C46.687 45.091 46.123 46.338 46.074 46.322C46.045 46.314 45.122 45.869 44.022 45.333L44.02 45.334Z" fill="#FFC8C8" />
    <path fill-rule="evenodd" clip-rule="evenodd" d="M46.203 39.811C43.9899 38.6722 41.6363 37.8303 39.203 37.307C36.998 36.835 30.341 36.831 28.112 37.301C25.663 37.818 23.085 38.667 21.037 39.631C19.996 40.122 19.117 40.497 19.086 40.465C18.958 40.338 14.299 29.728 14.348 29.679C14.378 29.649 16.382 30.945 18.803 32.557C21.223 34.169 23.245 35.449 23.293 35.4C23.343 35.351 23.494 33.044 23.632 30.274C23.77 27.504 23.917 25.2 23.962 25.156C24.006 25.112 25.256 26.748 26.74 28.792C28.224 30.837 29.495 32.474 29.565 32.431C29.635 32.388 30.625 30.065 31.765 27.268C32.905 24.472 33.891 22.28 33.955 22.398C34.018 22.516 34.833 24.842 35.767 27.568C36.701 30.294 37.52 32.503 37.587 32.478C37.655 32.451 39.029 30.794 40.641 28.794C42.253 26.794 43.637 25.136 43.714 25.109C43.792 25.083 43.986 27.358 44.145 30.165C44.305 32.972 44.481 35.315 44.538 35.371C44.594 35.428 46.582 34.034 48.955 32.274C51.328 30.514 53.305 29.109 53.348 29.152C53.444 29.247 48.422 40.88 48.293 40.86C48.243 40.852 47.303 40.38 46.203 39.811ZM7.32701 20.375L6.83701 19.863L7.34901 19.373L7.86001 18.883L8.35001 19.395L8.84001 19.906L8.32901 20.396L7.81701 20.886L7.32701 20.375ZM20.236 13.648L19.746 13.136L20.258 12.646L20.769 12.156L21.259 12.667L21.749 13.179L21.238 13.669L20.727 14.159L20.236 13.648ZM33.324 11.643L32.837 11.136L33.35 10.645L33.863 10.154L34.275 10.593C34.602 10.941 34.649 11.105 34.501 11.383C34.103 12.126 33.841 12.183 33.324 11.643ZM46.327 13.92C45.827 13.387 45.829 13.224 46.351 12.735C46.881 12.236 46.876 12.235 47.339 12.862L47.725 13.384L47.225 13.864L46.725 14.344L46.327 13.92ZM59.691 18.738L59.201 18.227L59.712 17.737L60.224 17.247L60.714 17.758L61.204 18.27L60.693 18.76L60.181 19.25L59.691 18.738Z" fill="#FFC8C8" />
  </g>
  <g id="wr" fill="none" transform="scale(0.5882352941176471 0.5882352941176471)">
    <path d="M48.464 25.008L50.896 44.528L53.52 50.544V63.472H14.16V50.544L16.784 44.528L19.216 25.008L14.288 14.256L17.36 4.528H26V12.848H29.712V4.528H38.48V12.848H42.128V4.528H50.768L53.84 14.256L48.464 25.008Z" fill="#343D45" />
    <path fill-rule="evenodd" clip-rule="evenodd" d="M17.036 56.6V52.327H50.854V60.873H17.036V56.6ZM18.153 48.464L18.815 46.827L19.091 46.145L33.836 46.146H48.581L49.251 47.782L49.921 49.418H17.769L18.153 48.464ZM19.763 43.435C19.763 43.345 19.968 41.864 20.218 40.145C20.468 38.427 20.672 36.987 20.672 36.947C20.672 36.906 22.361 36.873 24.425 36.873H28.177L30.672 39.327C33.327 41.939 33.582 42.08 34.636 41.522C34.906 41.379 36.107 40.274 37.306 39.067L39.485 36.873H43.351C46.323 36.873 47.218 36.925 47.219 37.1C47.219 37.225 47.383 38.677 47.581 40.327C47.779 41.977 47.943 43.389 47.944 43.464C47.944 43.539 41.604 43.6 33.854 43.6C25.543 43.6 19.764 43.532 19.764 43.435H19.763Z" fill="#FFC8C8" />
    <path fill-rule="evenodd" clip-rule="evenodd" d="M32.002 37.076L30.332 35.297L32.042 33.594L33.752 31.89L34.258 32.33C34.8758 32.8912 35.4838 33.4629 36.082 34.045L37.4 35.32L35.63 37.097C34.656 38.074 33.817 38.87 33.766 38.865C33.714 38.86 32.919 38.055 32.001 37.077L32.002 37.076Z" fill="#FFC8C8" />
    <path fill-rule="evenodd" clip-rule="evenodd" d="M21.096 33.373C21.2775 32.1018 21.4459 30.8287 21.601 29.554L22.005 26.327H33.975C40.558 26.327 45.945 26.374 45.945 26.432C45.945 26.632 46.672 32.604 46.779 33.282L46.886 33.964H39.666L37.76 32.035C35.376 29.622 34.624 29.055 33.816 29.055C33.152 29.055 32.88 29.272 29.559 32.459L27.992 33.964H20.995L21.096 33.373ZM19.425 18.827L17.1 14.054L18.22 10.691L19.34 7.327L21.37 7.276L23.4 7.224V15.6H32.308V7.236H35.762V15.6H44.854V7.224L46.88 7.276L48.906 7.327L49.958 10.67L51.01 14.013L48.616 18.806L46.22 23.6H21.75L19.425 18.827Z" fill="#FFC8C8" />
  </g>
</svg>