<svg xmlns="http://www.w3.org/2000/svg" width="40" height="40" viewbox="0.0 0.0 800.0 800.0">
  <g id="bb" fill="none" transform="scale(0.05 0.05)">
    <path d="M237.8 702.4C195.8 702.4 160.5 687.5 135.6 659.4C112.6 633.5 100 597.1 100 556.9C100 497.7 141.5 483.6 177.5 477.8L193.9 475.2L188.9 491C182.4 511.5 178.7 533.9 178.7 552.2C178.7 606.2 203.1 639.8 242.3 639.8C271.5 639.8 298.9 616 313 579.6C301.2 577.2 291.5 574.4 283.9 571.2C270.5 565.6 263.8 558.2 263.4 549.4L256.4 493.7V493.1C256.4 484 262 477.5 269.3 472.6C267.7 468.3 266 463.7 264.2 459.1C247.6 414.2 226.9 358.2 226.9 315.4C226.9 265 249 220 289.3 188.5C300.2 173.2 316.5 156.5 337.8 138.8C355.6 124 375.8 109.5 394.7 97.9L400.1 94.7L405.5 97.9C441.6 120 487.9 156.5 510.9 188.6C551.2 220.1 573.4 265 573.4 315.1C573.4 358.2 552.7 414.6 535.9 459.8C534.3 464.2 533 468.4 531.5 472.5C538.7 477.5 544.8 483.9 544.8 493V493.6L537.2 549.2C536.6 562.9 520.1 572.9 487.2 579.5C501.3 615.9 528.7 639.7 557.8 639.7C597 639.7 621.3 606.1 621.3 552.1C621.3 533.7 617.6 511.4 611.1 490.9L606.1 475.1L622.4 477.7C647.7 481.7 665.2 488.6 677.6 499.4C692.6 512.6 700 531.4 700 556.7C700 596.9 687.4 633.3 664.4 659.2C639.6 687.3 604.1 702.2 562.2 702.2C496.6 702.2 443.4 657.1 424.4 586.5C416.4 586.8 408.2 587 400 587C391.8 587 383.6 586.8 375.6 586.5C356.7 657.2 303.3 702.4 237.8 702.4V702.4Z" fill="#4C0027" />
    <path d="M400 106.5C433.5 127 480.6 163.2 503.2 195.7C539.1 223.2 563 264 563 315C563 363.3 534.5 432.6 518.6 476.9C528.3 482.3 533.8 487.1 533.8 493.1L526.6 548.5C526.6 558 505.6 566.4 473.5 571.6C486.7 616.3 519.4 650 557.7 650C603.4 650 631.6 611.1 631.6 552.2C631.6 532.2 627.6 508.9 620.9 487.9C662.4 494.5 689.8 509.8 689.8 556.8C689.8 631.8 644.2 692 562.3 692C500.3 692 448.7 648.4 432.4 575.9C422 576.5 411.2 576.9 400 576.9C388.8 576.9 378 576.6 367.6 575.9C351.3 648.4 299.6 692 237.6 692C155.6 692 110.1 631.7 110.1 556.8C110.1 509.8 137.5 494.4 179 487.9C172.4 508.9 168.3 532.3 168.3 552.2C168.3 611.2 196.4 650 242.2 650C280.5 650 313.3 616.3 326.4 571.6C294.2 566.4 273.3 558.1 273.3 548.6L266 493C266 487.1 271.5 482.2 281.2 476.8C265.4 432.5 236.8 363.5 236.8 315.2C236.8 264.2 260.7 223 296.5 195.5C319.4 163.1 366.5 127.1 400 106.5V106.5ZM400 82.5L389.3 89C355.3 109.8 307.3 146.1 281.7 181.1C239.6 214.6 216.5 262 216.5 315.1C216.5 359.8 237.6 416.7 254.4 462.4C255.3 464.6 256 466.7 256.8 468.9C250.8 474.6 245.6 482.4 245.6 493V494.3L245.8 495.6L252.9 550.4C253.2 556.1 255.6 563.8 263.5 570.8C267.7 574.6 273 577.7 279.9 580.6C285.2 582.9 291.5 584.9 298.5 586.8C293.3 597 286.9 605.8 279.6 612.8C271.6 620.5 258.6 629.5 242.2 629.5C226.4 629.5 213.8 623.2 204.6 610.9C194.3 597.1 188.9 576.8 188.9 552.1C188.9 534.7 192.5 513.5 198.6 494L208.5 462.4L175.8 467.6C138.8 473.4 89.6 489.1 89.6 556.8C89.6 577.9 92.8 597.8 99.1 616.2C105.6 635.2 115.3 651.9 127.8 666.1C154.7 696.4 192.7 712.5 237.6 712.5C305.5 712.5 361 667.8 383.1 597C388.6 597.1 394.2 597.2 399.9 597.2C405.5 597.2 411.1 597.1 416.7 597C438.6 667.7 494.2 712.5 562.2 712.5C607.2 712.5 645.1 696.4 672 666.1C684.5 652 694.1 635.2 700.7 616.2C707 597.8 710.2 577.9 710.2 556.8C710.2 489.1 661.1 473.4 624 467.6L591.3 462.4L601.2 494C607.4 513.5 610.9 534.7 610.9 552.1C610.9 576.7 605.5 597 595.2 610.9C586 623.2 573.4 629.5 557.6 629.5C541.2 629.5 528.2 620.4 520.2 612.8C513 605.8 506.5 596.9 501.3 586.8C508.4 585 514.6 582.9 520 580.6C526.8 577.7 532.2 574.4 536.4 570.7C544.3 563.6 546.6 556 547 550.3L554.1 495.8L554.2 494.5V493.1C554.2 482.5 549 474.7 543.1 469.1C543.7 467.2 544.5 465.2 545.3 463.3C562.3 417.3 583.3 359.9 583.3 315C583.3 262.1 560.2 214.8 518.1 181.4C507 165.7 490.4 148.8 469 131C450.7 115.8 430.1 101 410.9 89.1L400 82.5Z" fill="#4C0027" />
    <path d="M526.7 548.5L533.9 492.8C533.9 473.1 475 457.6 400 457.6C324.9 457.6 266.1 473.3 266.1 492.8L273.3 548.5" stroke="#ECB390" stroke-width="15.12" stroke-miterlimit="10" stroke-linecap="round" />
    <path d="M273.4 548.5C273.4 532.8 330.1 520.1 400.1 520.1C470.1 520.1 526.8 532.8 526.8 548.5" stroke="#ECB390" stroke-width="15.12" stroke-miterlimit="10" stroke-linecap="round" />
    <path d="M169.8 491.2C134.6 497.5 111.3 512.3 111.3 557.4C111.3 629.4 150.1 684.1 219.6 684.1C282.9 684.1 333.5 624.5 334.4 527.9M630.1 491.2C665.3 497.5 688.6 512.3 688.6 557.4C688.6 629.4 649.8 684.1 580.3 684.1C517 684.1 466.4 624.5 465.5 527.9" stroke="#ECB390" stroke-width="15.12" stroke-miterlimit="10" stroke-linecap="round" />
    <path d="M518.7 476.2C534.5 431.5 563.1 362.9 563.1 314.6C563.1 263.6 539.2 222.5 503.4 194.9C480.7 162.5 433.5 125.9 400.2 105.4C366.7 125.9 319.6 162.5 297 194.9C261.1 222.3 237.3 263.5 237.3 314.6C237.3 362.9 265.9 431.5 281.7 476.2" stroke="#ECB390" stroke-width="15.12" stroke-miterlimit="10" />
    <path d="M329.8 301.9H470.2M398.9 211.2V395.9V211.2Z" stroke="#ECB390" stroke-width="17.28" stroke-miterlimit="10" />
  </g>
  <g id="bk" fill="none" transform="scale(0.05 0.05)">
    <path d="M694.7 363.2C685 355.7 672.1 352 656.7 352H655.3C653.2 352 651.1 352.1 648.8 352.1C646.1 352.1 643.2 352.2 640.3 352.2C643.6 328.5 640.9 310.6 632.3 296.7C625.7 286.1 616.4 278.4 604.5 273.8C595.2 270.1 584.2 268.4 570.9 268.4C558.7 268.4 545.7 269.8 532.1 271.6C529.1 257.5 522.8 246.2 513.4 238.1C503.9 229.8 492.8 225.6 480.4 225.6C456.3 225.6 433.2 241.9 414.5 255.2V174.5H464.2V144.3H414.5V94.6H384.3V144.3H337.9V174.5H384.3V253.4C366 240.4 343.9 225.4 320.8 225.4C308.4 225.4 297.3 229.6 287.8 237.9C278.4 246 272.2 257.2 269.1 271.4C255.4 269.6 242.4 268.2 230.2 268.2C216.9 268.2 205.9 269.9 196.5 273.6C184.6 278.2 175.3 285.9 168.7 296.5C160.1 310.5 157.4 328.5 160.6 352C157.8 352 155 351.9 152.4 351.9C149.9 351.9 147.5 351.8 145.4 351.8H144C128.8 351.8 115.6 355.7 105.8 362.9C97.3 369.3 87.2 381.2 87.2 402.3C87.2 428.4 105.5 456.1 124.7 485.5L130.4 494.2L156 548.1C148.4 556.4 144.7 565.4 144.7 574.9V577.1L145.1 579.3L160.8 643.9C161.9 656.8 171 667.9 187.8 676.8C200.4 683.5 217.9 689.3 239.9 694.3C283 704 340 709.3 400.5 709.3C460.5 709.3 517.2 704 560.2 694.5C582 689.6 599.5 683.8 612.3 677.2C629.4 668.3 638.8 657.3 640.2 644.6L654.9 578.9L655.5 577V574.9C655.5 565.5 651.5 556.8 643.9 548.8L667.7 496.2C670.2 492.5 672.6 488.7 675 485.2C694.4 456 712.8 428.5 712.8 402.5C712.8 381.4 702.9 369.5 694.7 363.2V363.2Z" fill="#4C0027" />
    <path d="M182 371.5C170.1 371.8 156.1 371.4 144.5 371.2C122.6 370.9 105.1 379.9 105.1 403.4C105.1 442.5 165.7 499.1 178.4 550.1" stroke="#ECB390" stroke-width="15.12" stroke-miterlimit="10" stroke-linecap="round" />
    <path d="M284.1 293.5C238.5 287.2 200.8 279.7 183.8 307.2C156.8 350.8 219.4 457.9 238.9 529.6" stroke="#ECB390" stroke-width="15.12" stroke-miterlimit="10" stroke-linecap="round" />
    <path d="M398.9 286.8C374.6 277.8 331 225.1 299.1 252.9C255.5 290.8 322 426.8 337.2 513.4M617.9 371.5C629.8 371.8 643.8 371.4 655.4 371.2C677.3 370.9 694.8 379.9 694.8 403.4C694.8 442.5 634.2 499.1 621.5 550.1" stroke="#ECB390" stroke-width="15.12" stroke-miterlimit="10" stroke-linecap="round" />
    <path d="M515.9 293.5C561.5 287.2 599.2 279.7 616.2 307.2C643.2 350.8 580.6 457.9 561.1 529.6" stroke="#ECB390" stroke-width="15.12" stroke-miterlimit="10" stroke-linecap="round" />
    <path d="M401.1 286.8C425.4 277.8 469 225.1 500.9 252.9C544.5 290.8 478 426.8 462.8 513.4" stroke="#ECB390" stroke-width="15.12" stroke-miterlimit="10" stroke-linecap="round" />
    <path d="M177.9 554C211.9 530.7 298.5 514.4 399.9 514.4C502.4 514.4 590.2 530.7 623.5 554.4L655.3 476.3C643.5 489.4 631.6 494.8 621.4 491.6C594.5 483.2 594.9 451 597 425.1C580.6 454.6 557.7 469.8 533.1 464.6C508.2 459.3 493.1 424.1 494.1 396C476.6 431.6 444.7 450.1 400 450.1C355.3 450.1 323.4 431.5 305.9 395.9C307 424 291.9 459.2 266.9 464.5C242.3 469.7 219.5 454.5 203 425C204.9 450.9 205.6 483.5 178.6 491.5C169.5 494.2 156.5 487.7 144.7 476.2L177.9 554Z" fill="#4C0027" stroke="#ECB390" stroke-width="12.96" stroke-miterlimit="10" stroke-linecap="round" />
    <path d="M162.5 575.9C162.5 541.6 268.8 514.2 399.9 514.2C531 514.2 637.3 541.5 637.3 575.9M162.3 577.7L178.5 642.8M637.7 577.7L621.5 642.8" stroke="#ECB390" stroke-width="12.96" stroke-miterlimit="10" stroke-linecap="round" />
    <path d="M178.6 642.2C178.6 614.8 277.7 592.5 400 592.5C522.3 592.5 621.4 614.7 621.4 642.2" stroke="#ECB390" stroke-width="15.12" stroke-miterlimit="10" stroke-linecap="round" />
    <path d="M400 286.8V447.7" stroke="#ECB390" stroke-width="6.48" stroke-miterlimit="10" stroke-linecap="round" />
  </g>
  <g id="bn" fill="none" transform="scale(0.05 0.05)">
    <path d="M137.8 605.9C145.8 562.9 166.7 454.9 181.1 393.9V353.9L181.6 352.3C195.5 310.4 215.2 266.8 225.7 243.3C226.7 241.1 227.5 239.3 228.3 237.6C216.4 218.6 213.1 191.9 209.9 168.2C208.6 158.3 207.4 148.9 205.7 140.9L202.8 127.2L216.8 128C250.5 129.7 282.9 150.4 300.4 179.9C294.5 158.3 299.5 130.5 314.8 107.8L320.6 99.1L330 103.9C357.5 117.8 371.8 147.1 372.6 172.6C383.3 171.5 393.8 171 403.7 171C420.4 171 435.7 172.5 449 175.5C502 187.5 588.4 230.5 649.9 275.4L654.3 278.6V706.9H334.8L350 689C416.7 610.9 452.1 536 452.1 472.1C452.1 450.1 448.2 428.4 441 408.6C442.4 429.7 440 449.9 433.5 467.7C420.9 502.6 384.4 523 362.7 532.4C345 548.6 316.7 583.6 301.4 606.4L275.5 673.8L136.4 614.5L137.8 605.9Z" fill="#4C0027" />
    <path d="M177.4 578.1C196.8 567.2 211.3 581.9 199.8 603.3L177.4 578.1ZM229 361.1C222.1 370.6 228.4 390.4 235 395.6C239.5 395 249.1 391.2 253.6 387.6L275.1 362.7L270.6 359C261.9 358.9 239.9 358.9 229 361.1V361.1ZM319.8 200.3L320.4 197.4C351.5 192.3 393.4 191.4 417.7 191.4C463.4 191.4 565.7 250.2 627.2 295.5V350.6C582.2 307.1 486 231.8 430.9 214.8C393.7 203.3 356.8 199.1 319.8 200.3V200.3Z" fill="#ECB390" />
  </g>
  <g id="bp" fill="none" transform="scale(0.05 0.05)">
    <path d="M489.3 418.3C489.4 401.3 501.3 393.2 554.4 388.4V330H463.7C495.7 310.5 516.5 276.5 516.5 237.1C516.5 175.2 465.2 126.7 399.8 126.7C334.4 126.7 283.1 175.2 283.1 237.1C283.1 276.5 303.8 310.4 335.9 330H244.5V388.4C298.2 393.2 309.7 401.3 309.7 418.2C309.7 478.9 272.1 549.7 194.2 618.3L194.3 682.3C194.3 700.9 287.5 714.3 399.6 714.3C511.7 714.3 605 700.8 605 682.3L605.1 618.3C527.2 549.8 489.3 478.9 489.3 418.3V418.3Z" fill="#4C0027" />
    <path d="M232.1 627.2C232.1 640.9 308.1 652.9 399.7 652.9C491.2 652.9 567.1 641.9 567.1 628.3" stroke="#ECB390" stroke-width="19.44" stroke-miterlimit="10" stroke-linecap="round" />
    <path d="M400.9 150.3C376.9 150.1 353.3 158.9 334.6 177.6C307.9 204.4 302.1 240.8 314.6 272.9" stroke="#ECB390" stroke-width="16.2" stroke-miterlimit="10" stroke-linecap="round" />
  </g>
  <g id="bq" fill="none" transform="scale(0.05 0.05)">
    <path d="M400 704.4C338 704.4 279.5 698.9 235.2 689C185.5 677.9 161 663.2 160.2 644.2L150 587V586.1C150 580.7 151.6 572.9 158.6 564.7C151.1 521.6 134 447.5 114 372.5C95.6002 365.6 83.2002 348 83.2002 327.9C83.2002 301.5 104.6 280.2 130.9 280.2C157.2 280.2 178.6 301.6 178.6 327.9C178.6 339 174.9 349.4 168 357.8C189.1 424.9 214.9 494.5 232.9 533L238.2 531.7C237.7 476.4 229.1 367.4 217.6 270.1C199 262.1 186.6 243.5 186.6 223C186.6 194.7 209.6 171.7 237.9 171.7C266.2 171.7 289.2 194.7 289.2 223C289.2 236.8 283.8 249.7 274.2 259.3C292.1 352.8 321.9 470.9 339.5 518.2L344.9 517.9C353.5 451.9 364.3 333.4 369.5 223.4C354.6 213.5 345.7 196.9 345.7 178.9C345.7 149.1 369.9 124.9 399.7 124.9C429.5 124.9 453.7 149.1 453.7 178.9C453.7 196.9 444.8 213.5 430.2 223.5C435.4 333.6 446.2 452 454.8 518L460.2 518.3C477.8 471 507.6 353 525.5 259.4C515.9 249.8 510.5 236.9 510.5 223.1C510.5 194.8 533.5 171.8 561.8 171.8C590.1 171.8 613.1 194.8 613.1 223.1C613.1 243.7 600.7 262.2 582.1 270.2C570.5 367.5 561.9 476.5 561.5 531.8L566.8 533.1C584.8 494.7 610.6 425 631.7 357.9C624.8 349.5 621.1 339 621.1 328C621.1 301.6 642.5 280.3 668.8 280.3C695.1 280.3 716.5 301.7 716.5 328C716.5 348.1 704.1 365.7 685.7 372.6C665.8 447.7 648.7 521.7 641.1 564.8C646.8 571.5 649.7 578.6 649.7 586.1V587L639.4 644.7C638.2 663.6 613.7 678.2 564.4 689.3C520.6 698.9 462.1 704.4 400 704.4V704.4ZM215 632.7C225.8 639.9 249.9 647 281.2 651.8C315.5 657.2 356.6 660 400 660C498 660 563.9 646.2 584.2 633.1L587.5 630.2C583.3 626 570.5 618.8 538.8 612.5C503.5 605.6 454.1 601.8 399.9 601.8C349.6 601.8 301.7 605.7 265.3 612.8C232.1 619.3 217.8 626.6 212.7 630.7L215 632.7Z" fill="#4C0027" />
    <path d="M400 134.5C424.4 134.5 444.3 154.4 444.3 178.8C444.3 195.9 434.7 210.7 420.5 218C425.6 332 437.3 460.6 446.5 527.1L466.9 528.4C485 483.7 518.3 351.6 536.3 255.8C526.6 248.2 520.4 236.4 520.4 223.1C520.4 200.1 539 181.5 562 181.5C585 181.5 603.6 200.1 603.6 223.1C603.6 242.1 590.9 258.1 573.4 263.1C561.1 365.2 551.6 485.1 551.9 539.5L572.3 544.4C592.6 503.3 622 422.5 642.7 355.5C635.5 348.6 630.9 338.9 630.9 328C630.9 307 647.9 290 668.9 290C689.9 290 706.9 307 706.9 328C706.9 345.9 694.5 360.9 677.8 364.9C657 442.9 638.3 523.1 630.8 568C636.8 573.7 640.2 579.8 640.2 586.1L630 643.1L629.9 643.2C629.9 671.7 526.9 694.8 399.9 694.8C272.8 694.8 169.9 671.4 169.9 643.3L159.7 586.2C159.7 579.9 162.9 573.7 169.1 567.9C161.6 523 143 442.7 122.1 364.8C105.5 360.8 93.0001 345.8 93.0001 327.9C93.0001 306.9 110 289.9 131 289.9C152.1 289.9 169 306.9 169 327.9C169 338.7 164.5 348.5 157.2 355.4C178 422.4 207.3 503.3 227.6 544.3L248 539.4C248.3 485.2 238.8 365.1 226.5 263C209.1 258 196.3 242 196.3 223C196.3 200 214.9 181.4 237.9 181.4C260.9 181.4 279.5 200 279.5 223C279.5 236.3 273.2 248.1 263.6 255.7C281.6 351.5 314.8 483.6 333 528.3L353.4 527C362.5 460.5 374.2 332 379.4 217.9C365.3 210.4 355.6 195.8 355.6 178.7C355.7 154.4 375.6 134.5 400 134.5V134.5ZM400 669.8C489.4 669.8 565 657.7 590.2 641L599.2 633.1C599.2 607.5 510.1 592.1 400.2 592.1C290.3 592.1 201.2 610.5 201.2 633.1L209.3 640.3C233.3 657.3 309.6 669.8 400 669.8V669.8ZM400 115.1C364.9 115.1 336.3 143.7 336.3 178.8C336.3 198.1 344.9 216.1 359.5 228C355.1 320.8 346.6 418.8 339 485.8C322 430.4 299.4 337.7 284.7 262.3C293.9 251.4 299.1 237.6 299.1 223C299.1 189.3 271.8 162 238.1 162C204.4 162 177.1 189.3 177.1 223C177.1 236.5 181.4 249.4 189.7 260.2C194.9 266.9 201.4 272.5 208.8 276.6C217.9 354 225 438.1 227.7 495.8C212.4 458.2 194.5 408.4 179.1 359.5C185.3 350.2 188.7 339.1 188.7 327.9C188.7 296.3 162.9 270.4 131.2 270.4C99.6001 270.4 73.6001 296.1 73.6001 327.7C73.6001 350.2 86.5001 369.9 105.9 379.3C124.6 450.1 140.7 519.5 148.3 561.9C141.8 571 140.2 579.6 140.2 585.9V587.6L140.5 589.3L150.4 645.1C150.8 650.8 153 658.6 160.1 666.5C164.7 671.5 170.8 675.9 178.8 680.1C191.9 687 210.1 693.2 232.9 698.2C277.9 708.4 337.2 713.9 399.9 713.9C462.8 713.9 522 708.4 566.9 698.2C589.7 693.1 607.9 687 621 679.9C629 675.7 635 671.2 639.7 666.2C643.8 661.7 646.3 657.1 647.7 653L648 652.7L648.3 650.9C648.8 649 649.2 647.1 649.3 645.4L659.3 589L659.6 587.3V586C659.6 579.8 658 571.2 651.5 562.1C659.1 519.7 675.3 450.3 693.9 379.5C713.3 370.1 726.2 350.2 726.2 327.9C726.2 296.3 700.4 270.4 668.7 270.4C637.1 270.4 611.2 296.2 611.2 327.9C611.2 339.2 614.5 350.3 620.8 359.5C605.4 408.4 587.4 458.2 572.2 495.8C574.9 438 582 354 591.1 276.6C598.4 272.5 605 267 610.2 260.2C618.4 249.5 622.8 236.7 622.8 223C622.8 189.3 595.5 162 561.8 162C528.1 162 500.8 189.3 500.8 223C500.8 237.6 505.9 251.4 515.2 262.3C500.5 337.7 477.8 430.3 460.9 485.8C453.2 418.8 444.8 320.9 440.4 228C454.9 216.1 463.5 198.2 463.5 178.9C463.7 143.7 435.1 115.1 400 115.1V115.1ZM234 631C242.5 628 255.6 624.3 275.3 621C310 615 354.2 611.7 400 611.7C448 611.7 491.2 614.6 525.1 620.1C546.2 623.6 559.4 627.2 567.8 630.5C558.3 634.1 542.3 638.6 516.3 642.6C482.6 647.8 442.4 650.5 400.1 650.5C357.2 650.5 316.7 647.7 282.8 642.4C258.8 638.6 243.6 634.3 234 631V631Z" fill="#4C0027" />
    <path d="M400 138.8C414.304 138.8 425.9 127.204 425.9 112.9C425.9 98.5958 414.304 87 400 87C385.696 87 374.1 98.5958 374.1 112.9C374.1 127.204 385.696 138.8 400 138.8Z" fill="#4C0027" />
    <path d="M225 187.8C237.703 187.8 248 177.503 248 164.8C248 152.097 237.703 141.8 225 141.8C212.297 141.8 202 152.097 202 164.8C202 177.503 212.297 187.8 225 187.8Z" fill="#4C0027" />
    <path d="M113.8 296.2C126.171 296.2 136.2 286.171 136.2 273.8C136.2 261.429 126.171 251.4 113.8 251.4C101.429 251.4 91.3999 261.429 91.3999 273.8C91.3999 286.171 101.429 296.2 113.8 296.2Z" fill="#4C0027" />
    <path d="M575 187.8C587.703 187.8 598 177.503 598 164.8C598 152.097 587.703 141.8 575 141.8C562.297 141.8 552 152.097 552 164.8C552 177.503 562.297 187.8 575 187.8Z" fill="#4C0027" />
    <path d="M687.3 296.2C699.671 296.2 709.7 286.171 709.7 273.8C709.7 261.429 699.671 251.4 687.3 251.4C674.929 251.4 664.9 261.429 664.9 273.8C664.9 286.171 674.929 296.2 687.3 296.2Z" fill="#4C0027" />
    <path d="M117.6 287.9L113.1 272.9" stroke="#ECB390" stroke-width="17.28" stroke-miterlimit="10" stroke-linecap="round" />
    <path d="M228.8 180.7L224.4 162.7" stroke="#ECB390" stroke-width="18.36" stroke-miterlimit="10" stroke-linecap="round" />
    <path d="M682.7 287.9L687.3 272.9" stroke="#ECB390" stroke-width="17.28" stroke-miterlimit="10" stroke-linecap="round" />
    <path d="M570.4 180.7L575 162.7" stroke="#ECB390" stroke-width="18.36" stroke-miterlimit="10" stroke-linecap="round" />
    <path d="M399.5 108.6V127" stroke="#ECB390" stroke-width="20.52" stroke-miterlimit="10" stroke-linecap="round" />
    <path d="M263.7 255.8C273.4 248.2 279.6 236.4 279.6 223.1C279.6 200.1 261 181.5 238 181.5C215 181.5 196.4 200.1 196.4 223.1C196.4 242.1 209.1 258.1 226.6 263.1C238.9 365.2 248.4 478.7 248.1 533L227.7 537.9M420.5 218C434.6 210.5 444.3 195.9 444.3 178.8C444.3 154.4 424.4 134.5 400 134.5C375.6 134.5 355.7 154.4 355.7 178.8C355.7 195.9 365.3 210.7 379.5 218C374.4 332 362.7 454.1 353.5 520.6L333.1 521.9M573.3 263C590.7 258 603.5 242 603.5 223C603.5 200 584.9 181.4 561.9 181.4C538.9 181.4 520.3 200 520.3 223C520.3 236.3 526.6 248.1 536.2 255.7C518.2 351.5 485 477.1 466.8 521.8L446.4 520.5M677.9 364.8C694.5 360.8 707 345.8 707 327.9C707 306.9 690 289.9 669 289.9C648 289.9 631 306.9 631 327.9C631 338.7 635.5 348.5 642.8 355.4C622 422.4 592.7 496.8 572.4 537.8L552 532.9" stroke="#ECB390" stroke-width="15.12" stroke-miterlimit="10" stroke-linecap="round" stroke-linejoin="round" />
    <path d="M157.2 355.4C164.4 348.5 169 338.8 169 327.9C169 306.9 152 289.9 131 289.9C109.9 289.9 93 306.9 93 327.9C93 345.8 105.4 360.8 122.1 364.8C142.9 442.8 161.6 519.8 169.1 564.7C163.1 570.4 159.7 576.5 159.7 582.8L169.9 643.1C169.9 614.6 272.9 591.5 400 591.5C527.1 591.5 630.1 614.6 630.1 643.1L640.3 582.8C640.3 576.5 637.1 570.5 630.9 564.7" stroke="#ECB390" stroke-width="15.12" stroke-miterlimit="10" stroke-linecap="round" stroke-linejoin="round" />
  </g>
  <g id="br" fill="none" transform="scale(0.05 0.05)">
    <path d="M398.3 708.2C342.1 708.2 289.7 702.4 250 691.7C205.4 679.6 182.9 663.3 182.9 643.2V582C182.9 553.7 226 535.9 256.1 526.8L264 354.3C260.8 351.7 258.4 349 256.8 346.1L256.6 345.8L232.3 293C225.3 289.5 213.3 282.3 213.3 270.8V145.3H286.7V196.1H328.8V145.9L463.8 146V196.1H505.9V145.3H580.4V270.7C580.4 278.4 576.3 285.1 567.7 290.5L544.1 346L543.7 346.8C541.6 349.9 538.8 352.8 535.3 355.5L542.8 526.6C563.4 532.6 580.8 540.1 593.3 548.2C609.5 558.7 617.6 570 617.6 582.2C617.6 583 617.6 583.8 617.5 584.7L617.4 643.5C617.4 663.7 594.4 680 549 692C508.6 702.3 455.2 708.2 398.3 708.2Z" fill="#4C0027" />
    <path d="M570.6 155V270.7C570.6 275.2 567.5 279.7 559.9 283.8L535.4 341.5C533.3 344.7 529.9 347.7 525.2 350.5L533.2 534C579.5 546.5 607.8 564.8 607.8 582.2C607.8 582.8 607.8 583.5 607.7 584.1L607.6 643.4C607.6 674 514.5 698.8 398.4 698.8C283.9 698.8 192.6 674.1 192.6 643.4V582.2C192.6 565 220 546.9 265.4 534.4L273.8 349.7C269.8 347.1 266.7 344.4 265.1 341.6L239.5 285.9C229.3 281.4 222.9 276.3 222.9 270.9V155H276.9V205.8H338.5V155.5L454.1 155.6V205.8H515.7V155H570.6ZM590.1 135.6H497.2V186.3H473.4V136.3H454.1L339.1 136.2H320V186.3H296.2V135.6H203.5V270.7C203.5 286 215.9 295.1 224.8 300L247.6 349.5L247.9 350.3L248.3 351.1C249.8 353.8 251.8 356.3 254 358.6L246.7 519.7C228.3 525.6 213.2 532.6 201.3 540.3C188.4 548.7 173.2 562.9 173.2 582.1V643.3C173.2 661.3 186.7 673.9 198 681.1C210 688.8 226.5 695.5 247.4 701.1C287.8 712 341.4 717.9 398.4 717.9C456.1 717.9 510.5 711.9 551.5 701.1C572.6 695.5 589.4 688.8 601.6 681.1C613.2 673.9 627 661.3 627 643.2L627.1 585C627.2 583.9 627.2 582.9 627.2 582C627.2 573.4 624.1 564.9 618 557.1C613.4 551.1 606.8 545.2 598.5 539.9C586.4 532.1 570.9 525.1 552.1 519.2L545.2 359.7C547.9 357.2 550.1 354.6 551.9 351.9L552.9 350.5L553.5 349L575.6 296.9C587.7 288.3 590.3 278.1 590.3 270.8V135.6H590.1Z" fill="#4C0027" />
    <path d="M606.1 586.6C597.2 615 509.2 637.4 400.7 637.4C286.2 637.4 192.4 612.3 192.4 581.8" stroke="#ECB390" stroke-width="16.051" stroke-miterlimit="10" stroke-linecap="round" stroke-linejoin="round" />
    <path d="M534.3 541.2C534.3 560.9 473.4 575.1 399.9 575.1H400C326.6 575.1 265.6 560.8 265.6 541.2L272.1 350.5" stroke="#ECB390" stroke-width="12.96" stroke-miterlimit="10" stroke-linecap="round" />
    <path d="M534.6 341.3C525.2 357.9 472.9 370 400 370H400.1C327.2 370 274.8 357.9 265.4 341.4L240.9 286.9" stroke="#ECB390" stroke-width="10.8" stroke-miterlimit="10" stroke-linecap="round" />
    <path d="M572.8 270.6V154H515.6V204.8H454V155.7L338.4 155.6V204.8H276.8V154H224V270.6C224 290.7 305.5 307 399.3 307C493 307 572.8 290.8 572.8 270.6Z" stroke="#ECB390" stroke-width="15.12" stroke-miterlimit="10" stroke-linecap="round" />
  </g>
  <g id="wb" fill="none" transform="scale(0.05 0.05)">
    <path d="M238.9 701.8C197.1 701.8 161.9 687 137.1 659C114.2 633.2 101.6 596.9 101.6 556.8C101.6 497.9 142.7 483.9 178.7 478.3L194.3 475.8L189.5 490.8C183 511.3 179.3 533.8 179.3 552.1C179.3 606.4 203.8 640.2 243.5 640.2C273 640.2 300.7 616 314.9 579.1C281.9 572.5 265.4 562.7 264.8 549.2L257.5 493.5V493C257.5 483.9 263.4 477.7 270.7 472.7C269.1 468.3 267.4 463.6 265.6 458.9C249 414 228.3 358.1 228.3 315.3C228.3 265.1 250.4 220.2 290.6 188.8C313.5 156.8 359.8 120.3 395.9 98.2L401 95.1L406.1 98.2C442.1 120.2 488.4 156.7 511.4 188.9C551.6 220.3 573.7 265 573.7 314.9C573.7 357.9 553 414.3 536.3 459.5C534.6 464 533 468.5 531.4 472.7C538.6 477.7 544.6 484 544.6 493V493.6L537.4 549.1C536.9 562.6 520.4 572.5 487.4 579C501.5 615.9 529.3 640.1 558.8 640.1C598.3 640.1 623 606.3 623 552C623 533.5 619.3 511.2 612.8 490.7L608 475.7L623.6 478.2C648.8 482.2 666.2 489 678.5 499.8C693.4 512.9 700.7 531.6 700.7 556.7C700.7 596.8 688.1 633.1 665.2 658.9C640.4 686.9 605.3 701.7 563.4 701.7C498 701.7 444.8 656.6 426 585.9C417.8 586.2 409.5 586.4 401.2 586.4C392.9 586.4 384.6 586.2 376.4 585.9C357.4 656.7 304.3 701.8 238.9 701.8V701.8Z" fill="#ECB390" />
    <path d="M401.1 106.4C434.6 126.9 481.7 163.2 504.3 195.7C540.2 223.2 564 264 564 315C564 363.3 535.5 432.6 519.6 476.9C529.3 482.3 534.8 487.1 534.8 493.1L527.6 548.5C527.6 558 506.6 566.4 474.5 571.6C487.7 616.3 520.4 650 558.7 650C604.4 650 632.6 611.1 632.6 552.2C632.6 532.2 628.6 508.9 621.9 487.9C663.4 494.5 690.8 509.8 690.8 556.8C690.8 631.8 645.2 692 563.3 692C501.3 692 449.7 648.4 433.4 575.9C423 576.5 412.2 576.9 401 576.9C389.8 576.9 379 576.6 368.6 575.9C352.4 648.4 300.6 692 238.6 692C156.6 692 111.1 631.7 111.1 556.8C111.1 509.8 138.5 494.4 180 487.9C173.4 508.9 169.3 532.3 169.3 552.2C169.3 611.2 197.4 650 243.2 650C281.5 650 314.3 616.3 327.4 571.6C295.2 566.4 274.3 558.1 274.3 548.6L267 493C267 487.1 272.5 482.2 282.2 476.8C266.4 432.5 237.8 363.5 237.8 315.2C237.8 264.2 261.7 223 297.5 195.5C320.5 163.1 367.6 127 401.1 106.4V106.4ZM401.1 83.6L390.9 89.9C357 110.6 309.1 147 283.6 182C241.7 215.3 218.6 262.5 218.6 315.3C218.6 359.9 239.6 416.6 256.4 462.3C257.3 464.8 258.1 467.2 259 469.4C253 474.9 247.7 482.6 247.7 493.1V494.4L247.9 495.7L255 550.5C255.3 556 257.6 563.4 265.3 570.3C269.4 574 274.7 577.1 281.4 580C287 582.4 293.6 584.5 301.2 586.5C295.9 597.2 289.2 606.6 281.5 613.9C273.4 621.7 260.2 631 243.4 631C227.3 631 214.3 624.6 205 612C194.6 598.1 189.1 577.4 189.1 552.6C189.1 535.1 192.7 513.8 198.8 494.2L208.2 464.3L177.2 469.2C150.1 473.5 131.2 481.1 117.5 493.1C100.5 507.9 92 529.5 92 557.4C92 578.4 95.1 598.2 101.5 616.5C108 635.4 117.6 652 130 666.1C156.7 696.2 194.4 712.1 239.1 712.1C306.7 712.1 362.1 667.3 383.7 596.6C389.5 596.8 395.4 596.8 401.3 596.8C407.2 596.8 413.1 596.7 418.9 596.6C440.6 667.2 495.9 712.1 563.5 712.1C608.2 712.1 645.9 696.2 672.6 666.1C685 652.1 694.6 635.4 701.1 616.5C707.4 598.2 710.6 578.4 710.6 557.4C710.6 529.6 702.1 507.9 685.1 493.1C671.4 481.1 652.4 473.4 625.4 469.2L594.4 464.3L603.8 494.2C610 513.9 613.5 535.1 613.5 552.6C613.5 577.4 608 598.1 597.6 612C588.2 624.6 575.2 631 559.2 631C542.4 631 529.2 621.7 521.1 613.9C513.4 606.6 506.7 597.2 501.4 586.4C509 584.5 515.5 582.3 521.2 579.9C527.9 577 533.2 573.9 537.3 570.2C545 563.3 547.1 555.9 547.5 550.4L554.6 495.9L554.7 494.6V493.2C554.7 482.7 549.4 475.1 543.4 469.5C544.2 467.3 545 465.2 545.8 463C562.8 417 583.8 359.9 583.8 315C583.8 262.4 560.8 215.3 518.8 182.2C507.4 166.5 490.8 149.6 469.4 131.8C451.2 116.6 430.6 101.8 411.4 90L401.1 83.6Z" fill="#4C0027" />
    <path d="M527.8 548.5L535 492.8C535 473.1 476.1 457.6 401.1 457.6C326 457.6 267.2 473.3 267.2 492.8L274.4 548.5" stroke="#4C0027" stroke-width="16.906" stroke-miterlimit="10" stroke-linecap="round" />
    <path d="M401.1 576.9C471.074 576.9 527.8 564.185 527.8 548.5C527.8 532.815 471.074 520.1 401.1 520.1C331.125 520.1 274.4 532.815 274.4 548.5C274.4 564.185 331.125 576.9 401.1 576.9Z" stroke="#4C0027" stroke-width="15.911" stroke-miterlimit="10" stroke-linecap="round" />
    <path d="M333.9 527.1C333.9 591.5 293.5 649 243.4 649C197.7 649 169.5 610.1 169.5 551.2C169.5 531.2 173.5 507.9 180.2 486.9C138.7 493.5 111.3 508.8 111.3 555.8C111.3 630.8 156.9 691 238.8 691C313.3 691 373 627.8 374 527.4L333.9 527.1ZM468.4 527.1C468.4 591.5 508.8 649 558.9 649C604.6 649 632.8 610.1 632.8 551.2C632.8 531.2 628.8 507.9 622.1 486.9C663.6 493.5 691 508.8 691 555.8C691 630.8 645.4 691 563.5 691C489 691 429.3 627.8 428.3 527.4" fill="#ECB390" />
    <path d="M468.4 527.1C468.4 591.5 508.8 649 558.9 649C604.6 649 632.8 610.1 632.8 551.2C632.8 531.2 628.8 507.9 622.1 486.9C663.6 493.5 691 508.8 691 555.8C691 630.8 645.4 691 563.5 691C489 691 429.3 627.8 428.3 527.4M333.9 527.1C333.9 591.5 293.5 649 243.4 649C197.7 649 169.5 610.1 169.5 551.2C169.5 531.2 173.5 507.9 180.2 486.9C138.7 493.5 111.3 508.8 111.3 555.8C111.3 630.8 156.9 691 238.8 691C313.3 691 373 627.8 374 527.4L333.9 527.1Z" stroke="#4C0027" stroke-width="18.36" stroke-miterlimit="10" />
    <path d="M519.8 476.2C535.6 431.5 564.2 362.9 564.2 314.6C564.2 263.6 540.3 222.2 504.5 194.7C481.8 162.3 434.6 125.5 401.3 105C367.8 125.5 320.7 162.2 298.1 194.7C262.2 222.1 238.4 263.5 238.4 314.5C238.4 362.8 267 431.5 282.8 476.2" stroke="#4C0027" stroke-width="20.52" stroke-miterlimit="10" />
    <path d="M330.9 301.9H471.3M401.1 211.2V395.9V211.2Z" stroke="#4C0027" stroke-width="19.44" stroke-miterlimit="10" />
  </g>
  <g id="wk" fill="none" transform="scale(0.05 0.05)">
    <path d="M405.3 700C345.5 700 289.2 694.7 246.6 685.2C199.2 674.6 175.5 660.6 174.5 642.4L158.1 576V574.9C158.1 565.8 163.3 556.9 173.3 548.4C167.1 526.5 151.7 502.9 136.7 480C118.3 452 101 425.6 101 402.3C101 376.8 119.4 360.9 148.8 360.9H150.1C152.3 360.9 154.6 361 157.1 361C163.1 361.1 170 361.2 176.4 361.2C171 334.5 172.6 315.3 181.4 301.3C194.7 279.8 218.3 277.3 235 277.3C249.1 277.3 264.8 279.4 281.4 281.7C283.2 265.4 288.9 253.2 298.6 244.8C306.4 238 315.6 234.5 325.6 234.5C346.9 234.5 367.8 249.4 386.4 262.5C393.4 267.5 400 272.2 405.4 275C410.8 272.1 417.5 267.4 424.4 262.5C442.9 249.4 463.9 234.5 485.1 234.5C495.3 234.5 504.3 238 512.1 244.8C521.7 253.2 527.4 265.3 529.2 281.7C545.8 279.4 561.5 277.3 575.6 277.3C592.2 277.3 615.9 279.8 629.2 301.3C637.8 315.3 639.5 334.6 634.1 361.3C640.7 361.3 647.7 361.2 653.9 361.1C656.2 361.1 658.3 361 660.4 361H661.7C691.2 361 708.8 376.4 708.8 402.4C708.8 425.6 691.2 452.1 672.5 480.1C657.3 502.9 641.7 526.4 635.5 548.2C646.2 556.4 651.6 565.5 651.6 575V576.1L635.8 643.3C634.2 661.2 610.3 675.2 563 685.6C520.7 694.8 464.6 700 405.3 700V700Z" fill="#ECB390" />
    <path d="M325.6 243.8C353.8 243.8 386 277.4 405.4 285.3C424.8 277.3 457 243.8 485.2 243.8C492.5 243.8 499.7 246.1 506.3 251.8C516.5 260.7 520.6 274.7 520.9 292.2C540.9 289.4 559.7 286.5 575.9 286.5C596.1 286.5 612.3 291 621.7 306.2C631.1 321.4 629.6 344.2 622.9 370.5C625.4 370.5 628 370.6 630.7 370.6C641 370.6 652.4 370.4 660.8 370.3H662C683.4 370.3 699.9 379.5 699.9 402.5C699.9 441.6 639 498.2 626 549.2V552.5C636.8 559.4 642.5 567 642.5 575L626.9 641.9C625.6 669.1 526.9 691 405.4 691C283.1 691 183.9 668.8 183.9 641.3L167.6 575C167.6 567.1 173.4 559.4 183.2 552.5V548.9C171.3 497.9 110.4 441.3 110.4 402.2C110.4 379.2 127.7 370 149.1 370H150.3C158.8 370.1 170.6 370.4 180.9 370.4C183.5 370.4 186 370.4 188.4 370.3C181.7 343.9 180.3 321.2 189.7 306C199.1 290.9 215.2 286.3 235.5 286.3C251.7 286.3 270.5 289.2 290.5 292C290.8 274.5 294.9 260.4 305.1 251.6C311.1 246.1 318.2 243.8 325.6 243.8V243.8ZM325.6 225.5C313.2 225.5 302.1 229.7 292.6 238C283.2 246.1 277 257.3 273.9 271.5C260.2 269.7 247.2 268.3 235 268.3C221.7 268.3 210.7 270 201.3 273.7C189.4 278.3 180.1 286 173.5 296.6C164.9 310.6 162.2 328.6 165.4 352.1C162.6 352.1 159.8 352 157.2 352C154.7 352 152.3 351.9 150.2 351.9H148.8C133.6 351.9 120.3 355.7 110.6 362.9C102.1 369.3 91.8 381.3 91.8 402.3C91.8 428.3 109.9 455.9 129.1 485C142.5 505.4 156.4 526.4 163.1 545.5C153.9 554.7 149.5 564.5 149.5 574.9V577.2L149.8 579.4L165.6 644C166.7 656.9 175.8 668 192.6 676.8C205.2 683.5 222.7 689.3 244.7 694.3C287.8 703.9 344.9 709.3 405.3 709.3C465.3 709.3 522 704 565 694.5C586.8 689.6 604.4 683.8 617.1 677.2C634.1 668.3 643.5 657.4 644.9 644.7L660 579.1L660.3 577V574.8C660.3 564 655.5 554.1 645.9 545C652.7 526 666.6 505.1 680.1 485C699.5 455.8 717.9 428.3 717.9 402.3C717.9 381.2 708.1 369.3 699.8 363C690 355.5 677.2 351.8 661.8 351.8H660.4C658.3 351.8 656.2 351.9 653.9 351.9C651.1 351.9 648.2 352 645.2 352C648.5 328.5 645.8 310.4 637.2 296.5C630.6 285.9 621.3 278.2 609.4 273.6C600.1 269.9 589.1 268.2 575.8 268.2C563.6 268.2 550.6 269.6 536.9 271.4C533.8 257.3 527.6 246 518.2 237.9C508.7 229.6 497.6 225.4 485.2 225.4C461 225.4 437.8 241.8 419.1 255.1C414.3 258.4 409.5 261.9 405.4 264.5C401.3 261.9 396.4 258.5 391.7 255.1C373 241.9 349.8 225.5 325.6 225.5V225.5Z" fill="#4C0027" />
    <path d="M187.4 370.4C175.5 370.7 161.5 370.3 149.9 370.1C128 369.8 110.5 378.8 110.5 402.3C110.5 441.4 171.1 498 183.8 549" stroke="#4C0027" stroke-width="18.36" stroke-miterlimit="10" stroke-linecap="round" />
    <path d="M289.5 292.4C243.9 286.1 206.2 278.6 189.2 306.1C162.2 349.7 224.8 456.8 244.3 528.5" stroke="#4C0027" stroke-width="18.36" stroke-miterlimit="10" stroke-linecap="round" />
    <path d="M404.3 285.7C380 276.7 336.4 224 304.5 251.8C260.9 289.7 327.4 425.7 342.6 512.3M623.3 370.4C635.2 370.7 649.2 370.3 660.8 370.1C682.7 369.8 700.2 378.8 700.2 402.3C700.2 441.4 639.6 498 626.9 549" stroke="#4C0027" stroke-width="18.36" stroke-miterlimit="10" stroke-linecap="round" />
    <path d="M521.3 292.4C566.9 286.1 604.6 278.6 621.6 306.1C648.6 349.7 586 456.8 566.5 528.5" stroke="#4C0027" stroke-width="18.36" stroke-miterlimit="10" stroke-linecap="round" />
    <path d="M406.5 285.7C430.8 276.7 474.4 224 506.3 251.8C549.9 289.7 483.4 425.7 468.2 512.3" stroke="#4C0027" stroke-width="18.36" stroke-miterlimit="10" stroke-linecap="round" />
    <path d="M405.4 271.7V456.2" stroke="#4C0027" stroke-width="15.12" stroke-miterlimit="10" stroke-linecap="round" />
    <path d="M632.9 552.5L660.7 483.7C649.6 498.3 635.9 500.5 626.8 498C599.8 490 600.3 457.4 602.4 431.5C586 461 563.1 476.2 538.5 471C513.6 465.7 498.5 430.5 499.5 402.4C482 438 450.1 456.5 405.4 456.5C360.7 456.5 328.8 438 311.3 402.4C312.4 430.5 297.3 465.7 272.3 471C247.7 476.2 224.9 461 208.4 431.5C210.3 457.4 211 490 184 498C174.9 500.7 161.1 498.3 150.1 483.7L177.9 552.5" fill="#ECB390" />
    <path d="M632.9 552.5L660.7 483.7C649.6 498.3 635.9 500.5 626.8 498C599.8 490 600.3 457.4 602.4 431.5C586 461 563.1 476.2 538.5 471C513.6 465.7 498.5 430.5 499.5 402.4C482 438 450.1 456.5 405.4 456.5C360.7 456.5 328.8 438 311.3 402.4C312.4 430.5 297.3 465.7 272.3 471C247.7 476.2 224.9 461 208.4 431.5C210.3 457.4 211 490 184 498C174.9 500.7 161.1 498.3 150.1 483.7L177.9 552.5" stroke="#4C0027" stroke-width="18.36" stroke-miterlimit="10" />
    <path d="M167.9 574.8C167.9 540.5 274.2 513.1 405.3 513.1C536.4 513.1 642.7 540.4 642.7 574.8M167.7 576.7L183.9 641.7M643.1 576.7L626.9 641.7" stroke="#4C0027" stroke-width="21.6" stroke-miterlimit="10" stroke-linecap="round" />
    <path d="M405.4 690.8C527.676 690.8 626.8 668.549 626.8 641.1C626.8 613.651 527.676 591.4 405.4 591.4C283.124 591.4 184 613.651 184 641.1C184 668.549 283.124 690.8 405.4 690.8Z" stroke="#4C0027" stroke-width="21.6" stroke-miterlimit="10" stroke-linecap="round" />
    <path d="M342.8 159.4H468M404.3 94.6V283.6V94.6Z" stroke="#4C0027" stroke-width="30.24" stroke-miterlimit="10" />
  </g>
  <g id="wn" fill="none" transform="scale(0.05 0.05)">
    <path d="M645.254 692.2V280.6C588.054 238.8 502.954 194.8 448.654 182.5C406.054 172.8 347.354 180.4 300.054 195.7C286.754 160.8 252.054 137.1 218.554 135.3C224.854 164.9 224.454 209.6 242.854 233C235.854 249.2 210.754 302.4 194.154 352.3V391.7C180.254 450.8 159.254 557.9 150.754 604.5L271.654 656L294.054 597.9C309.254 575.2 339.754 537 359.154 519.7C383.554 509.4 414.954 490.3 425.754 460.5C439.754 422.1 432.054 376.2 415.254 340.6C446.254 370.8 465.254 417.6 465.254 468.4C465.254 536.5 427.154 614.3 360.554 692.1H645.254V692.2Z" fill="#ECB390" stroke="#4C0027" stroke-width="29.16" stroke-miterlimit="10" stroke-linecap="round" />
    <path d="M179.754 574.8C199.154 563.9 213.654 578.6 202.154 600L179.754 574.8Z" fill="#4C0027" stroke="#4C0027" stroke-width="9.169" stroke-miterlimit="10" />
    <path d="M231.454 357.9C224.554 367.4 230.854 387.2 237.454 392.4C241.954 391.8 251.554 388 256.054 384.4L277.554 359.5L273.054 355.8C264.254 355.7 242.354 355.7 231.454 357.9V357.9Z" fill="#4C0027" stroke="#4C0027" stroke-width="0.952" stroke-miterlimit="10" />
    <path d="M320.054 186C307.554 168.1 310.154 136.3 327.054 110.9C355.254 125.2 366.754 158.3 362.154 181.5" fill="#ECB390" />
    <path d="M320.054 186C307.554 168.1 310.154 136.3 327.054 110.9C355.254 125.2 366.754 158.3 362.154 181.5" stroke="#4C0027" stroke-width="23.76" stroke-miterlimit="10" stroke-linecap="square" />
  </g>
  <g id="wp" fill="none" transform="scale(0.05 0.05)">
    <path d="M497.9 240C497.9 293.6 453.9 333.9 399.8 333.9C345.7 333.9 301.7 293.6 301.7 240C301.7 186.4 345.7 146.1 399.8 146.1C454 146.2 497.9 186.5 497.9 240V240ZM526.4 337.6V392.9C496.2 395.9 483.6 405 483.6 420.9C483.6 477.8 519.6 544.3 592.7 608.8V669.7C592.7 687.1 505.2 700.5 400 700.5C294.8 700.5 207.3 687.1 207.3 669.7L207.2 609.1C280.3 544.6 315.3 478 315.3 421.1C315.3 405.2 301.7 395.9 271.5 392.9V337.6H526.4Z" fill="#ECB390" stroke="#4C0027" stroke-width="30.24" stroke-miterlimit="10" />
    <path d="M207.2 608C207.2 625.4 294.7 638.3 399.9 638.3C505.1 638.3 592.5 625.4 592.5 608.1" stroke="#4C0027" stroke-width="16.2" stroke-miterlimit="10" />
    <path d="M272.6 386.7H525.3" stroke="#4C0027" stroke-width="14.04" stroke-miterlimit="10" />
  </g>
  <g id="wq" fill="none" transform="scale(0.05 0.05)">
    <path d="M401.1 704.4C339.1 704.4 280.6 698.9 236.3 689C186.7 677.9 162.2 663.2 161.3 644.3L151.1 590.3V589.4C151.1 584 152.7 576.2 159.7 568C151.7 521.5 133.8 442.8 115.1 372.5C96.6998 365.6 84.2998 348 84.2998 327.9C84.2998 301.5 105.7 280.2 132 280.2C158.3 280.2 179.7 301.6 179.7 327.9C179.7 339 176 349.4 169.1 357.8C190.2 424.9 216 494.5 234 533L239.3 531.7C238.8 476.4 230.2 367.4 218.7 270.1C200.1 262.1 187.7 243.5 187.7 223C187.7 194.7 210.7 171.7 239 171.7C267.3 171.7 290.3 194.7 290.3 223C290.3 236.8 284.9 249.7 275.3 259.3C293.2 352.8 323 470.9 340.6 518.2L346 517.9C354.6 451.9 365.4 333.4 370.6 223.4C355.7 213.4 346.8 196.8 346.8 178.8C346.8 149 371 124.8 400.8 124.8C430.6 124.8 454.8 149 454.8 178.8C454.8 196.8 445.9 213.4 431.3 223.4C436.5 333.5 447.3 451.9 455.9 517.9L461.3 518.2C478.9 470.9 508.7 352.9 526.6 259.3C517 249.7 511.6 236.8 511.6 223C511.6 194.7 534.6 171.7 562.9 171.7C591.2 171.7 614.2 194.7 614.2 223C614.2 243.6 601.8 262.1 583.2 270.1C571.6 367.4 563 476.4 562.6 531.7L567.9 533C585.9 494.6 611.7 424.9 632.8 357.8C625.9 349.4 622.2 338.9 622.2 327.9C622.2 301.5 643.6 280.2 669.9 280.2C696.2 280.2 717.6 301.6 717.6 327.9C717.6 348 705.2 365.6 686.8 372.5C668.1 442.8 650.3 521.4 642.2 568C647.9 574.7 650.8 581.8 650.8 589.3V590.2L640.5 644.5C639.3 663.4 614.8 678 565.5 689.1C521.7 698.9 463.2 704.4 401.1 704.4V704.4ZM211.7 613.7C213.1 616.7 225.4 626.1 266.3 634C302.8 641 350.5 645 400.9 645C451.2 645 499.1 641.1 535.5 634C576.4 626 588.9 616.7 590.1 613.7C588.7 610.7 576.4 601.3 535.5 593.4C499 586.4 451.3 582.4 400.9 582.4C350.6 582.4 302.7 586.3 266.3 593.4C225.5 601.3 213.2 610.7 211.7 613.7V613.7Z" fill="#ECB390" stroke="#4C0027" stroke-width="20.52" stroke-miterlimit="10" />
    <path d="M592.9 607.6C551.1 621.4 480.6 630.8 401.1 630.8C320.7 630.8 252.2 621.3 210.5 607.3C197 610.8 171 628.4 171 643C171 671.5 274 694.6 401 694.6C528 694.6 631 671.5 631 643C631.1 628.8 606.6 611.3 592.9 607.6Z" fill="#ECB390" stroke="#4C0027" stroke-width="16.2" stroke-miterlimit="10" />
    <path d="M401.1 591.4C528.2 591.4 631.2 614.5 631.2 643L641.4 582.7C641.4 576.4 638.2 570.4 632 564.6C639.5 519.7 658.1 442.7 679 364.7C695.6 360.7 708.1 345.7 708.1 327.8C708.1 306.8 691.1 289.8 670.1 289.8C649 289.8 632.1 306.8 632.1 327.8C632.1 338.6 636.6 348.4 643.9 355.3C623.1 422.3 593.8 496.7 573.5 537.7L553.1 532.8C552.8 478.6 562.3 365 574.6 262.9C592 257.9 604.8 241.9 604.8 222.9C604.8 199.9 586.2 181.3 563.2 181.3C540.2 181.3 521.5 200 521.5 223C521.5 236.3 527.8 248.1 537.4 255.7C519.4 351.5 486.2 477.1 468 521.8L447.6 520.5C438.5 454 426.8 331.9 421.6 217.9C435.7 210.4 445.4 195.8 445.4 178.7C445.4 154.3 425.5 134.4 401.1 134.4C376.7 134.4 356.8 154.3 356.8 178.7C356.8 195.8 366.4 210.6 380.6 217.9C375.5 331.9 363.8 454 354.6 520.5L334.2 521.8C316.1 477.1 282.8 351.5 264.8 255.7C274.5 248.1 280.7 236.3 280.7 223C280.7 200 262.1 181.4 239.1 181.4C216.1 181.4 197.3 200 197.3 223C197.3 242 210 258 227.5 263C239.8 365 249.3 478.5 249 532.8L228.6 537.7C208.3 496.6 178.9 422.2 158.2 355.3C165.4 348.4 170 338.7 170 327.8C170 306.8 153 289.8 132 289.8C110.9 289.8 94 306.8 94 327.8C94 345.7 106.4 360.7 123.1 364.7C143.9 442.7 162.6 519.7 170.1 564.6C164.1 570.3 160.7 576.4 160.7 582.7L170.9 643C170.9 614.5 274 591.4 401.1 591.4V591.4Z" fill="#ECB390" stroke="#4C0027" stroke-width="17.28" stroke-miterlimit="10" />
    <path d="M401.1 138.8C415.404 138.8 427 127.204 427 112.9C427 98.5958 415.404 87 401.1 87C386.796 87 375.2 98.5958 375.2 112.9C375.2 127.204 386.796 138.8 401.1 138.8Z" fill="#4C0027" />
    <path d="M226.1 187.8C238.803 187.8 249.1 177.503 249.1 164.8C249.1 152.097 238.803 141.8 226.1 141.8C213.398 141.8 203.1 152.097 203.1 164.8C203.1 177.503 213.398 187.8 226.1 187.8Z" fill="#4C0027" />
    <path d="M114.9 296.2C127.271 296.2 137.3 286.171 137.3 273.8C137.3 261.429 127.271 251.4 114.9 251.4C102.529 251.4 92.5 261.429 92.5 273.8C92.5 286.171 102.529 296.2 114.9 296.2Z" fill="#4C0027" />
    <path d="M576 187.8C588.703 187.8 599 177.503 599 164.8C599 152.097 588.703 141.8 576 141.8C563.297 141.8 553 152.097 553 164.8C553 177.503 563.297 187.8 576 187.8Z" fill="#4C0027" />
    <path d="M688.4 296.2C700.771 296.2 710.8 286.171 710.8 273.8C710.8 261.429 700.771 251.4 688.4 251.4C676.029 251.4 666 261.429 666 273.8C666 286.171 676.029 296.2 688.4 296.2Z" fill="#4C0027" />
  </g>
  <g id="wr" fill="none" transform="scale(0.05 0.05)">
    <path d="M400.4 708.3C343.3 708.3 289.6 702.5 249.2 691.8C203.7 679.8 180.7 663.4 180.7 643.2V582C180.7 553.6 224.8 535.8 255.4 526.7L263.5 354.3C260.3 351.7 257.9 349 256.2 346.2L256 345.9L231.3 293.1C212 283.6 212 274.1 212 270.9V145.3H286.5V196.1H329.7V145.8L466.9 145.9V196.1H510V145.3H585.6V270.7C585.6 278.5 581.4 285.2 572.6 290.6L548.6 346L548.2 346.8C546.1 349.9 543.2 352.8 539.7 355.4L547.3 526.3C568.4 532.3 586.1 539.8 598.8 547.9C615.3 558.4 623.6 569.8 623.6 582C623.6 582.8 623.6 583.6 623.5 584.5L623.4 643.1C623.4 663.3 600 679.7 553.8 691.7C512.9 702.4 458.3 708.3 400.4 708.3V708.3Z" fill="#ECB390" />
    <path d="M576 155V270.7C576 275.2 572.8 279.7 565.1 283.8L540.2 341.5C538 344.7 534.6 347.7 529.8 350.5L538 534C585.2 546.5 614 564.8 614 582.2C614 582.8 614 583.5 613.9 584.1L613.8 643.4C613.8 674 518.8 698.8 400.5 698.8C283.9 698.8 190.5 674.1 190.5 643.4V582.2C190.5 565 218.7 546.9 264.9 534.4L273.5 349.7C269.4 347.1 266.3 344.4 264.6 341.6L238.6 285.9C228.2 281.4 221.8 276.3 221.8 270.9V155H277V205.8H339.6V155.5L457.3 155.6V205.8H520V155H576ZM595.5 135.6H500.4V186.3H476.6V136.1H457.2L339.7 136H320V186.3H296.2V135.6H202.3V270.7C202.3 286.1 214.8 295.3 223.9 300.2L247 349.6L247.3 350.4L247.7 351.2C249.2 353.8 251.2 356.3 253.5 358.7L245.9 519.5C227.2 525.4 211.7 532.4 199.7 540C191.4 545.3 184.8 551.1 180.2 557.1C174 565 170.9 573.3 170.9 582V643.3C170.9 661.6 184.8 674.1 196.4 681.3C208.6 689 225.5 695.7 246.6 701.3C287.7 712.2 342.3 718.1 400.3 718.1C459.1 718.1 514.3 712.2 556.1 701.3C577.5 695.7 594.7 689 607 681.4C618.9 674.1 632.9 661.5 632.9 643.3L633 585.1C633.1 584 633.1 583 633.1 582.1C633.1 573.4 630 564.8 623.7 556.9C618.9 550.9 612.3 545.1 603.8 539.7C591.5 531.9 575.6 525 556.5 519.1L549.5 360C552.2 357.6 554.5 355 556.3 352.2L557.3 350.8L557.9 349.2L580.4 297.1C592.7 288.4 595.3 278.2 595.3 270.7V135.6H595.5Z" fill="#4C0027" />
    <path d="M191 581.6V643.2C191 673.8 284.1 698.6 400.6 698.6C518.9 698.6 613.8 673.8 613.8 643.2L613.5 581.9" fill="#ECB390" />
    <path d="M191 581.6V643.2C191 673.8 284.1 698.6 400.6 698.6C518.9 698.6 613.8 673.8 613.8 643.2L613.5 581.9" stroke="#4C0027" stroke-width="18.36" stroke-miterlimit="10" stroke-linecap="round" />
    <path d="M613.9 582C613.9 612.6 519.4 637.4 402.8 637.4C286.2 637.4 191.7 612.6 191.7 582C191.7 551.4 279.2 518 402.8 518C524.4 517.9 613.9 551.3 613.9 582Z" fill="#ECB390" stroke="#4C0027" stroke-width="21.6" stroke-miterlimit="10" />
    <path d="M275.8 260.9L265.3 541.5C265.3 561.2 327.4 575.6 402.1 575.6C476.9 575.6 538.2 561.2 538.2 541.7L523.3 260.9H275.8Z" fill="#ECB390" stroke="#4C0027" stroke-width="15.12" stroke-miterlimit="10" />
    <path d="M231.3 268.1L265.1 341.2C274.6 357.7 326.7 369.7 402.7 369.7C478.7 369.7 529.1 358 540.3 341.2L573.1 268.1" fill="#ECB390" />
    <path d="M231.3 268.1L265.1 341.2C274.6 357.7 326.7 369.7 402.7 369.7C478.7 369.7 529.1 358 540.3 341.2L573.1 268.1" stroke="#4C0027" stroke-width="15.12" stroke-miterlimit="10" />
    <path d="M522 154V204.8H458.3V155.7L341.7 155.6V204.8H278V154H222.9V270.7C222.9 290.8 306 307.1 401.4 307.1C496.9 307.1 578.2 290.8 578.2 270.7V154H522Z" fill="#ECB390" stroke="#4C0027" stroke-width="19.44" stroke-miterlimit="10" stroke-linecap="square" />
  </g>
</svg>