<svg xmlns="http://www.w3.org/2000/svg" width="40" height="40" viewbox="0.0 0.0 64.0 64.0">
  <g id="bb" fill="none" transform="scale(0.625 0.625)">
    <path d="M25.487 8.483C26.7237 6.3767 30.2076 6.8218 30.9861 9.0928C31.8534 10.6588 30.3005 11.9109 29.5838 13.1357C30.4471 13.8837 31.3091 14.6337 32.1759 15.3823C33.0387 14.5188 33.9014 13.6534 34.755 12.7776C33.5206 10.7365 33.6968 7.5465 36.5494 7.1486C39.9431 6.52767 40.9606 10.7913 39.324 13.0741C42.366 16.8991 45.1384 21.1465 46.0803 26.0211C47.1442 31.6048 45.7274 37.3641 43.3164 42.4141C43.396 44.9179 43.1977 47.4186 42.7994 49.8909C47.0675 48.2114 52.3177 47.4096 56.3764 50.0294C59.0181 51.8083 58.8825 55.2907 58.5745 58.0873C52.4095 54.7813 45.1625 55.2183 38.4825 56.3213C35.1615 52.7323 28.8105 52.7983 25.4705 56.3343C18.7825 55.1533 11.5825 54.8783 5.35853 58.0313C5.16313 55.2003 5.01043 51.6693 7.75583 49.9403C11.8255 47.4433 17.0095 48.2043 21.2328 49.9233C20.7988 47.4173 20.6118 44.8773 20.6978 42.3363C18.2298 37.9713 16.0668 32.8953 17.2238 27.7893C18.5788 22.2593 22.1908 17.6733 25.7038 13.3323C25.2758 11.7813 24.3848 9.96728 25.4878 8.48328L25.487 8.483Z" fill="#D8B384" stroke="#1F1618" stroke-width="0.089633" stroke-miterlimit="10" />
    <path d="M25.487 8.483C26.7237 6.3767 30.2076 6.8218 30.9861 9.0928C31.8534 10.6588 30.3005 11.9109 29.5838 13.1357C30.4471 13.8837 31.3091 14.6337 32.1759 15.3823C33.0387 14.5188 33.9014 13.6534 34.755 12.7776C33.5206 10.7365 33.6968 7.5465 36.5494 7.1486C39.9431 6.52767 40.9606 10.7913 39.324 13.0741C42.366 16.8991 45.1384 21.1465 46.0803 26.0211C47.1442 31.6048 45.7274 37.3641 43.3164 42.4141C43.396 44.9179 43.1977 47.4186 42.7994 49.8909C47.0675 48.2114 52.3177 47.4096 56.3764 50.0294C59.0181 51.8083 58.8825 55.2907 58.5745 58.0873C52.4095 54.7813 45.1625 55.2183 38.4825 56.3213C35.1615 52.7323 28.8105 52.7983 25.4705 56.3343C18.7825 55.1533 11.5825 54.8783 5.35853 58.0313C5.16313 55.2003 5.01043 51.6693 7.75583 49.9403C11.8256 47.4424 17.0096 48.2038 21.2328 49.923C20.7991 47.4171 20.6117 44.8771 20.6979 42.336C18.2299 37.9706 16.067 32.8949 17.2245 27.789C18.5789 22.2581 22.1905 17.673 25.7044 13.332C25.2756 11.781 24.3852 9.96619 25.4883 8.48289L25.487 8.483Z" fill="#1F1618" />
    <path d="M32.234 17.193C35.1622 15.5949 37.6457 18.6104 39.0149 20.8462C41.8083 25.3531 44.2187 31.2742 41.9755 36.4612C39.2285 34.4872 39.2535 30.7132 38.1215 27.7982C37.1995 23.7242 33.5895 21.0442 32.2335 17.1932L32.234 17.193Z" fill="#D8B384" stroke="#D8B384" stroke-width="0.089633" stroke-miterlimit="10" />
    <path d="M32.234 17.193C35.1622 15.5949 37.6457 18.6104 39.0149 20.8462C41.8083 25.3531 44.2187 31.2742 41.9755 36.4612C39.2285 34.4872 39.2535 30.7132 38.1215 27.7982C37.1995 23.7242 33.5895 21.0442 32.2335 17.1932L32.234 17.193Z" fill="#D8B384" />
    <path d="M22.226 40.17C22.3955 37.4881 25.4796 37.1974 27.5244 36.7799C31.5005 36.3138 35.6798 36.1784 39.5264 37.4578C40.4508 37.8889 42.881 39.0018 41.1751 40.1902C34.8745 39.2415 28.5301 39.2769 22.2261 40.1699L22.226 40.17Z" fill="#D8B384" stroke="#D8B384" stroke-width="0.089633" stroke-miterlimit="10" />
    <path d="M22.226 40.17C22.3955 37.4881 25.4796 37.1974 27.5244 36.7799C31.5005 36.3138 35.6798 36.1784 39.5264 37.4578C40.4508 37.8889 42.881 39.0018 41.1751 40.1902C34.8745 39.2415 28.5301 39.2769 22.2261 40.1699L22.226 40.17Z" fill="#D8B384" />
    <path d="M29.159 41.599C31.1763 41.1222 33.3004 40.9921 35.1836 42.0443C33.3096 42.977 30.5518 43.6721 29.159 41.599Z" fill="#D8B384" stroke="#D8B384" stroke-width="0.089633" stroke-miterlimit="10" />
    <path d="M29.159 41.599C31.1763 41.1222 33.3004 40.9921 35.1836 42.0443C33.3096 42.977 30.5518 43.6721 29.159 41.599Z" fill="#D8B384" />
    <path d="M23.062 49.119C22.7896 46.0642 26.2266 45.6735 28.4574 45.0908C32.5372 44.4831 37.3629 44.4355 40.6754 47.2522C40.6807 47.7714 40.6913 48.8098 40.6966 49.329C34.8889 47.8433 28.9216 48.3633 23.0626 49.1189L23.062 49.119Z" fill="#D8B384" stroke="#D8B384" stroke-width="0.089633" stroke-miterlimit="10" />
    <path d="M23.062 49.119C22.7896 46.0642 26.2266 45.6735 28.4574 45.0908C32.5372 44.4831 37.3629 44.4355 40.6754 47.2522C40.6807 47.7714 40.6913 48.8098 40.6966 49.329C34.8889 47.8433 28.9216 48.3633 23.0626 49.1189L23.062 49.119Z" fill="#D8B384" />
    <path d="M5.48391 55.5525C5.49369 52.1024 6.82698 50.129 9.85998 49.0755C12.0688 48.3083 16.3543 48.4184 19.0916 49.3127L21.1799 49.9949L21.0338 46.2991L20.8878 42.6034L19.5712 39.8915C17.796 36.235 17.1381 33.7387 17.1426 30.6766C17.1489 26.4339 18.8528 22.5874 23.4277 16.4883C24.7368 14.7431 25.7543 13.1322 25.689 12.9085C24.9941 10.5281 24.9569 9.96969 25.4273 8.97836C26.6026 6.5016 29.9298 6.77174 30.9351 9.42554C31.2096 10.1501 30.9874 10.8104 29.8716 12.5857C29.4981 13.18 29.5404 13.2663 30.6983 14.2725C31.3695 14.8558 32.0458 15.3366 32.2011 15.3411C32.3565 15.3456 33.0127 14.8101 33.6593 14.1513C34.7786 13.0108 34.8202 12.9115 34.5293 12.077C34.0803 10.7889 34.1622 9.06711 34.7043 8.39784C35.8356 7.0012 37.5763 6.82446 38.8644 7.97543C39.5503 8.5882 39.7427 9.00397 39.8481 10.1C39.9355 11.0101 39.8433 11.7254 39.5703 12.2534C39.168 13.0318 39.1865 13.0778 40.7605 15.2136C42.6261 17.7451 44.8365 21.898 45.4515 24.0271C46.8903 29.0085 46.3671 34.9317 43.9961 40.5036C43.3343 42.0588 43.1718 42.8264 43.1674 44.419C43.1644 45.5086 43.048 47.1887 42.9087 48.1526C42.7694 49.1165 42.6814 49.9312 42.7133 49.963C42.7451 49.9948 43.488 49.7789 44.3641 49.4831C50.9451 47.2614 57.1642 48.9074 58.3312 53.1797C58.6861 54.479 58.729 57.6542 58.3916 57.6542C58.2602 57.6542 57.3603 57.356 56.3918 56.9914C52.9704 55.7036 50.5643 55.3926 45.4823 55.5811C42.9443 55.6753 40.3796 55.8481 39.783 55.9651C38.8032 56.1573 38.5597 56.0811 37.2649 55.1781C36.4766 54.6282 35.2121 54.0297 34.4551 53.8481C31.688 53.1843 27.5681 54.0449 26.1166 55.59C25.5628 56.1795 25.493 56.1859 23.1747 55.8572C17.6312 55.0712 11.3384 55.5261 7.43608 56.995C6.47274 57.3576 5.63807 57.6542 5.58126 57.6542C5.52444 57.6542 5.48063 56.7085 5.48391 55.5525ZM40.7322 48.318C40.7322 46.8899 40.172 46.3383 37.7944 45.425C34.6129 44.203 27.9769 44.5153 24.7926 46.0369C23.6055 46.6041 22.8339 47.6637 22.8339 48.7266C22.8339 49.2823 22.9181 49.3062 24.2557 49.1287C29.3473 48.4533 36.4826 48.4987 39.3763 49.2249C39.8983 49.3559 40.4169 49.4756 40.5288 49.4909C40.6407 49.5061 40.7322 48.9783 40.7322 48.318ZM34.1519 42.6506C35.3731 42.2074 35.3546 41.8532 34.0881 41.4282C32.9944 41.0613 29.5186 41.1159 29.1293 41.5062C29.0228 41.613 29.278 41.9951 29.6965 42.3553C30.2999 42.8746 30.7489 43.0059 31.866 42.9895C32.6407 42.9782 33.6693 42.8256 34.1519 42.6506ZM31.783 39.8915C34.8407 39.8915 38.3186 39.9525 39.5118 40.0271C41.6237 40.1591 41.6837 40.1459 41.7709 39.5302C41.9682 38.1373 39.7381 37.0217 35.6755 36.481C31.7986 35.9651 25.857 36.5794 23.6413 37.7252C22.8957 38.1108 22.0203 39.3527 22.0203 40.025C22.0203 40.2318 22.6532 40.2563 24.122 40.1062C25.278 39.9881 28.7254 39.8915 31.783 39.8915ZM42.5867 35.2606C42.8371 34.5267 42.9112 33.3132 42.8256 31.3492C42.6875 28.1844 42.0002 25.8607 40.2588 22.6712C37.9629 18.466 36.1053 16.7022 33.9796 16.7092C32.1872 16.7152 31.9204 16.9493 32.4071 18.0894C32.6233 18.5958 33.8339 20.5561 35.0974 22.4456C37.168 25.542 37.4811 26.1843 38.2703 28.9541C38.7519 30.6442 39.3449 32.6093 39.5879 33.3209C40.082 34.7675 41.441 36.5808 41.9148 36.4257C42.0847 36.3701 42.3871 35.8458 42.5867 35.2606Z" fill="#5E454B" stroke="#1F1618" stroke-width="0.987802" />
  </g>
  <g id="bk" fill="none" transform="scale(0.625 0.625)">
    <path d="M24.251 7.212C29.4313 7.2086 34.612 7.2085 39.794 7.21202C39.7947 11.0779 39.7928 14.9437 39.7935 18.81C42.8151 16.8723 46.2768 15.2175 49.9745 15.6395C54.6231 15.8684 58.9755 19.8453 58.911 24.6374C58.8591 31.0961 54.6803 36.7164 49.8518 40.6384C49.5607 45.0498 49.3308 49.4649 49.0804 53.8794C44.9584 57.9454 38.8124 57.9624 33.4104 58.0784C28.3714 58.0204 23.0984 58.2654 18.3584 56.2754C16.9044 55.5404 15.0094 54.5554 14.9334 52.7074C14.5674 48.6864 14.4844 44.6444 14.1864 40.6184C9.27601 36.7914 5.29341 31.0634 5.08951 24.6784C4.96426 19.8287 9.44411 15.8814 14.1005 15.6324C17.7827 15.2441 21.2335 16.8844 24.2505 18.8136C24.2493 14.9465 24.2474 11.0797 24.2502 7.21262L24.251 7.212Z" fill="#D8B384" stroke="#1F1618" stroke-width="0.091563" stroke-miterlimit="10" />
    <path d="M24.247 7.20999C24.2442 11.077 24.2458 14.9545 24.247 18.822C21.2299 16.8928 17.7777 15.2399 14.095 15.6282C9.43861 15.8772 4.95881 19.835 5.08411 24.6848C5.28799 31.0694 9.27621 36.7818 14.1863 40.6078C14.4843 44.6342 14.5725 48.6773 14.9391 52.6988C15.0148 54.5464 16.9075 55.5458 18.361 56.2804C23.101 58.271 28.378 58.0253 33.417 58.0826C38.8188 57.9667 44.967 57.951 49.089 53.8851C49.3394 49.471 49.5507 45.0424 49.8418 40.6311C54.6703 36.7092 58.8693 31.0982 58.9212 24.6391C58.9857 19.847 54.6273 15.8798 49.9787 15.651C46.2806 15.2291 42.826 16.8843 39.8047 18.8219C39.804 14.9558 39.8054 11.0763 39.8047 7.20989C34.6227 7.20639 29.4267 7.20649 24.2467 7.20989L24.247 7.20999ZM31.661 21.787C33.3601 21.6452 35.2253 22.7934 35.2654 24.6158C35.6426 27.3053 31.9596 28.9072 29.9957 27.262C28.297 26.2137 28.3628 23.3781 30.0869 22.3801C30.545 22.0219 31.0946 21.8342 31.661 21.787Z" fill="#1F1618" />
    <path d="M26.188 10.652C26.7947 9.88125 27.4058 9.112 28.0212 8.3441C29.3748 9.4675 30.7016 10.6248 32.0191 11.7946C33.3362 10.6255 34.6645 9.4685 36.0239 8.3446C36.6328 9.11185 37.2427 9.8806 37.8536 10.6508C36.6989 11.7005 35.5404 12.7462 34.386 13.7911C35.5959 14.8955 36.8049 16.0034 37.9998 17.1294C37.5207 17.6798 36.5624 18.7808 36.0833 19.3312C34.7152 18.189 33.3651 17.0259 32.0256 15.8552C30.6766 17.0224 29.3254 18.1849 27.9585 19.3272C27.4797 18.7778 26.522 17.679 26.0432 17.1296C27.2328 16.0031 28.4416 14.8952 29.6576 13.7927C28.4962 12.7475 27.3407 11.7014 26.188 10.6518V10.652Z" fill="#D8B384" stroke="#D8B384" stroke-width="0.091563" stroke-miterlimit="10" />
    <path d="M26.188 10.652C26.7947 9.88125 27.4058 9.112 28.0212 8.3441C29.3748 9.4675 30.7016 10.6248 32.0191 11.7946C33.3362 10.6255 34.6645 9.4685 36.0239 8.3446C36.6328 9.11185 37.2427 9.8806 37.8536 10.6508C36.6989 11.7005 35.5404 12.7462 34.386 13.7911C35.5959 14.8955 36.8049 16.0034 37.9998 17.1294C37.5207 17.6798 36.5624 18.7808 36.0833 19.3312C34.7152 18.189 33.3651 17.0259 32.0256 15.8552C30.6766 17.0224 29.3254 18.1849 27.9585 19.3272C27.4797 18.7778 26.522 17.679 26.0432 17.1296C27.2328 16.0031 28.4416 14.8952 29.6576 13.7927C28.4962 12.7475 27.3407 11.7014 26.188 10.6518V10.652Z" fill="#D8B384" />
    <path d="M11.969 27.425C12.0952 23.7283 16.7128 22.7169 19.5639 23.9215C24.8517 25.6093 27.468 30.9854 29.311 35.7945C31.1336 35.7738 32.9599 35.7564 34.7875 35.723C36.5346 30.8931 39.3506 25.7562 44.4731 23.925C47.3097 22.6916 51.9502 23.7427 52.072 27.4294C51.9211 31.5522 49.3647 35.0843 46.2645 37.6004C47.0306 38.7032 47.5725 39.908 47.5272 41.2866C42.8467 40.2983 38.1964 38.984 33.3802 38.8919C27.6487 38.5869 22.0652 40.0505 16.5262 41.2864C16.4649 39.9064 16.9903 38.6999 17.7987 37.6148C14.6724 35.1092 12.0898 31.5681 11.9687 27.4248L11.969 27.425Z" fill="#D8B384" stroke="#D8B384" stroke-width="0.091563" stroke-miterlimit="10" />
    <path d="M11.969 27.425C12.0952 23.7283 16.7128 22.7169 19.5639 23.9215C24.8517 25.6093 27.468 30.9854 29.311 35.7945C31.1336 35.7738 32.9599 35.7564 34.7875 35.723C36.5346 30.8931 39.3506 25.7562 44.4731 23.925C47.3097 22.6916 51.9502 23.7427 52.072 27.4294C51.9211 31.5522 49.3647 35.0843 46.2645 37.6004C47.0306 38.7032 47.5725 39.908 47.5272 41.2866C42.8467 40.2983 38.1964 38.984 33.3802 38.8919C27.6487 38.5869 22.0652 40.0505 16.5262 41.2864C16.4649 39.9064 16.9903 38.6999 17.7987 37.6148C14.6724 35.1092 12.0898 31.5681 11.9687 27.4248L11.969 27.425Z" fill="#D8B384" />
    <path d="M15.989 29.201C15.7716 27.6233 17.2455 26.9812 18.5619 27.5053C22.4225 28.4694 24.1749 32.4796 25.6507 35.7744C24.1085 36.0298 22.5661 36.2755 21.0238 36.5014C19.2318 34.1653 16.9361 32.0588 15.9889 29.201H15.989Z" fill="#D8B384" stroke="#1F1618" stroke-width="0.091563" stroke-miterlimit="10" />
    <path d="M15.989 29.201C15.7716 27.6233 17.2455 26.9812 18.5619 27.5053C22.4225 28.4693 24.1749 32.4796 25.6507 35.7744C24.1085 36.0297 22.5661 36.2755 21.0238 36.5014C19.2318 34.1653 16.9361 32.0588 15.9889 29.201H15.989Z" fill="#1F1618" />
    <path d="M38.389 35.757C39.9008 32.2707 41.8435 27.7398 46.2 27.3578C47.7578 26.8871 48.4422 28.7754 47.815 29.9051C46.6742 32.4151 44.6775 34.3892 42.9734 36.5136C41.4401 36.2736 39.9149 36.0099 38.3889 35.7571L38.389 35.757Z" fill="#D8B384" stroke="#1F1618" stroke-width="0.091563" stroke-miterlimit="10" />
    <path d="M38.389 35.757C39.9008 32.2707 41.8435 27.7398 46.2 27.3578C47.7578 26.8871 48.4422 28.7754 47.815 29.9051C46.6742 32.4151 44.6775 34.3892 42.9734 36.5136C41.4401 36.2736 39.9149 36.0099 38.3889 35.7571L38.389 35.757Z" fill="#1F1618" />
    <path d="M29.166 42.43C30.8309 41.3344 33.1364 41.3487 34.8331 42.3778C36.3497 45.798 27.8446 45.861 29.166 42.43Z" fill="#D8B384" stroke="#D8B384" stroke-width="0.091563" stroke-miterlimit="10" />
    <path d="M29.166 42.43C30.8309 41.3344 33.1364 41.3487 34.8331 42.3778C36.3497 45.798 27.8446 45.861 29.166 42.43Z" fill="#D8B384" />
    <path d="M16.688 46.62C17.0042 44.2187 19.4687 44.4225 21.2447 44.648C20.1274 46.0938 18.4403 46.5779 16.688 46.62Z" fill="#D8B384" stroke="#D8B384" stroke-width="0.091563" stroke-miterlimit="10" />
    <path d="M16.688 46.62C17.0042 44.2187 19.4687 44.4225 21.2447 44.648C20.1274 46.0938 18.4403 46.5779 16.688 46.62Z" fill="#D8B384" />
    <path d="M42.913 45.581C44.1842 43.7565 47.3583 44.2833 47.1475 46.812C45.7162 46.4597 44.3025 46.0577 42.913 45.581Z" fill="#D8B384" stroke="#D8B384" stroke-width="0.091563" stroke-miterlimit="10" />
    <path d="M42.913 45.581C44.1842 43.7565 47.3583 44.2833 47.1475 46.812C45.7162 46.4597 44.3025 46.0577 42.913 45.581Z" fill="#D8B384" />
    <path d="M17.384 50.302C21.1024 48.1377 25.5968 48.392 29.747 48.0799C35.5196 48.0779 41.613 47.8447 46.977 50.3233C46.5194 50.7147 45.6044 51.4974 45.1468 51.8888C37.4773 50.111 29.3728 49.8022 21.6428 51.3623C20.0486 51.595 17.6095 52.8066 17.3832 50.302H17.384Z" fill="#D8B384" stroke="#D8B384" stroke-width="0.091563" stroke-miterlimit="10" />
    <path d="M17.384 50.302C21.1024 48.1377 25.5968 48.392 29.747 48.0799C35.5196 48.0779 41.613 47.8447 46.977 50.3233C46.5194 50.7147 45.6044 51.4974 45.1468 51.8888C37.4773 50.111 29.3728 49.8022 21.6428 51.3623C20.0486 51.595 17.6095 52.8066 17.3832 50.302H17.384Z" fill="#D8B384" />
    <path d="M24.3178 57.6593C20.3754 57.1041 17.3882 55.9551 15.9508 54.4411C15.0664 53.5094 14.909 52.4173 14.5512 44.7278L14.3599 40.6149L12.8728 39.331C8.42897 35.4945 5.22916 29.3052 5.2115 24.5119C5.19989 21.3607 7.40773 18.2341 10.7465 16.6735C12.4406 15.8816 12.8668 15.7964 15.0855 15.8062C17.8337 15.8184 19.5368 16.3067 22.4864 17.928C23.4336 18.4486 24.2653 18.8746 24.3348 18.8746C24.4042 18.8746 24.461 16.2509 24.461 13.0441V7.21356H32.0542H39.6475V13.0441C39.6475 16.2509 39.7043 18.8746 39.7737 18.8746C39.8432 18.8746 40.6749 18.4486 41.622 17.928C45.0527 16.0423 47.7511 15.4315 50.6242 15.8905C52.9253 16.2581 54.3434 16.9622 56.0083 18.5636C58.3254 20.7923 59.1015 23.1469 58.6255 26.5032C58.0327 30.6826 55.854 34.6091 52.0081 38.4292L49.7113 40.7105L49.3378 47.3032L48.9643 53.8959L48.1703 54.5379C46.8945 55.5694 44.8246 56.5182 42.4949 57.1394C40.592 57.6468 39.4425 57.7284 33.139 57.8037C29.1864 57.8509 25.2169 57.7859 24.3178 57.6593ZM23.2407 51.2465C25.166 50.8586 26.9985 50.7531 31.9186 50.7469C37.3479 50.74 38.6241 50.8235 41.7699 51.3917L45.3839 52.0443L46.3329 51.0954L47.2818 50.1465L45.1451 49.4403C42.0992 48.4336 40.132 48.1527 34.9017 47.9776C27.3903 47.7261 21.0901 48.3698 18.1514 49.689C17.3148 50.0645 17.1613 50.2501 17.3032 50.7144C17.7493 52.1736 18.3644 52.2287 23.2407 51.2465ZM46.5715 44.9828C45.6118 44.1573 44.243 44.1714 43.26 45.017L42.5034 45.6678L44.533 46.261C45.6494 46.5873 46.6847 46.8854 46.8339 46.9235C46.983 46.9616 47.1464 46.6793 47.1968 46.2962C47.2613 45.8065 47.0756 45.4164 46.5715 44.9829V44.9828ZM19.6759 46.0884C20.6781 45.5811 21.478 44.9183 21.478 44.5953C21.478 44.25 18.5456 44.3201 17.8669 44.6816C17.0945 45.093 16.616 45.7321 16.6052 46.3669C16.5977 46.812 16.7367 46.8537 17.7098 46.6981C18.3221 46.6002 19.2068 46.3258 19.6759 46.0884ZM33.8299 44.7849C34.7927 44.3826 35.3218 43.5265 35.1094 42.7144C34.8449 41.7029 32.0125 41.1194 30.3073 41.725C28.9409 42.2103 28.5906 42.7417 29.0182 43.6802C29.6265 45.0151 31.9837 45.5563 33.8299 44.7849ZM20.463 40.5913C29.5647 38.5847 34.0118 38.5554 42.794 40.444C45.1958 40.9605 47.3064 41.3831 47.4842 41.3831C47.9171 41.3831 47.606 39.6188 46.9821 38.5356L46.5136 37.722L48.3416 35.7836C50.715 33.2668 51.8956 30.8681 52.0575 28.2332C52.1596 26.572 52.0936 26.2125 51.5344 25.3831C50.619 24.0252 49.1153 23.3573 46.9638 23.3528C42.5063 23.3436 37.9634 27.4588 35.3711 33.8543L34.6305 35.6815L32.0358 35.6848L29.4412 35.6881L28.5514 33.533C27.4329 30.8239 25.4143 27.7291 23.7878 26.2299C22.3476 24.9024 19.7351 23.5819 18.0484 23.3289C15.3965 22.9313 12.5422 24.4038 11.99 26.4544C11.346 28.846 13.0603 33.1331 15.796 35.9727L17.438 37.677L16.8817 38.9701C16.2809 40.3666 16.1617 41.383 16.5986 41.383C16.7489 41.383 18.4878 41.0267 20.463 40.5912V40.5913ZM33.2673 27.8265C35.9733 26.7977 36.0362 23.0756 33.3655 22.007C31.3211 21.189 29.3617 22.0455 28.7715 24.0152C28.0301 26.49 30.7401 28.7874 33.2673 27.8265ZM30.0994 17.7635L32.0491 16.1101L33.9654 17.7635C35.0194 18.6729 35.9866 19.417 36.1147 19.417C36.3839 19.417 38.0203 17.414 38.0203 17.0845C38.0203 16.9632 37.271 16.1854 36.3551 15.356L34.6898 13.8479L36.3689 12.2251L38.0479 10.6023L37.1625 9.45029C36.6756 8.8167 36.1507 8.30043 35.9962 8.30302C35.8417 8.30561 34.8809 9.04096 33.8611 9.93713L32.007 11.5665L30.1638 9.93242C29.1501 9.03366 28.2048 8.29831 28.0633 8.29831C27.7886 8.29831 26.0881 10.305 26.0881 10.6293C26.0881 10.7356 26.8316 11.4954 27.7403 12.3178L29.3925 13.8129L27.5989 15.4624L25.8054 17.1119L26.7828 18.2644C27.3204 18.8983 27.8479 19.417 27.9549 19.417C28.062 19.417 29.027 18.6729 30.0994 17.7635Z" fill="#5E454B" stroke="#1F1618" stroke-width="0.987802" />
    <path d="M19.159 34.0034C17.3863 31.8078 16.0542 29.5759 16.0542 28.8013C16.0542 28.1425 16.8557 27.5526 17.7507 27.5526C19.9708 27.5526 22.5175 29.8146 24.4248 33.4808L25.5444 35.6327L23.8279 35.9316C21.0618 36.4133 21.1262 36.4399 19.159 34.0034Z" fill="#5E454B" stroke="#1F1618" stroke-width="0.987802" />
    <path d="M40.0038 35.9092L38.5974 35.6523L39.1367 34.394C40.5324 31.1379 42.51 28.7287 44.4534 27.9167C45.6844 27.4023 47.2283 27.3672 47.5318 27.8467C48.2949 29.0523 47.4755 30.8689 44.5823 34.3857C42.9135 36.4143 42.8623 36.4313 40.0038 35.9092Z" fill="#5E454B" stroke="#1F1618" stroke-width="0.987802" />
  </g>
  <g id="bn" fill="none" transform="scale(0.625 0.625)">
    <path d="M11.698 44.852C12.6228 45.7815 14.9326 45.8044 16.078 44.9775C16.9856 43.8599 18.3073 43.2834 18.6619 41.8033C19.2793 39.8515 16.744 38.7196 15.4399 40.1021C13.9498 41.5125 10.6805 43.9544 11.6981 44.852H11.698Z" fill="#D8B384" stroke="#1F1618" stroke-width="1.422" />
    <path d="M22.245 13.071C22.451 11.0922 22.5799 9.10639 22.6762 7.11929C24.6645 10.1209 27.1781 13.3259 31.0524 13.7016C38.8315 14.8747 46.1774 19.3472 50.2254 26.1766C56.0282 35.7079 56.4919 47.5486 53.7231 58.1446C43.4191 58.138 33.1161 58.161 22.8141 58.1426C21.5907 58.1085 19.361 58.2032 19.6685 56.3214C20.4182 52.3481 23.474 49.153 26.9654 47.2972C31.3895 44.6466 32.6063 39.1832 32.6665 34.3852C30.1919 36.6768 26.0606 39.3214 22.3525 39.2438C20.1998 42.7066 19.5796 44.879 15.0097 46.0557C14.3986 45.3762 15.0811 44.5549 15.9487 42.141C14.9343 43.2026 13.4524 44.6062 11.3334 45.475C9.14871 43.554 7.93411 40.8467 9.07081 37.6311C10.009 36.2199 9.63712 35.9153 10.909 34.7234C12.5599 33.1764 14.9132 29.4323 15.3911 26.6229C15.8539 23.4655 17.5754 20.7365 19.4332 18.2196C18.2287 15.4204 17.7118 12.4009 17.7871 9.36089C19.277 10.5906 20.7156 11.8833 22.245 13.0704V13.071Z" fill="#1F1618" />
    <path d="M24.355 12.426C25.142 13.4981 26.3667 14.6019 27.4943 15.3415C27.5442 16.3304 28.0837 18.1035 26.4716 18.0313C23.4953 18.3248 23.9547 14.2171 24.355 12.426Z" fill="#D8B384" />
    <path d="M32.042 16.324C38.3761 16.2943 45.159 22.8555 47.052 25.5184C53.6243 33.4251 53.8436 44.6804 52.3607 54.6134C52.6902 56.4264 50.714 56.1961 49.5628 56.5852C49.677 48.4094 50.4135 39.8652 46.8765 32.2082C43.8255 25.8432 38.2074 20.8912 31.7345 18.1822C31.8115 17.7176 31.9654 16.7884 32.0423 16.3238L32.042 16.324Z" fill="#D8B384" />
    <path d="M10.878 39.372C11.5097 38.3691 12.8567 38.3821 13.8558 38.0013C13.2073 39.3228 12.9023 41.1967 11.339 41.7215C10.8868 41.0808 10.2627 40.1184 10.8779 39.372H10.878Z" fill="#D8B384" />
    <path d="M20.434 26.99C22.2401 25.6277 24.0058 26.4748 25.9355 27.0525C23.8005 28.2476 21.2426 30.3974 19.5319 29.3675C18.839 28.9503 19.4215 27.7537 20.434 26.99Z" fill="#D8B384" />
    <path d="M20.5885 57.669C19.728 57.2955 19.682 57.2095 19.8356 56.2626C20.0974 54.6492 21.5656 51.9641 22.9798 50.5122C23.6983 49.7745 25.155 48.609 26.2169 47.922C27.2788 47.2351 28.592 46.2211 29.1353 45.6687C31.0763 43.6951 32.7201 39.0114 32.7499 35.37L32.7594 34.2111L31.3776 35.3034C28.6987 37.4209 24.9729 39.1051 22.9673 39.1051C22.3452 39.1051 22.0764 39.3613 21.3315 40.6644C20.1246 42.7756 18.5357 44.4441 16.9827 45.2311C14.7632 46.3557 14.4479 46.0801 15.4034 43.8508C16.1595 42.0871 16.0839 41.8532 15.0644 42.8021C13.89 43.8952 11.8416 45.3444 11.4856 45.334C11.1143 45.3231 9.55592 43.2489 9.18393 42.2705C8.6788 40.9419 8.83986 38.5568 9.53561 37.0627C9.88506 36.3123 10.3478 35.5191 10.5639 35.3C13.0478 32.7819 14.769 29.6872 15.6395 26.1742C16.2245 23.8132 17.0512 21.9843 18.5611 19.7101L19.4929 18.3067L18.8356 16.0279C18.1794 13.7531 17.6294 9.81695 17.9678 9.81695C18.0661 9.81695 19.0164 10.5492 20.0795 11.4441C21.1427 12.339 22.1022 13.0712 22.2117 13.0712C22.3212 13.0712 22.4993 11.8234 22.6074 10.2984C22.7965 7.63125 22.8204 7.55112 23.2356 8.19667C24.0416 9.45012 26.6531 12.0399 27.7728 12.6964C28.3861 13.0559 30.0946 13.6046 31.5694 13.9156C36.6034 14.9773 40.1585 16.5385 43.8131 19.2924C47.2487 21.8812 49.583 24.8377 51.6029 29.1585C54.2388 34.7972 55.0739 38.6972 55.0972 45.478C55.1135 50.2238 54.8985 52.3614 54.0132 56.2576L53.5972 58.0881L37.5512 58.0775C24.0617 58.0686 21.3591 58.0035 20.5885 57.669ZM51.7424 56.0858C52.3639 55.8025 52.4464 55.551 52.7336 53.068C53.2057 48.9861 53.1777 41.2611 52.6805 38.3948C51.6104 32.2265 49.5491 27.9293 45.6291 23.6954C41.7427 19.4978 36.3133 16.332 32.9917 16.3269C32.34 16.3259 31.9478 16.4714 31.8392 16.7544C31.4126 17.8662 31.6717 18.1948 33.8823 19.3449C40.4126 22.7423 45.4924 28.373 47.6922 34.6525C49.0202 38.4433 49.3391 40.9967 49.4925 49.0682L49.6382 56.7262L50.3513 56.5605C50.7435 56.4694 51.3695 56.2557 51.7424 56.0858ZM12.2468 41.2068C12.6155 40.8712 13.1705 40.0035 13.4802 39.2787L14.0433 37.9608L13.0284 38.1402C11.8372 38.3509 10.6957 39.1042 10.5658 39.7654C10.4572 40.3181 11.0326 41.817 11.3534 41.817C11.4761 41.817 11.8782 41.5424 12.2468 41.2068ZM23.539 28.61C26.2431 27.166 26.3165 27.0227 24.6112 26.5163C23.8182 26.2808 22.8559 26.0886 22.4728 26.0892C21.7155 26.0903 20.0886 26.9775 19.5524 27.6818C19.0044 28.4017 19.1295 29.3323 19.8102 29.5984C20.6522 29.9276 21.485 29.7069 23.539 28.61ZM27.2814 17.8983C27.4603 17.7193 27.6068 17.0908 27.6068 16.5016C27.6068 15.5413 27.4366 15.2708 25.9656 13.8926C25.0629 13.0469 24.2825 12.4246 24.2313 12.5097C24.1116 12.7084 23.9977 14.8406 24.0449 15.9988C24.1121 17.6458 26.2683 18.9114 27.2814 17.8983Z" fill="#5E454B" stroke="#1F1618" stroke-width="0.987802" />
  </g>
  <g id="bp" fill="none" transform="scale(0.625 0.625)">
    <path d="M49.246 58.14H14.703C14.607 55.127 15.7777 52.9393 18.2149 51.5768C20.1148 50.5213 22.6863 50.0032 25.9296 50.0224L26.1023 47.5756C24.9125 46.9231 24.3175 45.6277 24.3176 43.6895C24.3176 41.2523 25.3539 38.1242 27.4265 34.3052V30.5342H17.0345C16.881 29.402 17.1784 28.1162 17.9269 26.6769C19.82 22.5654 24.7654 22.4943 27.8005 19.9409C27.3974 19.3268 27.148 18.9142 27.052 18.7031C26.8026 18.185 26.6682 17.734 26.649 17.3501C26.6106 15.93 27.1288 14.7306 28.2035 13.7518C29.2782 12.7539 30.5352 12.255 31.9746 12.2549C33.3947 12.2549 34.6421 12.7539 35.7168 13.7518C36.8106 14.7306 37.3383 15.93 37.2999 17.3501C37.2615 18.6359 36.8777 19.4995 36.1485 19.9409C36.3404 20.7277 37.5207 21.409 39.6893 21.9847C44.5637 23.2897 47.0008 25.8421 47.0009 29.6418C47.0009 30.0256 46.9722 30.3231 46.9146 30.5342H36.5225V34.3052C38.6143 38.1242 39.6602 41.2523 39.6603 43.6895C39.6602 45.6278 39.0557 46.9231 37.8467 47.5756L38.0195 50.0224C42.4333 49.984 45.5902 50.9531 47.4901 52.9298C48.6991 54.1964 49.3036 55.7028 49.3036 57.4492C49.3035 57.737 49.2844 57.9673 49.246 58.14Z" fill="#1F1618" />
    <path d="M14.9695 56.8939C14.9695 56.324 15.2882 55.2229 15.6816 54.4333C16.9051 51.9782 19.5321 50.6614 24.122 50.2025L26.0881 50.006V48.7108C26.0881 47.8363 25.9423 47.2947 25.6393 47.0434C23.8547 45.5633 24.1421 41.5966 26.3814 36.8031C27.3153 34.804 27.4441 34.2863 27.4441 32.5319V30.5356H22.2915H17.139L17.1392 29.6542C17.1395 28.3638 18.5245 25.6514 19.7182 24.6033C20.2885 24.1025 22.1651 23.0303 23.8884 22.2206C25.6117 21.4109 27.2302 20.5597 27.485 20.3291C27.9212 19.9343 27.9178 19.8596 27.426 19.0532C26.7391 17.9266 26.7429 16.0196 27.4345 14.8854C28.6058 12.9644 31.4065 11.9313 33.5369 12.6343C36.3293 13.5559 38.0184 16.7796 36.8067 18.8746C36.0321 20.2136 36.0231 20.3081 36.6233 20.7941C36.9488 21.0577 38.3556 21.6533 39.7496 22.1177C42.8061 23.1359 44.5053 24.1673 45.5873 25.661C46.3973 26.7792 47.1471 29.4105 46.8651 30.1454C46.7421 30.466 45.7944 30.5356 41.5543 30.5356H36.3932V32.4407C36.3932 34.0655 36.5283 34.614 37.3111 36.1695C39.3297 40.1806 40.0511 44.5106 38.9758 46.1622C38.6965 46.5913 38.2979 47.0688 38.0901 47.2234C37.8393 47.41 37.7413 47.9113 37.7985 48.7149L37.8848 49.9254L40.3461 50.2506C43.7721 50.7032 45.7074 51.4849 47.2699 53.0475C48.5441 54.3216 49.1343 55.6276 49.1375 57.1797L49.139 57.9254H32.0542H14.9695V56.8939Z" fill="#5E454B" stroke="#1F1618" stroke-width="0.987802" />
  </g>
  <g id="bq" fill="none" transform="scale(0.625 0.625)">
    <path d="M22.322 11.775C22.1585 8.5871 23.4627 8.1627 25.5564 10.6291C27.5274 12.5086 25.7863 13.1783 26.9996 15.3313C28.4672 18.5512 30.0652 21.7101 31.5595 24.9181C33.1782 21.6066 34.9442 18.3674 36.5133 15.0324C37.5911 12.7862 37.2915 11.4559 39.6403 9.8333C41.9131 8.0727 40.5771 7.0744 40.4254 9.96542C40.6847 12.0352 41.0016 12.9317 41.3164 15.1486C42.6437 20.4138 43.8408 25.7106 45.1162 30.9886C47.5968 29.0761 50.0808 27.1679 52.5456 25.2348C52.8814 23.715 54.0905 25.1718 55.6671 24.2626C57.8341 22.648 55.8381 21.7309 55.3406 24.3806C55.1578 26.2337 57.1088 26.3776 55.7208 27.1185C53.9306 31.3216 51.7598 35.3599 50.0957 39.6145C49.1846 44.4241 49.07 49.3559 48.4648 54.2135C42.0208 58.2075 34.1218 58.4875 26.7758 57.9355C22.7598 57.6615 18.7418 56.6125 15.4128 54.2765C14.7358 49.4635 14.4318 44.5925 13.5478 39.8145C11.9448 35.5155 9.85211 31.4145 8.12461 27.1635C6.39351 26.4575 7.29851 24.5685 7.69741 22.3165C7.95902 19.0968 7.58739 20.0445 8.69686 23.0477C8.73556 23.8389 11.0253 24.5917 11.0641 25.3829C13.3684 27.2657 15.6865 29.1314 18.003 30.9995C20.1525 23.4366 21.4016 17.9335 22.323 11.7745L22.322 11.775Z" fill="#1F1618" />
    <path d="M20.903 37.561C28.9768 35.9388 37.725 35.7424 45.525 38.6805C47.0682 39.0069 47.0613 40.7686 47.5933 41.9344C42.829 41.6647 38.1422 40.5305 33.3503 40.5983C27.5812 40.3306 21.8703 41.2186 16.1793 42.0017C14.7409 38.8534 18.7781 38.2379 20.9036 37.5611L20.903 37.561Z" fill="#D8B384" stroke="#D8B384" stroke-width="0.092496" stroke-miterlimit="10" />
    <path d="M20.903 37.561C28.9768 35.9388 37.725 35.7424 45.525 38.6805C47.0682 39.0069 47.0613 40.7686 47.5933 41.9344C42.829 41.6647 38.1422 40.5305 33.3503 40.5983C27.5812 40.3306 21.8703 41.2186 16.1793 42.0017C14.7409 38.8534 18.7781 38.2379 20.9036 37.5611L20.903 37.561Z" fill="#D8B384" />
    <path d="M29.14 42.916C31.0388 42.1379 34.0149 41.9804 34.911 44.2725C34.0694 47.5682 26.3158 46.2976 29.14 42.916Z" fill="#D8B384" stroke="#D8B384" stroke-width="0.092496" stroke-miterlimit="10" />
    <path d="M29.14 42.916C31.0388 42.1379 34.0149 41.9804 34.911 44.2725C34.0694 47.5682 26.3158 46.2976 29.14 42.916Z" fill="#D8B384" />
    <path d="M16.478 46.118C17.8963 45.1549 19.4934 45.2844 21.0037 45.9801C19.6879 46.5308 16.5427 49.0028 16.478 46.118Z" fill="#D8B384" stroke="#D8B384" stroke-width="0.092496" stroke-miterlimit="10" />
    <path d="M16.478 46.118C17.8963 45.1549 19.4934 45.2844 21.0037 45.9801C19.6879 46.5308 16.5427 49.0028 16.478 46.118Z" fill="#D8B384" />
    <path d="M42.378 46.011C44.2777 44.818 46.186 45.5341 47.4791 47.2081C45.6312 47.6786 43.8889 47.0666 42.378 46.011Z" fill="#D8B384" stroke="#D8B384" stroke-width="0.092496" stroke-miterlimit="10" />
    <path d="M42.378 46.011C44.2777 44.818 46.186 45.5341 47.4791 47.2081C45.6312 47.6786 43.8889 47.0666 42.378 46.011Z" fill="#D8B384" />
    <path d="M20.509 49.256C26.7199 47.544 33.337 47.7507 39.678 48.5491C42.1095 48.9392 45.9179 49.7076 45.1006 53.0461C36.4072 49.9664 26.6986 49.9384 18.0146 53.0657C17.5974 51.1922 18.6835 49.6428 20.5089 49.256H20.509Z" fill="#D8B384" stroke="#D8B384" stroke-width="0.092496" stroke-miterlimit="10" />
    <path d="M20.509 49.256C26.7199 47.544 33.337 47.7507 39.678 48.5491C42.1095 48.9392 45.9179 49.7076 45.1006 53.0461C36.4072 49.9664 26.6986 49.9384 18.0146 53.0657C17.5974 51.1922 18.6835 49.6428 20.5089 49.256H20.509Z" fill="#D8B384" />
    <path fill-rule="evenodd" clip-rule="evenodd" d="M11.6207 23.8886C11.6207 24.786 11.2443 25.6468 10.574 26.2821C9.9037 26.9175 8.99425 27.2756 8.0451 27.2779C7.09595 27.2802 6.18458 26.9265 5.51084 26.2944C4.8371 25.6623 4.45601 24.8034 4.45113 23.906C4.44625 23.0087 4.81798 22.1461 5.4848 21.5075C6.15163 20.8689 7.05911 20.5064 8.00824 20.4994C8.95736 20.4925 9.87065 20.8417 10.5478 21.4706C11.225 22.0994 11.6107 22.9564 11.6205 23.8538" fill="#1F1618" />
    <path fill-rule="evenodd" clip-rule="evenodd" d="M59.549 24.0576C59.549 24.9548 59.1727 25.8154 58.5026 26.4508C57.8326 27.0861 56.9234 27.4443 55.9744 27.4469C55.0255 27.4494 54.1141 27.0961 53.4402 26.4644C52.7663 25.8327 52.3849 24.9742 52.3794 24.077C52.374 23.1798 52.7451 22.3172 53.4113 21.6782C54.0775 21.0393 54.9845 20.6761 55.9334 20.6684C56.8823 20.6607 57.7958 21.0091 58.4735 21.6371C59.1512 22.2652 59.5379 23.1216 59.5488 24.0188" fill="#1F1618" />
    <path fill-rule="evenodd" clip-rule="evenodd" d="M27.7399 10.6647C27.7399 11.6837 27.3149 12.6609 26.5584 13.382C25.8019 14.103 24.7756 14.5088 23.7049 14.5104C22.6342 14.5119 21.6066 14.109 20.8478 13.3901C20.089 12.6712 19.661 11.6952 19.6578 10.6763C19.6546 9.65736 20.0764 8.67888 20.8307 7.95569C21.5849 7.2325 22.6099 6.82374 23.6806 6.81915C24.7513 6.81456 25.7801 7.21452 26.5412 7.93121C27.3023 8.6479 27.7334 9.62273 27.7398 10.6416" fill="#1F1618" />
    <path fill-rule="evenodd" clip-rule="evenodd" d="M43.7379 9.69575C43.7379 10.7141 43.3135 11.6908 42.5578 12.4117C41.802 13.1327 40.7767 13.5389 39.7066 13.5414C38.6366 13.5439 37.6092 13.1423 36.8498 12.4249C36.0904 11.7075 35.661 10.7327 35.6558 9.71444C35.6506 8.69614 36.07 7.71746 36.8221 6.99305C37.5741 6.26864 38.5974 5.85766 39.6674 5.85025C40.7374 5.84283 41.7669 6.2396 42.5299 6.95351C43.293 7.66742 43.7273 8.64019 43.7377 9.65845" fill="#1F1618" />
    <path d="M25.1314 57.6429C22.7783 57.3352 20.2635 56.6401 18.375 55.7755C15.4182 54.4218 15.5802 54.7624 14.8196 48.2983C13.8768 40.2863 13.7786 39.8634 11.8013 35.2999C10.8274 33.0524 9.65304 30.3269 9.19147 29.2433C8.42592 27.446 8.26395 27.2492 7.34666 27.0022C5.97712 26.6334 4.66441 25.111 4.66441 23.8915C4.66441 21.8768 7.36063 20.0965 9.39504 20.7679C10.8919 21.2619 11.3049 21.9461 11.3352 23.9817L11.3618 25.778L14.6623 28.468C16.4776 29.9475 18.0193 31.1016 18.0883 31.0326C18.331 30.7899 21.159 19.2495 21.6272 16.5911L22.101 13.9008L21.4505 13.3746C19.7294 11.9824 19.3887 10.2451 20.5629 8.84959C22.1525 6.96052 25.2095 6.31025 26.4884 7.58916C27.7916 8.89239 27.982 11.6652 26.8761 13.2368C26.3671 13.9602 26.3672 13.9926 26.8791 15.2707C27.1652 15.985 28.3379 18.522 29.485 20.9085L31.5706 25.2475L34.1027 20.2305C35.4953 17.4712 36.8399 14.6169 37.0907 13.8876C37.511 12.6654 37.5122 12.5424 37.1056 12.3148C36.4416 11.9432 35.8509 10.6181 35.8509 9.5002C35.8509 8.71087 36.0627 8.29384 36.8777 7.4789C39.2689 5.0877 42.6488 5.61609 43.4261 8.5026C43.9466 10.4357 43.2918 12.2814 41.8144 13.0454C41.3684 13.276 41.0034 13.662 41.0034 13.9031C41.0034 14.5345 44.8555 30.6309 45.0659 30.8786C45.1628 30.9927 46.8816 29.8085 48.8854 28.2471C52.4494 25.47 52.5294 25.3846 52.5538 24.3286C52.6342 20.8531 57.5096 19.4457 59.0629 22.4495C60.1607 24.5723 58.7319 27.2814 56.5146 27.2814H55.4919L54.0326 30.4678C49.4869 40.3936 49.7689 39.4029 48.885 48.5543C48.2833 54.7841 48.5072 54.3621 45.0712 55.7429C42.7087 56.6923 40.5502 57.2632 37.8848 57.6437C35.6885 57.9572 27.5311 57.9567 25.1314 57.6429ZM24.5966 51.4944C26.3329 51.1662 28.4069 51.0366 31.7831 51.0453C36.7027 51.058 39.5341 51.4656 43.5797 52.7439L45.2068 53.2579L45.2937 52.2921C45.4639 50.399 44.032 49.2826 40.461 48.5244C37.1182 47.8147 26.154 47.8109 22.8339 48.5182C21.5661 48.7883 20.1017 49.2155 19.5797 49.4674C18.4733 50.0013 17.5421 51.6389 17.7879 52.6182L17.9484 53.2577L20.0522 52.6068C21.2092 52.2488 23.2542 51.7483 24.5966 51.4945V51.4944ZM19.7093 46.8859C20.5329 46.4819 21.2068 46.0636 21.2068 45.9562C21.2068 45.8488 20.5633 45.6169 19.7768 45.4409C18.5792 45.1729 18.1827 45.1895 17.3362 45.5432C16.2906 45.9801 16.0222 46.6662 16.6509 47.2949C17.1613 47.8054 18.0867 47.6816 19.7093 46.8859ZM47.2407 47.3371C47.5812 47.107 47.4993 46.935 46.7385 46.2815C45.6544 45.3504 44.4022 45.063 43.2221 45.4743C42.1307 45.8548 42.1345 46.1342 43.2389 46.7053C44.9583 47.5944 46.4998 47.8378 47.2407 47.3371ZM34.4212 45.3766C35.0355 44.7624 35.1072 44.5402 34.8887 43.9289C34.7467 43.5317 34.2053 42.9795 33.6856 42.7017C31.0862 41.3123 27.3369 43.056 28.6418 45.0475C29.2806 46.0226 30.0172 46.2715 31.9936 46.1806C33.4189 46.1149 33.8136 45.9842 34.4212 45.3766ZM20.9356 41.4916C22.6509 41.2555 26.739 40.9985 30.0203 40.9205C35.7782 40.7835 39.0063 41.004 46.7661 42.0641C47.3254 42.1405 47.7831 42.1451 47.7831 42.0744C47.7831 42.0036 47.5326 41.2764 47.2265 40.4582C46.6972 39.0435 46.5948 38.9426 45.1342 38.3961C39.4307 36.2622 31.0575 35.6829 23.6475 36.9097C17.9819 37.8476 15.7831 38.9408 15.7831 40.8196C15.7831 42.0796 15.9373 42.2392 16.984 42.0619C17.4421 41.9843 19.2203 41.7277 20.9356 41.4916Z" fill="#5E454B" stroke="#1F1618" stroke-width="0.987802" />
  </g>
  <g id="br" fill="none" transform="scale(0.625 0.625)">
    <path d="M14.684 10.694C16.9814 10.6935 19.2792 10.6935 21.5777 10.6939C21.5767 12.4173 21.5767 14.1406 21.5769 15.8642C23.5873 15.8645 25.5983 15.8645 27.6102 15.8642C27.6092 14.1406 27.6092 12.4172 27.6093 10.6937C30.4813 10.6939 33.3537 10.6938 36.2268 10.6937C36.2258 12.4172 36.2248 14.1405 36.2259 15.8642C38.2362 15.8645 40.2473 15.8646 42.2594 15.8644C42.2584 14.1408 42.2574 12.4174 42.2584 10.694C44.5556 10.6936 46.8535 10.6936 49.1524 10.6941C49.1514 13.8671 49.1514 17.0399 49.1526 20.213C47.7164 21.6947 46.2789 23.1745 44.8433 24.6558C44.8493 30.9284 44.8315 37.2008 44.8533 43.4738C47.4694 45.8272 48.2329 49.4697 51.0028 51.667C51.0421 53.8067 51.0405 55.9471 51.0421 58.088C38.3471 58.0877 25.6521 58.0871 12.9571 58.0882C12.9566 55.9522 12.9572 53.8167 12.9848 51.6817C15.6977 49.2723 16.7853 45.6045 19.8488 43.4987C19.861 37.2188 19.8508 30.9387 19.8548 24.6597C18.1307 23.178 16.4062 21.6975 14.6837 20.2151C14.6843 17.0415 14.6836 13.8682 14.6841 10.6948L14.684 10.694Z" fill="#D8B384" stroke="#1F1618" stroke-width="0.086171" stroke-miterlimit="10" />
    <path d="M14.684 10.694C16.9814 10.6935 19.2792 10.6935 21.5777 10.6939C21.5767 12.4173 21.5767 14.1406 21.5769 15.8642C23.5873 15.8645 25.5983 15.8645 27.6102 15.8642C27.6092 14.1406 27.6092 12.4172 27.6093 10.6937C30.4813 10.6939 33.3537 10.6938 36.2268 10.6937C36.2258 12.4172 36.2248 14.1405 36.2259 15.8642C38.2362 15.8645 40.2473 15.8646 42.2594 15.8644C42.2584 14.1408 42.2574 12.4174 42.2584 10.694C44.5556 10.6936 46.8535 10.6936 49.1524 10.6941C49.1514 13.8671 49.1514 17.0399 49.1526 20.213C47.7164 21.6947 46.2789 23.1745 44.8433 24.6558C44.8493 30.9284 44.8315 37.2008 44.8533 43.4738C47.4694 45.8272 48.2329 49.4697 51.0028 51.667C51.0421 53.8067 51.0405 55.9471 51.0421 58.088C38.3471 58.0877 25.6521 58.0871 12.9571 58.0882C12.9566 55.9522 12.9572 53.8167 12.9848 51.6817C15.6977 49.2723 16.7853 45.6045 19.8488 43.4987C19.861 37.2188 19.8508 30.9387 19.8548 24.6597C18.1307 23.178 16.4062 21.6975 14.6837 20.2151C14.6843 17.0415 14.6836 13.8682 14.6841 10.6948L14.684 10.694Z" fill="#1F1618" />
    <path d="M21.578 22.757C28.7586 22.757 35.939 22.7569 43.12 22.757C43.1191 24.193 43.1191 25.629 43.1201 27.0655C35.939 27.0656 28.7581 27.0654 21.5771 27.0656C21.5761 25.6291 21.5761 24.193 21.5772 22.757H21.578Z" fill="#D8B384" stroke="#D8B384" stroke-width="0.086171" stroke-miterlimit="10" />
    <path d="M21.578 22.757C28.7586 22.757 35.939 22.7569 43.12 22.757C43.1191 24.193 43.1191 25.629 43.1201 27.0655C35.939 27.0656 28.7581 27.0654 21.5771 27.0656C21.5761 25.6291 21.5761 24.193 21.5772 22.757H21.578Z" fill="#D8B384" />
    <path d="M21.578 42.577C28.7587 42.5767 35.939 42.5769 43.121 42.5769C43.12 43.7253 43.12 44.8743 43.1211 46.0237C35.9399 46.0236 28.7591 46.0237 21.5781 46.0237C21.5772 44.8743 21.5773 43.7254 21.5783 42.577H21.578Z" fill="#D8B384" stroke="#D8B384" stroke-width="0.086171" stroke-miterlimit="10" />
    <path d="M21.578 42.577C28.7587 42.5767 35.939 42.5769 43.121 42.5769C43.12 43.7253 43.12 44.8743 43.1211 46.0237C35.9399 46.0236 28.7591 46.0237 21.5781 46.0237C21.5772 44.8743 21.5773 43.7254 21.5783 42.577H21.578Z" fill="#D8B384" />
    <path d="M13.0712 54.84C13.0712 52.3662 13.1556 51.6845 13.4973 51.4009C13.7316 51.2065 14.9214 49.6475 16.1413 47.9365C17.3612 46.2255 18.6949 44.5772 19.1051 44.2737L19.8509 43.7217L19.8451 34.0778L19.8393 24.4339L17.2772 22.2644L14.7151 20.0949L14.7068 15.4169L14.6985 10.739H18.0883H21.4781V13.3153V15.8915H24.5968H27.7154V13.3153V10.739H31.9188H36.1222V13.3153V15.8915H39.2408H42.3595V13.3153V10.739H45.7493H49.1391V15.4233V20.1076L46.9697 22.2644L44.8002 24.4212V34.0804C44.8002 43.5194 44.813 43.7513 45.3643 44.2502C45.6746 44.531 46.6034 45.8618 47.4284 47.2075C48.2534 48.5532 49.328 50.0814 49.8164 50.6034C50.6852 51.532 50.7085 51.6216 50.8905 54.739L51.0766 57.9254H32.074H13.0713V54.84H13.0712ZM43.1729 44.3661V42.4678H32.3254H21.478V44.3661V46.2644H32.3254H43.1729V44.3661ZM43.1729 24.9763V22.6712H32.3254H21.478V24.9763V27.2814H32.3254H43.1729V24.9763Z" fill="#5E454B" stroke="#1F1618" stroke-width="0.987802" />
  </g>
  <g id="wb" fill="none" transform="scale(0.625 0.625)">
    <path d="M21.47 58.149C21.8063 58.1489 22.4262 58.1489 23.3395 58.1489C24.8156 58.1489 26.2869 58.1489 27.8892 58.149C35.895 58.149 43.7562 58.149 48.3982 58.1492C55.5729 58.1494 58.4322 58.1496 55.1048 58.1499C44.0178 58.1499 32.9308 58.1499 21.8438 58.1499C19.5606 58.1498 18.7289 58.1497 20.9224 58.1497C24.3162 58.1496 28.814 58.1496 31.1854 58.1495C28.6052 58.1495 26.0106 58.1495 23.4179 58.1495C21.826 58.1495 19.8346 58.1496 16.3711 58.1496C14.0521 58.1496 11.4909 58.1496 9.42001 58.1496C7.38241 58.1496 7.25871 58.1495 7.76151 58.1495C8.99421 58.1494 14.0783 58.1493 15.1485 58.1492C15.5524 58.1492 17.2285 58.1492 18.7561 58.1491C18.2822 58.1491 17.8852 58.149 17.8619 58.1489C19.0735 58.149 20.2791 58.149 21.4696 58.149H21.47Z" fill="#F3F0D7" stroke="#2C322C" stroke-width="0.000357" stroke-miterlimit="10" />
    <path d="M21.47 58.149C21.8063 58.1489 22.4262 58.1489 23.3395 58.1489C24.8156 58.1489 26.2869 58.1489 27.8892 58.149C35.895 58.149 43.7562 58.149 48.3982 58.1492C55.5729 58.1494 58.4322 58.1496 55.1048 58.1499C44.0178 58.1499 32.9308 58.1499 21.8438 58.1499C19.5606 58.1498 18.7289 58.1497 20.9224 58.1497C24.3162 58.1496 28.814 58.1496 31.1854 58.1495C28.6052 58.1495 26.0106 58.1495 23.4179 58.1495C21.826 58.1495 19.8346 58.1496 16.3711 58.1496C14.0521 58.1496 11.4909 58.1496 9.42001 58.1496C7.38241 58.1496 7.25871 58.1495 7.76151 58.1495C8.99421 58.1494 14.0783 58.1493 15.1485 58.1492C15.5524 58.1492 17.2285 58.1492 18.7561 58.1491C18.2822 58.1491 17.8852 58.149 17.8619 58.1489C19.0735 58.149 20.2791 58.149 21.4696 58.149H21.47Z" fill="#F3F0D7" />
    <path d="M23.667 58.149C25.309 58.149 26.9176 58.149 28.6375 58.1491C30.0224 58.149 31.4065 58.149 32.7931 58.149C33.1289 58.1491 33.4656 58.1491 33.8032 58.1491H36.7694H37.8256C38.047 58.1491 39.2647 58.1491 39.7443 58.1491C40.0076 58.1491 40.2719 58.1491 40.5373 58.1492C41.6649 58.1492 42.7947 58.1492 43.925 58.1492C44.1238 58.1492 44.3242 58.1492 44.5251 58.1492C45.6932 58.1492 46.8624 58.1492 48.0328 58.1492C47.75 58.1493 47.4684 58.1493 47.188 58.1493C48.4729 58.1493 49.7588 58.1493 51.0461 58.1494C50.5445 58.1494 50.042 58.1494 49.5419 58.1494C50.8888 58.1494 52.2374 58.1495 53.5871 58.1495C52.8838 58.1495 52.1795 58.1495 51.478 58.1496C52.3847 58.1496 53.2931 58.1496 54.2034 58.1496C53.3728 58.1496 52.5427 58.1497 51.7144 58.1497C52.4835 58.1497 53.2547 58.1497 54.027 58.1497C53.5243 58.1498 53.0229 58.1498 52.5213 58.1498C42.2543 58.1498 31.9783 58.1498 21.7063 58.1498C21.4923 58.1498 20.8015 58.1498 21.9755 58.1498C25.3217 58.1497 29.2485 58.1496 31.643 58.1496C32.9074 58.1495 33.3657 58.1495 33.9619 58.1494C29.9208 58.1495 25.6129 58.1495 21.0879 58.1495C22.4878 58.1495 19.2083 58.1496 16.0478 58.1496C16.0609 58.1496 16.087 58.1495 16.1 58.1495C14.8336 58.1495 13.6059 58.1496 12.3866 58.1496C9.88823 58.1496 9.29543 58.1495 10.5313 58.1495C12.1536 58.1494 14.6401 58.1494 15.9444 58.1493C16.7514 58.1493 17.1057 58.1492 18.6535 58.1492C20.1674 58.1492 21.361 58.1491 22.4544 58.1491C23.633 58.1491 24.8118 58.1491 26.0331 58.1491C25.3104 58.1491 22.5873 58.149 23.6672 58.149H23.667Z" fill="#F3F0D7" />
    <path d="M19.828 58.149C21.466 58.149 22.1928 58.149 22.0999 58.149C20.5768 58.1491 18.883 58.149 19.828 58.149Z" fill="#F3F0D7" stroke="#F3F0D7" stroke-width="0.000357" stroke-miterlimit="10" />
    <path d="M19.828 58.149C21.466 58.149 22.1928 58.149 22.0999 58.149C20.5768 58.1491 18.883 58.149 19.828 58.149Z" fill="#F3F0D7" />
    <path d="M22.012 58.149C23.5205 58.149 25.9073 58.149 27.708 58.149C25.7157 58.149 22.8557 58.1491 21.2593 58.1491C20.6127 58.149 21.3203 58.149 22.0121 58.149H22.012Z" fill="#F3F0D7" />
    <path d="M12.64 58.15C13.318 58.15 15.3467 58.15 14.3708 58.15C13.4671 58.15 10.4639 58.15 12.64 58.15Z" fill="#F3F0D7" stroke="#2C322C" stroke-width="0.000357" stroke-miterlimit="10" />
    <path d="M25.14 8.69999C26.4026 6.49969 30.0692 6.83399 30.9044 9.24159C31.6155 10.8318 30.314 12.256 29.7531 13.6569C30.5695 14.4309 31.3881 15.2044 32.2097 15.977C33.0764 15.0825 33.9389 14.1835 34.7987 13.2796C34.4371 11.8769 33.2726 10.3264 34.1834 8.90059C35.2359 6.78299 38.6583 6.60579 39.8249 8.71278C40.9026 10.1543 39.7916 11.8159 39.3734 13.2688C41.9318 16.6953 44.3408 20.3619 45.4315 24.5478C46.8634 29.7661 45.9672 35.3258 44.1869 40.3428C42.8859 43.4681 43.4021 46.9319 42.7986 50.2024C47.3158 49.6342 52.4923 48.636 56.5606 51.2856C58.8128 52.7925 58.5747 55.724 58.5199 58.0871H57.6105C51.4555 56.2951 45.0085 56.7371 38.6895 56.8951C35.4935 52.7691 28.6665 52.8061 25.4565 56.8951C19.1525 56.7441 12.7115 56.2881 6.57654 58.0871H5.44724C5.61204 55.7321 5.34384 52.7921 7.58964 51.2901C11.6565 48.6401 16.8325 49.6311 21.3506 50.2021C20.9816 47.6691 20.8096 45.1131 20.8046 42.5541C18.4536 38.2901 16.3656 33.4201 17.3116 28.4511C18.4796 22.7921 22.1556 18.1311 25.6386 13.6891C25.2566 12.0961 24.0366 10.2721 25.1406 8.69908L25.14 8.69999Z" fill="#F3F0D7" stroke="#2C322C" stroke-width="0.08022" stroke-miterlimit="10" />
    <path d="M25.14 8.69999C26.4026 6.49969 30.0692 6.83399 30.9044 9.24159C31.6155 10.8318 30.314 12.256 29.7531 13.6569C30.5695 14.4309 31.3881 15.2044 32.2097 15.977C33.0764 15.0825 33.9389 14.1835 34.7987 13.2796C34.4371 11.8769 33.2726 10.3264 34.1834 8.90059C35.2359 6.78299 38.6583 6.60579 39.8249 8.71278C40.9026 10.1543 39.7916 11.8159 39.3734 13.2688C41.9318 16.6953 44.3408 20.3619 45.4315 24.5478C46.8634 29.7661 45.9672 35.3258 44.1869 40.3428C42.8859 43.4681 43.4021 46.9319 42.7986 50.2024C47.3158 49.6342 52.4923 48.636 56.5606 51.2856C58.8128 52.7925 58.5747 55.724 58.5199 58.0871H57.6105C51.4555 56.2951 45.0085 56.7371 38.6895 56.8951C35.4935 52.7691 28.6665 52.8061 25.4565 56.8951C19.1525 56.7441 12.7115 56.2881 6.57654 58.0871H5.44724C5.61204 55.7321 5.34384 52.7921 7.58964 51.2901C11.6565 48.6401 16.8325 49.6311 21.3506 50.2021C20.9816 47.6691 20.8096 45.1131 20.8046 42.5541C18.4536 38.2901 16.3656 33.4201 17.3116 28.4511C18.4796 22.7921 22.1556 18.1311 25.6386 13.6891C25.2566 12.0961 24.0366 10.2721 25.1406 8.69908L25.14 8.69999Z" fill="#2C322C" />
    <path d="M26.607 9.47499C27.4708 8.7055 29.1733 8.71985 29.0569 10.216C29.1197 12.466 25.6961 11.5109 26.607 9.47499Z" fill="#F3F0D7" stroke="#F3F0D7" stroke-width="0.08022" stroke-miterlimit="10" />
    <path d="M26.607 9.47499C27.4708 8.7055 29.1733 8.71985 29.0569 10.216C29.1197 12.466 25.6961 11.5109 26.607 9.47499Z" fill="#F3F0D7" />
    <path d="M35.855 9.679C37.1958 7.7408 38.7468 9.865 38.2905 11.4685C37.0204 11.5979 35.3757 11.3365 35.855 9.679Z" fill="#F3F0D7" stroke="#F3F0D7" stroke-width="0.08022" stroke-miterlimit="10" />
    <path d="M35.855 9.679C37.1958 7.7408 38.7468 9.865 38.2905 11.4685C37.0204 11.5979 35.3757 11.3365 35.855 9.679Z" fill="#F3F0D7" />
    <path d="M33.31 17.793C34.5883 16.4598 35.8561 15.116 37.1181 13.7657C39.9215 17.7868 42.7764 22.0025 43.6745 26.9177C44.3389 30.2473 43.8802 33.6665 43.0344 36.9174C42.2302 29.5645 38.468 22.9704 33.3101 17.7924L33.31 17.793Z" fill="#F3F0D7" stroke="#F3F0D7" stroke-width="0.08022" stroke-miterlimit="10" />
    <path d="M33.31 17.793C34.5883 16.4598 35.8561 15.116 37.1181 13.7657C39.9215 17.7868 42.7764 22.0025 43.6745 26.9177C44.3389 30.2473 43.8802 33.6665 43.0344 36.9174C42.2302 29.5645 38.468 22.9704 33.3101 17.7924L33.31 17.793Z" fill="#F3F0D7" />
    <path d="M27.731 14.43C32.8974 19.4934 37.6546 25.267 40.227 32.107C41.2153 34.5555 41.1438 37.2457 40.4433 39.7568C34.6748 37.5866 28.1523 37.6642 22.3533 39.685C19.9721 36.8049 18.3611 33.0093 19.3695 29.239C20.7884 23.7064 23.5535 18.386 27.7304 14.43H27.731Z" fill="#F3F0D7" stroke="#F3F0D7" stroke-width="0.08022" stroke-miterlimit="10" />
    <path d="M27.731 14.43C32.8974 19.4934 37.6546 25.267 40.227 32.107C41.2153 34.5555 41.1438 37.2457 40.4433 39.7568C34.6748 37.5866 28.1523 37.6642 22.3533 39.685C19.9721 36.8049 18.3611 33.0093 19.3695 29.239C20.7884 23.7064 23.5535 18.386 27.7304 14.43H27.731Z" fill="#F3F0D7" />
    <path d="M23.037 42.009C27.0571 39.904 31.8248 40.314 36.204 40.5707C37.9295 40.9291 40.4183 40.8186 41.1916 42.7618C40.8505 43.1955 40.1685 44.063 39.8274 44.4967C40.5554 45.5501 40.9358 46.7662 41.2745 47.9899C35.1999 46.8986 28.9465 46.8999 22.8725 47.9899C23.203 46.7782 23.5826 45.5732 24.3058 44.5309C23.606 43.8167 23.183 42.9762 23.0367 42.009H23.037Z" fill="#F3F0D7" stroke="#F3F0D7" stroke-width="0.08022" stroke-miterlimit="10" />
    <path d="M23.037 42.009C27.0571 39.904 31.8248 40.314 36.204 40.5707C37.9295 40.9291 40.4183 40.8186 41.1916 42.7618C40.8505 43.1955 40.1685 44.063 39.8274 44.4967C40.5554 45.5501 40.9358 46.7662 41.2745 47.9899C35.1999 46.8986 28.9465 46.8999 22.8725 47.9899C23.203 46.7782 23.5826 45.5732 24.3058 44.5309C23.606 43.8167 23.183 42.9762 23.0367 42.009H23.037Z" fill="#F3F0D7" />
    <path d="M30.711 43.135C31.9797 42.652 33.8867 42.6992 34.2425 44.3084C32.9503 45.1333 31.341 45.1103 29.9936 44.4363C30.173 44.111 30.5317 43.4603 30.711 43.135Z" fill="#F3F0D7" stroke="#2C322C" stroke-width="0.08022" stroke-miterlimit="10" />
    <path d="M30.711 43.135C31.9797 42.652 33.8867 42.6992 34.2425 44.3084C32.9503 45.1333 31.341 45.1103 29.9936 44.4363C30.173 44.111 30.5317 43.4603 30.711 43.135Z" fill="#2C322C" />
    <path d="M23.838 50.124C29.0819 48.3898 35.063 48.3883 40.306 50.1274C38.0658 52.1757 34.8729 51.7648 32.0807 51.889C29.281 51.7657 26.0778 52.1804 23.8378 50.1239L23.838 50.124Z" fill="#F3F0D7" stroke="#F3F0D7" stroke-width="0.08022" stroke-miterlimit="10" />
    <path d="M23.838 50.124C29.0819 48.3898 35.063 48.3883 40.306 50.1274C38.0658 52.1757 34.8729 51.7648 32.0807 51.889C29.281 51.7657 26.0778 52.1804 23.8378 50.1239L23.838 50.124Z" fill="#F3F0D7" />
    <path d="M6.8781 55.331C7.51567 53.355 9.0959 51.9113 11.2049 51.7891C16.7972 51.113 22.4729 52.0895 27.8979 53.4412C21.1844 55.8181 13.8739 55.0041 6.8779 55.331H6.8781Z" fill="#F3F0D7" stroke="#F3F0D7" stroke-width="0.08022" stroke-miterlimit="10" />
    <path d="M6.8781 55.331C7.51567 53.355 9.0959 51.9113 11.2049 51.7891C16.7972 51.113 22.4729 52.0895 27.8979 53.4412C21.1844 55.8181 13.8739 55.0041 6.8779 55.331H6.8781Z" fill="#F3F0D7" />
    <path d="M36.255 53.428C41.9102 52.0891 47.852 50.9457 53.652 51.9349C55.5396 52.1346 56.6076 53.7058 57.2746 55.3305C50.2812 54.9941 42.9566 55.8404 36.2546 53.428H36.255Z" fill="#F3F0D7" stroke="#F3F0D7" stroke-width="0.08022" stroke-miterlimit="10" />
    <path d="M36.255 53.428C41.9102 52.0891 47.852 50.9457 53.652 51.9349C55.5396 52.1346 56.6076 53.7058 57.2746 55.3305C50.2812 54.9941 42.9566 55.8404 36.2546 53.428H36.255Z" fill="#F3F0D7" />
  </g>
  <g id="wk" fill="none" transform="scale(0.625 0.625)">
    <path d="M24.285 7.139C29.4646 7.13814 34.645 7.13803 39.827 7.13906C39.8215 11.0019 39.8511 14.8648 39.798 18.7271C42.7062 16.9153 45.9577 15.2537 49.498 15.5427C53.9691 15.611 58.5925 18.9882 58.8628 23.6767C59.3892 30.4932 54.9323 36.5337 49.8766 40.6197C49.5708 44.8715 49.5359 49.1477 49.0647 53.3847C48.0628 55.573 45.4694 56.4679 43.3106 57.1085C37.6625 58.3744 31.8076 58.1374 26.0646 57.8976C22.2568 57.5467 17.8273 57.055 15.2386 53.889C14.373 49.545 14.6396 45.0026 14.2209 40.582C9.24334 36.7535 5.23834 30.9479 5.09574 24.506C5.03411 19.51 9.80224 15.5971 14.5861 15.5393C18.1317 15.267 21.3944 16.9142 24.3159 18.7289C24.2557 14.8661 24.2878 11.003 24.2848 7.13986L24.285 7.139Z" fill="#F3F0D7" stroke="#2C322C" stroke-width="0.082757" stroke-miterlimit="10" />
    <path d="M24.293 7.14701C24.2961 11.01 24.2556 14.8729 24.3158 18.736C21.3943 16.9213 18.1204 15.27 14.5749 15.5422C9.79101 15.6 5.02331 19.5115 5.08491 24.5075C5.22755 30.9497 9.23231 36.7615 14.2099 40.5905C14.6286 45.0113 14.3708 49.5462 15.2365 53.8905C17.8251 57.0565 22.2646 57.5546 26.0725 57.9055C31.8147 58.1453 37.6705 58.373 43.3185 57.1071C45.4773 56.4664 48.0653 55.5769 49.0673 53.3887C49.5385 49.1521 49.56 44.8655 49.8657 40.6137C54.9214 36.5277 59.3803 30.5037 58.8539 23.6867C58.5835 18.9983 53.9719 15.611 49.5008 15.5426C45.9605 15.2536 42.7137 16.9245 39.8055 18.7364C39.8585 14.8737 39.8227 11.0105 39.8283 7.14737C34.6465 7.14637 29.4723 7.14651 24.2933 7.14737L24.293 7.14701ZM27.418 22.363C30.5054 22.3823 33.5885 22.3839 36.6799 22.363C34.8362 24.8223 33.3203 27.5082 32.049 30.3018C30.7775 27.5057 29.2581 24.8238 27.4181 22.363H27.418Z" fill="#2C322C" />
    <path d="M27.474 9.461C30.5262 9.4583 33.5805 9.4579 36.6372 9.46152C35.1087 10.9153 33.5808 12.3645 32.0535 13.8148C30.5249 12.3642 28.9954 10.9144 27.474 9.46102V9.461Z" fill="#F3F0D7" stroke="#F3F0D7" stroke-width="0.082757" stroke-miterlimit="10" />
    <path d="M27.474 9.461C30.5262 9.4583 33.5805 9.4579 36.6372 9.46152C35.1087 10.9153 33.5808 12.3645 32.0535 13.8148C30.5249 12.3642 28.9954 10.9144 27.474 9.46102V9.461Z" fill="#F3F0D7" />
    <path d="M26.392 10.626C27.8421 12.0937 29.2923 13.5617 30.7453 15.0307C29.293 16.509 27.8413 17.9859 26.392 19.4636C26.3906 16.5176 26.3892 13.5718 26.392 10.626Z" fill="#F3F0D7" stroke="#F3F0D7" stroke-width="0.082757" stroke-miterlimit="10" />
    <path d="M26.392 10.626C27.8421 12.0937 29.2923 13.5617 30.7453 15.0307C29.293 16.509 27.8413 17.9859 26.392 19.4636C26.3906 16.5176 26.3892 13.5718 26.392 10.626Z" fill="#F3F0D7" />
    <path d="M33.362 15.029C34.8118 13.5594 36.2648 12.0904 37.7191 10.6212C37.7173 13.5697 37.7168 16.5181 37.7193 19.4668C36.2648 17.9875 34.8117 16.509 33.362 15.029Z" fill="#F3F0D7" stroke="#F3F0D7" stroke-width="0.082757" stroke-miterlimit="10" />
    <path d="M33.362 15.029C34.8118 13.5594 36.2648 12.0904 37.7191 10.6212C37.7173 13.5697 37.7168 16.5181 37.7193 19.4668C36.2648 17.9875 34.8117 16.509 33.362 15.029Z" fill="#F3F0D7" />
    <path d="M27.594 20.507C29.0747 19.0577 30.5643 17.613 32.0539 16.1685C33.5415 17.614 35.0288 19.059 36.5186 20.5073C33.5413 20.511 30.5667 20.5112 27.594 20.507Z" fill="#F3F0D7" stroke="#F3F0D7" stroke-width="0.082757" stroke-miterlimit="10" />
    <path d="M27.594 20.507C29.0747 19.0577 30.5643 17.613 32.0539 16.1685C33.5415 17.614 35.0288 19.059 36.5186 20.5073C33.5413 20.511 30.5667 20.5112 27.594 20.507Z" fill="#F3F0D7" />
    <path d="M7.45211 26.223C6.87056 22.8715 9.07341 19.2821 12.3388 18.3178C16.2982 17.157 20.6924 18.5289 23.6498 21.3126C27.5845 24.9154 29.6895 29.9753 31.2911 34.9546C25.7578 35.1717 20.0371 35.6708 15.1061 38.4212C11.4821 35.2102 8.04921 31.2132 7.45221 26.2232L7.45211 26.223Z" fill="#F3F0D7" stroke="#F3F0D7" stroke-width="0.082757" stroke-miterlimit="10" />
    <path d="M7.45211 26.223C6.87056 22.8715 9.07341 19.2821 12.3388 18.3178C16.2982 17.157 20.6924 18.5289 23.6498 21.3126C27.5845 24.9154 29.6895 29.9753 31.2911 34.9546C25.7578 35.1717 20.0371 35.6708 15.1061 38.4212C11.4821 35.2102 8.04921 31.2132 7.45221 26.2232L7.45211 26.223Z" fill="#F3F0D7" />
    <path d="M40.47 21.301C43.3845 18.5652 47.6817 17.197 51.598 18.273C54.9241 19.1818 57.1966 22.787 56.6668 26.1838C56.1592 31.2135 52.6632 35.2124 49.0219 38.4148C44.0469 35.7649 38.3499 35.1942 32.8139 34.952C34.4172 29.9695 36.5224 24.901 40.4695 21.301H40.47Z" fill="#F3F0D7" stroke="#F3F0D7" stroke-width="0.082757" stroke-miterlimit="10" />
    <path d="M40.47 21.301C43.3845 18.5652 47.6817 17.197 51.598 18.273C54.9241 19.1818 57.1966 22.787 56.6668 26.1838C56.1592 31.2135 52.6632 35.2124 49.0219 38.4148C44.0469 35.7649 38.3499 35.1942 32.8139 34.952C34.4172 29.9695 36.5224 24.901 40.4695 21.301H40.47Z" fill="#F3F0D7" />
    <path d="M16.571 40.377C26.2982 36.1764 37.807 36.1768 47.536 40.3751C47.4468 41.6665 47.3611 42.9581 47.28 44.2504C46.1473 44.252 45.0191 44.2543 43.8955 44.2574C44.8318 45.3515 45.7779 46.4452 46.7185 47.542C46.7452 48.2141 46.7985 49.5582 46.8251 50.2303C42.4104 47.5224 37.0925 47.3074 32.0621 47.2729C27.0251 47.3063 21.7061 47.5207 17.2871 50.2253C17.3136 49.5538 17.3667 48.2109 17.3932 47.5395C18.3296 46.4436 19.2688 45.3509 20.2128 44.2573C19.081 44.2543 17.9535 44.2519 16.8302 44.2503C16.7394 42.9587 16.6522 41.6678 16.5706 40.3772L16.571 40.377Z" fill="#F3F0D7" stroke="#F3F0D7" stroke-width="0.082757" stroke-miterlimit="10" />
    <path d="M16.571 40.377C26.2982 36.1764 37.807 36.1768 47.536 40.3751C47.4468 41.6665 47.3611 42.9581 47.28 44.2504C46.1473 44.252 45.0191 44.2543 43.8955 44.2574C44.8318 45.3515 45.7779 46.4452 46.7185 47.542C46.7452 48.2141 46.7985 49.5582 46.8251 50.2303C42.4104 47.5224 37.0925 47.3074 32.0621 47.2729C27.0251 47.3063 21.7061 47.5207 17.2871 50.2253C17.3136 49.5538 17.3667 48.2109 17.3932 47.5395C18.3296 46.4436 19.2688 45.3509 20.2128 44.2573C19.081 44.2543 17.9535 44.2519 16.8302 44.2503C16.7394 42.9587 16.6522 41.6678 16.5706 40.3772L16.571 40.377Z" fill="#F3F0D7" />
    <path d="M29.765 41.275C31.748 40.8704 34.7825 40.4066 35.8112 42.6757C34.0544 44.4856 31.1304 44.1573 28.9545 43.4034C28.2215 42.236 28.4916 41.5266 29.765 41.275Z" fill="#F3F0D7" stroke="#2C322C" stroke-width="0.082757" stroke-miterlimit="10" />
    <path d="M29.765 41.275C31.748 40.8704 34.7825 40.4066 35.8112 42.6757C34.0544 44.4856 31.1304 44.1573 28.9545 43.4034C28.2215 42.236 28.4916 41.5266 29.7649 41.275H29.765Z" fill="#2C322C" />
    <path d="M24.211 49.997C30.5382 49.1397 37.054 49.2077 43.288 50.6701C44.5768 51.0932 46.534 51.5936 46.1116 53.3712C44.2423 54.8571 41.8018 55.1878 39.5178 55.5271C33.959 56.3123 28.2858 56.2048 22.7588 55.2392C21.0735 54.9321 19.3575 54.4664 17.9984 53.3796C17.9053 50.3934 22.091 50.5734 24.2106 49.997H24.211Z" fill="#F3F0D7" stroke="#F3F0D7" stroke-width="0.082757" stroke-miterlimit="10" />
    <path d="M24.211 49.997C30.5382 49.1397 37.054 49.2077 43.288 50.6701C44.5768 51.0932 46.534 51.5936 46.1116 53.3712C44.2423 54.8571 41.8018 55.1878 39.5178 55.5271C33.959 56.3123 28.2858 56.2048 22.7588 55.2392C21.0735 54.9321 19.3575 54.4664 17.9984 53.3796C17.9053 50.3934 22.091 50.5734 24.2106 49.997H24.211Z" fill="#F3F0D7" />
  </g>
  <g id="wn" fill="none" transform="scale(0.625 0.625)">
    <path d="M21.47 14.004C21.8063 11.7316 22.4262 9.51521 23.3395 7.40691C24.8156 9.20001 26.2869 10.9996 27.8892 12.6838C35.895 12.4002 43.7562 16.2667 48.3982 22.7878C55.5729 32.8028 58.4322 46.1208 55.1047 58.0778C44.0177 58.0827 32.9307 58.0631 21.8437 58.0882C19.5605 55.969 18.7288 52.2976 20.9223 49.8041C24.3161 46.2406 28.8139 43.6479 31.1853 39.1701C28.6051 39.4482 26.0105 39.6388 23.4178 39.4358C21.8259 41.9787 19.8345 45.355 16.3711 45.1104C14.0521 44.8189 11.4909 45.5547 9.42012 44.1612C7.38252 42.9211 7.25882 40.1242 7.76162 38.0404C8.99432 33.4745 14.0784 31.2333 15.1486 26.5864C15.5525 24.3748 17.2286 22.828 18.7562 21.328C18.2823 17.946 17.8853 14.5472 17.862 11.128C19.0736 12.0749 20.2792 13.0307 21.4697 14.0054L21.47 14.004Z" fill="#F3F0D7" stroke="#2C322C" stroke-width="0.080441" stroke-miterlimit="10" />
    <path d="M21.47 14.004C21.8063 11.7316 22.4262 9.51521 23.3395 7.40691C24.8156 9.20001 26.2869 10.9996 27.8892 12.6838C35.895 12.4002 43.7562 16.2667 48.3982 22.7878C55.5729 32.8028 58.4322 46.1208 55.1047 58.0778C44.0177 58.0827 32.9307 58.0631 21.8437 58.0882C19.5605 55.969 18.7288 52.2976 20.9223 49.8041C24.3161 46.2406 28.8139 43.6479 31.1853 39.1701C28.6051 39.4482 26.0105 39.6388 23.4178 39.4358C21.8259 41.9787 19.8345 45.355 16.3711 45.1104C14.0521 44.8189 11.4909 45.5547 9.42012 44.1612C7.38252 42.9211 7.25882 40.1242 7.76162 38.0404C8.99432 33.4745 14.0784 31.2333 15.1486 26.5864C15.5525 24.3748 17.2286 22.828 18.7562 21.328C18.2823 17.946 17.8853 14.5472 17.862 11.128C19.0736 12.0749 20.2792 13.0307 21.4697 14.0054L21.47 14.004Z" fill="#2C322C" />
    <path d="M23.667 12.35C25.309 13.6098 26.9176 14.9153 28.6375 16.0714C30.0224 15.7853 31.4065 15.4973 32.7931 15.2096C33.1289 15.8634 33.4656 16.5173 33.8032 17.1713L36.7694 16.4563L37.8256 18.7149C38.047 19.1884 39.2647 18.4373 39.7443 18.3448C40.0076 19.1931 40.2719 20.0416 40.5373 20.8902C41.6649 21.0437 42.7947 21.1975 43.925 21.351C44.1238 22.4404 44.3242 23.5299 44.5251 24.6198C45.6932 24.8046 46.8624 24.9894 48.0328 25.1743C47.75 26.2996 47.4684 27.4251 47.188 28.5508C48.4729 29.3735 49.7588 30.1957 51.0461 31.0177C50.5445 32.2744 50.042 33.5306 49.5419 34.7876C50.8888 35.6929 52.2374 36.5966 53.5871 37.5008C52.8838 38.7075 52.1795 39.9133 51.478 41.1206C52.3847 42.0684 53.2931 43.0155 54.2033 43.9625C53.3726 45.3163 52.5426 46.6702 51.7143 48.0252C52.4833 48.8449 53.2546 49.6652 54.0269 50.4854C53.5241 52.2976 53.0228 54.1103 52.5212 55.9232C42.2542 55.5372 31.9782 55.6932 21.7062 55.6674C21.4922 54.3304 20.8014 52.6786 21.9754 51.5812C25.3216 48.5304 29.2484 45.941 31.6429 41.9898C32.9073 39.9529 33.3656 37.5727 33.9618 35.2862C29.9207 38.0926 25.6129 37.6666 21.0878 36.8208C22.4877 40.2574 19.2083 42.3418 16.0477 43.0935C16.0608 42.3346 16.0869 40.8167 16.0999 40.0577C14.8335 41.0151 13.6058 42.0218 12.3865 43.0374C9.88812 42.1187 9.29532 39.1453 10.5312 36.9594C12.1535 34.6116 14.64 32.9232 15.9443 30.3429C16.7513 28.2508 17.1056 25.9021 18.6534 24.175C20.1673 22.4539 21.3609 20.4993 22.4543 18.4927C23.6329 19.2313 24.8117 19.9717 26.033 20.641C25.3103 17.7813 22.5872 15.534 23.6671 12.3499L23.667 12.35Z" fill="#F3F0D7" />
    <path d="M19.828 15.539C21.466 14.7614 22.1928 16.4564 22.0999 17.8132C20.5768 19.3898 18.883 17.0568 19.828 15.539Z" fill="#F3F0D7" stroke="#F3F0D7" stroke-width="0.080441" stroke-miterlimit="10" />
    <path d="M19.828 15.539C21.466 14.7614 22.1928 16.4564 22.0999 17.8132C20.5768 19.3898 18.883 17.0568 19.828 15.539Z" fill="#F3F0D7" />
    <path d="M22.012 26.511C23.5205 25.1508 25.9073 26.7392 27.7079 27.2783C25.7156 28.3935 22.8556 30.3136 21.2592 29.3526C20.6126 28.9633 21.3202 27.1348 22.012 26.511Z" fill="#2C322C" />
    <path d="M12.64 37.995C13.318 37.3507 15.3467 37.8409 14.3708 38.9605C13.4671 40.5013 10.4639 39.1777 12.64 37.995Z" fill="#F3F0D7" stroke="#2C322C" stroke-width="0.080441" stroke-miterlimit="10" />
    <path d="M12.64 37.995C13.318 37.3507 15.3467 37.8409 14.3708 38.9605C13.4671 40.5013 10.4639 39.1777 12.64 37.995Z" fill="#2C322C" />
  </g>
  <g id="wp" fill="none" transform="scale(0.625 0.625)">
    <path d="M27.705 14.724C29.4183 11.7579 34.0345 11.4812 36.0569 14.2638C37.8163 16.1595 36.9812 18.8124 36.4541 21.0179C39.2631 22.3607 42.5531 22.9098 44.8829 25.1037C46.5995 26.6303 46.7921 29.0316 47.1526 31.1498C43.5299 31.272 39.9052 31.2074 36.2816 31.2319C36.3048 33.2854 36.4729 35.3707 37.5583 37.1732C39.2966 40.5528 40.6359 44.8931 38.023 48.2172C38.0013 48.6743 37.9578 49.5885 37.9361 50.0456C41.1356 50.3127 44.7061 50.4897 47.2026 52.7825C48.7395 54.0689 49.0083 56.1502 49.4678 57.9755C38.2748 58.1377 27.0788 58.0021 15.8848 58.0466V53.9268C18.3648 50.8157 22.4719 50.2561 26.1808 50.0397C26.1969 49.6024 26.2289 48.7278 26.2449 48.2905C25.5152 46.8926 24.4144 45.5176 24.5682 43.8421C24.5624 39.3358 28.352 35.8146 27.8353 31.2321C24.2657 31.2095 20.6957 31.2595 17.1273 31.1703C17.6144 28.59 18.4765 25.823 20.758 24.2663C22.9553 22.8044 25.4524 21.8767 27.7496 20.5873C27.2732 18.6951 26.3603 16.4933 27.7047 14.7239L27.705 14.724Z" fill="#F3F0D7" stroke="#2C322C" stroke-width="0.078895" stroke-miterlimit="10" />
    <path d="M27.705 14.724C29.4183 11.7579 34.0345 11.4812 36.0569 14.2638C37.8163 16.1595 36.9812 18.8124 36.4541 21.0179C39.2631 22.3607 42.5531 22.9098 44.8829 25.1037C46.5995 26.6303 46.7921 29.0316 47.1526 31.1498C43.5299 31.272 39.9052 31.2074 36.2816 31.2319C36.3048 33.2854 36.4729 35.3707 37.5583 37.1732C39.2966 40.5528 40.6359 44.8931 38.023 48.2172C38.0013 48.6743 37.9578 49.5885 37.9361 50.0456C41.1356 50.3127 45.1822 50.5544 47.2026 52.7825C49.2507 55.0412 49.0083 56.1502 49.4678 57.9755C38.2748 58.1377 25.6638 58.105 14.4698 58.1495C14.7581 56.4064 14.669 56.4167 15.8958 53.7707C17.1119 51.1479 22.4723 50.2561 26.1818 50.0397C26.1979 49.6024 26.2299 48.7278 26.2459 48.2905C25.5159 46.8935 24.4149 45.5185 24.5689 43.8435C24.5631 39.3372 28.3527 35.816 27.836 31.2335C24.2664 31.2109 20.6964 31.2608 17.128 31.1717C17.6151 28.5914 18.4772 25.8244 20.7587 24.2677C22.956 22.8058 25.4531 21.8781 27.7503 20.5887C27.2738 18.6965 26.361 16.4947 27.7054 14.7253L27.705 14.724Z" fill="#2C322C" />
    <path d="M30.597 20.878C28.6314 18.9131 28.8545 14.3478 32.3788 14.6669C35.4715 15.0771 35.1047 18.8961 33.702 20.8314C36.682 24.4828 42.9501 23.7879 44.578 28.7125C36.3198 28.9506 28.04 28.9447 19.782 28.7127C21.5 23.8613 27.5959 24.4535 30.597 20.878Z" fill="#F3F0D7" stroke="#F3F0D7" stroke-width="0.078895" stroke-miterlimit="10" />
    <path d="M30.597 20.878C28.6314 18.9131 28.8545 14.3478 32.3788 14.6669C35.4715 15.0771 35.1047 18.8961 33.702 20.8314C36.682 24.4828 42.9501 23.7879 44.578 28.7125C36.3198 28.9506 28.04 28.9447 19.782 28.7127C21.5 23.8613 27.5959 24.4535 30.597 20.878Z" fill="#F3F0D7" />
    <path d="M30.127 31.223C31.4142 31.2229 32.7015 31.2229 33.9891 31.2229C33.0538 36.0794 37.472 39.7147 37.1442 44.4939C37.1066 45.6905 36.3783 46.6786 35.8219 47.684C36.0346 49.0355 36.2506 50.3865 36.4637 51.7388C40.004 51.9821 44.4868 51.9684 46.3976 55.5842C36.8021 55.7264 27.1936 55.7783 17.5996 55.5567C19.674 51.998 24.1781 51.984 27.7876 51.7404C28.012 50.3666 28.239 48.9939 28.4707 47.6224C27.6495 46.4955 26.6516 45.3336 26.7574 43.8362C26.6843 39.2677 31.1268 35.9361 30.1266 31.2232L30.127 31.223Z" fill="#F3F0D7" stroke="#F3F0D7" stroke-width="0.078895" stroke-miterlimit="10" />
    <path d="M30.127 31.223C31.4142 31.2229 32.7015 31.2229 33.9891 31.2229C33.0538 36.0794 37.472 39.7147 37.1442 44.4939C37.1066 45.6905 36.3783 46.6786 35.8219 47.684C36.0346 49.0355 36.2506 50.3865 36.4637 51.7388C40.004 51.9821 44.4868 51.9684 46.3976 55.5842C36.8021 55.7264 27.1936 55.7783 17.5996 55.5567C19.674 51.998 24.1781 51.984 27.7876 51.7404C28.012 50.3666 28.239 48.9939 28.4707 47.6224C27.6495 46.4955 26.6516 45.3336 26.7574 43.8362C26.6843 39.2677 31.1268 35.9361 30.1266 31.2232L30.127 31.223Z" fill="#F3F0D7" />
  </g>
  <g id="wq" fill="none" transform="scale(0.625 0.625)">
    <path d="M19.71 10.503C19.9587 7.0706 24.9656 5.9566 26.8482 8.7083C28.1271 10.2338 27.2673 12.1902 26.6895 13.8034C28.3843 17.3169 30.1279 20.8069 31.8547 24.3054C33.6907 20.7867 35.5195 17.264 37.3608 13.7474C36.8175 12.2497 35.9275 10.5467 36.9334 9.0213C38.6286 5.9336 44.1438 6.8677 44.3648 10.5107C44.7379 12.4947 43.0493 13.7555 41.7269 14.8579C42.9899 20.0498 44.2606 25.2399 45.5318 30.4299C47.9661 28.5525 50.4153 26.693 52.8276 24.7844C52.8135 23.1717 52.4962 21.1071 54.1703 20.1595C56.266 18.5907 59.5844 20.4852 59.2944 23.0876C59.379 25.1019 57.3354 25.8596 55.8801 26.6308C53.9307 30.9395 51.7949 35.176 50.0631 39.5748C49.3087 44.3902 49.1334 49.2834 48.5313 54.1218C42.0905 58.1352 34.1953 58.4299 26.8433 57.8707C22.8253 57.5937 18.8013 56.5477 15.4923 54.1757C14.7913 49.3117 14.5003 44.3867 13.6403 39.5507C11.9853 35.1517 9.96154 30.8957 8.09084 26.5857C6.62644 25.8677 4.66814 25.0997 4.71144 23.1337C4.35074 20.3277 8.12994 18.4477 10.1553 20.4097C11.6024 21.4228 11.1212 23.28 11.09 24.7634C13.4554 26.647 15.8116 28.5426 18.1743 30.4325C19.5417 25.2305 20.9208 20.0315 22.2801 14.8275C20.9576 13.7379 19.3339 12.4615 19.7094 10.505L19.71 10.503Z" fill="#F3F0D7" stroke="#2C322C" stroke-width="0.084247" stroke-miterlimit="10" />
    <path d="M19.71 10.503C19.9587 7.0706 24.9656 5.9566 26.8482 8.7083C28.1271 10.2338 27.2673 12.1902 26.6895 13.8034C28.3843 17.3169 30.1279 20.8069 31.8547 24.3054C33.6907 20.7867 35.5195 17.264 37.3608 13.7474C36.8175 12.2497 35.9275 10.5467 36.9334 9.0213C38.6286 5.9336 44.1438 6.8677 44.3648 10.5107C44.7379 12.4947 43.0493 13.7555 41.7269 14.8579C42.9899 20.0498 44.2606 25.2399 45.5318 30.4299C47.9661 28.5525 50.4153 26.693 52.8276 24.7844C52.8135 23.1717 52.4962 21.1071 54.1703 20.1595C56.266 18.5907 59.5844 20.4852 59.2944 23.0876C59.379 25.1019 57.3354 25.8596 55.8801 26.6308C53.9307 30.9395 51.7949 35.176 50.0631 39.5748C49.3087 44.3902 49.1334 49.2834 48.5313 54.1218C42.0905 58.1352 34.1953 58.4299 26.8433 57.8707C22.8253 57.5937 18.8013 56.5477 15.4923 54.1757C14.7913 49.3117 14.5003 44.3867 13.6403 39.5507C11.9853 35.1517 9.96154 30.8957 8.09084 26.5857C6.62644 25.8677 4.66814 25.0997 4.71144 23.1337C4.35074 20.3277 8.12994 18.4477 10.1553 20.4097C11.6024 21.4228 11.1212 23.28 11.09 24.7634C13.4554 26.647 15.8116 28.5426 18.1743 30.4325C19.5417 25.2305 20.9208 20.0315 22.2801 14.8275C20.9576 13.7379 19.3339 12.4615 19.7094 10.505L19.71 10.503Z" fill="#2C322C" />
    <path d="M22.953 9.102C25.6052 7.7986 26.9044 12.5523 24.1614 12.9236C21.7077 13.688 20.6567 9.917 22.953 9.102Z" fill="#F3F0D7" stroke="#F3F0D7" stroke-width="0.084247" stroke-miterlimit="10" />
    <path d="M22.953 9.102C25.6052 7.7986 26.9044 12.5523 24.1614 12.9236C21.7077 13.688 20.6567 9.917 22.953 9.102Z" fill="#F3F0D7" />
    <path d="M39.082 9.30699C40.5303 8.37721 42.8598 9.3102 42.4364 11.2376C42.4083 13.0112 40.2282 13.325 38.9684 12.5861C38.3281 11.6178 38.1535 10.1607 39.082 9.30699Z" fill="#F3F0D7" stroke="#F3F0D7" stroke-width="0.084247" stroke-miterlimit="10" />
    <path d="M39.082 9.30699C40.5303 8.37721 42.8598 9.3102 42.4364 11.2376C42.4083 13.0112 40.2282 13.325 38.9684 12.5861C38.3281 11.6178 38.1535 10.1607 39.082 9.30699Z" fill="#F3F0D7" />
    <path d="M19.148 33.707C21.182 27.298 22.2119 20.532 24.9702 14.381C27.4197 18.9937 29.5421 23.7701 31.8538 28.453C34.1882 23.8016 36.3822 19.0786 38.8222 14.48C39.8656 15.5738 40.3302 17.0063 40.679 18.4401C41.9551 23.5367 43.2803 28.6211 44.5949 33.7081C47.7023 31.2695 50.8062 28.8256 53.9169 26.389C52.0912 30.2918 50.2263 34.1756 48.4086 38.082C37.9046 33.7645 25.8276 33.9413 15.3016 38.0884C13.4255 33.9776 11.5145 29.8834 9.63161 25.7764C12.808 28.414 15.9749 31.0639 19.1481 33.7075L19.148 33.707Z" fill="#F3F0D7" stroke="#F3F0D7" stroke-width="0.084247" stroke-miterlimit="10" />
    <path d="M19.148 33.707C21.182 27.298 22.2119 20.532 24.9702 14.381C27.4197 18.9937 29.5421 23.7701 31.8538 28.453C34.1882 23.8016 36.3822 19.0786 38.8222 14.48C39.8656 15.5738 40.3302 17.0063 40.679 18.4401C41.9551 23.5367 43.2803 28.6211 44.5949 33.7081C47.7023 31.2695 50.8062 28.8256 53.9169 26.389C52.0912 30.2918 50.2263 34.1756 48.4086 38.082C37.9046 33.7645 25.8276 33.9413 15.3016 38.0884C13.4255 33.9776 11.5145 29.8834 9.63161 25.7764C12.808 28.414 15.9749 31.0639 19.1481 33.7075L19.148 33.707Z" fill="#F3F0D7" />
    <path d="M6.6943 21.614C8.6647 20.6083 10.0476 22.2159 9.2926 24.0918C7.4707 25.42 5.4789 23.4579 6.6943 21.614Z" fill="#F3F0D7" stroke="#F3F0D7" stroke-width="0.084247" stroke-miterlimit="10" />
    <path d="M6.6943 21.614C8.6647 20.6083 10.0476 22.2159 9.2926 24.0918C7.4707 25.42 5.4789 23.4579 6.6943 21.614Z" fill="#F3F0D7" />
    <path d="M54.458 24.599C54.5007 23.4076 54.2159 21.0873 56.177 21.5775C57.3139 21.2259 57.6288 22.7985 57.4737 23.5787C57.3505 25.0327 55.355 24.3126 54.458 24.599Z" fill="#F3F0D7" stroke="#F3F0D7" stroke-width="0.084247" stroke-miterlimit="10" />
    <path d="M54.458 24.599C54.5007 23.4076 54.2159 21.0873 56.177 21.5775C57.3139 21.2259 57.6288 22.7985 57.4737 23.5787C57.3505 25.0327 55.355 24.3126 54.458 24.599Z" fill="#F3F0D7" />
    <path d="M16.211 40.134C26.0133 35.7756 37.724 35.7585 47.523 40.1353C47.4225 41.458 47.3249 42.7809 47.2314 44.1046C46.0882 44.1064 44.949 44.1091 43.8137 44.1125C44.7948 45.2232 45.7836 46.3337 46.7688 47.4464C46.7803 48.1594 46.8032 49.5854 46.8147 50.2984C43.7427 48.8031 40.3945 47.9572 36.9923 47.7172C30.2569 47.1856 23.1063 47.1288 16.9433 50.294C16.9503 49.5839 16.9643 48.1638 16.9713 47.4537C17.9547 46.3384 18.94 45.2257 19.9299 44.1124C18.7741 44.109 17.6218 44.1065 16.4732 44.1048C16.3822 42.7806 16.294 41.4571 16.2101 40.1339L16.211 40.134Z" fill="#F3F0D7" stroke="#F3F0D7" stroke-width="0.084247" stroke-miterlimit="10" />
    <path d="M16.211 40.134C26.0133 35.7756 37.724 35.7585 47.523 40.1353C47.4225 41.458 47.3249 42.7809 47.2314 44.1046C46.0882 44.1064 44.949 44.1091 43.8137 44.1125C44.7948 45.2232 45.7836 46.3337 46.7688 47.4464C46.7803 48.1594 46.8032 49.5854 46.8147 50.2984C43.7427 48.8031 40.3945 47.9572 36.9923 47.7172C30.2569 47.1856 23.1063 47.1288 16.9433 50.294C16.9503 49.5839 16.9643 48.1638 16.9713 47.4537C17.9547 46.3384 18.94 45.2257 19.9299 44.1124C18.7741 44.109 17.6218 44.1065 16.4732 44.1048C16.3822 42.7806 16.294 41.4571 16.2101 40.1339L16.211 40.134Z" fill="#F3F0D7" />
    <path d="M29.65 41.316C31.4793 40.8334 33.4613 40.9854 35.2188 41.6878C35.6838 43.8608 33.2998 43.7095 31.8301 43.7893C30.3719 43.7133 28.0483 43.8281 28.4994 41.6972C28.787 41.6019 29.3623 41.4113 29.65 41.316Z" fill="#F3F0D7" stroke="#2C322C" stroke-width="0.084247" stroke-miterlimit="10" />
    <path d="M29.65 41.316C31.4793 40.8334 33.4613 40.9854 35.2188 41.6878C35.6838 43.8608 33.2998 43.7095 31.8301 43.7893C30.3719 43.7133 28.0483 43.8281 28.4994 41.6972C28.787 41.6019 29.3623 41.4113 29.65 41.316Z" fill="#2C322C" />
    <path d="M23.877 49.921C29.6196 49.069 35.498 49.1291 41.214 50.1666C42.8615 50.5065 44.6285 50.872 45.9167 52.044C46.6922 53.8032 44.4519 54.3605 43.221 54.8054C35.7956 56.5419 27.927 56.5272 20.497 54.8304C19.2146 54.369 16.8737 53.8279 17.7342 51.9956C19.4508 50.5754 21.7548 50.2918 23.8765 49.921H23.877Z" fill="#F3F0D7" stroke="#F3F0D7" stroke-width="0.084247" stroke-miterlimit="10" />
    <path d="M23.877 49.921C29.6196 49.069 35.498 49.1291 41.214 50.1666C42.8615 50.5065 44.6285 50.872 45.9167 52.044C46.6922 53.8032 44.4519 54.3605 43.221 54.8054C35.7956 56.5419 27.927 56.5272 20.497 54.8304C19.2146 54.369 16.8737 53.8279 17.7342 51.9956C19.4508 50.5754 21.7548 50.2918 23.8765 49.921H23.877Z" fill="#F3F0D7" />
  </g>
  <g id="wr" fill="none" transform="scale(0.625 0.625)">
    <path d="M15.039 10.785C17.1427 10.7849 19.2478 10.7849 21.3544 10.7849C21.3525 12.3639 21.3519 13.9427 21.3539 15.5218C23.4579 15.5215 25.5632 15.5215 27.6703 15.5215C27.6682 13.9425 27.6678 12.3637 27.6697 10.7848C30.6003 10.7849 33.5319 10.785 36.4648 10.7854C36.4629 12.364 36.4625 13.9424 36.4645 15.5211C38.5312 15.5212 40.5992 15.5216 42.6691 15.522C42.667 13.9428 42.6664 12.3639 42.6686 10.7849C44.7721 10.7849 46.8771 10.7849 48.984 10.7849C48.9823 13.9625 48.9824 17.1399 48.984 20.3175C47.666 21.795 46.3499 23.273 45.0349 24.7511C45.0406 31.0404 45.0304 37.3301 45.0399 43.6191C47.5213 46.3993 48.5994 49.182 51.3291 51.6913C51.3286 53.8436 51.3297 55.9962 51.3305 58.1494C38.4435 58.1504 25.5575 58.1504 12.6705 58.1504C12.6697 56.0039 12.6697 53.8578 12.6714 51.7121C15.7687 49.773 16.2941 45.9481 18.9807 43.6042C18.9933 37.3654 18.9819 31.1272 18.9868 24.8882C17.6681 23.4189 16.3518 21.9487 15.0367 20.4783C15.0401 17.2474 15.0387 14.0167 15.039 10.7859V10.785Z" fill="#2C322C" />
    <path d="M17.408 13.152C17.9166 13.1527 18.9337 13.1541 19.4423 13.1548C19.4396 14.7329 19.439 16.3109 19.441 17.8892C22.9725 17.8898 26.5048 17.8893 30.038 17.8896C30.036 16.3105 30.0357 14.7317 30.0378 13.1528C31.4372 13.153 32.8377 13.1531 34.2421 13.1535C34.2402 14.732 34.2396 16.3104 34.2413 17.8891C37.8389 17.8898 41.4373 17.8895 45.0363 17.8895C45.0341 16.3106 45.034 14.7319 45.0364 13.1532C45.4311 13.1531 46.2205 13.153 46.6152 13.1529C46.614 15.4081 46.614 17.6632 46.613 19.9185C45.3035 21.0834 43.9968 22.249 42.6914 23.4155C35.0524 23.4154 27.4144 23.4152 19.7754 23.4156C18.9839 22.5336 18.194 21.6515 17.4068 20.7695C17.406 18.2302 17.404 15.6911 17.4071 13.152H17.408Z" fill="#F3F0D7" />
    <path d="M21.354 25.784C28.4583 25.784 35.563 25.7839 42.668 25.784C42.6675 31.3099 42.6673 36.836 42.6681 42.362C35.5628 42.3618 28.4581 42.362 21.3541 42.3619C21.3535 36.8359 21.3536 31.3099 21.3541 25.7839L21.354 25.784Z" fill="#F3F0D7" />
    <path d="M20.814 44.719C28.2925 44.743 35.771 44.7267 43.251 44.7276C45.5714 46.9187 46.5943 49.5319 48.9832 51.712C48.9801 53.0681 48.9811 54.4248 48.9854 55.7822C37.6694 55.782 26.3534 55.7819 15.0384 55.7822C15.0375 54.4254 15.0378 53.0694 15.0407 51.7138C17.8075 50.0362 18.3857 46.7059 20.8145 44.7189L20.814 44.719Z" fill="#F3F0D7" />
  </g>
</svg>