<svg xmlns="http://www.w3.org/2000/svg" width="40" height="40" viewbox="0.0 0.0 180.0 180.0">
  <g id="bb" fill="none" transform="scale(0.2222222222222222 0.2222222222222222)">
    <path d="M140.164 73.8765C139.528 77.7988 139.952 81.774 141.436 85.8021C142.019 87.5509 142.761 89.2474 143.662 90.8904C144.563 92.4801 145.543 93.249 146.604 93.1956C145.543 90.8634 144.987 88.9554 144.934 87.4716C144.881 85.9877 144.802 84.4504 144.696 82.8602C144.431 78.7264 144.961 75.9966 146.285 74.6719C147.558 73.3995 147.77 72.2334 146.922 71.1737C145.703 69.6892 144.007 69.6099 141.834 70.9352C140.986 71.4122 140.429 72.3926 140.164 73.8765ZM128.159 52.1724C128.636 55.1405 130.412 57.9763 133.486 60.6791C136.348 63.2762 139.21 64.8135 142.072 65.2905C139.634 63.9124 137.567 61.8187 135.871 59.0096C133.804 55.9355 133.247 53.1794 134.201 50.7413C134.89 49.2043 134.652 48.0117 133.486 47.1637C131.896 46.2097 130.359 46.6602 128.874 48.5153C128.185 49.4693 127.947 50.6883 128.159 52.1724ZM110.032 41.2805C111.994 43.6656 114.882 45.2027 118.698 45.8917C121.931 46.5277 124.476 46.3422 126.331 45.3351C125.058 45.4412 122.806 44.6726 119.573 43.0296C116.287 41.4395 114.326 39.2399 113.69 36.4309C113.318 34.5758 112.471 33.6482 111.145 33.6482C109.397 33.6482 108.522 34.9468 108.522 37.5439C108.522 38.8689 109.025 40.1145 110.032 41.2805ZM86.7381 35.3178C88.3811 36.4839 91.3494 37.2789 95.6424 37.7029C98.2395 37.9679 100.677 37.2524 102.957 35.5564C100.943 36.0334 98.7429 35.9273 96.3579 35.2383C92.754 34.3373 90.4747 32.7207 89.5207 30.3887C88.7788 28.7986 87.7984 28.1096 86.5794 28.3216C84.8301 28.6396 84.1939 29.9382 84.6709 32.2172C84.7772 33.4893 85.4662 34.5228 86.7381 35.3178ZM65.2725 36.0334C68.0816 37.4114 71.2614 37.7824 74.8125 37.1464C76.509 36.8284 77.5952 36.4044 78.0722 35.8743C78.6026 35.2913 79.2917 34.5758 80.1394 33.7278C78.8147 34.3108 77.0124 34.4698 74.7332 34.2048C71.0764 33.8338 68.5586 32.6413 67.1805 30.6272C66.2265 29.1961 65.1397 28.6926 63.9208 29.1166C62.2777 29.6996 61.8536 31.1042 62.649 33.3303C63.0197 34.4433 63.8944 35.3443 65.2725 36.0334ZM124.581 108.222L126.887 103.292L131.101 105.439C134.175 99.5029 135.712 93.2754 135.712 86.7561C135.712 74.4598 130.65 63.9124 120.527 55.114C110.456 46.3157 98.3458 41.9165 84.1939 41.9165C78.6291 41.9165 73.0901 42.7116 67.5782 44.3016L71.3149 52.4904L66.465 54.8755L62.4898 46.1302C60.8996 46.7662 59.0979 47.6142 57.0836 48.6742C54.9636 49.8403 52.764 50.4233 50.4849 50.4233C46.7218 50.4233 43.5152 49.1248 40.8651 46.5277C38.215 43.8776 36.89 40.671 36.89 36.9079C36.89 33.1977 38.215 30.0176 40.8651 27.3675C43.5152 24.6644 46.7218 23.3129 50.4849 23.3129C53.5591 23.3129 56.3417 24.2935 58.833 26.2545C61.2709 24.6644 64.08 23.5779 67.2598 22.9949C72.2424 22.1998 76.509 22.7564 80.0601 24.6644C83.3462 22.9154 87.1886 22.2264 91.5879 22.5974C96.8878 23.1274 100.996 24.85 103.911 27.7651C107.356 27.0231 111.093 27.3675 115.121 28.7986C120.262 30.7597 123.866 33.6748 125.933 37.5439C129.802 37.9149 133.565 39.8495 137.222 43.3476C140.614 46.8457 142.629 50.6089 143.265 54.637C147.081 56.6511 149.89 60.1757 151.692 65.2106C153.547 70.3519 153.627 74.9897 151.93 79.1241C153.52 89.3531 152.142 99.4236 147.796 109.335C148.644 109.229 149.227 109.176 149.545 109.176C152.513 109.176 155.031 110.236 157.098 112.356C159.218 114.423 160.278 116.941 160.278 119.909C160.278 120.81 160.172 121.684 159.96 122.532C158.953 126.984 156.992 130.642 154.077 133.504C151.162 136.366 147.849 137.797 144.139 137.797C139.634 137.797 135.791 135.809 132.611 131.834C129.431 127.859 127.841 123.063 127.841 117.444C127.841 114.9 128.185 112.515 128.874 110.289L124.581 108.222ZM149.545 116.172C145.994 116.172 144.219 117.948 144.219 121.499C144.219 125.103 145.994 126.905 149.545 126.905C153.15 126.905 154.951 125.103 154.951 121.499C154.951 117.948 153.15 116.172 149.545 116.172ZM48.3384 29.4346C43.5682 32.0847 42.5612 35.7684 45.3172 40.4855C48.0734 45.3086 51.81 46.3157 56.5273 43.5066C57.7991 42.7646 58.7531 41.8106 59.3893 40.6445C55.4671 41.0685 52.4195 40.4325 50.2464 38.7364C47.4904 35.6623 46.8543 32.5617 48.3384 29.4346ZM141.198 110.607C142.311 107.427 141.913 105.439 140.005 104.644C138.203 104.061 136.639 105.28 135.314 108.301C135.155 108.619 135.049 108.884 134.996 109.096C134.943 109.308 134.837 109.573 134.678 109.891C133.724 112.223 133.247 114.741 133.247 117.444C133.247 121.578 134.308 125.103 136.428 128.018C138.601 130.933 141.224 132.391 144.298 132.391C146.047 132.391 147.77 131.808 149.466 130.642C146.551 130.642 144.033 129.608 141.913 127.541C139.846 125.474 138.813 122.93 138.813 119.909C138.813 119.432 138.892 118.902 139.051 118.318C139.21 117.047 139.448 115.774 139.767 114.502C140.084 113.071 140.561 111.773 141.198 110.607ZM42.6142 94.3881L49.4514 86.7561L46.0328 82.9401L35.777 94.3881L45.9533 105.757L49.4514 101.941L42.6142 94.3881ZM58.1169 122.373L69.804 108.54C71.9769 109.759 74.4154 110.368 77.1182 110.368C81.5704 110.368 85.3864 108.805 88.5667 105.677C91.8 102.498 93.4166 98.6552 93.4166 94.1496C93.4166 89.6979 91.8 85.8814 88.5667 82.7016C85.3864 79.5212 81.5704 77.931 77.1182 77.931C74.3091 77.931 71.6062 78.6471 69.0092 80.0781L55.4141 64.0181C58.4882 60.5199 62.1984 57.5257 66.5443 55.0345C76.8797 49.0983 87.6921 47.4553 98.9814 50.1053C110.324 52.7554 118.804 58.9303 124.422 68.6295C129.988 78.3287 131.101 88.7704 127.762 99.9534C124.422 111.137 117.585 119.67 107.25 125.553C107.25 125.553 106.985 125.713 106.455 126.03C103.54 128.362 102.082 130.933 102.082 133.742C102.082 138.3 105.58 142.063 112.576 145.032C118.407 147.311 122.568 150.517 125.058 154.651C123.574 155.341 121.879 155.976 119.971 156.559C119.387 156.772 118.884 156.904 118.46 156.957C107.7 159.872 98.6901 159.13 91.4287 154.731C86.9766 156.851 82.5778 158.441 78.2314 159.501C71.6062 161.303 65.2196 162.178 59.0715 162.125C52.923 162.071 47.5168 162.045 42.8527 162.045C45.8208 158.07 49.9285 154.545 55.1756 151.471C57.7727 149.934 60.5818 148.662 63.603 147.655C69.7511 144.899 72.8252 141.348 72.8252 137.002C72.8252 132.973 70.1752 129.608 64.8748 126.905C62.5427 125.686 60.2904 124.175 58.1169 122.373ZM48.7359 125.076L22.5 94.7857L48.8154 64.1773L68.1345 86.8354C70.4137 83.9734 73.4085 82.5424 77.1182 82.5424C80.2986 82.5424 83.0278 83.682 85.3071 85.9612C87.5863 88.2399 88.7259 90.9697 88.7259 94.1496C88.7259 97.3299 87.5863 100.06 85.3071 102.338C83.0278 104.618 80.2986 105.757 77.1182 105.757C73.8855 105.757 71.0764 104.512 68.6908 102.021L48.7359 125.076ZM77.1182 88.0279C73.0372 88.0279 70.9965 90.0686 70.9965 94.1496C70.9965 98.2311 73.0372 100.271 77.1182 100.271C81.1997 100.271 83.2399 98.2311 83.2399 94.1496C83.2399 90.0686 81.1997 88.0279 77.1182 88.0279Z" fill="#430D27" />
    <path d="M140.164 73.8765C139.528 77.7988 139.952 81.774 141.436 85.8021C142.019 87.5509 142.761 89.2474 143.662 90.8899C144.563 92.4801 145.544 93.249 146.603 93.1956C145.544 90.8634 144.987 88.9554 144.934 87.4716C144.881 85.9877 144.802 84.4504 144.695 82.8602C144.43 78.7264 144.96 75.9966 146.285 74.6719C147.557 73.3995 147.769 72.2334 146.922 71.1737C145.702 69.6893 144.006 69.6099 141.833 70.9352C140.985 71.4122 140.429 72.3926 140.164 73.8765ZM128.159 52.1723C128.636 55.1405 130.411 57.9763 133.485 60.6791C136.348 63.2762 139.21 64.8135 142.072 65.2905C139.634 63.9124 137.567 61.8187 135.871 59.0096C133.804 55.9354 133.247 53.1794 134.201 50.7413C134.89 49.2042 134.651 48.0117 133.485 47.1637C131.896 46.2097 130.358 46.6602 128.874 48.5152C128.185 49.4692 127.947 50.6883 128.159 52.1723ZM110.032 41.2805C111.993 43.6656 114.882 45.2026 118.698 45.8916C121.931 46.5276 124.475 46.3421 126.33 45.3351C125.058 45.4411 122.806 44.6726 119.572 43.0296C116.286 41.4395 114.325 39.2399 113.689 36.4308C113.318 34.5758 112.47 33.6482 111.145 33.6482C109.396 33.6482 108.521 34.9468 108.521 37.5438C108.521 38.8689 109.025 40.1145 110.032 41.2805ZM86.7381 35.3178C88.3811 36.4838 91.3489 37.2788 95.6424 37.7029C98.2395 37.9679 100.677 37.2523 102.957 35.5563C100.942 36.0333 98.7429 35.9273 96.3579 35.2383C92.7534 34.3372 90.4748 32.7207 89.5202 30.3886C88.7783 28.7985 87.7978 28.1095 86.5789 28.3215C84.8301 28.6396 84.1939 29.9381 84.6709 32.2172C84.7766 33.4892 85.4657 34.5228 86.7381 35.3178ZM65.2719 36.0333C68.0811 37.4114 71.2614 37.7823 74.8125 37.1463C76.5084 36.8283 77.5952 36.4043 78.0722 35.8743C78.6021 35.2913 79.2911 34.5757 80.1394 33.7277C78.8141 34.3108 77.0119 34.4698 74.7332 34.2047C71.0758 33.8338 68.5581 32.6412 67.1799 30.6271C66.2259 29.1961 65.1398 28.6926 63.9208 29.1166C62.2778 29.6996 61.8536 31.1041 62.6484 33.3302C63.0197 34.4432 63.8938 35.3443 65.2719 36.0333ZM149.545 116.172C145.994 116.172 144.218 117.948 144.218 121.499C144.218 125.103 145.994 126.905 149.545 126.905C153.149 126.905 154.951 125.103 154.951 121.499C154.951 117.948 153.149 116.172 149.545 116.172ZM48.3381 29.4346C43.5679 32.0847 42.5609 35.7683 45.317 40.4854C48.0731 45.3086 51.8097 46.3156 56.5268 43.5066C57.7991 42.7645 58.7531 41.8105 59.3888 40.6444C55.4668 41.0685 52.4192 40.4324 50.2461 38.7364C47.49 35.6623 46.854 32.5617 48.3381 29.4346ZM141.197 110.607C142.31 107.427 141.913 105.439 140.005 104.644C138.203 104.061 136.639 105.28 135.314 108.301C135.155 108.619 135.049 108.884 134.996 109.096C134.943 109.308 134.837 109.573 134.678 109.891C133.724 112.223 133.247 114.741 133.247 117.444C133.247 121.578 134.307 125.103 136.427 128.018C138.6 130.933 141.224 132.391 144.298 132.391C146.047 132.391 147.769 131.808 149.465 130.642C146.55 130.642 144.033 129.608 141.913 127.541C139.845 125.474 138.812 122.93 138.812 119.909C138.812 119.432 138.891 118.902 139.051 118.319C139.21 117.047 139.448 115.774 139.766 114.503C140.084 113.072 140.561 111.773 141.197 110.607ZM42.6139 94.3881L49.4511 86.7561L46.0325 82.9401L35.7766 94.3881L45.953 105.757L49.4511 101.941L42.6139 94.3881ZM77.1182 88.0279C73.0367 88.0279 70.9965 90.0686 70.9965 94.1496C70.9965 98.2311 73.0367 100.271 77.1182 100.271C81.1991 100.271 83.2399 98.2311 83.2399 94.1496C83.2399 90.0686 81.1991 88.0279 77.1182 88.0279Z" fill="#C94E4E" />
    <path d="M58.1169 122.373L69.804 108.54C71.9769 109.759 74.4148 110.368 77.1182 110.368C81.5704 110.368 85.3864 108.805 88.5662 105.677C91.7994 102.498 93.4161 98.6552 93.4161 94.1496C93.4161 89.6974 91.7994 85.8814 88.5662 82.7016C85.3864 79.5212 81.5704 77.931 77.1182 77.931C74.3091 77.931 71.6057 78.6465 69.0086 80.0781L55.4138 64.0181L51.9419 67.8448L68.1345 86.8354C70.4132 83.9734 73.4079 82.5424 77.1182 82.5424C80.298 82.5424 83.0278 83.682 85.3071 85.9612C87.5857 88.2399 88.7254 90.9697 88.7254 94.1496C88.7254 97.3299 87.5857 100.059 85.3071 102.338C83.0278 104.618 80.298 105.757 77.1182 105.757C73.8849 105.757 71.0758 104.511 68.6908 102.021L54.164 118.804L58.1169 122.373Z" fill="#C94E4E" />
  </g>
  <g id="bk" fill="none" transform="scale(0.2222222222222222 0.2222222222222222)">
    <path d="M114.632 134.678C117.494 134.678 118.925 133.274 118.925 130.465C118.925 127.603 117.494 126.172 114.632 126.172C111.77 126.172 110.339 127.603 110.339 130.465C110.339 133.274 111.77 134.678 114.632 134.678ZM90.2244 124.104L80.0483 128.795L90.2244 133.565L100.401 128.795L90.2244 124.104ZM90.2244 54.301C87.2033 54.301 85.6929 55.8116 85.6929 58.833C85.6929 61.8007 87.2033 63.2846 90.2244 63.2846C93.1928 63.2846 94.6766 61.8007 94.6766 58.833C94.6766 55.8116 93.1928 54.301 90.2244 54.301ZM90.3836 73.6999C86.2493 73.6999 82.7246 72.2689 79.8098 69.4063C76.8949 66.4914 75.4369 62.9668 75.4369 58.833C75.4369 54.7516 76.8949 51.2535 79.8098 48.3384C82.7246 45.3703 86.2493 43.8863 90.3836 43.8863C94.4646 43.8863 97.9628 45.3703 100.878 48.3384C103.793 51.2535 105.251 54.7516 105.251 58.833C105.251 62.9668 103.793 66.4914 100.878 69.4063C97.9628 72.2689 94.4646 73.6999 90.3836 73.6999ZM145.24 116.313C147.413 118.486 148.5 121.083 148.5 124.104C148.5 127.338 147.387 129.961 145.161 131.975C145.32 132.611 145.4 133.221 145.4 133.804C145.4 136.931 144.339 139.581 142.219 141.754C142.431 142.496 142.538 143.318 142.538 144.219C142.538 149.89 139.914 153.415 134.666 154.793C121.628 158.821 106.814 160.835 90.2244 160.835C73.5818 160.835 58.7678 158.821 45.7826 154.793C40.5354 153.415 37.9118 149.89 37.9118 144.219C37.9118 143.371 38.0178 142.549 38.2298 141.754C36.1098 139.581 35.0497 136.958 35.0497 133.883C35.0497 133.247 35.1292 132.611 35.2882 131.975C33.0621 129.961 31.9491 127.338 31.9491 124.104C31.9491 120.925 33.0621 118.3 35.2882 116.234C34.3342 115.226 33.4067 114.007 32.5056 112.576C28.0005 106.163 25.0059 99.6176 23.5218 92.9396C22.0377 86.2611 22.1703 80.5371 23.9193 75.7671C26.5694 69.0356 30.7036 64.08 36.3218 60.8996C41.7279 57.7727 47.7702 56.6331 54.4484 57.4813C61.1263 58.2761 67.6457 60.741 74.0059 64.8748C80.154 69.0621 85.5872 74.9188 90.3043 82.4451C94.968 74.9188 100.401 69.0621 106.602 64.8748C112.962 60.741 119.455 58.2761 126.08 57.4813C132.758 56.6331 138.827 57.7727 144.286 60.8996C149.852 64.08 153.986 69.0356 156.689 75.7671C158.385 80.5371 158.491 86.2611 157.007 92.9396C155.523 99.6176 152.555 106.163 148.102 112.576C147.095 114.007 146.141 115.253 145.24 116.313ZM94.3588 44.2042C92.9807 43.7802 91.629 43.5682 90.3043 43.5682C89.0319 43.5682 87.6009 43.8067 86.0108 44.2837L87.7601 34.5844L80.446 37.049V27.3497L87.7601 29.7348L85.2159 22.5H94.995L92.6094 29.7348L100.004 27.3497V37.049L92.6094 34.5844L94.3588 44.2042ZM130.294 151.135L136.734 147.081C122.953 143.423 107.45 141.595 90.2244 141.595C73.1582 141.595 57.6551 143.423 43.7155 147.081L50.0757 151.135C61.789 148.75 75.1719 147.558 90.2244 147.558C105.065 147.558 118.421 148.75 130.294 151.135ZM123.616 109.953C124.093 108.522 123.987 106.852 123.298 104.944C122.662 102.983 122.821 101.393 123.775 100.174C124.411 99.3791 125.206 99.8826 126.16 101.685C127.114 103.434 128.068 104.043 129.022 103.513C130.135 102.93 130.903 101.817 131.327 100.174C131.752 98.5309 131.645 97.1527 131.01 96.0401C130.479 95.1919 129.419 95.2712 127.829 96.2786C126.293 97.2855 125.285 97.3384 124.808 96.4372C124.278 95.5896 124.808 94.7413 126.398 93.8931C128.041 93.0454 128.625 92.1707 128.147 91.2696C126.239 88.2484 123.722 87.5863 120.594 89.2823C119.694 89.8121 119.747 90.846 120.754 92.3827C121.814 93.9201 121.92 94.9534 121.071 95.4833C120.171 95.9603 119.296 95.3775 118.448 93.7344C117.6 92.0914 116.752 91.5081 115.904 91.9851C114.791 92.6741 113.996 93.8402 113.519 95.4833C113.095 97.0734 113.201 98.4251 113.837 99.5378C114.314 100.439 115.427 100.36 117.176 99.2993C118.925 98.2395 119.879 98.1866 120.038 99.1406C120.303 100.996 119.482 102.665 117.574 104.149C115.665 105.58 114.923 107.17 115.347 108.92C107.45 107.965 99.0495 107.488 90.1451 107.488C81.0287 107.488 72.4956 107.965 64.5452 108.92C64.9164 107.17 64.1211 105.554 62.1602 104.07C60.2522 102.586 59.4568 100.916 59.7752 99.0613C59.9338 98.1073 60.8614 98.1602 62.5579 99.2199C64.3067 100.28 65.4463 100.36 65.9762 99.4584C66.6124 98.3452 66.6917 96.9941 66.2147 95.4039C65.7906 93.7609 65.0222 92.6212 63.909 91.9851C63.0079 91.5081 62.1338 92.0914 61.2855 93.7344C60.4378 95.3246 59.5896 95.8545 58.7413 95.3246C57.8402 94.8476 57.8936 93.8402 58.9005 92.3034C59.9608 90.7661 60.0666 89.7328 59.2183 89.2029C58.0523 88.5668 56.6477 88.4869 55.0049 88.9644C53.4148 89.388 52.3018 90.1569 51.6658 91.2696C51.1358 92.1178 51.6657 92.9661 53.2558 93.8137C54.8989 94.662 55.4819 95.5097 55.0049 96.3579C54.4749 97.2591 53.4148 97.2062 51.8248 96.1987C50.2877 95.1919 49.2807 95.139 48.8037 96.0401C48.1677 97.1533 48.0616 98.5314 48.4857 100.174C48.9097 101.764 49.6782 102.877 50.7912 103.513C51.6923 104.043 52.6198 103.407 53.5739 101.605C54.5808 99.8032 55.4024 99.2998 56.0384 100.095C56.9925 101.314 57.1517 102.904 56.5155 104.865C55.8794 106.773 55.8264 108.443 56.3563 109.874C54.5544 110.244 52.8053 110.616 51.1093 110.986C49.4132 111.305 47.7702 111.649 46.1801 112.02C43.477 112.762 42.3375 114.061 42.7615 115.916C43.2385 117.665 44.802 118.195 47.4521 117.506C60.1194 114.644 74.5093 113.213 90.6221 113.213C106.311 113.213 120.462 114.617 133.076 117.426C135.568 118.221 137.078 117.718 137.608 115.916C137.979 114.114 136.866 112.815 134.269 112.02C130.559 111.225 127.008 110.536 123.616 109.953ZM86.4878 103.434C86.2228 101.366 85.8521 99.4056 85.3751 97.5504C84.1028 93.0983 82.3804 89.5472 80.2074 86.8972C78.0874 84.2473 75.8346 81.6503 73.4496 79.1061C69.1031 75.2366 64.4923 72.3218 59.616 70.3609C54.7929 68.3466 50.3937 68.1345 46.4186 69.7247C44.1925 70.6258 42.152 71.7919 40.2969 73.2229C38.4418 74.6539 36.8253 76.9596 35.4472 80.1394C34.0162 83.1606 33.6982 87.2679 34.4932 92.4626C35.3412 97.6567 37.5938 103.169 41.2509 108.999C42.099 108.84 42.9735 108.628 43.8745 108.363C44.8286 108.098 45.8091 107.886 46.8161 107.727C41.5689 92.0385 42.6025 82.5244 49.9167 79.1854C54.3159 77.1182 58.9798 78.1785 63.909 82.3658C68.8911 86.4996 72.9726 91.1109 76.1524 96.1987C76.7886 97.2062 77.5569 98.7165 78.4581 100.731C79.4121 102.692 79.9155 103.672 79.9689 103.672C81.0287 103.672 82.089 103.646 83.1488 103.593C84.2619 103.54 85.3751 103.487 86.4878 103.434ZM93.8019 103.434C95.9754 103.434 98.1748 103.513 100.401 103.672C100.401 103.672 100.851 102.665 101.752 100.651C102.706 98.6372 103.502 97.1527 104.137 96.1987C107.318 91.1109 111.372 86.4996 116.301 82.3658C121.283 78.1785 126.001 77.0918 130.453 79.1061C137.608 82.4979 138.615 92.0121 133.474 107.647C134.958 107.965 136.813 108.416 139.039 108.999C142.696 103.169 144.923 97.6567 145.717 92.4626C146.566 87.2151 146.274 83.0812 144.843 80.0601C143.412 76.8797 141.769 74.601 139.914 73.2229C138.059 71.7919 136.045 70.6258 133.872 69.7247C129.844 68.1345 125.391 68.3201 120.515 70.281C115.692 72.2424 111.134 75.1573 106.841 79.0262C104.456 81.6232 102.176 84.2473 100.004 86.8972C97.8835 89.5472 96.1875 93.0983 94.9151 97.5504C94.3853 99.2998 94.014 101.261 93.8019 103.434ZM41.5689 137.54L45.8621 138.336L54.4484 131.101L43.3975 129.113L40.8534 131.18C40.3764 131.975 40.1379 132.876 40.1379 133.883C40.1379 135.314 40.6149 136.533 41.5689 137.54ZM138.88 137.54C139.834 136.533 140.311 135.288 140.311 133.804C140.311 132.903 140.126 132.108 139.755 131.419L137.051 129.113L126.001 131.021L134.587 138.336L138.88 137.54ZM65.817 134.678C68.6261 134.678 70.0307 133.274 70.0307 130.465C70.0307 127.603 68.6261 126.172 65.817 126.172C62.955 126.172 61.524 127.603 61.524 130.465C61.524 133.274 62.955 134.678 65.817 134.678Z" fill="#430D27" />
    <path d="M114.632 134.678C117.494 134.678 118.925 133.274 118.925 130.465C118.925 127.603 117.494 126.172 114.632 126.172C111.77 126.172 110.339 127.603 110.339 130.465C110.339 133.274 111.77 134.678 114.632 134.678ZM90.225 124.104L80.0482 128.795L90.225 133.565L100.401 128.795L90.225 124.104ZM90.225 54.301C87.2038 54.301 85.6929 55.8116 85.6929 58.8324C85.6929 61.8007 87.2038 63.2846 90.225 63.2846C93.1927 63.2846 94.6772 61.8007 94.6772 58.8324C94.6772 55.8116 93.1927 54.301 90.225 54.301ZM130.294 151.135L136.734 147.081C122.953 143.423 107.45 141.595 90.225 141.595C73.1582 141.595 57.6551 143.423 43.7158 147.081L50.076 151.135C61.7895 148.75 75.1725 147.558 90.225 147.558C105.065 147.558 118.422 148.75 130.294 151.135ZM123.616 109.953C124.093 108.522 123.987 106.852 123.298 104.944C122.662 102.983 122.821 101.393 123.775 100.174C124.411 99.3791 125.206 99.8826 126.16 101.685C127.114 103.434 128.068 104.043 129.022 103.513C130.135 102.93 130.904 101.817 131.328 100.174C131.752 98.5309 131.646 97.1527 131.01 96.0401C130.48 95.1919 129.419 95.2712 127.83 96.2786C126.292 97.2855 125.286 97.3384 124.809 96.4372C124.279 95.5896 124.809 94.7413 126.399 93.8931C128.042 93.0454 128.625 92.1707 128.148 91.2696C126.24 88.2484 123.722 87.5863 120.595 89.2823C119.694 89.8121 119.747 90.8454 120.754 92.3827C121.814 93.9201 121.92 94.9534 121.072 95.4833C120.171 95.9603 119.296 95.3775 118.448 93.7344C117.6 92.0914 116.752 91.5081 115.904 91.9851C114.791 92.6741 113.996 93.8402 113.519 95.4833C113.095 97.0734 113.201 98.4251 113.837 99.5378C114.314 100.439 115.427 100.36 117.176 99.2993C118.925 98.2395 119.879 98.1866 120.039 99.1406C120.304 100.996 119.482 102.665 117.574 104.149C115.666 105.58 114.924 107.17 115.348 108.919C107.45 107.965 99.0495 107.488 90.1451 107.488C81.0292 107.488 72.4956 107.965 64.5457 108.919C64.9164 107.17 64.1216 105.554 62.1602 104.07C60.2522 102.586 59.4574 100.916 59.7752 99.0613C59.9344 98.1068 60.8619 98.1602 62.5579 99.2199C64.3072 100.28 65.4463 100.36 65.9767 99.4584C66.6124 98.3452 66.6922 96.9941 66.2152 95.4039C65.7911 93.7609 65.0227 92.6212 63.9096 91.9851C63.0084 91.5081 62.1337 92.0914 61.2861 93.7344C60.4378 95.3241 59.5896 95.8545 58.7419 95.3241C57.8407 94.8471 57.8936 93.8402 58.9011 92.3034C59.9608 90.7661 60.0671 89.7328 59.2189 89.2024C58.0528 88.5668 56.6482 88.4869 55.0052 88.9639C53.4151 89.388 52.3021 90.1569 51.6661 91.2696C51.136 92.1178 51.6661 92.9655 53.2561 93.8137C54.8991 94.662 55.4822 95.5097 55.0052 96.3579C54.4751 97.2591 53.4151 97.2062 51.825 96.1987C50.288 95.1919 49.281 95.139 48.804 96.0401C48.1679 97.1533 48.0619 98.5309 48.4859 100.174C48.91 101.764 49.6785 102.877 50.7915 103.513C51.6926 104.043 52.6201 103.407 53.5741 101.606C54.5812 99.8033 55.4027 99.2998 56.0387 100.095C56.9925 101.314 57.1517 102.904 56.5155 104.865C55.8797 106.773 55.8267 108.443 56.3569 109.874C54.5547 110.244 52.8056 110.616 51.1095 110.986C49.4135 111.305 47.7704 111.649 46.1803 112.02C43.4773 112.762 42.3377 114.06 42.7617 115.916C43.2387 117.665 44.8023 118.195 47.4524 117.506C60.12 114.644 74.5099 113.213 90.6221 113.213C106.311 113.213 120.462 114.617 133.077 117.426C135.568 118.221 137.078 117.718 137.608 115.916C137.98 114.114 136.866 112.815 134.269 112.02C130.559 111.225 127.008 110.536 123.616 109.953ZM86.4883 103.434C86.2234 101.366 85.8521 99.4056 85.3751 97.5504C84.1033 93.0983 82.3804 89.5472 80.2074 86.8972C78.0874 84.2473 75.8351 81.6497 73.4496 79.1061C69.1037 75.2366 64.4923 72.3218 59.6166 70.3603C54.7932 68.3466 50.394 68.1345 46.4189 69.7247C44.1928 70.6258 42.1522 71.7919 40.2972 73.2229C38.4421 74.6539 36.8256 76.9596 35.4475 80.1394C34.0164 83.1606 33.6985 87.2679 34.4934 92.4621C35.3415 97.6568 37.5941 103.169 41.2512 108.999C42.0992 108.84 42.9738 108.628 43.8748 108.363C44.8288 108.098 45.8094 107.886 46.8164 107.727C41.5692 92.0385 42.6027 82.5244 49.917 79.1854C54.3161 77.1182 58.9804 78.1785 63.9096 82.3658C68.8916 86.4996 72.9725 91.1109 76.1529 96.1987C76.7891 97.2062 77.5575 98.7165 78.4586 100.731C79.4126 102.692 79.9161 103.672 79.9689 103.672C81.0292 103.672 82.089 103.646 83.1493 103.593C84.2619 103.539 85.3751 103.487 86.4883 103.434ZM93.8025 103.434C95.9754 103.434 98.1754 103.513 100.401 103.672C100.401 103.672 100.852 102.665 101.753 100.651C102.707 98.6372 103.502 97.1527 104.138 96.1987C107.318 91.1109 111.373 86.4996 116.302 82.3658C121.284 78.1785 126.001 77.0918 130.453 79.1061C137.608 82.4979 138.616 92.0121 133.474 107.647C134.958 107.965 136.813 108.416 139.039 108.999C142.697 103.169 144.922 97.6568 145.718 92.4621C146.566 87.2151 146.274 83.0812 144.843 80.0601C143.412 76.8797 141.769 74.601 139.914 73.2229C138.059 71.7919 136.045 70.6258 133.872 69.7247C129.844 68.1345 125.391 68.3201 120.516 70.281C115.692 72.2419 111.134 75.1573 106.841 79.0262C104.456 81.6232 102.177 84.2473 100.003 86.8972C97.8834 89.5472 96.1875 93.0983 94.9157 97.5504C94.3852 99.2998 94.0146 101.261 93.8025 103.434ZM41.5692 137.54L45.8624 138.336L54.4486 131.101L43.3978 129.113L40.8537 131.18C40.3767 131.975 40.1382 132.876 40.1382 133.883C40.1382 135.314 40.6152 136.533 41.5692 137.54ZM138.881 137.54C139.835 136.533 140.312 135.288 140.312 133.804C140.312 132.902 140.126 132.108 139.755 131.419L137.052 129.113L126.001 131.021L134.587 138.336L138.881 137.54ZM65.8176 134.678C68.6267 134.678 70.0312 133.274 70.0312 130.465C70.0312 127.603 68.6267 126.172 65.8176 126.172C62.9556 126.172 61.5246 127.603 61.5246 130.465C61.5246 133.274 62.9556 134.678 65.8176 134.678Z" fill="#C94E4E" />
  </g>
  <g id="bn" fill="none" transform="scale(0.2222222222222222 0.2222222222222222)">
    <path d="M53.0688 76.6018C53.3868 75.7007 54.1289 74.7467 55.2949 73.7398C56.0899 75.1708 57.2822 75.8863 58.8724 75.8863C61.5757 75.8863 62.9269 74.5346 62.9269 71.8318C62.9269 71.1956 62.7418 70.6129 62.3706 70.083C63.6958 69.7117 64.9147 69.6853 66.0279 70.0031C66.2929 69.6324 66.4251 69.1554 66.4251 68.5721C66.213 65.6573 63.5631 65.1538 58.4752 67.0618C53.2808 68.9169 50.7898 71.3284 51.0018 74.2961C51.0018 75.4093 51.6908 76.1777 53.0688 76.6018ZM126.847 77.6357C130.292 81.0804 133.526 83.7309 136.547 85.5855C139.567 87.4406 141.476 87.9711 142.271 87.1757C143.066 86.3809 142.536 84.4993 140.681 81.531C138.826 78.5098 136.176 75.2507 132.73 71.7525C130.664 69.6853 128.649 67.9095 126.688 66.4256C124.462 67.5917 121.309 67.9095 117.227 67.3796C120.832 70.7715 124.038 74.1904 126.847 77.6357ZM142.748 105.938C144.656 109.754 146.564 112.802 148.472 115.081C150.38 117.361 151.811 118.261 152.765 117.784C153.772 117.307 153.904 115.346 153.163 111.901C152.473 108.456 151.095 104.507 149.029 100.055C147.703 97.2461 146.272 94.5433 144.735 91.9457C142.456 92.8468 139.356 92.3169 135.434 90.3561C138.19 95.2852 140.628 100.479 142.748 105.938ZM149.108 133.446C149.903 140.39 151.175 143.861 152.924 143.861C153.878 143.861 154.7 142.642 155.389 140.204C156.131 137.713 156.608 134.56 156.82 130.743C155.548 125.602 154.17 123.058 152.686 123.111C150.937 122.846 149.055 121.866 147.041 120.17C148.048 124.887 148.737 129.312 149.108 133.446ZM157.933 154.992C158.516 152.341 158.781 148.79 158.728 144.338C157.032 147.624 155.097 149.267 152.924 149.267C151.758 149.267 150.565 148.737 149.347 147.678C149.241 148.843 149.108 150.407 148.949 152.368C152.076 153.11 155.071 153.984 157.933 154.992ZM91.8664 51.7971C93.7209 52.4332 95.6824 53.2016 97.7496 54.1027C105.169 54.0497 108.985 53.0957 109.198 51.2406C109.251 50.1276 107.661 49.1205 104.428 48.2195C101.194 47.3185 96.822 47.0535 91.3095 47.4245C91.6807 48.8555 91.8664 50.313 91.8664 51.7971ZM106.018 58.2367C110.47 60.3568 114.445 61.7878 117.943 62.5297C121.441 63.2722 123.429 63.1131 123.906 62.0527C124.648 60.2511 121.414 57.2828 114.207 53.1487C113.041 55.4277 110.311 57.1236 106.018 58.2367ZM29.854 118.42C27.1509 118.315 24.0769 116.619 20.6317 113.332C17.0806 108.456 16.0471 104.322 17.5311 100.93C19.0681 97.5375 23.0963 92.9796 29.6155 87.2556C30.8875 86.1424 32.4511 85.0027 34.3062 83.8367C35.7373 83.0419 37.3008 81.7959 38.9968 80.1C41.2759 77.8207 43.0514 75.2507 44.3235 72.3881C47.0796 65.6573 52.2738 60.0919 59.9062 55.6927C60.2241 55.4807 60.4626 55.3483 60.6217 55.2952C60.4097 52.4861 60.5419 49.836 61.0189 47.3449C61.5493 43.8999 62.5826 40.8787 64.1199 38.2817C67.0877 39.5007 69.8175 41.1437 72.3082 43.2108C73.1036 43.8468 73.872 44.5359 74.6139 45.2779C75.8329 43.2108 77.0524 41.4618 78.2713 40.0307C80.4442 37.4336 82.8292 35.3401 85.4263 33.75C87.3872 36.3471 88.9509 39.1562 90.117 42.1773C90.117 42.3363 90.1699 42.5218 90.2762 42.7338C90.5411 42.7338 90.8061 42.7338 91.071 42.7338C91.3359 42.6808 91.6273 42.6543 91.9457 42.6543C95.3376 42.4953 98.6501 42.6278 101.883 43.0518C105.117 43.4758 107.767 44.2709 109.834 45.4369C110.152 45.5959 110.443 45.7019 110.708 45.7549C111.026 45.7549 111.424 45.8344 111.901 45.9934C116.83 48.0075 120.832 50.5781 123.906 53.7052C127.033 56.7793 128.755 59.4821 129.073 61.8142C131.352 63.2987 133.843 65.3389 136.546 67.9359C143.861 75.4093 147.491 81.8758 147.439 87.3349C149.717 90.0377 151.891 93.5094 153.957 97.7496C158.516 107.767 159.629 115.293 157.297 120.328C160.901 124.675 163.074 131.194 163.816 139.886C164.028 143.066 164.028 146.087 163.816 148.949C163.71 153.667 163.392 158.251 162.862 162.703C153.375 158.516 143.039 155.919 131.856 154.912C120.196 153.905 108.959 154.806 98.1467 157.615C84.4723 163.022 70.0296 165.327 54.8178 164.532C52.9097 164.426 51.5316 164.32 50.6836 164.214C59.058 148.737 69.9232 137.024 83.2798 129.073C86.301 126.159 88.3147 121.945 89.3222 116.433C90.0107 112.246 89.8256 108.323 88.7653 104.667C87.0165 105.779 85.6384 106.548 84.6315 106.972C79.1719 109.463 73.7392 110.364 68.3331 109.675C64.8883 113.385 60.7275 116.195 55.8513 118.103C55.6393 118.208 54.6322 118.553 52.8302 119.136C49.3321 122.051 45.7545 123.933 42.0973 124.781C38.4932 125.629 35.4191 125.152 32.875 123.35C31.232 122.236 30.2249 120.593 29.8539 118.42H29.854ZM94.8077 99.9759C97.6168 96.6364 99.4719 93.006 100.373 89.0837C100.744 86.328 100.055 84.7907 98.3059 84.4729C96.4507 84.1016 95.2847 85.3206 94.8077 88.1297C93.9594 90.9917 92.5549 93.6422 90.594 96.0801C88.5268 98.253 88.1561 99.9495 89.4808 101.168C90.7532 102.493 92.5284 102.096 94.8077 99.9759ZM37.4863 116.274C39.8713 115.108 43.131 113.12 47.2651 110.311C49.4382 108.986 50.1272 107.555 49.3322 106.018C48.3252 104.481 46.7351 104.375 44.562 105.7C39.8978 109.039 36.4792 111.133 34.3062 111.981C32.0271 113.57 31.4176 115.055 32.4776 116.433C33.4316 117.811 35.1012 117.758 37.4863 116.274ZM29.854 99.2604C26.9389 99.2604 25.4814 100.188 25.4814 102.043C25.4814 103.898 26.9389 104.825 29.854 104.825C32.7161 104.825 34.1472 103.898 34.1472 102.043C34.1472 100.188 32.7161 99.2604 29.854 99.2604ZM87.732 58.4753C86.4602 59.2706 85.5326 59.7476 84.9493 59.9062C84.4194 60.0126 83.916 60.1183 83.439 60.2246C82.5379 60.4361 81.6103 60.4896 80.6563 60.3833C80.1264 60.3833 79.5431 60.2246 78.9069 59.9062C77.4231 59.1114 75.9921 57.8925 74.6139 56.2493C74.1369 60.2246 75.3559 62.7953 78.2713 63.9608C78.3771 64.0142 78.5362 64.0935 78.7483 64.1998C78.9604 64.2527 79.2517 64.332 79.6224 64.4383C80.6827 64.4383 81.3718 64.3849 81.6896 64.2791C84.393 63.2188 86.4067 61.2844 87.732 58.4753Z" fill="#430D27" />
    <path d="M53.0688 76.6018C53.3869 75.7007 54.1289 74.7467 55.2949 73.7398C56.09 75.1708 57.2827 75.8863 58.8724 75.8863C61.5757 75.8863 62.9274 74.5346 62.9274 71.8318C62.9274 71.1956 62.7418 70.6129 62.3706 70.083C63.6958 69.7117 64.9147 69.6853 66.0279 70.0031C66.2929 69.6324 66.4251 69.1554 66.4251 68.5721C66.2136 65.6573 63.5631 65.1538 58.4752 67.0618C53.2808 68.9169 50.7898 71.3284 51.0018 74.2961C51.0018 75.4093 51.6908 76.1777 53.0688 76.6018ZM126.847 77.6357C130.292 81.0804 133.526 83.7309 136.547 85.5855C139.568 87.4406 141.476 87.9711 142.271 87.1757C143.066 86.3809 142.536 84.4993 140.681 81.531C138.826 78.5098 136.176 75.2507 132.73 71.7525C130.664 69.6853 128.649 67.9095 126.688 66.4256C124.462 67.5917 121.309 67.9095 117.227 67.3796C120.832 70.7715 124.038 74.1904 126.847 77.6357ZM142.748 105.938C144.656 109.754 146.564 112.802 148.472 115.081C150.38 117.361 151.811 118.261 152.765 117.784C153.772 117.307 153.904 115.346 153.163 111.901C152.473 108.456 151.096 104.507 149.029 100.055C147.703 97.2461 146.272 94.5433 144.735 91.9463C142.456 92.8468 139.356 92.3169 135.434 90.3561C138.19 95.2852 140.628 100.479 142.748 105.938ZM149.108 133.446C149.903 140.39 151.175 143.861 152.924 143.861C153.878 143.861 154.7 142.642 155.389 140.204C156.131 137.713 156.608 134.56 156.82 130.744C155.548 125.602 154.17 123.058 152.686 123.111C150.937 122.846 149.055 121.866 147.041 120.17C148.048 124.887 148.737 129.312 149.108 133.446ZM157.933 154.992C158.516 152.341 158.781 148.79 158.728 144.338C157.032 147.624 155.098 149.267 152.924 149.267C151.758 149.267 150.565 148.737 149.347 147.678C149.241 148.844 149.108 150.407 148.949 152.368C152.076 153.11 155.071 153.984 157.933 154.992ZM91.8664 51.7971C93.7215 52.4332 95.6824 53.2016 97.7496 54.1027C105.169 54.0497 108.985 53.0957 109.198 51.2406C109.251 50.1276 107.661 49.1205 104.428 48.2195C101.194 47.3185 96.822 47.0535 91.3095 47.4245C91.6807 48.8555 91.8664 50.3131 91.8664 51.7971ZM106.018 58.2367C110.47 60.3568 114.445 61.7878 117.943 62.5297C121.441 63.2722 123.429 63.1131 123.906 62.0527C124.648 60.2511 121.414 57.2828 114.207 53.1487C113.041 55.4277 110.311 57.1236 106.018 58.2367ZM94.8077 99.9759C97.6168 96.6364 99.4719 93.006 100.373 89.0837C100.744 86.328 100.055 84.7907 98.3059 84.4729C96.4507 84.1016 95.2847 85.3206 94.8077 88.1297C93.96 90.9917 92.5554 93.6422 90.594 96.0801C88.5268 98.253 88.1561 99.9495 89.4808 101.168C90.7532 102.493 92.5284 102.096 94.8077 99.9759ZM37.4863 116.274C39.8714 115.108 43.131 113.12 47.2651 110.311C49.4382 108.986 50.1272 107.555 49.3322 106.018C48.3252 104.481 46.7351 104.375 44.562 105.7C39.8979 109.039 36.4793 111.133 34.3062 111.981C32.0271 113.57 31.4176 115.055 32.4776 116.433C33.4317 117.811 35.1012 117.758 37.4863 116.274ZM29.8541 99.2604C26.939 99.2604 25.4814 100.188 25.4814 102.043C25.4814 103.898 26.939 104.825 29.8541 104.825C32.7162 104.825 34.1472 103.898 34.1472 102.043C34.1472 100.188 32.7162 99.2604 29.8541 99.2604ZM87.732 58.4753C86.4602 59.2706 85.5326 59.7476 84.9493 59.9062C84.4194 60.0126 83.916 60.1183 83.439 60.2246C82.5379 60.4367 81.6103 60.4896 80.6563 60.3833C80.1264 60.3833 79.5431 60.2246 78.9075 59.9062C77.4231 59.1114 75.9921 57.8925 74.6139 56.2493C74.1369 60.2246 75.3559 62.7952 78.2713 63.9607C78.3771 64.0142 78.5362 64.0935 78.7483 64.1998C78.9604 64.2527 79.2517 64.332 79.623 64.4383C80.6827 64.4383 81.3718 64.3849 81.6896 64.2791C84.393 63.2188 86.4067 61.2844 87.732 58.4753Z" fill="#C94E4E" />
  </g>
  <g id="bp" fill="none" transform="scale(0.2222222222222222 0.2222222222222222)">
    <path d="M99.9124 143.971C107.494 146.809 113.565 151.407 118.125 157.765V163.125H56.25V157.765C60.8631 151.249 66.96 146.651 74.5419 143.971C70.1944 141.764 66.6686 138.559 63.9647 134.355C61.3136 130.099 59.9878 125.396 59.9878 120.246C59.9878 111.628 63.4078 104.613 70.2473 99.2008C74.754 94.9967 77.0074 89.8734 77.0074 83.8305H57.3632V78.3917C60.8096 74.1881 64.9187 70.8514 69.6909 68.3814C73.296 66.4369 76.1856 63.5732 78.3596 59.7898C76.1327 57.4251 75.0195 54.6139 75.0195 51.3559C75.0195 48.0454 76.1856 45.2341 78.5188 42.922C80.9044 40.5573 83.7939 39.375 87.1875 39.375C90.5276 39.375 93.3643 40.5573 95.6976 42.922C98.0831 45.2341 99.2762 48.0454 99.2762 51.3559C99.2762 54.5088 98.1894 57.3199 96.0154 59.7898C98.0303 63.5209 100.946 66.3846 104.764 68.3814C109.642 70.956 113.725 74.2404 117.012 78.2342V83.8305H97.3676C97.2613 89.8734 99.5411 95.0496 104.207 99.3583C110.941 104.666 114.307 111.628 114.307 120.246C114.307 125.343 112.956 129.994 110.252 134.197C107.547 138.401 104.101 141.659 99.9124 143.971Z" fill="#430D27" />
  </g>
  <g id="bq" fill="none" transform="scale(0.2222222222222222 0.2222222222222222)">
    <path d="M130.106 124.383C132.545 125.072 134.002 124.595 134.479 122.952C134.85 121.309 133.869 120.143 131.538 119.454C118.552 115.85 103.871 114.047 87.4929 114.047C70.9037 114.047 56.3282 115.85 43.7666 119.454C41.3285 120.143 40.3215 121.309 40.7455 122.952C41.1695 124.542 42.6005 125.045 45.0386 124.463C57.1759 121.124 71.4336 119.454 87.8113 119.454C104.03 119.454 118.128 121.097 130.106 124.383ZM110.231 129.312C106.256 128.676 104.056 129.578 103.632 132.015C103.155 134.453 104.93 136.043 108.959 136.785C112.881 137.527 115.054 136.626 115.478 134.083C115.955 131.698 114.206 130.107 110.231 129.312ZM127.88 142.192C131.167 142.192 132.81 140.389 132.81 136.785C132.81 134.984 132.173 133.552 130.902 132.492L120.487 136.308L127.88 142.192ZM47.1057 142.192L54.4994 136.388L44.0846 132.492C42.8125 133.606 42.1765 135.037 42.1765 136.785C42.1765 140.389 43.8196 142.192 47.1057 142.192ZM119.612 151.175C122.898 150.433 126.237 149.506 129.629 148.393C123.746 146.803 117.227 145.398 110.072 144.179C102.917 142.96 95.3904 142.351 87.4929 142.351C79.596 142.351 72.0698 142.96 64.9142 144.179C57.8121 145.398 51.3194 146.803 45.4362 148.393C48.8813 149.559 52.2204 150.486 55.4535 151.175C60.1178 150.275 65.1527 149.479 70.5589 148.79C75.9651 148.101 81.6098 147.757 87.4929 147.757C93.3233 147.757 98.9679 148.128 104.427 148.87C109.887 149.559 114.948 150.328 119.612 151.175ZM132.969 113.809L136.228 99.8961L126.052 111.901C128.702 112.537 131.007 113.173 132.969 113.809ZM118.022 110.947L115.478 94.1721L107.846 109.596C111.821 110.019 115.213 110.47 118.022 110.947ZM96.0795 108.085L87.4929 84.6315L78.9069 108.006C80.8149 107.899 83.6769 107.846 87.4929 107.846C90.3549 107.846 93.2175 107.926 96.0795 108.085ZM67.1406 109.596L59.508 94.1721L56.9638 110.868C59.9321 110.391 63.324 109.966 67.1406 109.596ZM49.0138 111.901L38.7579 99.8961L42.0971 113.73C43.6871 113.253 45.9927 112.643 49.0138 111.901ZM87.4929 52.7511C84.843 52.7511 82.5902 51.8236 80.7356 49.9686C78.8805 48.1135 77.9529 45.8609 77.9529 43.2108C77.9529 40.6667 78.8805 38.4672 80.7356 36.6121C82.5902 34.7041 84.843 33.75 87.4929 33.75C90.09 33.75 92.3164 34.7041 94.1715 36.6121C96.0266 38.4672 96.9536 40.6667 96.9536 43.2108C96.9536 45.8609 96.0266 48.1135 94.1715 49.9686C92.3164 51.8236 90.09 52.7511 87.4929 52.7511ZM138.772 121.203C139.726 123.058 140.203 124.993 140.203 127.007C140.203 130.134 139.196 132.784 137.183 134.957C137.341 135.54 137.421 136.149 137.421 136.785C137.421 139.966 136.44 142.616 134.479 144.736C134.691 145.478 134.797 146.299 134.797 147.2C134.797 152.872 132.438 156.396 127.721 157.774C115.69 161.803 102.281 163.816 87.4929 163.816C72.6525 163.816 59.2431 161.803 47.2647 157.774C42.5476 156.396 40.189 152.872 40.189 147.2C40.189 146.299 40.295 145.478 40.507 144.736C38.5459 142.616 37.5654 139.966 37.5654 136.785C37.5654 136.149 37.6449 135.54 37.8039 134.957C35.7898 132.89 34.7828 130.266 34.7828 127.086C34.7828 125.231 35.1538 123.509 35.8958 121.919L24.6859 71.6726L49.8088 100.85L54.9765 63.4044L71.1158 97.9881L87.4929 52.8306L103.871 97.9881L119.93 63.4044L125.098 100.85L150.3 71.5933L138.772 121.203ZM121.679 62.5297C119.029 62.5297 116.777 61.6022 114.922 59.7476C113.066 57.8925 112.139 55.6397 112.139 52.9896C112.139 50.4456 113.066 48.246 114.922 46.391C116.777 44.4828 119.029 43.5288 121.679 43.5288C124.277 43.5288 126.502 44.4828 128.357 46.391C130.213 48.246 131.14 50.4456 131.14 52.9896C131.14 55.6397 130.213 57.8925 128.357 59.7476C126.502 61.6022 124.277 62.5297 121.679 62.5297ZM53.3069 62.5297C50.6568 62.5297 48.4042 61.6022 46.5492 59.7476C44.6941 57.8925 43.7666 55.6397 43.7666 52.9896C43.7666 50.4456 44.6941 48.246 46.5492 46.391C48.4042 44.4828 50.6568 43.5288 53.3069 43.5288C55.904 43.5288 58.1299 44.4828 59.985 46.391C61.8401 48.246 62.7677 50.4456 62.7677 52.9896C62.7677 55.6397 61.8401 57.8925 59.985 59.7476C58.1299 61.6022 55.904 62.5297 53.3069 62.5297ZM154.196 72.3088C151.599 72.3088 149.372 71.3812 147.518 69.5261C145.663 67.671 144.735 65.4188 144.735 62.7683C144.735 60.1712 145.663 57.9454 147.518 56.0902C149.372 54.2352 151.599 53.3077 154.196 53.3077C156.793 53.3077 159.019 54.2352 160.874 56.0902C162.782 57.9454 163.736 60.1712 163.736 62.7683C163.736 65.4188 162.782 67.671 160.874 69.5261C159.019 71.3812 156.793 72.3088 154.196 72.3088ZM20.7108 72.3088C18.0608 72.3088 15.8082 71.3812 13.9531 69.5261C12.151 67.671 11.25 65.4188 11.25 62.7683C11.25 56.4615 14.4036 53.3077 20.7108 53.3077C23.3079 53.3077 25.534 54.2352 27.389 56.0902C29.2971 57.9454 30.2511 60.1712 30.2511 62.7683C30.2511 65.4188 29.2971 67.671 27.389 69.5261C25.534 71.3812 23.3079 72.3088 20.7108 72.3088ZM87.4929 125.973L78.0323 131.459L87.4929 136.865L96.9536 131.459L87.4929 125.973ZM64.9941 129.312C60.9126 130.001 59.1373 131.591 59.6672 134.083C60.1442 136.626 62.3436 137.501 66.2659 136.706C70.2411 136.07 71.9899 134.506 71.5129 132.015C71.0887 129.578 68.9158 128.676 64.9941 129.312Z" fill="#430D27" />
    <path d="M130.106 124.383C132.544 125.072 134.002 124.595 134.479 122.952C134.85 121.309 133.869 120.143 131.537 119.454C118.552 115.85 103.87 114.047 87.4929 114.047C70.9031 114.047 56.3276 115.85 43.7664 119.454C41.3283 120.143 40.3212 121.309 40.7452 122.952C41.1693 124.542 42.6003 125.045 45.0384 124.463C57.1759 121.124 71.4336 119.454 87.8107 119.454C104.029 119.454 118.128 121.097 130.106 124.383ZM110.231 129.312C106.256 128.676 104.056 129.578 103.632 132.015C103.155 134.453 104.93 136.043 108.958 136.785C112.881 137.527 115.054 136.626 115.478 134.083C115.955 131.698 114.205 130.107 110.231 129.312ZM127.88 142.192C131.167 142.192 132.81 140.389 132.81 136.785C132.81 134.984 132.173 133.552 130.901 132.492L120.486 136.308L127.88 142.192ZM47.1055 142.192L54.4992 136.388L44.0844 132.492C42.8123 133.606 42.1763 135.037 42.1763 136.785C42.1763 140.389 43.8194 142.192 47.1055 142.192ZM119.612 151.175C122.898 150.433 126.237 149.506 129.629 148.393C123.746 146.803 117.227 145.398 110.072 144.179C102.916 142.96 95.3899 142.351 87.4929 142.351C79.5954 142.351 72.0692 142.96 64.9142 144.179C57.8121 145.398 51.3191 146.803 45.4359 148.393C48.881 149.559 52.2202 150.486 55.4533 151.175C60.1172 150.275 65.1527 149.479 70.5589 148.79C75.9651 148.101 81.6097 147.757 87.4929 147.757C93.3232 147.757 98.9679 148.128 104.427 148.87C109.886 149.559 114.948 150.328 119.612 151.175ZM132.968 113.809L136.228 99.8961L126.052 111.901C128.702 112.537 131.007 113.173 132.968 113.809ZM118.022 110.947L115.478 94.1721L107.845 109.596C111.821 110.019 115.213 110.47 118.022 110.947ZM96.0789 108.085L87.4929 84.6315L78.9064 108.006C80.8144 107.899 83.6769 107.846 87.4929 107.846C90.3549 107.846 93.2169 107.926 96.0789 108.085ZM67.14 109.596L59.508 94.1721L56.9638 110.868C59.9321 110.391 63.324 109.966 67.14 109.596ZM49.0135 111.901L38.7577 99.8961L42.0968 113.73C43.6869 113.253 45.9924 112.643 49.0135 111.901ZM87.4929 125.973L78.0323 131.459L87.4929 136.865L96.9536 131.459L87.4929 125.973ZM64.9935 129.312C60.9126 130.001 59.1368 131.591 59.6672 134.083C60.1442 136.626 62.3436 137.501 66.2659 136.706C70.2405 136.07 71.9899 134.506 71.5129 132.015C71.0887 129.578 68.9158 128.676 64.9935 129.312Z" fill="#C94E4E" />
  </g>
  <g id="br" fill="none" transform="scale(0.2222222222222222 0.2222222222222222)">
    <path d="M74.9722 94.8082H102.083V104.984H74.9722V94.8082ZM126.331 147.359C125.43 142.536 122.303 140.124 116.95 140.124H60.1853C54.7788 140.124 51.6517 142.536 50.8037 147.359H126.331ZM118.858 110.391L119.733 120.726C122.33 120.726 124.555 121.654 126.411 123.509C128.319 125.364 129.273 127.59 129.273 130.187C129.273 132.996 128.213 135.354 126.093 137.262C130.068 140.39 132.055 144.391 132.055 149.267V164.135H45V149.267C45 144.338 47.0141 140.363 51.0422 137.342C48.9221 135.487 47.8621 133.102 47.8621 130.187C47.8621 127.59 48.7896 125.364 50.6447 123.509C52.4998 121.654 54.7258 120.726 57.3227 120.726L58.3566 110.391H85.8645V120.567H91.2707V110.391H118.858ZM118.302 104.984H107.489V94.8082H117.348L118.302 104.984ZM116.871 89.4021H91.2707V79.2253H115.917L116.871 89.4021ZM115.36 73.8191L107.489 73.7398V63.6429H102.083V73.7398H74.9722V63.6429H69.6459V73.7398H61.9341L62.8088 63.6429L49.2932 55.6132V33.75H65.5116V41.8593H79.1066V33.75H98.0286V41.8593H111.623V33.75H128.001V55.6132L114.406 63.6429L115.36 73.8191ZM60.3439 89.4021L61.3778 79.2253H85.8645V89.4021H60.3439ZM58.9129 104.905L59.8669 94.8876L69.6459 94.8082V104.984L58.9129 104.905ZM122.435 52.5921H54.6198L64.0806 58.3161H88.5673H112.975L122.435 52.5921ZM88.5673 126.53H57.3227C54.6198 126.53 53.2683 127.749 53.2683 130.187C53.2683 132.678 54.6198 133.923 57.3227 133.923H119.733C122.489 133.923 123.866 132.678 123.866 130.187C123.866 127.749 122.489 126.53 119.733 126.53H88.5673Z" fill="#430D27" />
    <path fill-rule="evenodd" clip-rule="evenodd" d="M58.3566 110.391H85.8645V120.567H91.2707V110.391H118.858L118.302 104.984H107.489V94.8082H117.348L116.871 89.4021H91.2707V79.2253H115.917L115.36 73.8191L107.489 73.7398V63.6429H102.083V73.7398H74.9728V63.6429H69.6459V73.7398H61.9341L61.3778 79.2253H85.8645V89.4021H60.3444L59.8674 94.8876L69.6459 94.8082V104.984L58.9129 104.905L58.3566 110.391ZM102.083 94.8082H74.9728V104.984H102.083V94.8082Z" fill="#C94E4E" />
    <path fill-rule="evenodd" clip-rule="evenodd" d="M126.331 147.359C125.43 142.536 122.303 140.124 116.95 140.124H60.1852C54.779 140.124 51.6519 142.536 50.8039 147.359H126.331ZM88.5679 126.53H57.3232C54.62 126.53 53.2685 127.749 53.2685 130.187C53.2685 132.678 54.62 133.923 57.3232 133.923H119.733C122.489 133.923 123.867 132.678 123.867 130.187C123.867 127.749 122.489 126.53 119.733 126.53H88.5679Z" fill="#C94E4E" />
    <path d="M122.436 52.5922H54.62L64.0806 58.3166H88.5679H112.975L122.436 52.5922Z" fill="#C94E4E" />
  </g>
  <g id="wb" fill="none" transform="scale(0.2222222222222222 0.2222222222222222)">
    <path d="M45.8738 94.3881L52.711 101.941L49.2129 105.757L39.0365 94.3881L49.2924 82.9401L52.711 86.7561L45.8738 94.3881ZM77.2774 88.3462C73.1964 88.3462 71.1557 90.3864 71.1557 94.4679C71.1557 98.496 73.1964 100.51 77.2774 100.51C81.3054 100.51 83.3197 98.496 83.3197 94.4679C83.3197 90.3864 81.3054 88.3462 77.2774 88.3462ZM68.5322 102.021C66.6242 99.7942 65.6702 97.2771 65.6702 94.4679C65.6702 91.6059 66.6242 89.0882 68.5322 86.9152L52.393 67.9933L29.8142 94.5472L52.3135 120.942L68.5322 102.021ZM63.126 40.0085C69.9103 37.6764 76.9326 36.5104 84.1939 36.5104C99.8297 36.5104 113.213 41.4395 124.343 51.2979C135.526 61.1032 141.118 72.9225 141.118 86.7561C141.118 94.9185 138.971 102.63 134.678 109.891C133.724 112.223 133.247 114.741 133.247 117.444C133.247 121.578 134.308 125.103 136.428 128.018C138.601 130.933 141.224 132.391 144.298 132.391C146.047 132.391 147.77 131.808 149.466 130.642C146.551 130.642 144.033 129.608 141.913 127.541C139.846 125.474 138.813 122.93 138.813 119.909C138.813 119.432 138.892 118.902 139.051 118.318C139.21 117.047 139.448 115.774 139.767 114.502C140.084 113.124 140.641 111.614 141.436 109.971C146.789 99.8477 148.538 89.3267 146.683 78.4086C148.273 75.4931 148.247 71.7036 146.604 67.0393C145.596 64.2831 144.219 62.0837 142.469 60.4406C140.721 58.7976 139.051 58.2412 137.461 58.7711C138.415 57.7108 138.494 56.0415 137.699 53.7625C136.904 51.4834 135.473 49.2838 133.406 47.1637C131.286 45.0966 129.086 43.6656 126.808 42.8706C124.528 42.0756 122.833 42.155 121.719 43.1091C122.143 41.519 121.534 39.8495 119.891 38.1004C118.248 36.3513 116.022 34.9468 113.213 33.8868C107.806 31.8727 103.937 32.0317 101.605 34.3638C101.658 32.8798 100.651 31.5282 98.5837 30.3091C96.57 29.0371 94.1051 28.2421 91.1902 27.9241C84.6709 27.394 80.9077 28.7191 79.9009 31.8992C79.5831 30.4152 78.2842 29.3286 76.005 28.6396C73.7263 27.9506 71.1292 27.8445 68.2138 28.3216C65.2461 28.7986 62.8076 29.7526 60.8996 31.1837C58.9916 32.6147 58.1968 34.0193 58.5146 35.3973C57.5606 30.9451 54.884 28.7191 50.4849 28.7191C45.0257 28.7191 42.2961 31.4487 42.2961 36.9079C42.2961 42.367 45.0257 45.0966 50.4849 45.0966C51.81 45.0966 53.1085 44.7257 54.3805 43.9836C51.2534 43.0296 49.0273 41.413 47.7023 39.134C47.1193 37.9679 47.1193 37.2789 47.7023 37.0669C48.1263 36.8018 48.6564 37.2259 49.2924 38.3389C51.2534 40.83 54.9636 41.572 60.4226 40.565C61.5358 40.406 62.4369 40.2205 63.126 40.0085ZM149.545 114.502C145.994 114.502 144.219 116.305 144.219 119.909C144.219 123.513 145.994 125.315 149.545 125.315C153.15 125.315 154.951 123.513 154.951 119.909C154.951 116.305 153.15 114.502 149.545 114.502ZM124.581 108.222L126.887 103.292L131.101 105.439C134.175 99.5029 135.712 93.2754 135.712 86.7561C135.712 74.4598 130.65 63.9124 120.527 55.114C110.456 46.3157 98.3458 41.9165 84.1939 41.9165C78.6291 41.9165 73.0901 42.7116 67.5782 44.3017L71.3149 52.4904L66.465 54.8755L62.4898 46.1302C60.8996 46.7662 59.0979 47.6142 57.0836 48.6742C54.9636 49.8403 52.764 50.4233 50.4849 50.4233C46.7218 50.4233 43.5152 49.1248 40.8651 46.5277C38.215 43.8776 36.89 40.671 36.89 36.9079C36.89 33.1977 38.215 30.0176 40.8651 27.3675C43.5152 24.6644 46.7218 23.3129 50.4849 23.3129C53.5591 23.3129 56.3417 24.2934 58.833 26.2545C61.2709 24.6644 64.08 23.5779 67.2598 22.9949C72.2424 22.1999 76.509 22.7564 80.0601 24.6644C83.3462 22.9154 87.1886 22.2264 91.5879 22.5974C96.8878 23.1274 100.996 24.85 103.911 27.7651C107.356 27.0231 111.093 27.3675 115.121 28.7986C120.262 30.7596 123.866 33.6747 125.933 37.5439C129.802 37.9149 133.565 39.8495 137.222 43.3476C140.614 46.8457 142.629 50.6089 143.265 54.637C147.081 56.6511 149.89 60.1757 151.692 65.2106C153.547 70.3519 153.627 74.9897 151.93 79.1241C153.52 89.3531 152.142 99.4236 147.796 109.335C148.644 109.229 149.227 109.176 149.545 109.176C152.513 109.176 155.031 110.236 157.098 112.356C159.218 114.423 160.278 116.941 160.278 119.909C160.278 120.81 160.172 121.684 159.96 122.532C158.953 126.984 156.992 130.642 154.077 133.504C151.162 136.366 147.849 137.797 144.139 137.797C139.634 137.797 135.791 135.809 132.611 131.834C129.431 127.859 127.841 123.063 127.841 117.444C127.841 114.9 128.185 112.515 128.874 110.289L124.581 108.222ZM115.121 152.187C113.795 151.285 112.179 150.491 110.271 149.802C101.261 145.879 96.7556 140.527 96.7556 133.742C96.7556 128.813 99.4584 124.467 104.865 120.703C113.769 115.456 119.679 108.01 122.594 98.3632C125.509 88.7169 124.581 79.6804 119.811 71.253C114.882 62.8785 107.462 57.5522 97.5504 55.273C87.6921 52.9939 78.2578 54.4515 69.2477 59.6458C65.2725 61.9779 61.8536 64.8135 58.9916 68.1525L72.4275 83.9734C73.9119 83.2314 75.5286 82.8602 77.2774 82.8602C80.4572 82.8602 83.187 83.9998 85.4662 86.2791C87.7449 88.5583 88.8846 91.2876 88.8846 94.4679C88.8846 97.6477 87.7449 100.378 85.4662 102.657C83.187 104.935 80.4572 106.075 77.2774 106.075C75.6872 106.075 74.2297 105.757 72.9045 105.121L61.5358 118.318C63.0197 119.537 64.9547 120.836 67.3397 122.214C74.601 126.19 78.2314 131.119 78.2314 137.002C78.2314 144.104 73.3815 149.537 63.6823 153.3C61.6686 154.148 59.7336 155.076 57.8784 156.082C57.0307 156.612 56.421 157.01 56.0501 157.275C62.2513 157.381 69.1948 156.4 76.8797 154.333C82.0738 152.902 87.1357 151.021 92.0649 148.688C96.8878 153.353 104.573 154.519 115.121 152.187ZM42.8527 162.045C45.8208 158.07 49.9285 154.545 55.1756 151.471C57.7727 149.934 60.5818 148.662 63.603 147.655C69.7511 144.899 72.8252 141.348 72.8252 137.002C72.8252 132.974 70.1752 129.608 64.8748 126.905C62.5427 125.686 60.2904 124.175 58.1169 122.373L52.1545 129.29L22.5 94.7857L52.1545 60.2021L55.4141 64.0181C58.4882 60.5199 62.1984 57.5257 66.5443 55.0345C76.8797 49.0983 87.6921 47.4553 98.9814 50.1053C110.324 52.7554 118.804 58.9303 124.422 68.6295C129.988 78.3287 131.101 88.7704 127.762 99.9534C124.422 111.137 117.585 119.67 107.25 125.553C107.25 125.553 106.985 125.713 106.455 126.03C103.54 128.362 102.082 130.933 102.082 133.742C102.082 138.3 105.58 142.063 112.576 145.032C118.407 147.311 122.568 150.517 125.058 154.651C123.574 155.341 121.879 155.976 119.971 156.559C119.387 156.772 118.884 156.904 118.46 156.957C107.7 159.872 98.6901 159.13 91.4287 154.731C86.9766 156.851 82.5778 158.441 78.2314 159.501C71.6062 161.303 65.2196 162.178 59.0715 162.125C52.923 162.071 47.5168 162.045 42.8527 162.045Z" fill="#582233" />
    <path d="M45.8737 94.3886L52.7109 101.941L49.2128 105.757L39.0365 94.3886L49.2923 82.9401L52.7109 86.7561L45.8737 94.3886ZM77.2774 88.3463C73.1959 88.3463 71.1557 90.387 71.1557 94.4679C71.1557 98.496 73.1959 100.51 77.2774 100.51C81.3055 100.51 83.3192 98.496 83.3192 94.4679C83.3192 90.387 81.3055 88.3463 77.2774 88.3463ZM68.5322 102.021C66.6236 99.7948 65.6696 97.2771 65.6696 94.4679C65.6696 91.6059 66.6236 89.0882 68.5322 86.9153L52.393 67.9939L29.8141 94.5472L52.3134 120.943L68.5322 102.021ZM63.126 40.0087C69.9098 37.6766 76.9326 36.5106 84.1939 36.5106C99.8297 36.5106 113.213 41.4397 124.343 51.298C135.527 61.1032 141.118 72.9231 141.118 86.7561C141.118 94.9185 138.971 102.63 134.678 109.892C133.724 112.224 133.247 114.741 133.247 117.444C133.247 121.578 134.307 125.103 136.427 128.018C138.601 130.933 141.224 132.391 144.298 132.391C146.047 132.391 147.77 131.808 149.466 130.642C146.55 130.642 144.033 129.608 141.913 127.541C139.846 125.474 138.812 122.93 138.812 119.909C138.812 119.432 138.892 118.902 139.051 118.319C139.21 117.047 139.448 115.775 139.767 114.503C140.084 113.124 140.641 111.614 141.436 109.971C146.789 99.8477 148.538 89.3267 146.683 78.4086C148.273 75.4931 148.247 71.7036 146.604 67.0393C145.596 64.2836 144.218 62.0837 142.469 60.4406C140.721 58.7976 139.051 58.2413 137.461 58.7711C138.415 57.7114 138.494 56.0417 137.699 53.7626C136.904 51.4835 135.473 49.284 133.406 47.1639C131.286 45.0969 129.086 43.6658 126.807 42.8708C124.529 42.0757 122.832 42.1553 121.719 43.1093C122.144 41.5192 121.534 39.8497 119.891 38.1006C118.248 36.3516 116.021 34.947 113.213 33.887C107.807 31.8729 103.937 32.0319 101.605 34.364C101.658 32.8799 100.651 31.5284 98.5838 30.3094C96.57 29.0373 94.1051 28.2423 91.1903 27.9242C84.6709 27.3943 80.9078 28.7193 79.9009 31.8994C79.5831 30.4153 78.2843 29.3288 76.005 28.6398C73.7263 27.9507 71.1293 27.8448 68.2138 28.3218C65.2461 28.7988 62.8076 29.7528 60.8996 31.1839C58.9916 32.6149 58.1968 34.0195 58.5146 35.3975C57.5606 30.9454 54.8839 28.7193 50.4848 28.7193C45.0256 28.7193 42.296 31.4489 42.296 36.908C42.296 42.3673 45.0256 45.0969 50.4848 45.0969C51.8099 45.0969 53.1084 44.7258 54.3804 43.9838C51.2533 43.0298 49.0273 41.4132 47.7022 39.1341C47.1192 37.9681 47.1192 37.2791 47.7022 37.0671C48.1262 36.8021 48.6563 37.2261 49.2923 38.3391C51.2533 40.8302 54.9635 41.5722 60.4226 40.5652C61.5358 40.4062 62.437 40.2207 63.126 40.0087ZM149.545 114.503C145.994 114.503 144.218 116.305 144.218 119.909C144.218 123.513 145.994 125.315 149.545 125.315C153.149 125.315 154.951 123.513 154.951 119.909C154.951 116.305 153.149 114.503 149.545 114.503ZM115.121 152.187C113.795 151.286 112.179 150.491 110.271 149.802C101.261 145.88 96.7556 140.527 96.7556 133.742C96.7556 128.813 99.4584 124.467 104.865 120.704C113.769 115.457 119.679 108.01 122.594 98.3638C125.509 88.7175 124.581 79.6804 119.811 71.253C114.882 62.8791 107.462 57.5522 97.5505 55.2732C87.6921 52.9941 78.2578 54.4517 69.2477 59.6458C65.2725 61.9779 61.8536 64.8135 58.9916 68.1525L72.4275 83.9739C73.9114 83.2314 75.528 82.8608 77.2774 82.8608C80.4572 82.8608 83.187 84.0004 85.4663 86.2791C87.745 88.5583 88.8846 91.2881 88.8846 94.4679C88.8846 97.6483 87.745 100.378 85.4663 102.657C83.187 104.936 80.4572 106.076 77.2774 106.076C75.6872 106.076 74.2298 105.757 72.9045 105.121L61.5358 118.319C63.0197 119.538 64.9541 120.836 67.3397 122.214C74.6005 126.19 78.2314 131.119 78.2314 137.002C78.2314 144.104 73.3815 149.537 63.6823 153.3C61.668 154.148 59.7336 155.076 57.8785 156.082C57.0308 156.612 56.421 157.01 56.05 157.275C62.2513 157.381 69.1943 156.4 76.8797 154.334C82.0738 152.903 87.1358 151.021 92.065 148.689C96.8878 153.353 104.573 154.519 115.121 152.187Z" fill="#DECE9C" />
  </g>
  <g id="wk" fill="none" transform="scale(0.2222222222222222 0.2222222222222222)">
    <path d="M90.3836 73.6999C86.2492 73.6999 82.7246 72.2689 79.8097 69.4063C76.8949 66.4914 75.4369 62.9668 75.4369 58.833C75.4369 54.7516 76.8949 51.2535 79.8097 48.3384C82.7246 45.3703 86.2492 43.8863 90.3836 43.8863C94.4646 43.8863 97.9628 45.3703 100.878 48.3384C103.793 51.2535 105.25 54.7516 105.25 58.833C105.25 62.9668 103.793 66.4914 100.878 69.4063C97.9628 72.2689 94.4646 73.6999 90.3836 73.6999ZM140.391 113.69C141.451 112.471 142.564 111.066 143.73 109.476C147.811 103.593 150.514 97.7096 151.839 91.8264C153.217 85.8904 153.111 81.0141 151.521 77.1981C149.242 71.9505 145.929 68.0552 141.583 65.511C137.131 62.9668 132.122 62.0393 126.557 62.7283C121.045 63.4174 115.586 65.4581 110.18 68.85C104.244 72.666 99.0759 78.3371 94.6766 85.8634C93.1399 88.6196 91.6819 91.6144 90.3043 94.8476C88.8727 91.6144 87.4153 88.6196 85.9314 85.8634C81.4792 78.3371 76.3116 72.666 70.4284 68.85C65.0222 65.4581 59.5367 63.4174 53.9713 62.7283C48.4591 62.0393 43.477 62.9668 39.0248 65.511C34.6257 68.0552 31.3131 71.9505 29.087 77.1981C27.4439 81.0141 27.2849 85.8904 28.61 91.8264C29.988 97.7096 32.7441 103.593 36.8782 109.476C37.9913 111.066 39.1043 112.471 40.2173 113.69C41.4894 113.318 42.788 113.001 44.113 112.736C37.3288 92.277 38.6538 79.8216 48.0881 75.3694C53.8123 72.7194 59.9074 74.124 66.3739 79.5831C72.8932 84.9892 78.246 91.0046 82.4332 97.6303C83.2281 98.955 84.2619 100.996 85.5337 103.752C86.859 106.508 87.5216 107.886 87.5216 107.886C87.9457 107.886 88.3693 107.886 88.7934 107.886C89.2704 107.833 89.7474 107.806 90.2244 107.806C92.0796 107.806 93.0071 107.806 93.0071 107.806C93.0071 107.753 93.6433 106.349 94.9151 103.593C96.2404 100.784 97.3001 98.7165 98.0955 97.3912C102.229 90.7132 107.503 84.7243 113.916 79.4239C120.382 74.0706 126.505 72.7189 132.281 75.3694C141.769 79.8744 143.147 92.3034 136.416 112.656C137.051 112.815 137.688 113.001 138.324 113.213C139.013 113.371 139.702 113.531 140.391 113.69ZM81.7177 108.045C77.9546 99.4056 73.2375 92.7011 67.5664 87.9306C61.8952 83.1606 56.9132 81.6767 52.6198 83.4784C48.9626 85.0686 46.8691 88.434 46.3391 93.5752C45.809 98.7165 46.8956 104.706 49.5987 111.543C53.1498 110.854 56.2506 110.324 58.9005 109.953C58.4235 108.575 58.5028 106.932 59.139 105.024C59.7752 103.063 59.616 101.473 58.662 100.254C58.0258 99.4584 57.2046 99.9619 56.1974 101.764C55.1904 103.566 54.2629 104.202 53.4148 103.672C52.3018 103.036 51.5068 101.923 51.0297 100.333C50.6057 98.6901 50.7382 97.3119 51.4272 96.1987C51.9043 95.2982 52.9113 95.3511 54.4484 96.3579C56.0384 97.3648 57.0982 97.4177 57.6287 96.5171C58.1057 95.6689 57.5224 94.8206 55.8794 93.9729C54.2364 93.1247 53.6798 92.2764 54.2099 91.4287C56.0649 88.3018 58.6091 87.6128 61.8424 89.3616C62.6901 89.8914 62.5843 90.9253 61.524 92.4621C60.5171 93.9994 60.4642 95.0063 61.3648 95.4833C62.2131 96.0131 63.0349 95.4833 63.8297 93.8931C64.6779 92.25 65.5785 91.6673 66.5325 92.1443C67.6457 92.7804 68.4141 93.9195 68.8382 95.5626C69.2623 97.1527 69.1566 98.5044 68.5204 99.6176C68.0434 100.519 66.9302 100.439 65.1814 99.3791C63.432 98.3188 62.5044 98.2659 62.3987 99.2199C62.0809 101.075 62.8757 102.745 64.7837 104.228C66.7446 105.713 67.5399 107.303 67.1687 108.999C71.9387 108.522 76.7886 108.204 81.7177 108.045ZM130.93 111.384C133.58 104.494 134.64 98.478 134.11 93.3368C133.633 88.1426 131.566 84.7507 127.909 83.1606C123.563 81.3583 118.554 82.8692 112.883 87.6921C107.211 92.4626 102.521 99.2199 98.811 107.965C104.429 108.283 109.279 108.628 113.36 108.999C112.936 107.303 113.678 105.713 115.586 104.229C117.494 102.745 118.316 101.101 118.051 99.2998C117.892 98.3458 116.938 98.3987 115.188 99.4584C113.439 100.519 112.326 100.572 111.849 99.6176C111.213 98.5044 111.107 97.1527 111.531 95.5626C111.955 93.9195 112.724 92.7804 113.837 92.1443C114.738 91.6673 115.586 92.25 116.381 93.8931C117.229 95.5361 118.13 96.093 119.084 95.5626C119.932 95.0856 119.826 94.0787 118.766 92.5419C117.759 90.9518 117.706 89.9179 118.607 89.4409C119.72 88.8053 121.071 88.6989 122.662 89.1231C124.305 89.5472 125.471 90.3156 126.16 91.4287C126.637 92.3299 126.054 93.204 124.411 94.0522C122.821 94.9005 122.291 95.7482 122.821 96.5964C123.298 97.4976 124.305 97.4447 125.842 96.4372C127.379 95.4304 128.439 95.3511 129.022 96.1987C129.658 97.3119 129.737 98.6901 129.26 100.333C128.836 101.923 128.094 103.036 127.034 103.672C126.08 104.149 125.126 103.513 124.172 101.764C123.218 100.015 122.423 99.5377 121.787 100.333C120.78 101.552 120.594 103.116 121.231 105.024C121.92 106.932 122.025 108.601 121.548 110.032C123.139 110.244 124.702 110.483 126.239 110.748C127.829 111.013 129.393 111.225 130.93 111.384ZM145.24 116.313C147.413 118.486 148.5 121.083 148.5 124.104C148.5 127.338 147.387 129.961 145.161 131.975C145.32 132.611 145.399 133.221 145.399 133.804C145.399 136.931 144.339 139.581 142.219 141.754C142.431 142.496 142.537 143.318 142.537 144.219C142.537 149.89 139.914 153.415 134.666 154.793C121.628 158.821 106.814 160.835 90.2244 160.835C73.5817 160.835 58.7677 158.821 45.7825 154.793C40.5354 153.415 37.9118 149.89 37.9118 144.219C37.9118 143.371 38.0178 142.549 38.2298 141.754C36.1097 139.581 35.0497 136.958 35.0497 133.883C35.0497 133.247 35.1292 132.611 35.2882 131.975C33.0621 129.961 31.9491 127.338 31.9491 124.104C31.9491 120.925 33.0621 118.3 35.2882 116.234C34.3342 115.226 33.4066 114.007 32.5056 112.576C28.0005 106.163 25.0059 99.6176 23.5218 92.9396C22.0377 86.2611 22.1703 80.5371 23.9193 75.7671C26.5694 69.0356 30.7036 64.08 36.3217 60.8996C41.7279 57.7727 47.7701 56.6331 54.4484 57.4813C61.1263 58.2761 67.6457 60.741 74.0059 64.8748C80.154 69.0621 85.5872 74.9188 90.3043 82.4451C94.968 74.9188 100.401 69.0621 106.602 64.8748C112.962 60.741 119.455 58.2761 126.08 57.4813C132.758 56.6331 138.827 57.7727 144.286 60.8996C149.852 64.08 153.985 69.0356 156.689 75.7671C158.385 80.5371 158.491 86.2611 157.007 92.9396C155.523 99.6176 152.554 106.163 148.102 112.576C147.095 114.007 146.141 115.253 145.24 116.313ZM130.294 150.658C118.209 148.485 104.853 147.399 90.2244 147.399C75.384 147.399 62.001 148.485 50.0757 150.658C62.2131 153.68 75.5961 155.19 90.2244 155.19C104.853 155.19 118.209 153.68 130.294 150.658ZM90.3836 68.1345C92.9278 68.1345 95.1007 67.2334 96.903 65.4317C98.7581 63.5766 99.6851 61.3766 99.6851 58.833C99.6851 56.2888 98.7581 54.0891 96.903 52.234C95.1007 50.379 92.9278 49.4514 90.3836 49.4514C87.7866 49.4514 85.5602 50.379 83.7056 52.234C81.9034 54.0891 81.0022 56.2888 81.0022 58.833C81.0022 61.3766 81.9034 63.5766 83.7056 65.4317C85.5602 67.2334 87.7866 68.1345 90.3836 68.1345ZM94.3588 44.2042C92.9807 43.7802 91.629 43.5682 90.3043 43.5682C89.0319 43.5682 87.6009 43.8067 86.0107 44.2837L87.7601 34.5844L80.4459 37.049V27.3497L87.7601 29.7348L85.2159 22.5H94.995L92.6094 29.7348L100.003 27.3497V37.049L92.6094 34.5844L94.3588 44.2042ZM136.018 140.482C135.7 140.164 135.594 139.899 135.7 139.687C135.753 139.316 136.097 139.078 136.734 138.971C139.119 138.176 140.311 136.454 140.311 133.804C140.311 132.108 139.648 130.677 138.324 129.511C141.716 129.458 143.412 127.655 143.412 124.104C143.412 121.454 142.219 119.705 139.834 118.857C126.319 115.094 109.915 113.213 90.6221 113.213C71.0646 113.213 54.4219 115.121 40.6944 118.937C38.2563 119.785 37.0372 121.507 37.0372 124.104C37.0372 127.655 38.7333 129.458 42.1255 129.511C40.8004 130.677 40.1379 132.134 40.1379 133.883C40.1379 136.428 41.2509 138.097 43.477 138.892C44.219 138.998 44.643 139.263 44.749 139.687C44.802 139.952 44.6695 140.244 44.3515 140.561C43.4505 141.78 43 142.999 43 144.219C43 145.226 43.265 146.153 43.795 147.002C57.7344 143.662 73.2111 141.992 90.2244 141.992C107.344 141.992 122.847 143.662 136.734 147.002C137.211 146.047 137.449 145.119 137.449 144.219C137.449 142.894 136.972 141.648 136.018 140.482Z" fill="#582233" />
    <path d="M140.391 113.69C141.451 112.471 142.564 111.066 143.73 109.476C147.811 103.593 150.514 97.7096 151.839 91.8264C153.217 85.8904 153.111 81.0141 151.521 77.1981C149.242 71.9511 145.929 68.0552 141.584 65.511C137.131 62.9668 132.123 62.0392 126.557 62.7283C121.046 63.4174 115.586 65.4581 110.18 68.85C104.244 72.6666 99.0759 78.3377 94.6766 85.8639C93.1399 88.6196 91.6824 91.6144 90.3043 94.8476C88.8733 91.6144 87.4153 88.6196 85.9314 85.8639C81.4793 78.3377 76.3116 72.6666 70.4284 68.85C65.0222 65.4581 59.5367 63.4174 53.9715 62.7283C48.4593 62.0392 43.4771 62.9668 39.025 65.511C34.6258 68.0552 31.3132 71.9511 29.0871 77.1981C27.444 81.0141 27.2851 85.8904 28.6101 91.8264C29.9882 97.7096 32.7443 103.593 36.8784 109.476C37.9914 111.066 39.1044 112.471 40.2175 113.69C41.4896 113.318 42.7881 113.001 44.1131 112.736C37.3289 92.277 38.6539 79.8216 48.0882 75.3694C53.8125 72.7194 59.9079 74.124 66.3739 79.5831C72.8933 84.9892 78.2466 91.0052 82.4333 97.6303C83.2286 98.955 84.2619 100.996 85.5338 103.752C86.859 106.508 87.5216 107.886 87.5216 107.886C87.9457 107.886 88.3699 107.886 88.7934 107.886C89.2704 107.833 89.7474 107.806 90.2244 107.806C92.0796 107.806 93.0071 107.806 93.0071 107.806C93.0071 107.754 93.6433 106.349 94.9151 103.593C96.2404 100.784 97.3007 98.7165 98.0955 97.3918C102.229 90.7133 107.503 84.7243 113.916 79.4239C120.383 74.0706 126.505 72.7194 132.281 75.3694C141.769 79.8744 143.147 92.3034 136.416 112.656C137.052 112.815 137.688 113.001 138.324 113.213C139.013 113.372 139.702 113.531 140.391 113.69ZM81.7178 108.045C77.9546 99.4056 73.2375 92.7011 67.5664 87.9306C61.8953 83.1606 56.9132 81.6767 52.6199 83.4789C48.9628 85.0686 46.8692 88.4346 46.3392 93.5752C45.8092 98.7165 46.8957 104.706 49.5988 111.543C53.1499 110.854 56.2506 110.324 58.9005 109.953C58.4235 108.575 58.5034 106.932 59.139 105.024C59.7752 103.063 59.616 101.473 58.662 100.254C58.0264 99.459 57.2046 99.9624 56.1975 101.764C55.1905 103.566 54.263 104.203 53.4149 103.672C52.3019 103.036 51.5069 101.923 51.0299 100.333C50.6058 98.6901 50.7383 97.3119 51.4274 96.1993C51.9044 95.2982 52.9115 95.3511 54.4485 96.3579C56.0386 97.3648 57.0988 97.4182 57.6287 96.5171C58.1057 95.6689 57.5224 94.8206 55.8795 93.9729C54.2365 93.1247 53.6799 92.277 54.21 91.4287C56.0651 88.3018 58.6091 87.6128 61.8424 89.3616C62.6901 89.892 62.5843 90.9253 61.524 92.4621C60.5171 93.9994 60.4643 95.0062 61.3654 95.4832C62.2131 96.0137 63.0349 95.4833 63.8297 93.8931C64.6779 92.2506 65.5791 91.6673 66.5331 92.1443C67.6457 92.7804 68.4146 93.9201 68.8382 95.5631C69.2623 97.1528 69.1566 98.5044 68.5204 99.6176C68.0434 100.519 66.9302 100.439 65.1814 99.3791C63.4326 98.3188 62.505 98.2659 62.3987 99.2199C62.0809 101.075 62.8757 102.745 64.7837 104.229C66.7451 105.713 67.5399 107.303 67.1687 108.999C71.9393 108.522 76.7886 108.204 81.7178 108.045ZM130.93 111.384C133.58 104.494 134.64 98.478 134.11 93.3368C133.633 88.1426 131.566 84.7507 127.909 83.1606C123.563 81.3589 118.554 82.8692 112.883 87.6921C107.212 92.4626 102.521 99.2199 98.811 107.966C104.429 108.283 109.279 108.628 113.36 108.999C112.936 107.303 113.678 105.713 115.586 104.229C117.494 102.745 118.316 101.101 118.051 99.2998C117.892 98.3458 116.938 98.3987 115.189 99.4584C113.439 100.519 112.326 100.572 111.849 99.6176C111.214 98.5044 111.107 97.1528 111.531 95.5631C111.956 93.9201 112.724 92.7804 113.837 92.1443C114.738 91.6673 115.586 92.2506 116.381 93.8931C117.229 95.5361 118.13 96.093 119.084 95.5631C119.932 95.0861 119.826 94.0787 118.766 92.5419C117.759 90.9518 117.706 89.9184 118.607 89.4414C119.72 88.8052 121.072 88.6989 122.662 89.1231C124.305 89.5472 125.471 90.3156 126.16 91.4287C126.637 92.3299 126.054 93.2046 124.411 94.0522C122.821 94.9005 122.291 95.7482 122.821 96.5964C123.298 97.4976 124.305 97.4447 125.842 96.4378C127.379 95.4304 128.439 95.3511 129.022 96.1987C129.658 97.3119 129.737 98.6901 129.26 100.333C128.837 101.923 128.094 103.036 127.034 103.672C126.08 104.149 125.126 103.514 124.172 101.764C123.218 100.015 122.423 99.5383 121.787 100.333C120.78 101.552 120.595 103.116 121.231 105.024C121.92 106.932 122.026 108.601 121.549 110.032C123.139 110.244 124.702 110.483 126.24 110.748C127.829 111.013 129.393 111.225 130.93 111.384ZM130.294 150.658C118.209 148.485 104.853 147.399 90.2244 147.399C75.384 147.399 62.001 148.485 50.0758 150.658C62.2131 153.68 75.5961 155.19 90.2244 155.19C104.853 155.19 118.209 153.68 130.294 150.658ZM90.3836 68.1345C92.9278 68.1345 95.1007 67.2334 96.903 65.4317C98.7581 63.5766 99.6857 61.3772 99.6857 58.833C99.6857 56.2888 98.7581 54.0892 96.903 52.2341C95.1007 50.3791 92.9278 49.4515 90.3836 49.4515C87.7866 49.4515 85.5607 50.3791 83.7056 52.2341C81.9034 54.0892 81.0023 56.2888 81.0023 58.833C81.0023 61.3772 81.9034 63.5766 83.7056 65.4317C85.5607 67.2334 87.7866 68.1345 90.3836 68.1345ZM136.018 140.482C135.7 140.164 135.594 139.899 135.7 139.687C135.753 139.316 136.098 139.078 136.734 138.972C139.119 138.176 140.311 136.454 140.311 133.804C140.311 132.108 139.649 130.677 138.324 129.511C141.716 129.458 143.412 127.655 143.412 124.104C143.412 121.454 142.22 119.706 139.834 118.857C126.319 115.094 109.915 113.213 90.6221 113.213C71.0646 113.213 54.422 115.121 40.6945 118.937C38.2564 119.785 37.0374 121.507 37.0374 124.104C37.0374 127.655 38.7335 129.458 42.1256 129.511C40.8005 130.677 40.138 132.134 40.138 133.883C40.138 136.428 41.2511 138.097 43.4771 138.892C44.2191 138.998 44.6432 139.263 44.7491 139.687C44.8022 139.952 44.6696 140.244 44.3517 140.561C43.4506 141.78 43.0001 143 43.0001 144.219C43.0001 145.226 43.2651 146.153 43.7951 147.002C57.7344 143.662 73.2111 141.992 90.2244 141.992C107.344 141.992 122.847 143.662 136.734 147.002C137.211 146.048 137.449 145.12 137.449 144.219C137.449 142.894 136.972 141.648 136.018 140.482Z" fill="#DECE9C" />
  </g>
  <g id="wn" fill="none" transform="scale(0.2222222222222222 0.2222222222222222)">
    <path d="M55.2154 77.715C53.9963 77.3972 53.3603 76.7081 53.3073 75.6478C53.2014 72.9979 55.4804 70.7985 60.1447 69.0491C64.7027 67.3532 67.0877 67.8038 67.2997 70.4008C67.2997 70.8249 67.2204 71.2755 67.0612 71.7525C66.0544 71.5404 64.9412 71.5404 63.7222 71.7525C64.0401 72.3352 64.1992 72.8921 64.1992 73.422C64.1992 75.8599 62.9539 77.0788 60.4626 77.0788C59.0844 77.0788 57.9982 76.4432 57.2029 75.1708C56.0899 76.0191 55.4274 76.8667 55.2154 77.715ZM126.847 77.6357C130.292 81.0804 133.526 83.7309 136.547 85.5855C139.567 87.4406 141.476 87.9711 142.271 87.1757C143.066 86.3809 142.536 84.4993 140.681 81.531C138.826 78.5098 136.176 75.2507 132.73 71.7525C130.664 69.6853 128.649 67.9095 126.688 66.4256C124.462 67.5917 121.309 67.9095 117.227 67.3796C120.832 70.7715 124.038 74.1904 126.847 77.6357ZM142.748 105.938C144.656 109.754 146.564 112.802 148.472 115.081C150.38 117.361 151.811 118.261 152.765 117.784C153.772 117.307 153.904 115.346 153.163 111.901C152.473 108.456 151.095 104.507 149.029 100.055C147.703 97.2461 146.272 94.5433 144.735 91.9463C142.456 92.8468 139.356 92.3169 135.434 90.3561C138.19 95.2852 140.628 100.479 142.748 105.938ZM149.108 133.446C149.903 140.39 151.175 143.861 152.924 143.861C153.878 143.861 154.7 142.642 155.389 140.204C156.131 137.713 156.608 134.56 156.82 130.743C155.548 125.602 154.17 123.058 152.686 123.111C150.937 122.846 149.055 121.866 147.041 120.169C148.048 124.887 148.737 129.312 149.108 133.446ZM157.933 154.992C158.516 152.341 158.781 148.79 158.728 144.338C157.032 147.624 155.097 149.267 152.924 149.267C151.758 149.267 150.565 148.737 149.347 147.677C149.241 148.843 149.108 150.407 148.949 152.368C152.076 153.11 155.071 153.984 157.933 154.992ZM80.0201 64.5176C80.2851 64.5176 80.577 64.4383 80.8948 64.2791C83.5976 63.1659 85.347 60.6752 86.1418 56.8057C86.9901 52.8837 86.5924 48.617 84.9493 44.0058C84.6315 43.1578 84.3666 42.5218 84.1545 42.0978C83.8361 42.3098 83.3327 42.8398 82.6436 43.6879C79.4638 47.451 77.5822 51.3466 76.9989 55.3748C76.4162 59.3499 77.2639 62.2648 79.5431 64.1199C79.7023 64.2791 79.8609 64.4113 80.0201 64.5176ZM91.8664 51.7971C93.7209 52.4332 95.6824 53.2016 97.7496 54.1027C105.169 54.0497 108.985 53.0956 109.198 51.2406C109.251 50.1276 107.661 49.1205 104.428 48.2195C101.194 47.3185 96.822 47.0535 91.3095 47.4245C91.6807 48.8555 91.8664 50.313 91.8664 51.7971ZM31.4441 99.4989C34.0942 99.4989 35.4192 100.347 35.4192 102.043C35.4192 103.739 34.0942 104.587 31.4441 104.587C28.847 104.587 27.5484 103.739 27.5484 102.043C27.5484 100.347 28.847 99.4989 31.4441 99.4989ZM106.018 58.2367C110.47 60.3568 114.445 61.7878 117.943 62.5297C121.441 63.2722 123.429 63.1131 123.906 62.0527C124.648 60.2511 121.414 57.2828 114.207 53.1487C113.041 55.4277 110.311 57.1236 106.018 58.2367ZM72.2289 50.8431C71.2749 49.624 70.1353 48.458 68.8101 47.3449C68.3331 46.9739 67.7767 46.5765 67.1406 46.1524C66.8756 46.7885 66.717 47.504 66.6636 48.299C66.3986 49.9951 66.2664 51.4791 66.2664 52.7511C67.5911 52.2212 69.579 51.5851 72.2289 50.8431ZM29.854 118.42C27.1509 118.315 24.0769 116.619 20.6317 113.332C17.0806 108.456 16.0471 104.322 17.5311 100.93C19.0681 97.5375 23.0963 92.9796 29.6155 87.2556C30.8875 86.1424 32.4511 85.0027 34.3062 83.8367C35.7373 83.0419 37.3008 81.7959 38.9968 80.1C41.2759 77.8207 43.0514 75.2507 44.3235 72.3881C47.0796 65.6573 52.2738 60.0919 59.9062 55.6927C60.2241 55.4807 60.4626 55.3482 60.6217 55.2952C60.4097 52.4861 60.5419 49.836 61.0189 47.3449C61.5493 43.8999 62.5826 40.8787 64.1199 38.2817C67.0877 39.5007 69.8175 41.1437 72.3082 43.2108C73.1036 43.8468 73.872 44.5359 74.6139 45.2779C75.8329 43.2108 77.0524 41.4618 78.2713 40.0307C80.4442 37.4336 82.8292 35.3401 85.4263 33.75C87.3872 36.3471 88.9509 39.1562 90.117 42.1773C90.117 42.3363 90.1699 42.5218 90.2762 42.7338C90.5411 42.7338 90.8061 42.7338 91.071 42.7338C91.3359 42.6808 91.6273 42.6543 91.9457 42.6543C95.3376 42.4952 98.6501 42.6278 101.883 43.0518C105.117 43.4758 107.767 44.2708 109.834 45.4369C110.152 45.5959 110.443 45.7019 110.708 45.7549C111.026 45.7549 111.424 45.8344 111.901 45.9934C116.83 48.0074 120.832 50.578 123.906 53.7051C127.033 56.7793 128.755 59.4821 129.073 61.8142C131.352 63.2987 133.843 65.3389 136.546 67.9359C143.861 75.4093 147.491 81.8758 147.439 87.3349C149.717 90.0377 151.891 93.5094 153.957 97.7496C158.516 107.767 159.629 115.293 157.297 120.328C160.901 124.675 163.074 131.194 163.816 139.886C164.028 143.066 164.028 146.087 163.816 148.949C163.71 153.667 163.392 158.251 162.862 162.703C153.375 158.516 143.039 155.919 131.856 154.912C120.196 153.905 108.959 154.806 98.1467 157.615C84.4723 163.022 70.0296 165.327 54.8178 164.532C52.9097 164.426 51.5316 164.32 50.6836 164.214C59.058 148.737 69.9232 137.024 83.2798 129.073C86.301 126.159 88.3147 121.945 89.3222 116.433C90.0107 112.246 89.8256 108.323 88.7653 104.667C87.0165 105.779 85.6384 106.548 84.6315 106.972C79.1719 109.463 73.7392 110.364 68.3331 109.675C64.8883 113.385 60.7275 116.195 55.8513 118.103C55.6393 118.208 54.6322 118.553 52.8302 119.136C49.3321 122.051 45.7545 123.932 42.0973 124.781C38.4932 125.629 35.4191 125.152 32.875 123.35C31.232 122.236 30.2249 120.593 29.8539 118.42H29.854ZM47.2651 110.311C41.8059 114.021 37.7513 116.406 35.1012 117.466C35.1012 118.208 35.3397 118.712 35.8167 118.977C39.2088 121.203 43.767 119.719 49.4912 114.524C50.3922 114.259 51.7967 113.809 53.7049 113.173C59.2172 110.947 63.351 107.846 66.1072 103.871C71.1422 105.356 76.4955 104.772 82.1666 102.122C88.7917 98.9949 93.0054 94.4899 94.8077 88.6067C95.2318 86.1159 96.345 85.0027 98.1467 85.2677C99.7369 85.5855 100.399 86.9901 100.135 89.4814C99.0214 93.9336 96.6364 97.8559 92.979 101.248C95.0991 106.071 95.6559 111.45 94.6485 117.387C93.4296 124.277 90.594 129.63 86.1418 133.446C75.8064 139.647 67.0348 148.26 59.8264 159.285C72.9709 159.391 85.1614 157.138 96.3979 152.527C107.846 149.506 119.824 148.499 132.333 149.506C136.202 149.877 139.965 150.433 143.623 151.175C145.106 137.183 143.225 122.978 137.978 108.562C133.366 95.8944 126.874 85.0821 118.5 76.1248C110.178 67.1147 101.194 60.7545 91.548 57.0443C90.2762 63.6165 87.2814 67.7244 82.5643 69.3669C81.4511 69.7911 80.2851 70.0031 79.0661 70.0031C77.9001 69.6324 76.8667 69.0227 75.9656 68.1744C72.7852 65.5774 71.2485 61.7085 71.3542 56.5673C68.3865 57.4155 65.4975 58.608 62.6884 60.1447C56.1694 63.9607 51.6643 68.6514 49.1732 74.2168C47.5831 77.715 45.4366 80.8155 42.7335 83.5189C41.3554 84.897 39.6064 86.3544 37.4863 87.8912C35.2602 89.4814 33.8291 90.5681 33.1931 91.1509C27.681 96.1329 24.3683 99.6311 23.2553 101.645C22.1952 103.606 22.6723 106.256 24.6863 109.596C27.5484 111.981 30.1456 112.961 32.4776 112.537C34.8097 112.113 38.8378 109.834 44.562 105.7C46.7351 104.375 48.3252 104.481 49.3322 106.018C50.1272 107.555 49.4382 108.986 47.2651 110.311Z" fill="#582233" />
    <path d="M55.2154 77.715C53.9963 77.3972 53.3603 76.7081 53.3073 75.6478C53.2014 72.9979 55.4804 70.7985 60.1447 69.0491C64.7027 67.3532 67.0877 67.8038 67.2998 70.4008C67.2998 70.8249 67.2204 71.2755 67.0612 71.7525C66.0544 71.5404 64.9412 71.5404 63.7222 71.7525C64.0401 72.3352 64.1993 72.8921 64.1993 73.422C64.1993 75.8599 62.9539 77.0788 60.4626 77.0788C59.0844 77.0788 57.9983 76.4432 57.2029 75.1708C56.0899 76.0191 55.4274 76.8667 55.2154 77.715ZM126.847 77.6357C130.292 81.0804 133.526 83.7309 136.547 85.5855C139.567 87.4406 141.476 87.9711 142.271 87.1757C143.066 86.3809 142.536 84.4993 140.681 81.531C138.826 78.5098 136.176 75.2507 132.73 71.7525C130.664 69.6853 128.649 67.9095 126.688 66.4256C124.462 67.5917 121.309 67.9095 117.227 67.3796C120.832 70.7715 124.038 74.1904 126.847 77.6357ZM142.748 105.938C144.656 109.754 146.564 112.802 148.472 115.081C150.38 117.361 151.811 118.261 152.765 117.784C153.772 117.307 153.905 115.346 153.163 111.901C152.474 108.456 151.095 104.507 149.029 100.055C147.703 97.2461 146.272 94.5433 144.735 91.9463C142.456 92.8468 139.356 92.3169 135.434 90.3561C138.19 95.2852 140.628 100.479 142.748 105.938ZM149.108 133.446C149.903 140.39 151.175 143.861 152.924 143.861C153.878 143.861 154.7 142.642 155.389 140.204C156.131 137.713 156.608 134.56 156.82 130.743C155.548 125.602 154.17 123.058 152.686 123.111C150.937 122.846 149.055 121.866 147.041 120.17C148.048 124.887 148.737 129.312 149.108 133.446ZM157.933 154.992C158.516 152.341 158.781 148.79 158.728 144.338C157.032 147.624 155.097 149.267 152.924 149.267C151.758 149.267 150.566 148.737 149.347 147.678C149.241 148.843 149.108 150.407 148.949 152.368C152.076 153.11 155.071 153.984 157.933 154.992ZM80.0201 64.5176C80.2851 64.5176 80.577 64.4383 80.8948 64.2791C83.5976 63.1659 85.347 60.6752 86.1418 56.8057C86.9901 52.8837 86.5924 48.617 84.9493 44.0059C84.6315 43.1579 84.3666 42.5218 84.1545 42.0978C83.8361 42.3098 83.3327 42.8398 82.6436 43.6879C79.4638 47.451 77.5823 51.3466 76.9989 55.3748C76.4162 59.3499 77.2639 62.2648 79.5431 64.1199C79.7023 64.2791 79.8615 64.4113 80.0201 64.5176ZM91.8664 51.7971C93.7209 52.4332 95.6824 53.2017 97.7496 54.1027C105.17 54.0497 108.986 53.0957 109.198 51.2406C109.251 50.1276 107.661 49.1205 104.428 48.2195C101.194 47.3185 96.822 47.0535 91.3095 47.4245C91.6807 48.8555 91.8664 50.3131 91.8664 51.7971ZM31.4441 99.4989C34.0942 99.4989 35.4192 100.347 35.4192 102.043C35.4192 103.739 34.0942 104.587 31.4441 104.587C28.847 104.587 27.5484 103.739 27.5484 102.043C27.5484 100.347 28.847 99.4989 31.4441 99.4989ZM106.018 58.2367C110.47 60.3568 114.445 61.7878 117.943 62.5297C121.441 63.2722 123.429 63.1131 123.906 62.0527C124.648 60.2511 121.414 57.2828 114.207 53.1487C113.041 55.4277 110.311 57.1236 106.018 58.2367ZM72.2289 50.8431C71.2749 49.624 70.1353 48.458 68.8106 47.345C68.3336 46.974 67.7767 46.5765 67.1406 46.1524C66.8756 46.7885 66.717 47.504 66.6636 48.299C66.3986 49.9951 66.2664 51.4791 66.2664 52.7512C67.5911 52.2211 69.579 51.5851 72.2289 50.8431ZM47.2651 110.311C41.806 114.021 37.7513 116.407 35.1012 117.466C35.1012 118.208 35.3397 118.712 35.8167 118.977C39.2088 121.203 43.767 119.719 49.4912 114.525C50.3922 114.26 51.7968 113.809 53.7049 113.173C59.2172 110.947 63.351 107.846 66.1073 103.871C71.1422 105.356 76.4955 104.772 82.1666 102.122C88.7923 98.9955 93.0054 94.4899 94.8077 88.6067C95.2318 86.1159 96.345 85.0027 98.1467 85.2677C99.7369 85.5855 100.4 86.9901 100.135 89.4814C99.0214 93.9336 96.6364 97.8559 92.979 101.248C95.0991 106.071 95.6559 111.45 94.6485 117.387C93.4296 124.277 90.594 129.63 86.1418 133.446C75.8064 139.647 67.0348 148.26 59.8264 159.285C72.9709 159.391 85.1614 157.138 96.3979 152.527C107.846 149.506 119.824 148.499 132.333 149.506C136.202 149.877 139.965 150.433 143.623 151.175C145.106 137.183 143.225 122.979 137.978 108.562C133.366 95.8944 126.874 85.0821 118.5 76.1248C110.178 67.1147 101.194 60.7545 91.548 57.0442C90.2762 63.6165 87.2814 67.7244 82.5643 69.3675C81.4511 69.7911 80.2851 70.0031 79.0661 70.0031C77.9001 69.6324 76.8668 69.0227 75.9656 68.1744C72.7853 65.5774 71.2485 61.7085 71.3543 56.5672C68.3865 57.4155 65.4975 58.608 62.6884 60.1447C56.1694 63.9613 51.6643 68.6514 49.1732 74.2168C47.5831 77.715 45.4366 80.8155 42.7335 83.5189C41.3555 84.897 39.6064 86.3544 37.4863 87.8912C35.2602 89.4814 33.8292 90.5681 33.1932 91.1509C27.681 96.1329 24.3683 99.6311 23.2553 101.645C22.1953 103.606 22.6723 106.256 24.6864 109.596C27.5484 111.981 30.1456 112.961 32.4776 112.537C34.8097 112.113 38.8379 109.834 44.562 105.7C46.7351 104.375 48.3252 104.481 49.3322 106.018C50.1272 107.555 49.4382 108.986 47.2651 110.311Z" fill="#DECE9C" />
  </g>
  <g id="wp" fill="none" transform="scale(0.2222222222222222 0.2222222222222222)">
    <path d="M97.4919 84.2147H88.0312C88.0312 92.0059 85.1428 98.5517 79.3654 103.852C73.8006 108.251 71.0179 113.948 71.0179 120.945C71.0179 126.934 73.1379 132.049 77.3781 136.289C81.6182 140.529 86.7594 142.649 92.8018 142.649C98.7379 142.649 103.826 140.529 108.066 136.289C112.359 132.049 114.506 126.934 114.506 120.945C114.506 113.948 111.723 108.251 106.158 103.852C100.381 98.5517 97.4919 92.0059 97.4919 84.2147ZM97.0948 62.9078C95.4517 63.3848 94.0208 63.6232 92.8018 63.6232C91.2645 63.6232 89.8335 63.3848 88.5083 62.9078C85.9641 67.4128 82.3866 70.8846 77.7758 73.3224C74.9132 74.9126 72.4224 76.7149 70.3024 78.7286H115.301C113.128 76.7149 110.636 74.9126 107.827 73.3224C103.269 70.9374 99.6919 67.4657 97.0948 62.9078ZM92.8018 44.7017C88.2433 44.7017 85.9641 46.9542 85.9641 51.4594C85.9641 56.0176 88.2433 58.2964 92.8018 58.2964C97.3069 58.2964 99.5591 56.0176 99.5591 51.4594C99.5591 46.9542 97.3069 44.7017 92.8018 44.7017ZM105.522 144.875C113.101 147.737 119.17 152.375 123.728 158.788V164.194H61.875V158.788C66.4864 152.216 72.5816 147.578 80.1608 144.875C75.8143 142.649 72.2897 139.416 69.5869 135.176C66.9369 130.883 65.6117 126.139 65.6117 120.945C65.6117 112.253 69.03 105.177 75.8678 99.7178C80.3728 95.4776 82.6251 90.3099 82.6251 84.2147H62.9882V78.7286C66.4329 74.4885 70.5409 71.1231 75.3109 68.6317C78.9148 66.6709 81.8038 63.7824 83.9768 59.9664C81.7509 57.5809 80.6377 54.7455 80.6377 51.4594C80.6377 48.1203 81.8038 45.2847 84.1359 42.9526C86.5209 40.5676 89.4094 39.375 92.8018 39.375C96.1408 39.375 98.9764 40.5676 101.309 42.9526C103.694 45.2847 104.886 48.1203 104.886 51.4594C104.886 54.6395 103.799 57.4751 101.626 59.9664C103.641 63.7296 106.555 66.618 110.371 68.6317C115.248 71.2288 119.329 74.5419 122.615 78.57V84.2147H102.978C102.872 90.3099 105.151 95.5305 109.815 99.8764C116.546 105.23 119.912 112.253 119.912 120.945C119.912 126.086 118.56 130.777 115.858 135.017C113.154 139.257 109.709 142.543 105.522 144.875ZM116.891 158.788C110.531 151.58 102.501 147.976 92.8018 147.976C83.1021 147.976 75.0459 151.58 68.6329 158.788H116.891Z" fill="#582233" />
    <path d="M97.4925 84.2147H88.0312C88.0312 92.0059 85.1428 98.5517 79.3654 103.852C73.8006 108.251 71.0179 113.948 71.0179 120.945C71.0179 126.934 73.1379 132.049 77.3781 136.289C81.6182 140.529 86.7594 142.649 92.8018 142.649C98.7379 142.649 103.826 140.529 108.066 136.289C112.359 132.049 114.506 126.934 114.506 120.945C114.506 113.948 111.723 108.251 106.158 103.852C100.381 98.5517 97.4925 92.0059 97.4925 84.2147ZM97.0948 62.9078C95.4517 63.3848 94.0208 63.6232 92.8018 63.6232C91.2645 63.6232 89.8335 63.3848 88.5083 62.9078C85.9646 67.4128 82.3866 70.8846 77.7758 73.3224C74.9138 74.9126 72.4224 76.7149 70.3024 78.7286H115.301C113.128 76.7149 110.637 74.9126 107.828 73.3224C103.269 70.9374 99.6919 67.4663 97.0948 62.9078ZM92.8018 44.7018C88.2433 44.7018 85.9646 46.9543 85.9646 51.4595C85.9646 56.0176 88.2433 58.2969 92.8018 58.2969C97.3069 58.2969 99.5591 56.0176 99.5591 51.4595C99.5591 46.9543 97.3069 44.7018 92.8018 44.7018ZM116.891 158.788C110.531 151.58 102.501 147.976 92.8018 147.976C83.1021 147.976 75.0459 151.58 68.6329 158.788H116.891Z" fill="#DECE9C" />
  </g>
  <g id="wq" fill="none" transform="scale(0.2222222222222222 0.2222222222222222)">
    <path d="M20.7108 72.3088C18.0608 72.3088 15.8082 71.3812 13.9531 69.5261C12.151 67.671 11.25 65.4188 11.25 62.7683C11.25 56.4615 14.4036 53.3077 20.7108 53.3077C23.3079 53.3077 25.534 54.2352 27.389 56.0902C29.2971 57.9454 30.2511 60.1712 30.2511 62.7683C30.2511 65.4188 29.2971 67.671 27.389 69.5261C25.534 71.3812 23.3079 72.3088 20.7108 72.3088ZM20.7108 66.9026C23.4669 66.9026 24.845 65.5245 24.845 62.7683C24.845 60.0126 23.4669 58.6344 20.7108 58.6344C17.9547 58.6344 16.5767 60.0126 16.5767 62.7683C16.5767 65.5245 17.9547 66.9026 20.7108 66.9026ZM154.196 72.3088C151.599 72.3088 149.372 71.3812 147.518 69.5261C145.663 67.671 144.735 65.4188 144.735 62.7683C144.735 60.1712 145.663 57.9454 147.518 56.0902C149.372 54.2352 151.599 53.3077 154.196 53.3077C156.793 53.3077 159.019 54.2352 160.874 56.0902C162.782 57.9454 163.736 60.1712 163.736 62.7683C163.736 65.4188 162.782 67.671 160.874 69.5261C159.019 71.3812 156.793 72.3088 154.196 72.3088ZM154.196 66.9026C156.952 66.9026 158.33 65.5245 158.33 62.7683C158.33 60.0126 156.952 58.6344 154.196 58.6344C151.492 58.6344 150.141 60.0126 150.141 62.7683C150.141 65.5245 151.492 66.9026 154.196 66.9026ZM53.3069 62.5297C50.6568 62.5297 48.4042 61.6022 46.5492 59.7476C44.6941 57.8925 43.7666 55.6397 43.7666 52.9896C43.7666 50.4456 44.6941 48.246 46.5492 46.391C48.4042 44.4828 50.6568 43.5288 53.3069 43.5288C55.904 43.5288 58.1299 44.4828 59.985 46.391C61.8401 48.246 62.7677 50.4456 62.7677 52.9896C62.7677 55.6397 61.8401 57.8925 59.985 59.7476C58.1299 61.6022 55.904 62.5297 53.3069 62.5297ZM53.3069 57.1236C56.063 57.1236 57.4408 55.7457 57.4408 52.9896C57.4408 50.2336 56.063 48.8555 53.3069 48.8555C50.5508 48.8555 49.1728 50.2336 49.1728 52.9896C49.1728 55.7457 50.5508 57.1236 53.3069 57.1236ZM121.679 62.5297C119.029 62.5297 116.777 61.6022 114.922 59.7476C113.066 57.8925 112.139 55.6397 112.139 52.9896C112.139 50.4456 113.066 48.246 114.922 46.391C116.777 44.4828 119.029 43.5288 121.679 43.5288C124.277 43.5288 126.502 44.4828 128.357 46.391C130.213 48.246 131.14 50.4456 131.14 52.9896C131.14 55.6397 130.213 57.8925 128.357 59.7476C126.502 61.6022 124.277 62.5297 121.679 62.5297ZM121.679 57.1236C124.435 57.1236 125.813 55.7457 125.813 52.9896C125.813 50.2336 124.435 48.8555 121.679 48.8555C118.923 48.8555 117.545 50.2336 117.545 52.9896C117.545 55.7457 118.923 57.1236 121.679 57.1236ZM123.746 153.64C118.552 152.633 112.881 151.679 106.733 150.778C100.585 149.824 94.1715 149.347 87.4929 149.347C80.7086 149.347 74.2427 149.824 68.0946 150.778C61.9464 151.679 56.3018 152.633 51.1603 153.64C61.92 156.608 74.0306 158.092 87.4929 158.092C100.902 158.092 112.987 156.608 123.746 153.64ZM138.772 121.203C139.726 123.058 140.203 124.993 140.203 127.007C140.203 130.134 139.196 132.784 137.183 134.957C137.341 135.54 137.421 136.149 137.421 136.785C137.421 139.966 136.44 142.616 134.479 144.736C134.691 145.478 134.797 146.299 134.797 147.2C134.797 152.872 132.438 156.396 127.721 157.774C115.69 161.803 102.281 163.816 87.4929 163.816C72.6525 163.816 59.2431 161.803 47.2647 157.774C42.5476 156.396 40.189 152.872 40.189 147.2C40.189 146.299 40.295 145.478 40.507 144.736C38.5459 142.616 37.5654 139.966 37.5654 136.785C37.5654 136.149 37.6449 135.54 37.8039 134.957C35.7898 132.89 34.7828 130.266 34.7828 127.086C34.7828 125.231 35.1538 123.509 35.8958 121.919L24.6859 71.6726L49.8088 100.85L54.9765 63.4044L71.1158 97.9881L87.4929 52.8306L103.871 97.9881L119.93 63.4044L125.098 100.85L150.3 71.5933L138.772 121.203ZM129.55 149.983C129.974 149.135 130.186 148.207 130.186 147.2C130.186 144.762 129.179 143.04 127.165 142.033C127.589 142.139 127.933 142.192 128.198 142.192C131.272 142.192 132.81 140.389 132.81 136.785C132.81 134.983 132.2 133.552 130.981 132.492C134.055 132.439 135.592 130.611 135.592 127.006C135.592 124.409 134.532 122.687 132.412 121.839C120.169 118.076 105.302 116.194 87.8113 116.194C70.1617 116.194 55.109 118.103 42.6536 121.919C40.4805 122.66 39.394 124.383 39.394 127.086C39.394 130.637 40.931 132.439 44.0051 132.492C42.7861 133.658 42.1765 135.089 42.1765 136.785C42.1765 140.389 43.6871 142.192 46.7082 142.192C46.8672 142.192 47.0527 142.192 47.2647 142.192C47.4767 142.139 47.6623 142.112 47.8212 142.112C45.8072 143.013 44.8001 144.709 44.8001 147.2C44.8001 148.207 45.0122 149.135 45.4362 149.983C51.3194 148.393 57.8121 147.014 64.9142 145.848C72.0698 144.629 79.596 144.02 87.4929 144.02C95.3904 144.02 102.917 144.629 110.072 145.848C117.227 147.068 123.72 148.446 129.55 149.983ZM87.4929 52.7511C84.843 52.7511 82.5902 51.8236 80.7356 49.9686C78.8805 48.1135 77.9529 45.8609 77.9529 43.2108C77.9529 40.6667 78.8805 38.4672 80.7356 36.6121C82.5902 34.7041 84.843 33.75 87.4929 33.75C90.09 33.75 92.3164 34.7041 94.1715 36.6121C96.0266 38.4672 96.9536 40.6667 96.9536 43.2108C96.9536 45.8609 96.0266 48.1135 94.1715 49.9686C92.3164 51.8236 90.09 52.7511 87.4929 52.7511ZM87.4929 47.3449C90.2492 47.3449 91.6273 45.9669 91.6273 43.2108C91.6273 40.5077 90.2492 39.1562 87.4929 39.1562C84.7373 39.1562 83.3591 40.5077 83.3591 43.2108C83.3591 45.9669 84.7373 47.3449 87.4929 47.3449ZM134.638 117.149L141.078 90.1176L129.391 103.871C128.066 105.09 126.688 105.7 125.257 105.7C122.077 105.7 120.275 104.163 119.851 101.089L117.068 82.3264L108.164 101.248C107.05 102.679 105.593 103.394 103.791 103.394C101.936 103.394 100.425 102.626 99.2593 101.089L87.4929 68.7313L75.7266 101.009C74.5605 102.599 73.0238 103.394 71.1158 103.394C69.3664 103.394 67.9354 102.732 66.8222 101.407L57.8385 82.3264L55.1355 101.009C54.5525 104.083 52.7239 105.621 49.6498 105.621C48.1657 105.621 46.8407 105.064 45.6747 103.951L33.8287 90.1176L40.348 117.149C53.7045 112.908 69.4193 110.788 87.4929 110.788C105.567 110.788 121.282 112.908 134.638 117.149Z" fill="#582233" />
    <path d="M20.7106 66.9026C23.4667 66.9026 24.8448 65.5245 24.8448 62.7683C24.8448 60.0126 23.4667 58.6344 20.7106 58.6344C17.9546 58.6344 16.5765 60.0126 16.5765 62.7683C16.5765 65.5245 17.9546 66.9026 20.7106 66.9026ZM154.196 66.9026C156.952 66.9026 158.33 65.5245 158.33 62.7683C158.33 60.0126 156.952 58.6344 154.196 58.6344C151.492 58.6344 150.141 60.0126 150.141 62.7683C150.141 65.5245 151.492 66.9026 154.196 66.9026ZM53.3067 57.1236C56.0628 57.1236 57.4408 55.7457 57.4408 52.9896C57.4408 50.2335 56.0628 48.8554 53.3067 48.8554C50.5506 48.8554 49.1726 50.2335 49.1726 52.9896C49.1726 55.7457 50.5506 57.1236 53.3067 57.1236ZM121.679 57.1236C124.435 57.1236 125.813 55.7457 125.813 52.9896C125.813 50.2335 124.435 48.8554 121.679 48.8554C118.923 48.8554 117.545 50.2335 117.545 52.9896C117.545 55.7457 118.923 57.1236 121.679 57.1236ZM123.746 153.64C118.552 152.633 112.881 151.679 106.733 150.778C100.585 149.824 94.1709 149.347 87.4929 149.347C80.7086 149.347 74.2427 149.824 68.094 150.778C61.9459 151.679 56.3012 152.633 51.1602 153.64C61.9194 156.608 74.0306 158.092 87.4929 158.092C100.902 158.092 112.987 156.608 123.746 153.64ZM129.55 149.983C129.974 149.135 130.186 148.207 130.186 147.2C130.186 144.762 129.179 143.04 127.165 142.032C127.588 142.139 127.933 142.192 128.198 142.192C131.272 142.192 132.81 140.389 132.81 136.785C132.81 134.983 132.2 133.552 130.981 132.492C134.055 132.439 135.592 130.611 135.592 127.006C135.592 124.409 134.532 122.687 132.412 121.839C120.169 118.076 105.302 116.194 87.8107 116.194C70.1612 116.194 55.1088 118.102 42.6534 121.919C40.4803 122.66 39.3937 124.383 39.3937 127.086C39.3937 130.637 40.9308 132.439 44.0049 132.492C42.7859 133.658 42.1764 135.089 42.1764 136.785C42.1764 140.389 43.6869 142.192 46.708 142.192C46.867 142.192 47.0525 142.192 47.2645 142.192C47.4765 142.139 47.662 142.112 47.8211 142.112C45.807 143.013 44.7999 144.709 44.7999 147.2C44.7999 148.207 45.0119 149.135 45.4359 149.983C51.3192 148.393 57.8121 147.014 64.9142 145.848C72.0692 144.629 79.5954 144.02 87.4929 144.02C95.3899 144.02 102.916 144.629 110.072 145.848C117.227 147.068 123.72 148.446 129.55 149.983ZM87.4929 47.3449C90.2492 47.3449 91.6267 45.9669 91.6267 43.2107C91.6267 40.5077 90.2492 39.1561 87.4929 39.1561C84.7367 39.1561 83.3586 40.5077 83.3586 43.2107C83.3586 45.9669 84.7367 47.3449 87.4929 47.3449ZM134.638 117.149L141.078 90.1176L129.391 103.871C128.065 105.09 126.688 105.7 125.256 105.7C122.077 105.7 120.274 104.163 119.851 101.089L117.068 82.3258L108.164 101.248C107.05 102.679 105.593 103.394 103.791 103.394C101.936 103.394 100.425 102.626 99.2593 101.089L87.4929 68.7313L75.7266 101.009C74.5605 102.599 73.0232 103.394 71.1152 103.394C69.3664 103.394 67.9354 102.732 66.8222 101.407L57.8385 82.3258L55.1353 101.009C54.5523 104.083 52.7237 105.621 49.6496 105.621C48.1655 105.621 46.8405 105.064 45.6744 103.951L33.8286 90.1176L40.3478 117.149C53.7042 112.908 69.4193 110.788 87.4929 110.788C105.567 110.788 121.282 112.908 134.638 117.149Z" fill="#DECE9C" />
  </g>
  <g id="wr" fill="none" transform="scale(0.2222222222222222 0.2222222222222222)">
    <path d="M126.411 149.188C126.411 146.644 125.483 144.444 123.628 142.589C121.773 140.681 119.547 139.727 116.95 139.727H60.1853C57.5348 139.727 55.2823 140.681 53.4273 142.589C51.6252 144.444 50.7242 146.644 50.7242 149.188V149.267V158.728H126.411V149.188ZM114.406 63.6429L119.733 120.726C122.33 120.726 124.555 121.654 126.411 123.509C128.319 125.364 129.273 127.59 129.273 130.187C129.273 132.996 128.213 135.354 126.093 137.262C130.068 140.39 132.055 144.391 132.055 149.267V164.135H45V149.267C45 144.338 47.0141 140.363 51.0422 137.342C48.9221 135.487 47.8621 133.102 47.8621 130.187C47.8621 127.59 48.7896 125.364 50.6447 123.509C52.4998 121.654 54.7258 120.726 57.3227 120.726L62.8088 63.6429L49.2932 55.6132V33.75H65.5116V41.8593H79.1066V33.75H98.0286V41.8593H111.623V33.75H128.001V55.6132L114.406 63.6429ZM88.5673 58.3161H112.975L122.435 52.5921V39.1562H117.109V47.3449H92.6224V39.1562H88.5673H84.4335V47.3449H60.0261V39.1562H54.6198V52.5921L64.0806 58.3161H88.5673ZM108.841 63.6429L68.0557 63.7228L61.6956 126.053L57.3227 126.132C54.6198 126.132 53.2683 127.484 53.2683 130.187C53.2683 132.943 54.6198 134.321 57.3227 134.321H119.733C122.489 134.321 123.866 132.943 123.866 130.187C123.866 127.484 122.489 126.132 119.733 126.132H115.44L108.841 63.6429Z" fill="#582233" />
    <path d="M126.411 149.188C126.411 146.644 125.484 144.444 123.628 142.589C121.773 140.681 119.547 139.727 116.95 139.727H60.1853C57.5353 139.727 55.2826 140.681 53.4275 142.589C51.6254 144.444 50.7244 146.644 50.7244 149.188V149.267V158.728H126.411V149.188ZM88.5679 58.3161H112.975L122.436 52.5921V39.1561H117.109V47.3449H92.6224V39.1561H88.5679H84.4335V47.3449H60.0261V39.1561H54.62V52.5921L64.0806 58.3161H88.5679ZM108.841 63.6429L68.0558 63.7222L61.6956 126.053L57.3233 126.132C54.62 126.132 53.2685 127.484 53.2685 130.187C53.2685 132.943 54.62 134.321 57.3233 134.321H119.733C122.489 134.321 123.867 132.943 123.867 130.187C123.867 127.484 122.489 126.132 119.733 126.132H115.44L108.841 63.6429Z" fill="#DECE9C" />
  </g>
</svg>