<svg xmlns="http://www.w3.org/2000/svg" width="40" height="40" viewbox="0.0 0.0 256.0 256.0">
  <g id="bb" fill="none" transform="scale(0.15625 0.15625)">
    <path fill-rule="evenodd" clip-rule="evenodd" d="M114.388 54.6323C114.757 47.6008 120.586 42 127.711 42C134.836 42 140.665 47.5993 141.034 54.6323C149.192 57.0849 156.531 61.7355 162.501 67.9661L123.918 106.549C122.93 107.538 122.376 108.878 122.376 110.275C122.376 111.673 122.931 113.012 123.918 114C123.918 114 123.918 114.002 123.92 114.002C126.029 116.11 129.451 116.11 131.561 114.002L169.145 76.421C174.983 85.5537 178.414 96.6925 178.414 108.713C178.414 121.839 174.322 133.916 167.471 143.473L194.425 212.786V234.134H61V212.786L87.9546 143.473C81.1045 133.916 77.011 121.839 77.011 108.713C77.011 82.8806 92.8582 61.1064 114.39 54.6334L114.388 54.6323Z" fill="url(#bbpaint0_angular_1_58)" stroke="black" stroke-width="5" />
    <defs>
      <radialGradient id="bbpaint0_angular_1_58" cx="0" cy="0" r="1" gradientUnits="userSpaceOnUse" gradientTransform="translate(127.713 138.067) rotate(90) scale(96.0669 66.7127)">
        <stop stop-color="#777777" />
        <stop offset="1" stop-color="#5A5A5A" />
      </radialGradient>
    </defs>
  </g>
  <g id="bk" fill="none" transform="scale(0.15625 0.15625)">
    <path fill-rule="evenodd" clip-rule="evenodd" d="M135.718 60.6795H154.398V76.6906H135.718V88.4903L152.295 107.395C154.062 109.414 157.056 109.803 159.285 108.306C164.692 104.674 174.705 97.9462 182.666 92.5989C184.511 91.3615 186.929 91.3927 188.737 92.6823C190.548 93.9719 191.37 96.2473 190.801 98.3944C184.089 123.747 170.409 175.427 170.409 175.427L194.425 212.728V234.134H61V212.728L85.0166 175.427C85.0166 175.427 71.3359 123.745 64.6246 98.3944C64.0572 96.2471 64.8792 93.9716 66.6885 92.6823C68.4963 91.3927 70.9162 91.3615 72.7598 92.5989C80.7207 97.9462 90.7322 104.676 96.1405 108.306C98.3697 109.803 101.363 109.414 103.13 107.395L119.707 88.4903V76.6906H101.028V60.6795H119.707V42H135.718L135.718 60.6795Z" fill="url(#bkpaint0_angular_1_51)" stroke="black" stroke-width="5" />
    <defs>
      <radialGradient id="bkpaint0_angular_1_51" cx="0" cy="0" r="1" gradientUnits="userSpaceOnUse" gradientTransform="translate(127.713 138.067) rotate(90) scale(96.0669 66.7127)">
        <stop stop-color="#777777" />
        <stop offset="1" stop-color="#5A5A5A" />
      </radialGradient>
    </defs>
  </g>
  <g id="bn" fill="none" transform="scale(0.15625 0.15625)">
    <path fill-rule="evenodd" clip-rule="evenodd" d="M82.3469 42H98.5649C151.508 42 194.425 84.9172 194.425 137.86V170.089H173.077L194.425 191.437V234.134H61V212.786C61 212.786 119.707 180.763 119.707 154.753V154.08C119.707 146.718 113.727 140.738 106.365 140.738C99.0026 140.738 93.0221 146.718 93.0221 154.08V159.417H61V42.0028L82.348 63.3509L82.3469 42ZM87.6839 90.0331C93.5764 90.0331 98.3579 94.8147 98.3579 100.707C98.3579 106.6 93.5764 111.381 87.6839 111.381C81.7915 111.381 77.0099 106.6 77.0099 100.707C77.0099 94.8147 81.7915 90.0331 87.6839 90.0331Z" fill="url(#bnpaint0_angular_1_59)" stroke="black" stroke-width="5" />
    <defs>
      <radialGradient id="bnpaint0_angular_1_59" cx="0" cy="0" r="1" gradientUnits="userSpaceOnUse" gradientTransform="translate(127.713 138.067) rotate(90) scale(96.0668 66.7127)">
        <stop stop-color="#777777" />
        <stop offset="1" stop-color="#5A5A5A" />
      </radialGradient>
    </defs>
  </g>
  <g id="bp" fill="none" transform="scale(0.15625 0.15625)">
    <path fill-rule="evenodd" clip-rule="evenodd" d="M110.181 108.831C105.166 104.099 102.032 97.3906 102.032 89.955C102.032 75.6292 113.661 64 127.987 64C142.313 64 153.942 75.6292 153.942 89.955C153.942 97.3906 150.808 104.099 145.793 108.831H149.223C154.435 108.831 158.661 113.058 158.661 118.27C158.661 123.481 154.435 127.708 149.223 127.708H142.139C151.682 176.186 186.977 215.011 186.977 215.011V233.887H69V215.011C69 215.011 104.154 175.66 113.781 127.708H106.753C101.542 127.708 97.3152 123.481 97.3152 118.27C97.3152 115.766 98.3106 113.366 100.079 111.595C101.85 109.827 104.25 108.831 106.753 108.831L110.181 108.831Z" fill="url(#bppaint0_angular_1_60)" stroke="black" stroke-width="4.42109" />
    <defs>
      <radialGradient id="bppaint0_angular_1_60" cx="0" cy="0" r="1" gradientUnits="userSpaceOnUse" gradientTransform="translate(127.989 148.944) rotate(90) scale(84.9436 58.9886)">
        <stop stop-color="#777777" />
        <stop offset="1" stop-color="#5A5A5A" />
      </radialGradient>
    </defs>
  </g>
  <g id="bq" fill="none" transform="scale(0.15625 0.15625)">
    <path fill-rule="evenodd" clip-rule="evenodd" d="M126.897 55.2934C123.601 54.8898 121.043 52.0769 121.043 48.6713C121.043 44.9887 124.033 42 127.714 42C131.397 42 134.386 44.9887 134.386 48.6713C134.386 52.0769 131.83 54.8896 128.535 55.2934L141.057 95.3705L156.444 64.5977C153.269 64.0854 150.842 61.3291 150.842 58.0114C150.842 54.3288 153.832 51.3402 157.513 51.3402C161.196 51.3402 164.185 54.3288 164.185 58.0114C164.185 61.694 161.196 64.6827 157.513 64.6827C157.439 64.6827 157.364 64.6812 157.288 64.6782L162.404 95.3706L182.413 70.3595C180.513 69.1831 179.245 67.0804 179.245 64.6828C179.245 61.0002 182.234 58.0115 185.917 58.0115C189.599 58.0115 192.588 61.0002 192.588 64.6828C192.588 68.3654 189.599 71.3541 185.917 71.3541C185.066 71.3541 184.253 71.1932 183.506 70.9043L173.037 164.752C167.74 199.279 194.425 212.785 194.425 212.785V234.133H61V212.785C61 212.785 87.6851 199.279 82.3911 164.752L71.9226 70.9043C71.175 71.1947 70.362 71.3541 69.5117 71.3541C65.8291 71.3541 62.8404 68.3654 62.8404 64.6828C62.8404 61.0002 65.8291 58.0115 69.5117 58.0115C73.1943 58.0115 76.183 61.0002 76.183 64.6828C76.183 67.0803 74.9142 69.183 73.0156 70.3595L93.0233 95.3706L98.14 64.6782C98.0655 64.6797 97.9911 64.6827 97.9151 64.6827C94.2325 64.6827 91.2438 61.694 91.2438 58.0114C91.2438 54.3288 94.2325 51.3402 97.9151 51.3402C101.596 51.3402 104.586 54.3288 104.586 58.0114C104.586 61.3292 102.159 64.0857 98.9844 64.5977L114.37 95.3705L126.895 55.2934H126.897Z" fill="url(#bqpaint0_angular_1_52)" stroke="black" stroke-width="5" />
    <defs>
      <radialGradient id="bqpaint0_angular_1_52" cx="0" cy="0" r="1" gradientUnits="userSpaceOnUse" gradientTransform="translate(127.713 138.067) rotate(90) scale(96.0665 66.7127)">
        <stop stop-color="#777777" />
        <stop offset="1" stop-color="#5A5A5A" />
      </radialGradient>
    </defs>
  </g>
  <g id="br" fill="none" transform="scale(0.15625 0.15625)">
    <path fill-rule="evenodd" clip-rule="evenodd" d="M194.425 42V116.718C194.425 122.612 189.645 127.392 183.751 127.392H173.077L194.425 212.784V234.132H61V212.784L82.348 127.392H71.674C65.7801 127.392 61 122.612 61 116.718V42H82.348V68.6851H109.033V42H146.392V68.6851H173.077V42H194.425Z" fill="url(#brpaint0_angular_1_57)" stroke="black" stroke-width="5" />
    <defs>
      <radialGradient id="brpaint0_angular_1_57" cx="0" cy="0" r="1" gradientUnits="userSpaceOnUse" gradientTransform="translate(127.713 138.066) rotate(90) scale(96.0662 66.7127)">
        <stop stop-color="#777777" />
        <stop offset="1" stop-color="#5A5A5A" />
      </radialGradient>
    </defs>
  </g>
  <g id="wb" fill="none" transform="scale(0.15625 0.15625)">
    <path fill-rule="evenodd" clip-rule="evenodd" d="M114.388 54.6323C114.757 47.6008 120.586 42 127.711 42C134.836 42 140.665 47.5993 141.034 54.6323C149.192 57.0849 156.531 61.7355 162.501 67.9661L123.918 106.549C122.93 107.538 122.376 108.878 122.376 110.275C122.376 111.673 122.931 113.012 123.918 114C123.918 114 123.918 114.002 123.92 114.002C126.029 116.11 129.451 116.11 131.561 114.002L169.145 76.421C174.983 85.5537 178.414 96.6925 178.414 108.713C178.414 121.839 174.322 133.916 167.471 143.473L194.425 212.786V234.134H61V212.786L87.9546 143.473C81.1045 133.916 77.011 121.839 77.011 108.713C77.011 82.8806 92.8582 61.1064 114.39 54.6334L114.388 54.6323Z" fill="url(#wbpaint0_angular_1_82)" stroke="black" stroke-width="5" />
    <defs>
      <radialGradient id="wbpaint0_angular_1_82" cx="0" cy="0" r="1" gradientUnits="userSpaceOnUse" gradientTransform="translate(127.713 138.067) rotate(90) scale(96.0669 66.7127)">
        <stop stop-color="white" />
        <stop offset="1" stop-color="#D7D7D7" />
      </radialGradient>
    </defs>
  </g>
  <g id="wk" fill="none" transform="scale(0.15625 0.15625)">
    <path fill-rule="evenodd" clip-rule="evenodd" d="M135.718 60.6795H154.398V76.6906H135.718V88.4903L152.295 107.395C154.062 109.414 157.056 109.803 159.285 108.306C164.692 104.674 174.705 97.9462 182.666 92.5989C184.511 91.3615 186.929 91.3927 188.737 92.6823C190.548 93.9719 191.37 96.2473 190.801 98.3944C184.089 123.747 170.409 175.427 170.409 175.427L194.425 212.728V234.134H61V212.728L85.0166 175.427C85.0166 175.427 71.3359 123.745 64.6246 98.3944C64.0572 96.2471 64.8792 93.9716 66.6885 92.6823C68.4963 91.3927 70.9162 91.3615 72.7598 92.5989C80.7207 97.9462 90.7322 104.676 96.1405 108.306C98.3697 109.803 101.363 109.414 103.13 107.395L119.707 88.4903V76.6906H101.028V60.6795H119.707V42H135.718L135.718 60.6795Z" fill="url(#wkpaint0_angular_1_61)" stroke="black" stroke-width="5" />
    <defs>
      <radialGradient id="wkpaint0_angular_1_61" cx="0" cy="0" r="1" gradientUnits="userSpaceOnUse" gradientTransform="translate(127.713 138.067) rotate(90) scale(96.0669 66.7127)">
        <stop stop-color="white" />
        <stop offset="1" stop-color="#D7D7D7" />
      </radialGradient>
    </defs>
  </g>
  <g id="wn" fill="none" transform="scale(0.15625 0.15625)">
    <path fill-rule="evenodd" clip-rule="evenodd" d="M82.3469 42H98.5649C151.508 42 194.425 84.9172 194.425 137.86V170.089H173.077L194.425 191.437V234.134H61V212.786C61 212.786 119.707 180.763 119.707 154.753V154.08C119.707 146.718 113.727 140.738 106.365 140.738C99.0026 140.738 93.0221 146.718 93.0221 154.08V159.417H61V42.0028L82.348 63.3509L82.3469 42ZM87.6839 90.0331C93.5764 90.0331 98.3579 94.8147 98.3579 100.707C98.3579 106.6 93.5764 111.381 87.6839 111.381C81.7915 111.381 77.0099 106.6 77.0099 100.707C77.0099 94.8147 81.7915 90.0331 87.6839 90.0331Z" fill="url(#wnpaint0_angular_1_83)" stroke="black" stroke-width="5" />
    <defs>
      <radialGradient id="wnpaint0_angular_1_83" cx="0" cy="0" r="1" gradientUnits="userSpaceOnUse" gradientTransform="translate(127.713 138.067) rotate(90) scale(96.0668 66.7127)">
        <stop stop-color="white" />
        <stop offset="1" stop-color="#D7D7D7" />
      </radialGradient>
    </defs>
  </g>
  <g id="wp" fill="none" transform="scale(0.15625 0.15625)">
    <path fill-rule="evenodd" clip-rule="evenodd" d="M110.181 108.831C105.166 104.099 102.032 97.3906 102.032 89.955C102.032 75.6292 113.661 64 127.987 64C142.313 64 153.942 75.6292 153.942 89.955C153.942 97.3906 150.808 104.099 145.793 108.831H149.223C154.435 108.831 158.661 113.058 158.661 118.27C158.661 123.481 154.435 127.708 149.223 127.708H142.139C151.682 176.186 186.977 215.011 186.977 215.011V233.887H69V215.011C69 215.011 104.154 175.66 113.781 127.708H106.753C101.542 127.708 97.3152 123.481 97.3152 118.27C97.3152 115.766 98.3106 113.366 100.079 111.595C101.85 109.827 104.25 108.831 106.753 108.831L110.181 108.831Z" fill="url(#wppaint0_angular_1_84)" stroke="black" stroke-width="4.42109" />
    <defs>
      <radialGradient id="wppaint0_angular_1_84" cx="0" cy="0" r="1" gradientUnits="userSpaceOnUse" gradientTransform="translate(127.989 148.944) rotate(90) scale(84.9436 58.9886)">
        <stop stop-color="white" />
        <stop offset="1" stop-color="#D7D7D7" />
      </radialGradient>
    </defs>
  </g>
  <g id="wq" fill="none" transform="scale(0.15625 0.15625)">
    <path fill-rule="evenodd" clip-rule="evenodd" d="M126.897 55.2934C123.601 54.8898 121.043 52.0769 121.043 48.6713C121.043 44.9887 124.033 42 127.714 42C131.397 42 134.386 44.9887 134.386 48.6713C134.386 52.0769 131.83 54.8896 128.535 55.2934L141.057 95.3705L156.444 64.5977C153.269 64.0854 150.842 61.3291 150.842 58.0114C150.842 54.3288 153.832 51.3402 157.513 51.3402C161.196 51.3402 164.185 54.3288 164.185 58.0114C164.185 61.694 161.196 64.6827 157.513 64.6827C157.439 64.6827 157.364 64.6812 157.288 64.6782L162.404 95.3706L182.413 70.3595C180.513 69.1831 179.245 67.0804 179.245 64.6828C179.245 61.0002 182.234 58.0115 185.917 58.0115C189.599 58.0115 192.588 61.0002 192.588 64.6828C192.588 68.3654 189.599 71.3541 185.917 71.3541C185.066 71.3541 184.253 71.1932 183.506 70.9043L173.037 164.752C167.74 199.279 194.425 212.785 194.425 212.785V234.133H61V212.785C61 212.785 87.6851 199.279 82.3911 164.752L71.9226 70.9043C71.175 71.1947 70.362 71.3541 69.5117 71.3541C65.8291 71.3541 62.8404 68.3654 62.8404 64.6828C62.8404 61.0002 65.8291 58.0115 69.5117 58.0115C73.1943 58.0115 76.183 61.0002 76.183 64.6828C76.183 67.0803 74.9142 69.183 73.0156 70.3595L93.0233 95.3706L98.14 64.6782C98.0655 64.6797 97.9911 64.6827 97.9151 64.6827C94.2325 64.6827 91.2438 61.694 91.2438 58.0114C91.2438 54.3288 94.2325 51.3402 97.9151 51.3402C101.596 51.3402 104.586 54.3288 104.586 58.0114C104.586 61.3292 102.159 64.0857 98.9844 64.5977L114.37 95.3705L126.895 55.2934H126.897Z" fill="url(#wqpaint0_angular_1_80)" stroke="black" stroke-width="5" />
    <defs>
      <radialGradient id="wqpaint0_angular_1_80" cx="0" cy="0" r="1" gradientUnits="userSpaceOnUse" gradientTransform="translate(127.713 138.067) rotate(90) scale(96.0665 66.7127)">
        <stop stop-color="white" />
        <stop offset="1" stop-color="#D7D7D7" />
      </radialGradient>
    </defs>
  </g>
  <g id="wr" fill="none" transform="scale(0.15625 0.15625)">
    <path fill-rule="evenodd" clip-rule="evenodd" d="M194.425 42V116.718C194.425 122.612 189.645 127.392 183.751 127.392H173.077L194.425 212.784V234.132H61V212.784L82.348 127.392H71.674C65.7801 127.392 61 122.612 61 116.718V42H82.348V68.6851H109.033V42H146.392V68.6851H173.077V42H194.425Z" fill="url(#wrpaint0_angular_1_81)" stroke="black" stroke-width="5" />
    <defs>
      <radialGradient id="wrpaint0_angular_1_81" cx="0" cy="0" r="1" gradientUnits="userSpaceOnUse" gradientTransform="translate(127.713 138.066) rotate(90) scale(96.0662 66.7127)">
        <stop stop-color="white" />
        <stop offset="1" stop-color="#D7D7D7" />
      </radialGradient>
    </defs>
  </g>
</svg>