<svg xmlns="http://www.w3.org/2000/svg" width="40" height="40" viewbox="0.0 0.0 50.0 50.0">
  <g id="bb" fill="none" transform="scale(0.8 0.8)">
    <path d="M24.704 11.7763C26.0921 11.7763 27.2173 10.6462 27.2173 9.25211C27.2173 7.85803 26.0921 6.72791 24.704 6.72791C23.3159 6.72791 22.1907 7.85803 22.1907 9.25211C22.1907 10.6462 23.3159 11.7763 24.704 11.7763Z" fill="#CBA687" stroke="black" stroke-width="1.2" stroke-linecap="round" stroke-linejoin="round" />
    <path opacity="0.2" fill-rule="evenodd" clip-rule="evenodd" d="M24.704 6.7281C24.4034 6.72854 24.1054 6.78312 23.824 6.88926C24.3042 7.06851 24.7184 7.39087 25.0111 7.81314C25.3038 8.23541 25.461 8.73744 25.4617 9.25196C25.4613 9.766 25.3047 10.2677 25.0127 10.6899C24.7208 11.1121 24.3075 11.4348 23.828 11.6147C24.1081 11.7205 24.4047 11.7753 24.704 11.7765C25.034 11.7764 25.3609 11.7111 25.6658 11.5842C25.9707 11.4573 26.2478 11.2714 26.4811 11.037C26.7145 10.8025 26.8996 10.5242 27.0259 10.218C27.1522 9.9117 27.2171 9.58345 27.2171 9.25196C27.217 8.58259 26.9522 7.94065 26.4809 7.46734C26.0096 6.99404 25.3705 6.72811 24.704 6.72806L24.704 6.7281Z" fill="black" />
    <path fill-rule="evenodd" clip-rule="evenodd" d="M18.771 38.045C18.771 38.045 5.311 12.245 25.0007 11.829C44.6907 12.2451 31.2305 38.045 31.2305 38.045H18.771Z" fill="url(#bbpaint0_linear_1_383)" stroke="black" stroke-width="1.2" stroke-linejoin="round" />
    <path opacity="0.2" fill-rule="evenodd" clip-rule="evenodd" d="M24.704 11.829C24.1267 11.8412 23.5812 11.8772 23.0615 11.9318C39.2845 11.3465 32.8883 34.8368 23.9706 38.0448L31.2302 38.0439C40.1917 20.2759 36.9003 12.5509 24.7039 11.8289L24.704 11.829Z" fill="black" />
    <path fill-rule="evenodd" clip-rule="evenodd" d="M25 36.457C25 36.457 16.4221 36.5051 14.017 38.0762C12.3943 39.1364 12.0115 41.7276 12.2322 44.3999H37.7682C37.9889 41.7276 37.6061 39.1363 35.9834 38.0762C33.5787 36.5051 25.0004 36.457 25.0004 36.457H25Z" fill="url(#bbpaint1_linear_1_383)" stroke="black" stroke-width="1.2" stroke-linejoin="round" />
    <path opacity="0.2" fill-rule="evenodd" clip-rule="evenodd" d="M25 36.457C25 36.457 16.4218 36.5049 14.017 38.076C12.3943 39.1362 12.0116 40.669 12.2324 43.3413H12.3164C12.544 41.9614 13.0667 40.8135 14.017 40.1927C16.4221 38.6216 25 38.5737 25 38.5737C25 38.5737 33.5785 38.6216 35.983 40.1927C36.9333 40.8135 37.4559 41.9615 37.6836 43.3413H37.7676C37.9883 40.669 37.6057 39.1361 35.983 38.076C33.5783 36.5049 25 36.457 25 36.457H25Z" fill="black" />
    <path opacity="0.25" fill-rule="evenodd" clip-rule="evenodd" d="M17.743 34.208C17.743 34.208 13.0565 18.405 20.4792 13.114C15.3562 14.1353 12.5716 22.016 17.743 34.208Z" fill="white" />
    <path fill-rule="evenodd" clip-rule="evenodd" d="M24.543 7.3443C23.6964 7.28183 21.7271 8.836 23.4695 10.7423C23.0529 9.2482 23.3452 8.0876 24.543 7.3443V7.3443Z" fill="white" />
    <defs>
      <linearGradient id="bbpaint0_linear_1_383" x1="13.6671" y1="24.9291" x2="36.3998" y2="24.9291" gradientUnits="userSpaceOnUse">
        <stop stop-color="#AC552A" />
        <stop offset="1" stop-color="#171717" />
      </linearGradient>
      <linearGradient id="bbpaint1_linear_1_383" x1="11.574" y1="40.43" x2="38.425" y2="40.43" gradientUnits="userSpaceOnUse">
        <stop stop-color="#AC552A" />
        <stop offset="1" stop-color="#171717" />
      </linearGradient>
    </defs>
  </g>
  <g id="bk" fill="none" transform="scale(0.8 0.8)">
    <path fill-rule="evenodd" clip-rule="evenodd" d="M22.968 12.421H28.4397H22.968ZM25.0027 3.1922C25.0027 3.1922 21.2405 7.294 21.2132 9.21C21.2148 10.5279 21.8786 11.7331 22.968 12.4209H21.563C20.8072 12.4209 20.199 13.2129 20.199 14.1964C20.199 15.1798 20.8072 15.9713 21.563 15.9713H28.4397C29.1954 15.9713 29.8037 15.1798 29.8037 14.1964C29.8037 13.2129 29.1955 12.4209 28.4397 12.4209H27.0374C28.1268 11.733 28.7904 10.5278 28.7922 9.21C28.765 7.294 25.0027 3.1922 25.0027 3.1922V3.1922Z" fill="url(#bkpaint0_linear_1_401)" stroke="black" stroke-width="1.2" stroke-linejoin="round" />
    <path opacity="0.2" fill-rule="evenodd" clip-rule="evenodd" d="M25.003 3.192C25.003 3.192 25.5267 2.55937 25.003 3.192C25.0686 6.4262 29.2181 10.1378 25.1889 13.135H26.5912C27.347 13.135 27.9552 13.2129 27.9552 14.1963C27.9553 15.1798 27.347 15.9712 26.5912 15.9712H25.0273C24.73 16.0775 24.4114 16.1603 24.0786 16.2167C24.3762 16.2671 24.685 16.2967 25.003 16.2967C25.6764 16.2967 26.3129 16.1726 26.8761 15.9713H28.44C29.1957 15.9713 29.804 15.1798 29.8039 14.1964C29.8039 13.2129 29.1868 12.2707 28.44 12.4209L27.0377 12.7029C28.1271 12.015 28.7907 10.5279 28.7925 9.20998C28.7653 7.29398 25.003 3.19218 25.003 3.19218L25.003 3.192Z" fill="black" />
    <path fill-rule="evenodd" clip-rule="evenodd" d="M39.886 20.265C38.5039 17.1285 32.5057 14.9297 25 14.9297C17.4947 14.9297 11.496 17.1285 10.114 20.265C8.7321 23.4008 17.7283 37.515 17.7283 37.515H32.2713C32.2713 37.515 41.2676 23.401 39.8855 20.265H39.886Z" fill="url(#bkpaint1_linear_1_401)" stroke="black" stroke-width="1.2" stroke-linejoin="round" />
    <path opacity="0.2" fill-rule="evenodd" clip-rule="evenodd" d="M27.739 14.984C42.488 19.2358 30.0088 36.31 23.5773 37.446L32.2707 37.5158C32.2707 37.5158 41.2676 22.3228 39.8856 19.1868C38.8453 16.4866 33.5957 15.156 27.7386 14.9836L27.739 14.984Z" fill="black" />
    <path fill-rule="evenodd" clip-rule="evenodd" d="M25 36.457C25 36.457 16.4221 36.5051 14.017 38.0762C12.3943 39.1364 12.0115 41.7276 12.2322 44.3999H37.7682C37.9889 41.7276 37.6061 39.1363 35.9834 38.0762C33.5787 36.5051 25.0004 36.457 25.0004 36.457H25Z" fill="url(#bkpaint2_linear_1_401)" stroke="black" stroke-width="1.2" stroke-linejoin="round" />
    <path opacity="0.2" fill-rule="evenodd" clip-rule="evenodd" d="M25 36.457C25 36.457 16.4218 36.5049 14.017 38.076C12.3943 39.1362 12.0116 40.669 12.2324 43.3413H12.3164C12.544 41.9614 13.0667 40.8135 14.017 40.1927C16.4221 38.6216 25 38.5737 25 38.5737C25 38.5737 33.5785 38.6216 35.983 40.1927C36.9333 40.8135 37.4559 41.9615 37.6836 43.3413H37.7676C37.9883 40.669 37.6057 39.1361 35.983 38.076C33.5783 36.5049 25 36.457 25 36.457H25Z" fill="black" />
    <path opacity="0.25" fill-rule="evenodd" clip-rule="evenodd" d="M23.97 15.595C20.0853 15.342 9.86401 17.4373 10.649 21.8354C11.4663 25.5628 13.5671 28.9157 15.3212 32.1764C10.1683 21.8414 9.55751 17.3424 23.9699 15.5954L23.97 15.595Z" fill="white" />
    <path opacity="0.25" fill-rule="evenodd" clip-rule="evenodd" d="M25.106 4.05219C23.3778 5.89039 22.5436 7.29129 22.054 8.28579C21.6524 9.10158 21.7237 9.43599 21.8229 9.89609C21.9937 10.6891 22.5652 11.315 22.736 11.443C21.9111 10.6982 21.8817 7.4656 25.1011 4.02859" fill="white" />
    <path opacity="0.25" fill-rule="evenodd" clip-rule="evenodd" d="M20.761 14.555C20.761 14.555 20.5681 13.1811 21.521 13.1226C22.474 13.0641 24.5144 13.1226 24.5144 13.1226C24.5144 13.1226 21.3865 12.9472 20.7609 14.555H20.761Z" fill="white" />
    <defs>
      <linearGradient id="bkpaint0_linear_1_401" x1="19.7172" y1="9.48945" x2="30.2925" y2="9.48945" gradientUnits="userSpaceOnUse">
        <stop stop-color="#AC552A" />
        <stop offset="1" stop-color="#171717" />
      </linearGradient>
      <linearGradient id="bkpaint1_linear_1_401" x1="9.37" y1="26.223" x2="40.64" y2="26.223" gradientUnits="userSpaceOnUse">
        <stop stop-color="#AC552A" />
        <stop offset="1" stop-color="#171717" />
      </linearGradient>
      <linearGradient id="bkpaint2_linear_1_401" x1="11.575" y1="40.43" x2="38.426" y2="40.43" gradientUnits="userSpaceOnUse">
        <stop stop-color="#AC5E2A" />
        <stop offset="1" stop-color="#171717" />
      </linearGradient>
    </defs>
  </g>
  <g id="bn" fill="none" transform="scale(0.8 0.8)">
    <path fill-rule="evenodd" clip-rule="evenodd" d="M14.978 8.7251C14.978 8.7251 14.8518 8.72844 14.6728 8.7723C14.1944 8.77898 14.6695 9.65052 14.1912 9.65934L12.0991 9.96776C12.0991 9.96776 13.9264 13.8038 13.9264 14.5136C13.9264 15.2234 12.6888 16.2475 12.6888 16.2475V28.3415L15.2532 30.5046L19.3616 29.576L17.7802 27.2656L23.4031 22.3657C26.0698 35.3547 12.9091 27.2864 14.3456 39.3707H35.8066C35.8111 39.1441 34.0879 36.6809 35.0188 32.1894C38.4324 10.2404 31.1194 7.61943 15.0208 8.76943C15.0175 8.76609 14.9776 8.72691 14.9776 8.72691L14.978 8.7251Z" fill="url(#bnpaint0_linear_1_421)" stroke="black" stroke-width="1.2" stroke-linejoin="round" />
    <path opacity="0.4" d="M19.6664 16.2392L16.374 16.2391M14.91 17.622C14.91 17.9888 15.0643 18.3405 15.3389 18.5999C15.6134 18.8592 15.9859 19.0049 16.3742 19.0049C16.7625 19.0049 17.135 18.8592 17.4095 18.5999C17.6841 18.3405 17.8384 17.9888 17.8384 17.622C17.8384 17.2552 17.6841 16.9035 17.4095 16.6441C17.135 16.3848 16.7625 16.2391 16.3742 16.2391C15.9859 16.2391 15.6134 16.3848 15.3389 16.6441C15.0643 16.9035 14.91 17.2552 14.91 17.622V17.622Z" stroke="black" stroke-width="0.8" stroke-linejoin="round" />
    <path opacity="0.4" d="M14.309 28.0477C13.8746 28.0477 13.5224 27.7277 13.5224 27.333C13.5224 26.9383 13.8746 26.6183 14.309 26.6183C14.7434 26.6183 15.0956 26.9383 15.0956 27.333C15.0956 27.7277 14.7434 28.0477 14.309 28.0477Z" fill="black" />
    <path opacity="0.4" d="M16.346 18.0499C16.1165 18.0499 15.9305 17.8628 15.9305 17.632C15.9305 17.4012 16.1165 17.2141 16.346 17.2141C16.5754 17.2141 16.7614 17.4012 16.7614 17.632C16.7614 17.8628 16.5754 18.0499 16.346 18.0499Z" fill="black" />
    <path opacity="0.2" fill-rule="evenodd" clip-rule="evenodd" d="M35.807 38.823C35.8724 38.8351 34.0988 36.9791 35.0182 32.1893C37.5198 14.2443 34.8745 8.4663 20.0492 8.5513V8.55103C18.4369 8.5399 16.7448 8.60035 14.9801 8.72649C15.0212 8.7689 16.4774 9.98419 16.8395 10.4552C16.8812 10.4519 16.921 10.4496 16.9624 10.4474L19.3965 13.0777C19.3965 13.0777 18.0611 10.9715 19.6053 10.6032C40.9693 7.40009 35.3923 39.0322 22.1243 38.7572" fill="black" />
    <path fill-rule="evenodd" clip-rule="evenodd" d="M17.166 13.338C20.5673 10.0998 14.6774 7.1678 14.6774 7.1678L14.763 12.1498" fill="#904A26" />
    <path d="M17.166 13.338C20.5673 10.0998 14.6774 7.1678 14.6774 7.1678L14.763 12.1498" stroke="black" stroke-width="1.2" stroke-linejoin="round" />
    <g opacity="0.4">
      <path fill-rule="evenodd" clip-rule="evenodd" d="M16.645 30.19L16.6671 28.0386Z" fill="#F6D6A7" />
      <path d="M16.645 30.19L16.6671 28.0386" stroke="black" stroke-width="0.8" stroke-linejoin="round" />
    </g>
    <path fill-rule="evenodd" clip-rule="evenodd" d="M25.076 36.457C25.076 36.457 16.4981 36.5051 14.093 38.0762C12.4703 39.1364 12.0875 41.7276 12.3082 44.3999H37.8442C38.0649 41.7276 37.6821 39.1363 36.0594 38.0762C33.6547 36.5051 25.0764 36.457 25.0764 36.457H25.076Z" fill="url(#bnpaint1_linear_1_421)" stroke="black" stroke-width="1.2" stroke-linejoin="round" />
    <path opacity="0.2" fill-rule="evenodd" clip-rule="evenodd" d="M25.076 36.457C25.076 36.457 16.4978 36.5049 14.093 38.076C12.4703 39.1362 12.0876 40.669 12.3084 43.3413H12.3924C12.62 41.9614 13.1427 40.8135 14.093 40.1927C16.4981 38.6216 25.076 38.5737 25.076 38.5737C25.076 38.5737 33.6545 38.6216 36.059 40.1927C37.0093 40.8135 37.5319 41.9615 37.7596 43.3413H37.8436C38.0643 40.669 37.6817 39.1361 36.059 38.076C33.6543 36.5049 25.076 36.457 25.076 36.457H25.076Z" fill="black" />
    <g opacity="0.2">
      <path fill-rule="evenodd" clip-rule="evenodd" d="M22.921 14.92C30.6595 18.7832 17.7994 27.284 17.7803 27.265L19.3617 29.5754L15.2533 30.5039L15.592 27.6361C15.609 27.6331 28.127 19.0533 22.9209 14.9201" fill="black" />
      <path d="M22.921 14.92C30.6595 18.7832 17.7994 27.284 17.7803 27.265L19.3617 29.5754L15.2533 30.5039L15.592 27.6361C15.609 27.6331 28.127 19.0533 22.9209 14.9201" stroke="black" stroke-width="0.26458" />
    </g>
    <path opacity="0.25" fill-rule="evenodd" clip-rule="evenodd" d="M13.301 28.081L13.3093 16.505C15.2421 14.852 14.6756 14.275 13.0074 10.4644C15.8948 14.7335 16.0478 14.1164 14.1113 16.9432L13.301 28.081Z" fill="white" />
    <path opacity="0.25" fill-rule="evenodd" clip-rule="evenodd" d="M14.919 37.016C14.7173 30.0528 25.463 33.8907 24.3309 24.038C26.4457 33.6828 15.618 31.5293 14.919 37.016Z" fill="white" />
    <defs>
      <linearGradient id="bnpaint0_linear_1_421" x1="11.5035" y1="23.956" x2="36.4438" y2="23.956" gradientUnits="userSpaceOnUse">
        <stop stop-color="#AC552A" />
        <stop offset="1" stop-color="#171717" />
      </linearGradient>
      <linearGradient id="bnpaint1_linear_1_421" x1="11.651" y1="40.43" x2="38.502" y2="40.43" gradientUnits="userSpaceOnUse">
        <stop stop-color="#AC5E2A" />
        <stop offset="1" stop-color="#171717" />
      </linearGradient>
    </defs>
  </g>
  <g id="bp" fill="none" transform="scale(0.8 0.8)">
    <path fill-rule="evenodd" clip-rule="evenodd" d="M22.106 26.305C21.1745 37.924 13.0996 34.968 13.0996 44.399H36.8996C36.8996 34.9678 28.8248 37.9236 27.8932 26.305H24.999H22.106Z" fill="url(#bppaint0_linear_1_447)" stroke="black" stroke-width="1.2" stroke-linejoin="round" />
    <path opacity="0.2" fill-rule="evenodd" clip-rule="evenodd" d="M23.919 26.305C24.8506 37.924 32.9254 34.968 32.9254 44.399H36.9002C36.9002 34.9678 28.8253 37.9235 27.8938 26.305H24.9996H23.919Z" fill="black" />
    <path opacity="0.25" fill-rule="evenodd" clip-rule="evenodd" d="M13.748 43.78C13.768 36.5608 20.33 37.6505 22.3503 29.023C22.4102 37.3623 15.2944 36.4547 13.748 43.78V43.78Z" fill="white" />
    <path fill-rule="evenodd" clip-rule="evenodd" d="M25 12.599C21.577 12.5994 18.802 15.2274 18.802 18.4695C18.802 20.4183 19.8249 22.2397 21.5295 23.3311L16.9563 28.3716H33.0443L28.4715 23.3311C30.1761 22.2396 31.1986 20.4182 31.1986 18.4695C31.1986 15.2273 28.424 12.5994 25.0011 12.599H25.0005H25Z" fill="url(#bppaint1_linear_1_447)" stroke="black" stroke-width="1.2" stroke-linejoin="round" />
    <path opacity="0.25" fill-rule="evenodd" clip-rule="evenodd" d="M22.907 13.556C22.0613 13.7732 17.4278 16.4974 20.3269 21.3764C20.3269 21.3764 19.1809 17.2179 22.907 13.556V13.556Z" fill="white" />
    <path opacity="0.2" fill-rule="evenodd" clip-rule="evenodd" d="M25 12.6C24.4815 12.6 23.9779 12.661 23.4966 12.7745C26.1928 13.4113 28.1904 15.7195 28.1904 18.4703C28.1904 20.4191 27.1682 22.2407 25.4636 23.3322L30.0366 28.3674H33.0448L28.4714 23.3322C30.1759 22.2407 31.1982 20.4191 31.1982 18.4703C31.1982 15.2282 28.4236 12.6002 25.0005 12.5999L25 12.6Z" fill="black" />
    <defs>
      <linearGradient id="bppaint0_linear_1_447" x1="12.5311" y1="35.3482" x2="37.46" y2="35.3482" gradientUnits="userSpaceOnUse">
        <stop stop-color="#AC552A" />
        <stop offset="1" stop-color="#171717" />
      </linearGradient>
      <linearGradient id="bppaint1_linear_1_447" x1="16.352" y1="20.4096" x2="33.6361" y2="20.4096" gradientUnits="userSpaceOnUse">
        <stop stop-color="#AC552A" />
        <stop offset="1" stop-color="#171717" />
      </linearGradient>
    </defs>
  </g>
  <g id="bq" fill="none" transform="scale(0.8 0.8)">
    <path fill-rule="evenodd" clip-rule="evenodd" d="M25.002 4.6774C24.0958 4.67744 23.2267 4.99154 22.5859 5.5506C21.9452 6.10966 21.5852 6.86789 21.5852 7.6585C21.5852 8.44911 21.9452 9.20733 22.5859 9.76639C23.2267 10.3255 24.0958 10.6396 25.002 10.6396C25.4507 10.6396 25.8951 10.5625 26.3097 10.4127C26.7243 10.2629 27.101 10.0433 27.4183 9.76652C27.7356 9.48969 27.9873 9.16105 28.1591 8.79936C28.3308 8.43766 28.4192 8.05 28.4192 7.6585C28.4192 7.267 28.3308 6.87934 28.1591 6.51764C27.9873 6.15595 27.7356 5.8273 27.4183 5.55048C27.101 5.27366 26.7243 5.05408 26.3097 4.90427C25.8951 4.75447 25.4507 4.67738 25.002 4.6774Z" fill="url(#bqpaint0_linear_1_461)" stroke="black" stroke-width="1.1999" stroke-linecap="round" stroke-linejoin="round" />
    <path fill-rule="evenodd" clip-rule="evenodd" d="M25.002 10.639C18.2022 10.639 14.975 17.5989 14.975 22.107H35.105C35.1052 17.5987 31.802 10.639 25.002 10.639V10.639Z" fill="url(#bqpaint1_linear_1_461)" stroke="black" stroke-width="1.2" stroke-linecap="round" stroke-linejoin="round" />
    <path opacity="0.25" fill-rule="evenodd" clip-rule="evenodd" d="M16.397 17.927C17.4415 15.2138 20.0606 11.1303 25.0471 11.2305C23.9174 11.0605 17.3945 14.8598 16.397 17.927Z" fill="white" />
    <path opacity="0.2" fill-rule="evenodd" clip-rule="evenodd" d="M24.874 4.5895C24.874 4.5895 24.9217 4.82947 24.8739 4.5896C27.4654 5.727 26.7978 8.8947 25.5099 10.6073C33.1945 14.4399 29.4247 21.7223 29.4244 21.7213H32.2468C34.0403 23.2895 38.0584 16.5862 26.6363 10.6063C30.5633 7.5582 27.1006 4.4148 24.8739 4.5889L24.874 4.5895Z" fill="black" />
    <path fill-rule="evenodd" clip-rule="evenodd" d="M25 14.657C21.5537 16.2624 20.7804 18.5263 19.4662 21.4635C14.0279 16.6161 7.5652 17.3786 7.5652 17.3786C18.1122 29.2816 16.7678 38.5736 16.7678 38.5736H33.2318C33.2318 38.5736 31.8878 29.2807 42.4345 17.3786C42.4345 17.3786 35.9718 16.616 30.5335 21.4635C29.2193 18.5264 28.4459 16.2624 24.9997 14.657H25Z" fill="url(#bqpaint2_linear_1_461)" stroke="black" stroke-width="1.2" stroke-linejoin="round" />
    <path opacity="0.2" fill-rule="evenodd" clip-rule="evenodd" d="M40.566 17.38C28.976 27.611 33.0886 34.663 23.948 38.574H33.2325C33.2325 38.574 31.8885 29.2811 42.4352 17.379C41.2123 17.2972 41.8208 17.3303 40.566 17.379V17.38Z" fill="#111111" />
    <path opacity="0.25" fill-rule="evenodd" clip-rule="evenodd" d="M24.796 5.326C24.1836 5.14379 21.0173 6.4166 22.6609 8.9635C22.2552 7.5084 23.0982 5.6921 24.796 5.326Z" fill="white" />
    <path opacity="0.25" fill-rule="evenodd" clip-rule="evenodd" d="M8.8741 17.955C12.5889 22.2745 16.0116 28.154 16.9427 33.243C16.5752 27.7397 12.9709 20.776 9.7028 18.011C9.26941 17.9185 8.8741 17.9545 8.8741 17.9545V17.955Z" fill="white" />
    <path opacity="0.25" fill-rule="evenodd" clip-rule="evenodd" d="M20.081 21.702C21.108 19.018 25.628 15.9082 24.9739 15.3377C23.2933 15.9294 20.983 18.4477 20.081 21.702Z" fill="white" />
    <path opacity="0.25" fill-rule="evenodd" clip-rule="evenodd" d="M30.878 21.951C32.4604 22.5691 34.5763 19.2225 39.5234 18.0843C38.2957 17.979 33.5704 19.3729 30.878 21.951Z" fill="white" />
    <path fill-rule="evenodd" clip-rule="evenodd" d="M25 36.457C25 36.457 16.4221 36.505 14.017 38.0762C12.3943 39.1364 12.0115 41.7276 12.2323 44.3999H37.7683C37.989 41.7276 37.6061 39.1363 35.9834 38.0762C33.5787 36.5051 25.0004 36.457 25.0004 36.457H25Z" fill="url(#bqpaint3_linear_1_461)" stroke="black" stroke-width="1.2" stroke-linejoin="round" />
    <path opacity="0.2" fill-rule="evenodd" clip-rule="evenodd" d="M25 36.457C25 36.457 16.4218 36.505 14.017 38.076C12.3943 39.1362 12.0116 40.669 12.2324 43.3413H12.3164C12.544 41.9615 13.0667 40.8136 14.017 40.1927C16.422 38.6216 25 38.5737 25 38.5737C25 38.5737 33.5785 38.6217 35.983 40.1927C36.9333 40.8135 37.4559 41.9614 37.6836 43.3413H37.7676C37.9883 40.669 37.6057 39.1361 35.983 38.076C33.5783 36.5049 25 36.457 25 36.457V36.457Z" fill="black" />
    <defs>
      <linearGradient id="bqpaint0_linear_1_461" x1="21.0627" y1="7.65823" x2="28.9494" y2="7.65821" gradientUnits="userSpaceOnUse">
        <stop stop-color="#AC552A" />
        <stop offset="1" stop-color="#171717" />
      </linearGradient>
      <linearGradient id="bqpaint1_linear_1_461" x1="14.3874" y1="16.3755" x2="35.7119" y2="16.3755" gradientUnits="userSpaceOnUse">
        <stop stop-color="#AC552A" />
        <stop offset="1" stop-color="#171717" />
      </linearGradient>
      <linearGradient id="bqpaint2_linear_1_461" x1="6.89907" y1="26.0965" x2="43.126" y2="26.0965" gradientUnits="userSpaceOnUse">
        <stop stop-color="#AC552A" />
        <stop offset="1" stop-color="#171717" />
      </linearGradient>
      <linearGradient id="bqpaint3_linear_1_461" x1="11.574" y1="40.43" x2="38.4256" y2="40.43" gradientUnits="userSpaceOnUse">
        <stop stop-color="#AC552A" />
        <stop offset="1" stop-color="#171717" />
      </linearGradient>
    </defs>
  </g>
  <g id="br" fill="none" transform="scale(0.8 0.8)">
    <path fill-rule="evenodd" clip-rule="evenodd" d="M14.371 8.6743C13.3387 11.8432 13.2269 19.2123 16.9605 19.2393V22.035H19.6342L16.253 38.045H33.747L30.3658 22.035H33.0395V19.2393C36.7731 19.2123 36.6613 11.8435 35.629 8.6743H31.5626V11.4095H27.692V8.6743H22.3083V11.4095H18.4377V8.6743H14.371Z" fill="url(#brpaint0_linear_1_487)" stroke="black" stroke-width="1.2" />
    <path d="M19.634 22.035H30.366" stroke="black" stroke-width="1.2" />
    <path d="M16.961 19.239H33.04" stroke="black" stroke-width="1.2" />
    <path opacity="0.2" fill-rule="evenodd" clip-rule="evenodd" d="M33.217 8.6739C34.1281 11.8961 33.7882 15.8087 33.217 18.5949L16.961 18.5949C21.2911 19.5467 28.52 18.5743 29.264 22.0351L16.961 22.0351C33.04 22.0351 27.786 28.8363 29.02 38.0451L33.7468 38.0446L30.8952 22.0346H33.0395V18.5943H34.7859C37.4083 15.4448 35.9554 10.3622 35.5525 8.6733L33.217 8.6739Z" fill="#070705" />
    <path fill-rule="evenodd" clip-rule="evenodd" d="M25 36.457C25 36.457 16.4221 36.5051 14.017 38.0762C12.3943 39.1364 12.0115 41.7276 12.2322 44.3999H37.7682C37.9889 41.7276 37.6061 39.1363 35.9834 38.0762C33.5787 36.5051 25.0004 36.457 25.0004 36.457H25Z" fill="url(#brpaint1_linear_1_487)" stroke="black" stroke-width="1.2" stroke-linejoin="round" />
    <path opacity="0.2" fill-rule="evenodd" clip-rule="evenodd" d="M25 36.457C25 36.457 16.4218 36.5049 14.017 38.076C12.3943 39.1362 12.0116 40.669 12.2324 43.3413H12.3164C12.544 41.9614 13.0667 40.8135 14.017 40.1927C16.4221 38.6216 25 38.5737 25 38.5737C25 38.5737 33.5785 38.6216 35.983 40.1927C36.9333 40.8135 37.4559 41.9615 37.6836 43.3413H37.7676C37.9883 40.669 37.6057 39.1361 35.983 38.076C33.5783 36.5049 25 36.457 25 36.457V36.457Z" fill="black" />
    <path opacity="0.25" fill-rule="evenodd" clip-rule="evenodd" d="M14.821 9.2702C14.821 9.2702 14.0371 12.6784 14.4464 14.8299C14.3236 12.0963 16.5745 9.2702 16.5745 9.2702H14.821Z" fill="white" />
    <path opacity="0.25" fill-rule="evenodd" clip-rule="evenodd" d="M22.899 9.2454V11.9987L24.0814 9.2619L22.899 9.2454Z" fill="white" />
    <path opacity="0.25" fill-rule="evenodd" clip-rule="evenodd" d="M32.168 9.2756V12.0289L32.9294 9.2833L32.168 9.2756Z" fill="white" />
    <path opacity="0.25" fill-rule="evenodd" clip-rule="evenodd" d="M17.575 21.433V19.8372H23.2801C23.2801 19.8372 17.6825 19.6801 17.575 21.433V21.433Z" fill="white" />
    <defs>
      <linearGradient id="brpaint0_linear_1_487" x1="13.1506" y1="23.8784" x2="36.8543" y2="23.8784" gradientUnits="userSpaceOnUse">
        <stop stop-color="#AC552A" />
        <stop offset="1" stop-color="#171717" />
      </linearGradient>
      <linearGradient id="brpaint1_linear_1_487" x1="11.58" y1="40.43" x2="38.427" y2="40.43" gradientUnits="userSpaceOnUse">
        <stop stop-color="#AC552A" />
        <stop offset="1" stop-color="#171717" />
      </linearGradient>
    </defs>
  </g>
  <g id="wb" fill="none" transform="scale(0.8 0.8)">
    <path d="M24.704 11.7763C26.0921 11.7763 27.2173 10.6462 27.2173 9.25211C27.2173 7.85803 26.0921 6.72791 24.704 6.72791C23.3159 6.72791 22.1907 7.85803 22.1907 9.25211C22.1907 10.6462 23.3159 11.7763 24.704 11.7763Z" fill="#A35229" stroke="#323232" stroke-width="1.2" stroke-linecap="round" stroke-linejoin="round" />
    <path opacity="0.2" fill-rule="evenodd" clip-rule="evenodd" d="M24.704 6.7281C24.4034 6.72854 24.1054 6.78312 23.824 6.88926C24.3042 7.06851 24.7184 7.39087 25.0111 7.81314C25.3038 8.23541 25.461 8.73744 25.4617 9.25196C25.4613 9.766 25.3047 10.2677 25.0127 10.6899C24.7208 11.1121 24.3075 11.4348 23.828 11.6147C24.1081 11.7205 24.4047 11.7753 24.704 11.7765C25.034 11.7764 25.3609 11.7111 25.6658 11.5842C25.9707 11.4573 26.2478 11.2714 26.4811 11.037C26.7145 10.8025 26.8996 10.5242 27.0259 10.218C27.1522 9.9117 27.2171 9.58345 27.2171 9.25196C27.217 8.58259 26.9522 7.94065 26.4809 7.46734C26.0096 6.99404 25.3705 6.72811 24.704 6.72806L24.704 6.7281Z" fill="black" />
    <path fill-rule="evenodd" clip-rule="evenodd" d="M18.771 38.045C18.771 38.045 5.311 12.245 25.0007 11.829C44.6907 12.2451 31.2305 38.045 31.2305 38.045H18.771Z" fill="url(#wbpaint0_linear_1_392)" stroke="#323232" stroke-width="1.2" stroke-linejoin="round" />
    <path opacity="0.15" fill-rule="evenodd" clip-rule="evenodd" d="M24.704 11.829C24.1267 11.8412 23.5812 11.8772 23.0615 11.9318C39.2845 11.3465 32.8883 34.8368 23.9706 38.0448L31.2302 38.0439C40.1917 20.2759 36.9003 12.5509 24.7039 11.8289L24.704 11.829Z" fill="black" />
    <path fill-rule="evenodd" clip-rule="evenodd" d="M25 36.457C25 36.457 16.4221 36.5051 14.017 38.0762C12.3943 39.1364 12.0115 41.7276 12.2322 44.3999H37.7682C37.9889 41.7276 37.6061 39.1363 35.9834 38.0762C33.5787 36.5051 25.0004 36.457 25.0004 36.457H25Z" fill="url(#wbpaint1_linear_1_392)" stroke="#323232" stroke-width="1.2" stroke-linejoin="round" />
    <path opacity="0.15" fill-rule="evenodd" clip-rule="evenodd" d="M25 36.457C25 36.457 16.4218 36.5049 14.017 38.076C12.3943 39.1362 12.0116 40.669 12.2324 43.3413H12.3164C12.544 41.9614 13.0667 40.8135 14.017 40.1927C16.4221 38.6216 25 38.5737 25 38.5737C25 38.5737 33.5785 38.6216 35.983 40.1927C36.9333 40.8135 37.4559 41.9615 37.6836 43.3413H37.7676C37.9883 40.669 37.6057 39.1361 35.983 38.076C33.5783 36.5049 25 36.457 25 36.457H25Z" fill="black" />
    <path fill-rule="evenodd" clip-rule="evenodd" d="M17.743 34.208C17.743 34.208 13.0433 18.484 20.466 13.193C14.9775 14.7197 12.7033 21.8049 17.743 34.208Z" fill="white" />
    <path opacity="0.25" fill-rule="evenodd" clip-rule="evenodd" d="M24.555 7.3139C24.0869 7.2183 21.7904 8.4165 23.4698 10.7423C23.0532 9.2482 23.3572 8.0572 24.555 7.3139Z" fill="white" />
    <defs>
      <linearGradient id="wbpaint0_linear_1_392" x1="13.6671" y1="24.9291" x2="36.3998" y2="24.9291" gradientUnits="userSpaceOnUse">
        <stop stop-color="#FBECDC" />
        <stop offset="1" stop-color="#AA7245" />
      </linearGradient>
      <linearGradient id="wbpaint1_linear_1_392" x1="11.574" y1="40.43" x2="38.425" y2="40.43" gradientUnits="userSpaceOnUse">
        <stop stop-color="#FBECDC" />
        <stop offset="1" stop-color="#AA7245" />
      </linearGradient>
    </defs>
  </g>
  <g id="wk" fill="none" transform="scale(0.8 0.8)">
    <path fill-rule="evenodd" clip-rule="evenodd" d="M22.968 12.421H28.4397H22.968ZM25.0027 3.1922C25.0027 3.1922 21.2405 7.294 21.2132 9.21C21.2148 10.5279 21.8786 11.7331 22.968 12.4209H21.563C20.8072 12.4209 20.199 13.2129 20.199 14.1964C20.199 15.1798 20.8072 15.9713 21.563 15.9713H28.4397C29.1954 15.9713 29.8037 15.1798 29.8037 14.1964C29.8037 13.2129 29.1955 12.4209 28.4397 12.4209H27.0374C28.1268 11.733 28.7904 10.5278 28.7922 9.21C28.765 7.294 25.0027 3.1922 25.0027 3.1922V3.1922Z" fill="url(#wkpaint0_linear_1_411)" stroke="#323232" stroke-width="1.2" stroke-linejoin="round" />
    <path opacity="0.15" fill-rule="evenodd" clip-rule="evenodd" d="M25.003 3.192C25.003 3.192 25.5267 2.55937 25.003 3.192C25.0686 6.4262 29.2181 10.1378 25.1889 13.135H26.5912C27.347 13.135 27.9552 13.2129 27.9552 14.1963C27.9553 15.1798 27.347 15.9712 26.5912 15.9712H25.0273C24.73 16.0775 24.4114 16.1603 24.0786 16.2167C24.3762 16.2671 24.685 16.2967 25.003 16.2967C25.6764 16.2967 26.3129 16.1726 26.8761 15.9713H28.44C29.1957 15.9713 29.804 15.1798 29.8039 14.1964C29.8039 13.2129 29.1868 12.2707 28.44 12.4209L27.0377 12.7029C28.1271 12.015 28.7907 10.5279 28.7925 9.20998C28.7653 7.29398 25.003 3.19218 25.003 3.19218L25.003 3.192Z" fill="black" />
    <path fill-rule="evenodd" clip-rule="evenodd" d="M39.886 20.265C38.5039 17.1285 32.5057 14.9297 25 14.9297C17.4947 14.9297 11.496 17.1285 10.114 20.265C8.7321 23.4008 17.7283 37.515 17.7283 37.515H32.2713C32.2713 37.515 41.2676 23.401 39.8855 20.265H39.886Z" fill="url(#wkpaint1_linear_1_411)" stroke="#323232" stroke-width="1.2" stroke-linejoin="round" />
    <path opacity="0.15" fill-rule="evenodd" clip-rule="evenodd" d="M27.739 14.984C42.488 19.2358 30.0088 36.31 23.5773 37.446L32.2707 37.5158C32.2707 37.5158 41.2676 22.3228 39.8856 19.1868C38.8453 16.4866 33.5957 15.156 27.7386 14.9836L27.739 14.984Z" fill="black" />
    <path fill-rule="evenodd" clip-rule="evenodd" d="M25 36.457C25 36.457 16.4221 36.5051 14.017 38.0762C12.3943 39.1364 12.0115 41.7276 12.2322 44.3999H37.7682C37.9889 41.7276 37.6061 39.1363 35.9834 38.0762C33.5787 36.5051 25.0004 36.457 25.0004 36.457H25Z" fill="url(#wkpaint2_linear_1_411)" stroke="#323232" stroke-width="1.2" stroke-linejoin="round" />
    <path opacity="0.15" fill-rule="evenodd" clip-rule="evenodd" d="M25 36.457C25 36.457 16.4218 36.5049 14.017 38.076C12.3943 39.1362 12.0116 40.669 12.2324 43.3413H12.3164C12.544 41.9614 13.0667 40.8135 14.017 40.1927C16.4221 38.6216 25 38.5737 25 38.5737C25 38.5737 33.5785 38.6216 35.983 40.1927C36.9333 40.8135 37.4559 41.9615 37.6836 43.3413H37.7676C37.9883 40.669 37.6057 39.1361 35.983 38.076C33.5783 36.5049 25 36.457 25 36.457H25Z" fill="black" />
    <path fill-rule="evenodd" clip-rule="evenodd" d="M23.97 15.595C20.0853 15.342 9.864 17.4373 10.649 21.8354C11.4662 25.5628 13.5671 28.9157 15.3212 32.1764C10.1683 21.8414 9.5575 17.3424 23.9699 15.5954L23.97 15.595Z" fill="white" />
    <path fill-rule="evenodd" clip-rule="evenodd" d="M25.106 4.05219C23.3778 5.89039 22.5436 7.29129 22.054 8.28579C21.6524 9.10158 21.7237 9.43599 21.8229 9.89609C21.9937 10.6891 22.5652 11.315 22.736 11.443C21.9111 10.6982 21.8817 7.4656 25.1011 4.02859" fill="white" />
    <path fill-rule="evenodd" clip-rule="evenodd" d="M20.761 14.555C20.761 14.555 20.5681 13.1811 21.521 13.1226C22.474 13.0641 24.5144 13.1226 24.5144 13.1226C24.5144 13.1226 21.3865 12.9472 20.7609 14.555H20.761Z" fill="white" />
    <defs>
      <linearGradient id="wkpaint0_linear_1_411" x1="19.6832" y1="9.59317" x2="30.3197" y2="9.59317" gradientUnits="userSpaceOnUse">
        <stop stop-color="#FBECDC" />
        <stop offset="1" stop-color="#AA7245" />
      </linearGradient>
      <linearGradient id="wkpaint1_linear_1_411" x1="9.3645" y1="26.22" x2="40.635" y2="26.22" gradientUnits="userSpaceOnUse">
        <stop stop-color="#FBECDC" />
        <stop offset="1" stop-color="#AA7245" />
      </linearGradient>
      <linearGradient id="wkpaint2_linear_1_411" x1="11.5741" y1="40.42" x2="38.426" y2="40.42" gradientUnits="userSpaceOnUse">
        <stop stop-color="#FBECDC" />
        <stop offset="1" stop-color="#AA7245" />
      </linearGradient>
    </defs>
  </g>
  <g id="wn" fill="none" transform="scale(0.8 0.8)">
    <path fill-rule="evenodd" clip-rule="evenodd" d="M14.978 8.7251C14.978 8.7251 14.8518 8.72844 14.6728 8.7723C14.1944 8.77898 14.6695 9.65052 14.1912 9.65934L12.0991 9.96776C12.0991 9.96776 13.9264 13.8038 13.9264 14.5136C13.9264 15.2234 12.6888 16.2475 12.6888 16.2475V28.3415L15.2532 30.5046L19.3616 29.576L17.7802 27.2656L23.4031 22.3657C26.0698 35.3547 12.9091 27.2864 14.3456 39.3707H35.8066C35.8111 39.1441 34.0879 36.6809 35.0188 32.1894C38.4324 10.2404 31.1194 7.61943 15.0208 8.76943C15.0175 8.76609 14.9776 8.72691 14.9776 8.72691L14.978 8.7251Z" fill="url(#wnpaint0_linear_1_434)" stroke="#323232" stroke-width="1.2" stroke-linejoin="round" />
    <path opacity="0.4" d="M19.6664 16.2392L16.374 16.2391M14.91 17.622C14.91 17.9888 15.0643 18.3405 15.3389 18.5999C15.6134 18.8592 15.9859 19.0049 16.3742 19.0049C16.7625 19.0049 17.135 18.8592 17.4095 18.5999C17.6841 18.3405 17.8384 17.9888 17.8384 17.622C17.8384 17.2552 17.6841 16.9035 17.4095 16.6441C17.135 16.3848 16.7625 16.2391 16.3742 16.2391C15.9859 16.2391 15.6134 16.3848 15.3389 16.6441C15.0643 16.9035 14.91 17.2552 14.91 17.622V17.622Z" stroke="black" stroke-width="0.8" stroke-linejoin="round" />
    <path opacity="0.4" d="M14.309 28.0477C13.8746 28.0477 13.5224 27.7277 13.5224 27.333C13.5224 26.9383 13.8746 26.6183 14.309 26.6183C14.7434 26.6183 15.0956 26.9383 15.0956 27.333C15.0956 27.7277 14.7434 28.0477 14.309 28.0477Z" fill="black" />
    <path opacity="0.4" d="M16.346 18.0499C16.1166 18.0499 15.9306 17.8628 15.9306 17.632C15.9306 17.4012 16.1166 17.2141 16.346 17.2141C16.5754 17.2141 16.7615 17.4012 16.7615 17.632C16.7615 17.8628 16.5754 18.0499 16.346 18.0499Z" fill="black" />
    <path opacity="0.15" fill-rule="evenodd" clip-rule="evenodd" d="M35.807 38.823C35.8724 38.8351 34.0988 36.9791 35.0182 32.1893C37.5198 14.2443 34.8745 8.4663 20.0492 8.5513V8.55103C18.4369 8.5399 16.7448 8.60035 14.9801 8.72649C15.0212 8.7689 16.4774 9.98419 16.8395 10.4552C16.8812 10.4519 16.921 10.4496 16.9624 10.4474L19.3965 13.0777C19.3965 13.0777 18.0611 10.9715 19.6053 10.6032C40.9693 7.40009 35.3923 39.0322 22.1243 38.7572" fill="black" />
    <path fill-rule="evenodd" clip-rule="evenodd" d="M17.166 13.338C20.5673 10.0998 14.6774 7.1678 14.6774 7.1678L14.763 12.1498" fill="#E9D1BA" />
    <path d="M17.166 13.338C20.5673 10.0998 14.6774 7.1678 14.6774 7.1678L14.763 12.1498" stroke="#323232" stroke-width="1.2" stroke-linejoin="round" />
    <g opacity="0.4">
      <path fill-rule="evenodd" clip-rule="evenodd" d="M16.645 30.19L16.6671 28.0386Z" fill="#F6D6A7" />
      <path d="M16.645 30.19L16.6671 28.0386" stroke="black" stroke-width="0.8" stroke-linejoin="round" />
    </g>
    <path fill-rule="evenodd" clip-rule="evenodd" d="M25.076 36.457C25.076 36.457 16.4981 36.5051 14.093 38.0762C12.4703 39.1364 12.0875 41.7276 12.3082 44.3999H37.8442C38.0649 41.7276 37.6821 39.1363 36.0594 38.0762C33.6547 36.5051 25.0764 36.457 25.0764 36.457H25.076Z" fill="url(#wnpaint1_linear_1_434)" stroke="#323232" stroke-width="1.2" stroke-linejoin="round" />
    <path opacity="0.15" fill-rule="evenodd" clip-rule="evenodd" d="M25.076 36.457C25.076 36.457 16.4978 36.5049 14.093 38.076C12.4703 39.1362 12.0876 40.669 12.3084 43.3413H12.3924C12.62 41.9614 13.1427 40.8135 14.093 40.1927C16.4981 38.6216 25.076 38.5737 25.076 38.5737C25.076 38.5737 33.6545 38.6216 36.059 40.1927C37.0093 40.8135 37.5319 41.9615 37.7596 43.3413H37.8436C38.0643 40.669 37.6817 39.1361 36.059 38.076C33.6543 36.5049 25.076 36.457 25.076 36.457H25.076Z" fill="black" />
    <g opacity="0.15">
      <path fill-rule="evenodd" clip-rule="evenodd" d="M22.921 14.92C30.6595 18.7832 17.7994 27.284 17.7803 27.265L19.3617 29.5754L15.2533 30.5039L15.592 27.6361C15.609 27.6331 28.127 19.0533 22.9209 14.9201" fill="black" />
      <path d="M22.921 14.92C30.6595 18.7832 17.7994 27.284 17.7803 27.265L19.3617 29.5754L15.2533 30.5039L15.592 27.6361C15.609 27.6331 28.127 19.0533 22.9209 14.9201" stroke="black" stroke-width="0.26458" />
    </g>
    <path fill-rule="evenodd" clip-rule="evenodd" d="M13.301 28.081L13.3093 16.505C15.2421 14.852 14.6756 14.275 13.0074 10.4644C15.8948 14.7335 16.0478 14.1164 14.1113 16.9432L13.301 28.081Z" fill="white" />
    <path fill-rule="evenodd" clip-rule="evenodd" d="M14.919 37.016C14.7173 30.0528 25.463 33.8907 24.3309 24.038C26.4457 33.6828 15.618 31.5293 14.919 37.016Z" fill="white" />
    <defs>
      <linearGradient id="wnpaint0_linear_1_434" x1="11.5035" y1="23.956" x2="36.4438" y2="23.956" gradientUnits="userSpaceOnUse">
        <stop stop-color="#FBECDC" />
        <stop offset="1" stop-color="#AA7245" />
      </linearGradient>
      <linearGradient id="wnpaint1_linear_1_434" x1="11.651" y1="40.43" x2="38.502" y2="40.43" gradientUnits="userSpaceOnUse">
        <stop stop-color="#FBECDC" />
        <stop offset="1" stop-color="#AA7245" />
      </linearGradient>
    </defs>
  </g>
  <g id="wp" fill="none" transform="scale(0.8 0.8)">
    <path fill-rule="evenodd" clip-rule="evenodd" d="M22.106 26.305C21.1745 37.924 13.0996 34.968 13.0996 44.399H36.8996C36.8996 34.9678 28.8248 37.9236 27.8932 26.305H24.999H22.106Z" fill="url(#wppaint0_linear_1_454)" stroke="#323232" stroke-width="1.2" stroke-linejoin="round" />
    <path opacity="0.15" fill-rule="evenodd" clip-rule="evenodd" d="M23.919 26.305C24.8506 37.924 32.9254 34.968 32.9254 44.399H36.9002C36.9002 34.9678 28.8253 37.9235 27.8938 26.305H24.9996H23.919Z" fill="black" />
    <path fill-rule="evenodd" clip-rule="evenodd" d="M13.748 43.78C13.768 36.5608 20.33 37.6505 22.3503 29.023C22.4102 37.3623 15.2944 36.4547 13.748 43.78V43.78Z" fill="white" />
    <path fill-rule="evenodd" clip-rule="evenodd" d="M25 12.599C21.577 12.5994 18.802 15.2274 18.802 18.4695C18.802 20.4183 19.8249 22.2397 21.5295 23.3311L16.9563 28.3716H33.0443L28.4715 23.3311C30.1761 22.2396 31.1986 20.4182 31.1986 18.4695C31.1986 15.2273 28.424 12.5994 25.0011 12.599H25.0005H25Z" fill="url(#wppaint1_linear_1_454)" stroke="#323232" stroke-width="1.2" stroke-linejoin="round" />
    <path fill-rule="evenodd" clip-rule="evenodd" d="M22.907 13.556C22.0613 13.7732 17.4278 16.4974 20.3269 21.3764C20.3269 21.3764 19.1809 17.2179 22.907 13.556V13.556Z" fill="white" />
    <path opacity="0.15" fill-rule="evenodd" clip-rule="evenodd" d="M25 12.6C24.4815 12.6 23.9779 12.661 23.4966 12.7745C26.1928 13.4113 28.1904 15.7195 28.1904 18.4703C28.1904 20.4191 27.1682 22.2407 25.4636 23.3322L30.0366 28.3674H33.0448L28.4714 23.3322C30.1759 22.2407 31.1982 20.4191 31.1982 18.4703C31.1982 15.2282 28.4236 12.6002 25.0005 12.5999L25 12.6Z" fill="black" />
    <defs>
      <linearGradient id="wppaint0_linear_1_454" x1="12.5311" y1="35.3482" x2="37.46" y2="35.3482" gradientUnits="userSpaceOnUse">
        <stop stop-color="#FBECDC" />
        <stop offset="1" stop-color="#AA7245" />
      </linearGradient>
      <linearGradient id="wppaint1_linear_1_454" x1="16.352" y1="20.4096" x2="33.6361" y2="20.4096" gradientUnits="userSpaceOnUse">
        <stop stop-color="#FBECDC" />
        <stop offset="1" stop-color="#AA7245" />
      </linearGradient>
    </defs>
  </g>
  <g id="wq" fill="none" transform="scale(0.8 0.8)">
    <path fill-rule="evenodd" clip-rule="evenodd" d="M25.002 4.6774C24.0958 4.67744 23.2267 4.99154 22.5859 5.5506C21.9452 6.10966 21.5852 6.86789 21.5852 7.6585C21.5852 8.44911 21.9452 9.20733 22.5859 9.76639C23.2267 10.3255 24.0958 10.6396 25.002 10.6396C25.4507 10.6396 25.8951 10.5625 26.3097 10.4127C26.7243 10.2629 27.101 10.0433 27.4183 9.76652C27.7356 9.48969 27.9873 9.16105 28.1591 8.79936C28.3308 8.43766 28.4192 8.05 28.4192 7.6585C28.4192 7.267 28.3308 6.87934 28.1591 6.51764C27.9873 6.15595 27.7356 5.8273 27.4183 5.55048C27.101 5.27366 26.7243 5.05408 26.3097 4.90427C25.8951 4.75447 25.4507 4.67738 25.002 4.6774Z" fill="url(#wqpaint0_linear_1_474)" stroke="#323232" stroke-width="1.1999" stroke-linecap="round" stroke-linejoin="round" />
    <path fill-rule="evenodd" clip-rule="evenodd" d="M25.002 10.639C18.2022 10.639 14.975 17.5989 14.975 22.107H35.105C35.1052 17.5987 31.802 10.639 25.002 10.639V10.639Z" fill="url(#wqpaint1_linear_1_474)" stroke="#323232" stroke-width="1.2" stroke-linecap="round" stroke-linejoin="round" />
    <path fill-rule="evenodd" clip-rule="evenodd" d="M16.397 17.927C17.4415 15.2138 20.0606 11.1303 25.0471 11.2305C23.9174 11.0605 17.3945 14.8598 16.397 17.927Z" fill="white" />
    <path opacity="0.15" fill-rule="evenodd" clip-rule="evenodd" d="M24.874 4.5895C24.874 4.5895 24.9217 4.82947 24.8739 4.5896C27.4654 5.727 26.7978 8.8947 25.5099 10.6073C33.1945 14.4399 29.4247 21.7223 29.4244 21.7213H32.2468C34.0403 23.2895 38.0584 16.5862 26.6363 10.6063C30.5633 7.5582 27.1006 4.4148 24.8739 4.5889L24.874 4.5895Z" fill="black" />
    <path fill-rule="evenodd" clip-rule="evenodd" d="M25 14.657C21.5537 16.2624 20.7804 18.5263 19.4662 21.4635C14.0279 16.6161 7.5652 17.3786 7.5652 17.3786C18.1122 29.2816 16.7678 38.5736 16.7678 38.5736H33.2318C33.2318 38.5736 31.8878 29.2807 42.4345 17.3786C42.4345 17.3786 35.9718 16.616 30.5335 21.4635C29.2193 18.5264 28.4459 16.2624 24.9997 14.657H25Z" fill="url(#wqpaint2_linear_1_474)" stroke="#323232" stroke-width="1.2" stroke-linejoin="round" />
    <path opacity="0.15" fill-rule="evenodd" clip-rule="evenodd" d="M40.566 17.38C28.976 27.611 33.0886 34.663 23.948 38.574H33.2325C33.2325 38.574 31.8885 29.2811 42.4352 17.379C41.2123 17.2972 41.8208 17.3303 40.566 17.379V17.38Z" fill="#111111" />
    <path fill-rule="evenodd" clip-rule="evenodd" d="M24.796 5.326C24.1836 5.14379 21.0173 6.4166 22.6609 8.9635C22.2552 7.5084 23.0982 5.6921 24.796 5.326Z" fill="white" />
    <path fill-rule="evenodd" clip-rule="evenodd" d="M8.8741 17.955C12.5889 22.2745 16.0116 28.154 16.9427 33.243C16.5752 27.7397 12.9709 20.776 9.7028 18.011C9.26941 17.9185 8.8741 17.9545 8.8741 17.9545V17.955Z" fill="white" />
    <path fill-rule="evenodd" clip-rule="evenodd" d="M20.081 21.702C21.108 19.018 25.628 15.9082 24.9739 15.3377C23.2933 15.9294 20.983 18.4477 20.081 21.702Z" fill="white" />
    <path fill-rule="evenodd" clip-rule="evenodd" d="M30.878 21.951C32.4604 22.5691 34.5763 19.2225 39.5234 18.0843C38.2957 17.979 33.5704 19.3729 30.878 21.951Z" fill="white" />
    <path fill-rule="evenodd" clip-rule="evenodd" d="M25 36.457C25 36.457 16.4221 36.505 14.017 38.0762C12.3943 39.1364 12.0115 41.7276 12.2323 44.3999H37.7683C37.989 41.7276 37.6061 39.1363 35.9834 38.0762C33.5787 36.5051 25.0004 36.457 25.0004 36.457H25Z" fill="url(#wqpaint3_linear_1_474)" stroke="#323232" stroke-width="1.2" stroke-linejoin="round" />
    <path opacity="0.15" fill-rule="evenodd" clip-rule="evenodd" d="M25 36.457C25 36.457 16.4218 36.505 14.017 38.076C12.3943 39.1362 12.0116 40.669 12.2324 43.3413H12.3164C12.544 41.9615 13.0667 40.8136 14.017 40.1927C16.422 38.6216 25 38.5737 25 38.5737C25 38.5737 33.5785 38.6217 35.983 40.1927C36.9333 40.8135 37.4559 41.9614 37.6836 43.3413H37.7676C37.9883 40.669 37.6057 39.1361 35.983 38.076C33.5783 36.5049 25 36.457 25 36.457V36.457Z" fill="black" />
    <defs>
      <linearGradient id="wqpaint0_linear_1_474" x1="21.0627" y1="7.65823" x2="28.9494" y2="7.65821" gradientUnits="userSpaceOnUse">
        <stop stop-color="#FBECDC" />
        <stop offset="1" stop-color="#AA7245" />
      </linearGradient>
      <linearGradient id="wqpaint1_linear_1_474" x1="14.3874" y1="16.3755" x2="35.7119" y2="16.3755" gradientUnits="userSpaceOnUse">
        <stop stop-color="#FBECDC" />
        <stop offset="1" stop-color="#AA7245" />
      </linearGradient>
      <linearGradient id="wqpaint2_linear_1_474" x1="6.89907" y1="26.0965" x2="43.126" y2="26.0965" gradientUnits="userSpaceOnUse">
        <stop stop-color="#FBECDC" />
        <stop offset="1" stop-color="#AA7245" />
      </linearGradient>
      <linearGradient id="wqpaint3_linear_1_474" x1="11.574" y1="40.43" x2="38.4256" y2="40.43" gradientUnits="userSpaceOnUse">
        <stop stop-color="#FBECDC" />
        <stop offset="1" stop-color="#AA7245" />
      </linearGradient>
    </defs>
  </g>
  <g id="wr" fill="none" transform="scale(0.8 0.8)">
    <path fill-rule="evenodd" clip-rule="evenodd" d="M14.371 8.6743C13.3387 11.8432 13.2269 19.2123 16.9605 19.2393V22.035H19.6342L16.253 38.045H33.747L30.3658 22.035H33.0395V19.2393C36.7731 19.2123 36.6613 11.8435 35.629 8.6743H31.5626V11.4095H27.692V8.6743H22.3083V11.4095H18.4377V8.6743H14.371Z" fill="url(#wrpaint0_linear_1_498)" stroke="#323232" stroke-width="1.2" />
    <path d="M16.961 19.239H33.04" stroke="#323232" stroke-width="1.2" />
    <path d="M19.634 22.035L30.895 22.0346" stroke="#323232" stroke-width="1.2" />
    <path opacity="0.15" fill-rule="evenodd" clip-rule="evenodd" d="M33.217 8.6739C34.1281 11.8961 33.7882 15.8087 33.217 18.5949L16.961 18.5949C21.2911 19.5467 28.52 18.5743 29.264 22.0351L16.961 22.0351C33.04 22.0351 27.786 28.8363 29.02 38.0451L33.7468 38.0446L30.8952 22.0346H33.0395V18.5943H34.7859C37.4083 15.4448 35.9554 10.3622 35.5525 8.6733L33.217 8.6739Z" fill="#070705" />
    <path fill-rule="evenodd" clip-rule="evenodd" d="M25 36.457C25 36.457 16.4221 36.5051 14.017 38.0762C12.3943 39.1364 12.0115 41.7276 12.2322 44.3999H37.7682C37.9889 41.7276 37.6061 39.1363 35.9834 38.0762C33.5787 36.5051 25.0004 36.457 25.0004 36.457H25Z" fill="url(#wrpaint1_linear_1_498)" stroke="#323232" stroke-width="1.2" stroke-linejoin="round" />
    <path opacity="0.15" fill-rule="evenodd" clip-rule="evenodd" d="M25 36.457C25 36.457 16.4218 36.5049 14.017 38.076C12.3943 39.1362 12.0116 40.669 12.2324 43.3413H12.3164C12.544 41.9614 13.0667 40.8135 14.017 40.1927C16.4221 38.6216 25 38.5737 25 38.5737C25 38.5737 33.5785 38.6216 35.983 40.1927C36.9333 40.8135 37.4559 41.9615 37.6836 43.3413H37.7676C37.9883 40.669 37.6057 39.1361 35.983 38.076C33.5783 36.5049 25 36.457 25 36.457V36.457Z" fill="black" />
    <path fill-rule="evenodd" clip-rule="evenodd" d="M14.821 9.2702C14.821 9.2702 14.0371 12.6784 14.4464 14.8299C14.3236 12.0963 16.5745 9.2702 16.5745 9.2702H14.821Z" fill="white" />
    <path fill-rule="evenodd" clip-rule="evenodd" d="M22.899 9.2454V11.9987L24.0814 9.2619L22.899 9.2454Z" fill="white" />
    <path fill-rule="evenodd" clip-rule="evenodd" d="M32.168 9.2756V12.0289L32.9294 9.2833L32.168 9.2756Z" fill="white" />
    <path fill-rule="evenodd" clip-rule="evenodd" d="M17.575 21.433V19.8372H23.2801C23.2801 19.8372 17.6825 19.6801 17.575 21.433V21.433Z" fill="white" />
    <defs>
      <linearGradient id="wrpaint0_linear_1_498" x1="13.1506" y1="23.3492" x2="36.8543" y2="23.3492" gradientUnits="userSpaceOnUse">
        <stop stop-color="#FBECDC" />
        <stop offset="1" stop-color="#AA7245" />
      </linearGradient>
      <linearGradient id="wrpaint1_linear_1_498" x1="11.58" y1="40.42" x2="38.43" y2="40.42" gradientUnits="userSpaceOnUse">
        <stop stop-color="#FBECDC" />
        <stop offset="1" stop-color="#AA7245" />
      </linearGradient>
    </defs>
  </g>
</svg>