<svg xmlns="http://www.w3.org/2000/svg" width="40" height="40" viewbox="0.0 0.0 256.0 256.0">
  <g id="bb" fill="none" transform="scale(0.15625 0.15625)">
    <path fill-rule="evenodd" clip-rule="evenodd" d="M62.8402 226.915C62.9219 229.868 65.9675 229 65.9675 229H195.23C177.646 216.481 166.941 215.172 156.66 213.363C181.378 191.095 184.279 153.994 183.763 137.085C183.248 120.176 171.638 87.9723 141.249 60.9161C143.644 55.777 144.289 49.7974 142.74 45.0839C141.19 40.3703 134.801 33.3806 125.387 33.0206C109.625 32.4177 106.07 45.2193 105.58 50.7421C105.09 56.2649 108.097 64.9934 116.005 70.5485C123.912 76.1035 146.485 92.0067 142.066 135.18C137.647 178.353 110.214 191.13 92.0285 202.939C73.8428 214.747 62.6973 221.753 62.8402 226.915ZM104.538 70.5485C107.034 69.7672 93.7373 80.7655 89.9437 95.5671C86.15 110.369 97.7448 127.485 104.538 141.435C111.331 155.384 111.33 173.64 101.411 181.047C91.4913 188.455 69.4431 187.399 60.7553 149.774C58.4254 139.619 62.1675 129.526 62.8402 125.798C71.3968 135.04 77.8212 148.12 81.6041 158.114C85.8953 152.336 82.2994 142.34 79.5192 133.095C76.739 123.85 73.1507 115.803 69.0949 110.161C76.7423 85.4414 102.416 71.2126 104.538 70.5485Z" fill="#20292D" stroke="#20292D" stroke-linejoin="round" />
  </g>
  <g id="bk" fill="none" transform="scale(0.15625 0.15625)">
    <path fill-rule="evenodd" clip-rule="evenodd" d="M167.453 186.182C176.47 189.569 181.639 214.897 181.639 214.897C181.639 214.897 169.645 228.711 127.905 228.711C86.164 228.711 73.9771 215.19 73.9771 215.19C73.9019 214.867 79.3289 189.505 88.3563 186.182C45.1186 185.179 32 154.418 32 127.848C32 101.279 56.3953 76.2634 100.221 82.3676C102.155 69.1361 113.869 57.6499 123.95 57.6499V128.837C123.95 128.837 121.876 144.816 107.26 147.739C92.6443 150.663 91.5696 143.137 81.4354 139.713C71.3011 136.289 59.082 139.377 57.7064 159.487C56.3308 179.596 73.8482 185.841 90.3338 184.204C90.6132 184.29 165.282 184.14 165.475 184.204C181.961 185.841 199.478 179.596 198.103 159.487C196.727 139.377 184.508 136.288 174.374 139.713C164.24 143.138 163.165 150.663 148.549 147.739C133.934 144.816 131.86 128.837 131.86 128.837V57.6499C141.94 57.6499 153.654 69.1361 155.588 82.3676C199.414 76.2613 223.809 101.282 223.809 127.848C223.809 154.414 210.687 185.179 167.453 186.182ZM153.611 52.7064H101.21C101.21 52.7064 101.07 44.9031 102.198 43.808C103.327 42.7129 121.972 42.8193 121.972 42.8193V27H132.848V42.8193C132.848 42.8193 151.494 42.7119 152.622 43.808C153.751 44.9042 153.611 52.7064 153.611 52.7064V52.7064Z" fill="#20292D" stroke="#20292D" stroke-linejoin="round" />
  </g>
  <g id="bn" fill="none" transform="scale(0.15625 0.15625)">
    <path fill-rule="evenodd" clip-rule="evenodd" d="M60.6356 229.387H193.896C194.993 206.389 217.182 187.683 217.539 153.085C217.896 118.487 196.947 63.4715 112.22 66.0357C88.4699 54.7418 76.2551 54.4495 66.009 55.2889C70.3923 63.7228 74.3244 72.3837 77.7886 81.2349C80.8429 89.3283 78.8547 98.7877 73.3169 108.406C67.779 118.025 46.5401 146.743 38.3446 171.909C34.7272 182.725 60.7141 194.182 63.8597 194.998C65.7823 195.355 62.1649 196.243 73.7016 183.317C85.2383 170.391 94.6074 165.994 109.993 160.867C120.68 157.306 131.949 152.832 142.311 112.247C143.053 109.99 137.69 106.528 136.938 109.023C131.505 119.297 123.318 127.856 113.295 133.741C107.778 137.173 85.262 141.543 74.6065 156.309C63.951 171.075 63.7522 173.677 62.785 176.728C61.8178 179.779 48.6432 172.214 48.8141 168.13C48.985 164.047 52.7163 153.211 58.4863 147.712C64.2562 142.212 81.1244 131.838 87.5027 119.77C93.8809 107.701 102.21 92.8297 88.5774 70.3344C100.594 70.7234 112.051 79.9937 116.519 82.1559C123.888 85.7206 147.332 89.0736 157.357 99.3508C167.382 109.628 174.528 130.647 151.696 153.373C128.863 176.099 91.666 172.975 60.6356 229.387Z" fill="#20292D" stroke="#20292D" stroke-linejoin="round" />
  </g>
  <g id="bp" fill="none" transform="scale(0.15625 0.15625)">
    <path fill-rule="evenodd" clip-rule="evenodd" d="M138.394 113.914C145.765 115.741 149.8 119.733 151.985 129.196C156.129 147.143 160.495 158.037 196.485 228.949C196.21 228.901 60 228.949 60 228.949C70.2804 171.663 108.735 167.216 120.331 159.041C136.773 147.451 138.41 134.033 126.385 133.836C118.509 133.706 112.522 151.651 111.114 146.509C103.342 131.652 107.978 120.717 119.437 115.344C120.679 114.761 121.202 115.037 122.701 114.583C115.164 112.989 108.467 108.7 103.867 102.52C99.2671 96.3392 97.081 88.6926 97.7187 81.0148C98.3564 73.337 101.774 66.1559 107.331 60.819C112.887 55.4822 120.2 52.3566 127.897 52.0287C135.594 51.7008 143.147 54.1932 149.137 59.0382C155.127 63.8832 159.143 70.7477 160.431 78.3434C161.72 85.9392 160.192 93.744 156.134 100.293C152.077 106.842 145.769 111.686 138.394 113.914Z" fill="#20292D" stroke="#20292D" stroke-linejoin="round" />
  </g>
  <g id="bq" fill="none" transform="scale(0.15625 0.15625)">
    <path fill-rule="evenodd" clip-rule="evenodd" d="M227.673 90.0519C227.52 90.0519 225.675 90.0583 225.524 90.0519L167.491 228.686H136.762C169.204 181.954 221.026 96.5236 220.158 96.2292C206.083 111.102 185.816 149.114 172.864 164.205C158.558 180.873 143.163 185.661 143.848 180.325C145.245 169.399 146.37 164.43 153.198 141.45C160.038 118.426 163.243 69.7683 162.279 64.814C160.022 85.175 157.838 106.351 148.147 129.815C138.455 153.28 132.959 171.162 127.728 187.848C127.099 190.047 115.654 163.281 112.682 133.039C109.711 102.798 102.251 72.484 93.6752 62.4229C93.327 62.5013 107.692 102.626 106.234 131.964C104.776 161.303 105.43 176.003 110.533 187.848C99.5451 179.496 86.6554 167.935 77.2175 155.607C67.7797 143.28 54.3622 119.068 36.3796 96.5C35.5456 96.8718 86.2513 181.954 118.692 228.686H87.9643L29.9315 90.0519C29.78 90.0583 27.9347 90.0519 27.7821 90.0519C25.1629 90.056 22.6319 89.1051 20.6634 87.3772C18.6949 85.6492 17.424 83.2629 17.0886 80.6652C16.7533 78.0675 17.3765 75.4366 18.8416 73.2654C20.3066 71.0942 22.513 69.5316 25.0475 68.8704C27.5819 68.2092 30.2705 68.4946 32.6095 69.6734C34.9486 70.8521 36.7777 72.8432 37.7542 75.2736C38.7306 77.7041 38.7874 80.4072 37.914 82.8765C37.0406 85.3459 35.2969 87.4121 33.0094 88.6881C32.011 89.2308 33.1555 90.0519 33.1555 90.0519C66.0881 101.858 90.3845 78.3239 86.8897 53.5127C86.8639 53.3289 86.8456 53.1731 86.822 52.9947C84.4098 52.2209 82.3482 50.6204 81.0005 48.4753C79.6529 46.3302 79.1059 43.7783 79.4557 41.2693C79.8055 38.7603 81.0298 36.4553 82.9127 34.7607C84.7957 33.066 87.2164 32.0905 89.7483 32.006C92.2801 31.9215 94.7605 32.7335 96.7523 34.2988C98.744 35.8642 100.119 38.0824 100.636 40.5625C101.152 43.0425 100.776 45.6253 99.5746 47.8554C98.373 50.0856 96.4227 51.82 94.0675 52.7529C94.2835 53.2214 94.4124 53.5127 94.4124 53.5127C114.989 72.0509 141.461 71.8897 161.043 53.5127C161.043 53.5127 161.172 53.2214 161.388 52.7518C159.036 51.8192 157.09 50.0866 155.891 47.8593C154.692 45.632 154.317 43.0529 154.833 40.5766C155.349 38.1003 156.723 35.8856 158.712 34.3228C160.701 32.76 163.178 31.9493 165.706 32.0337C168.234 32.1181 170.651 33.0921 172.532 34.784C174.412 36.4759 175.635 38.7773 175.985 41.2825C176.335 43.7877 175.789 46.3361 174.444 48.4784C173.099 50.6208 171.041 52.2198 168.633 52.9936C168.608 53.172 168.591 53.3278 168.566 53.5116C165.071 78.3228 189.367 101.857 222.3 90.0508C222.3 90.0508 223.443 89.2298 222.445 88.687C220.165 87.4127 218.428 85.351 217.559 82.8881C216.689 80.4252 216.748 77.7299 217.723 75.3069C218.697 72.8839 220.522 70.8993 222.855 69.7247C225.188 68.5501 227.869 68.266 230.396 68.9257C232.923 69.5854 235.123 71.1436 236.584 73.3086C238.045 75.4735 238.667 78.0968 238.333 80.6871C237.999 83.2775 236.732 85.6574 234.77 87.3812C232.808 89.105 230.285 90.0545 227.673 90.0519Z" fill="#20292D" stroke="#20292D" stroke-linejoin="round" />
  </g>
  <g id="br" fill="none" transform="scale(0.15625 0.15625)">
    <path fill-rule="evenodd" clip-rule="evenodd" d="M127.212 40.0002C136.029 39.9844 144.829 40.7852 153.499 42.3925C154.51 42.5827 155.288 69.6077 155.288 69.6077L165.497 70.6287C165.497 70.6287 164.492 44.9438 166.405 45.5262C192.598 53.4359 210.419 69.0252 210.419 86.9638C210.231 87.4775 211.115 153.418 211.115 153.418C210.844 157.63 196.414 166.905 172.801 162.813C189.996 147.677 188.371 137.171 189.996 85.9429L184.891 83.901C184.891 83.901 182.527 115.155 181.828 114.529C174.388 107.866 153.59 103.568 131.64 103.132C131.469 103.116 130.781 65.5239 130.781 65.5239H124.655C124.655 65.5239 122.645 102.913 122.652 103.171C103.043 103.739 83.832 107.517 73.6075 115.55L69.5237 82.88L64.419 86.9638L68.5028 138.011C113.658 110.993 176.07 160.701 184.755 229.413C185.013 229.424 70.5446 228.876 70.5446 228.876V164.556C59.5829 164.556 44 158.572 44 151.284V86.9638C44 68.8823 62.103 53.1887 88.638 45.3393C89.9921 44.9384 89.9427 70.6287 89.9427 70.6287L100.152 68.5868C100.152 68.5868 100.239 42.5085 102.067 42.1818C110.368 40.7165 118.782 39.9865 127.212 40.0002Z" fill="#20292D" stroke="#20292D" stroke-linejoin="round" />
  </g>
  <g id="wb" fill="none" transform="scale(0.15625 0.15625)">
    <path fill-rule="evenodd" clip-rule="evenodd" d="M62.8402 226.915C62.9219 229.87 65.9675 229 65.9675 229H195.23C177.646 216.48 166.941 215.168 156.66 213.363C181.378 191.096 184.279 153.998 183.763 137.082C183.248 120.167 171.638 87.9691 141.249 60.9193C143.644 55.7824 144.289 49.7964 142.74 45.0893C141.19 40.3822 134.801 33.3859 125.387 33.0205C109.625 32.4187 106.07 45.2183 105.58 50.7421C105.09 56.266 108.097 64.9924 116.005 70.5485C123.912 76.1046 146.485 92.0099 142.066 135.18C137.647 178.35 110.214 191.128 92.0285 202.939C73.8428 214.749 62.6973 221.756 62.8402 226.915ZM104.538 70.5485C107.034 69.7639 93.7373 80.7687 89.9437 95.5671C86.15 110.365 97.7448 127.485 104.538 141.434C111.331 155.384 111.33 173.643 101.411 181.047C91.4913 188.452 69.4431 187.399 60.7553 149.774C58.4254 139.618 62.1675 129.527 62.8402 125.798C71.3968 135.04 77.8212 148.119 81.6041 158.114C85.8953 152.343 82.2994 142.337 79.5192 133.095C76.739 123.853 73.1507 115.803 69.0949 110.161C76.7423 85.4435 102.416 71.2148 104.538 70.5485Z" fill="#FECEA8" stroke="#9B3240" stroke-width="5.37341" stroke-linecap="square" stroke-linejoin="round" />
  </g>
  <g id="wk" fill="none" transform="scale(0.15625 0.15625)">
    <path fill-rule="evenodd" clip-rule="evenodd" d="M167.453 186.182C176.47 189.567 181.639 214.897 181.639 214.897C181.639 214.897 169.645 228.707 127.905 228.707C86.164 228.707 73.9771 215.188 73.9771 215.188C73.9019 214.865 79.3289 189.503 88.3563 186.182C45.1186 185.182 32 154.414 32 127.848C32 101.282 56.3953 76.2635 100.221 82.3676C102.155 69.1383 113.869 57.65 123.95 57.65V128.837C123.95 128.837 121.876 144.817 107.26 147.741C92.6443 150.664 91.5696 143.141 81.4354 139.713C71.3011 136.284 59.082 139.379 57.7064 159.487C56.3308 179.594 73.8482 185.838 90.3338 184.204C90.6132 184.29 165.282 184.14 165.475 184.204C181.961 185.838 199.478 179.594 198.103 159.487C196.727 139.379 184.508 136.284 174.374 139.713C164.24 143.141 163.165 150.664 148.549 147.741C133.934 144.817 131.86 128.837 131.86 128.837V57.65C141.94 57.65 153.654 69.1383 155.588 82.3676C199.414 76.2635 223.809 101.282 223.809 127.848C223.809 154.414 210.687 185.182 167.453 186.182ZM153.611 52.7063H101.21C101.21 52.7063 101.07 44.9042 102.198 43.808C103.327 42.7119 121.972 42.8193 121.972 42.8193V27H132.848V42.8193C132.848 42.8193 151.494 42.7119 152.622 43.808C153.751 44.9042 153.611 52.7063 153.611 52.7063V52.7063Z" fill="#FECEA8" stroke="#9B3240" stroke-width="5.37341" stroke-linejoin="round" />
  </g>
  <g id="wn" fill="none" transform="scale(0.15625 0.15625)">
    <path fill-rule="evenodd" clip-rule="evenodd" d="M60.6356 229.387H193.896C194.993 206.389 217.182 187.679 217.539 153.085C217.896 118.491 196.947 63.4669 112.22 66.0354C88.4699 54.7405 76.2551 54.4503 66.009 55.2885C70.3918 63.7216 74.3239 72.3815 77.7886 81.2314C80.8429 89.3237 78.8547 98.7917 73.3169 108.41C67.779 118.029 46.5401 146.744 38.3446 171.913C34.7272 182.724 60.7141 194.18 63.8597 194.997C65.7823 195.352 62.1649 196.244 73.7016 183.315C85.2383 170.387 94.6074 165.992 109.993 160.865C120.68 157.308 131.949 152.827 142.311 112.247C143.053 109.99 137.69 106.529 136.938 109.023C131.506 119.298 123.319 127.857 113.295 133.74C107.778 137.169 85.262 141.543 74.6065 156.309C63.951 171.075 63.7522 173.676 62.785 176.728C61.8178 179.78 48.6432 172.214 48.8141 168.13C48.985 164.046 52.7163 153.214 58.4863 147.711C64.2562 142.209 81.1244 131.838 87.5027 119.769C93.8809 107.701 102.21 92.8272 88.5774 70.3341C100.594 70.721 112.051 79.9955 116.519 82.1556C123.888 85.7235 147.332 89.0766 157.357 99.3505C167.382 109.624 174.528 130.645 151.696 153.375C128.863 176.104 91.666 172.977 60.6356 229.387Z" fill="#FECEA8" stroke="#9B3240" stroke-width="5.37341" stroke-linecap="square" stroke-linejoin="round" />
  </g>
  <g id="wp" fill="none" transform="scale(0.15625 0.15625)">
    <path fill-rule="evenodd" clip-rule="evenodd" d="M138.394 113.915C145.765 115.742 149.8 119.73 151.985 129.198C156.129 147.145 160.495 158.042 196.485 228.95C196.21 228.896 60 228.95 60 228.95C70.2804 171.669 108.735 167.22 120.331 159.041C136.773 147.446 138.41 134.034 126.385 133.84C118.509 133.711 112.522 151.648 111.114 146.511C103.342 131.648 107.978 120.718 119.437 115.345C120.679 114.765 121.202 115.033 122.701 114.582C115.164 112.987 108.467 108.697 103.868 102.516C99.2695 96.3351 97.0845 88.6882 97.7232 81.0105C98.362 73.3329 101.781 66.1521 107.338 60.816C112.895 55.48 120.208 52.3553 127.906 52.0285C135.603 51.7017 143.155 54.1951 149.144 59.041C155.134 63.8868 159.149 70.7518 160.436 78.3477C161.723 85.9436 160.194 93.7482 156.136 100.297C152.078 106.845 145.769 111.688 138.394 113.915Z" fill="#FECEA8" stroke="#9B3240" stroke-width="5.37341" stroke-linejoin="round" />
  </g>
  <g id="wq" fill="none" transform="scale(0.15625 0.15625)">
    <path fill-rule="evenodd" clip-rule="evenodd" d="M227.676 90.0655C227.524 90.0655 225.679 90.0762 225.527 90.0655L167.494 228.699H136.766C169.207 181.972 221.029 96.5351 220.161 96.2449C206.083 111.118 185.816 149.13 172.864 164.219C158.558 180.887 143.163 185.669 143.848 180.339C145.245 169.409 146.37 164.444 153.198 141.467C160.038 118.437 163.243 69.7755 162.279 64.832C160.022 85.1864 157.838 106.368 148.147 129.829C138.455 153.289 132.959 171.172 127.728 187.862C127.099 190.065 115.654 163.294 112.682 133.053C109.711 102.811 102.251 72.4945 93.6753 62.4354C93.3271 62.5107 107.692 102.639 106.234 131.978C104.776 161.317 105.43 176.019 110.533 187.862C99.5452 179.511 86.6555 167.948 77.2176 155.621C67.7797 143.294 54.3623 119.082 36.3797 96.5136C35.5457 96.8897 86.2514 181.972 118.692 228.699H87.9676L29.9348 90.0655C29.7833 90.0762 27.938 90.0655 27.7854 90.0655C25.1659 90.0702 22.6345 89.1196 20.6655 87.3919C18.6964 85.6642 17.4249 83.2779 17.0889 80.68C16.753 78.0821 17.3757 75.4508 18.8405 73.2791C20.3053 71.1073 22.5117 69.5441 25.0463 68.8823C27.5809 68.2206 30.2698 68.5056 32.6093 69.684C34.9488 70.8624 36.7785 72.8533 37.7555 75.2839C38.7325 77.7144 38.7899 80.4178 37.9168 82.8876C37.0437 85.3574 35.3002 87.4241 33.0127 88.7006C32.0143 89.2487 33.1588 90.0655 33.1588 90.0655C66.0914 101.876 90.3878 78.3407 86.893 53.5263C86.8672 53.3436 86.8489 53.1824 86.8253 53.0104C84.4107 52.2384 82.3463 50.6387 80.9959 48.4934C79.6454 46.3481 79.0957 43.7949 79.4436 41.2839C79.7915 38.7729 81.0148 36.4654 82.8977 34.7681C84.7806 33.0708 87.2022 32.0927 89.7357 32.0063C92.2692 31.9198 94.7518 32.7307 96.746 34.2957C98.7402 35.8608 100.118 38.0795 100.636 40.561C101.154 43.0424 100.78 45.627 99.5788 47.8594C98.3777 50.0918 96.4271 51.8285 94.0708 52.7633C94.2857 53.2362 94.4157 53.5263 94.4157 53.5263C114.993 72.0645 141.464 71.9033 161.046 53.5263C161.046 53.5263 161.175 53.2362 161.391 52.7633C159.042 51.829 157.099 50.0959 155.903 47.8692C154.707 45.6426 154.335 43.0653 154.853 40.5914C155.371 38.1175 156.745 35.9057 158.734 34.3457C160.723 32.7857 163.198 31.9777 165.724 32.0639C168.25 32.15 170.665 33.1249 172.543 34.8168C174.42 36.5087 175.641 38.8089 175.989 41.3124C176.337 43.8158 175.79 46.3619 174.445 48.5018C173.1 50.6418 171.043 52.2384 168.637 53.0104C168.612 53.1824 168.595 53.3436 168.569 53.5263C165.074 78.3407 189.37 101.876 222.303 90.0655C222.303 90.0655 223.446 89.2487 222.448 88.7006C220.169 87.4263 218.432 85.3649 217.562 82.9023C216.693 80.4396 216.752 77.7445 217.727 75.3218C218.701 72.899 220.526 70.9148 222.858 69.7403C225.191 68.5659 227.872 68.2818 230.398 68.9414C232.925 69.601 235.125 71.1591 236.586 73.3238C238.047 75.4885 238.668 78.1114 238.335 80.7015C238.001 83.2916 236.735 85.6713 234.773 87.3949C232.811 89.1185 230.288 90.068 227.676 90.0655V90.0655Z" fill="#FECEA8" stroke="#9B3240" stroke-width="4.83607" stroke-linejoin="round" />
  </g>
  <g id="wr" fill="none" transform="scale(0.15625 0.15625)">
    <path fill-rule="evenodd" clip-rule="evenodd" d="M127.212 40.0002C136.029 39.9844 144.829 40.783 153.499 42.386C154.51 42.5794 155.288 69.6076 155.288 69.6076L165.497 70.6287C165.497 70.6287 164.492 44.9438 166.405 45.5241C192.598 53.4338 210.419 69.0273 210.419 86.9638C210.231 87.4796 211.115 153.411 211.115 153.411C210.844 157.624 196.414 166.899 172.801 162.815C189.996 147.673 188.371 137.173 189.996 85.9429L184.891 83.901C184.891 83.901 182.527 115.153 181.828 114.529C174.388 107.856 153.59 103.568 131.64 103.127C131.469 103.116 130.781 65.5239 130.781 65.5239H124.655C124.655 65.5239 122.645 102.912 122.652 103.17C103.043 103.74 83.832 107.512 73.6075 115.55L69.5237 82.8801L64.419 86.9638L68.5028 138.011C113.658 110.994 176.07 160.698 184.755 229.413C185.013 229.424 70.5446 228.876 70.5446 228.876V164.556C59.5829 164.556 44 158.57 44 151.283V86.9638C44 68.8769 62.103 53.1866 88.638 45.3414C89.9921 44.933 89.9427 70.6287 89.9427 70.6287L100.152 68.5868C100.152 68.5868 100.239 42.5043 102.067 42.1819C110.368 40.7158 118.782 39.9857 127.212 40.0002Z" fill="#FECEA8" stroke="#9B3240" stroke-width="5.37341" stroke-linecap="square" stroke-linejoin="round" />
  </g>
</svg>