<svg xmlns="http://www.w3.org/2000/svg" width="40" height="40" viewbox="0.0 0.0 700.0 700.0">
  <g id="bb" fill="none" transform="scale(0.05714285714285714 0.05714285714285714)">
    <path fill-rule="evenodd" clip-rule="evenodd" d="M354.594 168.677C363.009 154.476 385.05 129.407 407.776 116.369C435.958 142.857 474.385 204.545 493.394 263.825C508.209 310.025 511.282 330.785 512.053 380.14C512.825 429.496 486.868 478.114 470.936 496.099" fill="url(#bbpaint0_linear_2_174)" />
    <path d="M354.594 168.677C363.009 154.476 385.05 129.407 407.776 116.369C435.958 142.857 474.385 204.545 493.394 263.825C508.209 310.025 511.282 330.785 512.053 380.14C512.825 429.496 486.868 478.114 470.936 496.099" stroke="black" stroke-width="12.4444" stroke-linecap="round" stroke-linejoin="round" />
    <path fill-rule="evenodd" clip-rule="evenodd" d="M455.365 534.378C460.062 492.791 226.604 495.861 236.15 536.716C243.863 553.74 237.78 575.633 237.78 575.633C237.78 575.633 291.663 567.987 351.634 568.94C411.604 569.893 452.193 574.648 452.193 574.648C452.193 574.648 450.668 546.634 455.365 534.378H455.365Z" fill="url(#bbpaint1_linear_2_174)" stroke="black" stroke-width="12.4444" stroke-linecap="round" stroke-linejoin="round" />
    <path fill-rule="evenodd" clip-rule="evenodd" d="M232.893 530.665C215.167 524.377 202.263 499.215 191.08 483.166C173.23 457.55 162.706 404.277 173.16 344.54C183.614 284.802 240.428 169.369 298.605 118.165C369.509 169.369 415.234 246.78 451.321 349.93C470.632 405.13 480.218 465.538 462.491 528.869C421.132 520.335 281.075 512.24 232.893 530.665V530.665Z" fill="url(#bbpaint2_linear_2_174)" stroke="black" stroke-width="12.4444" stroke-linecap="round" stroke-linejoin="round" />
    <path fill-rule="evenodd" clip-rule="evenodd" d="M288.112 107.893C297.818 91.4068 272.765 80.8889 285.87 69.3754C293.229 62.9098 305.819 62.2627 312.887 70.6494C323.079 82.7423 295.197 93.2322 308.915 107.732" fill="url(#bbpaint3_linear_2_174)" />
    <path d="M288.112 107.893C297.818 91.4068 272.765 80.8889 285.87 69.3754C293.229 62.9098 305.819 62.2627 312.887 70.6494C323.079 82.7423 295.197 93.2322 308.915 107.732" stroke="black" stroke-width="12.4444" stroke-linecap="round" stroke-linejoin="round" />
    <path d="M354.962 554.049C347.548 552.047 340.883 555.571 338.164 553.318C334.828 550.554 335.023 539.054 337.232 536.134C339.12 533.637 363.389 533.326 365.771 535.626C367.992 537.766 365.707 551.699 363.65 555.224" stroke="black" stroke-width="12.4444" stroke-linecap="round" stroke-linejoin="round" />
    <path fill-rule="evenodd" clip-rule="evenodd" d="M312.132 271.105C303.244 272.514 298.82 282.259 299.933 290.524C299.78 297.589 302.874 306.693 297.063 312.23C289.2 314.845 280.692 311.568 272.68 310.884C266.085 310.282 258.131 307.788 252.268 312.035C247.78 317.351 253.022 325.386 258.806 327.177C270.436 332.236 284.244 329.597 295.434 335.587C299.297 339.151 298.506 345.357 299.688 350.097C303.326 378.332 303.133 407.356 311.67 434.705C313.905 440.709 317.395 449.041 324.868 449.094C330.637 447.12 329.908 439.457 330.216 434.51C329.516 403.499 320.91 373.271 319.545 342.319C319.391 339.272 319.664 335.449 323.605 335.125C337.575 331.104 353.898 335.576 366.6 327.08C371.817 324.253 376.171 313.706 367.719 312.326C352.819 310.133 337.759 316.556 322.948 313.76C318.363 312.137 318.764 305.79 318.232 301.802C317.364 292.406 320.22 282.405 316.653 273.437C315.758 271.874 313.961 270.878 312.132 271.104L312.132 271.105Z" fill="#57CC99" stroke="black" stroke-width="12.4444" stroke-linecap="round" stroke-linejoin="round" />
    <path fill-rule="evenodd" clip-rule="evenodd" d="M262.785 624.78C306.204 624.294 327.106 599.594 346.325 599.566C365.543 599.536 383.077 624.177 429.821 624.259C454.9 624.304 586.93 626.939 579.593 606.926C572.255 586.914 488.873 613.789 460.954 599.555C446.339 592.105 442.052 590.34 423.148 587.476C372.149 579.749 320.006 580.057 273.892 587.183C253.363 590.357 245.013 593.889 233.45 601.671C214.001 614.763 132.072 587.543 125.623 606.666C119.175 625.788 210.027 625.371 262.785 624.78V624.78Z" fill="url(#bbpaint4_linear_2_174)" stroke="black" stroke-width="12.4444" stroke-linecap="round" stroke-linejoin="round" />
    <path fill-rule="evenodd" clip-rule="evenodd" d="M509.98 70.8991C493.968 71.0531 482.024 84.1937 475.383 97.5497C470.989 106.032 463.242 112.207 458.937 120.677C458.032 125.779 465.307 127.441 469.145 126.34C478.517 124.357 485.939 116.949 489.104 108.045C492.859 98.8773 501.338 91.665 511.389 91C521.259 89.2648 530.377 97.0231 532.365 106.458C535.238 116.349 533.937 128.007 525.972 135.188C513.539 148.229 494.681 154.065 484.215 169.191C426.779 282.536 369.43 395.953 312.765 509.688C292.65 550.94 271.394 591.726 253.774 634.107C252.404 639.396 248.289 645.259 250.493 650.757C253.969 653.458 258.348 649.281 261.358 647.452C273.745 636.144 280.613 620.17 288.823 605.768C323.415 538.653 355.834 470.432 389.503 402.845C426.06 329.037 462.621 255.205 499.965 181.806C510.53 166.169 530.582 160.93 542.428 146.487C549.971 138.207 554.797 127.246 553.583 115.889C552.806 96.9904 541.862 76.538 522.302 72.0417C518.289 71.0243 514.135 70.714 509.98 70.8991V70.8991Z" fill="#57CC99" stroke="black" stroke-width="12.4444" stroke-linecap="round" stroke-linejoin="round" />
    <path fill-rule="evenodd" clip-rule="evenodd" d="M396.454 104.865C406.16 88.3789 381.107 77.8618 394.212 66.3475C401.571 59.8819 414.16 59.2355 421.23 67.6223C431.421 79.7144 403.539 90.2051 417.258 104.704" fill="url(#bbpaint5_linear_2_174)" />
    <path d="M396.454 104.865C406.16 88.3789 381.107 77.8618 394.212 66.3475C401.571 59.8819 414.16 59.2355 421.23 67.6223C431.421 79.7144 403.539 90.2051 417.258 104.704" stroke="black" stroke-width="12.4444" stroke-linecap="round" stroke-linejoin="round" />
    <defs>
      <linearGradient id="bbpaint0_linear_2_174" x1="576.817" y1="171.144" x2="436.54" y2="466.184" gradientUnits="userSpaceOnUse">
        <stop stop-color="#38A3A5" />
        <stop offset="1" stop-color="#22577A" />
      </linearGradient>
      <linearGradient id="bbpaint1_linear_2_174" x1="165.122" y1="346.899" x2="657.828" y2="557.928" gradientUnits="userSpaceOnUse">
        <stop stop-color="#38A3A5" />
        <stop offset="1" stop-color="#22577A" />
      </linearGradient>
      <linearGradient id="bbpaint2_linear_2_174" x1="165.122" y1="346.899" x2="657.828" y2="557.928" gradientUnits="userSpaceOnUse">
        <stop stop-color="#38A3A5" />
        <stop offset="1" stop-color="#22577A" />
      </linearGradient>
      <linearGradient id="bbpaint3_linear_2_174" x1="265.345" y1="70.1252" x2="323.114" y2="99.9157" gradientUnits="userSpaceOnUse">
        <stop stop-color="#38A3A5" />
        <stop offset="1" stop-color="#22577A" />
      </linearGradient>
      <linearGradient id="bbpaint4_linear_2_174" x1="121.409" y1="489.704" x2="625.941" y2="672.858" gradientUnits="userSpaceOnUse">
        <stop stop-color="#38A3A5" />
        <stop offset="1" stop-color="#22577A" />
      </linearGradient>
      <linearGradient id="bbpaint5_linear_2_174" x1="373.687" y1="67.0981" x2="431.455" y2="96.8878" gradientUnits="userSpaceOnUse">
        <stop stop-color="#38A3A5" />
        <stop offset="1" stop-color="#22577A" />
      </linearGradient>
    </defs>
  </g>
  <g id="bk" fill="none" transform="scale(0.05714285714285714 0.05714285714285714)">
    <path fill-rule="evenodd" clip-rule="evenodd" d="M240.05 476.377C258.088 450.314 234.566 378.502 240.064 345.67C248.987 292.386 319 256.622 328.345 287.515C339.431 324.161 294.425 327.619 281.903 358.209C270.401 386.307 272.862 433.252 295.254 461.506" fill="url(#bkpaint0_linear_2_206)" />
    <path d="M240.05 476.377C258.088 450.314 234.566 378.502 240.064 345.67C248.987 292.386 319 256.622 328.345 287.515C339.431 324.161 294.425 327.619 281.903 358.209C270.401 386.307 272.862 433.252 295.254 461.506" stroke="black" stroke-width="12.4444" stroke-linecap="round" stroke-linejoin="round" />
    <path fill-rule="evenodd" clip-rule="evenodd" d="M472.026 480.135C453.988 454.071 477.511 382.26 472.012 349.428C463.089 296.144 393.075 260.38 383.73 291.272C372.645 327.918 417.651 331.377 430.173 361.967C441.675 390.065 439.214 437.009 416.822 465.264" fill="url(#bkpaint1_linear_2_206)" />
    <path d="M472.026 480.135C453.988 454.071 477.511 382.26 472.012 349.428C463.089 296.144 393.075 260.38 383.73 291.272C372.645 327.918 417.651 331.377 430.173 361.967C441.675 390.065 439.214 437.009 416.822 465.264" stroke="black" stroke-width="12.4444" stroke-linecap="round" stroke-linejoin="round" />
    <path fill-rule="evenodd" clip-rule="evenodd" d="M327.614 224.089C331.702 212.423 342.317 168.926 338.437 156.112C321.082 154.738 284.821 170.658 261.319 165.558C254.7 153.591 250.567 127.84 260.074 113.705C281.351 107.231 328.31 118.581 341.29 120.32C345.891 107.212 330.016 67.7125 333.091 53.41C347.675 46.4388 383.891 47.1279 394.655 54.2142C394.107 69.2362 372.181 105.723 371.649 118.197C386.259 117.448 431.767 105.072 447.302 108.095C454.003 121.091 455.458 144.312 444.647 159.153C428.084 164.67 384.233 152.207 365.961 155.832C358.261 171.362 370.232 211.461 373.177 223.191" fill="url(#bkpaint2_linear_2_206)" />
    <path d="M327.614 224.089C331.702 212.423 342.317 168.926 338.437 156.112C321.082 154.738 284.821 170.658 261.319 165.558C254.7 153.591 250.567 127.84 260.074 113.705C281.351 107.231 328.31 118.581 341.29 120.32C345.891 107.212 330.016 67.7125 333.091 53.41C347.675 46.4388 383.891 47.1279 394.655 54.2142C394.107 69.2362 372.181 105.723 371.649 118.197C386.259 117.448 431.767 105.072 447.302 108.095C454.003 121.091 455.458 144.312 444.647 159.153C428.084 164.67 384.233 152.207 365.961 155.832C358.261 171.362 370.232 211.461 373.177 223.191" stroke="black" stroke-width="12.4444" stroke-linecap="round" stroke-linejoin="round" />
    <path fill-rule="evenodd" clip-rule="evenodd" d="M333.208 289.203C313.97 272.544 305.493 272.406 309.227 230.709C312.416 195.102 391.871 196.938 393.72 229.161C396.039 269.564 382.606 272.589 373.264 292.153" fill="url(#bkpaint3_linear_2_206)" />
    <path d="M333.208 289.203C313.97 272.544 305.493 272.406 309.227 230.709C312.416 195.102 391.871 196.938 393.72 229.161C396.039 269.564 382.606 272.589 373.264 292.153" stroke="black" stroke-width="12.4444" stroke-linecap="round" stroke-linejoin="round" />
    <path fill-rule="evenodd" clip-rule="evenodd" d="M226.304 645.789L176.546 493.155L543.06 491.547L484.812 650.466L226.304 645.789Z" fill="url(#bkpaint4_linear_2_206)" />
    <path fill-rule="evenodd" clip-rule="evenodd" d="M516.022 557.752C443.162 520.407 277.136 518.653 198.995 559.211C209.941 593.801 214.32 632.301 214.32 632.301C285.616 610.162 430.443 609.278 500.443 635.523C500.443 635.523 507.661 583.661 516.022 557.751L516.022 557.752Z" fill="url(#bkpaint5_linear_2_206)" stroke="black" stroke-width="12.4444" stroke-linecap="round" stroke-linejoin="round" />
    <path fill-rule="evenodd" clip-rule="evenodd" d="M446.08 446.469C423.711 434.376 376.725 404.826 351.219 403.772C331.723 402.966 291.481 429.034 270.789 445.059C181.131 404.252 182.203 326.143 244.928 311.816C255.143 309.482 285.551 312.177 305.643 311.257C299.245 293.589 292.271 281.061 298.885 257.542C284.708 248.417 265.839 241.874 244.344 240.601C237.862 240.215 231.368 240.061 224.875 240.139C161.719 240.917 96.191 263.889 86.8927 322C73.3212 406.815 148.408 456.801 175.438 546.51C261.232 497.582 459.066 500.698 541.26 542.986C563.075 473.638 650.033 392.595 630.583 321.903C612.572 256.437 525.006 237.28 467.226 240.552C443.808 241.879 421.327 249.46 404.445 259.875C407.713 278.519 401.088 293.763 395.597 309.871C422.31 309.883 469.177 303.671 487.57 314.076C528.193 337.057 531.29 419.774 446.08 446.469V446.469Z" fill="url(#bkpaint6_linear_2_206)" stroke="black" stroke-width="12.4444" stroke-linecap="round" stroke-linejoin="round" />
    <path fill-rule="evenodd" clip-rule="evenodd" d="M271.046 445.3C300.598 424.55 314.6 383.341 313.419 350.072C311.715 302.102 286.057 293.741 300.71 251.75C310.645 223.278 393.392 221.814 402.738 252.707C413.824 289.353 385.36 312.168 389.797 349.264C394.973 392.54 395.294 421.227 446.026 447.71" fill="url(#bkpaint7_linear_2_206)" />
    <path d="M271.046 445.3C300.598 424.55 314.6 383.341 313.419 350.072C311.715 302.102 286.057 293.741 300.71 251.75C310.645 223.278 393.392 221.814 402.738 252.707C413.824 289.353 385.36 312.168 389.797 349.264C394.973 392.54 395.294 421.227 446.026 447.71" stroke="black" stroke-width="12.4444" stroke-linecap="round" stroke-linejoin="round" />
    <path fill-rule="evenodd" clip-rule="evenodd" d="M229.982 647.638C298.321 655.793 407.48 657.131 484.601 649.474C431.247 627.712 285.058 627.947 229.982 647.638Z" fill="url(#bkpaint8_linear_2_206)" stroke="black" stroke-width="12.4444" stroke-linecap="round" stroke-linejoin="round" />
    <path fill-rule="evenodd" clip-rule="evenodd" d="M368.372 573.249C368.372 576.571 366.987 579.757 364.521 582.106C362.054 584.455 358.709 585.774 355.221 585.774C351.733 585.774 348.388 584.455 345.922 582.106C343.456 579.757 342.07 576.571 342.07 573.249C342.07 569.928 343.456 566.742 345.922 564.393C348.388 562.044 351.733 560.725 355.221 560.725C358.709 560.725 362.054 562.044 364.521 564.393C366.987 566.742 368.372 569.928 368.372 573.249Z" fill="#57CC99" stroke="black" stroke-width="12.4444" stroke-linecap="round" stroke-linejoin="round" />
    <path fill-rule="evenodd" clip-rule="evenodd" d="M292.536 579.555C292.98 582.006 291.882 584.633 289.483 586.858C287.085 589.083 283.582 590.723 279.746 591.417C275.91 592.112 272.055 591.805 269.029 590.562C266.002 589.32 264.053 587.245 263.609 584.794C263.165 582.342 264.263 579.715 266.661 577.49C269.06 575.266 272.562 573.626 276.398 572.931C280.234 572.236 284.089 572.544 287.116 573.786C290.142 575.028 292.092 577.103 292.536 579.555Z" fill="#57CC99" stroke="black" stroke-width="12.4444" stroke-linecap="round" stroke-linejoin="round" />
    <path fill-rule="evenodd" clip-rule="evenodd" d="M444.814 584.464C444.415 586.923 442.542 589.04 439.608 590.348C436.673 591.657 432.918 592.05 429.167 591.441C425.417 590.832 421.978 589.272 419.608 587.102C417.238 584.933 416.131 582.333 416.53 579.874C416.929 577.415 418.802 575.298 421.736 573.989C424.671 572.681 428.426 572.288 432.177 572.896C435.927 573.505 439.366 575.066 441.736 577.235C444.106 579.404 445.213 582.005 444.814 584.464Z" fill="#57CC99" stroke="black" stroke-width="12.4442" stroke-linecap="round" stroke-linejoin="round" />
    <defs>
      <linearGradient id="bkpaint0_linear_2_206" x1="246.987" y1="332.15" x2="302.215" y2="405.39" gradientUnits="userSpaceOnUse">
        <stop stop-color="#38A3A5" />
        <stop offset="1" stop-color="#22577A" />
      </linearGradient>
      <linearGradient id="bkpaint1_linear_2_206" x1="400.786" y1="348.87" x2="479.089" y2="411.092" gradientUnits="userSpaceOnUse">
        <stop stop-color="#38A3A5" />
        <stop offset="1" stop-color="#22577A" />
      </linearGradient>
      <linearGradient id="bkpaint2_linear_2_206" x1="310.487" y1="124.641" x2="466.549" y2="223.159" gradientUnits="userSpaceOnUse">
        <stop stop-color="#38A3A5" />
        <stop offset="1" stop-color="#22577A" />
      </linearGradient>
      <linearGradient id="bkpaint3_linear_2_206" x1="302.143" y1="248.325" x2="400.207" y2="248.325" gradientUnits="userSpaceOnUse">
        <stop stop-color="#38A3A5" />
        <stop offset="1" stop-color="#22577A" />
      </linearGradient>
      <linearGradient id="bkpaint4_linear_2_206" x1="116.637" y1="333.401" x2="647.398" y2="650.466" gradientUnits="userSpaceOnUse">
        <stop stop-color="#38A3A5" />
        <stop offset="1" stop-color="#22577A" />
      </linearGradient>
      <linearGradient id="bkpaint5_linear_2_206" x1="116.637" y1="333.401" x2="647.398" y2="650.466" gradientUnits="userSpaceOnUse">
        <stop stop-color="#38A3A5" />
        <stop offset="1" stop-color="#22577A" />
      </linearGradient>
      <linearGradient id="bkpaint6_linear_2_206" x1="116.637" y1="333.401" x2="647.398" y2="650.466" gradientUnits="userSpaceOnUse">
        <stop stop-color="#38A3A5" />
        <stop offset="1" stop-color="#22577A" />
      </linearGradient>
      <linearGradient id="bkpaint7_linear_2_206" x1="116.637" y1="333.401" x2="647.398" y2="650.466" gradientUnits="userSpaceOnUse">
        <stop stop-color="#38A3A5" />
        <stop offset="1" stop-color="#22577A" />
      </linearGradient>
      <linearGradient id="bkpaint8_linear_2_206" x1="187.873" y1="602.729" x2="508.271" y2="668.384" gradientUnits="userSpaceOnUse">
        <stop stop-color="#38A3A5" />
        <stop offset="1" stop-color="#22577A" />
      </linearGradient>
    </defs>
  </g>
  <g id="bn" fill="none" transform="scale(0.05714285714285714 0.05714285714285714)">
    <path fill-rule="evenodd" clip-rule="evenodd" d="M411.126 312.517C411.292 372.012 342.505 423.47 274.66 397.555C264.269 393.587 169.996 479.068 154.887 467.373C142.967 458.146 168.093 420.108 166.266 424.967C157.569 448.098 119.174 473.846 88.3402 440.61C76.2823 427.613 80.011 390.228 105.983 359.773C133.032 328.055 160.497 279.213 171.128 251.043C192.51 194.381 184.12 193.145 225.098 141.76C232.797 132.108 212.586 94.6307 219.932 70.168C248.948 75.3426 260.135 104.516 273.478 116.759C281.256 98.7529 276.03 50.3681 289.858 52.6221C303.684 54.8769 319.59 96.7937 342.4 115.204C615.604 199.278 613.371 636.473 537.017 637.89C442.772 639.638 329.941 639.243 235.157 637.733C212.191 637.367 201.56 607.654 205.988 589.899C227.109 505.216 316.303 445.943 359.995 416.568C404.87 386.398 413.087 356.75 411.126 312.517Z" fill="url(#bnpaint0_linear_2_236)" stroke="black" stroke-width="12.4444" stroke-linecap="round" stroke-linejoin="round" />
    <path d="M294.988 84.6798C318.439 117.44 326.908 124.066 299.022 119.366M268.338 228.744C245.726 224.57 225.899 231.138 209.525 247.434L268.338 228.744ZM231.885 253.402C240.008 261.678 250.345 262.023 252.048 247.96L231.885 253.402ZM117.266 403.114C106.49 399.392 98.6947 416.754 105.57 417.462L117.266 403.114ZM246.459 368.903L253.839 378.073L246.459 368.903ZM411.252 287.184L411.478 267.803L411.252 287.184ZM253.462 126.506L245.596 130.612L253.462 126.506Z" stroke="black" stroke-width="12.4444" stroke-linecap="round" stroke-linejoin="round" />
    <path fill-rule="evenodd" clip-rule="evenodd" d="M353.457 101.987C420.791 121.73 409.433 107.48 423.635 130.606C431.591 143.562 442.615 126.19 468.859 127.833C483.033 128.721 429.971 106.661 423.049 97.8398C413.441 85.5937 343.577 99.0905 353.457 101.987V101.987Z" fill="url(#bnpaint1_linear_2_236)" stroke="black" stroke-width="12.4444" stroke-linecap="round" stroke-linejoin="round" />
    <path fill-rule="evenodd" clip-rule="evenodd" d="M450.762 155.34C471.912 171.418 487.403 155.087 486.568 182.986C485.994 202.143 511.85 189.344 524.407 197.335C535.975 204.696 547.577 175.001 540.219 175.001C529.15 175.001 510.352 180.194 513.754 167.694C521.219 140.255 444.688 150.722 450.762 155.34V155.34Z" fill="url(#bnpaint2_linear_2_236)" stroke="black" stroke-width="12.4444" stroke-linecap="round" stroke-linejoin="round" />
    <path fill-rule="evenodd" clip-rule="evenodd" d="M512.97 216.001C517.086 217.441 539.507 232.622 538.469 239.84C533.115 277.076 560.57 274.661 572.386 278.598C588.944 284.114 571.615 264.346 563.26 254.183C554.906 244.019 568.969 239.469 567.984 233.022C564.521 210.345 510.82 215.249 512.97 216.001V216.001Z" fill="url(#bnpaint3_linear_2_236)" stroke="black" stroke-width="12.4444" stroke-linecap="round" stroke-linejoin="round" />
    <path fill-rule="evenodd" clip-rule="evenodd" d="M552.526 294.503C556.46 301.363 565.684 309.133 568.608 319.894C571.532 330.655 572.633 340.249 578.481 351.808C584.329 363.366 607.86 361.859 618.006 358.467C631.678 353.896 584.954 339.701 595.482 318.06C602.145 304.363 550.402 290.801 552.525 294.503H552.526Z" fill="url(#bnpaint4_linear_2_236)" stroke="black" stroke-width="12.4444" stroke-linecap="round" stroke-linejoin="round" />
    <path d="M340.781 567.39L320.73 615.217" stroke="black" stroke-width="12.4444" stroke-linecap="round" stroke-linejoin="round" />
    <defs>
      <linearGradient id="bnpaint0_linear_2_236" x1="206.614" y1="202.176" x2="585.829" y2="667.588" gradientUnits="userSpaceOnUse">
        <stop stop-color="#38A3A5" />
        <stop offset="1" stop-color="#22577A" />
      </linearGradient>
      <linearGradient id="bnpaint1_linear_2_236" x1="387.172" y1="121.26" x2="489.886" y2="122.491" gradientUnits="userSpaceOnUse">
        <stop stop-color="#38A3A5" />
        <stop offset="1" stop-color="#22577A" />
      </linearGradient>
      <linearGradient id="bnpaint2_linear_2_236" x1="465.64" y1="166.259" x2="548.747" y2="183.78" gradientUnits="userSpaceOnUse">
        <stop stop-color="#38A3A5" />
        <stop offset="1" stop-color="#22577A" />
      </linearGradient>
      <linearGradient id="bnpaint3_linear_2_236" x1="521.915" y1="235.921" x2="578.009" y2="274.104" gradientUnits="userSpaceOnUse">
        <stop stop-color="#38A3A5" />
        <stop offset="1" stop-color="#22577A" />
      </linearGradient>
      <linearGradient id="bnpaint4_linear_2_236" x1="548.56" y1="297.335" x2="612.209" y2="365.263" gradientUnits="userSpaceOnUse">
        <stop stop-color="#38A3A5" />
        <stop offset="1" stop-color="#22577A" />
      </linearGradient>
    </defs>
  </g>
  <g id="bp" fill="none" transform="scale(0.05714285714285714 0.05714285714285714)">
    <path fill-rule="evenodd" clip-rule="evenodd" d="M451.071 237.385C451.071 260.158 441.04 281.999 423.185 298.102C405.33 314.205 381.113 323.252 355.862 323.252C330.611 323.252 306.394 314.205 288.539 298.102C270.684 281.999 260.653 260.158 260.653 237.385C260.653 214.612 270.684 192.771 288.539 176.668C306.394 160.565 330.611 151.518 355.862 151.518C381.113 151.518 405.33 160.565 423.185 176.668C441.04 192.771 451.071 214.612 451.071 237.385V237.385Z" fill="url(#bppaint0_linear_2_253)" stroke="black" stroke-width="12.4446" stroke-linecap="round" stroke-linejoin="round" />
    <path fill-rule="evenodd" clip-rule="evenodd" d="M324.657 363.23C325.8 495.588 257.198 535.195 225.128 557.866C198.534 576.665 205.323 621.91 240.61 624.219C262.476 625.65 455.753 626.055 478.339 623.563C518.301 619.153 519.441 571.685 493.651 555.655C452.733 530.219 387.725 501.569 385.931 363.473C385.588 337.564 324.454 340.133 324.657 363.231V363.23Z" fill="url(#bppaint1_linear_2_253)" stroke="black" stroke-width="12.4444" stroke-linecap="round" stroke-linejoin="round" />
    <path fill-rule="evenodd" clip-rule="evenodd" d="M280.274 336.572C222.567 351.401 202.411 387.92 202.411 387.92H520.403C520.403 387.92 486.623 347.604 434.828 336.054C368.53 321.271 334.36 322.674 280.274 336.572V336.572Z" fill="url(#bppaint2_linear_2_253)" stroke="black" stroke-width="12.4444" stroke-linecap="round" stroke-linejoin="round" />
    <path d="M279.316 555.081H425.463" stroke="black" stroke-width="12.4444" stroke-linecap="round" stroke-linejoin="round" />
    <defs>
      <linearGradient id="bppaint0_linear_2_253" x1="256.764" y1="211.459" x2="565.117" y2="329.046" gradientUnits="userSpaceOnUse">
        <stop stop-color="#38A3A5" />
        <stop offset="1" stop-color="#22577A" />
      </linearGradient>
      <linearGradient id="bppaint1_linear_2_253" x1="249.101" y1="485.164" x2="617.591" y2="594.921" gradientUnits="userSpaceOnUse">
        <stop stop-color="#38A3A5" />
        <stop offset="1" stop-color="#22577A" />
      </linearGradient>
      <linearGradient id="bppaint2_linear_2_253" x1="229.634" y1="356.732" x2="686.507" y2="436.137" gradientUnits="userSpaceOnUse">
        <stop stop-color="#38A3A5" />
        <stop offset="1" stop-color="#22577A" />
      </linearGradient>
    </defs>
  </g>
  <g id="bq" fill="none" transform="scale(0.05714285714285714 0.05714285714285714)">
    <path fill-rule="evenodd" clip-rule="evenodd" d="M205.282 641.581L166.1 512.305L503.475 513.33L464.96 645.304L205.282 641.581Z" fill="url(#bqpaint0_linear_2_278)" />
    <path fill-rule="evenodd" clip-rule="evenodd" d="M492.11 557.107C397.065 523.142 271.683 522.944 179.137 557.026C188.925 580.771 191.518 629.358 191.518 629.358C269.855 607.445 403.038 608.111 480.762 632.615C480.762 632.615 482.559 580.732 492.11 557.107Z" fill="url(#bqpaint1_linear_2_278)" stroke="black" stroke-width="12.4444" stroke-linecap="round" stroke-linejoin="round" />
    <path fill-rule="evenodd" clip-rule="evenodd" d="M167.303 542.823C262.075 501.845 410.421 501.196 506.085 543.142C515.517 461.448 545.246 360.601 601.505 288.265C558.846 304.958 496.91 411.826 460.902 431.966C432.666 372.65 488.548 218.696 510.274 186.088C473.797 208.036 396.604 343.989 373.798 407.587C340.925 334.13 348.619 196.746 347.833 139.17C323.103 193.267 290.652 317.571 287.331 405.414C224.181 358.076 201.896 230.204 185.053 179.543C175.779 252.497 191.963 379.566 202.648 430.942C161.588 403.258 113.64 342.337 73.8398 290.705C124.442 411.707 142.757 448.355 167.303 542.824V542.823ZM332.705 544.275C317.928 544.199 326.027 555.658 323.124 560.698C316.483 564.547 294.933 557.717 301.87 571.851C306.784 581.864 314.132 577.15 322.385 580.376C326.489 586.028 319.552 603.216 334.08 602.856C346.079 602.558 339.539 585.41 342.104 580.789C349.358 576.049 358.874 582.473 363.675 570.327C367.32 561.105 349.277 564.526 342.151 560.555C339.167 556.097 348.078 544.355 332.705 544.275V544.275ZM205.779 641.879C274.864 650.123 386.785 653.048 464.746 645.307C420.749 625.644 262.61 625.809 205.779 641.879Z" fill="url(#bqpaint2_linear_2_278)" stroke="black" stroke-width="12.4444" stroke-linecap="round" stroke-linejoin="round" />
    <path fill-rule="evenodd" clip-rule="evenodd" d="M384.704 64.1807C378.046 64.3269 357.526 67.774 345.195 73.9247C341.454 83.3435 343.396 110.952 345.297 133.534C357.107 114.579 383.203 82.0027 384.704 64.1807Z" fill="url(#bqpaint3_linear_2_278)" stroke="black" stroke-width="12.4444" stroke-linecap="round" stroke-linejoin="round" />
    <path fill-rule="evenodd" clip-rule="evenodd" d="M376.146 141.24C376.146 149.129 372.93 156.694 367.205 162.272C361.48 167.85 353.715 170.983 345.619 170.983C337.523 170.983 329.759 167.85 324.034 162.272C318.309 156.694 315.093 149.129 315.093 141.24C315.093 137.334 315.882 133.466 317.416 129.858C318.951 126.249 321.199 122.97 324.034 120.208C326.868 117.446 330.234 115.255 333.937 113.761C337.641 112.266 341.61 111.497 345.619 111.497C349.628 111.497 353.598 112.266 357.301 113.761C361.005 115.255 364.37 117.446 367.205 120.208C370.039 122.97 372.288 126.249 373.822 129.858C375.356 133.466 376.146 137.334 376.146 141.24V141.24Z" fill="url(#bqpaint4_linear_2_278)" stroke="black" stroke-width="12.4445" stroke-linecap="round" stroke-linejoin="round" />
    <path fill-rule="evenodd" clip-rule="evenodd" d="M571.59 160.226C567.921 155.829 570.26 147.782 540.477 131.406L502.478 178.873C523.796 172.223 557.516 162.181 571.591 160.226H571.59Z" fill="url(#bqpaint5_linear_2_278)" stroke="black" stroke-width="12.4444" stroke-linecap="round" stroke-linejoin="round" />
    <path fill-rule="evenodd" clip-rule="evenodd" d="M537.923 187.907C537.923 195.795 534.707 203.361 528.982 208.938C523.257 214.516 515.493 217.65 507.397 217.65C499.3 217.65 491.536 214.516 485.811 208.938C480.086 203.361 476.87 195.795 476.87 187.907C476.87 184.001 477.66 180.133 479.194 176.524C480.728 172.916 482.976 169.637 485.811 166.875C488.646 164.113 492.011 161.922 495.715 160.427C499.418 158.933 503.388 158.163 507.397 158.163C511.405 158.163 515.375 158.933 519.079 160.427C522.782 161.922 526.147 164.113 528.982 166.875C531.817 169.637 534.065 172.916 535.599 176.524C537.133 180.133 537.923 184.001 537.923 187.907V187.907Z" fill="url(#bqpaint6_linear_2_278)" stroke="black" stroke-width="12.4445" stroke-linecap="round" stroke-linejoin="round" />
    <path fill-rule="evenodd" clip-rule="evenodd" d="M673.214 273.693C675.294 262.939 663.748 259.485 652.672 244.663C637.244 250.98 619.37 258.515 606.778 276.18C638.564 269.625 653.013 279.337 673.214 273.693Z" fill="url(#bqpaint7_linear_2_278)" stroke="black" stroke-width="12.4444" stroke-linecap="round" stroke-linejoin="round" />
    <path fill-rule="evenodd" clip-rule="evenodd" d="M633.29 285.718C633.29 293.606 630.074 301.172 624.349 306.749C618.624 312.327 610.86 315.461 602.764 315.461C594.668 315.461 586.903 312.327 581.178 306.749C575.453 301.172 572.237 293.606 572.237 285.718C572.237 281.812 573.027 277.944 574.561 274.335C576.095 270.727 578.344 267.448 581.178 264.686C584.013 261.924 587.378 259.733 591.082 258.238C594.785 256.744 598.755 255.974 602.764 255.974C606.773 255.974 610.742 256.744 614.446 258.238C618.149 259.733 621.515 261.924 624.349 264.686C627.184 267.448 629.432 270.727 630.967 274.335C632.501 277.944 633.29 281.812 633.29 285.718V285.718Z" fill="url(#bqpaint8_linear_2_278)" stroke="black" stroke-width="12.4445" stroke-linecap="round" stroke-linejoin="round" />
    <path fill-rule="evenodd" clip-rule="evenodd" d="M191.815 120.181C183.602 110.994 174.01 112.312 152.345 109.13C153.101 135.361 168.759 142.679 178.074 163.088C189.885 144.134 187.981 143.447 191.815 120.181V120.181Z" fill="url(#bqpaint9_linear_2_278)" stroke="black" stroke-width="12.4444" stroke-linecap="round" stroke-linejoin="round" />
    <path fill-rule="evenodd" clip-rule="evenodd" d="M212.034 181.685C212.034 189.573 208.818 197.138 203.093 202.716C197.369 208.294 189.604 211.428 181.508 211.428C173.412 211.428 165.647 208.294 159.922 202.716C154.198 197.138 150.981 189.573 150.981 181.685C150.981 177.779 151.771 173.911 153.305 170.302C154.839 166.694 157.088 163.415 159.922 160.653C162.757 157.891 166.122 155.7 169.826 154.205C173.53 152.71 177.499 151.941 181.508 151.941C185.517 151.941 189.486 152.71 193.19 154.205C196.894 155.7 200.259 157.891 203.093 160.653C205.928 163.415 208.177 166.694 209.711 170.302C211.245 173.911 212.034 177.779 212.034 181.685V181.685Z" fill="url(#bqpaint10_linear_2_278)" stroke="black" stroke-width="12.4445" stroke-linecap="round" stroke-linejoin="round" />
    <path fill-rule="evenodd" clip-rule="evenodd" d="M54.6491 225.386C44.1903 227.564 43.3052 248.962 40.0229 259.94C51.7339 272.847 63.6417 280.201 73.8718 300.166C84.8113 280.696 67.0593 240.327 54.6491 225.386V225.386Z" fill="url(#bqpaint11_linear_2_278)" stroke="black" stroke-width="12.4444" stroke-linecap="round" stroke-linejoin="round" />
    <path fill-rule="evenodd" clip-rule="evenodd" d="M114.546 298.807C114.546 306.695 111.329 314.261 105.605 319.839C99.8798 325.417 92.1153 328.55 84.0192 328.55C75.923 328.55 68.1585 325.417 62.4337 319.839C56.7089 314.261 53.4927 306.695 53.4927 298.807C53.4927 294.901 54.2823 291.033 55.8164 287.425C57.3505 283.816 59.599 280.537 62.4337 277.775C65.2683 275.013 68.6335 272.822 72.3372 271.328C76.0408 269.833 80.0104 269.064 84.0192 269.064C88.028 269.064 91.9975 269.833 95.7011 271.328C99.4048 272.822 102.77 275.013 105.605 277.775C108.439 280.537 110.688 283.816 112.222 287.425C113.756 291.033 114.546 294.901 114.546 298.807V298.807Z" fill="url(#bqpaint12_linear_2_278)" stroke="black" stroke-width="12.4445" stroke-linecap="round" stroke-linejoin="round" />
    <defs>
      <linearGradient id="bqpaint0_linear_2_278" x1="135.025" y1="295.976" x2="607.727" y2="530.605" gradientUnits="userSpaceOnUse">
        <stop stop-color="#38A3A5" />
        <stop offset="1" stop-color="#22577A" />
      </linearGradient>
      <linearGradient id="bqpaint1_linear_2_278" x1="135.025" y1="295.976" x2="607.727" y2="530.606" gradientUnits="userSpaceOnUse">
        <stop stop-color="#38A3A5" />
        <stop offset="1" stop-color="#22577A" />
      </linearGradient>
      <linearGradient id="bqpaint2_linear_2_278" x1="135.025" y1="295.976" x2="607.728" y2="530.605" gradientUnits="userSpaceOnUse">
        <stop stop-color="#38A3A5" />
        <stop offset="1" stop-color="#22577A" />
      </linearGradient>
      <linearGradient id="bqpaint3_linear_2_278" x1="331.342" y1="80.5249" x2="381.76" y2="103.44" gradientUnits="userSpaceOnUse">
        <stop stop-color="#38A3A5" />
        <stop offset="1" stop-color="#22577A" />
      </linearGradient>
      <linearGradient id="bqpaint4_linear_2_278" x1="308.871" y1="141.24" x2="412.183" y2="177.206" gradientUnits="userSpaceOnUse">
        <stop stop-color="#38A3A5" />
        <stop offset="1" stop-color="#22577A" />
      </linearGradient>
      <linearGradient id="bqpaint5_linear_2_278" x1="521.004" y1="133.14" x2="568.646" y2="177.138" gradientUnits="userSpaceOnUse">
        <stop stop-color="#38A3A5" />
        <stop offset="1" stop-color="#22577A" />
      </linearGradient>
      <linearGradient id="bqpaint6_linear_2_278" x1="470.648" y1="187.907" x2="568.775" y2="223.873" gradientUnits="userSpaceOnUse">
        <stop stop-color="#38A3A5" />
        <stop offset="1" stop-color="#22577A" />
      </linearGradient>
      <linearGradient id="bqpaint7_linear_2_278" x1="626.221" y1="229.257" x2="669.598" y2="282.403" gradientUnits="userSpaceOnUse">
        <stop stop-color="#38A3A5" />
        <stop offset="1" stop-color="#22577A" />
      </linearGradient>
      <linearGradient id="bqpaint8_linear_2_278" x1="566.015" y1="285.718" x2="671.92" y2="321.684" gradientUnits="userSpaceOnUse">
        <stop stop-color="#38A3A5" />
        <stop offset="1" stop-color="#22577A" />
      </linearGradient>
      <linearGradient id="bqpaint9_linear_2_278" x1="146.123" y1="136.109" x2="198.038" y2="136.109" gradientUnits="userSpaceOnUse">
        <stop stop-color="#38A3A5" />
        <stop offset="1" stop-color="#22577A" />
      </linearGradient>
      <linearGradient id="bqpaint10_linear_2_278" x1="144.76" y1="181.684" x2="261.035" y2="208.907" gradientUnits="userSpaceOnUse">
        <stop stop-color="#38A3A5" />
        <stop offset="1" stop-color="#22577A" />
      </linearGradient>
      <linearGradient id="bqpaint11_linear_2_278" x1="33.8007" y1="262.776" x2="83.5108" y2="245.36" gradientUnits="userSpaceOnUse">
        <stop stop-color="#38A3A5" />
        <stop offset="1" stop-color="#22577A" />
      </linearGradient>
      <linearGradient id="bqpaint12_linear_2_278" x1="47.2708" y1="298.807" x2="160.954" y2="334.773" gradientUnits="userSpaceOnUse">
        <stop stop-color="#38A3A5" />
        <stop offset="1" stop-color="#22577A" />
      </linearGradient>
    </defs>
  </g>
  <g id="br" fill="none" transform="scale(0.05714285714285714 0.05714285714285714)">
    <path fill-rule="evenodd" clip-rule="evenodd" d="M171.347 251.498C171.347 251.498 173.874 160.317 185.078 130.005C208.488 124.951 254.573 122.567 283.2 126.745C283.52 145.289 278.974 184.293 281.962 202.123C307.975 200.891 360.673 204.05 394.208 200.279C394.955 178.525 388.554 147.725 394.903 123.474C416.189 121.875 464.31 120.183 486.717 129.811C483.73 160.837 487.155 203.49 487.155 203.49L545.902 205.523L537.154 252.19C463.807 279.683 217.231 275.601 171.347 251.498V251.498Z" fill="url(#brpaint0_linear_2_307)" stroke="black" stroke-width="12.4444" stroke-linecap="round" stroke-linejoin="round" />
    <path fill-rule="evenodd" clip-rule="evenodd" d="M210.558 546.37C191.9 565 152.913 583.747 125.113 589.632C121.081 602.941 117.115 618.33 125.3 634.878C224.387 635.777 486.026 634.626 580.701 634.297C585.81 615.84 589.673 602.488 584.565 587.981C555.414 582.209 520.209 573.495 494.148 546.373" fill="url(#brpaint1_linear_2_307)" />
    <path d="M210.558 546.37C191.9 565 152.913 583.747 125.113 589.632C121.081 602.941 117.115 618.33 125.3 634.878C224.387 635.777 486.026 634.626 580.701 634.297C585.81 615.84 589.673 602.488 584.565 587.981C555.414 582.209 520.209 573.495 494.148 546.373" stroke="black" stroke-width="12.4444" stroke-linecap="round" stroke-linejoin="round" />
    <path d="M169.587 597.818C285.833 597.874 411.993 593.53 536.319 598.269" stroke="black" stroke-width="12.4444" stroke-linecap="round" stroke-linejoin="round" />
    <path fill-rule="evenodd" clip-rule="evenodd" d="M212.133 241.788C209.203 276.672 208.358 519.678 209.164 548.624C252.08 544.995 451.529 544.766 495.513 548.183C493.022 493.715 493.711 242.554 493.711 242.554" fill="url(#brpaint2_linear_2_307)" />
    <path d="M212.133 241.788C209.203 276.672 208.358 519.678 209.164 548.624C252.08 544.995 451.529 544.766 495.513 548.183C493.022 493.715 493.711 242.554 493.711 242.554" stroke="black" stroke-width="12.4444" stroke-linejoin="round" />
    <path d="M242.526 298.048C264.192 295.689 275.233 294.931 293.685 295.286M242.184 493.759C273.209 491.472 338.217 488.896 409.748 491.196L242.184 493.759ZM241.129 443.448C280.603 439.648 318.788 438.397 374.362 438.975L241.129 443.448ZM241.545 392.739C297.753 388.852 299.337 389.265 360.169 388.388L241.545 392.739ZM241.545 343.009C270.078 340.65 286.857 339.424 321.003 340.248L241.545 343.009ZM275.924 355.992C276.609 379.272 275.788 354.953 276.472 375.086L275.924 355.992ZM319.232 405.417C319.916 428.697 319.096 404.378 319.779 424.511L319.232 405.417ZM275.924 455.411C276.609 478.691 275.788 454.372 276.472 474.506L275.924 455.411ZM366.764 453.833C367.448 477.113 366.627 454.372 367.311 474.506L366.764 453.833ZM319.232 507.292C319.916 530.573 319.096 507.831 319.779 527.966L319.232 507.292Z" stroke="black" stroke-width="12.4444" stroke-linecap="round" stroke-linejoin="round" />
    <path fill-rule="evenodd" clip-rule="evenodd" d="M118.026 125.438C122.036 147.39 125.067 168.215 128.952 199.747C153.901 217.143 167.867 223.218 170.539 252.369C245.479 238.866 471.514 241.978 539.48 252.096C544.216 225.821 551.965 221.331 588.581 199.277C593.206 164.774 597.268 148.138 597.529 127.509C586.557 124.841 507.721 101.232 497.982 104.624C494.519 125.151 499.416 142.787 494.859 162.092C465.348 163.571 439.058 162.448 408.516 154.499C408.668 128.693 408.63 114.542 409.897 94.5692C396.999 89.9757 320.291 89.159 305.818 93.8965C303.324 118.768 306.477 132.318 304.478 154.431C278.28 161.842 253.435 159.92 222.16 161.677C219.64 135.384 224.293 126.158 223.701 107.702C210.798 104.174 130.209 121.692 118.026 125.438V125.438Z" fill="url(#brpaint3_linear_2_307)" stroke="black" stroke-width="12.4444" stroke-linecap="round" stroke-linejoin="round" />
    <path d="M162.353 203.97C277.973 192.54 448.975 191.829 548.206 206.726" stroke="black" stroke-width="12.4444" stroke-linecap="round" stroke-linejoin="round" />
    <defs>
      <linearGradient id="brpaint0_linear_2_307" x1="-4.79064" y1="154.654" x2="549.644" y2="210.458" gradientUnits="userSpaceOnUse">
        <stop stop-color="#38A3A5" />
        <stop offset="1" stop-color="#22577A" />
      </linearGradient>
      <linearGradient id="brpaint1_linear_2_307" x1="146.264" y1="555.29" x2="703.169" y2="611.094" gradientUnits="userSpaceOnUse">
        <stop stop-color="#38A3A5" />
        <stop offset="1" stop-color="#22577A" />
      </linearGradient>
      <linearGradient id="brpaint2_linear_2_307" x1="166.873" y1="402.311" x2="724.805" y2="504.024" gradientUnits="userSpaceOnUse">
        <stop stop-color="#38A3A5" />
        <stop offset="1" stop-color="#22577A" />
      </linearGradient>
      <linearGradient id="brpaint3_linear_2_307" x1="113.961" y1="171.542" x2="773.293" y2="314.945" gradientUnits="userSpaceOnUse">
        <stop stop-color="#38A3A5" />
        <stop offset="1" stop-color="#22577A" />
      </linearGradient>
    </defs>
  </g>
  <g id="wb" fill="none" transform="scale(0.05714285714285714 0.05714285714285714)">
    <path fill-rule="evenodd" clip-rule="evenodd" d="M354.594 168.677C363.009 154.476 385.05 129.407 407.776 116.369C435.958 142.857 474.385 204.545 493.394 263.825C508.209 310.025 511.282 330.785 512.053 380.14C512.825 429.496 486.868 478.114 470.936 496.099" fill="url(#wbpaint0_linear_2_174)" />
    <path d="M354.594 168.677C363.009 154.476 385.05 129.407 407.776 116.369C435.958 142.857 474.385 204.545 493.394 263.825C508.209 310.025 511.282 330.785 512.053 380.14C512.825 429.496 486.868 478.114 470.936 496.099" stroke="black" stroke-width="12.4444" stroke-linecap="round" stroke-linejoin="round" />
    <path fill-rule="evenodd" clip-rule="evenodd" d="M455.365 534.378C460.062 492.791 226.604 495.861 236.15 536.716C243.863 553.74 237.78 575.633 237.78 575.633C237.78 575.633 291.663 567.987 351.634 568.94C411.604 569.893 452.193 574.648 452.193 574.648C452.193 574.648 450.668 546.634 455.365 534.378H455.365Z" fill="url(#wbpaint1_linear_2_174)" stroke="black" stroke-width="12.4444" stroke-linecap="round" stroke-linejoin="round" />
    <path fill-rule="evenodd" clip-rule="evenodd" d="M232.893 530.665C215.167 524.377 202.263 499.215 191.08 483.166C173.23 457.55 162.706 404.277 173.16 344.54C183.614 284.802 240.428 169.369 298.605 118.165C369.509 169.369 415.234 246.78 451.321 349.93C470.632 405.13 480.218 465.538 462.491 528.869C421.132 520.335 281.075 512.24 232.893 530.665V530.665Z" fill="url(#wbpaint2_linear_2_174)" stroke="black" stroke-width="12.4444" stroke-linecap="round" stroke-linejoin="round" />
    <path fill-rule="evenodd" clip-rule="evenodd" d="M288.112 107.893C297.818 91.4068 272.765 80.8889 285.87 69.3754C293.229 62.9098 305.819 62.2627 312.887 70.6494C323.079 82.7423 295.197 93.2322 308.915 107.732" fill="url(#wbpaint3_linear_2_174)" />
    <path d="M288.112 107.893C297.818 91.4068 272.765 80.8889 285.87 69.3754C293.229 62.9098 305.819 62.2627 312.887 70.6494C323.079 82.7423 295.197 93.2322 308.915 107.732" stroke="black" stroke-width="12.4444" stroke-linecap="round" stroke-linejoin="round" />
    <path d="M354.962 554.049C347.548 552.047 340.883 555.571 338.164 553.318C334.828 550.554 335.023 539.054 337.232 536.134C339.12 533.637 363.389 533.326 365.771 535.626C367.992 537.766 365.707 551.699 363.65 555.224" stroke="black" stroke-width="12.4444" stroke-linecap="round" stroke-linejoin="round" />
    <path fill-rule="evenodd" clip-rule="evenodd" d="M312.132 271.105C303.244 272.514 298.82 282.259 299.933 290.524C299.78 297.589 302.874 306.693 297.063 312.23C289.2 314.845 280.692 311.568 272.68 310.884C266.085 310.282 258.131 307.788 252.268 312.035C247.78 317.351 253.022 325.386 258.806 327.177C270.436 332.236 284.244 329.597 295.434 335.587C299.297 339.151 298.506 345.357 299.688 350.097C303.326 378.332 303.133 407.356 311.67 434.705C313.905 440.709 317.395 449.041 324.868 449.094C330.637 447.12 329.908 439.457 330.216 434.51C329.516 403.499 320.91 373.271 319.545 342.319C319.391 339.272 319.664 335.449 323.605 335.125C337.575 331.104 353.898 335.576 366.6 327.08C371.817 324.253 376.171 313.706 367.719 312.326C352.819 310.133 337.759 316.556 322.948 313.76C318.363 312.137 318.764 305.79 318.232 301.802C317.364 292.406 320.22 282.405 316.653 273.437C315.758 271.874 313.961 270.878 312.132 271.104L312.132 271.105Z" fill="#fff" stroke="black" stroke-width="12.4444" stroke-linecap="round" stroke-linejoin="round" />
    <path fill-rule="evenodd" clip-rule="evenodd" d="M262.785 624.78C306.204 624.294 327.106 599.594 346.325 599.566C365.543 599.536 383.077 624.177 429.821 624.259C454.9 624.304 586.93 626.939 579.593 606.926C572.255 586.914 488.873 613.789 460.954 599.555C446.339 592.105 442.052 590.34 423.148 587.476C372.149 579.749 320.006 580.057 273.892 587.183C253.363 590.357 245.013 593.889 233.45 601.671C214.001 614.763 132.072 587.543 125.623 606.666C119.175 625.788 210.027 625.371 262.785 624.78V624.78Z" fill="url(#wbpaint4_linear_2_174)" stroke="black" stroke-width="12.4444" stroke-linecap="round" stroke-linejoin="round" />
    <path fill-rule="evenodd" clip-rule="evenodd" d="M509.98 70.8991C493.968 71.0531 482.024 84.1937 475.383 97.5497C470.989 106.032 463.242 112.207 458.937 120.677C458.032 125.779 465.307 127.441 469.145 126.34C478.517 124.357 485.939 116.949 489.104 108.045C492.859 98.8773 501.338 91.665 511.389 91C521.259 89.2648 530.377 97.0231 532.365 106.458C535.238 116.349 533.937 128.007 525.972 135.188C513.539 148.229 494.681 154.065 484.215 169.191C426.779 282.536 369.43 395.953 312.765 509.688C292.65 550.94 271.394 591.726 253.774 634.107C252.404 639.396 248.289 645.259 250.493 650.757C253.969 653.458 258.348 649.281 261.358 647.452C273.745 636.144 280.613 620.17 288.823 605.768C323.415 538.653 355.834 470.432 389.503 402.845C426.06 329.037 462.621 255.205 499.965 181.806C510.53 166.169 530.582 160.93 542.428 146.487C549.971 138.207 554.797 127.246 553.583 115.889C552.806 96.9904 541.862 76.538 522.302 72.0417C518.289 71.0243 514.135 70.714 509.98 70.8991V70.8991Z" fill="#fff" stroke="black" stroke-width="12.4444" stroke-linecap="round" stroke-linejoin="round" />
    <path fill-rule="evenodd" clip-rule="evenodd" d="M396.454 104.865C406.16 88.3789 381.107 77.8618 394.212 66.3475C401.571 59.8819 414.16 59.2355 421.23 67.6223C431.421 79.7144 403.539 90.2051 417.258 104.704" fill="url(#wbpaint5_linear_2_174)" />
    <path d="M396.454 104.865C406.16 88.3789 381.107 77.8618 394.212 66.3475C401.571 59.8819 414.16 59.2355 421.23 67.6223C431.421 79.7144 403.539 90.2051 417.258 104.704" stroke="black" stroke-width="12.4444" stroke-linecap="round" stroke-linejoin="round" />
    <defs>
      <linearGradient id="wbpaint0_linear_2_174" x1="576.817" y1="171.144" x2="436.54" y2="466.184" gradientUnits="userSpaceOnUse">
        <stop stop-color="#c9f2ce" />
        <stop offset="1" stop-color="#57CC99" />
      </linearGradient>
      <linearGradient id="wbpaint1_linear_2_174" x1="165.122" y1="346.899" x2="657.828" y2="557.928" gradientUnits="userSpaceOnUse">
        <stop stop-color="#c9f2ce" />
        <stop offset="1" stop-color="#57CC99" />
      </linearGradient>
      <linearGradient id="wbpaint2_linear_2_174" x1="165.122" y1="346.899" x2="657.828" y2="557.928" gradientUnits="userSpaceOnUse">
        <stop stop-color="#c9f2ce" />
        <stop offset="1" stop-color="#57CC99" />
      </linearGradient>
      <linearGradient id="wbpaint3_linear_2_174" x1="265.345" y1="70.1252" x2="323.114" y2="99.9157" gradientUnits="userSpaceOnUse">
        <stop stop-color="#c9f2ce" />
        <stop offset="1" stop-color="#57CC99" />
      </linearGradient>
      <linearGradient id="wbpaint4_linear_2_174" x1="121.409" y1="489.704" x2="625.941" y2="672.858" gradientUnits="userSpaceOnUse">
        <stop stop-color="#c9f2ce" />
        <stop offset="1" stop-color="#57CC99" />
      </linearGradient>
      <linearGradient id="wbpaint5_linear_2_174" x1="373.687" y1="67.0981" x2="431.455" y2="96.8878" gradientUnits="userSpaceOnUse">
        <stop stop-color="#c9f2ce" />
        <stop offset="1" stop-color="#57CC99" />
      </linearGradient>
    </defs>
  </g>
  <g id="wk" fill="none" transform="scale(0.05714285714285714 0.05714285714285714)">
    <path fill-rule="evenodd" clip-rule="evenodd" d="M240.05 476.377C258.088 450.314 234.566 378.502 240.064 345.67C248.987 292.386 319 256.622 328.345 287.515C339.431 324.161 294.425 327.619 281.903 358.209C270.401 386.307 272.862 433.252 295.254 461.506" fill="url(#wkpaint0_linear_2_206)" />
    <path d="M240.05 476.377C258.088 450.314 234.566 378.502 240.064 345.67C248.987 292.386 319 256.622 328.345 287.515C339.431 324.161 294.425 327.619 281.903 358.209C270.401 386.307 272.862 433.252 295.254 461.506" stroke="black" stroke-width="12.4444" stroke-linecap="round" stroke-linejoin="round" />
    <path fill-rule="evenodd" clip-rule="evenodd" d="M472.026 480.135C453.988 454.071 477.511 382.26 472.012 349.428C463.089 296.144 393.075 260.38 383.73 291.272C372.645 327.918 417.651 331.377 430.173 361.967C441.675 390.065 439.214 437.009 416.822 465.264" fill="url(#wkpaint1_linear_2_206)" />
    <path d="M472.026 480.135C453.988 454.071 477.511 382.26 472.012 349.428C463.089 296.144 393.075 260.38 383.73 291.272C372.645 327.918 417.651 331.377 430.173 361.967C441.675 390.065 439.214 437.009 416.822 465.264" stroke="black" stroke-width="12.4444" stroke-linecap="round" stroke-linejoin="round" />
    <path fill-rule="evenodd" clip-rule="evenodd" d="M327.614 224.089C331.702 212.423 342.317 168.926 338.437 156.112C321.082 154.738 284.821 170.658 261.319 165.558C254.7 153.591 250.567 127.84 260.074 113.705C281.351 107.231 328.31 118.581 341.29 120.32C345.891 107.212 330.016 67.7125 333.091 53.41C347.675 46.4388 383.891 47.1279 394.655 54.2142C394.107 69.2362 372.181 105.723 371.649 118.197C386.259 117.448 431.767 105.072 447.302 108.095C454.003 121.091 455.458 144.312 444.647 159.153C428.084 164.67 384.233 152.207 365.961 155.832C358.261 171.362 370.232 211.461 373.177 223.191" fill="url(#wkpaint2_linear_2_206)" />
    <path d="M327.614 224.089C331.702 212.423 342.317 168.926 338.437 156.112C321.082 154.738 284.821 170.658 261.319 165.558C254.7 153.591 250.567 127.84 260.074 113.705C281.351 107.231 328.31 118.581 341.29 120.32C345.891 107.212 330.016 67.7125 333.091 53.41C347.675 46.4388 383.891 47.1279 394.655 54.2142C394.107 69.2362 372.181 105.723 371.649 118.197C386.259 117.448 431.767 105.072 447.302 108.095C454.003 121.091 455.458 144.312 444.647 159.153C428.084 164.67 384.233 152.207 365.961 155.832C358.261 171.362 370.232 211.461 373.177 223.191" stroke="black" stroke-width="12.4444" stroke-linecap="round" stroke-linejoin="round" />
    <path fill-rule="evenodd" clip-rule="evenodd" d="M333.208 289.203C313.97 272.544 305.493 272.406 309.227 230.709C312.416 195.102 391.871 196.938 393.72 229.161C396.039 269.564 382.606 272.589 373.264 292.153" fill="url(#wkpaint3_linear_2_206)" />
    <path d="M333.208 289.203C313.97 272.544 305.493 272.406 309.227 230.709C312.416 195.102 391.871 196.938 393.72 229.161C396.039 269.564 382.606 272.589 373.264 292.153" stroke="black" stroke-width="12.4444" stroke-linecap="round" stroke-linejoin="round" />
    <path fill-rule="evenodd" clip-rule="evenodd" d="M226.304 645.789L176.546 493.155L543.06 491.547L484.812 650.466L226.304 645.789Z" fill="url(#wkpaint4_linear_2_206)" />
    <path fill-rule="evenodd" clip-rule="evenodd" d="M516.022 557.752C443.162 520.407 277.136 518.653 198.995 559.211C209.941 593.801 214.32 632.301 214.32 632.301C285.616 610.162 430.443 609.278 500.443 635.523C500.443 635.523 507.661 583.661 516.022 557.751L516.022 557.752Z" fill="url(#wkpaint5_linear_2_206)" stroke="black" stroke-width="12.4444" stroke-linecap="round" stroke-linejoin="round" />
    <path fill-rule="evenodd" clip-rule="evenodd" d="M446.08 446.469C423.711 434.376 376.725 404.826 351.219 403.772C331.723 402.966 291.481 429.034 270.789 445.059C181.131 404.252 182.203 326.143 244.928 311.816C255.143 309.482 285.551 312.177 305.643 311.257C299.245 293.589 292.271 281.061 298.885 257.542C284.708 248.417 265.839 241.874 244.344 240.601C237.862 240.215 231.368 240.061 224.875 240.139C161.719 240.917 96.191 263.889 86.8927 322C73.3212 406.815 148.408 456.801 175.438 546.51C261.232 497.582 459.066 500.698 541.26 542.986C563.075 473.638 650.033 392.595 630.583 321.903C612.572 256.437 525.006 237.28 467.226 240.552C443.808 241.879 421.327 249.46 404.445 259.875C407.713 278.519 401.088 293.763 395.597 309.871C422.31 309.883 469.177 303.671 487.57 314.076C528.193 337.057 531.29 419.774 446.08 446.469V446.469Z" fill="url(#wkpaint6_linear_2_206)" stroke="black" stroke-width="12.4444" stroke-linecap="round" stroke-linejoin="round" />
    <path fill-rule="evenodd" clip-rule="evenodd" d="M271.046 445.3C300.598 424.55 314.6 383.341 313.419 350.072C311.715 302.102 286.057 293.741 300.71 251.75C310.645 223.278 393.392 221.814 402.738 252.707C413.824 289.353 385.36 312.168 389.797 349.264C394.973 392.54 395.294 421.227 446.026 447.71" fill="url(#wkpaint7_linear_2_206)" />
    <path d="M271.046 445.3C300.598 424.55 314.6 383.341 313.419 350.072C311.715 302.102 286.057 293.741 300.71 251.75C310.645 223.278 393.392 221.814 402.738 252.707C413.824 289.353 385.36 312.168 389.797 349.264C394.973 392.54 395.294 421.227 446.026 447.71" stroke="black" stroke-width="12.4444" stroke-linecap="round" stroke-linejoin="round" />
    <path fill-rule="evenodd" clip-rule="evenodd" d="M229.982 647.638C298.321 655.793 407.48 657.131 484.601 649.474C431.247 627.712 285.058 627.947 229.982 647.638Z" fill="url(#wkpaint8_linear_2_206)" stroke="black" stroke-width="12.4444" stroke-linecap="round" stroke-linejoin="round" />
    <path fill-rule="evenodd" clip-rule="evenodd" d="M368.372 573.249C368.372 576.571 366.987 579.757 364.521 582.106C362.054 584.455 358.709 585.774 355.221 585.774C351.733 585.774 348.388 584.455 345.922 582.106C343.456 579.757 342.07 576.571 342.07 573.249C342.07 569.928 343.456 566.742 345.922 564.393C348.388 562.044 351.733 560.725 355.221 560.725C358.709 560.725 362.054 562.044 364.521 564.393C366.987 566.742 368.372 569.928 368.372 573.249Z" fill="#fff" stroke="black" stroke-width="12.4444" stroke-linecap="round" stroke-linejoin="round" />
    <path fill-rule="evenodd" clip-rule="evenodd" d="M292.536 579.555C292.98 582.006 291.882 584.633 289.483 586.858C287.085 589.083 283.582 590.723 279.746 591.417C275.91 592.112 272.055 591.805 269.029 590.562C266.002 589.32 264.053 587.245 263.609 584.794C263.165 582.342 264.263 579.715 266.661 577.49C269.06 575.266 272.562 573.626 276.398 572.931C280.234 572.236 284.089 572.544 287.116 573.786C290.142 575.028 292.092 577.103 292.536 579.555Z" fill="#fff" stroke="black" stroke-width="12.4444" stroke-linecap="round" stroke-linejoin="round" />
    <path fill-rule="evenodd" clip-rule="evenodd" d="M444.814 584.464C444.415 586.923 442.542 589.04 439.608 590.348C436.673 591.657 432.918 592.05 429.167 591.441C425.417 590.832 421.978 589.272 419.608 587.102C417.238 584.933 416.131 582.333 416.53 579.874C416.929 577.415 418.802 575.298 421.736 573.989C424.671 572.681 428.426 572.288 432.177 572.896C435.927 573.505 439.366 575.066 441.736 577.235C444.106 579.404 445.213 582.005 444.814 584.464Z" fill="#fff" stroke="black" stroke-width="12.4442" stroke-linecap="round" stroke-linejoin="round" />
    <defs>
      <linearGradient id="wkpaint0_linear_2_206" x1="246.987" y1="332.15" x2="302.215" y2="405.39" gradientUnits="userSpaceOnUse">
        <stop stop-color="#c9f2ce" />
        <stop offset="1" stop-color="#57CC99" />
      </linearGradient>
      <linearGradient id="wkpaint1_linear_2_206" x1="400.786" y1="348.87" x2="479.089" y2="411.092" gradientUnits="userSpaceOnUse">
        <stop stop-color="#c9f2ce" />
        <stop offset="1" stop-color="#57CC99" />
      </linearGradient>
      <linearGradient id="wkpaint2_linear_2_206" x1="310.487" y1="124.641" x2="466.549" y2="223.159" gradientUnits="userSpaceOnUse">
        <stop stop-color="#c9f2ce" />
        <stop offset="1" stop-color="#57CC99" />
      </linearGradient>
      <linearGradient id="wkpaint3_linear_2_206" x1="302.143" y1="248.325" x2="400.207" y2="248.325" gradientUnits="userSpaceOnUse">
        <stop stop-color="#c9f2ce" />
        <stop offset="1" stop-color="#57CC99" />
      </linearGradient>
      <linearGradient id="wkpaint4_linear_2_206" x1="116.637" y1="333.401" x2="647.398" y2="650.466" gradientUnits="userSpaceOnUse">
        <stop stop-color="#c9f2ce" />
        <stop offset="1" stop-color="#57CC99" />
      </linearGradient>
      <linearGradient id="wkpaint5_linear_2_206" x1="116.637" y1="333.401" x2="647.398" y2="650.466" gradientUnits="userSpaceOnUse">
        <stop stop-color="#c9f2ce" />
        <stop offset="1" stop-color="#57CC99" />
      </linearGradient>
      <linearGradient id="wkpaint6_linear_2_206" x1="116.637" y1="333.401" x2="647.398" y2="650.466" gradientUnits="userSpaceOnUse">
        <stop stop-color="#c9f2ce" />
        <stop offset="1" stop-color="#57CC99" />
      </linearGradient>
      <linearGradient id="wkpaint7_linear_2_206" x1="116.637" y1="333.401" x2="647.398" y2="650.466" gradientUnits="userSpaceOnUse">
        <stop stop-color="#c9f2ce" />
        <stop offset="1" stop-color="#57CC99" />
      </linearGradient>
      <linearGradient id="wkpaint8_linear_2_206" x1="187.873" y1="602.729" x2="508.271" y2="668.384" gradientUnits="userSpaceOnUse">
        <stop stop-color="#c9f2ce" />
        <stop offset="1" stop-color="#57CC99" />
      </linearGradient>
    </defs>
  </g>
  <g id="wn" fill="none" transform="scale(0.05714285714285714 0.05714285714285714)">
    <path fill-rule="evenodd" clip-rule="evenodd" d="M411.126 312.517C411.292 372.012 342.505 423.47 274.66 397.555C264.269 393.587 169.996 479.068 154.887 467.373C142.967 458.146 168.093 420.108 166.266 424.967C157.569 448.098 119.174 473.846 88.3402 440.61C76.2823 427.613 80.011 390.228 105.983 359.773C133.032 328.055 160.497 279.213 171.128 251.043C192.51 194.381 184.12 193.145 225.098 141.76C232.797 132.108 212.586 94.6307 219.932 70.168C248.948 75.3426 260.135 104.516 273.478 116.759C281.256 98.7529 276.03 50.3681 289.858 52.6221C303.684 54.8769 319.59 96.7937 342.4 115.204C615.604 199.278 613.371 636.473 537.017 637.89C442.772 639.638 329.941 639.243 235.157 637.733C212.191 637.367 201.56 607.654 205.988 589.899C227.109 505.216 316.303 445.943 359.995 416.568C404.87 386.398 413.087 356.75 411.126 312.517Z" fill="url(#wnpaint0_linear_2_236)" stroke="black" stroke-width="12.4444" stroke-linecap="round" stroke-linejoin="round" />
    <path d="M294.988 84.6798C318.439 117.44 326.908 124.066 299.022 119.366M268.338 228.744C245.726 224.57 225.899 231.138 209.525 247.434L268.338 228.744ZM231.885 253.402C240.008 261.678 250.345 262.023 252.048 247.96L231.885 253.402ZM117.266 403.114C106.49 399.392 98.6947 416.754 105.57 417.462L117.266 403.114ZM246.459 368.903L253.839 378.073L246.459 368.903ZM411.252 287.184L411.478 267.803L411.252 287.184ZM253.462 126.506L245.596 130.612L253.462 126.506Z" stroke="black" stroke-width="12.4444" stroke-linecap="round" stroke-linejoin="round" />
    <path fill-rule="evenodd" clip-rule="evenodd" d="M353.457 101.987C420.791 121.73 409.433 107.48 423.635 130.606C431.591 143.562 442.615 126.19 468.859 127.833C483.033 128.721 429.971 106.661 423.049 97.8398C413.441 85.5937 343.577 99.0905 353.457 101.987V101.987Z" fill="url(#wnpaint1_linear_2_236)" stroke="black" stroke-width="12.4444" stroke-linecap="round" stroke-linejoin="round" />
    <path fill-rule="evenodd" clip-rule="evenodd" d="M450.762 155.34C471.912 171.418 487.403 155.087 486.568 182.986C485.994 202.143 511.85 189.344 524.407 197.335C535.975 204.696 547.577 175.001 540.219 175.001C529.15 175.001 510.352 180.194 513.754 167.694C521.219 140.255 444.688 150.722 450.762 155.34V155.34Z" fill="url(#wnpaint2_linear_2_236)" stroke="black" stroke-width="12.4444" stroke-linecap="round" stroke-linejoin="round" />
    <path fill-rule="evenodd" clip-rule="evenodd" d="M512.97 216.001C517.086 217.441 539.507 232.622 538.469 239.84C533.115 277.076 560.57 274.661 572.386 278.598C588.944 284.114 571.615 264.346 563.26 254.183C554.906 244.019 568.969 239.469 567.984 233.022C564.521 210.345 510.82 215.249 512.97 216.001V216.001Z" fill="url(#wnpaint3_linear_2_236)" stroke="black" stroke-width="12.4444" stroke-linecap="round" stroke-linejoin="round" />
    <path fill-rule="evenodd" clip-rule="evenodd" d="M552.526 294.503C556.46 301.363 565.684 309.133 568.608 319.894C571.532 330.655 572.633 340.249 578.481 351.808C584.329 363.366 607.86 361.859 618.006 358.467C631.678 353.896 584.954 339.701 595.482 318.06C602.145 304.363 550.402 290.801 552.525 294.503H552.526Z" fill="url(#wnpaint4_linear_2_236)" stroke="black" stroke-width="12.4444" stroke-linecap="round" stroke-linejoin="round" />
    <path d="M340.781 567.39L320.73 615.217" stroke="black" stroke-width="12.4444" stroke-linecap="round" stroke-linejoin="round" />
    <defs>
      <linearGradient id="wnpaint0_linear_2_236" x1="206.614" y1="202.176" x2="585.829" y2="667.588" gradientUnits="userSpaceOnUse">
        <stop stop-color="#c9f2ce" />
        <stop offset="1" stop-color="#57CC99" />
      </linearGradient>
      <linearGradient id="wnpaint1_linear_2_236" x1="387.172" y1="121.26" x2="489.886" y2="122.491" gradientUnits="userSpaceOnUse">
        <stop stop-color="#c9f2ce" />
        <stop offset="1" stop-color="#57CC99" />
      </linearGradient>
      <linearGradient id="wnpaint2_linear_2_236" x1="465.64" y1="166.259" x2="548.747" y2="183.78" gradientUnits="userSpaceOnUse">
        <stop stop-color="#c9f2ce" />
        <stop offset="1" stop-color="#57CC99" />
      </linearGradient>
      <linearGradient id="wnpaint3_linear_2_236" x1="521.915" y1="235.921" x2="578.009" y2="274.104" gradientUnits="userSpaceOnUse">
        <stop stop-color="#c9f2ce" />
        <stop offset="1" stop-color="#57CC99" />
      </linearGradient>
      <linearGradient id="wnpaint4_linear_2_236" x1="548.56" y1="297.335" x2="612.209" y2="365.263" gradientUnits="userSpaceOnUse">
        <stop stop-color="#c9f2ce" />
        <stop offset="1" stop-color="#57CC99" />
      </linearGradient>
    </defs>
  </g>
  <g id="wp" fill="none" transform="scale(0.05714285714285714 0.05714285714285714)">
    <path fill-rule="evenodd" clip-rule="evenodd" d="M451.071 237.385C451.071 260.158 441.04 281.999 423.185 298.102C405.33 314.205 381.113 323.252 355.862 323.252C330.611 323.252 306.394 314.205 288.539 298.102C270.684 281.999 260.653 260.158 260.653 237.385C260.653 214.612 270.684 192.771 288.539 176.668C306.394 160.565 330.611 151.518 355.862 151.518C381.113 151.518 405.33 160.565 423.185 176.668C441.04 192.771 451.071 214.612 451.071 237.385V237.385Z" fill="url(#wppaint0_linear_2_253)" stroke="black" stroke-width="12.4446" stroke-linecap="round" stroke-linejoin="round" />
    <path fill-rule="evenodd" clip-rule="evenodd" d="M324.657 363.23C325.8 495.588 257.198 535.195 225.128 557.866C198.534 576.665 205.323 621.91 240.61 624.219C262.476 625.65 455.753 626.055 478.339 623.563C518.301 619.153 519.441 571.685 493.651 555.655C452.733 530.219 387.725 501.569 385.931 363.473C385.588 337.564 324.454 340.133 324.657 363.231V363.23Z" fill="url(#wppaint1_linear_2_253)" stroke="black" stroke-width="12.4444" stroke-linecap="round" stroke-linejoin="round" />
    <path fill-rule="evenodd" clip-rule="evenodd" d="M280.274 336.572C222.567 351.401 202.411 387.92 202.411 387.92H520.403C520.403 387.92 486.623 347.604 434.828 336.054C368.53 321.271 334.36 322.674 280.274 336.572V336.572Z" fill="url(#wppaint2_linear_2_253)" stroke="black" stroke-width="12.4444" stroke-linecap="round" stroke-linejoin="round" />
    <path d="M279.316 555.081H425.463" stroke="black" stroke-width="12.4444" stroke-linecap="round" stroke-linejoin="round" />
    <defs>
      <linearGradient id="wppaint0_linear_2_253" x1="256.764" y1="211.459" x2="565.117" y2="329.046" gradientUnits="userSpaceOnUse">
        <stop stop-color="#c9f2ce" />
        <stop offset="1" stop-color="#57CC99" />
      </linearGradient>
      <linearGradient id="wppaint1_linear_2_253" x1="249.101" y1="485.164" x2="617.591" y2="594.921" gradientUnits="userSpaceOnUse">
        <stop stop-color="#c9f2ce" />
        <stop offset="1" stop-color="#57CC99" />
      </linearGradient>
      <linearGradient id="wppaint2_linear_2_253" x1="229.634" y1="356.732" x2="686.507" y2="436.137" gradientUnits="userSpaceOnUse">
        <stop stop-color="#c9f2ce" />
        <stop offset="1" stop-color="#57CC99" />
      </linearGradient>
    </defs>
  </g>
  <g id="wq" fill="none" transform="scale(0.05714285714285714 0.05714285714285714)">
    <path fill-rule="evenodd" clip-rule="evenodd" d="M205.282 641.581L166.1 512.305L503.475 513.33L464.96 645.304L205.282 641.581Z" fill="url(#wqpaint0_linear_2_278)" />
    <path fill-rule="evenodd" clip-rule="evenodd" d="M492.11 557.107C397.065 523.142 271.683 522.944 179.137 557.026C188.925 580.771 191.518 629.358 191.518 629.358C269.855 607.445 403.038 608.111 480.762 632.615C480.762 632.615 482.559 580.732 492.11 557.107Z" fill="url(#wqpaint1_linear_2_278)" stroke="black" stroke-width="12.4444" stroke-linecap="round" stroke-linejoin="round" />
    <path fill-rule="evenodd" clip-rule="evenodd" d="M167.303 542.823C262.075 501.845 410.421 501.196 506.085 543.142C515.517 461.448 545.246 360.601 601.505 288.265C558.846 304.958 496.91 411.826 460.902 431.966C432.666 372.65 488.548 218.696 510.274 186.088C473.797 208.036 396.604 343.989 373.798 407.587C340.925 334.13 348.619 196.746 347.833 139.17C323.103 193.267 290.652 317.571 287.331 405.414C224.181 358.076 201.896 230.204 185.053 179.543C175.779 252.497 191.963 379.566 202.648 430.942C161.588 403.258 113.64 342.337 73.8398 290.705C124.442 411.707 142.757 448.355 167.303 542.824V542.823ZM332.705 544.275C317.928 544.199 326.027 555.658 323.124 560.698C316.483 564.547 294.933 557.717 301.87 571.851C306.784 581.864 314.132 577.15 322.385 580.376C326.489 586.028 319.552 603.216 334.08 602.856C346.079 602.558 339.539 585.41 342.104 580.789C349.358 576.049 358.874 582.473 363.675 570.327C367.32 561.105 349.277 564.526 342.151 560.555C339.167 556.097 348.078 544.355 332.705 544.275V544.275ZM205.779 641.879C274.864 650.123 386.785 653.048 464.746 645.307C420.749 625.644 262.61 625.809 205.779 641.879Z" fill="url(#wqpaint2_linear_2_278)" stroke="black" stroke-width="12.4444" stroke-linecap="round" stroke-linejoin="round" />
    <path fill-rule="evenodd" clip-rule="evenodd" d="M384.704 64.1807C378.046 64.3269 357.526 67.774 345.195 73.9247C341.454 83.3435 343.396 110.952 345.297 133.534C357.107 114.579 383.203 82.0027 384.704 64.1807Z" fill="url(#wqpaint3_linear_2_278)" stroke="black" stroke-width="12.4444" stroke-linecap="round" stroke-linejoin="round" />
    <path fill-rule="evenodd" clip-rule="evenodd" d="M376.146 141.24C376.146 149.129 372.93 156.694 367.205 162.272C361.48 167.85 353.715 170.983 345.619 170.983C337.523 170.983 329.759 167.85 324.034 162.272C318.309 156.694 315.093 149.129 315.093 141.24C315.093 137.334 315.882 133.466 317.416 129.858C318.951 126.249 321.199 122.97 324.034 120.208C326.868 117.446 330.234 115.255 333.937 113.761C337.641 112.266 341.61 111.497 345.619 111.497C349.628 111.497 353.598 112.266 357.301 113.761C361.005 115.255 364.37 117.446 367.205 120.208C370.039 122.97 372.288 126.249 373.822 129.858C375.356 133.466 376.146 137.334 376.146 141.24V141.24Z" fill="url(#wqpaint4_linear_2_278)" stroke="black" stroke-width="12.4445" stroke-linecap="round" stroke-linejoin="round" />
    <path fill-rule="evenodd" clip-rule="evenodd" d="M571.59 160.226C567.921 155.829 570.26 147.782 540.477 131.406L502.478 178.873C523.796 172.223 557.516 162.181 571.591 160.226H571.59Z" fill="url(#wqpaint5_linear_2_278)" stroke="black" stroke-width="12.4444" stroke-linecap="round" stroke-linejoin="round" />
    <path fill-rule="evenodd" clip-rule="evenodd" d="M537.923 187.907C537.923 195.795 534.707 203.361 528.982 208.938C523.257 214.516 515.493 217.65 507.397 217.65C499.3 217.65 491.536 214.516 485.811 208.938C480.086 203.361 476.87 195.795 476.87 187.907C476.87 184.001 477.66 180.133 479.194 176.524C480.728 172.916 482.976 169.637 485.811 166.875C488.646 164.113 492.011 161.922 495.715 160.427C499.418 158.933 503.388 158.163 507.397 158.163C511.405 158.163 515.375 158.933 519.079 160.427C522.782 161.922 526.147 164.113 528.982 166.875C531.817 169.637 534.065 172.916 535.599 176.524C537.133 180.133 537.923 184.001 537.923 187.907V187.907Z" fill="url(#wqpaint6_linear_2_278)" stroke="black" stroke-width="12.4445" stroke-linecap="round" stroke-linejoin="round" />
    <path fill-rule="evenodd" clip-rule="evenodd" d="M673.214 273.693C675.294 262.939 663.748 259.485 652.672 244.663C637.244 250.98 619.37 258.515 606.778 276.18C638.564 269.625 653.013 279.337 673.214 273.693Z" fill="url(#wqpaint7_linear_2_278)" stroke="black" stroke-width="12.4444" stroke-linecap="round" stroke-linejoin="round" />
    <path fill-rule="evenodd" clip-rule="evenodd" d="M633.29 285.718C633.29 293.606 630.074 301.172 624.349 306.749C618.624 312.327 610.86 315.461 602.764 315.461C594.668 315.461 586.903 312.327 581.178 306.749C575.453 301.172 572.237 293.606 572.237 285.718C572.237 281.812 573.027 277.944 574.561 274.335C576.095 270.727 578.344 267.448 581.178 264.686C584.013 261.924 587.378 259.733 591.082 258.238C594.785 256.744 598.755 255.974 602.764 255.974C606.773 255.974 610.742 256.744 614.446 258.238C618.149 259.733 621.515 261.924 624.349 264.686C627.184 267.448 629.432 270.727 630.967 274.335C632.501 277.944 633.29 281.812 633.29 285.718V285.718Z" fill="url(#wqpaint8_linear_2_278)" stroke="black" stroke-width="12.4445" stroke-linecap="round" stroke-linejoin="round" />
    <path fill-rule="evenodd" clip-rule="evenodd" d="M191.815 120.181C183.602 110.994 174.01 112.312 152.345 109.13C153.101 135.361 168.759 142.679 178.074 163.088C189.885 144.134 187.981 143.447 191.815 120.181V120.181Z" fill="url(#wqpaint9_linear_2_278)" stroke="black" stroke-width="12.4444" stroke-linecap="round" stroke-linejoin="round" />
    <path fill-rule="evenodd" clip-rule="evenodd" d="M212.034 181.685C212.034 189.573 208.818 197.138 203.093 202.716C197.369 208.294 189.604 211.428 181.508 211.428C173.412 211.428 165.647 208.294 159.922 202.716C154.198 197.138 150.981 189.573 150.981 181.685C150.981 177.779 151.771 173.911 153.305 170.302C154.839 166.694 157.088 163.415 159.922 160.653C162.757 157.891 166.122 155.7 169.826 154.205C173.53 152.71 177.499 151.941 181.508 151.941C185.517 151.941 189.486 152.71 193.19 154.205C196.894 155.7 200.259 157.891 203.093 160.653C205.928 163.415 208.177 166.694 209.711 170.302C211.245 173.911 212.034 177.779 212.034 181.685V181.685Z" fill="url(#wqpaint10_linear_2_278)" stroke="black" stroke-width="12.4445" stroke-linecap="round" stroke-linejoin="round" />
    <path fill-rule="evenodd" clip-rule="evenodd" d="M54.6491 225.386C44.1903 227.564 43.3052 248.962 40.0229 259.94C51.7339 272.847 63.6417 280.201 73.8718 300.166C84.8113 280.696 67.0593 240.327 54.6491 225.386V225.386Z" fill="url(#wqpaint11_linear_2_278)" stroke="black" stroke-width="12.4444" stroke-linecap="round" stroke-linejoin="round" />
    <path fill-rule="evenodd" clip-rule="evenodd" d="M114.546 298.807C114.546 306.695 111.329 314.261 105.605 319.839C99.8798 325.417 92.1153 328.55 84.0192 328.55C75.923 328.55 68.1585 325.417 62.4337 319.839C56.7089 314.261 53.4927 306.695 53.4927 298.807C53.4927 294.901 54.2823 291.033 55.8164 287.425C57.3505 283.816 59.599 280.537 62.4337 277.775C65.2683 275.013 68.6335 272.822 72.3372 271.328C76.0408 269.833 80.0104 269.064 84.0192 269.064C88.028 269.064 91.9975 269.833 95.7011 271.328C99.4048 272.822 102.77 275.013 105.605 277.775C108.439 280.537 110.688 283.816 112.222 287.425C113.756 291.033 114.546 294.901 114.546 298.807V298.807Z" fill="url(#wqpaint12_linear_2_278)" stroke="black" stroke-width="12.4445" stroke-linecap="round" stroke-linejoin="round" />
    <defs>
      <linearGradient id="wqpaint0_linear_2_278" x1="135.025" y1="295.976" x2="607.727" y2="530.605" gradientUnits="userSpaceOnUse">
        <stop stop-color="#c9f2ce" />
        <stop offset="1" stop-color="#57CC99" />
      </linearGradient>
      <linearGradient id="wqpaint1_linear_2_278" x1="135.025" y1="295.976" x2="607.727" y2="530.606" gradientUnits="userSpaceOnUse">
        <stop stop-color="#c9f2ce" />
        <stop offset="1" stop-color="#57CC99" />
      </linearGradient>
      <linearGradient id="wqpaint2_linear_2_278" x1="135.025" y1="295.976" x2="607.728" y2="530.605" gradientUnits="userSpaceOnUse">
        <stop stop-color="#c9f2ce" />
        <stop offset="1" stop-color="#57CC99" />
      </linearGradient>
      <linearGradient id="wqpaint3_linear_2_278" x1="331.342" y1="80.5249" x2="381.76" y2="103.44" gradientUnits="userSpaceOnUse">
        <stop stop-color="#c9f2ce" />
        <stop offset="1" stop-color="#57CC99" />
      </linearGradient>
      <linearGradient id="wqpaint4_linear_2_278" x1="308.871" y1="141.24" x2="412.183" y2="177.206" gradientUnits="userSpaceOnUse">
        <stop stop-color="#c9f2ce" />
        <stop offset="1" stop-color="#57CC99" />
      </linearGradient>
      <linearGradient id="wqpaint5_linear_2_278" x1="521.004" y1="133.14" x2="568.646" y2="177.138" gradientUnits="userSpaceOnUse">
        <stop stop-color="#c9f2ce" />
        <stop offset="1" stop-color="#57CC99" />
      </linearGradient>
      <linearGradient id="wqpaint6_linear_2_278" x1="470.648" y1="187.907" x2="568.775" y2="223.873" gradientUnits="userSpaceOnUse">
        <stop stop-color="#c9f2ce" />
        <stop offset="1" stop-color="#57CC99" />
      </linearGradient>
      <linearGradient id="wqpaint7_linear_2_278" x1="626.221" y1="229.257" x2="669.598" y2="282.403" gradientUnits="userSpaceOnUse">
        <stop stop-color="#c9f2ce" />
        <stop offset="1" stop-color="#57CC99" />
      </linearGradient>
      <linearGradient id="wqpaint8_linear_2_278" x1="566.015" y1="285.718" x2="671.92" y2="321.684" gradientUnits="userSpaceOnUse">
        <stop stop-color="#c9f2ce" />
        <stop offset="1" stop-color="#57CC99" />
      </linearGradient>
      <linearGradient id="wqpaint9_linear_2_278" x1="146.123" y1="136.109" x2="198.038" y2="136.109" gradientUnits="userSpaceOnUse">
        <stop stop-color="#c9f2ce" />
        <stop offset="1" stop-color="#57CC99" />
      </linearGradient>
      <linearGradient id="wqpaint10_linear_2_278" x1="144.76" y1="181.684" x2="261.035" y2="208.907" gradientUnits="userSpaceOnUse">
        <stop stop-color="#c9f2ce" />
        <stop offset="1" stop-color="#57CC99" />
      </linearGradient>
      <linearGradient id="wqpaint11_linear_2_278" x1="33.8007" y1="262.776" x2="83.5108" y2="245.36" gradientUnits="userSpaceOnUse">
        <stop stop-color="#c9f2ce" />
        <stop offset="1" stop-color="#57CC99" />
      </linearGradient>
      <linearGradient id="wqpaint12_linear_2_278" x1="47.2708" y1="298.807" x2="160.954" y2="334.773" gradientUnits="userSpaceOnUse">
        <stop stop-color="#c9f2ce" />
        <stop offset="1" stop-color="#57CC99" />
      </linearGradient>
    </defs>
  </g>
  <g id="wr" fill="none" transform="scale(0.05714285714285714 0.05714285714285714)">
    <path fill-rule="evenodd" clip-rule="evenodd" d="M171.347 251.498C171.347 251.498 173.874 160.317 185.078 130.005C208.488 124.951 254.573 122.567 283.2 126.745C283.52 145.289 278.974 184.293 281.962 202.123C307.975 200.891 360.673 204.05 394.208 200.279C394.955 178.525 388.554 147.725 394.903 123.474C416.189 121.875 464.31 120.183 486.717 129.811C483.73 160.837 487.155 203.49 487.155 203.49L545.902 205.523L537.154 252.19C463.807 279.683 217.231 275.601 171.347 251.498V251.498Z" fill="url(#wrpaint0_linear_2_307)" stroke="black" stroke-width="12.4444" stroke-linecap="round" stroke-linejoin="round" />
    <path fill-rule="evenodd" clip-rule="evenodd" d="M210.558 546.37C191.9 565 152.913 583.747 125.113 589.632C121.081 602.941 117.115 618.33 125.3 634.878C224.387 635.777 486.026 634.626 580.701 634.297C585.81 615.84 589.673 602.488 584.565 587.981C555.414 582.209 520.209 573.495 494.148 546.373" fill="url(#wrpaint1_linear_2_307)" />
    <path d="M210.558 546.37C191.9 565 152.913 583.747 125.113 589.632C121.081 602.941 117.115 618.33 125.3 634.878C224.387 635.777 486.026 634.626 580.701 634.297C585.81 615.84 589.673 602.488 584.565 587.981C555.414 582.209 520.209 573.495 494.148 546.373" stroke="black" stroke-width="12.4444" stroke-linecap="round" stroke-linejoin="round" />
    <path d="M169.587 597.818C285.833 597.874 411.993 593.53 536.319 598.269" stroke="black" stroke-width="12.4444" stroke-linecap="round" stroke-linejoin="round" />
    <path fill-rule="evenodd" clip-rule="evenodd" d="M212.133 241.788C209.203 276.672 208.358 519.678 209.164 548.624C252.08 544.995 451.529 544.766 495.513 548.183C493.022 493.715 493.711 242.554 493.711 242.554" fill="url(#wrpaint2_linear_2_307)" />
    <path d="M212.133 241.788C209.203 276.672 208.358 519.678 209.164 548.624C252.08 544.995 451.529 544.766 495.513 548.183C493.022 493.715 493.711 242.554 493.711 242.554" stroke="black" stroke-width="12.4444" stroke-linejoin="round" />
    <path d="M242.526 298.048C264.192 295.689 275.233 294.931 293.685 295.286M242.184 493.759C273.209 491.472 338.217 488.896 409.748 491.196L242.184 493.759ZM241.129 443.448C280.603 439.648 318.788 438.397 374.362 438.975L241.129 443.448ZM241.545 392.739C297.753 388.852 299.337 389.265 360.169 388.388L241.545 392.739ZM241.545 343.009C270.078 340.65 286.857 339.424 321.003 340.248L241.545 343.009ZM275.924 355.992C276.609 379.272 275.788 354.953 276.472 375.086L275.924 355.992ZM319.232 405.417C319.916 428.697 319.096 404.378 319.779 424.511L319.232 405.417ZM275.924 455.411C276.609 478.691 275.788 454.372 276.472 474.506L275.924 455.411ZM366.764 453.833C367.448 477.113 366.627 454.372 367.311 474.506L366.764 453.833ZM319.232 507.292C319.916 530.573 319.096 507.831 319.779 527.966L319.232 507.292Z" stroke="black" stroke-width="12.4444" stroke-linecap="round" stroke-linejoin="round" />
    <path fill-rule="evenodd" clip-rule="evenodd" d="M118.026 125.438C122.036 147.39 125.067 168.215 128.952 199.747C153.901 217.143 167.867 223.218 170.539 252.369C245.479 238.866 471.514 241.978 539.48 252.096C544.216 225.821 551.965 221.331 588.581 199.277C593.206 164.774 597.268 148.138 597.529 127.509C586.557 124.841 507.721 101.232 497.982 104.624C494.519 125.151 499.416 142.787 494.859 162.092C465.348 163.571 439.058 162.448 408.516 154.499C408.668 128.693 408.63 114.542 409.897 94.5692C396.999 89.9757 320.291 89.159 305.818 93.8965C303.324 118.768 306.477 132.318 304.478 154.431C278.28 161.842 253.435 159.92 222.16 161.677C219.64 135.384 224.293 126.158 223.701 107.702C210.798 104.174 130.209 121.692 118.026 125.438V125.438Z" fill="url(#wrpaint3_linear_2_307)" stroke="black" stroke-width="12.4444" stroke-linecap="round" stroke-linejoin="round" />
    <path d="M162.353 203.97C277.973 192.54 448.975 191.829 548.206 206.726" stroke="black" stroke-width="12.4444" stroke-linecap="round" stroke-linejoin="round" />
    <defs>
      <linearGradient id="wrpaint0_linear_2_307" x1="-4.79064" y1="154.654" x2="549.644" y2="210.458" gradientUnits="userSpaceOnUse">
        <stop stop-color="#c9f2ce" />
        <stop offset="1" stop-color="#57CC99" />
      </linearGradient>
      <linearGradient id="wrpaint1_linear_2_307" x1="146.264" y1="555.29" x2="703.169" y2="611.094" gradientUnits="userSpaceOnUse">
        <stop stop-color="#c9f2ce" />
        <stop offset="1" stop-color="#57CC99" />
      </linearGradient>
      <linearGradient id="wrpaint2_linear_2_307" x1="166.873" y1="402.311" x2="724.805" y2="504.024" gradientUnits="userSpaceOnUse">
        <stop stop-color="#c9f2ce" />
        <stop offset="1" stop-color="#57CC99" />
      </linearGradient>
      <linearGradient id="wrpaint3_linear_2_307" x1="113.961" y1="171.542" x2="773.293" y2="314.945" gradientUnits="userSpaceOnUse">
        <stop stop-color="#c9f2ce" />
        <stop offset="1" stop-color="#57CC99" />
      </linearGradient>
    </defs>
  </g>
</svg>