<svg xmlns="http://www.w3.org/2000/svg" width="40" height="40" viewbox="0.0 0.0 50.0 50.0">
  <g id="bb" fill="none" transform="scale(0.8 0.8)">
    <path fill-rule="evenodd" clip-rule="evenodd" d="M24.9353 7.59905V7.60413C24.1587 7.63138 23.4699 7.90511 22.9256 8.45701C22.3196 9.03918 22.0327 9.74372 22.0327 10.5404C22.0327 11.7353 22.575 12.5935 23.6914 13.1756C22.894 14.0948 22.0008 14.983 21.0439 15.7796C19.2258 17.3423 16.8019 18.599 15.9726 20.7438C15.558 21.7855 15.3347 22.7656 15.3347 23.6235C15.3347 24.1138 15.3667 24.6657 15.4943 25.3092C15.59 25.922 15.8449 26.5959 16.2277 27.2393C16.5147 27.7602 16.8977 28.2196 17.3762 28.618C17.8227 29.0163 18.6198 29.5377 19.7999 30.1811L17.4716 35.788C18.1414 36.0331 18.8752 36.2479 19.7045 36.4624C20.5337 36.6769 21.3309 36.8297 22.0964 36.9216C18.4284 41.3645 12.4322 35.2367 8.25433 39.7409L10.4554 43.2029C15.75 40.2921 18.9592 45.8594 24.4578 41.0278C25.0047 40.5472 24.9956 40.5252 25.5421 41.0278C30.9295 45.9824 34.2496 40.2921 39.5445 43.2029L41.745 39.7409C37.5666 35.2368 31.5708 41.3645 27.9029 36.9216C28.6684 36.8297 29.4656 36.6769 30.2948 36.4624C31.1241 36.2479 31.8579 36.0331 32.5277 35.788L30.1993 30.1811C31.3795 29.5377 32.1771 29.0164 32.6236 28.618C33.102 28.2197 33.4846 27.7602 33.7716 27.2393C34.1544 26.5959 34.4093 25.922 34.505 25.3092C34.6326 24.6658 34.6646 24.1138 34.6646 23.6235C34.6646 22.7656 34.4413 21.7855 34.0267 20.7438C33.1974 18.599 30.7735 17.3423 28.9554 15.7796C27.9986 14.983 27.1053 14.0948 26.3079 13.1756C27.4242 12.5934 27.9665 11.7353 27.9665 10.5404C27.9665 9.74372 27.6796 9.03916 27.0736 8.45701C26.5293 7.9051 25.8405 7.63138 25.0639 7.60413V7.59905C25.0424 7.59905 25.0217 7.6011 25.0003 7.60159C24.9789 7.60133 24.9582 7.59905 24.9367 7.59905H24.9353Z" fill="#064635" stroke="#141414" stroke-width="1.19998" />
    <path fill-rule="evenodd" clip-rule="evenodd" d="M30.4866 35.2362L29.6067 32.9995C28.1988 32.6931 26.6736 32.5093 25.0018 32.5093C23.33 32.5093 21.8049 32.6625 20.4263 32.9995L19.5464 35.2056C21.2476 34.746 23.066 34.5315 24.9725 34.5315C26.9082 34.5315 28.7268 34.7766 30.4866 35.2362V35.2362Z" fill="#E6E6E6" />
    <path fill-rule="evenodd" clip-rule="evenodd" d="M24.8766 18.6293C24.1111 18.6293 23.7603 18.9664 23.7603 19.6405V22.061H21.1448C20.4432 22.061 20.0923 22.3674 20.0923 22.9802H20.5707V22.827V22.9802H20.0923C20.0923 23.593 20.4431 23.8994 21.1448 23.8994H23.7603V26.32C23.7603 26.9941 24.143 27.3311 24.8766 27.3311C25.6102 27.3311 25.9929 26.9941 25.9929 26.32V23.8994H28.7041C29.3739 23.8994 29.7247 23.593 29.7247 22.9802H29.5014V22.827V22.9802H29.7247C29.7247 22.3674 29.3739 22.061 28.7041 22.061H25.9929V19.6405C25.9929 18.9664 25.6102 18.6293 24.8766 18.6293Z" fill="#E6E6E6" />
    <path opacity="0.15" fill-rule="evenodd" clip-rule="evenodd" d="M24.9353 7.59905C24.1695 7.59905 23.5051 7.81854 22.9635 8.27619C23.0309 8.33354 23.0977 8.39225 23.1612 8.4568C27.8906 9.15081 26.9376 11.61 24.5095 13.1757C23.4032 14.1195 24.2311 15.1001 25.043 15.78C26.8613 17.3427 29.285 18.5986 30.1138 20.7435C30.5285 21.7852 30.7522 22.7661 30.7522 23.6241C30.7522 24.1143 30.7194 24.6657 30.5921 25.3091C30.4968 25.9219 30.2413 26.5962 29.8588 27.2397C29.5716 27.7606 29.1894 28.22 28.7107 28.6183C28.2642 29.0167 27.4666 29.5375 26.2866 30.1809L28.6152 35.7881C27.9455 36.0333 27.2119 36.248 26.3826 36.4624C25.5533 36.6769 24.7558 36.8302 23.9905 36.9221C29.0581 43.3802 35.5935 37.4124 41.0636 40.8097C41.992 39.1745 40.3998 41.8538 41.7431 39.741C40.4374 38.3335 38.9543 37.9644 37.4201 37.9863C34.8016 38.0862 32.254 38.7766 30.073 38.4135H30.0808C29.295 38.1748 28.5598 37.7215 27.9011 36.923C28.6663 36.8315 29.4636 36.6779 30.2932 36.4633C31.1225 36.2489 31.8561 36.0342 32.5257 35.7891L30.1976 30.1819C31.3777 29.5384 32.1753 29.0176 32.6218 28.6192C33.1004 28.2209 33.4824 27.7615 33.7694 27.2406C34.1522 26.5972 34.4076 25.9229 34.5031 25.31C34.6305 24.6666 34.6632 24.1153 34.6632 23.625C34.6632 22.7671 34.4396 21.7861 34.0248 20.7445C33.1957 18.5996 30.7714 17.3436 28.9531 15.7809C27.9964 14.9843 27.1041 14.096 26.3065 13.1766C27.423 12.5945 27.9648 11.7366 27.9648 10.5417C27.9648 9.74503 27.6779 9.03988 27.0717 8.45773C26.4976 7.87555 25.7643 7.59999 24.9349 7.59999L24.9353 7.59905Z" fill="black" />
  </g>
  <g id="bk" fill="none" transform="scale(0.8 0.8)">
    <path fill-rule="evenodd" clip-rule="evenodd" d="M22.5532 5.59542V9.14809H18.8614V13.8434H22.355L21.7503 17.6162C14.8672 14.6302 9.12101 16.2233 6.71128 21.076C4.54403 27.1576 8.38305 29.7428 12.476 33.3919V41.1566C15.9432 43.1701 22.1304 43.3714 24.993 43.4058C25.0105 43.4057 25.0157 43.4058 25.0256 43.4058H25.0432C27.9056 43.3715 34.0928 43.17 37.5601 41.1566V33.3489C41.6343 29.723 45.4341 27.133 43.2758 21.0763C40.8659 16.2236 35.1202 14.6305 28.2368 17.6165L27.6295 13.8436H31.126V9.14838H27.4341V5.59572L22.5532 5.59542Z" fill="#064635" stroke="#141414" stroke-width="1.2" stroke-linejoin="round" />
    <path fill-rule="evenodd" clip-rule="evenodd" d="M22.6836 28.9537L14.2811 29.7365C14.2811 29.7365 7.27869 26.1427 10.4091 21.8105C13.5397 17.478 23.3543 20.5822 22.6834 28.9537L22.6836 28.9537Z" stroke="#E6E6E6" stroke-width="2.00006" stroke-linejoin="round" />
    <path fill-rule="evenodd" clip-rule="evenodd" d="M27.3066 28.9537L35.7091 29.7365C35.7091 29.7365 42.7116 26.1427 39.581 21.8105C36.4505 17.478 26.6359 20.5822 27.3067 28.9537L27.3066 28.9537Z" stroke="#E6E6E6" stroke-width="2.00006" stroke-linejoin="round" />
    <path fill-rule="evenodd" clip-rule="evenodd" d="M35.4192 36.7888C32.811 35.7947 29.3313 35.2928 24.995 35.2928C20.622 35.2928 17.1063 35.8041 14.4406 36.8198L14.4405 39.7928C17.1215 38.8284 20.8466 38.3454 24.995 38.3454C29.1209 38.3454 32.8254 38.8176 35.419 39.762L35.4192 36.7888Z" fill="#E6E6E6" />
    <path opacity="0.15" fill-rule="evenodd" clip-rule="evenodd" d="M34.8476 16.1059C33.9634 16.1048 33.0349 16.2004 32.0715 16.3931C34.6981 17.0144 36.7597 18.6304 37.9739 21.0754C40.1322 27.1324 36.3322 29.7225 32.258 33.3489V40.6351C31.7149 41.7619 19.7742 42.4698 16.6585 42.6327C17.6746 42.6858 24.2937 43.3977 24.9976 43.4061C25.0151 43.406 25.0208 43.4061 25.0308 43.4061H25.0478C27.9102 43.3718 34.0975 43.1701 37.5648 41.1566V33.3489C41.6389 29.723 45.439 27.1329 43.2806 21.0753C41.6991 17.8908 38.6812 16.1098 34.8478 16.1058L34.8476 16.1059Z" fill="black" />
    <path opacity="0.15" fill-rule="evenodd" clip-rule="evenodd" d="M24.9901 5.59542V10.0867H27.6148V12.8015L27.6258 13.8433L28.191 17.3541L27.6258 13.8433H31.1224V9.14799H27.7751L27.4304 5.59532L24.9901 5.59542Z" fill="black" />
  </g>
  <g id="bn" fill="none" transform="scale(0.8 0.8)">
    <path fill-rule="evenodd" clip-rule="evenodd" d="M19.889 7.55296C19.0553 7.93981 20.7746 9.96943 20.2933 10.8513C20.1957 10.9694 20.0964 11.076 19.9967 11.178C18.9987 11.1942 15.5227 10.3801 15.5965 11.146C16.1254 12.0675 17.8987 12.8859 17.3882 14.2347C13.8884 19.3394 9.47323 23.9211 7.05597 30.4616C6.91752 32.5473 9.16658 33.8125 12.419 34.9066C14.9448 34.5304 16.1917 32.1396 18.6829 30.601C20.6551 29.3701 23.2092 29.461 25.666 28.2985C24.6199 35.3986 15.901 36.4991 15.1499 43.4484H42.8348C43.5738 25.4888 41.0911 14.0681 24.05 10.338C23.2444 8.94406 21.683 7.46565 19.8875 7.55283L19.889 7.55296Z" fill="#064635" stroke="black" stroke-width="1.09996" />
    <path fill-rule="evenodd" clip-rule="evenodd" d="M13.7889 30.3886C14.1967 29.9776 14.4686 30.7997 14.1967 31.4847C13.2451 32.0327 12.1927 33.1746 11.4778 33.6768C10.9276 34.0634 10.2792 34.3352 13.7889 30.3885L13.7889 30.3886Z" fill="#E6E6E6" />
    <path fill-rule="evenodd" clip-rule="evenodd" d="M10.1697 27.5867C10.7134 27.1757 10.9853 27.8607 10.7134 28.5458C10.4416 28.9568 9.48988 29.5049 8.81021 29.6418C8.13044 29.9158 7.85853 29.6418 10.1696 27.5867L10.1697 27.5867Z" fill="#E6E6E6" />
    <path fill-rule="evenodd" clip-rule="evenodd" d="M24.3837 26.429C26.0673 25.5712 28.3123 24.2843 27.3021 22.3542C26.9663 21.8314 26.1567 20.633 25.2816 20.1024C26.5164 22.9977 25.9552 23.5338 23.7103 26.6435" fill="#E6E6E6" />
    <path fill-rule="evenodd" clip-rule="evenodd" d="M16.3379 21.154C17.0476 19.9234 18.005 18.6991 19.3444 18.0884C22.1141 16.938 19.9541 18.9532 19.3805 19.5146C19.8975 20.3206 19.4277 21.4059 18.3055 21.0714C18.1677 21.0357 18.5291 20.4744 18.4339 20.4761C17.8909 20.4862 17.4552 21.5755 16.824 21.7806C16.4252 22.0548 16.156 21.4652 16.3379 21.154L16.3379 21.154Z" fill="#E6E6E6" />
    <path fill-rule="evenodd" clip-rule="evenodd" d="M39.1523 42.8903C39.8555 29.8847 37.7445 16.8217 26.6146 15.4032C36.7979 18.6601 36.3708 29.0305 36.161 42.8903H39.1523Z" fill="#E6E6E6" />
    <path opacity="0.15" fill-rule="evenodd" clip-rule="evenodd" d="M28.9175 24.058C28.2479 25.4141 27.7502 32.5732 25.4322 30.9408C25.0722 30.5656 25.3971 30.0284 25.4235 29.5901C25.4909 29.2992 25.8613 28.3715 25.7214 28.3074C25.5197 28.2151 23.939 28.9204 23.3267 29.1299C14.2985 32.2205 19.4235 30.4589 28.9179 24.0581L28.9175 24.058Z" fill="black" />
    <path opacity="0.15" fill-rule="evenodd" clip-rule="evenodd" d="M19.889 7.55296C19.1364 7.9022 22.658 10.2464 22.5693 11.2203C38.7418 15.167 38.9198 25.8331 38.195 43.4492H42.836C43.575 25.4896 41.0923 14.0689 24.0512 10.3388C23.2456 8.94487 21.6842 7.46647 19.8887 7.55364L19.889 7.55296Z" fill="black" />
  </g>
  <g id="bp" fill="none" transform="scale(0.8 0.8)">
    <path fill-rule="evenodd" clip-rule="evenodd" d="M24.9915 43.3888H12.6567C10.2064 37.5836 16.1928 31.2055 20.7592 29.3779C15.3018 26.2604 17.7521 19.3078 22.4298 18.6628C21.3161 17.9103 20.7592 16.8353 20.7592 15.5452C20.7592 14.4702 21.2047 13.5027 21.9843 12.7502C22.764 11.9976 23.7663 11.5676 24.9915 11.5676C26.1052 11.5676 27.1076 11.9976 27.9986 12.7502C28.7782 13.5027 29.2237 14.4702 29.2237 15.5452C29.2237 16.8353 28.6668 17.9103 27.5531 18.6628C32.6763 20.7054 34.0128 27.2279 29.2237 29.3779C35.4607 31.6355 39.331 38.3358 37.3262 43.3888H24.9915Z" fill="#064635" stroke="#141414" stroke-width="1.20003" stroke-linejoin="round" />
    <path opacity="0.15" fill-rule="evenodd" clip-rule="evenodd" d="M25.0018 11.567C24.0702 11.567 23.2678 11.8168 22.5938 12.267C25.9733 12.8553 28.6632 15.6551 24.9211 18.6624C30.0442 20.705 31.3807 27.2273 26.5918 29.3769C32.8287 31.6345 34.5849 38.3351 32.5803 43.3878H37.3364C39.341 38.3351 35.4712 31.6345 29.2344 29.3769C34.0233 27.2268 32.6863 20.7045 27.5632 18.6624C28.6768 17.9099 29.2344 16.8344 29.2344 15.5444C29.2344 14.4693 28.789 13.5017 28.0093 12.7492C27.1184 11.9966 26.1154 11.567 25.0018 11.567V11.567Z" fill="black" />
  </g>
  <g id="bq" fill="none" transform="scale(0.8 0.8)">
    <path fill-rule="evenodd" clip-rule="evenodd" d="M19.3145 7.61436C17.3104 7.61409 15.6851 9.28255 15.6851 11.3408C15.6851 12.8782 16.6077 14.2567 18.0039 14.8118L17.4391 24.9577L12.3406 18.7684C12.6323 18.2202 12.7851 17.6055 12.7851 16.9808C12.7851 14.9225 11.1605 13.2538 9.15626 13.2538C7.15179 13.2537 5.52686 14.9225 5.52714 16.9808C5.52714 19.0389 7.15207 20.7073 9.15626 20.7072L12.7812 32.3663L15.1305 36.1771V41.6736C15.1305 42.6028 20.0826 43.3592 24.999 43.3866C29.9158 43.359 34.8676 42.6028 34.8676 41.6736V36.1771L37.2165 32.3663L40.8418 20.7072C42.846 20.7073 44.4709 19.0389 44.4709 16.9808C44.4709 14.9224 42.8462 13.2537 40.8418 13.2538C38.8376 13.2539 37.2126 14.9225 37.2129 16.9808C37.2129 17.6055 37.3657 18.2202 37.6574 18.7684L32.5586 24.9577L31.9938 14.8118C33.39 14.2567 34.3109 12.8782 34.3126 11.3408C34.3126 9.28265 32.6877 7.61427 30.6835 7.61436C28.6793 7.61442 27.0546 9.28275 27.0546 11.3408C27.0546 12.2909 27.4113 13.2045 28.047 13.8947L24.9985 23.4659L21.95 13.8947C22.5857 13.2044 22.9407 12.2909 22.9424 11.3408C22.9424 9.28275 21.3177 7.61436 19.3135 7.61436H19.3145Z" fill="#064635" stroke="#141414" stroke-width="1.20003" stroke-linejoin="round" />
    <path fill-rule="evenodd" clip-rule="evenodd" d="M33.0175 37.979C31.0238 37.1178 28.3641 36.6831 25.0497 36.6831C21.7071 36.6831 19.0199 37.1261 16.9823 38.0056L16.9822 40.5805C19.0315 39.7452 21.8789 39.327 25.0496 39.327C28.2033 39.327 31.035 39.7359 33.0174 40.5539L33.0175 37.979Z" fill="#E6E6E6" />
    <path fill-rule="evenodd" clip-rule="evenodd" d="M25.002 29.3778C21.2822 29.4352 17.5571 30.1389 14.9969 31.3543L16.6245 33.8778C18.5456 32.9042 22.0968 32.4337 25.0019 32.434C27.9069 32.4337 31.4583 32.9042 33.3794 33.8778L35.0064 31.3543C32.4463 30.1389 28.7216 29.4345 25.0021 29.3778H25.002Z" fill="#E6E6E6" />
    <path opacity="0.15" fill-rule="evenodd" clip-rule="evenodd" d="M40.8415 13.2539C40.1159 13.2539 39.4415 13.4748 38.8744 13.8516C44.1987 14.9129 42.4959 19.6923 39.1962 20.1655L33.2832 32.3653L30.9343 36.1759V41.6727C30.9343 42.4772 27.2204 43.1509 23.0324 43.3353C23.6811 43.3639 24.34 43.3815 24.9995 43.3852C29.9163 43.3577 34.869 42.6019 34.869 41.6727V36.1759L37.2179 32.3654L40.8421 20.7073C42.8463 20.7073 44.4713 19.039 44.4713 16.9808C44.4713 14.9223 42.8465 13.2537 40.8421 13.2538L40.8415 13.2539Z" fill="black" />
  </g>
  <g id="br" fill="none" transform="scale(0.8 0.8)">
    <path fill-rule="evenodd" clip-rule="evenodd" d="M12.38 9.548V17.2813L17.2129 21.2988V31.5028L10.6249 38.468V43.4H39.3699V38.468L32.7825 31.5028V21.2988L37.6154 17.2813V9.548H32.3161V12.6491H28.3241V9.548H21.6707V12.6491H17.6787V9.548H12.38Z" fill="#064635" stroke="#141414" stroke-width="1.2" />
    <path fill-rule="evenodd" clip-rule="evenodd" d="M25 16.456H16.2504L19.557 18.956H30.561L33.7497 16.456H25Z" fill="#E6E6E6" />
    <path opacity="0.15" fill-rule="evenodd" clip-rule="evenodd" d="M34.04 9.548V17.2812L29.2074 21.2986V31.5026L35.7947 38.4679V43.3998H39.3675V38.4679L32.7797 31.5026V21.2986L37.6128 17.2812V9.548H34.04Z" fill="black" />
    <path fill-rule="evenodd" clip-rule="evenodd" d="M25 38.735H14.973L17.7493 36.235H32.3853L35.0275 38.735H25Z" fill="#E6E6E6" />
    <path fill-rule="evenodd" clip-rule="evenodd" d="M25.06 34.655H18.2714L20.0336 32.455H30.1796L31.8489 34.655H25.06Z" fill="#E6E6E6" />
    <path fill-rule="evenodd" clip-rule="evenodd" d="M25.06 20.543H20.0872L21.8325 22.743H28.3575L30.0329 20.543H25.06Z" fill="#E6E6E6" />
  </g>
  <g id="wb" fill="none" transform="scale(0.8 0.8)">
    <path fill-rule="evenodd" clip-rule="evenodd" d="M24.9394 7.59905V7.60413C24.1628 7.63138 23.4741 7.90511 22.9298 8.45701C22.3238 9.03918 22.0369 9.74372 22.0369 10.5404C22.0369 11.7353 22.5792 12.5935 23.6955 13.1756C22.8981 14.0948 22.0049 14.983 21.048 15.7796C19.23 17.3423 16.8061 18.599 15.9769 20.7438C15.5622 21.7855 15.339 22.7656 15.339 23.6235C15.339 24.1138 15.3709 24.6657 15.4986 25.3092C15.5942 25.922 15.8492 26.5959 16.2319 27.2393C16.5189 27.7602 16.902 28.2196 17.3804 28.618C17.8269 29.0163 18.624 29.5377 19.8041 30.1811L17.4758 35.788C18.1456 36.0331 18.8794 36.2479 19.7087 36.4624C20.5379 36.6769 21.3351 36.8297 22.1006 36.9216C18.4326 41.3645 12.4364 35.2367 8.25864 39.7409L10.4597 43.2029C15.7543 40.2921 18.9634 45.8594 24.4619 41.0278C25.0089 40.5472 24.9997 40.5252 25.5462 41.0278C30.9336 45.9824 34.2537 40.2921 39.5484 43.2029L41.7489 39.7409C37.5706 35.2368 31.5749 41.3645 27.907 36.9216C28.6725 36.8297 29.4696 36.6769 30.2989 36.4624C31.1282 36.2479 31.862 36.0331 32.5317 35.788L30.2034 30.1811C31.3835 29.5377 32.1811 29.0164 32.6277 28.618C33.1061 28.2197 33.4886 27.7602 33.7757 27.2393C34.1584 26.5959 34.4133 25.922 34.509 25.3092C34.6366 24.6658 34.6686 24.1138 34.6686 23.6235C34.6686 22.7656 34.4453 21.7855 34.0307 20.7438C33.2014 18.599 30.7776 17.3423 28.9595 15.7796C28.0027 14.983 27.1094 14.0948 26.312 13.1756C27.4283 12.5934 27.9706 11.7353 27.9706 10.5404C27.9706 9.74372 27.6837 9.03916 27.0777 8.45701C26.5334 7.9051 25.8447 7.63138 25.0681 7.60413V7.59905C25.0466 7.59905 25.0259 7.6011 25.0044 7.60159C24.983 7.60133 24.9623 7.59905 24.9408 7.59905H24.9394Z" fill="#FFF5FD" stroke="#3A3A3A" stroke-width="1.19998" />
    <path fill-rule="evenodd" clip-rule="evenodd" d="M30.4907 35.2362L29.6108 32.9995C28.2029 32.6931 26.6778 32.5093 25.006 32.5093C23.3341 32.5093 21.809 32.6625 20.4305 32.9995L19.5506 35.2056C21.2518 34.746 23.0702 34.5315 24.9766 34.5315C26.9123 34.5315 28.7309 34.7766 30.4907 35.2362V35.2362Z" fill="#519259" />
    <path fill-rule="evenodd" clip-rule="evenodd" d="M24.8808 18.6293C24.1153 18.6293 23.7645 18.9664 23.7645 19.6405V22.061H21.149C20.4474 22.061 20.0965 22.3674 20.0965 22.9802H20.5749V22.827V22.9802H20.0965C20.0965 23.593 20.4473 23.8994 21.149 23.8994H23.7645V26.32C23.7645 26.9941 24.1472 27.3311 24.8808 27.3311C25.6143 27.3311 25.9971 26.9941 25.9971 26.32V23.8994H28.7082C29.378 23.8994 29.7288 23.593 29.7288 22.9802H29.5056V22.827V22.9802H29.7288C29.7288 22.3674 29.378 22.061 28.7082 22.061H25.9971V19.6405C25.9971 18.9664 25.6143 18.6293 24.8808 18.6293Z" fill="#519259" />
    <path opacity="0.15" fill-rule="evenodd" clip-rule="evenodd" d="M24.9394 7.59905C24.1736 7.59905 23.5093 7.81854 22.9676 8.27619C23.0351 8.33354 23.1018 8.39225 23.1654 8.4568C27.8947 9.15081 26.9417 11.61 24.5136 13.1757C23.4074 14.1195 24.2352 15.1001 25.0472 15.78C26.8654 17.3427 29.2891 18.5986 30.1178 20.7435C30.5326 21.7852 30.7563 22.7661 30.7563 23.6241C30.7563 24.1143 30.7235 24.6657 30.5962 25.3091C30.5009 25.9219 30.2454 26.5962 29.8629 27.2397C29.5757 27.7606 29.1934 28.22 28.7148 28.6183C28.2683 29.0167 27.4707 29.5375 26.2907 30.1809L28.6193 35.7881C27.9496 36.0333 27.216 36.248 26.3868 36.4624C25.5574 36.6769 24.7599 36.8302 23.9946 36.9221C29.0622 43.3802 35.5975 37.4124 41.0676 40.8097C41.9959 39.1745 40.4038 41.8538 41.7471 39.741C40.4414 38.3335 38.9583 37.9644 37.4241 37.9863C34.8056 38.0862 32.2581 38.7766 30.0771 38.4135H30.0849C29.2991 38.1748 28.5639 37.7215 27.9052 36.923C28.6704 36.8315 29.4677 36.6779 30.2973 36.4633C31.1266 36.2489 31.8601 36.0342 32.5298 35.7891L30.2017 30.1819C31.3817 29.5384 32.1793 29.0176 32.6259 28.6192C33.1044 28.2209 33.4865 27.7615 33.7735 27.2406C34.1562 26.5972 34.4116 25.9229 34.5072 25.31C34.6345 24.6666 34.6673 24.1153 34.6673 23.625C34.6673 22.7671 34.4436 21.7861 34.0289 20.7445C33.1998 18.5996 30.7754 17.3436 28.9572 15.7809C28.0005 14.9843 27.1082 14.096 26.3106 13.1766C27.4271 12.5945 27.9689 11.7366 27.9689 10.5417C27.9689 9.74503 27.682 9.03988 27.0758 8.45773C26.5017 7.87555 25.7684 7.59999 24.9391 7.59999L24.9394 7.59905Z" fill="black" />
  </g>
  <g id="wk" fill="none" transform="scale(0.8 0.8)">
    <path fill-rule="evenodd" clip-rule="evenodd" d="M22.56 5.6V9.1517H18.867V13.8457H22.3616L21.7567 17.6175C14.8717 14.6323 9.12473 16.2249 6.71373 21.0763C4.54593 27.1562 8.38593 29.7407 12.48 33.3893V41.1518C15.9482 43.1647 22.137 43.366 25 43.4004C25.0176 43.4003 25.0228 43.4004 25.0327 43.4004H25.0503C27.9135 43.3661 34.1025 43.1647 37.5703 41.1518V33.3462C41.6456 29.7213 45.4465 27.132 43.2876 21.0762C40.877 16.2248 35.1298 14.6322 28.2446 17.6174L27.6371 13.8456H31.1346V9.1516H27.4416V5.5999L22.56 5.6Z" fill="#FFF5FD" stroke="#3A3A3A" stroke-width="1.2" stroke-linejoin="round" />
    <path fill-rule="evenodd" clip-rule="evenodd" d="M22.68 28.9479L14.2776 29.7307C14.2776 29.7307 7.2754 26.1369 10.4058 21.8048C13.5363 17.4723 23.3508 20.5765 22.6798 28.9479L22.68 28.9479Z" stroke="#519259" stroke-width="2" stroke-linejoin="round" />
    <path fill-rule="evenodd" clip-rule="evenodd" d="M27.31 28.9479L35.7124 29.7307C35.7124 29.7307 42.7147 26.1369 39.5842 21.8048C36.4537 17.4723 26.6392 20.5765 27.3102 28.9479L27.31 28.9479Z" stroke="#519259" stroke-width="2" stroke-linejoin="round" />
    <path fill-rule="evenodd" clip-rule="evenodd" d="M35.42 36.7827C32.8119 35.7886 29.3322 35.2867 24.996 35.2867C20.6231 35.2867 17.1075 35.798 14.442 36.8137L14.4419 39.7867C17.1228 38.8222 20.8479 38.3393 24.9959 38.3393C29.1217 38.3393 32.8262 38.8115 35.4199 39.7559L35.42 36.7827Z" fill="#519259" />
    <path opacity="0.15" fill-rule="evenodd" clip-rule="evenodd" d="M34.85 16.101C33.9658 16.0999 33.0373 16.1955 32.074 16.3882C34.7006 17.0095 36.7621 18.6255 37.9763 21.0705C40.1346 27.1275 36.3347 29.7176 32.2605 33.3435V40.6297C31.7174 41.7565 19.7765 42.4644 16.6615 42.6273C17.6776 42.6804 24.2966 43.3922 25.0004 43.4007C25.018 43.4006 25.0237 43.4007 25.0336 43.4007H25.0506C27.9129 43.3664 34.1001 43.1647 37.5676 41.1512V33.3435C41.6417 29.7176 45.4416 27.1275 43.2833 21.0705C41.7018 17.8859 38.684 16.1051 34.8506 16.101H34.85Z" fill="black" />
    <path opacity="0.15" fill-rule="evenodd" clip-rule="evenodd" d="M25 5.59V10.0813H27.6247V12.7961L27.6357 13.8379L28.2009 17.3488L27.6357 13.8379H31.1321V9.1427H27.7849L27.4402 5.59H25Z" fill="black" />
  </g>
  <g id="wn" fill="none" transform="scale(0.8 0.8)">
    <path fill-rule="evenodd" clip-rule="evenodd" d="M19.8922 7.85851C19.0586 8.24209 20.7779 10.2545 20.2966 11.1288C20.199 11.246 20.0997 11.3516 20 11.4529C19.002 11.4688 15.5261 10.6617 15.5998 11.4211C16.1286 12.3348 17.902 13.1462 17.3914 14.4836C17.0216 15.0186 16.6414 15.5477 16.2545 16.0739C12.9808 20.5269 9.22107 24.7733 7.05978 30.573C6.92134 32.641 9.17038 33.8954 12.4228 34.9803C14.9486 34.6074 16.1954 32.2368 18.6866 30.7112C20.6588 29.4908 23.2129 29.581 25.6695 28.4283C24.6235 35.4681 15.9048 36.5593 15.1545 43.4495H42.839C43.578 25.6431 41.0954 14.3183 24.0551 10.6199C23.2494 9.23776 21.6881 7.77191 19.8926 7.85827L19.8922 7.85851Z" fill="#FFF5FD" stroke="#3A3A3A" stroke-width="1.09998" />
    <path fill-rule="evenodd" clip-rule="evenodd" d="M13.7905 30.5005C14.1984 30.0929 14.4703 30.908 14.1984 31.5872C13.2468 32.1306 12.1944 33.2627 11.4796 33.7608C10.9293 34.1441 10.2809 34.4136 13.7905 30.5005H13.7905Z" fill="#519259" />
    <path fill-rule="evenodd" clip-rule="evenodd" d="M10.1606 27.7194C10.7044 27.3119 10.9763 27.9911 10.7044 28.6704C10.4326 29.0779 9.48091 29.6213 8.80126 29.7571C8.12151 30.0288 7.84959 29.7571 10.1607 27.7194L10.1606 27.7194Z" fill="#519259" />
    <path fill-rule="evenodd" clip-rule="evenodd" d="M24.3785 26.5784C26.0622 25.7278 28.3071 24.4519 27.2969 22.5382C26.9611 22.0198 26.1515 20.8316 25.2764 20.3054C26.5112 23.1762 25.95 23.7076 23.7051 26.791" fill="#519259" />
    <path fill-rule="evenodd" clip-rule="evenodd" d="M16.3305 21.3436C17.0402 20.1236 17.9977 18.9096 19.337 18.3039C22.1067 17.1633 19.9467 19.1615 19.3731 19.7181C19.8198 20.4301 19.2992 21.4433 18.2982 21.2616C18.1604 21.2262 18.5218 20.6697 18.4266 20.6714C17.8835 20.6814 17.4479 21.7615 16.8166 21.9649C16.4179 22.2367 16.1486 21.6522 16.3305 21.3436H16.3305Z" fill="#519259" />
    <path fill-rule="evenodd" clip-rule="evenodd" d="M39.1413 42.8928C39.8445 29.9975 37.7335 17.0457 26.6032 15.6385C36.7863 18.8679 36.3601 29.1504 36.1494 42.8928H39.1413Z" fill="#519259" />
    <path opacity="0.15" fill-rule="evenodd" clip-rule="evenodd" d="M28.9134 24.2233C28.2438 25.5677 27.7461 32.6661 25.4283 31.0477C25.0683 30.6756 25.3932 30.1429 25.4195 29.7083C25.4869 29.42 25.8573 28.5002 25.7174 28.4366C25.5157 28.345 23.935 29.0444 23.3227 29.2521C14.2947 32.3165 19.4196 30.5698 28.9139 24.2233H28.9134Z" fill="black" />
    <path opacity="0.15" fill-rule="evenodd" clip-rule="evenodd" d="M19.8922 7.85851C19.1396 8.20478 22.6613 10.5292 22.5725 11.4947C38.7455 15.4079 38.9226 25.983 38.1976 43.4501H42.8385C43.5775 25.6436 41.0949 14.3188 24.0545 10.6204C23.2489 9.23829 21.6876 7.77245 19.892 7.8588L19.8922 7.85851Z" fill="black" />
  </g>
  <g id="wp" fill="none" transform="scale(0.8 0.8)">
    <path fill-rule="evenodd" clip-rule="evenodd" d="M24.9712 43.4054H12.6362C10.1859 37.6003 16.1724 31.2222 20.7389 29.3947C15.2814 26.2772 17.7317 19.3247 22.4095 18.6797C21.2958 17.9272 20.7389 16.8522 20.7389 15.5622C20.7389 14.4871 21.1844 13.5196 21.964 12.7671C22.7437 12.0146 23.7461 11.5846 24.9712 11.5846C26.085 11.5846 27.0874 12.0146 27.9784 12.7671C28.758 13.5196 29.2036 14.4871 29.2036 15.5622C29.2036 16.8522 28.6467 17.9272 27.5329 18.6797C32.6562 20.7222 33.9928 27.2447 29.2036 29.3947C35.4407 31.6522 39.311 38.3525 37.3062 43.4054H24.9712Z" fill="#FFF5FD" stroke="#3A3A3A" stroke-width="1.20003" stroke-linejoin="round" />
    <path opacity="0.15" fill-rule="evenodd" clip-rule="evenodd" d="M24.9816 11.584C24.0499 11.584 23.2476 11.8337 22.5735 12.2839C25.9531 12.8723 28.643 15.672 24.9009 18.6793C30.0241 20.7219 31.3606 27.2441 26.5717 29.3936C32.8086 31.6512 34.5649 38.3518 32.5603 43.4044H37.3164C39.3211 38.3517 35.4512 31.6512 29.2143 29.3936C34.0033 27.2436 32.6663 20.7214 27.543 18.6793C28.6567 17.9268 29.2143 16.8515 29.2143 15.5615C29.2143 14.4865 28.7689 13.5186 27.9892 12.7661C27.0983 12.0136 26.0952 11.584 24.9816 11.584V11.584Z" fill="black" />
  </g>
  <g id="wq" fill="none" transform="scale(0.8 0.8)">
    <path fill-rule="evenodd" clip-rule="evenodd" d="M19.3145 7.61436C17.3103 7.61409 15.6851 9.28255 15.6851 11.3408C15.6851 12.8782 16.6077 14.2567 18.0039 14.8118L17.4391 24.9577L12.3406 18.7684C12.6323 18.2202 12.7851 17.6055 12.7851 16.9808C12.7851 14.9225 11.1604 13.2538 9.15625 13.2538C7.15178 13.2537 5.52685 14.9225 5.52713 16.9808C5.52713 19.0389 7.15206 20.7073 9.15625 20.7072L12.7812 32.3663L15.1305 36.1771V41.6736C15.1305 42.6028 20.0826 43.3592 24.999 43.3866C29.9158 43.359 34.8676 42.6028 34.8676 41.6736V36.1771L37.2165 32.3663L40.8418 20.7072C42.846 20.7073 44.4709 19.0389 44.4709 16.9808C44.4709 14.9224 42.8462 13.2537 40.8418 13.2538C38.8376 13.2539 37.2126 14.9225 37.2129 16.9808C37.2129 17.6055 37.3657 18.2202 37.6574 18.7684L32.5586 24.9577L31.9938 14.8118C33.39 14.2567 34.3109 12.8782 34.3126 11.3408C34.3126 9.28265 32.6877 7.61427 30.6835 7.61436C28.6793 7.61442 27.0546 9.28275 27.0546 11.3408C27.0546 12.2909 27.4113 13.2045 28.047 13.8947L24.9985 23.4659L21.95 13.8947C22.5857 13.2044 22.9407 12.2909 22.9424 11.3408C22.9424 9.28275 21.3177 7.61436 19.3135 7.61436H19.3145Z" fill="#FFF5FD" stroke="#3A3A3A" stroke-width="1.20003" stroke-linejoin="round" />
    <path fill-rule="evenodd" clip-rule="evenodd" d="M33.0175 37.979C31.0238 37.1178 28.3641 36.6831 25.0497 36.6831C21.7071 36.6831 19.0198 37.1261 16.9823 38.0056L16.9822 40.5805C19.0315 39.7452 21.8789 39.327 25.0496 39.327C28.2033 39.327 31.035 39.7359 33.0174 40.5539L33.0175 37.979Z" fill="#519259" />
    <path fill-rule="evenodd" clip-rule="evenodd" d="M25.002 29.3778C21.2822 29.4352 17.5571 30.1389 14.9969 31.3543L16.6245 33.8778C18.5456 32.9042 22.0968 32.4337 25.0019 32.434C27.9069 32.4337 31.4583 32.9042 33.3794 33.8778L35.0064 31.3543C32.4463 30.1388 28.7216 29.4345 25.0021 29.3778H25.002Z" fill="#519259" />
    <path opacity="0.15" fill-rule="evenodd" clip-rule="evenodd" d="M40.8425 13.2529C40.1169 13.2529 39.4424 13.4738 38.8754 13.8506C44.1996 14.912 42.4969 19.6913 39.1971 20.1645L33.2831 32.3653L30.9342 36.1759V41.6727C30.9342 42.4772 27.2203 43.1509 23.0323 43.3353C23.681 43.3639 24.3399 43.3815 24.9994 43.3852C29.9162 43.3577 34.8689 42.6019 34.8689 41.6727V36.1759L37.2178 32.3654L40.843 20.7063C42.8472 20.7064 44.4722 19.038 44.4722 16.9798C44.4722 14.9214 42.8475 13.2527 40.843 13.2528L40.8425 13.2529Z" fill="black" />
  </g>
  <g id="wr" fill="none" transform="scale(0.8 0.8)">
    <path fill-rule="evenodd" clip-rule="evenodd" d="M12.38 9.548V17.2813L17.2129 21.2988V31.5028L10.6249 38.468V43.4H39.3699V38.468L32.7825 31.5028V21.2988L37.6154 17.2813V9.548H32.3161V12.6491H28.3241V9.548H21.6707V12.6491H17.6787V9.548H12.38Z" fill="#FFF5FD" stroke="#3A3A3A" stroke-width="1.2" />
    <path fill-rule="evenodd" clip-rule="evenodd" d="M25 16.455H16.2504L19.5569 18.955H30.5609L33.7496 16.455H25Z" fill="#519259" />
    <path opacity="0.15" fill-rule="evenodd" clip-rule="evenodd" d="M34.04 9.548V17.2812L29.2074 21.2986V31.5026L35.7947 38.4679V43.3998H39.3675V38.4679L32.7797 31.5026V21.2986L37.6128 17.2812V9.548H34.04Z" fill="black" />
    <path fill-rule="evenodd" clip-rule="evenodd" d="M25 38.742H14.973L17.7493 36.242H32.3853L35.0275 38.742H25Z" fill="#519259" />
    <path fill-rule="evenodd" clip-rule="evenodd" d="M25.06 34.652H18.2714L20.0336 32.452H30.1796L31.8489 34.652H25.06Z" fill="#519259" />
    <path fill-rule="evenodd" clip-rule="evenodd" d="M25.06 20.543H20.0872L21.8325 22.743H28.3575L30.0329 20.543H25.06Z" fill="#519259" />
  </g>
</svg>