<svg xmlns="http://www.w3.org/2000/svg" width="40" height="40" viewbox="0.0 0.0 180.0 180.0">
  <g id="bb" fill="none" transform="scale(0.2222222222222222 0.2222222222222222)">
    <path d="M138.655 161.431H43.6055L66.7316 111.96L22.5 35.2469C35.2731 39.2384 47.3227 45.126 58.6485 52.9096C63.3887 56.3023 67.5551 59.6453 71.1473 62.9387C76.3363 52.4107 83.0222 42.6811 91.2049 33.75C99.288 42.8308 105.949 52.5603 111.188 62.9387C115.18 59.346 119.371 56.0031 123.761 52.9096C134.938 45.126 146.963 39.2384 159.835 35.2469L115.604 111.96L138.655 161.431ZM99.288 87.3371C99.288 92.9751 101.708 95.7943 106.548 95.7943C111.338 95.7943 113.732 92.9751 113.732 87.3371C113.732 81.6986 111.338 78.8799 106.548 78.8799C101.708 78.8799 99.288 81.6986 99.288 87.3371ZM68.6031 87.3371C68.6031 92.9751 71.0229 95.7943 75.8627 95.7943C80.7024 95.7943 83.1223 92.9751 83.1223 87.3371C83.1223 81.6986 80.7024 78.8799 75.8627 78.8799C71.0229 78.8799 68.6031 81.6986 68.6031 87.3371ZM93.9741 114.131V83.8941C93.9741 82.0479 93.051 81.1249 91.2049 81.1249C89.3587 81.1249 88.4357 82.0479 88.4357 83.8941V114.131L83.8704 110.388C82.4738 109.291 81.2261 109.291 80.1287 110.388C78.8811 111.636 78.8811 112.883 80.1287 114.131L89.1844 123.186C89.6833 123.885 90.3566 124.234 91.2049 124.234C91.9536 124.234 92.6522 123.885 93.3007 123.186L102.356 114.131C103.604 112.883 103.604 111.636 102.356 110.388C101.209 109.291 99.9619 109.291 98.6147 110.388L93.9741 114.131ZM114.631 121.241L111.787 115.403L91.2049 149.456L70.6236 115.403L67.7047 121.166L86.8641 152.824C88.2113 155.269 89.6586 156.491 91.2049 156.491C92.7517 156.491 94.1991 155.269 95.5457 152.824L114.631 121.241ZM131.545 72.8179C118.373 68.7263 104.926 66.6804 91.2049 66.6804C77.2346 66.6804 63.8128 68.7263 50.9401 72.8179L53.7841 77.5327C66.0083 73.8405 78.4817 71.9944 91.2049 71.9944C104.078 71.9944 116.602 73.8652 128.776 77.6076L131.545 72.8179Z" fill="#222831" />
    <path d="M99.288 87.3371C99.288 92.9751 101.708 95.7943 106.548 95.7943C111.338 95.7943 113.733 92.9751 113.733 87.3371C113.733 81.6992 111.338 78.8799 106.548 78.8799C101.708 78.8799 99.288 81.6992 99.288 87.3371ZM68.6031 87.3371C68.6031 92.9751 71.023 95.7943 75.8627 95.7943C80.7025 95.7943 83.1223 92.9751 83.1223 87.3371C83.1223 81.6992 80.7025 78.8799 75.8627 78.8799C71.023 78.8799 68.6031 81.6992 68.6031 87.3371ZM93.9746 114.131V83.8946C93.9746 82.0485 93.0516 81.1254 91.2055 81.1254C89.3593 81.1254 88.4363 82.0485 88.4363 83.8946V114.131L83.871 110.388C82.4738 109.291 81.2261 109.291 80.1287 110.388C78.8811 111.636 78.8811 112.883 80.1287 114.131L89.1844 123.186C89.6833 123.885 90.3572 124.234 91.2055 124.234C91.9536 124.234 92.6522 123.885 93.3008 123.186L102.357 114.131C103.604 112.883 103.604 111.636 102.357 110.388C101.209 109.291 99.9619 109.291 98.6147 110.388L93.9746 114.131ZM114.631 121.241L111.787 115.403L91.2055 149.456L70.6236 115.403L67.7048 121.166L86.8646 152.824C88.2118 155.269 89.6586 156.491 91.2055 156.491C92.7518 156.491 94.1991 155.269 95.5463 152.824L114.631 121.241ZM131.545 72.8179C118.373 68.7263 104.927 66.6804 91.2055 66.6804C77.2346 66.6804 63.8128 68.7263 50.9402 72.8179L53.7842 77.5328C66.0083 73.8405 78.4823 71.9944 91.2055 71.9944C104.078 71.9944 116.602 73.8653 128.776 77.6076L131.545 72.8179Z" fill="#F58634" />
  </g>
  <g id="bk" fill="none" transform="scale(0.2222222222222222 0.2222222222222222)">
    <path fill-rule="evenodd" clip-rule="evenodd" d="M87.6364 164.209H31.5045L49.0176 136.218L23.0474 39.073C22.2491 36.229 22.3239 34.5076 23.2719 33.9088C24.1701 33.4099 25.8914 34.2831 28.4361 36.5284L77.5327 85.6249V62.1242H64.7347V44.2371H77.5327V36.5284H87.6364H97.74V44.2371H110.538V62.1242H97.74V85.6249L146.986 36.5284C149.431 34.2332 151.152 33.36 152.15 33.9088C152.998 34.5575 152.998 36.3038 152.15 39.1478L126.255 136.218L143.768 164.209H87.6364ZM78.2061 110.697C71.6197 111.894 65.583 113.716 60.0941 116.16L51.712 84.2777L78.2061 110.697ZM51.6371 129.856C62.2147 121.574 74.2146 117.433 87.6364 117.433C101.008 117.433 113.008 121.574 123.635 129.856L122.138 135.47C112.16 127.037 100.659 122.821 87.6364 122.821C74.4637 122.821 62.9634 127.037 53.134 135.47L51.6371 129.856ZM69.6741 141.232H87.6364H105.598H123.56C124.059 142.131 124.558 143.004 125.057 143.852C125.556 144.65 126.08 145.474 126.629 146.322H107.095H87.6364H68.0276H48.5686C49.0675 145.474 49.5665 144.65 50.0654 143.852C50.6143 143.004 51.1631 142.131 51.712 141.232H69.6741ZM123.635 84.2777L115.178 116.16C109.49 113.665 103.503 111.845 97.2157 110.697L123.635 84.2777Z" fill="#222831" />
    <path fill-rule="evenodd" clip-rule="evenodd" d="M51.6374 129.857C62.2153 121.574 74.2146 117.433 87.6364 117.433C101.008 117.433 113.008 121.574 123.636 129.857L122.138 135.47C112.16 127.037 100.659 122.821 87.6364 122.821C74.4643 122.821 62.9634 127.037 53.1342 135.47L51.6374 129.857ZM69.6741 141.233H87.6364H105.599H123.56C124.059 142.131 124.559 143.004 125.058 143.852C125.557 144.65 126.08 145.474 126.629 146.322H107.095H87.6364H68.0276H48.5688C49.0678 145.474 49.5667 144.65 50.0657 143.852C50.6145 143.004 51.1634 142.131 51.7122 141.233H69.6741Z" fill="#F58634" />
  </g>
  <g id="bn" fill="none" transform="scale(0.2222222222222222 0.2222222222222222)">
    <path d="M50.8889 157.614C57.924 143.843 66.8053 132.866 77.5327 124.683C82.6217 120.791 86.5389 115.877 89.2828 109.939C84.7924 111.985 80.0775 113.133 75.1376 113.382C66.9549 113.931 60.6684 117.424 56.2776 123.86L33.75 102.829L91.1537 33.75C93.3491 36.1948 95.7443 38.3653 98.3391 40.2613C100.933 42.1573 103.204 44.5522 105.149 47.4461L114.131 40.1116C116.126 38.3653 117.623 37.7665 118.621 38.3154C119.569 38.964 119.644 40.5606 118.846 43.1053L115.777 52.6102C124.259 63.2379 131.244 75.3373 136.733 88.9087C141.423 100.684 144.541 112.285 146.088 123.71C147.685 135.086 147.809 145.49 146.462 154.919C135.386 159.11 123.885 161.905 111.96 163.302C100.584 164.699 89.6822 164.873 79.254 163.826C68.8258 162.778 59.3708 160.707 50.8889 157.614ZM117.798 152.375C120.492 143.144 121.615 132.666 121.166 120.941C120.716 109.166 118.496 97.0667 114.505 84.6427C112.06 77.0085 109.166 70.0487 105.823 63.7616C102.48 57.4251 98.7626 51.4876 94.6716 45.9493C92.5262 42.8558 90.6547 41.833 89.0584 42.8807C87.7112 43.7789 87.8608 45.4753 89.5073 47.97C93.2996 53.2588 96.7669 58.9219 99.9107 64.9592C103.054 70.9464 105.773 77.508 108.068 84.6427C111.96 96.7669 114.155 108.567 114.654 120.043C115.203 131.469 114.23 141.747 111.736 150.878C110.638 154.67 111.087 156.84 113.083 157.389C114.979 157.838 116.551 156.167 117.798 152.375ZM84.7176 68.9259C82.2229 66.7806 79.7777 65.3085 77.3831 64.5103C75.0381 63.7116 73.4164 63.8364 72.5181 64.8844C71.5703 65.9323 71.6451 67.6035 72.7425 69.8985C73.8906 72.144 75.7114 74.3147 78.2061 76.41C80.6513 78.5554 83.0458 80.0274 85.3909 80.8256C87.786 81.6238 89.4324 81.4995 90.3307 80.4516C91.2291 79.4537 91.1289 77.832 90.0315 75.5865C88.9335 73.3416 87.1622 71.1214 84.7176 68.9259ZM134.188 103.877C135.934 103.977 136.808 103.103 136.808 101.258C136.808 100.01 136.184 99.162 134.936 98.7131C133.29 97.9644 131.593 97.3907 129.847 96.9919C128.051 96.5925 126.23 96.3427 124.384 96.2432C122.687 96.1931 121.839 97.0414 121.839 98.7879C121.839 100.534 122.712 101.407 124.459 101.407C125.008 101.457 126.404 101.707 128.65 102.156C130.546 102.605 132.392 103.179 134.188 103.877ZM137.481 124.459C137.881 124.658 138.255 124.758 138.604 124.758C140.3 124.758 141.149 123.885 141.149 122.138C141.149 121.091 140.674 120.318 139.727 119.819C138.13 118.87 136.284 118.047 134.188 117.349C132.092 116.65 129.922 116.176 127.677 115.927C125.931 115.927 125.057 116.8 125.057 118.546C125.057 120.292 125.905 121.166 127.602 121.166C129.448 121.565 131.095 121.989 132.542 122.438C134.138 122.937 135.785 123.61 137.481 124.459ZM139.652 144.292C139.801 144.391 140.026 144.442 140.325 144.442C142.022 144.442 142.87 143.569 142.87 141.822C142.87 141.024 142.521 140.35 141.822 139.801C139.776 138.255 137.656 137.007 135.461 136.059C132.766 134.962 130.346 134.288 128.201 134.039C126.505 134.039 125.656 134.887 125.656 136.583C125.656 137.831 126.205 138.653 127.303 139.053C129.349 139.452 131.369 140.075 133.365 140.924C135.71 141.972 137.806 143.094 139.652 144.292ZM125.881 83.8941C127.527 83.8941 128.351 83.0211 128.351 81.2751C128.351 80.0274 127.752 79.1792 126.554 78.7303C125.507 78.4806 124.633 78.2809 123.935 78.1313C121.889 77.8821 120.143 77.7819 118.696 77.832C117.598 78.2809 117.049 79.1044 117.049 80.3019C117.049 82.0479 117.798 82.9462 119.294 82.9963C120.642 82.9963 121.939 83.1206 123.186 83.3704C123.785 83.52 124.683 83.6949 125.881 83.8941ZM117.872 69.1504C118.97 68.6514 119.519 67.8533 119.519 66.7553C119.519 65.0093 118.671 64.1357 116.975 64.1357C116.625 64.1357 116.401 64.1357 116.301 64.1357C116.201 64.1357 116.002 64.1109 115.702 64.0609C114.904 64.0114 113.656 64.0361 111.96 64.1357C110.912 64.5851 110.388 65.3833 110.388 66.5308C110.388 68.0777 111.187 68.8511 112.783 68.8511C113.781 68.8511 114.529 68.8759 115.028 68.9259C115.927 68.9259 116.875 69.0007 117.872 69.1504Z" fill="#222831" />
    <path d="M117.798 152.375C120.492 143.144 121.615 132.666 121.165 120.941C120.716 109.166 118.496 97.0667 114.505 84.6427C112.06 77.0091 109.166 70.0487 105.823 63.7616C102.48 57.4251 98.7626 51.4876 94.6715 45.9493C92.5261 42.8558 90.6547 41.833 89.0583 42.8808C87.7111 43.7789 87.8608 45.4753 89.5072 47.97C93.299 53.2588 96.7668 58.9219 99.9101 64.9592C103.054 70.9464 105.773 77.508 108.068 84.6427C111.96 96.7669 114.155 108.567 114.654 120.043C115.203 131.469 114.23 141.747 111.736 150.878C110.638 154.67 111.087 156.84 113.083 157.389C114.978 157.838 116.551 156.167 117.798 152.375ZM84.7175 68.9259C82.2228 66.7806 79.7776 65.3085 77.3831 64.5103C75.038 63.7116 73.4163 63.8364 72.518 64.8844C71.5702 65.9323 71.645 67.6035 72.7425 69.8991C73.89 72.144 75.7113 74.3147 78.206 76.41C80.6512 78.5554 83.0458 80.0274 85.3908 80.8256C87.786 81.6238 89.4324 81.4995 90.3307 80.4516C91.2285 79.4537 91.1289 77.832 90.0309 75.5871C88.9335 73.3416 87.1621 71.1214 84.7175 68.9259ZM134.188 103.877C135.934 103.977 136.807 103.103 136.807 101.258C136.807 100.01 136.184 99.162 134.936 98.7131C133.29 97.9644 131.593 97.3907 129.847 96.9919C128.051 96.5925 126.23 96.3427 124.384 96.2432C122.687 96.1931 121.839 97.0414 121.839 98.7879C121.839 100.534 122.712 101.407 124.459 101.407C125.007 101.457 126.404 101.707 128.65 102.156C130.546 102.605 132.392 103.179 134.188 103.877ZM137.481 124.459C137.881 124.658 138.255 124.758 138.604 124.758C140.3 124.758 141.149 123.885 141.149 122.138C141.149 121.091 140.674 120.318 139.727 119.819C138.13 118.87 136.284 118.047 134.188 117.349C132.092 116.65 129.922 116.176 127.677 115.927C125.93 115.927 125.057 116.8 125.057 118.546C125.057 120.292 125.905 121.166 127.602 121.166C129.448 121.565 131.095 121.989 132.541 122.438C134.138 122.937 135.785 123.61 137.481 124.459ZM139.651 144.292C139.801 144.391 140.026 144.442 140.325 144.442C142.022 144.442 142.87 143.569 142.87 141.822C142.87 141.024 142.521 140.35 141.822 139.801C139.776 138.255 137.656 137.007 135.461 136.059C132.766 134.962 130.346 134.288 128.2 134.039C126.505 134.039 125.656 134.887 125.656 136.583C125.656 137.83 126.205 138.654 127.303 139.053C129.349 139.452 131.369 140.076 133.365 140.924C135.71 141.972 137.806 143.094 139.651 144.292ZM125.881 83.8941C127.527 83.8941 128.351 83.0211 128.351 81.2751C128.351 80.0274 127.752 79.1792 126.554 78.7303C125.507 78.4806 124.633 78.2809 123.934 78.1312C121.889 77.8821 120.143 77.7819 118.696 77.832C117.598 78.2809 117.049 79.1044 117.049 80.3019C117.049 82.0479 117.798 82.9462 119.294 82.9963C120.642 82.9963 121.939 83.1206 123.186 83.3704C123.785 83.52 124.683 83.6949 125.881 83.8941ZM117.872 69.1504C118.97 68.6514 119.519 67.8532 119.519 66.7552C119.519 65.0092 118.671 64.1357 116.974 64.1357C116.625 64.1357 116.4 64.1357 116.301 64.1357C116.201 64.1357 116.002 64.1109 115.702 64.0609C114.904 64.0114 113.656 64.0361 111.96 64.1357C110.912 64.5851 110.388 65.3833 110.388 66.5308C110.388 68.0777 111.187 68.8511 112.783 68.8511C113.781 68.8511 114.529 68.8759 115.028 68.9259C115.927 68.9259 116.875 69.0007 117.872 69.1504Z" fill="#F58634" />
  </g>
  <g id="bp" fill="none" transform="scale(0.2222222222222222 0.2222222222222222)">
    <path d="M90.0124 134.763H142.949C144.673 134.712 145.712 135.015 146.067 135.673C146.371 136.33 146.296 137.113 145.839 138.023L133.974 163.125H46.0503L34.2612 138.023C33.7035 137.113 33.6021 136.33 33.957 135.673C34.3627 135.015 35.4022 134.712 37.0754 134.763H90.0124ZM90.0124 85.6974C82.8118 85.6974 76.6513 83.1696 71.5297 78.1138C66.4594 73.0074 63.9242 66.8649 63.9242 59.6857C63.9242 52.5571 66.4594 46.465 71.5297 41.4093C76.6513 36.3031 82.8118 33.75 90.0124 33.75C97.1617 33.75 103.297 36.3031 108.418 41.4093C113.539 46.465 116.101 52.5571 116.101 59.6857C116.101 66.8649 113.539 73.0074 108.418 78.1138C103.297 83.1696 97.1617 85.6974 90.0124 85.6974ZM120.968 129.53H58.752C68.6902 117.801 75.105 104.454 77.9951 89.4887C81.7982 91.0564 85.8037 91.8399 90.0124 91.8399C94.0179 91.8399 98.0235 91.0311 102.03 89.4133C104.869 104.681 111.182 118.054 120.968 129.53Z" fill="#222831" />
  </g>
  <g id="bq" fill="none" transform="scale(0.2222222222222222 0.2222222222222222)">
    <path d="M134.078 141.834C119.509 147.522 104.39 150.366 88.7237 150.366C73.0069 150.366 57.8885 147.522 43.3692 141.834L44.0428 147.821C58.5624 153.11 73.4557 155.755 88.7237 155.755C103.891 155.755 118.76 153.11 133.329 147.821L134.078 141.834ZM136.997 121.402L137.745 115.04C122.278 123.622 105.937 127.913 88.7237 127.913C71.51 127.913 55.1694 123.647 39.702 115.115L40.4504 121.477C55.7182 129.31 71.8093 133.227 88.7237 133.227C105.638 133.227 121.729 129.286 136.997 121.402ZM28.6253 64.7466C27.6773 56.8131 28.0765 52.5722 29.8228 52.0233C31.7687 51.4745 34.937 55.7405 39.3277 64.8214L64.5497 119.007L84.308 45.6617C85.6052 41.4706 87.0772 39.375 88.7237 39.375C90.32 39.375 91.7921 41.4706 93.1393 45.6617L112.823 119.082L138.12 64.7466C142.51 55.6656 145.729 51.3996 147.774 51.9485C149.47 52.4973 149.845 56.7883 148.897 64.8214L138.045 152.985C122.078 158.973 105.638 161.966 88.7237 161.966C71.5595 161.966 55.1195 158.973 39.4026 152.985L28.6253 64.7466Z" fill="#222831" />
    <path d="M134.078 141.834C119.509 147.522 104.391 150.366 88.7237 150.366C73.0069 150.366 57.8886 147.522 43.3695 141.834L44.043 147.821C58.5624 153.11 73.4558 155.755 88.7237 155.755C103.892 155.755 118.761 153.11 133.33 147.821L134.078 141.834ZM136.997 121.402L137.746 115.04C122.278 123.622 105.937 127.913 88.7237 127.913C71.5101 127.913 55.1696 123.647 39.7022 115.115L40.4506 121.477C55.7184 129.31 71.8093 133.227 88.7237 133.227C105.638 133.227 121.729 129.286 136.997 121.402Z" fill="#F58634" />
  </g>
  <g id="br" fill="none" transform="scale(0.2222222222222222 0.2222222222222222)">
    <path d="M43.2431 136.445L63.675 80.2389H47.2846L28.125 39.375H53.5713L60.6814 54.568H77.9698V39.375H100.946V54.568H118.16L125.27 39.375H150.716L131.557 80.2389H115.166L135.598 136.445H144.804C146.101 136.445 146.9 136.745 147.199 137.343C147.349 137.842 147.224 138.391 146.825 138.99L136.122 161.966H89.4206H42.5696L31.7923 138.99C31.3432 138.491 31.2434 137.917 31.4929 137.269C31.7923 136.67 32.6405 136.396 34.0375 136.445H43.2431ZM72.8055 100.671H106.036V116.013H72.8055V100.671ZM89.4206 75.1494H68.9889V80.2389H86.8759V95.5817H63.5254L61.6545 100.671H67.7166V116.013H56.0411L54.1701 121.103H86.8759V136.445H48.5569V141.535H130.285V136.445H91.9654V121.103H124.671L122.875 116.013H111.125V100.671H117.187L115.316 95.5817H91.9654V80.2389H109.853V75.1494H89.4206Z" fill="#222831" />
    <path d="M72.8055 100.671H106.036V116.013H72.8055V100.671ZM89.4206 75.1494H68.989V80.2389H86.8759V95.5811H63.5254L61.654 100.671H67.7166V116.013H56.041L54.17 121.102H86.8759V136.445H48.5568V141.535H130.285V136.445H91.9654V121.102H124.671L122.875 116.013H111.125V100.671H117.187L115.316 95.5811H91.9654V80.2389H109.852V75.1494H89.4206Z" fill="#F58634" />
  </g>
  <g id="wb" fill="none" transform="scale(0.2222222222222222 0.2222222222222222)">
    <path d="M138.655 161.431H43.6055L66.7316 111.96L22.5 35.2469C35.2731 39.2384 47.3227 45.126 58.6485 52.9096C63.3887 56.3023 67.5551 59.6453 71.1473 62.9387C76.3363 52.4107 83.0222 42.6811 91.2049 33.75C99.288 42.8308 105.949 52.5603 111.188 62.9387C115.18 59.346 119.371 56.0031 123.761 52.9096C134.938 45.126 146.963 39.2384 159.835 35.2469L115.604 111.96L138.655 161.431ZM130.796 156.416L112.535 117.274L95.0968 147.435C93.8992 149.73 92.6021 150.878 91.2049 150.878C89.8082 150.878 88.4857 149.73 87.2387 147.435L69.8749 117.274L51.5388 156.416H130.796ZM131.994 73.4912L148.534 44.8266C140.701 48.2694 133.391 52.3608 126.605 57.1005C121.816 60.4935 117.075 64.3607 112.385 68.7015C118.822 69.7489 125.358 71.3458 131.994 73.4912ZM129.449 77.9816C117.075 73.9901 104.327 71.9944 91.2049 71.9944C78.0328 71.9944 65.3096 73.9901 53.0356 77.9816L91.2049 144.217L129.449 77.9816ZM50.4161 73.4912C56.9025 71.3458 63.414 69.7489 69.9497 68.7015C65.2101 64.3607 60.4699 60.4935 55.7299 57.1005C49.044 52.4606 41.7594 48.3692 33.876 44.8266L50.4161 73.4912ZM108.194 68.1024C103.554 58.5225 97.8907 49.6914 91.2049 41.6084C84.3694 49.6415 78.7067 58.473 74.2157 68.1024C79.5549 67.3042 85.2176 66.9049 91.2049 66.9049C97.1426 66.9049 102.806 67.3042 108.194 68.1024ZM98.9139 87.3371C98.9139 84.942 99.6621 82.8714 101.159 81.1249C102.656 79.3288 104.452 78.4311 106.548 78.4311C108.643 78.4311 110.44 79.3288 111.936 81.1249C113.433 82.8714 114.182 84.942 114.182 87.3371C114.182 93.2743 111.637 96.2432 106.548 96.2432C101.459 96.2432 98.9139 93.2743 98.9139 87.3371ZM104.003 87.3371C104.003 89.9314 104.851 91.2291 106.548 91.2291C108.244 91.2291 109.092 89.9314 109.092 87.3371C109.092 84.7924 108.244 83.52 106.548 83.52C104.851 83.52 104.003 84.7924 104.003 87.3371ZM68.2284 87.3371C68.2284 84.942 68.9771 82.8714 70.4739 81.1249C71.9707 79.3288 73.7668 78.4311 75.8627 78.4311C77.958 78.4311 79.7541 79.3288 81.2509 81.1249C82.7477 82.8714 83.4964 84.942 83.4964 87.3371C83.4964 93.2743 80.9516 96.2432 75.8627 96.2432C70.7732 96.2432 68.2284 93.2743 68.2284 87.3371ZM73.3179 87.3371C73.3179 89.9314 74.1662 91.2291 75.8627 91.2291C77.5586 91.2291 78.4069 89.9314 78.4069 87.3371C78.4069 84.7924 77.5586 83.52 75.8627 83.52C74.1662 83.52 73.3179 84.7924 73.3179 87.3371ZM93.8244 113.606L98.2401 110.014C99.5872 109.016 100.785 109.016 101.833 110.014C103.03 111.212 103.03 112.409 101.833 113.606L93.1511 122.213C92.6021 122.912 91.9536 123.261 91.2049 123.261C90.5068 123.261 89.8577 122.912 89.2592 122.213L80.6524 113.606C79.4548 112.409 79.4548 111.212 80.6524 110.014C81.6502 109.016 82.8478 109.016 84.2451 110.014L88.5111 113.606V84.7924C88.5111 83.0458 89.4088 82.1728 91.2049 82.1728C92.9514 82.1728 93.8244 83.0458 93.8244 84.7924V113.606Z" fill="#222831" />
    <path d="M130.796 156.416L112.535 117.274L95.0968 147.435C93.8992 149.73 92.6021 150.878 91.2049 150.878C89.8076 150.878 88.4857 149.73 87.2381 147.435L69.8749 117.274L51.5385 156.416H130.796ZM131.994 73.4912L148.534 44.8266C140.7 48.2694 133.391 52.3607 126.605 57.1005C121.816 60.4935 117.075 64.3607 112.385 68.7015C118.822 69.7489 125.358 71.3458 131.994 73.4912ZM129.449 77.9816C117.075 73.9901 104.327 71.9944 91.2049 71.9944C78.0328 71.9944 65.3096 73.9901 53.0354 77.9816L91.2049 144.217L129.449 77.9816ZM50.416 73.4912C56.9025 71.3458 63.4134 69.7489 69.9497 68.7015C65.2095 64.3607 60.4699 60.4935 55.7297 57.1005C49.0439 52.4605 41.7592 48.3691 33.8758 44.8266L50.416 73.4912ZM108.194 68.1024C103.554 58.5225 97.8907 49.6914 91.2049 41.6084C84.3694 49.6415 78.7061 58.473 74.2157 68.1024C79.5544 67.3042 85.2176 66.9049 91.2049 66.9049C97.1426 66.9049 102.805 67.3042 108.194 68.1024ZM98.9139 87.3371C98.9139 84.942 99.6621 82.8714 101.159 81.1249C102.656 79.3288 104.452 78.4305 106.548 78.4305C108.643 78.4305 110.44 79.3288 111.936 81.1249C113.433 82.8714 114.181 84.942 114.181 87.3371C114.181 93.2743 111.637 96.2432 106.548 96.2432C101.458 96.2432 98.9139 93.2743 98.9139 87.3371ZM104.003 87.3371C104.003 89.9314 104.851 91.2285 106.548 91.2285C108.244 91.2285 109.092 89.9314 109.092 87.3371C109.092 84.7924 108.244 83.52 106.548 83.52C104.851 83.52 104.003 84.7924 104.003 87.3371ZM68.2284 87.3371C68.2284 84.942 68.9766 82.8714 70.4734 81.1249C71.9707 79.3288 73.7668 78.4305 75.8621 78.4305C77.958 78.4305 79.7541 79.3288 81.2509 81.1249C82.7477 82.8714 83.4964 84.942 83.4964 87.3371C83.4964 93.2743 80.9516 96.2432 75.8621 96.2432C70.7732 96.2432 68.2284 93.2743 68.2284 87.3371ZM73.3174 87.3371C73.3174 89.9314 74.1656 91.2285 75.8621 91.2285C77.5586 91.2285 78.4069 89.9314 78.4069 87.3371C78.4069 84.7924 77.5586 83.52 75.8621 83.52C74.1656 83.52 73.3174 84.7924 73.3174 87.3371ZM93.8244 113.606L98.2401 110.014C99.5872 109.016 100.785 109.016 101.833 110.014C103.03 111.212 103.03 112.409 101.833 113.606L93.1506 122.213C92.6021 122.912 91.9536 123.261 91.2049 123.261C90.5062 123.261 89.8577 122.912 89.2592 122.213L80.6524 113.606C79.4548 112.409 79.4548 111.212 80.6524 110.014C81.6502 109.016 82.8478 109.016 84.2445 110.014L88.5105 113.606V84.7924C88.5105 83.0458 89.4088 82.1728 91.2049 82.1728C92.9514 82.1728 93.8244 83.0458 93.8244 84.7924V113.606Z" fill="#FFD369" />
  </g>
  <g id="wk" fill="none" transform="scale(0.2222222222222222 0.2222222222222222)">
    <path d="M134.637 159.195L123.56 141.232H51.712L40.6353 159.195H134.637ZM118.172 136.218C109.141 129.432 98.9623 126.039 87.6364 126.039C76.2604 126.039 66.0819 129.432 57.1005 136.218H118.172ZM60.0193 112.568C64.9592 110.323 70.1977 108.751 75.7361 107.853L52.7597 84.8762L60.0193 112.568ZM115.253 112.493L122.587 84.951L99.6857 107.853C104.825 108.751 110.014 110.298 115.253 112.493ZM86.9625 111.894C76.2851 111.994 66.2316 114.589 56.8012 119.678L42.9554 67.8122L86.9625 111.894ZM88.3845 111.894L132.392 67.9618L118.546 119.678C109.066 114.589 99.0124 111.994 88.3845 111.894ZM152.15 39.1478L126.255 136.218L143.768 164.209H31.5045L49.0176 136.218L23.0474 39.073C22.2491 36.229 22.3239 34.5076 23.2719 33.9088C24.1701 33.4099 25.8914 34.2831 28.4361 36.5284L77.5327 85.6249V62.1242H64.7347V44.2371H77.5327V36.5284H97.74V44.2371H110.538V62.1242H97.74V85.6249L146.986 36.5284C149.431 34.2332 151.152 33.36 152.15 33.9088C152.998 34.5575 152.998 36.3038 152.15 39.1478ZM92.6505 97.8238V56.8108H105.448V49.3264H92.6505V41.6176H82.5469V49.3264H69.8237V56.8108H82.5469L82.6217 97.8238L29.9329 45.21L53.3585 132.775C63.4371 124.892 74.8631 120.95 87.6364 120.95C100.409 120.95 111.835 124.892 121.914 132.775L145.414 45.1352L92.6505 97.8238Z" fill="#222831" />
    <path d="M134.637 159.195L123.56 141.232H51.7122L40.6356 159.195H134.637ZM118.172 136.218C109.141 129.432 98.9623 126.04 87.6364 126.04C76.2604 126.04 66.0819 129.432 57.1011 136.218H118.172ZM86.9631 111.895C76.2851 111.994 66.2316 114.589 56.8013 119.678L42.9557 67.8122L86.9631 111.895ZM88.3851 111.895L132.392 67.9624L118.546 119.678C109.067 114.589 99.0124 111.994 88.3851 111.895ZM92.6511 97.8244V56.8108H105.449V49.3264H92.6511V41.6177H82.5474V49.3264H69.8243V56.8108H82.5474L82.6223 97.8244L29.9331 45.2101L53.3587 132.775C63.4376 124.892 74.8631 120.95 87.6364 120.95C100.41 120.95 111.835 124.892 121.914 132.775L145.415 45.1352L92.6511 97.8244Z" fill="#FFD369" />
  </g>
  <g id="wn" fill="none" transform="scale(0.2222222222222222 0.2222222222222222)">
    <path d="M50.8889 157.614C57.924 143.843 66.8053 132.866 77.5327 124.683C82.6217 120.791 86.5389 115.877 89.2828 109.939C84.7924 111.985 80.0775 113.133 75.1376 113.382C66.9549 113.931 60.6684 117.424 56.2776 123.86L33.75 102.829L91.1537 33.75C93.3491 36.1948 95.7443 38.3653 98.3391 40.2613C100.933 42.1573 103.204 44.5522 105.149 47.4461L114.131 40.1116C116.126 38.3653 117.623 37.7665 118.621 38.3154C119.569 38.964 119.644 40.5606 118.846 43.1053L115.777 52.6102C124.259 63.2379 131.244 75.3373 136.733 88.9087C141.423 100.684 144.541 112.285 146.088 123.71C147.685 135.086 147.809 145.49 146.462 154.919C135.386 159.11 123.885 161.905 111.96 163.302C100.584 164.699 89.6822 164.873 79.254 163.826C68.8258 162.778 59.3708 160.707 50.8889 157.614ZM57.7744 154.695C73.7904 159.435 91.6526 160.633 111.361 158.287C112.01 158.237 112.683 158.163 113.382 158.063C114.081 157.913 114.779 157.789 115.478 157.688C118.92 148.408 120.592 137.356 120.492 124.534C120.392 111.711 118.247 98.3886 114.056 84.5679C111.361 75.8362 108.093 67.9776 104.251 60.9924C100.459 53.9574 96.2432 47.4711 91.6031 41.5336L74.7636 61.7411C78.5059 61.0926 82.4721 62.2896 86.6633 65.3333C89.8071 67.6288 91.9772 70.2979 93.1747 73.3416C94.3723 76.3852 94.2474 78.8799 92.8007 80.8256C91.3534 82.8714 89.0083 83.7945 85.7655 83.5948C82.5221 83.3456 79.3288 82.0733 76.1856 79.7777C71.6451 76.6344 69.2252 72.9675 68.9259 68.7763L40.86 102.53L55.8285 116.6C61.1173 111.611 67.4539 108.841 74.8384 108.293C84.3182 107.844 92.2269 104.027 98.5635 96.8417C100.41 94.4471 102.006 93.7485 103.353 94.7464C104.601 95.8438 104.326 97.5403 102.53 99.8359C100.484 102.23 98.1889 104.376 95.6447 106.272C92.9503 115.153 87.8608 122.463 80.3767 128.201C71.5455 134.986 64.0114 143.818 57.7744 154.695ZM108.592 58.2981L111.511 49.3172L106.197 53.9574C106.946 55.4542 107.744 56.9014 108.592 58.2981ZM119.07 65.7827C117.124 62.7885 115.403 60.3191 113.906 58.3729L111.885 64.6599C112.035 65.2584 112.21 65.6325 112.409 65.7827C113.707 65.6325 115.353 65.583 117.349 65.6331C117.698 65.6331 118.272 65.6826 119.07 65.7827ZM126.554 78.5807C124.758 75.2873 123.386 72.8179 122.438 71.1709C121.191 70.9217 119.245 70.6719 116.6 70.4227C115.103 70.4227 114.355 70.4227 114.355 70.4227C115.503 73.2667 116.45 75.7614 117.199 77.9068C119.344 77.7572 121.59 77.832 123.935 78.1313C125.132 78.3309 126.006 78.4806 126.554 78.5807ZM134.936 98.6383C133.789 95.3949 132.816 92.8007 132.018 90.8544C131.519 89.5573 130.72 87.6116 129.623 85.0168C127.727 84.3182 125.581 83.7697 123.186 83.3704C121.191 83.1707 119.769 83.0711 118.92 83.0711C120.417 88.3597 121.54 92.7506 122.288 96.2432C124.484 96.1436 127.003 96.3928 129.847 96.9919C131.843 97.4908 133.54 98.0392 134.936 98.6383ZM140.55 120.342C139.701 115.453 138.579 110.563 137.182 105.673C135.236 104.276 132.392 103.104 128.65 102.156C126.754 101.707 125.008 101.482 123.411 101.482C124.209 106.871 124.783 111.661 125.132 115.852C128.176 115.852 131.195 116.351 134.188 117.349C136.583 118.147 138.704 119.145 140.55 120.342ZM125.132 133.814C128.575 133.814 132.018 134.562 135.461 136.059C138.055 137.157 140.4 138.604 142.496 140.4C142.396 136.259 142.096 131.943 141.598 127.452C140.001 125.606 136.982 123.935 132.542 122.438C129.698 121.59 127.327 121.116 125.432 121.016C125.481 125.756 125.382 130.022 125.132 133.814ZM83.6696 69.7489C78.8799 66.2563 75.7367 65.5082 74.2399 67.5039C73.6408 68.3522 73.8157 69.5993 74.7636 71.2457C75.7614 72.8426 77.283 74.3394 79.3288 75.7367C81.2745 77.2335 83.1459 78.2061 84.942 78.6555C86.7881 79.1044 88.0104 78.8799 88.6095 77.9816C89.208 77.1834 89.0083 75.9859 88.0104 74.3895C87.0626 72.7431 85.6159 71.1962 83.6696 69.7489ZM120.866 156.791C124.309 156.142 127.677 155.393 130.97 154.545C130.771 154.446 129.922 153.947 128.425 153.048C126.03 151.901 124.059 151.103 122.513 150.653C122.114 152.549 121.565 154.595 120.866 156.791ZM123.56 145.639C125.956 146.138 128.425 147.036 130.97 148.333C133.415 149.73 135.461 151.202 137.107 152.749C137.905 152.549 138.703 152.325 139.502 152.075C140.35 151.776 141.198 151.477 142.046 151.177C142.046 150.578 142.072 149.98 142.121 149.381C142.221 148.732 142.296 148.084 142.346 147.435C141.298 145.24 138.305 143.07 133.365 140.924C130.171 139.627 127.303 138.878 124.758 138.679C124.309 141.622 123.91 143.943 123.56 145.639Z" fill="#222831" />
    <path d="M57.7744 154.695C73.7904 159.435 91.6526 160.633 111.361 158.287C112.01 158.237 112.683 158.163 113.382 158.062C114.081 157.913 114.779 157.789 115.477 157.688C118.92 148.408 120.592 137.356 120.492 124.534C120.392 111.71 118.246 98.3886 114.055 84.5679C111.361 75.8362 108.093 67.9775 104.251 60.9924C100.459 53.9572 96.2432 47.4709 91.6031 41.5335L74.7635 61.7411C78.5053 61.092 82.472 62.2896 86.6632 65.3332C89.8065 67.6282 91.9772 70.2979 93.1747 73.3416C94.3723 76.3852 94.2474 78.8799 92.8001 80.8256C91.3534 82.8714 89.0083 83.7945 85.7649 83.5948C82.5221 83.3451 79.3288 82.0732 76.1855 79.7777C71.645 76.6344 69.2252 72.9669 68.9259 68.7757L40.8599 102.53L55.8283 116.6C61.1173 111.611 67.4538 108.841 74.8383 108.292C84.3182 107.844 92.2264 104.026 98.5629 96.8417C100.409 94.4471 102.006 93.7485 103.353 94.7464C104.6 95.8438 104.326 97.5403 102.53 99.8353C100.484 102.23 98.1889 104.376 95.6441 106.272C92.9497 115.153 87.8608 122.463 80.3767 128.2C71.5449 134.986 64.0108 143.818 57.7744 154.695ZM108.592 58.2981L111.511 49.3171L106.197 53.9572C106.945 55.4541 107.744 56.9008 108.592 58.2981ZM119.07 65.7821C117.124 62.7885 115.402 60.3191 113.906 58.3729L111.885 64.6599C112.035 65.2584 112.209 65.6325 112.409 65.7821C113.706 65.6325 115.353 65.583 117.349 65.6325C117.698 65.6325 118.272 65.6826 119.07 65.7821ZM126.554 78.5801C124.758 75.2872 123.386 72.8173 122.438 71.1709C121.191 70.9217 119.244 70.6719 116.6 70.4227C115.103 70.4227 114.355 70.4227 114.355 70.4227C115.503 73.2667 116.45 75.7614 117.199 77.9068C119.344 77.7572 121.589 77.832 123.934 78.1312C125.132 78.3309 126.005 78.4806 126.554 78.5801ZM134.936 98.6383C133.789 95.3949 132.816 92.8001 132.018 90.8544C131.519 89.5573 130.72 87.6111 129.622 85.0168C127.727 84.3182 125.581 83.7692 123.186 83.3704C121.191 83.1707 119.769 83.0711 118.92 83.0711C120.417 88.3597 121.54 92.7506 122.288 96.2432C124.483 96.1436 127.003 96.3928 129.847 96.9913C131.843 97.4902 133.539 98.0392 134.936 98.6383ZM140.55 120.342C139.701 115.453 138.579 110.563 137.182 105.673C135.236 104.276 132.392 103.103 128.65 102.156C126.754 101.707 125.007 101.482 123.411 101.482C124.209 106.87 124.783 111.661 125.132 115.852C128.176 115.852 131.194 116.351 134.188 117.349C136.583 118.147 138.703 119.145 140.55 120.342ZM125.132 133.814C128.575 133.814 132.018 134.562 135.46 136.059C138.055 137.157 140.4 138.604 142.495 140.4C142.396 136.259 142.096 131.943 141.598 127.452C140.001 125.606 136.982 123.934 132.541 122.438C129.697 121.589 127.327 121.116 125.431 121.016C125.481 125.756 125.382 130.022 125.132 133.814ZM83.6696 69.7489C78.8799 66.2563 75.7361 65.5082 74.2393 67.5039C73.6408 68.3522 73.8152 69.5992 74.7635 71.2457C75.7614 72.8426 77.283 74.3394 79.3288 75.7361C81.2745 77.2329 83.1459 78.2061 84.942 78.6549C86.7881 79.1044 88.0104 78.8799 88.6089 77.9816C89.208 77.1834 89.0083 75.9859 88.0104 74.3889C87.0626 72.7425 85.6153 71.1962 83.6696 69.7489ZM120.866 156.791C124.309 156.142 127.677 155.393 130.97 154.545C130.77 154.446 129.922 153.947 128.425 153.048C126.03 151.901 124.059 151.103 122.512 150.653C122.114 152.549 121.565 154.595 120.866 156.791ZM123.56 145.639C125.956 146.138 128.425 147.036 130.97 148.333C133.415 149.73 135.46 151.202 137.107 152.749C137.905 152.549 138.703 152.325 139.502 152.075C140.35 151.776 141.198 151.477 142.046 151.177C142.046 150.578 142.072 149.98 142.121 149.381C142.221 148.732 142.296 148.084 142.346 147.435C141.298 145.24 138.305 143.07 133.365 140.924C130.171 139.627 127.303 138.878 124.758 138.679C124.309 141.622 123.91 143.943 123.56 145.639Z" fill="#FFD369" />
  </g>
  <g id="wp" fill="none" transform="scale(0.2222222222222222 0.2222222222222222)">
    <path d="M60.6724 133.44H117.552C104.929 119.369 97.4447 103.004 95.0996 84.3435C93.204 84.7924 91.2082 85.0168 89.1124 85.0168C87.0666 85.0168 85.0708 84.7924 83.1251 84.3435C80.6304 103.004 73.1458 119.369 60.6724 133.44ZM89.1124 79.7029C94.6507 79.7029 99.4157 77.7324 103.407 73.7904C107.399 69.7989 109.394 64.9839 109.394 59.346C109.394 53.8077 107.399 49.0427 103.407 45.0512C99.4157 41.0596 94.6507 39.0638 89.1124 39.0638C83.4744 39.0638 78.6594 41.0596 74.6679 45.0512C70.7259 49.0427 68.7555 53.8077 68.7555 59.346C68.7555 64.9839 70.7259 69.7989 74.6679 73.7904C78.6594 77.7324 83.4744 79.7029 89.1124 79.7029ZM137.46 138.454H40.6895L48.997 156.416H129.153L137.46 138.454ZM141.203 133.44C142.899 133.39 143.922 133.689 144.271 134.338C144.57 134.986 144.496 135.76 144.047 136.658L132.371 161.431H45.8536L34.2531 136.658C33.7043 135.76 33.6045 134.986 33.9537 134.338C34.3529 133.689 35.3757 133.39 37.0223 133.44H53.7121C67.6327 119.369 75.8154 102.43 78.2601 82.6217C73.8697 80.5764 70.3018 77.4827 67.5579 73.3416C64.8135 69.1504 63.4416 64.485 63.4416 59.346C63.4416 52.3109 65.9362 46.2985 70.9256 41.309C75.9651 36.2697 82.0271 33.75 89.1124 33.75C96.1476 33.75 102.185 36.2697 107.224 41.309C112.264 46.2985 114.783 52.3109 114.783 59.346C114.783 64.485 113.386 69.1504 110.592 73.3416C107.848 77.4827 104.305 80.5764 99.9647 82.6217C101.112 92.5009 103.831 101.782 108.122 110.463C112.413 119.095 117.877 126.754 124.513 133.44H141.203Z" fill="#222831" />
    <path d="M60.6724 133.44H117.552C104.929 119.369 97.4447 103.004 95.0996 84.3429C93.2034 84.7924 91.2077 85.0168 89.1124 85.0168C87.0666 85.0168 85.0708 84.7924 83.1251 84.3429C80.6304 103.004 73.1458 119.369 60.6724 133.44ZM89.1124 79.7029C94.6507 79.7029 99.4157 77.7319 103.407 73.7904C107.399 69.7989 109.394 64.9839 109.394 59.346C109.394 53.8076 107.399 49.0426 103.407 45.0511C99.4157 41.0595 94.6507 39.0637 89.1124 39.0637C83.4744 39.0637 78.6594 41.0595 74.6679 45.0511C70.7259 49.0426 68.7555 53.8076 68.7555 59.346C68.7555 64.9839 70.7259 69.7989 74.6679 73.7904C78.6594 77.7319 83.4744 79.7029 89.1124 79.7029ZM137.46 138.454H40.6894L48.9969 156.416H129.153L137.46 138.454Z" fill="#FFD369" />
  </g>
  <g id="wq" fill="none" transform="scale(0.2222222222222222 0.2222222222222222)">
    <path d="M108.931 124.246L88.7237 48.8051L68.4416 124.171C75.0274 125.518 81.788 126.192 88.7237 126.192C95.4596 126.192 102.195 125.543 108.931 124.246ZM39.702 113.993C46.5375 117.585 53.4729 120.354 60.5081 122.3L33.6397 64.8214L39.702 113.993ZM134.751 137.942L136.922 120.055C121.754 127.539 105.688 131.281 88.7237 131.281C71.7097 131.281 55.6184 127.539 40.4504 120.055L42.6956 137.942C57.4144 143.83 72.7571 146.774 88.7237 146.774C104.69 146.774 120.032 143.83 134.751 137.942ZM134.078 143.705C119.359 149.143 104.241 151.863 88.7237 151.863C73.1565 151.863 58.0382 149.143 43.3692 143.705L44.0428 149.318C58.4623 154.407 73.3562 156.952 88.7237 156.952C103.942 156.952 118.81 154.432 133.329 149.393L134.078 143.705ZM28.6253 64.7466C27.6773 56.8131 28.0765 52.5722 29.8228 52.0233C31.7687 51.4745 34.937 55.7405 39.3277 64.8214L64.5497 119.007L84.308 45.6617C85.6052 41.4706 87.0772 39.375 88.7237 39.375C90.32 39.375 91.7921 41.4706 93.1393 45.6617L112.823 119.082L138.12 64.7466C142.51 55.6656 145.729 51.3996 147.774 51.9485C149.47 52.4973 149.845 56.7883 148.897 64.8214L138.045 152.985C122.078 158.973 105.638 161.966 88.7237 161.966C71.5595 161.966 55.1195 158.973 39.4026 152.985L28.6253 64.7466ZM143.508 67.2165C143.658 66.1686 143.658 65.6449 143.508 65.6449C143.358 65.5948 143.084 66.0437 142.685 66.9915C138.344 76.2221 134.028 85.4527 129.737 94.6834C125.496 103.864 121.23 113.07 116.939 122.3C124.373 120.205 131.284 117.435 137.67 113.993C138.619 106.209 139.591 98.3509 140.589 90.4174C141.637 82.4839 142.61 74.7506 143.508 67.2165Z" fill="#222831" />
    <path d="M108.931 124.246L88.7231 48.805L68.441 124.171C75.0273 125.518 81.788 126.192 88.7231 126.192C95.459 126.192 102.195 125.543 108.931 124.246ZM39.7016 113.992C46.5372 117.585 53.4726 120.354 60.5075 122.3L33.6394 64.8214L39.7016 113.992ZM134.751 137.942L136.921 120.055C121.754 127.539 105.687 131.281 88.7231 131.281C71.7091 131.281 55.618 127.539 40.45 120.055L42.6953 137.942C57.4143 143.83 72.7571 146.773 88.7231 146.773C104.69 146.773 120.032 143.83 134.751 137.942ZM134.077 143.705C119.358 149.144 104.241 151.863 88.7231 151.863C73.1559 151.863 58.0381 149.144 43.3689 143.705L44.0424 149.318C58.4622 154.407 73.3556 156.952 88.7231 156.952C103.941 156.952 118.81 154.432 133.329 149.393L134.077 143.705ZM143.508 67.2159C143.657 66.1686 143.657 65.6443 143.508 65.6443C143.358 65.5943 143.084 66.0437 142.684 66.9915C138.343 76.2221 134.028 85.4528 129.737 94.6834C125.496 103.864 121.23 113.069 116.939 122.3C124.373 120.205 131.284 117.435 137.67 113.992C138.618 106.209 139.591 98.3503 140.589 90.4174C141.637 82.4839 142.609 74.7501 143.508 67.2159Z" fill="#FFD369" />
  </g>
  <g id="wr" fill="none" transform="scale(0.2222222222222222 0.2222222222222222)">
    <path d="M89.4206 141.535H38.6029L45.7877 156.952H89.4206H132.904L140.089 141.535H89.4206ZM89.4206 75.1494H128.488L142.783 44.3894H128.488L121.229 59.8815H95.7825V44.3894H83.0593V59.8815H57.5381L50.3531 44.3894H35.9834L50.3531 75.1494H89.4206ZM86.8759 95.5817V80.2389H68.9889L63.5254 95.5817H86.8759ZM91.9654 95.5817H115.316L109.853 80.2389H91.9654V95.5817ZM72.8055 100.671V116.013H106.036V100.671H72.8055ZM111.125 116.013H122.875L117.187 100.671H111.125V116.013ZM67.7166 116.013V100.671H61.5797L56.0411 116.013H67.7166ZM86.8759 136.445V121.103H54.1701L48.5569 136.445H86.8759ZM91.9654 136.445H130.285L124.671 121.103H91.9654V136.445ZM43.2431 136.445L63.675 80.2389H47.2846L28.125 39.375H53.5713L60.6814 54.568H77.9698V39.375H100.946V54.568H118.16L125.27 39.375H150.716L131.557 80.2389H115.166L135.598 136.445H144.804C146.101 136.445 146.9 136.745 147.199 137.343C147.349 137.842 147.224 138.391 146.825 138.99L136.122 161.966H89.4206H42.5696L31.7923 138.99C31.3432 138.491 31.2434 137.917 31.4929 137.269C31.7923 136.67 32.6405 136.396 34.0375 136.445H43.2431Z" fill="#222831" />
    <path d="M89.4207 141.535H38.603L45.7879 156.952H89.4207H132.904L140.089 141.535H89.4207ZM89.4207 75.1494H128.489L142.783 44.3896H128.489L121.229 59.8821H95.7825V44.3896H83.0593V59.8821H57.5382L50.3532 44.3896H35.9835L50.3532 75.1494H89.4207ZM86.8765 95.5817V80.2389H68.989L63.5254 95.5817H86.8765ZM91.9654 95.5817H115.316L109.853 80.2389H91.9654V95.5817ZM72.8061 100.671V116.013H106.036V100.671H72.8061ZM111.125 116.013H122.875L117.187 100.671H111.125V116.013ZM67.7166 116.013V100.671H61.5797L56.0412 116.013H67.7166ZM86.8765 136.446V121.103H54.1702L48.557 136.446H86.8765ZM91.9654 136.446H130.285L124.671 121.103H91.9654V136.446Z" fill="#FFD369" />
  </g>
</svg>