<svg xmlns="http://www.w3.org/2000/svg" width="40" height="40" viewbox="0.0 0.0 256.0 256.0">
  <g id="bb" fill="none" transform="scale(0.15625 0.15625)">
    <path d="M178.453 196.129C187.647 184.69 192.963 170.354 192.963 155.307C192.963 139.59 181.328 116.638 158.377 87.091C157.633 86.1274 156.499 85.556 155.274 85.515C154.082 85.5724 152.89 85.988 152.081 86.9024C145.819 94.055 136.903 98.1529 127.644 98.1529C118.385 98.1529 109.469 94.0536 103.207 86.9024C102.406 85.9879 101.231 85.5478 100.014 85.515C98.7979 85.556 97.6553 86.1356 96.9117 87.091C95.7936 88.5276 94.8381 89.8739 93.7775 91.2792C103.828 101.803 127.644 128.272 127.644 143.06C127.644 145.314 125.815 147.143 123.561 147.143C121.309 147.141 119.48 145.312 119.48 143.06C119.48 133.499 102.285 112.148 88.8129 97.8996C71.2254 122.28 62.3259 141.559 62.3259 155.307C62.3259 170.355 67.6415 184.692 76.8352 196.132L178.453 196.129ZM127.645 89.9883C141.175 89.9883 152.14 79.0233 152.14 65.4942C152.14 51.965 141.175 41 127.645 41C114.116 41 103.151 51.965 103.151 65.4942C103.151 79.0233 114.116 89.9883 127.645 89.9883ZM180.717 204.296H74.577C58.8185 204.296 46 217.114 46 232.871C46 235.125 47.8289 236.954 50.0814 236.954H205.21C207.464 236.954 209.293 235.125 209.293 232.871C209.293 217.114 196.474 204.296 180.717 204.296V204.296Z" fill="#222831" />
  </g>
  <g id="bk" fill="none" transform="scale(0.15625 0.15625)">
    <path d="M115.646 111.617V196.129H140.14V111.617C136.417 113.406 132.294 114.483 127.893 114.483C123.492 114.483 119.37 113.398 115.646 111.617V111.617ZM117.981 103.64C118.225 103.779 118.47 103.917 118.724 104.048C119.419 104.4 120.128 104.726 120.872 105.004C121.402 105.207 121.949 105.355 122.505 105.51C123.068 105.664 123.615 105.844 124.194 105.951C125.395 106.179 126.627 106.327 127.893 106.327C129.159 106.327 130.392 106.179 131.592 105.951C132.171 105.844 132.718 105.665 133.281 105.51C133.828 105.355 134.383 105.207 134.915 105.004C135.658 104.726 136.359 104.408 137.062 104.048C137.315 103.917 137.559 103.787 137.805 103.64C144.036 100.145 148.314 93.548 148.314 85.9058C148.314 76.0508 141.292 67.8047 131.984 65.9099V57.3299H136.067C138.321 57.3299 140.15 55.501 140.15 53.2471C140.148 50.9931 138.328 49.1643 136.074 49.1643H131.991L131.992 45.0828C131.992 42.8289 130.163 41 127.909 41C125.655 41 123.827 42.8289 123.827 45.0828V49.1643H119.744C117.49 49.1643 115.661 50.9931 115.661 53.2471C115.661 55.501 117.49 57.3299 119.744 57.3299H123.827V65.9109C114.518 67.8054 107.497 76.0515 107.497 85.9069C107.482 93.5477 111.752 100.145 117.981 103.639L117.981 103.64ZM148.304 196.13H176.881C181.135 196.13 185.152 196.995 188.958 198.334C201.197 180.152 221.787 146.106 221.787 122.647C221.787 111.748 217.541 101.501 209.834 93.7849C202.119 86.0702 191.864 81.8247 180.964 81.8247C170.065 81.8247 159.817 86.0702 151.775 94.1537C151.759 94.1701 150.844 94.9451 148.304 95.7953V196.13ZM78.9055 196.13H107.483V95.7525C104.844 94.8381 103.849 93.9646 103.694 93.7856C95.9776 86.0696 85.7236 81.824 74.8227 81.824C63.9235 81.824 53.6758 86.0696 45.9616 93.7772C38.2539 101.492 34 111.739 34 122.647C34 146.103 54.5919 180.152 66.8306 198.334C70.6345 196.996 74.6519 196.129 78.9055 196.129V196.13ZM181.309 204.743C179.862 204.482 178.401 204.295 176.883 204.295H78.9062C77.3876 204.295 75.9265 204.482 74.4805 204.745C60.8295 206.891 50.3292 218.632 50.3292 232.871C50.3292 235.125 52.1581 236.954 54.412 236.954H201.377C203.631 236.954 205.46 235.125 205.46 232.871C205.46 218.632 194.952 206.891 181.309 204.743Z" fill="#222831" />
  </g>
  <g id="bn" fill="none" transform="scale(0.15625 0.15625)">
    <path d="M66.9723 157.47C68.0425 155.478 70.5316 154.751 72.4999 155.787C74.4846 156.849 75.2432 159.322 74.1825 161.315C72.4603 164.539 68.573 172.835 67.1037 179.449C81.0976 177.743 85.7518 168.63 89.1565 161.74C90.6259 158.777 92.0146 155.976 93.8681 154.114C99.1183 148.864 102.49 147.549 113.945 147.239C93.8436 168.427 82.3139 183.938 77.4973 196.137H186.587L183.926 182.827C181.77 172.042 186.702 161.346 195.92 156.823C197.969 155.82 199.749 155.306 201.202 155.306C202.852 155.306 204.346 154.309 204.974 152.783C205.603 151.256 205.252 149.501 204.093 148.333C199.79 144.029 197.127 118.931 197.127 98.1519C197.127 81.6677 169.464 41 127.728 41C99.2005 41 85.0348 49.3774 76.5774 54.3815C74.1279 55.8276 71.5966 57.3298 70.577 57.3298C68.323 57.3298 66.4942 59.1587 66.4942 61.4113C66.4942 67.96 71.0662 74.7354 73.8095 78.2223C67.0162 90.5432 42 136.872 42 151.222C42 164.947 44.2786 177.578 58.7782 179.423C60.4116 170.026 66.2167 158.889 66.9753 157.469L66.9723 157.47ZM119.561 73.6579C127.873 73.6579 140.291 77.9853 147.925 90.1834C155.649 102.521 160.474 126.27 139.572 169.331C138.863 170.785 137.409 171.634 135.898 171.634C135.302 171.634 134.69 171.503 134.11 171.225C132.086 170.237 131.236 167.804 132.224 165.772C151.501 126.067 147.648 105.107 141.009 94.5181C135.148 85.1537 125.798 81.8228 119.569 81.8228C117.315 81.8228 115.486 79.9939 115.486 77.74C115.486 75.486 117.307 73.6572 119.561 73.6572V73.6579ZM84.0132 99.3438L88.0961 95.261C89.6885 93.6686 92.2758 93.6686 93.8683 95.261C95.4607 96.8534 95.4607 99.4408 93.8683 101.033L89.7855 105.116C88.9858 105.917 87.9402 106.309 86.8945 106.309C85.8489 106.309 84.8046 105.909 84.0036 105.117C82.4208 103.525 82.4208 100.944 84.0132 99.3438H84.0132ZM188.292 204.637L188.226 204.294H75.1297C75.1133 204.417 75.0641 204.547 75.0477 204.67C61.0454 206.506 50.1613 218.378 50.1613 232.87C50.1613 235.124 51.9902 236.953 54.2441 236.953H209.373C211.627 236.953 213.455 235.124 213.455 232.87C213.455 218.288 202.425 206.351 188.292 204.637L188.292 204.637Z" fill="#222831" />
  </g>
  <g id="bp" fill="none" transform="scale(0.15625 0.15625)">
    <path d="M79.331 146.282H177.134C178.713 146.282 180.12 145.296 180.669 143.807C181.219 142.317 180.768 140.662 179.564 139.64C171.702 133.011 159.318 128.37 147.295 125.864C158.341 119.311 165.85 107.379 165.85 93.618C165.85 72.8767 148.975 56 128.232 56C107.49 56 90.6136 72.8747 90.6136 93.618C90.6136 107.378 98.1214 119.311 109.173 125.871C97.1515 128.376 84.7605 133.018 76.9045 139.646C75.7004 140.661 75.2495 142.325 75.7986 143.814C76.349 145.302 77.7483 146.281 79.3276 146.281L79.331 146.282ZM75.7049 199.329L77.0211 199.164C77.7818 199.058 78.5489 198.944 79.331 198.944H177.134C177.916 198.944 178.684 199.058 179.451 199.162L180.768 199.327C180.91 199.342 181.046 199.35 181.182 199.35H181.265C183.484 199.522 185.094 197.687 185.094 195.588C185.094 194.505 184.643 193.534 183.92 192.85C181.114 188.546 176.727 185.59 171.8 184.454C162.96 175.268 159.943 163.095 158.913 153.804H97.567C96.5368 163.103 93.5189 175.298 84.6572 184.484C79.429 185.703 74.8018 188.952 72.0408 193.7C71.3267 194.926 71.3632 196.453 72.1466 197.642C72.9049 198.832 74.2135 199.486 75.7034 199.328L75.7049 199.329ZM177.135 206.469H79.3323C64.8116 206.469 53 218.28 53 232.8C53 234.877 54.6852 236.562 56.7608 236.562H199.704C201.781 236.562 203.466 234.877 203.466 232.8C203.466 218.28 191.655 206.469 177.135 206.469Z" fill="#222831" />
  </g>
  <g id="bq" fill="none" transform="scale(0.15625 0.15625)">
    <path d="M74.8752 196.048H181.015C189.712 196.048 197.606 199.209 203.909 204.278L225.767 127.766C226.256 126.052 225.571 124.215 224.077 123.235C222.575 122.246 220.623 122.353 219.244 123.496C219.236 123.504 207.813 132.893 198.93 139.744C197.999 140.463 197.419 141.548 197.345 142.715C197.272 143.891 197.705 145.033 198.537 145.867C199.043 146.381 199.86 148.267 199.664 152.145C199.444 156.676 198.03 160.833 196.945 162.734C195.361 160.612 193.263 154.529 193.263 147.066C193.263 138.559 196.676 132.974 196.7 132.941C197.288 132.027 197.59 130.973 197.354 129.912C197.117 128.85 196.562 127.993 195.64 127.413C195.615 127.397 193.272 125.373 193.272 118.489C193.272 110.921 199.877 105.377 199.926 105.328C200.824 104.601 201.371 103.523 201.429 102.373C201.486 101.213 201.053 100.094 200.237 99.278L183.907 82.9481C182.314 81.3557 179.727 81.3557 178.135 82.9481L161.805 99.278C160.956 100.13 160.524 101.305 160.621 102.497C160.719 103.689 161.332 104.784 162.31 105.485C164.335 106.938 168.777 111.208 168.777 114.417C168.777 117.797 164.54 124.484 161.535 128.158C160.473 129.457 160.319 131.294 161.143 132.755C161.176 132.821 164.694 139.156 164.694 147.068C164.694 151.697 160.187 161.168 156.08 168.426C152.806 163.667 148.364 155.657 148.364 147.068C148.364 132.942 152.063 124.304 152.104 124.223C152.529 123.243 152.562 122.125 152.186 121.12C149.991 115.356 144.292 98.5127 144.292 89.9149C144.292 80.4357 151.363 72.2879 151.437 72.206C152.768 70.6956 152.801 68.4335 151.519 66.8904L131.108 42.3962C129.556 40.5346 126.388 40.5346 124.83 42.3962L104.418 66.8904C103.128 68.4418 103.161 70.7122 104.509 72.2144C104.582 72.2964 111.645 80.5018 111.645 89.9153C111.645 100.26 103.824 120.917 103.75 121.121C103.374 122.117 103.407 123.235 103.832 124.215C103.865 124.297 107.572 132.936 107.572 147.06C107.572 155.6 103.131 163.634 99.8482 168.402C95.7489 161.144 91.2423 151.698 91.2423 147.06C91.2423 139.148 94.7621 132.805 94.7933 132.747C95.6175 131.278 95.463 129.449 94.401 128.143C91.3925 124.485 87.1553 117.798 87.1553 114.401C87.1553 111.2 91.5156 106.996 93.6301 105.461C94.5937 104.759 95.2061 103.665 95.3045 102.473C95.3947 101.281 94.9697 100.105 94.1208 99.2632L77.7909 82.9333C76.1985 81.3409 73.6112 81.3409 72.0187 82.9333L55.6888 99.2632C54.8728 100.079 54.4477 101.199 54.5051 102.35C54.5625 103.502 55.101 104.571 55.9909 105.306C56.0565 105.364 62.661 110.916 62.661 118.476C62.661 125.171 60.448 127.269 60.489 127.269C59.5664 127.849 58.9131 128.771 58.6766 129.825C58.4401 130.887 58.6356 132.005 59.2233 132.92C59.2561 132.969 62.661 138.529 62.661 147.045C62.661 154.752 60.4234 160.99 59.0687 162.868C57.9671 161.031 56.4881 156.777 56.2598 152.123C56.0726 148.253 56.8804 146.359 57.3862 145.845C58.2186 145.012 58.6519 143.868 58.578 142.693C58.5042 141.526 57.9247 140.439 56.9939 139.721C48.1189 132.871 36.6959 123.482 36.6795 123.473C35.3003 122.331 33.3484 122.232 31.8464 123.212C30.3524 124.192 29.6663 126.029 30.157 127.743L52.0145 204.256C58.2857 199.21 66.1805 196.049 74.8753 196.049L74.8752 196.048ZM192.465 206.639C192.399 206.614 192.342 206.565 192.286 206.541C190.783 205.895 189.199 205.422 187.574 205.038C187.321 204.981 187.093 204.859 186.839 204.81C184.96 204.418 183.017 204.206 181.025 204.206H74.8852C72.8937 204.206 70.95 204.418 69.072 204.81C68.8192 204.868 68.5909 204.981 68.3366 205.038C66.7196 205.422 65.1273 205.895 63.625 206.541C63.5594 206.565 63.502 206.614 63.446 206.639C60.0575 208.133 57.012 210.256 54.4563 212.877C49.4356 218.029 46.3179 225.043 46.3179 232.79C46.3179 235.044 48.1468 236.872 50.4007 236.872H205.529C207.783 236.872 209.612 235.044 209.612 232.79C209.596 225.049 206.477 218.036 201.456 212.876C198.898 210.256 195.861 208.133 192.465 206.639H192.465Z" fill="#222831" />
  </g>
  <g id="br" fill="none" transform="scale(0.15625 0.15625)">
    <path d="M79.0321 130.437C80.7872 139.925 89.0828 147.142 99.0677 147.142H156.22C166.204 147.142 174.5 139.925 176.256 130.437C185.744 128.682 192.962 120.387 192.962 110.4V45.0814C192.962 42.8288 191.133 41 188.879 41H164.385C162.131 41 160.302 42.8289 160.302 45.0828V73.6584H143.972L143.974 45.0828C143.974 42.8289 142.145 41 139.891 41H115.397C113.143 41 111.314 42.8289 111.314 45.0828V73.6584H94.9855V45.0828C94.9855 42.8289 93.1566 41 90.9027 41H66.4085C64.1546 41 62.3257 42.8289 62.3257 45.0828V110.402C62.3257 120.387 69.5441 128.682 79.0314 130.437H79.0321ZM174.479 180.349C173.899 180.031 173.262 179.803 172.552 179.803C169.735 179.803 165.327 173.091 162.281 158.362C161.872 156.371 160.06 154.998 158.027 155.113C157.627 155.138 157.244 155.187 156.215 155.309L98.4261 155.235C98.0338 155.186 97.6511 155.128 97.2506 155.104C95.3233 155.013 93.4057 156.361 92.997 158.353C89.9516 173.09 85.542 179.793 82.7262 179.793C81.9909 179.793 81.3389 180.038 80.7498 180.373C74.9118 181.614 69.7109 185.157 66.6492 190.423C65.8742 191.755 65.9138 193.411 66.764 194.702C67.6046 195.992 69.0179 196.701 70.6337 196.539L72.0621 196.36C72.8945 196.245 73.7201 196.123 74.5771 196.123H180.717C181.566 196.123 182.4 196.246 183.232 196.36L184.661 196.539C184.815 196.555 184.963 196.563 185.11 196.563H185.201C187.798 196.751 189.356 194.759 189.356 192.481C189.356 191.305 188.867 190.251 188.082 189.509C184.938 184.726 179.998 181.509 174.479 180.35L174.479 180.349ZM180.717 204.297H74.577C58.8185 204.297 46 217.115 46 232.873C46 235.127 47.8289 236.955 50.0814 236.955H205.21C207.464 236.955 209.293 235.127 209.293 232.873C209.293 217.115 196.474 204.297 180.717 204.297V204.297Z" fill="#222831" />
  </g>
  <g id="wb" fill="none" transform="scale(0.15625 0.15625)">
    <path d="M178.453 196.129C187.647 184.69 192.963 170.354 192.963 155.307C192.963 139.59 181.328 116.638 158.377 87.091C157.633 86.1274 156.499 85.556 155.274 85.515C154.082 85.5724 152.89 85.988 152.081 86.9024C145.819 94.055 136.903 98.1529 127.644 98.1529C118.385 98.1529 109.469 94.0536 103.207 86.9024C102.406 85.9879 101.231 85.5478 100.014 85.515C98.7979 85.556 97.6553 86.1356 96.9117 87.091C95.7936 88.5276 94.8381 89.8739 93.7775 91.2792C103.828 101.803 127.644 128.272 127.644 143.06C127.644 145.314 125.815 147.143 123.561 147.143C121.309 147.141 119.48 145.312 119.48 143.06C119.48 133.499 102.285 112.148 88.8129 97.8996C71.2253 122.28 62.3259 141.559 62.3259 155.307C62.3259 170.355 67.6415 184.692 76.8352 196.132L178.453 196.129ZM127.645 89.9883C141.175 89.9883 152.14 79.0233 152.14 65.4942C152.14 51.965 141.175 41 127.645 41C114.116 41 103.151 51.965 103.151 65.4942C103.151 79.0233 114.116 89.9883 127.645 89.9883ZM180.717 204.296H74.577C58.8185 204.296 46 217.114 46 232.871C46 235.125 47.8289 236.954 50.0814 236.954H205.21C207.464 236.954 209.293 235.125 209.293 232.871C209.293 217.114 196.474 204.296 180.717 204.296Z" fill="#222831" />
    <path fill-rule="evenodd" clip-rule="evenodd" d="M89.3324 105.828C82.4211 115.822 77.1612 124.781 73.514 132.685C69.2461 141.934 67.3259 149.441 67.3259 155.307C67.3259 168.366 71.6719 180.874 79.2892 191.132L175.999 191.129C183.616 180.872 187.962 168.365 187.962 155.307C187.962 148.579 185.438 139.733 179.817 128.646C174.343 117.849 166.121 105.29 155.098 91.0228C147.957 98.7211 138.018 103.153 127.644 103.153C118.367 103.153 109.438 99.6078 102.548 93.3542C107.341 98.6206 113.237 105.458 118.504 112.604C122.199 117.616 125.665 122.887 128.228 127.954C130.735 132.911 132.644 138.184 132.644 143.06C132.644 148.075 128.577 152.143 123.561 152.143H123.558C118.547 152.14 114.48 148.074 114.48 143.06C114.48 141.909 113.876 139.668 112.13 136.248C110.465 132.988 108.052 129.204 105.14 125.158C100.512 118.728 94.8112 111.889 89.3324 105.828ZM127.645 84.9883C138.413 84.9883 147.139 76.2619 147.139 65.4942C147.139 54.7264 138.413 46 127.645 46C116.878 46 108.151 54.7264 108.151 65.4942C108.151 76.2619 116.878 84.9883 127.645 84.9883ZM180.717 209.296H74.577C61.8869 209.296 51.5013 219.382 51.0176 231.954H204.275C203.791 219.381 193.406 209.296 180.717 209.296Z" fill="#DDDDDD" />
  </g>
  <g id="wk" fill="none" transform="scale(0.15625 0.15625)">
    <path d="M115.646 196.129V111.617C119.37 113.398 123.492 114.483 127.893 114.483C132.294 114.483 136.417 113.406 140.14 111.617V196.129H115.646Z" fill="#222831" />
    <path d="M118.724 104.048C118.47 103.917 118.225 103.779 117.981 103.64C111.752 100.146 107.482 93.5477 107.497 85.9069C107.497 76.0515 114.518 67.8054 123.827 65.9109V57.3299H119.744C117.49 57.3299 115.661 55.501 115.661 53.2471C115.661 50.9931 117.49 49.1643 119.744 49.1643H123.827V45.0828C123.827 42.8289 125.655 41 127.909 41C130.163 41 131.992 42.8289 131.992 45.0828L131.991 49.1643H136.074C138.328 49.1643 140.148 50.9931 140.15 53.2471C140.15 55.501 138.321 57.3299 136.067 57.3299H131.984V65.9099C141.292 67.8047 148.314 76.0508 148.314 85.9058C148.314 93.548 144.036 100.145 137.805 103.64C137.559 103.787 137.315 103.917 137.062 104.048C136.359 104.408 135.658 104.726 134.915 105.004C134.451 105.181 133.969 105.317 133.49 105.451C133.421 105.47 133.351 105.49 133.281 105.51C133.138 105.549 132.996 105.59 132.853 105.631C132.438 105.752 132.024 105.872 131.592 105.951C130.392 106.179 129.159 106.327 127.893 106.327C126.627 106.327 125.395 106.179 124.194 105.951C123.771 105.873 123.365 105.756 122.958 105.638C122.807 105.595 122.657 105.551 122.505 105.51C122.469 105.5 122.434 105.49 122.398 105.48C121.878 105.336 121.368 105.194 120.872 105.004C120.128 104.726 119.419 104.4 118.724 104.048Z" fill="#222831" />
    <path d="M107.482 196.13H78.9055C74.6519 196.13 70.6345 196.996 66.8306 198.334C54.5919 180.152 34 146.103 34 122.647C34 111.739 38.2539 101.492 45.9616 93.7772C53.6758 86.0696 63.9235 81.824 74.8227 81.824C85.7236 81.824 95.9776 86.0696 103.694 93.7856C103.849 93.9646 104.844 94.8381 107.482 95.7525V196.13Z" fill="#222831" />
    <path d="M176.882 196.13H148.304V95.7953C150.844 94.9451 151.759 94.1701 151.775 94.1537C159.817 86.0702 170.065 81.8247 180.964 81.8247C191.864 81.8247 202.119 86.0702 209.834 93.7849C217.541 101.501 221.787 111.748 221.787 122.647C221.787 146.106 201.197 180.152 188.958 198.334C185.152 196.995 181.135 196.13 176.882 196.13Z" fill="#222831" />
    <path d="M176.883 204.295C178.401 204.295 179.862 204.482 181.309 204.743C194.952 206.891 205.46 218.632 205.46 232.871C205.46 235.125 203.631 236.954 201.377 236.954H54.4121C52.1581 236.954 50.3292 235.125 50.3292 232.871C50.3292 218.632 60.8295 206.891 74.4805 204.745C75.9265 204.482 77.3877 204.295 78.9062 204.295H176.883Z" fill="#222831" />
    <path d="M100.108 97.2708C100.65 97.8348 101.435 98.4282 102.482 99.0094V191.13H78.9055C75.397 191.13 72.0683 191.637 68.9275 192.461C63.1806 183.736 56.1432 172.239 50.3214 160.28C43.7067 146.693 39 133.178 39 122.647C39 113.069 42.7248 104.092 49.4976 97.3122C56.2751 90.5416 65.2512 86.824 74.8227 86.824C84.3737 86.824 93.3351 90.5243 100.108 97.2708Z" fill="#DDDDDD" />
    <path d="M124.824 70.8105C126.107 70.5494 127.191 69.8107 127.906 68.8026C128.621 69.8102 129.704 70.5484 130.987 70.8094C138.016 72.2402 143.314 78.4783 143.314 85.9059C143.314 91.6154 140.124 96.6061 135.359 99.2789C135.317 99.3028 135.275 99.3272 135.233 99.3523C135.127 99.4156 134.999 99.4857 134.772 99.6037C134.212 99.8897 133.693 100.123 133.166 100.319L133.126 100.335C132.891 100.425 132.647 100.493 132.132 100.639L131.934 100.694C131.613 100.783 131.397 100.846 131.237 100.893C130.978 100.968 130.866 101.001 130.687 101.034L130.657 101.039C129.683 101.224 128.771 101.327 127.893 101.327C127.015 101.327 126.103 101.224 125.129 101.039L125.099 101.034C124.923 101.001 124.821 100.971 124.586 100.903C124.423 100.855 124.195 100.789 123.835 100.69C123.21 100.516 122.922 100.435 122.664 100.336L122.62 100.319C122.108 100.128 121.581 99.8895 121.001 99.5968C120.852 99.5191 120.689 99.4279 120.456 99.2954L120.427 99.2788C115.667 96.6089 112.485 91.6213 112.497 85.9167V85.9069C112.497 78.479 117.795 72.241 124.824 70.8105Z" fill="#DDDDDD" />
    <path d="M135.14 118.653V191.129H120.646V118.65C122.962 119.186 125.384 119.483 127.893 119.483C130.401 119.483 132.823 119.188 135.14 118.653Z" fill="#DDDDDD" />
    <path d="M155.31 97.6892L155.319 97.6802C162.443 90.5199 171.424 86.8247 180.964 86.8247C190.537 86.8247 199.52 90.5428 206.296 97.3185C213.069 104.098 216.787 113.075 216.787 122.647C216.787 133.18 212.081 146.694 205.466 160.281C199.645 172.239 192.608 183.736 186.861 192.462C183.719 191.637 180.39 191.13 176.881 191.13H153.304V99.0926C154.248 98.5814 154.906 98.0939 155.31 97.6892Z" fill="#DDDDDD" />
    <path d="M180.42 209.664C180.457 209.671 180.494 209.677 180.531 209.683C191.519 211.412 200.004 220.662 200.442 231.954H55.3469C55.7843 220.661 64.2636 211.412 75.2569 209.684C75.2958 209.678 75.3346 209.672 75.3734 209.665C76.6552 209.432 77.7955 209.295 78.9062 209.295H176.883C177.994 209.295 179.135 209.432 180.42 209.664Z" fill="#DDDDDD" />
  </g>
  <g id="wn" fill="none" transform="scale(0.15625 0.15625)">
    <path d="M66.9753 157.469C68.0456 155.477 70.5316 154.751 72.4999 155.787C74.4846 156.849 75.2432 159.322 74.1825 161.315C72.4603 164.539 68.573 172.835 67.1037 179.449C81.0976 177.743 85.7518 168.63 89.1565 161.74C90.6259 158.777 92.0146 155.976 93.8681 154.114C99.1183 148.864 102.49 147.549 113.945 147.239C93.8436 168.427 82.3139 183.938 77.4973 196.137H186.587L183.926 182.827C181.77 172.042 186.702 161.346 195.92 156.823C197.969 155.82 199.749 155.306 201.202 155.306C202.852 155.306 204.346 154.309 204.974 152.783C205.603 151.256 205.252 149.501 204.093 148.333C199.79 144.029 197.127 118.931 197.127 98.1519C197.127 81.6677 169.464 41 127.728 41C99.2005 41 85.0348 49.3774 76.5774 54.3815C74.1279 55.8276 71.5966 57.3298 70.577 57.3298C68.323 57.3298 66.4942 59.1587 66.4942 61.4113C66.4942 67.96 71.0662 74.7354 73.8095 78.2223C67.0162 90.5432 42 136.872 42 151.222C42 164.947 44.2786 177.578 58.7782 179.423C60.4116 170.026 66.2167 158.889 66.9753 157.469ZM119.561 73.6579C127.873 73.6579 140.291 77.9853 147.925 90.1834C155.649 102.521 160.474 126.27 139.572 169.331C138.863 170.785 137.409 171.634 135.898 171.634C135.302 171.634 134.69 171.503 134.11 171.225C132.086 170.237 131.236 167.804 132.224 165.772C151.501 126.067 147.648 105.107 141.009 94.5181C135.148 85.1537 125.798 81.8228 119.569 81.8228C117.315 81.8228 115.486 79.9939 115.486 77.74C115.486 75.486 117.307 73.6579 119.561 73.6579ZM84.0132 99.3438L88.0961 95.261C89.6885 93.6686 92.2758 93.6686 93.8683 95.261C95.4607 96.8534 95.4607 99.4408 93.8683 101.033L89.7855 105.116C88.9858 105.917 87.9402 106.309 86.8945 106.309C85.8489 106.309 84.8046 105.909 84.0036 105.117C82.4208 103.525 82.4208 100.944 84.0132 99.3438ZM188.292 204.637L188.226 204.294H75.1297C75.1133 204.417 75.0641 204.547 75.0477 204.67C61.0454 206.506 50.1613 218.378 50.1613 232.87C50.1613 235.124 51.9902 236.953 54.2441 236.953H209.373C211.627 236.953 213.455 235.124 213.455 232.87C213.455 218.288 202.425 206.351 188.292 204.637Z" fill="#222831" />
    <path fill-rule="evenodd" clip-rule="evenodd" d="M62.5652 155.113L62.571 155.102C64.9612 150.654 70.4706 149.069 74.8289 151.363L74.859 151.379C79.2663 153.737 80.9567 159.229 78.5963 163.664L78.5928 163.671C77.6925 165.356 76.1987 168.455 74.8129 171.891C76.2946 171.042 77.5163 170.057 78.5579 169.011C81.2487 166.308 82.952 163.01 84.6739 159.525L84.6769 159.519L84.8527 159.164C86.1812 156.48 87.885 153.037 90.325 150.586L90.3326 150.579C93.2116 147.7 95.9943 145.479 99.9311 144.104C103.651 142.805 108.033 142.397 113.809 142.241C115.832 142.186 117.688 143.355 118.511 145.203C119.335 147.051 118.964 149.213 117.572 150.68C101.331 167.8 91.0766 180.834 85.407 191.137H180.489L179.023 183.808C176.468 171.021 182.266 157.953 193.718 152.334L193.721 152.332C195.531 151.446 197.456 150.734 199.391 150.445C198.79 149.561 198.325 148.617 197.957 147.751C197.343 146.309 196.814 144.64 196.35 142.858C195.421 139.29 194.652 134.869 194.037 130.055C192.803 120.407 192.127 108.723 192.127 98.1519C192.127 95.201 190.808 90.4142 187.734 84.607C184.725 78.9227 180.259 72.6901 174.53 66.9161C163.045 55.3421 146.901 46 127.728 46C100.56 46 87.2879 53.8536 79.2346 58.619L78.9744 58.7727C77.823 59.4527 76.513 60.2262 75.3535 60.8311C74.7478 61.1471 74.0781 61.4729 73.4173 61.7307C73.0361 61.8794 72.355 62.1314 71.5314 62.2558C71.7014 64.2316 72.4444 66.4454 73.5881 68.7146C74.8723 71.2628 76.4877 73.5401 77.7391 75.1307C78.981 76.7092 79.1578 78.8776 78.1881 80.6365C74.8084 86.7662 66.9114 101.328 59.8715 116.111C56.3486 123.509 53.0776 130.884 50.698 137.246C48.2347 143.832 47 148.643 47 151.222C47 157.99 47.5972 163.623 49.4826 167.663C50.6412 170.145 52.3152 172.119 55.0742 173.329C57.5582 164.629 61.9464 156.271 62.5652 155.113ZM76.9508 209.294C76.5563 209.457 76.1361 209.57 75.6976 209.628C64.408 211.108 55.6247 220.463 55.179 231.953H208.438C207.989 220.39 199.087 210.983 187.69 209.601C187.265 209.549 186.856 209.445 186.471 209.294H76.9508ZM127.726 163.588C136.339 145.849 140.089 132.258 141.116 121.913C142.345 109.537 139.676 101.806 136.773 97.1742L136.77 97.1708C131.925 89.4298 124.277 86.8228 119.569 86.8228C114.554 86.8228 110.486 82.7554 110.486 77.74C110.486 72.7365 114.534 68.6579 119.561 68.6579C129.336 68.6579 143.485 73.6646 152.163 87.5301C161.128 101.85 165.408 127.555 144.07 171.514L144.066 171.523C142.493 174.747 139.262 176.634 135.898 176.634C134.569 176.634 133.217 176.341 131.951 175.735L131.917 175.719C127.431 173.529 125.526 168.117 127.726 163.588ZM93.321 108.652C91.5323 110.442 89.1918 111.309 86.8945 111.309C84.5709 111.309 82.2527 110.416 80.4894 108.674L80.4574 108.642C76.9295 105.093 76.9424 99.3616 80.4687 95.8173L80.4777 95.8083L84.5605 91.7255C88.1056 88.1804 93.8587 88.1805 97.4037 91.7254C100.949 95.2705 100.949 101.024 97.4039 104.569L93.324 108.649L93.321 108.652Z" fill="#DDDDDD" />
  </g>
  <g id="wp" fill="none" transform="scale(0.15625 0.15625)">
    <path d="M146.019 123.714C145.132 124.241 144.659 125.258 144.829 126.275C144.998 127.292 145.775 128.101 146.785 128.312C158.634 130.781 170.545 135.308 177.948 141.547C178.364 141.903 178.503 142.455 178.324 142.942C178.134 143.457 177.657 143.782 177.134 143.782H79.4028C79.3777 143.781 79.3527 143.781 79.3276 143.781C78.8025 143.781 78.3341 143.462 78.1438 142.948C77.9629 142.456 78.1096 141.9 78.5159 141.557L78.5165 141.557C85.9126 135.317 97.8337 130.787 109.683 128.318C110.693 128.108 111.47 127.299 111.639 126.282C111.809 125.264 111.336 124.247 110.449 123.721C100.105 117.581 93.1136 106.437 93.1136 93.618C93.1136 74.2555 108.871 58.5 128.232 58.5C147.594 58.5 163.35 74.2573 163.35 93.618C163.35 106.438 156.357 117.581 146.019 123.714ZM181.459 196.857C181.394 196.852 181.33 196.85 181.265 196.85H181.182C181.145 196.85 181.103 196.848 181.05 196.843L179.789 196.685C179.785 196.685 179.781 196.684 179.776 196.683C179.722 196.676 179.666 196.668 179.609 196.66C178.92 196.566 178.041 196.444 177.134 196.444H79.331C78.4106 196.444 77.5229 196.569 76.8308 196.666C76.7839 196.672 76.738 196.679 76.693 196.685C76.6876 196.686 76.6821 196.687 76.6767 196.687L75.4406 196.842C75.4378 196.843 75.4349 196.843 75.432 196.843C74.8867 196.898 74.5007 196.684 74.2551 196.299L74.2343 196.267C73.9767 195.876 73.9615 195.369 74.2014 194.957L74.2019 194.956C76.5975 190.838 80.6294 187.99 85.225 186.919C85.6942 186.809 86.1219 186.566 86.4564 186.22C95.1643 177.194 98.487 165.535 99.7739 156.304H156.706C157.993 165.527 161.313 177.163 169.999 186.187C170.335 186.537 170.766 186.781 171.238 186.89C175.561 187.887 179.387 190.475 181.826 194.215C181.933 194.38 182.059 194.531 182.202 194.666C182.443 194.893 182.594 195.214 182.594 195.588C182.594 196.007 182.432 196.36 182.219 196.579C182.029 196.774 181.788 196.883 181.459 196.857ZM79.3323 208.969H177.135C190.274 208.969 200.966 219.661 200.966 232.8C200.966 233.496 200.4 234.062 199.704 234.062H56.7608C56.0665 234.062 55.5 233.496 55.5 232.8C55.5 219.661 66.1922 208.969 79.3323 208.969Z" fill="#DDDDDD" stroke="#222831" stroke-width="5" stroke-linejoin="round" />
  </g>
  <g id="wq" fill="none" transform="scale(0.15625 0.15625)">
    <path d="M181.525 206.206C183.328 206.206 185.091 206.397 186.797 206.751C186.81 206.755 186.829 206.762 186.853 206.771C186.87 206.777 186.895 206.786 186.924 206.797C186.973 206.814 187.036 206.837 187.1 206.858C187.205 206.893 187.343 206.935 187.505 206.973C188.988 207.323 190.376 207.739 191.665 208.281C191.681 208.29 191.7 208.3 191.719 208.311C191.785 208.347 191.876 208.394 191.988 208.441C195.075 209.803 197.837 211.735 200.167 214.122C204.757 218.841 207.597 225.238 207.612 232.293C207.61 233.165 206.901 233.872 206.029 233.872H50.9004C50.0272 233.872 49.3176 233.163 49.3176 232.29C49.3176 225.229 52.1559 218.833 56.746 214.122C59.0787 211.73 61.8579 209.792 64.9506 208.428C65.0252 208.395 65.0887 208.364 65.1388 208.337C65.1649 208.323 65.1888 208.31 65.21 208.298L65.2251 208.289C66.5164 207.745 67.9175 207.327 69.4028 206.973C69.6735 206.911 69.9108 206.827 70.0202 206.788L70.0401 206.78C70.0955 206.761 70.1269 206.75 70.1422 206.745C71.8397 206.394 73.5921 206.206 75.3849 206.206H181.525Z" fill="#DDDDDD" />
    <path d="M75.2997 193.05C75.3247 193.049 75.3498 193.048 75.3749 193.048H181.515C189.5 193.048 196.838 195.537 202.991 199.641L223.863 126.579C224.051 125.92 223.788 125.207 223.206 124.825L223.203 124.823C222.617 124.437 221.871 124.481 221.341 124.919L221.339 124.921L221.338 124.922L221.327 124.931L221.299 124.954L221.199 125.036C221.112 125.107 220.984 125.213 220.818 125.349C220.486 125.621 220.003 126.016 219.397 126.511C218.183 127.502 216.474 128.893 214.486 130.498C210.514 133.707 205.421 137.78 200.958 141.222C200.591 141.506 200.368 141.93 200.341 142.373C200.312 142.83 200.479 143.273 200.807 143.601L200.819 143.614C201.538 144.344 202.009 145.461 202.296 146.666C202.604 147.959 202.768 149.642 202.661 151.767C202.423 156.655 200.914 161.2 199.616 163.474C199.198 164.206 198.44 164.678 197.598 164.73C196.757 164.781 195.946 164.405 195.441 163.73C194.373 162.298 193.351 159.895 192.594 157.045C191.818 154.127 191.263 150.525 191.263 146.566C191.263 141.979 192.183 138.176 193.111 135.505C193.576 134.168 194.045 133.108 194.407 132.367C194.589 131.996 194.744 131.704 194.86 131.496C194.917 131.392 194.966 131.307 195.003 131.244C195.022 131.212 195.038 131.184 195.053 131.16C195.06 131.149 195.069 131.135 195.078 131.12C195.081 131.115 195.085 131.107 195.091 131.098L195.099 131.087C195.1 131.085 195.101 131.084 195.102 131.082C195.437 130.558 195.465 130.185 195.414 129.955C195.306 129.473 195.108 129.217 194.81 129.03L194.753 128.994C194.662 128.933 194.593 128.877 194.587 128.873V128.872C194.566 128.856 194.55 128.843 194.539 128.834L194.537 128.832C194.515 128.814 194.496 128.798 194.482 128.785C194.468 128.772 194.453 128.759 194.439 128.746C194.424 128.733 194.41 128.72 194.396 128.707C194.341 128.655 194.279 128.594 194.213 128.524C194.08 128.383 193.924 128.201 193.754 127.973C193.414 127.515 193.021 126.876 192.65 126.014C191.907 124.287 191.272 121.716 191.272 117.989C191.272 113.484 193.228 109.701 195.041 107.143C196.861 104.575 198.762 102.957 198.665 103.054C198.725 102.994 198.788 102.938 198.853 102.885C199.199 102.605 199.409 102.189 199.432 101.749C199.454 101.295 199.286 100.863 198.969 100.546L182.639 84.2158C182.023 83.5998 181.019 83.5997 180.402 84.2159L164.075 100.543L164.074 100.544C163.741 100.879 163.576 101.335 163.613 101.792C163.652 102.261 163.892 102.684 164.266 102.953L164.268 102.954C165.455 103.805 167.229 105.383 168.73 107.2C169.486 108.114 170.22 109.147 170.776 110.232C171.32 111.294 171.777 112.567 171.777 113.917C171.777 115.214 171.387 116.602 170.903 117.868C170.401 119.176 169.718 120.558 168.962 121.902C167.453 124.588 165.56 127.297 163.971 129.241C163.564 129.738 163.5 130.459 163.821 131.027C163.841 131.063 163.861 131.1 163.879 131.137C163.838 131.055 164.128 131.591 164.483 132.362C164.847 133.153 165.323 134.277 165.796 135.66C166.738 138.411 167.694 142.255 167.694 146.568C167.694 149.448 166.362 153.399 164.728 157.24C163.04 161.205 160.84 165.475 158.756 169.157C158.331 169.908 157.551 170.386 156.69 170.424C155.828 170.461 155.009 170.053 154.52 169.343C151.167 164.467 146.364 155.934 146.364 146.568C146.364 132.846 149.752 124.022 150.312 122.729L150.31 122.728C150.48 122.339 150.492 121.893 150.346 121.501C149.225 118.556 147.23 112.84 145.51 106.761C143.812 100.756 142.292 94.0966 142.292 89.4149C142.292 84.0848 144.268 79.249 146.146 75.832C147.973 72.5084 149.819 70.3285 150.061 70.0529C150.58 69.4647 150.589 68.582 150.096 67.9881L129.687 43.4967C129.138 42.8376 127.81 42.8305 127.248 43.4993L127.247 43.5008L106.84 67.989C106.336 68.5953 106.358 69.4743 106.869 70.0449C107.031 70.2256 108.924 72.4475 110.797 75.8639C112.671 79.2831 114.645 84.1169 114.645 89.4153C114.645 95.0057 112.575 103.088 110.618 109.546C109.623 112.829 108.627 115.789 107.875 117.939C107.499 119.015 107.183 119.89 106.959 120.504C106.847 120.811 106.757 121.053 106.694 121.221C106.623 121.413 106.601 121.471 106.602 121.469L106.589 121.503C106.447 121.882 106.455 122.327 106.626 122.721L106.641 122.757C106.646 122.767 106.65 122.777 106.654 122.787C106.633 122.735 106.726 122.959 106.836 123.244C106.952 123.546 107.111 123.978 107.299 124.533C107.674 125.643 108.163 127.247 108.647 129.296C109.617 133.395 110.572 139.279 110.572 146.56C110.572 155.877 105.771 164.435 102.407 169.32C101.918 170.03 101.098 170.438 100.237 170.399C99.3756 170.361 98.595 169.882 98.1711 169.131C96.092 165.45 93.8941 161.188 92.2076 157.228C90.5739 153.392 89.242 149.444 89.242 146.56C89.242 142.247 90.1984 138.401 91.1406 135.649C91.6139 134.266 92.0898 133.141 92.454 132.35C92.6364 131.954 92.7913 131.64 92.9047 131.418C92.9615 131.307 93.0078 131.218 93.0421 131.154C93.0711 131.1 93.0956 131.055 93.0967 131.053L93.1126 131.024C93.436 130.448 93.3741 129.732 92.9641 129.224C91.3713 127.286 89.4786 124.582 87.9703 121.899C87.2144 120.554 86.5303 119.171 86.0289 117.86C85.5436 116.591 85.155 115.201 85.155 113.901C85.155 112.56 85.6019 111.296 86.1411 110.236C86.6907 109.156 87.4185 108.128 88.1703 107.216C89.6647 105.403 91.4388 103.825 92.6589 102.939C93.0277 102.671 93.2708 102.244 93.312 101.775C93.3457 101.297 93.1732 100.849 92.8599 100.538L92.8528 100.531L76.5229 84.2011C75.9068 83.585 74.9023 83.585 74.2861 84.2011L57.9563 100.531C57.6459 100.841 57.479 101.271 57.5017 101.725C57.524 102.173 57.7317 102.589 58.0831 102.879C58.1012 102.894 58.1191 102.909 58.1368 102.925C58.1229 102.912 58.2719 103.039 58.4895 103.239C58.7067 103.439 59.0037 103.723 59.3534 104.083C60.0506 104.8 60.9701 105.835 61.8896 107.131C63.7045 109.691 65.6607 113.475 65.6607 117.976C65.6607 121.596 65.0728 124.114 64.3968 125.809C64.0595 126.655 63.7042 127.285 63.3995 127.736C63.2475 127.961 63.1091 128.14 62.9935 128.277C62.9357 128.346 62.8837 128.404 62.8387 128.452L62.8377 128.453C62.8155 128.477 62.7951 128.498 62.7765 128.517L62.7496 128.544L62.7373 128.556L62.7314 128.562L62.7285 128.564C62.7271 128.566 62.7257 128.567 60.9887 126.769L62.7257 128.567C62.6014 128.687 62.4649 128.794 62.3185 128.886C61.9567 129.113 61.7059 129.472 61.616 129.871C61.524 130.287 61.6026 130.721 61.8258 131.068C62.2037 131.668 65.6607 137.63 65.6607 146.545C65.6607 150.634 65.0681 154.335 64.2896 157.281C63.5317 160.149 62.5383 162.524 61.596 163.83C61.1041 164.512 60.3025 164.901 59.4626 164.865C58.6226 164.83 57.8568 164.374 57.4244 163.653C56.0836 161.417 54.5081 156.752 54.2625 151.744C54.1598 149.623 54.3242 147.942 54.63 146.649C54.9136 145.451 55.3809 144.326 56.1044 143.591L56.1181 143.577C56.444 143.251 56.6114 142.808 56.5827 142.35C56.5543 141.906 56.3311 141.482 55.9672 141.201L55.966 141.2C51.5066 137.758 46.4153 133.685 42.4435 130.476C40.4561 128.871 38.7462 127.48 37.5321 126.49L36.1101 125.328L35.7303 125.017L35.6372 124.941L35.6347 124.939L35.6221 124.929C35.6094 124.919 35.5967 124.909 35.5842 124.898C35.0616 124.465 34.3123 124.416 33.7142 124.805C33.1329 125.188 32.8726 125.9 33.0601 126.555L33.0605 126.557L53.9324 199.619C60.0452 195.547 67.3513 193.065 75.2997 193.05Z" fill="#DDDDDD" />
    <path d="M106.641 122.757C106.646 122.767 106.65 122.777 106.654 122.787C106.633 122.735 106.726 122.959 106.836 123.244C106.952 123.546 107.111 123.978 107.299 124.533C107.674 125.643 108.163 127.247 108.647 129.296C109.617 133.395 110.572 139.279 110.572 146.56C110.572 155.877 105.771 164.435 102.407 169.32C101.918 170.03 101.098 170.438 100.237 170.399C99.3756 170.361 98.595 169.882 98.1711 169.131C96.092 165.45 93.8941 161.188 92.2076 157.228C90.5739 153.392 89.242 149.444 89.242 146.56C89.242 142.247 90.1984 138.401 91.1406 135.649C91.6139 134.266 92.0898 133.141 92.454 132.35C92.6364 131.954 92.7913 131.64 92.9047 131.418C92.9615 131.307 93.0078 131.218 93.0421 131.154C93.0711 131.1 93.0956 131.055 93.0967 131.053M106.641 122.757C106.636 122.745 106.631 122.733 106.626 122.721M106.641 122.757L106.626 122.721M106.626 122.721C106.455 122.327 106.447 121.882 106.589 121.503L106.602 121.469C106.601 121.471 106.623 121.413 106.694 121.221C106.757 121.053 106.847 120.811 106.959 120.504C107.183 119.89 107.499 119.015 107.875 117.939C108.627 115.789 109.623 112.829 110.618 109.546C112.575 103.088 114.645 95.0057 114.645 89.4153C114.645 84.1169 112.671 79.2831 110.797 75.8639C108.924 72.4475 107.031 70.2256 106.869 70.0449C106.358 69.4743 106.336 68.5953 106.84 67.989L127.247 43.5008L127.248 43.4993C127.81 42.8305 129.138 42.8376 129.687 43.4967L150.096 67.9881C150.589 68.582 150.58 69.4647 150.061 70.0529C149.819 70.3285 147.973 72.5084 146.146 75.832C144.268 79.249 142.292 84.0848 142.292 89.4149C142.292 94.0966 143.812 100.756 145.51 106.761C147.23 112.84 149.225 118.556 150.346 121.501C150.492 121.893 150.48 122.339 150.31 122.728L150.312 122.729C149.752 124.022 146.364 132.846 146.364 146.568C146.364 155.934 151.167 164.467 154.52 169.343C155.009 170.053 155.828 170.461 156.69 170.424C157.551 170.386 158.331 169.908 158.756 169.157C160.84 165.475 163.04 161.205 164.728 157.24C166.362 153.399 167.694 149.448 167.694 146.568C167.694 142.255 166.738 138.411 165.796 135.66C165.323 134.277 164.847 133.153 164.483 132.362C164.128 131.591 163.838 131.055 163.879 131.137C163.861 131.1 163.841 131.063 163.821 131.027C163.5 130.459 163.564 129.738 163.971 129.241C165.56 127.297 167.453 124.588 168.962 121.902C169.718 120.558 170.401 119.176 170.903 117.868C171.387 116.602 171.777 115.214 171.777 113.917C171.777 112.567 171.32 111.294 170.776 110.232C170.22 109.147 169.486 108.114 168.73 107.2C167.229 105.383 165.455 103.805 164.268 102.954L164.266 102.953C163.892 102.684 163.652 102.261 163.613 101.792C163.576 101.335 163.741 100.879 164.074 100.544L164.075 100.543L180.402 84.2159C181.019 83.5997 182.023 83.5998 182.639 84.2158L198.969 100.546C199.286 100.863 199.454 101.295 199.432 101.749C199.409 102.189 199.199 102.605 198.853 102.885C198.788 102.938 198.725 102.994 198.665 103.054C198.762 102.957 196.861 104.575 195.041 107.143C193.228 109.701 191.272 113.484 191.272 117.989C191.272 121.716 191.907 124.287 192.65 126.014C193.021 126.876 193.414 127.515 193.754 127.973C193.924 128.201 194.08 128.383 194.213 128.524C194.279 128.594 194.341 128.655 194.396 128.707C194.41 128.72 194.424 128.733 194.439 128.746C194.453 128.759 194.468 128.772 194.482 128.785C194.496 128.798 194.515 128.814 194.537 128.832M194.537 128.832L194.539 128.834M194.537 128.832L194.539 128.834M194.753 128.994C194.662 128.933 194.593 128.877 194.587 128.873V128.872C194.566 128.856 194.55 128.843 194.539 128.834M194.753 128.994C194.772 129.006 194.791 129.018 194.81 129.03M194.753 128.994L194.81 129.03M194.81 129.03C195.108 129.217 195.306 129.473 195.414 129.955C195.465 130.185 195.437 130.558 195.102 131.082C195.101 131.084 195.1 131.085 195.099 131.087M195.099 131.087L195.091 131.098M195.099 131.087C195.096 131.091 195.094 131.095 195.091 131.098M35.6221 124.929C35.6094 124.919 35.5967 124.909 35.5842 124.898C35.0616 124.465 34.3123 124.416 33.7142 124.805C33.1329 125.188 32.8726 125.9 33.0601 126.555L33.0605 126.557L53.9324 199.619C60.0452 195.547 67.3513 193.065 75.2997 193.05C75.3247 193.049 75.3498 193.048 75.3749 193.048H181.515C189.5 193.048 196.838 195.537 202.991 199.641L223.863 126.579C224.051 125.92 223.788 125.207 223.206 124.825L223.203 124.823C222.617 124.437 221.871 124.481 221.341 124.919L221.339 124.921L221.338 124.922L221.327 124.931L221.299 124.954L221.199 125.036C221.112 125.107 220.984 125.213 220.818 125.349C220.486 125.621 220.003 126.016 219.397 126.511C218.183 127.502 216.474 128.893 214.486 130.498C210.514 133.707 205.421 137.78 200.958 141.222C200.591 141.506 200.368 141.93 200.341 142.373C200.312 142.83 200.479 143.273 200.807 143.601L200.819 143.614C201.538 144.344 202.009 145.461 202.296 146.666C202.604 147.959 202.768 149.642 202.661 151.767C202.423 156.655 200.914 161.2 199.616 163.474C199.198 164.206 198.44 164.678 197.598 164.73C196.757 164.781 195.946 164.405 195.441 163.73C194.373 162.298 193.351 159.895 192.594 157.045C191.818 154.127 191.263 150.525 191.263 146.566C191.263 141.979 192.183 138.176 193.111 135.505C193.576 134.168 194.045 133.108 194.407 132.367C194.589 131.996 194.744 131.704 194.86 131.496C194.917 131.392 194.966 131.307 195.003 131.244C195.022 131.212 195.038 131.184 195.053 131.16C195.06 131.149 195.069 131.135 195.078 131.12C195.081 131.115 195.085 131.107 195.091 131.098M35.6221 124.929C35.6271 124.933 35.6322 124.937 35.6372 124.941M35.6221 124.929L35.6347 124.939M35.6253 124.932L35.6347 124.939M35.6253 124.932C35.6253 124.932 35.6297 124.935 35.6347 124.939M35.6253 124.932C35.6269 124.933 35.6312 124.936 35.6372 124.941M35.6347 124.939L35.6372 124.941M36.1101 125.328L35.7303 125.017L35.6372 124.941M36.1101 125.328C36.4418 125.599 36.925 125.994 37.5321 126.49M36.1101 125.328L37.5321 126.49M37.5321 126.49C38.7462 127.48 40.4561 128.871 42.4435 130.476C46.4153 133.685 51.5066 137.758 55.966 141.2L55.9672 141.201C56.3311 141.482 56.5543 141.906 56.5827 142.35C56.6114 142.808 56.444 143.251 56.1181 143.577L56.1044 143.591C55.3809 144.326 54.9136 145.451 54.63 146.649C54.3242 147.942 54.1598 149.623 54.2625 151.744C54.5081 156.752 56.0836 161.417 57.4244 163.653C57.8568 164.374 58.6226 164.83 59.4626 164.865C60.3025 164.901 61.1041 164.512 61.596 163.83C62.5383 162.524 63.5317 160.149 64.2896 157.281C65.0681 154.335 65.6607 150.634 65.6607 146.545C65.6607 137.63 62.2037 131.668 61.8258 131.068C61.6026 130.721 61.524 130.287 61.616 129.871C61.7059 129.472 61.9567 129.113 62.3185 128.886C62.4649 128.794 62.6014 128.687 62.7257 128.567L60.9887 126.769C62.7257 128.567 62.7271 128.566 62.7285 128.564L62.7314 128.562L62.7373 128.556L62.7496 128.544L62.7765 128.517C62.7951 128.498 62.8155 128.477 62.8377 128.453L62.8387 128.452C62.8837 128.404 62.9357 128.346 62.9935 128.277C63.1091 128.14 63.2475 127.961 63.3995 127.736C63.7042 127.285 64.0595 126.655 64.3968 125.809C65.0728 124.114 65.6607 121.596 65.6607 117.976C65.6607 113.475 63.7045 109.691 61.8896 107.131C60.9701 105.835 60.0506 104.8 59.3534 104.083C59.0037 103.723 58.7067 103.439 58.4895 103.239C58.2719 103.039 58.1229 102.912 58.1368 102.925C58.1191 102.909 58.1012 102.894 58.0831 102.879C57.7317 102.589 57.524 102.173 57.5017 101.725C57.479 101.271 57.6459 100.841 57.9563 100.531L74.2861 84.2011C74.9023 83.585 75.9068 83.585 76.5229 84.2011L92.8528 100.531L92.8599 100.538C93.1732 100.849 93.3457 101.297 93.312 101.775C93.2708 102.244 93.0277 102.671 92.6589 102.939C91.4388 103.825 89.6647 105.403 88.1703 107.216C87.4185 108.128 86.6907 109.156 86.1411 110.236C85.6019 111.296 85.155 112.56 85.155 113.901C85.155 115.201 85.5436 116.591 86.0289 117.86C86.5303 119.171 87.2144 120.554 87.9703 121.899C89.4786 124.582 91.3713 127.286 92.9641 129.224C93.3741 129.732 93.436 130.448 93.1126 131.024L93.0967 131.053M65.2251 208.289C66.5164 207.745 67.9175 207.327 69.4028 206.973C69.6735 206.911 69.9108 206.827 70.0202 206.788L70.0401 206.78C70.0955 206.761 70.1269 206.75 70.1422 206.745C71.8397 206.394 73.5921 206.206 75.3849 206.206H181.525C183.328 206.206 185.091 206.397 186.797 206.751C186.81 206.755 186.829 206.762 186.853 206.771C186.87 206.777 186.895 206.786 186.924 206.797C186.973 206.814 187.036 206.837 187.1 206.858C187.205 206.893 187.343 206.935 187.505 206.973C188.988 207.323 190.376 207.739 191.665 208.281C191.681 208.29 191.7 208.3 191.719 208.311C191.785 208.347 191.876 208.394 191.988 208.441C195.075 209.803 197.837 211.735 200.167 214.122C204.757 218.841 207.597 225.238 207.612 232.293C207.61 233.165 206.901 233.872 206.029 233.872H50.9004C50.0272 233.872 49.3176 233.163 49.3176 232.29C49.3176 225.229 52.1559 218.833 56.746 214.122C59.0787 211.73 61.8579 209.792 64.9506 208.428C65.0252 208.395 65.0887 208.364 65.1388 208.337C65.1649 208.323 65.1888 208.31 65.21 208.298M65.2251 208.289L65.21 208.298M65.2251 208.289C65.2202 208.292 65.2152 208.295 65.21 208.298M93.0967 131.053L93.0957 131.055L93.0967 131.053ZM35.6372 124.941C35.641 124.944 35.6453 124.947 35.6501 124.951C35.658 124.957 35.6803 124.974 35.6946 124.985C35.7268 125.008 35.898 125.12 36.0422 125.2C35.8992 125.127 35.7636 125.04 35.6372 124.941Z" stroke="#222831" stroke-width="5" stroke-linejoin="round" />
  </g>
  <g id="wr" fill="none" transform="scale(0.15625 0.15625)">
    <path d="M81.4904 129.983C81.2969 128.936 80.4689 128.144 79.4484 127.972C71.1336 126.415 64.8257 119.136 64.8257 110.402V45.0828C64.8257 44.2096 65.5353 43.5 66.4085 43.5H90.9027C91.7759 43.5 92.4855 44.2096 92.4855 45.0828V73.6584C92.4855 75.0391 93.6048 76.1584 94.9855 76.1584H111.314C112.695 76.1584 113.814 75.0391 113.814 73.6584V45.0828C113.814 44.2096 114.524 43.5 115.397 43.5H139.891C140.764 43.5 141.474 44.2095 141.474 45.0827C141.474 45.0827 141.474 45.0828 141.474 45.0828L141.472 73.6583C141.472 74.3214 141.736 74.9573 142.205 75.4261C142.673 75.895 143.309 76.1584 143.972 76.1584H160.302C161.683 76.1584 162.802 75.0391 162.802 73.6584V45.0828C162.802 44.2096 163.512 43.5 164.385 43.5H188.879C189.753 43.5 190.462 44.2101 190.462 45.0814V110.4C190.462 119.15 184.135 126.437 175.802 127.979C174.783 128.167 173.987 128.964 173.798 129.982C172.255 138.316 164.968 144.642 156.22 144.642H99.0677C90.3195 144.642 83.032 138.316 81.4904 129.983ZM172.552 182.303C172.706 182.303 172.92 182.347 173.259 182.532C173.478 182.654 173.715 182.744 173.965 182.796C178.872 183.827 183.231 186.68 185.993 190.882C186.099 191.044 186.224 191.192 186.364 191.325C186.666 191.611 186.856 192.015 186.856 192.481C186.856 193.067 186.655 193.496 186.431 193.734C186.247 193.929 185.951 194.111 185.38 194.07C185.321 194.066 185.261 194.063 185.201 194.063H185.11C185.062 194.063 185.009 194.061 184.944 194.055L183.57 193.883C183.565 193.882 183.561 193.881 183.556 193.881C183.497 193.873 183.437 193.864 183.376 193.856C182.627 193.753 181.687 193.623 180.717 193.623H74.5771C73.59 193.623 72.6495 193.754 71.8928 193.859C71.8394 193.867 71.7869 193.874 71.7353 193.881C71.7304 193.882 71.7254 193.882 71.7205 193.883L70.3589 194.054C69.6954 194.113 69.1905 193.846 68.8587 193.337L68.8516 193.326C68.5273 192.834 68.509 192.198 68.8098 191.681L68.8105 191.68C71.4936 187.065 76.0741 183.923 81.2696 182.818C81.5207 182.765 81.762 182.673 81.9852 182.546C82.3456 182.341 82.5671 182.293 82.7262 182.293C84.4067 182.293 85.8147 181.329 86.8602 180.281C87.9587 179.181 89.0068 177.645 89.9921 175.756C91.97 171.964 93.8947 166.362 95.4453 158.859L95.4459 158.855C95.5883 158.162 96.3352 157.572 97.1185 157.6C97.3331 157.614 97.5276 157.64 97.8038 157.675C97.897 157.688 97.9994 157.701 98.1149 157.715C98.2171 157.728 98.3199 157.735 98.4229 157.735L156.212 157.809C156.311 157.809 156.41 157.803 156.508 157.791C156.65 157.775 156.779 157.759 156.895 157.746C157.657 157.655 157.907 157.626 158.174 157.609C158.987 157.565 159.677 158.111 159.832 158.865L159.833 158.868C161.383 166.368 163.308 171.969 165.285 175.762C166.27 177.651 167.318 179.188 168.416 180.289C169.462 181.337 170.87 182.303 172.552 182.303ZM74.577 206.797H180.717C195.094 206.797 206.793 218.496 206.793 232.873C206.793 233.746 206.083 234.455 205.21 234.455H50.0814C49.2102 234.455 48.5 233.746 48.5 232.873C48.5 218.496 60.1991 206.797 74.577 206.797Z" fill="#DDDDDD" stroke="#222831" stroke-width="5" stroke-linejoin="round" />
  </g>
</svg>