<svg xmlns="http://www.w3.org/2000/svg" width="40" height="40" viewbox="0.0 0.0 180.0 180.0">
  <g id="bb" fill="none" transform="scale(0.2222222222222222 0.2222222222222222)">
    <path d="M105.109 111.896C99.8747 110.738 94.1107 110.159 87.8192 110.159C81.2756 110.159 75.4363 110.764 70.3024 111.971L70.8306 116.502C76.0151 115.344 81.6784 114.765 87.8192 114.765C94.1614 114.765 99.7487 115.344 104.581 116.502L105.109 111.896ZM72.7183 136.132C73.1211 135.126 74.7568 134.27 77.6261 133.566C80.4954 132.81 83.8929 132.433 87.8192 132.433C91.6948 132.433 95.0676 132.81 97.9363 133.566C100.806 134.27 102.441 135.126 102.844 136.132L103.146 131.376C98.9685 129.262 93.7839 128.204 87.5925 128.204C84.4211 128.204 81.5018 128.507 78.8344 129.111C76.1664 129.715 73.9766 130.394 72.2655 131.149L72.7183 136.132ZM96.1245 121.409L87.7438 117.936L79.3626 121.409L87.7438 124.882L96.1245 121.409ZM115.68 88.641C116.989 85.4196 116.863 79.7816 115.302 71.7283C113.742 63.6244 110.218 57.7097 104.732 53.9849C103.675 53.0788 102.844 52.6259 102.24 52.6259C101.234 52.6259 100.277 53.1543 99.3713 54.2114C98.5151 55.2182 98.4651 56.3507 99.2199 57.609C105.512 61.9881 109.916 67.5253 112.433 74.2196C114.95 80.8639 116.032 85.671 115.68 88.641ZM87.0637 37.6762C85.0005 37.6762 83.9683 38.6829 83.9683 40.6963C83.9683 42.7601 85.0005 43.792 87.0637 43.792C89.1276 43.792 90.1598 42.7601 90.1598 40.6963C90.1598 38.6829 89.1276 37.6762 87.0637 37.6762ZM105.185 37.8272C103.02 37.8272 101.938 38.9094 101.938 41.0738C101.938 43.2383 103.02 44.3204 105.185 44.3204C107.349 44.3204 108.431 43.2383 108.431 41.0738C108.431 38.9094 107.349 37.8272 105.185 37.8272ZM108.129 117.181L105.789 136.434C105.739 137.945 103.926 139.228 100.353 140.285C96.7787 141.342 92.5003 141.871 87.5171 141.871C82.4833 141.871 78.1796 141.342 74.6061 140.285C71.0826 139.228 69.3208 137.945 69.3208 136.434L67.0556 117.181C63.4815 111.745 60.9649 106.233 59.5052 100.646C58.0455 95.0586 57.3159 89.6979 57.3159 84.564C57.3159 69.111 65.6713 57.2816 82.3826 49.0772C82.3826 48.3221 82.4586 47.3406 82.6093 46.1325C80.8976 44.7231 80.0421 42.9111 80.0421 40.6963C80.0421 36.0654 82.3826 33.75 87.0637 33.75C91.6948 33.75 94.0101 36.0654 94.0101 40.6963C94.0101 42.7601 93.2805 44.4715 91.8208 45.8305C91.8208 47.391 92.0222 48.448 92.4249 49.0017C93.2299 50.1594 94.3628 50.7886 95.8224 50.8893C97.3322 50.7886 98.5404 50.1342 99.4466 48.9262C99.648 48.6242 99.8494 47.6678 100.051 46.057C98.7418 44.698 98.0876 43.0369 98.0876 41.0738C98.0876 36.3423 100.453 33.9765 105.185 33.9765C109.916 33.9765 112.282 36.3423 112.282 41.0738C112.282 43.792 111.125 45.8305 108.809 47.1896C108.607 48.1963 108.557 49.0268 108.658 49.6812C117.165 59.6981 120.864 71.3256 119.757 84.564C119.405 88.3389 118.901 91.9378 118.247 95.3606C117.643 98.7834 116.359 102.332 114.396 106.007C113.44 107.869 112.458 109.757 111.452 111.67C110.445 113.582 109.338 115.419 108.129 117.181ZM87.5925 141.946C95.3944 149.345 104.606 153.046 115.227 153.046C120.412 153.046 125.772 151.409 131.309 148.138C136.896 144.866 141.653 141.77 145.579 138.851C146.032 139.757 145.831 141.242 144.975 143.305C144.119 145.319 143.414 147.03 142.861 148.44C143.465 148.591 144.094 148.817 144.749 149.119C147.517 150.478 149.631 152.189 151.091 154.253C152.601 156.267 153.003 158.029 152.299 159.539C151.896 160.394 151.267 161.024 150.411 161.426C150.512 160.923 150.562 160.52 150.562 160.218C150.562 157.047 148.976 155.462 145.806 155.462C144.849 155.462 144.044 155.688 143.39 156.141C134.631 160.873 125.243 163.238 115.226 163.238C110.344 163.238 105.587 162.408 100.956 160.747C96.3259 159.086 91.8709 157.047 87.5925 154.631C83.4148 157.047 78.9598 159.086 74.2281 160.747C69.5469 162.408 64.7904 163.238 59.958 163.238C49.8408 163.238 40.4531 160.873 31.7954 156.141C31.0907 155.688 30.2854 155.462 29.3793 155.462C26.2082 155.462 24.6226 157.047 24.6226 160.218C24.6226 160.47 24.6226 160.696 24.6226 160.898C24.673 161.099 24.6982 161.275 24.6982 161.426C23.7418 160.923 23.1378 160.293 22.8861 159.539C22.1311 158.029 22.4834 156.267 23.9432 154.253C25.4029 152.189 27.5421 150.478 30.3609 149.119C30.9146 148.867 31.5438 148.641 32.2485 148.44C31.6445 147.03 30.9146 145.319 30.0589 143.305C29.2535 141.242 29.1025 139.757 29.6059 138.851C33.4817 141.77 38.1881 144.866 43.725 148.138C49.262 151.409 54.673 153.046 59.958 153.046C64.9412 153.046 69.8996 152.089 74.8322 150.176C79.8154 148.213 84.069 145.47 87.5925 141.946ZM87.5925 65.3861H83.6662V78.2213H74.6814V85.923H83.6662V105.931H91.4434V85.923H100.428V78.2213H91.4434V65.3861H87.5925Z" fill="#2B1F31" />
    <path d="M105.109 111.896C99.8741 110.738 94.1107 110.159 87.8192 110.159C81.2756 110.159 75.4363 110.764 70.3024 111.971L70.8306 116.502C76.0151 115.344 81.6778 114.765 87.8192 114.765C94.1614 114.765 99.7487 115.344 104.581 116.502L105.109 111.896ZM72.7183 136.132C73.1211 135.126 74.7568 134.27 77.6261 133.566C80.4949 132.81 83.8929 132.433 87.8192 132.433C91.6948 132.433 95.0676 132.81 97.9363 133.566C100.806 134.27 102.441 135.126 102.844 136.132L103.146 131.376C98.9685 129.262 93.7839 128.204 87.5925 128.204C84.4211 128.204 81.5017 128.507 78.8338 129.111C76.1664 129.715 73.9766 130.394 72.2655 131.149L72.7183 136.132ZM96.1245 121.409L87.7432 117.936L79.3626 121.409L87.7432 124.882L96.1245 121.409ZM115.68 88.641C116.988 85.4196 116.863 79.7816 115.302 71.7283C113.742 63.6244 110.218 57.7097 104.732 53.9849C103.675 53.0789 102.844 52.6258 102.24 52.6258C101.234 52.6258 100.277 53.1543 99.3712 54.2114C98.5151 55.2181 98.465 56.3507 99.2199 57.609C105.512 61.9881 109.916 67.5253 112.433 74.2196C114.95 80.8639 116.032 85.671 115.68 88.641ZM87.0637 37.6761C84.9999 37.6761 83.9683 38.6829 83.9683 40.6963C83.9683 42.7601 84.9999 43.7919 87.0637 43.7919C89.1276 43.7919 90.1597 42.7601 90.1597 40.6963C90.1597 38.6829 89.1276 37.6761 87.0637 37.6761ZM105.185 37.8272C103.02 37.8272 101.938 38.9094 101.938 41.0738C101.938 43.2383 103.02 44.3205 105.185 44.3205C107.349 44.3205 108.431 43.2383 108.431 41.0738C108.431 38.9094 107.349 37.8272 105.185 37.8272ZM87.5925 65.3861H83.6662V78.2213H74.6814V85.923H83.6662V105.931H91.4434V85.923H100.428V78.2213H91.4434V65.3861H87.5925Z" fill="#5FB9B0" />
  </g>
  <g id="bk" fill="none" transform="scale(0.2222222222222222 0.2222222222222222)">
    <path d="M127.749 122.919C129.26 121.56 130.165 119.723 130.467 117.408C130.669 116.3 130.518 115.168 130.015 114.01C129.964 113.758 129.939 113.381 129.939 112.877C129.939 110.411 130.795 108.222 132.506 106.309C134.218 104.295 135.375 102.358 135.979 100.495C136.13 100.193 136.281 99.8404 136.432 99.4382C136.583 98.9848 136.76 98.6074 136.961 98.3053C139.377 94.2784 140.358 89.6726 139.906 84.4881C139.553 80.6124 137.867 76.9883 134.847 73.6155C132.783 71.5016 130.115 69.7146 126.843 68.2549C123.622 66.7451 120.074 66.0403 116.197 66.141C115.895 66.141 115.644 66.1663 115.442 66.2164C116.197 66.4684 117.053 66.8458 118.01 67.3492C122.288 70.7721 125.182 74.421 126.692 78.2972C128.202 82.1228 129.033 86.0484 129.184 90.0754C129.385 97.9779 127.196 105.579 122.615 112.877C121.86 113.733 121.407 114.891 121.256 116.351C121.004 118.716 121.004 120.302 121.256 121.107C123.622 121.661 125.786 122.265 127.749 122.919ZM127.749 132.81V127.525C122.867 125.915 116.902 124.631 109.855 123.675C102.859 122.668 95.5097 122.164 87.8079 122.164C80.0567 122.164 72.657 122.668 65.61 123.675C58.6136 124.631 52.6992 125.915 47.867 127.525L47.7915 132.81C52.674 131.25 58.6136 129.991 65.61 129.035C72.657 128.028 80.0567 127.525 87.8085 127.525C103.916 127.525 117.23 129.287 127.749 132.81ZM87.8079 33.75H90.3752V42.5839H96.7933V47.6426H90.3752V58.5906H85.2413V47.6426H78.8231V42.5839H85.2413V33.75H87.8079ZM87.8079 162.408C76.1304 162.408 65.862 161.653 57.0026 160.143C48.1438 158.632 42.5817 156.694 40.3166 154.329L42.5817 135.075C43.1857 131.25 43.2109 128.154 42.6572 125.789C42.4559 124.983 41.9021 122.869 40.9961 119.446C40.1404 115.973 38.58 113.129 36.3149 110.914C34.2008 109.002 32.4894 107.491 31.1807 106.384C29.9223 105.226 28.7898 103.968 27.7831 102.609C24.7629 98.4814 23.0263 93.3727 22.5733 87.282C22.07 80.5871 24.1589 74.6477 28.8401 69.4631C31.4072 66.6444 34.6538 64.5053 38.58 63.0456C42.5565 61.5853 46.6589 60.7298 50.8871 60.4783C53.4039 60.327 55.4173 60.3023 56.9273 60.4029C58.4376 60.5036 60.4508 60.6797 62.9674 60.9311C66.2394 61.3339 69.5363 62.064 72.8584 63.1209C75.5263 60.2516 80.5095 58.8172 87.8079 58.8172C95.0563 58.8172 100.04 60.2516 102.758 63.1209C106.08 62.064 109.377 61.3339 112.649 60.9311C115.115 60.6797 117.104 60.5036 118.614 60.4029C120.124 60.3023 122.162 60.327 124.729 60.4783C128.857 60.7298 132.909 61.5853 136.885 63.0456C140.862 64.5053 144.134 66.6444 146.701 69.4631C151.332 74.6477 153.421 80.5871 152.967 87.282C152.515 93.3727 150.803 98.4814 147.833 102.609C146.776 103.968 145.594 105.226 144.285 106.384C143.026 107.491 141.365 109.002 139.301 110.914C136.936 113.129 135.3 115.973 134.394 119.446C133.538 122.869 133.035 124.983 132.884 125.789C132.33 128.356 132.355 131.451 132.959 135.075L135.3 154.329C132.985 156.694 127.397 158.632 118.538 160.143C109.679 161.653 99.4359 162.408 87.8085 162.408H87.8079ZM47.7914 145.495L51.0381 146.175L60.5514 139.379L48.3955 136.812L47.7914 145.495ZM127.523 145.344L126.994 136.661L114.763 139.228L124.276 146.023L127.523 145.344ZM47.7914 122.919C50.3585 122.114 52.4978 121.51 54.2092 121.107C54.4106 120.302 54.4106 118.716 54.2092 116.351C54.0079 114.891 53.5548 113.733 52.8501 112.877C48.2193 105.579 46.0297 97.9779 46.2814 90.0754C46.3821 86.0484 47.1874 82.1228 48.6975 78.2972C50.2075 74.421 53.127 70.7721 57.456 67.3492C58.3616 66.8458 59.2178 66.4684 60.0233 66.2164C59.8219 66.1663 59.5699 66.141 59.2678 66.141C55.3418 66.0403 51.7428 66.7451 48.471 68.2549C45.2495 69.7146 42.632 71.5016 40.6186 73.6161C37.5482 76.9883 35.8619 80.6124 35.5599 84.4881C35.0565 89.6726 36.0381 94.2784 38.5045 98.3053C38.6555 98.6074 38.7813 98.9848 38.882 99.4382C39.0331 99.8404 39.2344 100.193 39.486 100.495C40.0398 102.358 41.1974 104.295 42.9592 106.309C44.6706 108.222 45.5263 110.411 45.5263 112.877C45.5263 113.079 45.5012 113.28 45.4508 113.482C45.4508 113.683 45.4508 113.859 45.4508 114.01C44.9475 115.067 44.7713 116.2 44.9223 117.408C45.2243 119.774 46.1807 121.611 47.7915 122.92L47.7914 122.919ZM98.8318 136.284L87.8079 131.451L76.86 136.284L87.8079 141.191L98.8318 136.284ZM121.558 154.027C124.579 153.372 127.07 152.618 129.033 151.762C119.318 147.836 105.677 145.873 88.11 145.873C69.8889 145.873 56.0968 147.886 46.7344 151.913C48.8988 152.768 51.4659 153.498 54.4357 154.102C63.6975 151.737 74.9222 150.554 88.11 150.554C100.946 150.554 112.095 151.711 121.558 154.027ZM72.7076 74.7484C69.5363 73.6914 67.1203 72.3071 65.4593 70.5954C59.7713 75.7299 56.8519 82.2482 56.7006 90.1508C56.4491 96.7956 58.3869 103.691 62.5146 110.839C63.4708 112.701 63.9489 114.513 63.9489 116.275C63.9489 117.332 63.8736 118.339 63.7228 119.296C67.7498 118.691 71.55 118.289 75.1236 118.087C75.2749 117.534 75.3249 116.954 75.2749 116.351C75.2749 115.595 75.0229 114.815 74.5194 114.01C73.1604 112.249 72.4309 110.336 72.3302 108.272C71.7261 104.849 71.3734 101.577 71.2733 98.4566C70.8705 90.3021 71.3486 82.3995 72.7076 74.7484ZM93.3953 76.7869C92.1369 76.9382 90.2745 77.0136 87.8079 77.0136C85.6941 77.0136 83.8316 76.9129 82.2212 76.7115C81.063 83.5571 80.6608 90.7301 81.0129 98.2299C81.1136 101.351 81.4658 104.623 82.0699 108.046C82.2212 109.253 82.674 110.285 83.4289 111.141C84.4358 112.852 84.9893 114.538 85.0899 116.2C85.0899 116.452 85.0899 116.703 85.0899 116.954C85.0899 117.206 85.0899 117.408 85.0899 117.559C85.5433 117.559 85.9961 117.559 86.4489 117.559C86.9023 117.559 87.3551 117.559 87.8079 117.559C88.2613 117.559 88.7141 117.559 89.1675 117.559C89.6203 117.559 90.0731 117.559 90.5265 117.559C90.5265 117.408 90.5265 117.206 90.5265 116.954C90.5265 116.703 90.5265 116.452 90.5265 116.2C90.5766 114.538 91.1306 112.852 92.1876 111.141C92.8924 110.285 93.3452 109.253 93.5466 108.046C93.9994 105.076 94.3268 101.804 94.5281 98.2299C94.8803 90.8308 94.5028 83.6831 93.3953 76.7869ZM110.082 70.7467C108.471 72.3071 106.03 73.6914 102.758 74.8991C104.066 82.5002 104.545 90.3521 104.192 98.4566C104.042 101.577 103.689 104.849 103.136 108.272C102.884 110.436 102.154 112.349 100.946 114.01C100.442 114.815 100.191 115.595 100.191 116.351C100.09 116.904 100.14 117.458 100.342 118.012C102.355 118.163 104.343 118.339 106.306 118.54C108.269 118.691 110.157 118.918 111.97 119.22C111.668 117.911 111.516 116.93 111.516 116.275C111.516 114.513 111.994 112.701 112.951 110.839C117.028 103.691 118.966 96.7956 118.765 90.1508C118.563 82.2988 115.669 75.8306 110.082 70.7467Z" fill="#2B1F31" />
    <path d="M127.749 132.811V127.525C122.867 125.914 116.902 124.631 109.855 123.675C102.859 122.668 95.5097 122.165 87.8085 122.165C80.0567 122.165 72.6576 122.668 65.6106 123.675C58.6136 124.631 52.6992 125.914 47.867 127.525L47.7915 132.811C52.6741 131.25 58.6136 129.992 65.6106 129.035C72.6576 128.029 80.0567 127.525 87.8085 127.525C103.916 127.525 117.23 129.287 127.749 132.811ZM47.7915 145.495L51.0382 146.175L60.5514 139.38L48.3955 136.812L47.7915 145.495ZM127.523 145.344L126.994 136.662L114.763 139.228L124.276 146.024L127.523 145.344ZM98.8318 136.284L87.8085 131.452L76.8606 136.284L87.8085 141.191L98.8318 136.284ZM121.558 154.027C124.579 153.373 127.07 152.618 129.033 151.762C119.319 147.836 105.677 145.873 88.1106 145.873C69.8889 145.873 56.0969 147.886 46.7345 151.913C48.8989 152.769 51.466 153.498 54.4358 154.102C63.6975 151.737 74.9222 150.554 88.1106 150.554C100.946 150.554 112.095 151.712 121.558 154.027Z" fill="#5FB9B0" />
  </g>
  <g id="bn" fill="none" transform="scale(0.2222222222222222 0.2222222222222222)">
    <path d="M83.3974 50.625C82.9445 50.625 82.4411 51.3548 81.8871 52.8146C81.3842 54.224 81.1322 55.5579 81.1322 56.8164C81.0821 58.1248 81.4089 58.7289 82.1137 58.6283C82.8686 58.4775 83.5987 58.4021 84.3036 58.4021C84.9077 58.4021 85.6626 58.3262 86.5687 58.1754C87.525 57.9741 87.7011 57.3446 87.0969 56.2877C86.4928 55.2307 85.8386 54.0227 85.1338 52.6636C84.429 51.3046 83.8502 50.625 83.3974 50.625ZM69.5801 55.0042C68.3724 55.1049 67.8437 56.6904 67.9944 59.7611C67.9944 60.8681 68.3218 61.2456 68.976 60.8934C69.6307 60.5413 70.2849 60.3647 70.9391 60.3647C71.5432 60.3647 72.2981 60.3647 73.2043 60.3647C74.1105 60.3146 74.2365 59.8618 73.5817 59.0057C72.8269 58.1501 72.0973 57.2692 71.3925 56.3631C70.7377 55.4572 70.1342 55.0042 69.5801 55.0042ZM137.684 158.368C137.382 141.657 136.25 127.387 134.287 115.558C132.324 103.679 129.152 93.1331 124.773 83.9222C121.35 76.8246 117.298 71.4639 112.617 67.8398C107.986 64.1655 102.953 61.6736 97.5167 60.3647C94.0939 60.1132 92.3569 60.7427 92.3068 62.2524C92.1054 63.8634 93.6157 64.7944 96.8372 65.0464C101.82 66.6067 106.325 69.2741 110.352 73.0496C114.379 76.7745 117.953 82.1098 121.074 89.0561C124.899 97.8649 127.592 107.831 129.152 118.956C130.763 130.029 131.518 143.167 131.417 158.368H137.684ZM48.5903 111.028C49.3454 110.172 49.3956 109.165 48.7412 108.007C45.7714 108.209 43.5315 109.14 42.0214 110.801C40.9644 112.06 40.6875 113.519 41.1909 115.18C41.4426 116.439 42.1724 117.093 43.3805 117.143C44.4375 117.143 45.2429 115.608 45.7966 112.538C46.7026 112.236 47.6338 111.732 48.5902 111.028H48.5903ZM89.5888 109.82C92.2562 110.977 95.1761 111.556 98.3469 111.556C99.4039 111.556 100.461 111.481 101.518 111.329C102.877 111.329 103.557 110.625 103.557 109.216C103.557 107.857 102.852 107.126 101.443 107.026C100.385 107.177 99.3791 107.252 98.4223 107.252C96.6105 107.252 95.0754 107.051 93.8165 106.648C93.9172 106.648 94.0179 106.624 94.1186 106.573C94.2699 106.523 94.4207 106.472 94.572 106.422C98.1455 105.466 101.242 103.754 103.859 101.288C104.01 100.533 104.086 100.105 104.086 100.004C104.086 98.595 103.456 97.8902 102.198 97.8902C102.248 97.8902 101.896 97.9656 101.141 98.1169C99.3285 99.8786 97.0132 101.212 94.1946 102.118C96.1577 99.4005 97.4407 96.2792 98.0449 92.7557C98.3976 90.5918 98.4476 88.4773 98.1962 86.4135C98.0955 84.501 97.3907 83.5447 96.0817 83.5447C94.7227 83.5447 94.0432 84.4757 94.0432 86.3381C94.194 88.5026 94.1186 90.3651 93.8165 91.9254C93.0617 96.3045 91.1492 99.7526 88.0785 102.269C87.2229 103.226 86.7949 104.333 86.7949 105.591C86.7949 107.655 87.7264 109.065 89.5888 109.82ZM72.8269 105.516C73.3303 105.969 73.9091 106.195 74.5633 106.195C76.1743 106.195 76.9798 105.415 76.9798 103.855C76.9798 103.251 76.7278 102.697 76.2244 102.194C75.3688 101.338 74.6893 100.306 74.1859 99.0984C74.9914 98.5444 76.0989 98.1169 77.508 97.8148C78.1627 97.3114 78.4642 96.7073 78.4142 96.0024C78.3135 94.7441 77.3825 94.266 75.6202 94.5681C71.4425 95.5749 68.0197 97.1353 65.3518 99.2492C64.1942 100.155 63.1625 101.238 62.2564 102.496C61.5015 103.553 61.124 104.358 61.124 104.912C61.2748 106.523 61.8283 107.278 62.7851 107.177C63.8421 107.126 64.5469 106.573 64.899 105.516C65.9059 104.157 67.0635 102.999 68.3724 102.043C68.8252 101.59 69.3287 101.262 69.8822 101.061C70.587 102.521 71.5685 104.006 72.8269 105.516ZM63.3892 77.1266C62.181 77.7308 61.6275 78.6116 61.7276 79.7693C61.7782 81.531 62.8858 82.3618 65.0503 82.2611C65.2511 82.2105 65.9059 81.8584 67.0129 81.2036C67.9697 82.2105 69.1526 82.6639 70.5617 82.5632C73.3804 82.3112 74.664 80.8262 74.4125 78.1082C74.3119 77.202 73.8838 76.2458 73.1289 75.2389C73.8337 73.8799 74.2612 73.0749 74.4125 72.8229C74.3619 72.7222 74.3372 72.6216 74.3372 72.5209C74.3372 72.3701 74.3372 72.2188 74.3372 72.0681C74.2365 70.407 73.305 69.6521 71.5432 69.8029C70.3856 69.9036 69.6054 70.4571 69.2027 71.4639C67.6423 74.0312 65.7045 75.9184 63.3887 77.1266H63.3892ZM143.574 163.578H60.1425C60.6459 148.326 63.5147 137.429 68.7499 130.885C71.3166 127.664 73.9592 124.392 76.6777 121.07C79.3957 117.697 81.9877 113.62 84.4543 108.838C82.4912 109.09 80.9055 109.09 79.6978 108.838C78.9429 108.737 77.81 108.435 76.3003 107.932C74.0852 108.687 72.374 109.769 71.1658 111.179C70.0082 112.538 69.0519 113.897 68.2965 115.256C64.6723 121.346 61.929 125.776 60.0666 128.545C58.2547 131.313 56.2161 132.32 53.9511 131.565C51.837 130.91 50.3017 130.608 49.3454 130.659C48.3889 130.709 47.4578 130.432 46.5517 129.828C45.7967 129.325 45.7212 128.267 46.3252 126.657C46.8286 125.097 48.3135 123.888 50.7799 123.033C52.9443 122.278 54.1272 120.969 54.3285 119.107C54.5299 117.194 53.4225 116.741 51.0064 117.748C49.9494 118.2 48.3889 119.861 46.3252 122.731C45.1172 124.392 43.9594 125.524 42.852 126.128C40.6373 127.236 38.6994 126.481 37.0383 123.863C36.0316 122.353 35.2766 120.994 34.7732 119.786C34.2698 118.528 33.9426 116.841 33.7917 114.727C33.5903 112.16 34.1188 109.97 35.3772 108.159C36.6356 106.346 37.7934 105.013 38.8503 104.157C39.9577 103.301 40.9644 102.571 41.8705 101.967C42.7765 101.313 43.5316 100.684 44.1356 100.079C45.7464 98.3177 47.6591 95.9271 49.8739 92.907C51.7363 89.7862 52.9947 87.1183 53.649 84.9037C54.3537 82.6386 54.9829 80.1214 55.5366 77.3533C56.1406 73.9806 56.8204 70.9104 57.5752 68.1418C58.3301 65.3732 60.1172 62.1264 62.9359 58.4021C62.6844 57.2439 62.4577 55.7592 62.2564 53.9471C62.1056 52.4874 62.0297 51.4304 62.0297 50.776C62.0803 50.0713 62.1056 48.8885 62.1056 47.2273C62.1056 43.6032 63.0112 41.7911 64.8236 41.7911C65.8806 41.7911 66.6354 42.2945 67.0888 43.3012C67.5416 44.2576 68.7999 45.9438 70.8637 48.3599C72.7768 50.7257 74.5132 52.4874 76.0736 53.6451C76.4257 50.927 77.4326 47.8565 79.0937 44.4337C80.7047 41.0613 82.0131 39.375 83.0199 39.375C83.4227 39.375 84.0516 40.0797 84.9077 41.4891C85.8133 42.8985 86.6188 44.2827 87.3236 45.6418C88.0785 47.2022 88.6826 48.5361 89.1354 49.6434C89.6389 50.7508 90.369 52.0595 91.3252 53.5696L105.067 52.8146L106.275 57.2693L116.317 57.798L116.77 63.7627L126.812 66.0279L124.773 72.8983L136.477 79.3918L130.285 82.8647L140.478 91.0946L135.419 94.0393L144.555 103.704L138.364 106.648L147.727 116.464L139.723 116.841L147.575 128.016L140.78 129.526L148.557 142.437L141.158 142.059L146.82 152.555L141.158 155.499L147.046 160.86L143.574 163.578Z" fill="#2B1F31" />
    <path d="M83.3979 50.625C82.9446 50.625 82.4417 51.3548 81.8876 52.8146C81.3842 54.224 81.1327 55.5579 81.1327 56.8164C81.0821 58.1248 81.4095 58.7289 82.1143 58.6283C82.8692 58.4775 83.5993 58.4021 84.3036 58.4021C84.9077 58.4021 85.6631 58.3262 86.5687 58.1754C87.5256 57.9741 87.7016 57.3446 87.0975 56.2877C86.4934 55.2307 85.8392 54.0227 85.1344 52.6636C84.4296 51.3046 83.8507 50.625 83.3979 50.625ZM69.5807 55.0042C68.3724 55.1049 67.8442 56.6904 67.995 59.7611C67.995 60.8681 68.3224 61.2456 68.9766 60.8934C69.6307 60.5413 70.2855 60.3647 70.9397 60.3647C71.5438 60.3647 72.2987 60.3647 73.2049 60.3647C74.1111 60.3146 74.2365 59.8618 73.5823 59.0057C72.8274 58.1501 72.0973 57.2692 71.3925 56.3631C70.7383 55.4572 70.1342 55.0042 69.5807 55.0042ZM137.685 158.368C137.383 141.657 136.25 127.387 134.287 115.558C132.324 103.679 129.153 93.1331 124.774 83.9222C121.351 76.8246 117.299 71.4639 112.618 67.8398C107.986 64.1655 102.953 61.6736 97.5167 60.3647C94.0939 60.1132 92.3574 60.7427 92.3074 62.2524C92.106 63.8634 93.6157 64.7944 96.8372 65.0464C101.82 66.6067 106.325 69.2741 110.352 73.0496C114.379 76.7745 117.953 82.1098 121.074 89.0561C124.9 97.8649 127.592 107.831 129.153 118.956C130.764 130.029 131.519 143.167 131.418 158.368H137.685ZM48.5908 111.028C49.3458 110.172 49.396 109.165 48.7416 108.007C45.7719 108.209 43.5319 109.14 42.0218 110.801C40.9648 112.06 40.688 113.519 41.1913 115.18C41.443 116.439 42.1729 117.093 43.3809 117.143C44.4379 117.143 45.2433 115.608 45.797 112.538C46.7031 112.236 47.6343 111.732 48.5908 111.028ZM89.5888 109.82C92.2567 110.977 95.1761 111.556 98.3475 111.556C99.4044 111.556 100.461 111.481 101.519 111.329C102.878 111.329 103.557 110.625 103.557 109.216C103.557 107.857 102.853 107.126 101.443 107.026C100.386 107.177 99.3791 107.252 98.4229 107.252C96.6111 107.252 95.0754 107.051 93.8171 106.648C93.9178 106.648 94.0185 106.624 94.1192 106.573C94.2705 106.523 94.4212 106.472 94.5726 106.422C98.1461 105.466 101.242 103.754 103.859 101.288C104.01 100.533 104.086 100.105 104.086 100.004C104.086 98.595 103.457 97.8902 102.198 97.8902C102.248 97.8902 101.896 97.9656 101.141 98.1169C99.3291 99.8786 97.0138 101.212 94.1946 102.118C96.1577 99.4005 97.4413 96.2792 98.0454 92.7557C98.3976 90.5918 98.4482 88.4773 98.1962 86.4135C98.0955 84.501 97.3912 83.5447 96.0823 83.5447C94.7233 83.5447 94.0438 84.4757 94.0438 86.3381C94.1946 88.5026 94.1192 90.3651 93.8171 91.9254C93.0622 96.3045 91.1492 99.7526 88.0791 102.269C87.2229 103.226 86.7954 104.333 86.7954 105.591C86.7954 107.655 87.7264 109.065 89.5888 109.82ZM72.8274 105.516C73.3309 105.969 73.9097 106.195 74.5639 106.195C76.1749 106.195 76.9798 105.415 76.9798 103.855C76.9798 103.251 76.7284 102.697 76.2249 102.194C75.3694 101.338 74.6899 100.306 74.1864 99.0984C74.9919 98.5444 76.0989 98.1169 77.5086 97.8148C78.1627 97.3114 78.4648 96.7073 78.4147 96.0024C78.3141 94.7441 77.3826 94.266 75.6208 94.5681C71.4431 95.5749 68.0203 97.1353 65.3524 99.2492C64.1947 100.155 63.1631 101.238 62.2569 102.496C61.5021 103.553 61.1241 104.358 61.1241 104.912C61.2754 106.523 61.8289 107.278 62.7851 107.177C63.8426 107.126 64.5469 106.573 64.8996 105.516C65.9064 104.157 67.0641 102.999 68.3724 102.043C68.8258 101.59 69.3292 101.262 69.8827 101.061C70.5876 102.521 71.5691 104.006 72.8274 105.516ZM63.3892 77.1266C62.1816 77.7308 61.6275 78.6116 61.7282 79.7693C61.7788 81.531 62.8858 82.3618 65.0503 82.2611C65.2517 82.2105 65.9064 81.8584 67.0134 81.2036C67.9697 82.2105 69.1526 82.6633 70.5622 82.5632C73.3809 82.3112 74.6646 80.8262 74.4131 78.1082C74.3124 77.202 73.8844 76.2458 73.1295 75.2389C73.8343 73.8799 74.2618 73.0749 74.4131 72.8229C74.3625 72.7222 74.3372 72.6216 74.3372 72.5209C74.3372 72.3701 74.3372 72.2188 74.3372 72.0681C74.2365 70.407 73.3056 69.6521 71.5438 69.8029C70.3862 69.9036 69.606 70.4571 69.2032 71.4639C67.6429 74.0312 65.7051 75.9184 63.3892 77.1266Z" fill="#5FB9B0" />
  </g>
  <g id="bp" fill="none" transform="scale(0.2222222222222222 0.2222222222222222)">
    <path d="M80.235 61.5718C77.175 59.202 75.645 55.9379 75.645 51.779C75.645 48.3939 76.77 45.4924 79.02 43.0745C81.27 40.6082 83.9925 39.375 87.1875 39.375C90.3375 39.375 93.0375 40.6082 95.2875 43.0745C97.5375 45.4924 98.6625 48.3939 98.6625 51.779C98.6625 55.8895 97.1325 59.1778 94.0725 61.6444L107.843 78.6904H98.73L98.6625 99.2914C102.758 101.613 106.087 104.925 108.652 109.229C111.217 113.533 112.5 118.297 112.5 123.519C112.5 128.258 111.465 132.61 109.395 136.576C107.325 140.493 104.603 143.685 101.228 146.151L110.205 163.125H64.17L73.1475 146.151C65.6325 140.783 61.875 133.239 61.875 123.519C61.875 118.297 63.135 113.533 65.655 109.229C68.22 104.877 71.55 101.564 75.645 99.2914L75.7125 78.6904H66.5325L80.235 61.5718Z" fill="#2B1F31" />
  </g>
  <g id="bq" fill="none" transform="scale(0.2222222222222222 0.2222222222222222)">
    <path d="M54.1359 138.851L56.4767 139.153L65.1594 131.602L53.4564 129.337C54.2617 132.408 54.4882 135.579 54.1359 138.851ZM130.319 154.782L129.186 146.854C120.126 144.035 107.668 142.626 91.8118 142.626C75.9566 142.626 63.4477 144.035 54.2869 146.854L53.1543 154.707C61.3592 151.233 74.3203 149.497 92.0385 149.497C109.153 149.497 121.913 151.258 130.319 154.782ZM129.186 138.851C128.935 135.579 129.136 132.458 129.79 129.488L118.163 131.602L126.77 139.153L129.186 138.851ZM52.8523 122.995C62.3154 120.579 75.3773 119.371 92.0385 119.371C100.042 119.371 107.341 119.648 113.934 120.201C120.579 120.705 126.191 121.535 130.772 122.693C130.671 121.686 130.772 120.705 131.074 119.748C131.426 118.741 131.753 117.71 132.055 116.653C122.24 113.985 108.8 112.651 91.7364 112.651C74.421 112.651 60.9311 113.985 51.2668 116.653C51.5688 117.71 51.896 118.767 52.2483 119.824C52.651 120.881 52.8523 121.938 52.8523 122.995ZM102.232 131.3L91.7364 126.166L81.3172 131.3L91.7364 136.434L102.232 131.3ZM37.4497 77.6177L41.7534 75.4279L54.8155 97.3237C56.0235 98.532 57.4076 99.1361 58.968 99.1361C62.4414 99.1361 64.1779 97.3744 64.1779 93.8509C64.1779 93.3975 64.1526 93.0707 64.1025 92.8693L61.1578 65.4615L66.3671 64.5553L76.032 90.4528C77.1896 92.1139 78.6994 92.9447 80.5618 92.9447C83.7332 92.9447 85.4696 91.4096 85.7717 88.3389L89.1692 56.5521H94.3037L97.6258 88.3389C97.9779 91.4096 99.7149 92.9447 102.836 92.9447C104.698 92.9447 106.183 92.1139 107.29 90.4528L117.106 64.5553L122.164 65.6122L119.144 92.7934C119.144 92.9947 119.119 93.1961 119.069 93.3975C119.069 93.5488 119.069 93.6996 119.069 93.8509C119.069 97.3744 120.831 99.1361 124.354 99.1361C125.864 99.1361 127.273 98.532 128.582 97.3237L141.795 75.3525L146.552 77.5417C140.763 89.6726 137.869 102.534 137.869 116.124C137.869 116.879 137.869 117.71 137.869 118.615C137.869 119.522 137.793 120.679 137.643 122.089C135.881 127.827 135 133.062 135 137.793C135 143.683 136.107 149.446 138.322 155.084C135.805 157.198 130.243 158.96 121.636 160.369C113.028 161.778 103.112 162.483 91.8877 162.483C80.4611 162.483 70.3941 161.754 61.686 160.293C53.0285 158.784 47.567 156.896 45.3019 154.631C47.416 149.345 48.473 143.733 48.473 137.793C48.473 133.062 47.6677 127.827 46.0569 122.089C46.0066 120.679 45.9814 119.522 45.9814 118.615C46.0317 117.71 46.0569 116.879 46.0569 116.124C46.0569 102.684 43.1878 89.8492 37.4496 77.6177H37.4497ZM91.7364 56.4007C88.5656 56.4007 85.8724 55.3188 83.6578 53.1543C81.4933 50.9396 80.4111 48.2466 80.4111 45.0755C80.4111 42.005 81.4933 39.3624 83.6578 37.1477C85.8724 34.8825 88.5656 33.75 91.7364 33.75C94.8572 33.75 97.5251 34.8825 99.7397 37.1477C101.955 39.3624 103.062 42.005 103.062 45.0755C103.062 48.2466 101.955 50.9396 99.7397 53.1543C97.5251 55.3188 94.8572 56.4007 91.7364 56.4007ZM61.5352 64.8574C58.4145 64.8574 55.7466 63.7751 53.5319 61.6106C51.3171 59.3961 50.2097 56.7028 50.2097 53.5319C50.2097 50.4614 51.3171 47.8188 53.5319 45.604C55.7466 43.3389 58.4145 42.2064 61.5352 42.2064C64.656 42.2064 67.3239 43.3389 69.5385 45.604C71.7536 47.8188 72.8606 50.4614 72.8606 53.5319C72.8606 56.7028 71.7536 59.3961 69.5385 61.6106C67.3239 63.7751 64.656 64.8574 61.5352 64.8574ZM121.938 64.8574C118.767 64.8574 116.074 63.7751 113.859 61.6106C111.695 59.3961 110.612 56.7028 110.612 53.5319C110.612 50.4614 111.695 47.8188 113.859 45.604C116.074 43.3389 118.767 42.2064 121.938 42.2064C125.059 42.2064 127.726 43.3389 129.941 45.604C132.156 47.8188 133.264 50.4614 133.264 53.5319C133.264 56.7028 132.156 59.3961 129.941 61.6106C127.726 63.7751 125.059 64.8574 121.938 64.8574ZM33.8255 77.8438C30.6544 77.8438 27.9614 76.7368 25.7466 74.5217C23.5822 72.3071 22.5 69.6392 22.5 66.5184C22.5 63.3977 23.5822 60.7298 25.7466 58.5152C27.9614 56.3001 30.6544 55.193 33.8255 55.193C36.896 55.193 39.5386 56.3001 41.7534 58.5152C44.0184 60.7298 45.151 63.3977 45.151 66.5184C45.151 69.6392 44.0184 72.3071 41.7534 74.5217C39.5386 76.7368 36.896 77.8438 33.8255 77.8438ZM149.799 77.8438C146.627 77.8438 143.935 76.7368 141.72 74.5217C139.555 72.3071 138.473 69.6392 138.473 66.5184C138.473 63.3977 139.555 60.7298 141.72 58.5152C143.935 56.25 146.627 55.1175 149.799 55.1175C152.92 55.1175 155.587 56.25 157.802 58.5152C160.017 60.7298 161.124 63.3977 161.124 66.5184C161.124 69.6392 160.017 72.3071 157.802 74.5217C155.587 76.7368 152.92 77.8438 149.799 77.8438Z" fill="#2B1F31" />
    <path fill-rule="evenodd" clip-rule="evenodd" d="M56.4761 139.153L54.1358 138.851C54.4882 135.579 54.2616 132.408 53.4563 129.337L65.1595 131.602L56.4761 139.153ZM129.79 129.488C129.136 132.458 128.935 135.579 129.186 138.851L126.77 139.153L118.163 131.602L129.79 129.488ZM92.0385 119.371C75.3773 119.371 62.3155 120.579 52.8522 122.995C52.8522 121.938 52.6509 120.881 52.2482 119.824C51.8959 118.767 51.5687 117.71 51.2667 116.653C60.9311 113.985 74.421 112.651 91.7365 112.651C108.8 112.651 122.24 113.985 132.055 116.653C131.753 117.71 131.426 118.741 131.074 119.748C130.772 120.705 130.671 121.686 130.772 122.693C126.191 121.535 120.579 120.705 113.934 120.201C107.341 119.648 100.042 119.371 92.0385 119.371ZM91.7365 126.166L102.232 131.3L91.7365 136.434L81.3173 131.3L91.7365 126.166Z" fill="#5FB9B0" />
    <path d="M130.319 154.782L129.186 146.854C120.126 144.035 107.668 142.626 91.8118 142.626C75.956 142.626 63.4477 144.035 54.2868 146.854L53.1542 154.707C61.3591 151.233 74.3203 149.497 92.0385 149.497C109.153 149.497 121.913 151.258 130.319 154.782Z" fill="#5FB9B0" />
  </g>
  <g id="br" fill="none" transform="scale(0.2222222222222222 0.2222222222222222)">
    <path d="M49.568 141.796V149.648H126.883V141.796H49.568ZM126.883 131.602L131.942 136.812V141.796H137.076V162.559H39.375V141.796H44.4337V136.812L49.568 131.602H59.7611V136.736H116.691V131.602H126.883ZM103.628 64.4799H121.749V77.391H103.628V64.4799ZM77.8815 64.4799H98.5697V77.391H77.8815V64.4799ZM54.7022 64.4799V77.391H72.7476V64.4799H54.7022ZM90.8685 82.5249H107.555V95.436H90.8685V82.5249ZM68.8967 82.5249H85.5073V95.436H68.8967V82.5249ZM112.764 82.5249H121.749V95.436H112.764V82.5249ZM54.7022 82.5249H63.7627V95.436H54.7022V82.5249ZM112.764 118.616H121.749V131.602H112.764V118.616ZM90.8685 118.616H107.555V131.602H90.8685V118.616ZM68.8967 118.616H85.5073V131.602H68.8967V118.616ZM103.628 100.57H121.749V113.482H103.628V100.57ZM77.8815 100.57H98.5697V113.482H77.8815V100.57ZM54.7022 100.57H72.7476V113.482H54.7022V100.57ZM54.7022 118.616H63.7627V131.602H54.7022V118.616ZM116.691 64.4799V59.3454H59.7611V64.4799H44.4337V33.75H62.4791V45.302H78.0328V33.75H98.4184V45.302H113.972V33.75H131.942V64.4799H116.691Z" fill="#2B1F31" />
    <path fill-rule="evenodd" clip-rule="evenodd" d="M59.7611 131.603V136.736H116.691V131.603H112.764V118.616H121.749V113.482H103.628V100.571H121.749V95.4366H112.764V82.5255H121.749V77.391H103.628V64.4799H116.691V59.346H59.7611V64.4799H72.7476V77.391H54.7021V82.5255H63.7628V95.4366H54.7021V100.571H72.7476V113.482H54.7021V118.616H63.7628V131.603H59.7611ZM98.5697 64.4799H77.8815V77.391H98.5697V64.4799ZM107.555 82.5255H90.8685V95.4366H107.555V82.5255ZM85.5073 82.5255H68.8967V95.4366H85.5073V82.5255ZM107.555 118.616H90.8685V131.603H107.555V118.616ZM85.5073 118.616H68.8967V131.603H85.5073V118.616ZM98.5697 100.571H77.8815V113.482H98.5697V100.571Z" fill="#5FB9B0" />
    <path d="M49.5679 141.796V149.648H126.883V141.796H49.5679Z" fill="#5FB9B0" />
  </g>
  <g id="wb" fill="none" transform="scale(0.2222222222222222 0.2222222222222222)">
    <path d="M87.5925 146.325C78.8344 151.611 69.6229 154.253 59.9586 154.253C55.4281 154.253 51.074 153.599 46.8962 152.29C42.7687 150.931 38.8929 149.195 35.2687 147.081C35.3693 147.332 35.4196 147.684 35.4196 148.138C35.47 148.541 35.5454 148.817 35.6461 148.968C35.7971 149.27 35.9733 149.572 36.1747 149.874C36.4263 150.176 36.6276 150.428 36.7787 150.629C35.2686 150.629 33.6579 151.057 31.9465 151.913C40.6042 156.997 49.9414 159.539 59.958 159.539C69.7736 159.539 78.9851 157.072 87.5925 152.139C96.1492 157.072 105.361 159.539 115.226 159.539C125.243 159.539 134.556 156.997 143.163 151.913C141.451 151.057 139.841 150.629 138.331 150.629C138.834 150.025 139.211 149.471 139.463 148.968C139.564 148.817 139.69 148.541 139.841 148.138C139.992 147.684 140.143 147.332 140.294 147.081C136.619 149.195 132.643 150.931 128.364 152.29C124.136 153.599 119.757 154.253 115.226 154.253C105.512 154.253 96.3006 151.611 87.5925 146.325ZM87.5925 141.946C96.1999 147.483 105.411 150.252 115.227 150.252C120.412 150.252 125.772 149.094 131.309 146.779C136.896 144.413 141.653 141.77 145.579 138.851C146.032 139.757 145.831 141.242 144.975 143.305C144.119 145.319 143.414 147.03 142.861 148.44C143.465 148.591 144.094 148.817 144.749 149.119C147.517 150.478 149.631 152.189 151.091 154.253C152.601 156.267 153.003 158.029 152.299 159.539C151.896 160.394 151.267 161.024 150.411 161.426C150.512 160.923 150.562 160.52 150.562 160.218C150.562 157.047 148.976 155.462 145.806 155.462C144.849 155.462 144.044 155.688 143.39 156.141C134.631 160.873 125.243 163.238 115.226 163.238C105.915 163.238 96.7033 161.074 87.5925 156.745C78.4316 161.074 69.2201 163.238 59.958 163.238C49.8408 163.238 40.4531 160.873 31.7954 156.141C31.0907 155.688 30.2854 155.462 29.3793 155.462C26.2082 155.462 24.6226 157.047 24.6226 160.218C24.6226 160.47 24.6226 160.696 24.6226 160.898C24.673 161.099 24.6982 161.275 24.6982 161.426C23.7418 160.923 23.1378 160.293 22.8861 159.539C22.1311 158.029 22.4834 156.267 23.9432 154.253C25.4029 152.189 27.5421 150.478 30.3609 149.119C30.9146 148.867 31.5438 148.641 32.2485 148.44C31.6445 147.03 30.9146 145.319 30.0589 143.305C29.2535 141.242 29.1025 139.757 29.6059 138.851C33.4817 141.77 38.1881 144.413 43.725 146.779C49.3123 149.094 54.7233 150.252 59.958 150.252C69.6229 150.252 78.8338 147.483 87.5925 141.946ZM106.468 109.178C110.042 102.684 112.156 97.6258 112.811 94.0016C113.515 90.3274 113.641 86.4512 113.188 82.3742C112.534 76.7368 109.69 70.8474 104.657 64.7066C99.6733 58.5152 93.9853 53.8088 87.5925 50.5873C79.5386 54.5135 73.3478 59.3708 69.0188 65.1594C64.7404 70.8975 62.4752 76.7115 62.2232 82.6009C62.0218 86.6779 62.3239 90.6795 63.1294 94.6058C63.9849 98.4814 65.9233 103.339 68.9434 109.178C72.9197 108.121 77.4748 107.466 82.6093 107.215V86.9046H72.945V76.6361H82.6093V63.8004H92.9531V76.6361H102.617V86.9046H92.9531V107.215C97.6342 107.466 102.139 108.121 106.468 109.178ZM89.7823 107.064L89.7064 83.7332H99.3713V79.8823H89.7064V66.9713H85.8561V79.8823H76.1912V83.7332H85.8561V107.064C85.8561 107.064 86.4349 107.064 87.5925 107.064C87.9446 107.064 88.2973 107.064 88.6494 107.064C89.0522 107.064 89.4296 107.064 89.7823 107.064ZM108.129 117.181L105.789 136.434C105.739 137.945 103.926 139.228 100.353 140.285C96.7787 141.342 92.5003 141.871 87.5171 141.871C82.4833 141.871 78.1796 141.342 74.6061 140.285C71.0826 139.228 69.3208 137.945 69.3208 136.434L67.0556 117.181C63.4815 111.745 60.9649 106.233 59.5052 100.646C58.0455 95.0586 57.3159 89.6979 57.3159 84.564C57.3159 69.111 65.6713 57.2816 82.3826 49.0772C82.3826 48.3221 82.4586 47.3406 82.6093 46.1325C80.8976 44.7231 80.0421 42.9111 80.0421 40.6963C80.0421 36.0654 82.3826 33.75 87.0637 33.75C91.6948 33.75 94.0101 36.0654 94.0101 40.6963C94.0101 42.7601 93.2805 44.4715 91.8208 45.8305C91.8208 47.391 92.0222 48.448 92.4249 49.0017C93.2299 50.1594 94.3628 50.7886 95.8224 50.8893C97.3322 50.7886 98.5404 50.1343 99.4466 48.9262C99.648 48.6242 99.8494 47.6678 100.051 46.057C98.7418 44.698 98.0876 43.0369 98.0876 41.0738C98.0876 36.3423 100.453 33.9765 105.185 33.9765C109.916 33.9765 112.282 36.3423 112.282 41.0738C112.282 43.792 111.125 45.8305 108.809 47.1896C108.607 48.1963 108.557 49.0268 108.658 49.6812C117.165 59.6981 120.864 71.3256 119.757 84.564C119.405 88.3389 118.901 91.9378 118.247 95.3606C117.643 98.7834 116.359 102.332 114.396 106.007C113.44 107.869 112.458 109.757 111.452 111.67C110.445 113.582 109.338 115.419 108.129 117.181ZM87.8192 129.337C83.5909 129.337 79.992 129.765 77.022 130.621C74.1026 131.426 72.6429 132.408 72.6429 133.566C72.6429 134.723 74.1026 135.705 77.022 136.51C79.992 137.315 83.5909 137.718 87.8192 137.718C91.9468 137.718 95.4951 137.315 98.4651 136.51C101.435 135.705 102.92 134.723 102.92 133.566C102.92 132.408 101.435 131.426 98.4651 130.621C95.4951 129.765 91.9468 129.337 87.8192 129.337ZM102.995 128.204L104.505 112.953C99.7234 111.997 94.2621 111.518 88.1213 111.518C81.9799 111.518 76.2418 112.072 70.9065 113.18L72.4916 127.978C76.1158 126.367 81.1243 125.562 87.5171 125.562C94.3628 125.562 99.522 126.443 102.995 128.204ZM105.185 37.8272C103.02 37.8272 101.938 38.9094 101.938 41.0738C101.938 43.2383 103.02 44.3204 105.185 44.3204C107.349 44.3204 108.431 43.2383 108.431 41.0738C108.431 38.9094 107.349 37.8272 105.185 37.8272ZM87.0637 37.6763C85.0005 37.6763 83.9683 38.683 83.9683 40.6964C83.9683 42.7601 85.0005 43.792 87.0637 43.792C89.1276 43.792 90.1598 42.7601 90.1598 40.6964C90.1598 38.683 89.1276 37.6763 87.0637 37.6763ZM95.3696 118.691L87.7438 121.862L80.1174 118.691L87.7438 115.52L95.3696 118.691ZM117.266 84.4127C117.819 81.6947 116.913 76.6862 114.548 69.3878C112.232 62.0387 108.759 55.9481 104.128 51.1158C103.524 50.7131 102.945 50.537 102.391 50.5873C101.586 50.6879 100.831 51.0654 100.126 51.7199C99.4719 52.3743 99.396 53.1545 99.8994 54.0605C105.487 57.735 109.765 62.9696 112.735 69.7652C115.705 76.5101 117.215 81.3926 117.266 84.4127Z" fill="#2B1F31" />
    <path d="M87.5925 146.325C78.8338 151.611 69.6223 154.253 59.958 154.253C55.4278 154.253 51.0738 153.599 46.896 152.29C42.7684 150.931 38.8926 149.195 35.2684 147.081C35.369 147.332 35.4193 147.684 35.4193 148.138C35.4697 148.54 35.5452 148.817 35.6458 148.968C35.7968 149.27 35.9731 149.572 36.1744 149.874C36.426 150.176 36.6274 150.428 36.7784 150.629C35.2683 150.629 33.6576 151.057 31.9462 151.913C40.6039 156.997 49.9412 159.538 59.958 159.538C69.7736 159.538 78.9846 157.072 87.5919 152.139C96.1492 157.072 105.361 159.538 115.226 159.538C125.243 159.538 134.555 156.997 143.162 151.913C141.451 151.057 139.84 150.629 138.331 150.629C138.834 150.025 139.211 149.471 139.463 148.968C139.564 148.817 139.69 148.54 139.84 148.138C139.992 147.684 140.142 147.332 140.294 147.081C136.619 149.195 132.643 150.931 128.364 152.29C124.136 153.599 119.757 154.253 115.226 154.253C105.511 154.253 96.3006 151.611 87.5925 146.325ZM106.468 109.178C110.042 102.684 112.156 97.6258 112.81 94.0016C113.515 90.3274 113.641 86.4512 113.188 82.3742C112.534 76.7368 109.69 70.8474 104.656 64.7066C99.6727 58.5152 93.9847 53.8087 87.5925 50.5872C79.5386 54.5134 73.3472 59.3707 69.0182 65.1594C64.7398 70.8975 62.4746 76.7115 62.2232 82.6009C62.0218 86.6779 62.3239 90.6795 63.1294 94.6057C63.9849 98.4814 65.9227 103.339 68.9428 109.178C72.9197 108.121 77.4748 107.466 82.6093 107.215V86.9046H72.9444V76.6361H82.6093V63.8004H92.9531V76.6361H102.617V86.9046H92.9531V107.215C97.6342 107.466 102.139 108.121 106.468 109.178ZM89.7817 107.064L89.7064 83.7332H99.3707V79.8823H89.7064V66.9712H85.8555V79.8823H76.1912V83.7332H85.8555V107.064C85.8555 107.064 86.4343 107.064 87.5919 107.064C87.9446 107.064 88.2967 107.064 88.6494 107.064C89.0522 107.064 89.4296 107.064 89.7817 107.064ZM87.8186 129.337C83.5903 129.337 79.9914 129.765 77.022 130.621C74.1021 131.426 72.6424 132.408 72.6424 133.566C72.6424 134.723 74.1021 135.705 77.022 136.51C79.9914 137.315 83.5903 137.718 87.8186 137.718C91.9462 137.718 95.4951 137.315 98.4645 136.51C101.434 135.705 102.919 134.723 102.919 133.566C102.919 132.408 101.434 131.426 98.4645 130.621C95.4951 129.765 91.9462 129.337 87.8186 129.337ZM102.995 128.204L104.505 112.953C99.7234 111.997 94.2615 111.518 88.1207 111.518C81.9799 111.518 76.2418 112.072 70.9059 113.179L72.4916 127.978C76.1158 126.367 81.1243 125.562 87.5166 125.562C94.3622 125.562 99.522 126.443 102.995 128.204ZM105.185 37.8272C103.02 37.8272 101.938 38.9094 101.938 41.0738C101.938 43.2382 103.02 44.3204 105.185 44.3204C107.349 44.3204 108.431 43.2382 108.431 41.0738C108.431 38.9094 107.349 37.8272 105.185 37.8272ZM87.0637 37.6762C84.9999 37.6762 83.9683 38.6829 83.9683 40.6964C83.9683 42.7601 84.9999 43.792 87.0637 43.792C89.1276 43.792 90.1592 42.7601 90.1592 40.6964C90.1592 38.6829 89.1276 37.6762 87.0637 37.6762ZM95.3691 118.691L87.7432 121.862L80.1174 118.691L87.7432 115.52L95.3691 118.691ZM117.265 84.4127C117.819 81.6947 116.913 76.6862 114.547 69.3877C112.232 62.0387 108.758 55.948 104.128 51.1158C103.524 50.7131 102.945 50.537 102.391 50.5873C101.586 50.6879 100.83 51.0654 100.126 51.7198C99.4714 52.3742 99.396 53.1544 99.8994 54.0605C105.487 57.735 109.765 62.9696 112.735 69.7652C115.705 76.5101 117.215 81.3926 117.265 84.4127Z" fill="#BEF992" />
  </g>
  <g id="wk" fill="none" transform="scale(0.2222222222222222 0.2222222222222222)">
    <path d="M97.8503 132.659L88.0346 137.567L77.8416 132.659L87.6572 127.827L97.8503 132.659ZM87.8839 62.5922C84.9645 62.5922 82.4726 62.9196 80.4088 63.5738C78.3956 64.1779 77.3888 64.9328 77.3888 65.8389C77.3888 66.7451 78.3956 67.5253 80.4088 68.1795C82.4726 68.7836 84.9645 69.0857 87.8839 69.0857C90.7526 69.0857 93.2192 68.7836 95.283 68.1795C97.3468 67.5253 98.3784 66.7451 98.3784 65.8389C98.3784 64.9328 97.3468 64.1779 95.283 63.5738C93.2192 62.9196 90.7526 62.5922 87.8839 62.5922ZM87.8079 119.597C88.6134 119.597 89.6704 119.648 90.9793 119.748C90.5766 118.691 90.4258 117.508 90.5265 116.2C90.5766 114.538 91.1306 112.852 92.1876 111.141C92.8924 110.285 93.3452 109.253 93.5466 108.045C93.9994 105.025 94.3268 101.753 94.5281 98.2299C94.9309 89.7233 94.3014 81.2413 92.6404 72.7852C90.9293 73.0367 89.3183 73.1627 87.8079 73.1627C86.1975 73.1627 84.5618 73.0367 82.9007 72.7852C81.189 81.2413 80.5601 89.7233 81.0129 98.2299C81.1136 101.351 81.4658 104.622 82.0699 108.045C82.2212 109.253 82.674 110.285 83.4289 111.141C84.4358 112.852 84.9893 114.538 85.0899 116.2C85.1406 117.408 84.9645 118.591 84.5618 119.748C85.9708 119.648 87.0531 119.597 87.8079 119.597ZM77.9929 71.7283C76.9359 71.4263 76.0798 71.0989 75.4256 70.7467C70.4925 74.5723 67.6991 79.1021 67.0449 84.3373C66.0381 91.0316 67.0449 97.7518 70.065 104.497C70.6185 105.704 70.8953 106.887 70.8953 108.046C70.9459 109.656 70.6185 111.368 69.9137 113.18C69.3602 114.287 69.0834 115.369 69.0834 116.426C69.1335 117.483 69.4609 118.515 70.065 119.522C70.2664 120.025 70.4171 120.377 70.5178 120.579C72.9844 120.277 75.8284 120.025 79.0498 119.824C79.704 118.767 80.0061 117.609 79.956 116.351C79.8553 115.595 79.6033 114.815 79.2006 114.01C77.8922 112.299 77.1373 110.386 76.9359 108.272C76.4325 105.252 76.1051 101.98 75.9544 98.4566C75.4003 89.6479 76.0798 80.7384 77.9929 71.7283ZM60.3248 65.3102C59.4191 65.3102 58.7897 65.2348 58.4376 65.0841C46.3065 71.1743 39.7126 78.8001 38.6555 87.9615C38.3032 90.8308 38.4038 94.0016 38.9575 97.4751C39.5616 100.948 40.8954 103.893 42.9592 106.309C44.6706 108.222 45.5263 110.411 45.5263 112.877C45.5263 113.079 45.5012 113.28 45.4508 113.482C45.4508 113.683 45.4508 113.859 45.4508 114.01C44.9475 115.017 44.7713 116.149 44.9223 117.408C45.3754 120.478 46.7848 122.668 49.1505 123.977C50.0062 123.876 51.2143 123.624 52.7747 123.221C53.7814 122.618 54.3099 121.661 54.3602 120.352C54.4106 119.044 54.3602 117.71 54.2093 116.351C54.0079 114.891 53.5548 113.733 52.8502 112.877C48.2193 105.579 46.0297 97.9779 46.2814 90.0754C46.4324 85.6963 47.4139 81.4179 49.226 77.2397C51.0381 73.0119 54.7377 69.0351 60.3248 65.3102ZM71.8768 67.8021C70.9712 67.3993 69.3101 66.9465 66.8936 66.4431C62.2125 68.5569 58.5883 71.8791 56.0213 76.4094C53.5045 80.8892 52.1706 85.4696 52.0196 90.1508C51.7679 96.8456 53.731 103.742 57.9088 110.839C58.8651 112.852 59.3432 114.665 59.3432 116.275C59.3432 118.792 58.9658 120.73 58.2109 122.089C59.2678 121.938 60.3754 121.787 61.533 121.636C62.6906 121.435 63.8989 121.258 65.1572 121.107C64.4023 119.748 63.9996 118.263 63.9489 116.653C63.9489 114.791 64.4023 112.903 65.3079 110.99C65.6606 109.933 65.8367 109.002 65.8367 108.196C65.736 107.341 65.4339 106.435 64.9305 105.478C63.1688 101.803 61.9358 97.9532 61.2309 93.9262C60.5768 89.8492 60.7028 86.0484 61.6084 82.5249C62.9173 77.2903 66.3401 72.3825 71.8768 67.8021ZM50.6606 65.1594C50.5096 65.1594 50.3585 65.1594 50.2075 65.1594C50.1069 65.1594 50.0062 65.1594 49.9055 65.1594C45.9794 65.4109 42.4559 66.4178 39.3351 68.1795C36.2646 69.8912 33.8233 71.9044 32.0113 74.2196C29.2931 77.7431 27.934 81.5186 27.934 85.5456C27.934 90.7802 29.3183 95.2599 32.0867 98.9848C33.2444 100.696 34.4022 102.131 35.5599 103.289C34.5029 100.671 33.8485 97.9779 33.5968 95.2099C33.3451 92.4413 33.3703 89.874 33.6723 87.5081C34.83 77.6931 40.4927 70.2433 50.6606 65.1594ZM87.8079 140.059C96.3653 140.059 104.243 140.562 111.441 141.569C118.689 142.525 124.629 144.136 129.26 146.401L128.806 141.342L125.786 142.173L116.953 135.68L127.976 132.735L127.749 129.715C122.867 128.154 116.902 126.896 109.855 125.94C102.859 124.933 95.5097 124.43 87.8079 124.43C80.0567 124.43 72.657 124.933 65.61 125.94C58.6136 126.896 52.6992 128.154 47.867 129.715L47.6404 132.735L58.5883 135.68L49.7545 142.173L46.8099 141.342L46.3569 146.401C50.8871 144.136 56.7765 142.525 64.0249 141.569C71.2733 140.562 79.2006 140.059 87.8079 140.059ZM87.8079 162.408C76.1304 162.408 65.862 161.653 57.0026 160.143C48.1438 158.632 42.5817 156.694 40.3166 154.329L42.5817 135.075C43.1857 131.25 43.2109 128.154 42.6572 125.789C42.4559 124.983 41.9021 122.869 40.9961 119.446C40.1404 115.973 38.58 113.129 36.3149 110.914C34.2008 109.002 32.4894 107.491 31.1807 106.384C29.9223 105.226 28.7898 103.968 27.7831 102.609C24.7629 98.4814 23.0263 93.3727 22.5733 87.282C22.07 80.5871 24.1589 74.6477 28.8401 69.4631C31.4072 66.6444 34.6538 64.5053 38.58 63.0456C42.5565 61.5853 46.6589 60.7298 50.8871 60.4783C53.4039 60.327 55.4173 60.3023 56.9273 60.4024C58.4376 60.5031 60.4508 60.6797 62.9674 60.9311C66.2394 61.3339 69.5363 62.0634 72.8584 63.1209C75.5263 60.2516 80.5095 58.8172 87.8079 58.8172C95.0563 58.8172 100.04 60.2516 102.758 63.1209C106.08 62.0634 109.377 61.3339 112.649 60.9311C115.115 60.6797 117.104 60.5031 118.614 60.4024C120.124 60.3023 122.162 60.327 124.729 60.4783C128.857 60.7298 132.909 61.5853 136.885 63.0456C140.862 64.5053 144.134 66.6444 146.701 69.4631C151.332 74.6477 153.421 80.5871 152.967 87.282C152.515 93.3727 150.803 98.4814 147.833 102.609C146.776 103.968 145.594 105.226 144.285 106.384C143.026 107.491 141.365 109.002 139.301 110.914C136.936 113.129 135.3 115.973 134.394 119.446C133.538 122.869 133.035 124.983 132.884 125.789C132.33 128.356 132.355 131.451 132.959 135.075L135.3 154.329C132.985 156.694 127.397 158.632 118.538 160.143C109.679 161.653 99.4359 162.408 87.8085 162.408H87.8079ZM129.033 151.762C119.318 147.836 105.677 145.873 88.11 145.873C69.8889 145.873 56.0968 147.886 46.7344 151.913C55.5935 155.436 69.3101 157.198 87.8839 157.198C96.7427 157.198 104.822 156.72 112.12 155.764C119.419 154.757 125.057 153.423 129.033 151.762ZM97.6236 71.7283C99.4359 80.4364 100.115 89.3458 99.6621 98.4566C99.5113 101.577 99.1586 104.849 98.6051 108.272C98.4544 110.336 97.7243 112.249 96.4153 114.01C95.9124 114.815 95.6604 115.595 95.6604 116.351C95.5598 117.71 95.8618 118.868 96.5666 119.824C99.7881 120.025 102.607 120.277 105.023 120.579C105.375 119.874 105.551 119.522 105.551 119.522C106.105 118.364 106.432 117.332 106.533 116.426C106.533 115.369 106.256 114.287 105.703 113.18C104.998 111.418 104.645 109.707 104.645 108.046C104.696 106.837 104.998 105.654 105.551 104.497C108.521 97.7518 109.528 91.0316 108.572 84.3373C107.766 79.0521 104.973 74.5217 100.191 70.7467C99.486 71.0989 98.6304 71.4263 97.6236 71.7283ZM115.292 65.3102C120.778 69.0351 124.427 73.0119 126.24 77.2397C128.102 81.4179 129.108 85.6963 129.26 90.0754C129.461 97.9279 127.297 105.528 122.766 112.877C121.911 113.884 121.457 115.042 121.407 116.351C120.854 120.025 121.332 122.316 122.842 123.221C124.453 123.624 125.661 123.876 126.466 123.977C128.782 122.668 130.165 120.478 130.619 117.408C130.82 116.2 130.644 115.067 130.09 114.01C130.09 113.859 130.09 113.683 130.09 113.482C130.09 113.28 130.09 113.079 130.09 112.877C130.09 110.31 130.946 108.121 132.657 106.309C134.67 103.893 135.954 100.948 136.508 97.4751C137.112 94.0016 137.263 90.8308 136.961 87.9615C135.853 78.8001 129.26 71.1743 117.179 65.0841C116.776 65.2348 116.147 65.3102 115.292 65.3102ZM103.74 67.8021C109.226 72.4832 112.649 77.391 114.008 82.5249C114.864 86.0484 114.939 89.8492 114.234 93.9262C113.58 97.9532 112.397 101.803 110.686 105.478C110.082 106.384 109.78 107.29 109.78 108.196C109.679 109.102 109.855 110.033 110.308 110.99C111.214 112.953 111.642 114.841 111.592 116.653C111.592 118.062 111.214 119.547 110.459 121.107C111.668 121.258 112.85 121.435 114.008 121.636C115.166 121.787 116.298 121.938 117.406 122.089C116.651 120.73 116.273 118.792 116.273 116.275C116.273 114.513 116.751 112.701 117.708 110.839C121.785 103.691 123.722 96.7956 123.521 90.1508C123.37 85.4696 122.011 80.8892 119.444 76.4094C116.927 71.8791 113.353 68.5569 108.723 66.4431C106.357 66.9465 104.696 67.3993 103.74 67.8021ZM124.88 65.1594C135.048 70.2433 140.711 77.6931 141.869 87.5081C142.573 93.0454 141.969 98.3053 140.056 103.289C141.164 102.131 142.321 100.696 143.53 98.9848C146.298 95.2599 147.682 90.7802 147.682 85.5456C147.682 81.5186 146.298 77.7431 143.53 74.2196C141.717 71.9044 139.251 69.8912 136.131 68.1795C133.009 66.4178 129.511 65.4109 125.635 65.1594C125.484 65.1594 125.359 65.1594 125.258 65.1594C125.157 65.1594 125.031 65.1594 124.88 65.1594ZM87.8079 33.75H90.3752V42.5839H96.7933V47.6426H90.3752V58.5906H85.2413V47.6426H78.8231V42.5839H85.2413V33.75H87.8079Z" fill="#2B1F31" />
    <path d="M87.808 119.598C88.6135 119.598 89.6704 119.648 90.9793 119.748C90.5766 118.691 90.4258 117.508 90.5265 116.2C90.5766 114.538 91.1301 112.852 92.1876 111.141C92.8918 110.285 93.3452 109.253 93.5466 108.046C93.9994 105.025 94.3268 101.753 94.5282 98.2299C94.9303 89.7232 94.3015 81.2418 92.6404 72.7852C90.9287 73.0366 89.3183 73.1626 87.808 73.1626C86.1975 73.1626 84.5612 73.0366 82.9001 72.7852C81.189 81.2418 80.5596 89.7232 81.013 98.2299C81.1136 101.351 81.4658 104.623 82.0699 108.046C82.2207 109.253 82.674 110.285 83.4289 111.141C84.4358 112.852 84.9893 114.538 85.09 116.2C85.1406 117.408 84.964 118.591 84.5612 119.748C85.9708 119.648 87.0531 119.598 87.808 119.598ZM71.8768 67.802C70.9707 67.3993 69.3096 66.9465 66.8937 66.443C62.2125 68.5569 58.5883 71.879 56.0212 76.4094C53.5045 80.8891 52.1705 85.4696 52.0195 90.1513C51.7679 96.8456 53.7309 103.742 57.9088 110.839C58.8651 112.853 59.3432 114.664 59.3432 116.275C59.3432 118.792 58.9658 120.73 58.2109 122.089C59.2678 121.938 60.3754 121.787 61.533 121.636C62.6907 121.435 63.8989 121.259 65.1572 121.107C64.4023 119.748 63.9996 118.263 63.949 116.653C63.949 114.79 64.4023 112.903 65.308 110.99C65.6607 109.933 65.8367 109.002 65.8367 108.196C65.736 107.341 65.434 106.435 64.9305 105.478C63.1688 101.803 61.9358 97.9531 61.231 93.9262C60.5768 89.8492 60.7022 86.049 61.6084 82.5255C62.9173 77.2903 66.3402 72.3825 71.8768 67.802ZM50.6605 65.1594C50.5095 65.1594 50.3585 65.1594 50.2075 65.1594C50.1068 65.1594 50.0061 65.1594 49.9054 65.1594C45.9793 65.4108 42.4558 66.4177 39.335 68.1795C36.2645 69.8911 33.8232 71.9043 32.0112 74.2196C29.293 77.7431 27.9339 81.5186 27.9339 85.5455C27.9339 90.7801 29.3182 95.2599 32.0867 98.9848C33.2444 100.696 34.4021 102.131 35.5598 103.288C34.5028 100.671 33.8484 97.9785 33.5967 95.2098C33.345 92.4412 33.3702 89.874 33.6722 87.5086C34.8299 77.693 40.4927 70.2433 50.6605 65.1594ZM103.739 67.802C109.226 72.4831 112.649 77.391 114.008 82.5255C114.864 86.049 114.939 89.8492 114.234 93.9262C113.58 97.9531 112.397 101.803 110.685 105.478C110.082 106.384 109.78 107.29 109.78 108.196C109.679 109.102 109.855 110.033 110.308 110.99C111.214 112.953 111.642 114.841 111.592 116.653C111.592 118.062 111.214 119.547 110.459 121.107C111.667 121.259 112.85 121.435 114.008 121.636C115.166 121.787 116.298 121.938 117.406 122.089C116.65 120.73 116.273 118.792 116.273 116.275C116.273 114.514 116.751 112.701 117.708 110.839C121.785 103.691 123.722 96.7955 123.521 90.1513C123.37 85.4696 122.011 80.8891 119.444 76.4094C116.927 71.879 113.353 68.5569 108.722 66.443C106.357 66.9465 104.696 67.3993 103.739 67.802ZM124.88 65.1594C135.048 70.2433 140.711 77.693 141.869 87.5086C142.573 93.0453 141.969 98.3053 140.056 103.288C141.164 102.131 142.322 100.696 143.53 98.9848C146.298 95.2599 147.682 90.7801 147.682 85.5455C147.682 81.5186 146.298 77.7431 143.53 74.2196C141.717 71.9043 139.251 69.8911 136.13 68.1795C133.009 66.4177 129.511 65.4108 125.636 65.1594C125.484 65.1594 125.358 65.1594 125.258 65.1594C125.157 65.1594 125.031 65.1594 124.88 65.1594Z" fill="#BEF992" />
    <path d="M97.8503 132.659L88.0346 137.567L77.8416 132.659L87.6572 127.827L97.8503 132.659ZM87.8839 62.5922C84.9639 62.5922 82.4726 62.9196 80.4088 63.5738C78.3956 64.1779 77.3888 64.9328 77.3888 65.839C77.3888 66.7451 78.3956 67.5253 80.4088 68.1795C82.4726 68.7836 84.9639 69.0857 87.8839 69.0857C90.7526 69.0857 93.2192 68.7836 95.283 68.1795C97.3468 67.5253 98.3784 66.7451 98.3784 65.839C98.3784 64.9328 97.3468 64.1779 95.283 63.5738C93.2192 62.9196 90.7526 62.5922 87.8839 62.5922ZM87.8079 140.059C96.3653 140.059 104.243 140.562 111.441 141.569C118.689 142.525 124.629 144.136 129.26 146.401L128.806 141.342L125.786 142.173L116.953 135.68L127.976 132.735L127.749 129.715C122.867 128.154 116.902 126.896 109.855 125.94C102.859 124.933 95.5097 124.43 87.8079 124.43C80.0567 124.43 72.657 124.933 65.61 125.94C58.6136 126.896 52.6991 128.154 47.8669 129.715L47.6404 132.735L58.5883 135.68L49.7545 142.173L46.8098 141.342L46.3568 146.401C50.887 144.136 56.7765 142.525 64.0249 141.569C71.2727 140.562 79.2006 140.059 87.8079 140.059ZM129.033 151.762C119.318 147.836 105.677 145.873 88.11 145.873C69.8889 145.873 56.0968 147.886 46.7344 151.913C55.5934 155.436 69.3101 157.198 87.8839 157.198C96.7427 157.198 104.822 156.72 112.12 155.764C119.419 154.757 125.057 153.423 129.033 151.762Z" fill="#BEF992" />
  </g>
  <g id="wn" fill="none" transform="scale(0.2222222222222222 0.2222222222222222)">
    <path d="M48.2128 111.179C47.5584 111.732 46.7279 112.186 45.7212 112.538C45.2178 115.407 44.4879 116.791 43.5316 116.691C42.4242 116.64 41.7698 116.061 41.5685 114.954C41.0148 113.444 41.2665 112.11 42.3235 110.952C43.5819 109.492 45.5953 108.637 48.3638 108.385C49.0182 109.442 48.9678 110.373 48.2128 111.179H48.2128ZM64.5215 105.139C64.0687 106.195 63.3639 106.749 62.4077 106.8C61.5515 106.85 61.0987 106.195 61.0481 104.836C60.998 104.534 61.3254 103.679 62.0297 102.269C62.9359 101.162 63.9928 100.13 65.201 99.1738C67.8184 97.0594 71.1911 95.5749 75.3187 94.7188C77.0299 94.5174 77.9361 94.7948 78.0367 95.5496C78.0367 96.3551 77.7347 96.984 77.1305 97.4368C75.8216 97.7389 74.6893 98.1416 73.733 98.6451C75.1421 101.866 77.382 103.754 80.4527 104.308C83.3721 104.811 86.1407 103.855 88.758 101.439C91.4259 99.0225 93.1123 95.8517 93.8165 91.9254C94.1186 90.3144 94.1945 88.452 94.0432 86.3381C94.0432 84.4757 94.7227 83.5442 96.0817 83.5442C97.3907 83.5442 98.0955 84.501 98.1962 86.4135C98.4476 88.4773 98.3976 90.5912 98.0449 92.7557C97.4413 96.2792 96.1577 99.3999 94.1946 102.118C97.0132 101.212 99.3285 99.8786 101.141 98.1169C101.896 97.9656 102.248 97.8902 102.198 97.8902C103.456 97.8902 104.086 98.595 104.086 100.004C104.086 100.105 104.01 100.533 103.859 101.288C101.242 103.754 98.1455 105.465 94.572 106.422C94.4207 106.472 94.2699 106.523 94.1186 106.573C94.0185 106.623 93.9178 106.648 93.8171 106.648C95.0754 107.051 96.6105 107.252 98.4229 107.252C99.3791 107.252 100.386 107.177 101.443 107.026C102.852 107.126 103.557 107.857 103.557 109.216C103.557 110.625 102.877 111.329 101.518 111.329C100.461 111.481 99.4039 111.556 98.3469 111.556C95.2262 111.556 92.3068 111.003 89.5888 109.895C88.6826 111.757 87.7011 113.721 86.6441 115.784C85.5872 117.848 83.624 120.541 80.7547 123.863C76.2244 129.3 72.6761 134.434 70.1089 139.266C67.5922 144.048 66.1325 150.415 65.7298 158.368H137.684C137.382 141.657 136.25 127.387 134.287 115.558C132.374 103.679 129.203 93.1331 124.773 83.9222C120.444 75.0128 115.184 68.7459 108.993 65.1217C102.852 61.4976 96.3084 59.5091 89.3621 59.157C87.701 57.0932 86.3674 54.9538 85.3605 52.739C83.3473 48.4605 82.4912 46.2961 82.7932 46.2458C82.0384 46.3464 81.2329 48.8631 80.3773 53.7961C79.9245 55.9605 79.6725 57.2439 79.6224 57.6467C79.6224 57.9994 79.5217 58.8296 79.3204 60.1386C79.3204 60.8934 78.9176 61.4723 78.1121 61.875C77.1052 62.5292 76.1743 62.2271 75.3187 60.9688L73.2802 59.157C71.6186 58.1001 70.5116 57.1939 69.9575 56.4384C69.4547 55.6333 69.1273 56.2624 68.9765 58.3262C68.8759 59.1317 68.045 60.39 66.4847 62.1017C64.8737 63.9135 63.4646 66.5308 62.2564 69.9536C61.8035 71.3126 61.4008 72.9489 61.0487 74.8614C60.696 76.7239 60.3939 78.4103 60.1425 79.92C59.4877 83.6955 58.5067 86.9169 57.1978 89.5849C56.8957 90.1884 56.493 91.0699 55.9897 92.2275C55.4864 93.3345 54.8068 94.4421 53.9511 95.5496C52.8941 97.11 52.1139 98.1923 51.6105 98.7964C51.1072 99.3999 50.2011 100.382 48.8924 101.741C47.1307 103.603 45.3186 105.239 43.4562 106.648C42.5501 107.353 41.3924 108.209 39.983 109.216C38.6239 110.222 37.9192 111.556 37.869 113.217C37.7683 115.281 38.1961 117.244 39.1524 119.107C39.6054 120.163 40.2347 121.095 41.04 121.9C41.8454 122.655 42.6759 122.454 43.5316 121.296C44.5887 119.887 45.1927 119.107 45.3437 118.955C45.4947 118.754 45.9981 118.226 46.8538 117.37C48.0618 116.162 49.0938 115.432 49.9495 115.18C50.8052 114.878 51.8873 114.727 53.1961 114.727C54.0518 114.727 54.9327 115.256 55.8387 116.313C56.7951 117.37 57.1978 118.452 57.047 119.559C56.4429 122.831 54.7314 124.769 51.9126 125.373C50.1508 125.927 49.4209 126.481 49.7229 127.034C50.0753 127.588 51.082 127.789 52.743 127.639C54.2531 127.538 55.285 127.16 55.8387 126.506C56.4429 125.852 57.3739 124.568 58.6322 122.655C59.6891 121.044 60.822 119.333 62.0302 117.521C63.2379 115.709 64.2195 114.048 64.9744 112.538C65.5785 111.38 66.5347 110.046 67.8437 108.536C69.1526 106.976 70.6624 105.818 72.374 105.063C71.015 103.301 70.0335 101.816 69.4294 100.608C69.3287 100.659 68.8252 100.986 67.919 101.59C66.4093 102.848 65.2764 104.031 64.5215 105.139ZM65.1257 77.1266C67.4409 75.8177 69.3034 74.0059 70.713 71.6906C71.1157 70.7844 71.8453 70.2309 72.9022 70.0296C74.6139 69.9789 75.5201 70.7091 75.6202 72.2188C75.6202 72.3701 75.6202 72.5209 75.6202 72.6722C75.6202 72.7729 75.6455 72.873 75.6962 72.9742C75.1927 73.9806 74.7647 74.7608 74.4125 75.3148C75.0667 76.1198 75.4948 77.0006 75.6962 77.9574C75.8469 80.5748 74.6139 82.0091 71.9966 82.2611C70.6877 82.4119 69.5554 81.9838 68.5985 80.9775C68.2464 81.1789 67.919 81.3549 67.617 81.5057C67.3149 81.657 67.0382 81.8078 66.7867 81.9591C64.773 82.0598 63.6913 81.2796 63.54 79.6185C63.4393 78.5109 63.968 77.6801 65.1257 77.1266ZM143.574 163.578H60.1425C60.6459 148.326 63.5147 137.429 68.7499 130.885C71.3166 127.664 73.9592 124.392 76.6777 121.07C79.3957 117.697 81.9877 113.62 84.4543 108.838C82.4912 109.09 80.9055 109.09 79.6978 108.838C78.9429 108.737 77.81 108.435 76.3003 107.932C74.0852 108.687 72.374 109.769 71.1658 111.179C70.0082 112.538 69.0519 113.897 68.2965 115.256C64.6723 121.346 61.929 125.776 60.0666 128.545C58.2547 131.313 56.2161 132.32 53.9511 131.565C51.837 130.91 50.3017 130.608 49.3454 130.659C48.3889 130.709 47.4578 130.432 46.5517 129.828C45.7464 129.224 45.5701 128.217 46.0232 126.808C46.6272 124.945 47.8856 123.662 49.7983 122.957C52.3655 122.101 53.7497 121.019 53.9511 119.711C54.1021 118.502 53.2464 118.05 51.3839 118.352C50.1255 118.704 48.4645 120.264 46.4007 123.033C45.1423 124.744 43.9846 125.877 42.9276 126.43C40.8135 127.538 38.8503 126.682 37.0383 123.863C36.0316 122.353 35.2766 120.994 34.7732 119.786C34.2698 118.528 33.9426 116.841 33.7917 114.727C33.5903 112.16 34.1188 109.97 35.3772 108.159C36.6356 106.346 37.7934 105.013 38.8503 104.157C39.9577 103.301 40.9644 102.571 41.8705 101.967C42.7765 101.313 43.5316 100.684 44.1356 100.079C45.7464 98.3177 47.6591 95.9271 49.8739 92.907C51.7363 89.7862 52.9947 87.1183 53.649 84.9037C54.3537 82.6386 54.9829 80.1214 55.5366 77.3533C56.1406 73.9806 56.8204 70.9104 57.5752 68.1418C58.3301 65.3732 60.1172 62.1264 62.9359 58.4021C62.6844 57.2439 62.4577 55.7592 62.2564 53.9471C62.1056 52.4874 62.0297 51.4304 62.0297 50.776C62.0803 50.0713 62.1056 48.8885 62.1056 47.2273C62.1056 43.6032 63.0112 41.7911 64.8236 41.7911C65.8806 41.7911 66.6354 42.2945 67.0888 43.3012C67.5416 44.2576 68.7999 45.9438 70.8637 48.3599C72.7768 50.7257 74.5132 52.4874 76.0736 53.6451C76.4257 50.927 77.4326 47.8565 79.0937 44.4337C80.7047 41.0613 82.0131 39.375 83.0199 39.375C83.4227 39.375 84.0516 40.0797 84.9077 41.4891C85.8133 42.8985 86.6188 44.2827 87.3236 45.6418C88.0785 47.2022 88.6826 48.5361 89.1354 49.6434C89.6389 50.7508 90.369 52.0595 91.3252 53.5696L105.067 52.8146L106.275 57.2693L116.317 57.798L116.77 63.7627L126.812 66.0279L124.773 72.8983L136.477 79.3918L130.285 82.8647L140.478 91.0946L135.419 94.0393L144.555 103.704L138.364 106.648L147.727 116.464L139.723 116.841L147.575 128.016L140.78 129.526L148.557 142.437L141.158 142.059L146.82 152.555L141.158 155.499L147.046 160.86L143.574 163.578Z" fill="#2B1F31" />
    <path d="M48.213 111.179C47.5587 111.732 46.7281 112.186 45.7214 112.538C45.218 115.407 44.4882 116.791 43.5318 116.691C42.4244 116.64 41.7701 116.061 41.5687 114.954C41.015 113.444 41.2667 112.11 42.3237 110.952C43.5821 109.492 45.5956 108.637 48.364 108.385C49.0184 109.442 48.968 110.373 48.213 111.179ZM64.5216 105.139C64.0688 106.195 63.3639 106.749 62.4077 106.8C61.5521 106.85 61.0988 106.195 61.0487 104.836C60.9981 104.534 61.3254 103.679 62.0303 102.269C62.9359 101.162 63.9934 100.13 65.2011 99.1738C67.8189 97.0593 71.1911 95.5743 75.3188 94.7188C77.0299 94.5174 77.9361 94.7942 78.0368 95.5496C78.0368 96.3551 77.7347 96.984 77.1306 97.4368C75.8222 97.7388 74.6893 98.1416 73.7331 98.645C75.1427 101.866 77.3826 103.754 80.4527 104.308C83.3726 104.811 86.1407 103.855 88.7586 101.439C91.4259 99.0225 93.1123 95.8517 93.8171 91.9254C94.1192 90.3144 94.1946 88.452 94.0438 86.3381C94.0438 84.4757 94.7233 83.5442 96.0823 83.5442C97.3907 83.5442 98.0955 84.501 98.1962 86.4135C98.4482 88.4773 98.3976 90.5912 98.0454 92.7557C97.4413 96.2792 96.1577 99.3999 94.1946 102.118C97.0133 101.212 99.3291 99.8786 101.141 98.1169C101.896 97.9655 102.248 97.8902 102.198 97.8902C103.456 97.8902 104.086 98.595 104.086 100.004C104.086 100.105 104.01 100.533 103.859 101.288C101.242 103.754 98.1461 105.465 94.572 106.422C94.4213 106.472 94.2699 106.523 94.1192 106.573C94.0185 106.623 93.9178 106.648 93.8171 106.648C95.0754 107.051 96.6105 107.252 98.4229 107.252C99.3791 107.252 100.386 107.177 101.443 107.026C102.853 107.126 103.557 107.857 103.557 109.216C103.557 110.625 102.877 111.329 101.518 111.329C100.461 111.481 99.4044 111.556 98.3475 111.556C95.2268 111.556 92.3068 111.003 89.5888 109.895C88.6826 111.757 87.7016 113.721 86.6441 115.784C85.5872 117.848 83.6241 120.541 80.7553 123.863C76.2249 129.3 72.6761 134.434 70.1089 139.266C67.5923 144.048 66.1326 150.415 65.7298 158.368H137.685C137.383 141.657 136.25 127.387 134.287 115.558C132.374 103.679 129.203 93.1331 124.773 83.9222C120.445 75.0127 115.185 68.7459 108.993 65.1217C102.853 61.4975 96.309 59.5091 89.3627 59.157C87.7016 57.0932 86.3674 54.9537 85.3605 52.739C83.3473 48.4605 82.4918 46.296 82.7938 46.2457C82.0384 46.3463 81.2334 48.8631 80.3773 53.7961C79.9245 55.9605 79.6731 57.2439 79.6224 57.6467C79.6224 57.9993 79.5218 58.8296 79.3204 60.1385C79.3204 60.8934 78.9176 61.4722 78.1121 61.875C77.1058 62.5292 76.1743 62.2271 75.3188 60.9688L73.2803 59.157C71.6192 58.0995 70.5116 57.1938 69.9581 56.4384C69.4547 55.6333 69.1273 56.2623 68.9766 58.3262C68.8759 59.1317 68.0451 60.39 66.4847 62.1017C64.8743 63.9135 63.4646 66.5308 62.2569 69.9536C61.8036 71.3126 61.4008 72.9489 61.0487 74.8614C60.696 76.7238 60.3945 78.4102 60.1425 79.92C59.4883 83.6955 58.5068 86.9169 57.1978 89.5848C56.8958 90.1884 56.4936 91.0693 55.99 92.2275C55.4866 93.3345 54.807 94.442 53.9513 95.5496C52.8942 97.11 52.1141 98.1922 51.6107 98.7958C51.1074 99.3999 50.2013 100.381 48.8926 101.74C47.1309 103.603 45.3188 105.239 43.4564 106.648C42.5504 107.353 41.3926 108.209 39.9832 109.216C38.6242 110.222 37.9195 111.556 37.8691 113.217C37.7685 115.281 38.1963 117.244 39.1527 119.107C39.6057 120.163 40.2349 121.095 41.0403 121.9C41.8457 122.655 42.6762 122.454 43.5318 121.296C44.5889 119.887 45.1929 119.107 45.3439 118.955C45.495 118.754 45.9983 118.226 46.854 117.37C48.062 116.162 49.094 115.432 49.9497 115.18C50.8054 114.878 51.8875 114.727 53.1963 114.727C54.052 114.727 54.9329 115.256 55.8389 116.313C56.7951 117.37 57.1978 118.452 57.0471 119.559C56.4429 122.831 54.7315 124.769 51.9128 125.373C50.151 125.927 49.4211 126.48 49.7231 127.034C50.0755 127.588 51.0822 127.789 52.7433 127.639C54.2533 127.538 55.2853 127.16 55.8389 126.506C56.4429 125.851 57.3739 124.568 58.6328 122.655C59.6897 121.044 60.822 119.333 62.0303 117.521C63.2385 115.709 64.2195 114.048 64.9749 112.538C65.5791 111.38 66.5353 110.046 67.8437 108.536C69.1526 106.976 70.6629 105.818 72.3741 105.063C71.0151 103.301 70.0335 101.816 69.4294 100.608C69.3287 100.658 68.8258 100.986 67.9196 101.59C66.4093 102.848 65.277 104.031 64.5216 105.139ZM65.1257 77.1266C67.4409 75.8177 69.3034 74.0058 70.713 71.6906C71.1158 70.7844 71.8453 70.2309 72.9028 70.0295C74.6139 69.9789 75.5201 70.709 75.6208 72.2188C75.6208 72.3701 75.6208 72.5209 75.6208 72.6722C75.6208 72.7723 75.6461 72.873 75.6962 72.9742C75.1928 73.9805 74.7653 74.7607 74.4126 75.3148C75.0673 76.1197 75.4948 77.0006 75.6962 77.9574C75.8475 80.5747 74.6139 82.0091 71.9966 82.2611C70.6877 82.4118 69.5554 81.9838 68.5991 80.9775C68.2464 81.1788 67.9196 81.3549 67.6176 81.5057C67.3155 81.657 67.0388 81.8077 66.7868 81.959C64.7736 82.0597 63.6913 81.2795 63.54 79.6185C63.4399 78.5109 63.9681 77.6801 65.1257 77.1266Z" fill="#BEF992" />
  </g>
  <g id="wp" fill="none" transform="scale(0.2222222222222222 0.2222222222222222)">
    <path d="M97.9656 99.5136V74.673H82.4119V99.5136C77.8821 101.175 74.1819 103.993 71.3132 107.97C68.4439 111.896 67.0095 116.351 67.0095 121.334C67.0095 127.726 69.2747 133.188 73.8045 137.718C78.3349 142.248 83.7962 144.514 90.189 144.514C96.5312 144.514 101.967 142.248 106.498 137.718C111.078 133.188 113.368 127.726 113.368 121.334C113.368 116.351 111.909 111.871 108.989 107.894C106.12 103.918 102.445 101.124 97.9656 99.5136ZM101.665 147.232C97.8401 148.842 94.0146 149.648 90.189 149.648C86.1114 149.648 82.2864 148.842 78.7123 147.232L72.9742 157.198H107.63L101.665 147.232ZM82.4119 56.8541C78.9891 54.3876 77.2779 50.9899 77.2779 46.6611C77.2779 43.1376 78.5362 40.1174 81.0529 37.6006C83.5695 35.0336 86.6149 33.75 90.189 33.75C93.7125 33.75 96.7326 35.0336 99.2492 37.6006C101.766 40.1174 103.025 43.1376 103.025 46.6611C103.025 50.9396 101.313 54.3624 97.8902 56.9295L113.293 74.673H103.1L103.025 96.1155C107.605 98.532 111.33 101.98 114.199 106.46C117.068 110.94 118.502 115.897 118.502 121.334C118.502 126.267 117.345 130.797 115.03 134.925C112.714 139.002 109.669 142.324 105.893 144.891L115.935 162.559H64.4422L74.484 144.891C66.078 139.304 61.875 131.451 61.875 121.334C61.875 115.897 63.2846 110.94 66.1033 106.46C68.9721 101.93 72.6969 98.4814 77.2779 96.1155L77.3533 74.673H67.0849L82.4119 56.8541ZM93.8132 58.8926C92.6556 59.3454 91.4473 59.5721 90.189 59.5721C88.9807 59.5721 87.7478 59.3708 86.4894 58.968L77.2779 69.6139H103.025L93.8132 58.8926ZM90.189 38.8842C85.0044 38.8842 82.4119 41.4765 82.4119 46.6611C82.4119 51.8456 85.0044 54.4379 90.189 54.4379C95.3736 54.4379 97.9656 51.8456 97.9656 46.6611C97.9656 41.4765 95.3736 38.8842 90.189 38.8842Z" fill="#2B1F31" />
    <path d="M97.9661 99.5136V74.673H82.4124V99.5136C77.882 101.175 74.1825 103.993 71.3132 107.97C68.4438 111.896 67.0095 116.351 67.0095 121.334C67.0095 127.726 69.2746 133.188 73.805 137.718C78.3348 142.248 83.7967 144.514 90.189 144.514C96.5311 144.514 101.968 142.248 106.498 137.718C111.079 133.188 113.368 127.726 113.368 121.334C113.368 116.351 111.909 111.871 108.989 107.894C106.12 103.918 102.446 101.124 97.9661 99.5136ZM101.666 147.232C97.8401 148.843 94.0145 149.647 90.189 149.647C86.112 149.647 82.2864 148.843 78.7123 147.232L72.9742 157.198H107.63L101.666 147.232ZM93.8132 58.8926C92.6555 59.3454 91.4473 59.5721 90.189 59.5721C88.9813 59.5721 87.7477 59.3707 86.4894 58.968L77.2779 69.6139H103.025L93.8132 58.8926ZM90.189 38.8842C85.0044 38.8842 82.4124 41.4765 82.4124 46.6611C82.4124 51.8456 85.0044 54.4379 90.189 54.4379C95.3735 54.4379 97.9661 51.8456 97.9661 46.6611C97.9661 41.4765 95.3735 38.8842 90.189 38.8842Z" fill="#BEF992" />
  </g>
  <g id="wq" fill="none" transform="scale(0.2222222222222222 0.2222222222222222)">
    <path d="M130.017 136.586C129.966 135.529 130.042 133.943 130.243 131.829L124.43 132.961L128.884 136.812L130.017 136.586ZM53.6074 136.736L54.5135 137.038L58.968 133.188L53.2299 132.131C53.3809 133.188 53.5067 134.723 53.6074 136.736ZM132.131 152.139C122.92 148.314 109.555 146.401 92.0385 146.401C74.1696 146.401 60.6544 148.364 51.4933 152.29C60.3022 155.764 73.7415 157.5 91.8118 157.5C100.47 157.5 108.372 157.022 115.52 156.066C122.718 155.109 128.255 153.8 132.131 152.139ZM132.357 119.824C132.357 119.22 132.357 118.591 132.357 117.936C132.357 117.282 132.357 116.577 132.357 115.822C132.357 110.386 132.861 104.547 133.868 98.3053C131.703 102.282 128.532 104.27 124.354 104.27C121.485 104.27 119.044 103.263 117.03 101.25C115.017 99.1862 114.01 96.7196 114.01 93.8509C114.01 93.6495 114.06 93.3975 114.161 93.0954C114.916 90.0754 114.941 88.4396 114.236 88.1882C113.733 88.0369 113.23 88.8924 112.727 90.7549C111.216 95.6374 107.92 98.0786 102.836 98.0786C99.9664 98.0786 97.5251 97.0723 95.5119 95.0586C93.4982 92.9947 92.5166 90.5287 92.5672 87.6594C92.4666 85.7464 92.1898 84.7901 91.7364 84.7901C91.1829 84.7901 90.8809 85.7464 90.8303 87.6594C90.8303 90.5287 89.8239 92.9947 87.8102 95.0586C85.8471 97.0723 83.4311 98.0786 80.5618 98.0786C75.4779 98.0786 72.2064 95.6374 70.7467 90.7549C70.1927 88.9931 69.6898 88.1376 69.2364 88.1882C68.4816 88.389 68.4816 89.9499 69.2364 92.8693C69.2364 93.0201 69.2364 93.1961 69.2364 93.3975C69.2871 93.5488 69.3118 93.6996 69.3118 93.8509C69.3118 96.7196 68.2802 99.1862 66.2164 101.25C64.2032 103.263 61.7867 104.27 58.968 104.27C54.7399 104.27 51.5688 102.282 49.4547 98.3053C50.4614 104.597 50.9648 110.436 50.9648 115.822C50.9648 117.584 50.9396 118.893 50.8892 119.748C60.9564 117.08 74.5723 115.747 91.7364 115.747C108.8 115.747 122.34 117.106 132.357 119.824ZM149.799 77.8438C146.627 77.8438 143.935 76.7368 141.72 74.5217C139.555 72.3071 138.473 69.6392 138.473 66.5184C138.473 63.3977 139.555 60.7298 141.72 58.5152C143.935 56.25 146.627 55.1175 149.799 55.1175C152.92 55.1175 155.587 56.25 157.802 58.5152C160.017 60.7298 161.124 63.3977 161.124 66.5184C161.124 69.6392 160.017 72.3071 157.802 74.5217C155.587 76.7368 152.92 77.8438 149.799 77.8438ZM149.799 72.0304C153.473 72.0304 155.31 70.1927 155.31 66.5184C155.31 62.8442 153.473 61.0065 149.799 61.0065C146.124 61.0065 144.287 62.8442 144.287 66.5184C144.287 70.1927 146.124 72.0304 149.799 72.0304ZM33.8255 72.0304C37.5 72.0304 39.3373 70.1927 39.3373 66.5184C39.3373 62.8442 37.5 61.0065 33.8255 61.0065C30.151 61.0065 28.3138 62.8442 28.3138 66.5184C28.3138 70.1927 30.151 72.0304 33.8255 72.0304ZM33.8255 77.8438C30.6544 77.8438 27.9614 76.7368 25.7466 74.5217C23.5822 72.3071 22.5 69.6392 22.5 66.5184C22.5 63.3977 23.5822 60.7298 25.7466 58.5152C27.9614 56.3001 30.6544 55.193 33.8255 55.193C36.896 55.193 39.5386 56.3001 41.7534 58.5152C44.0184 60.7298 45.151 63.3977 45.151 66.5184C45.151 69.6392 44.0184 72.3071 41.7534 74.5217C39.5386 76.7368 36.896 77.8438 33.8255 77.8438ZM121.938 64.8574C118.767 64.8574 116.074 63.7751 113.859 61.6106C111.695 59.3961 110.612 56.7028 110.612 53.5319C110.612 50.4614 111.695 47.8188 113.859 45.604C116.074 43.3389 118.767 42.2064 121.938 42.2064C125.059 42.2064 127.726 43.3389 129.941 45.604C132.156 47.8188 133.264 50.4614 133.264 53.5319C133.264 56.7028 132.156 59.3961 129.941 61.6106C127.726 63.7751 125.059 64.8574 121.938 64.8574ZM121.938 59.0434C125.612 59.0434 127.45 57.2062 127.45 53.5319C127.45 49.8574 125.612 48.0201 121.938 48.0201C118.263 48.0201 116.426 49.8574 116.426 53.5319C116.426 57.2062 118.263 59.0434 121.938 59.0434ZM61.5352 59.0434C65.2095 59.0434 67.0472 57.2062 67.0472 53.5319C67.0472 49.8574 65.2095 48.0201 61.5352 48.0201C57.861 48.0201 56.0235 49.8574 56.0235 53.5319C56.0235 57.2062 57.861 59.0434 61.5352 59.0434ZM61.5352 64.8574C58.4145 64.8574 55.7466 63.7751 53.5319 61.6106C51.3171 59.3961 50.2097 56.7028 50.2097 53.5319C50.2097 50.4614 51.3171 47.8188 53.5319 45.604C55.7466 43.3389 58.4145 42.2064 61.5352 42.2064C64.656 42.2064 67.3239 43.3389 69.5385 45.604C71.7536 47.8188 72.8606 50.4614 72.8606 53.5319C72.8606 56.7028 71.7536 59.3961 69.5385 61.6106C67.3239 63.7751 64.656 64.8574 61.5352 64.8574ZM91.7364 50.5873C95.4113 50.5873 97.2484 48.75 97.2484 45.0755C97.2484 41.401 95.4113 39.5638 91.7364 39.5638C88.0622 39.5638 86.2251 41.401 86.2251 45.0755C86.2251 48.75 88.0622 50.5873 91.7364 50.5873ZM91.7364 56.4007C88.5656 56.4007 85.8724 55.3188 83.6578 53.1543C81.4933 50.9396 80.4111 48.2466 80.4111 45.0755C80.4111 42.005 81.4933 39.3624 83.6578 37.1477C85.8724 34.8825 88.5656 33.75 91.7364 33.75C94.8572 33.75 97.5251 34.8825 99.7397 37.1477C101.955 39.3624 103.062 42.005 103.062 45.0755C103.062 48.2466 101.955 50.9396 99.7397 53.1543C97.5251 55.3188 94.8572 56.4007 91.7364 56.4007ZM37.4497 77.6177L41.7534 75.4279L54.8155 97.3237C56.0235 98.532 57.4076 99.1361 58.968 99.1361C62.4414 99.1361 64.1779 97.3744 64.1779 93.8509C64.1779 93.3975 64.1526 93.0707 64.1025 92.8693L61.1578 65.4615L66.3671 64.5553L76.032 90.4528C77.1896 92.1139 78.6994 92.9447 80.5618 92.9447C83.7332 92.9447 85.4696 91.4096 85.7717 88.3389L89.1692 56.5521H94.3037L97.6258 88.3389C97.9779 91.4096 99.7149 92.9447 102.836 92.9447C104.698 92.9447 106.183 92.1139 107.29 90.4528L117.106 64.5553L122.164 65.6122L119.144 92.7934C119.144 92.9947 119.119 93.1961 119.069 93.3975C119.069 93.5488 119.069 93.6996 119.069 93.8509C119.069 97.3744 120.831 99.1361 124.354 99.1361C125.864 99.1361 127.273 98.532 128.582 97.3237L141.795 75.3525L146.552 77.5417C140.763 89.6726 137.869 102.534 137.869 116.124C137.869 116.879 137.869 117.71 137.869 118.615C137.869 119.522 137.793 120.679 137.643 122.089C135.881 127.827 135 133.062 135 137.793C135 143.683 136.107 149.446 138.322 155.084C135.805 157.198 130.243 158.96 121.636 160.369C113.028 161.778 103.112 162.483 91.8877 162.483C80.4611 162.483 70.3941 161.753 61.686 160.293C53.0285 158.784 47.567 156.896 45.3019 154.631C47.416 149.345 48.473 143.733 48.473 137.793C48.473 133.062 47.6677 127.827 46.0569 122.089C46.0066 120.679 45.9814 119.522 45.9814 118.615C46.0317 117.71 46.0569 116.879 46.0569 116.124C46.0569 102.684 43.1878 89.8492 37.4496 77.6177H37.4497ZM101.779 131.3L91.7364 136.208L81.7701 131.3L91.7364 126.393L101.779 131.3ZM130.017 138.624L127.752 138.926L119.522 131.678L130.546 129.715C130.847 128.003 131.225 126.267 131.678 124.505C121.762 122.089 108.548 120.881 92.0385 120.881C75.2766 120.881 61.8874 122.164 51.8708 124.732C52.0218 125.436 52.3994 127.047 53.0034 129.564L64.1779 131.678L55.948 138.926L53.6829 138.624C53.4815 141.493 53.3054 143.708 53.1543 145.268C62.4161 142.5 75.3019 141.115 91.8118 141.115C107.97 141.115 120.831 142.5 130.394 145.268C130.042 142.45 129.916 140.235 130.017 138.624ZM96.9463 131.3L91.7364 128.733L86.6025 131.3L91.7364 133.868L96.9463 131.3Z" fill="#2B1F31" />
    <path d="M130.017 136.586C129.966 135.529 130.042 133.943 130.243 131.829L124.429 132.962L128.884 136.812L130.017 136.586ZM53.6072 136.736L54.5133 137.039L58.9679 133.188L53.2297 132.131C53.3807 133.188 53.5066 134.723 53.6072 136.736ZM132.131 152.139C122.919 148.314 109.555 146.401 92.0384 146.401C74.1695 146.401 60.6543 148.364 51.4931 152.29C60.3016 155.764 73.7414 157.5 91.8117 157.5C100.47 157.5 108.372 157.022 115.52 156.065C122.718 155.109 128.255 153.8 132.131 152.139ZM132.357 119.824C132.357 119.22 132.357 118.591 132.357 117.936C132.357 117.282 132.357 116.577 132.357 115.822C132.357 110.386 132.861 104.547 133.867 98.3053C131.703 102.282 128.532 104.27 124.354 104.27C121.485 104.27 119.044 103.263 117.03 101.25C115.017 99.1862 114.01 96.7196 114.01 93.8503C114.01 93.6495 114.06 93.3975 114.161 93.0954C114.916 90.0754 114.941 88.4396 114.236 88.1876C113.733 88.0369 113.229 88.8924 112.726 90.7549C111.216 95.6374 107.92 98.0786 102.836 98.0786C99.9663 98.0786 97.5251 97.0723 95.5113 95.0586C93.4981 92.9947 92.5166 90.5282 92.5666 87.6594C92.4665 85.7464 92.1892 84.7901 91.7364 84.7901C91.1829 84.7901 90.8808 85.7464 90.8302 87.6594C90.8302 90.5282 89.8239 92.9947 87.8101 95.0586C85.847 97.0723 83.4311 98.0786 80.5617 98.0786C75.4779 98.0786 72.2064 95.6374 70.7467 90.7549C70.1926 88.9931 69.6892 88.1376 69.2364 88.1876C68.4815 88.389 68.4815 89.9494 69.2364 92.8693C69.2364 93.0201 69.2364 93.1961 69.2364 93.3975C69.287 93.5488 69.3117 93.6996 69.3117 93.8503C69.3117 96.7196 68.2801 99.1862 66.2163 101.25C64.2031 103.263 61.7866 104.27 58.9679 104.27C54.7398 104.27 51.5686 102.282 49.4545 98.3053C50.4613 104.597 50.9646 110.436 50.9646 115.822C50.9646 117.584 50.9394 118.892 50.889 119.748C60.9564 117.08 74.5717 115.747 91.7364 115.747C108.8 115.747 122.34 117.106 132.357 119.824ZM149.799 72.0304C153.473 72.0304 155.31 70.1927 155.31 66.5184C155.31 62.8436 153.473 61.0065 149.799 61.0065C146.124 61.0065 144.287 62.8436 144.287 66.5184C144.287 70.1927 146.124 72.0304 149.799 72.0304ZM33.8253 72.0304C37.4998 72.0304 39.3371 70.1927 39.3371 66.5184C39.3371 62.8436 37.4998 61.0065 33.8253 61.0065C30.1508 61.0065 28.3136 62.8436 28.3136 66.5184C28.3136 70.1927 30.1508 72.0304 33.8253 72.0304ZM121.938 59.0434C125.612 59.0434 127.45 57.2062 127.45 53.5318C127.45 49.8573 125.612 48.02 121.938 48.02C118.263 48.02 116.426 49.8573 116.426 53.5318C116.426 57.2062 118.263 59.0434 121.938 59.0434ZM61.5352 59.0434C65.2094 59.0434 67.0466 57.2062 67.0466 53.5318C67.0466 49.8573 65.2094 48.02 61.5352 48.02C57.8604 48.02 56.0233 49.8573 56.0233 53.5318C56.0233 57.2062 57.8604 59.0434 61.5352 59.0434ZM91.7364 50.5871C95.4106 50.5871 97.2483 48.7499 97.2483 45.0754C97.2483 41.4009 95.4106 39.5637 91.7364 39.5637C88.0621 39.5637 86.2244 41.4009 86.2244 45.0754C86.2244 48.7499 88.0621 50.5871 91.7364 50.5871ZM101.778 131.3L91.7364 136.208L81.77 131.3L91.7364 126.393L101.778 131.3ZM130.017 138.624L127.752 138.926L119.522 131.678L130.545 129.715C130.847 128.003 131.224 126.267 131.678 124.505C121.762 122.089 108.548 120.881 92.0384 120.881C75.2765 120.881 61.8873 122.164 51.8707 124.732C52.0216 125.436 52.3992 127.047 53.0032 129.563L64.1778 131.678L55.9478 138.926L53.6827 138.624C53.4814 141.493 53.3052 143.708 53.1542 145.268C62.4161 142.5 75.3018 141.116 91.8117 141.116C107.97 141.116 120.831 142.5 130.394 145.268C130.041 142.45 129.916 140.235 130.017 138.624ZM96.9462 131.3L91.7364 128.733L86.6024 131.3L91.7364 133.867L96.9462 131.3Z" fill="#BEF992" />
  </g>
  <g id="wr" fill="none" transform="scale(0.2222222222222222 0.2222222222222222)">
    <path d="M126.883 131.602L131.942 136.661V141.796H137.076V162.559H39.375V141.796H44.4337V136.661L49.568 131.602H54.7022V64.4799H44.4337V33.75H62.4791V45.302H78.0328V33.75H98.4184V45.302H113.972V33.75H131.942V64.4799H121.749V131.602H126.883ZM124.316 136.661H52.1351L49.568 139.379V141.796H126.883V139.379L124.316 136.661ZM101.061 64.4799V77.391H116.691V64.4799H101.061ZM80.4488 64.4799V77.391H96.0024V64.4799H80.4488ZM59.7611 64.4799V77.391H75.3148V64.4799H59.7611ZM90.8685 82.5249V95.436H106.195V82.5249H90.8685ZM70.2557 82.5249V95.436H85.5073V82.5249H70.2557ZM111.329 82.5249V95.436H116.691V82.5249H111.329ZM59.7611 82.5249V95.436H65.1217V82.5249H59.7611ZM111.329 118.616V131.602H116.691V118.616H111.329ZM90.8685 118.616V131.602H106.195V118.616H90.8685ZM70.2557 118.616V131.602H85.5073V118.616H70.2557ZM101.061 100.57V113.482H116.691V100.57H101.061ZM80.4488 100.57V113.482H96.0024V100.57H80.4488ZM59.7611 100.57V113.482H75.3148V100.57H59.7611ZM59.7611 118.616V131.602H65.1217V118.616H59.7611ZM44.4337 147.232V157.425H131.942V147.232H44.4337ZM88.2259 59.3454H126.883V38.8087L119.107 38.8843V50.4363H93.2844V38.8087H83.0914V50.4363H57.3446V38.8843L49.568 38.8087V59.3454H88.2259Z" fill="#2B1F31" />
    <path d="M124.316 136.661H52.1349L49.5678 139.379V141.796H126.883V139.379L124.316 136.661ZM101.061 64.48V77.391H116.69V64.48H101.061ZM80.4488 64.48V77.391H96.0025V64.48H80.4488ZM59.7606 64.48V77.391H75.3143V64.48H59.7606ZM90.868 82.5255V95.4366H106.196V82.5255H90.868ZM70.2557 82.5255V95.4366H85.5073V82.5255H70.2557ZM111.329 82.5255V95.4366H116.69V82.5255H111.329ZM59.7606 82.5255V95.4366H65.1212V82.5255H59.7606ZM111.329 118.616V131.603H116.69V118.616H111.329ZM90.868 118.616V131.603H106.196V118.616H90.868ZM70.2557 118.616V131.603H85.5073V118.616H70.2557ZM101.061 100.571V113.482H116.69V100.571H101.061ZM80.4488 100.571V113.482H96.0025V100.571H80.4488ZM59.7606 100.571V113.482H75.3143V100.571H59.7606ZM59.7606 118.616V131.603H65.1212V118.616H59.7606ZM44.4335 147.232V157.425H131.942V147.232H44.4335ZM88.2253 59.346H126.883V38.8089L119.107 38.8844V50.4364H93.2845V38.8089H83.0914V50.4364H57.3447V38.8844L49.5678 38.8089V59.346H88.2253Z" fill="#BEF992" />
  </g>
</svg>