<svg xmlns="http://www.w3.org/2000/svg" width="40" height="40" viewbox="0.0 0.0 81.0 81.0">
  <g id="bb" fill="none" transform="scale(0.49382716049382713 0.49382716049382713)">
    <path d="M18.9 72H62.1L50.3 62.5H30.7L18.9 72ZM41 18.9C42.5 18.9 43.9 18.4 45 17.6L47.8 12.4V12.1C47.8 8.4 44.8 5.3 41 5.3C37.3 5.3 34.2 8.3 34.2 12.1V12.4L37 17.6C38.2 18.4 39.6 18.9 41 18.9Z" fill="#010101" />
    <path d="M48.4 20.4L38.7 38.6L37 32.7L45.1 17.5C44.1 16.7 43.1 16 42.1 15.3H39C29 21.9 19.9 32.8 19.9 47.5L30.8 62.7H50.2L61.1 47.5C61.1 36.1 55.6 27 48.4 20.4" fill="#010101" />
    <path d="M48.6 27.9L41.4 40.9C41.4 40.9 46.4 42.2 48.6 39C50.8 35.9 50.2 28.9 48.6 27.9ZM31.2 55.1C29.6 41.2 32.6 27 39.1 20.3L38.6 19.6C31.5 25.9 24.6 35.2 24.6 46.2L31.2 55.1V55.1ZM37.9 69V63.3H35.4L28.8 69H37.9ZM42.4 7.9C41.6 7.4 40.6 7.3 39.7 7.6C37.8 8.1 36.7 10.1 37.2 12C37.2 12.1 37.2 12.1 37.3 12.2C40.3 12.4 42.8 9.3 42.4 7.9V7.9Z" fill="#6D6E6E" />
  </g>
  <g id="bk" fill="none" transform="scale(0.49382716049382713 0.49382716049382713)">
    <path d="M58.6 25.5C52.4 25.5 49.3 28.1 47.7 29.7L40.5 42.3L33.3 29.7C31.7 28.1 28.6 25.5 22.4 25.5C12.7 25.5 7.10001 33.5 7.10001 41.3C7.10001 50.1 10.9 53.2 16 63.6V72H65V63.6C70.1 53.1 73.9 50.1 73.9 41.3C73.9 33.5 68.3 25.5 58.6 25.5V25.5ZM40.5 61.6L36.9 55.2L40.5 48.8L44.1 55.2L40.5 61.6Z" fill="#010101" />
    <path d="M50.7 21.4V13.7L42.7 14.6L44.4 7.2H36.6L38.3 14.6L30.3 13.7V21.4L38.3 19L35.2 27.9L40.5 38.9L45.8 27.9L42.7 19L50.7 21.4Z" fill="#010101" />
    <path d="M40.5 19.9L37.6 27.5L40.5 33.9V19.9ZM22.8 29.1C15.6 29.1 11.1 35.5 11.1 42C11.1 46 14 50.2 16.9 54C16.9 41.6 21.5 36.6 29.4 31.4C29.4 31.4 27.4 29.1 22.8 29.1V29.1ZM43.5 44L50.9 31.3C50.9 31.3 54.5 28.7 58.9 28.7C63.3 28.7 63.4 29.2 63.4 29.2L43.5 44ZM31.8 15.1L35.6 17.4L31.8 19.7V15.1ZM49.2 15.1L42.8 16.3L47.5 17.4L49.2 15.1ZM42.6 8.9L40.5 10.8L38.4 8.9H42.6Z" fill="#6D6E6E" />
  </g>
  <g id="bn" fill="none" transform="scale(0.49382716049382713 0.49382716049382713)">
    <path d="M19.6 72H67L65 65.9C65 65.9 64.9 48.9 64.9 39.8C64.9 22.5 56.4 14.5 48.9 11.4C43.3 9.1 34.3 9.6 34.3 9.6L37.6 16.1L12 36.4L14 48.6L27.4 52.1L33.5 47C34.7 47.5 36 47.8 37.2 48.1V48.4C37.2 48.4 22.9 57 19.6 72ZM31.4 31.3C30.8 31.6 30.3 30.8 30.8 30.3L38 24.1L40.2 27.8L31.4 31.3Z" fill="#010101" />
    <path d="M15.8 38L17.1 45.9L21.8 47L21.7 42.4L18.8 41.9L15.8 38ZM30.8 33.4L46.4 29.6L48.6 25.8C48.6 25.8 51.4 26.9 50.7 32.1C50 37.3 43.9 40.4 38.6 39.7C31.7 38.8 30.8 33.4 30.8 33.4ZM36 67.9C41.1 51.5 52.4 54.9 52.8 45.5C49.5 51.4 42.1 51.1 42.1 51.1C42.1 51.1 30.5 56.2 26.3 67.9H36Z" fill="#6D6E6E" />
  </g>
  <g id="bp" fill="none" transform="scale(0.49382716049382713 0.49382716049382713)">
    <path d="M40.5 12.5C34.5 12.5 29.8 17.3 29.8 23.2C29.8 26.8 31.6 30.1 34.4 32H46.7C49.5 30.1 51.3 26.8 51.3 23.2C51.2 17.2 46.5 12.5 40.5 12.5Z" fill="#010101" />
    <path d="M43.2 16.4C41.7 15.5 39.9 15.3 38 15.8C34.4 16.8 32.4 20.4 33.3 24C33.3 24.1 33.4 24.2 33.4 24.3C39.2 25 44 19.1 43.2 16.4Z" fill="#6D6E6E" />
    <path d="M34.5 31.7L34.2 39.4L30.7 61.1L18.3 72H62.6L50.3 61.1L46 39.4L45.7 31.7" fill="#010101" />
    <path d="M37.7 39.6L33.8 62.1L27.2 69.2H34.8L40 63.8L40.1 39.6H37.7Z" fill="#6D6E6E" />
    <path d="M26.6 38.8H54.4L47.7 30.8H33.3L26.6 38.8Z" fill="#010101" />
    <path d="M32.3 36.5H41.1L39 32.5H35.2L32.3 36.5Z" fill="#6D6E6E" />
  </g>
  <g id="bq" fill="none" transform="scale(0.49382716049382713 0.49382716049382713)">
    <path d="M55.7 50.9L59.7 16L40.5 49.2L21.3 16L25.4 50.9L7.89999 30.8L18.8 72H62.2L73.1 30.8L55.7 50.9V50.9ZM40.5 66.9L36.9 60.5L40.5 54.1L44.1 60.5L40.5 66.9Z" fill="#010101" />
    <path d="M40.5 11.7L34.9 35.2L40.5 44.7L46.1 35.2L40.5 11.7Z" fill="#010101" />
    <path d="M40.5 16C43.4823 16 45.9 13.5823 45.9 10.6C45.9 7.61766 43.4823 5.2 40.5 5.2C37.5177 5.2 35.1 7.61766 35.1 10.6C35.1 13.5823 37.5177 16 40.5 16Z" fill="#010101" />
    <path d="M41.6 7.2C40.8 6.8 39.9 6.6 39 6.9C37.2 7.4 36.1 9.3 36.6 11.1C36.6 11.2 36.6 11.2 36.7 11.3C39.6 11.6 42 8.5 41.6 7.2V7.2Z" fill="#6D6E6E" />
    <path d="M59.5 21.4C62.4823 21.4 64.9 18.9823 64.9 16C64.9 13.0177 62.4823 10.6 59.5 10.6C56.5177 10.6 54.1 13.0177 54.1 16C54.1 18.9823 56.5177 21.4 59.5 21.4Z" fill="#010101" />
    <path d="M60.6 12.6C59.8 12.2 58.9 12 58 12.3C56.2 12.8 55.1 14.7 55.6 16.5C55.6 16.6 55.6 16.6 55.7 16.7C58.6 16.9 61 13.9 60.6 12.6Z" fill="#6D6E6E" />
    <path d="M21.5 21.4C24.4823 21.4 26.9 18.9823 26.9 16C26.9 13.0177 24.4823 10.6 21.5 10.6C18.5177 10.6 16.1 13.0177 16.1 16C16.1 18.9823 18.5177 21.4 21.5 21.4Z" fill="#010101" />
    <path d="M22.6 12.6C21.8 12.2 20.9 12 20 12.3C18.2 12.8 17.1 14.7 17.6 16.5C17.6 16.6 17.6 16.6 17.7 16.7C20.6 16.9 23 13.9 22.6 12.6Z" fill="#6D6E6E" />
    <path d="M73.1 36.8C76.0823 36.8 78.5 34.3823 78.5 31.4C78.5 28.4177 76.0823 26 73.1 26C70.1177 26 67.7 28.4177 67.7 31.4C67.7 34.3823 70.1177 36.8 73.1 36.8Z" fill="#010101" />
    <path d="M74.2 28C73.4 27.6 72.5 27.4 71.6 27.7C69.8 28.2 68.7 30.1 69.2 31.9C69.2 32 69.2 32 69.3 32.1C72.2 32.3 74.6 29.3 74.2 28Z" fill="#6D6E6E" />
    <path d="M7.9 36.8C10.8823 36.8 13.3 34.3823 13.3 31.4C13.3 28.4177 10.8823 26 7.9 26C4.91766 26 2.5 28.4177 2.5 31.4C2.5 34.3823 4.91766 36.8 7.9 36.8Z" fill="#010101" />
    <path d="M9 28C8.2 27.6 7.3 27.4 6.4 27.7C4.6 28.1 3.5 30 4 31.8C4 31.9 4 31.9 4.1 32C7 32.3 9.4 29.3 9 28V28ZM40.5 20.9L37.4 34.3L40.5 39.6V20.9ZM56.6 54.7L58.4 60.3L68 38.3L56.6 54.7ZM47.9 50.5L55.9 29.3L43.6 50.1L47.9 50.5ZM33.3 50.5L25 29.1L28.1 51L33.3 50.5ZM23.1 58.7L12.6 40.9L20.5 67.3L23.1 58.7Z" fill="#6D6E6E" />
  </g>
  <g id="br" fill="none" transform="scale(0.49382716049382713 0.49382716049382713)">
    <path d="M56.9 31.1H24.1L19.2 72H61.8L56.9 31.1Z" fill="#010101" />
    <path d="M14.2 58.5H66.7V72H14.2V58.5Z" fill="#010101" />
    <path d="M41.1 34.1C41 41.3 34.5 58.5 26.9 58.5H24.6L28.4 34.1H41.1ZM18.4 62.3H36.3V68.4H18.4V62.3Z" fill="#6D6E6E" />
    <path d="M53.4 12V18.9H46.5V12H34.5V18.9H27.6V12H15.6V23.4L24.6 32.5H56.4L65.4 23.4V12H53.4Z" fill="#010101" />
    <path d="M62.4 15H56.4V22.2L62.4 15ZM43.5 15H37.5V22.2L43.5 15ZM24.6 15H18.6V22.2L24.6 15Z" fill="#6D6E6E" />
  </g>
  <g id="wb" fill="none" transform="scale(0.49382716049382713 0.49382716049382713)">
    <path d="M61.4 71L49.5 61.9L60.1 47.3C60.1 36.3 55.2 27.4 48.2 21L46.5 20.2L38.6 34.5L37.1 32.9L44.9 18.2L47.6 13.1V12.9C47.6 9.3 44.7 6.3 41 6.3C37.4 6.3 34.4 9.2 34.4 12.9V13.1L36.7 17.5C28 24.1 20.9 34.1 20.9 47.3L31.5 61.9L19.6 71H61.4Z" fill="white" />
    <path d="M45.6 70.7H60L49.6 61.2H42.8L45.6 70.7ZM50.8 25.1C54.7 42.1 36 55.8 36 55.8L43.3 60.5H50.7L60.9 47.3L59.4 38.7L55.8 30.4L53.2 26L50.8 25.1V25.1ZM44.5 8.6C45.3 11 41.1 13 41.1 13V18.1L44.4 18.2L47.4 13.9L47.1 10.5L45 8.6H44.5Z" fill="#CFCECF" />
    <path d="M65 72.2L50.9 61.6L61.1 47.6V47.2C61.1 33.1 53.5 24.1 48.9 19.9L46.6 17.6L48.7 13.7L48.8 13.4V12.9C48.8 8.6 45.3 5 40.9 5C36.6 5 33.1 8.5 33.1 12.9V13.4L35 17.1C29.1 21.7 19.5 31.7 19.5 47.2V47.6L29.7 61.6L16 72.2H65ZM22.5 46.9C22.2 32.3 31.8 22.9 37.5 18.7L38.4 18.1L35.7 13C35.7 10.1 38.1 7.7 41 7.7C43.9 7.7 46.3 10.1 46.4 13L35.8 34.6V34.7L38 40.5L47.3 21.7L48.4 22.7C53.2 27.4 58.8 35.4 58.5 46.8L49.3 59.8H31.8L22.5 46.9ZM32.9 62.5H48L57.8 69.8H23.2L32.9 62.5Z" fill="black" />
    <path d="M36.2 18H41.1L38.4 20.1H34.6" fill="black" />
  </g>
  <g id="wk" fill="none" transform="scale(0.49382716049382713 0.49382716049382713)">
    <path d="M58 25.9C52 25.9 48.9 28.5 47.4 30L40.4 42.2L33.4 30C32 28.5 29 25.9 23 25.9C13.6 25.9 8.10001 33.6 8.10001 41.2C8.10001 49.8 11.8 52.7 16.7 62.9V71H64.3V62.9C69.2 52.8 72.9 49.8 72.9 41.2C72.9 33.6 67.4 25.9 58 25.9V25.9Z" fill="white" />
    <path d="M35.3 32.8L40.5 43.5L45.7 32.8L42.6 21.8L50.5 24.2V16.6L42.6 17.6L44.3 10.3H36.7L38.4 17.6L30.5 16.6V24.2L38.4 21.8L35.3 32.8Z" fill="white" />
    <path d="M64.7 27.4C71.8 40 58 58.6 45.9 59.9L65.3 62.5L71.9 49.1L72.9 39.2L71.2 34L68.6 30.4L64.7 27.4V27.4ZM33.6 30.1C34.7 35.5 32 44.7 28.2 50.6C24.4 56.5 17.7 61.4 17.7 61.4L40.5 59.8V42.6L33.6 30.1Z" fill="#CFCECF" />
    <path d="M53.1 60.6V70.5H64V62.9L53.1 60.6ZM49.5 17.7L48.2 20.5L41.1 20.3L49.5 23.6H50.5L49.5 17.7ZM43.1 11.3L40.5 13V19.2L42.1 18.2L43.1 11.3ZM41.8 21.5V33.2L40.5 40.2L45 34L41.8 21.5ZM39.9 20.6H30.5V24.2L39.9 20.6Z" fill="#CFCECF" />
    <path d="M36.4 51.2L40.5 57.2L44.6 51.2L40.5 45.2L36.4 51.2Z" fill="black" />
    <path d="M69.8 29.9C66.8 26.5 62.6 24.7 58 24.7C53.2 24.7 49.4 26.2 46.5 29.2L46 30L44.1 23.3L51.5 25.5V15.4L43.9 16.4L45.6 9.3H35.4L37.1 16.4L29.5 15.4V25.5L36.9 23.3L35 30.1L34.6 29.4L34.5 29.2V29.1C31.6 26.1 27.8 24.6 23 24.6C12.9 24.6 6.89999 33 6.89999 41.2C6.89999 47.6 8.89999 51.2 11.7 56.1L12.3 57.1C13.3 58.8 14.4 60.8 15.5 63.1V72.2H65.6V63.1C66.8 60.8 67.8 58.8 68.8 57.1L69.4 56.1C72.2 51.2 74.2 47.6 74.2 41.2C74.2 37.1 72.6 33 69.8 29.9V29.9ZM39.9 20.3L31.5 22.8V17.7L39.7 18.7L37.9 11.3H43.1L41.3 18.7L49.5 17.7V22.8L41.1 20.3L44.6 32.5L40.5 39.7L36.4 32.5L39.9 20.3V20.3ZM63 69.8H17.8V63.3C21.6 62.6 31 61 40.5 61C49.8 61 59.1 62.5 63 63.2V69.8ZM67.2 54.9C66.2 56.5 64.2 59.6 63.4 60.8C59.3 60.1 50 58.6 40.4 58.6C30.7 58.6 21.2 60.1 17.3 60.8C16.5 59.6 14.5 56.6 13.6 54.9L13.5 54.8C10.8 50 9.09999 47 9.09999 41.3C9.09999 32.2 16.1 27.3 22.7 27.3C26.7 27.3 29.9 28.5 32.3 30.9L40.3 44.8L48.3 30.9C50.7 28.5 53.9 27.3 57.9 27.3C66.8 27.3 71.6 34.5 71.6 41.3C71.7 47 70 50 67.2 54.9V54.9Z" fill="black" />
  </g>
  <g id="wn" fill="none" transform="scale(0.49382716049382713 0.49382716049382713)">
    <path d="M48 45.1C44.7 46.7 40.8 47 37 45.8L36.6 45.7L36.3 45.9C36.2 46 24.3 55.8 20.5 69.6L20.2 70.5H65L63.2 65V64.9C63.2 64.8 63.1 50.1 63.1 41.1C63.1 24.2 55.5 15.5 48.1 12.5C44.4 11.1 38.9 10 35.7 10H34.5L37.7 16.2L13.3 36.5L14.3 47.3L19.3 48.7L24.4 44.8H26L21.7 49.3L22.8 49.7L29.5 51.6L35 44.8C38.5 46.3 42.7 46.1 47.5 44.2C50.3 43 52.6 40.6 54 38.6C53.1 41.4 51 43.7 48 45.1V45.1Z" fill="white" />
    <path d="M38 22.1L30.3 28.3C29.8 28.8 29.7 29.6 30.1 30.2C30.4 30.6 30.8 30.8 31.2 30.8C31.4 30.8 31.6 30.8 31.8 30.7L40.9 27.1L38 22.1V22.1Z" fill="black" />
    <path d="M38.7 70.7L56.4 71H64.9C64.9 71 62.8 65.8 62.8 63.8V28.6C62.8 37 60.1 46.6 53.3 53.4C40.5 57 38.7 70.7 38.7 70.7ZM34.6 47.3L35.9 45.5L44.7 46.3L49.5 44.1L53.4 40.7L55.8 34.2C55 32.9 53.6 32.1 51.8 31.4C49.8 39.1 43.7 43.7 35.5 41.8C35.1 42.9 34.8 43.7 34.8 43.7L27.8 44L22 48.8L29 53.3L34.6 47.3V47.3Z" fill="#CFCECF" />
    <path d="M18.2 72.2H67.3L64.8 64.7V41.1C64.8 34.3 63.9 17.2 48.8 11C43 8.6 34.2 8.4 33.8 8.5L32 8.6L35.7 15.8L11.5 35.8L12.8 48.6L27.3 52.8C23.8 57.3 20 63.5 18.4 70.8L18.2 72.2ZM36.7 46.5C38.2 47 39.8 47.3 41.5 47.3C43.9 47.3 46.2 46.8 48.3 45.8C52.4 43.8 55.1 40.2 55.6 35.7L55.8 34.3L55.2 35.5C55.2 35.6 52.2 41.3 47.3 43.5C43.4 45.1 38.9 45.9 34.9 43.9L29.3 50.8L23.5 49.1L23.1 49L27.8 44.1H24.1L19.1 47.9L15 46.7L14.1 36.8L38.7 16.4L35.8 10.8C38.7 10.8 44.1 11.7 47.9 13.2C53.6 15.5 62.4 22.8 62.4 41.1C62.4 50.2 62.5 64.9 62.5 64.9V65.1L64 69.8H21.2C24.8 56.6 35.9 47.1 36.7 46.5Z" fill="black" />
  </g>
  <g id="wp" fill="none" transform="scale(0.49382716049382713 0.49382716049382713)">
    <path d="M29.7 37.8H51.3L46.2 31.8H46.9C49.5 29.9 51.2 26.7 51.2 23.2C51.2 17.2 46.4 12.5 40.5 12.5C34.6 12.5 29.8 17.3 29.8 23.2C29.8 26.7 31.5 29.9 34.1 31.8H34.8L29.7 37.8V37.8ZM49.4 60.5L45.1 39.8H35.1L31.6 60.5L21 69.9H60L49.4 60.5Z" fill="white" />
    <path d="M40.5 59.7L47.8 71H61.6L51.2 60L49.8 59.1L46.9 38.9H40.5V59.7ZM44.4 38H52.5L47.2 31.5H41L44.4 38ZM45 13.3C48.7 18.8 46.1 30.9 34.8 30.9C34.6 30.9 46.9 31.5 47.9 30.6C49.8 28.7 51 26.2 51 23.3C51.1 17.3 44.8 12.1 45 13.3Z" fill="#CFCECF" />
    <path d="M15 72.2H66L51.5 59.4L47.3 39.4H55.5L48.4 31.4C51.3 29.2 52 25.8 52 23.3C52 16.9 47 11.9 40.6 11.9C34.3 11.9 29.2 17 29.2 23.3C29.2 25.8 29.8 29.2 32.8 31.4L25.7 39.4H33L29.6 59.4L15 72.2ZM31.4 23.3C31.4 18.3 35.5 14.2 40.5 14.2C45.6 14.2 49.6 18.2 49.6 23.3C49.6 25.6 48.8 27.7 47.2 29.4H33.8C32.3 27.7 31.4 25.5 31.4 23.3ZM35.2 31.7H45.9L50.4 37.3H30.7L35.2 31.7V31.7ZM35.4 39.4H44.8L49.2 60.6V60.7L59.4 69.7H21.6L31.8 60.6L35.4 39.4V39.4Z" fill="#010101" />
  </g>
  <g id="wq" fill="none" transform="scale(0.49382716049382713 0.49382716049382713)">
    <path d="M21.9 21.7C24.7719 21.7 27.1 19.3719 27.1 16.5C27.1 13.6281 24.7719 11.3 21.9 11.3C19.0281 11.3 16.7 13.6281 16.7 16.5C16.7 19.3719 19.0281 21.7 21.9 21.7Z" fill="white" />
    <path d="M59.1 21.8C62 21.8 64.3 19.5 64.3 16.6C64.3 13.7 62 11.4 59.1 11.4C56.2 11.4 53.9 13.7 53.9 16.6C53.9 19.5 56.2 21.8 59.1 21.8V21.8Z" fill="white" />
    <path d="M72.1 26.4C69.2 26.4 66.9 28.7 66.9 31.6C66.9 33 67.5 34.4 68.4 35.3L55.2 50.5L58.5 21.8L56.4 21.2L46.6 38.1L41.5 16.4H39.3L34.2 38.1L24.4 21.2L22.3 21.8L25.6 50.5L12.6 35.3C13.5 34.4 14.1 33 14.1 31.6C14.1 28.7 11.8 26.4 8.9 26.4C6 26.4 3.7 28.7 3.7 31.6C3.7 34.5 6 36.8 8.9 36.8C9.4 36.8 9.9 36.7 10.4 36.6L19.5 71H61.6L70.7 36.6C71.2 36.7 71.7 36.8 72.2 36.8C75.1 36.8 77.4 34.5 77.4 31.6C77.4 28.7 75 26.4 72.1 26.4V26.4Z" fill="white" />
    <path d="M40.5 16.5C43.3719 16.5 45.7 14.1719 45.7 11.3C45.7 8.42812 43.3719 6.1 40.5 6.1C37.6281 6.1 35.3 8.42812 35.3 11.3C35.3 14.1719 37.6281 16.5 40.5 16.5Z" fill="white" />
    <path d="M41.4 20.3L46.7 38.2L41.4 45.5V20.3ZM27.1 53.6L23.6 60.4L13.9 38.3L27.1 53.6ZM34 50.5L24.8 22.8L40.5 50.9L34 50.5ZM48.2 50.5L57.5 25.8L53.9 53.6L48.2 50.5ZM52.9 70.4L68.5 36.7L70 37L60.7 70.4H52.9ZM73.3 36.7C76.7 35.8 77.2 33.3 77.3 30C77.3 29.4 76.4 28.2 76 28.2C75.6 28.3 75.2 28.3 74.8 28.5C75.1 31 73.5 33.5 71 34.2C69.9 34.5 68.9 34.4 67.9 34.1C67.3 35.1 71.8 37.1 73.3 36.7V36.7ZM60 21.3C63.4 20.4 63.9 17.9 64 14.6C64 14 63.1 12.8 62.7 12.8C62.3 12.9 61.9 12.9 61.5 13.1C61.8 15.6 60.2 18.1 57.7 18.8C56.6 19.1 55.6 19 54.6 18.7C54 19.7 58.5 21.7 60 21.3ZM10.1 36.7C13.5 35.8 14 33.3 14.1 30C14.1 29.4 13.2 28.2 12.8 28.2C12.4 28.3 12 28.3 11.6 28.5C11.9 31 10.3 33.5 7.8 34.2C6.7 34.5 5.7 34.4 4.7 34.1C4.1 35.1 8.6 37.1 10.1 36.7ZM23.1 21.3C26.5 20.4 27 17.9 27.1 14.6C27.1 14 26.2 12.8 25.8 12.8C25.4 12.9 25 12.9 24.6 13.1C24.9 15.6 23.3 18.1 20.8 18.8C19.7 19.1 18.7 19 17.7 18.7C17.1 19.7 21.6 21.7 23.1 21.3ZM41.6 16.1C45 15.2 45.5 12.7 45.6 9.4C45.6 8.8 44.7 7.6 44.3 7.6C43.9 7.7 43.5 7.7 43.1 7.9C43.4 10.4 41.8 12.9 39.3 13.6C38.2 13.9 37.2 13.8 36.2 13.5C35.6 14.6 40.1 16.5 41.6 16.1Z" fill="#CFCECF" />
    <path d="M40.5 65.7L36.6 59.8L40.5 54L44.4 59.8L40.5 65.7Z" fill="#231F20" />
    <path d="M21.9 21.7C24.7719 21.7 27.1 19.3719 27.1 16.5C27.1 13.6281 24.7719 11.3 21.9 11.3C19.0281 11.3 16.7 13.6281 16.7 16.5C16.7 19.3719 19.0281 21.7 21.9 21.7Z" fill="white" />
    <path d="M59.1 21.8C62 21.8 64.3 19.5 64.3 16.6C64.3 13.7 62 11.4 59.1 11.4C56.2 11.4 53.9 13.7 53.9 16.6C53.9 19.5 56.2 21.8 59.1 21.8V21.8Z" fill="white" />
    <path d="M72.1 26.4C69.2 26.4 66.9 28.7 66.9 31.6C66.9 33 67.5 34.4 68.4 35.3L55.2 50.5L58.5 21.8L56.4 21.2L46.6 38.1L41.5 16.4H39.3L34.2 38.1L24.4 21.2L22.3 21.8L25.6 50.5L12.6 35.3C13.5 34.4 14.1 33 14.1 31.6C14.1 28.7 11.8 26.4 8.9 26.4C6 26.4 3.7 28.7 3.7 31.6C3.7 34.5 6 36.8 8.9 36.8C9.4 36.8 9.9 36.7 10.4 36.6L19.5 71H61.6L70.7 36.6C71.2 36.7 71.7 36.8 72.2 36.8C75.1 36.8 77.4 34.5 77.4 31.6C77.4 28.7 75 26.4 72.1 26.4V26.4Z" fill="white" />
    <path d="M40.5 16.5C43.3719 16.5 45.7 14.1719 45.7 11.3C45.7 8.42812 43.3719 6.1 40.5 6.1C37.6281 6.1 35.3 8.42812 35.3 11.3C35.3 14.1719 37.6281 16.5 40.5 16.5Z" fill="white" />
    <path d="M41.4 20.3L46.7 38.2L41.4 45.5V20.3ZM27.1 53.6L23.6 60.4L13.9 38.3L27.1 53.6ZM34 50.5L24.8 22.8L40.5 50.9L34 50.5ZM48.2 50.5L57.5 25.8L53.9 53.6L48.2 50.5ZM42.1 70.4C62 65.7 68.5 36.7 68.5 36.7L70 37L60.7 70.4H42.1Z" fill="#CFCECF" />
    <path d="M73.3 36.7C76.7 35.8 77.2 33.3 77.3 30C77.3 29.4 76.4 28.2 76 28.2C75.6 28.3 75.2 28.3 74.8 28.5C75.1 31 73.5 33.5 71 34.2C69.9 34.5 68.9 34.4 67.9 34.1C67.3 35.1 71.8 37.1 73.3 36.7V36.7ZM60 21.3C63.4 20.4 63.9 17.9 64 14.6C64 14 63.1 12.8 62.7 12.8C62.3 12.9 61.9 12.9 61.5 13.1C61.8 15.6 60.2 18.1 57.7 18.8C56.6 19.1 55.6 19 54.6 18.7C54 19.7 58.5 21.7 60 21.3ZM10.1 36.7C13.5 35.8 14 33.3 14.1 30C14.1 29.4 13.2 28.2 12.8 28.2C12.4 28.3 12 28.3 11.6 28.5C11.9 31 10.3 33.5 7.8 34.2C6.7 34.5 5.7 34.4 4.7 34.1C4.1 35.1 8.6 37.1 10.1 36.7ZM23.1 21.3C26.5 20.4 27 17.9 27.1 14.6C27.1 14 26.2 12.8 25.8 12.8C25.4 12.9 25 12.9 24.6 13.1C24.9 15.6 23.3 18.1 20.8 18.8C19.7 19.1 18.7 19 17.7 18.7C17.1 19.7 21.6 21.7 23.1 21.3ZM41.6 16.1C45 15.2 45.5 12.7 45.6 9.4C45.6 8.8 44.7 7.6 44.3 7.6C43.9 7.7 43.5 7.7 43.1 7.9C43.4 10.4 41.8 12.9 39.3 13.6C38.2 13.9 37.2 13.8 36.2 13.5C35.6 14.6 40.1 16.5 41.6 16.1Z" fill="#CFCECF" />
    <path d="M40.5 65.7L36.6 59.8L40.5 54L44.4 59.8L40.5 65.7Z" fill="black" />
    <path d="M72.1 25.1C68.5 25.1 65.7 28 65.7 31.6C65.7 32.9 66.1 34.2 66.8 35.3L56.3 48.3L59.7 22.9C63 22.6 65.6 19.8 65.6 16.5C65.6 12.9 62.7 10 59.1 10C55.5 10 52.6 12.9 52.6 16.5C52.6 18.4 53.4 20.2 54.9 21.5L47.1 34.9L43 17.3C45.3 16.3 46.9 13.9 46.9 11.3C46.9 7.7 44 4.9 40.5 4.9C36.9 4.9 34 7.8 34 11.3C34 13.9 35.5 16.2 37.9 17.3L33.8 34.9L26 21.5C27.5 20.3 28.3 18.4 28.3 16.5C28.3 12.9 25.4 10 21.8 10C18.2 10 15.3 12.9 15.3 16.5C15.3 19.8 17.9 22.6 21.2 22.9L24.6 48.3L14.2 35.3C14.9 34.3 15.3 33 15.3 31.6C15.3 28 12.4 25.1 8.79999 25.1C5.19999 25.1 2.39999 28 2.39999 31.6C2.39999 35.2 5.29999 38 8.79999 38H9.29999L18.3 72V72.2H62.3L71.3 38H71.8C75.4 38 78.2 35.1 78.2 31.6C78.3 28 75.6 25.1 72.1 25.1V25.1ZM13.1 31.6C13.1 33.9 11.2 35.7 8.89999 35.7C6.59999 35.7 4.79999 33.9 4.79999 31.6C4.79999 29.3 6.69999 27.4 8.89999 27.4C11.2 27.4 13.1 29.3 13.1 31.6ZM21.9 20.8C19.6 20.8 17.8 18.9 17.8 16.6C17.8 14.3 19.7 12.4 21.9 12.4C24.2 12.4 26.1 14.3 26.1 16.6C26.1 18.8 24.2 20.8 21.9 20.8V20.8ZM55 16.5C55 14.2 56.9 12.3 59.1 12.3C61.4 12.3 63.3 14.2 63.3 16.5C63.3 18.8 61.4 20.7 59.1 20.7C56.8 20.8 55 18.9 55 16.5ZM20.4 69.8L11.8 37.4C11.9 37.3 12 37.3 12.1 37.3C12.2 37.3 12.3 37.2 12.4 37.2L27.5 54.5L23.8 22.9H23.9L40.3 51L40.5 51.4L57.1 22.7H57.2L53.5 54.3L68.6 37L69.2 37.3L60.6 69.8H20.4ZM76.3 31.6C76.3 33.9 74.4 35.7 72.1 35.7C69.8 35.7 68 33.9 68 31.6C68 29.3 69.9 27.4 72.1 27.4C74.4 27.4 76.3 29.3 76.3 31.6ZM40.5 46.3L35.7 38L40.4 17.8H40.7L45.3 38L40.5 46.3ZM40.5 15.5C38.2 15.5 36.3 13.6 36.3 11.3C36.3 9 38.2 7.2 40.5 7.2C42.8 7.2 44.7 9.1 44.7 11.3C44.8 13.6 42.8 15.5 40.5 15.5Z" fill="black" />
  </g>
  <g id="wr" fill="none" transform="scale(0.49382716049382713 0.49382716049382713)">
    <path d="M58.7 59.4L55.5 32.1L64.1 23.9V12.8H53V20.9H46.3V12.8H34.7V20.9H28V12.8H16.9V23.9L25.5 32.1L22.3 59.4H15.7V71H65.3V59.4H58.7Z" fill="white" />
    <path d="M58.5 59.7L54.3 32.5H56.5L64.1 23.9V12.8L58.3 17.4V25.6H32L43.6 32.5H46.8C46.8 44.6 44 53.8 35.1 59.7H48.4L54.5 70H64.4V59.7H58.5V59.7Z" fill="#CFCECF" />
    <path d="M59.1 58.1L56.5 33.3L65.2 24.3V11.5H51.8V19.7H47.6V11.5H33.5V19.7H29.3V11.5H15.6V24.4L24.3 33.4L21.7 58.2H14.4V72.3H66.2V72H66.4V58.1H59.1V58.1ZM36 22.2V14H45V22.2H54.2V14H62.7V23.3L54.4 32H26.5L18.1 23.4V14H26.7V22.2H36ZM54 34.4L56.6 58.1H24.3L26.9 34.4H54V34.4ZM56.9 60.6H64V69.7H17V60.6H56.9V60.6Z" fill="black" />
  </g>
</svg>