<svg xmlns="http://www.w3.org/2000/svg" width="40" height="40" viewbox="0.0 0.0 181.0 180.0">
  <g id="bb" fill="none" transform="scale(0.22099447513812154 0.22099447513812157)">
    <path d="M90.1317 158.719C85.7936 164.991 79.9314 168.128 72.545 168.128C71.7829 168.128 71.0208 168.098 70.2587 168.04C69.5552 167.923 68.8518 167.835 68.1483 167.776C66.4483 167.717 63.9568 167.424 60.674 166.897C57.3911 166.31 53.7272 164.991 49.6823 162.94C46.1063 159.833 41.5631 158.279 36.0526 158.279C31.8318 158.279 28.1679 159.276 25.0609 161.269C24.1815 161.679 23.097 162.529 21.8073 163.819C19.4624 166.34 17.5572 167.717 16.0917 167.952C14.9192 167.366 14.3037 166.369 14.245 164.962C13.9519 162.207 15.9744 158.66 20.3125 154.322C19.5504 154.439 18.1141 154.791 16.0037 155.377C14.245 155.905 13.0726 156.169 12.4864 156.169C10.5518 156.462 9.52594 156.491 9.40869 156.257C8.76385 155.612 8.99835 154.293 10.1122 152.3C11.0501 150.6 12.8674 149.105 15.564 147.815C15.9158 147.639 17.0296 147.141 18.9055 146.32C24.3574 143.448 30.0731 142.011 36.0526 142.011C44.7873 142.011 52.672 144.972 59.7067 150.893C62.5206 151.831 65.3637 152.3 68.2362 152.3C77.0296 152.3 81.5728 148.665 81.8659 141.396C76.1796 140.868 71.4312 139.901 67.6207 138.494C63.8689 137.087 61.993 135.446 61.993 133.57L69.0276 110.179C64.9241 103.731 61.524 97.1654 58.8274 90.4824C56.1307 83.7995 54.7824 77.4682 54.7824 71.4887C54.7824 53.5503 64.5137 39.7741 83.9763 30.16C83.9763 29.3979 84.0642 28.2548 84.2401 26.7306C82.2469 25.0891 81.2503 23.008 81.2503 20.4873C81.2503 15.094 83.9763 12.3974 89.4281 12.3974C94.8214 12.3974 97.5181 15.094 97.5181 20.4873C97.5181 22.8322 96.668 24.796 94.968 26.3788C94.968 28.1961 95.2024 29.4272 95.6714 30.072C96.668 31.479 97.987 32.2118 99.6284 32.2704C101.328 32.2118 102.735 31.4497 103.849 29.9841C104.084 29.6324 104.318 28.5479 104.553 26.7306C103.029 25.1478 102.266 23.1839 102.266 20.839C102.266 15.3285 105.022 12.5733 110.532 12.5733C116.043 12.5733 118.798 15.3285 118.798 20.839C118.798 23.946 117.45 26.3495 114.753 28.0496C114.519 29.222 114.46 30.16 114.577 30.8635C124.484 42.5879 128.793 56.1297 127.503 71.4887C127.093 75.8854 126.419 80.2235 125.481 84.5029C124.543 88.7237 122.902 92.7101 120.557 96.4619C119.677 98.455 118.3 100.712 116.424 103.233C114.606 105.695 113.024 108.01 111.675 110.179L118.622 133.57C118.563 135.446 116.629 137.087 112.818 138.494C109.008 139.901 104.201 140.868 98.3974 141.396C98.6905 148.665 103.263 152.3 112.115 152.3C114.988 152.3 117.831 151.831 120.645 150.893C127.621 144.972 135.505 142.011 144.299 142.011C150.278 142.011 155.965 143.448 161.358 146.32C162.061 146.672 162.677 146.965 163.204 147.2C163.732 147.434 164.26 147.639 164.787 147.815C167.425 149.163 169.243 150.658 170.239 152.3C170.415 152.827 170.679 153.501 171.03 154.322C171.382 155.143 171.353 155.788 170.943 156.257C170.767 156.491 169.741 156.462 167.865 156.169C167.279 156.169 166.106 155.905 164.348 155.377C162.179 154.791 160.713 154.439 159.951 154.322C164.289 158.719 166.341 162.265 166.106 164.962C165.989 166.31 165.344 167.307 164.172 167.952C162.706 167.717 160.801 166.34 158.456 163.819C157.284 162.647 156.228 161.797 155.29 161.269C152.008 159.276 148.344 158.279 144.299 158.279C138.671 158.279 134.098 159.833 130.581 162.94C126.536 164.991 122.872 166.31 119.589 166.897C116.307 167.424 113.844 167.717 112.203 167.776C111.499 167.835 110.767 167.923 110.005 168.04C109.243 168.098 108.51 168.128 107.806 168.128C100.244 168.128 94.3524 164.991 90.1316 158.719H90.1317Z" fill="#222831" />
    <path d="M123.195 75.2698C124.015 72.1042 123.107 66.2127 120.469 57.5952C117.831 48.9777 113.727 41.7672 108.158 35.9636C107.455 35.436 106.722 35.2015 105.96 35.2601C104.963 35.3187 104.025 35.729 103.146 36.4911C102.266 37.2532 102.149 38.1619 102.794 39.2171C109.653 43.731 114.782 50.0036 118.183 58.0348C121.583 66.0075 123.253 71.7525 123.195 75.2698Z" fill="#00ADB5" />
    <path d="M105.784 69.7301V59.8815H95.2318V46.1639H85.4712V59.8815H74.7433V69.7301H85.4712V89.3392H95.2318V69.7301H105.784Z" fill="#00ADB5" />
    <path d="M106.751 104.64L108.334 110.707C103.351 109.241 97.2836 108.509 90.1317 108.509C83.4487 108.509 77.5572 109.183 72.457 110.531L74.2157 104.464C78.9055 103.291 84.2108 102.705 90.1317 102.705C96.5802 102.705 102.12 103.35 106.751 104.64Z" fill="#00ADB5" />
    <path d="M97.694 151.772C99.394 153.648 100.713 154.879 101.651 155.465C102.648 156.345 103.146 157.136 103.146 157.839C103.146 159.598 102.267 160.477 100.508 160.477C99.9802 160.477 99.4526 160.302 98.925 159.95C97.9285 159.481 96.8733 158.719 95.7594 157.664C93.3559 155.436 91.949 154.117 91.5386 153.707C91.5973 153.765 91.4507 153.531 91.099 153.003C90.3369 150.717 91.48 149.574 94.5284 149.574C94.9974 149.574 95.4663 149.72 95.9353 150.013C96.2284 150.365 96.5215 150.688 96.8146 150.981C97.1077 151.215 97.4009 151.479 97.694 151.772Z" fill="#00ADB5" />
    <path d="M77.4693 157.664C77.4693 156.843 77.7917 156.11 78.4365 155.465C79.3158 154.879 80.0193 154.263 80.5469 153.619C81.1331 152.915 81.778 152.3 82.4814 151.772C83.2435 151.186 83.8884 150.629 84.416 150.101C84.7677 149.75 85.1488 149.574 85.5591 149.574C87.8454 149.574 88.9885 150.717 88.9885 153.003C88.9885 153.296 88.9299 153.501 88.8127 153.619C87.992 154.322 86.5264 155.67 84.416 157.664C83.478 158.602 82.5108 159.334 81.5142 159.862C81.1038 160.155 80.6349 160.302 80.1073 160.302C78.3486 160.302 77.4693 159.422 77.4693 157.664Z" fill="#00ADB5" />
    <path fill-rule="evenodd" clip-rule="evenodd" d="M108.686 115.719C103.703 114.371 97.606 113.697 90.3955 113.697C83.6539 113.697 77.7037 114.312 72.545 115.543L71.3139 118.973L78.7883 120.644L71.0501 125.568L69.3794 125.216L67.269 131.547C68.5 130.258 71.2846 129.173 75.6227 128.294C79.9607 127.415 84.9729 126.975 90.6593 126.975C96.2284 126.975 101.153 127.415 105.432 128.294C109.77 129.173 112.584 130.228 113.874 131.459L111.675 125.128L109.477 125.568L101.739 120.644L109.653 118.973L108.686 115.719ZM98.7492 120.292L90.2196 123.809L81.778 120.292L90.2196 116.774L98.7492 120.292Z" fill="#00ADB5" />
  </g>
  <g id="bk" fill="none" transform="scale(0.22099447513812154 0.22099447513812157)">
    <path d="M138.936 128.031C139.347 129.262 139.552 130.435 139.552 131.549C139.552 135.007 138.292 137.675 135.771 139.551C135.536 140.547 135.36 141.544 135.243 142.54C137.412 145.589 138.497 148.051 138.497 149.927C138.497 154.851 133.748 159.072 124.252 162.589C114.755 166.107 103.353 167.865 90.0454 167.865C76.6795 167.865 65.2481 166.107 55.7513 162.589C46.3131 159.072 41.594 154.851 41.594 149.927C41.594 147.992 42.7371 145.472 45.0234 142.365C44.9061 141.72 44.7303 140.811 44.4958 139.639C41.9164 137.763 40.6267 135.066 40.6267 131.549C40.6267 130.435 40.8026 129.292 41.1543 128.119C41.7405 126.654 41.6233 125.511 40.8026 124.69C39.9819 123.869 39.0439 122.726 37.9887 121.261C37.0507 118.329 36.5818 116.307 36.5818 115.193C36.6404 114.666 36.7283 114.079 36.8455 113.434C37.0214 112.79 37.1093 112.028 37.1093 111.148C34.5299 108.569 31.8333 106.136 29.0195 103.85C26.2642 101.505 24.0952 98.6909 22.5124 95.4081C20.6364 91.539 18.9071 87.6406 17.3243 83.7129C15.8001 79.7266 15.038 75.8282 15.038 72.0177C15.038 64.8072 16.9432 58.7105 20.7537 53.7276C24.5641 48.7447 29.7229 44.8463 36.23 42.0324C44.9061 41.4462 48.57 41.1531 47.2217 41.1531C57.422 41.1531 66.6843 44.9342 75.0087 52.4965V21.6318H104.994V52.5844C113.318 44.9635 122.639 41.1531 132.957 41.1531C131.491 41.1531 135.155 41.4462 143.949 42.0324C150.338 44.8463 155.439 48.7447 159.249 53.7276C163.118 58.7105 165.053 64.8072 165.053 72.0177C165.053 75.8282 164.261 79.6973 162.678 83.625C161.154 87.5527 159.484 91.4511 157.666 95.3201C156.083 98.6616 153.885 101.563 151.071 104.026C148.257 106.488 145.59 108.95 143.069 111.412C143.011 112.115 143.04 112.79 143.157 113.434C143.333 114.079 143.45 114.666 143.509 115.193C143.568 116.014 143.099 118.036 142.102 121.261C141.047 122.726 140.109 123.869 139.288 124.69C138.526 125.511 138.409 126.624 138.936 128.031Z" fill="#222831" />
    <path d="M91.1006 33.2391C90.7488 33.0632 90.3971 32.9753 90.0454 32.9753C89.4005 32.9753 88.9315 33.0925 88.6384 33.327L83.0107 27.6114H80.9882V30.0735L86.528 35.6133C86.3522 35.965 86.2642 36.3461 86.2642 36.7564C86.2642 37.1082 86.3522 37.4599 86.528 37.8116L80.9882 43.4394V45.7257H83.0107L88.5505 40.1859C88.9608 40.3617 89.4591 40.4496 90.0454 40.4496C90.5143 40.4496 90.8954 40.391 91.1885 40.2738L96.7283 45.7257H99.1025V43.7032L93.4748 38.2513C93.6506 37.841 93.7386 37.3426 93.7386 36.7564C93.7386 36.2288 93.6213 35.7598 93.3868 35.3495L99.1025 29.7217V27.6113H96.6404L91.1006 33.2391Z" fill="#00ADB5" />
    <path d="M82.6589 55.2224C84.7107 53.1707 87.1729 52.1448 90.0454 52.1448C97.0214 52.1448 100.509 55.6328 100.509 62.6089C100.509 69.5849 97.0214 73.073 90.0454 73.073C87.1729 73.073 84.7107 72.0764 82.6589 70.0832C80.6072 68.0314 79.5813 65.54 79.5813 62.6089C79.5813 59.7364 80.6072 57.2742 82.6589 55.2224Z" fill="#00ADB5" />
    <path d="M102.004 101.563C101.242 101.446 100.48 101.388 99.7181 101.388C99.8939 99.1599 100.011 97.4598 100.07 96.2874C100.128 95.1149 100.246 93.9132 100.422 92.6821C100.949 87.1716 102.385 83.068 104.73 80.3714C105.375 79.961 106.049 79.7558 106.753 79.7558C107.104 79.7558 107.808 79.9024 108.863 80.1955C109.918 80.4886 110.768 81.6611 111.413 83.7128C112.175 80.3714 113.699 77.4696 115.986 75.0074C118.272 72.5453 120.47 71.2556 122.581 71.1384C125.453 71.9591 127.476 73.4833 128.648 75.7109C129.879 77.8799 130.495 80.1955 130.495 82.6577C130.495 83.1266 130.348 84.2991 130.055 86.175C131.345 84.7681 132.429 84.0646 133.309 84.0646C135.126 84.0646 136.269 85.0905 136.738 87.1423C136.973 90.5424 136.445 94.1183 135.155 97.8702C134.452 99.8047 133.778 101.388 133.133 102.619C132.547 103.85 131.902 105.169 131.198 106.576C129.733 106.517 128.267 106.136 126.802 105.432C130.319 99.5702 132.048 95.8184 131.99 94.1769C131.755 92.2424 131.14 91.2752 130.143 91.2752C129.264 91.2752 128.59 91.8321 128.121 92.9459C127.065 95.1149 126.186 97.1667 125.483 99.1012C124.838 100.977 124.193 102.765 123.548 104.465C122.317 104.582 120.851 104.348 119.151 103.762C122.493 94.0304 124.164 87.6699 124.164 84.6802C124.164 82.9801 124.105 82.0714 123.988 81.9542C124.105 80.0197 123.167 79.0524 121.174 79.0524C119.532 79.0524 118.36 79.7559 117.657 81.1628C115.253 86.4974 113.875 93.6787 113.524 102.707C112.41 102.707 110.68 102.501 108.336 102.091C109.742 95.9356 110.211 91.451 109.742 88.6371C109.156 86.9371 108.189 86.2044 106.841 86.4388C105.903 86.5561 105.258 87.2595 104.906 88.5492C103.968 91.9493 103.734 96.3167 104.203 101.651C103.499 101.651 102.766 101.622 102.004 101.563Z" fill="#00ADB5" />
    <path d="M117.217 129.526L124.603 135.242L133.836 132.076L126.538 126.361L117.217 129.526Z" fill="#00ADB5" />
    <path d="M126.802 153.268C126.567 151.979 126.157 150.572 125.57 149.048C124.926 147.641 124.252 146.703 123.548 146.234C122.903 145.706 122.317 145.032 121.789 144.211C115.869 140.459 105.346 138.789 90.2212 139.199C74.8622 138.789 64.2515 140.459 58.3893 144.211C57.6858 144.915 56.9823 145.53 56.2789 146.058C55.634 146.585 55.0771 147.553 54.6081 148.96C53.9633 150.425 53.5529 151.861 53.3771 153.268C53.2598 155.144 54.0805 156.082 55.8392 156.082C57.5393 156.082 58.36 155.174 58.3013 153.356C58.8289 147.494 69.3517 144.563 89.8695 144.563C110.563 144.563 121.203 147.494 121.789 153.356C121.672 155.174 122.493 156.082 124.252 156.082C125.952 156.082 126.802 155.144 126.802 153.268Z" fill="#00ADB5" />
    <path d="M80.1089 101.475C79.933 99.3065 79.8158 97.6358 79.7571 96.4633C79.6985 95.2909 79.6106 94.0891 79.4933 92.858C78.7899 87.2303 77.3536 83.1267 75.1846 80.5473C74.5984 80.137 73.8949 79.9318 73.0742 79.9318C72.7225 79.9318 71.9897 80.0783 70.8759 80.3715C69.8207 80.6646 69.0292 81.8077 68.5016 83.8009C67.6809 80.4594 66.1274 77.5576 63.8412 75.0954C61.6135 72.6333 59.4445 71.3436 57.3341 71.2264C54.403 72.1057 52.3512 73.6592 51.1787 75.8869C50.0063 78.0559 49.4201 80.3715 49.4201 82.8336C49.4201 83.9475 49.5666 85.1199 49.8597 86.3509C48.4528 84.8854 47.3683 84.1526 46.6062 84.1526C44.7303 84.1526 43.5871 85.2078 43.1768 87.3182C42.8837 90.9528 43.4113 94.4995 44.7596 97.9582C45.4044 99.8927 46.02 101.505 46.6062 102.795C47.251 104.026 47.9545 105.345 48.7166 106.752C50.1235 106.693 51.5891 106.312 53.1133 105.608C49.5373 99.8048 47.808 96.0529 47.9252 94.3529C47.9838 92.4184 48.57 91.4511 49.6839 91.4511C50.5632 91.4511 51.2667 92.008 51.7943 93.1218C52.7909 95.2322 53.6116 97.2547 54.2564 99.1892C54.9599 101.124 55.6633 102.941 56.3668 104.641C57.7738 104.641 59.2393 104.407 60.7635 103.938C57.3634 94.0305 55.6634 87.6406 55.6634 84.7681C55.6634 83.1853 55.722 82.306 55.8392 82.1301C55.8392 80.137 56.7772 79.1404 58.6531 79.1404C60.2945 79.1404 61.4963 79.8732 62.2584 81.3387C64.6033 86.6734 65.9809 93.8546 66.3912 102.882C67.5637 102.824 69.2637 102.619 71.4914 102.267C70.0845 95.9943 69.6448 91.5097 70.1724 88.8131C70.7 87.0544 71.638 86.2923 72.9863 86.5268C73.9828 86.7612 74.6277 87.4647 74.9208 88.6372C75.8588 92.3304 76.0933 96.7271 75.6243 101.827C76.5622 101.71 78.0571 101.592 80.1089 101.475Z" fill="#00ADB5" />
    <path d="M89.8695 121.173L101.741 126.8L90.3092 132.516L78.4381 126.8L89.8695 121.173Z" fill="#00ADB5" />
    <path d="M63.5774 129.526L54.2564 126.361L46.9579 132.076L56.1909 135.242L63.5774 129.526Z" fill="#00ADB5" />
    <path d="M135.859 116.952C135.859 119.59 134.54 121.055 131.902 121.348C121.232 117.362 107.251 115.369 89.9574 115.369C72.8983 115.369 59.1514 117.333 48.7166 121.261C45.7269 121.378 44.232 119.942 44.232 116.952C44.232 115.486 44.8768 114.255 46.1665 113.259C56.5427 108.627 71.1396 106.312 89.9574 106.312C98.9266 106.312 107.192 106.957 114.755 108.246C122.376 109.477 128.648 111.09 133.572 113.083C135.097 113.962 135.859 115.252 135.859 116.952Z" fill="#00ADB5" />
    <path d="M74.4811 61.2019C67.6809 53.9914 59.9721 50.3861 51.3546 50.3861C43.4406 50.3861 37.4318 53.0241 33.3282 58.3001C30.6902 61.6416 29.3712 66.1848 29.3712 71.9299C29.3712 76.4438 30.0161 80.7525 31.3057 84.856C31.3644 86.0285 32.0972 86.6147 33.5041 86.6147C34.911 86.6147 35.6731 85.9113 35.7904 84.5043C35.3214 81.5146 35.0869 78.8473 35.0869 76.5024C35.0869 71.6367 36.23 67.7969 38.5163 64.9831C41.7992 60.5278 46.8993 58.3001 53.8167 58.3001C60.6169 58.3001 66.9775 60.9968 72.8983 66.39C74.0708 66.39 74.657 65.3055 74.657 63.1365C74.657 62.6675 74.5984 62.0227 74.4811 61.2019Z" fill="#00ADB5" />
    <path d="M104.994 63.1365C104.994 62.6675 105.053 62.0227 105.17 61.2019C111.911 53.9914 119.62 50.3861 128.296 50.3861C136.152 50.3861 142.161 53.0241 146.323 58.3001C148.961 61.6416 150.28 66.1848 150.28 71.9299C150.28 76.4438 149.635 80.7525 148.345 84.856C148.345 86.0285 147.613 86.6147 146.147 86.6147C144.681 86.6147 143.919 85.9113 143.861 84.5043C144.33 81.5146 144.564 78.8473 144.564 76.5024C144.564 71.6367 143.421 67.7969 141.135 64.9831C137.793 60.5278 132.722 58.3001 125.922 58.3001C119.005 58.3001 112.615 60.9968 106.753 66.39C105.58 66.39 104.994 65.3055 104.994 63.1365Z" fill="#00ADB5" />
  </g>
  <g id="bn" fill="none" transform="scale(0.22099447513812154 0.22099447513812157)">
    <path d="M101.652 106.486C103.117 106.193 104.759 105.871 106.576 105.519C108.452 105.109 110.445 104.552 112.555 103.848C114.431 103.262 115.047 102.207 114.402 100.683C113.992 100.038 113.406 99.7153 112.643 99.7153C108.481 100.653 104.554 101.21 100.86 101.386C102.267 100.858 103.733 100.331 105.257 99.8033C106.781 99.2171 108.276 98.5722 109.742 97.8687C114.314 95.6997 117.333 90.9513 118.799 83.6235C119.092 81.9235 118.535 80.9562 117.128 80.7217C115.897 80.6045 114.93 81.1028 114.226 82.2166C112.819 87.434 110.592 90.9513 107.543 92.7686C106.547 93.3548 105.521 93.8824 104.466 94.3514C103.41 94.8204 102.355 95.3187 101.3 95.8463C102.472 94.6152 103.557 93.1204 104.554 91.3617C106.371 88.3133 107.602 82.92 108.247 75.1819C107.836 73.1301 106.811 72.368 105.169 72.8956C104.642 73.1887 104.29 73.4525 104.114 73.687C103.059 82.0114 101.622 87.4926 99.8051 90.1306C99.1603 90.7755 98.7206 91.3324 98.4861 91.8014C97.9585 92.2117 97.4603 92.6221 96.9913 93.0324C96.5809 93.3841 96.1706 93.7359 95.7602 94.0876C94.7636 95.3773 94.2654 96.8428 94.2654 98.4843C94.2654 100.477 94.8222 102.295 95.9361 103.936C97.1085 105.578 99.0138 106.428 101.652 106.486ZM95.4085 47.219C111.647 55.1917 123.635 64.9816 131.373 76.5888C136.122 83.7994 139.287 92.3583 140.87 102.265C142.453 112.173 143.244 123.282 143.244 135.592C142.951 140.341 144.27 144.503 147.201 148.079C150.191 151.655 153.533 153.062 157.226 152.3C158.34 116.657 152.008 89.4858 138.232 70.7852C134.011 65.1575 128.12 59.7056 120.557 54.4296C112.995 49.1536 104.554 44.4344 95.2326 40.2723C95.2326 41.5033 95.2619 42.7637 95.3205 44.0534C95.3791 45.2845 95.4085 46.3397 95.4085 47.219ZM43.7035 120.819C44.3484 119.764 45.0812 118.738 45.9019 117.742C46.7812 116.687 47.5726 115.514 48.2761 114.224C49.5658 111.586 48.9209 110.033 46.3415 109.564C45.8726 109.447 45.345 109.505 44.7588 109.74C43.0587 112.026 41.2121 114.342 39.2189 116.686C38.9258 116.921 38.2517 117.507 37.1965 118.445C36.6689 120.204 36.6395 121.552 37.1085 122.49C37.8706 124.249 39.3069 124.366 41.4173 122.842C42.4725 122.021 43.2346 121.347 43.7036 120.819H43.7035ZM74.6561 98.2205C74.832 97.517 75.0372 96.8136 75.2717 96.1101C75.5648 95.4066 75.7993 94.7031 75.9751 93.9997C76.5028 91.7134 75.8579 90.5703 74.0406 90.5703C73.3958 90.5703 72.6044 91.0979 71.6664 92.1531C71.256 93.091 70.8457 94.029 70.4353 94.967C70.025 95.8463 69.7026 96.667 69.4681 97.4291C69.2922 98.0153 69.0285 98.836 68.6767 99.8912C68.5594 100.771 68.9112 101.415 69.7319 101.826C70.9629 102.529 72.2233 101.972 73.513 100.155C73.9234 99.7447 74.3044 99.0998 74.6561 98.2205ZM33.5912 105.255C34.1774 104.434 34.8516 103.614 35.6137 102.793C36.3757 101.914 37.0499 100.946 37.6361 99.8912C38.8086 97.7222 38.2517 96.4618 35.9654 96.1101C35.6137 96.0515 35.1154 96.0808 34.4705 96.198C33.0636 98.0153 31.4222 99.9206 29.5462 101.914C28.8428 102.441 28.2565 102.91 27.7876 103.321C27.3186 104.786 27.2893 105.871 27.6996 106.574C28.4031 108.04 29.6928 108.157 31.5687 106.926C32.5067 106.222 33.1808 105.665 33.5911 105.255H33.5912ZM59.5316 66.2127C59.942 68.7334 60.6161 70.1697 61.554 70.5214C62.492 70.8732 63.811 70.9904 65.5111 70.8731C67.7974 70.6972 69.556 70.2283 70.7871 69.4661C73.2492 67.8833 75.4182 64.4539 77.2941 59.1779C75.4182 59.7642 73.6596 60.0573 72.0181 60.0573C70.3767 60.0573 68.4129 60.1452 66.1266 60.321C62.9024 60.6141 60.704 62.578 59.5316 66.2126V66.2127ZM58.3885 117.214C57.5677 118.093 56.8936 118.738 56.366 119.149C55.897 119.5 55.4866 119.852 55.1349 120.204C54.8418 120.497 52.9366 122.432 49.4192 126.007C48.0709 127.473 46.4588 128.411 44.5829 128.821C43.3518 129.173 41.6224 129.027 39.3948 128.382C32.067 126.447 26.2927 122.578 22.0719 116.774C20.4305 114.605 19.258 111.997 18.5545 108.948C17.9097 105.841 18.2321 101.914 19.5218 97.1653C20.8115 92.3582 25.472 86.8771 33.5032 80.7217C42.238 74.0388 47.3674 68.7334 48.8916 64.8057C50.1813 62.5195 51.6469 59.9987 53.2883 57.2435C54.9884 54.4882 56.9815 51.8209 59.2678 49.2415C60.6747 48.2449 61.9937 47.1018 63.2248 45.8121C64.5145 44.4638 65.7749 43.0861 67.006 41.6792V30.8634C70.2302 31.5082 72.6044 32.4462 74.1286 33.6772C74.832 34.4393 75.5941 35.1428 76.4148 35.7877C77.2942 36.4325 78.0856 37.136 78.789 37.8981C80.2546 35.2601 81.1925 33.0617 81.6029 31.3031C81.6615 30.8927 81.8667 30.072 82.2184 28.8409C82.5702 27.6098 82.9219 25.5874 83.2736 22.7735C84.153 22.539 84.9151 22.7735 85.5599 23.477C88.2565 26.5253 90.8066 29.9254 93.2101 33.6772C103.938 37.9567 113.728 43.0275 122.58 48.8898C131.491 54.752 138.32 60.8487 143.068 67.18C156.493 85.4115 163.205 112.261 163.205 147.727C163.205 155.172 162.824 161.972 162.062 168.128H42.0328C41.2707 160.507 45.3156 152.417 54.1676 143.858C58.154 139.989 62.2868 136.237 66.5663 132.603C70.9043 128.968 75.1252 125.275 79.2287 121.523C86.8496 114.488 91.0704 108.86 91.8911 104.64C91.598 103.936 91.0411 103.467 90.2204 103.233C88.1686 104.464 86.1168 105.255 84.065 105.607C82.0133 105.959 79.9908 106.193 77.9976 106.31C76.7079 106.369 75.4183 106.428 74.1286 106.486C72.8975 106.486 71.4319 106.193 69.7319 105.607C67.4456 108.186 65.4818 110.414 63.8404 112.29C62.2575 114.107 60.4402 115.749 58.3885 117.214Z" fill="#222831" />
    <path d="M95.4085 47.219C111.647 55.1917 123.635 64.9816 131.373 76.5888C136.122 83.7994 139.287 92.3583 140.87 102.265C142.453 112.173 143.244 123.282 143.244 135.592C142.951 140.341 144.27 144.503 147.201 148.079C150.191 151.655 153.533 153.062 157.226 152.3C158.34 116.657 152.008 89.4858 138.232 70.7852C134.011 65.1575 128.12 59.7056 120.557 54.4296C112.995 49.1536 104.554 44.4345 95.2326 40.2723C95.2326 41.5033 95.2619 42.7637 95.3205 44.0534C95.3791 45.2845 95.4085 46.3397 95.4085 47.219Z" fill="#00ADB5" />
    <path d="M43.7035 120.819C44.3484 119.764 45.0812 118.738 45.9019 117.742C46.7812 116.687 47.5726 115.514 48.2761 114.224C49.5658 111.586 48.9209 110.033 46.3415 109.564C45.8726 109.447 45.345 109.505 44.7587 109.74C43.0587 112.026 41.2121 114.342 39.2189 116.686C38.9258 116.921 38.2517 117.507 37.1965 118.445C36.6688 120.204 36.6395 121.552 37.1085 122.49C37.8706 124.249 39.3069 124.366 41.4173 122.842C42.4725 122.021 43.2346 121.347 43.7035 120.819Z" fill="#00ADB5" />
    <path d="M75.2717 96.1101C75.0372 96.8136 74.832 97.517 74.6561 98.2205C74.3044 99.0998 73.9234 99.7447 73.513 100.155C72.2233 101.972 70.9629 102.529 69.7318 101.826C68.9111 101.415 68.5594 100.771 68.6767 99.8912C69.0284 98.836 69.2922 98.0153 69.4681 97.4291C69.7026 96.667 70.025 95.8463 70.4353 94.967L71.6664 92.1531C72.6043 91.0979 73.3958 90.5703 74.0406 90.5703C75.8579 90.5703 76.5027 91.7134 75.9751 93.9997C75.7993 94.7031 75.5648 95.4066 75.2717 96.1101Z" fill="#00ADB5" />
    <path d="M33.5912 105.255C34.1774 104.434 34.8516 103.614 35.6137 102.793C36.3757 101.914 37.0499 100.946 37.6361 99.8912C38.8086 97.7222 38.2517 96.4618 35.9654 96.1101C35.6137 96.0514 35.1154 96.0807 34.4705 96.198C33.0636 98.0153 31.4222 99.9205 29.5462 101.914C28.8428 102.441 28.2565 102.91 27.7876 103.321C27.3186 104.786 27.2893 105.871 27.6996 106.574C28.4031 108.04 29.6928 108.157 31.5687 106.926C32.5067 106.222 33.1808 105.665 33.5912 105.255Z" fill="#00ADB5" />
    <path d="M61.554 70.5214C60.6161 70.1697 59.942 68.7334 59.5316 66.2127C60.704 62.5782 62.9024 60.6141 66.1266 60.321C68.4129 60.1452 70.3767 60.0573 72.0181 60.0573C73.6596 60.0573 75.4182 59.7641 77.2941 59.1779C75.4182 64.4539 73.2492 67.8833 70.7871 69.4661C69.556 70.2282 67.7974 70.6972 65.5111 70.8731C63.811 70.9904 62.492 70.8731 61.554 70.5214Z" fill="#00ADB5" />
  </g>
  <g id="bp" fill="none" transform="scale(0.22099447513812154 0.22099447513812157)">
    <path d="M90.0424 167.954H42.1186C43.2324 155.35 48.5964 144.71 58.2104 136.034C59.7933 134.569 60.6726 133.777 60.8485 133.66C65.8314 129.556 70.0815 124.661 73.5988 118.975C64.571 113.054 60.057 104.7 60.057 93.9139C60.057 87.231 62.0795 81.2222 66.1245 75.8875C67.4728 74.1875 68.909 72.2529 70.4332 70.0839C72.016 67.9149 73.2764 65.8045 74.2144 63.7527C72.8074 64.1044 70.6677 64.6613 67.7952 65.4234C64.9813 66.1855 62.9002 66.8304 61.5519 67.358C65.5969 63.6061 69.4366 59.1508 73.0712 53.9921C76.7644 48.8333 78.9335 43.3521 79.5783 37.5485C76.5886 34.5001 75.0937 30.9242 75.0937 26.8206C75.0937 22.717 76.53 19.1997 79.4024 16.2686C82.3336 13.3374 85.8802 11.8719 90.0424 11.8719C94.0873 11.8719 97.5754 13.3374 100.507 16.2686C103.438 19.1997 104.903 22.717 104.903 26.8206C104.903 30.9828 103.408 34.5587 100.419 37.5485C101.063 43.3521 103.232 48.8333 106.926 53.9921C110.677 59.1508 114.576 63.6061 118.621 67.358C117.272 66.8304 115.133 66.1855 112.202 65.4234C109.329 64.6613 107.189 64.1044 105.782 63.7527C106.72 65.8045 107.952 67.9149 109.476 70.0839C111.059 72.2529 112.553 74.1875 113.96 75.8875C118.005 81.2222 120.028 87.231 120.028 93.9139C120.028 104.7 115.514 113.054 106.486 118.975C109.827 124.603 114.048 129.498 119.148 133.66C120.028 134.363 120.907 135.155 121.786 136.034C131.459 144.71 136.823 155.35 137.878 167.954H90.0424Z" fill="#222831" />
  </g>
  <g id="bq" fill="none" transform="scale(0.22099447513812154 0.22099447513812157)">
    <path d="M94.3511 32.2718C95.2304 41.7686 96.1097 51.2654 96.9891 60.7622C97.927 70.2005 98.865 79.6386 99.8029 89.0768C99.8615 90.4252 100.536 91.0993 101.825 91.0993C102.763 91.0407 103.408 90.6304 103.76 89.8683C108.86 77.5576 112.612 68.0314 115.015 61.2899C117.478 54.4897 118.972 50.2982 119.5 48.7154C116.803 46.136 115.455 43.2342 115.455 40.0099C115.455 37.1961 116.452 34.7925 118.445 32.7994C120.497 30.7476 122.959 29.7217 125.831 29.7217C128.645 29.7217 131.049 30.7476 133.042 32.7994C135.094 34.7925 136.119 37.1961 136.119 40.0099C136.119 45.1101 133.481 48.5688 128.205 50.3861L121.786 88.7251C121.493 90.4838 122.109 91.3631 123.633 91.3631C124.864 91.3631 125.802 91.0407 126.447 90.3958C133.481 83.3612 138.523 77.9093 141.571 74.0402C144.678 70.1712 146.847 67.4745 148.078 65.9504C146.789 64.2503 146.144 62.1985 146.144 59.795C146.144 52.9362 149.573 49.5067 156.432 49.5067C159.246 49.5067 161.65 50.5327 163.643 52.5845C165.694 54.5776 166.72 56.9811 166.72 59.795C166.72 62.6675 165.694 65.1003 163.643 67.0935C161.65 69.0867 159.246 70.0832 156.432 70.0832C155.553 70.0832 154.761 69.9953 154.058 69.8195C149.368 79.9611 145.616 90.3373 142.802 100.948C140.399 109.565 138.904 117.743 138.318 125.481C138.67 127.123 138.875 127.973 138.933 128.031C138.758 127.328 138.875 128.002 139.285 130.054C139.519 130.992 139.637 131.901 139.637 132.78C139.285 133.718 138.552 134.773 137.438 135.945C136.442 137.059 135.709 139.258 135.24 142.541C137.409 145.589 138.494 148.051 138.494 149.927C138.494 154.851 133.745 159.072 124.248 162.589C114.752 166.107 103.349 167.865 90.0422 167.865C76.6763 167.865 65.2449 166.107 55.748 162.589C46.3098 159.072 41.5908 154.851 41.5908 149.927C41.5908 147.992 42.7339 145.472 45.0202 142.365C44.3167 139.023 43.5546 136.883 42.7339 135.945C41.5614 134.773 40.7993 133.718 40.4476 132.78C40.4476 132.018 40.5355 131.138 40.7114 130.142C40.8286 129.673 40.9165 129.263 40.9751 128.911C41.0337 128.5 41.0924 128.207 41.151 128.031C41.3854 127.387 41.6199 126.478 41.8544 125.306C41.2682 117.919 39.832 109.8 37.5457 100.948C34.4973 89.8097 30.7162 79.3749 26.2023 69.6436C25.2057 69.9367 24.1798 70.0833 23.1246 70.0833C16.2658 70.0833 12.8364 66.6538 12.8364 59.795C12.8364 52.9362 16.2658 49.5068 23.1246 49.5068C29.9834 49.5068 33.4128 52.9362 33.4128 59.795C33.4128 61.9054 32.8852 63.8107 31.83 65.5107C35.2887 69.9074 38.7475 74.0109 42.2062 77.8214C45.7235 81.5732 49.5926 85.7061 53.8134 90.22C54.341 90.9821 55.1031 91.3632 56.0997 91.3632C57.7997 91.3632 58.5618 90.4838 58.3859 88.7252C58.2687 88.1976 57.5359 84.0061 56.1876 76.1507C54.8393 68.2953 53.3738 59.7364 51.791 50.4741C46.2218 48.9499 43.4372 45.4619 43.4372 40.01C43.4372 37.1961 44.4338 34.7926 46.427 32.7994C48.4788 30.7476 50.9116 29.7217 53.7255 29.7217C60.5843 29.7217 64.0137 33.1512 64.0137 40.01C64.0137 43.0584 62.8413 45.8429 60.4964 48.3636C60.7895 49.5947 61.5223 52.0569 62.6947 55.7501C63.8671 59.3847 65.6844 64.1917 68.1466 70.1712C69.4949 73.454 70.8432 76.7662 72.1915 80.1077C73.5985 83.3905 75.0054 86.6441 76.4123 89.8683C76.7641 90.6304 77.3796 91.0115 78.259 91.0115C79.49 90.9529 80.1935 90.308 80.3693 89.0769C80.4866 88.3734 82.2746 69.4677 85.7333 32.3597C81.5711 30.1321 79.49 26.82 79.49 22.4233C79.49 19.6094 80.4866 17.1766 82.4798 15.1248C84.4729 13.073 86.9057 12.0471 89.7782 12.0471C92.5921 12.0471 94.9957 13.073 96.9888 15.1248C99.0406 17.1766 100.066 19.6094 100.066 22.4233C100.066 26.4096 98.1613 29.6924 94.3508 32.2718H94.3511Z" fill="#222831" />
    <path d="M43.7892 104.553C44.4927 106.957 45.1082 109.126 45.6358 111.06C46.2221 112.936 46.7204 114.988 47.1307 117.216C47.4824 117.391 48.01 117.479 48.7135 117.479C53.6378 116.014 59.6759 114.724 66.8278 113.61C74.0384 112.496 81.7765 111.94 90.0423 111.94C98.4839 111.94 106.339 112.526 113.608 113.698C120.878 114.812 126.974 116.102 131.899 117.567C132.192 117.567 132.631 117.45 133.218 117.216C133.569 115.105 134.038 113.141 134.625 111.324C135.211 109.448 135.856 107.279 136.559 104.817C129.876 103.293 122.578 101.798 114.664 100.332C106.75 98.8668 98.5425 98.134 90.0423 98.134C81.5421 98.134 73.4228 98.8668 65.6847 100.332C57.9465 101.739 50.648 103.146 43.7892 104.553Z" fill="#00ADB5" />
    <path d="M70.609 123.019C67.3848 123.019 65.7726 124.719 65.7726 128.119C65.7726 131.578 67.3848 133.307 70.609 133.307C73.8918 133.307 75.5333 131.578 75.5333 128.119C75.5333 124.719 73.8918 123.019 70.609 123.019Z" fill="#00ADB5" />
    <path d="M125.743 126.185L132.075 132.252L124.073 135.506L117.653 129.438L125.743 126.185Z" fill="#00ADB5" />
    <path d="M101.21 126.009L89.8663 120.117L78.9626 126.009L90.306 131.988L101.21 126.009Z" fill="#00ADB5" />
    <path d="M54.3413 126.537L63.2225 129.526L56.0999 135.066L47.3065 132.076L54.3413 126.537Z" fill="#00ADB5" />
    <path d="M109.388 123.019C106.105 123.019 104.463 124.719 104.463 128.119C104.463 131.578 106.105 133.307 109.388 133.307C112.671 133.307 114.312 131.578 114.312 128.119C114.312 124.719 112.671 123.019 109.388 123.019Z" fill="#00ADB5" />
    <path d="M127.414 149.136C127.883 150.308 128.293 151.774 128.645 153.532C128.645 155.525 127.766 156.522 126.007 156.522C124.131 156.522 123.252 155.555 123.369 153.62C122.783 147.523 111.615 144.475 89.8664 144.475C68.352 144.475 57.331 147.523 56.8034 153.62C56.8034 155.555 55.9241 156.522 54.1654 156.522C52.2895 156.522 51.4102 155.525 51.5274 153.532C51.7619 152.301 52.1722 150.806 52.7585 149.048C53.2861 147.582 53.9016 146.585 54.6051 146.058C55.3086 145.472 56.0414 144.827 56.8034 144.123C59.8518 142.13 64.1312 140.43 69.6417 139.023C75.1522 137.558 81.9524 136.913 90.0423 137.089C97.9563 136.913 104.698 137.558 110.267 139.023C115.895 140.43 120.262 142.13 123.369 144.123C123.955 144.944 124.6 145.618 125.304 146.146C126.007 146.615 126.711 147.611 127.414 149.136Z" fill="#00ADB5" />
  </g>
  <g id="br" fill="none" transform="scale(0.22099447513812154 0.22099447513812157)">
    <path d="M90.0434 12.0456H102.178V24.0046H120.381V12.0456H141.309V43.4379L127.151 59.7935C130.2 63.6626 130.258 67.7369 127.327 72.0163C126.858 72.7784 126.624 73.4818 126.624 74.1267C126.624 74.8888 126.858 75.6215 127.327 76.325C128.558 78.1423 129.145 80.7217 129.086 84.0632C129.086 87.346 128.47 89.9254 127.239 91.8013C126.829 92.3876 126.624 93.0031 126.624 93.6479C126.624 94.4686 126.888 95.2307 127.415 95.9342C130.17 100.096 130.112 104.2 127.239 108.245C126.829 108.948 126.624 109.623 126.624 110.267C126.624 110.912 126.829 111.586 127.239 112.29C128.529 114.224 129.174 116.921 129.174 120.38C129.174 123.78 128.47 126.301 127.063 127.942L141.309 135.065V142.627H147.2V168.128H32.7987V142.715H38.7782V135.153L52.9355 127.942C51.5286 126.301 50.8251 123.78 50.8251 120.38C50.8251 116.98 51.4699 114.312 52.7596 112.378C53.2286 111.733 53.4631 111.059 53.4631 110.355C53.4631 109.769 53.2286 109.095 52.7596 108.333C49.8871 104.229 49.8578 100.126 52.6717 96.0221C53.1993 95.0842 53.4631 94.3221 53.4631 93.7359C53.4631 93.1496 53.2579 92.5048 52.8476 91.8013C51.5579 89.9254 50.8837 87.346 50.8251 84.0632C50.8251 80.7217 51.4406 78.1423 52.6717 76.325C53.1993 75.6215 53.4631 74.8888 53.4631 74.1267C53.4631 73.4818 53.2286 72.8077 52.7596 72.1042C49.7699 67.8248 49.8285 63.7212 52.9355 59.7935L38.7782 43.5258V12.1335H59.7064V24.0046L77.8207 24.0925V12.1335L90.0434 12.0456Z" fill="#222831" />
    <path d="M45.0215 42.0309V34.3807H135.065V42.0309C127.503 41.8551 119.941 41.5326 112.379 41.0636C104.875 40.5947 97.4299 40.3602 90.0434 40.3602C82.4812 40.3602 74.9482 40.5653 67.4445 40.9757C59.9995 41.3274 52.5251 41.6792 45.0215 42.0309Z" fill="#00ADB5" />
    <path d="M45.0215 141.748C45.0215 139.461 46.2819 138.201 48.8026 137.966C55.6614 137.556 62.5203 137.204 69.3791 136.911C76.2965 136.56 83.1846 136.384 90.0434 136.384C96.9023 136.384 103.761 136.56 110.62 136.911C117.537 137.204 124.425 137.556 131.284 137.966C133.805 138.201 135.065 139.461 135.065 141.748C135.065 144.268 133.805 145.529 131.284 145.529L90.0434 144.122L48.8026 145.529C46.2819 145.529 45.0215 144.268 45.0215 141.748Z" fill="#00ADB5" />
    <path fill-rule="evenodd" clip-rule="evenodd" d="M70.6981 51.8795C78.0259 51.1174 84.4743 50.7364 90.0434 50.7364C95.4953 50.7364 101.885 51.1175 109.213 51.8796C116.599 52.583 121.26 53.2279 123.194 53.8141C125.012 54.5176 125.832 55.5728 125.657 56.9797C125.539 58.328 124.719 59.3833 123.194 60.1454C121.612 60.9661 118.417 60.9074 113.61 59.9695C108.803 59.0315 105.93 59.0901 104.992 60.1454C104.054 61.2592 103.585 63.2523 103.585 66.1248C103.585 68.9973 104.054 70.9905 104.992 72.1043C105.93 73.2181 108.949 73.3647 114.049 72.544C119.149 71.7233 122.198 71.5767 123.194 72.1043C124.074 72.6319 124.455 73.5992 124.338 75.0061C124.279 76.3544 123.898 77.351 123.194 77.9958C122.432 78.6993 121.348 78.5527 119.941 77.5562C118.593 76.5596 117.596 76.7062 116.951 77.9958C116.248 79.4028 115.896 81.4252 115.896 84.0632C115.896 86.7012 116.248 88.6651 116.951 89.9548C117.596 91.3031 118.593 91.479 119.941 90.4824C121.348 89.4272 122.432 89.2513 123.194 89.9548C123.898 90.7169 124.25 91.86 124.25 93.3842C124.25 94.9084 123.898 95.8463 123.194 96.1981C122.374 96.6084 119.355 96.3153 114.137 95.3188C108.979 94.3222 105.93 94.6153 104.992 96.1981C104.054 97.7809 103.615 99.9206 103.673 102.617C103.79 105.255 104.23 107.102 104.992 108.157C105.754 109.271 108.803 109.417 114.137 108.597C119.472 107.776 122.491 107.629 123.194 108.157C125.363 109.974 125.363 111.967 123.194 114.137C122.491 114.84 121.436 114.693 120.029 113.697C118.622 112.7 117.596 112.847 116.951 114.137C116.248 115.485 115.896 117.478 115.896 120.116C115.896 122.754 116.248 124.718 116.951 126.008C117.596 127.415 118.593 127.62 119.941 126.623C121.348 125.568 122.432 125.363 123.194 126.008C123.898 126.711 124.367 127.854 124.601 129.437C124.894 130.961 124.425 131.811 123.194 131.987C122.315 132.163 118.505 132.016 111.763 131.547C105.021 131.02 97.7816 130.756 90.0434 130.756C82.2467 130.756 75.0655 131.078 68.4997 131.723C61.934 132.368 58.0649 132.456 56.8925 131.987C55.3683 131.459 54.8114 130.521 55.2218 129.173C55.6321 127.766 56.189 126.711 56.8925 126.008C57.596 125.363 58.6219 125.568 59.9702 126.623C61.3771 127.62 62.4323 127.414 63.1358 126.008C63.8393 124.718 64.191 122.754 64.191 120.116C64.191 117.478 63.8393 115.485 63.1358 114.136C62.4323 112.847 61.3771 112.7 59.9702 113.697C58.6219 114.693 57.596 114.84 56.8925 114.136C54.6062 112.026 54.6062 110.033 56.8925 108.157C57.596 107.629 60.4978 107.835 65.5979 108.773C70.7567 109.652 73.893 109.447 75.0068 108.157C76.062 106.926 76.5896 104.903 76.5896 102.09C76.5896 99.2757 76.062 97.3119 75.0068 96.198C73.893 95.1429 70.786 95.0256 65.6859 95.8463C60.5857 96.6084 57.6546 96.7256 56.8925 96.198C56.0718 95.7877 55.6614 94.8497 55.6614 93.3841C55.7201 91.86 56.1304 90.7168 56.8925 89.9548C57.596 89.2513 58.6219 89.4271 59.9702 90.4823C61.3771 91.4789 62.4323 91.3031 63.1358 89.9548C63.8393 88.665 64.191 86.7012 64.191 84.0632C64.191 81.4252 63.8393 79.4027 63.1358 77.9958C62.4323 76.7061 61.3771 76.5595 59.9702 77.5561C58.6219 78.5527 57.596 78.6992 56.8925 77.9958C56.189 77.3509 55.7201 76.3543 55.4856 75.006C55.2511 73.5991 55.72 72.6318 56.8925 72.1042C58.0649 71.5766 61.084 71.7232 65.9497 72.5439C70.8739 73.3646 73.893 73.218 75.0068 72.1042C76.062 70.9904 76.5896 68.9386 76.5896 65.9489C76.5896 62.9005 76.062 60.966 75.0068 60.1453C73.893 59.3832 70.9912 59.3246 66.3014 59.9694C61.6116 60.6143 58.4753 60.6729 56.8925 60.1453C55.3097 59.6763 54.4303 58.6797 54.2545 57.1555C54.0786 55.6313 54.958 54.5175 56.8925 53.814C58.7684 53.2278 63.3703 52.583 70.6981 51.8795ZM89.9555 58.1228C86.7899 58.1228 84.3864 58.797 82.745 60.1453C81.0449 61.5522 80.1949 63.5454 80.1949 66.1248C80.1949 68.7041 81.0449 70.6973 82.745 72.1042C84.3864 73.5112 86.7899 74.2147 89.9555 74.2147C93.1798 74.2147 95.6419 73.5112 97.3419 72.1042C99.042 70.6973 99.892 68.7041 99.892 66.1248C99.892 63.5454 99.042 61.5522 97.3419 60.1453C95.6419 58.797 93.1798 58.1228 89.9555 58.1228ZM70.4343 114.136C72.1929 112.788 74.7137 112.114 77.9965 112.114C81.2794 112.114 83.8002 112.788 85.5589 114.136C87.3175 115.543 88.1089 117.654 87.933 120.468C87.8158 123.282 87.0244 125.128 85.5589 126.008C84.0347 127.004 81.4553 127.473 77.8207 127.414C74.2447 127.297 71.7826 126.828 70.4343 126.008C69.0273 125.245 68.2359 123.428 68.0601 120.556C67.8842 117.683 68.6756 115.543 70.4343 114.136ZM94.5281 114.136C96.2281 112.788 98.7196 112.114 102.002 112.114C105.344 112.114 107.894 112.788 109.653 114.136C111.411 115.543 112.291 117.654 112.291 120.468C112.349 123.282 111.47 125.128 109.653 126.008C107.777 127.004 105.227 127.502 102.002 127.502C98.7782 127.502 96.2867 127.004 94.5281 126.008C92.6522 125.128 91.7435 123.282 91.8021 120.468C91.8607 117.654 92.7694 115.543 94.5281 114.136ZM94.5281 77.9957C96.2281 76.6474 98.7196 75.9733 102.002 75.9733C105.344 75.9733 107.894 76.6474 109.653 77.9957C111.411 79.4027 112.291 81.4252 112.291 84.0632C112.291 86.6426 111.411 88.6064 109.653 89.9547C107.894 91.3617 105.344 92.0651 102.002 92.0651C98.7196 92.0651 96.2281 91.3617 94.5281 89.9547C92.7694 88.6064 91.8901 86.6426 91.8901 84.0632C91.8901 81.4252 92.7694 79.4027 94.5281 77.9957ZM77.9966 75.9733C74.7137 75.9733 72.1929 76.6474 70.4343 77.9957C68.6756 79.4027 67.7963 81.4252 67.7963 84.0632C67.7963 86.6426 68.6756 88.6064 70.4343 89.9547C72.1929 91.3617 74.7137 92.0651 77.9966 92.0651C81.2794 92.0651 83.8002 91.3617 85.5589 89.9547C87.3175 88.6064 88.1968 86.6426 88.1968 84.0632C88.1968 81.4252 87.3175 79.4027 85.5589 77.9957C83.8002 76.6474 81.2794 75.9733 77.9966 75.9733ZM82.745 96.198C84.3864 94.8497 86.7899 94.1755 89.9555 94.1755C93.1798 94.1755 95.6419 94.8497 97.3419 96.198C99.042 97.605 99.892 99.6274 99.892 102.265C99.892 104.845 99.042 106.809 97.3419 108.157C95.6419 109.564 93.1798 110.267 89.9555 110.267C86.7899 110.267 84.3864 109.564 82.745 108.157C81.0449 106.809 80.1949 104.845 80.1949 102.265C80.1949 99.6274 81.0449 97.605 82.745 96.198Z" fill="#00ADB5" />
    <path d="M39.042 157.488V151.508H141.133V157.488H39.042Z" fill="#00ADB5" />
  </g>
  <g id="wb" fill="none" transform="scale(0.22099447513812154 0.22099447513812157)">
    <path d="M90.1317 158.719C85.7936 164.991 79.9314 168.128 72.545 168.128C71.7829 168.128 71.0208 168.098 70.2587 168.04C69.5552 167.923 68.8518 167.835 68.1483 167.776C66.4483 167.717 63.9568 167.424 60.674 166.897C57.3911 166.31 53.7272 164.991 49.6823 162.94C46.1063 159.833 41.5631 158.279 36.0526 158.279C31.8317 158.279 28.1679 159.276 25.0609 161.269C24.1815 161.679 23.097 162.529 21.8073 163.819C19.4624 166.34 17.5572 167.717 16.0916 167.952C14.9192 167.366 14.3037 166.369 14.245 164.962C13.9519 162.207 15.9744 158.66 20.3124 154.322C19.5504 154.439 18.1141 154.791 16.0037 155.377C14.245 155.905 13.0726 156.169 12.4864 156.169C10.5518 156.462 9.52594 156.491 9.4087 156.257C8.76385 155.612 8.99834 154.293 10.1122 152.3C11.0501 150.6 12.8674 149.105 15.564 147.815C15.9158 147.639 17.0296 147.141 18.9055 146.32C24.3574 143.448 30.0731 142.011 36.0526 142.011C44.7873 142.011 52.672 144.972 59.7067 150.893C62.5205 151.831 65.3637 152.3 68.2362 152.3C77.0296 152.3 81.5728 148.665 81.8659 141.396C76.1796 140.868 71.4312 139.901 67.6207 138.494C63.8689 137.087 61.993 135.446 61.993 133.57L69.0276 110.18C64.9241 103.731 61.524 97.1654 58.8274 90.4824C56.1307 83.7995 54.7824 77.4683 54.7824 71.4888C54.7824 53.5503 64.5137 39.7741 83.9763 30.16C83.9763 29.3979 84.0643 28.2548 84.2401 26.7306C82.247 25.0892 81.2504 23.0081 81.2504 20.4873C81.2504 15.0941 83.9763 12.3975 89.4282 12.3975C94.8215 12.3975 97.5181 15.0941 97.5181 20.4873C97.5181 22.8322 96.6681 24.7961 94.968 26.3789C94.968 28.1962 95.2025 29.4273 95.6715 30.0721C96.6681 31.479 97.9871 32.2118 99.6285 32.2704C101.329 32.2118 102.735 31.4497 103.849 29.9842C104.084 29.6324 104.318 28.5479 104.553 26.7306C103.029 25.1478 102.267 23.184 102.267 20.8391C102.267 15.3286 105.022 12.5733 110.532 12.5733C116.043 12.5733 118.798 15.3286 118.798 20.8391C118.798 23.9461 117.45 26.3496 114.753 28.0496C114.519 29.2221 114.46 30.16 114.577 30.8635C124.484 42.588 128.793 56.1297 127.503 71.4888C127.093 75.8855 126.419 80.2235 125.481 84.5029C124.543 88.7238 122.902 92.7101 120.557 96.4619C119.677 98.4551 118.3 100.712 116.424 103.233C114.607 105.695 113.024 108.011 111.675 110.18L118.622 133.57C118.564 135.446 116.629 137.087 112.819 138.494C109.008 139.901 104.201 140.868 98.3974 141.396C98.6905 148.665 103.263 152.3 112.115 152.3C114.988 152.3 117.831 151.831 120.645 150.893C127.621 144.972 135.505 142.011 144.299 142.011C150.278 142.011 155.965 143.448 161.358 146.32C162.061 146.672 162.677 146.965 163.204 147.2C163.732 147.434 164.26 147.639 164.787 147.815C167.425 149.163 169.243 150.658 170.239 152.3C170.415 152.827 170.679 153.501 171.031 154.322C171.382 155.143 171.353 155.788 170.943 156.257C170.767 156.491 169.741 156.462 167.865 156.169C167.279 156.169 166.106 155.905 164.348 155.377C162.179 154.791 160.713 154.439 159.951 154.322C164.289 158.719 166.341 162.265 166.106 164.962C165.989 166.31 165.344 167.307 164.172 167.952C162.706 167.717 160.801 166.34 158.456 163.819C157.284 162.647 156.228 161.797 155.29 161.269C152.008 159.276 148.344 158.279 144.299 158.279C138.671 158.279 134.098 159.833 130.581 162.94C126.536 164.991 122.872 166.31 119.589 166.897C116.307 167.424 113.844 167.717 112.203 167.776C111.5 167.835 110.767 167.923 110.005 168.04C109.243 168.098 108.51 168.128 107.806 168.128C100.244 168.128 94.3525 164.991 90.1317 158.719Z" fill="#222831" />
    <path d="M85.823 20.4873C85.823 18.0838 87.0247 16.882 89.4282 16.882C91.8317 16.882 93.0335 18.0838 93.0335 20.4873C93.0335 22.8908 91.8317 24.0926 89.4282 24.0926C87.0247 24.0926 85.823 22.8908 85.823 20.4873Z" fill="#EEEEEE" />
    <path d="M110.532 17.1458C108.012 17.1458 106.751 18.3769 106.751 20.839C106.751 23.3598 108.012 24.6202 110.532 24.6202C113.053 24.6202 114.313 23.3598 114.313 20.839C114.313 18.3769 113.053 17.1458 110.532 17.1458Z" fill="#EEEEEE" />
    <path d="M90.6593 125.48C84.035 125.48 78.3779 126.066 73.6881 127.239C68.9983 128.411 66.6534 129.818 66.6534 131.459C66.6534 133.101 68.9983 134.508 73.6881 135.68C78.3779 136.794 84.035 137.351 90.6593 137.351C97.2836 137.351 102.941 136.794 107.63 135.68C112.379 134.508 114.753 133.101 114.753 131.459C114.753 129.818 112.379 128.411 107.63 127.239C102.941 126.066 97.2836 125.48 90.6593 125.48Z" fill="#EEEEEE" />
    <path d="M98.7492 118.533L90.2196 115.016L81.778 118.533L90.2196 122.051L98.7492 118.533Z" fill="#EEEEEE" />
    <path d="M121.436 53.8141C124.074 62.3144 125.071 68.1473 124.426 71.3129C124.367 67.7956 122.696 62.0799 119.414 54.1659C116.131 46.2519 111.382 40.1844 105.168 35.9636C104.641 34.9084 104.729 33.9998 105.432 33.2377C106.194 32.4756 107.015 32.036 107.894 31.9187C108.48 31.8601 109.155 32.0653 109.917 32.5342C115.017 38.162 118.857 45.2553 121.436 53.8141Z" fill="#EEEEEE" />
    <path d="M108.334 113.961L106.751 108.421C101.827 107.248 96.287 106.662 90.1317 106.662C84.0936 106.662 78.7883 107.19 74.2157 108.245L72.4571 113.873C77.3227 112.583 83.2142 111.938 90.1317 111.938C97.4008 111.938 103.468 112.612 108.334 113.961Z" fill="#EEEEEE" />
    <path d="M109.565 117.126L111.5 123.369L109.477 123.809L101.739 118.797L109.565 117.126Z" fill="#EEEEEE" />
    <path d="M69.4673 123.457L71.0501 123.809L78.7883 118.797L71.3139 117.126L69.4673 123.457Z" fill="#EEEEEE" />
    <path d="M95.9353 157.664C92.2421 154.088 90.3075 152.3 90.1317 152.3C89.9558 152.3 88.0506 154.088 84.416 157.664C80.9573 160.888 76.7951 162.5 71.9294 162.5H68.3242C65.6862 162.324 63.224 162.031 60.9378 161.621C58.7101 161.152 56.0135 160.272 52.8479 158.983C46.7511 154.762 41.1527 152.651 36.0526 152.651C33.7077 152.651 31.6266 152.915 29.8093 153.443C29.0472 153.619 28.5782 153.824 28.4023 154.058C28.2265 154.234 27.6109 154.586 26.5557 155.113C22.8625 156.989 21.8953 157.195 23.6539 155.729C25.4712 154.205 26.204 153.091 25.8523 152.388C25.4419 151.625 24.035 150.805 21.6315 149.925C19.2866 149.046 21.0452 148.343 26.9075 147.815C29.78 146.818 32.8283 146.32 36.0526 146.32C42.97 146.32 50.1512 149.163 57.5963 154.85C60.117 156.257 62.2568 157.048 64.0154 157.224C65.8327 157.4 67.5621 157.429 69.2035 157.312C73.7174 157.136 76.7365 156.52 78.2606 155.465C79.8435 154.351 81.2504 153.12 82.4815 151.772C83.7125 150.541 84.8557 148.167 85.9109 144.649C86.4385 142.773 87.8454 141.718 90.1317 141.484C92.3593 141.718 93.7663 142.773 94.3525 144.649C95.4663 148.167 96.6095 150.541 97.7819 151.772C99.013 153.12 100.391 154.351 101.915 155.465C103.498 156.52 106.575 157.136 111.148 157.312C112.731 157.429 114.401 157.4 116.16 157.224C117.977 157.048 120.176 156.257 122.755 154.85C130.083 149.163 137.264 146.32 144.299 146.32C147.464 146.32 150.513 146.818 153.444 147.815C159.247 148.343 160.948 149.046 158.544 149.925C156.199 150.805 154.851 151.625 154.499 152.388C154.089 153.091 154.763 154.205 156.522 155.729C158.339 157.195 157.43 156.989 153.796 155.113C152.623 154.586 151.949 154.234 151.773 154.058C151.656 153.824 151.216 153.619 150.454 153.443C148.578 152.915 146.526 152.651 144.299 152.651C139.14 152.651 133.512 154.762 127.416 158.983C124.25 160.272 121.524 161.152 119.238 161.621C116.951 162.031 114.548 162.324 112.027 162.5H108.422C103.498 162.5 99.3354 160.888 95.9353 157.664Z" fill="#EEEEEE" />
    <path d="M103.761 62.4316V66.9162H92.5059V87.9323H88.0213V66.9162H76.7658V62.4316H88.0213V47.395H92.5059V62.4316H103.761Z" fill="#EEEEEE" />
    <path fill-rule="evenodd" clip-rule="evenodd" d="M90.2196 102.178C82.7746 102.178 76.2382 103.115 70.6104 104.991C63.8689 91.2151 60.4981 79.901 60.4981 71.0491C60.4981 57.1556 70.5225 43.6431 90.5714 30.5117C110.679 43.6431 120.733 57.1556 120.733 71.0491C120.733 79.2562 117.157 90.5703 110.005 104.991C104.553 103.115 97.9578 102.178 90.2196 102.178ZM96.287 70.6973H107.543V58.7384H96.287V43.7017H84.2401V58.7384H72.9846V70.6973H84.2401V91.7135H96.287V70.6973Z" fill="#EEEEEE" />
  </g>
  <g id="wk" fill="none" transform="scale(0.22099447513812154 0.22099447513812157)">
    <path d="M138.936 128.031C139.347 129.262 139.552 130.435 139.552 131.549C139.552 135.008 138.292 137.675 135.771 139.551C135.536 140.547 135.36 141.544 135.243 142.54C137.412 145.589 138.497 148.051 138.497 149.927C138.497 154.851 133.748 159.072 124.251 162.589C114.755 166.107 103.353 167.865 90.0454 167.865C76.6795 167.865 65.2481 166.107 55.7513 162.589C46.3131 159.072 41.594 154.851 41.594 149.927C41.594 147.992 42.7371 145.472 45.0234 142.365C44.9061 141.72 44.7303 140.811 44.4958 139.639C41.9164 137.763 40.6267 135.066 40.6267 131.549C40.6267 130.435 40.8026 129.292 41.1543 128.119C41.7405 126.654 41.6233 125.511 40.8026 124.69C39.9819 123.869 39.0439 122.726 37.9887 121.261C37.0507 118.329 36.5818 116.307 36.5818 115.193C36.6404 114.666 36.7283 114.079 36.8455 113.434C37.0214 112.79 37.1093 112.028 37.1093 111.148C34.53 108.569 31.8333 106.136 29.0195 103.85C26.2642 101.505 24.0952 98.691 22.5124 95.4081C20.6365 91.539 18.9071 87.6406 17.3243 83.7129C15.8001 79.7266 15.038 75.8282 15.038 72.0178C15.038 64.8072 16.9433 58.7105 20.7537 53.7276C24.5642 48.7447 29.7229 44.8463 36.23 42.0324C44.9061 41.4462 48.57 41.1531 47.2217 41.1531C57.422 41.1531 66.6843 44.9342 75.0087 52.4965V21.6318H104.994V52.5845C113.318 44.9635 122.639 41.1531 132.957 41.1531C131.491 41.1531 135.155 41.4462 143.949 42.0324C150.338 44.8463 155.439 48.7447 159.249 53.7276C163.118 58.7105 165.053 64.8072 165.053 72.0178C165.053 75.8282 164.261 79.6973 162.678 83.625C161.154 87.5527 159.484 91.4511 157.666 95.3201C156.083 98.6616 153.885 101.563 151.071 104.026C148.257 106.488 145.59 108.95 143.069 111.412C143.011 112.115 143.04 112.79 143.157 113.434C143.333 114.079 143.45 114.666 143.509 115.193C143.567 116.014 143.098 118.036 142.102 121.261C141.047 122.726 140.109 123.869 139.288 124.69C138.526 125.511 138.409 126.624 138.936 128.031Z" fill="#222831" />
    <path d="M91.1005 33.503L96.8162 26.7321H83.2744L88.6384 33.5909C88.9901 33.4151 89.4591 33.3272 90.0453 33.3272C90.2798 33.3272 90.6316 33.3858 91.1005 33.503Z" fill="#EEEEEE" />
    <path d="M80.2847 29.8097L86.528 35.8771C86.3521 36.3461 86.2642 36.7564 86.2642 37.1082C86.2642 37.6358 86.3521 38.0169 86.528 38.2513L80.2847 43.2635V29.8097Z" fill="#EEEEEE" />
    <path d="M90.0454 51.7931C84.0073 51.7931 80.9882 54.8122 80.9882 60.8503C80.9882 66.8884 84.0073 69.9074 90.0454 69.9074C96.0835 69.9074 99.1025 66.8884 99.1025 60.8503C99.1025 54.8122 96.0835 51.7931 90.0454 51.7931Z" fill="#EEEEEE" />
    <path d="M62.8739 127.768L54.3443 124.954L47.7493 130.23L56.103 133.044L62.8739 127.768Z" fill="#EEEEEE" />
    <path d="M88.5505 40.5376L83.2744 46.2533H96.8162L91.1885 40.6256C90.6022 40.7428 90.2212 40.8014 90.0453 40.8014C89.4591 40.8014 88.9608 40.7135 88.5505 40.5376Z" fill="#EEEEEE" />
    <path d="M99.806 43.2635L93.5627 38.5151C93.6799 37.9289 93.7385 37.4599 93.7385 37.1082C93.7385 36.5806 93.6506 36.0823 93.4748 35.6133L99.806 29.8097V43.2635Z" fill="#EEEEEE" />
    <path d="M89.8695 119.854L100.685 125.042L90.2212 130.23L79.4933 125.042L89.8695 119.854Z" fill="#EEEEEE" />
    <path d="M83.0986 101.124C83.04 93.9133 82.4244 86.6734 81.252 79.4042C80.0796 72.0764 78.9071 67.6212 77.7347 66.0383C70.4655 58.0071 62.2584 53.9915 53.1133 53.9915C45.2579 53.9915 39.2784 56.6295 35.1748 61.9055C32.4782 65.3642 31.1299 69.9074 31.1299 75.5352C31.1299 87.2596 35.4973 98.222 44.232 108.422C45.2286 107.953 46.1958 107.543 47.1338 107.191C48.0924 106.853 49.0509 106.515 50.0095 106.176L50.1235 106.136C49.5959 104.964 49.0683 103.85 48.5407 102.795C48.0131 101.739 47.4562 100.362 46.87 98.6617C45.7562 95.3788 45.3165 92.2719 45.551 89.3407C45.9613 87.5234 46.9579 86.6148 48.5407 86.6148C49.2442 86.6148 50.1821 87.2303 51.3546 88.4614C51.0615 86.8786 50.9149 85.882 50.9149 85.4717C50.9149 80.0198 53.2305 76.649 57.8617 75.3593C62.7273 75.5937 65.9516 79.2283 67.5344 86.2631C68.062 84.5044 68.7948 83.5078 69.7327 83.2733C70.6707 83.0389 71.2862 82.9216 71.5793 82.9216C72.2828 82.9216 72.8983 83.0975 73.4259 83.4492C75.4191 85.9114 76.6501 89.4874 77.1191 94.1772C77.2364 95.2323 77.295 96.2582 77.295 97.2548C77.3536 98.2514 77.4708 99.6582 77.6467 101.476C79.464 101.124 81.2813 101.007 83.0986 101.124Z" fill="#EEEEEE" />
    <path d="M55.1357 99.6289C55.722 101.27 56.2789 102.765 56.8065 104.114C56.3961 104.289 55.9271 104.465 55.3995 104.641C54.9306 104.758 54.4616 104.905 53.9926 105.081C51.0029 100.039 49.5666 96.8151 49.6839 95.4081C49.7425 93.7667 50.2701 92.946 51.2667 92.946C51.9701 92.946 52.5564 93.4149 53.0253 94.3529C53.9047 96.2288 54.6081 97.9875 55.1357 99.6289Z" fill="#EEEEEE" />
    <path d="M65.5998 102.795C65.3653 95.115 64.2222 88.9011 62.1704 84.1527C61.4669 82.9216 60.441 82.306 59.0927 82.306C57.3927 82.306 56.5427 83.156 56.5427 84.8561C56.4841 84.9147 56.4548 85.6768 56.4548 87.1423C56.4548 89.6631 57.891 95.1736 60.7635 103.674C63.2256 103.205 64.8378 102.912 65.5998 102.795Z" fill="#EEEEEE" />
    <path d="M73.1621 90.4837C73.9242 93.5907 74.1587 97.4011 73.8656 101.915C72.6345 101.915 71.4327 102.062 70.2603 102.355C68.9706 97.0787 68.5602 93.1803 69.0292 90.6596C69.4396 89.1354 70.2603 88.4613 71.4914 88.6371C72.3707 88.8716 72.9276 89.4871 73.1621 90.4837Z" fill="#EEEEEE" />
    <path d="M129.264 145.53C128.795 141.309 122.932 138.085 111.677 135.858C108.16 135.154 104.613 134.744 101.037 134.626C97.4611 134.509 93.7972 134.363 90.0453 134.187C86.3521 134.539 82.8641 134.802 79.5813 134.978C76.357 135.154 73.4259 135.506 70.7879 136.033C57.8324 138.671 51.208 141.837 50.9149 145.53C50.446 146.234 50.2114 146.966 50.2114 147.729C50.2114 150.367 52.3219 153.005 56.5427 155.643C56.5427 152.946 57.0117 150.923 57.9496 149.575C58.4772 148.93 59.0048 148.285 59.5324 147.641C59.8429 147.268 60.1534 146.896 60.4639 146.523L60.4688 146.517L61.2911 145.53C66.5671 142.365 76.2105 140.958 90.2212 141.309C103.939 140.958 113.494 142.365 118.888 145.53C120.177 147.172 121.291 148.52 122.229 149.575C123.167 151.041 123.636 153.063 123.636 155.643C127.857 153.005 129.967 150.367 129.967 147.729C129.967 146.966 129.733 146.234 129.264 145.53Z" fill="#EEEEEE" />
    <path d="M89.8695 145.794C109.332 145.794 119.063 148.432 119.063 153.708C117.715 158.925 108.101 161.534 90.2212 161.534C72.0483 161.534 62.3463 158.925 61.1152 153.708C61.1152 148.432 70.7 145.794 89.8695 145.794Z" fill="#EEEEEE" />
    <path d="M118.008 127.768L124.691 133.044L133.133 130.23L126.45 124.954L118.008 127.768Z" fill="#EEEEEE" />
    <path d="M148.345 75.5352C148.345 87.0251 144.154 97.9582 135.771 108.334C134.716 107.924 133.631 107.543 132.517 107.191C132.005 106.992 131.493 106.793 130.981 106.594L129.352 105.96C129.879 104.905 130.378 103.85 130.847 102.794C131.374 101.739 131.96 100.362 132.605 98.6615C133.66 95.3787 134.1 92.2717 133.924 89.3406C133.455 87.5233 132.459 86.6147 130.934 86.6147C130.172 86.6147 129.234 87.2302 128.121 88.4613C128.414 86.8784 128.56 85.8819 128.56 85.4715C128.56 80.0196 126.245 76.6488 121.614 75.3592C116.689 75.5936 113.465 79.2282 111.941 86.2629C111.413 84.5042 110.68 83.5076 109.742 83.2732C108.805 83.0387 108.189 82.9215 107.896 82.9215C107.134 82.9215 106.518 83.0974 106.049 83.4491C103.997 85.9111 102.766 89.4872 102.356 94.177C102.18 95.2322 102.063 96.2581 102.004 97.2547C102.004 98.2512 101.975 99.6581 101.916 101.475C100.275 101.065 98.399 100.948 96.2886 101.124C96.3473 93.9133 96.9628 86.6734 98.1352 79.4042C99.3077 72.0764 100.509 67.6212 101.741 66.0383C108.951 58.0071 117.158 53.9915 126.362 53.9915C134.159 53.9915 140.138 56.6295 144.3 61.9055C146.997 65.3642 148.345 69.9074 148.345 75.5352Z" fill="#EEEEEE" />
    <path d="M122.669 104.114C123.02 104.289 123.431 104.465 123.9 104.641C124.427 104.758 124.955 104.905 125.483 105.081C128.414 100.039 129.85 96.8151 129.791 95.4081C129.674 93.7667 129.146 92.946 128.208 92.946C127.446 92.946 126.86 93.4149 126.45 94.3529C125.512 96.2288 124.75 97.9875 124.164 99.6289C123.636 101.27 123.138 102.765 122.669 104.114Z" fill="#EEEEEE" />
    <path d="M118.712 103.674C116.191 103.205 114.579 102.912 113.875 102.795C114.051 95.115 115.194 88.9011 117.305 84.1527C117.95 82.9216 118.976 82.306 120.382 82.306C122.083 82.306 122.933 83.156 122.933 84.8561C122.991 84.9147 123.02 85.6768 123.02 87.1423C123.02 89.6631 121.584 95.1736 118.712 103.674Z" fill="#EEEEEE" />
    <path d="M105.61 101.915C106.841 101.915 108.042 102.062 109.215 102.355C110.446 97.0787 110.856 93.1804 110.446 90.6596C109.977 89.1354 109.156 88.4613 107.984 88.6371C107.046 88.8716 106.489 89.4871 106.313 90.4837C105.492 93.5907 105.258 97.4012 105.61 101.915Z" fill="#EEEEEE" />
    <path d="M135.859 116.952C135.859 119.59 134.54 121.055 131.902 121.349C121.232 117.362 107.251 115.369 89.9574 115.369C72.8983 115.369 59.1514 117.333 48.7166 121.261C45.7269 121.378 44.232 119.942 44.232 116.952C44.232 115.486 44.8768 114.255 46.1665 113.259C56.5427 108.627 71.1396 106.312 89.9574 106.312C98.9266 106.312 107.192 106.957 114.755 108.246C122.376 109.477 128.648 111.09 133.572 113.083C135.097 113.962 135.859 115.252 135.859 116.952Z" fill="#EEEEEE" />
  </g>
  <g id="wn" fill="none" transform="scale(0.22099447513812154 0.22099447513812157)">
    <path d="M35.2624 105.255C34.7934 105.841 34.1779 106.398 33.4158 106.926C31.7743 108.157 30.6019 108.04 29.8984 106.574C29.4881 105.871 29.5174 104.786 29.9864 103.321C30.8071 102.617 31.364 102.148 31.6571 101.914C33.4744 99.7447 34.9693 97.8395 36.1417 96.198C36.7279 96.0808 37.1676 96.0515 37.4607 96.1101C39.5125 96.4619 40.0401 97.7223 39.0435 99.8913C38.5159 100.946 37.8711 101.914 37.109 102.793C36.4055 103.614 35.79 104.435 35.2624 105.255ZM61.2907 66.2126C62.4632 62.578 64.6908 60.6142 67.9737 60.3211C70.2013 60.1452 72.1358 60.0573 73.7773 60.0573C75.4187 60.0573 77.1774 59.7642 79.0533 59.178C77.1774 64.454 75.0377 67.8834 72.6341 69.4662C71.3444 70.2283 69.5565 70.6973 67.2702 70.8732C65.5701 70.9904 64.2511 70.8732 63.3132 70.5215C62.3752 70.1697 61.7011 68.7335 61.2907 66.2127V66.2126ZM55.4871 112.993C58.3009 111 60.2941 108.919 61.4666 106.75C62.6977 104.522 64.3684 102.412 66.4788 100.419C66.5374 99.7153 66.6253 98.9239 66.7426 98.0446C66.8598 97.1653 66.977 96.2273 67.0942 95.2307C67.5046 94.8204 67.827 94.5859 68.0615 94.5273C69.7615 93.9997 70.7581 94.7617 71.0512 96.8135C71.0512 97.3997 70.9926 97.986 70.8754 98.5722C70.8168 99.0998 70.8461 99.5688 70.9633 99.9791C71.315 100.389 72.6341 100.829 74.9203 101.298C83.362 101.591 91.1294 98.4256 98.2227 91.8013C98.2227 91.7427 98.3986 91.4789 98.7503 91.0099C99.1607 90.5409 99.3952 90.2478 99.4538 90.1305C101.212 87.4925 102.619 82.0114 103.675 73.687C103.792 73.4526 104.114 73.1888 104.642 72.8956C106.166 72.368 107.133 73.1301 107.544 75.1819C107.016 82.7441 105.873 88.1374 104.114 91.3616C103.176 93.0617 102.121 94.5566 100.949 95.8463C101.945 95.3187 102.942 94.8204 103.938 94.3514C104.935 93.8824 105.902 93.3548 106.84 92.7686C109.83 90.9513 111.97 87.4339 113.259 82.2165C113.904 81.1027 114.842 80.6044 116.073 80.7217C117.363 80.9561 117.861 81.9234 117.568 83.6235C116.22 90.9513 113.347 95.6997 108.951 97.8687C107.544 98.5722 106.107 99.217 104.642 99.8033C103.235 100.331 101.857 100.858 100.509 101.386C103.968 101.21 107.72 100.653 111.765 99.7153C112.527 99.7153 113.054 100.038 113.347 100.683C113.875 101.855 113.318 102.91 111.677 103.848C103.411 106.134 98.1641 107.16 95.9365 106.926C94.3537 111.909 90.4846 117.39 84.3293 123.369C80.9292 126.652 77.4118 129.847 73.7772 132.954C70.1426 136.003 66.5666 139.051 63.0493 142.099C55.2525 148.958 50.5041 155.641 48.8041 162.148C62.2286 162.207 73.3669 162.236 82.2188 162.236C91.1294 162.236 99.3073 162.236 106.752 162.236C114.197 162.236 121.701 162.236 129.263 162.236C136.826 162.177 146.029 162.148 156.874 162.148C157.695 162.148 158.018 160.683 157.842 157.751C157.724 154.82 157.519 152.094 157.226 149.574C154.061 149.925 151.071 148.284 148.257 144.649C145.443 140.956 144.153 136.735 144.388 131.987C144.446 119.676 143.655 108.597 142.014 98.748C140.431 88.8409 137.265 80.2527 132.517 72.9835C124.779 61.259 112.497 51.2932 95.6727 43.0861C95.4382 44.5517 95.1744 45.9 94.8813 47.1311C94.4123 49.007 93.5329 49.6225 92.2432 48.9777C91.0122 48.5673 90.3673 47.7759 90.3087 46.6034C90.5432 45.5482 90.6897 44.7569 90.7484 44.2293C90.6898 44.0534 90.6312 43.8482 90.5726 43.6137C90.5139 43.3206 90.4846 43.0568 90.4846 42.8223C89.8984 39.774 88.2276 36.3152 85.4724 32.4462C85.0034 34.9083 84.5344 36.579 84.0654 37.4584C83.5965 38.3377 83.1861 39.0998 82.8344 39.7446C82.1895 40.6826 81.6033 41.5912 81.0757 42.4706C80.6068 43.3499 80.0498 44.3172 79.405 45.3724C78.7601 44.6689 78.0567 43.8482 77.2946 42.9103C76.5911 41.9137 75.9463 41.0636 75.36 40.3602C74.8324 39.8326 74.3048 39.3343 73.7772 38.8653C73.3083 38.3377 72.3703 37.898 70.9633 37.5463C72.1944 42.1188 71.872 45.2551 69.9961 46.9552C69.0581 47.8931 68.0322 49.1535 66.9184 50.7363C65.8046 52.2605 64.5442 53.6675 63.1373 54.9571C62.3166 55.8365 61.2907 56.8624 60.0596 58.0348C58.8872 59.1486 57.8906 60.6142 57.0698 62.4315C55.956 65.8316 53.7577 69.261 50.4748 72.7197C47.2506 76.1198 43.704 79.5492 39.8349 83.0079C31.3933 90.5116 26.6155 95.9635 25.5017 99.3636C23.9775 103.467 24.0655 107.453 25.7655 111.323C27.3483 114.781 29.5173 117.038 32.2726 118.093C33.914 118.738 35.9365 117.507 38.34 114.4C40.9194 111.293 42.6194 109.857 43.4401 110.091C44.9643 110.502 45.4626 111.586 44.935 113.345C44.6419 114.342 43.7039 115.778 42.1211 117.654C40.4797 119.471 39.6297 120.673 39.5711 121.259C39.278 121.963 39.8642 122.519 41.3297 122.93C43.147 123.399 46.5471 121.2 51.53 116.335C52.1162 115.749 52.7318 115.221 53.3766 114.752C54.0801 114.224 54.7836 113.638 55.487 112.993H55.4871ZM58.3889 117.214C57.5682 118.093 56.894 118.738 56.3664 119.149C55.8974 119.5 55.4578 119.852 55.0474 120.204C54.5198 120.673 52.6439 122.607 49.4197 126.007C48.0713 127.414 46.4592 128.352 44.5833 128.821C43.235 129.173 41.5057 129.027 39.3953 128.382C32.0675 126.447 26.2931 122.578 22.0723 116.774C20.3723 114.605 19.1705 111.997 18.4671 108.948C17.8222 105.841 18.1739 101.914 19.5223 97.1653C20.8119 92.2996 25.4431 86.8184 33.4158 80.7217C42.1505 74.0973 47.3093 68.792 48.8921 64.8057C50.1818 62.5194 51.6473 59.9987 53.2887 57.2434C54.9302 54.4882 56.894 51.8208 59.1803 49.2414C60.5872 48.2449 61.9062 47.1017 63.1373 45.8121C64.427 44.4637 65.7167 43.0861 67.0064 41.6792V30.8633C70.2892 31.5082 72.6342 32.4462 74.0411 33.6772C74.7445 34.4393 75.5359 35.1428 76.4153 35.7876C77.2946 36.4325 78.086 37.1359 78.7895 37.898C80.255 35.26 81.193 33.0617 81.6033 31.303C81.662 30.8927 81.8378 30.072 82.131 28.8409C82.4827 27.6098 82.8344 25.5873 83.1862 22.7734C84.0655 22.5976 84.8276 22.8321 85.4725 23.4769C88.2277 26.4667 90.8071 29.8668 93.2106 33.6772C103.938 37.9567 113.728 43.0275 122.58 48.8897C131.491 54.7519 138.291 60.8487 142.981 67.1799C156.464 85.4701 163.206 112.319 163.206 147.727C163.206 155.172 162.825 161.972 162.063 168.128H42.0333C41.2712 160.507 45.3161 152.417 54.1681 143.858C58.1544 139.989 62.2873 136.237 66.5667 132.602C70.9048 128.968 75.1256 125.275 79.2292 121.523C86.8501 114.488 91.0709 108.86 91.8916 104.64C91.5985 103.936 91.0416 103.467 90.2208 103.233C88.1691 104.464 86.1173 105.255 84.0655 105.607C82.0137 105.959 79.9912 106.193 77.9981 106.31C76.7084 106.369 75.4187 106.428 74.129 106.486C72.8979 106.486 71.4324 106.193 69.7323 105.607C67.4461 108.186 65.4822 110.414 63.8408 112.29C62.258 114.107 60.4407 115.749 58.3889 117.214Z" fill="#222831" />
    <path fill-rule="evenodd" clip-rule="evenodd" d="M61.4666 106.75C60.2941 108.919 58.301 111 55.4871 112.993C54.7836 113.638 54.0801 114.224 53.3767 114.752C52.7318 115.221 52.1163 115.749 51.5301 116.335C46.5471 121.2 43.1471 123.399 41.3298 122.93C39.8642 122.519 39.278 121.963 39.5711 121.259C39.6297 120.673 40.4797 119.471 42.1212 117.654C43.704 115.778 44.6419 114.342 44.935 113.345C45.4626 111.586 44.9644 110.502 43.4402 110.091C42.6195 109.857 40.9194 111.293 38.34 114.4C35.9365 117.507 33.914 118.738 32.2726 118.093C29.5174 117.038 27.3483 114.781 25.7655 111.323C24.0655 107.453 23.9776 103.467 25.5017 99.3636C26.6156 95.9635 31.3933 90.5116 39.8349 83.0079C43.704 79.5492 47.2506 76.1198 50.4749 72.7198C53.7577 69.261 55.9561 65.8316 57.0699 62.4315C57.8906 60.6142 58.8872 59.1486 60.0596 58.0348C61.2907 56.8624 62.3166 55.8365 63.1373 54.9572C64.5443 53.6675 65.8046 52.2605 66.9185 50.7363C68.0323 49.1535 69.0582 47.8931 69.9961 46.9552C71.872 45.2551 72.1944 42.1189 70.9634 37.5463C72.3703 37.898 73.3083 38.3377 73.7773 38.8653C74.3049 39.3343 74.8325 39.8326 75.3601 40.3602C75.9463 41.0636 76.5911 41.9137 77.2946 42.9103C78.0567 43.8482 78.7602 44.6689 79.405 45.3724C80.0499 44.3172 80.6068 43.3499 81.0758 42.4706C81.6034 41.5912 82.1896 40.6826 82.8344 39.7446C83.1862 39.0998 83.5965 38.3377 84.0655 37.4584C84.5345 36.579 85.0034 34.9083 85.4724 32.4462C88.2277 36.3152 89.8984 39.774 90.4847 42.8223C90.4847 43.0568 90.514 43.3206 90.5726 43.6137C90.6312 43.8482 90.6898 44.0534 90.7484 44.2293C90.6898 44.7569 90.5432 45.5482 90.3087 46.6034C90.3674 47.7759 91.0122 48.5673 92.2433 48.9777C93.533 49.6225 94.4123 49.007 94.8813 47.1311C95.1744 45.9 95.4382 44.5517 95.6727 43.0861C112.497 51.2932 124.779 61.2591 132.517 72.9835C137.265 80.2527 140.431 88.8409 142.014 98.7481C143.655 108.597 144.447 119.676 144.388 131.987C144.153 136.735 145.443 140.956 148.257 144.649C151.071 148.284 154.061 149.925 157.226 149.574C157.519 152.094 157.724 154.82 157.842 157.751C158.018 160.683 157.695 162.148 156.874 162.148C146.029 162.148 136.826 162.177 129.263 162.236H106.752H82.2188C73.3669 162.236 62.2286 162.207 48.8041 162.148C50.5041 155.641 55.2525 148.958 63.0493 142.099C66.5667 139.051 70.1426 136.003 73.7772 132.954C77.4118 129.847 80.9292 126.652 84.3293 123.369C90.4846 117.39 94.3537 111.909 95.9365 106.926C98.1641 107.16 103.411 106.134 111.677 103.848C113.318 102.91 113.875 101.855 113.347 100.683C113.054 100.038 112.527 99.7153 111.765 99.7153C107.72 100.653 103.968 101.21 100.509 101.386C101.857 100.858 103.235 100.331 104.642 99.8033C106.107 99.217 107.544 98.5722 108.951 97.8687C113.347 95.6997 116.22 90.9513 117.568 83.6235C117.861 81.9234 117.363 80.9561 116.073 80.7217C114.842 80.6044 113.904 81.1027 113.259 82.2165C111.97 87.4339 109.83 90.9513 106.84 92.7686C105.902 93.3548 104.935 93.8824 103.938 94.3514C102.942 94.8204 101.945 95.3187 100.949 95.8463C102.121 94.5566 103.176 93.0617 104.114 91.3617C105.873 88.1374 107.016 82.7441 107.544 75.1819C107.133 73.1301 106.166 72.368 104.642 72.8956C104.114 73.1888 103.792 73.4526 103.675 73.687C102.619 82.0114 101.212 87.4925 99.4538 90.1306C99.3952 90.2478 99.1607 90.5409 98.7504 91.0099C98.3986 91.4789 98.2228 91.7427 98.2228 91.8013C91.1295 98.4256 83.362 101.591 74.9204 101.298C72.6341 100.829 71.3151 100.389 70.9633 99.9791C70.8461 99.5688 70.8168 99.0998 70.8754 98.5722C70.9927 97.986 71.0513 97.3998 71.0513 96.8135C70.7582 94.7618 69.7616 93.9997 68.0615 94.5273C67.827 94.5859 67.5046 94.8204 67.0943 95.2307C66.977 96.2273 66.8598 97.1653 66.7426 98.0446C66.6254 98.9239 66.5374 99.7153 66.4788 100.419C64.3684 102.412 62.6977 104.522 61.4666 106.75ZM61.2907 66.2126C62.4632 62.5781 64.6908 60.6142 67.9737 60.3211C70.2013 60.1452 72.1358 60.0573 73.7773 60.0573C75.4187 60.0573 77.1774 59.7642 79.0533 59.178C77.1774 64.454 75.0377 67.8834 72.6341 69.4662C71.3445 70.2283 69.5565 70.6973 67.2702 70.8732C65.5701 70.9904 64.2511 70.8732 63.3132 70.5215C62.3752 70.1698 61.7011 68.7334 61.2907 66.2126ZM35.2624 105.255C34.7934 105.841 34.1779 106.398 33.4158 106.926C31.7743 108.157 30.6019 108.04 29.8984 106.574C29.4881 105.871 29.5174 104.786 29.9864 103.321C30.8071 102.617 31.364 102.148 31.6571 101.914C33.4744 99.7447 34.9693 97.8394 36.1417 96.198C36.7279 96.0808 37.1676 96.0515 37.4607 96.1101C39.5125 96.4619 40.0401 97.7222 39.0435 99.8912C38.5159 100.946 37.8711 101.914 37.109 102.793C36.4055 103.614 35.79 104.434 35.2624 105.255Z" fill="#EEEEEE" />
  </g>
  <g id="wp" fill="none" transform="scale(0.22099447513812154 0.22099447513812157)">
    <path d="M90.0424 167.954H42.1187C43.2325 155.35 48.5965 144.71 58.2105 136.034C59.7933 134.569 60.6727 133.777 60.8486 133.66C65.8315 129.556 70.0816 124.661 73.5989 118.975C64.5711 113.054 60.0571 104.7 60.0571 93.9139C60.0571 87.2309 62.0795 81.2222 66.1245 75.8875C67.4728 74.1875 68.9091 72.2529 70.4333 70.084C72.0161 67.915 73.2765 65.8046 74.2144 63.7528C72.8075 64.1045 70.6677 64.6614 67.7952 65.4235C64.9813 66.1856 62.9003 66.8305 61.552 67.3581C65.5969 63.6062 69.4367 59.1508 73.0713 53.9921C76.7645 48.8333 78.9335 43.3521 79.5784 37.5485C76.5886 34.5001 75.0938 30.9242 75.0938 26.8206C75.0938 22.717 76.53 19.1997 79.4025 16.2686C82.3336 13.3374 85.8802 11.8719 90.0424 11.8719C94.0873 11.8719 97.5755 13.3374 100.506 16.2686C103.438 19.1997 104.903 22.717 104.903 26.8206C104.903 30.9828 103.408 34.5587 100.419 37.5485C101.063 43.3521 103.232 48.8333 106.926 53.9921C110.677 59.1508 114.576 63.6062 118.621 67.3581C117.272 66.8305 115.133 66.1856 112.202 65.4235C109.329 64.6614 107.189 64.1045 105.782 63.7528C106.72 65.8046 107.952 67.915 109.476 70.084C111.059 72.2529 112.553 74.1875 113.96 75.8875C118.005 81.2222 120.028 87.2309 120.028 93.9139C120.028 104.7 115.514 113.054 106.486 118.975C109.827 124.603 114.048 129.498 119.148 133.66C120.028 134.363 120.907 135.155 121.786 136.034C131.459 144.71 136.823 155.35 137.878 167.954H90.0424Z" fill="#222831" />
    <path d="M90.0424 35.7898C96.0219 35.7898 99.0116 32.8001 99.0116 26.8206C99.0116 20.8411 96.0219 17.8514 90.0424 17.8514C84.0629 17.8514 81.0732 20.8411 81.0732 26.8206C81.0732 32.8001 84.0629 35.7898 90.0424 35.7898Z" fill="#EEEEEE" />
    <path d="M107.014 110.973C102.324 115.663 96.6667 118.008 90.0424 118.008C83.3594 118.008 77.6731 115.663 72.9833 110.973C68.2935 106.283 65.9486 100.597 65.9486 93.9139C65.9486 88.462 67.6486 83.567 71.0487 79.229C74.7419 74.5392 77.7903 69.2046 80.1938 63.2251C83.5353 62.7561 86.8181 62.5216 90.0424 62.5216C93.0907 62.5216 96.3736 62.7561 99.891 63.2251C102.001 68.8528 105.02 74.1875 108.948 79.229C112.348 83.567 114.048 88.462 114.048 93.9139C114.048 100.597 111.703 106.283 107.014 110.973Z" fill="#EEEEEE" />
    <path d="M130.668 162.062H49.4171C51.1171 155.086 54.4879 148.902 59.5294 143.508C61.4054 141.281 63.2226 139.434 64.9813 137.969C70.3746 133.513 74.9764 128.12 78.7869 121.789C82.4215 123.196 86.1733 123.899 90.0424 123.899C93.7942 123.899 97.5461 123.196 101.298 121.789C104.874 128.003 109.476 133.396 115.103 137.969C116.803 139.434 118.621 141.281 120.555 143.508C125.538 148.902 128.909 155.086 130.668 162.062Z" fill="#EEEEEE" />
    <path d="M101.913 58.2129C98.4547 57.0991 94.4977 56.5421 90.0424 56.5421C86.7595 56.5421 82.8025 57.0991 78.1714 58.2129C79.461 55.7507 80.8094 53.0248 82.2163 50.0351C83.6232 46.9867 84.5612 43.9676 85.0302 40.9779C86.613 41.4469 88.2837 41.6814 90.0424 41.6814C91.6838 41.6814 93.3253 41.4469 94.9667 40.9779C95.377 43.9676 96.2857 46.9867 97.6926 50.0351C99.1582 53.0248 100.565 55.7507 101.913 58.2129Z" fill="#EEEEEE" />
  </g>
  <g id="wq" fill="none" transform="scale(0.22099447513812154 0.22099447513812157)">
    <path d="M94.351 32.2718C95.2303 41.7687 96.1097 51.2655 96.989 60.7623C97.927 70.2005 98.8649 79.6387 99.8029 89.0769C99.8615 90.4252 100.536 91.0994 101.825 91.0994C102.763 91.0408 103.408 90.6304 103.76 89.8683C108.86 77.5576 112.612 68.0315 115.015 61.2899C117.478 54.4897 118.972 50.2982 119.5 48.7154C116.803 46.136 115.455 43.2342 115.455 40.01C115.455 37.1961 116.452 34.7926 118.445 32.7995C120.497 30.7477 122.959 29.7218 125.831 29.7218C128.645 29.7218 131.049 30.7477 133.042 32.7995C135.094 34.7926 136.119 37.1961 136.119 40.01C136.119 45.1101 133.481 48.5689 128.205 50.3862L121.786 88.7252C121.493 90.4839 122.109 91.3632 123.633 91.3632C124.864 91.3632 125.802 91.0408 126.447 90.3959C133.481 83.3613 138.523 77.9094 141.571 74.0403C144.678 70.1712 146.847 67.4746 148.078 65.9504C146.789 64.2503 146.144 62.1986 146.144 59.795C146.144 52.9362 149.573 49.5068 156.432 49.5068C159.246 49.5068 161.649 50.5327 163.643 52.5845C165.694 54.5776 166.72 56.9812 166.72 59.795C166.72 62.6675 165.694 65.1004 163.643 67.0935C161.649 69.0867 159.246 70.0833 156.432 70.0833C155.553 70.0833 154.761 69.9954 154.058 69.8195C149.368 79.9612 145.616 90.3374 142.802 100.948C140.399 109.565 138.904 117.743 138.318 125.481C138.67 127.123 138.875 127.973 138.933 128.031C138.757 127.328 138.875 128.002 139.285 130.054C139.519 130.992 139.637 131.901 139.637 132.78C139.285 133.718 138.552 134.773 137.438 135.946C136.442 137.059 135.709 139.258 135.24 142.541C137.409 145.589 138.493 148.051 138.493 149.927C138.493 154.851 133.745 159.072 124.248 162.589C114.751 166.107 103.349 167.865 90.0421 167.865C76.6762 167.865 65.2449 166.107 55.748 162.589C46.3098 159.072 41.5907 154.851 41.5907 149.927C41.5907 147.992 42.7339 145.472 45.0201 142.365C44.3167 139.023 43.5546 136.884 42.7339 135.946C41.5614 134.773 40.7993 133.718 40.4476 132.78C40.4476 132.018 40.5355 131.139 40.7114 130.142C40.8286 129.673 40.9165 129.263 40.9752 128.911C41.0338 128.501 41.0924 128.207 41.151 128.031C41.3855 127.387 41.62 126.478 41.8545 125.306C41.2683 117.919 39.832 109.8 37.5457 100.948C34.4974 89.8098 30.7162 79.375 26.2023 69.6436C25.2057 69.9368 24.1798 70.0833 23.1246 70.0833C16.2658 70.0833 12.8364 66.6539 12.8364 59.7951C12.8364 52.9363 16.2658 49.5069 23.1246 49.5069C29.9835 49.5069 33.4129 52.9363 33.4129 59.7951C33.4129 61.9055 32.8853 63.8107 31.8301 65.5108C35.2888 69.9075 38.7475 74.011 42.2062 77.8215C45.7236 81.5733 49.5926 85.7062 53.8135 90.2201C54.3411 90.9822 55.1031 91.3632 56.0997 91.3632C57.7998 91.3632 58.5619 90.4839 58.386 88.7252C58.2687 88.1976 57.536 84.0062 56.1876 76.1508C54.8393 68.2954 53.3738 59.7365 51.791 50.4742C46.2218 48.95 43.4373 45.4619 43.4373 40.0101C43.4373 37.1962 44.4339 34.7927 46.427 32.7995C48.4788 30.7477 50.9117 29.7218 53.7255 29.7218C60.5843 29.7218 64.0137 33.1512 64.0137 40.0101C64.0137 43.0584 62.8413 45.843 60.4964 48.3638C60.7895 49.5948 61.5223 52.057 62.6947 55.7502C63.8672 59.3847 65.6845 64.1918 68.1466 70.1713C69.4949 73.4541 70.8433 76.7663 72.1916 80.1078C73.5985 83.3906 75.0054 86.6442 76.4124 89.8684C76.7641 90.6305 77.3797 91.0115 78.259 91.0115C79.4901 90.9529 80.1935 90.3081 80.3694 89.077C80.4866 88.3735 82.2746 69.4678 85.7333 32.3598C81.5712 30.1322 79.49 26.82 79.49 22.4233C79.49 19.6095 80.4866 17.1767 82.4798 15.1249C84.4729 13.0731 86.9058 12.0472 89.7783 12.0472C92.5922 12.0472 94.9957 13.0731 96.9888 15.1249C99.0406 17.1767 100.066 19.6095 100.066 22.4233C100.066 26.4097 98.1613 29.6925 94.3508 32.2719L94.351 32.2718Z" fill="#222831" />
    <path d="M89.7785 16.4438C85.8508 16.4438 83.887 18.437 83.887 22.4233C83.887 26.351 85.8508 28.3148 89.7785 28.3148C93.7062 28.3148 95.6701 26.351 95.6701 22.4233C95.6701 18.437 93.7062 16.4438 89.7785 16.4438Z" fill="#EEEEEE" />
    <path d="M47.8341 40.01C47.8341 36.0237 49.798 34.0305 53.7257 34.0305C57.712 34.0305 59.7052 36.0237 59.7052 40.01C59.7052 43.9377 57.712 45.9016 53.7257 45.9016C49.798 45.9016 47.8341 43.9377 47.8341 40.01Z" fill="#EEEEEE" />
    <path d="M93.9113 85.2079C94.4389 89.7804 95.5527 93.034 97.2528 94.9685C96.0803 94.9685 94.8786 94.8806 93.6475 94.7047C92.4751 94.4703 91.2733 94.3531 90.0422 94.3531C88.8112 94.3531 87.5801 94.4703 86.349 94.7047C85.1766 94.8806 84.0041 94.9685 82.8317 94.9685C84.5317 93.3857 85.6455 90.1322 86.1732 85.2079C86.349 83.3906 86.6421 80.7819 87.0525 77.3818C87.4628 73.9231 87.8146 69.6436 88.1077 64.5435C88.2835 60.8503 88.518 57.6554 88.8112 54.9587C89.1629 52.2621 89.5733 50.8551 90.0422 50.7379C90.4526 50.8552 90.8629 52.2621 91.2733 54.9587C91.6836 57.6554 91.9768 60.8503 92.1526 64.5435C92.3285 69.6436 92.5923 73.9231 92.944 77.3818C93.3544 80.7819 93.6768 83.3906 93.9113 85.2079Z" fill="#EEEEEE" />
    <path d="M74.6539 95.2322C73.1297 93.9425 71.6642 91.8028 70.2572 88.813C68.5572 85.3543 66.5054 79.9904 64.1019 72.7212C63.1639 69.8487 62.2846 67.4159 61.4639 65.4227C60.6431 63.4296 60.0569 62.4623 59.7052 62.5209C59.5293 62.5795 59.4414 63.0485 59.4414 63.9278C59.5 64.8072 59.5293 65.5107 59.5293 66.0382C59.5293 67.6211 60.2621 71.6367 61.7276 78.0851C63.1346 84.7681 63.8381 89.5458 63.8381 92.4184C63.8967 94.177 63.7208 95.4374 63.3105 96.1995C66.3588 95.7891 70.14 95.4667 74.6539 95.2322Z" fill="#EEEEEE" />
    <path d="M53.9016 96.9909C52.2601 95.584 49.7393 92.7994 46.3392 88.6372C40.4184 81.9543 37.1062 78.6128 36.4028 78.6128C35.8165 78.6128 35.5234 79.0232 35.5234 79.8439C35.5234 80.8991 36.4614 83.0388 38.3373 86.263C39.9787 90.8942 41.327 95.1443 42.3822 99.0134C45.0202 98.4858 48.86 97.8116 53.9016 96.9909Z" fill="#EEEEEE" />
    <path d="M116.862 96.1117C116.452 95.2323 116.246 94.0014 116.246 92.4185C116.246 89.4287 116.979 84.651 118.445 78.0853C119.852 71.5196 120.555 67.504 120.555 66.0384C120.555 64.1625 120.526 63.1952 120.467 63.1366C119.647 62.9607 118.152 66.1557 115.983 72.7214C113.755 79.5216 111.703 84.8855 109.827 88.8132C108.479 91.6271 107.043 93.7961 105.519 95.3203C108.274 95.4375 112.055 95.7013 116.862 96.1117Z" fill="#EEEEEE" />
    <path d="M139.725 92.5944C139.08 94.7048 138.494 96.8445 137.966 99.0135C134.156 98.31 130.257 97.6945 126.271 97.1669C127.092 96.3462 128.117 95.2324 129.349 93.8254C130.58 92.3599 132.075 90.6012 133.833 88.5494C139.52 81.9251 142.832 78.6129 143.77 78.6129C144.356 78.6129 144.649 79.0233 144.649 79.844C144.649 80.6061 143.711 82.7165 141.835 86.1752C141.132 88.2856 140.428 90.4253 139.725 92.5944Z" fill="#EEEEEE" />
    <path d="M23.1248 53.9034C19.1971 53.9034 17.2333 55.8673 17.2333 59.795C17.2333 63.7813 19.1971 65.7745 23.1248 65.7745C27.1112 65.7745 29.1043 63.7813 29.1043 59.795C29.1043 55.8673 27.1112 53.9034 23.1248 53.9034Z" fill="#EEEEEE" />
    <path d="M65.9485 128.119C65.9485 124.837 67.502 123.195 70.6089 123.195C73.7746 123.195 75.3573 124.837 75.3573 128.119C75.3573 131.402 73.7746 133.044 70.6089 133.044C67.502 133.044 65.9485 131.402 65.9485 128.119Z" fill="#EEEEEE" />
    <path d="M43.7892 105.608C44.4927 108.481 45.1082 111.09 45.6358 113.435C46.222 115.721 46.7203 118.212 47.1307 120.909C47.5997 121.143 48.1273 121.261 48.7135 121.261C59.1483 117.333 72.8952 115.369 89.9543 115.369C107.248 115.369 121.229 117.362 131.899 121.348C132.485 121.231 132.925 121.085 133.218 120.909C133.569 118.271 134.038 115.867 134.625 113.698C135.211 111.471 135.856 108.891 136.559 105.96C129.876 104.084 122.578 102.531 114.664 101.3C106.75 100.01 98.5425 99.3651 90.0423 99.3651C81.542 99.3651 73.4228 99.9806 65.6846 101.212C57.9465 102.443 50.648 103.908 43.7892 105.608Z" fill="#EEEEEE" />
    <path d="M125.743 126.185L132.074 132.252L124.073 135.506L117.653 129.438L125.743 126.185Z" fill="#EEEEEE" />
    <path d="M101.21 126.009L89.8664 120.117L78.9626 126.009L90.3061 131.988L101.21 126.009Z" fill="#EEEEEE" />
    <path d="M54.3412 126.537L63.2225 129.526L56.0999 135.066L47.3065 132.076L54.3412 126.537Z" fill="#EEEEEE" />
    <path d="M156.432 53.9034C152.446 53.9034 150.453 55.8673 150.453 59.795C150.453 63.7813 152.446 65.7745 156.432 65.7745C160.36 65.7745 162.324 63.7813 162.324 59.795C162.324 55.8673 160.36 53.9034 156.432 53.9034Z" fill="#EEEEEE" />
    <path d="M119.852 40.01C119.852 36.0237 121.845 34.0305 125.831 34.0305C129.759 34.0305 131.723 36.0237 131.723 40.01C131.723 43.9377 129.759 45.9016 125.831 45.9016C121.845 45.9016 119.852 43.9377 119.852 40.01Z" fill="#EEEEEE" />
    <path d="M109.388 123.195C106.281 123.195 104.727 124.837 104.727 128.119C104.727 131.402 106.281 133.044 109.388 133.044C112.553 133.044 114.136 131.402 114.136 128.119C114.136 124.837 112.553 123.195 109.388 123.195Z" fill="#EEEEEE" />
    <path d="M61.6397 141.485C69.4365 139.785 78.904 138.935 90.0423 138.935C101.122 138.935 110.648 139.785 118.621 141.485C126.652 143.185 130.668 145.618 130.668 148.784C130.668 152.067 126.652 154.705 118.621 156.698C110.648 158.691 101.122 159.688 90.0423 159.688C78.904 159.688 69.4365 158.691 61.6397 156.698C53.9016 154.705 50.0325 152.067 50.0325 148.784C50.0325 145.618 53.9016 143.185 61.6397 141.485Z" fill="#EEEEEE" />
  </g>
  <g id="wr" fill="none" transform="scale(0.22099447513812154 0.22099447513812157)">
    <path d="M90.0434 12.0456H102.178V24.0046H120.381V12.0456H141.309V43.4379L127.151 59.7935C130.2 63.6626 130.258 67.7368 127.327 72.0163C126.858 72.7784 126.624 73.4818 126.624 74.1267C126.624 74.8888 126.858 75.6216 127.327 76.3251C128.558 78.1424 129.145 80.7217 129.086 84.0632C129.086 87.346 128.47 89.9254 127.239 91.8013C126.829 92.3876 126.624 93.0031 126.624 93.648C126.624 94.4687 126.888 95.2308 127.415 95.9343C130.17 100.096 130.112 104.2 127.239 108.245C126.829 108.948 126.624 109.623 126.624 110.267C126.624 110.912 126.829 111.586 127.239 112.29C128.529 114.224 129.174 116.921 129.174 120.38C129.174 123.78 128.47 126.301 127.063 127.942L141.309 135.065V142.627H147.2V168.128H32.7987V142.715H38.7782V135.153L52.9355 127.942C51.5286 126.301 50.8251 123.78 50.8251 120.38C50.8251 116.98 51.4699 114.312 52.7596 112.378C53.2286 111.733 53.4631 111.059 53.4631 110.355C53.4631 109.769 53.2286 109.095 52.7596 108.333C49.8871 104.229 49.8578 100.126 52.6717 96.0222C53.1993 95.0842 53.4631 94.3221 53.4631 93.7359C53.4631 93.1497 53.2579 92.5048 52.8476 91.8013C51.5579 89.9254 50.8837 87.346 50.8251 84.0632C50.8251 80.7217 51.4406 78.1424 52.6717 76.3251C53.1993 75.6216 53.4631 74.8888 53.4631 74.1267C53.4631 73.4818 53.2286 72.8077 52.7596 72.1042C49.7699 67.8248 49.8285 63.7212 52.9355 59.7935L38.7782 43.5258V12.1335H59.7064V24.0046L77.8207 24.0925V12.1335L90.0434 12.0456Z" fill="#222831" />
    <path d="M135.065 18.0251H126.008V30.3358H95.935V18.113H84.064V30.3358H54.0786V18.0251H45.0215V40.3602C52.5251 39.8913 59.9995 39.4516 67.4445 39.0412C74.9482 38.6309 82.4812 38.4257 90.0434 38.4257C104.289 38.4257 119.296 39.0705 135.065 40.3602V18.0251Z" fill="#EEEEEE" />
    <path d="M57.596 55.4848C67.6204 53.902 78.4362 53.1106 90.0434 53.1106C101.827 53.1106 112.73 53.902 122.755 55.4848L127.855 49.0657C115.896 46.9552 103.292 45.9 90.0434 45.9C76.6776 45.9 64.0445 46.9552 52.1441 49.0657L57.596 55.4848Z" fill="#EEEEEE" />
    <path d="M39.042 162.148V148.694H140.957V162.148H39.042Z" fill="#EEEEEE" />
    <path d="M56.8925 131.987C66.7997 131.166 77.85 130.756 90.0434 130.756C101.592 130.756 112.642 131.166 123.194 131.987C125.129 133.042 127.093 134.097 129.086 135.153L135.065 138.318V142.715H45.0215V138.318L56.8925 131.987Z" fill="#EEEEEE" />
    <path d="M57.8598 60.1453C55.9252 61.5522 54.958 63.5454 54.958 66.1248C54.958 68.7041 55.9252 70.6973 57.8598 72.1042C59.6771 73.5112 62.3444 74.2146 65.8617 74.2146C69.4377 74.2146 72.193 73.5112 74.1275 72.1042C76.0034 70.6973 76.9414 68.7041 76.9414 66.1248C76.9414 63.5454 76.0034 61.5522 74.1275 60.1453C72.193 58.797 69.4377 58.1228 65.8617 58.1228C62.3444 58.1228 59.6771 58.797 57.8598 60.1453Z" fill="#EEEEEE" />
    <path d="M116.951 77.9958C116.248 79.4027 115.896 81.4252 115.896 84.0632C115.896 86.6426 116.248 88.6065 116.951 89.9548C117.596 91.3617 118.622 92.0652 120.029 92.0652C121.436 92.0652 122.491 91.3617 123.194 89.9548C123.898 88.6065 124.25 86.6426 124.25 84.0632C124.25 81.4252 123.898 79.4027 123.194 77.9958C122.491 76.7061 121.436 76.0613 120.029 76.0613C118.622 76.0613 117.596 76.7061 116.951 77.9958Z" fill="#EEEEEE" />
    <path d="M94.4402 77.9957C92.6815 79.4027 91.8021 81.4251 91.8021 84.0631C91.8021 86.6425 92.6815 88.6064 94.4402 89.9547C96.1988 91.3617 98.7196 92.0651 102.002 92.0651C105.344 92.0651 107.894 91.3617 109.653 89.9547C111.411 88.6064 112.291 86.6425 112.291 84.0631C112.291 81.4251 111.411 79.4027 109.653 77.9957C107.894 76.6474 105.344 75.9733 102.002 75.9733C98.7196 75.9733 96.1988 76.6474 94.4402 77.9957Z" fill="#EEEEEE" />
    <path d="M70.4343 77.9957C68.6756 79.4027 67.7963 81.4251 67.7963 84.0631C67.7963 86.6425 68.6756 88.6064 70.4343 89.9547C72.1343 91.3617 74.6551 92.0651 77.9966 92.0651C81.338 92.0651 83.8881 91.3617 85.6468 89.9547C87.3468 88.6064 88.1968 86.6425 88.1968 84.0631C88.1968 81.4251 87.3468 79.4027 85.6468 77.9957C83.8881 76.6474 81.338 75.9733 77.9966 75.9733C74.6551 75.9733 72.1343 76.6474 70.4343 77.9957Z" fill="#EEEEEE" />
    <path d="M56.8925 77.9958C56.189 79.4027 55.8373 81.4252 55.8373 84.0632C55.8373 86.6426 56.189 88.6065 56.8925 89.9548C57.596 91.3617 58.6219 92.0652 59.9702 92.0652C61.3771 92.0652 62.4323 91.3617 63.1358 89.9548C63.8393 88.6065 64.191 86.6426 64.191 84.0632C64.191 81.4252 63.8393 79.4027 63.1358 77.9958C62.4323 76.7061 61.3771 76.0613 59.9702 76.0613C58.6219 76.0613 57.596 76.7061 56.8925 77.9958Z" fill="#EEEEEE" />
    <path d="M116.951 114.136C116.248 115.485 115.896 117.478 115.896 120.116C115.896 122.754 116.248 124.747 116.951 126.095C117.596 127.444 118.622 128.118 120.029 128.118C121.436 128.118 122.491 127.444 123.194 126.095C123.898 124.747 124.25 122.754 124.25 120.116C124.25 117.478 123.898 115.485 123.194 114.136C122.491 112.847 121.436 112.202 120.029 112.202C118.622 112.202 117.596 112.847 116.951 114.136Z" fill="#EEEEEE" />
    <path d="M56.8925 114.136C56.189 115.485 55.8373 117.478 55.8373 120.116C55.8373 122.754 56.189 124.747 56.8925 126.095C57.596 127.444 58.6219 128.118 59.9702 128.118C61.3771 128.118 62.4323 127.444 63.1358 126.095C63.8393 124.747 64.191 122.754 64.191 120.116C64.191 117.478 63.8393 115.485 63.1358 114.136C62.4323 112.847 61.3771 112.202 59.9702 112.202C58.6219 112.202 57.596 112.847 56.8925 114.136Z" fill="#EEEEEE" />
    <path d="M70.4343 114.136C68.6756 115.543 67.7963 117.654 67.7963 120.468C67.7963 123.282 68.6756 125.157 70.4343 126.095C72.0757 127.033 74.6551 127.502 78.1724 127.502C81.7484 127.502 84.2399 127.033 85.6468 126.095C86.9951 125.157 87.7572 123.282 87.9331 120.468C88.1089 117.654 87.3468 115.543 85.6468 114.136C83.8881 112.788 81.338 112.114 77.9966 112.114C74.6551 112.114 72.1343 112.788 70.4343 114.136Z" fill="#EEEEEE" />
    <path d="M94.4402 114.136C92.6815 115.543 91.8021 117.654 91.8021 120.468C91.8021 123.282 92.6815 125.157 94.4402 126.095C96.1402 127.033 98.6609 127.502 102.002 127.502C105.403 127.502 107.953 127.033 109.653 126.095C111.294 125.157 112.144 123.282 112.203 120.468C112.261 117.654 111.411 115.543 109.653 114.136C107.894 112.788 105.344 112.114 102.002 112.114C98.7196 112.114 96.1988 112.788 94.4402 114.136Z" fill="#EEEEEE" />
    <path d="M105.959 96.198C104.025 97.605 103.058 99.6274 103.058 102.265C103.058 104.845 104.025 106.809 105.959 108.157C107.777 109.564 110.473 110.267 114.049 110.267C117.625 110.267 120.351 109.564 122.227 108.157C124.103 106.809 125.041 104.845 125.041 102.265C125.041 99.6274 124.103 97.605 122.227 96.198C120.351 94.8497 117.625 94.1755 114.049 94.1755C110.473 94.1755 107.777 94.8497 105.959 96.198Z" fill="#EEEEEE" />
    <path d="M82.3053 96.198C80.488 97.605 79.5794 99.6274 79.5794 102.265C79.5794 104.845 80.488 106.809 82.3053 108.157C84.064 109.564 86.6141 110.267 89.9555 110.267C93.3556 110.267 95.9643 109.564 97.7816 108.157C99.5403 106.809 100.42 104.845 100.42 102.265C100.42 99.6274 99.5403 97.605 97.7816 96.198C95.9643 94.8497 93.3556 94.1755 89.9555 94.1755C86.6141 94.1755 84.064 94.8497 82.3053 96.198Z" fill="#EEEEEE" />
    <path d="M57.8598 96.198C55.9252 97.605 54.958 99.6274 54.958 102.265C54.958 104.845 55.9252 106.809 57.8598 108.157C59.6771 109.564 62.3444 110.267 65.8617 110.267C69.4377 110.267 72.193 109.564 74.1275 108.157C76.0034 106.809 76.9414 104.845 76.9414 102.265C76.9414 99.6274 76.0034 97.605 74.1275 96.198C72.193 94.8497 69.4377 94.1755 65.8617 94.1755C62.3444 94.1755 59.6771 94.8497 57.8598 96.198Z" fill="#EEEEEE" />
    <path d="M82.3053 60.1453C80.488 61.5522 79.5794 63.5454 79.5794 66.1248C79.5794 68.7041 80.488 70.6973 82.3053 72.1042C84.064 73.5112 86.6141 74.2146 89.9555 74.2146C93.3556 74.2146 95.9643 73.5112 97.7816 72.1042C99.5403 70.6973 100.42 68.7041 100.42 66.1248C100.42 63.5454 99.5403 61.5522 97.7816 60.1453C95.9643 58.797 93.3556 58.1228 89.9555 58.1228C86.6141 58.1228 84.064 58.797 82.3053 60.1453Z" fill="#EEEEEE" />
    <path d="M105.959 60.1453C104.025 61.5522 103.058 63.5454 103.058 66.1248C103.058 68.7041 104.025 70.6973 105.959 72.1042C107.777 73.5112 110.473 74.2146 114.049 74.2146C117.625 74.2146 120.351 73.5112 122.227 72.1042C124.103 70.6973 125.041 68.7041 125.041 66.1248C125.041 63.5454 124.103 61.5522 122.227 60.1453C120.351 58.797 117.625 58.1228 114.049 58.1228C110.473 58.1228 107.777 58.797 105.959 60.1453Z" fill="#EEEEEE" />
  </g>
</svg>