<svg xmlns="http://www.w3.org/2000/svg" width="40" height="40" viewbox="0.0 0.0 180.0 180.0">
  <g id="bb" fill="none" transform="scale(0.2222222222222222 0.2222222222222222)">
    <path d="M42.0117 48.4668C42.0117 46.6895 42.6497 45.1628 43.9258 43.8867C45.2018 42.6107 46.7285 41.9727 48.5059 41.9727H104.082C117.708 41.9727 127.757 45.8919 134.229 53.7305C137.829 58.0599 139.629 63.597 139.629 70.3418C139.629 77.041 136.553 82.8971 130.4 87.9102C139.15 92.6042 143.525 99.8958 143.525 109.785C143.525 119.674 140.016 127.194 132.998 132.344C126.025 137.448 117.458 140 107.295 140H48.5059C46.7285 140 45.2018 139.385 43.9258 138.154C42.6497 136.878 42.0117 135.352 42.0117 133.574V48.4668ZM67.7832 121.543H106.885C110.394 121.543 113.083 120.495 114.951 118.398C116.82 116.302 117.754 113.431 117.754 109.785C117.754 106.139 116.82 103.268 114.951 101.172C113.083 99.0755 110.394 98.0273 106.885 98.0273H67.7832V121.543ZM67.7832 80.0488H104.355C107.227 80.0488 109.528 79.2057 111.26 77.5195C112.992 75.7878 113.857 73.3952 113.857 70.3418C113.857 67.2428 112.992 64.8275 111.26 63.0957C109.528 61.3639 107.227 60.498 104.355 60.498H67.7832V80.0488Z" fill="black" stroke="black" stroke-width="3" />
  </g>
  <g id="bk" fill="none" transform="scale(0.2222222222222222 0.2222222222222222)">
    <path d="M145.576 136.992C145.576 138.997 144.391 140 142.021 140H126.367C124.59 140 122.676 139.385 120.625 138.154C118.574 136.878 116.979 135.352 115.84 133.574L103.809 114.502C100.938 109.854 98.0436 106.367 95.127 104.043C92.2103 101.673 88.7012 100.488 84.5996 100.488H69.9023V133.711C69.9023 135.488 69.2643 136.992 67.9883 138.223C66.7578 139.408 65.2539 140 63.4766 140H50.625C48.8477 140 47.321 139.362 46.0449 138.086C44.7689 136.764 44.1309 135.215 44.1309 133.438V48.4668C44.1309 46.6895 44.7689 45.14 46.0449 43.8184C47.321 42.4967 48.8477 41.8359 50.625 41.8359H63.4766C65.2539 41.8359 66.7578 42.4967 67.9883 43.8184C69.2643 45.14 69.9023 46.6895 69.9023 48.4668V81.2109H84.5996C88.61 81.2109 92.1191 80.1172 95.127 77.9297C98.1803 75.7422 101.074 72.2103 103.809 67.334L114.404 48.4668C116.82 44.0918 120.101 41.8815 124.248 41.8359H140.039C142.227 41.8359 143.32 42.793 143.32 44.707C143.32 45.7552 142.933 47.0085 142.158 48.4668L127.324 75.332C125.182 79.2513 122.767 82.487 120.078 85.0391C117.435 87.5911 113.971 89.3913 109.688 90.4395C112.695 91.0775 115.771 92.9688 118.916 96.1133C122.106 99.2578 124.909 102.676 127.324 106.367L144.414 133.574C145.189 134.896 145.576 136.035 145.576 136.992Z" fill="black" stroke="black" stroke-width="3" />
  </g>
  <g id="bn" fill="none" transform="scale(0.2222222222222222 0.2222222222222222)">
    <path d="M39.0723 133.574V48.4668C39.0723 46.6895 39.6875 45.1628 40.918 43.8867C42.1484 42.6107 43.6523 41.9727 45.4297 41.9727H65.5273C67.1224 41.9727 68.8086 42.6107 70.5859 43.8867C72.3633 45.1628 73.8216 46.6895 74.9609 48.4668L116.25 111.973V48.3301C116.25 46.5527 116.865 45.0488 118.096 43.8184C119.372 42.5879 120.898 41.9727 122.676 41.9727H134.434C136.211 41.9727 137.715 42.5879 138.945 43.8184C140.221 45.0488 140.859 46.5983 140.859 48.4668V133.574C140.859 135.352 140.221 136.878 138.945 138.154C137.715 139.385 136.211 140 134.434 140H111.738C109.961 140 108.138 139.385 106.27 138.154C104.401 136.878 102.92 135.352 101.826 133.574L64.0234 74.9219V133.574C64.0234 135.352 63.3854 136.878 62.1094 138.154C60.8789 139.385 59.375 140 57.5977 140H45.5664C43.7891 140 42.2624 139.385 40.9863 138.154C39.7103 136.878 39.0723 135.352 39.0723 133.574Z" fill="black" stroke="black" stroke-width="3" />
  </g>
  <g id="bp" fill="none" transform="scale(0.2222222222222222 0.2222222222222222)">
    <path opacity="0.988" d="M90 129C111.539 129 129 111.539 129 90C129 68.4609 111.539 51 90 51C68.4609 51 51 68.4609 51 90C51 111.539 68.4609 129 90 129Z" fill="black" stroke="black" stroke-width="3" stroke-linejoin="round" />
  </g>
  <g id="bq" fill="none" transform="scale(0.2222222222222222 0.2222222222222222)">
    <path d="M35.0391 90.3027C35.0391 72.9395 39.7103 60.2018 49.0527 52.0898C58.3952 43.9779 72.1126 39.9219 90.2051 39.9219C108.343 39.9219 122.015 43.7728 131.221 51.4746C140.472 59.1764 145.098 71.6406 145.098 88.8672C145.098 97.9818 143.32 105.41 139.766 111.152C137.259 115.299 134.57 118.991 131.699 122.227H142.568C144.437 122.227 145.986 122.865 147.217 124.141C148.447 125.371 149.062 126.875 149.062 128.652V134.258C149.062 136.035 148.447 137.562 147.217 138.838C145.986 140.068 144.437 140.684 142.568 140.684H90.0684C72.0671 140.684 58.3952 136.628 49.0527 128.516C39.7103 120.404 35.0391 107.666 35.0391 90.3027ZM90.0684 122.227C109.574 122.227 119.326 111.107 119.326 88.8672C119.326 78.5221 117.025 70.8659 112.422 65.8984C107.819 60.8854 100.391 58.3789 90.1367 58.3789C79.9284 58.3789 72.4772 61.0905 67.7832 66.5137C63.1348 71.9368 60.8105 79.8665 60.8105 90.3027C60.8105 100.739 63.1348 108.669 67.7832 114.092C72.4772 119.515 79.9056 122.227 90.0684 122.227Z" fill="black" stroke="black" stroke-width="3" />
  </g>
  <g id="br" fill="none" transform="scale(0.2222222222222222 0.2222222222222222)">
    <path d="M144.961 137.061C144.961 139.02 143.799 140 141.475 140H125.068C123.337 140 121.423 139.385 119.326 138.154C117.275 136.878 115.703 135.352 114.609 133.574L102.988 115.391C98.2031 107.917 92.4154 104.18 85.625 104.18H68.9453V133.574C68.9453 135.352 68.3073 136.878 67.0312 138.154C65.8008 139.385 64.2969 140 62.5195 140H49.668C47.8906 140 46.3639 139.385 45.0879 138.154C43.8118 136.878 43.1738 135.352 43.1738 133.574V48.4668C43.1738 46.6895 43.7891 45.1628 45.0195 43.8867C46.25 42.6107 47.7539 41.9727 49.5312 41.9727H105.928C116.364 41.9727 124.909 44.7754 131.562 50.3809C138.262 55.9863 141.611 63.5514 141.611 73.0762C141.611 86.3379 133.021 94.6549 115.84 98.0273C118.574 99.0299 121.104 100.762 123.428 103.223C125.752 105.638 128.418 109.17 131.426 113.818L143.867 133.574C144.596 134.85 144.961 136.012 144.961 137.061ZM68.9453 84.834H98.0664C102.76 84.834 106.885 83.8997 110.439 82.0312C114.04 80.1628 115.84 77.1777 115.84 73.0762C115.84 68.9746 114.04 65.9896 110.439 64.1211C106.885 62.2526 102.76 61.3184 98.0664 61.3184H68.9453V84.834Z" fill="black" stroke="black" stroke-width="3" />
  </g>
  <g id="wb" fill="none" transform="scale(0.2222222222222222 0.2222222222222222)">
    <path d="M42.0117 48.4668C42.0117 46.6895 42.6497 45.1628 43.9258 43.8867C45.2018 42.6107 46.7285 41.9727 48.5059 41.9727H104.082C117.708 41.9727 127.757 45.8919 134.229 53.7305C137.829 58.0599 139.629 63.597 139.629 70.3418C139.629 77.041 136.553 82.8971 130.4 87.9102C139.15 92.6042 143.525 99.8958 143.525 109.785C143.525 119.674 140.016 127.194 132.998 132.344C126.025 137.448 117.458 140 107.295 140H48.5059C46.7285 140 45.2018 139.385 43.9258 138.154C42.6497 136.878 42.0117 135.352 42.0117 133.574V48.4668ZM67.7832 121.543H106.885C110.394 121.543 113.083 120.495 114.951 118.398C116.82 116.302 117.754 113.431 117.754 109.785C117.754 106.139 116.82 103.268 114.951 101.172C113.083 99.0755 110.394 98.0273 106.885 98.0273H67.7832V121.543ZM67.7832 80.0488H104.355C107.227 80.0488 109.528 79.2057 111.26 77.5195C112.992 75.7878 113.857 73.3952 113.857 70.3418C113.857 67.2428 112.992 64.8275 111.26 63.0957C109.528 61.3639 107.227 60.498 104.355 60.498H67.7832V80.0488Z" fill="#C9C9C9" stroke="black" stroke-width="3" />
  </g>
  <g id="wk" fill="none" transform="scale(0.2222222222222222 0.2222222222222222)">
    <path d="M145.576 136.992C145.576 138.997 144.391 140 142.021 140H126.367C124.59 140 122.676 139.385 120.625 138.154C118.574 136.878 116.979 135.352 115.84 133.574L103.809 114.502C100.938 109.854 98.0436 106.367 95.127 104.043C92.2103 101.673 88.7012 100.488 84.5996 100.488H69.9023V133.711C69.9023 135.488 69.2643 136.992 67.9883 138.223C66.7578 139.408 65.2539 140 63.4766 140H50.625C48.8477 140 47.321 139.362 46.0449 138.086C44.7689 136.764 44.1309 135.215 44.1309 133.438V48.4668C44.1309 46.6895 44.7689 45.14 46.0449 43.8184C47.321 42.4967 48.8477 41.8359 50.625 41.8359H63.4766C65.2539 41.8359 66.7578 42.4967 67.9883 43.8184C69.2643 45.14 69.9023 46.6895 69.9023 48.4668V81.2109H84.5996C88.61 81.2109 92.1191 80.1172 95.127 77.9297C98.1803 75.7422 101.074 72.2103 103.809 67.334L114.404 48.4668C116.82 44.0918 120.101 41.8815 124.248 41.8359H140.039C142.227 41.8359 143.32 42.793 143.32 44.707C143.32 45.7552 142.933 47.0085 142.158 48.4668L127.324 75.332C125.182 79.2513 122.767 82.487 120.078 85.0391C117.435 87.5911 113.971 89.3913 109.688 90.4395C112.695 91.0775 115.771 92.9688 118.916 96.1133C122.106 99.2578 124.909 102.676 127.324 106.367L144.414 133.574C145.189 134.896 145.576 136.035 145.576 136.992Z" fill="#C9C9C9" stroke="black" stroke-width="3" />
  </g>
  <g id="wn" fill="none" transform="scale(0.2222222222222222 0.2222222222222222)">
    <path d="M39.0723 133.574V48.4668C39.0723 46.6895 39.6875 45.1628 40.918 43.8867C42.1484 42.6107 43.6523 41.9727 45.4297 41.9727H65.5273C67.1224 41.9727 68.8086 42.6107 70.5859 43.8867C72.3633 45.1628 73.8216 46.6895 74.9609 48.4668L116.25 111.973V48.3301C116.25 46.5527 116.865 45.0488 118.096 43.8184C119.372 42.5879 120.898 41.9727 122.676 41.9727H134.434C136.211 41.9727 137.715 42.5879 138.945 43.8184C140.221 45.0488 140.859 46.5983 140.859 48.4668V133.574C140.859 135.352 140.221 136.878 138.945 138.154C137.715 139.385 136.211 140 134.434 140H111.738C109.961 140 108.138 139.385 106.27 138.154C104.401 136.878 102.92 135.352 101.826 133.574L64.0234 74.9219V133.574C64.0234 135.352 63.3854 136.878 62.1094 138.154C60.8789 139.385 59.375 140 57.5977 140H45.5664C43.7891 140 42.2624 139.385 40.9863 138.154C39.7103 136.878 39.0723 135.352 39.0723 133.574Z" fill="#C9C9C9" stroke="black" stroke-width="3" />
  </g>
  <g id="wp" fill="none" transform="scale(0.2222222222222222 0.2222222222222222)">
    <path opacity="0.988" d="M90 129C111.539 129 129 111.539 129 90C129 68.4609 111.539 51 90 51C68.4609 51 51 68.4609 51 90C51 111.539 68.4609 129 90 129Z" fill="#C9C9C9" stroke="black" stroke-width="3" stroke-linejoin="round" />
  </g>
  <g id="wq" fill="none" transform="scale(0.2222222222222222 0.2222222222222222)">
    <path d="M35.0391 90.3027C35.0391 72.9395 39.7103 60.2018 49.0527 52.0898C58.3952 43.9779 72.1126 39.9219 90.2051 39.9219C108.343 39.9219 122.015 43.7728 131.221 51.4746C140.472 59.1764 145.098 71.6406 145.098 88.8672C145.098 97.9818 143.32 105.41 139.766 111.152C137.259 115.299 134.57 118.991 131.699 122.227H142.568C144.437 122.227 145.986 122.865 147.217 124.141C148.447 125.371 149.062 126.875 149.062 128.652V134.258C149.062 136.035 148.447 137.562 147.217 138.838C145.986 140.068 144.437 140.684 142.568 140.684H90.0684C72.0671 140.684 58.3952 136.628 49.0527 128.516C39.7103 120.404 35.0391 107.666 35.0391 90.3027ZM90.0684 122.227C109.574 122.227 119.326 111.107 119.326 88.8672C119.326 78.5221 117.025 70.8659 112.422 65.8984C107.819 60.8854 100.391 58.3789 90.1367 58.3789C79.9284 58.3789 72.4772 61.0905 67.7832 66.5137C63.1348 71.9368 60.8105 79.8665 60.8105 90.3027C60.8105 100.739 63.1348 108.669 67.7832 114.092C72.4772 119.515 79.9056 122.227 90.0684 122.227Z" fill="#C9C9C9" stroke="black" stroke-width="3" />
  </g>
  <g id="wr" fill="none" transform="scale(0.2222222222222222 0.2222222222222222)">
    <path d="M144.961 137.061C144.961 139.02 143.799 140 141.475 140H125.068C123.337 140 121.423 139.385 119.326 138.154C117.275 136.878 115.703 135.352 114.609 133.574L102.988 115.391C98.2031 107.917 92.4154 104.18 85.625 104.18H68.9453V133.574C68.9453 135.352 68.3073 136.878 67.0312 138.154C65.8008 139.385 64.2969 140 62.5195 140H49.668C47.8906 140 46.3639 139.385 45.0879 138.154C43.8118 136.878 43.1738 135.352 43.1738 133.574V48.4668C43.1738 46.6895 43.7891 45.1628 45.0195 43.8867C46.25 42.6107 47.7539 41.9727 49.5312 41.9727H105.928C116.364 41.9727 124.909 44.7754 131.562 50.3809C138.262 55.9863 141.611 63.5514 141.611 73.0762C141.611 86.3379 133.021 94.6549 115.84 98.0273C118.574 99.0299 121.104 100.762 123.428 103.223C125.752 105.638 128.418 109.17 131.426 113.818L143.867 133.574C144.596 134.85 144.961 136.012 144.961 137.061ZM68.9453 84.834H98.0664C102.76 84.834 106.885 83.8997 110.439 82.0312C114.04 80.1628 115.84 77.1777 115.84 73.0762C115.84 68.9746 114.04 65.9896 110.439 64.1211C106.885 62.2526 102.76 61.3184 98.0664 61.3184H68.9453V84.834Z" fill="#C9C9C9" stroke="black" stroke-width="3" />
  </g>
</svg>