<svg xmlns="http://www.w3.org/2000/svg" width="40" height="40" viewbox="0.0 0.0 50.0 50.0">
  <g id="bb" transform="scale(0.8 0.8)">
    <metadata />
    <g transform="translate(500.55 -453.84)">
      <g transform="translate(-53.669 60.646)">
        <path d="m-421.88 402.13a2.8767 2.4984 0 0 0-2.8609 2.4985 2.8767 2.4984 0 0 0 0.7395 1.6676c-14.361 16.986-4.0421 26.561-4.0421 26.561h-5.0937v5.5873h11.257z" fill="#5f5955" />
        <path d="m-421.88 402.13v36.314h11.257v-5.5873h-5.0937s8.5888-7.9744-0.82063-22.277v11.215h-3.5186v-19.086a2.8767 2.4984 0 0 0-1.8242-0.5793z" fill="#504b48" />
        <path transform="scale(.26458)" d="m-1594.5 1519.9a10.873 9.4428 0 0 0-10.812 9.4434 10.873 9.4428 0 0 0 2.7949 6.3027c-54.276 64.199-15.277 100.39-15.277 100.39h-19.252v21.117h85.094v-21.117h-19.252s32.462-30.14-3.1015-84.195v42.389h-13.299v-72.137a10.873 9.4428 0 0 0-6.8945-2.1895z" fill="none" stroke="#1e1e1e" stroke-linejoin="round" stroke-width="5.6693" />
      </g>
      <path d="m-475.55 493.51h6.164" fill="none" stroke="#1e1e1e" stroke-width="1.5" />
    </g>
  </g>
  <g id="bk" transform="scale(0.8 0.8)">
    <metadata />
    <g transform="translate(434.74 -454.38)">
      <g transform="matrix(2.076 0 0 2.0539 -3013.2 1242.4)" stroke-width=".72641">
        <path transform="matrix(.12745 0 0 .12882 668.63 -133.76)" d="m4576.6-1912.7 5.0176 18.682-20.699-5.5313v37.953l19.771-5.2851-38.736 23.766 26.625 53.316h-17.25v21.059h42.205v-143.96z" fill="#5f5955" />
        <path transform="matrix(.12745 0 0 .12882 668.63 -133.76)" d="m4593.5-1912.7v143.96h42.205v-21.059h-17.25l26.627-53.316-38.738-23.766 19.774 5.2851v-37.953l-20.699 5.5313 5.0175-18.682z" fill="#504b48" />
        <path transform="scale(.26458)" d="m4714.9-1402.9 12.825 25.957h-8.3096v10.256h40.658v-10.256h-8.3076l12.825-25.957h-24.846z" fill="none" stroke="#1e1e1e" stroke-linecap="round" stroke-linejoin="round" stroke-width="2.7455" />
        <path d="m1251.9-380.16 0.6398 2.4066-2.6381-0.71263v4.8891l2.5198-0.68056-4.9367 3.0613h13.148l-4.9372-3.0613 2.5203 0.68056v-4.8891l-2.6381 0.71263 0.6393-2.4066h-2.158z" fill="none" stroke="#1e1e1e" stroke-linecap="round" stroke-linejoin="round" stroke-width=".72641" />
      </g>
      <path d="m-409.74 494.06 6.4146-5e-4" fill="none" stroke="#1e1e1e" stroke-width="1.5" />
    </g>
  </g>
  <g id="bn" transform="scale(0.8 0.8)">
    <metadata />
    <g transform="translate(577.85 -442.27)">
      <g transform="translate(-59.692 -74.286)">
        <g transform="translate(14.78 15.903)">
          <g transform="matrix(2.0852 0 0 2.0602 -3037.1 1290.9)">
            <g transform="matrix(.7525 0 0 .7525 262.22 -90.214)" stroke-width=".96173">
              <path transform="matrix(.16862 0 0 .17066 549.3 -58.814)" d="m4224.4-1897.9c0 9e-4 0.3731 11.006 0.3731 11.006l-36.061 41.883c7.8885 12.29 5.6084 11.191 18.891 14.045 8.7219-8.6758 17.269-13.365 27.139-12.236 0.7064 8.0693-40.41 30.101-27.363 53.355h31.447v-17.022c8.2167-2.4915 54.028-57.641-1.0976-79.438 0 0-10.871-10.052-13.328-11.596zm14.426 108.05h-42.391v21.123h42.391z" fill="#5f5955" />
              <path transform="matrix(.16862 0 0 .17066 549.3 -58.814)" d="m4224.4-1897.9c2.4576 1.5437 13.326 11.596 13.326 11.596 55.126 21.796 9.3163 76.946 1.0996 79.438v38.144h42.391v-21.123h-8.0586l-5.8555-25.022s33.303-63.31-26.94-75.854c0 0-6.6295-6.3293-15.963-7.1797z" fill="#504b48" />
            </g>
            <path transform="scale(.26458)" d="m4579.3-1429.4v0l0.1777 5.3418-17.295 20.328c1.7182 5.0487 2.1789 4.9372 9.0606 6.8184 4.2464-5.9847 11.268-5.0102 13.016-5.9395 0.3402 3.9168-19.38 14.609-13.123 25.896h-5.246v10.254h40.658v-10.254h-3.8653l-2.8066-12.144s15.971-30.73-12.92-36.818c0 0-3.1802-3.0717-7.6563-3.4843z" fill="none" stroke="#1e1e1e" stroke-linecap="round" stroke-linejoin="round" stroke-width="2.7353" />
          </g>
          <path d="m-515.23 540.31h8.3218" fill="none" stroke="#1e1e1e" stroke-width="1.5" />
        </g>
      </g>
      <path d="m-552.91 467.81c0.25891-0.10031 2.265-1.8977 2.265-1.8977" fill="none" stroke="#1e1e1e" stroke-linecap="round" stroke-width="1.4999" />
    </g>
  </g>
  <g id="bp" transform="scale(0.8 0.8)">
    <metadata />
    <g transform="translate(594.59 -452.99)">
      <g transform="matrix(2.0898 0 0 2.0586 -3050 1242.9)" stroke-width=".72319">
        <path transform="matrix(.12661 0 0 .12852 676.53 -134.47)" d="m4031.4-1884.7v96.219h-0.2168v21.107h42.484v-21.107h-13.436l-13.658-47.148h8.2656v-11.644h-10.881a21.084 20.77 0 0 0 8.5273-16.654 21.084 20.77 0 0 0-21.086-20.772z" fill="#504b48" style="paint-order:stroke fill markers" />
        <path transform="matrix(.12661 0 0 .12852 676.53 -134.47)" d="m4031.4-1884.7c-11.646-9e-4 -21.087 9.2993-21.086 20.772 0.01 6.5666 3.1695 12.742 8.5235 16.654h-10.877v11.644h8.2637l-13.658 47.148h-13.867v21.107h42.484l0.2168-21.107v-58.793z" fill="#5f5955" style="paint-order:stroke fill markers" />
        <path d="m1187-376.8a2.6694 2.6694 0 0 0-2.6696 2.6696 2.6694 2.6694 0 0 0 1.0785 2.1404h-1.3767v1.4966h1.0465l-1.7292 6.0596h-1.7559v2.713h10.758v-2.713h-1.7012l-1.7291-6.0596h1.0465v-1.4966h-1.3772a2.6694 2.6694 0 0 0 1.079-2.1404 2.6694 2.6694 0 0 0-2.6696-2.6696z" fill="none" stroke="#1e1e1e" stroke-linecap="round" stroke-linejoin="round" stroke-width=".72319" style="paint-order:stroke fill markers" />
      </g>
      <path d="m-569.6 492.66h7.694" fill="none" stroke="#1e1e1e" stroke-width="1.5" />
      <path d="m-572.86 477.11h6.6491" fill="none" stroke="#1e1e1e" stroke-width="1.5" />
    </g>
  </g>
  <g id="bq" transform="scale(0.8 0.8)">
    <metadata />
    <g transform="translate(470.46 -454.86)">
      <g transform="translate(-4.7414 16.367)">
        <g transform="matrix(2.139 0 0 2.0546 -3092.8 1226.7)" stroke-width=".71552">
          <path transform="matrix(.12369 0 0 .12878 1419.5 -627.82)" d="m-1452.7 1925c-8.4483-3e-4 -15.297 6.0556-15.295 13.525 0 5.1406 3.3028 9.8352 8.5157 12.113-8.3504 2.5008-26.965 13.591-29.207 32.151l-15.034-6.3736 26.775 69.736h-19.236v21.066h43.484v-103.69l-20.953 25.639 20.955-25.639v-11.48z" fill="#5f5955" />
          <path transform="matrix(.12369 0 0 .12878 687.45 -133.84)" d="m4465.8-1911v142.22h43.484v-21.066h-19.24l26.775-69.736-30.066 12.748 15.033-6.374c-1.5094-17.223-20.697-29.691-29.209-32.153 5.2129-2.2781 8.5176-6.9707 8.5176-12.111 0-7.4698-6.8467-13.528-15.295-13.527z" fill="#504b48" />
          <path transform="scale(.26458)" d="m4686-1417.2-9.7969 12.478-14.057-6.2051 12.518 33.941h-8.9961v10.254h40.66v-10.254h-8.9941l12.518-33.941-14.055 6.2051z" fill="none" stroke="#1e1e1e" stroke-linecap="round" stroke-linejoin="round" stroke-width="2.7043" />
        </g>
        <path d="m-440.72 446.13c-2.2352-1e-4 -4.0472 1.6027-4.0468 3.5791 0 1.3601 0.87336 2.6018 2.2526 3.2045-2.1677 0.72924-8.0034 4.7659-7.7277 8.507l3.977 1.6867 5.5449-6.7836 5.5444 6.7836 3.977-1.6867c0.27572-3.741-5.56-7.7777-7.7277-8.507 1.3792-0.6027 2.2531-1.8444 2.2531-3.2045 4.2e-4 -1.9764-1.8115-3.5792-4.0468-3.5791z" fill="none" stroke="#1e1e1e" stroke-linecap="round" stroke-linejoin="round" stroke-width="1.5" />
      </g>
      <path d="m-445.46 494.55 6.4146-5e-4" fill="none" stroke="#1e1e1e" stroke-width="1.5" />
    </g>
  </g>
  <g id="br" transform="scale(0.8 0.8)">
    <metadata />
    <g transform="translate(564.05 -454.02)">
      <g transform="matrix(2.0929 0 0 2.0687 -3050.3 1247.4)" stroke-width=".72088">
        <path transform="matrix(.12642 0 0 .1279 677.76 -135.41)" d="m4119.2-1892.4v11.275h-13.912v-11.078l-9.9433 0.1973v37.258h13.391l-8.3711 64.908h29.588v-102.56zm-31.797 102.56v21.211h42.549v-21.211z" fill="#5f5955" />
        <path transform="matrix(.12642 0 0 .1279 677.76 -135.41)" d="m4129.9-1892.4v102.56h29.588l-8.3731-64.908h13.391v-37.258l-9.9433-0.1973v11.078h-13.914v-11.275zm0 102.56v21.211h42.547v-21.211z" fill="#504b48" />
        <path transform="scale(.26458)" d="m4529.8-1426.6v5.4492h-5.6909v-5.3535l-5.7075 0.094v18.01h6.3984l-4 31.377h-6.1934v10.254h40.658v-10.254h-6.1914l-4-31.377h6.3985v-18.01l-5.7076-0.094v5.3535h-5.6909v-5.4492h-5.1367z" fill="none" stroke="#1e1e1e" stroke-linecap="round" stroke-linejoin="round" stroke-width="2.7246" />
      </g>
      <path d="m-538.92 493.66 7.5634-5e-4" fill="none" stroke="#1e1e1e" stroke-width="1.5" />
      <path d="m-544.66 476.49h11.226" fill="none" stroke="#1e1e1e" stroke-width="1.5" />
    </g>
  </g>
  <g id="wb" transform="scale(0.8 0.8)">
    <metadata />
    <g transform="translate(503.39 -500.59)">
      <g transform="translate(-56.501 107.39)">
        <path d="m-421.88 402.13a2.8767 2.4984 0 0 0-2.8609 2.4985 2.8767 2.4984 0 0 0 0.7395 1.6676c-14.361 16.986-4.0421 26.561-4.0421 26.561h-5.0937v5.5873h11.257z" fill="#f0f0f0" />
        <path d="m-421.88 402.13v36.314h11.257v-5.5873h-5.0937s8.5888-7.9744-0.82063-22.277v11.215h-3.5186v-19.086a2.8767 2.4984 0 0 0-1.8242-0.5793z" fill="#c5c5c5" />
        <path transform="scale(.26458)" d="m-1594.5 1519.9a10.873 9.4428 0 0 0-10.812 9.4434 10.873 9.4428 0 0 0 2.7949 6.3027c-54.276 64.199-15.277 100.39-15.277 100.39h-19.252v21.117h85.094v-21.117h-19.252s32.462-30.14-3.1015-84.195v42.389h-13.299v-72.137a10.873 9.4428 0 0 0-6.8945-2.1895z" fill="none" stroke="#323232" stroke-linejoin="round" stroke-width="5.6693" />
      </g>
      <path d="m-484.55 540.25h6.164" fill="none" stroke="#323232" stroke-width="1.5" />
    </g>
  </g>
  <g id="wk" transform="scale(0.8 0.8)">
    <metadata />
    <g transform="translate(435.9 -500.18)">
      <g transform="matrix(2.076 0 0 2.0539 -3014.4 1288.2)" stroke-width=".72641">
        <path transform="matrix(.12745 0 0 .12882 668.63 -133.76)" d="m4576.6-1912.7 5.0176 18.682-20.699-5.5313v37.953l19.771-5.2851-38.736 23.766 26.625 53.316h-17.25v21.059h42.205v-143.96z" fill="#f0f0f0" />
        <path transform="matrix(.12745 0 0 .12882 668.63 -133.76)" d="m4593.5-1912.7v143.96h42.205v-21.059h-17.25l26.627-53.316-38.738-23.766 19.774 5.2851v-37.953l-20.699 5.5313 5.0175-18.682z" fill="#c5c5c5" />
        <path transform="scale(.26458)" d="m4714.9-1402.9 12.825 25.957h-8.3096v10.256h40.658v-10.256h-8.3076l12.825-25.957h-24.846z" fill="none" stroke="#323232" stroke-linecap="round" stroke-linejoin="round" stroke-width="2.7455" />
        <path d="m1251.9-380.16 0.6398 2.4066-2.6381-0.71263v4.8891l2.5198-0.68056-4.9367 3.0613h13.148l-4.9372-3.0613 2.5203 0.68056v-4.8891l-2.6381 0.71263 0.6393-2.4066h-2.158z" fill="none" stroke="#323232" stroke-linecap="round" stroke-linejoin="round" stroke-width=".72641" />
      </g>
      <path d="m-417.5 539.87h6.6029" fill="none" stroke="#323232" stroke-width="1.5" />
    </g>
  </g>
  <g id="wn" transform="scale(0.8 0.8)">
    <metadata />
    <g transform="translate(576.74 -484.36)">
      <g transform="translate(-58.586 -32.19)">
        <g transform="translate(14.78 15.903)">
          <g transform="matrix(2.0852 0 0 2.0602 -3037.1 1290.9)">
            <g transform="matrix(.7525 0 0 .7525 262.22 -90.214)" stroke-width=".96173">
              <path transform="matrix(.16862 0 0 .17066 549.3 -58.814)" d="m4224.4-1897.9c0 9e-4 0.3731 11.006 0.3731 11.006l-36.061 41.883c7.8885 12.29 5.6084 11.191 18.891 14.045 8.7219-8.6758 17.269-13.365 27.139-12.236 0.7064 8.0693-40.41 30.101-27.363 53.355h31.447v-17.022c8.2167-2.4915 54.028-57.641-1.0976-79.438 0 0-10.871-10.052-13.328-11.596zm14.426 108.05h-42.391v21.123h42.391z" fill="#f0f0f0" />
              <path transform="matrix(.16862 0 0 .17066 549.3 -58.814)" d="m4224.4-1897.9c2.4576 1.5437 13.326 11.596 13.326 11.596 55.126 21.796 9.3163 76.946 1.0996 79.438v38.144h42.391v-21.123h-8.0586l-5.8555-25.022s33.303-63.31-26.94-75.854c0 0-6.6295-6.3293-15.963-7.1797z" fill="#c5c5c5" />
            </g>
            <path transform="scale(.26458)" d="m4579.3-1429.4v0l0.1777 5.3418-17.295 20.328c1.7182 5.0487 2.1789 4.9372 9.0606 6.8184 4.2464-5.9847 11.268-5.0102 13.016-5.9395 0.3402 3.9168-19.38 14.609-13.123 25.896h-5.246v10.254h40.658v-10.254h-3.8653l-2.8066-12.144s15.971-30.73-12.92-36.818c0 0-3.1802-3.0717-7.6563-3.4843z" fill="none" stroke="#323232" stroke-linecap="round" stroke-linejoin="round" stroke-width="2.7353" />
          </g>
          <path d="m-515.23 540.31h8.3218" fill="none" stroke="#323232" stroke-width="1.5" />
        </g>
      </g>
      <path d="m-551.8 509.91c0.25891-0.10031 2.265-1.8977 2.265-1.8977" fill="none" stroke="#323232" stroke-linecap="round" stroke-width="1.4999" />
    </g>
  </g>
  <g id="wp" transform="scale(0.8 0.8)">
    <metadata />
    <g transform="translate(595.64 -502.32)">
      <g transform="matrix(2.0898 0 0 2.0586 -3051.1 1292.2)" stroke-width=".72319">
        <path transform="matrix(.12661 0 0 .12852 676.53 -134.47)" d="m4031.4-1884.7v96.219h-0.2168v21.107h42.484v-21.107h-13.436l-13.658-47.148h8.2656v-11.644h-10.881a21.084 20.77 0 0 0 8.5273-16.654 21.084 20.77 0 0 0-21.086-20.772z" fill="#c5c5c5" style="paint-order:stroke fill markers" />
        <path transform="matrix(.12661 0 0 .12852 676.53 -134.47)" d="m4031.4-1884.7c-11.646-9e-4 -21.087 9.2993-21.086 20.772 0.01 6.5666 3.1695 12.742 8.5235 16.654h-10.877v11.644h8.2637l-13.658 47.148h-13.867v21.107h42.701v-79.9z" fill="#f0f0f0" style="paint-order:stroke fill markers" />
        <path d="m1187-376.8a2.6694 2.6694 0 0 0-2.6696 2.6696 2.6694 2.6694 0 0 0 1.0785 2.1404h-1.3767v1.4966h1.0465l-1.7292 6.0596h-1.7559v2.713h10.758v-2.713h-1.7012l-1.7291-6.0596h1.0465v-1.4966h-1.3772a2.6694 2.6694 0 0 0 1.079-2.1404 2.6694 2.6694 0 0 0-2.6696-2.6696z" fill="none" stroke="#323232" stroke-linecap="round" stroke-linejoin="round" stroke-width=".72319" style="paint-order:stroke fill markers" />
      </g>
      <path d="m-573.9 526.44h6.6491" fill="none" stroke="#323232" stroke-width="1.5" />
      <path d="m-578.21 541.99h7.5634" fill="none" stroke="#323232" stroke-width="1.5" />
    </g>
  </g>
  <g id="wq" transform="scale(0.8 0.8)">
    <metadata />
    <g transform="translate(468.4 -499.37)">
      <g transform="translate(-2.6775 60.872)">
        <g transform="matrix(2.139 0 0 2.0546 -3092.8 1226.7)" stroke-width=".71552">
          <path transform="matrix(.12369 0 0 .12878 1419.5 -627.82)" d="m-1452.7 1925c-8.4483-3e-4 -15.297 6.0556-15.295 13.525 0 5.1406 3.3028 9.8352 8.5157 12.113-8.3504 2.5008-26.965 13.591-29.207 32.151l-15.034-6.3736 26.775 69.736h-19.236v21.066h43.484v-103.69l-20.953 25.639 20.955-25.639v-11.48z" fill="#f0f0f0" />
          <path transform="matrix(.12369 0 0 .12878 687.45 -133.84)" d="m4465.8-1911v142.22h43.484v-21.066h-19.24l26.775-69.736-30.066 12.748 15.033-6.374c-1.5094-17.223-20.697-29.691-29.209-32.153 5.2129-2.2781 8.5176-6.9707 8.5176-12.111 0-7.4698-6.8467-13.528-15.295-13.527z" fill="#c5c5c5" />
          <path transform="scale(.26458)" d="m4686-1417.2-9.7969 12.478-14.057-6.2051 12.518 33.941h-8.9961v10.254h40.66v-10.254h-8.9941l12.518-33.941-14.055 6.2051z" fill="none" stroke="#323232" stroke-linecap="round" stroke-linejoin="round" stroke-width="2.7043" />
        </g>
        <path d="m-440.72 446.13c-2.2352-1e-4 -4.0472 1.6027-4.0468 3.5791 0 1.3601 0.87336 2.6018 2.2526 3.2045-2.1677 0.72924-8.0034 4.7659-7.7277 8.507l3.977 1.6867 5.5449-6.7836 5.5444 6.7836 3.977-1.6867c0.27572-3.741-5.56-7.7777-7.7277-8.507 1.3792-0.6027 2.2531-1.8444 2.2531-3.2045 4.2e-4 -1.9764-1.8115-3.5792-4.0468-3.5791z" fill="none" stroke="#323232" stroke-linecap="round" stroke-linejoin="round" stroke-width="1.5" />
      </g>
      <path d="m-449.82 539.06h6.4156" fill="none" stroke="#323232" stroke-width="1.5" />
    </g>
  </g>
  <g id="wr" transform="scale(0.8 0.8)">
    <metadata />
    <g transform="translate(563.85 -500.68)">
      <g transform="matrix(2.0929 0 0 2.0687 -3050.1 1294)" stroke-width=".72088">
        <path transform="matrix(.12642 0 0 .1279 677.76 -135.41)" d="m4119.2-1892.4v11.275h-13.912v-11.078l-9.9433 0.1973v37.258h13.391l-8.3711 64.908h29.588v-102.56zm-31.797 102.56v21.211h42.549v-21.211z" fill="#f0f0f0" />
        <path transform="matrix(.12642 0 0 .1279 677.76 -135.41)" d="m4129.9-1892.4v102.56h29.588l-8.3731-64.908h13.391v-37.258l-9.9433-0.1973v11.078h-13.914v-11.275zm0 102.56v21.211h42.547v-21.211z" fill="#c5c5c5" />
        <path transform="scale(.26458)" d="m4529.8-1426.6v5.4492h-5.6909v-5.3535l-5.7075 0.094v18.01h6.3984l-4 31.377h-6.1934v10.254h40.658v-10.254h-6.1914l-4-31.377h6.3985v-18.01l-5.7076-0.094v5.3535h-5.6909v-5.4492h-5.1367z" fill="none" stroke="#323232" stroke-linecap="round" stroke-linejoin="round" stroke-width="2.7246" />
      </g>
      <path d="m-546.55 540.32 7.6959 5e-4" fill="none" stroke="#323232" stroke-width="1.5" />
      <path d="m-544.47 523.15 11.227-4.2e-4" fill="none" stroke="#323232" stroke-width="1.5" />
    </g>
  </g>
</svg>