<svg xmlns="http://www.w3.org/2000/svg" width="40" height="40" viewbox="0.0 0.0 50.0 50.0">
  <g id="bb" fill="none" transform="scale(0.8 0.8)">
    <path d="M28.3884 9.05761C27.599 8.65607 26.5871 8.42574 25.5137 8.40197L25.5075 8.39969L25.3299 8.3997C24.1889 8.39978 23.1063 8.63293 22.2722 9.05727C21.4931 9.45367 20.647 10.1824 20.647 11.2735V11.5422L21.8367 13.5965C15.2376 19.5594 13.2551 25.3921 13.2118 30.1412C13.1777 33.876 14.3436 36.8465 15.2436 38.5782C14.5672 38.7724 13.9471 39.0155 13.4706 39.3268C12.5646 39.9187 11.8729 40.5823 11.4982 41.5742C11.1439 42.5124 11.1236 43.6216 11.236 44.9825L11.3118 45.9001H38.6894L38.7652 44.9824C38.8776 43.6216 38.8573 42.5123 38.5029 41.5742C38.1283 40.5823 37.4366 39.9187 36.5306 39.3268C36.188 39.103 35.773 38.9171 35.3231 38.7602C36.86 35.8842 39.3778 29.1429 34.989 21.1509L34.2006 19.7151L29.0668 27.3168L26.8044 25.8746L32.4991 17.4418L32.0086 16.8636C31.0907 15.7816 30.0348 14.6906 28.8239 13.5962L30.0136 11.5425L30.0136 11.2738C30.0137 10.1826 29.1675 9.45394 28.3884 9.05761Z" fill="#222222" />
    <path d="M21.6466 11.2738C21.6466 10.2388 23.2956 9.40002 25.33 9.40002C27.3645 9.40032 29.0135 10.2387 29.0135 11.2737L27.5481 13.8029C28.9868 15.0504 30.2095 16.2893 31.2455 17.5105L25.8365 25.5205C25.5951 25.878 25.6969 26.3544 26.0648 26.5889L28.6863 28.2604C29.0542 28.4949 29.5444 28.396 29.7858 28.0386L34.112 21.6321C38.9866 30.5093 34.8619 37.7576 33.8044 39.3659C34.7103 39.5746 35.4814 39.8362 35.9834 40.1642C37.6061 41.2243 37.989 42.2281 37.7683 44.9004H12.2323C12.0115 42.2281 12.3943 41.2244 14.017 40.1642C14.6232 39.7682 15.6215 39.469 16.7757 39.2428C15.2699 36.8857 9.35003 25.7367 23.1119 13.8031L21.6466 11.2738Z" fill="url(#bbpaint0_linear_4_521)" />
    <path opacity="0.5" fill-rule="evenodd" clip-rule="evenodd" d="M15.473 34.212C15.2613 34.182 12.7004 24.9281 21.5677 16.372C19.3438 18.1805 14.1389 28.879 15.473 34.212V34.212Z" fill="url(#bbpaint1_linear_4_521)" />
    <path opacity="0.5" fill-rule="evenodd" clip-rule="evenodd" d="M24.048 13.989L22.4357 11.1365C22.4357 11.1365 22.6837 10.6486 24.0728 10.2766C24.0648 10.2936 23.0062 11.1861 23.0062 11.1861L24.048 13.989Z" fill="url(#bbpaint2_linear_4_521)" />
    <path opacity="0.5" fill-rule="evenodd" clip-rule="evenodd" d="M23.572 39.124C20.3386 39.1577 17.7862 39.5051 15.8453 40.0717C21.9921 39.634 28.1013 39.5748 34.1543 40.0717C31.9362 39.4242 28.919 39.063 24.9998 39.1292C24.5099 39.1212 24.0339 39.1192 23.572 39.1242V39.124Z" fill="url(#bbpaint3_linear_4_521)" />
    <g opacity="0.3">
      <path d="M23.2058 9.7636C23.805 9.5489 24.5343 9.4215 25.323 9.4215C27.3574 9.4218 29.0067 10.2603 29.0066 11.2953L27.5416 13.8244C28.9802 15.0718 30.203 16.3109 31.239 17.5321C27.939 22.4187 25.699 25.9658 25.699 25.9658C25.699 25.9658 25.2828 25.1834 28.8156 17.3193L25.6794 13.9156C26.5078 12.8297 27.5909 11.1751 27.5909 11.1751C27.5909 11.1751 25.6546 10.2182 23.2058 9.7636Z" fill="#01002D" />
      <path d="M32.756 23.6505L34.1054 21.6535C38.9603 30.4938 34.8888 37.7201 33.8109 39.3674C32.6501 39.0996 31.267 38.9188 29.9447 38.7969C31.3745 36.4841 34.6761 30.1609 32.756 23.6505Z" fill="#01002D" />
    </g>
    <defs>
      <linearGradient id="bbpaint0_linear_4_521" x1="11.574" y1="42.52" x2="38.4256" y2="42.52" gradientUnits="userSpaceOnUse">
        <stop stop-color="#78375A" />
        <stop offset="1" stop-color="#3F3B51" />
      </linearGradient>
      <linearGradient id="bbpaint1_linear_4_521" x1="14.97" y1="25.3" x2="21.57" y2="25.3" gradientUnits="userSpaceOnUse">
        <stop stop-color="white" />
        <stop offset="1" stop-color="white" stop-opacity="0" />
      </linearGradient>
      <linearGradient id="bbpaint2_linear_4_521" x1="22.43" y1="12.1" x2="24.07" y2="12.1" gradientUnits="userSpaceOnUse">
        <stop stop-color="white" />
        <stop offset="1" stop-color="white" stop-opacity="0" />
      </linearGradient>
      <linearGradient id="bbpaint3_linear_4_521" x1="14.5009" y1="39.8342" x2="35.4292" y2="39.8342" gradientUnits="userSpaceOnUse">
        <stop stop-color="white" />
        <stop offset="1" stop-color="white" stop-opacity="0" />
      </linearGradient>
    </defs>
  </g>
  <g id="bk" fill="none" transform="scale(0.8 0.8)">
    <path fill-rule="evenodd" clip-rule="evenodd" d="M25.0139 6.00049C25.7204 6.00374 26.4931 6.25745 27.0988 6.64529C27.6717 7.01208 28.3767 7.69154 28.3767 8.66707V11.4731H32.4623C33.4556 11.3963 34.1845 12.0586 34.5823 12.6142C35.0058 13.206 35.2936 13.9862 35.2936 14.6911C35.2936 15.403 35.0025 16.1604 34.5771 16.7386C34.1599 17.3056 33.4511 17.9085 32.5071 17.9085H28.577L28.7369 18.7797C32.2086 19.1202 35.3442 19.9589 37.4842 21.3586C38.6435 22.1169 39.569 23.0786 40.0479 24.2721C40.5349 25.4859 40.5146 26.8268 39.9783 28.2331C39.965 28.2679 39.9498 28.3018 39.9328 28.3349L35.0627 37.7839C34.937 38.0562 34.8083 38.3166 34.6745 38.5649C35.3733 38.7613 36.0142 39.0084 36.5021 39.3272C37.4082 39.9191 38.0998 40.5826 38.4745 41.5745C38.8288 42.5127 38.8491 43.622 38.7367 44.9828C38.6939 45.5014 38.2605 45.9005 37.7401 45.9005H12.2041C11.6838 45.9005 11.2504 45.5014 11.2075 44.9828C11.0951 43.6221 11.1153 42.5128 11.4695 41.5747C11.8439 40.5828 12.5355 39.9192 13.4416 39.3272C13.9404 39.0014 14.5998 38.7505 15.3181 38.552C15.1869 38.3075 15.0604 38.0514 14.937 37.7838L10.0668 28.3348C10.0498 28.3018 10.0346 28.2678 10.0214 28.233C9.48506 26.8267 9.46475 25.4858 9.95188 24.272C10.4309 23.0785 11.3564 22.1168 12.5158 21.3585C14.656 19.9588 17.7919 19.1201 21.2637 18.7797L21.4237 17.9084H17.5385C16.5452 17.9854 15.8163 17.3233 15.4185 16.7677C14.9948 16.1761 14.707 15.3959 14.707 14.691C14.707 13.9791 14.9981 13.2216 15.4235 12.6432C15.8406 12.0761 16.5494 11.473 17.4935 11.473H21.6239V8.667C21.6239 7.69162 22.3286 7.01215 22.9015 6.64527C23.5111 6.25487 24.2897 6.0004 25 6.0004C25.0046 6.0004 25.0092 6.00043 25.0139 6.00049Z" fill="#222222" />
    <path d="M25 7C24.0103 7 22.6237 7.74337 22.6237 8.66687V12.473H17.4937C16.504 12.473 15.7073 13.767 15.7073 14.6906C15.7073 15.614 16.5105 17.014 17.4937 16.9084H22.6237L22.1101 19.7072C14.6968 20.2708 9.11578 23.0513 10.956 27.8766L15.8363 37.3452C16.1783 38.0893 16.5266 38.7066 16.9192 39.21C15.6926 39.4397 14.625 39.7487 13.989 40.1642C12.3663 41.2244 11.9835 42.2281 12.2043 44.9004H37.7403C37.961 42.2281 37.5781 41.2243 35.9554 40.1642C35.3279 39.7542 34.28 39.448 33.0739 39.2192C33.4694 38.7141 33.8198 38.0938 34.1639 37.3452L39.0442 27.8766C40.8844 23.0513 35.3033 20.2708 27.89 19.7072L27.3764 16.9084H32.507C33.4968 16.9084 34.2934 15.614 34.2934 14.6906C34.2934 13.7672 33.4902 12.3677 32.507 12.473H27.3764V8.66687C27.3764 7.74337 25.9897 7 25 7Z" fill="url(#bkpaint0_linear_4_537)" />
    <path opacity="0.5" fill-rule="evenodd" clip-rule="evenodd" d="M17.3 16.2001C17.1832 16.1641 16.4447 15.5553 16.4774 14.7571C16.51 13.9589 16.977 13.4226 17.4623 13.2706H18.2691C16.779 13.8762 16.3885 14.9419 17.3 16.2001Z" fill="url(#bkpaint1_linear_4_537)" />
    <path opacity="0.5" fill-rule="evenodd" clip-rule="evenodd" d="M16.88 38.5L11.63 27.4241C11.5282 27.2019 10.5695 24.9956 13.1617 23.0189C14.4422 22.0827 16.5116 21.2395 20.6048 20.6132C16.5396 21.5534 11.294 24.0904 12.4569 27.4076C13.6198 30.7248 16.8802 38.5005 16.8802 38.5005L16.88 38.5Z" fill="url(#bkpaint2_linear_4_537)" />
    <path opacity="0.5" fill-rule="evenodd" clip-rule="evenodd" d="M23.38 12.6001V8.63953C23.38 8.63953 23.6446 8.02766 24.7443 7.78796C23.4455 8.10106 23.3967 12.5276 23.38 12.6001V12.6001Z" fill="url(#bkpaint3_linear_4_537)" />
    <path opacity="0.5" fill-rule="evenodd" clip-rule="evenodd" d="M23.544 39.124C20.3106 39.1577 17.7582 39.5051 15.8173 40.0717C21.9641 39.634 28.0733 39.5748 34.1263 40.0717C31.9082 39.4242 28.891 39.063 24.9718 39.1292C24.4819 39.1212 24.0059 39.1192 23.544 39.1242V39.124Z" fill="url(#bkpaint4_linear_4_537)" />
    <path opacity="0.3" d="M32.8747 39.1824C33.2204 38.7087 33.5333 38.1417 33.8411 37.472L39.0389 27.9283C40.0918 19.9488 29.9083 19.7436 28.7511 19.8003C38.3159 22.5544 36.378 26.285 32.9267 32.9294C32.2087 34.3117 31.4252 35.8201 30.6661 37.472C30.437 37.9706 30.205 38.4122 29.9587 38.8008C30.9373 38.8918 31.9474 39.0152 32.8747 39.1824Z" fill="#01002D" />
    <defs>
      <linearGradient id="bkpaint0_linear_4_537" x1="11.546" y1="42.52" x2="38.3976" y2="42.52" gradientUnits="userSpaceOnUse">
        <stop stop-color="#78375A" />
        <stop offset="1" stop-color="#3F3B51" />
      </linearGradient>
      <linearGradient id="bkpaint1_linear_4_537" x1="16.48" y1="14.7001" x2="18.27" y2="14.7001" gradientUnits="userSpaceOnUse">
        <stop stop-color="white" />
        <stop offset="1" stop-color="white" stop-opacity="0" />
      </linearGradient>
      <linearGradient id="bkpaint2_linear_4_537" x1="11.37" y1="29.6" x2="20.6" y2="29.6" gradientUnits="userSpaceOnUse">
        <stop stop-color="white" />
        <stop offset="1" stop-color="white" stop-opacity="0" />
      </linearGradient>
      <linearGradient id="bkpaint3_linear_4_537" x1="23.38" y1="10.2001" x2="24.74" y2="10.2001" gradientUnits="userSpaceOnUse">
        <stop stop-color="white" />
        <stop offset="1" stop-color="white" stop-opacity="0" />
      </linearGradient>
      <linearGradient id="bkpaint4_linear_4_537" x1="14.5009" y1="39.8342" x2="35.4292" y2="39.8342" gradientUnits="userSpaceOnUse">
        <stop stop-color="white" />
        <stop offset="1" stop-color="white" stop-opacity="0" />
      </linearGradient>
    </defs>
  </g>
  <g id="bn" fill="none" transform="scale(0.8 0.8)">
    <path d="M15.1714 29.8468C15.239 29.8397 15.2944 29.8321 15.3364 29.8256C15.5061 29.791 15.7491 29.6978 15.8795 29.5839C17.0899 28.5267 18.2142 28.0877 19.4921 27.7389C19.8098 27.6522 20.1481 27.5691 20.5048 27.4815C21.0881 27.3383 21.7204 27.183 22.3916 26.9801C22.2895 27.114 22.1703 27.2587 22.0329 27.4147C21.4126 28.1188 20.5811 28.8812 19.647 29.7376C19.2863 30.0683 18.9102 30.4131 18.5251 30.7739C17.1911 32.024 15.7837 33.439 14.8482 34.946C14.0637 36.2098 13.5488 37.6431 13.7776 39.1504C13.6711 39.2072 13.5681 39.2675 13.4702 39.3315C12.5642 39.9235 11.8725 40.587 11.4979 41.5789C11.1435 42.517 11.1232 43.6263 11.2356 44.9871C11.2785 45.5057 11.7119 45.9048 12.2322 45.9048H37.7682C38.2886 45.9048 38.722 45.5057 38.7648 44.9871C38.8772 43.6263 38.8569 42.517 38.5025 41.5788C38.1279 40.587 37.4363 39.9234 36.5303 39.3315C36.4516 39.2801 36.3706 39.2325 36.2903 39.1885C35.2874 37.4727 35.1391 35.4628 35.3424 33.165C35.4425 32.0334 35.6233 30.8717 35.8113 29.6643L35.8442 29.4527C36.0416 28.1831 36.2413 26.8662 36.336 25.5596C36.5256 22.9441 36.3061 20.2406 34.7216 17.7976C33.1665 15.3998 30.4011 13.4117 25.8565 11.9285C25.7991 11.869 25.73 11.7998 25.6497 11.7228C25.3972 11.4805 25.0302 11.1587 24.5621 10.829C23.6324 10.1744 22.2586 9.45757 20.5619 9.32083C20.1372 9.2866 19.7374 9.52525 19.566 9.91535C19.4983 10.0696 19.4721 10.2341 19.4845 10.3945C19.4908 10.5694 19.5082 11.0205 19.5268 11.5054L19.5269 11.507L19.5411 11.8788L19.5831 12.9716L8.58975 24.2482C8.28592 24.5598 8.21857 25.0322 8.42321 25.4164C9.75942 27.9248 11.433 29.0745 12.8605 29.5577C13.561 29.7948 14.1765 29.8627 14.6264 29.8694C14.8515 29.8728 15.0364 29.8608 15.1714 29.8468Z" fill="#222222" />
    <path d="M20.4821 10.3182C23.4043 10.5537 25.3 12.8001 25.3 12.8001C36.8537 16.4699 35.8229 23.0855 34.8201 29.5204C34.2371 33.2606 33.6637 36.9398 35.5765 39.944C35.7265 40.0154 35.8627 40.0904 35.9834 40.1693C37.6061 41.2294 37.989 42.2331 37.7683 44.9054H12.2323C12.0115 42.2331 12.3943 41.2295 14.017 40.1693C14.2664 40.0063 14.5821 39.8598 14.9477 39.728C13.788 36.4653 17.3208 33.227 20.2809 30.5138C22.5363 28.4463 24.4593 26.6837 23.7205 25.4472C22.4774 25.9671 21.3673 26.2398 20.3244 26.4961C18.5359 26.9355 16.9453 27.3263 15.2217 28.8317C15.2217 28.8317 11.7521 29.539 9.30591 24.9469L20.5989 13.3628L20.4821 10.3182Z" fill="url(#bnpaint0_linear_4_555)" />
    <path opacity="0.5" fill-rule="evenodd" clip-rule="evenodd" d="M24.7001 25.6001C25.741 29.1917 14.3691 33.8498 15.73 39.3981C15.73 34.0463 26.98 29.4451 24.7001 25.6001Z" fill="url(#bnpaint1_linear_4_555)" />
    <path opacity="0.5" fill-rule="evenodd" clip-rule="evenodd" d="M12.8 27.6001C12.8 27.6001 11.7454 27.4247 10.2787 25.0745L21.3068 13.7365L21.2488 11.2416C21.5173 12.1136 21.6164 12.947 22.4 13.9359L10.941 25.0179C11.3286 26.0336 12.1443 26.7635 12.7999 27.6001H12.8Z" fill="url(#bnpaint2_linear_4_555)" />
    <path opacity="0.5" fill-rule="evenodd" clip-rule="evenodd" d="M23.6 39.13C20.3666 39.1637 17.8142 39.5111 15.8733 40.0777C22.0201 39.64 28.1293 39.5809 34.1823 40.0777C31.9642 39.4302 28.947 39.0691 25.0278 39.1352C24.5379 39.1272 24.0619 39.1252 23.6 39.1302V39.13Z" fill="url(#bnpaint3_linear_4_555)" />
    <path opacity="0.1" fill-rule="evenodd" clip-rule="evenodd" d="M15.2001 28.8C17.4454 26.6729 20.8592 26.5324 23.6987 25.4155C23.9508 25.5324 23.6717 26.5983 23.7737 26.4888C24.5676 25.6336 26.4675 23.951 25.1464 20.6909C24.9621 26.3338 14.0974 25.8846 15.1996 28.8H15.2001Z" fill="url(#bnpaint4_linear_4_555)" />
    <path opacity="0.3" d="M24.5635 14.2699C23.6117 12.7136 22.0885 11.4878 20.5 10.3C23.4222 10.5355 25.3179 12.7819 25.3179 12.7819C36.8713 16.451 35.8403 23.0666 34.8374 29.5016C34.252 33.2581 33.6762 36.953 35.6188 39.9644C34.4976 39.416 32.5735 39.08 30.6685 38.8742C29.5107 35.9861 30.6403 32.7258 31.7667 29.4749C33.7878 23.6414 35.7985 17.8382 24.5635 14.2699Z" fill="#01002D" />
    <defs>
      <linearGradient id="bnpaint0_linear_4_555" x1="11.65" y1="42.52" x2="38.5016" y2="42.52" gradientUnits="userSpaceOnUse">
        <stop stop-color="#78375A" />
        <stop offset="1" stop-color="#3F3B51" />
      </linearGradient>
      <linearGradient id="bnpaint1_linear_4_555" x1="15.6001" y1="32.5001" x2="25.0001" y2="32.5001" gradientUnits="userSpaceOnUse">
        <stop stop-color="white" />
        <stop offset="1" stop-color="white" stop-opacity="0" />
      </linearGradient>
      <linearGradient id="bnpaint2_linear_4_555" x1="10.3" y1="19.4001" x2="22.4" y2="19.4001" gradientUnits="userSpaceOnUse">
        <stop stop-color="white" />
        <stop offset="1" stop-color="white" stop-opacity="0" />
      </linearGradient>
      <linearGradient id="bnpaint3_linear_4_555" x1="14.5549" y1="39.8322" x2="35.4831" y2="39.8322" gradientUnits="userSpaceOnUse">
        <stop stop-color="white" />
        <stop offset="1" stop-color="white" stop-opacity="0" />
      </linearGradient>
      <linearGradient id="bnpaint4_linear_4_555" x1="25.1001" y1="24.9" x2="15.1001" y2="25.7" gradientUnits="userSpaceOnUse">
        <stop stop-color="#BD9E9E" />
        <stop offset="1" stop-opacity="0" />
      </linearGradient>
    </defs>
  </g>
  <g id="bp" fill="none" transform="scale(0.8 0.8)">
    <path fill-rule="evenodd" clip-rule="evenodd" d="M38.4185 40.3862L38.4197 40.3867L39.1812 40.7212L37.965 45.8549H12.3496L11.1326 40.7212L11.8942 40.3867L11.8955 40.3861L11.9062 40.3813C11.917 40.3764 11.935 40.3681 11.9597 40.3565C12.009 40.3331 12.0852 40.2963 12.1847 40.2456C12.3838 40.1442 12.6755 39.9876 13.032 39.7734C13.7463 39.3441 14.7132 38.6876 15.7143 37.7848C17.516 36.1597 19.3952 33.7682 20.1548 30.4856H19.1249C17.3308 30.4856 15.7912 29.1005 15.7912 27.2728C15.7912 25.5804 17.1112 24.2674 18.7313 24.0824C17.7459 22.7904 17.1885 21.2112 17.1885 19.5528C17.1885 15.2756 20.805 11.885 25.169 11.885C29.5327 11.885 33.1497 15.2755 33.1497 19.5528C33.1497 21.2109 32.5926 22.7895 31.6078 24.0811C33.2333 24.2611 34.559 25.5766 34.559 27.2728C34.559 29.1002 33.0204 30.4856 31.2258 30.4856H30.1602C30.9198 33.7683 32.7988 36.1598 34.6003 37.7849C35.6011 38.6877 36.568 39.3442 37.2821 39.7734C37.6386 39.9877 37.9303 40.1442 38.1293 40.2456C38.2288 40.2963 38.305 40.3332 38.3543 40.3565C38.3666 40.3623 38.3773 40.3673 38.3862 40.3714C38.3951 40.3755 38.4023 40.3788 38.4077 40.3813L38.4185 40.3862Z" fill="#222222" />
    <path d="M21.1568 25.0588C19.2526 23.8177 18.1113 21.7568 18.1113 19.5517C18.1113 15.8694 21.2364 12.8842 25.0918 12.8842C28.9469 12.8842 32.0724 15.8694 32.0724 19.5517C32.0724 21.7571 30.9311 23.8177 29.0269 25.0588H31.1484C32.4412 25.0588 33.4819 26.0456 33.4819 27.2715C33.4819 28.4974 32.4412 29.4842 31.1484 29.4842H28.8745C30.0546 37.8441 37.9389 41.3004 37.9389 41.3004L37.0971 44.8538H13.0632L12.2211 41.3004C12.2211 41.3004 20.106 37.844 21.286 29.4842H19.0477C17.755 29.4842 16.7142 28.4974 16.7142 27.2715C16.7142 26.0456 17.755 25.0588 19.0477 25.0588H21.1568Z" fill="url(#bppaint0_linear_4_573)" />
    <path opacity="0.5" fill-rule="evenodd" clip-rule="evenodd" d="M19.2534 21.1271C19.2534 21.1271 17.5407 16.1991 23.1834 13.9329C19.8178 16.1532 19.2534 21.1271 19.2534 21.1271Z" fill="url(#bppaint1_linear_4_573)" />
    <path opacity="0.5" fill-rule="evenodd" clip-rule="evenodd" d="M17.5933 27.0419C17.7327 25.7944 25.2988 25.8527 25.2988 25.8527L18.9117 25.843C17.9713 25.936 17.624 26.7748 17.5887 27.0402L17.5933 27.0419Z" fill="url(#bppaint2_linear_4_573)" />
    <path opacity="0.5" fill-rule="evenodd" clip-rule="evenodd" d="M13.7543 44.2045L13.1719 41.7895C13.1719 42.1928 21.9465 36.4343 22.0495 30.2411C23.2956 37.0599 14.0698 42.1531 14.0698 42.1531L13.7543 44.2045Z" fill="url(#bppaint3_linear_4_573)" />
    <path opacity="0.3" d="M25.1067 29.4842H28.9508C30.1308 37.8448 38.0156 41.3014 38.0156 41.3014L37.1738 44.8549H33.3298L34.1716 41.3014C34.1716 41.3014 26.2867 37.8441 25.1067 29.4842Z" fill="#01002D" />
    <path opacity="0.3" fill-rule="evenodd" clip-rule="evenodd" d="M25.0641 12.9821C24.2714 12.9821 23.5101 13.1052 22.7992 13.3292C33.4751 11.2913 28.9556 24.899 24.426 24.899L28.9551 24.8994C30.9134 23.6939 32.0905 21.6617 32.0905 19.485C32.0905 15.8937 28.9448 12.9825 25.0641 12.9825V12.9821Z" fill="#01002D" />
    <defs>
      <linearGradient id="bppaint0_linear_4_573" x1="16.6044" y1="27.2651" x2="33.5978" y2="27.2651" gradientUnits="userSpaceOnUse">
        <stop stop-color="#78375A" />
        <stop offset="1" stop-color="#3F3B51" />
      </linearGradient>
      <linearGradient id="bppaint1_linear_4_573" x1="18.9422" y1="17.5394" x2="23.0926" y2="17.5394" gradientUnits="userSpaceOnUse">
        <stop stop-color="white" />
        <stop offset="1" stop-color="white" stop-opacity="0" />
      </linearGradient>
      <linearGradient id="bppaint2_linear_4_573" x1="17.4896" y1="26.4601" x2="25.2715" y2="26.4601" gradientUnits="userSpaceOnUse">
        <stop stop-color="white" />
        <stop offset="1" stop-color="white" stop-opacity="0" />
      </linearGradient>
      <linearGradient id="bppaint3_linear_4_573" x1="13.2355" y1="37.2231" x2="22.1587" y2="37.2231" gradientUnits="userSpaceOnUse">
        <stop stop-color="white" />
        <stop offset="1" stop-color="white" stop-opacity="0" />
      </linearGradient>
    </defs>
  </g>
  <g id="bq" fill="none" transform="scale(0.8 0.8)">
    <path d="M19.4024 7.70084L19.3902 7.70091C16.6464 7.70765 14.3772 9.87959 14.3774 12.6154C14.3774 14.5987 15.5899 16.3376 17.3762 17.1072V23.1849L14.7495 21.4C14.9961 20.8125 15.1255 20.18 15.1258 19.5369C15.1258 16.7961 12.8479 14.6213 10.0981 14.6214C7.34858 14.6214 5.07235 16.7965 5.07255 19.5364C5.0726 22.253 7.3111 24.4117 10.0276 24.4488L15.6027 38.4883C14.7856 38.6968 14.0274 38.9674 13.4699 39.3316C12.5639 39.9235 11.8722 40.5871 11.4976 41.579C11.1432 42.5172 11.1229 43.6264 11.2353 44.9872C11.2782 45.5058 11.7115 45.9049 12.2319 45.9049H37.7679C38.2883 45.9049 38.7217 45.5058 38.7645 44.9872C38.8769 43.6264 38.8566 42.5171 38.5022 41.5789C38.1276 40.5871 37.436 39.9235 36.53 39.3316L34.3028 38.465L39.8669 24.4488C42.5839 24.4119 44.8212 22.2527 44.8219 19.5366C44.8219 16.7965 42.5458 14.6223 39.7966 14.6213C37.047 14.6213 34.7684 16.7954 34.7686 19.5363C34.7686 20.1799 34.8982 20.8125 35.1448 21.3999L32.5176 23.185V17.1071C34.3043 16.3374 35.5142 14.5983 35.5169 12.6167V12.6153C35.5169 9.87521 33.2407 7.70133 30.4915 7.70084C27.742 7.70084 25.4639 9.87426 25.4642 12.6155C25.4643 13.9564 26.0258 15.2171 26.9828 16.1282L24.9473 21.1316L22.9107 16.1281C23.8678 15.2166 24.427 13.9561 24.4297 12.6174V12.6153C24.4297 9.87445 22.1524 7.70034 19.4024 7.70084Z" fill="#222222" />
    <path d="M15.3774 12.6154C15.3772 10.4538 17.1795 8.70068 19.4033 8.70068C21.6276 8.70028 23.4303 10.4532 23.4303 12.6154C23.4277 13.8929 22.7841 15.0891 21.7058 15.8195L24.9483 23.7848L28.189 15.8195C27.1109 15.0891 26.4646 13.8929 26.4646 12.6154C26.4643 10.4532 28.2676 8.70068 30.4919 8.70068C32.7156 8.70108 34.5176 10.4538 34.5176 12.6154C34.5152 14.3904 33.2844 15.9415 31.5186 16.3948V25.0735L36.4548 21.7191C36.0083 21.0738 35.7692 20.3139 35.7692 19.5363C35.769 17.3743 37.5722 15.6215 39.7966 15.6215C42.0204 15.6223 43.8224 17.3747 43.8224 19.5363C43.8219 21.6974 42.0198 23.4495 39.7966 23.4495C39.5989 23.4485 39.4016 23.4335 39.2061 23.4045L32.938 39.1938C34.2128 39.4256 35.3277 39.7408 35.9834 40.1693C37.6061 41.2294 37.989 42.2331 37.7683 44.9054H12.2323C12.0115 42.2331 12.3943 41.2295 14.017 40.1693C14.6562 39.7517 15.7314 39.4417 16.9657 39.2116L10.6891 23.4045C10.4935 23.4325 10.2962 23.4495 10.0984 23.4495C7.87535 23.4492 6.07263 21.6974 6.07263 19.5363C6.07243 17.3747 7.87475 15.6215 10.0984 15.6215C12.3227 15.6214 14.1258 17.3743 14.1258 19.5363C14.1254 20.3139 13.8868 21.0738 13.4402 21.7191L18.3765 25.0735V16.3948C16.611 15.9415 15.3774 14.3904 15.3774 12.6154Z" fill="url(#bqpaint0_linear_4_591)" />
    <path opacity="0.5" fill-rule="evenodd" clip-rule="evenodd" d="M7.43999 21.3199C7.43999 21.3199 5.60443 18.7237 8.68023 16.7063C8.01769 18.125 7.40719 19.517 7.43999 21.3199Z" fill="url(#bqpaint1_linear_4_591)" />
    <path opacity="0.5" fill-rule="evenodd" clip-rule="evenodd" d="M16.7 14.4199C16.7 14.4199 14.8644 11.8238 17.9402 9.8064C17.1172 10.9727 16.4017 12.4694 16.7 14.4199Z" fill="url(#bqpaint2_linear_4_591)" />
    <path opacity="0.5" fill-rule="evenodd" clip-rule="evenodd" d="M27.5 13.5199C27.5 13.5199 26.4504 10.5187 29.9628 9.42627C28.3869 10.6373 27.4653 11.8029 27.5 13.5199Z" fill="url(#bqpaint3_linear_4_591)" />
    <path opacity="0.5" fill-rule="evenodd" clip-rule="evenodd" d="M36.7 20.4199C36.758 20.4489 35.7132 17.7789 38.9456 16.5586C37.8296 17.4486 36.8766 18.0428 36.7 20.4199Z" fill="url(#bqpaint4_linear_4_591)" />
    <path opacity="0.5" fill-rule="evenodd" clip-rule="evenodd" d="M11.44 23.12L17.6908 38.7959H18.8484L11.44 23.12Z" fill="url(#bqpaint5_linear_4_591)" />
    <path opacity="0.5" fill-rule="evenodd" clip-rule="evenodd" d="M23.6 39.13C20.3666 39.1637 17.8142 39.5111 15.8733 40.0777C22.0201 39.64 28.1293 39.5809 34.1823 40.0777C31.9642 39.4302 28.947 39.0691 25.0278 39.1352C24.5379 39.1272 24.0619 39.1252 23.6 39.1302V39.13Z" fill="url(#bqpaint6_linear_4_591)" />
    <path opacity="0.3" d="M37.7061 16.1779C38.3218 15.8066 39.0452 15.5888 39.8229 15.5887C42.0467 15.5895 43.849 17.3416 43.849 19.5031C43.8485 21.6642 42.0461 23.4166 39.8229 23.4166C39.6252 23.4156 39.4283 23.4006 39.2328 23.3716L32.9503 39.196C31.3793 38.9095 29.5636 38.7498 28.0643 38.6609L38.0454 22.5035C41.0563 22.9972 44.1164 17.5188 37.7061 16.1779Z" fill="#01002D" />
    <defs>
      <linearGradient id="bqpaint0_linear_4_591" x1="11.65" y1="42.52" x2="38.5016" y2="42.52" gradientUnits="userSpaceOnUse">
        <stop stop-color="#78375A" />
        <stop offset="1" stop-color="#3F3B51" />
      </linearGradient>
      <linearGradient id="bqpaint1_linear_4_591" x1="6.89001" y1="19.0199" x2="8.68003" y2="19.0199" gradientUnits="userSpaceOnUse">
        <stop stop-color="white" />
        <stop offset="1" stop-color="white" stop-opacity="0" />
      </linearGradient>
      <linearGradient id="bqpaint2_linear_4_591" x1="16.15" y1="12.12" x2="17.94" y2="12.12" gradientUnits="userSpaceOnUse">
        <stop stop-color="white" />
        <stop offset="1" stop-color="white" stop-opacity="0" />
      </linearGradient>
      <linearGradient id="bqpaint3_linear_4_591" x1="27.35" y1="11.5199" x2="29.96" y2="11.5199" gradientUnits="userSpaceOnUse">
        <stop stop-color="white" />
        <stop offset="1" stop-color="white" stop-opacity="0" />
      </linearGradient>
      <linearGradient id="bqpaint4_linear_4_591" x1="36.59" y1="18.42" x2="38.95" y2="18.42" gradientUnits="userSpaceOnUse">
        <stop stop-color="white" />
        <stop offset="1" stop-color="white" stop-opacity="0" />
      </linearGradient>
      <linearGradient id="bqpaint5_linear_4_591" x1="11.44" y1="30.9199" x2="18.85" y2="30.9199" gradientUnits="userSpaceOnUse">
        <stop stop-color="white" />
        <stop offset="1" stop-color="white" stop-opacity="0" />
      </linearGradient>
      <linearGradient id="bqpaint6_linear_4_591" x1="14.5549" y1="39.8322" x2="35.4831" y2="39.8322" gradientUnits="userSpaceOnUse">
        <stop stop-color="white" />
        <stop offset="1" stop-color="white" stop-opacity="0" />
      </linearGradient>
    </defs>
  </g>
  <g id="br" fill="none" transform="scale(0.8 0.8)">
    <path fill-rule="evenodd" clip-rule="evenodd" d="M13.3404 10.845H19.0412V13.8174H21.2208V10.9044H28.7786V13.8174H30.9577V10.845H36.6595L36.8024 11.6754C37.7506 17.1864 36.5442 20.3607 34.8429 22.1496C34.0109 23.0244 33.1098 23.5128 32.4133 23.7825C32.3477 23.8079 32.2837 23.8315 32.2217 23.8533L35.2698 38.74C35.7336 38.8993 36.1688 39.0911 36.5303 39.3272C37.4363 39.9191 38.1279 40.5827 38.5025 41.5746C38.8569 42.5127 38.8772 43.622 38.7648 44.9828L38.689 45.9005H11.3114L11.2356 44.9828C11.1232 43.622 11.1435 42.5128 11.4979 41.5746C11.8725 40.5827 12.5642 39.9192 13.4701 39.3272C13.8314 39.0913 14.2665 38.8994 14.7301 38.7401L17.7778 23.8531C17.7157 23.8314 17.6518 23.8078 17.586 23.7823C16.8897 23.5125 15.9886 23.0241 15.1567 22.1492C13.4557 20.3602 12.2494 17.186 13.1975 11.6754L13.3404 10.845Z" fill="#222222" />
    <path d="M18.9486 23.12C18.9486 23.12 12.358 22.452 14.183 11.845H18.0413V14.8174H22.2209V11.9045H27.7787V14.8174H31.9577V11.845H35.8169C37.642 22.4526 31.0508 23.12 31.0508 23.12L34.4082 39.519C35.0518 39.6988 35.5972 39.9119 35.9834 40.1642C37.6061 41.2243 37.989 42.2281 37.7683 44.9004H12.2323C12.0115 42.2281 12.3943 41.2244 14.017 40.1642C14.403 39.912 14.9481 39.6991 15.5911 39.5193L18.9486 23.12Z" fill="url(#brpaint0_linear_4_613)" />
    <path opacity="0.5" fill-rule="evenodd" clip-rule="evenodd" d="M14.835 12.6C14.835 12.6 14.1653 17.47 15.5047 19.6694C14.4216 15.1333 15.7874 12.6114 15.7874 12.6114L14.835 12.6Z" fill="url(#brpaint1_linear_4_613)" />
    <path opacity="0.5" fill-rule="evenodd" clip-rule="evenodd" d="M22.979 15.544V12.6584L23.905 12.6684L22.979 15.544Z" fill="url(#brpaint2_linear_4_613)" />
    <path opacity="0.5" fill-rule="evenodd" clip-rule="evenodd" d="M32.726 14.635V12.5971L33.3985 12.6071L32.726 14.635Z" fill="url(#brpaint3_linear_4_613)" />
    <path opacity="0.5" fill-rule="evenodd" clip-rule="evenodd" d="M19.603 23.886L17.7555 32.7961L20.3641 23.8626L19.603 23.886Z" fill="url(#brpaint4_linear_4_613)" />
    <path opacity="0.5" fill-rule="evenodd" clip-rule="evenodd" d="M23.572 39.124C20.3386 39.1577 17.7862 39.5051 15.8454 40.0717C21.9922 39.634 28.1014 39.5748 34.1544 40.0717C31.9363 39.4242 28.9192 39.063 24.9999 39.1292C24.51 39.1212 24.0341 39.1192 23.5721 39.1242L23.572 39.124Z" fill="url(#brpaint5_linear_4_613)" />
    <path opacity="0.3" d="M20.6518 23.0391C30.4081 22.5864 36.3863 22.3091 34.789 11.845L35.8175 11.8446C37.6426 22.4522 31.0514 23.1196 31.0514 23.1196L34.5 39.5L34.2694 39.4811C33.0918 39.1672 31.6132 38.9584 30.185 38.8196C29.8425 37.0653 29.6192 35.4053 29.4127 33.8708C28.5011 27.0944 27.9185 22.7642 18.859 23.5606L18.949 23.12C19.5284 23.0912 20.0962 23.0648 20.6518 23.0391Z" fill="#01002D" />
    <defs>
      <linearGradient id="brpaint0_linear_4_613" x1="11.574" y1="42.52" x2="38.4256" y2="42.52" gradientUnits="userSpaceOnUse">
        <stop stop-color="#78375A" />
        <stop offset="1" stop-color="#3F3B51" />
      </linearGradient>
      <linearGradient id="brpaint1_linear_4_613" x1="14.6" y1="16.1" x2="15.7" y2="16.1" gradientUnits="userSpaceOnUse">
        <stop stop-color="white" />
        <stop offset="1" stop-color="white" stop-opacity="0" />
      </linearGradient>
      <linearGradient id="brpaint2_linear_4_613" x1="22.9" y1="14.1" x2="23.9" y2="14.1" gradientUnits="userSpaceOnUse">
        <stop stop-color="white" />
        <stop offset="1" stop-color="white" stop-opacity="0" />
      </linearGradient>
      <linearGradient id="brpaint3_linear_4_613" x1="32.7" y1="13.6" x2="33.4" y2="13.6" gradientUnits="userSpaceOnUse">
        <stop stop-color="white" />
        <stop offset="1" stop-color="white" stop-opacity="0" />
      </linearGradient>
      <linearGradient id="brpaint4_linear_4_613" x1="17.7" y1="28.3" x2="20.3" y2="28.3" gradientUnits="userSpaceOnUse">
        <stop stop-color="white" />
        <stop offset="1" stop-color="white" stop-opacity="0" />
      </linearGradient>
      <linearGradient id="brpaint5_linear_4_613" x1="14.5009" y1="39.8342" x2="35.4292" y2="39.8342" gradientUnits="userSpaceOnUse">
        <stop stop-color="white" />
        <stop offset="1" stop-color="white" stop-opacity="0" />
      </linearGradient>
    </defs>
  </g>
  <g id="wb" fill="none" transform="scale(0.8 0.8)">
    <path d="M28.3884 9.06291C27.599 8.66137 26.5871 8.43103 25.5137 8.40726L25.5075 8.40498L25.3299 8.405C24.1889 8.40508 23.1063 8.63822 22.2722 9.06257C21.4931 9.45896 20.647 10.1877 20.647 11.2788V11.5475L21.8367 13.6017C15.2376 19.5647 13.2551 25.3974 13.2118 30.1465C13.1777 33.8813 14.3436 36.8518 15.2436 38.5835C14.5672 38.7777 13.9471 39.0208 13.4706 39.3321C12.5646 39.924 11.8729 40.5876 11.4982 41.5795C11.1439 42.5177 11.1236 43.6269 11.236 44.9878L11.3118 45.9054H38.6894L38.7652 44.9877C38.8776 43.6269 38.8573 42.5176 38.5029 41.5795C38.1283 40.5876 37.4366 39.924 36.5306 39.3321C36.188 39.1083 35.773 38.9224 35.3231 38.7655C36.86 35.8895 39.3778 29.1482 34.989 21.1562L34.2006 19.7204L29.0668 27.3221L26.8044 25.8799L32.4991 17.4471L32.0086 16.8689C31.0907 15.7869 30.0348 14.6959 28.8239 13.6015L30.0136 11.5478L30.0136 11.2791C30.0137 10.1878 29.1675 9.45924 28.3884 9.06291Z" fill="#222222" />
    <path d="M21.6154 11.3425C21.6154 10.3075 23.2645 9.46875 25.2989 9.46875C27.3334 9.46905 28.9823 10.3074 28.9823 11.3424L27.5169 13.8716C28.9556 15.1191 30.1783 16.358 31.2143 17.5792L25.8053 25.5892C25.5639 25.9467 25.6657 26.4231 26.0336 26.6576L28.6551 28.3291C29.023 28.5636 29.5132 28.4647 29.7546 28.1073L34.0808 21.7008C38.8958 30.4694 34.9304 37.6486 33.8134 39.3731C34.7155 39.5814 35.4831 39.8424 35.9834 40.1693C37.6061 41.2294 37.989 42.2331 37.7683 44.9054H12.2323C12.0115 42.2331 12.3943 41.2295 14.017 40.1693C14.612 39.7805 15.5848 39.4851 16.7121 39.2605C15.1563 36.7974 9.41575 25.7214 23.0807 13.8718L21.6154 11.3425Z" fill="url(#wbpaint0_linear_4_529)" />
    <path fill-rule="evenodd" clip-rule="evenodd" d="M15.4501 34.27C15.2384 34.24 12.6775 24.9862 21.5448 16.4301C19.3209 18.2386 14.116 28.937 15.4501 34.27Z" fill="url(#wbpaint1_linear_4_529)" />
    <path fill-rule="evenodd" clip-rule="evenodd" d="M24.0201 14.0701L22.4078 11.2175C22.4078 11.2175 22.6559 10.7297 24.0449 10.3577C24.0369 10.3747 22.9783 11.2671 22.9783 11.2671L24.0201 14.0701Z" fill="url(#wbpaint2_linear_4_529)" />
    <path fill-rule="evenodd" clip-rule="evenodd" d="M23.6 39.13C20.3666 39.1637 17.8142 39.5111 15.8733 40.0777C22.0201 39.64 28.1293 39.5809 34.1823 40.0777C31.9642 39.4302 28.947 39.0691 25.0278 39.1352C24.5379 39.1272 24.0619 39.1252 23.6 39.1302V39.13Z" fill="url(#wbpaint3_linear_4_529)" />
    <g opacity="0.2">
      <path d="M23.1816 9.78088C23.7808 9.56618 24.5101 9.43872 25.2988 9.43872C27.3332 9.43902 28.9824 10.2776 28.9824 11.3126L27.5174 13.8417C28.956 15.0891 30.1788 16.3281 31.2148 17.5493C27.9148 22.4359 25.6748 25.983 25.6748 25.983C25.6748 25.983 25.2586 25.2006 28.7914 17.3365L25.6552 13.9329C26.4836 12.847 27.5667 11.1924 27.5667 11.1924C27.5667 11.1924 25.6304 10.2355 23.1816 9.78088Z" fill="#8E2626" />
      <path d="M32.7318 23.6677L34.0812 21.6708C38.921 30.4837 34.8897 37.6925 33.7968 39.3692C32.6342 39.1021 31.2507 38.9219 29.9289 38.8005C31.3633 36.4765 34.6481 30.1653 32.7318 23.6677Z" fill="#8E2626" />
    </g>
    <defs>
      <linearGradient id="wbpaint0_linear_4_529" x1="11.65" y1="42.52" x2="38.5016" y2="42.52" gradientUnits="userSpaceOnUse">
        <stop stop-color="#FFECDA" />
        <stop offset="1" stop-color="#D4A5A5" />
      </linearGradient>
      <linearGradient id="wbpaint1_linear_4_529" x1="14.9501" y1="25.37" x2="21.5501" y2="25.37" gradientUnits="userSpaceOnUse">
        <stop stop-color="white" />
        <stop offset="1" stop-color="white" stop-opacity="0" />
      </linearGradient>
      <linearGradient id="wbpaint2_linear_4_529" x1="22.4101" y1="12.1701" x2="24.0501" y2="12.1701" gradientUnits="userSpaceOnUse">
        <stop stop-color="white" />
        <stop offset="1" stop-color="white" stop-opacity="0" />
      </linearGradient>
      <linearGradient id="wbpaint3_linear_4_529" x1="14.5549" y1="39.8322" x2="35.4831" y2="39.8322" gradientUnits="userSpaceOnUse">
        <stop stop-color="white" />
        <stop offset="1" stop-color="white" stop-opacity="0" />
      </linearGradient>
    </defs>
  </g>
  <g id="wk" fill="none" transform="scale(0.8 0.8)">
    <path fill-rule="evenodd" clip-rule="evenodd" d="M25.0176 6.05033C25.7259 6.05209 26.5014 6.30615 27.1089 6.69514C27.6818 7.06194 28.3868 7.7414 28.3868 8.71692V11.5234H32.4724C33.4655 11.4467 34.1944 12.1085 34.5923 12.6642C35.0159 13.2558 35.3037 14.0359 35.3037 14.7408C35.3037 15.4527 35.0126 16.2102 34.5872 16.7886C34.1702 17.3556 33.4614 17.9588 32.5172 17.9588H28.5871L28.747 18.8296C32.2186 19.1701 35.3542 20.0088 37.4943 21.4085C38.6536 22.1667 39.579 23.1285 40.058 24.322C40.545 25.5358 40.5247 26.8767 39.9884 28.283C39.9751 28.3177 39.9599 28.3517 39.9429 28.3848L35.0728 37.8337C34.9504 38.099 34.8251 38.3529 34.6951 38.5954C35.3567 38.7874 35.9627 39.0268 36.4301 39.3322C37.3361 39.9241 38.0277 40.5876 38.4023 41.5795C38.7567 42.5177 38.777 43.6269 38.6646 44.9877C38.6218 45.5063 38.1884 45.9054 37.668 45.9054H12.132C11.6117 45.9054 11.1783 45.5064 11.1354 44.9878C11.023 43.6269 11.0433 42.5177 11.3977 41.5795C11.7723 40.5876 12.464 39.9241 13.37 39.3322C13.88 38.999 14.5584 38.7439 15.2968 38.543C15.1767 38.3164 15.0605 38.08 14.947 37.8337L10.0768 28.3847C10.0598 28.3517 10.0446 28.3177 10.0314 28.2829C9.49506 26.8767 9.47475 25.5357 9.96187 24.3219C10.4408 23.1284 11.3664 22.1667 12.5258 21.4084C14.666 20.0087 17.8019 19.17 21.2738 18.8296L21.4336 17.9588H17.5485C16.555 18.0358 15.8261 17.3733 15.4284 16.8177C15.0048 16.2259 14.717 15.4456 14.717 14.7408C14.717 14.0288 15.0082 13.2714 15.4336 12.6931C15.8508 12.1262 16.5596 11.5234 17.5035 11.5234H21.6339V8.7169C21.6339 7.74153 22.3386 7.06206 22.9115 6.69517C23.5211 6.30477 24.2997 6.0503 25.01 6.0503C25.0125 6.0503 25.0151 6.05031 25.0176 6.05033Z" fill="#222222" />
    <path d="M25.01 7.04993C24.0203 7.04993 22.6337 7.7933 22.6337 8.7168V12.5229H17.5037C16.514 12.5229 15.7173 13.8169 15.7173 14.7405C15.7173 15.6639 16.5205 17.064 17.5037 16.9584H22.6337L22.1202 19.7571C14.7068 20.3207 9.12579 23.1012 10.966 27.9265L15.8463 37.3951C16.1765 38.1135 16.5125 38.7137 16.8886 39.2073C15.6447 39.4378 14.5602 39.749 13.917 40.1692C12.2943 41.2294 11.9116 42.2331 12.1324 44.9054H37.6684C37.8891 42.2331 37.5062 41.2293 35.8835 40.1692C35.2737 39.7708 34.2669 39.4703 33.1037 39.2437C33.4911 38.7432 33.8356 38.1312 34.1739 37.3951L39.0542 27.9265C40.8944 23.1012 35.3133 20.3207 27.9 19.7571L27.3864 16.9584H32.517C33.5068 16.9584 34.3034 15.6639 34.3034 14.7405C34.3034 13.8171 33.5002 12.4176 32.517 12.5229H27.3864V8.7168C27.3864 7.7933 25.9997 7.04993 25.01 7.04993Z" fill="url(#wkpaint0_linear_4_546)" />
    <path fill-rule="evenodd" clip-rule="evenodd" d="M17.31 16.25C17.1932 16.214 16.4547 15.6052 16.4874 14.807C16.52 14.0088 16.987 13.4726 17.4723 13.3206H18.2791C16.789 13.9262 16.3985 14.9918 17.31 16.25Z" fill="url(#wkpaint1_linear_4_546)" />
    <path fill-rule="evenodd" clip-rule="evenodd" d="M16.89 38.5499L11.64 27.474C11.5382 27.2518 10.5795 25.0455 13.1717 23.0688C14.4522 22.1326 16.5216 21.2894 20.6148 20.6631C16.5496 21.6033 11.304 24.1403 12.4669 27.4575C13.6298 30.7747 16.8902 38.5504 16.8902 38.5504L16.89 38.5499Z" fill="url(#wkpaint2_linear_4_546)" />
    <path fill-rule="evenodd" clip-rule="evenodd" d="M23.39 12.65V8.68945C23.39 8.68945 23.6546 8.07759 24.7543 7.83789C23.4555 8.15099 23.4067 12.5775 23.39 12.65V12.65Z" fill="url(#wkpaint3_linear_4_546)" />
    <path fill-rule="evenodd" clip-rule="evenodd" d="M23.5 39.12C20.2666 39.1537 17.7142 39.5011 15.7733 40.0677C21.9201 39.63 28.0294 39.5708 34.0824 40.0677C31.8643 39.4202 28.8471 39.059 24.9279 39.1251C24.438 39.1171 23.9619 39.1152 23.5 39.1202V39.12Z" fill="url(#wkpaint4_linear_4_546)" />
    <path opacity="0.2" d="M32.9039 39.2058C33.242 38.7375 33.549 38.1792 33.8511 37.5219L39.0489 27.9782C40.1018 19.9988 29.9183 19.7935 28.7611 19.8502C38.3259 22.6044 36.388 26.335 32.9367 32.9794C32.2187 34.3616 31.4352 35.87 30.6761 37.5219C30.4538 38.0055 30.2289 38.4355 29.9909 38.8156C30.9725 38.909 31.9818 39.0353 32.9039 39.2058Z" fill="#8E2626" />
    <defs>
      <linearGradient id="wkpaint0_linear_4_546" x1="11.5501" y1="42.52" x2="38.4017" y2="42.52" gradientUnits="userSpaceOnUse">
        <stop stop-color="#FFECDA" />
        <stop offset="1" stop-color="#D4A5A5" />
      </linearGradient>
      <linearGradient id="wkpaint1_linear_4_546" x1="16.49" y1="14.75" x2="18.28" y2="14.75" gradientUnits="userSpaceOnUse">
        <stop stop-color="white" />
        <stop offset="1" stop-color="white" stop-opacity="0" />
      </linearGradient>
      <linearGradient id="wkpaint2_linear_4_546" x1="11.38" y1="29.65" x2="20.61" y2="29.65" gradientUnits="userSpaceOnUse">
        <stop stop-color="white" />
        <stop offset="1" stop-color="white" stop-opacity="0" />
      </linearGradient>
      <linearGradient id="wkpaint3_linear_4_546" x1="23.39" y1="10.25" x2="24.75" y2="10.25" gradientUnits="userSpaceOnUse">
        <stop stop-color="white" />
        <stop offset="1" stop-color="white" stop-opacity="0" />
      </linearGradient>
      <linearGradient id="wkpaint4_linear_4_546" x1="14.4579" y1="39.8302" x2="35.3863" y2="39.8302" gradientUnits="userSpaceOnUse">
        <stop stop-color="white" />
        <stop offset="1" stop-color="white" stop-opacity="0" />
      </linearGradient>
    </defs>
  </g>
  <g id="wn" fill="none" transform="scale(0.8 0.8)">
    <path d="M24.5626 10.83C23.6382 10.1789 22.2747 9.46631 20.5912 9.32383C20.5163 9.31565 20.4395 9.31585 20.3619 9.32524C19.8597 9.38601 19.482 9.8127 19.482 10.3185C19.482 10.3399 19.5034 10.8963 19.5268 11.506L19.5411 11.8791L19.5831 12.9722L8.58975 24.2488C8.28591 24.5604 8.21857 25.0328 8.4232 25.417C9.75939 27.9253 11.4328 29.0752 12.8601 29.5585C13.5606 29.7957 14.176 29.8637 14.6259 29.8704C14.851 29.8738 15.0358 29.8619 15.1708 29.8479C15.2384 29.8408 15.3789 29.8182 15.4209 29.8117C15.5907 29.7771 15.7485 29.699 15.879 29.585C17.0895 28.5278 18.2137 28.0887 19.4916 27.7397C19.8094 27.6529 20.1479 27.5698 20.5047 27.4822C21.0879 27.3389 21.7201 27.1837 22.3911 26.9807C22.289 27.1146 22.1699 27.2593 22.0324 27.4153C21.4122 28.1195 20.5806 28.8819 19.6465 29.7384C19.2859 30.0691 18.9099 30.4138 18.5249 30.7746C17.191 32.0247 15.7836 33.4397 14.8481 34.9466C14.0636 36.2105 13.5486 37.6437 13.7772 39.1509C13.6707 39.2078 13.5676 39.2681 13.4696 39.3321C12.5636 39.9241 11.872 40.5877 11.4975 41.5796C11.1434 42.5178 11.1232 43.627 11.2356 44.9877C11.2785 45.5063 11.7119 45.9054 12.2322 45.9054H37.7682C38.2886 45.9054 38.722 45.5063 38.7648 44.9877C38.8772 43.6269 38.8569 42.5176 38.5025 41.5795C38.1279 40.5876 37.4363 39.924 36.5303 39.3321C36.4516 39.2807 36.3706 39.2331 36.2903 39.1891C35.2874 37.4733 35.1391 35.4634 35.3425 33.1656C35.4426 32.0339 35.6235 30.8722 35.8115 29.6647L35.8444 29.4533C36.0418 28.1837 36.2416 26.8669 36.3364 25.5603C36.526 22.9447 36.3066 20.2412 34.7223 17.7982C33.1671 15.4002 30.4014 13.4119 25.8561 11.9286C25.7988 11.8694 25.7301 11.8004 25.6503 11.7239C25.3977 11.4816 25.0308 11.1597 24.5626 10.83Z" fill="#222222" />
    <path d="M20.4821 10.3182C23.4043 10.5537 25.3 12.8001 25.3 12.8001C36.8537 16.4699 35.8229 23.0855 34.8201 29.5204C34.2371 33.2606 33.6637 36.9398 35.5765 39.944C35.7265 40.0154 35.8627 40.0904 35.9834 40.1693C37.6061 41.2294 37.989 42.2331 37.7683 44.9054H12.2323C12.0115 42.2331 12.3943 41.2295 14.017 40.1693C14.2664 40.0063 14.5821 39.8598 14.9477 39.728C13.788 36.4653 17.3208 33.227 20.2809 30.5138C22.5363 28.4463 24.4593 26.6837 23.7205 25.4472C22.4774 25.9671 21.3673 26.2398 20.3244 26.4961C18.5359 26.9355 16.9453 27.3263 15.2217 28.8317C15.2217 28.8317 11.7521 29.539 9.30591 24.9469L20.5989 13.3628L20.4821 10.3182Z" fill="url(#wnpaint0_linear_4_564)" />
    <path fill-rule="evenodd" clip-rule="evenodd" d="M24.7001 25.6001C25.741 29.1917 14.3691 33.8498 15.73 39.3981C15.73 34.0463 26.98 29.4451 24.7001 25.6001Z" fill="url(#wnpaint1_linear_4_564)" />
    <path fill-rule="evenodd" clip-rule="evenodd" d="M12.8 27.6001C12.8 27.6001 11.7454 27.4247 10.2787 25.0745L21.3068 13.7365L21.2488 11.2416C21.5173 12.1136 21.6164 12.947 22.4 13.9359L10.941 25.0179C11.3286 26.0336 12.1443 26.7635 12.7999 27.6001H12.8Z" fill="url(#wnpaint2_linear_4_564)" />
    <path fill-rule="evenodd" clip-rule="evenodd" d="M23.6 39.13C20.3666 39.1637 17.8142 39.5111 15.8733 40.0777C22.0201 39.64 28.1293 39.5809 34.1823 40.0777C31.9642 39.4302 28.947 39.0691 25.0278 39.1352C24.5379 39.1272 24.0619 39.1252 23.6 39.1302V39.13Z" fill="url(#wnpaint3_linear_4_564)" />
    <path opacity="0.1" fill-rule="evenodd" clip-rule="evenodd" d="M15.2001 28.8C17.4454 26.6729 20.8592 26.5324 23.6987 25.4155C23.9508 25.5324 23.6717 26.5983 23.7737 26.4888C24.5676 25.6336 26.4675 23.951 25.1464 20.6909C24.9621 26.3338 14.0974 25.8846 15.1996 28.8H15.2001Z" fill="url(#wnpaint4_linear_4_564)" />
    <path opacity="0.2" d="M24.5635 14.2699C23.6117 12.7136 22.0885 11.4878 20.5 10.3C23.4222 10.5355 25.3179 12.7819 25.3179 12.7819C36.8713 16.451 35.8403 23.0666 34.8374 29.5016C34.252 33.2581 33.6762 36.953 35.6188 39.9644C34.4976 39.416 32.5735 39.08 30.6685 38.8742C29.5107 35.9861 30.6403 32.7258 31.7667 29.4749C33.7878 23.6414 35.7985 17.8382 24.5635 14.2699Z" fill="#8E2626" />
    <defs>
      <linearGradient id="wnpaint0_linear_4_564" x1="11.65" y1="42.52" x2="38.5016" y2="42.52" gradientUnits="userSpaceOnUse">
        <stop stop-color="#FFECDA" />
        <stop offset="1" stop-color="#D4A5A5" />
      </linearGradient>
      <linearGradient id="wnpaint1_linear_4_564" x1="15.6001" y1="32.5001" x2="25.0001" y2="32.5001" gradientUnits="userSpaceOnUse">
        <stop stop-color="white" />
        <stop offset="1" stop-color="white" stop-opacity="0" />
      </linearGradient>
      <linearGradient id="wnpaint2_linear_4_564" x1="10.3" y1="19.4001" x2="22.4" y2="19.4001" gradientUnits="userSpaceOnUse">
        <stop stop-color="white" />
        <stop offset="1" stop-color="white" stop-opacity="0" />
      </linearGradient>
      <linearGradient id="wnpaint3_linear_4_564" x1="14.5549" y1="39.8322" x2="35.4831" y2="39.8322" gradientUnits="userSpaceOnUse">
        <stop stop-color="white" />
        <stop offset="1" stop-color="white" stop-opacity="0" />
      </linearGradient>
      <linearGradient id="wnpaint4_linear_4_564" x1="25.1001" y1="24.9" x2="15.1001" y2="25.7" gradientUnits="userSpaceOnUse">
        <stop stop-color="#BD9E9E" />
        <stop offset="1" stop-opacity="0" />
      </linearGradient>
    </defs>
  </g>
  <g id="wp" fill="none" transform="scale(0.8 0.8)">
    <path fill-rule="evenodd" clip-rule="evenodd" d="M38.4185 40.3857L38.4197 40.3862L39.1812 40.7207L37.965 45.8544H12.3496L11.1326 40.7207L11.8942 40.3862L11.8955 40.3856L11.9062 40.3808C11.917 40.3759 11.935 40.3676 11.9597 40.356C12.009 40.3326 12.0852 40.2958 12.1847 40.2451C12.3838 40.1437 12.6755 39.9871 13.032 39.7729C13.7463 39.3436 14.7132 38.6871 15.7143 37.7843C17.516 36.1592 19.3952 33.7677 20.1548 30.4851H19.1244C17.3298 30.4851 15.7912 29.0997 15.7912 27.2723C15.7912 25.58 17.1108 24.2667 18.7311 24.0818C17.7456 22.7899 17.188 21.2108 17.188 19.5523C17.188 15.2749 20.8052 11.885 25.169 11.885C29.5326 11.885 33.1497 15.2749 33.1497 19.5523C33.1497 21.2103 32.5926 22.789 31.6079 24.0806C33.2328 24.261 34.5589 25.576 34.5589 27.2723C34.5589 29.1 33.0195 30.4851 31.2252 30.4851H30.1596C30.9192 33.7677 32.7983 36.1591 34.5999 37.7842C35.6009 38.6871 36.5678 39.3436 37.282 39.7729C37.6385 39.9871 37.9302 40.1437 38.1293 40.2451C38.2288 40.2958 38.3049 40.3327 38.3543 40.356C38.379 40.3676 38.3969 40.3759 38.4077 40.3808L38.4185 40.3857Z" fill="#222222" />
    <path d="M21.1568 25.0588C19.2526 23.8177 18.1113 21.7568 18.1113 19.5517C18.1113 15.8694 21.2364 12.8842 25.0918 12.8842C28.9469 12.8842 32.0724 15.8694 32.0724 19.5517C32.0724 21.7571 30.9311 23.8177 29.0269 25.0588H31.1484C32.4412 25.0588 33.4819 26.0456 33.4819 27.2715C33.4819 28.4974 32.4412 29.4842 31.1484 29.4842H28.8745C30.0546 37.8441 37.9389 41.3004 37.9389 41.3004L37.0971 44.8538H13.0632L12.2211 41.3004C12.2211 41.3004 20.106 37.844 21.286 29.4842H19.0477C17.755 29.4842 16.7142 28.4974 16.7142 27.2715C16.7142 26.0456 17.755 25.0588 19.0477 25.0588H21.1568Z" fill="url(#wppaint0_linear_4_582)" />
    <path fill-rule="evenodd" clip-rule="evenodd" d="M19.2534 21.1271C19.2534 21.1271 17.5407 16.1991 23.1834 13.9329C19.8178 16.1532 19.2534 21.1271 19.2534 21.1271Z" fill="url(#wppaint1_linear_4_582)" />
    <path fill-rule="evenodd" clip-rule="evenodd" d="M17.5933 27.0419C17.7327 25.7944 25.2988 25.8527 25.2988 25.8527L18.9117 25.843C17.9713 25.936 17.624 26.7748 17.5887 27.0402L17.5933 27.0419Z" fill="url(#wppaint2_linear_4_582)" />
    <path fill-rule="evenodd" clip-rule="evenodd" d="M13.7543 44.2045L13.1719 41.7895C13.1719 42.1928 21.9465 36.4343 22.0495 30.2411C23.2956 37.0599 14.0698 42.1531 14.0698 42.1531L13.7543 44.2045Z" fill="url(#wppaint3_linear_4_582)" />
    <path opacity="0.2" fill-rule="evenodd" clip-rule="evenodd" d="M25.0641 12.9821C24.2714 12.9821 23.5101 13.1052 22.7992 13.3292C33.4751 11.2913 28.9556 24.899 24.426 24.899L28.9551 24.8994C30.9134 23.6939 32.0905 21.6617 32.0905 19.485C32.0905 15.8937 28.9448 12.9825 25.0641 12.9825V12.9821Z" fill="#8E2626" />
    <path opacity="0.2" d="M25.1067 29.4842H28.9508C30.1308 37.8448 38.0156 41.3014 38.0156 41.3014L37.1738 44.8549H33.3298L34.1716 41.3014C34.1716 41.3014 26.2867 37.8441 25.1067 29.4842Z" fill="#8E2626" />
    <defs>
      <linearGradient id="wppaint0_linear_4_582" x1="16.6044" y1="27.2651" x2="33.5978" y2="27.2651" gradientUnits="userSpaceOnUse">
        <stop stop-color="#FFECDA" />
        <stop offset="1" stop-color="#D4A5A5" />
      </linearGradient>
      <linearGradient id="wppaint1_linear_4_582" x1="18.9422" y1="17.5394" x2="23.0926" y2="17.5394" gradientUnits="userSpaceOnUse">
        <stop stop-color="white" />
        <stop offset="1" stop-color="white" stop-opacity="0" />
      </linearGradient>
      <linearGradient id="wppaint2_linear_4_582" x1="17.4896" y1="26.4601" x2="25.2715" y2="26.4601" gradientUnits="userSpaceOnUse">
        <stop stop-color="white" />
        <stop offset="1" stop-color="white" stop-opacity="0" />
      </linearGradient>
      <linearGradient id="wppaint3_linear_4_582" x1="13.2355" y1="37.2231" x2="22.1587" y2="37.2231" gradientUnits="userSpaceOnUse">
        <stop stop-color="white" />
        <stop offset="1" stop-color="white" stop-opacity="0" />
      </linearGradient>
    </defs>
  </g>
  <g id="wq" fill="none" transform="scale(0.8 0.8)">
    <path d="M14.7495 21.4C14.9961 20.8125 15.1255 20.18 15.1259 19.5369C15.1259 16.7961 12.8478 14.6213 10.0981 14.6214C7.34854 14.6214 5.07235 16.7966 5.07256 19.5365C5.07261 22.2531 7.3111 24.4117 10.0276 24.4488L15.6023 38.4883C14.7853 38.6968 14.0272 38.9675 13.4699 39.3316C12.5639 39.9236 11.8722 40.5871 11.4976 41.579C11.1432 42.5172 11.1229 43.6264 11.2353 44.9872C11.2782 45.5058 11.7116 45.9049 12.2319 45.9049H37.7679C38.2883 45.9049 38.7217 45.5058 38.7645 44.9872C38.8769 43.6264 38.8566 42.5171 38.5022 41.579C38.1276 40.5871 37.436 39.9235 36.53 39.3316C35.9524 38.9543 35.1576 38.677 34.3028 38.465L39.8669 24.4488C42.5839 24.4119 44.8212 22.2527 44.8219 19.5366C44.8219 16.7965 42.5458 14.6223 39.7966 14.6213C37.047 14.6213 34.7684 16.7955 34.7686 19.5364C34.7686 20.18 34.8982 20.8125 35.1449 21.3999L32.5182 23.1848V17.1071C34.3049 16.3374 35.5143 14.5982 35.517 12.6167V12.6153C35.517 9.87521 33.2408 7.70133 30.4916 7.70084C27.7421 7.70084 25.464 9.87426 25.4643 12.6155C25.4644 13.9564 26.0259 15.2171 26.9829 16.1282L24.9474 21.1316L22.9108 16.1281C23.8679 15.2165 24.4271 13.9561 24.4298 12.6174V12.6153C24.4298 9.87458 22.153 7.7005 19.403 7.7009C16.6535 7.70099 14.3772 9.87549 14.3774 12.6155C14.3774 14.5987 15.5899 16.3376 17.3762 17.1072V23.1849L14.7495 21.4Z" fill="#222222" />
    <path d="M15.3774 12.6154C15.3772 10.4538 17.1795 8.70068 19.4033 8.70068C21.6276 8.70028 23.4303 10.4532 23.4303 12.6154C23.4277 13.8929 22.7841 15.0891 21.7058 15.8195L24.9483 23.7848L28.189 15.8195C27.1109 15.0891 26.4646 13.8929 26.4646 12.6154C26.4643 10.4532 28.2676 8.70068 30.4919 8.70068C32.7156 8.70108 34.5176 10.4538 34.5176 12.6154C34.5152 14.3904 33.2844 15.9415 31.5186 16.3948V25.0735L36.4548 21.7191C36.0083 21.0738 35.7692 20.3139 35.7692 19.5363C35.769 17.3743 37.5722 15.6215 39.7966 15.6215C42.0204 15.6223 43.8224 17.3747 43.8224 19.5363C43.8219 21.6974 42.0198 23.4495 39.7966 23.4495C39.5989 23.4485 39.4016 23.4335 39.2061 23.4045L32.938 39.1938C34.2128 39.4256 35.3277 39.7408 35.9834 40.1693C37.6061 41.2294 37.989 42.2331 37.7683 44.9054H12.2323C12.0115 42.2331 12.3943 41.2295 14.017 40.1693C14.6562 39.7517 15.7314 39.4417 16.9657 39.2116L10.6891 23.4045C10.4935 23.4325 10.2962 23.4495 10.0984 23.4495C7.87535 23.4492 6.07263 21.6974 6.07263 19.5363C6.07243 17.3747 7.87475 15.6215 10.0984 15.6215C12.3227 15.6214 14.1258 17.3743 14.1258 19.5363C14.1254 20.3139 13.8868 21.0738 13.4402 21.7191L18.3765 25.0735V16.3948C16.611 15.9415 15.3774 14.3904 15.3774 12.6154Z" fill="url(#wqpaint0_linear_4_602)" />
    <path fill-rule="evenodd" clip-rule="evenodd" d="M7.43999 21.3199C7.43999 21.3199 5.60443 18.7237 8.68023 16.7063C8.01769 18.125 7.40719 19.517 7.43999 21.3199Z" fill="url(#wqpaint1_linear_4_602)" />
    <path fill-rule="evenodd" clip-rule="evenodd" d="M16.7 14.4199C16.7 14.4199 14.8644 11.8238 17.9402 9.8064C17.1172 10.9727 16.4017 12.4694 16.7 14.4199Z" fill="url(#wqpaint2_linear_4_602)" />
    <path fill-rule="evenodd" clip-rule="evenodd" d="M27.5 13.5199C27.5 13.5199 26.4504 10.5187 29.9628 9.42627C28.3869 10.6373 27.4653 11.8029 27.5 13.5199Z" fill="url(#wqpaint3_linear_4_602)" />
    <path fill-rule="evenodd" clip-rule="evenodd" d="M36.7 20.4199C36.758 20.4489 35.7132 17.7789 38.9456 16.5586C37.8296 17.4486 36.8766 18.0428 36.7 20.4199Z" fill="url(#wqpaint4_linear_4_602)" />
    <path fill-rule="evenodd" clip-rule="evenodd" d="M11.44 23.12L17.6908 38.7959H18.8484L11.44 23.12Z" fill="url(#wqpaint5_linear_4_602)" />
    <path fill-rule="evenodd" clip-rule="evenodd" d="M23.6 39.13C20.3666 39.1637 17.8142 39.5111 15.8733 40.0777C22.0201 39.64 28.1293 39.5809 34.1823 40.0777C31.9642 39.4302 28.947 39.0691 25.0278 39.1352C24.5379 39.1272 24.0619 39.1252 23.6 39.1302V39.13Z" fill="url(#wqpaint6_linear_4_602)" />
    <path opacity="0.2" d="M37.7061 16.1779C38.3218 15.8066 39.0452 15.5888 39.8229 15.5887C42.0467 15.5895 43.849 17.3416 43.849 19.5031C43.8485 21.6642 42.0461 23.4166 39.8229 23.4166C39.6252 23.4156 39.4283 23.4006 39.2328 23.3716L32.9503 39.196C31.3793 38.9095 29.5636 38.7498 28.0643 38.6609L38.0454 22.5035C41.0563 22.9972 44.1164 17.5188 37.7061 16.1779Z" fill="#8E2626" />
    <defs>
      <linearGradient id="wqpaint0_linear_4_602" x1="11.65" y1="42.52" x2="38.5016" y2="42.52" gradientUnits="userSpaceOnUse">
        <stop stop-color="#FFECDA" />
        <stop offset="1" stop-color="#D4A5A5" />
      </linearGradient>
      <linearGradient id="wqpaint1_linear_4_602" x1="6.89001" y1="19.0199" x2="8.68003" y2="19.0199" gradientUnits="userSpaceOnUse">
        <stop stop-color="white" />
        <stop offset="1" stop-color="white" stop-opacity="0" />
      </linearGradient>
      <linearGradient id="wqpaint2_linear_4_602" x1="16.15" y1="12.12" x2="17.94" y2="12.12" gradientUnits="userSpaceOnUse">
        <stop stop-color="white" />
        <stop offset="1" stop-color="white" stop-opacity="0" />
      </linearGradient>
      <linearGradient id="wqpaint3_linear_4_602" x1="27.35" y1="11.5199" x2="29.96" y2="11.5199" gradientUnits="userSpaceOnUse">
        <stop stop-color="white" />
        <stop offset="1" stop-color="white" stop-opacity="0" />
      </linearGradient>
      <linearGradient id="wqpaint4_linear_4_602" x1="36.59" y1="18.42" x2="38.95" y2="18.42" gradientUnits="userSpaceOnUse">
        <stop stop-color="white" />
        <stop offset="1" stop-color="white" stop-opacity="0" />
      </linearGradient>
      <linearGradient id="wqpaint5_linear_4_602" x1="11.44" y1="30.9199" x2="18.85" y2="30.9199" gradientUnits="userSpaceOnUse">
        <stop stop-color="white" />
        <stop offset="1" stop-color="white" stop-opacity="0" />
      </linearGradient>
      <linearGradient id="wqpaint6_linear_4_602" x1="14.5549" y1="39.8322" x2="35.4831" y2="39.8322" gradientUnits="userSpaceOnUse">
        <stop stop-color="white" />
        <stop offset="1" stop-color="white" stop-opacity="0" />
      </linearGradient>
    </defs>
  </g>
  <g id="wr" fill="none" transform="scale(0.8 0.8)">
    <path d="M21.2208 13.8169H19.0412V10.8443L13.3403 10.8451L13.1975 11.6754C12.2494 17.186 13.4557 20.3602 15.1567 22.1492C15.9886 23.0241 16.8897 23.5125 17.586 23.7823C17.6517 23.8078 17.7157 23.8314 17.7778 23.8531L14.7302 38.7399C14.2666 38.899 13.8312 39.0905 13.4696 39.3267C12.5636 39.9187 11.872 40.5823 11.4975 41.5742C11.1434 42.5124 11.1232 43.6216 11.2356 44.9823L11.3114 45.9H38.689L38.7648 44.9823C38.8772 43.6215 38.8569 42.5122 38.5025 41.574C38.1279 40.5822 37.4363 39.9186 36.5303 39.3267C36.1687 39.0905 35.7332 38.8987 35.2693 38.7394L32.2216 23.8527C32.2837 23.8309 32.3477 23.8073 32.4134 23.7819C33.1098 23.5121 34.0109 23.0237 34.8429 22.1488C36.5441 20.3599 37.7506 17.1857 36.8024 11.6749L36.6595 10.8445H30.9577V13.8169H28.7786V10.9044H21.2208V13.8169Z" fill="#222222" />
    <path d="M18.9486 23.12C18.9486 23.12 12.358 22.452 14.183 11.845H18.0413V14.8174H22.2209V11.9045H27.7787V14.8174H31.9577V11.845H35.8169C37.642 22.4526 31.0508 23.12 31.0508 23.12L34.4082 39.519C35.0518 39.6988 35.5972 39.9119 35.9834 40.1642C37.6061 41.2243 37.989 42.2281 37.7683 44.9004H12.2323C12.0115 42.2281 12.3943 41.2244 14.017 40.1642C14.403 39.912 14.9481 39.6991 15.5911 39.5193L18.9486 23.12Z" fill="url(#wrpaint0_linear_4_623)" />
    <path fill-rule="evenodd" clip-rule="evenodd" d="M14.835 12.6C14.835 12.6 14.1653 17.47 15.5047 19.6694C14.4216 15.1333 15.7874 12.6114 15.7874 12.6114L14.835 12.6Z" fill="url(#wrpaint1_linear_4_623)" />
    <path fill-rule="evenodd" clip-rule="evenodd" d="M22.979 15.544V12.6584L23.905 12.6684L22.979 15.544Z" fill="url(#wrpaint2_linear_4_623)" />
    <path fill-rule="evenodd" clip-rule="evenodd" d="M32.726 14.635V12.5971L33.3985 12.6071L32.726 14.635Z" fill="url(#wrpaint3_linear_4_623)" />
    <path fill-rule="evenodd" clip-rule="evenodd" d="M19.603 23.886L17.7555 32.7961L20.3641 23.8626L19.603 23.886Z" fill="url(#wrpaint4_linear_4_623)" />
    <path fill-rule="evenodd" clip-rule="evenodd" d="M23.572 39.124C20.3386 39.158 17.7862 39.5051 15.8453 40.0717C21.9921 39.6339 28.1013 39.5748 34.1543 40.0717C31.9362 39.4242 28.919 39.063 24.9998 39.1291C24.5099 39.1191 24.0339 39.1191 23.572 39.1191V39.124Z" fill="url(#wrpaint5_linear_4_623)" />
    <path opacity="0.2" d="M20.6518 23.0391C30.408 22.5864 36.3862 22.3091 34.789 11.845L35.8175 11.8446C37.6426 22.4522 31.0514 23.1196 31.0514 23.1196L34.5 39.5L34.2694 39.4811C33.0918 39.1672 31.6132 38.9584 30.185 38.8196C29.8425 37.0653 29.6192 35.4053 29.4127 33.8708C28.501 27.0944 27.9185 22.7642 18.859 23.5606L18.949 23.12C19.5284 23.0912 20.0962 23.0648 20.6518 23.0391Z" fill="#8E2626" />
    <defs>
      <linearGradient id="wrpaint0_linear_4_623" x1="11.574" y1="42.52" x2="38.4256" y2="42.52" gradientUnits="userSpaceOnUse">
        <stop stop-color="#FFECDA" />
        <stop offset="1" stop-color="#D4A5A5" />
      </linearGradient>
      <linearGradient id="wrpaint1_linear_4_623" x1="14.6" y1="16.1" x2="15.7" y2="16.1" gradientUnits="userSpaceOnUse">
        <stop stop-color="white" />
        <stop offset="1" stop-color="white" stop-opacity="0" />
      </linearGradient>
      <linearGradient id="wrpaint2_linear_4_623" x1="22.9" y1="14.1" x2="23.9" y2="14.1" gradientUnits="userSpaceOnUse">
        <stop stop-color="white" />
        <stop offset="1" stop-color="white" stop-opacity="0" />
      </linearGradient>
      <linearGradient id="wrpaint3_linear_4_623" x1="32.7" y1="13.6" x2="33.4" y2="13.6" gradientUnits="userSpaceOnUse">
        <stop stop-color="white" />
        <stop offset="1" stop-color="white" stop-opacity="0" />
      </linearGradient>
      <linearGradient id="wrpaint4_linear_4_623" x1="17.7" y1="28.3" x2="20.3" y2="28.3" gradientUnits="userSpaceOnUse">
        <stop stop-color="white" />
        <stop offset="1" stop-color="white" stop-opacity="0" />
      </linearGradient>
      <linearGradient id="wrpaint5_linear_4_623" x1="14.5009" y1="39.8342" x2="35.4292" y2="39.8342" gradientUnits="userSpaceOnUse">
        <stop stop-color="white" />
        <stop offset="1" stop-color="white" stop-opacity="0" />
      </linearGradient>
    </defs>
  </g>
</svg>