<svg xmlns="http://www.w3.org/2000/svg" width="40" height="40" viewbox="0.0 0.0 180.0 180.0">
  <g id="bb" fill="none" transform="scale(0.2222222222222222 0.2222222222222222)">
    <path d="M50.625 81.3341H129.375V163.125H50.625V81.3341ZM60.1532 44.6476L89.9781 16.875L119.847 44.6889L90.0219 72.4618L60.1532 44.6476Z" fill="#430D27" />
  </g>
  <g id="bk" fill="none" transform="scale(0.2222222222222222 0.2222222222222222)">
    <path d="M92.2286 36.2923H67.3684V25.2838H86.7448V16.875H97.713V25.2838H117.049V36.2923H92.2286ZM56.1159 119.567H128.301V161.327H56.1159V119.567ZM106.203 87.1509H121.192L135.654 66.1089L121.03 66.0279L106.203 87.1509ZM78.2145 87.1509L63.5496 66.1089H48.8039L63.7121 87.1509H78.2145ZM86.2166 66.0279V87.1509H98.2817V66.0279H86.2166ZM128.301 108.518H56.1159L16.875 47.6259H167.583L128.301 108.518Z" fill="#430D27" />
    <path d="M106.203 87.1509H121.192L135.654 66.1089L121.03 66.0279L106.203 87.1509ZM78.2139 87.1509L63.5496 66.1089H48.8037L63.7121 87.1509H78.2139ZM86.2166 66.0279V87.1509H98.2811V66.0279H86.2166Z" fill="#C94E4E" />
  </g>
  <g id="bn" fill="none" transform="scale(0.2222222222222222 0.2222222222222222)">
    <path d="M133.174 123.467L133.214 88.9386L117.047 72.7712L106.16 77.6048L122.165 93.6506V123.467H133.174ZM86.0518 53.6786C81.4483 53.6786 79.1466 55.9805 79.1466 60.5841C79.1466 65.1881 81.4483 67.4899 86.0518 67.4899C90.6829 67.4899 92.9981 65.1881 92.9981 60.5841C92.9981 55.9805 90.6829 53.6786 86.0518 53.6786ZM72.8094 44.6199C73.9468 44.349 75.2468 43.7127 76.7087 42.7106C78.0362 41.7899 79.0785 40.8014 79.8368 39.7452L88.5707 33.6113L79.8773 24.8369L87.8394 16.875L151.413 80.7328V161.083L54.5293 161.043V149.303L76.7902 102.1L45.6331 113.474L28.125 75.9392L72.8094 44.6199Z" fill="#430D27" />
    <path d="M133.174 123.467L133.214 88.9386L117.047 72.7712L106.16 77.6048L122.165 93.6506V123.467H133.174ZM86.0518 53.6786C81.4483 53.6786 79.146 55.9805 79.146 60.5846C79.146 65.1881 81.4483 67.4899 86.0518 67.4899C90.6829 67.4899 92.9982 65.1881 92.9982 60.5846C92.9982 55.9805 90.6829 53.6786 86.0518 53.6786Z" fill="#C94E4E" />
  </g>
  <g id="bp" fill="none" transform="scale(0.2222222222222222 0.2222222222222222)">
    <path d="M50.625 122.114H123.75V163.125H50.625V122.114ZM67.6204 73.125H106.796V111.263H67.6204V73.125Z" fill="#430D27" />
  </g>
  <g id="bq" fill="none" transform="scale(0.2222222222222222 0.2222222222222222)">
    <path d="M56.0753 119.83H128.261V161.59H56.0753V119.83ZM167.623 47.9294L128.261 108.781H56.0753L16.875 47.9294L69.318 62.1067L92.1881 22.5L115.099 62.0252L167.623 47.9294ZM92.1881 86.4388H103.603L92.1881 66.6158L80.6108 86.4388H92.1881Z" fill="#430D27" />
    <path d="M92.1881 86.4388H103.603L92.1881 66.6152L80.6107 86.4388H92.1881Z" fill="#C94E4E" />
  </g>
  <g id="br" fill="none" transform="scale(0.2222222222222222 0.2222222222222222)">
    <path d="M118.205 61.9177V89.4594H132.22V61.9177H118.205ZM82.2549 61.9177V89.4594H96.1071V61.9177H82.2549ZM46.142 61.9177V89.4594H60.1566V61.9177H46.142ZM22.5 50.625H155.618V111.802H22.5V50.625ZM53.0884 122.851H125.274V164.611H53.0884V122.851Z" fill="#430D27" />
    <path d="M118.205 61.9183V89.46H132.22V61.9183H118.205ZM82.255 61.9183V89.46H96.1071V61.9183H82.255ZM46.1419 61.9183V89.46H60.1566V61.9183H46.1419Z" fill="#C94E4E" />
  </g>
  <g id="wb" fill="none" transform="scale(0.2222222222222222 0.2222222222222222)">
    <path d="M80.5016 44.2542L92.3226 56.0346L104.144 44.2136L92.3631 32.3926L80.5016 44.2542ZM64.9839 44.2136L92.3226 16.875L119.702 44.2542L92.3631 71.5928L64.9839 44.2136ZM67.5022 91.3759V149.547H117.183V91.3759H67.5022ZM56.25 80.3267H128.436V160.84H56.25V80.3267Z" fill="#430D27" />
    <path d="M80.501 44.2543L92.3225 56.0346L104.143 44.2136L92.363 32.3926L80.501 44.2543ZM67.5022 91.3759V149.547H117.183V91.3759H67.5022Z" fill="white" />
  </g>
  <g id="wk" fill="none" transform="scale(0.2222222222222222 0.2222222222222222)">
    <path d="M92.2286 36.2923H67.3684V25.2838H86.7448V16.875H97.713V25.2838H117.049V36.2923H92.2286ZM121.68 97.3879L146.947 58.6344H37.3485L62.7778 97.3879H121.68ZM128.301 108.518H56.1159L16.875 47.6259H167.583L128.301 108.518ZM86.7448 67.0433H97.713V86.1761H86.7448V67.0433ZM81.8297 86.1761L68.6683 86.2166L55.141 67.1242H68.5462L81.8297 86.1761ZM102.628 86.1761L116.034 67.0433L129.317 67.0837L116.196 86.1761H102.628ZM67.3684 130.576V150.034H117.049V130.576H67.3684ZM56.1159 119.567H128.301V161.327H56.1159V119.567Z" fill="#430D27" />
    <path d="M121.68 97.3879L146.946 58.6344H37.3484L62.7778 97.3879H121.68ZM86.7448 67.0432H97.7124V86.1761H86.7448V67.0432ZM81.8297 86.1761L68.6677 86.2166L55.1408 67.1242H68.5462L81.8297 86.1761ZM102.628 86.1761L116.033 67.0432L129.316 67.0837L116.196 86.1761H102.628ZM67.3678 130.576V150.034H117.049V130.576H67.3678Z" fill="white" />
  </g>
  <g id="wn" fill="none" transform="scale(0.2222222222222222 0.2222222222222222)">
    <path d="M88.5302 55.5878C93.5398 55.5878 96.0452 58.0927 96.0452 63.1029C96.0452 68.1131 93.5398 70.6179 88.5302 70.6179C83.547 70.6179 81.0557 68.1131 81.0557 63.1029C81.0557 58.0927 83.547 55.5878 88.5302 55.5878ZM129.842 125.133H118.834V95.3162L102.829 79.2703L113.716 74.3957L129.884 90.6041L129.842 125.133ZM151.413 149.75V161.083H54.57L54.4887 149.79L76.7902 102.1L45.6331 113.474L28.125 75.9392L88.5707 33.6113L79.8773 24.8369L87.8394 16.875L151.413 80.8954L151.413 149.75ZM91.8203 96.4941L66.96 149.79H140.445L140.486 85.3234L96.8169 41.6544L42.3427 79.758L51.4014 99.216L94.4201 83.5357L98.2794 94.0972L91.8203 96.4941Z" fill="#430D27" />
    <path d="M88.5302 55.5878C93.5398 55.5878 96.0452 58.0928 96.0452 63.103C96.0452 68.1131 93.5398 70.618 88.5302 70.618C83.547 70.618 81.0557 68.1131 81.0557 63.103C81.0557 58.0928 83.547 55.5878 88.5302 55.5878ZM129.842 125.133H118.834V95.3162L102.829 79.2703L113.716 74.3957L129.883 90.6041L129.842 125.133ZM91.8202 96.4941L66.9594 149.79H140.445L140.485 85.3234L96.8169 41.6545L42.3427 79.758L51.4014 99.216L94.4201 83.5358L98.2794 94.0978L91.8202 96.4941Z" fill="white" />
  </g>
  <g id="wp" fill="none" transform="scale(0.2222222222222222 0.2222222222222222)">
    <path d="M56.25 123.009H128.436V164.768H56.25V123.009ZM67.5022 134.017V153.475H117.183V134.017H67.5022ZM83.9947 84.1337V100.951H100.731V84.1337H83.9947ZM73.0271 73.125H111.699V111.959H73.0271V73.125Z" fill="#430D27" />
    <path d="M67.5022 134.017V153.475H117.183V134.017H67.5022ZM83.9947 84.1337V100.951H100.731V84.1337H83.9947Z" fill="white" />
  </g>
  <g id="wq" fill="none" transform="scale(0.2222222222222222 0.2222222222222222)">
    <path d="M92.1881 86.4388H80.6108L92.1881 66.6158L103.603 86.4388H92.1881ZM142.316 66.0471L109.737 74.9025L92.1881 44.4765L74.6803 74.8209L42.1013 66.1281L62.7373 97.6506H121.639L142.316 66.0471ZM167.623 47.9294L128.261 108.781H56.0753L16.875 47.9294L69.318 62.1067L92.1881 22.5L115.099 62.0252L167.623 47.9294ZM67.3273 130.839V150.297H117.008V130.839H67.3273ZM56.0753 119.83H128.261V161.59H56.0753V119.83Z" fill="#430D27" />
    <path d="M92.1881 86.4388H80.6107L92.1881 66.6157L103.603 86.4388H92.1881ZM142.316 66.047L109.737 74.9025L92.1881 44.4765L74.6803 74.8209L42.1013 66.128L62.7373 97.6505H121.639L142.316 66.047ZM67.3279 130.839V150.297H117.008V130.839H67.3279Z" fill="white" />
  </g>
  <g id="wr" fill="none" transform="scale(0.2222222222222222 0.2222222222222222)">
    <path d="M64.3404 133.86V153.317H114.022V133.86H64.3404ZM53.0884 122.851H125.274V164.611H53.0884V122.851ZM89.2012 83.9756H83.7174V61.9177H64.3404V83.9756H53.0884V61.9177H33.7523V100.793H144.61V61.9177H125.274V83.9756H114.022V61.9177H94.6856V83.9756H89.2012ZM22.5 50.625H155.618V111.802H22.5V50.625Z" fill="#430D27" />
    <path d="M64.3404 133.86V153.317H114.021V133.86H64.3404ZM89.2012 83.9756H83.7174V61.9177H64.3404V83.9756H53.0881V61.9177H33.7521V100.793H144.61V61.9177H125.273V83.9756H114.021V61.9177H94.6851V83.9756H89.2012Z" fill="white" />
  </g>
</svg>