<svg xmlns="http://www.w3.org/2000/svg" width="40" height="40" viewbox="0.0 0.0 180.0 180.0">
  <g id="bb" fill="none" transform="scale(0.2222222222222222 0.2222222222222222)">
    <path d="M28.125 167.393V146.868H39.3905C38.8761 145.736 38.6189 144.451 38.6189 143.01C38.6189 140.541 39.4934 138.432 41.2424 136.683C42.9914 134.831 45.1004 133.905 47.5696 133.905H54.8227L39.5448 76.6513C38.9275 74.4907 39.7506 72.9478 42.014 72.0219L81.5203 56.1267C78.6398 53.5547 77.1992 50.3654 77.1992 46.5587C77.1992 42.9579 78.4339 39.9229 80.9033 37.4537C83.3721 34.9846 86.4073 33.75 90.0079 33.75C93.609 33.75 96.6443 34.9846 99.1131 37.4537C101.582 39.9229 102.817 42.9579 102.817 46.5587C102.817 50.3654 101.377 53.5547 98.496 56.1267L138.002 72.0219C140.369 72.9478 141.243 74.4907 140.626 76.6513L125.348 133.905H132.447C135.019 133.905 137.179 134.779 138.928 136.528C140.677 138.278 141.551 140.438 141.551 143.01C141.551 144.451 141.243 145.736 140.626 146.868H152.045V167.393H28.125ZM50.1931 146.868C48.4441 146.868 47.5696 147.742 47.5696 149.492C47.5696 151.24 48.4441 152.115 50.1931 152.115H129.823C131.572 152.115 132.447 151.24 132.447 149.492C132.447 147.742 131.572 146.868 129.823 146.868H50.1931ZM95.1007 133.905V94.0899H110.687V83.9047H95.1007V68.4726H85.5326V83.9047H69.4834V94.0899H85.5326V133.905H95.1007Z" fill="#041C32" />
    <path d="M50.1929 146.868C48.4439 146.868 47.5695 147.742 47.5695 149.492C47.5695 151.24 48.4439 152.115 50.1929 152.115H129.823C131.572 152.115 132.446 151.24 132.446 149.492C132.446 147.742 131.572 146.868 129.823 146.868H50.1929ZM95.1008 133.905V94.0899H110.687V83.9047H95.1008V68.4725H85.5326V83.9047H69.4834V94.0899H85.5326V133.905H95.1008Z" fill="#2F7A9C" />
  </g>
  <g id="bk" fill="none" transform="scale(0.2222222222222222 0.2222222222222222)">
    <path d="M90.1626 63.3797C92.7343 63.3797 94.0207 62.0426 94.0207 59.3674C94.0207 56.7956 92.7343 55.5094 90.1626 55.5094C87.5903 55.5094 86.3044 56.7956 86.3044 59.3674C86.3044 62.0426 87.5903 63.3797 90.1626 63.3797ZM101.737 33.75L95.2549 54.2748L115.934 49.1822V69.7072L95.2549 64.6144L101.737 85.1394H78.5886L85.0697 64.6144L64.3905 70.9414V47.7933L85.0697 54.2748L78.5886 33.75H101.737ZM97.8784 87.7629C120.512 86.8365 138.671 82.2071 152.354 73.8737L132.91 133.905C135.379 133.905 137.488 134.831 139.237 136.683C140.986 138.432 141.86 140.541 141.86 143.01C141.86 144.451 141.551 145.736 140.934 146.868H152.354V167.393H28.2793V146.868H39.5448C39.0304 145.736 38.7732 144.451 38.7732 143.01C38.7732 140.541 39.6477 138.432 41.3967 136.683C43.1457 134.831 45.2548 133.905 47.7239 133.905L28.125 73.8737C41.8082 82.2071 59.9152 86.8365 82.4462 87.7629V85.1394H87.5391V133.905H92.6314V85.1394H97.8784V87.7629ZM50.3473 146.868C48.5984 146.868 47.7239 147.742 47.7239 149.492C47.7239 151.24 48.5984 152.115 50.3473 152.115H129.977C131.726 152.115 132.601 151.24 132.601 149.492C132.601 147.742 131.726 146.868 129.977 146.868H50.3473Z" fill="#041C32" />
    <path d="M90.162 63.3797C92.7343 63.3797 94.0202 62.0426 94.0202 59.3674C94.0202 56.7956 92.7343 55.5095 90.162 55.5095C87.5902 55.5095 86.3038 56.7956 86.3038 59.3674C86.3038 62.0426 87.5902 63.3797 90.162 63.3797ZM50.3471 146.868C48.5981 146.868 47.7236 147.743 47.7236 149.492C47.7236 151.241 48.5981 152.115 50.3471 152.115H129.977C131.726 152.115 132.601 151.241 132.601 149.492C132.601 147.743 131.726 146.868 129.977 146.868H50.3471Z" fill="#2F7A9C" />
    <path d="M87.5385 85.1394V133.905H92.6314V85.1394H87.5385Z" fill="#2F7A9C" />
  </g>
  <g id="bn" fill="none" transform="scale(0.2222222222222222 0.2222222222222222)">
    <path d="M133.836 135.911C138.877 136.734 141.397 139.769 141.397 145.016C141.397 146.353 141.14 147.639 140.626 148.874H151.737V169.399H28.125V148.874H39.3905C38.8761 147.742 38.6189 146.456 38.6189 145.016C38.6189 142.547 39.4934 140.438 41.2424 138.689C42.9914 136.837 45.1004 135.911 47.5696 135.911H57.9094C60.9958 124.491 66.8081 116.004 75.3474 110.448C79.0515 107.259 81.9833 104.635 84.1438 102.578C87.7449 98.9769 90.2138 95.9417 91.5514 93.4729C85.9956 96.9705 81.1091 100.366 76.8909 103.658C72.3639 107.156 68.2487 111.477 64.5452 116.621C61.9729 120.222 58.5264 122.022 54.2054 122.022C53.4853 122.022 52.7136 121.971 51.8906 121.868C51.5819 121.251 50.9132 120.479 49.8844 119.553C49.1642 119.861 48.084 119.964 46.6437 119.861C42.5284 117.599 40.0078 115.952 39.0819 114.923C37.5387 113.174 36.7156 110.345 36.6127 106.436C36.5099 101.703 37.9502 97.0223 40.9337 92.3923C43.0943 88.9971 47.3638 81.4354 53.7424 69.7072C59.0923 59.8303 63.5164 52.6287 67.014 48.102C66.1911 44.3982 65.8311 41.0032 65.934 37.9167C68.6087 39.3571 71.2839 41.2089 73.9586 43.4723C74.0616 43.3694 74.2674 43.2665 74.5757 43.1637C76.9421 42.2377 79.5144 41.4146 82.2921 40.6945C82.0862 39.8714 82.035 38.7912 82.1379 37.4537L82.2921 33.75C85.2756 35.3961 88.2591 37.4537 91.2426 39.9229C99.1648 40.3344 107.344 44.2439 115.78 51.6513C122.262 58.9562 127.2 68.4726 130.595 80.2007C133.579 90.4888 135.07 101.24 135.07 112.454C135.07 123.668 134.659 131.487 133.836 135.911ZM70.8722 66.9291L69.3293 69.5526C68.5058 70.5814 67.6316 71.4561 66.7057 72.1761L65.934 71.0961C65.214 68.6267 65.9852 67.0838 68.2487 66.4661C69.1746 66.2603 70.0492 66.4149 70.8722 66.9291ZM64.6993 65.2314C63.0534 67.5979 62.2299 69.5014 62.2299 70.9414C62.2299 72.8961 63.1558 73.8737 65.0081 73.8737C66.5511 73.8737 68.4028 72.3819 70.5634 69.3984C72.2098 67.1349 73.0327 65.2314 73.0327 63.6885C73.0327 61.7338 72.1069 60.7562 70.2551 60.7562C68.6087 60.7562 66.7569 62.2479 64.6993 65.2314ZM56.52 114.306C59.2982 110.088 61.7158 107.207 63.7734 105.664C63.7734 103.709 63.4134 102.578 62.6929 102.269C60.6353 101.343 57.2406 104.532 52.5079 111.837C51.1704 113.791 51.2219 115.18 52.6622 116.004C53.9997 116.724 55.2857 116.158 56.52 114.306ZM50.3473 106.282C50.3473 104.224 49.3185 103.195 47.2609 103.195C46.2321 103.195 45.049 103.761 43.7115 104.892C42.477 106.024 41.8597 107.104 41.8597 108.133C41.8597 108.853 42.1683 109.522 42.7856 110.139C43.4029 110.036 44.2259 110.191 45.2548 110.602C45.4605 111.117 45.7692 111.374 46.1807 111.374C46.5922 111.374 47.261 110.963 48.1869 110.139C49.6272 108.699 50.3473 107.413 50.3473 106.282ZM50.1931 148.874C48.4441 148.874 47.5696 149.749 47.5696 151.498C47.5696 153.144 48.4441 153.967 50.1931 153.967H129.823C131.572 153.967 132.447 153.144 132.447 151.498C132.447 149.749 131.572 148.874 129.823 148.874H50.1931Z" fill="#041C32" />
    <path d="M70.8722 66.9291L69.3287 69.5526C68.5058 70.5814 67.6316 71.4561 66.7052 72.1761L65.934 71.0961C65.2134 68.6267 65.9852 67.0838 68.2487 66.4661C69.1746 66.2603 70.0492 66.4149 70.8722 66.9291ZM64.6993 65.2314C63.0534 67.5979 62.2299 69.5014 62.2299 70.9414C62.2299 72.8966 63.1558 73.8737 65.0081 73.8737C66.5511 73.8737 68.4028 72.3819 70.5634 69.3984C72.2098 67.1349 73.0327 65.2314 73.0327 63.6885C73.0327 61.7338 72.1069 60.7562 70.2551 60.7562C68.6087 60.7562 66.7569 62.2479 64.6993 65.2314ZM56.52 114.306C59.2982 110.088 61.7158 107.207 63.7734 105.664C63.7734 103.709 63.4134 102.578 62.6929 102.269C60.6353 101.343 57.2406 104.532 52.5079 111.837C51.1704 113.792 51.2218 115.18 52.6621 116.004C53.9996 116.724 55.2857 116.158 56.52 114.306ZM50.3473 106.282C50.3473 104.224 49.3185 103.195 47.2609 103.195C46.232 103.195 45.0489 103.761 43.7115 104.892C42.4769 106.024 41.8596 107.105 41.8596 108.133C41.8596 108.853 42.1683 109.522 42.7855 110.139C43.4028 110.036 44.2259 110.191 45.2547 110.602C45.4605 111.117 45.7691 111.374 46.1806 111.374C46.5922 111.374 47.2609 110.963 48.1868 110.139C49.6272 108.699 50.3473 107.413 50.3473 106.282ZM50.193 148.874C48.444 148.874 47.5696 149.749 47.5696 151.498C47.5696 153.144 48.444 153.967 50.193 153.967H129.823C131.572 153.967 132.447 153.144 132.447 151.498C132.447 149.749 131.572 148.874 129.823 148.874H50.193Z" fill="#2F7A9C" />
  </g>
  <g id="bp" fill="none" transform="scale(0.2222222222222222 0.2222222222222222)">
    <path d="M93.7119 49.9383C97.0043 50.7614 99.7819 52.4075 102.045 54.8766C104.309 57.3458 105.44 60.1751 105.44 63.3645C105.44 68.3027 103.074 72.1609 98.3419 74.9385C99.8848 84.9178 103.177 95.0518 108.218 105.34C114.7 118.612 122.827 129.363 132.601 137.593C135.07 137.593 137.179 138.519 138.929 140.371C140.677 142.12 141.552 144.229 141.552 146.698C141.552 148.138 141.243 149.425 140.626 150.557H152.045V171.081H28.125V150.557H39.3906C38.8762 149.425 38.6189 148.138 38.6189 146.698C38.6189 144.229 39.4935 142.12 41.2424 140.371C42.9914 138.519 45.1004 137.593 47.5696 137.593C57.3435 129.363 65.4711 118.612 71.9528 105.34C76.8909 95.2577 80.1315 85.1237 81.675 74.9385C76.9421 72.2638 74.5763 68.4056 74.5763 63.3645C74.5763 60.0722 75.7074 57.2428 77.9709 54.8766C80.2344 52.4075 83.0121 50.7614 86.3044 49.9383C86.2014 49.6297 86.1503 49.2696 86.1503 48.8581C86.1503 46.286 87.4361 45 90.0084 45C92.5802 45 93.8661 46.286 93.8661 48.8581C93.8661 49.2696 93.8149 49.6297 93.7119 49.9383ZM50.1931 150.557C48.4441 150.557 47.5696 151.431 47.5696 153.179C47.5696 154.929 48.4441 155.803 50.1931 155.803H129.823C131.572 155.803 132.447 154.929 132.447 153.179C132.447 151.431 131.572 150.557 129.823 150.557H50.1931Z" fill="#041C32" />
    <path d="M50.1933 150.556C48.4443 150.556 47.5698 151.431 47.5698 153.179C47.5698 154.929 48.4443 155.803 50.1933 155.803H129.823C131.573 155.803 132.447 154.929 132.447 153.179C132.447 151.431 131.573 150.556 129.823 150.556H50.1933Z" fill="#2F7A9C" />
  </g>
  <g id="bq" fill="none" transform="scale(0.2222222222222222 0.2222222222222222)">
    <path d="M27.5927 167.393V146.868H38.8582C38.3438 145.736 38.0865 144.451 38.0865 143.01C38.0865 140.541 38.961 138.432 40.71 136.683C42.459 134.831 44.5681 133.905 47.0372 133.905L35.3087 101.96C34.2799 102.269 33.4569 102.423 32.8396 102.423C29.9589 102.423 27.4898 101.446 25.4321 99.4911C23.4774 97.4334 22.5 94.9646 22.5 92.0835C22.5 89.2029 23.4774 86.7341 25.4321 84.6765C27.4898 82.6189 29.9589 81.5901 32.8396 81.5901C35.7203 81.5901 38.138 82.6189 40.0927 84.6765C42.1503 86.7341 43.1791 89.2029 43.1791 92.0835C43.1791 94.0382 42.6133 95.8387 41.4816 97.4852L61.2349 108.905L81.1423 62.145C76.41 59.1615 74.0436 54.8407 74.0436 49.1822C74.0436 44.8612 75.5353 41.2089 78.5188 38.2254C81.5023 35.2418 85.1546 33.75 89.4758 33.75C93.7969 33.75 97.4492 35.2418 100.433 38.2254C103.519 41.2089 105.062 44.8612 105.062 49.1822C105.062 54.8407 102.696 59.1615 97.9633 62.145L117.717 108.905L137.47 97.4852C136.441 95.7358 135.926 93.9358 135.926 92.0835C135.926 89.2029 136.904 86.7341 138.859 84.6765C140.916 82.6189 143.386 81.5901 146.266 81.5901C149.147 81.5901 151.564 82.6189 153.519 84.6765C155.577 86.7341 156.606 89.2029 156.606 92.0835C156.606 94.9646 155.577 97.4334 153.519 99.4911C151.564 101.446 149.147 102.423 146.266 102.423C145.546 102.423 144.672 102.269 143.643 101.96L131.914 133.905C134.486 133.905 136.595 134.779 138.242 136.528C139.99 138.278 140.865 140.438 140.865 143.01C140.865 144.451 140.608 145.736 140.093 146.868H151.359V167.393H27.5927ZM49.6607 146.868C47.9117 146.868 47.0372 147.742 47.0372 149.492C47.0372 151.24 47.9117 152.115 49.6607 152.115H129.291C131.04 152.115 131.914 151.24 131.914 149.492C131.914 147.742 131.04 146.868 129.291 146.868H49.6607Z" fill="#041C32" />
    <path d="M49.6604 146.868C47.9114 146.868 47.0369 147.742 47.0369 149.492C47.0369 151.24 47.9114 152.115 49.6604 152.115H129.291C131.039 152.115 131.914 151.24 131.914 149.492C131.914 147.742 131.039 146.868 129.291 146.868H49.6604Z" fill="#2F7A9C" />
  </g>
  <g id="br" fill="none" transform="scale(0.2222222222222222 0.2222222222222222)">
    <path d="M50.1931 146.868C48.4441 146.868 47.5696 147.742 47.5696 149.492C47.5696 151.138 48.4441 151.96 50.1931 151.96H129.823C131.572 151.96 132.447 151.138 132.447 149.492C132.447 147.742 131.572 146.868 129.823 146.868H50.1931ZM100.657 33.75V59.3674H121.181V33.75H141.706V85.1394H123.959L132.755 133.905C135.224 133.905 137.333 134.831 139.083 136.683C140.831 138.432 141.706 140.541 141.706 143.01C141.706 144.451 141.397 145.736 140.78 146.868H152.2V167.393H28.125V146.868H39.3905C38.8761 145.736 38.6189 144.451 38.6189 143.01C38.6189 140.438 39.4419 138.278 41.088 136.528C42.837 134.779 44.9975 133.905 47.5696 133.905L56.2116 85.1394H38.6189V33.75H59.1435V59.3674H79.6686V33.75H100.657ZM64.2364 80.0466C62.5905 80.0466 61.767 80.9213 61.767 82.6701C61.767 84.3159 62.5905 85.1394 64.2364 85.1394H115.78C117.426 85.1394 118.249 84.3159 118.249 82.6701C118.249 80.9213 117.426 80.0466 115.78 80.0466H64.2364Z" fill="#041C32" />
    <path d="M50.1929 146.868C48.4439 146.868 47.5695 147.742 47.5695 149.492C47.5695 151.138 48.4439 151.96 50.1929 151.96H129.823C131.572 151.96 132.446 151.138 132.446 149.492C132.446 147.742 131.572 146.868 129.823 146.868H50.1929ZM64.2364 80.0466C62.59 80.0466 61.767 80.9212 61.767 82.6701C61.767 84.3159 62.59 85.1394 64.2364 85.1394H115.78C117.426 85.1394 118.249 84.3159 118.249 82.6701C118.249 80.9212 117.426 80.0466 115.78 80.0466H64.2364Z" fill="#2F7A9C" />
  </g>
  <g id="wb" fill="none" transform="scale(0.2222222222222222 0.2222222222222222)">
    <path d="M97.8784 65.8491V81.2812H113.311V96.7134H97.8784V133.905H119.792L134.453 79.2748C134.864 77.526 134.144 76.2913 132.292 75.5713L91.8602 59.2133L90.0079 59.3674L88.1561 59.2133L47.7239 75.5713C46.6951 75.9831 46.0263 76.5484 45.7177 77.2689C45.5119 77.7831 45.5119 78.4519 45.7177 79.2748L60.3782 133.905H82.2921V96.7134H66.8599V81.2812H82.2921V65.8491H97.8784ZM132.601 146.868C135.173 146.868 136.459 145.582 136.459 143.01C136.459 140.438 135.173 139.152 132.601 139.152H47.5696C44.9975 139.152 43.7115 140.438 43.7115 143.01C43.7115 145.582 44.9975 146.868 47.5696 146.868H132.601ZM146.644 162.3V151.96H33.5263V162.3H146.644ZM90.0079 54.1205C95.2549 54.1205 97.8784 51.5999 97.8784 46.5587C97.8784 41.4147 95.2549 38.8427 90.0079 38.8427C84.8638 38.8427 82.2921 41.4147 82.2921 46.5587C82.2921 51.5999 84.8638 54.1205 90.0079 54.1205ZM28.125 167.393V146.868H39.3905C38.8761 145.736 38.6189 144.451 38.6189 143.01C38.6189 140.541 39.4934 138.432 41.2424 136.683C42.9914 134.831 45.1004 133.905 47.5696 133.905H54.8227L39.5448 76.6513C38.9275 74.4907 39.7506 72.9478 42.014 72.0219L81.5203 56.1267C78.6398 53.5547 77.1992 50.3654 77.1992 46.5587C77.1992 42.9579 78.4339 39.9229 80.9033 37.4537C83.3721 34.9846 86.4073 33.75 90.0079 33.75C93.609 33.75 96.6443 34.9846 99.1131 37.4537C101.582 39.9229 102.817 42.9579 102.817 46.5587C102.817 50.3654 101.377 53.5547 98.496 56.1267L138.002 72.0219C140.369 72.9478 141.243 74.4907 140.626 76.6513L125.348 133.905H132.447C135.019 133.905 137.179 134.779 138.928 136.528C140.677 138.278 141.551 140.438 141.551 143.01C141.551 144.451 141.243 145.736 140.626 146.868H152.045V167.393H28.125ZM92.4772 133.905V91.6206H108.064V86.3736H92.4772V70.9414H87.3849V86.3736H71.9522V91.6206H87.3849V133.905H92.4772Z" fill="#041C32" />
    <path d="M97.8783 65.8491V81.2812H113.311V96.7134H97.8783V133.905H119.792L134.453 79.2748C134.864 77.526 134.144 76.2913 132.292 75.5713L91.8596 59.2132L90.0078 59.3674L88.1561 59.2132L47.7238 75.5713C46.695 75.9825 46.0262 76.5484 45.7176 77.2689C45.5118 77.7831 45.5118 78.4519 45.7176 79.2748L60.3782 133.905H82.292V96.7134H66.8598V81.2812H82.292V65.8491H97.8783ZM132.601 146.868C135.173 146.868 136.459 145.582 136.459 143.01C136.459 140.438 135.173 139.152 132.601 139.152H47.5694C44.9974 139.152 43.7114 140.438 43.7114 143.01C43.7114 145.582 44.9974 146.868 47.5694 146.868H132.601ZM146.644 162.3V151.96H33.5262V162.3H146.644ZM90.0078 54.1205C95.2548 54.1205 97.8783 51.5999 97.8783 46.5587C97.8783 41.4146 95.2548 38.8426 90.0078 38.8426C84.8638 38.8426 82.292 41.4146 82.292 46.5587C82.292 51.5999 84.8638 54.1205 90.0078 54.1205ZM92.4772 133.905V91.6206H108.064V86.3736H92.4772V70.9414H87.3843V86.3736H71.9522V91.6206H87.3843V133.905H92.4772Z" fill="#F2C688" />
  </g>
  <g id="wk" fill="none" transform="scale(0.2222222222222222 0.2222222222222222)">
    <path d="M132.91 146.868C135.482 146.868 136.768 145.582 136.768 143.01C136.768 140.438 135.482 139.152 132.91 139.152H47.7239C45.1519 139.152 43.8658 140.438 43.8658 143.01C43.8658 145.582 45.1519 146.868 47.7239 146.868H132.91ZM146.953 162.3V151.96H33.6806V162.3H146.953ZM97.8784 87.7629C120.512 86.8365 138.671 82.2071 152.354 73.8737L132.91 133.905C135.379 133.905 137.488 134.831 139.237 136.683C140.986 138.432 141.86 140.541 141.86 143.01C141.86 144.451 141.551 145.736 140.934 146.868H152.354V167.393H28.2793V146.868H39.5448C39.0304 145.736 38.7732 144.451 38.7732 143.01C38.7732 140.541 39.6477 138.432 41.3967 136.683C43.1457 134.831 45.2548 133.905 47.7239 133.905L28.125 73.8737C41.8082 82.2071 59.9152 86.8365 82.4462 87.7629V85.1394H87.5391V133.905H92.6314V85.1394H97.8784V87.7629ZM97.8784 93.0099V133.905H127.2L143.404 84.2136C129.926 89.3576 114.751 92.2894 97.8784 93.0099ZM82.4462 93.0099C65.574 92.2894 50.4502 89.3576 37.0757 84.2136L53.2795 133.905H82.4462V93.0099ZM101.737 33.75L95.2549 54.2748L115.934 49.1822V69.7072L95.2549 64.6144L101.737 85.1394H78.5886L85.0697 64.6144L64.3905 70.9414V47.7933L85.0697 54.2748L78.5886 33.75H101.737ZM90.1626 53.6575L94.6378 38.8427H85.6873L90.1626 53.6575ZM90.1626 65.2314L85.6873 80.0466H94.6378L90.1626 65.2314ZM84.2979 59.3674L69.6375 54.8921V63.9973L84.2979 59.3674ZM96.0266 59.3674L110.842 63.9973V54.8921L96.0266 59.3674ZM90.1626 63.3797C92.7343 63.3797 94.0207 62.0426 94.0207 59.3674C94.0207 56.7956 92.7343 55.5094 90.1626 55.5094C87.5903 55.5094 86.3044 56.7956 86.3044 59.3674C86.3044 62.0426 87.5903 63.3797 90.1626 63.3797Z" fill="#041C32" />
    <path d="M132.91 146.868C135.482 146.868 136.768 145.582 136.768 143.01C136.768 140.438 135.482 139.152 132.91 139.152H47.7241C45.1521 139.152 43.8661 140.438 43.8661 143.01C43.8661 145.582 45.1521 146.868 47.7241 146.868H132.91ZM146.953 162.3V151.96H33.6808V162.3H146.953ZM97.8789 93.0094V133.905H127.2L143.404 84.2136C129.926 89.3576 114.751 92.2894 97.8789 93.0094ZM82.4468 93.0094C65.574 92.2894 50.4505 89.3576 37.0759 84.2136L53.2797 133.905H82.4468V93.0094ZM90.1626 53.6575L94.6378 38.8426H85.6873L90.1626 53.6575ZM90.1626 65.2314L85.6873 80.0466H94.6378L90.1626 65.2314ZM84.2985 59.3674L69.6381 54.8921V63.9973L84.2985 59.3674ZM96.0272 59.3674L110.842 63.9973V54.8921L96.0272 59.3674ZM90.1626 63.3797C92.7349 63.3797 94.0208 62.0426 94.0208 59.3674C94.0208 56.7956 92.7349 55.5094 90.1626 55.5094C87.5908 55.5094 86.3044 56.7956 86.3044 59.3674C86.3044 62.0426 87.5908 63.3797 90.1626 63.3797Z" fill="#F2C688" />
    <path d="M87.5391 85.1394V133.905H92.6319V85.1394H87.5391Z" fill="#F2C688" />
  </g>
  <g id="wn" fill="none" transform="scale(0.2222222222222222 0.2222222222222222)">
    <path d="M127.354 135.911C128.486 130.253 129.052 122.434 129.052 112.454C129.052 102.886 127.869 93.3699 125.502 83.9047C122.725 72.7937 118.866 64.1514 113.928 57.9786C109.813 52.8345 104.72 49.1307 98.6501 46.8673C99.0619 47.4846 99.4731 47.9991 99.8848 48.4106C101.325 50.0567 101.634 51.2913 100.811 52.1143C100.194 52.8345 99.6278 53.1946 99.1131 53.1946C98.496 53.1946 97.8784 52.783 97.2613 51.96C95.6149 50.0052 93.969 47.9991 92.3231 45.9415C90.3684 43.6781 88.4132 41.9805 86.4585 40.8488C86.8703 43.5237 87.7961 46.4044 89.2367 49.4908C89.442 50.5196 89.442 51.3942 89.2367 52.1143C88.8249 52.9374 88.1049 53.1431 87.0761 52.7316C86.2532 52.423 85.7385 51.96 85.5326 51.3427C84.5038 49.388 83.835 47.4847 83.5268 45.6328C78.8968 46.6616 75.7074 47.7419 73.9586 48.8735C73.2386 47.639 72.1069 46.713 70.5634 46.0958C70.6663 47.5361 71.0263 49.0278 71.6439 50.5711L70.5634 51.6513C68.7116 55.0464 65.5223 60.8079 60.9958 68.9355L60.3782 70.0155C55.2342 79.0695 50.2445 87.2483 45.4091 94.5529C43.2486 97.7423 42.0654 101.292 41.8597 105.201C41.6539 108.185 42.2197 110.397 43.5572 111.837C44.1745 112.557 46.0778 113.791 49.2671 115.541C54.7198 106.384 58.6806 101.806 61.1499 101.806C61.4588 101.806 61.7158 101.858 61.9217 101.96C62.7446 102.269 63.1558 103.4 63.1558 105.355C60.4811 107.413 57.3435 111.477 53.7424 117.547C55.8001 117.547 57.1888 117.29 57.9094 116.775C58.7323 116.158 60.8929 113.74 64.3905 109.522C69.2263 103.658 75.5021 98.2564 83.2179 93.3182C87.8479 90.3347 91.6543 87.5053 94.6378 84.8306C97.3125 81.8471 99.3189 80.3554 100.657 80.3554C101.788 80.3554 102.354 80.9213 102.354 82.053C102.354 83.3901 101.068 85.4477 98.496 88.2259C96.6437 93.3699 94.4837 97.6393 92.0143 101.035C89.7508 104.018 86.3561 107.362 81.8291 111.065C73.2898 116.312 67.0658 124.594 63.1558 135.911H127.354ZM49.7301 108.75C48.3926 110.294 47.4667 110.551 46.9523 109.522C46.8494 109.316 46.4893 109.265 45.872 109.368C45.5634 109.47 45.3062 109.522 45.1004 109.522C44.8946 109.522 44.7918 109.47 44.7918 109.368C44.1745 108.75 43.8658 108.133 43.8658 107.516C43.8658 106.487 44.3803 105.458 45.4091 104.429C47.1581 102.578 48.8041 102.372 50.3473 103.812C51.6848 105.047 51.479 106.693 49.7301 108.75ZM47.5696 141.158C44.9975 141.158 43.7115 142.444 43.7115 145.016C43.7115 147.588 44.9975 148.874 47.5696 148.874H132.447C135.019 148.874 136.304 147.588 136.304 145.016C136.304 142.444 135.019 141.158 132.447 141.158H47.5696ZM133.836 135.911C138.877 136.734 141.397 139.769 141.397 145.016C141.397 146.353 141.14 147.639 140.626 148.874H151.737V169.399H28.125V148.874H39.3905C38.8761 147.742 38.6189 146.456 38.6189 145.016C38.6189 142.547 39.4934 140.438 41.2424 138.689C42.9914 136.837 45.1004 135.911 47.5696 135.911H57.9094C60.9958 124.491 66.8081 116.004 75.3474 110.448C79.0515 107.259 81.9833 104.635 84.1438 102.578C87.7449 98.9769 90.2138 95.9417 91.5514 93.4729C85.9956 96.9705 81.1091 100.366 76.8909 103.658C72.3639 107.156 68.2487 111.477 64.5452 116.621C61.9729 120.222 58.5264 122.022 54.2054 122.022C53.4853 122.022 52.7136 121.971 51.8906 121.868C51.5819 121.251 50.9132 120.479 49.8844 119.553C49.1642 119.861 48.084 119.964 46.6437 119.861C42.5284 117.599 40.0078 115.952 39.0819 114.923C37.5387 113.174 36.7156 110.345 36.6127 106.436C36.5099 101.703 37.9502 97.0223 40.9337 92.3923C43.0943 88.9971 47.3638 81.4354 53.7424 69.7072C59.0923 59.8303 63.5164 52.6287 67.014 48.102C66.1911 44.3982 65.8311 41.0031 65.934 37.9167C68.6087 39.357 71.2839 41.2089 73.9586 43.4723C74.0616 43.3694 74.2674 43.2665 74.5757 43.1636C76.9421 42.2377 79.5144 41.4146 82.2921 40.6945C82.0862 39.8714 82.035 38.7912 82.1379 37.4537L82.2921 33.75C85.2756 35.3961 88.2591 37.4537 91.2426 39.9229C99.1648 40.3344 107.344 44.2439 115.78 51.6513C122.262 58.9556 127.2 68.4726 130.595 80.2007C133.579 90.4888 135.07 101.24 135.07 112.454C135.07 123.668 134.659 131.487 133.836 135.911ZM66.7057 64.9232C68.7634 61.9397 70.6151 60.4479 72.261 60.4479C74.1128 60.4479 75.0386 61.3738 75.0386 63.2256C75.0386 64.7685 74.2157 66.672 72.5698 68.9355C70.4093 71.919 68.5575 73.4108 67.014 73.4108C65.1622 73.4108 64.2364 72.4331 64.2364 70.4784C64.2364 69.1414 65.0593 67.2891 66.7057 64.9232ZM72.1069 67.2379C71.4893 66.8261 70.8722 66.7232 70.2551 66.9291C68.8146 67.3408 68.3004 68.3696 68.7116 70.0155C68.7116 70.0155 68.8657 70.2214 69.1746 70.6331C69.8946 70.2214 70.5122 69.6555 71.0263 68.9355C71.2322 68.7296 71.5922 68.1637 72.1069 67.2379ZM33.5263 153.967V164.306H146.644V153.967H33.5263Z" fill="#041C32" />
    <path d="M127.354 135.911C128.486 130.252 129.052 122.434 129.052 112.454C129.052 102.886 127.869 93.3699 125.502 83.9047C122.725 72.7937 118.866 64.1514 113.928 57.9786C109.813 52.8345 104.721 49.1308 98.6501 46.8674C99.0618 47.4847 99.4736 47.9991 99.8848 48.4106C101.325 50.0567 101.634 51.2913 100.811 52.1143C100.194 52.8345 99.6277 53.1946 99.113 53.1946C98.496 53.1946 97.8789 52.783 97.2613 51.96C95.6154 50.0052 93.969 47.9991 92.3231 45.9414C90.3684 43.6781 88.4137 41.9805 86.459 40.8488C86.8702 43.5237 87.7961 46.4044 89.2367 49.4908C89.4425 50.5196 89.4425 51.3942 89.2367 52.1143C88.8249 52.9374 88.1049 53.1431 87.0761 52.7316C86.2532 52.423 85.7385 51.96 85.5332 51.3427C84.5043 49.3879 83.8355 47.4847 83.5267 45.6328C78.8973 46.6616 75.708 47.7418 73.9586 48.8735C73.2386 47.639 72.1068 46.713 70.5639 46.0957C70.6668 47.5361 71.0268 49.0279 71.6439 50.5711L70.5639 51.6513C68.7116 55.0464 65.5228 60.8079 60.9958 68.9355L60.3787 70.0155C55.2344 79.0695 50.2447 87.2482 45.4092 94.5529C43.2487 97.7422 42.0656 101.292 41.8598 105.201C41.6541 108.184 42.2199 110.397 43.5574 111.837C44.1747 112.557 46.078 113.791 49.2673 115.541C54.72 106.384 58.6811 101.806 61.1499 101.806C61.4587 101.806 61.7158 101.857 61.9217 101.96C62.7446 102.269 63.1563 103.4 63.1563 105.356C60.4811 107.413 57.3435 111.477 53.7426 117.547C55.8003 117.547 57.1893 117.29 57.9093 116.775C58.7323 116.158 60.8928 113.74 64.391 109.522C69.2263 103.658 75.5021 98.2564 83.2179 93.3182C87.8478 90.3347 91.6543 87.5053 94.6378 84.8306C97.313 81.8471 99.3189 80.3554 100.657 80.3554C101.788 80.3554 102.354 80.9212 102.354 82.053C102.354 83.3901 101.068 85.4477 98.496 88.2259C96.6442 93.3699 94.4837 97.6393 92.0143 101.035C89.7514 104.018 86.3561 107.362 81.8291 111.065C73.2903 116.312 67.0657 124.594 63.1563 135.911H127.354ZM49.7303 108.75C48.3928 110.294 47.4669 110.551 46.9525 109.522C46.8496 109.316 46.4895 109.265 45.8722 109.368C45.5636 109.471 45.3064 109.522 45.1006 109.522C44.8948 109.522 44.792 109.471 44.792 109.368C44.1747 108.75 43.866 108.133 43.866 107.516C43.866 106.487 44.3804 105.458 45.4092 104.429C47.1582 102.577 48.8043 102.372 50.3475 103.812C51.685 105.047 51.4792 106.693 49.7303 108.75ZM47.5698 141.158C44.9977 141.158 43.7117 142.444 43.7117 145.016C43.7117 147.588 44.9977 148.874 47.5698 148.874H132.447C135.019 148.874 136.305 147.588 136.305 145.016C136.305 142.444 135.019 141.158 132.447 141.158H47.5698ZM66.7057 64.9232C68.7633 61.9397 70.6151 60.4479 72.2615 60.4479C74.1133 60.4479 75.0392 61.3738 75.0392 63.2256C75.0392 64.7685 74.2162 66.672 72.5698 68.9355C70.4092 71.919 68.5575 73.4107 67.0145 73.4107C65.1622 73.4107 64.2363 72.4331 64.2363 70.4784C64.2363 69.1414 65.0598 67.2891 66.7057 64.9232ZM72.1068 67.2379C71.4898 66.8261 70.8722 66.7237 70.2551 66.9291C68.8145 67.3408 68.3004 68.3696 68.7122 70.0155C68.7122 70.0155 68.8663 70.2214 69.1751 70.6331C69.8951 70.2214 70.5122 69.6555 71.0268 68.9355C71.2327 68.7296 71.5927 68.1637 72.1068 67.2379ZM33.5265 153.967V164.306H146.644V153.967H33.5265Z" fill="#F2C688" />
  </g>
  <g id="wp" fill="none" transform="scale(0.2222222222222222 0.2222222222222222)">
    <path d="M146.644 165.989V155.649H33.5263V165.989H146.644ZM132.601 150.556C135.173 150.556 136.459 149.27 136.459 146.698C136.459 144.126 135.173 142.84 132.601 142.84H47.5696C44.9975 142.84 43.7116 144.126 43.7116 146.698C43.7116 149.27 44.9975 150.556 47.5696 150.556H132.601ZM90.0084 72.6238C92.6831 72.6238 95.0496 71.7491 97.1072 70.0003C99.1648 68.2509 100.194 66.0392 100.194 63.3645C100.194 60.7922 99.1648 58.6316 97.1072 56.8828C95.0496 55.1338 92.6831 54.2593 90.0084 54.2593C87.3332 54.2593 84.9667 55.1338 82.9091 56.8828C80.8515 58.5287 79.8227 60.6893 79.8227 63.3645C79.8227 66.0392 80.8003 68.2509 82.755 70.0003C84.8126 71.7491 87.2302 72.6238 90.0084 72.6238ZM93.7119 76.7902C92.6831 77.0991 91.4484 77.2532 90.0084 77.2532C88.6708 77.2532 87.4361 77.0991 86.3044 76.7902C84.5556 87.7984 80.9032 98.7553 75.3474 109.661C69.7922 120.566 63.0534 129.877 55.1314 137.593H125.039C117.221 129.98 110.482 120.618 104.823 109.506C99.2678 98.7041 95.5637 87.7984 93.7119 76.7902ZM93.7119 49.9383C97.0043 50.7614 99.7819 52.4075 102.045 54.8766C104.309 57.3458 105.44 60.1751 105.44 63.3645C105.44 68.3027 103.074 72.1609 98.3419 74.9385C99.8848 84.9178 103.177 95.0518 108.218 105.34C114.7 118.612 122.827 129.363 132.601 137.593C135.07 137.593 137.179 138.519 138.929 140.371C140.677 142.12 141.552 144.229 141.552 146.698C141.552 148.138 141.243 149.425 140.626 150.556H152.045V171.081H28.125V150.556H39.3906C38.8762 149.425 38.6189 148.138 38.6189 146.698C38.6189 144.229 39.4935 142.12 41.2424 140.371C42.9914 138.519 45.1004 137.593 47.5696 137.593C57.3435 129.363 65.4711 118.612 71.9528 105.34C76.8909 95.2577 80.1315 85.1237 81.675 74.9385C76.9421 72.2638 74.5763 68.4056 74.5763 63.3645C74.5763 60.0722 75.7074 57.2428 77.9709 54.8766C80.2344 52.4075 83.0121 50.7614 86.3044 49.9383C86.2014 49.6297 86.1503 49.2695 86.1503 48.858C86.1503 46.286 87.4361 45 90.0084 45C92.5802 45 93.8661 46.286 93.8661 48.858C93.8661 49.2695 93.8149 49.6297 93.7119 49.9383Z" fill="#041C32" />
    <path d="M146.644 165.988V155.649H33.5265V165.988H146.644ZM132.601 150.556C135.173 150.556 136.459 149.27 136.459 146.698C136.459 144.126 135.173 142.84 132.601 142.84H47.5697C44.9977 142.84 43.7117 144.126 43.7117 146.698C43.7117 149.27 44.9977 150.556 47.5697 150.556H132.601ZM90.0084 72.6238C92.6831 72.6238 95.0495 71.7491 97.1072 70.0003C99.1648 68.2509 100.194 66.0392 100.194 63.3645C100.194 60.7922 99.1648 58.6316 97.1072 56.8828C95.0495 55.1337 92.6831 54.2592 90.0084 54.2592C87.3332 54.2592 84.9673 55.1337 82.9097 56.8828C80.852 58.5287 79.8232 60.6892 79.8232 63.3645C79.8232 66.0392 80.8003 68.2509 82.755 70.0003C84.8126 71.7491 87.2308 72.6238 90.0084 72.6238ZM93.7119 76.7902C92.6831 77.0991 91.4484 77.2532 90.0084 77.2532C88.6708 77.2532 87.4361 77.0991 86.3043 76.7902C84.5555 87.7984 80.9032 98.7553 75.348 109.661C69.7922 120.566 63.0534 129.877 55.1316 137.593H125.039C117.22 129.98 110.482 120.617 104.823 109.506C99.2677 98.7041 95.5637 87.7984 93.7119 76.7902Z" fill="#F2C688" />
  </g>
  <g id="wq" fill="none" transform="scale(0.2222222222222222 0.2222222222222222)">
    <path d="M146.266 97.1764C149.662 97.1764 151.359 95.4787 151.359 92.0835C151.359 88.5859 149.662 86.8365 146.266 86.8365C142.768 86.8365 141.019 88.5859 141.019 92.0835C141.019 95.4787 142.768 97.1764 146.266 97.1764ZM32.8396 97.1764C36.2347 97.1764 37.9322 95.4787 37.9322 92.0835C37.9322 88.5859 36.2347 86.8365 32.8396 86.8365C29.3416 86.8365 27.5927 88.5859 27.5927 92.0835C27.5927 95.4787 29.3416 97.1764 32.8396 97.1764ZM27.5927 167.393V146.868H38.8582C38.3438 145.736 38.0865 144.451 38.0865 143.01C38.0865 140.541 38.961 138.432 40.71 136.683C42.459 134.831 44.5681 133.905 47.0372 133.905L35.3087 101.96C34.2799 102.269 33.4569 102.423 32.8396 102.423C29.9589 102.423 27.4898 101.446 25.4321 99.4911C23.4774 97.4334 22.5 94.9646 22.5 92.0835C22.5 89.2029 23.4774 86.7341 25.4321 84.6765C27.4898 82.6189 29.9589 81.5901 32.8396 81.5901C35.7203 81.5901 38.138 82.6189 40.0927 84.6765C42.1503 86.7341 43.1791 89.2029 43.1791 92.0835C43.1791 94.0387 42.6133 95.8387 41.4816 97.4852L61.2349 108.905L81.1423 62.145C76.41 59.1615 74.0436 54.8407 74.0436 49.1822C74.0436 44.8612 75.5353 41.2089 78.5188 38.2254C81.5023 35.2418 85.1546 33.75 89.4758 33.75C93.7969 33.75 97.4492 35.2418 100.433 38.2254C103.519 41.2089 105.062 44.8612 105.062 49.1822C105.062 54.8407 102.696 59.1615 97.9633 62.145L117.717 108.905L137.47 97.4852C136.441 95.7358 135.926 93.9358 135.926 92.0835C135.926 89.2029 136.904 86.7341 138.859 84.6765C140.916 82.6189 143.386 81.5901 146.266 81.5901C149.147 81.5901 151.564 82.6189 153.519 84.6765C155.577 86.7341 156.606 89.2029 156.606 92.0835C156.606 94.9646 155.577 97.4334 153.519 99.4911C151.564 101.446 149.147 102.423 146.266 102.423C145.546 102.423 144.672 102.269 143.643 101.96L131.914 133.905C134.486 133.905 136.595 134.779 138.242 136.528C139.99 138.278 140.865 140.438 140.865 143.01C140.865 144.451 140.608 145.736 140.093 146.868H151.359V167.393H27.5927ZM126.359 133.905L137.316 103.812L115.093 116.467L92.871 64.1514C91.9451 64.4603 90.8134 64.6144 89.4758 64.6144C88.1381 64.6144 87.0064 64.4603 86.0805 64.1514L63.8584 116.467L41.7903 103.812L52.5928 133.905H126.359ZM132.069 146.868C134.641 146.868 135.926 145.582 135.926 143.01C135.926 140.438 134.641 139.152 132.069 139.152H47.0372C44.4652 139.152 43.1791 140.438 43.1791 143.01C43.1791 145.582 44.4652 146.868 47.0372 146.868H132.069ZM146.112 162.3V151.96H32.9939V162.3H146.112ZM89.4758 59.5221C92.3563 59.5221 94.7739 58.5444 96.7286 56.5898C98.7862 54.5321 99.8151 52.0629 99.8151 49.1822C99.8151 46.3015 98.7862 43.8838 96.7286 41.9291C94.7739 39.8715 92.3563 38.8427 89.4758 38.8427C86.5952 38.8427 84.1258 39.8715 82.0682 41.9291C80.1135 43.8838 79.1364 46.3015 79.1364 49.1822C79.1364 52.0629 80.1135 54.5321 82.0682 56.5898C84.1258 58.5444 86.5952 59.5221 89.4758 59.5221Z" fill="#041C32" />
    <path d="M146.266 97.1764C149.661 97.1764 151.359 95.4787 151.359 92.0835C151.359 88.5859 149.661 86.8365 146.266 86.8365C142.768 86.8365 141.019 88.5859 141.019 92.0835C141.019 95.4787 142.768 97.1764 146.266 97.1764ZM32.8392 97.1764C36.2342 97.1764 37.9318 95.4787 37.9318 92.0835C37.9318 88.5859 36.2342 86.8365 32.8392 86.8365C29.3412 86.8365 27.5922 88.5859 27.5922 92.0835C27.5922 95.4787 29.3412 97.1764 32.8392 97.1764ZM126.358 133.905L137.315 103.812L115.093 116.467L92.8705 64.1514C91.9446 64.4602 90.8128 64.6144 89.4752 64.6144C88.1376 64.6144 87.0064 64.4602 86.08 64.1514L63.8578 116.467L41.7898 103.812L52.5924 133.905H126.358ZM132.068 146.868C134.64 146.868 135.926 145.582 135.926 143.01C135.926 140.438 134.64 139.152 132.068 139.152H47.0368C44.4647 139.152 43.1787 140.438 43.1787 143.01C43.1787 145.582 44.4647 146.868 47.0368 146.868H132.068ZM146.112 162.3V151.96H32.9935V162.3H146.112ZM89.4752 59.5215C92.3558 59.5215 94.774 58.5444 96.7286 56.5897C98.7863 54.532 99.8151 52.0629 99.8151 49.1822C99.8151 46.3015 98.7863 43.8838 96.7286 41.929C94.774 39.8714 92.3558 38.8426 89.4752 38.8426C86.5946 38.8426 84.1253 39.8714 82.0676 41.929C80.113 43.8838 79.1359 46.3015 79.1359 49.1822C79.1359 52.0629 80.113 54.532 82.0676 56.5897C84.1253 58.5444 86.5946 59.5215 89.4752 59.5215Z" fill="#F2C688" />
  </g>
  <g id="wr" fill="none" transform="scale(0.2222222222222222 0.2222222222222222)">
    <path d="M136.304 80.0466V38.8427H122.107V64.6144H97.7242V38.8427H82.2921V64.6144H57.9094V38.8427H43.7115V80.0466H136.304ZM132.447 146.868C135.019 146.868 136.304 145.582 136.304 143.01C136.304 140.438 135.019 139.152 132.447 139.152H47.5696C44.9975 139.152 43.7115 140.438 43.7115 143.01C43.7115 145.582 44.9975 146.868 47.5696 146.868H132.447ZM146.49 162.3V151.96H33.5263V162.3H146.49ZM28.125 167.393V146.868H39.3905C38.8761 145.736 38.6189 144.451 38.6189 143.01C38.6189 140.438 39.4419 138.278 41.088 136.528C42.837 134.779 44.9975 133.905 47.5696 133.905L56.2116 85.1394H38.6189V33.75H63.0017V59.3674H77.1992V33.75H102.817V59.3674H117.015V33.75H141.397V85.1394H123.805L132.447 133.905C134.916 133.905 137.025 134.831 138.774 136.683C140.523 138.432 141.397 140.541 141.397 143.01C141.397 144.451 141.089 145.736 140.471 146.868H151.891V167.393H28.125ZM126.891 133.905L118.249 85.1394H61.6129L52.9708 133.905H126.891Z" fill="#041C32" />
    <path d="M136.304 80.0466V38.8426H122.107V64.6144H97.7242V38.8426H82.292V64.6144H57.9088V38.8426H43.7114V80.0466H136.304ZM132.447 146.868C135.019 146.868 136.304 145.582 136.304 143.01C136.304 140.438 135.019 139.152 132.447 139.152H47.5694C44.9974 139.152 43.7114 140.438 43.7114 143.01C43.7114 145.582 44.9974 146.868 47.5694 146.868H132.447ZM146.49 162.3V151.96H33.5262V162.3H146.49ZM126.891 133.905L118.249 85.1394H61.6128L52.9707 133.905H126.891Z" fill="#F2C688" />
  </g>
</svg>