<svg xmlns:ns0="http://www.inkscape.org/namespaces/inkscape" xmlns:ns1="http://sodipodi.sourceforge.net/DTD/sodipodi-0.dtd" xmlns="http://www.w3.org/2000/svg" width="40" height="40" viewbox="0.0 0.0 50.0 50.0">
  <g id="bb" transform="scale(0.8 0.8)">
    <metadata id="bbmetadata18" />
    <defs id="bbdefs16" />
    <namedview pagecolor="#ffffff" bordercolor="#666666" borderopacity="1" objecttolerance="10" gridtolerance="10" guidetolerance="10" ns0:pageopacity="0" ns0:pageshadow="2" ns0:window-width="1244" ns0:window-height="755" id="bbnamedview14" showgrid="false" ns0:zoom="9.44" ns0:cx="24.576724" ns0:cy="20.29998" ns0:window-x="-98" ns0:window-y="168" ns0:window-maximized="0" ns0:current-layer="svg12" />
    <path ns1:nodetypes="ccccccccccccccccccccccccsccccc" style="fill:#191919;stroke:#ffffff;stroke-width:0.50010419;stroke-linecap:round;stroke-linejoin:round;stroke-dashoffset:1.85196841" ns0:connector-curvature="0" id="bbpath2" d="m 24.794629,5.2351807 c -1.240286,-0.022755 -2.221562,1.3490529 -1.816621,2.5150334 0.05714,0.3237503 0.337565,0.6108969 0.352882,0.9119674 -0.686376,1.4763875 -1.897084,2.6130485 -3.09814,3.6756965 -2.774621,2.649641 -5.543533,5.310584 -8.177479,8.100388 -1.99582,2.251791 -4.0339954,4.656035 -4.8683366,7.60549 -0.3434629,1.398055 -0.263455,2.975035 0.612143,4.174144 1.3077581,1.850686 3.4875726,2.805365 5.5667946,3.523461 2.395273,0.82405 4.922604,1.192333 7.399858,1.621676 -0.02291,0.268759 -0.351116,0.472972 -0.490315,0.70112 -2.574746,4.208262 -7.926677,3.594378 -11.7558567,4.580465 -1.1948252,0.355108 -2.3663054,0.941337 -3.2370832,1.843977 -0.1574598,0.273429 0.2996717,0.203921 0.4461361,0.211806 6.0176918,-0.02935 12.1443038,0.463752 17.2725868,-2.015455 1.161396,-0.595877 1.456243,-1.888656 2.38447,-1.093946 0.857555,1.038966 2.20729,1.482895 3.437364,1.916363 5.135092,1.65667 10.904329,1.184366 15.780648,1.226873 0.197978,-0.218608 -0.361651,-0.440481 -0.497704,-0.640633 -1.625171,-1.376237 -3.800125,-1.75944 -5.852953,-2.001509 -4.332621,-0.226058 -6.40027,-1.505253 -8.951966,-4.295849 -0.0655,-0.125854 -0.351202,-0.287608 -0.297259,-0.417738 3.341252,-0.562269 6.763009,-1.106058 9.835492,-2.612348 1.697005,-0.836581 3.387008,-2.147105 3.847572,-4.072025 C 43.15487,28.758415 42.432474,26.735626 41.464608,25.091873 40.327825,23.732442 40.083712,23.044771 38.93522,21.607985 37.272328,19.527673 35.678395,18.049696 34.200136,16.629971 32.299788,14.804865 30.483059,13.19935 28.735902,11.430659 27.896852,10.581274 26.926455,9.6596149 26.404687,8.5167764 26.85099,7.8055978 26.98769,6.8344864 26.461754,6.1251558 26.112006,5.5539782 25.468177,5.2005216 24.794629,5.2351807 Z" />
    <path ns1:nodetypes="cccccccccccccccccccc" style="opacity:0.03999999;fill:#ffffff;stroke-width:0.01054545" ns0:connector-curvature="0" id="bbpath4" d="m 25.162085,12.809075 c -4.83026,0.207127 -26.8654542,20.217888 -5.62029,22.126335 2.04363,0.131522 4.057562,0.18557 5.98109,0.152134 h 5.38e-4 c 0.138596,2.403951 -0.112259,4.143486 0.960908,6.211719 3.377433,2.338958 14.79503,3.875091 18.515489,3.52475 -0.236443,-0.05944 -0.486609,-0.518485 -0.87465,-0.86558 -0.397034,-0.355138 -0.931254,-0.59921 -1.080826,-0.71922 C 42.482012,42.788 41.183775,42.529644 40.490861,42.329043 36.602184,41.726206 32.6165,41.571314 30.183851,38.704622 29.822696,38.278277 29.456597,37.936155 29.086728,37.433004 28.595809,36.765182 28.110815,35.898447 27.744512,35.006756 h 0.0011 c 11.487245,-0.648032 18.520659,-4.860438 6.29876,-15.149756 -1.629867,-0.399816 -3.610989,0.02481 -4.228095,1.940998 -0.857039,2.332057 -2.277843,7.146423 -4.629922,8.44439 -1.720799,0.788006 -3.75914,0.719225 -5.556125,0.225058 -8.670953,-3.893137 5.370199,-12.983233 6.112576,-17.540857 -0.147127,-0.09013 -0.343091,-0.127699 -0.580644,-0.117514 z" />
    <path style="fill:#f0f0f0;stroke-width:0.01054545" ns0:connector-curvature="0" id="bbpath6" d="m 30.927757,13.328607 c -1.380347,1.660029 -10.029043,10.436012 -10.331494,11.561435 -0.302472,1.125423 1.381597,0.154796 2.48669,-0.481048 1.105084,-0.635833 9.580899,-6.54569 11.227159,-7.888716 z" />
    <ellipse style="fill:#f0f0f0;stroke-width:0.01054545" id="bbcircle8" cy="7.2345386" cx="24.868422" rx="0.94249922" ry="0.94007289" />
  </g>
  <g id="bk" transform="scale(0.8 0.8)">
    <metadata id="bkmetadata28" />
    <defs id="bkdefs26" />
    <namedview pagecolor="#ffffff" bordercolor="#666666" borderopacity="1" objecttolerance="10" gridtolerance="10" guidetolerance="10" ns0:pageopacity="0" ns0:pageshadow="2" ns0:window-width="1920" ns0:window-height="1001" id="bknamedview24" showgrid="false" ns0:zoom="13.350176" ns0:cx="-3.5433415" ns0:cy="23.064197" ns0:window-x="-9" ns0:window-y="-9" ns0:window-maximized="1" ns0:current-layer="svg22" />
    <g id="bkg1821" transform="matrix(0.97040753,0,0,0.94344462,9.5475972,29.313498)" style="stroke-width:0.52255827;stroke-miterlimit:4;stroke-dasharray:none">
      <g id="bkg1853" transform="translate(10.102788,201.66418)" style="stroke-width:0.52255827;stroke-miterlimit:4;stroke-dasharray:none">
        <g id="bkg1437-8-9" transform="matrix(0.97345011,0,0,1.0456408,-196.42901,-64.775254)" style="stroke-width:0.51794857;stroke-miterlimit:4;stroke-dasharray:none">
          <path ns1:nodetypes="cccccccccc" ns0:connector-curvature="0" id="bkpath1260-8-1" d="m 207.97621,-121.05547 c -4.97282,0.0158 -9.94682,-0.0284 -14.91886,0.0435 -0.2523,-0.0191 -0.59583,0.0356 -0.5727,0.29152 -0.0929,1.2994 -0.0596,2.60304 -0.0987,3.90411 1.68408,0.0495 3.4169,0.009 5.11972,0.0214 h 25.94802 c 0.0555,-1.18477 0.0224,-2.40646 0.0136,-3.60581 0.0127,-0.26831 -0.0219,-0.74639 -0.51819,-0.6588 -4.99095,0.002 -9.9819,0.004 -14.97286,0.005 z" style="opacity:1;fill:#f0f0f0;fill-opacity:1;fill-rule:evenodd;stroke:#191919;stroke-width:0.51794857;stroke-linecap:round;stroke-linejoin:round;stroke-miterlimit:4;stroke-dasharray:none;stroke-dashoffset:1.85196841;stroke-opacity:1" />
          <path ns1:nodetypes="cccccc" ns0:connector-curvature="0" id="bkpath1339-08-0" transform="scale(0.26458333)" d="m 785.25738,-526.32756 c -5.1722,3.95734 -9.99611,8.39663 -14.8335,12.76562 -6.45265,6.08949 -11.59853,13.90019 -13.10802,22.7632 -1.8478,10.14685 -0.73311,20.52835 0.818,30.63507 0.20951,1.80788 0.55145,3.73516 0.48485,5.47966 h 26.68066" style="opacity:1;fill:#191919;fill-opacity:1;fill-rule:evenodd;stroke:#f0f0f0;stroke-width:1.95760083;stroke-linecap:round;stroke-linejoin:round;stroke-miterlimit:4;stroke-dasharray:none;stroke-dashoffset:1.85196841;stroke-opacity:1" />
          <path ns1:nodetypes="cccccc" ns0:connector-curvature="0" id="bkpath1339-0-3-6" d="m 207.76601,-139.2575 c 1.36847,1.04704 2.6448,2.2216 3.92469,3.37757 1.70727,1.61117 3.06878,3.67776 3.46817,6.02276 0.48889,2.68469 0.19396,5.43146 -0.21643,8.10553 -0.0554,0.47833 -0.14591,0.98826 -0.12829,1.44983 h -7.05925" style="opacity:1;fill:#191919;fill-opacity:1;fill-rule:evenodd;stroke:#f0f0f0;stroke-width:0.51794857;stroke-linecap:round;stroke-linejoin:round;stroke-miterlimit:4;stroke-dasharray:none;stroke-dashoffset:1.85196841;stroke-opacity:1" />
          <circle cy="-118.80181" cx="207.77711" id="bkpath1313-8-7-9-2" style="opacity:1;fill:#f0f0f0;fill-opacity:1;fill-rule:evenodd;stroke:none;stroke-width:0.51794857;stroke-linecap:round;stroke-linejoin:round;stroke-miterlimit:4;stroke-dasharray:none;stroke-dashoffset:46.29920959;stroke-opacity:1" r="0" />
          <path ns1:nodetypes="ccccccccccccc" transform="scale(0.26458333)" ns0:connector-curvature="0" id="bkpath1242-4-5" d="m 724.03961,-547.30852 c -19.15294,7.23341 -27.30103,14.74346 -24.70508,34.39795 4.97136,18.50228 13.42305,34.71929 25.39795,47.75488 0.29926,0.50371 1.00544,0.15466 0.51123,-0.35156 -4.68993,-9.1894 -7.88134,-19.02619 -10.49317,-28.98047 -2.04758,-8.00876 -5.05388,-16.18007 -3.69043,-24.56006 0.76172,-5.79112 4.17101,-11.30333 9.4675,-13.96648 10.37392,-6.04424 22.74731,-6.68405 34.46707,-6.60041 9.85562,0.31313 19.44291,3.84756 27.60238,9.31214 0.30607,0.0846 1.41526,1.24458 1.53288,0.48718 -2.46358,-4.14138 -5.1847,-8.22874 -8.62256,-11.63819 -3.66379,-3.68838 -8.48829,-6.10015 -13.6294,-6.85791 -12.75535,-2.09443 -26.14503,-1.36543 -37.83837,1.00293 z" style="opacity:1;fill:#f0f0f0;fill-opacity:1;fill-rule:evenodd;stroke:#040404;stroke-width:1.95760083;stroke-linecap:round;stroke-linejoin:round;stroke-miterlimit:4;stroke-dasharray:none;stroke-dashoffset:1.85196841;stroke-opacity:1" />
          <path ns1:nodetypes="ccccccccccccc" transform="scale(0.26458333)" ns0:connector-curvature="0" id="bkpath1258-0-2" d="m 750.60943,-538.62151 c -10.79335,0.10922 -22.17078,1.49098 -31.36719,7.59034 -5.10433,3.45779 -7.54888,9.7266 -7.49651,15.73774 -0.0876,8.06519 2.817,15.73994 4.74201,23.46607 5.17654,14.13253 8.26463,27.16159 17.32286,37.14335 h 23.73877 c 0.28132,-2.33007 -0.80804,-4.74991 -1.20068,-7.0791 -3.06271,-14.16612 -7.13955,-30.01443 -2.90186,-42.95459 2.80586,-7.90879 9.72781,-13.67684 17.17523,-17.07018 4.47982,-2.10054 9.14613,-3.76642 13.7779,-5.46839 0.83544,-0.66306 -0.86569,-1.22661 -1.20009,-1.55884 -7.76047,-5.10935 -16.55644,-9.0455 -25.94005,-9.61353 -2.21176,-0.1787 -4.43218,-0.21968 -6.65039,-0.19287 z" style="opacity:1;fill:#191919;fill-opacity:1;fill-rule:evenodd;stroke:#f0f0f0;stroke-width:1.95760083;stroke-linecap:round;stroke-linejoin:round;stroke-miterlimit:4;stroke-dasharray:none;stroke-dashoffset:1.85196841;stroke-opacity:1" />
          <path ns1:nodetypes="ccccccccccccc" ns0:connector-curvature="0" id="bkpath1242-9-7-3" d="m 223.96321,-144.80872 c 5.06755,1.91384 7.22339,3.90088 6.53655,9.10113 -1.31534,4.89539 -3.55152,9.18614 -6.71987,12.63514 -0.0792,0.13328 -0.26603,0.0409 -0.13527,-0.093 1.24088,-2.43136 2.08527,-5.03401 2.77632,-7.66774 0.54176,-2.11899 1.33717,-4.28098 0.97643,-6.49819 -0.20154,-1.53223 -1.10358,-2.99067 -2.50495,-3.69529 -2.74476,-1.59921 -6.01856,-1.76849 -9.11941,-1.74636 -2.60763,0.0829 -5.14427,1.018 -7.30313,2.46384 -0.081,0.0224 -0.37445,0.32929 -0.40557,0.1289 0.65182,-1.09575 1.37178,-2.17719 2.28138,-3.07928 0.96938,-0.97588 2.24586,-1.61399 3.60612,-1.81448 3.37485,-0.55416 6.91753,-0.36127 10.0114,0.26535 z" style="opacity:1;fill:#f0f0f0;fill-opacity:1;fill-rule:evenodd;stroke:#040404;stroke-width:0.51794857;stroke-linecap:round;stroke-linejoin:round;stroke-miterlimit:4;stroke-dasharray:none;stroke-dashoffset:1.85196841;stroke-opacity:1" />
          <path ns1:nodetypes="ccccccccccccc" ns0:connector-curvature="0" id="bkpath1258-3-1-4" d="m 216.93328,-142.51028 c 2.85574,0.0289 5.86601,0.39449 8.29923,2.00828 1.35052,0.91487 1.99731,2.5735 1.98345,4.16394 0.0232,2.13392 -0.74533,4.16453 -1.25465,6.20873 -1.36963,3.73924 -2.18669,7.18651 -4.58334,9.82752 h -6.28089 c -0.0744,-0.6165 0.2138,-1.25675 0.31768,-1.87302 0.81035,-3.74812 1.88901,-7.94131 0.76779,-11.36506 -0.74239,-2.09254 -2.57382,-3.61867 -4.54428,-4.51649 -1.18529,-0.55577 -2.41992,-0.99653 -3.64541,-1.44685 -0.22104,-0.17543 0.22905,-0.32454 0.31753,-0.41244 2.05329,-1.35185 4.38056,-2.39329 6.8633,-2.54358 0.5852,-0.0473 1.17268,-0.0581 1.75959,-0.051 z" style="opacity:1;fill:#191919;fill-opacity:1;fill-rule:evenodd;stroke:#f0f0f0;stroke-width:0.51794857;stroke-linecap:round;stroke-linejoin:round;stroke-miterlimit:4;stroke-dasharray:none;stroke-dashoffset:1.85196841;stroke-opacity:1" />
          <path transform="scale(0.26458333)" ns1:nodetypes="ccccccc" ns0:connector-curvature="0" id="bkpath1256-3-4" d="m 782.79191,-525.99576 c -7.84099,3.0399 -17.83891,6.9161 -23.56354,13.39383 -7.56748,8.95322 -7.09063,20.18596 -6.13408,29.91161 0.84096,8.34439 2.31399,17.06495 3.74208,19.79662 -1.18899,-13.42349 -2.29075,-28.12095 3.29016,-38.8171 4.66455,-9.46185 13.53695,-15.63897 20.9639,-22.75592 0.14273,-0.13205 2.1908,-1.53428 1.70148,-1.52904 z" style="opacity:1;fill:#f0f0f0;fill-opacity:1;fill-rule:evenodd;stroke:#f0f0f0;stroke-width:1.95760083;stroke-linecap:round;stroke-linejoin:round;stroke-miterlimit:4;stroke-dasharray:none;stroke-dashoffset:1.85196841;stroke-opacity:1" />
          <path ns1:nodetypes="cccccccc" ns0:connector-curvature="0" id="bkpath1256-4-6-4" d="m 208.84475,-138.94047 c 2.0746,0.80431 4.29346,1.60064 5.8081,3.31454 2.00223,2.36887 1.87606,5.34087 1.62297,7.91411 -0.2225,2.20779 -0.61224,4.5151 -0.99009,5.23786 0.31459,-3.55163 0.6061,-7.44034 -0.87052,-10.27036 -1.23416,-2.50345 -3.58165,-4.13781 -5.5467,-6.02084 -0.0378,-0.0349 -0.62769,-0.41713 -0.49827,-0.41574 z" style="opacity:1;fill:#f0f0f0;fill-opacity:1;fill-rule:evenodd;stroke:#f0f0f0;stroke-width:0.51794857;stroke-linecap:round;stroke-linejoin:round;stroke-miterlimit:4;stroke-dasharray:none;stroke-dashoffset:1.85196841;stroke-opacity:1" />
          <path ns1:nodetypes="cccccccccccccccc" ns0:connector-curvature="0" d="m 207.76601,-139.2575 c -0.28598,-1.05956 -3.35453,-7.63519 -4.04686,-7.69942 -0.6105,-0.14879 -1.20733,0.1183 -1.5456,0.63052 -0.23867,0.41475 -0.13277,-0.20554 -0.15577,-0.38169 0.0564,-0.88746 -0.0811,-2.00896 0.75795,-2.5927 0.94328,-0.7703 2.4948,-0.41958 3.55295,-0.0192 0.32329,-0.2313 -0.1884,-0.91184 -0.22302,-1.26964 -0.44535,-1.25852 0.70094,-2.4954 1.65996,-3.24746 m 3.4e-4,14.57959 c 0.28598,-1.05956 3.35415,-7.63502 4.04647,-7.69925 0.6105,-0.14878 1.20733,0.1183 1.54561,0.63052 0.23867,0.41476 0.13277,-0.20553 0.15577,-0.38168 -0.0564,-0.88745 0.0811,-2.00897 -0.75795,-2.59271 -0.94328,-0.7703 -2.49481,-0.41959 -3.55296,-0.0192 -0.32328,-0.2313 0.18841,-0.91184 0.22303,-1.26963 0.44535,-1.25854 -0.70094,-2.49542 -1.65997,-3.24749" style="fill:#191919;fill-opacity:1;stroke:#ffffff;stroke-width:0.51794857;stroke-linecap:butt;stroke-linejoin:round;stroke-miterlimit:4;stroke-dasharray:none;stroke-dashoffset:46.29920959;stroke-opacity:1" id="bkpath2160-1-9-0-4" />
        </g>
        <path style="opacity:0.03999999;fill:#f0f0f0;fill-opacity:1;stroke:none;stroke-width:0.52255827;stroke-linecap:butt;stroke-linejoin:miter;stroke-miterlimit:4;stroke-dasharray:none;stroke-opacity:1" d="m 11.190853,-214.95068 c 14.209019,-5.0259 19.549642,9.34254 7.534166,23.64631 -4.903144,5.89108 -28.4150697,4.37436 -25.1257767,-3.04011 10.0542909,4.04108 30.9221337,-3.54066 18.3366167,-13.84871 -1.475769,-1.86511 -2.3041567,-4.65113 -0.745006,-6.75749 z" id="bkpath1507-9" ns0:connector-curvature="0" ns1:nodetypes="ccccc" />
        <circle style="opacity:1;fill:#191919;fill-opacity:1;fill-rule:evenodd;stroke:none;stroke-width:0.52255827;stroke-linecap:round;stroke-linejoin:round;stroke-miterlimit:4;stroke-dasharray:none;stroke-dashoffset:46.29920959;stroke-opacity:1" id="bkpath1413-6-2" cx="5.7756753" cy="-188.94263" r="1.2500001" />
      </g>
    </g>
  </g>
  <g id="bn" transform="scale(0.8 0.8)">
    <metadata id="bnmetadata16" />
    <defs id="bndefs14" />
    <namedview pagecolor="#ffffff" bordercolor="#666666" borderopacity="1" objecttolerance="10" gridtolerance="10" guidetolerance="10" ns0:pageopacity="0" ns0:pageshadow="2" ns0:window-width="1920" ns0:window-height="1001" id="bnnamedview12" showgrid="false" ns0:zoom="9.44" ns0:cx="14.483593" ns0:cy="18.909465" ns0:window-x="-9" ns0:window-y="-9" ns0:window-maximized="1" ns0:current-layer="svg10" />
    <g transform="matrix(0.97039842,0,0,0.94883823,-36.088891,94.230742)" id="bng1138" style="stroke-width:0.52107334;stroke-miterlimit:4;stroke-dasharray:none">
      <path ns1:nodetypes="ccccccccccccccccccccccccccccccc" ns0:connector-curvature="0" id="bnpath2225" d="m 56.845933,-92.621689 c -0.86714,-0.02949 -1.669084,0.410708 -2.239581,1.041056 -0.259006,0.280815 0.344514,0.563028 0.447315,0.83467 0.429554,0.588661 0.986139,1.14558 1.195276,1.856991 -0.7723,0.787495 -1.749752,1.351711 -2.615461,2.032925 -0.968605,0.772666 -2.120891,1.516377 -2.567296,2.730349 -0.161052,0.384294 0.003,0.883422 -0.415145,1.125873 -2.181301,2.262517 -4.434118,4.460567 -6.54063,6.792505 -0.2047,0.720172 0.06734,1.579346 -0.465735,2.19896 -0.606171,0.858583 -0.293595,2.008856 0.276963,2.797089 0.69919,0.991121 1.724654,1.889188 2.982528,1.998741 0.997757,0.119071 2.043649,0.270188 3.028497,0.0039 0.698632,-0.372086 1.162208,-1.064601 1.744397,-1.584499 0.820092,-0.825339 1.689703,-1.780505 2.915652,-1.925105 1.644319,-0.259927 3.481426,-0.361106 4.793989,-1.525677 0.620487,-0.456105 1.049663,-1.162397 1.746308,-1.505016 0.672221,-0.190624 1.130482,0.472297 1.467222,0.943483 0.792559,1.13534 0.946227,2.819327 -0.02946,3.899115 -0.671237,0.695931 -1.663464,1.043575 -2.498822,1.537737 -3.248712,1.725668 -6.618259,3.357014 -9.395288,5.812622 -1.582713,1.42995 -2.953701,3.383051 -2.901364,5.602336 0.05896,1.244734 0.274301,2.551775 0.972291,3.609725 0.297449,0.391903 0.681791,0.779047 1.13249,0.957315 7.49305,-0.0037 14.988056,0.01138 22.479887,-0.0038 5.630139,-2.360096 8.191812,-5.135894 9.585198,-10.90605 1.343048,-6.070194 0.582337,-12.627067 -2.270402,-18.165294 -1.838875,-3.579026 -4.772111,-6.662466 -8.473252,-8.320029 -2.696146,-1.26765 -5.720261,-1.768493 -8.684869,-1.61631 -1.14187,0.21029 -2.328269,0.451638 -3.459328,0.08151 -0.724212,-0.170227 -1.464053,-0.317838 -2.211384,-0.305143 z" style="opacity:1;fill:#191919;fill-opacity:1;fill-rule:evenodd;stroke:#ffffff;stroke-width:0.52107334;stroke-linecap:round;stroke-linejoin:round;stroke-miterlimit:4;stroke-dasharray:none;stroke-dashoffset:1.85196841;stroke-opacity:1" />
      <path ns0:connector-curvature="0" id="bnpath855-6" d="m 52.559932,-82.232209 c 0.157428,0.60689 0.687751,1.248124 1.380705,0.985181 0.993054,-0.187674 1.718752,-0.952267 2.401879,-1.634468 0.390812,-0.569574 -0.65819,-0.473149 -0.973324,-0.661861 -0.756139,-0.20775 -1.674489,-0.12901 -2.197679,0.523071 -0.227067,0.243882 -0.414598,0.520319 -0.611581,0.788077 z" style="opacity:1;fill:#f0f0f0;fill-opacity:1;stroke:none;stroke-width:0.52107334;stroke-linecap:round;stroke-linejoin:round;stroke-miterlimit:4;stroke-dasharray:none;stroke-dashoffset:46.29920959;stroke-opacity:1" />
      <path ns1:nodetypes="cccc" ns0:connector-curvature="0" id="bnpath889-6" d="m 45.593768,-75.588725 c 0.293667,0.244041 -0.286456,0.961274 -0.312506,1.303242 -0.08859,0.262943 -0.141754,0.86559 -0.503235,0.79321 -0.334712,-0.659235 0.200916,-1.957344 0.815741,-2.096452 z" style="opacity:1;fill:#f0f0f0;fill-opacity:1;stroke:none;stroke-width:0.52107334;stroke-linecap:round;stroke-linejoin:round;stroke-miterlimit:4;stroke-dasharray:none;stroke-dashoffset:46.29920959;stroke-opacity:1" />
      <path ns1:nodetypes="ccsccc" ns0:connector-curvature="0" d="m 59.01362,-68.310262 c -6.820147,2.431002 -9.466669,8.449817 -9.424164,10.187648 -0.173555,3.173365 1.022384,4.40781 4.978004,4.905468 5.528746,0.695572 12.950607,-0.771939 16.283023,-3.143274 21.781003,-10.460407 4.542556,-43.035865 -9.975361,-33.289031 6.01788,5.936592 10.803383,17.643744 -1.861502,21.339179" style="opacity:0.03999999;fill:#ffffff;fill-opacity:1;stroke:none;stroke-width:0.52107334;stroke-linecap:butt;stroke-linejoin:round;stroke-miterlimit:4;stroke-dasharray:none;stroke-dashoffset:46.29920959;stroke-opacity:1" id="bnpath3233" />
      <path ns1:nodetypes="scccs" ns0:connector-curvature="0" id="bnpath3703" d="m 51.326538,-82.839904 c 0.997948,-1.861332 2.994374,-2.635006 4.81661,-2.715111 1.015929,-0.285115 2.977237,1.261851 1.433389,2.039355 -3.174369,-2.028338 -4.772647,-0.43271 -5.388461,0.369824 -0.174853,0.141383 -1.448108,1.399973 -0.861538,0.305932 z" style="opacity:0.12999998;fill:#ffffff;fill-opacity:1;stroke:none;stroke-width:0.52107334;stroke-linecap:butt;stroke-linejoin:round;stroke-miterlimit:4;stroke-dasharray:none;stroke-dashoffset:46.29920959;stroke-opacity:1" />
      <path ns1:nodetypes="ccccccccc" ns0:connector-curvature="0" id="bnpath3945" d="m 59.781212,-79.168906 c 0.07018,0.538045 0.539849,1.530159 0.273481,2.029829 -0.218744,0.440531 -0.335104,0.862764 -0.688588,1.157436 -0.644326,0.626797 -1.265736,1.292711 -1.790215,2.046191 -0.13317,0.135414 -0.299103,0.580739 0.0362,0.420645 0.743021,-0.294047 1.430488,-0.732779 2.124978,-1.14247 0.326014,-0.213424 0.675293,-0.388853 0.97816,-0.641361 0.801285,-0.759713 0.87103,-2.31814 0.0741,-3.110567 -0.113313,-0.109517 -0.861942,-0.71955 -1.008108,-0.759703 z" style="opacity:0.12999998;fill:#ffffff;fill-opacity:1;stroke:none;stroke-width:0.52107334;stroke-linecap:butt;stroke-linejoin:round;stroke-miterlimit:4;stroke-dasharray:none;stroke-dashoffset:46.29920959;stroke-opacity:1" />
      <path ns1:nodetypes="ccc" ns0:connector-curvature="0" id="bnpath979" d="m 60.875122,-89.649451 c 32.191709,8.744016 3.395194,34.575302 -5.212045,36.151923 4.829373,0.108842 33.609211,-26.446814 5.212045,-36.151923 z" style="fill:#f0f0f0;fill-opacity:1;stroke:none;stroke-width:0.52107334;stroke-linecap:butt;stroke-linejoin:miter;stroke-miterlimit:4;stroke-dasharray:none;stroke-opacity:1" />
    </g>
  </g>
  <g id="bp" transform="scale(0.8 0.8)">
    <metadata id="bpmetadata14" />
    <defs id="bpdefs12" />
    <namedview pagecolor="#ffffff" bordercolor="#666666" borderopacity="1" objecttolerance="10" gridtolerance="10" guidetolerance="10" ns0:pageopacity="0" ns0:pageshadow="2" ns0:window-width="1920" ns0:window-height="1001" id="bpnamedview10" showgrid="false" ns0:zoom="4.72" ns0:cx="-9.8516949" ns0:cy="25" ns0:window-x="-9" ns0:window-y="-9" ns0:window-maximized="1" ns0:current-layer="svg8" />
    <g id="bpg6" transform="matrix(0.72685423,0,0,0.77733416,6.829024,5.5660487)" style="stroke-width:1.28757679">
      <path d="m 105.97873,229.31762 c -9.745901,0.0911 -19.781864,6.04174 -22.954104,15.53808 -2.64047,7.47913 -0.377117,16.29541 5.441433,21.66502 1.89864,1.98969 4.363362,3.26566 6.578097,4.81203 -0.637987,0.5986 -2.1318,0.72765 -3.071117,1.05735 -9.88106,2.59584 -19.624643,5.82482 -28.998888,9.89512 -1.466148,0.84889 -3.395296,1.29478 -4.474916,2.6364 0.291071,1.01141 1.867565,0.58499 2.669221,0.78422 8.914585,0.29484 17.912063,-1.03049 26.768225,0.0609 1.598145,5e-4 2.470715,1.41157 2.76396,2.80795 1.697478,5.81931 1.151048,11.9838 0.766663,17.94735 -1.234118,10.23672 -3.816728,20.41514 -8.079398,29.83514 -1.628072,3.48839 -3.69871,7.1181 -7.392577,8.74316 -9.929145,4.94578 -20.873588,7.59296 -30.638048,12.90634 -3.285703,2.02048 -7.153627,4.39598 -8.063124,8.42862 -0.939365,2.08321 1.720585,1.265 2.876465,1.40967 H 175.23459 c 0.67021,-0.86796 0.16575,-2.35809 -0.33399,-3.33057 -2.82067,-4.47534 -7.88117,-6.80354 -12.48873,-9.00881 -8.90103,-4.05551 -18.51624,-6.52024 -27.07328,-11.2905 -3.58084,-2.15112 -5.12622,-6.31804 -6.83154,-9.91065 -4.4001,-10.78181 -7.10648,-22.29158 -7.61377,-33.91552 -0.0546,-4.4253 0.073,-8.98036 1.76465,-13.1294 1.07618,-2.13001 3.89935,-1.55829 5.84147,-1.80318 8.3897,-0.38837 16.78975,0.63034 25.16927,0.0962 0.83036,0.11961 1.17879,-0.87936 0.3374,-1.17676 -6.93848,-3.84445 -14.57461,-6.22885 -22.06094,-8.76257 -4.57313,-1.5215 -9.22069,-2.81984 -13.90244,-3.94153 -1.12419,-0.30243 0.34295,-0.7738 0.67725,-1.05127 7.38258,-3.86282 12.83257,-11.89769 12.18896,-20.41162 -0.47348,-8.99818 -7.4357,-16.6115 -15.75869,-19.41525 -2.93616,-1.03546 -6.05936,-1.53125 -9.17148,-1.47586 z" transform="matrix(0.27346,0,0,0.27329,-4.0766865,-56.605254)" id="bppath2" ns0:connector-curvature="0" style="fill:#191919;stroke:#ffffff;stroke-width:2.43321586;stroke-linecap:round;stroke-linejoin:round;stroke-dashoffset:1.85196841" />
      <path d="m 28.392938,8.3613135 c -2.287788,0.7793983 -0.315874,3.1467915 0.221123,4.4473525 0.394219,2.063747 -1.910028,3.271936 -2.723965,4.969377 -1.813885,6.52624 -0.363709,13.248811 0.06409,19.838542 2.175491,5.828237 12.335748,5.71182 17.954733,5.814905 -2.203058,-4.558497 -10.750432,-3.143231 -12.67772,-6.052431 -2.082961,-2.926231 -4.418676,-14.354381 -1.871523,-16.409612 2.829596,-0.476605 3.095584,-0.07184 5.93504,-0.244474 2.421495,0.08418 -7.959618,-3.128459 -8.017538,-3.198869 2.447373,-0.481535 3.560662,-2.872934 3.552371,-4.909593 -0.07693,-1.544466 -0.285766,-4.0641248 -2.436615,-4.2551975 z" id="bppath4" ns0:connector-curvature="0" style="opacity:0.03999999;fill:#ffffff;stroke-width:1.4116677" />
    </g>
  </g>
  <g id="bq" transform="scale(0.8 0.8)">
    <metadata id="bqmetadata18" />
    <defs id="bqdefs16" />
    <namedview pagecolor="#ffffff" bordercolor="#666666" borderopacity="1" objecttolerance="10" gridtolerance="10" guidetolerance="10" ns0:pageopacity="0" ns0:pageshadow="2" ns0:window-width="1920" ns0:window-height="1001" id="bqnamedview14" showgrid="false" ns0:zoom="9.44" ns0:cx="-7.9642629" ns0:cy="38.431728" ns0:window-x="-9" ns0:window-y="-9" ns0:window-maximized="1" ns0:current-layer="svg12" />
    <path style="fill:#191919;stroke:#ffffff;stroke-width:0.49990398;stroke-linecap:round;stroke-linejoin:round;stroke-dashoffset:1.85196841" ns0:connector-curvature="0" id="bqpath2" d="m 24.907743,5.2375029 c -1.057502,0.019532 -1.907831,1.1912947 -1.281124,2.009181 0.154733,0.3223291 0.527441,0.4745114 0.783471,0.7057806 -0.171568,1.1529453 -0.473392,2.3055285 -0.681489,3.4599025 -0.607385,2.826086 -1.042072,5.721184 -2.258512,8.401923 -0.340396,0.62841 -0.673282,1.38753 -1.423492,1.716224 -0.922559,0.118257 -1.769115,-0.389316 -2.473736,-0.855052 -1.852639,-1.425667 -3.150958,-3.325962 -4.350864,-5.201778 -0.373549,-0.600989 -0.71517,-1.216819 -1.062247,-1.829972 0.415053,-0.522211 0.448578,-1.406081 -0.25603,-1.744072 -0.694599,-0.329238 -1.579307,0.256483 -1.489137,0.938606 -0.02096,0.581041 0.589577,0.977606 1.172641,1.081769 0.357904,0.669372 0.512168,1.454346 0.81225,2.162877 0.735201,2.155798 1.744974,4.255272 2.15951,6.484975 0.103364,0.808803 0.334256,1.849355 -0.455608,2.456399 C 13.202711,25.605712 11.96135,25.617333 11.01,25.11394 9.0250371,24.100394 7.6543566,22.362079 6.3053654,20.756116 5.8989401,20.223126 5.4178459,19.71437 5.0998121,19.138969 5.2695295,18.722616 5.4453992,18.272807 5.2734828,17.827881 5.0540182,17.016349 3.7603618,16.79233 3.1472332,17.386431 c -0.6949953,0.596213 -0.4053078,1.718496 0.4679965,2.049525 0.1505995,0.139484 0.4079513,0.04811 0.5515214,0.14329 0.5798556,1.257343 0.8848759,2.601555 1.3301377,3.899636 0.8719344,2.734355 1.6828624,5.494905 2.5909056,8.213374 0.9277378,0.55766 2.0279926,0.963896 2.7163916,1.778048 0.245948,0.301126 0.03023,0.676419 -0.211979,0.918043 0.39918,1.293509 0.957346,2.573998 1.417256,3.862533 0.566553,1.558166 1.206262,3.1071 1.695215,4.680852 -0.133489,0.182882 -0.499299,0.03255 -0.71034,0.09171 -1.612736,0.05103 -3.233859,-0.04383 -4.8419563,0.06368 -0.343292,0.131203 -0.022458,0.539819 0.094099,0.727383 0.2433529,0.42654 0.765783,0.583849 1.2723276,0.600619 4.8381227,0.43413 9.7109967,0.327875 14.5668557,0.349886 4.44244,-0.02765 8.887836,0.01783 13.327812,-0.130619 1.319564,-0.09798 2.68611,-0.04506 3.960733,-0.400819 0.430085,-0.18921 0.688807,-0.650744 0.742952,-1.05691 -0.220041,-0.201904 -0.643397,-0.06768 -0.937747,-0.122199 -1.618431,-0.04813 -3.262109,0.03413 -4.865712,-0.08226 0.04779,-0.622956 0.408384,-1.211157 0.579711,-1.816829 0.825624,-2.220823 1.62927,-4.448065 2.522473,-6.648341 -0.166677,-0.281469 -0.503516,-0.638125 -0.254852,-0.977779 0.657709,-0.893012 1.894552,-1.224212 2.743416,-1.932658 0.365486,-0.785785 0.528907,-1.649121 0.820517,-2.462711 0.988552,-3.083561 1.876372,-6.193542 2.933897,-9.259086 0.07384,-0.146766 0.109804,-0.420415 0.365101,-0.352949 0.977654,-0.118662 1.589244,-1.27777 0.957875,-1.989148 -0.481815,-0.663369 -1.723826,-0.63889 -2.143,0.06872 -0.358901,0.437207 -0.205742,0.979835 0.01305,1.434068 0.03079,0.483989 -0.512853,0.816799 -0.752949,1.213119 -1.356261,1.595451 -2.6398,3.312187 -4.474031,4.513791 -0.907178,0.590412 -2.130744,0.950494 -3.208468,0.521624 -0.631478,-0.203965 -1.104028,-0.736155 -1.08896,-1.34531 -0.05627,-1.672875 0.606123,-3.288593 1.140485,-4.878628 0.616866,-1.669228 1.306947,-3.330834 1.817252,-5.022825 0.400958,-0.291069 1.062344,-0.339078 1.221523,-0.85648 0.215788,-0.535091 -0.09071,-1.246863 -0.77393,-1.348051 -0.735574,-0.216258 -1.374429,0.594165 -1.196577,1.188874 0.02868,0.341286 0.471169,0.630393 0.124957,0.941443 -1.367628,2.31797 -2.805876,4.689983 -4.985226,6.495977 -0.756794,0.579335 -1.684052,1.169982 -2.735473,1.093731 -0.97728,-0.501794 -1.362389,-1.538657 -1.741994,-2.423849 -1.29314,-3.576453 -1.791513,-7.32508 -2.614457,-10.9975078 -0.146106,-0.2919546 0.309886,-0.3078402 0.442606,-0.4948109 0.717261,-0.5151211 0.727607,-1.575162 -0.01599,-2.0750371 -0.303722,-0.226898 -0.706386,-0.3455179 -1.10291,-0.3240563 z" />
    <ellipse style="fill:#f0f0f0;stroke-width:0.01009633" id="bqcircle4" cy="6.6028175" cx="24.985006" rx="0.75101501" ry="0.66634375" />
    <path style="fill:#f0f0f0;stroke-width:0.01009633" ns0:connector-curvature="0" id="bqpath6" d="m 24.982099,40.879074 c -0.304215,-1.067387 -3.568475,-7.691583 -4.30495,-7.756283 -0.649442,-0.149889 -1.284332,0.119168 -1.644182,0.635171 -0.253891,0.417821 -0.141239,-0.207052 -0.165704,-0.384502 0.05996,-0.894015 -0.08628,-2.023803 0.80629,-2.611849 1.00344,-0.775997 2.653918,-0.422686 3.779552,-0.01935 0.343904,-0.233007 -0.200419,-0.918585 -0.237249,-1.279018 -0.473752,-1.267818 0.745644,-2.513838 1.765835,-3.271455 m 3.6e-4,14.687286 c 0.304215,-1.067392 3.568066,-7.691418 4.304542,-7.756119 0.649441,-0.149878 1.284331,0.119168 1.644182,0.635176 0.253891,0.417826 0.141239,-0.207055 0.165704,-0.384502 -0.05996,-0.894009 0.08628,-2.023808 -0.80629,-2.611864 -1.00344,-0.775987 -2.653919,-0.422686 -3.779552,-0.01935 -0.343905,-0.233007 0.200419,-0.918573 0.237249,-1.279007 0.473752,-1.267832 -0.745644,-2.513852 -1.765835,-3.271469" />
    <path style="opacity:0.03999999;fill:#ffffff;stroke-width:0.01009633" ns0:connector-curvature="0" id="bqpath8" d="m 26.100955,13.641292 c 0.951338,0.749951 1.471665,9.397238 2.862341,9.588249 2.586832,1.351228 6.056209,-5.853569 6.858665,-5.201522 0.715904,0.811511 -0.930393,2.86756 -1.638606,4.707415 -0.845078,1.466745 -1.247226,2.407825 0.314585,3.595378 1.442634,0.865447 3.757106,1.291406 4.782115,0.330901 0.906241,-0.742936 4.601331,-5.767403 5.464313,-5.931291 0.02013,1.748048 -2.390919,7.009616 -3.395213,7.853708 -1.855271,1.734424 -1.711425,3.869794 -3.125688,5.907753 -0.756615,2.770539 -1.178313,6.108846 -2.474348,8.540137 -0.08031,0.143164 6.073716,0.274528 5.967613,0.394417 -1.335665,1.509184 -10.818714,1.200271 -12.30004,-0.275655 -1.933641,-1.636445 -2.790819,-4.352344 -5.544713,-5.142664 -4.966288,-7.759781 -3.220268,-16.409914 2.228976,-24.366826 z" />
  </g>
  <g id="br" transform="scale(0.8 0.8)">
    <metadata id="brmetadata20" />
    <defs id="brdefs18" />
    <namedview pagecolor="#ffffff" bordercolor="#666666" borderopacity="1" objecttolerance="10" gridtolerance="10" guidetolerance="10" ns0:pageopacity="0" ns0:pageshadow="2" ns0:window-width="1920" ns0:window-height="1001" id="brnamedview16" showgrid="false" ns0:zoom="9.44" ns0:cx="16.907582" ns0:cy="33.467713" ns0:window-x="-9" ns0:window-y="-9" ns0:window-maximized="1" ns0:current-layer="svg14" />
    <path style="fill:none;stroke:#140707;stroke-width:0.49999458;stroke-linejoin:round;stroke-dashoffset:1.85196841" ns0:connector-curvature="0" id="brpath2" d="M 45.000005,19.79959" />
    <path style="fill:#191919;stroke:#ffffff;stroke-width:0.49999458;stroke-linecap:round;stroke-linejoin:round;stroke-dashoffset:1.85196841" ns0:connector-curvature="0" id="brpath4" d="m 8.4158529,5.3058766 c -0.040711,2.8805297 -0.00581,5.7730074 -0.017458,8.6581274 0.5379996,0.696414 1.3721743,1.083345 2.1521801,1.48486 0.244202,0.184821 0.09086,0.566565 0.148165,0.826364 0.02793,0.665234 -0.04162,1.349399 0.03606,2.002418 0.960837,0.03887 1.934193,0.0055 2.899847,0.01666 0.02276,0.547056 -0.04437,1.113992 0.03246,1.649092 1.101335,0.03886 2.21519,0.0055 3.321338,0.01666 0.655238,2.867223 1.173787,5.858521 0.514329,8.767448 -0.61578,3.10332 -2.50738,5.860317 -5.000734,7.891746 -1.804603,1.53833 -3.9546634,2.623327 -5.8836897,4.005737 -0.083651,0.615395 -0.010217,1.267122 -0.035182,1.896093 -0.4335225,0.02199 -0.8880933,-0.04273 -1.3090629,0.03097 -0.018209,0.717852 -0.049743,1.46723 0.014997,2.177708 5.5035576,0.03887 11.0196366,0.0055 16.5280086,0.01666 h 20.945005 c 0.198927,-0.28208 0.02544,-0.758971 0.08372,-1.112667 -0.05827,-0.353299 0.115348,-0.8312 -0.08372,-1.112671 h -1.242799 c -0.02449,-0.628414 0.0475,-1.27895 -0.03464,-1.894139 -2.475132,-1.759565 -5.292269,-3.129651 -7.355583,-5.371602 -2.234626,-2.275106 -3.612968,-5.298413 -3.786664,-8.399421 -0.180061,-2.325454 0.266501,-4.628669 0.771608,-6.895862 1.109602,-0.02068 2.239267,0.0413 3.336338,-0.03097 0.04067,-0.539418 0.0057,-1.090789 0.01746,-1.634778 0.969123,-0.02057 1.95823,0.04112 2.914847,-0.03097 0.08202,-0.911667 -0.07791,-1.864843 0.09395,-2.763323 0.725298,-0.415962 1.537601,-0.732855 2.097148,-1.368471 0.282735,-0.29484 0.05888,-0.781729 0.130305,-1.1541 V 5.3548096 c -0.307294,-0.1899142 -0.818481,-0.0242 -1.200788,-0.079906 -1.787224,0.01951 -3.593402,-0.03904 -5.36877,0.029304 -0.06912,1.0516428 0.03309,2.1418722 -0.05133,3.1907618 -0.389893,1.0744062 -1.530673,1.8150636 -2.721167,1.7933236 -1.19725,0.04025 -2.367761,-0.687716 -2.764506,-1.7709759 -0.09705,-1.0083705 -0.01369,-2.0558689 -0.04153,-3.0792204 -0.09126,-0.3606603 -0.750138,-0.069394 -1.06116,-0.163193 h -5.864601 c -0.198995,0.2932737 -0.02535,0.781128 -0.08372,1.1459858 -0.05463,0.7548594 0.111596,1.5584972 -0.115907,2.2858516 -0.726646,1.7104939 -3.380188,2.1224569 -4.701988,0.8098398 -0.427085,-0.4174876 -0.830724,-0.9343419 -0.713494,-1.5510452 -0.03494,-0.8888497 0.01874,-1.7985252 -0.07044,-2.6746244 -2.14874,-0.037344 -4.30927,-0.00533 -6.4625447,-0.016018 l -0.062697,0.029304 z" />
    <path style="opacity:0.02999998;fill:#ffffff;stroke-width:1.00030422" ns0:connector-curvature="0" id="brpath6" d="m 17.324375,12.643996 c 2.807916,-1.897214 4.840813,-2.473893 6.475326,-2.482081 3.386485,-0.01695 5.062809,2.406453 8.378406,0.58201 2.115729,-1.7135803 2.802744,-4.9745796 5.762494,-5.6933588 3.50894,3.1200834 0.206391,7.0006738 -0.482412,8.8177928 -2.151665,3.318632 -1.136014,4.30115 -4.398459,5.834124 -0.647964,0.285223 -1.597705,-0.588566 -1.940538,0.009 -1.035254,1.8302 -1.372199,4.431001 -1.13721,6.411935 -1.436465,9.526184 5.387769,9.15868 10.711318,14.016033 0.506138,1.221002 1.041554,2.473783 2.119325,3.157515 0.37363,2.325782 -2.257162,0.422823 -3.595637,0.9458 -2.901114,0.31797 -5.818839,0.273194 -8.723752,0.01351 -19.941677,-1.775516 -8.208587,-7.846655 -7.208599,-18.112838 0.3681,-2.263927 0.346227,-4.591395 1.025938,-6.804161 -0.143758,-2.411154 -3.189433,-2.67854 -5.135979,-2.978486 -2.81339,-0.43038 -6.031432,-0.551456 -8.187565,-2.555342 -4.2631037,-15.9357357 1.939754,-0.525924 6.337344,-1.161421 z" />
    <g style="fill:#f0f0f0;stroke-width:46.39835358;stroke-linejoin:round;stroke-dashoffset:46.29920959" id="brg10" transform="matrix(1.0555096,0,0,0.98286067,-2.5540947,1.5489172)">
      <path ns0:connector-curvature="0" id="brpath8" d="m 20.048319,18.55758 h 10.38333 v 1.651079 h -10.38333 z m -5.291665,19.634411 h 20.96666 v 1.651079 h -20.96666 z" style="stroke-width:46.39835358" />
    </g>
  </g>
  <g id="wb" transform="scale(0.8 0.8)">
    <metadata id="wbmetadata18" />
    <defs id="wbdefs16" />
    <namedview pagecolor="#ffffff" bordercolor="#666666" borderopacity="1" objecttolerance="10" gridtolerance="10" guidetolerance="10" ns0:pageopacity="0" ns0:pageshadow="2" ns0:window-width="1920" ns0:window-height="1001" id="wbnamedview14" showgrid="false" ns0:zoom="13.350176" ns0:cx="6.0454728" ns0:cy="24.99323" ns0:window-x="-9" ns0:window-y="-9" ns0:window-maximized="1" ns0:current-layer="svg12" />
    <path style="fill:#efefef;stroke:#000000;stroke-width:0.50010413;stroke-linecap:round;stroke-linejoin:round;stroke-dashoffset:46.29920959" ns0:connector-curvature="0" id="wbpath2" d="m 24.979791,5.0891419 c -1.240285,-0.022744 -2.221562,1.3490636 -1.816621,2.5150333 0.05714,0.3237611 0.337565,0.610897 0.352882,0.9119674 -0.686376,1.4763872 -1.897084,2.6130484 -3.098151,3.6756954 -2.774621,2.649641 -5.543533,5.310585 -8.177467,8.100388 -1.995823,2.251792 -4.033999,4.656036 -4.8683403,7.60549 -0.3434629,1.398055 -0.2634549,2.975036 0.612143,4.17415 1.3077581,1.850686 3.4875723,2.80536 5.5667963,3.523457 2.395275,0.824052 4.922595,1.192335 7.39986,1.621674 -2.632529,4.527319 -8.205573,4.310224 -12.2461754,5.281588 -1.1948251,0.355111 -2.3663065,0.94134 -3.2370842,1.843971 -0.1574588,0.273438 0.2996717,0.203926 0.4461361,0.211812 6.0176965,-0.02937 12.1442995,0.463752 17.2725915,-2.015448 1.161391,-0.595879 1.45624,-1.888654 2.384469,-1.093954 0.857556,1.038968 2.20729,1.482897 3.437365,1.916362 5.135085,1.656678 10.904332,1.184383 15.780647,1.226876 0.197979,-0.218602 -0.36165,-0.440481 -0.497704,-0.640636 -1.62517,-1.376234 -3.800125,-1.75944 -5.852953,-2.001506 -4.237827,-0.430023 -7.150702,-2.363054 -9.249224,-4.71359 3.341251,-0.56226 6.763008,-1.106052 9.835491,-2.612339 1.697005,-0.836589 3.387008,-2.147105 3.847573,-4.07203 C 43.340032,28.61238 42.617636,26.58959 41.64977,24.945838 40.512987,23.586407 40.268874,22.898735 39.120382,21.461949 37.457491,19.381649 35.863557,17.903661 34.385298,16.483936 32.484951,14.658837 30.668221,13.05331 28.921065,11.28462 28.082014,10.435234 27.111617,9.5135761 26.589849,8.3707483 27.036152,7.6595697 27.172853,6.6884476 26.646916,5.9791169 26.297168,5.4079501 25.653339,5.0544827 24.979791,5.0891419 Z" ns1:nodetypes="cccccccccccccccccccccccscccc" />
    <path style="opacity:0.07000002;stroke-width:0.01054545" ns0:connector-curvature="0" id="wbpath4" d="m 25.347248,12.663035 c -4.830261,0.207128 -26.8654589,20.217895 -5.62029,22.12634 2.043629,0.131524 4.057561,0.185565 5.981089,0.15213 h 5.39e-4 c 0.138596,2.403955 -0.11226,4.143487 0.960907,6.211722 3.377433,2.338955 14.79503,3.875088 18.51549,3.524747 -0.236444,-0.05944 -0.48661,-0.518479 -0.87465,-0.865576 C 43.913298,43.457255 43.379079,43.21319 43.229507,43.093173 42.667174,42.641959 41.368938,42.383606 40.676023,42.18301 38.590676,41.57929 36.138907,41.826803 34.628151,41.259192 33.667706,40.898344 32.883396,40.894197 32.029966,40.351125 31.39749,39.948645 30.958123,39.254012 30.369013,38.558583 30.007858,38.132241 29.641759,37.790119 29.27189,37.286971 28.780972,36.619143 28.295978,35.752407 27.929674,34.860723 h 0.0011 c 11.487246,-0.648038 18.52066,-4.860445 6.29876,-15.149763 -1.629866,-0.399816 -3.610989,0.02481 -4.228094,1.940998 -0.857039,2.332058 -2.277843,7.146423 -4.629923,8.44439 -1.720799,0.788007 -3.759139,0.719226 -5.556125,0.225059 -8.670957,-3.893137 5.3702,-12.983234 6.112577,-17.540857 -0.147127,-0.09013 -0.343092,-0.1277 -0.580644,-0.117515 z" />
    <path style="stroke-width:0.01058554" ns0:connector-curvature="0" id="wbpath6" d="m 31.11292,13.182568 c -1.380347,1.660029 -10.029043,10.436012 -10.331494,11.561435 -0.302472,1.125423 1.381596,0.154795 2.48669,-0.481049 1.105083,-0.635833 9.580898,-6.54569 11.227159,-7.888715 z" />
    <ellipse style="stroke-width:0.01058554" id="wbcircle8" cy="7.022953" cx="25.025501" rx="0.94249922" ry="0.94007289" />
  </g>
  <g id="wk" transform="scale(0.8 0.8)">
    <metadata id="wkmetadata28" />
    <defs id="wkdefs26" />
    <namedview pagecolor="#ffffff" bordercolor="#666666" borderopacity="1" objecttolerance="10" gridtolerance="10" guidetolerance="10" ns0:pageopacity="0" ns0:pageshadow="2" ns0:window-width="1920" ns0:window-height="1001" id="wknamedview24" showgrid="false" ns0:zoom="4.72" ns0:cx="-48.169918" ns0:cy="-10.702952" ns0:window-x="-9" ns0:window-y="-9" ns0:window-maximized="1" ns0:current-layer="svg22" />
    <g id="wkg1837" transform="matrix(0.97040753,0,0,0.94344462,64.796816,193.11279)" style="stroke-width:0.52255827;stroke-miterlimit:4;stroke-dasharray:none">
      <g style="stroke-width:0.51794857;stroke-miterlimit:4;stroke-dasharray:none" transform="matrix(0.97345011,0,0,1.0456408,-243.26026,-36.729421)" id="wkg1437-8">
        <path style="opacity:1;fill:#191919;fill-opacity:1;fill-rule:evenodd;stroke:#ffffff;stroke-width:0.51794857;stroke-linecap:round;stroke-linejoin:round;stroke-miterlimit:4;stroke-dasharray:none;stroke-dashoffset:1.85196841;stroke-opacity:1" d="m 207.97621,-121.05547 c -4.97282,0.0158 -9.94682,-0.0284 -14.91886,0.0435 -0.2523,-0.0191 -0.59583,0.0356 -0.5727,0.29152 -0.0929,1.2994 -0.0596,2.60304 -0.0987,3.90411 1.68408,0.0495 3.4169,0.009 5.11972,0.0214 h 25.94802 c 0.0555,-1.18477 0.0224,-2.40646 0.0136,-3.60581 0.0127,-0.26831 -0.0219,-0.74639 -0.51819,-0.6588 -4.99095,0.002 -9.9819,0.004 -14.97286,0.005 z" id="wkpath1260-8" ns0:connector-curvature="0" ns1:nodetypes="cccccccccc" />
        <path style="opacity:1;fill:#f0f0f0;fill-opacity:1;fill-rule:evenodd;stroke:#181818;stroke-width:1.95760083;stroke-linecap:round;stroke-linejoin:round;stroke-miterlimit:4;stroke-dasharray:none;stroke-dashoffset:1.85196841;stroke-opacity:1" d="m 785.25738,-526.32756 c -5.1722,3.95734 -9.99611,8.39663 -14.8335,12.76562 -6.45265,6.08949 -11.59853,13.90019 -13.10802,22.7632 -1.8478,10.14685 -0.73311,20.52835 0.818,30.63507 0.20951,1.80788 0.55145,3.73516 0.48485,5.47966 h 26.68066" transform="scale(0.26458333)" id="wkpath1339-08" ns0:connector-curvature="0" ns1:nodetypes="cccccc" />
        <path style="opacity:1;fill:#f0f0f0;fill-opacity:1;fill-rule:evenodd;stroke:#181818;stroke-width:0.51794857;stroke-linecap:round;stroke-linejoin:round;stroke-miterlimit:4;stroke-dasharray:none;stroke-dashoffset:1.85196841;stroke-opacity:1" d="m 207.76601,-139.2575 c 1.36847,1.04704 2.6448,2.2216 3.92469,3.37757 1.70727,1.61117 3.06878,3.67776 3.46817,6.02276 0.48889,2.68469 0.19396,5.43146 -0.21643,8.10553 -0.0554,0.47833 -0.14591,0.98826 -0.12829,1.44983 h -7.05925" id="wkpath1339-0-3" ns0:connector-curvature="0" ns1:nodetypes="cccccc" />
        <circle r="0" style="opacity:1;fill:#f0f0f0;fill-opacity:1;fill-rule:evenodd;stroke:none;stroke-width:0.51794857;stroke-linecap:round;stroke-linejoin:round;stroke-miterlimit:4;stroke-dasharray:none;stroke-dashoffset:46.29920959;stroke-opacity:1" id="wkpath1313-8-7-9" cx="207.77711" cy="-118.80181" />
        <path style="opacity:1;fill:#191919;fill-opacity:1;fill-rule:evenodd;stroke:#ffffff;stroke-width:1.95760083;stroke-linecap:round;stroke-linejoin:round;stroke-miterlimit:4;stroke-dasharray:none;stroke-dashoffset:1.85196841;stroke-opacity:1" d="m 724.03961,-547.30852 c -19.15294,7.23341 -27.30103,14.74346 -24.70508,34.39795 4.97136,18.50228 13.42305,34.71929 25.39795,47.75488 0.29926,0.50371 1.00544,0.15466 0.51123,-0.35156 -4.68993,-9.1894 -7.88134,-19.02619 -10.49317,-28.98047 -2.04758,-8.00876 -5.05388,-16.18007 -3.69043,-24.56006 0.76172,-5.79112 4.17101,-11.30333 9.4675,-13.96648 10.37392,-6.04424 22.74731,-6.68405 34.46707,-6.60041 9.85562,0.31313 19.44291,3.84756 27.60238,9.31214 0.30607,0.0846 1.41526,1.24458 1.53288,0.48718 -2.46358,-4.14138 -5.1847,-8.22874 -8.62256,-11.63819 -3.66379,-3.68838 -8.48829,-6.10015 -13.6294,-6.85791 -12.75535,-2.09443 -26.14503,-1.36543 -37.83837,1.00293 z" id="wkpath1242-4" ns0:connector-curvature="0" transform="scale(0.26458333)" ns1:nodetypes="ccccccccccccc" />
        <path style="opacity:1;fill:#f0f0f0;fill-opacity:1;fill-rule:evenodd;stroke:#181818;stroke-width:1.95760083;stroke-linecap:round;stroke-linejoin:round;stroke-miterlimit:4;stroke-dasharray:none;stroke-dashoffset:1.85196841;stroke-opacity:1" d="m 750.60943,-538.62151 c -10.79335,0.10922 -22.17078,1.49098 -31.36719,7.59034 -5.10433,3.45779 -7.54888,9.7266 -7.49651,15.73774 -0.0876,8.06519 2.817,15.73994 4.74201,23.46607 5.17654,14.13253 8.26463,27.16159 17.32286,37.14335 h 23.73877 c 0.28132,-2.33007 -0.80804,-4.74991 -1.20068,-7.0791 -3.06271,-14.16612 -7.13955,-30.01443 -2.90186,-42.95459 2.80586,-7.90879 9.72781,-13.67684 17.17523,-17.07018 4.47982,-2.10054 9.14613,-3.76642 13.7779,-5.46839 0.83544,-0.66306 -0.86569,-1.22661 -1.20009,-1.55884 -7.76047,-5.10935 -16.55644,-9.0455 -25.94005,-9.61353 -2.21176,-0.1787 -4.43218,-0.21968 -6.65039,-0.19287 z" id="wkpath1258-0" ns0:connector-curvature="0" transform="scale(0.26458333)" ns1:nodetypes="ccccccccccccc" />
        <path style="opacity:1;fill:#191919;fill-opacity:1;fill-rule:evenodd;stroke:#ffffff;stroke-width:0.51794857;stroke-linecap:round;stroke-linejoin:round;stroke-miterlimit:4;stroke-dasharray:none;stroke-dashoffset:1.85196841;stroke-opacity:1" d="m 223.96321,-144.80872 c 5.06755,1.91384 7.22339,3.90088 6.53655,9.10113 -1.31534,4.89539 -3.55152,9.18614 -6.71987,12.63514 -0.0792,0.13328 -0.26603,0.0409 -0.13527,-0.093 1.24088,-2.43136 2.08527,-5.03401 2.77632,-7.66774 0.54176,-2.11899 1.33717,-4.28098 0.97643,-6.49819 -0.20154,-1.53223 -1.10358,-2.99067 -2.50495,-3.69529 -2.74476,-1.59921 -6.01856,-1.76849 -9.11941,-1.74636 -2.60763,0.0829 -5.14427,1.018 -7.30313,2.46384 -0.081,0.0224 -0.37445,0.32929 -0.40557,0.1289 0.65182,-1.09575 1.37178,-2.17719 2.28138,-3.07928 0.96938,-0.97588 2.24586,-1.61399 3.60612,-1.81448 3.37485,-0.55416 6.91753,-0.36127 10.0114,0.26535 z" id="wkpath1242-9-7" ns0:connector-curvature="0" ns1:nodetypes="ccccccccccccc" />
        <path style="opacity:1;fill:#f0f0f0;fill-opacity:1;fill-rule:evenodd;stroke:#181818;stroke-width:0.51794857;stroke-linecap:round;stroke-linejoin:round;stroke-miterlimit:4;stroke-dasharray:none;stroke-dashoffset:1.85196841;stroke-opacity:1" d="m 216.93328,-142.51028 c 2.85574,0.0289 5.86601,0.39449 8.29923,2.00828 1.35052,0.91487 1.99731,2.5735 1.98345,4.16394 0.0232,2.13392 -0.74533,4.16453 -1.25465,6.20873 -1.36963,3.73924 -2.18669,7.18651 -4.58334,9.82752 h -6.28089 c -0.0744,-0.6165 0.2138,-1.25675 0.31768,-1.87302 0.81035,-3.74812 1.88901,-7.94131 0.76779,-11.36506 -0.74239,-2.09254 -2.57382,-3.61867 -4.54428,-4.51649 -1.18529,-0.55577 -2.41992,-0.99653 -3.64541,-1.44685 -0.22104,-0.17543 0.22905,-0.32454 0.31753,-0.41244 2.05329,-1.35185 4.38056,-2.39329 6.8633,-2.54358 0.5852,-0.0473 1.17268,-0.0581 1.75959,-0.051 z" id="wkpath1258-3-1" ns0:connector-curvature="0" ns1:nodetypes="ccccccccccccc" />
        <path style="opacity:1;fill:#191919;fill-opacity:1;fill-rule:evenodd;stroke:#191919;stroke-width:1.95760083;stroke-linecap:round;stroke-linejoin:round;stroke-miterlimit:4;stroke-dasharray:none;stroke-dashoffset:1.85196841;stroke-opacity:1" d="m 782.79191,-525.99576 c -7.84099,3.0399 -17.83891,6.9161 -23.56354,13.39383 -7.56748,8.95322 -7.09063,20.18596 -6.13408,29.91161 0.84096,8.34439 2.31399,17.06495 3.74208,19.79662 -1.18899,-13.42349 -2.29075,-28.12095 3.29016,-38.8171 4.66455,-9.46185 13.53695,-15.63897 20.9639,-22.75592 0.14273,-0.13205 2.1908,-1.53428 1.70148,-1.52904 z" id="wkpath1256-3" ns0:connector-curvature="0" ns1:nodetypes="ccccccc" transform="scale(0.26458333)" />
        <path style="opacity:1;fill:#191919;fill-opacity:1;fill-rule:evenodd;stroke:#191919;stroke-width:0.51794857;stroke-linecap:round;stroke-linejoin:round;stroke-miterlimit:4;stroke-dasharray:none;stroke-dashoffset:1.85196841;stroke-opacity:1" d="m 208.84475,-138.94047 c 2.0746,0.80431 4.29346,1.60064 5.8081,3.31454 2.00223,2.36887 1.87606,5.34087 1.62297,7.91411 -0.2225,2.20779 -0.61224,4.5151 -0.99009,5.23786 0.31459,-3.55163 0.6061,-7.44034 -0.87052,-10.27036 -1.23416,-2.50345 -3.58165,-4.13781 -5.5467,-6.02084 -0.0378,-0.0349 -0.62769,-0.41713 -0.49827,-0.41574 z" id="wkpath1256-4-6" ns0:connector-curvature="0" ns1:nodetypes="cccccccc" />
        <path id="wkpath2160-1-9-0" style="fill:#f0f0f0;fill-opacity:1;stroke:#181818;stroke-width:0.51794857;stroke-linecap:butt;stroke-linejoin:round;stroke-miterlimit:4;stroke-dasharray:none;stroke-dashoffset:46.29920959;stroke-opacity:1" d="m 207.76601,-139.2575 c -0.28598,-1.05956 -3.35453,-7.63519 -4.04686,-7.69942 -0.6105,-0.14879 -1.20733,0.1183 -1.5456,0.63052 -0.23867,0.41475 -0.13277,-0.20554 -0.15577,-0.38169 0.0564,-0.88746 -0.0811,-2.00896 0.75795,-2.5927 0.94328,-0.7703 2.4948,-0.41958 3.55295,-0.0192 0.32329,-0.2313 -0.1884,-0.91184 -0.22302,-1.26964 -0.44535,-1.25852 0.70094,-2.4954 1.65996,-3.24746 m 3.4e-4,14.57959 c 0.28598,-1.05956 3.35415,-7.63502 4.04647,-7.69925 0.6105,-0.14878 1.20733,0.1183 1.54561,0.63052 0.23867,0.41476 0.13277,-0.20553 0.15577,-0.38168 -0.0564,-0.88745 0.0811,-2.00897 -0.75795,-2.59271 -0.94328,-0.7703 -2.49481,-0.41959 -3.55296,-0.0192 -0.32328,-0.2313 0.18841,-0.91184 0.22303,-1.26963 0.44535,-1.25854 -0.70094,-2.49542 -1.65997,-3.24749" ns0:connector-curvature="0" ns1:nodetypes="cccccccccccccccc" />
      </g>
      <path ns1:nodetypes="ccccc" ns0:connector-curvature="0" id="wkpath1507" d="m -35.640391,-186.90484 c 14.209018,-5.0259 19.549641,9.34254 7.534166,23.64631 -4.903145,5.89108 -28.415071,4.37436 -25.125778,-3.04011 10.054291,4.04107 30.922135,-3.54066 18.336618,-13.84871 -1.475769,-1.86511 -2.304158,-4.65113 -0.745006,-6.75749 z" style="opacity:0.10499998;fill:#191919;fill-opacity:1;stroke:none;stroke-width:0.52255827;stroke-linecap:butt;stroke-linejoin:miter;stroke-miterlimit:4;stroke-dasharray:none;stroke-opacity:1" />
      <circle r="1.2500001" cy="-160.89679" cx="-41.055569" id="wkpath1413-6" style="opacity:1;fill:#f0f0f0;fill-opacity:1;fill-rule:evenodd;stroke:none;stroke-width:0.52255827;stroke-linecap:round;stroke-linejoin:round;stroke-miterlimit:4;stroke-dasharray:none;stroke-dashoffset:46.29920959;stroke-opacity:1" />
    </g>
  </g>
  <g id="wn" transform="scale(0.8 0.8)">
    <metadata id="wnmetadata16" />
    <defs id="wndefs14" />
    <namedview pagecolor="#ffffff" bordercolor="#666666" borderopacity="1" objecttolerance="10" gridtolerance="10" guidetolerance="10" ns0:pageopacity="0" ns0:pageshadow="2" ns0:window-width="896" ns0:window-height="575" id="wnnamedview12" showgrid="false" ns0:zoom="2.36" ns0:cx="-11.803215" ns0:cy="-2.5647225" ns0:window-x="192" ns0:window-y="192" ns0:window-maximized="0" ns0:current-layer="svg10" />
    <g transform="matrix(0.9703984,0,0,0.94883967,-37.245915,29.563881)" id="wng1113" style="stroke-width:0.52107298;stroke-miterlimit:4;stroke-dasharray:none">
      <path ns1:nodetypes="ccccccccccccccccccccccccccccccc" ns0:connector-curvature="0" id="wnpath2225-0" d="m 58.038252,-24.467954 c -0.86714,-0.0295 -1.669083,0.410707 -2.23958,1.041061 -0.259005,0.280807 0.344513,0.563022 0.447315,0.834665 0.429554,0.588666 0.986138,1.145582 1.195276,1.856993 -0.7723,0.787495 -1.749753,1.351714 -2.615461,2.03292 -0.968605,0.772668 -2.120892,1.51638 -2.567296,2.730351 -0.161053,0.384292 0.003,0.883423 -0.415145,1.125876 -2.181301,2.262515 -4.434118,4.460567 -6.54063,6.7925083 -0.204699,0.7201639 0.06734,1.5793398 -0.465735,2.1989514 -0.606171,0.8585833 -0.293594,2.0088642 0.276964,2.7970895 0.699189,0.9911288 1.724654,1.8891879 2.982527,1.9987465 0.997756,0.11907306 2.043649,0.27018185 3.028496,0.00388 0.698632,-0.3720781 1.162208,-1.0645983 1.744397,-1.5844938 0.820092,-0.825341 1.689703,-1.7805077 2.915653,-1.9251078 1.644318,-0.2599265 3.481425,-0.3611032 4.793989,-1.5256717 0.620487,-0.4561097 1.049662,-1.1623988 1.746308,-1.5050236 0.672221,-0.1906163 1.130482,0.4723023 1.467223,0.9434827 0.792559,1.1353479 0.946226,2.8193357 -0.02946,3.8991211 -0.671237,0.695928 -1.663464,1.0435692 -2.498821,1.5377366 -3.248713,1.72566492 -6.61826,3.3570112 -9.395289,5.8126189 -1.582713,1.4299454 -2.953702,3.3830461 -2.901364,5.6023389 0.05896,1.244726 0.274302,2.551768 0.972291,3.60972 0.297449,0.3919 0.681791,0.779049 1.13249,0.957315 7.49305,-0.0037 14.988057,0.01138 22.479887,-0.0038 5.630138,-2.360088 8.191815,-5.1358999 9.585198,-10.9060479 1.343048,-6.0701959 0.582337,-12.6270662 -2.270402,-18.1652911 -1.838875,-3.579028 -4.772111,-6.662471 -8.473252,-8.320032 -2.696146,-1.26765 -5.720261,-1.768495 -8.684868,-1.616307 -1.141871,0.210291 -2.328269,0.451633 -3.459329,0.08151 -0.724212,-0.170233 -1.464052,-0.317839 -2.211384,-0.305149 z" style="opacity:1;fill:#efefef;fill-opacity:1;fill-rule:evenodd;stroke:#000000;stroke-width:0.52107298;stroke-linecap:round;stroke-linejoin:round;stroke-miterlimit:4;stroke-dasharray:none;stroke-dashoffset:46.29920959;stroke-opacity:1" />
      <path ns0:connector-curvature="0" id="wnpath855-6-5" d="m 53.752252,-14.078479 c 0.157427,0.606891 0.687751,1.248124 1.380705,0.985181 0.993055,-0.187674 1.718751,-0.952267 2.401878,-1.634468 0.390814,-0.569574 -0.65819,-0.473149 -0.973324,-0.661861 -0.756137,-0.20775 -1.674488,-0.12901 -2.197677,0.523071 -0.227068,0.243882 -0.414599,0.520319 -0.611582,0.788077 z" style="opacity:1;fill:#191919;fill-opacity:1;stroke:none;stroke-width:0.52107298;stroke-linecap:round;stroke-linejoin:round;stroke-miterlimit:4;stroke-dasharray:none;stroke-dashoffset:46.29920959;stroke-opacity:1" />
      <path ns1:nodetypes="cccc" ns0:connector-curvature="0" id="wnpath889-6-3" d="m 46.786088,-7.4349946 c 0.293666,0.244041 -0.286456,0.9612733 -0.312507,1.3032418 -0.08859,0.2629429 -0.141753,0.8655894 -0.503235,0.79321 -0.334711,-0.6592356 0.200917,-1.9573445 0.815742,-2.0964518 z" style="opacity:1;fill:#191919;fill-opacity:1;stroke:none;stroke-width:0.52107298;stroke-linecap:round;stroke-linejoin:round;stroke-miterlimit:4;stroke-dasharray:none;stroke-dashoffset:46.29920959;stroke-opacity:1" />
      <path ns1:nodetypes="ccsccc" ns0:connector-curvature="0" d="M 60.205941,-0.15653165 C 53.385792,2.2744698 50.739271,8.2932837 50.781776,10.031119 c -0.173556,3.17337 1.022385,4.407809 4.978005,4.905469 5.528744,0.695568 12.950606,-0.771937 16.283021,-3.14327 21.781005,-10.4604153 4.542556,-43.035873 -9.97536,-33.289039 6.017881,5.936592 10.803382,17.6437445 -1.8615,21.33917876" style="opacity:0.10499998;fill:#000000;fill-opacity:1;stroke:none;stroke-width:0.52107298;stroke-linecap:butt;stroke-linejoin:round;stroke-miterlimit:4;stroke-dasharray:none;stroke-dashoffset:46.29920959;stroke-opacity:1" id="wnpath3233-6" />
      <path ns1:nodetypes="scccs" ns0:connector-curvature="0" id="wnpath3703-9" d="m 52.518858,-14.686174 c 0.997948,-1.861332 2.994374,-2.635005 4.81661,-2.715111 1.015929,-0.285115 2.977237,1.261851 1.433389,2.039355 -3.174369,-2.028337 -4.772647,-0.43271 -5.388461,0.369824 -0.174853,0.141383 -1.448108,1.399973 -0.861538,0.305932 z" style="opacity:0.119;fill:#000000;fill-opacity:1;stroke:none;stroke-width:0.52107298;stroke-linecap:butt;stroke-linejoin:round;stroke-miterlimit:4;stroke-dasharray:none;stroke-dashoffset:46.29920959;stroke-opacity:1" />
      <path ns1:nodetypes="ccccccccc" ns0:connector-curvature="0" id="wnpath3945-5" d="m 60.973533,-11.015176 c 0.07018,0.538046 0.539848,1.5301586 0.27348,2.0298294 -0.218743,0.4405311 -0.335104,0.8627636 -0.688588,1.1574353 -0.644326,0.6267977 -1.265736,1.2927114 -1.790215,2.0461916 -0.13317,0.1354137 -0.299103,0.5807391 0.0362,0.420645 0.743021,-0.2940472 1.430488,-0.7327792 2.124978,-1.1424705 0.326014,-0.2134234 0.675293,-0.3888527 0.97816,-0.6413603 0.801285,-0.7597138 0.871031,-2.3181409 0.0741,-3.1105675 -0.113313,-0.109517 -0.861942,-0.71955 -1.008107,-0.759703 z" style="opacity:0.119;fill:#000000;fill-opacity:1;stroke:none;stroke-width:0.52107298;stroke-linecap:butt;stroke-linejoin:round;stroke-miterlimit:4;stroke-dasharray:none;stroke-dashoffset:46.29920959;stroke-opacity:1" />
      <path ns1:nodetypes="ccc" ns0:connector-curvature="0" id="wnpath979-4" d="m 62.067442,-21.495721 c 32.191712,8.744016 3.395193,34.575303 -5.212046,36.151923 4.829374,0.108842 33.609208,-26.446814 5.212046,-36.151923 z" style="fill:#191919;fill-opacity:1;stroke:none;stroke-width:0.52107298;stroke-linecap:butt;stroke-linejoin:miter;stroke-miterlimit:4;stroke-dasharray:none;stroke-opacity:1" />
    </g>
  </g>
  <g id="wp" transform="scale(0.8 0.8)">
    <metadata id="wpmetadata14" />
    <defs id="wpdefs12" />
    <namedview pagecolor="#ffffff" bordercolor="#666666" borderopacity="1" objecttolerance="10" gridtolerance="10" guidetolerance="10" ns0:pageopacity="0" ns0:pageshadow="2" ns0:window-width="1920" ns0:window-height="1001" id="wpnamedview10" showgrid="false" ns0:zoom="4.72" ns0:cx="-9.8516949" ns0:cy="25" ns0:window-x="-9" ns0:window-y="-9" ns0:window-maximized="1" ns0:current-layer="svg8" />
    <g id="wpg6" transform="matrix(0.72658252,0,0,0.77810471,6.836746,5.5509128)" style="stroke-width:1.28718388">
      <path d="m 1982.0251,7884.2758 c -243.647,-2.277 -494.546,-151.043 -573.852,-388.452 -66.012,-186.978 -9.428,-407.385 136.035,-541.625 47.466,-49.743 109.084,-81.642 164.453,-120.301 -15.95,-14.965 -53.295,-18.191 -76.778,-26.434 -247.027,-64.896 -490.616,-145.62 -724.97196,-247.378 -36.654,-21.222 -84.883,-32.369 -111.873,-65.91 7.277,-25.285 46.689,-14.625 66.73,-19.605 222.86496,-7.371 447.80196,25.762 669.20596,-1.523 39.954,-0.01 61.768,-35.289 69.099,-70.199 42.437,-145.482 28.776,-299.595 19.167,-448.683 -30.853,-255.918 -95.419,-510.379 -201.985,-745.879 -40.702,-87.209 -92.468,-177.952 -184.815,-218.579 -248.22796,-123.644 -521.83996,-189.824 -765.95096,-322.658 -82.143,-50.512 -178.841,-109.9 -201.578,-210.716 -23.484,-52.08 43.014,-31.625 71.911,-35.241 H 3713.4218 c 16.7552,21.699 4.1437,58.952 -8.3498,83.264 -70.5167,111.883 -197.0292,170.088 -312.2182,225.22 -222.5257,101.388 -462.9057,163.006 -676.8317,282.263 -89.521,53.778 -128.156,157.951 -170.789,247.766 -110.002,269.545 -177.662,557.289 -190.344,847.888 -1.365,110.632 1.825,224.509 44.116,328.235 26.905,53.25 97.484,38.957 146.037,45.079 209.742,9.709 419.744,-15.758 629.232,-2.405 20.7587,-2.99 29.4694,21.984 8.435,29.419 -173.462,96.111 -364.366,155.721 -551.524,219.064 -114.328,38.038 -230.517,70.496 -347.561,98.539 -28.105,7.56 8.574,19.345 16.931,26.281 184.565,96.571 320.815,297.443 304.724,510.291 -11.837,224.954 -185.892,415.287 -393.967,485.381 -73.404,25.887 -151.484,38.281 -229.287,36.897 z" transform="matrix(0.01094,0,0,-0.01093,3.2196065,92.237563)" id="wppath2" ns0:connector-curvature="0" style="fill:#efefef;stroke:#000000;stroke-width:60.81183624;stroke-linecap:round;stroke-linejoin:round;stroke-dashoffset:46.29920959" />
      <path d="m 28.393647,8.3649273 c -2.288266,0.7792291 -0.31594,3.1461087 0.22117,4.4463867 0.39431,2.063299 -1.910422,3.271225 -2.724534,4.968298 -1.814264,6.524822 -0.363785,13.245933 0.0641,19.834232 2.175959,5.826972 12.338355,5.710587 17.958524,5.813649 -2.203522,-4.557514 -10.752696,-3.142556 -12.680395,-6.051118 -2.083398,-2.925601 -4.419608,-14.351267 -1.871921,-16.406053 2.830202,-0.476501 3.09624,-0.07183 5.9363,-0.24442 2.421997,0.08417 -7.961296,-3.12778 -8.019228,-3.198175 2.447883,-0.48143 3.561404,-2.87231 3.553111,-4.908527 -0.07695,-1.54413 -0.28582,-4.0632414 -2.437129,-4.2542727 z" id="wppath4" ns0:connector-curvature="0" style="opacity:0.07000002;stroke-width:1.45835292" />
    </g>
  </g>
  <g id="wq" transform="scale(0.8 0.8)">
    <metadata id="wqmetadata18" />
    <defs id="wqdefs16" />
    <namedview pagecolor="#ffffff" bordercolor="#666666" borderopacity="1" objecttolerance="10" gridtolerance="10" guidetolerance="10" ns0:pageopacity="0" ns0:pageshadow="2" ns0:window-width="1920" ns0:window-height="1001" id="wqnamedview14" showgrid="false" ns0:zoom="6.675088" ns0:cx="-28.278919" ns0:cy="30.617881" ns0:window-x="-9" ns0:window-y="-9" ns0:window-maximized="1" ns0:current-layer="svg12" />
    <path style="fill:#efefef;stroke:#000000;stroke-width:0.49993247;stroke-linecap:round;stroke-linejoin:round;stroke-dashoffset:46.29920959" ns0:connector-curvature="0" id="wqpath2" d="m 24.907763,5.237413 c -1.057487,0.019543 -1.907817,1.1913003 -1.281118,2.0091904 0.154724,0.3223307 0.527439,0.4745136 0.783468,0.705784 -0.171572,1.1529506 -0.473383,2.3055386 -0.681477,3.4599286 -0.607398,2.826089 -1.04207,5.721201 -2.25849,8.401952 -0.340402,0.628424 -0.673287,1.387537 -1.423491,1.716243 -0.922546,0.118247 -1.769101,-0.389328 -2.473703,-0.855067 -1.85262,-1.425662 -3.150935,-3.325977 -4.350831,-5.201792 -0.373545,-0.600991 -0.715162,-1.216834 -1.062238,-1.829991 0.415046,-0.522202 0.448574,-1.406088 -0.256028,-1.74408 -0.694597,-0.329239 -1.579298,0.256485 -1.489129,0.938611 -0.02095,0.581044 0.589576,0.977611 1.172634,1.081774 0.357899,0.669386 0.512166,1.454363 0.812245,2.162898 0.735196,2.155808 1.744965,4.255281 2.159494,6.484994 0.103361,0.808818 0.334244,1.849364 -0.455597,2.456411 -0.900671,0.58146 -2.14202,0.59307 -3.093355,0.08967 C 9.0251955,24.100392 7.6545332,22.362069 6.3055534,20.756099 5.8991301,20.223117 5.4180388,19.714348 5.100017,19.138944 5.2697248,18.7226 5.4455898,18.272789 5.2736813,17.827861 5.0542229,17.016315 3.7605736,16.792294 3.1474392,17.386398 c -0.6949818,0.596216 -0.4052928,1.718504 0.4679953,2.049545 0.1505988,0.139474 0.4079625,0.0481 0.5515263,0.143291 0.579847,1.257338 0.8848689,2.601557 1.3301234,3.899643 0.8719292,2.734379 1.6828396,5.494931 2.5908822,8.213424 0.9277288,0.557652 2.0279676,0.963889 2.7163716,1.778048 0.245939,0.301125 0.03023,0.676422 -0.211979,0.918045 0.399172,1.293512 0.957336,2.574007 1.417238,3.862551 0.566547,1.558175 1.206246,3.107117 1.69519,4.680879 -0.133486,0.182878 -0.499286,0.03254 -0.710326,0.09171 -1.612718,0.05104 -3.2338289,-0.04383 -4.8419042,0.06368 -0.3432999,0.131201 -0.022464,0.539816 0.094102,0.727384 0.2433416,0.426548 0.7657776,0.583848 1.2723034,0.600619 4.8380798,0.434138 9.7109018,0.327885 14.5667188,0.349891 4.442395,-0.02765 8.887761,0.01784 13.327703,-0.130615 1.319553,-0.09798 2.686078,-0.04507 3.960679,-0.400821 0.43009,-0.189211 0.688812,-0.650749 0.742952,-1.056922 -0.220035,-0.201898 -0.643391,-0.06767 -0.937734,-0.122192 -1.618417,-0.04814 -3.262077,0.03413 -4.865667,-0.08226 0.04779,-0.622954 0.408384,-1.211162 0.579703,-1.816834 0.825618,-2.220833 1.629253,-4.448084 2.522456,-6.648372 -0.166678,-0.281476 -0.50352,-0.638126 -0.254851,-0.977782 0.65769,-0.893022 1.89453,-1.224223 2.743381,-1.932672 0.365488,-0.785788 0.528906,-1.649118 0.820507,-2.462722 0.988556,-3.083566 1.876359,-6.193572 2.933882,-9.259119 0.07384,-0.146767 0.109795,-0.420417 0.36509,-0.352962 0.977648,-0.118663 1.589243,-1.277776 0.957866,-1.989146 -0.481801,-0.663383 -1.723812,-0.638904 -2.14297,0.06871 -0.35891,0.43722 -0.205749,0.97985 0.01305,1.434085 0.03077,0.483992 -0.512852,0.816792 -0.752946,1.213125 -1.356244,1.595458 -2.639779,3.312202 -4.473987,4.513812 -0.907177,0.590416 -2.130728,0.950499 -3.208442,0.521627 -0.631474,-0.203977 -1.104015,-0.736169 -1.088947,-1.345327 -0.05627,-1.672883 0.606112,-3.288609 1.140477,-4.87864 0.616851,-1.669237 1.306926,-3.33085 1.817228,-5.022849 0.400951,-0.291081 1.062345,-0.33909 1.221518,-0.856495 0.215779,-0.535082 -0.09071,-1.246858 -0.773931,-1.348047 -0.735569,-0.216269 -1.374414,0.594158 -1.196553,1.188881 0.02868,0.341276 0.471146,0.630385 0.124948,0.941446 -1.36762,2.317971 -2.805855,4.689995 -4.985179,6.495998 -0.756794,0.579338 -1.684042,1.169998 -2.735456,1.093747 C 28.963193,21.050954 28.57808,20.014097 28.198486,19.128901 26.905366,15.552431 26.406993,11.803776 25.584045,8.1313415 25.437944,7.8393856 25.893938,7.8234892 26.026654,7.6365283 26.743908,7.1214048 26.75425,6.0613589 26.01066,5.5614815 25.706937,5.3345824 25.304277,5.2159513 24.907751,5.237413 Z" />
    <ellipse style="fill:#191919;stroke-width:0.01009751" id="wqcircle4" cy="6.6027288" cx="25.016544" rx="0.75161123" ry="0.66634685" />
    <path style="fill:#191919;stroke-width:0.01009751" ns0:connector-curvature="0" id="wqpath6" d="m 24.999965,40.879178 c -0.304457,-1.067392 -3.571308,-7.691626 -4.308368,-7.756321 -0.649957,-0.14989 -1.285351,0.119164 -1.645487,0.635173 -0.254093,0.417815 -0.141351,-0.207058 -0.165836,-0.384509 0.06001,-0.894014 -0.08635,-2.023807 0.80693,-2.611856 1.004237,-0.776001 2.656026,-0.422688 3.782553,-0.01935 0.344178,-0.233008 -0.200578,-0.918588 -0.237437,-1.279023 -0.474129,-1.267829 0.746235,-2.513855 1.767236,-3.271475 m 3.61e-4,14.687362 c 0.304457,-1.067403 3.570899,-7.691456 4.307959,-7.756161 0.649957,-0.14988 1.285352,0.119164 1.645488,0.635183 0.254092,0.417827 0.141351,-0.207058 0.165835,-0.384508 -0.06001,-0.894014 0.08635,-2.023819 -0.80693,-2.611878 -1.004237,-0.77599 -2.656026,-0.422687 -3.782553,-0.01935 -0.344177,-0.233009 0.200578,-0.918578 0.237437,-1.279013 0.474129,-1.26784 -0.746235,-2.513866 -1.767236,-3.271486" />
    <path style="opacity:0.07000002;stroke-width:0.01009751" ns0:connector-curvature="0" id="wqpath8" d="m 26.11971,13.641241 c 0.952093,0.749955 1.472833,9.397282 2.864612,9.588295 2.588886,1.351234 6.061018,-5.853596 6.864111,-5.201547 0.716472,0.811515 -0.931132,2.867573 -1.639907,4.707437 -0.845749,1.466752 -1.248216,2.407836 0.314835,3.595395 1.443779,0.865451 3.760088,1.291412 4.785911,0.330902 0.906961,-0.742939 4.604984,-5.767429 5.468652,-5.931319 0.02014,1.748057 -2.392818,7.00965 -3.397909,7.853746 -1.856744,1.734431 -1.712783,3.869812 -3.128169,5.907778 -0.757216,2.770553 -1.179248,6.108876 -2.476313,8.540179 -0.08037,0.143163 6.078539,0.274535 5.972351,0.394424 -1.336725,1.509185 -10.827303,1.200277 -12.309805,-0.275655 -1.935176,-1.636452 -2.793035,-4.352364 -5.549116,-5.142694 -4.97023,-7.759818 -3.222824,-16.409991 2.230747,-24.366941 z" />
  </g>
  <g id="wr" transform="scale(0.8 0.8)">
    <metadata id="wrmetadata18" />
    <defs id="wrdefs16" />
    <namedview pagecolor="#ffffff" bordercolor="#666666" borderopacity="1" objecttolerance="10" gridtolerance="10" guidetolerance="10" ns0:pageopacity="0" ns0:pageshadow="2" ns0:window-width="1920" ns0:window-height="1001" id="wrnamedview14" showgrid="false" ns0:zoom="9.44" ns0:cx="-5.7691403" ns0:cy="20.404388" ns0:window-x="-9" ns0:window-y="-9" ns0:window-maximized="1" ns0:current-layer="svg12" />
    <path d="M 45.00001,19.799562" id="wrpath2" ns0:connector-curvature="0" style="fill:none;stroke:#140707;stroke-width:0.49984252;stroke-linejoin:round;stroke-dashoffset:46.29920959" />
    <path d="m 8.4157811,5.3057405 c -0.040706,2.8805579 -0.00581,5.7730555 -0.017449,8.6581875 0.5380029,0.696421 1.3721745,1.083358 2.1521789,1.484877 0.244203,0.184818 0.09087,0.566562 0.148168,0.826368 0.02793,0.665239 -0.04162,1.349411 0.03606,2.002432 0.960836,0.03887 1.934194,0.0055 2.899856,0.01665 0.02276,0.547062 -0.04437,1.114008 0.03245,1.649109 1.101341,0.03886 2.215193,0.0055 3.321349,0.01665 0.655239,2.867243 1.173782,5.858567 0.514332,8.767514 -0.615785,3.103338 -2.507385,5.860358 -5.00075,7.891799 -1.804603,1.538342 -3.954671,2.623342 -5.8837043,4.00576 -0.083646,0.615398 -0.010217,1.26713 -0.035177,1.896111 -0.4335233,0.02198 -0.8880924,-0.04273 -1.3090711,0.03097 -0.018208,0.717861 -0.049744,1.467245 0.015002,2.177728 5.5035644,0.03886 11.0196514,0.0055 16.5280434,0.01665 h 20.945048 c 0.198928,-0.282075 0.02544,-0.758979 0.08372,-1.112675 -0.05827,-0.353301 0.115348,-0.831207 -0.08372,-1.112675 h -1.242788 c -0.0245,-0.628416 0.0475,-1.278964 -0.03464,-1.89415 -2.475135,-1.759578 -5.292283,-3.129681 -7.3556,-5.371642 -2.234629,-2.275126 -3.61297,-5.298444 -3.786674,-8.399479 -0.18006,-2.325467 0.26651,-4.628697 0.771616,-6.895913 1.109607,-0.02068 2.239266,0.04131 3.336339,-0.03096 0.04067,-0.539419 0.0057,-1.090799 0.01746,-1.634791 0.969125,-0.02058 1.958234,0.04113 2.914847,-0.03097 0.08202,-0.911675 -0.07791,-1.864853 0.09396,-2.763341 0.725301,-0.415966 1.537601,-0.73286 2.097152,-1.368483 0.28273,-0.294837 0.05887,-0.78173 0.130306,-1.154103 V 5.354674 C 39.396789,5.1647611 38.885607,5.330474 38.503301,5.274771 36.716068,5.29428 34.90989,5.235731 33.134521,5.304078 33.065381,6.3557307 33.167611,7.445965 33.083181,8.4948566 32.69329,9.5692702 31.552506,10.309934 30.362012,10.288197 29.164759,10.328447 27.99425,9.6004746 27.5975,8.5172124 27.50045,7.5088322 27.58381,6.4613266 27.55597,5.4379678 27.4647,5.0772998 26.805824,5.3685758 26.49481,5.2747712 h -5.864613 c -0.198994,0.2932806 -0.02535,0.781133 -0.08372,1.1459908 -0.05464,0.7548645 0.111594,1.5585133 -0.115908,2.2858729 C 19.703902,10.41714 17.05036,10.829109 15.728554,9.5164775 15.301462,9.0989865 14.89782,8.5821259 15.015057,7.9654264 c -0.03494,-0.8888612 0.01873,-1.798543 -0.07044,-2.674643 -2.14875,-0.037345 -4.309284,-0.00533 -6.4625572,-0.016023 l -0.062701,0.029307 z" id="wrpath4" ns0:connector-curvature="0" style="fill:#efefef;stroke:#000000;stroke-width:0.49984252;stroke-linecap:round;stroke-linejoin:round;stroke-dashoffset:46.29920959" />
    <path d="m 17.32214,12.643258 c 2.807887,-1.89721 4.840763,-2.473888 6.475259,-2.482076 3.386451,-0.01695 5.062759,2.406447 8.37832,0.58201 2.115708,-1.7135758 2.802716,-4.9745669 5.762436,-5.6933445 3.508904,3.1200758 0.206389,7.0006555 -0.482406,8.8177695 -2.151643,3.318624 -1.136004,4.301141 -4.398416,5.83411 -0.647956,0.285222 -1.597688,-0.588565 -1.940516,0.009 -1.035244,1.830196 -1.372186,4.430991 -1.137199,6.411919 -1.43645,9.526165 5.387713,9.158663 10.711207,14.016003 0.506134,1.221 1.041545,2.473771 2.119304,3.157506 0.373626,2.325776 -2.257138,0.422821 -3.595599,0.945801 -2.901085,0.317961 -5.818781,0.273185 -8.723663,0.01351 -19.941474,-1.775495 -8.208505,-7.846618 -7.208526,-18.112774 0.368097,-2.263922 0.346225,-4.591383 1.025927,-6.804143 -0.143755,-2.411149 -3.1894,-2.678535 -5.135926,-2.978479 -2.813362,-0.430379 -6.03137,-0.551454 -8.187481,-2.555337 -4.2630595,-15.9356936 1.939735,-0.525922 6.337279,-1.161417 z" id="wrpath6" ns0:connector-curvature="0" style="opacity:0.07000002;stroke-width:0.99999994" />
    <path style="stroke-width:47.24409866;stroke-linejoin:round;stroke-dashoffset:46.29920959" ns0:connector-curvature="0" id="wrpath8" d="M 18.35177,19.777585 H 29.311362 V 21.44576 H 18.35177 Z m -5.585346,19.837716 h 22.130285 v 1.668175 H 12.766424 Z" />
  </g>
</svg>