<svg xmlns="http://www.w3.org/2000/svg" width="40" height="40" viewbox="0.0 0.0 180.0 180.0">
  <g id="bb" fill="none" transform="scale(0.2222222222222222 0.2222222222222222)">
    <path d="M60.7286 141.987H122.105C124.954 141.987 126.379 143.412 126.379 146.262C126.379 149.111 124.954 150.536 122.105 150.536H60.7286C57.8796 150.536 56.4547 149.111 56.4547 146.262C56.4547 143.412 57.8796 141.987 60.7286 141.987ZM81.2447 168.231C77.0844 168.231 72.9242 168.231 68.7639 168.231C64.6611 168.231 60.5576 168.231 56.4547 168.231C54.517 168.231 53.1493 166.749 52.3515 163.785C51.6107 160.822 50.6419 158.343 49.4451 156.349C55.7708 156.349 62.0679 156.377 68.337 156.434C74.6623 156.434 80.9882 156.463 87.3141 156.52C86.2881 158.571 85.6896 161.135 85.5186 164.213C85.4049 167.234 83.9801 168.572 81.2447 168.231ZM101.504 168.231C98.9392 168.515 97.5431 167.148 97.3153 164.127C97.1443 161.107 96.5458 158.571 95.5204 156.52C101.732 156.463 108.001 156.434 114.326 156.434C120.709 156.377 127.063 156.349 133.389 156.349C132.192 158.343 131.195 160.822 130.397 163.785C129.599 166.749 128.231 168.231 126.294 168.231C122.191 168.231 118.059 168.231 113.899 168.231C109.795 168.231 105.664 168.231 101.504 168.231ZM95.6914 44.0247L95.6053 47.786C107.402 48.7547 117.375 53.3138 125.524 61.4633C133.73 69.6122 137.834 79.2433 137.834 90.3561C137.834 95.3139 136.837 100.586 134.842 106.17C132.107 110.388 129.656 114.861 127.491 119.591C125.325 124.321 124.043 129.678 123.644 135.662C112.873 135.662 102.102 135.662 91.3314 135.662C80.6175 135.662 69.9041 135.662 59.1902 135.662C58.563 129.279 57.2524 124.008 55.2579 119.847C53.2633 115.63 50.8698 111.157 48.0774 106.427C46.0258 101.127 45 95.7701 45 90.3561C45 79.2433 49.0747 69.6122 57.2242 61.4633C65.4306 53.3138 75.4318 48.7547 87.228 47.786L87.1431 44.0247C82.413 42.2011 80.0477 39.5512 80.0477 36.0749C80.0477 33.9093 81.1305 32.0572 83.2961 30.5185C85.5186 28.9228 88.1685 28.125 91.2459 28.125C94.3234 28.125 96.9733 28.9228 99.1957 30.5185C101.418 32.0572 102.53 33.9093 102.53 36.0749C102.53 39.6651 100.25 42.3151 95.6914 44.0247ZM85.6041 120.959H97.1443L100.222 94.4595L111.762 91.7241V80.0983L100.222 77.0209L97.1443 62.4032H85.6041L82.6121 77.0209L71.0719 80.0983V91.7241L82.6121 94.4595L85.6041 120.959Z" fill="#123F37" />
    <path d="M85.6041 120.959H97.1443L100.222 94.4595L111.762 91.7241V80.0983L100.222 77.0209L97.1443 62.4032H85.6041L82.6127 77.0209L71.0724 80.0983V91.7241L82.6127 94.4595L85.6041 120.959Z" fill="#81B214" />
  </g>
  <g id="bk" fill="none" transform="scale(0.2222222222222222 0.2222222222222222)">
    <path d="M40.2285 168.606C37.4931 168.606 35.584 167.124 34.5012 164.161C33.4754 161.198 32.1647 158.719 30.569 156.724C49.7741 156.724 69.0075 156.724 88.2697 156.724C107.531 156.724 126.822 156.724 146.141 156.724C144.546 158.719 143.206 161.198 142.123 164.161C141.041 167.124 139.16 168.606 136.482 168.606C120.411 168.606 104.312 168.606 88.1843 168.606C72.0563 168.606 56.0712 168.606 40.2285 168.606ZM35.8689 71.0707C30.797 74.0914 29.7142 78.1088 32.6206 83.124L41.2543 97.9976C44.1037 103.07 48.0929 104.153 53.2218 101.246H53.3073C58.3791 98.2828 59.4337 94.2649 56.4699 89.1934L47.9219 74.3192C44.9016 69.3039 40.8838 68.2217 35.8689 71.0707ZM140.841 71.1562C135.655 68.193 131.638 69.2471 128.788 74.3192L120.154 89.1928C117.248 94.2649 118.331 98.2828 123.403 101.246C128.475 104.209 132.492 103.127 135.456 97.9976L144.004 83.124C146.968 78.1088 145.913 74.1195 140.841 71.1562ZM88.3552 54.7437C82.4856 54.7437 79.5504 57.6787 79.5504 63.5484V80.7306C79.5504 86.6003 82.4856 89.5348 88.3552 89.5348C94.2249 89.5348 97.1601 86.6003 97.1601 80.7306V63.5484C97.1601 57.6787 94.2249 54.7437 88.3552 54.7437ZM124.941 121.847C120.611 116.49 115.253 112.217 108.871 109.025C102.545 105.834 95.7066 104.238 88.3552 104.238C80.9466 104.238 74.0796 105.834 67.7537 109.025C61.4284 112.217 56.1283 116.49 51.8541 121.847H124.941ZM97.1601 132.02V140.825H108.7V132.02H97.1601ZM68.0102 132.02V140.825H79.5504V132.02H68.0102ZM38.7753 132.02V140.825H50.401V132.02H38.7753ZM126.309 132.02V140.825H137.85V132.02H126.309ZM91.4327 40.1262H99.81C103.856 40.1262 107.304 41.5794 110.153 44.4858C113.06 47.3352 114.513 50.7545 114.513 54.7437V64.4889L118.189 58.0776C120.183 54.6012 123.118 52.3502 126.993 51.3244C130.925 50.2416 134.658 50.6975 138.191 52.6921L158.109 64.1469C161.528 66.1984 163.779 69.1903 164.862 73.1222C165.945 77.0546 165.46 80.7306 163.408 84.1494L146.056 114.325C142.921 119.625 138.277 122.161 132.122 121.933H140.927C144.061 121.933 146.768 123.073 149.047 125.352C151.327 127.632 152.467 130.339 152.467 133.473V139.371C152.467 142.563 151.327 145.298 149.047 147.578C146.768 149.8 144.061 150.911 140.927 150.911H35.7834C32.5921 150.911 29.8567 149.8 27.5771 147.578C25.3546 145.298 24.2434 142.563 24.2434 139.371V133.473C24.2434 130.339 25.3546 127.632 27.5771 125.352C29.8567 123.073 32.5921 121.933 35.7834 121.933H44.5881C38.3194 122.161 33.6749 119.597 30.6545 114.239L13.3016 84.1494C11.25 80.6732 10.7371 76.9978 11.7629 73.1222C12.8456 69.1903 15.1252 66.1984 18.6015 64.1469L38.5189 52.6921C41.9381 50.6975 45.6139 50.2416 49.5461 51.3244C53.4783 52.3502 56.4699 54.5727 58.5219 57.9921L62.2828 64.5744L62.1973 54.7437C62.1973 50.7545 63.6221 47.3352 66.4717 44.4858C69.3208 41.5794 72.7971 40.1262 76.9005 40.1262H85.3633L83.9098 32.7747L76.815 31.236V25.5087L83.9098 24.141L85.2778 16.875H91.3472L92.7146 24.141L99.8955 25.5087V31.236L92.7146 32.7747L91.4327 40.1262Z" fill="#123F37" />
    <path d="M35.869 71.0708C30.7971 74.0914 29.7143 78.1088 32.6207 83.124L41.2545 97.9976C44.1039 103.07 48.0931 104.153 53.222 101.246H53.3075C58.3796 98.2828 59.4337 94.2649 56.4705 89.1934L47.9221 74.3192C44.9017 69.3039 40.884 68.2217 35.869 71.0708ZM140.842 71.1562C135.655 68.193 131.638 69.2471 128.788 74.3192L120.154 89.1928C117.248 94.2649 118.331 98.2828 123.403 101.246C128.475 104.209 132.492 103.127 135.456 97.9976L144.005 83.124C146.968 78.1088 145.914 74.1195 140.842 71.1562ZM88.3552 54.7437C82.4856 54.7437 79.5504 57.6787 79.5504 63.5484V80.7306C79.5504 86.6003 82.4856 89.5348 88.3552 89.5348C94.2249 89.5348 97.1601 86.6003 97.1601 80.7306V63.5484C97.1601 57.6787 94.2249 54.7437 88.3552 54.7437ZM97.1601 132.02V140.825H108.7V132.02H97.1601ZM68.0102 132.02V140.825H79.5504V132.02H68.0102ZM38.7755 132.02V140.825H50.4011V132.02H38.7755ZM126.309 132.02V140.825H137.85V132.02H126.309Z" fill="#81B214" />
  </g>
  <g id="bn" fill="none" transform="scale(0.2222222222222222 0.2222222222222222)">
    <path d="M34.581 75.5128C36.6325 71.7519 38.8551 68.0473 41.2486 64.4001C43.6991 60.696 45.2377 56.6212 45.8646 52.1763C48.9419 51.1505 51.4209 49.4693 53.3016 47.1328C55.2392 44.7963 57.1196 42.3173 58.9432 39.6958L74.5869 49.5263C74.3017 49.7542 74.1594 50.2387 74.1594 50.9795C74.1594 53.0311 74.7579 54.7408 75.9544 56.1085C71.6805 68.8168 63.018 81.0979 49.9679 92.9514C47.9163 91.2414 45.3519 88.9054 42.2745 85.9416C39.1971 82.9783 36.6327 79.5021 34.5811 75.5128H34.581ZM133.997 116.288C135.422 115.604 136.248 114.607 136.476 113.296C136.761 111.245 136.219 109.848 134.852 109.108C125.734 112.527 115.077 114.094 102.881 113.809C90.7431 113.524 78.8321 110.418 67.1495 104.492C68.4034 103.067 69.7427 101.613 71.1675 100.132C72.6491 98.6501 73.9884 97.1117 75.1849 95.5159C77.0085 93.5781 77.949 92.3816 78.0058 91.9254C78.0058 91.9254 77.6638 92.0683 76.9804 92.3529C76.2964 92.6381 75.9544 92.8946 75.9544 93.1224C74.7005 93.6922 73.3331 94.3189 71.8515 95.0029C70.4267 95.6301 68.945 96.1144 67.406 96.4564C64.3286 96.0002 61.1662 96.741 57.9178 98.6788C56.151 97.4818 55.0398 96.6555 54.5839 96.1999C66.893 84.5741 75.6124 72.2931 80.7412 59.3567C81.8814 59.4709 82.5649 59.5277 82.7932 59.5277C88.4919 59.5277 91.3415 56.6781 91.3415 50.9795C91.3415 48.9849 90.7144 47.3892 89.4605 46.1924L96.2139 36.533C98.7784 37.6727 101.029 38.727 102.967 39.6958C110.09 42.8302 116.844 42.6592 123.226 39.1829C121.63 41.9183 119.864 44.1124 117.926 45.7651C117.015 46.4489 116.017 47.1328 114.934 47.8166C121.431 53.9144 128.868 55.567 137.245 52.7746C135.479 55.0541 133.37 56.9064 130.92 58.3307C130.065 58.8437 128.64 59.5277 126.646 60.3827C131.262 68.247 138.072 71.8943 147.076 71.3244C144.625 73.1481 142.089 74.3732 139.468 74.9998C137.815 75.5128 136.419 75.7125 135.279 75.5983C137.616 84.3176 143.201 89.532 152.034 91.2414C149.185 92.3242 146.42 92.8659 143.742 92.8659C142.431 92.8659 141.149 92.7804 139.895 92.6094C139.895 93.2361 140.009 94.1197 140.237 95.2594C140.123 99.1918 140.038 102.611 139.981 105.517C143.457 109.108 147.475 111.359 152.034 112.27C149.185 113.353 146.42 113.894 143.742 113.894C142.773 113.894 141.32 113.78 139.382 113.552C138.926 116.402 138.414 119.394 137.843 122.528C141.263 126.403 145.423 128.825 150.324 129.794C147.475 130.877 144.682 131.419 141.947 131.419C139.724 131.419 137.103 130.962 134.083 130.051C133.455 131.077 132.658 132.302 131.689 133.726H49.8823C46.463 133.726 44.6964 132.245 44.5824 129.281C44.4684 126.318 46.3775 123.041 50.3097 119.451C52.0193 117.456 53.8715 115.547 55.866 113.723C57.8604 111.9 59.855 110.133 61.8497 108.424C73.8742 115.262 86.3831 119.109 99.3769 119.964C112.427 120.761 123.967 119.536 133.997 116.288ZM53.729 103.209C52.0763 104.748 50.3097 106.172 48.4291 107.484C46.5484 108.737 44.4684 109.45 42.1889 109.621C41.619 109.621 40.7642 109.763 39.6245 110.048C38.4847 110.333 37.9147 110.19 37.9147 109.621C36.889 109.848 36.0341 109.792 35.3503 109.45C34.6664 109.108 33.8116 108.851 32.7858 108.68C31.532 108.395 29.7369 106.942 27.4004 104.321C25.0639 101.642 23.5537 99.7329 22.8699 98.5933C22.0151 95.1739 22.6419 92.0683 24.7505 89.2755C26.8591 86.4264 29.0246 83.6055 31.2471 80.8127C33.3557 84.6883 36.9459 88.9909 42.0179 93.7209C47.0898 98.451 50.9935 101.613 53.729 103.209ZM62.1917 34.8234C62.4195 34.6524 62.9038 34.1395 63.6452 33.2846C64.386 30.8911 64.6993 28.3267 64.5851 25.5913C64.5283 22.8558 64.3005 20.2344 63.9017 17.7268C65.2123 16.7581 68.0619 16.6156 72.45 17.2995C73.2476 17.4704 74.2449 17.7268 75.4419 18.0688C78.1768 19.6075 80.7418 21.6591 83.1352 24.2236C85.5855 26.788 87.3236 29.6944 88.3496 32.9428C89.6034 33.5126 90.5721 33.94 91.2561 34.225L85.1012 42.7732C84.5314 42.5452 83.7619 42.4313 82.7932 42.4313C80.5134 42.4313 78.7472 43.1436 77.4934 44.5683L62.1917 34.8234ZM53.0451 59.7842C50.4806 64.1154 50.2812 66.879 52.4469 68.076C54.6125 69.3298 56.9492 67.7627 59.4562 63.3746C61.9639 59.1002 62.1917 56.3366 60.1402 55.0827C57.9178 53.9429 55.5527 55.5101 53.0451 59.7842ZM50.3097 166.039C48.0872 166.039 46.5484 164.557 45.6936 161.594C44.8388 158.63 43.7845 156.151 42.5308 154.156C58.0314 154.156 73.5609 154.156 89.1185 154.156C104.677 154.156 120.234 154.156 135.792 154.156C134.425 156.151 133.313 158.63 132.458 161.594C131.604 164.557 130.093 166.039 127.928 166.039C114.934 166.039 101.941 166.039 88.9475 166.039C76.0112 166.039 63.1322 166.039 50.3097 166.039ZM131.604 139.796C134.453 139.796 135.877 141.221 135.877 144.07C135.877 146.919 134.453 148.344 131.604 148.344H46.5485C43.699 148.344 42.2744 146.919 42.2744 144.07C42.2744 141.221 43.699 139.796 46.5485 139.796H131.604Z" fill="#123F37" />
    <path d="M53.0452 59.7842C50.4807 64.1154 50.2813 66.879 52.4469 68.076C54.6125 69.3298 56.9492 67.7627 59.4563 63.3746C61.9639 59.1002 62.1917 56.3366 60.1403 55.0826C57.9178 53.9429 55.5527 55.51 53.0452 59.7842Z" fill="#81B214" />
    <path d="M58.9433 39.6958L74.5869 49.5263C74.3018 49.7542 74.1594 50.2386 74.1594 50.9794C74.1594 53.031 74.7579 54.7406 75.9544 56.1084C71.6805 68.8168 63.018 81.0979 49.9679 92.9514C47.9163 91.2414 45.3519 88.9054 42.2745 85.9416C39.1971 82.9783 36.6325 79.5021 34.581 75.5128L31.2472 80.8127C33.3557 84.6877 36.946 88.9909 42.0179 93.7209C47.0899 98.4504 50.9936 101.613 53.729 103.209L61.8497 108.424C73.8743 115.262 86.3831 119.109 99.3769 119.964C112.427 120.761 123.967 119.536 133.997 116.288C135.422 115.604 136.248 114.607 136.476 113.296C136.761 111.244 136.22 109.848 134.852 109.108C125.733 112.527 115.077 114.094 102.881 113.809C90.7431 113.524 78.8321 110.418 67.1496 104.492L57.9178 98.6788C56.1511 97.4818 55.0398 96.6555 54.5839 96.1999C66.8931 84.5741 75.6124 72.2931 80.7413 59.3567C81.8814 59.4709 82.5649 59.5277 82.7933 59.5277C88.4919 59.5277 91.3416 56.6781 91.3416 50.9794C91.3416 48.9848 90.7144 47.3892 89.4606 46.1924L96.2139 36.5329L91.2561 34.2249L85.1012 42.7731C84.5314 42.5452 83.7619 42.4312 82.7933 42.4312C80.5134 42.4312 78.7472 43.1436 77.4934 44.5683L62.1917 34.8232L58.9433 39.6958Z" fill="#81B214" />
  </g>
  <g id="bp" fill="none" transform="scale(0.2222222222222222 0.2222222222222222)">
    <path d="M98.7244 62.8352H105.647C107.598 62.8352 108.575 63.8123 108.575 65.7675C108.575 67.7228 107.598 68.6998 105.647 68.6998H68.7285C66.717 68.6998 65.7113 67.7228 65.7113 65.7675C65.7113 63.8123 66.717 62.8352 68.7285 62.8352H75.5617C73.3731 60.4778 72.2784 57.4875 72.2784 53.865C72.2784 49.8975 73.728 46.505 76.6271 43.6875C79.5257 40.8125 83.0458 39.375 87.1875 39.375C91.2696 39.375 94.7604 40.8125 97.6596 43.6875C100.617 46.505 102.097 49.8975 102.097 53.865C102.097 57.3148 100.973 60.3051 98.7244 62.8352ZM102.984 139.253H120.733C122.744 139.253 123.75 140.201 123.75 142.099C123.75 144.054 122.744 145.031 120.733 145.031H53.5535C51.6012 145.031 50.625 144.054 50.625 142.099C50.625 140.201 51.6012 139.253 53.5535 139.253H71.2136C65.8299 134.71 63.1378 128.845 63.1378 121.658C63.1378 119.185 63.5518 116.684 64.3804 114.154L75.2074 74.565H99.1682L109.906 114.154C110.793 116.569 111.237 119.07 111.237 121.658C111.237 128.615 108.486 134.48 102.984 139.253ZM63.2267 168.75C59.4996 168.75 56.9852 166.536 55.6834 162.109C54.3819 157.624 52.6957 153.887 50.625 150.896C62.7531 150.896 74.9115 150.896 87.0986 150.896C99.2863 150.896 111.503 150.896 123.75 150.896C121.62 153.887 119.904 157.624 118.603 162.109C117.301 166.536 114.816 168.75 111.148 168.75C102.274 168.75 93.9319 168.75 86.1227 168.75C78.3726 168.75 70.7406 168.75 63.2267 168.75Z" fill="#123F37" />
  </g>
  <g id="bq" fill="none" transform="scale(0.2222222222222222 0.2222222222222222)">
    <path d="M49.9399 142.363H134.909C137.759 142.363 139.183 143.788 139.183 146.637C139.183 149.487 137.759 150.911 134.909 150.911H49.9399C47.0905 150.911 45.6657 149.487 45.6657 146.637C45.6657 143.788 47.0905 142.363 49.9399 142.363ZM53.6156 168.606C51.3931 168.606 49.8544 167.124 48.9995 164.161C48.1447 161.198 47.0905 158.719 45.8367 156.724C61.3373 156.724 76.8381 156.724 92.3389 156.724C107.897 156.724 123.455 156.724 139.012 156.724C137.702 158.719 136.619 161.198 135.764 164.161C134.909 167.124 133.399 168.606 131.234 168.606C118.24 168.606 105.247 168.606 92.2534 168.606C79.2602 168.606 66.3812 168.606 53.6156 168.606ZM92.4244 40.1262C89.1765 40.1262 86.4124 39.0149 84.1326 36.7924C81.9101 34.5129 80.7992 31.7489 80.7992 28.5006C80.7992 25.3092 81.9101 22.5738 84.1326 20.2943C86.4124 18.0147 89.1765 16.875 92.4244 16.875C95.616 16.875 98.3228 18.0147 100.545 20.2943C102.825 22.5738 103.965 25.3092 103.965 28.5006C103.965 31.7489 102.825 34.5129 100.545 36.7924C98.3228 39.0149 95.616 40.1262 92.4244 40.1262ZM92.4244 86.0304C90.9428 88.5375 89.4611 91.0164 87.9795 93.4672C86.4979 95.9175 85.0444 98.3396 83.6201 100.733C85.0444 103.184 86.4979 105.634 87.9795 108.085C89.4611 110.535 90.9428 112.957 92.4244 115.351C93.8492 112.957 95.3027 110.535 96.7843 108.085C98.2659 105.634 99.7476 103.184 101.229 100.733C99.7476 98.3396 98.2659 95.9175 96.7843 93.4672C95.3027 91.0164 93.8492 88.5375 92.4244 86.0304ZM54.4704 89.6203C54.1855 85.3464 53.9006 81.0152 53.6156 76.6271C53.3877 72.2391 53.1312 67.8223 52.8463 63.3774C59.6278 67.9365 67.0078 72.7521 74.9863 77.8241C80.7992 66.1984 86.6121 54.6582 92.4244 43.2035C95.3308 49.0164 98.2373 54.8576 101.144 60.7275C104.107 66.5404 107.042 72.3246 109.949 78.0806C116.616 73.5784 123.939 68.706 131.918 63.4629C131.632 67.851 131.376 72.2391 131.148 76.6271C130.977 80.9584 130.778 85.2609 130.55 89.5348C135.849 89.5348 141.121 89.5348 146.364 89.5348C151.664 89.5348 156.964 89.5348 162.264 89.5348C158.389 97.3423 154.513 105.15 150.638 112.957C146.82 120.707 143.002 128.486 139.183 136.294C123.569 136.294 107.954 136.294 92.3389 136.294C76.7244 136.294 61.1381 136.294 45.5802 136.294C41.705 128.486 37.8299 120.707 33.9546 112.957C30.1364 105.15 26.3182 97.3423 22.5 89.5348C27.7999 89.5922 33.0999 89.6203 38.3997 89.6203C43.7567 89.6203 49.1135 89.6203 54.4704 89.6203ZM139.696 61.5825C136.448 61.5825 133.684 60.471 131.405 58.2486C129.182 55.9689 128.071 53.205 128.071 49.9567C128.071 46.8223 129.182 44.1154 131.405 41.8358C133.684 39.5563 136.448 38.4166 139.696 38.4166C142.888 38.4166 145.595 39.5563 147.817 41.8358C150.097 44.1154 151.237 46.8223 151.237 49.9567C151.237 53.205 150.097 55.9689 147.817 58.2486C145.595 60.471 142.888 61.5825 139.696 61.5825ZM45.1528 61.5825C41.9045 61.5825 39.1406 60.471 36.8611 58.2486C34.6385 55.9689 33.5273 53.205 33.5273 49.9567C33.5273 46.8223 34.6385 44.1154 36.8611 41.8358C39.1406 39.5563 41.9045 38.4166 45.1528 38.4166C48.3442 38.4166 51.0511 39.5563 53.2737 41.8358C55.5532 44.1154 56.6933 46.8223 56.6933 49.9567C56.6933 53.205 55.5532 55.9689 53.2737 58.2486C51.0511 60.471 48.3442 61.5825 45.1528 61.5825ZM57.1202 103.725C58.4314 106.233 59.742 108.74 61.0526 111.247C62.4201 113.755 63.7881 116.263 65.1555 118.77C67.9483 118.77 70.7693 118.77 73.6183 118.77C76.4679 118.77 79.3176 118.77 82.1666 118.77C80.7992 116.319 79.4599 113.84 78.1493 111.333C76.8381 108.826 75.5274 106.289 74.2168 103.725C71.3104 103.725 68.4326 103.725 65.583 103.725C62.7339 103.725 59.913 103.725 57.1202 103.725ZM127.729 103.64C124.823 103.64 121.944 103.64 119.095 103.64C116.303 103.64 113.482 103.64 110.633 103.64C109.265 106.204 107.925 108.74 106.615 111.247C105.304 113.755 103.965 116.263 102.597 118.77C105.446 118.77 108.296 118.77 111.146 118.77C113.995 118.77 116.844 118.77 119.693 118.77C121.004 116.263 122.315 113.755 123.626 111.247C124.993 108.74 126.361 106.204 127.729 103.64Z" fill="#123F37" />
    <path d="M92.4244 86.0304C90.9428 88.5381 89.4611 91.017 87.9795 93.4673C86.4979 95.9181 85.0444 98.3396 83.6201 100.733C85.0444 103.184 86.4979 105.634 87.9795 108.085C89.4611 110.535 90.9428 112.957 92.4244 115.351C93.8492 112.957 95.3027 110.535 96.7843 108.085C98.2659 105.634 99.7476 103.184 101.229 100.733C99.7476 98.3396 98.2659 95.9181 96.7843 93.4673C95.3027 91.017 93.8492 88.5381 92.4244 86.0304ZM57.1202 103.725C58.4308 106.233 59.742 108.74 61.0526 111.248C62.4201 113.755 63.7881 116.263 65.1555 118.77C67.9483 118.77 70.7693 118.77 73.6183 118.77C76.4679 118.77 79.317 118.77 82.1666 118.77C80.7992 116.319 79.4599 113.84 78.1493 111.333C76.8381 108.826 75.5274 106.289 74.2168 103.725C71.3104 103.725 68.4326 103.725 65.583 103.725C62.7339 103.725 59.913 103.725 57.1202 103.725ZM127.729 103.64C124.822 103.64 121.944 103.64 119.095 103.64C116.303 103.64 113.482 103.64 110.633 103.64C109.265 106.204 107.925 108.74 106.615 111.248C105.304 113.755 103.965 116.263 102.597 118.77C105.446 118.77 108.296 118.77 111.145 118.77C113.995 118.77 116.844 118.77 119.693 118.77C121.004 116.263 122.315 113.755 123.626 111.248C124.993 108.74 126.361 106.204 127.729 103.64Z" fill="#81B214" />
  </g>
  <g id="br" fill="none" transform="scale(0.2222222222222222 0.2222222222222222)">
    <path d="M149.664 156.724C147.898 158.719 146.444 161.198 145.304 164.161C144.222 167.124 142.341 168.606 139.663 168.606C123.649 168.606 107.607 168.606 91.5362 168.606C75.4656 168.606 59.5372 168.606 43.7514 168.606C41.016 168.606 39.1069 167.124 38.0241 164.161C36.9413 161.198 35.5166 158.719 33.75 156.724L47.94 142.363L62.6428 60.813H52.4706C49.4502 60.813 47.94 59.3027 47.94 56.2826C47.94 53.205 49.4502 51.6663 52.4706 51.6663H130.858C133.935 51.6663 135.474 53.205 135.474 56.2826C135.474 59.3027 133.935 60.813 130.858 60.813H120.856L135.474 142.363L149.664 156.724ZM91.7072 75.1742C87.4901 75.1742 85.3813 77.1114 85.3813 80.9865V95.6897C85.3813 99.5079 87.4901 101.417 91.7072 101.417C95.9811 101.417 98.118 99.5079 98.118 95.6897V80.9865C98.118 77.1114 95.9811 75.1742 91.7072 75.1742ZM114.787 156.724C111.596 156.724 108.861 155.613 106.581 153.39C104.358 151.111 103.247 148.375 103.247 145.184V127.318C103.247 124.184 102.107 121.477 99.828 119.197C97.5482 116.918 94.8414 115.778 91.7072 115.778C88.4587 115.778 85.7233 116.918 83.5009 119.197C81.2784 121.477 80.1669 124.184 80.1669 127.318V145.184C80.1669 148.375 78.9986 151.111 76.662 153.39C74.3828 155.613 71.6473 156.724 68.4557 156.724H114.787ZM133.764 46.1955C118.036 46.1955 103.988 46.1955 91.6217 46.1955C79.3119 46.1955 65.2928 46.1955 49.5642 46.1955C46.2589 46.1955 44.5493 42.7762 44.4353 35.9376C44.3783 29.042 44.3499 22.6878 44.3499 16.875C46.9143 16.875 49.5073 16.875 52.1287 16.875C54.7502 16.875 57.3716 16.875 59.9929 16.875L65.4637 28.5006H78.543L83.7574 16.875H99.657L104.786 28.5006H117.95L123.421 16.875H138.979C138.979 22.6878 138.922 29.042 138.808 35.9376C138.694 42.7762 137.013 46.1955 133.764 46.1955Z" fill="#123F37" />
    <path d="M91.7072 75.1742C87.4901 75.1742 85.3813 77.1114 85.3813 80.9871V95.6897C85.3813 99.5079 87.4901 101.417 91.7072 101.417C95.9811 101.417 98.118 99.5079 98.118 95.6897V80.9871C98.118 77.1114 95.9811 75.1742 91.7072 75.1742ZM114.787 156.724C111.596 156.724 108.861 155.613 106.581 153.39C104.358 151.111 103.247 148.376 103.247 145.184V127.318C103.247 124.184 102.107 121.477 99.828 119.198C97.5482 116.918 94.8414 115.778 91.7072 115.778C88.4587 115.778 85.7233 116.918 83.5009 119.198C81.2784 121.477 80.1669 124.184 80.1669 127.318V145.184C80.1669 148.376 78.9986 151.111 76.662 153.39C74.3828 155.613 71.6473 156.724 68.4557 156.724H114.787Z" fill="#81B214" />
  </g>
  <g id="wb" fill="none" transform="scale(0.2222222222222222 0.2222222222222222)">
    <path d="M54.8304 106.341C56.9959 109.875 58.905 113.579 60.5576 117.454C62.2671 121.272 63.1221 125.318 63.1221 129.593C72.5254 129.593 81.9568 129.593 91.4169 129.593C100.877 129.593 110.337 129.593 119.797 129.593C120.481 121.842 123.245 114.063 128.089 106.256C130.767 101.298 132.106 95.9979 132.106 90.3561C132.106 80.2693 128.117 71.6068 120.139 64.3697C112.161 57.132 102.586 53.5133 91.4169 53.5133C80.1332 53.5133 70.5307 57.132 62.6091 64.3697C54.6879 71.6068 50.7273 80.2693 50.7273 90.3561C50.7273 95.9979 52.0949 101.326 54.8304 106.341ZM85.6041 120.959L82.6121 94.4595L71.0719 91.7241V80.0983L82.6121 77.0209L85.6041 62.4032H97.1443L100.222 77.0209L111.761 80.0983V91.7241L100.222 94.4595L97.1443 120.959H85.6041ZM91.5879 33.7669C88.3395 33.7669 86.7156 34.7071 86.7156 36.5878C86.7156 38.4114 88.3395 39.3232 91.5879 39.3232C94.779 39.3232 96.3748 38.4114 96.3748 36.5878C96.3748 34.7071 94.779 33.7669 91.5879 33.7669ZM95.6908 44.0247L95.6053 47.786C107.402 48.7547 117.375 53.3138 125.524 61.4632C133.73 69.6122 137.834 79.2433 137.834 90.3561C137.834 95.3139 136.837 100.586 134.842 106.17C132.107 110.388 129.656 114.861 127.491 119.591C125.325 124.321 124.043 129.678 123.644 135.662C112.873 135.662 102.102 135.662 91.3314 135.662C80.6175 135.662 69.9041 135.662 59.1902 135.662C58.563 129.279 57.2524 124.008 55.2579 119.847C53.2633 115.63 50.8697 111.157 48.0773 106.427C46.0258 101.127 45 95.7701 45 90.3561C45 79.2433 49.0746 69.6122 57.2237 61.4632C65.43 53.3138 75.4318 48.7547 87.228 47.786L87.1425 44.0247C82.413 42.2011 80.0477 39.5512 80.0477 36.0749C80.0477 33.9093 81.1305 32.0572 83.2961 30.5185C85.5186 28.9228 88.1685 28.125 91.2459 28.125C94.3234 28.125 96.9733 28.9228 99.1957 30.5185C101.418 32.0572 102.53 33.9093 102.53 36.0749C102.53 39.6651 100.25 42.3151 95.6908 44.0247ZM101.504 168.231C98.9392 168.515 97.5431 167.148 97.3153 164.127C97.1443 161.107 96.5458 158.571 95.5198 156.52C101.732 156.463 108.001 156.434 114.326 156.434C120.709 156.377 127.063 156.349 133.388 156.349C132.192 158.343 131.195 160.822 130.397 163.785C129.599 166.749 128.231 168.231 126.294 168.231C122.191 168.231 118.059 168.231 113.898 168.231C109.796 168.231 105.664 168.231 101.504 168.231ZM81.2447 168.231C77.0844 168.231 72.9242 168.231 68.7639 168.231C64.6611 168.231 60.5576 168.231 56.4547 168.231C54.5169 168.231 53.1492 166.749 52.3514 163.785C51.6106 160.822 50.6418 158.343 49.445 156.349C55.7707 156.349 62.0679 156.377 68.3364 156.434C74.6623 156.434 80.9882 156.463 87.3135 156.52C86.2881 158.571 85.6896 161.135 85.5186 164.213C85.4044 167.233 83.9801 168.573 81.2447 168.231ZM60.7286 141.987H122.105C124.954 141.987 126.379 143.412 126.379 146.262C126.379 149.111 124.954 150.536 122.105 150.536H60.7286C57.879 150.536 56.4547 149.111 56.4547 146.262C56.4547 143.412 57.879 141.987 60.7286 141.987Z" fill="#3C2946" />
    <path d="M54.8302 106.342C56.9959 109.875 58.905 113.579 60.5576 117.454C62.2671 121.272 63.1221 125.319 63.1221 129.593C72.5254 129.593 81.9568 129.593 91.4169 129.593C100.876 129.593 110.337 129.593 119.797 129.593C120.481 121.843 123.245 114.063 128.089 106.256C130.767 101.298 132.106 95.9979 132.106 90.3561C132.106 80.2693 128.117 71.6074 120.139 64.3697C112.16 57.132 102.586 53.5134 91.4169 53.5134C80.1332 53.5134 70.5307 57.132 62.6091 64.3697C54.6878 71.6074 50.7271 80.2693 50.7271 90.3561C50.7271 95.9979 52.0948 101.326 54.8302 106.342ZM85.6041 120.959L82.6121 94.4595L71.0719 91.7241V80.0983L82.6121 77.0209L85.6041 62.4037H97.1443L100.221 77.0209L111.761 80.0983V91.7241L100.221 94.4595L97.1443 120.959H85.6041ZM91.5879 33.767C88.3395 33.767 86.715 34.7073 86.715 36.5879C86.715 38.4115 88.3395 39.3234 91.5879 39.3234C94.779 39.3234 96.3748 38.4115 96.3748 36.5879C96.3748 34.7073 94.779 33.767 91.5879 33.767Z" fill="#CBC9FF" />
  </g>
  <g id="wk" fill="none" transform="scale(0.2222222222222222 0.2222222222222222)">
    <path d="M91.4327 40.1262H99.81C103.856 40.1262 107.304 41.5794 110.153 44.4858C113.06 47.3352 114.513 50.7545 114.513 54.7437V64.4889L118.189 58.0776C120.183 54.6013 123.118 52.3502 126.993 51.3244C130.925 50.2417 134.658 50.6975 138.191 52.6921L158.109 64.1469C161.528 66.1984 163.779 69.1903 164.862 73.1222C165.945 77.0546 165.46 80.7306 163.408 84.1494L146.056 114.325C142.921 119.625 138.277 122.161 132.122 121.933H140.927C144.061 121.933 146.768 123.073 149.047 125.352C151.327 127.632 152.467 130.339 152.467 133.473V139.371C152.467 142.563 151.327 145.298 149.047 147.578C146.768 149.8 144.061 150.911 140.927 150.911H35.7834C32.5921 150.911 29.8567 149.8 27.5771 147.578C25.3546 145.298 24.2434 142.563 24.2434 139.371V133.473C24.2434 130.339 25.3546 127.632 27.5771 125.352C29.8567 123.073 32.5921 121.933 35.7834 121.933H44.5881C38.3194 122.161 33.6749 119.597 30.6545 114.239L13.3016 84.1494C11.25 80.6732 10.7371 76.9978 11.7629 73.1222C12.8456 69.1903 15.1252 66.1984 18.6015 64.1469L38.5189 52.6921C41.9381 50.6975 45.6139 50.2417 49.5461 51.3244C53.4783 52.3502 56.4699 54.5727 58.5219 57.9921L62.2828 64.5744L62.1973 54.7437C62.1973 50.7545 63.6221 47.3352 66.4717 44.4858C69.3208 41.5794 72.7971 40.1262 76.9005 40.1262H85.3633L83.9098 32.7747L76.815 31.2361V25.5087L83.9098 24.141L85.2778 16.875H91.3472L92.7146 24.141L99.8955 25.5087V31.2361L92.7146 32.7747L91.4327 40.1262ZM126.309 132.02H137.85V140.825H126.309V132.02ZM38.7753 132.02H50.401V140.825H38.7753V132.02ZM68.0102 132.02H79.5504V140.825H68.0102V132.02ZM97.1601 132.02H108.7V140.825H97.1601V132.02ZM35.7834 127.745C31.9083 127.745 29.9706 129.655 29.9706 133.473V139.286C29.9706 143.161 31.9083 145.099 35.7834 145.099H140.927C144.745 145.099 146.654 143.161 146.654 139.286V133.473C146.654 129.655 144.745 127.745 140.927 127.745H35.7834ZM122.462 110.906L128.959 114.667C134.031 117.63 138.049 116.547 141.012 111.418L158.451 81.243C161.3 76.2283 160.217 72.2104 155.202 69.1903L135.285 57.7356C130.156 54.7152 126.138 55.7695 123.232 60.8985L108.614 86.1159L108.7 54.7437C108.7 48.8739 105.765 45.939 99.8949 45.939H76.815C70.9453 45.939 68.0102 48.8739 68.0102 54.7437V86.0304L53.4783 60.8985C50.5149 55.8265 46.4972 54.7437 41.4253 57.6501L21.5079 69.1903C16.3789 72.1536 15.2962 76.1715 18.2595 81.243L35.6979 111.418C38.6043 116.547 42.622 117.63 47.751 114.667L54.3331 110.82C64.1351 102.557 75.4757 98.4251 88.3552 98.4251C101.121 98.4251 112.49 102.585 122.462 110.906ZM124.941 121.848C120.611 116.49 115.253 112.217 108.871 109.025C102.545 105.834 95.7066 104.238 88.3552 104.238C80.9466 104.238 74.0796 105.834 67.7537 109.025C61.4284 112.217 56.1283 116.49 51.8541 121.848H124.941ZM88.3552 54.7437C94.2249 54.7437 97.1601 57.6787 97.1601 63.5484V80.7306C97.1601 86.6003 94.2249 89.5348 88.3552 89.5348C82.4856 89.5348 79.5504 86.6003 79.5504 80.7306V63.5484C79.5504 57.6787 82.4856 54.7437 88.3552 54.7437ZM140.841 71.1562C145.913 74.1195 146.968 78.1088 144.004 83.124L135.456 97.9976C132.492 103.127 128.475 104.209 123.403 101.246C118.331 98.2828 117.248 94.2649 120.154 89.1928L128.788 74.3192C131.638 69.2471 135.655 68.193 140.841 71.1562ZM35.8689 71.0707C40.8839 68.2217 44.9016 69.3039 47.922 74.3192L56.4699 89.1934C59.4337 94.2649 58.3791 98.2828 53.3073 101.246H53.2219C48.0929 104.153 44.1037 103.07 41.2543 97.9976L32.6206 83.124C29.7142 78.1088 30.797 74.0914 35.8689 71.0707ZM40.2285 168.606C37.4931 168.606 35.584 167.124 34.5012 164.161C33.4754 161.198 32.1647 158.719 30.569 156.724C49.7741 156.724 69.0075 156.724 88.2697 156.724C107.531 156.724 126.822 156.724 146.141 156.724C144.546 158.719 143.206 161.198 142.123 164.161C141.041 167.124 139.16 168.606 136.482 168.606C120.411 168.606 104.312 168.606 88.1843 168.606C72.0563 168.606 56.0712 168.606 40.2285 168.606Z" fill="#3C2946" />
    <path d="M126.309 132.02H137.85V140.825H126.309V132.02ZM38.7753 132.02H50.4009V140.825H38.7753V132.02ZM68.0102 132.02H79.5504V140.825H68.0102V132.02ZM97.1595 132.02H108.7V140.825H97.1595V132.02ZM35.7834 127.745C31.9082 127.745 29.9706 129.655 29.9706 133.473V139.286C29.9706 143.161 31.9082 145.099 35.7834 145.099H140.927C144.745 145.099 146.654 143.161 146.654 139.286V133.473C146.654 129.655 144.745 127.745 140.927 127.745H35.7834ZM122.462 110.905L128.959 114.667C134.031 117.63 138.049 116.547 141.012 111.418L158.451 81.243C161.3 76.2283 160.217 72.2104 155.202 69.1903L135.285 57.7356C130.156 54.7152 126.138 55.7695 123.232 60.8985L108.614 86.1159L108.7 54.7437C108.7 48.8739 105.765 45.939 99.8949 45.939H76.815C70.9453 45.939 68.0102 48.8739 68.0102 54.7437V86.0304L53.4783 60.8985C50.5149 55.8264 46.4972 54.7437 41.4253 57.6501L21.5079 69.1903C16.3789 72.1536 15.2961 76.1715 18.2595 81.243L35.6979 111.418C38.6043 116.547 42.622 117.63 47.751 114.667L54.3331 110.82C64.1351 102.557 75.4757 98.4251 88.3552 98.4251C101.121 98.4251 112.49 102.585 122.462 110.905ZM88.3552 54.7437C94.2249 54.7437 97.1595 57.6787 97.1595 63.5484V80.7306C97.1595 86.6002 94.2249 89.5348 88.3552 89.5348C82.4856 89.5348 79.5504 86.6002 79.5504 80.7306V63.5484C79.5504 57.6787 82.4856 54.7437 88.3552 54.7437ZM140.841 71.1562C145.913 74.1195 146.968 78.1087 144.004 83.124L135.456 97.9976C132.492 103.127 128.475 104.209 123.403 101.246C118.331 98.2828 117.248 94.2649 120.154 89.1928L128.788 74.3192C131.638 69.2471 135.655 68.193 140.841 71.1562ZM35.8689 71.0707C40.8838 68.2217 44.9016 69.3039 47.9219 74.3192L56.4699 89.1928C59.4337 94.2649 58.3791 98.2828 53.3073 101.246H53.2218C48.0929 104.152 44.1037 103.07 41.2543 97.9976L32.6206 83.124C29.7142 78.1087 30.7969 74.0914 35.8689 71.0707Z" fill="#CBC9FF" />
  </g>
  <g id="wn" fill="none" transform="scale(0.2222222222222222 0.2222222222222222)">
    <path d="M131.613 133.737H49.8063C46.444 133.737 44.7059 132.255 44.592 129.291C44.478 126.328 46.3871 123.051 50.3193 119.461C52.0289 117.466 53.881 115.557 55.8756 113.734C57.87 111.91 59.8078 110.086 61.6882 108.263C60.2634 107.465 58.9528 106.61 57.7564 105.698C56.6162 104.73 55.3342 103.903 53.9094 103.219C52.1998 104.758 50.3762 106.183 48.4386 107.493C46.558 108.747 44.4779 109.46 42.1984 109.631C41.6285 109.631 40.7737 109.773 39.6339 110.058C38.4942 110.343 37.9243 110.2 37.9243 109.631C36.8985 109.858 36.0436 109.802 35.3599 109.46C34.676 109.118 33.8211 108.861 32.7954 108.69C31.4846 108.405 29.661 106.952 27.3245 104.331C25.045 101.652 23.5633 99.7431 22.8794 98.6034C21.8536 94.329 22.9079 90.5394 26.0422 87.2342C29.1766 83.8716 31.7411 80.3672 33.7356 76.7199C35.7873 72.7307 38.1523 68.9124 40.8307 65.2652C43.5662 61.6179 45.2473 57.258 45.8741 52.1863C49.8064 50.8186 52.9977 48.1687 55.4482 44.2365C57.9555 40.2473 60.6909 36.6001 63.6547 33.2947C64.3956 30.9012 64.7089 28.3367 64.5947 25.6013C64.5379 22.8658 64.3101 20.2444 63.9112 17.7369C64.7657 17.1101 65.9914 16.8252 67.5866 16.8821C69.1824 16.9391 70.7782 17.0815 72.3741 17.3095C73.2285 17.4805 74.2545 17.7369 75.4515 18.0789C78.1864 19.6175 80.7514 21.6691 83.1448 24.2336C85.595 26.7981 87.3332 29.7044 88.3592 32.9528C90.8094 34.1495 93.2316 35.2893 95.625 36.3721C98.0184 37.3979 100.469 38.5091 102.976 39.7059C110.1 42.8402 116.853 42.6693 123.236 39.193C121.64 41.9285 119.874 44.1225 117.936 45.7752C117.024 46.459 116.027 47.1429 114.944 47.8267C121.441 53.9245 128.878 55.5771 137.255 52.7847C135.488 55.0642 133.351 56.9166 130.844 58.3408C130.16 58.797 129.448 59.1958 128.707 59.5378C127.966 59.823 127.282 60.1076 126.655 60.3928C131.271 68.2571 138.053 71.9044 147 71.3346C144.606 73.1582 142.099 74.3833 139.477 75.0099C137.825 75.5229 136.4 75.7226 135.203 75.6084C137.654 84.3277 143.267 89.5421 152.043 91.2516C149.194 92.3344 146.43 92.8761 143.752 92.8761C142.441 92.8761 141.159 92.7906 139.905 92.6196C139.905 93.2462 140.019 94.1299 140.247 95.2695C140.133 99.2019 140.047 102.621 139.99 105.527C143.467 109.174 147.484 111.426 152.043 112.281C149.194 113.363 146.43 113.905 143.752 113.905C142.783 113.905 141.33 113.79 139.392 113.563C138.936 116.412 138.423 119.404 137.854 122.538C141.272 126.357 145.405 128.779 150.248 129.804C147.513 130.887 144.749 131.429 141.956 131.429C139.62 131.429 136.999 130.972 134.092 130.061C133.351 131.314 132.525 132.54 131.613 133.737ZM64.3382 42.6977C62.4577 45.4332 60.4063 48.1971 58.1839 50.9895C55.9611 53.782 53.4821 55.6056 50.7467 56.4604C50.2338 60.2786 48.5526 64.6099 45.7032 69.4536C42.9108 74.2978 40.5742 78.2871 38.6936 81.4213C42.1699 85.6384 45.9312 89.4853 49.9773 92.9616C55.7901 87.1487 61.0048 81.279 65.6207 75.3519C70.2366 69.4254 73.6847 63.0141 75.9639 56.1185C74.7675 54.7508 74.169 53.0411 74.169 50.9895C74.169 50.2487 74.3113 49.7643 74.5959 49.5363L64.3382 42.6977ZM66.9026 104.331C68.2706 102.963 69.6667 101.567 71.0916 100.142C72.5732 98.6602 73.9125 97.1212 75.1089 95.526C76.9899 93.645 77.9586 92.4486 78.0154 91.9356C78.0154 91.9356 77.6452 92.0779 76.9044 92.3631C76.2204 92.6477 75.9071 92.9042 75.9639 93.1326C74.6533 93.7024 73.2572 94.329 71.7756 95.013C70.3507 95.6396 68.8691 96.1245 67.3301 96.4659C64.0249 96.0103 60.9761 96.8653 58.1839 99.0304C59.6081 99.9996 61.0616 100.911 62.5432 101.766C64.0249 102.621 65.4784 103.476 66.9026 104.33V104.331ZM92.3766 41.8429L89.4701 46.2025C90.7239 47.3993 91.3506 48.9949 91.3506 50.9895C91.3506 56.6882 88.4728 59.5378 82.7173 59.5378C82.5463 59.5378 81.891 59.481 80.7508 59.3668C75.1663 71.5624 67.4156 82.5041 57.4999 92.1921C58.6963 91.5081 60.2634 90.9669 62.2012 90.5681C64.0817 90.7391 65.592 90.7391 66.7316 90.5681C67.8718 90.3397 69.3247 89.5421 71.0916 88.1741C71.2626 88.1741 73.827 87.6898 78.7849 86.7212C83.8001 85.7526 85.1107 87.3197 82.7173 91.4226C82.2043 92.7906 81.5771 94.329 80.8363 96.039C80.1529 97.6916 79.1269 99.4011 77.7589 101.168C76.5056 103.447 74.9098 105.385 72.972 106.981C83.5717 111.426 94.2289 113.762 104.942 113.99C115.714 114.218 125.629 112.623 134.691 109.203C134.862 104.473 134.405 99.1446 133.323 93.2181C131.328 81.6491 127.082 71.8189 120.586 63.7262C117.565 59.7943 114.26 56.4317 110.67 53.6395C106.168 49.9922 100.07 46.0601 92.3766 41.843V41.8429ZM35.1888 87.0632C31.6556 90.9951 29.547 93.8447 28.8632 95.6115C29.8889 97.2641 31.1712 99.0591 32.7099 100.997C34.2486 102.934 36.2146 103.96 38.6081 104.074C39.8049 104.587 41.0301 104.587 42.284 104.074C43.5946 103.561 44.6774 102.963 45.5322 102.279C46.3871 101.937 47.5553 101.225 49.037 100.142C46.6435 98.2614 44.2785 96.1813 41.942 93.9015C39.6054 91.6222 37.3544 89.3424 35.1888 87.0632ZM133.836 116.383C123.92 119.632 113.149 120.886 101.523 120.145C89.9544 119.347 78.6139 116.327 67.5011 111.084C66.7035 111.824 65.8485 112.651 64.9367 113.563C64.0249 114.418 63.0562 115.415 62.0302 116.554C59.8646 118.777 57.1866 121.085 53.995 123.478C50.8606 125.815 50.2908 127.297 52.2854 127.924H128.45C131.186 123.479 132.981 119.632 133.836 116.383ZM67.6721 38.2526L77.4174 44.5783C78.7281 43.1536 80.4943 42.4413 82.7173 42.4413C83.7427 42.4413 84.5409 42.5553 85.1107 42.7832L87.5897 39.1075C85.3672 37.9677 83.9706 37.2554 83.4007 36.9705C82.3753 33.9501 81.6058 31.927 81.0928 30.9012C80.6372 29.8184 79.5544 28.3367 77.8444 26.4561C76.8189 25.4873 75.7642 24.6325 74.6814 23.8916C73.656 23.0938 72.288 22.7234 70.5786 22.7803C70.9774 25.6867 71.1197 28.2228 71.0061 30.3883C70.8919 32.4969 70.0942 34.5769 68.6126 36.6285C67.9854 37.2554 67.6721 37.7968 67.6721 38.2527V38.2526ZM56.8159 61.7602C59.2093 57.8284 61.3749 56.4036 63.3127 57.4864C65.1932 58.5692 64.9935 61.0762 62.7142 65.0087C60.3208 68.9411 58.1839 70.3372 56.3029 69.1971C54.3085 68.2284 54.4795 65.7495 56.8159 61.7602ZM50.3193 166.049C48.0967 166.049 46.558 164.567 45.7032 161.604C44.8483 158.64 43.794 156.161 42.5403 154.167C58.041 154.167 73.5418 154.167 89.0426 154.167C104.601 154.167 120.158 154.167 135.716 154.167C134.405 156.161 133.323 158.64 132.468 161.604C131.613 164.567 130.103 166.049 127.937 166.049C114.944 166.049 101.951 166.049 88.9571 166.049C75.9639 166.049 63.0844 166.049 50.3193 166.049ZM131.528 139.806C134.377 139.806 135.802 141.23 135.802 144.08C135.802 146.929 134.377 148.354 131.528 148.354H46.558C43.7086 148.354 42.284 146.929 42.284 144.08C42.284 141.23 43.7086 139.806 46.558 139.806H131.528Z" fill="#3C2946" />
    <path d="M64.3382 42.6978C62.4578 45.4332 60.4063 48.1971 58.1839 50.9896C55.9611 53.782 53.4821 55.6056 50.7467 56.4604C50.2338 60.2786 48.5526 64.6099 45.7032 69.4536C42.9107 74.2978 40.5742 78.2871 38.6937 81.4213C42.1699 85.6384 45.9312 89.4853 49.9773 92.9616C55.7902 87.1487 61.0048 81.279 65.6207 75.3519C70.2366 69.4254 73.6847 63.0141 75.9639 56.1185C74.7669 54.7508 74.169 53.0411 74.169 50.9896C74.169 50.2487 74.3113 49.7643 74.5959 49.5363L64.3382 42.6978ZM66.9026 104.331C68.2706 102.963 69.6668 101.567 71.0916 100.142C72.5732 98.6603 73.9125 97.1213 75.1089 95.526C76.9899 93.645 77.9586 92.4486 78.0154 91.9356C78.0154 91.9356 77.6453 92.0779 76.9044 92.3631C76.2204 92.6477 75.9071 92.9042 75.9639 93.1326C74.6533 93.7024 73.2572 94.329 71.7756 95.013C70.3508 95.6396 68.8691 96.1245 67.3301 96.4659C64.0249 96.0103 60.9761 96.8653 58.1839 99.0304C59.6081 99.9996 61.0616 100.911 62.5433 101.766C64.0249 102.621 65.4778 103.476 66.9026 104.331ZM92.3766 41.8429L89.4701 46.2025C90.7239 47.3993 91.3506 48.9949 91.3506 50.9896C91.3506 56.6882 88.4728 59.5378 82.7173 59.5378C82.5463 59.5378 81.8904 59.481 80.7508 59.3668C75.1663 71.5624 67.4156 82.5041 57.4999 92.1921C58.6963 91.5081 60.2634 90.9669 62.2013 90.5681C64.0817 90.7391 65.592 90.7391 66.7316 90.5681C67.8718 90.3398 69.3248 89.5421 71.0916 88.1741C71.2626 88.1741 73.827 87.6898 78.7849 86.7212C83.7996 85.7526 85.1108 87.3197 82.7173 91.4226C82.2043 92.7906 81.5771 94.329 80.8363 96.039C80.1523 97.6916 79.1269 99.4011 77.7589 101.168C76.5056 103.447 74.9098 105.385 72.972 106.981C83.5718 111.426 94.2289 113.762 104.942 113.99C115.713 114.218 125.629 112.623 134.691 109.203C134.861 104.473 134.405 99.1446 133.323 93.2181C131.328 81.6491 127.082 71.8189 120.586 63.7262C117.565 59.7943 114.26 56.4317 110.67 53.6395C106.168 49.9922 100.07 46.0601 92.3766 41.8429ZM35.1888 87.0632C31.6556 90.9951 29.547 93.8447 28.8632 95.6115C29.8889 97.2641 31.1712 99.0591 32.7098 100.997C34.2486 102.934 36.2147 103.96 38.6081 104.074C39.8049 104.587 41.0302 104.587 42.2839 104.074C43.5947 103.561 44.6774 102.963 45.5322 102.279C46.3871 101.937 47.5553 101.225 49.037 100.142C46.6435 98.2614 44.2784 96.1813 41.942 93.9015C39.6054 91.6223 37.3544 89.3424 35.1888 87.0632ZM133.836 116.384C123.92 119.632 113.149 120.886 101.523 120.145C89.9544 119.347 78.6139 116.327 67.5011 111.084C66.7035 111.824 65.8485 112.651 64.9367 113.563C64.0249 114.418 63.0563 115.415 62.0303 116.555C59.8646 118.777 57.1866 121.085 53.995 123.478C50.8606 125.815 50.2908 127.297 52.2853 127.924H128.45C131.186 123.478 132.981 119.632 133.836 116.384ZM67.6721 38.2526L77.4169 44.5784C78.7281 43.1537 80.4943 42.4413 82.7173 42.4413C83.7428 42.4413 84.5404 42.5553 85.1108 42.7832L87.5897 39.1075C85.3673 37.9677 83.9706 37.2554 83.4008 36.9704C82.3753 33.9501 81.6058 31.927 81.0928 30.9012C80.6372 29.8184 79.5544 28.3367 77.8444 26.4561C76.8189 25.4873 75.7643 24.6325 74.6814 23.8916C73.656 23.0938 72.288 22.7234 70.5786 22.7804C70.9774 25.6867 71.1197 28.2228 71.0061 30.3883C70.8919 32.4969 70.0943 34.5769 68.6126 36.6285C67.9854 37.2554 67.6721 37.7967 67.6721 38.2526ZM56.8159 61.7603C59.2093 57.8284 61.3749 56.4036 63.3128 57.4864C65.1932 58.5692 64.9935 61.0763 62.7143 65.0087C60.3208 68.9411 58.1839 70.3373 56.3029 69.1971C54.3085 68.2284 54.4794 65.7495 56.8159 61.7603Z" fill="#CBC9FF" />
  </g>
  <g id="wp" fill="none" transform="scale(0.2222222222222222 0.2222222222222222)">
    <path d="M68.3887 161.786C75.9111 161.786 83.5476 161.786 91.2977 161.786C99.0484 161.786 106.798 161.786 114.549 161.786C115.689 161.786 116.401 161.045 116.686 159.563C117.028 158.024 117.541 156.742 118.225 155.716C109.277 155.716 100.33 155.716 91.3832 155.716C82.4929 155.716 73.6031 155.716 64.7128 155.716C65.2826 156.742 65.7382 158.024 66.0802 159.563C66.4222 161.045 67.1917 161.786 68.3887 161.786ZM68.3887 167.599C64.7983 167.599 62.3762 165.404 61.1224 161.016C59.8686 156.571 58.2446 152.867 56.25 149.903C67.9326 149.903 79.6438 149.903 91.3832 149.903C103.123 149.903 114.891 149.903 126.687 149.903C124.636 152.867 122.983 156.571 121.73 161.016C120.476 165.404 118.082 167.599 114.549 167.599C106.001 167.599 97.9656 167.599 90.4427 167.599C82.9777 167.599 75.6259 167.599 68.3887 167.599ZM102.581 62.6265H109.249C111.13 62.6265 112.07 63.5951 112.07 65.5324C112.07 67.4702 111.13 68.4388 109.249 68.4388H73.6886C71.7508 68.4388 70.7822 67.4702 70.7822 65.5324C70.7822 63.5951 71.7508 62.6265 73.6886 62.6265H80.2704C78.1622 60.2899 77.1075 57.3261 77.1075 53.7361C77.1075 49.8039 78.5036 46.4415 81.2964 43.6491C84.0887 40.7997 87.4794 39.375 91.4687 39.375C95.4011 39.375 98.7632 40.7997 101.555 43.6491C104.405 46.4415 105.83 49.8039 105.83 53.7361C105.83 57.1551 104.747 60.1189 102.581 62.6265ZM91.4687 44.9314C85.5422 44.9314 82.5784 47.8663 82.5784 53.7361C82.5784 59.6627 85.5422 62.6265 91.4687 62.6265C97.3384 62.6265 100.274 59.6627 100.274 53.7361C100.274 47.8663 97.3384 44.9314 91.4687 44.9314ZM106.685 138.364H123.781C125.719 138.364 126.687 139.304 126.687 141.185C126.687 143.122 125.719 144.091 123.781 144.091H59.0709C57.1905 144.091 56.25 143.122 56.25 141.185C56.25 139.304 57.1905 138.364 59.0709 138.364H76.0821C70.8958 133.861 68.3033 128.049 68.3033 120.925C68.3033 118.475 68.7021 115.996 69.4997 113.488L79.9284 74.2517H103.009L113.352 113.488C114.207 115.882 114.635 118.361 114.635 120.925C114.635 127.821 111.985 133.634 106.685 138.364ZM108.223 116.566L98.7345 80.0646H84.2029L74.7141 116.566C74.2584 117.876 74.0306 119.329 74.0306 120.925C74.0306 125.712 75.7401 129.815 79.1595 133.235C82.5784 136.654 86.6818 138.364 91.4687 138.364C96.2561 138.364 100.33 136.654 103.693 133.235C107.112 129.815 108.822 125.712 108.822 120.925C108.822 119.387 108.622 117.933 108.223 116.566Z" fill="#3C2946" />
    <path d="M68.3887 161.786C75.9111 161.786 83.5476 161.786 91.2977 161.786C99.0484 161.786 106.798 161.786 114.549 161.786C115.689 161.786 116.401 161.045 116.686 159.563C117.028 158.024 117.541 156.742 118.225 155.716C109.278 155.716 100.331 155.716 91.3832 155.716C82.4934 155.716 73.6031 155.716 64.7128 155.716C65.2826 156.742 65.7388 158.024 66.0808 159.563C66.4222 161.045 67.1917 161.786 68.3887 161.786ZM91.4687 44.9312C85.5422 44.9312 82.5789 47.866 82.5789 53.7358C82.5789 59.6627 85.5422 62.6259 91.4687 62.6259C97.3384 62.6259 100.274 59.6627 100.274 53.7358C100.274 47.866 97.3384 44.9312 91.4687 44.9312ZM108.223 116.565L98.7351 80.0646H84.2029L74.7146 116.565C74.2584 117.876 74.0306 119.329 74.0306 120.925C74.0306 125.712 75.7401 129.815 79.1595 133.234C82.5789 136.654 86.6818 138.363 91.4692 138.363C96.2561 138.363 100.331 136.654 103.693 133.234C107.112 129.815 108.822 125.712 108.822 120.925C108.822 119.386 108.622 117.933 108.223 116.565Z" fill="#CBC9FF" />
  </g>
  <g id="wq" fill="none" transform="scale(0.2222222222222222 0.2222222222222222)">
    <path d="M127.729 103.64C126.361 106.204 124.993 108.74 123.626 111.247C122.315 113.755 121.004 116.263 119.693 118.77C116.844 118.77 113.995 118.77 111.146 118.77C108.296 118.77 105.446 118.77 102.597 118.77C103.965 116.263 105.304 113.755 106.615 111.247C107.925 108.74 109.265 106.204 110.633 103.64C113.482 103.64 116.303 103.64 119.095 103.64C121.944 103.64 124.823 103.64 127.729 103.64ZM57.1202 103.725C59.913 103.725 62.7339 103.725 65.583 103.725C68.4326 103.725 71.3104 103.725 74.2168 103.725C75.5274 106.289 76.8381 108.826 78.1493 111.333C79.4599 113.84 80.7992 116.319 82.1666 118.77C79.3176 118.77 76.4679 118.77 73.6183 118.77C70.7693 118.77 67.9483 118.77 65.1555 118.77C63.7881 116.263 62.4201 113.755 61.0526 111.247C59.742 108.74 58.4314 106.233 57.1202 103.725ZM45.1528 61.5825C41.9045 61.5825 39.1406 60.471 36.8611 58.2486C34.6385 55.9689 33.5273 53.205 33.5273 49.9567C33.5273 46.8223 34.6385 44.1154 36.8611 41.8358C39.1406 39.5563 41.9045 38.4166 45.1528 38.4166C48.3442 38.4166 51.0511 39.5563 53.2737 41.8358C55.5532 44.1154 56.6933 46.8223 56.6933 49.9567C56.6933 53.205 55.5532 55.9689 53.2737 58.2486C51.0511 60.471 48.3442 61.5825 45.1528 61.5825ZM45.1528 55.7695C48.9711 55.7695 50.8802 53.8319 50.8802 49.9567C50.8802 46.1384 48.9711 44.2294 45.1528 44.2294C41.2777 44.2294 39.3401 46.1384 39.3401 49.9567C39.3401 53.8319 41.2777 55.7695 45.1528 55.7695ZM139.696 61.5825C136.448 61.5825 133.684 60.471 131.405 58.2486C129.182 55.9689 128.071 53.205 128.071 49.9567C128.071 46.8223 129.182 44.1154 131.405 41.8358C133.684 39.5563 136.448 38.4166 139.696 38.4166C142.888 38.4166 145.595 39.5563 147.817 41.8358C150.097 44.1154 151.237 46.8223 151.237 49.9567C151.237 53.205 150.097 55.9689 147.817 58.2486C145.595 60.471 142.888 61.5825 139.696 61.5825ZM139.696 55.7695C143.515 55.7695 145.424 53.8319 145.424 49.9567C145.424 46.1384 143.515 44.2294 139.696 44.2294C135.821 44.2294 133.883 46.1384 133.883 49.9567C133.883 53.8319 135.821 55.7695 139.696 55.7695ZM54.4704 89.6203C54.1855 85.3464 53.9006 81.0152 53.6156 76.6271C53.3877 72.2391 53.1312 67.8223 52.8463 63.3774C59.6278 67.9365 67.0078 72.7521 74.9863 77.8241C80.7992 66.1984 86.6121 54.6582 92.4244 43.2036C95.3308 49.0164 98.2373 54.8577 101.144 60.7275C104.107 66.5404 107.042 72.3246 109.949 78.0806C116.616 73.5784 123.939 68.706 131.918 63.4629C131.632 67.851 131.376 72.2391 131.148 76.6271C130.977 80.9584 130.778 85.2609 130.55 89.5348C135.849 89.5348 141.121 89.5348 146.364 89.5348C151.664 89.5348 156.964 89.5348 162.264 89.5348C158.389 97.3423 154.513 105.15 150.638 112.957C146.82 120.707 143.002 128.486 139.183 136.294C123.569 136.294 107.954 136.294 92.3389 136.294C76.7244 136.294 61.1381 136.294 45.5802 136.294C41.705 128.486 37.8299 120.707 33.9546 112.957C30.1364 105.15 26.3182 97.3423 22.5 89.5348C27.7999 89.5922 33.0999 89.6203 38.3997 89.6203C43.7567 89.6203 49.1135 89.6203 54.4704 89.6203ZM125.763 74.0627C122.97 75.8863 120.093 77.7954 117.129 79.7901C114.166 81.7279 111.146 83.7793 108.068 85.9449C105.446 80.8161 102.825 75.6298 100.204 70.3867C97.5819 65.0869 94.9888 59.787 92.4244 54.4872C89.8031 59.6734 87.1819 64.8877 84.5601 70.1302C81.9388 75.3165 79.3176 80.4741 76.6958 85.6029C73.6183 83.6083 70.5983 81.6424 67.635 79.7046C64.7286 77.7099 61.8789 75.7721 59.0867 73.8917C59.2577 77.5389 59.5423 81.1575 59.9411 84.7479C60.3405 88.2816 60.6251 91.8146 60.7961 95.3477C55.8381 95.3477 50.8802 95.3477 45.9222 95.3477C40.9642 95.3477 36.0062 95.3477 31.0483 95.3477C33.9547 101.217 36.8611 107.088 39.7675 112.957C42.7309 118.827 45.6942 124.668 48.6576 130.481C63.1896 130.481 77.7499 130.481 92.3389 130.481C106.928 130.481 121.546 130.481 136.191 130.481C139.098 124.668 142.004 118.827 144.911 112.957C147.874 107.088 150.838 101.217 153.801 95.3477C148.9 95.3477 143.999 95.3477 139.098 95.3477C134.254 95.3477 129.439 95.3477 124.652 95.3477C124.936 87.5402 125.307 80.4454 125.763 74.0627ZM92.4244 86.0304C93.8492 88.5375 95.3027 91.0164 96.7843 93.4672C98.2659 95.9175 99.7476 98.3396 101.229 100.733C99.7476 103.184 98.2659 105.634 96.7843 108.085C95.3027 110.535 93.8492 112.957 92.4244 115.351C90.9428 112.957 89.4611 110.535 87.9795 108.085C86.4979 105.634 85.0444 103.184 83.6201 100.733C85.0444 98.3396 86.4979 95.9175 87.9795 93.4672C89.4611 91.0164 90.9428 88.5375 92.4244 86.0304ZM92.4244 34.3134C96.2426 34.3134 98.1518 32.3758 98.1518 28.5006C98.1518 24.6254 96.2426 22.6878 92.4244 22.6878C88.5493 22.6878 86.6121 24.6254 86.6121 28.5006C86.6121 32.3758 88.5493 34.3134 92.4244 34.3134ZM92.4244 40.1262C89.1765 40.1262 86.4124 39.0149 84.1326 36.7924C81.9101 34.5129 80.7992 31.7489 80.7992 28.5006C80.7992 25.3092 81.9101 22.5738 84.1326 20.2943C86.4124 18.0148 89.1765 16.875 92.4244 16.875C95.616 16.875 98.3228 18.0148 100.545 20.2943C102.825 22.5738 103.965 25.3092 103.965 28.5006C103.965 31.7489 102.825 34.5129 100.545 36.7924C98.3228 39.0149 95.616 40.1262 92.4244 40.1262ZM53.6156 168.606C51.3931 168.606 49.8544 167.124 48.9995 164.161C48.1447 161.198 47.0905 158.719 45.8367 156.724C61.3373 156.724 76.8381 156.724 92.3389 156.724C107.897 156.724 123.455 156.724 139.012 156.724C137.702 158.719 136.619 161.198 135.764 164.161C134.909 167.124 133.399 168.606 131.234 168.606C118.24 168.606 105.247 168.606 92.2534 168.606C79.2602 168.606 66.3812 168.606 53.6156 168.606ZM49.9399 142.363H134.909C137.759 142.363 139.183 143.788 139.183 146.637C139.183 149.487 137.759 150.911 134.909 150.911H49.9399C47.0905 150.911 45.6657 149.487 45.6657 146.637C45.6657 143.788 47.0905 142.363 49.9399 142.363Z" fill="#3C2946" />
    <path d="M127.729 103.64C126.362 106.204 124.994 108.74 123.626 111.247C122.316 113.755 121.004 116.263 119.694 118.77C116.845 118.77 113.995 118.77 111.145 118.77C108.296 118.77 105.447 118.77 102.598 118.77C103.965 116.263 105.305 113.755 106.615 111.247C107.926 108.74 109.265 106.204 110.633 103.64C113.482 103.64 116.303 103.64 119.095 103.64C121.945 103.64 124.823 103.64 127.729 103.64ZM57.1208 103.725C59.9136 103.725 62.7339 103.725 65.5836 103.725C68.4332 103.725 71.3109 103.725 74.2174 103.725C75.528 106.289 76.8386 108.826 78.1493 111.333C79.4604 113.84 80.7998 116.319 82.1672 118.77C79.3176 118.77 76.4685 118.77 73.6189 118.77C70.7698 118.77 67.9489 118.77 65.1561 118.77C63.7886 116.263 62.4206 113.755 61.0532 111.247C59.7426 108.74 58.4314 106.233 57.1208 103.725ZM45.1533 55.7695C48.9715 55.7695 50.8807 53.8319 50.8807 49.9566C50.8807 46.1384 48.9715 44.2293 45.1533 44.2293C41.2781 44.2293 39.3405 46.1384 39.3405 49.9566C39.3405 53.8319 41.2781 55.7695 45.1533 55.7695ZM139.697 55.7695C143.515 55.7695 145.424 53.8319 145.424 49.9566C145.424 46.1384 143.515 44.2293 139.697 44.2293C135.822 44.2293 133.884 46.1384 133.884 49.9566C133.884 53.8319 135.822 55.7695 139.697 55.7695ZM125.763 74.0627C122.971 75.8863 120.093 77.7954 117.129 79.7901C114.166 81.7279 111.146 83.7793 108.069 85.9449C105.447 80.8161 102.826 75.6298 100.204 70.3868C97.5825 65.0869 94.9894 59.787 92.4249 54.4872C89.8037 59.6734 87.1819 64.8878 84.5606 70.1303C81.9394 75.3165 79.3176 80.4741 76.6963 85.6029C73.6189 83.6083 70.5988 81.6424 67.635 79.7046C64.7286 77.7099 61.8795 75.7721 59.0867 73.8917C59.2577 77.5389 59.5429 81.1575 59.9417 84.7479C60.3405 88.281 60.6257 91.8146 60.7967 95.3477C55.8386 95.3477 50.8807 95.3477 45.9227 95.3477C40.9647 95.3477 36.0067 95.3477 31.0488 95.3477C33.9551 101.217 36.8615 107.088 39.768 112.957C42.7313 118.827 45.6947 124.668 48.6581 130.481C63.1901 130.481 77.7504 130.481 92.3394 130.481C106.928 130.481 121.546 130.481 136.192 130.481C139.098 124.668 142.005 118.827 144.911 112.957C147.874 107.088 150.838 101.217 153.802 95.3477C148.901 95.3477 143.999 95.3477 139.098 95.3477C134.255 95.3477 129.439 95.3477 124.652 95.3477C124.937 87.5402 125.308 80.4454 125.763 74.0627ZM92.4249 86.0304C93.8498 88.5375 95.3033 91.0164 96.7849 93.4673C98.2665 95.9175 99.7481 98.3396 101.23 100.733C99.7481 103.184 98.2665 105.634 96.7849 108.085C95.3033 110.535 93.8498 112.957 92.4249 115.351C90.9433 112.957 89.4617 110.535 87.9801 108.085C86.4984 105.634 85.0449 103.184 83.6201 100.733C85.0449 98.3396 86.4984 95.9175 87.9801 93.4673C89.4617 91.0164 90.9433 88.5375 92.4249 86.0304ZM92.4249 34.3134C96.2432 34.3134 98.1523 32.3758 98.1523 28.5006C98.1523 24.6254 96.2432 22.6878 92.4249 22.6878C88.5499 22.6878 86.6121 24.6254 86.6121 28.5006C86.6121 32.3758 88.5499 34.3134 92.4249 34.3134Z" fill="#CBC9FF" />
  </g>
  <g id="wr" fill="none" transform="scale(0.2222222222222222 0.2222222222222222)">
    <path d="M133.764 46.1955C118.036 46.1955 103.988 46.1955 91.6217 46.1955C79.3119 46.1955 65.2928 46.1955 49.5642 46.1955C46.2589 46.1955 44.5493 42.7762 44.4353 35.9376C44.3783 29.042 44.3499 22.6878 44.3499 16.875C46.9143 16.875 49.5073 16.875 52.1287 16.875C54.7502 16.875 57.3716 16.875 59.9929 16.875L65.4637 28.5006H78.543L83.7574 16.875H99.657L104.786 28.5006H117.95L123.421 16.875H138.979C138.979 22.6878 138.922 29.042 138.808 35.9376C138.694 42.7762 137.013 46.1955 133.764 46.1955ZM133.764 22.6878H125.9L120.686 33.9715H102.05L96.9216 22.6878H86.4928L81.2784 33.9715H62.7283L57.5139 22.6878C56.1464 22.6878 54.8071 22.6878 53.4964 22.6878C52.1857 22.6878 50.875 22.6878 49.5642 22.6878C49.5642 25.5942 49.6497 29.3269 49.8207 33.886C49.9917 38.4451 50.989 40.7246 52.8126 40.7246C67.2874 40.7246 80.2811 40.7246 91.7927 40.7246C103.304 40.7246 116.326 40.7246 130.858 40.7246C132.625 40.7246 133.536 38.4451 133.593 33.886C133.707 29.3269 133.764 25.5942 133.764 22.6878ZM68.7122 156.724C71.7896 156.724 74.4683 155.613 76.7475 153.39C79.0273 151.111 80.1669 148.375 80.1669 145.184V127.318C80.1669 124.184 81.2784 121.477 83.5009 119.198C85.7233 116.918 88.4587 115.778 91.7072 115.778C94.8414 115.778 97.5482 116.918 99.828 119.198C102.107 121.477 103.247 124.184 103.247 127.318V145.184C103.247 148.375 104.358 151.111 106.581 153.39C108.803 155.613 111.396 156.724 114.36 156.724C118.862 156.724 123.45 156.724 128.122 156.724C132.796 156.724 137.44 156.724 142.056 156.724L130.174 145.013L115.044 60.8985L67.8572 60.984C65.2928 75.0032 62.757 89.0224 60.2494 103.041C57.7423 117.003 55.2346 130.994 52.7271 145.013C50.6755 146.951 48.6524 148.917 46.6578 150.911C44.7202 152.849 42.7541 154.787 40.7595 156.724H68.7122ZM91.7072 75.1742C95.5254 75.1742 97.4346 77.1114 97.4346 80.9865V95.6897C97.4346 99.5079 95.5254 101.417 91.7072 101.417C87.8321 101.417 85.8943 99.5079 85.8943 95.6897V80.9865C85.8943 77.1114 87.8321 75.1742 91.7072 75.1742ZM149.664 156.724C147.898 158.719 146.444 161.198 145.304 164.161C144.222 167.124 142.341 168.606 139.663 168.606C123.649 168.606 107.607 168.606 91.5362 168.606C75.4656 168.606 59.5372 168.606 43.7514 168.606C41.016 168.606 39.1069 167.124 38.0241 164.161C36.9413 161.198 35.5166 158.719 33.75 156.724L47.94 142.363L62.6428 60.813H52.4706C49.4502 60.813 47.94 59.3027 47.94 56.2826C47.94 53.205 49.4502 51.6663 52.4706 51.6663H130.858C133.935 51.6663 135.474 53.205 135.474 56.2826C135.474 59.3027 133.935 60.813 130.858 60.813H120.856L135.474 142.363L149.664 156.724Z" fill="#3C2946" />
    <path d="M133.764 22.6878H125.9L120.686 33.9715H102.05L96.9216 22.6878H86.4923L81.2779 33.9715H62.7283L57.5139 22.6878C56.1463 22.6878 54.807 22.6878 53.4963 22.6878C52.1856 22.6878 50.8749 22.6878 49.5641 22.6878C49.5641 25.5942 49.6496 29.3269 49.8206 33.886C49.9916 38.445 50.9889 40.7246 52.8125 40.7246C67.2874 40.7246 80.2811 40.7246 91.7927 40.7246C103.304 40.7246 116.326 40.7246 130.858 40.7246C132.625 40.7246 133.536 38.445 133.593 33.886C133.707 29.3269 133.764 25.5942 133.764 22.6878ZM68.7122 156.724C71.7896 156.724 74.4683 155.613 76.7475 153.39C79.0273 151.111 80.1669 148.375 80.1669 145.184V127.318C80.1669 124.184 81.2779 121.477 83.5009 119.197C85.7233 116.918 88.4587 115.778 91.7072 115.778C94.8414 115.778 97.5482 116.918 99.828 119.197C102.107 121.477 103.247 124.184 103.247 127.318V145.184C103.247 148.375 104.358 151.111 106.581 153.39C108.803 155.613 111.396 156.724 114.36 156.724C118.862 156.724 123.45 156.724 128.122 156.724C132.796 156.724 137.44 156.724 142.056 156.724L130.174 145.013L115.044 60.8985L67.8572 60.984C65.2928 75.0032 62.757 89.0218 60.2494 103.041C57.7418 117.003 55.2345 130.994 52.727 145.013C50.6754 146.951 48.6523 148.917 46.6577 150.911C44.7201 152.849 42.7541 154.787 40.7594 156.724H68.7122ZM91.7072 75.1742C95.5254 75.1742 97.434 77.1114 97.434 80.9865V95.6897C97.434 99.5079 95.5254 101.417 91.7072 101.417C87.8316 101.417 85.8943 99.5079 85.8943 95.6897V80.9865C85.8943 77.1114 87.8316 75.1742 91.7072 75.1742Z" fill="#CBC9FF" />
  </g>
</svg>