<svg xmlns="http://www.w3.org/2000/svg" width="40" height="40" viewbox="0.0 0.0 180.0 180.0">
  <g id="bb" fill="none" transform="scale(0.2222222222222222 0.2222222222222222)">
    <path d="M138.053 171.524H39.622C33.3606 160.128 29.635 147.73 28.4453 134.331C27.3182 120.868 29.1654 107.531 33.9867 94.3194C38.8081 81.108 46.0401 69.8372 55.6828 60.5076C65.3254 51.1153 76.3459 44.0711 88.7434 39.375C101.016 44.6347 111.88 51.9919 121.335 61.4469C130.789 70.9014 137.927 82.2037 142.749 95.3527C147.445 108.376 149.292 121.526 148.29 134.8C147.288 148.012 143.876 160.253 138.053 171.524ZM79.0695 141.845C81.0107 145.664 84.204 147.574 88.6494 147.574C93.1579 147.574 96.4136 145.664 98.4172 141.845C100.296 138.025 99.9517 132.609 97.3845 125.596C94.8172 118.583 94.1597 113.292 95.4118 109.723C96.539 106.154 98.5112 106.342 101.329 110.287C104.147 114.231 106.401 115.139 108.092 113.01C109.72 110.944 110.533 107.75 110.533 103.43C110.533 99.0472 109.72 95.7909 108.092 93.6619C106.401 91.5958 104.241 92.0031 101.611 94.8831C98.9809 97.7636 96.9148 98.4521 95.4118 96.9491C93.7839 95.4467 94.3785 93.3801 97.1966 90.7504C100.077 88.1207 100.484 85.9607 98.4172 84.2698C96.2887 82.6419 93.0324 81.828 88.6494 81.828C84.3289 81.828 81.1356 82.6419 79.0695 84.2698C77.0034 85.9607 77.3477 88.1207 80.1028 90.7504C82.9204 93.3801 83.5779 95.4467 82.0749 96.9491C80.5095 98.4521 78.4119 97.7636 75.7822 94.8831C73.215 92.0031 71.1174 91.5958 69.4895 93.6619C67.7987 95.7909 66.9532 99.0472 66.9532 103.43C66.9532 107.75 67.7987 110.944 69.4895 113.01C71.1174 115.139 73.3089 114.231 76.0641 110.287C78.8816 106.342 80.8852 106.154 82.0749 109.723C83.2022 113.292 82.4822 118.583 79.9149 125.596C77.4101 132.609 77.1283 138.025 79.0695 141.845Z" fill="#181111" />
    <path d="M79.0689 141.844C81.0101 145.664 84.2034 147.574 88.6489 147.574C93.1573 147.574 96.4136 145.664 98.4173 141.844C100.295 138.025 99.9512 132.608 97.3839 125.596C94.8167 118.583 94.1591 113.292 95.4118 109.723C96.5385 106.154 98.5112 106.342 101.329 110.286C104.146 114.231 106.4 115.139 108.091 113.01C109.719 110.944 110.533 107.75 110.533 103.43C110.533 99.0467 109.719 95.7909 108.091 93.6619C106.4 91.5958 104.24 92.0025 101.611 94.8831C98.9803 97.7631 96.9142 98.4521 95.4118 96.9491C93.7834 95.4467 94.3785 93.3801 97.1961 90.7504C100.077 88.1207 100.483 85.9601 98.4173 84.2698C96.2882 82.642 93.0324 81.828 88.6489 81.828C84.3289 81.828 81.1356 82.642 79.0689 84.2698C77.0029 85.9601 77.3471 88.1207 80.1023 90.7504C82.9198 93.3801 83.5774 95.4467 82.0744 96.9491C80.5089 98.4521 78.4114 97.7631 75.7817 94.8831C73.2144 92.0025 71.1169 91.5958 69.489 93.6619C67.7981 95.7909 66.9532 99.0467 66.9532 103.43C66.9532 107.75 67.7981 110.944 69.489 113.01C71.1169 115.139 73.3084 114.231 76.0635 110.286C78.8811 106.342 80.8847 106.154 82.0744 109.723C83.2016 113.292 82.4816 118.583 79.9144 125.596C77.4096 132.608 77.1277 138.025 79.0689 141.844Z" fill="#A13333" />
  </g>
  <g id="bk" fill="none" transform="scale(0.2222222222222222 0.2222222222222222)">
    <path d="M70.3125 42.722C68.7499 41.2127 67.9686 38.9802 67.9686 36.0245C67.9686 33.0058 68.7499 30.7419 70.3125 29.2325C71.8751 27.7232 73.9373 28.0062 76.5 30.0815C79.0628 32.0939 81.0939 32.4084 82.5936 31.0249C84.0938 29.6413 83.8125 27.6918 81.7498 25.1763C79.6877 22.5978 79.4374 20.554 81 19.0446C82.5002 17.5982 84.7811 16.875 87.8439 16.875C90.9686 16.875 93.3126 17.5982 94.8752 19.0446C96.3748 20.554 96.0936 22.5978 94.0314 25.1763C92.0312 27.6918 91.7814 29.6413 93.2811 31.0249C94.7188 32.4084 96.7185 32.0939 99.2812 30.0815C101.844 28.0062 103.938 27.7232 105.563 29.2325C107.062 30.7419 107.813 33.0058 107.813 36.0245C107.813 38.9802 107.062 41.2127 105.563 42.722C103.938 44.2313 101.844 44.0112 99.2812 42.0617C96.7815 40.0493 94.7812 39.672 93.2811 40.9298C91.656 42.2504 91.5626 44.6087 92.9998 48.0046C94.5 51.3377 94.5939 53.0043 93.2811 53.0043C91.8439 53.0043 90.2188 52.9414 88.4064 52.8156C86.5935 52.6269 84.6563 52.6898 82.5936 53.0043C80.5314 53.3816 80.406 51.8094 82.2189 48.2876C84.0313 44.703 84.1562 42.2504 82.5936 40.9298C81.0315 39.672 78.9688 40.0493 76.4061 42.0617C73.9063 44.0112 71.8751 44.2313 70.3125 42.722ZM108.656 75.1725C124.406 78.5683 137.406 85.266 147.656 95.265C157.969 105.265 163.125 116.71 163.125 129.602C163.125 137.274 161.25 144.475 157.5 151.204C153.812 157.933 148.813 163.782 142.5 168.75H32.25C18.25 158.059 11.25 145.01 11.25 129.602C11.25 116.836 16.2812 105.484 26.3437 95.5479C36.4687 85.6119 49.375 78.8513 65.0627 75.2664C62.3751 73.0029 61.0313 70.3929 61.0313 67.437C61.0313 63.5383 63.5625 60.2049 68.625 57.438C73.6875 54.6079 79.8126 53.1929 87.0002 53.1929C94.1248 53.1929 100.219 54.6079 105.281 57.438C110.406 60.2049 112.969 63.5383 112.969 67.437C112.969 70.5184 111.531 73.0969 108.656 75.1725Z" fill="#181111" />
  </g>
  <g id="bn" fill="none" transform="scale(0.2222222222222222 0.2222222222222222)">
    <path d="M102.793 73.3016C109.618 72.0495 112.718 69.5447 112.092 65.7878C111.466 62.0938 107.74 60.8726 100.915 62.1248C94.0269 63.4399 90.9276 65.9447 91.6166 69.6386C92.3051 73.458 96.0306 74.6792 102.793 73.3016ZM150.882 167.318L29.7217 167.506C30.7861 150.913 35.4196 136.292 43.6222 123.644C51.8874 110.996 64.5356 103.638 81.567 101.572C76.9961 101.071 72.7071 99.6311 68.6992 97.2518C64.7544 94.8724 61.749 91.4288 59.6829 86.9203C57.6169 87.1082 55.1433 87.6718 52.2631 88.6112C49.3827 89.55 46.3146 89.4561 43.0586 88.3294C35.9206 88.7051 31.6314 86.3567 30.1913 81.2852C28.8138 76.2131 28.125 71.4859 28.125 67.1029C28.125 62.7199 29.5964 58.9629 32.5393 55.8321C35.4823 52.6387 39.1139 50.9168 43.4343 50.6663C67.1029 51.042 88.9864 49.2575 109.086 45.3128C129.248 41.3054 143.743 35.5762 152.572 28.125C155.202 32.6333 156.517 37.2668 156.517 42.0255C156.517 48.1618 154.607 53.5466 150.788 58.1799C147.031 62.7508 142.366 65.5059 136.793 66.4453C140.738 67.3847 144.056 69.5762 146.749 73.0198C149.441 76.401 150.788 80.2834 150.788 84.6664C150.788 89.1743 149.441 93.1191 146.749 96.5003C144.056 99.8814 140.738 102.042 136.793 102.981C140.738 103.983 144.056 106.175 146.749 109.556C149.441 112.937 150.788 116.85 150.788 121.296C150.788 125.804 149.441 129.749 146.749 133.13C144.056 136.511 140.738 138.671 136.793 139.611C140.738 140.613 144.025 142.836 146.655 146.279C149.347 149.66 150.694 153.543 150.694 157.926L150.882 167.318Z" fill="#181111" />
    <path d="M102.794 73.3016C109.618 72.0495 112.718 69.5447 112.092 65.7883C111.466 62.0938 107.74 60.8726 100.915 62.1253C94.0275 63.4399 90.9276 65.9447 91.6166 69.6386C92.3051 73.4586 96.0311 74.6792 102.794 73.3016Z" fill="#A13333" />
  </g>
  <g id="bp" fill="none" transform="scale(0.2222222222222222 0.2222222222222222)">
    <path d="M117.187 140.469L157.5 140.56V168.75H16.875V140.56H57.375C43.125 130.982 36 117.553 36 100.276C36 86.6351 41 74.9655 51 65.2658C60.9998 55.5052 73.0626 50.625 87.1875 50.625C101.25 50.625 113.281 55.5052 123.281 65.2658C133.344 74.9655 138.375 86.6351 138.375 100.276C138.375 108.52 136.438 116.159 132.563 123.191C128.688 130.163 123.563 135.922 117.187 140.469Z" fill="#181111" />
  </g>
  <g id="bq" fill="none" transform="scale(0.2222222222222222 0.2222222222222222)">
    <path d="M87.1414 56.25C91.8343 60.1909 96.2499 66.3716 100.388 74.7911C104.587 83.2106 108.231 92.9138 111.318 103.901C120.766 90.2869 130.092 80.0758 139.293 73.2684C148.556 66.4014 156.214 64.3112 162.266 66.9982C166.28 68.8494 168.441 71.7458 168.75 75.6866C158.807 75.2091 150.501 84.1359 143.832 102.468C137.224 120.8 134.013 142.894 134.198 168.75H40.4547C40.4547 142.894 37.089 120.8 30.3577 102.468C23.6882 84.1359 15.444 75.2091 5.625 75.6866C5.87199 71.7458 8.03346 68.8494 12.1092 66.9982C18.0994 64.3112 25.7262 66.4014 34.9894 73.2684C44.2526 80.0758 53.6084 90.2869 63.0568 103.901C66.0831 92.9138 69.6645 83.2106 73.8023 74.7911C78.0013 66.3716 82.4479 60.1909 87.1414 56.25Z" fill="#181111" />
  </g>
  <g id="br" fill="none" transform="scale(0.2222222222222222 0.2222222222222222)">
    <path d="M157.5 168.75H22.5V65.8693C22.5 59.4563 25.59 56.25 31.77 56.25H44.1C50.16 56.25 53.19 59.4563 53.19 65.8693V106.637H74.61V66.0527C74.61 59.5176 77.76 56.25 84.06 56.25H96.21C102.27 56.25 105.3 59.3955 105.3 65.6859V106.637H126.81V65.8693C126.81 59.4563 129.93 56.25 136.17 56.25H148.32C154.44 56.25 157.5 59.4563 157.5 65.8693V168.75Z" fill="#181111" />
  </g>
  <g id="wb" fill="none" transform="scale(0.2222222222222222 0.2222222222222222)">
    <path d="M138.053 171.524H39.622C33.3606 160.128 29.635 147.73 28.4453 134.331C27.3182 120.868 29.1654 107.531 33.9867 94.3194C38.8081 81.108 46.0401 69.8372 55.6828 60.5076C65.3254 51.1153 76.3459 44.0711 88.7434 39.375C101.016 44.6347 111.88 51.9919 121.335 61.4469C130.789 70.9014 137.927 82.2037 142.749 95.3527C147.445 108.376 149.292 121.526 148.29 134.8C147.288 148.012 143.876 160.253 138.053 171.524ZM45.3513 161.85L133.45 162.132C141.59 141.907 141.684 120.743 133.732 98.64C129.599 87.3067 123.589 77.382 115.699 68.8669C107.81 60.3512 98.8245 53.6512 88.7434 48.7672C78.6622 53.1503 69.552 59.5682 61.412 68.0214C53.3347 76.4117 47.2298 86.2734 43.0972 97.6067C39.0899 108.502 37.3679 119.522 37.9314 130.668C38.495 141.813 40.9683 152.207 45.3513 161.85ZM79.5392 140.529C77.6604 136.898 77.9422 131.763 80.3846 125.126C82.8264 118.427 83.484 113.354 82.3567 109.911C81.2295 106.53 79.3198 106.748 76.6277 110.568C73.9974 114.325 71.8999 115.17 70.3344 113.104C68.7065 111.101 67.8926 108.064 67.8926 103.993C67.8926 99.8612 68.7065 96.7612 70.3344 94.6952C71.8999 92.6916 73.9035 93.0988 76.3459 95.9164C78.8501 98.6715 80.8537 99.2976 82.3567 97.7946C83.8597 96.417 83.2331 94.4758 80.478 91.9716C77.7859 89.4043 77.4726 87.3382 79.5392 85.7728C81.5428 84.2074 84.5797 83.4244 88.6494 83.4244C92.7821 83.4244 95.8815 84.2074 97.9476 85.7728C99.9517 87.3382 99.576 89.4043 96.8209 91.9716C94.1282 94.4758 93.5336 96.417 95.0361 97.7946C96.5391 99.2976 98.5112 98.6715 100.954 95.9164C103.458 93.0988 105.524 92.6916 107.152 94.6952C108.718 96.7612 109.5 99.8612 109.5 103.993C109.5 108.064 108.718 111.101 107.152 113.104C105.524 115.17 103.364 114.325 100.672 110.568C98.0415 106.748 96.1633 106.53 95.0361 109.911C93.9094 113.354 94.5664 118.427 97.0087 125.126C99.4506 131.763 99.7639 136.898 97.9476 140.529C96.0694 144.223 92.97 146.071 88.6494 146.071C84.3919 146.071 81.3549 144.223 79.5392 140.529Z" fill="#181111" />
    <path d="M45.3517 161.85L133.451 162.132C141.591 141.907 141.685 120.743 133.733 98.64C129.6 87.3068 123.589 77.382 115.7 68.8663C107.81 60.3512 98.8251 53.6512 88.7439 48.7672C78.6628 53.1503 69.5526 59.5682 61.4126 68.0215C53.3351 76.4117 47.2302 86.2735 43.0976 97.6067C39.0902 108.502 37.3683 119.522 37.9319 130.668C38.4954 141.813 40.9687 152.207 45.3517 161.85ZM79.5392 140.529C77.661 136.898 77.9428 131.763 80.3846 125.126C82.8264 118.427 83.484 113.354 82.3573 109.911C81.2301 106.53 79.3204 106.748 76.6277 110.568C73.998 114.325 71.9004 115.17 70.335 113.104C68.7071 111.101 67.8932 108.064 67.8932 103.993C67.8932 99.8612 68.7071 96.7613 70.335 94.6952C71.9004 92.6916 73.9041 93.0983 76.3459 95.9164C78.8507 98.6715 80.8543 99.2976 82.3573 97.7946C83.8598 96.417 83.2337 94.4758 80.4786 91.9716C77.7864 89.4043 77.4731 87.3377 79.5392 85.7728C81.5434 84.2074 84.5798 83.4244 88.65 83.4244C92.7827 83.4244 95.8821 84.2074 97.9481 85.7728C99.9518 87.3377 99.576 89.4043 96.8209 91.9716C94.1288 94.4758 93.5336 96.417 95.0366 97.7946C96.5396 99.2976 98.5118 98.6715 100.954 95.9164C103.458 93.0983 105.524 92.6916 107.152 94.6952C108.718 96.7613 109.501 99.8612 109.501 103.993C109.501 108.064 108.718 111.101 107.152 113.104C105.524 115.17 103.364 114.325 100.672 110.568C98.0421 106.748 96.1639 106.53 95.0366 109.911C93.9094 113.354 94.5669 118.427 97.0088 125.126C99.4511 131.763 99.7639 136.898 97.9481 140.529C96.0699 144.223 92.9706 146.071 88.65 146.071C84.3919 146.071 81.3555 144.223 79.5392 140.529Z" fill="#DC8C5F" />
  </g>
  <g id="wk" fill="none" transform="scale(0.2222222222222222 0.2222222222222222)">
    <path d="M108.835 74.9188C124.614 78.3 137.638 84.9684 147.907 94.9247C158.239 104.88 163.404 116.276 163.404 129.112C163.404 136.751 161.526 143.921 157.769 150.621C154.074 157.32 149.065 163.144 142.741 168.09H32.2886C18.2629 157.445 11.25 144.453 11.25 129.112C11.25 116.402 16.2905 105.099 26.3715 95.2059C36.5151 85.3133 49.445 78.5818 65.1611 75.0127C62.469 72.7588 61.1229 70.1601 61.1229 67.2176C61.1229 63.3352 63.6587 60.0165 68.7302 57.2614C73.8023 54.4439 79.9386 53.0351 87.1391 53.0351C94.2772 53.0351 100.382 54.4439 105.454 57.2614C110.589 60.0165 113.156 63.3352 113.156 67.2176C113.156 70.2855 111.715 72.8528 108.835 74.9188ZM138.796 156.819C147.625 148.867 152.039 139.475 152.039 128.643C152.039 116.057 145.716 105.287 133.067 96.3332C120.419 87.3169 105.172 82.8084 87.327 82.8084C69.4817 82.8084 54.2351 87.3169 41.5869 96.3332C28.9387 105.287 22.6146 116.057 22.6146 128.643C22.6146 139.224 27.2794 148.616 36.609 156.819H138.796ZM87.2331 61.8638C83.664 61.8638 80.6271 62.3959 78.1228 63.4607C75.6804 64.5249 74.4598 65.7771 74.4598 67.2176C74.4598 68.7201 75.6804 70.0037 78.1228 71.0679C80.6271 72.1328 83.664 72.6649 87.2331 72.6649C90.7397 72.6649 93.7451 72.1328 96.2499 71.0679C98.7542 70.0037 100.006 68.7201 100.006 67.2176C100.006 65.7771 98.7542 64.5249 96.2499 63.4607C93.7451 62.3959 90.7397 61.8638 87.2331 61.8638ZM70.4211 42.6097C68.8556 41.1069 68.0732 38.8841 68.0732 35.9412C68.0732 32.9357 68.8556 30.6816 70.4211 29.1788C71.9865 27.6761 74.0526 27.9578 76.6198 30.0241C79.1871 32.0278 81.2222 32.3409 82.7246 30.9633C84.2276 29.5858 83.9458 27.6447 81.8798 25.1401C79.8131 22.573 79.5628 20.5379 81.1283 19.0352C82.6307 17.5951 84.9161 16.875 87.9846 16.875C91.1154 16.875 93.4633 17.5951 95.0287 19.0352C96.5312 20.5379 96.2499 22.573 94.1833 25.1401C92.1797 27.6447 91.9294 29.5858 93.4318 30.9633C94.8724 32.3409 96.876 32.0278 99.4433 30.0241C102.011 27.9578 104.108 27.6761 105.736 29.1788C107.238 30.6816 107.99 32.9357 107.99 35.9412C107.99 38.8841 107.238 41.1069 105.736 42.6097C104.108 44.1125 102.011 43.8933 99.4433 41.9523C96.9384 39.9486 94.9348 39.5729 93.4318 40.8252C91.8039 42.1401 91.71 44.4882 93.15 47.8694C94.653 51.1879 94.7469 52.8472 93.4318 52.8472C91.9918 52.8472 90.3639 52.7847 88.5482 52.6595C86.7324 52.4716 84.7913 52.5342 82.7246 52.8472C80.6586 53.2229 80.5331 51.6576 82.3494 48.1511C84.1652 44.5821 84.2901 42.1401 82.7246 40.8252C81.1598 39.5729 79.0931 39.9486 76.5259 41.9523C74.0216 43.8933 71.9865 44.1125 70.4211 42.6097Z" fill="#181111" />
    <path d="M138.796 156.819C147.625 148.867 152.039 139.475 152.039 128.643C152.039 116.057 145.715 105.287 133.067 96.3332C120.418 87.3169 105.172 82.8084 87.3264 82.8084C69.4811 82.8084 54.2347 87.3169 41.5865 96.3332C28.9383 105.287 22.6141 116.057 22.6141 128.643C22.6141 139.224 27.2789 148.617 36.6086 156.819H138.796ZM87.2325 61.8638C83.6634 61.8638 80.6271 62.3959 78.1223 63.4607C75.6804 64.5249 74.4593 65.7771 74.4593 67.2176C74.4593 68.7201 75.6804 70.0037 78.1223 71.0685C80.6271 72.1328 83.6634 72.6649 87.2325 72.6649C90.7391 72.6649 93.7446 72.1328 96.2494 71.0685C98.7536 70.0037 100.006 68.7201 100.006 67.2176C100.006 65.7771 98.7536 64.5249 96.2494 63.4607C93.7446 62.3959 90.7391 61.8638 87.2325 61.8638Z" fill="#DC8C5F" />
  </g>
  <g id="wn" fill="none" transform="scale(0.2222222222222222 0.2222222222222222)">
    <path d="M150.882 167.318L29.7217 167.506C30.7861 150.913 35.4196 136.292 43.6222 123.644C51.8874 110.996 64.5356 103.638 81.567 101.572C76.9961 101.071 72.7071 99.6311 68.6992 97.2518C64.7544 94.8724 61.749 91.4288 59.6829 86.9203C57.6169 87.1082 55.1433 87.6718 52.2631 88.6112C49.3827 89.55 46.3146 89.4561 43.0586 88.3294C35.9206 88.7051 31.6314 86.3567 30.1913 81.2852C28.8138 76.2131 28.125 71.4859 28.125 67.1029C28.125 62.7199 29.5964 58.9629 32.5393 55.8321C35.4823 52.6388 39.1139 50.9168 43.4343 50.6663C67.1029 51.042 88.9864 49.2575 109.086 45.3128C129.248 41.3054 143.743 35.5762 152.572 28.125C155.202 32.6333 156.517 37.2668 156.517 42.0255C156.517 48.1618 154.607 53.5466 150.788 58.1799C147.031 62.7508 142.366 65.5059 136.793 66.4453C140.738 67.3847 144.056 69.5762 146.749 73.0198C149.441 76.401 150.788 80.2834 150.788 84.6664C150.788 89.1743 149.441 93.1191 146.749 96.5003C144.056 99.8814 140.738 102.042 136.793 102.981C140.738 103.983 144.056 106.174 146.749 109.556C149.441 112.937 150.788 116.85 150.788 121.296C150.788 125.804 149.441 129.749 146.749 133.13C144.056 136.511 140.738 138.671 136.793 139.611C140.738 140.613 144.025 142.836 146.655 146.279C149.347 149.66 150.694 153.543 150.694 157.926L150.882 167.318ZM141.207 158.114C141.207 151.915 138.577 148.847 133.318 148.909C127.495 149.034 124.583 145.997 124.583 139.799C124.583 133.662 127.495 130.595 133.318 130.595C139.079 130.532 141.959 127.432 141.959 121.296C141.959 115.097 139.079 112.092 133.318 112.28C127.495 112.53 124.583 109.524 124.583 103.263C124.583 97.0639 127.588 93.9645 133.6 93.9645C139.173 94.0899 141.959 91.1154 141.959 85.0421C141.959 78.9058 139.079 75.8374 133.318 75.8374C127.495 75.9628 124.583 72.9259 124.583 66.7271C124.583 60.6533 127.495 57.5539 133.318 57.429C137.263 57.366 140.644 55.8635 143.462 52.9206C146.279 49.9151 147.719 46.4399 147.782 42.4952C136.511 48.4436 121.703 53.1397 103.357 56.5836C85.0106 59.9648 65.9132 61.2799 46.0641 60.5284C40.241 60.0902 37.3294 62.3441 37.3294 67.2908C37.3294 69.2319 37.3607 71.8616 37.4233 75.1804C37.5485 78.4986 39.6461 79.8761 43.7161 79.3125C47.0973 80.3143 50.3846 80.4713 53.578 79.7822C56.8339 79.0313 60.2466 78.3107 63.8156 77.6222C66.5077 84.0088 70.8907 88.5482 76.9646 91.2409C83.1009 93.9336 89.1748 93.7766 95.1857 90.7712C101.948 90.4584 105.329 93.6203 105.329 100.257C105.329 106.895 101.948 110.464 95.1857 110.964C78.0919 110.777 65.412 115.129 57.1472 124.02C48.8819 132.911 43.7161 144.213 41.6499 157.926L141.207 158.114ZM102.793 73.0198C96.2184 74.2725 92.6494 73.1138 92.0863 69.5447C91.4597 66.0386 94.4342 63.6593 101.009 62.4066C107.458 61.1544 110.996 62.3126 111.622 65.8817C112.186 69.5138 109.243 71.8931 102.793 73.0198Z" fill="#181111" />
    <path d="M141.208 158.114C141.208 151.914 138.578 148.846 133.318 148.909C127.495 149.034 124.584 145.997 124.584 139.799C124.584 133.662 127.495 130.594 133.318 130.594C139.079 130.531 141.959 127.432 141.959 121.296C141.959 115.097 139.079 112.092 133.318 112.279C127.495 112.53 124.584 109.524 124.584 103.263C124.584 97.0639 127.589 93.9645 133.6 93.9645C139.173 94.0899 141.959 91.1154 141.959 85.0421C141.959 78.9058 139.079 75.8374 133.318 75.8374C127.495 75.9628 124.584 72.9259 124.584 66.7271C124.584 60.6532 127.495 57.5539 133.318 57.429C137.263 57.366 140.644 55.8633 143.462 52.9205C146.279 49.9149 147.72 46.4399 147.782 42.4951C136.511 48.4435 121.703 53.1396 103.357 56.5836C85.0106 59.9647 65.9132 61.2793 46.0644 60.5284C40.2413 60.0896 37.3297 62.3441 37.3297 67.2907C37.3297 69.2319 37.361 71.8616 37.4236 75.1798C37.5488 78.4985 39.6464 79.8761 43.7164 79.3125C47.0976 80.3143 50.3849 80.4712 53.5783 79.7822C56.8345 79.0307 60.2466 78.3107 63.8156 77.6222C66.5083 84.0088 70.8913 88.5482 76.9652 91.2409C83.101 93.933 89.1748 93.7766 95.1857 90.7712C101.948 90.4579 105.329 93.6202 105.329 100.257C105.329 106.895 101.948 110.464 95.1857 110.964C78.0919 110.776 65.4126 115.129 57.1472 124.019C48.8822 132.911 43.7164 144.213 41.6502 157.926L141.208 158.114ZM102.794 73.0198C96.219 74.2719 92.6499 73.1137 92.0863 69.5447C91.4603 66.038 94.4342 63.6587 101.009 62.4065C107.458 61.1544 110.996 62.3126 111.622 65.8817C112.186 69.5132 109.243 71.8926 102.794 73.0198Z" fill="#DC8C5F" />
  </g>
  <g id="wp" fill="none" transform="scale(0.2222222222222222 0.2222222222222222)">
    <path d="M117.372 147.563C110.86 147.563 107.604 144.339 107.604 137.889C107.604 134.884 108.825 132.348 111.267 130.281C116.589 126.462 120.847 121.578 124.04 115.63C127.297 109.681 128.924 103.232 128.924 96.2814C128.924 84.8227 124.854 75.024 116.714 66.8841C108.574 58.7441 98.775 54.674 87.3169 54.674C75.8582 54.674 66.0589 58.7441 57.9189 66.8841C49.7791 75.024 45.7091 84.8227 45.7091 96.2814C45.7091 103.42 47.3684 110.026 50.687 116.099C54.0682 122.173 58.545 127.088 64.1177 130.845C65.9964 132.848 66.9358 135.197 66.9358 137.889C66.9358 144.339 63.7734 147.563 57.4492 147.563H26.549V157.331H148.084V147.563H117.372ZM117.372 137.795L157.758 137.889V167.005H16.875V137.889H57.4492C43.1732 127.996 36.0352 114.127 36.0352 96.2814C36.0352 82.1931 41.0443 70.1398 51.0627 60.1217C61.0813 50.0405 73.1655 45 87.3169 45C101.405 45 113.459 50.0405 123.477 60.1217C133.558 70.1398 138.598 82.1931 138.598 96.2814C138.598 104.797 136.657 112.687 132.775 119.95C128.893 127.151 123.758 133.099 117.372 137.795Z" fill="#181111" />
    <path d="M117.372 147.563C110.86 147.563 107.604 144.339 107.604 137.889C107.604 134.884 108.825 132.348 111.267 130.281C116.589 126.462 120.847 121.578 124.04 115.63C127.297 109.681 128.924 103.232 128.924 96.2814C128.924 84.8233 124.855 75.024 116.715 66.8841C108.575 58.7441 98.7755 54.674 87.3169 54.674C75.8582 54.674 66.0588 58.7441 57.9189 66.8841C49.7793 75.024 45.7093 84.8233 45.7093 96.2814C45.7093 103.42 47.3686 110.026 50.6871 116.099C54.0684 122.173 58.5455 127.088 64.1182 130.845C65.9964 132.848 66.9358 135.197 66.9358 137.889C66.9358 144.339 63.7734 147.563 57.4498 147.563H26.5491V157.331H148.084V147.563H117.372Z" fill="#DC8C5F" />
  </g>
  <g id="wq" fill="none" transform="scale(0.2222222222222222 0.2222222222222222)">
    <path d="M125.282 159.199C125.595 141.041 127.317 125.606 130.448 112.895C133.641 100.185 138.838 88.7889 146.039 78.7078C145.851 77.2678 143.44 78.6454 138.807 82.8405C134.236 87.0356 130.636 90.7926 128.006 94.1108C123.999 99.1828 120.899 103.316 118.707 106.509C116.516 109.64 113.604 113.365 109.973 117.686C107.593 108.857 104.15 99.2143 99.6413 88.7574C95.1328 78.3006 91.2819 71.3818 88.0886 68.0006C84.8329 71.3818 80.9505 78.3006 76.4426 88.7574C71.9342 99.2143 68.5215 108.857 66.2051 117.686C62.5106 113.365 59.5676 109.64 57.3761 106.509C55.2473 103.316 52.1791 99.1828 48.1718 94.1108C45.4794 90.7926 41.8164 87.0356 37.1829 82.8405C32.612 78.6454 30.2952 77.2678 30.2326 78.7078C37.2455 88.6635 42.2234 100.028 45.1663 112.802C48.1718 125.575 49.7685 141.041 49.9563 159.199H125.282ZM88.2765 50.625C93.0352 54.7576 97.5122 61.2382 101.707 70.0667C105.965 78.8957 109.659 89.0707 112.79 100.592C122.37 86.3156 131.825 75.6084 141.155 68.4703C150.547 61.2697 158.311 59.0783 164.447 61.8958C168.518 63.837 170.709 66.8734 171.022 71.0061C160.941 70.5054 152.52 79.866 145.757 99.0889C139.057 118.312 135.802 141.479 135.989 168.591H40.9398C40.9398 141.479 37.5273 118.312 30.7023 99.0889C23.9398 79.866 15.5807 70.5054 5.625 71.0061C5.87548 66.8734 8.06698 63.837 12.1996 61.8958C18.2732 59.0783 26.0061 61.2697 35.3983 68.4703C44.7906 75.6084 54.2767 86.3156 63.8567 100.592C66.9251 89.0707 70.5566 78.8957 74.7517 70.0667C79.0099 61.2382 83.5177 54.7576 88.2765 50.625Z" fill="#181111" />
    <path d="M125.282 159.199C125.595 141.041 127.317 125.606 130.448 112.895C133.641 100.185 138.838 88.7889 146.039 78.7078C145.851 77.2678 143.44 78.6454 138.807 82.8405C134.236 87.0356 130.635 90.7925 128.006 94.1113C123.999 99.1828 120.899 103.315 118.707 106.509C116.516 109.64 113.604 113.365 109.973 117.686C107.593 108.857 104.15 99.2143 99.6412 88.7574C95.1327 78.3006 91.2819 71.3818 88.0885 68.0006C84.8328 71.3818 80.9504 78.3006 76.4425 88.7574C71.9341 99.2143 68.5214 108.857 66.205 117.686C62.5105 113.365 59.5675 109.64 57.376 106.509C55.2472 103.315 52.1791 99.1828 48.1717 94.1113C45.4793 90.7925 41.8163 87.0356 37.1828 82.8405C32.6119 78.6454 30.2952 77.2678 30.2325 78.7078C37.2455 88.6635 42.2233 100.028 45.1662 112.801C48.1717 125.575 49.7684 141.041 49.9563 159.199H125.282Z" fill="#DC8C5F" />
  </g>
  <g id="wr" fill="none" transform="scale(0.2222222222222222 0.2222222222222222)">
    <path d="M148.084 156.288V65.3709C148.084 61.9897 146.488 60.2989 143.295 60.2989H140.289C137.033 60.2989 135.405 61.9897 135.405 65.3709V111.674H93.6096V65.3709C93.6096 61.9897 92.0441 60.2989 88.9132 60.2989H85.8139C82.5581 60.2989 80.9302 62.0207 80.9302 65.4649V111.674H39.2285V65.277C39.2285 61.9583 37.6005 60.2989 34.3446 60.2989H31.5269C28.2083 60.2989 26.549 61.9897 26.549 65.3709V156.288H148.084ZM157.758 165.962H16.875V60.4867C16.875 53.9123 20.0997 50.625 26.549 50.625H39.4163C45.7404 50.625 48.9025 53.9123 48.9025 60.4867V102.282H71.2558V60.6746C71.2558 53.9749 74.5431 50.625 81.1181 50.625H93.7974C100.122 50.625 103.283 53.8497 103.283 60.2989V102.282H125.731V60.4867C125.731 53.9123 128.987 50.625 135.499 50.625H148.178C154.565 50.625 157.758 53.9123 157.758 60.4867V165.962Z" fill="#181111" />
    <path d="M148.084 156.288V65.371C148.084 61.9898 146.488 60.2989 143.295 60.2989H140.289C137.033 60.2989 135.405 61.9898 135.405 65.371V111.674H93.6096V65.371C93.6096 61.9898 92.0441 60.2989 88.9138 60.2989H85.8139C82.5581 60.2989 80.9302 62.0207 80.9302 65.4649V111.674H39.2286V65.277C39.2286 61.9583 37.6006 60.2989 34.3447 60.2989H31.527C28.2084 60.2989 26.5491 61.9898 26.5491 65.371V156.288H148.084Z" fill="#DC8C5F" />
  </g>
</svg>