<svg xmlns="http://www.w3.org/2000/svg" width="40" height="40" viewbox="0.0 0.0 180.0 180.0">
  <g id="bb" fill="none" transform="scale(0.2222222222222222 0.2222222222222222)">
    <path d="M94.0989 29.5516C97.2405 30.803 99.4399 32.5299 100.696 34.7324C93.942 35.9337 89.8054 38.7869 88.2872 43.2919C86.7684 47.7969 86.4023 51.8514 87.1875 55.4554C87.5019 52.452 89.9887 49.4487 94.6491 46.4453C99.3611 43.392 103.576 41.7151 107.294 41.4147C108.498 43.9676 109.415 47.046 110.043 50.65C110.671 54.254 110.959 57.4324 110.907 60.1858C110.697 66.9431 108.236 72.5743 103.524 77.0794C98.8639 81.5844 93.2349 83.8367 86.6379 83.8367C80.0404 83.8367 74.3856 81.5844 69.6729 77.0794C64.9603 72.5743 62.5258 66.9431 62.3689 60.1858C62.1591 51.1756 64.3843 43.5922 69.0446 37.4353C73.7049 31.2284 79.5431 28.125 86.5592 28.125C89.2817 28.125 91.7949 28.6005 94.0989 29.5516ZM111.3 124.682C111.3 128.086 113.08 129.788 116.64 129.788H123.316C127.767 129.788 129.992 131.915 129.992 136.17C129.992 140.475 127.767 142.628 123.316 142.628H51.0589C46.5559 142.628 44.3044 140.475 44.3044 136.17C44.3044 131.915 46.5559 129.788 51.0589 129.788H57.735C61.2427 129.788 62.9972 128.086 62.9972 124.682V106.737H111.3V124.682ZM55.0644 88.7923H119.389C123.892 88.7923 126.143 90.9197 126.143 95.1744C126.143 99.4793 123.892 101.632 119.389 101.632H55.0644C50.6138 101.632 48.3884 99.4793 48.3884 95.1744C48.3884 90.9197 50.6138 88.7923 55.0644 88.7923ZM36.2146 147.733H138.16C143.553 147.733 146.25 150.286 146.25 155.391C146.25 160.547 143.553 163.125 138.16 163.125H36.2146C30.8216 163.125 28.125 160.547 28.125 155.391C28.125 150.286 30.8216 147.733 36.2146 147.733Z" fill="black" />
  </g>
  <g id="bk" fill="none" transform="scale(0.2222222222222222 0.2222222222222222)">
    <path d="M89.8577 54.1683H84.5173V42.5513H77.9985C76.113 42.5513 75.1708 41.6655 75.1708 39.8938C75.1708 38.1728 76.0607 37.3123 77.841 37.3123L84.5173 37.3883V30.7065C84.5173 28.9855 85.4072 28.125 87.1875 28.125C88.9678 28.125 89.8577 28.9855 89.8577 30.7065V37.3883L96.6909 37.3123C98.4189 37.3123 99.2829 38.1728 99.2829 39.8938C99.2829 41.6655 98.4189 42.5513 96.6909 42.5513H89.8577V54.1683ZM87.1875 82.7932L63.0754 82.8692L52.5511 70.7968C51.1897 69.0756 49.5142 67.1012 47.5245 64.8743C45.5872 62.5961 44.4615 60.7742 44.1473 59.4073C43.7284 58.0404 44.1472 56.826 45.4039 55.7628C46.7129 54.6998 48.1529 54.1683 49.7236 54.1683H87.1875L124.651 54.0924C126.222 54.0924 127.61 54.6239 128.814 55.6869C130.071 56.7501 130.542 57.9645 130.228 59.3314C129.809 60.7489 128.604 62.5708 126.615 64.7983C124.678 67.0253 123.054 68.9996 121.745 70.7209L111.3 82.7932H87.1875ZM111.3 124.25C111.3 127.692 113.08 129.413 116.64 129.413H123.316C127.767 129.413 129.992 131.564 129.992 135.867C129.992 140.22 127.767 142.397 123.316 142.397H51.0589C46.5559 142.397 44.3044 140.22 44.3044 135.867C44.3044 131.564 46.5559 129.413 51.0589 129.413H57.735C61.2427 129.413 62.9972 127.692 62.9972 124.25V106.103H111.3V124.25ZM55.0644 87.9564H119.389C123.892 87.9564 126.143 90.1074 126.143 94.41C126.143 98.7632 123.892 100.94 119.389 100.94H55.0644C50.6138 100.94 48.3884 98.7632 48.3884 94.41C48.3884 90.1074 50.6138 87.9564 55.0644 87.9564ZM36.2146 147.559H138.16C143.553 147.559 146.25 150.141 146.25 155.305C146.25 160.518 143.553 163.125 138.16 163.125H36.2146C30.8216 163.125 28.125 160.518 28.125 155.305C28.125 150.141 30.8216 147.559 36.2146 147.559Z" fill="black" />
  </g>
  <g id="bn" fill="none" transform="scale(0.2222222222222222 0.2222222222222222)">
    <path d="M111.3 123.72C111.3 127.209 113.08 128.953 116.64 128.953H123.316C127.767 128.953 129.992 131.134 129.992 135.495C129.992 139.908 127.767 142.114 123.316 142.114H51.0589C46.5559 142.114 44.3044 139.908 44.3044 135.495C44.3044 131.134 46.5559 128.953 51.0589 128.953H57.735C61.2427 128.953 62.9972 127.209 62.9972 123.72V105.326H111.3V123.72ZM36.2146 147.347H138.16C143.553 147.347 146.25 149.964 146.25 155.198C146.25 160.482 143.553 163.125 138.16 163.125H36.2146C30.8216 163.125 28.125 160.482 28.125 155.198C28.125 149.964 30.8216 147.347 36.2146 147.347ZM91.5075 37.5212C101.822 38.7527 109.938 42.9086 115.855 49.9893C121.824 57.0701 124.782 65.8693 124.73 76.3875L124.494 100.015L49.8022 99.9383C48.2314 94.2429 48.9382 88.83 51.9228 83.6989C54.9073 78.5683 59.3055 75.2844 65.1178 73.8478C69.7252 73.9502 73.7049 72.5653 77.0558 69.6915C80.4594 66.8183 82.161 63.3549 82.161 59.3016L65.8243 65.2281C63.0495 66.6647 60.2218 67.0236 57.3418 66.3053C54.5146 65.5358 52.3941 63.9197 50.9803 61.4565C49.5142 58.9939 49.043 56.2489 49.5666 53.2217C50.1425 50.1945 51.7657 47.8343 54.4361 46.1411L84.2029 36.7516C84.3598 35.0584 84.9622 34.0835 86.0096 33.827C88.0515 33.4165 89.8841 34.6479 91.5075 37.5212V37.5212ZM78.0767 45.9871C74.8828 46.8081 73.4951 48.0395 73.9142 49.6814C74.3332 51.3233 76.1659 51.7081 79.4121 50.8358C82.6059 50.0149 84.0195 48.7835 83.6533 47.1416C83.1819 45.551 81.3229 45.1662 78.0767 45.9871Z" fill="black" />
  </g>
  <g id="bp" fill="none" transform="scale(0.2222222222222222 0.2222222222222222)">
    <path d="M87.1875 39.375C93.7851 39.375 99.4399 41.62 104.153 46.1102C108.917 50.551 111.3 55.8799 111.3 62.0972C111.3 68.3634 108.917 73.7173 104.153 78.1577C99.4399 82.5986 93.7851 84.8188 87.1875 84.8188C80.5376 84.8188 74.8564 82.5986 70.1443 78.1577C65.4317 73.7173 63.0754 68.3634 63.0754 62.0972C63.0754 55.8799 65.4317 50.551 70.1443 46.1102C74.8564 41.62 80.5376 39.375 87.1875 39.375ZM111.3 125.231C111.3 128.586 113.08 130.263 116.64 130.263H123.316C127.767 130.263 129.992 132.36 129.992 136.554C129.992 140.798 127.767 142.919 123.316 142.919H51.0589C46.5559 142.919 44.3044 140.798 44.3044 136.554C44.3044 132.36 46.5559 130.263 51.0589 130.263H57.735C61.2427 130.263 62.9972 128.586 62.9972 125.231V107.541H111.3V125.231ZM55.0644 89.8521H119.389C123.892 89.8521 126.143 91.9491 126.143 96.1431C126.143 100.387 123.892 102.508 119.389 102.508H55.0644C50.6138 102.508 48.3884 100.387 48.3884 96.1431C48.3884 91.9491 50.6138 89.8521 55.0644 89.8521ZM36.2146 147.952H138.16C143.553 147.952 146.25 150.469 146.25 155.501C146.25 160.584 143.553 163.125 138.16 163.125H36.2146C30.8216 163.125 28.125 160.584 28.125 155.501C28.125 150.469 30.8216 147.952 36.2146 147.952Z" fill="black" />
  </g>
  <g id="bq" fill="none" transform="scale(0.2222222222222222 0.2222222222222222)">
    <path d="M87.1875 22.5C91.638 22.5 93.8633 24.6433 93.8633 28.9299C93.8633 33.2165 91.638 35.3597 87.1875 35.3597C82.737 35.3597 80.5117 33.2165 80.5117 28.9299C80.5117 24.6433 82.737 22.5 87.1875 22.5ZM42.0267 44.1346C43.7546 47.1604 47.7078 49.8584 53.8863 52.2287C60.0649 54.5485 63.1541 57.5488 63.1541 61.2304C63.1541 57.5488 66.7147 53.1868 73.8354 48.1438C81.009 43.0504 85.4595 38.9655 87.1875 35.8892C88.9155 38.9655 93.3924 43.0504 100.618 48.1438C107.844 53.1868 111.378 57.5488 111.221 61.2304C111.012 57.5488 113.97 54.5485 120.096 52.2287C126.275 49.8584 130.385 47.0848 132.427 43.9077V65.3152C130.699 68.3916 126.641 71.5686 120.253 74.8468C113.917 78.0744 110.828 81.5288 110.985 85.2103C111.142 81.5288 107.634 77.3932 100.461 72.8044C93.3396 68.1649 88.9155 64.3067 87.1875 61.2304C85.4595 64.3067 81.0349 68.1649 73.9142 72.8044C66.8452 77.3932 63.3111 81.5288 63.3111 85.2103C63.3111 81.5288 60.1695 78.0744 53.8863 74.8468C47.6554 71.5686 43.676 68.3916 41.9482 65.3152L42.0267 44.1346ZM41.0056 30.5184C45.4563 30.5184 47.6816 32.6617 47.6816 36.9483C47.6816 41.2349 45.4563 43.3781 41.0056 43.3781C36.555 43.3781 34.3297 41.2349 34.3297 36.9483C34.3297 32.6617 36.555 30.5184 41.0056 30.5184ZM132.741 30.2915C137.192 30.2915 139.417 32.46 139.417 36.797C139.417 41.0836 137.192 43.2269 132.741 43.2269C128.291 43.2269 126.065 41.0836 126.065 36.797C126.065 32.46 128.291 30.2915 132.741 30.2915ZM111.3 124.395C111.3 127.824 113.08 129.538 116.64 129.538H123.316C127.767 129.538 129.992 131.682 129.992 135.968C129.992 140.306 127.767 142.474 123.316 142.474H51.0589C46.5559 142.474 44.3044 140.306 44.3044 135.968C44.3044 131.682 46.5559 129.538 51.0589 129.538H57.735C61.2427 129.538 62.9972 127.824 62.9972 124.395V106.315H111.3V124.395ZM55.0644 88.236H119.389C123.892 88.236 126.143 90.3791 126.143 94.6659C126.143 99.0028 123.892 101.171 119.389 101.171H55.0644C50.6138 101.171 48.3884 99.0028 48.3884 94.6659C48.3884 90.3791 50.6138 88.236 55.0644 88.236ZM36.2146 147.617H138.16C143.553 147.617 146.25 150.19 146.25 155.333C146.25 160.528 143.553 163.125 138.16 163.125H36.2146C30.8216 163.125 28.125 160.528 28.125 155.333C28.125 150.19 30.8216 147.617 36.2146 147.617Z" fill="black" />
  </g>
  <g id="br" fill="none" transform="scale(0.2222222222222222 0.2222222222222222)">
    <path d="M111.3 124.603C111.3 128.014 113.08 129.719 116.64 129.719H123.316C127.767 129.719 129.992 131.851 129.992 136.114C129.992 140.428 127.767 142.585 123.316 142.585H51.0589C46.5559 142.585 44.3044 140.428 44.3044 136.114C44.3044 131.851 46.5559 129.719 51.0589 129.719H57.735C61.2427 129.719 62.9972 128.014 62.9972 124.603V106.621H111.3V124.603ZM55.0644 88.6388H119.389C123.892 88.6388 126.143 90.7701 126.143 95.0338C126.143 99.3476 123.892 101.504 119.389 101.504H55.0644C50.6138 101.504 48.3884 99.3476 48.3884 95.0338C48.3884 90.7701 50.6138 88.6388 55.0644 88.6388ZM36.2146 147.701H138.16C143.553 147.701 146.25 150.259 146.25 155.375C146.25 160.542 143.553 163.125 138.16 163.125H36.2146C30.8216 163.125 28.125 160.542 28.125 155.375C28.125 150.259 30.8216 147.701 36.2146 147.701ZM87.1875 83.5223L60.9548 83.5976C50.0116 78.1802 44.4614 65.3147 44.3044 45H60.4052V60.4237H76.4274V45H87.2662H98.0263V60.4237H114.127V45H130.149C129.94 65.4148 124.521 78.2556 113.891 83.5223H87.1875Z" fill="black" />
  </g>
  <g id="wb" fill="none" transform="scale(0.2222222222222222 0.2222222222222222)">
    <path d="M92.9717 26.8071C87.4339 26.3456 82.3579 29.2938 77.7431 35.6519C73.1801 41.9586 71.5905 49.0088 72.9748 56.8024C72.3594 61.3659 74.1026 65.5706 78.2049 69.4159C82.3067 73.2617 86.7673 75.1843 91.5874 75.1843C96.3557 75.1843 100.791 73.5694 104.893 70.3389C108.995 67.1085 111.123 62.5967 111.277 56.8024C111.277 54.3926 111.2 51.6238 111.046 48.4961C110.892 45.3683 110.328 42.9328 109.354 41.1895C104.38 40.2153 100.381 41.856 97.3558 46.1118C96.2274 47.6501 95.0484 49.137 93.8177 50.5727C92.5869 51.9571 91.7409 53.4953 91.2797 55.1873C90.7155 52.9826 89.9977 50.9316 89.1264 49.0344C88.3057 47.086 88.1004 44.6505 88.5111 41.7278C88.8699 38.9078 90.1519 36.2671 92.3563 33.806C94.6125 31.2935 96.894 29.7041 99.2014 29.0375C99.2014 28.4735 98.0477 27.9095 95.7403 27.3454C94.869 26.9352 94.4072 26.7558 94.356 26.8071C94.356 26.8071 93.8947 26.8071 92.9717 26.8071ZM99.2014 23.9613C102.278 25.2431 104.432 27.0121 105.662 29.2682C102.74 30.5501 99.612 32.8318 96.2792 36.1133C92.9464 39.3949 91.6644 42.8815 92.4334 46.5733C92.7411 43.4968 95.1767 40.8305 99.7397 38.5745C104.354 36.3184 108.508 35.498 112.2 36.1133C113.327 38.7796 114.199 41.9586 114.815 45.6503C115.43 49.2908 115.738 52.5467 115.738 55.4181C115.532 62.289 113.123 68.0316 108.508 72.6463C103.893 77.2611 98.3554 79.5684 91.8951 79.5684C85.4342 79.5684 79.8969 77.2611 75.2822 72.6463C70.6674 68.0316 68.283 62.289 68.1294 55.4181C67.9241 46.1887 70.1033 38.395 74.6668 32.037C79.2304 25.679 84.9729 22.5 91.8951 22.5C94.4072 22.5 96.8428 22.9871 99.2014 23.9613ZM41.5949 149.019C39.0312 149.019 37.7493 150.327 37.7493 152.942C37.7493 155.557 39.0312 156.864 41.5949 156.864H141.503C144.118 156.864 145.425 155.557 145.425 152.942C145.425 150.327 144.118 149.019 141.503 149.019H41.5949ZM41.6719 145.097H141.503C146.784 145.097 149.425 147.712 149.425 152.942C149.425 158.223 146.784 160.864 141.503 160.864H41.6719C36.3907 160.864 33.75 158.223 33.75 152.942C33.75 147.712 36.3907 145.097 41.6719 145.097ZM60.0536 88.6438C58.3104 88.6438 57.4386 89.5157 57.4386 91.2589C57.4386 93.0021 58.3104 93.8739 60.0536 93.8739H123.121C124.864 93.8739 125.736 93.0021 125.736 91.2589C125.736 89.5157 124.864 88.6438 123.121 88.6438H60.0536ZM60.1307 84.7215H123.121C127.531 84.7215 129.736 86.9006 129.736 91.2589C129.736 95.6683 127.531 97.8733 123.121 97.8733H60.1307C55.7723 97.8733 53.5931 95.6683 53.5931 91.2589C53.5931 86.9006 55.7723 84.7215 60.1307 84.7215ZM111.277 121.485V107.026H71.8982V121.485C71.8982 124.049 70.9751 126.228 69.129 128.022C67.3346 129.766 65.2067 130.637 62.7458 130.637H56.2082C54.4648 130.637 53.5931 131.509 53.5931 133.252C53.5931 134.996 54.4648 135.867 56.2082 135.867H127.12C128.864 135.867 129.736 134.996 129.736 133.252C129.736 131.509 128.864 130.637 127.12 130.637H120.429C117.866 130.637 115.686 129.766 113.892 128.022C112.097 126.228 111.225 124.049 111.277 121.485ZM115.199 121.485C115.199 124.972 116.943 126.715 120.429 126.715H126.966C131.325 126.715 133.504 128.894 133.504 133.252C133.504 137.662 131.325 139.867 126.966 139.867H56.2082C51.7985 139.867 49.5938 137.662 49.5938 133.252C49.5938 128.894 51.7985 126.715 56.2082 126.715H62.7458C66.1809 126.715 67.8988 124.972 67.8988 121.485V103.103H115.199V121.485Z" fill="black" />
    <path d="M92.9717 26.807C87.4339 26.3456 82.3579 29.2939 77.7431 35.6519C73.1796 41.9586 71.5899 49.0088 72.9748 56.8024C72.3594 61.3659 74.1026 65.5706 78.2044 69.4159C82.3067 73.2617 86.7673 75.1843 91.5874 75.1843C96.3557 75.1843 100.791 73.5694 104.893 70.3389C108.995 67.1085 111.122 62.5967 111.277 56.8024C111.277 54.3926 111.2 51.6238 111.046 48.496C110.892 45.3683 110.328 42.9328 109.354 41.1894C104.38 40.2153 100.381 41.856 97.3558 46.1118C96.2274 47.65 95.0484 49.137 93.8177 50.5727C92.5869 51.957 91.7409 53.4953 91.2797 55.1874C90.7155 52.9825 89.9977 50.9316 89.1259 49.0344C88.3057 47.086 88.1004 44.6505 88.5105 41.7279C88.8694 38.9078 90.1513 36.2671 92.3563 33.806C94.6125 31.2936 96.894 29.704 99.2014 29.0375C99.2014 28.4735 98.0477 27.9094 95.7403 27.3454C94.869 26.9352 94.4072 26.7557 94.356 26.807C94.356 26.807 93.8947 26.807 92.9717 26.807ZM41.5948 149.019C39.031 149.019 37.7492 150.327 37.7492 152.941C37.7492 155.557 39.031 156.864 41.5948 156.864H141.503C144.118 156.864 145.425 155.557 145.425 152.941C145.425 150.327 144.118 149.019 141.503 149.019H41.5948ZM60.0536 88.6438C58.3104 88.6438 57.4386 89.5157 57.4386 91.2589C57.4386 93.0021 58.3104 93.8739 60.0536 93.8739H123.121C124.864 93.8739 125.736 93.0021 125.736 91.2589C125.736 89.5157 124.864 88.6438 123.121 88.6438H60.0536ZM111.277 121.485V107.026H71.8982V121.485C71.8982 124.049 70.9751 126.228 69.129 128.022C67.3346 129.766 65.2067 130.637 62.7452 130.637H56.208C54.4647 130.637 53.593 131.509 53.593 133.252C53.593 134.995 54.4647 135.867 56.208 135.867H127.12C128.864 135.867 129.736 134.995 129.736 133.252C129.736 131.509 128.864 130.637 127.12 130.637H120.429C117.865 130.637 115.686 129.766 113.892 128.022C112.097 126.228 111.225 124.049 111.277 121.485Z" fill="white" />
  </g>
  <g id="wk" fill="none" transform="scale(0.2222222222222222 0.2222222222222222)">
    <path d="M41.595 153.029C39.0313 153.029 37.7494 154.337 37.7494 156.952C37.7494 159.567 39.0313 160.874 41.595 160.874H141.503C144.118 160.874 145.425 159.567 145.425 156.952C145.425 154.337 144.118 153.029 141.503 153.029H41.595ZM41.6719 149.106H141.503C146.784 149.106 149.425 151.721 149.425 156.952C149.425 162.233 146.784 164.873 141.503 164.873H41.6719C36.3906 164.873 33.75 162.233 33.75 156.952C33.75 151.721 36.3906 149.106 41.6719 149.106ZM60.0536 92.6539C58.3104 92.6539 57.4386 93.5252 57.4386 95.2684C57.4386 97.0121 58.3104 97.8834 60.0536 97.8834H123.121C124.864 97.8834 125.736 97.0121 125.736 95.2684C125.736 93.5252 124.864 92.6539 123.121 92.6539H60.0536ZM60.1307 88.731H123.121C127.531 88.731 129.736 90.9101 129.736 95.2684C129.736 99.6784 127.531 101.883 123.121 101.883H60.1307C55.7723 101.883 53.5931 99.6784 53.5931 95.2684C53.5931 90.9101 55.7723 88.731 60.1307 88.731ZM111.277 125.495V111.035H71.8982V125.495C71.8982 128.059 70.9751 130.238 69.129 132.032C67.3346 133.775 65.2067 134.647 62.7458 134.647H56.2082C54.4648 134.647 53.5931 135.519 53.5931 137.262C53.5931 139.006 54.4648 139.877 56.2082 139.877H127.12C128.864 139.877 129.736 139.006 129.736 137.262C129.736 135.519 128.864 134.647 127.12 134.647H120.429C117.866 134.647 115.686 133.775 113.892 132.032C112.097 130.238 111.225 128.059 111.277 125.495ZM115.199 125.495C115.199 128.981 116.943 130.725 120.429 130.725H126.966C131.325 130.725 133.504 132.904 133.504 137.262C133.504 141.672 131.325 143.877 126.966 143.877H56.2082C51.7985 143.877 49.5938 141.672 49.5938 137.262C49.5938 132.904 51.7985 130.725 56.2082 130.725H62.7458C66.1809 130.725 67.8988 128.981 67.8988 125.495V107.113H115.199V125.495ZM91.5874 79.5021H113.43L121.89 69.3495C122.659 68.4264 123.608 67.2728 124.736 65.8884C125.916 64.5041 127.043 63.1963 128.12 61.9661C129.145 60.7354 129.3 59.8635 128.582 59.3511C127.915 58.7869 127.146 58.5051 126.274 58.5051H91.5874H56.8232C55.9005 58.5051 55.1058 58.7869 54.4391 59.3511C53.7726 59.8635 53.9777 60.7354 55.0545 61.9661C56.08 63.2481 57.1568 64.5812 58.2846 65.9655C59.4129 67.2986 60.4125 68.4523 61.2844 69.4266L69.7444 79.5021H91.5874ZM91.5874 83.5014L67.9753 83.5779L57.6692 71.3492C56.3361 69.606 54.6955 67.6063 52.7471 65.3501C50.8499 63.0428 49.7476 61.1972 49.4399 59.8123C49.0297 58.428 49.4399 57.1978 50.6705 56.1208C51.9524 55.044 53.3624 54.5056 54.9006 54.5056H91.5874L128.274 54.4287C129.812 54.4287 131.171 54.9671 132.351 56.0438C133.581 57.1208 134.043 58.3509 133.735 59.7358C133.325 61.1713 132.145 63.0169 130.197 65.2731C128.299 67.5293 126.71 69.5289 125.429 71.2721L115.199 83.5014H91.5874ZM94.2024 54.5056H88.9723V42.7381H82.5885C80.7429 42.7381 79.8199 41.8408 79.8199 40.0462C79.8199 38.3029 80.6917 37.4313 82.4349 37.4313L88.9723 37.5082V30.74C88.9723 28.9967 89.8442 28.125 91.5874 28.125C93.3306 28.125 94.2024 28.9967 94.2024 30.74V37.5082L100.894 37.4313C102.586 37.4313 103.432 38.3029 103.432 40.0462C103.432 41.8408 102.586 42.7381 100.894 42.7381H94.2024V54.5056Z" fill="black" />
    <path d="M41.5947 153.029C39.031 153.029 37.7492 154.336 37.7492 156.952C37.7492 159.567 39.031 160.874 41.5947 160.874H141.502C144.118 160.874 145.425 159.567 145.425 156.952C145.425 154.336 144.118 153.029 141.502 153.029H41.5947ZM60.0536 92.6538C58.3104 92.6538 57.4385 93.5252 57.4385 95.2683C57.4385 97.0121 58.3104 97.8834 60.0536 97.8834H123.121C124.864 97.8834 125.736 97.0121 125.736 95.2683C125.736 93.5252 124.864 92.6538 123.121 92.6538H60.0536ZM111.277 125.495V111.035H71.8976V125.495C71.8976 128.059 70.9751 130.238 69.129 132.032C67.3346 133.775 65.2067 134.647 62.7452 134.647H56.2079C54.4646 134.647 53.5929 135.519 53.5929 137.262C53.5929 139.006 54.4646 139.877 56.2079 139.877H127.12C128.864 139.877 129.735 139.006 129.735 137.262C129.735 135.519 128.864 134.647 127.12 134.647H120.429C117.865 134.647 115.686 133.775 113.892 132.032C112.097 130.238 111.225 128.059 111.277 125.495ZM91.5874 79.5015H113.43L121.89 69.3495C122.659 68.4264 123.608 67.2727 124.736 65.8884C125.915 64.5041 127.043 63.1963 128.12 61.9661C129.145 60.7353 129.3 59.8635 128.581 59.351C127.915 58.7868 127.146 58.505 126.274 58.505H91.5874H56.8232C55.9003 58.505 55.1055 58.7868 54.439 59.351C53.7724 59.8635 53.9775 60.7353 55.0542 61.9661C56.0797 63.248 57.1567 64.5812 58.2845 65.9655C59.4124 67.2986 60.4125 68.4523 61.2838 69.4265L69.7444 79.5015H91.5874Z" fill="white" />
  </g>
  <g id="wn" fill="none" transform="scale(0.2222222222222222 0.2222222222222222)">
    <path d="M89.8954 41.4412L64.2071 49.6707C62.2586 50.2347 60.8743 51.3115 60.0536 52.901C59.2335 54.4392 59.0023 55.8749 59.3612 57.2079C59.6689 58.5923 60.5919 59.7718 62.1304 60.7461C63.6682 61.6691 65.3861 61.9251 67.2834 61.515L90.2796 53.4394C91.7156 58.8229 91.0232 63.9248 88.2034 68.7448C85.383 73.5131 80.7429 76.5641 74.2821 77.8973C69.2061 77.8973 65.2837 79.7946 62.5146 83.5886C59.7459 87.3827 58.5922 91.5362 59.0541 96.048H124.198V74.2056C123.992 66.258 121.07 59.1053 115.43 52.7472C109.841 46.3379 103.355 42.8769 95.9715 42.3641C93.8177 40.1593 92.4075 39.0057 91.7409 38.9031C90.5619 38.8518 89.9466 39.6978 89.8954 41.4412ZM81.2042 47.9017C83.9734 47.1839 85.5371 47.5172 85.896 48.9016C86.2549 50.3372 85.0753 51.414 82.3579 52.1318C79.5381 52.7984 77.9737 52.4395 77.6666 51.0551C77.256 49.6194 78.4356 48.5683 81.2042 47.9017ZM95.8174 37.5187C105.919 38.7493 113.866 42.9025 119.66 49.9784C125.505 57.0544 128.402 65.8479 128.351 76.3588L128.12 99.9709L54.9775 99.8938C53.4392 94.2024 54.1315 88.7929 57.0544 83.6657C59.9766 78.538 64.2836 75.2563 69.975 73.8208C74.4874 73.9232 78.3844 72.5389 81.666 69.6679C84.9988 66.7963 86.6649 63.3353 86.6649 59.2847L70.6674 65.2067C67.95 66.6422 65.1808 67.0016 62.361 66.2833C59.5924 65.5144 57.5156 63.8995 56.1311 61.438C54.6955 58.977 54.234 56.2338 54.7468 53.2086C55.3108 50.1834 56.9002 47.8248 59.5153 46.1328L88.6646 36.7495C88.8187 35.0575 89.4083 34.0833 90.4337 33.8269C92.4334 33.4167 94.2278 34.6473 95.8174 37.5186V37.5187ZM41.5949 151.194C39.0312 151.194 37.7493 152.501 37.7493 155.116C37.7493 157.731 39.0312 159.038 41.5949 159.038H141.503C144.118 159.038 145.425 157.731 145.425 155.116C145.425 152.501 144.118 151.194 141.503 151.194H41.5949ZM41.6719 147.272H141.503C146.784 147.272 149.425 149.886 149.425 155.116C149.425 160.397 146.784 163.038 141.503 163.038H41.6719C36.3907 163.038 33.75 160.397 33.75 155.116C33.75 149.886 36.3907 147.272 41.6719 147.272ZM111.277 123.659V109.2H71.8982V123.659C71.8982 126.223 70.9751 128.402 69.129 130.197C67.3346 131.94 65.2067 132.812 62.7458 132.812H56.2082C54.4648 132.812 53.5931 133.684 53.5931 135.427C53.5931 137.17 54.4648 138.042 56.2082 138.042H127.12C128.864 138.042 129.736 137.17 129.736 135.427C129.736 133.684 128.864 132.812 127.12 132.812H120.429C117.866 132.812 115.686 131.94 113.892 130.197C112.097 128.402 111.225 126.223 111.277 123.659ZM115.199 123.659C115.199 127.146 116.943 128.89 120.429 128.89H126.966C131.325 128.89 133.504 131.069 133.504 135.427C133.504 139.836 131.325 142.041 126.966 142.041H56.2082C51.7985 142.041 49.5938 139.836 49.5938 135.427C49.5938 131.069 51.7985 128.89 56.2082 128.89H62.7458C66.1809 128.89 67.8988 127.146 67.8988 123.659V105.278H115.199V123.659Z" fill="black" />
    <path d="M89.8954 41.4412L64.2066 49.6707C62.2581 50.2347 60.8738 51.3114 60.0536 52.9009C59.2329 54.4392 59.0023 55.8749 59.3612 57.2079C59.6689 58.5923 60.5919 59.7718 62.1304 60.7461C63.6682 61.6691 65.3861 61.9251 67.2834 61.515L90.2796 53.4393C91.7156 58.8229 91.0232 63.9248 88.2028 68.7448C85.383 73.5131 80.7429 76.5641 74.2821 77.8973C69.2061 77.8973 65.2838 79.7946 62.5146 83.5886C59.7459 87.3827 58.5922 91.5362 59.0535 96.048H124.198V74.2056C123.992 66.258 121.07 59.1053 115.429 52.7472C109.841 46.3379 103.355 42.8769 95.9709 42.3641C93.8177 40.1593 92.4075 39.0056 91.7409 38.9031C90.5619 38.8518 89.9466 39.6978 89.8954 41.4412ZM81.2042 47.9017C83.9728 47.1839 85.5366 47.5171 85.896 48.9016C86.2549 50.3372 85.0753 51.414 82.3579 52.1318C79.5375 52.7984 77.9737 52.4395 77.6661 51.0551C77.256 49.6194 78.4356 48.5683 81.2042 47.9017ZM41.5948 151.194C39.031 151.194 37.7492 152.501 37.7492 155.116C37.7492 157.731 39.031 159.038 41.5948 159.038H141.503C144.118 159.038 145.425 157.731 145.425 155.116C145.425 152.501 144.118 151.194 141.503 151.194H41.5948ZM111.277 123.659V109.2H71.8982V123.659C71.8982 126.223 70.9751 128.402 69.129 130.197C67.3346 131.94 65.2067 132.812 62.7452 132.812H56.208C54.4647 132.812 53.593 133.684 53.593 135.427C53.593 137.17 54.4647 138.042 56.208 138.042H127.12C128.864 138.042 129.736 137.17 129.736 135.427C129.736 133.684 128.864 132.812 127.12 132.812H120.429C117.865 132.812 115.686 131.94 113.892 130.197C112.097 128.402 111.225 126.223 111.277 123.659Z" fill="white" />
  </g>
  <g id="wp" fill="none" transform="scale(0.2222222222222222 0.2222222222222222)">
    <path d="M41.5948 150.501C39.0311 150.501 37.7493 151.809 37.7493 154.424C37.7493 157.039 39.0311 158.347 41.5948 158.347H141.503C144.118 158.347 145.425 157.039 145.425 154.424C145.425 151.809 144.118 150.501 141.503 150.501H41.5948ZM41.6718 146.579H141.503C146.784 146.579 149.425 149.194 149.425 154.424C149.425 159.705 146.784 162.346 141.503 162.346H41.6718C36.3905 162.346 33.75 159.705 33.75 154.424C33.75 149.194 36.3905 146.579 41.6718 146.579ZM60.0536 90.126C58.3104 90.126 57.4386 90.9979 57.4386 92.7411C57.4386 94.4843 58.3104 95.3561 60.0536 95.3561H123.121C124.864 95.3561 125.736 94.4843 125.736 92.7411C125.736 90.9979 124.864 90.126 123.121 90.126H60.0536ZM60.1307 86.2037H123.121C127.531 86.2037 129.736 88.3828 129.736 92.7411C129.736 97.1505 127.531 99.3555 123.121 99.3555H60.1307C55.7722 99.3555 53.5931 97.1505 53.5931 92.7411C53.5931 88.3828 55.7722 86.2037 60.1307 86.2037ZM111.277 122.967V108.508H71.8982V122.967C71.8982 125.531 70.9751 127.71 69.129 129.505C67.3346 131.248 65.2067 132.119 62.7458 132.119H56.2082C54.4648 132.119 53.5931 132.991 53.5931 134.735C53.5931 136.478 54.4648 137.35 56.2082 137.35H127.12C128.864 137.35 129.736 136.478 129.736 134.735C129.736 132.991 128.864 132.119 127.12 132.119H120.429C117.865 132.119 115.686 131.248 113.892 129.505C112.097 127.71 111.225 125.531 111.277 122.967ZM115.199 122.967C115.199 126.454 116.943 128.197 120.429 128.197H126.966C131.325 128.197 133.504 130.376 133.504 134.735C133.504 139.145 131.325 141.349 126.966 141.349H56.2082C51.7985 141.349 49.5938 139.145 49.5938 134.735C49.5938 130.376 51.7985 128.197 56.2082 128.197H62.7458C66.1809 128.197 67.8988 126.454 67.8988 122.967V104.586H115.199V122.967ZM91.5874 37.7494C86.1525 37.7494 81.5119 39.6722 77.6661 43.5178C73.872 47.3633 71.9747 51.978 71.9747 57.3621C71.9747 62.7969 73.872 67.437 77.6661 71.2828C81.5119 75.0769 86.1525 76.9742 91.5874 76.9742C96.9711 76.9742 101.586 75.0769 105.432 71.2828C109.277 67.437 111.2 62.7969 111.2 57.3621C111.2 51.978 109.277 47.3633 105.432 43.5178C101.586 39.6722 96.9711 37.7494 91.5874 37.7494ZM91.5874 33.75C98.0477 33.75 103.585 36.083 108.2 40.749C112.866 45.3636 115.199 50.9012 115.199 57.3621C115.199 63.8736 112.866 69.4367 108.2 74.0514C103.585 78.6662 98.0477 80.9736 91.5874 80.9736C85.0753 80.9736 79.5122 78.6662 74.8974 74.0514C70.2827 69.4367 67.9753 63.8736 67.9753 57.3621C67.9753 50.9012 70.2827 45.3636 74.8974 40.749C79.5122 36.083 85.0753 33.75 91.5874 33.75Z" fill="black" />
    <path d="M41.5948 150.501C39.031 150.501 37.7492 151.809 37.7492 154.424C37.7492 157.039 39.031 158.347 41.5948 158.347H141.503C144.118 158.347 145.425 157.039 145.425 154.424C145.425 151.809 144.118 150.501 141.503 150.501H41.5948ZM60.0536 90.126C58.3104 90.126 57.4386 90.9979 57.4386 92.7411C57.4386 94.4843 58.3104 95.3561 60.0536 95.3561H123.121C124.864 95.3561 125.736 94.4843 125.736 92.7411C125.736 90.9979 124.864 90.126 123.121 90.126H60.0536ZM111.277 122.968V108.508H71.8982V122.968C71.8982 125.531 70.9751 127.71 69.129 129.505C67.3346 131.248 65.2067 132.12 62.7452 132.12H56.208C54.4647 132.12 53.593 132.991 53.593 134.735C53.593 136.478 54.4647 137.35 56.208 137.35H127.12C128.864 137.35 129.736 136.478 129.736 134.735C129.736 132.991 128.864 132.12 127.12 132.12H120.429C117.865 132.12 115.686 131.248 113.892 129.505C112.097 127.71 111.225 125.531 111.277 122.968ZM91.5874 37.7495C86.1519 37.7495 81.5119 39.6722 77.6661 43.5178C73.872 47.3634 71.9747 51.9781 71.9747 57.3621C71.9747 62.797 73.872 67.437 77.6661 71.2828C81.5119 75.0769 86.1519 76.9742 91.5874 76.9742C96.9711 76.9742 101.586 75.0769 105.431 71.2828C109.277 67.437 111.2 62.797 111.2 57.3621C111.2 51.9781 109.277 47.3634 105.431 43.5178C101.586 39.6722 96.9711 37.7495 91.5874 37.7495Z" fill="white" />
  </g>
  <g id="wq" fill="none" transform="scale(0.2222222222222222 0.2222222222222222)">
    <path d="M46.5172 34.8058C44.6714 34.8058 43.7484 35.7288 43.7484 37.5747C43.7484 39.3693 44.6714 40.2666 46.5172 40.2666C48.3118 40.2666 49.2091 39.3693 49.2091 37.5747C49.2091 35.7288 48.3118 34.8058 46.5172 34.8058ZM131.505 52.5724C131.505 53.4953 129.453 54.9822 125.351 57.033C121.25 59.0844 117.84 62.4426 115.122 67.1085C112.045 63.5709 109.739 60.6482 108.2 58.3408C106.662 56.0334 104.662 54.1106 102.201 52.5724C100.56 50.0599 99.0731 48.4448 97.74 47.7269C96.4069 46.9578 94.6125 45.2658 92.3563 42.6508C90.6131 44.3941 89.0747 45.6247 87.7416 46.3425C86.4596 47.0091 84.4599 48.9063 81.7425 52.034C79.5381 53.7261 77.5896 55.4694 75.8976 57.2642C74.2567 59.0586 71.6417 62.3402 68.0524 67.1085C65.6426 62.4426 62.361 59.1868 58.2075 57.3407C54.0546 55.4437 51.9779 53.9312 51.9779 52.8031V64.1092C51.9779 65.4424 54.0033 67.0314 58.0539 68.8776C62.1557 70.6719 65.5402 73.7741 68.2065 78.1841C71.6929 73.7741 74.5132 70.8514 76.6665 69.4159C78.8715 67.9804 81.2042 66.2884 83.6657 64.3399C85.7166 61.8784 87.075 60.3146 87.7416 59.6481C88.4599 58.9303 89.6389 57.7513 91.2797 56.1103C92.8181 57.7513 94.0995 58.905 95.1255 59.5716C96.2021 60.1864 97.5606 61.4171 99.2014 63.2633C102.586 66.9038 105.329 69.2623 107.431 70.3389C109.533 71.4156 112.046 74.0306 114.968 78.1841C117.071 74.8513 120.66 71.595 125.736 68.4163C130.812 65.2371 132.735 63.6986 131.505 63.8016V52.5724ZM47.3633 44.4967C49.0553 47.5731 52.9265 50.3163 58.977 52.7262C65.0273 55.0848 68.0524 58.1355 68.0524 61.8784C68.0524 58.1355 71.5393 53.7004 78.5126 48.5729C85.5371 43.3943 89.8954 39.2411 91.5874 36.1133C93.2794 39.2411 97.6635 43.3943 104.739 48.5729C111.815 53.7004 115.276 58.1355 115.122 61.8784C114.917 58.1355 117.814 55.0848 123.813 52.7262C129.864 50.3163 133.888 47.4962 135.888 44.2659V66.0319C134.196 69.1594 130.223 72.3898 123.967 75.7226C117.763 79.0042 114.738 82.5165 114.892 86.2594C115.045 82.5165 111.61 78.3118 104.586 73.6459C97.6123 68.9287 93.2794 65.0064 91.5874 61.8784C89.8954 65.0064 85.5624 68.9287 78.5891 73.6459C71.667 78.3118 68.2065 82.5165 68.2065 86.2594C68.2065 82.5165 65.1296 79.0042 58.977 75.7226C52.8752 72.3898 48.9784 69.1594 47.2863 66.0319L47.3633 44.4967ZM91.5874 22.5C95.9456 22.5 98.1248 24.6791 98.1248 29.0375C98.1248 33.3958 95.9456 35.5749 91.5874 35.5749C87.2291 35.5749 85.05 33.3958 85.05 29.0375C85.05 24.6791 87.2291 22.5 91.5874 22.5ZM136.196 30.4219C140.554 30.4219 142.733 32.6267 142.733 37.0362C142.733 41.3945 140.554 43.5737 136.196 43.5737C131.838 43.5737 129.658 41.3945 129.658 37.0362C129.658 32.6267 131.838 30.4219 136.196 30.4219ZM46.3634 30.6526C50.7217 30.6526 52.9009 32.8318 52.9009 37.1901C52.9009 41.5484 50.7217 43.7276 46.3634 43.7276C42.0051 43.7276 39.826 41.5484 39.826 37.1901C39.826 32.8318 42.0051 30.6526 46.3634 30.6526ZM91.5874 26.2686C89.7412 26.2686 88.8187 27.1916 88.8187 29.0375C88.8187 30.8833 89.7412 31.8063 91.5874 31.8063C93.4329 31.8063 94.356 30.8833 94.356 29.0375C94.356 27.1916 93.4329 26.2686 91.5874 26.2686ZM136.119 34.2674C134.273 34.2674 133.35 35.1904 133.35 37.0362C133.35 38.8821 134.273 39.8051 136.119 39.8051C137.965 39.8051 138.888 38.8821 138.888 37.0362C138.888 35.1904 137.965 34.2674 136.119 34.2674ZM41.5949 153.634C39.0312 153.634 37.7493 154.941 37.7493 157.556C37.7493 160.171 39.0312 161.479 41.5949 161.479H141.503C144.118 161.479 145.425 160.171 145.425 157.556C145.425 154.941 144.118 153.634 141.503 153.634H41.5949ZM41.6719 149.712H141.503C146.784 149.712 149.425 152.327 149.425 157.556C149.425 162.838 146.784 165.478 141.503 165.478H41.6719C36.3907 165.478 33.75 162.838 33.75 157.556C33.75 152.327 36.3907 149.712 41.6719 149.712ZM60.0536 93.2586C58.3104 93.2586 57.4386 94.1299 57.4386 95.8736C57.4386 97.6168 58.3104 98.4887 60.0536 98.4887H123.121C124.864 98.4887 125.736 97.6168 125.736 95.8736C125.736 94.1299 124.864 93.2586 123.121 93.2586H60.0536ZM60.1307 89.3362H123.121C127.531 89.3362 129.736 91.5154 129.736 95.8736C129.736 100.283 127.531 102.488 123.121 102.488H60.1307C55.7723 102.488 53.5931 100.283 53.5931 95.8736C53.5931 91.5154 55.7723 89.3362 60.1307 89.3362ZM111.277 126.1V111.641H71.8982V126.1C71.8982 128.663 70.9751 130.843 69.129 132.637C67.3346 134.381 65.2067 135.252 62.7458 135.252H56.2082C54.4648 135.252 53.5931 136.124 53.5931 137.867C53.5931 139.61 54.4648 140.482 56.2082 140.482H127.12C128.864 140.482 129.736 139.61 129.736 137.867C129.736 136.124 128.864 135.252 127.12 135.252H120.429C117.866 135.252 115.686 134.381 113.892 132.637C112.097 130.843 111.225 128.663 111.277 126.1ZM115.199 126.1C115.199 129.586 116.943 131.33 120.429 131.33H126.966C131.325 131.33 133.504 133.509 133.504 137.867C133.504 142.277 131.325 144.482 126.966 144.482H56.2082C51.7985 144.482 49.5938 142.277 49.5938 137.867C49.5938 133.509 51.7985 131.33 56.2082 131.33H62.7458C66.1809 131.33 67.8988 129.586 67.8988 126.1V107.718H115.199V126.1Z" fill="black" />
    <path d="M46.5171 34.8058C44.6712 34.8058 43.7482 35.7288 43.7482 37.5746C43.7482 39.3693 44.6712 40.2665 46.5171 40.2665C48.3116 40.2665 49.209 39.3693 49.209 37.5746C49.209 35.7288 48.3116 34.8058 46.5171 34.8058ZM131.504 52.5724C131.504 53.4953 129.453 54.9822 125.351 57.033C121.249 59.0844 117.84 62.4426 115.122 67.1085C112.045 63.5709 109.738 60.6482 108.2 58.3408C106.662 56.0334 104.662 54.1106 102.201 52.5724C100.56 50.0599 99.0731 48.4448 97.7399 47.727C96.4068 46.9578 94.6124 45.2658 92.3562 42.6508C90.6131 44.3941 89.0746 45.6247 87.7415 46.3425C86.4596 47.0091 84.4599 48.9062 81.7424 52.034C79.5374 53.726 77.5895 55.4694 75.8969 57.2642C74.2567 59.0586 71.6416 62.3402 68.0523 67.1085C65.6426 62.4426 62.3609 59.1868 58.2074 57.3407C54.0543 55.4437 51.9778 53.9312 51.9778 52.8031V64.1093C51.9778 65.4424 54.0031 67.0314 58.0539 68.8776C62.1556 70.6719 65.5396 73.7741 68.2059 78.1841C71.6928 73.7741 74.5126 70.8514 76.6664 69.4159C78.8709 67.9804 81.2041 66.2884 83.6651 64.3399C85.7159 61.8784 87.0749 60.3146 87.7415 59.6481C88.4593 58.9303 89.6388 57.7513 91.2796 56.1103C92.8175 57.7513 94.0994 58.905 95.1249 59.5716C96.2021 60.1864 97.5605 61.4171 99.2013 63.2633C102.585 66.9038 105.329 69.2623 107.431 70.3389C109.533 71.4156 112.045 74.0306 114.968 78.1841C117.07 74.8513 120.66 71.595 125.736 68.4163C130.812 65.2371 132.735 63.6986 131.504 63.8016V52.5724ZM91.5873 26.2686C89.7412 26.2686 88.8181 27.1916 88.8181 29.0375C88.8181 30.8833 89.7412 31.8063 91.5873 31.8063C93.4329 31.8063 94.3559 30.8833 94.3559 29.0375C94.3559 27.1916 93.4329 26.2686 91.5873 26.2686ZM136.119 34.2675C134.273 34.2675 133.35 35.1904 133.35 37.0362C133.35 38.8821 134.273 39.8051 136.119 39.8051C137.965 39.8051 138.887 38.8821 138.887 37.0362C138.887 35.1904 137.965 34.2675 136.119 34.2675ZM41.5947 153.634C39.031 153.634 37.7491 154.941 37.7491 157.556C37.7491 160.171 39.031 161.479 41.5947 161.479H141.502C144.118 161.479 145.425 160.171 145.425 157.556C145.425 154.941 144.118 153.634 141.502 153.634H41.5947ZM60.0536 93.2586C58.3104 93.2586 57.4385 94.1305 57.4385 95.8736C57.4385 97.6168 58.3104 98.4887 60.0536 98.4887H123.121C124.864 98.4887 125.736 97.6168 125.736 95.8736C125.736 94.1305 124.864 93.2586 123.121 93.2586H60.0536ZM111.276 126.1V111.641H71.8981V126.1C71.8981 128.663 70.9751 130.843 69.1289 132.637C67.3346 134.381 65.2066 135.252 62.7451 135.252H56.2079C54.4646 135.252 53.5929 136.124 53.5929 137.867C53.5929 139.61 54.4646 140.482 56.2079 140.482H127.12C128.864 140.482 129.736 139.61 129.736 137.867C129.736 136.124 128.864 135.252 127.12 135.252H120.429C117.865 135.252 115.686 134.381 113.892 132.637C112.097 130.843 111.225 128.663 111.276 126.1Z" fill="white" />
  </g>
  <g id="wr" fill="none" transform="scale(0.2222222222222222 0.2222222222222222)">
    <path d="M91.6644 80.379L115.122 80.4561C119.326 79.4818 122.762 75.8413 125.429 69.5346C128.146 63.2278 129.479 56.3828 129.428 48.9994H121.89V64.6127H98.2789V48.9994H91.6644L85.05 48.9224V64.6121H61.3614V48.9224H53.8239C53.7726 56.3057 55.0801 63.1766 57.7462 69.5346C60.4637 75.8413 63.9506 79.4565 68.2065 80.379H91.6644ZM91.5874 84.3784L65.8991 84.4554C55.1826 78.9182 49.7475 65.7658 49.5937 45H65.3608V60.7669H81.0506V45H91.6644H102.201V60.7669H117.968V45H133.658C133.453 65.8688 128.146 78.9947 117.737 84.3784H91.5874ZM41.5949 153.907C39.0312 153.907 37.7493 155.214 37.7493 157.829C37.7493 160.444 39.0312 161.751 41.5949 161.751H141.503C144.118 161.751 145.425 160.444 145.425 157.829C145.425 155.214 144.118 153.907 141.503 153.907H41.5949ZM41.6719 149.984H141.503C146.784 149.984 149.425 152.599 149.425 157.829C149.425 163.11 146.784 165.751 141.503 165.751H41.6719C36.3907 165.751 33.75 163.11 33.75 157.829C33.75 152.599 36.3907 149.984 41.6719 149.984ZM60.0536 93.5308C58.3104 93.5308 57.4386 94.4027 57.4386 96.1459C57.4386 97.8896 58.3104 98.7609 60.0536 98.7609H123.121C124.864 98.7609 125.736 97.8896 125.736 96.1459C125.736 94.4027 124.864 93.5308 123.121 93.5308H60.0536ZM60.1307 89.6085H123.121C127.531 89.6085 129.736 91.7876 129.736 96.1459C129.736 100.556 127.531 102.76 123.121 102.76H60.1307C55.7724 102.76 53.5932 100.556 53.5932 96.1459C53.5932 91.7876 55.7724 89.6085 60.1307 89.6085ZM111.277 126.372V111.913H71.8982V126.372C71.8982 128.936 70.9751 131.115 69.1296 132.91C67.3346 134.653 65.2067 135.525 62.7458 135.525H56.2082C54.4648 135.525 53.5932 136.396 53.5932 138.14C53.5932 139.883 54.4648 140.755 56.2082 140.755H127.12C128.864 140.755 129.736 139.883 129.736 138.14C129.736 136.396 128.864 135.525 127.12 135.525H120.429C117.866 135.525 115.687 134.653 113.892 132.91C112.097 131.115 111.225 128.936 111.277 126.372ZM115.199 126.372C115.199 129.859 116.943 131.602 120.429 131.602H126.967C131.325 131.602 133.504 133.782 133.504 138.14C133.504 142.549 131.325 144.754 126.967 144.754H56.2082C51.7986 144.754 49.5938 142.549 49.5938 138.14C49.5938 133.782 51.7986 131.602 56.2082 131.602H62.7458C66.1809 131.602 67.8988 129.859 67.8988 126.372V107.99H115.199V126.372Z" fill="black" />
    <path d="M91.6639 80.379L115.122 80.4561C119.326 79.4818 122.762 75.8413 125.429 69.5346C128.146 63.2278 129.479 56.3828 129.428 48.9993H121.89V64.6121H98.2783V48.9993H91.6639L85.05 48.9224V64.6121H61.3609V48.9224H53.8237C53.7724 56.3057 55.0799 63.1766 57.7462 69.5346C60.4637 75.8413 63.9506 79.4565 68.2059 80.379H91.6639ZM41.5948 153.906C39.031 153.906 37.7492 155.214 37.7492 157.829C37.7492 160.444 39.031 161.751 41.5948 161.751H141.503C144.118 161.751 145.425 160.444 145.425 157.829C145.425 155.214 144.118 153.906 141.503 153.906H41.5948ZM60.0536 93.5308C58.3104 93.5308 57.4386 94.4027 57.4386 96.1459C57.4386 97.8891 58.3104 98.7609 60.0536 98.7609H123.121C124.864 98.7609 125.736 97.8891 125.736 96.1459C125.736 94.4027 124.864 93.5308 123.121 93.5308H60.0536ZM111.277 126.372V111.913H71.8982V126.372C71.8982 128.936 70.9751 131.115 69.129 132.91C67.3346 134.653 65.2067 135.525 62.7458 135.525H56.208C54.4647 135.525 53.593 136.396 53.593 138.14C53.593 139.883 54.4647 140.754 56.208 140.754H127.12C128.864 140.754 129.736 139.883 129.736 138.14C129.736 136.396 128.864 135.525 127.12 135.525H120.429C117.865 135.525 115.686 134.653 113.892 132.91C112.097 131.115 111.225 128.936 111.277 126.372Z" fill="white" />
  </g>
</svg>