<svg xmlns="http://www.w3.org/2000/svg" width="40" height="40" viewbox="0.0 0.0 32.0 32.0">
  <g id="bb" fill="none" transform="scale(1.25 1.25)">
    <path d="M16.7168 13.9113C16.2913 14.3267 16.2862 14.737 16.7016 15.1423C17.0866 15.5577 17.5222 15.5425 18.0085 15.0967L20.9871 11.7382C21.1897 11.9307 21.3316 12.108 21.4126 12.2701C21.4936 12.4322 21.6102 12.6348 21.7621 12.878C22.0458 13.3339 22.3194 13.8404 22.5828 14.3976C22.8462 14.965 23.0488 15.507 23.1906 16.0237C23.0995 17.0976 22.7651 18.1513 22.1877 19.1847C21.6102 20.218 20.8655 21.0539 19.9537 21.6921L22.6891 21.7225C23.2666 21.7225 23.758 21.9302 24.1633 22.3456C24.5685 22.7509 24.7711 23.2372 24.7711 23.8045V23.8197C24.7711 24.0831 24.6799 24.4174 24.4976 24.8227H25.303C26.0122 24.8227 26.6201 25.081 27.1266 25.5977C27.6433 26.1043 27.9017 26.7122 27.9017 27.4214C27.9017 28.1407 27.6433 28.7536 27.1266 29.2602C26.6201 29.7667 26.0122 30.02 25.303 30.02H7.61386C6.88441 30.02 6.26641 29.7667 5.75984 29.2602C5.25328 28.7536 5 28.1407 5 27.4214C5 26.7122 5.25328 26.1043 5.75984 25.5977C6.26641 25.081 6.88441 24.8227 7.61386 24.8227H8.46489C8.25213 24.5694 8.14575 24.2351 8.14575 23.8197V23.8045C8.14575 23.2372 8.34837 22.7509 8.75362 22.3456C9.15887 21.9302 9.65024 21.7225 10.2277 21.7225H12.8872C11.9348 21.1451 11.1699 20.3548 10.5924 19.3518C10.015 18.3488 9.73129 17.2395 9.74142 16.0237C10.3392 14.1292 11.0939 12.4879 12.0057 11.0999C12.9277 9.70182 13.566 8.77481 13.9206 8.3189C14.0523 7.91365 14.2903 7.60465 14.6348 7.39189C14.108 6.94612 13.8446 6.35344 13.8446 5.61386C13.8446 4.89454 14.0979 4.2816 14.6044 3.77504C15.111 3.25835 15.729 3 16.4584 3C17.1676 3 17.7755 3.25835 18.2821 3.77504C18.7988 4.2816 19.0571 4.89454 19.0571 5.61386C19.0571 6.27239 18.8089 6.92079 18.3124 7.55906C18.5151 7.96431 18.6367 8.20239 18.6772 8.27331C18.9912 8.71909 19.4016 9.42828 19.9081 10.4009L16.7168 13.9113ZM17.8565 8.41008L17.3247 7.3463C17.1119 7.52866 16.8232 7.61984 16.4584 7.61984C16.1646 7.61984 15.9012 7.54386 15.6682 7.39189L14.9995 8.41008C15.4656 8.68363 15.9519 8.8204 16.4584 8.8204C16.9853 8.8204 17.4513 8.68363 17.8565 8.41008ZM13.8446 21.1299C13.5001 21.1299 13.3279 21.3173 13.3279 21.6921C13.3279 22.0771 13.5001 22.2696 13.8446 22.2696H19.0723C19.4168 22.2696 19.589 22.0771 19.589 21.6921C19.589 21.3173 19.4168 21.1299 19.0723 21.1299H13.8446ZM9.72622 24.5947C9.39189 24.5947 9.22473 24.7822 9.22473 25.157C9.22473 25.5319 9.39189 25.7193 9.72622 25.7193H23.1754C23.5199 25.7193 23.6921 25.5319 23.6921 25.157C23.6921 24.7822 23.5199 24.5947 23.1754 24.5947H9.72622Z" fill="#402218" />
    <path d="M17.8565 8.41011L17.3247 7.34633C17.1119 7.52869 16.8232 7.61987 16.4584 7.61987C16.1646 7.61987 15.9012 7.54389 15.6682 7.39192L14.9995 8.41011C15.4656 8.68365 15.9519 8.82042 16.4584 8.82042C16.9853 8.82042 17.4513 8.68365 17.8565 8.41011ZM13.8446 21.1299C13.5001 21.1299 13.3279 21.3173 13.3279 21.6922C13.3279 22.0772 13.5001 22.2696 13.8446 22.2696H19.0723C19.4168 22.2696 19.589 22.0772 19.589 21.6922C19.589 21.3173 19.4168 21.1299 19.0723 21.1299H16.4584H13.8446ZM9.72622 24.5948C9.39189 24.5948 9.22473 24.7822 9.22473 25.1571C9.22473 25.5319 9.39189 25.7193 9.72622 25.7193H23.1754C23.5199 25.7193 23.6921 25.5319 23.6921 25.1571C23.6921 24.7822 23.5199 24.5948 23.1754 24.5948H9.72622Z" fill="#C68B59" />
  </g>
  <g id="bk" fill="none" transform="scale(1.25 1.25)">
    <path d="M18.8899 19.5798L16.5192 18.3792L14.0877 19.5798L16.5192 20.7651L18.8899 19.5798ZM10.8356 20.6588L12.9784 19.5798L10.6076 18.3792L10.1365 18.6224L10.8356 20.6588ZM22.2332 20.6892L22.8867 18.6984L22.4308 18.3792L19.9993 19.5798L22.2332 20.6892ZM11.2459 21.7073C10.9014 21.7073 10.7292 21.8796 10.7292 22.224C10.7292 22.5685 10.9014 22.7407 11.2459 22.7407H21.671C22.0154 22.7407 22.1877 22.5685 22.1877 22.224C22.1877 21.8796 22.0154 21.7073 21.671 21.7073H11.2459ZM9.19433 24.7771C8.84987 24.7771 8.67764 24.9595 8.67764 25.3242C8.67764 25.6991 8.84987 25.8865 9.19433 25.8865H23.7225C24.067 25.8865 24.2392 25.6991 24.2392 25.3242C24.2392 24.9595 24.067 24.7771 23.7225 24.7771H9.19433ZM14.3765 10.2641C14.032 10.2641 13.8598 10.4363 13.8598 10.7808C13.8598 11.1253 14.032 11.2975 14.3765 11.2975H18.5404C18.8747 11.2975 19.0419 11.1253 19.0419 10.7808C19.0419 10.4363 18.8747 10.2641 18.5404 10.2641H14.3765ZM13.8598 6.66244V4.58047L15.6682 4.83882L15.425 3H17.4766L17.2335 4.83882L19.0419 4.58047V6.66244L17.2335 6.3889V8.25812H15.6682V6.3889L13.8598 6.66244ZM8.4041 24.7619C8.22173 24.4478 8.13055 24.1186 8.13055 23.7741C8.13055 23.2169 8.33318 22.7407 8.73843 22.3456C9.14368 21.9404 9.63504 21.7529 10.2125 21.7833C9.65531 19.9293 9.20447 18.6274 8.86 17.8777C8.51554 17.128 7.94819 16.3277 7.15796 15.4766C6.50956 14.7472 5.9878 14.195 5.59268 13.8202C5.19756 13.4352 5 12.959 5 12.3917V12.3765C5 11.8193 5.19756 11.338 5.59268 10.9328C5.99793 10.5275 6.48929 10.3249 7.06677 10.3249H13.5862C13.414 10.1223 13.3279 9.9399 13.3279 9.7778C13.3279 8.76468 13.8344 8.25812 14.8476 8.25812H18.0693C19.0824 8.25812 19.589 8.76468 19.589 9.7778C19.589 9.95004 19.4978 10.1324 19.3154 10.3249H25.8501C26.4073 10.3249 26.8886 10.5275 27.2938 10.9328C27.6991 11.338 27.9017 11.8193 27.9017 12.3765V12.3917C27.9017 12.959 27.6889 13.4251 27.2634 13.7898C26.848 14.1444 26.306 14.6864 25.6373 15.4158C24.9079 16.3175 24.3608 17.1635 23.9961 17.9537C23.6314 18.744 23.2058 20.0205 22.7195 21.7833C23.2768 21.7529 23.758 21.9404 24.1632 22.3456C24.5685 22.7407 24.7711 23.2169 24.7711 23.7741C24.7711 24.1186 24.6951 24.4478 24.5432 24.7619H25.303C26.0122 24.7619 26.6201 25.0203 27.1266 25.537C27.6433 26.0435 27.9017 26.6514 27.9017 27.3606C27.9017 28.0799 27.6433 28.6928 27.1266 29.1994C26.6201 29.706 26.0122 29.9592 25.303 29.9592H7.61386C6.88441 29.9592 6.26641 29.706 5.75984 29.1994C5.25328 28.6928 5 28.0799 5 27.3606C5 26.6514 5.25328 26.0435 5.75984 25.537C6.26641 25.0203 6.88441 24.7619 7.61386 24.7619H8.4041ZM9.72622 16.51C9.39189 16.51 9.22473 16.6822 9.22473 17.0267C9.22473 17.3712 9.39189 17.5434 9.72622 17.5434H23.1755C23.5199 17.5434 23.6921 17.3712 23.6921 17.0267C23.6921 16.6822 23.5199 16.51 23.1755 16.51H9.72622Z" fill="#402218" />
    <path d="M18.8899 19.5798L16.5192 18.3792L14.0877 19.5798L16.5192 20.7651L18.8899 19.5798ZM10.8356 20.6588L12.9783 19.5798L10.6076 18.3792L10.1365 18.6224L10.8356 20.6588ZM22.2332 20.6892L22.8867 18.6984L22.4308 18.3792L19.9993 19.5798L22.2332 20.6892ZM11.2459 21.7073C10.9014 21.7073 10.7292 21.8796 10.7292 22.224C10.7292 22.5685 10.9014 22.7407 11.2459 22.7407H21.6709C22.0154 22.7407 22.1876 22.5685 22.1876 22.224C22.1876 21.8796 22.0154 21.7073 21.6709 21.7073H11.2459ZM9.1943 24.7771C8.84984 24.7771 8.67761 24.9595 8.67761 25.3242C8.67761 25.6991 8.84984 25.8865 9.1943 25.8865H23.7225C24.067 25.8865 24.2392 25.6991 24.2392 25.3242C24.2392 24.9595 24.067 24.7771 23.7225 24.7771H9.1943ZM14.3764 10.2641C14.032 10.2641 13.8597 10.4363 13.8597 10.7808C13.8597 11.1253 14.032 11.2975 14.3764 11.2975H18.5404C18.8747 11.2975 19.0419 11.1253 19.0419 10.7808C19.0419 10.4363 18.8747 10.2641 18.5404 10.2641H14.3764ZM9.72619 16.51C9.39186 16.51 9.2247 16.6822 9.2247 17.0267C9.2247 17.3712 9.39186 17.5434 9.72619 17.5434H23.1754C23.5199 17.5434 23.6921 17.3712 23.6921 17.0267C23.6921 16.6822 23.5199 16.51 23.1754 16.51H9.72619Z" fill="#C68B59" />
  </g>
  <g id="bn" fill="none" transform="scale(1.25 1.25)">
    <path d="M13.495 19.6862C13.7584 19.7773 14.0523 19.8432 14.3765 19.8837C14.7108 19.9242 14.9691 19.8077 15.1515 19.5342C14.9084 19.0175 14.7817 18.4096 14.7716 17.7106C14.7614 17.0014 14.9843 16.2973 15.4402 15.5982C15.5416 15.4158 15.6935 15.1778 15.8961 14.8839C16.0988 14.58 16.2558 14.3673 16.3673 14.2457C16.3673 13.7594 16.2001 13.577 15.8658 13.6986C15.5314 13.8202 15.4656 13.81 15.6682 13.6682C15.2022 14.0633 14.7463 14.6104 14.3005 15.3095C13.6926 16.2415 13.3026 17.0571 13.1303 17.7562C12.9682 18.4451 13.0898 19.0884 13.495 19.6862ZM13.4191 6.92079C12.6592 7.3463 12.3907 7.74142 12.6136 8.10615C12.8163 8.47087 13.2924 8.43541 14.0421 7.99977C14.7817 7.56413 15.0553 7.16394 14.8628 6.79922C14.6399 6.43449 14.1586 6.47502 13.4191 6.92079ZM11.1851 20.8715C10.8407 20.8715 10.6684 21.0589 10.6684 21.4338C10.6684 21.8087 10.8407 21.9961 11.1851 21.9961H21.6102C21.9546 21.9961 22.1269 21.8087 22.1269 21.4338C22.1269 21.0589 21.9546 20.8715 21.6102 20.8715H11.1851ZM9.16394 24.5795C8.79922 24.5795 8.61686 24.7822 8.61686 25.1874C8.61686 25.5825 8.79922 25.7801 9.16394 25.7801H23.6314C23.9961 25.7801 24.1784 25.5825 24.1784 25.1874C24.1784 24.7822 23.9961 24.5795 23.6314 24.5795H9.16394ZM22.7651 21.7833C23.2413 21.8542 23.682 22.0771 24.0873 22.452C24.5027 22.8167 24.7103 23.2777 24.7103 23.8349C24.7103 24.1794 24.6344 24.5086 24.4824 24.8227H25.1814C25.9008 24.8227 26.5137 25.081 27.0203 25.5977C27.537 26.1043 27.7953 26.7122 27.7953 27.4214C27.7953 28.1407 27.537 28.7536 27.0203 29.2602C26.5137 29.7667 25.9008 30.02 25.1814 30.02H7.59867C6.87935 30.02 6.26642 29.7667 5.75985 29.2602C5.25329 28.7536 5 28.1407 5 27.4214C5 26.7122 5.25329 26.1043 5.75985 25.5977C6.26642 25.081 6.87935 24.8227 7.59867 24.8227H8.31292C8.15083 24.4884 8.06977 24.1591 8.06977 23.8349C8.06977 23.2777 8.2724 22.7914 8.67765 22.376C9.09303 21.9606 9.60466 21.7225 10.2125 21.6618C10.1619 20.7195 10.1467 19.7773 10.167 18.8351C10.1872 17.8929 10.3442 16.9811 10.6381 16.0997C11.2155 14.8738 11.8184 13.9823 12.4465 13.425C13.0746 12.8678 13.799 12.4525 14.6196 12.1789C13.9408 12.1485 13.5559 12.1282 13.4647 12.1181C13.3836 12.108 13.1 11.9662 12.6137 11.6926C12.1273 11.5609 11.8031 11.49 11.641 11.4798C11.4789 11.4697 11.0484 11.571 10.3493 11.7838C9.58947 11.9054 9.02719 11.9459 8.66247 11.9054C8.29774 11.8648 8.10524 11.5001 8.08498 10.8112C7.78105 10.3857 7.46191 9.92977 7.12758 9.44347C6.80338 8.94704 6.94015 8.35436 7.53788 7.66544C9.14876 7.15888 10.3139 6.88027 11.0332 6.82961C11.7626 6.77895 12.5225 6.3737 13.3127 5.61386C14.3157 5.4011 15.0249 5.13263 15.4403 4.80843C15.8556 4.4741 16.0633 3.87129 16.0633 3C16.6104 3.11144 17.0917 3.35459 17.507 3.72945C17.9224 4.09417 18.1301 4.57541 18.1301 5.17315C19.2547 5.4467 20.0044 5.78103 20.3792 6.17614C20.7642 6.56113 21.2353 6.98665 21.7925 7.45268C22.4916 8.37463 22.8513 9.18006 22.8715 9.86898C22.9019 10.5579 22.8665 11.2519 22.7652 11.951C22.4511 12.6297 22.132 13.2629 21.8078 13.8506C21.4836 14.428 21.2404 15.1727 21.0783 16.0845C21.0783 16.9659 21.2151 17.7612 21.4886 18.4704C21.7622 19.1796 22.1218 19.828 22.5676 20.4156L22.7651 21.7833ZM15.4251 12.498C15.5466 12.498 15.6581 12.5082 15.7594 12.5284C15.8607 12.5386 16.0177 12.5284 16.2305 12.498C16.9599 12.3967 17.5627 12.1029 18.0389 11.6166C18.5252 11.1303 18.6974 10.7453 18.5556 10.4617C18.4948 10.0868 18.2365 9.89938 17.7806 9.89938C17.6083 10.8922 17.0207 11.4697 16.0177 11.6318C15.8556 11.6622 15.729 11.6875 15.6378 11.7078C15.5466 11.7281 15.4048 11.7686 15.2123 11.8294C14.7564 12.1333 14.8273 12.3562 15.4251 12.498Z" fill="#402218" />
    <path d="M13.495 19.6861C13.7584 19.7773 14.0522 19.8432 14.3764 19.8837C14.7108 19.9242 14.9691 19.8077 15.1515 19.5342C14.9083 19.0175 14.7817 18.4096 14.7715 17.7105C14.7614 17.0014 14.9843 16.2972 15.4402 15.5982C15.5415 15.4158 15.6935 15.1777 15.8961 14.8839C16.0987 14.58 16.2558 14.3672 16.3672 14.2457C16.3672 13.7594 16.2 13.577 15.8657 13.6986C15.5314 13.8202 15.4655 13.81 15.6682 13.6682C15.2021 14.0633 14.7462 14.6104 14.3004 15.3094C13.6926 16.2415 13.3025 17.0571 13.1303 17.7561C12.9682 18.4451 13.0898 19.0884 13.495 19.6861ZM13.419 6.92077C12.6592 7.34629 12.3907 7.7414 12.6136 8.10613C12.8162 8.47085 13.2924 8.43539 14.0421 7.99975C14.7817 7.56411 15.0552 7.16392 14.8627 6.7992C14.6398 6.43447 14.1586 6.475 13.419 6.92077ZM11.1851 20.8715C10.8406 20.8715 10.6684 21.0589 10.6684 21.4338C10.6684 21.8086 10.8406 21.9961 11.1851 21.9961H21.6101C21.9546 21.9961 22.1268 21.8086 22.1268 21.4338C22.1268 21.0589 21.9546 20.8715 21.6101 20.8715H11.1851ZM9.1639 24.5795C8.79918 24.5795 8.61682 24.7822 8.61682 25.1874C8.61682 25.5825 8.79918 25.7801 9.1639 25.7801H23.6313C23.9961 25.7801 24.1784 25.5825 24.1784 25.1874C24.1784 24.7822 23.9961 24.5795 23.6313 24.5795H9.1639ZM15.425 12.498C15.5466 12.498 15.658 12.5082 15.7593 12.5284C15.8607 12.5385 16.0177 12.5284 16.2305 12.498C16.9599 12.3967 17.5627 12.1029 18.0389 11.6166C18.5252 11.1303 18.6974 10.7453 18.5556 10.4616C18.4948 10.0868 18.2364 9.89936 17.7805 9.89936C17.6083 10.8922 17.0207 11.4697 16.0177 11.6318C15.8556 11.6622 15.729 11.6875 15.6378 11.7078C15.5466 11.728 15.4048 11.7686 15.2123 11.8294C14.7564 12.1333 14.8273 12.3562 15.425 12.498Z" fill="#C68B59" />
  </g>
  <g id="bp" fill="none" transform="scale(1.25 1.25)">
    <path d="M16.1179 13.2502C15.3964 13.2502 14.7832 13.3043 14.2782 13.4125C13.7733 13.5117 13.5208 13.6335 13.5208 13.7778C13.5208 13.9311 13.7733 14.0573 14.2782 14.1565C14.7832 14.2557 15.3964 14.3053 16.1179 14.3053C16.8212 14.3053 17.4299 14.2557 17.9439 14.1565C18.4579 14.0573 18.715 13.9311 18.715 13.7778C18.715 13.6335 18.4579 13.5117 17.9439 13.4125C17.4299 13.3043 16.8212 13.2502 16.1179 13.2502ZM19.9053 17.1053C19.9684 19.4318 20.3742 21.4022 21.1227 23.0164C21.8711 24.6215 22.7368 25.4241 23.7198 25.4241H24.0714C24.7027 25.4241 25.2437 25.654 25.6946 26.1139C26.1545 26.5648 26.3845 27.1059 26.3845 27.7371C26.3845 28.3774 26.1545 28.923 25.6946 29.3738C25.2437 29.8247 24.7027 30.0502 24.0714 30.0502H8.32657C7.6773 30.0502 7.12721 29.8247 6.67633 29.3738C6.22544 28.923 6 28.3774 6 27.7371C6 27.1059 6.22544 26.5648 6.67633 26.1139C7.12721 25.654 7.6773 25.4241 8.32657 25.4241H8.71884C9.6747 25.4241 10.5269 24.6215 11.2753 23.0164C12.0328 21.4022 12.4567 19.4318 12.5469 17.1053H10.6261C10.1121 17.1053 9.6747 16.9294 9.314 16.5777C8.96231 16.2261 8.78647 15.7932 8.78647 15.2792C8.78647 14.7742 8.96231 14.3414 9.314 13.9807C9.6747 13.6199 10.1121 13.4396 10.6261 13.4396H13.5343C12.5063 12.61 11.9923 11.5324 11.9923 10.2068C11.9923 9.05249 12.4026 8.06505 13.2232 7.24444C14.0438 6.41481 15.0357 6 16.199 6C17.3533 6 18.3407 6.41481 19.1613 7.24444C19.9819 8.06505 20.3922 9.05249 20.3922 10.2068C20.3922 11.5233 19.8872 12.6009 18.8773 13.4396H21.7719C22.2679 13.4396 22.6963 13.6199 23.057 13.9807C23.4177 14.3414 23.598 14.7742 23.598 15.2792C23.598 15.7932 23.4177 16.2261 23.057 16.5777C22.6963 16.9294 22.2679 17.1053 21.7719 17.1053H19.9053ZM13.4396 16.9024C13.133 16.9024 12.9797 17.0737 12.9797 17.4164C12.9797 17.75 13.133 17.9169 13.4396 17.9169H18.9584C19.265 17.9169 19.4183 17.75 19.4183 17.4164C19.4183 17.0737 19.265 16.9024 18.9584 16.9024H13.4396ZM10.6667 24.9371C10.351 24.9371 10.1932 25.113 10.1932 25.4647C10.1932 25.8164 10.351 25.9922 10.6667 25.9922H21.7314C22.047 25.9922 22.2048 25.8164 22.2048 25.4647C22.2048 25.113 22.047 24.9371 21.7314 24.9371H10.6667Z" fill="#402218" />
    <path d="M16.1178 13.2502C15.3964 13.2502 14.7832 13.3043 14.2782 13.4125C13.7732 13.5117 13.5207 13.6335 13.5207 13.7777C13.5207 13.931 13.7732 14.0573 14.2782 14.1565C14.7832 14.2557 15.3964 14.3053 16.1178 14.3053C16.8212 14.3053 17.4299 14.2557 17.9439 14.1565C18.4579 14.0573 18.7149 13.931 18.7149 13.7777C18.7149 13.6335 18.4579 13.5117 17.9439 13.4125C17.4299 13.3043 16.8212 13.2502 16.1178 13.2502ZM13.4395 16.9024C13.1329 16.9024 12.9796 17.0737 12.9796 17.4164C12.9796 17.75 13.1329 17.9169 13.4395 17.9169H18.9584C19.265 17.9169 19.4183 17.75 19.4183 17.4164C19.4183 17.0737 19.265 16.9024 18.9584 16.9024H13.4395ZM10.6666 24.9371C10.351 24.9371 10.1932 25.113 10.1932 25.4647C10.1932 25.8163 10.351 25.9922 10.6666 25.9922H21.7313C22.0469 25.9922 22.2047 25.8163 22.2047 25.4647C22.2047 25.113 22.0469 24.9371 21.7313 24.9371H10.6666Z" fill="#C68B59" />
  </g>
  <g id="bq" fill="none" transform="scale(1.25 1.25)">
    <path d="M12.2823 11.2337L12.0847 12.4191C12.5001 12.4697 12.8699 12.495 13.1941 12.495C14.5112 12.495 15.5142 12.0594 16.2031 11.1881C16.507 11.5832 16.9224 11.8821 17.4492 12.0847C17.9761 12.2772 18.5586 12.414 19.1969 12.495C19.6021 12.5558 19.9871 12.5406 20.3518 12.4495L20.0935 11.2337C19.3336 11.4262 18.5789 11.3299 17.8291 10.945C17.0794 10.5498 16.5374 10.0534 16.2031 9.45567C15.8485 10.023 15.3267 10.5043 14.6378 10.8994C13.9489 11.2844 13.1637 11.3958 12.2823 11.2337ZM13.9539 15.0329L16.2031 16.2183L18.513 15.0329L16.2031 13.8476L13.9539 15.0329ZM13.9539 17.8899L16.2031 19.0753L18.513 17.8899L16.2031 16.7046L13.9539 17.8899ZM18.4218 16.5982L20.671 17.7684L22.9961 16.5982L20.671 15.3977L18.4218 16.5982ZM9.41008 16.5982L11.6744 17.7684L13.9843 16.5982L11.6744 15.3977L9.41008 16.5982ZM17.9659 7.73843C18.7967 8.07276 19.4755 8.58439 20.0023 9.27331C20.5291 9.96224 20.7976 10.7373 20.8077 11.5984C21.2738 11.4465 21.6689 11.2084 21.9931 10.8842C22.3173 10.56 22.6314 10.1851 22.9353 9.75961C23.2798 11.0969 24.0396 11.7656 25.2148 11.7656C25.7619 11.7656 26.3394 11.5934 26.9473 11.2489C27.5551 10.9044 28.0414 10.4435 28.4062 9.86599L22.4642 21.2484C23.0011 21.289 23.4773 21.5068 23.8927 21.9019C24.3081 22.2869 24.5158 22.758 24.5158 23.3152C24.5158 23.6293 24.4246 23.9585 24.2422 24.303H25.0477C25.7568 24.303 26.3647 24.5614 26.8713 25.0781C27.388 25.5846 27.6463 26.1925 27.6463 26.9017C27.6463 27.621 27.388 28.2339 26.8713 28.7405C26.3647 29.2471 25.7568 29.5003 25.0477 29.5003H7.35851C6.62906 29.5003 6.01105 29.2471 5.50449 28.7405C4.99793 28.2339 4.74465 27.621 4.74465 26.9017C4.74465 26.1925 4.99793 25.5846 5.50449 25.0781C6.01105 24.5614 6.62906 24.303 7.35851 24.303H8.10315C7.95119 24.1004 7.8752 23.7711 7.8752 23.3152C7.8752 22.758 8.08289 22.2869 8.49827 21.9019C8.91365 21.5068 9.39489 21.294 9.94197 21.2636L4 9.86599C4.86116 11.1324 5.90974 11.7656 7.14575 11.7656C8.34124 11.7656 9.11628 11.102 9.47087 9.77481C10.0078 10.6258 10.7373 11.2286 11.6592 11.5832C11.639 10.7322 11.8872 9.96224 12.4039 9.27331C12.9206 8.58439 13.5943 8.07276 14.425 7.73843C14.0907 7.29265 13.9236 6.80635 13.9236 6.27953C13.9236 5.65139 14.1414 5.11444 14.577 4.66866C15.0228 4.22289 15.5648 4 16.2031 4C16.8312 4 17.3682 4.22289 17.814 4.66866C18.2597 5.11444 18.4826 5.65139 18.4826 6.27953C18.4826 6.81649 18.3104 7.30279 17.9659 7.73843ZM17.8899 8.27032L17.3884 7.44969C17.044 7.75363 16.6489 7.90559 16.2031 7.90559C15.7877 7.90559 15.428 7.76882 15.1241 7.49528L14.4706 8.27032C14.9468 8.71609 15.5243 8.93898 16.2031 8.93898C16.8819 8.93898 17.4442 8.71609 17.8899 8.27032ZM10.7322 20.3518C10.3776 20.3518 10.2003 20.5393 10.2003 20.9141C10.2003 21.289 10.3776 21.4764 10.7322 21.4764H21.674C22.0286 21.4764 22.2058 21.289 22.2058 20.9141C22.2058 20.5393 22.0286 20.3518 21.674 20.3518H10.7322ZM8.98457 24.0599C8.60972 24.0599 8.42229 24.2676 8.42229 24.6829C8.42229 25.1084 8.60972 25.3212 8.98457 25.3212H23.4064C23.7914 25.3212 23.9839 25.1084 23.9839 24.6829C23.9839 24.2676 23.7914 24.0599 23.4064 24.0599H8.98457Z" fill="#402218" />
    <path d="M12.2823 11.2337L12.0847 12.4191C12.5001 12.4697 12.8699 12.495 13.1941 12.495C14.5112 12.495 15.5142 12.0594 16.2031 11.1881C16.507 11.5832 16.9224 11.8821 17.4492 12.0847C17.9761 12.2772 18.5586 12.414 19.1969 12.495C19.6021 12.5558 19.9871 12.5406 20.3518 12.4495L20.0935 11.2337C19.3336 11.4262 18.5789 11.33 17.8292 10.945C17.0794 10.5498 16.5374 10.0534 16.2031 9.45567C15.8485 10.023 15.3267 10.5043 14.6378 10.8994C13.9489 11.2844 13.1637 11.3958 12.2823 11.2337ZM13.954 15.0329L16.2031 16.2183L18.513 15.0329L16.2031 13.8476L13.954 15.0329ZM13.954 17.8899L16.2031 19.0753L18.513 17.8899L16.2031 16.7046L13.954 17.8899ZM18.4218 16.5982L20.671 17.7684L22.9961 16.5982L20.671 15.3977L18.4218 16.5982ZM9.41009 16.5982L11.6744 17.7684L13.9844 16.5982L11.6744 15.3977L9.41009 16.5982ZM17.8899 8.27032L17.3885 7.44969C17.044 7.75363 16.6489 7.9056 16.2031 7.9056C15.7877 7.9056 15.4281 7.76883 15.1241 7.49528L14.4707 8.27032C14.9468 8.7161 15.5243 8.93898 16.2031 8.93898C16.8819 8.93898 17.4442 8.7161 17.8899 8.27032ZM10.7322 20.3518C10.3776 20.3518 10.2003 20.5393 10.2003 20.9141C10.2003 21.289 10.3776 21.4764 10.7322 21.4764H21.674C22.0286 21.4764 22.2059 21.289 22.2059 20.9141C22.2059 20.5393 22.0286 20.3518 21.674 20.3518H10.7322ZM8.98458 24.0599C8.60973 24.0599 8.4223 24.2676 8.4223 24.6829C8.4223 25.1084 8.60973 25.3212 8.98458 25.3212H23.4064C23.7914 25.3212 23.9839 25.1084 23.9839 24.6829C23.9839 24.2676 23.7914 24.0599 23.4064 24.0599H8.98458Z" fill="#C68B59" />
  </g>
  <g id="br" fill="none" transform="scale(1.25 1.25)">
    <path d="M23.9657 24.2148L25.303 24.7163C26.0122 24.7163 26.6201 24.9747 27.1266 25.4914C27.6433 25.9979 27.9017 26.6058 27.9017 27.315C27.9017 28.0343 27.6433 28.6472 27.1266 29.1538C26.6201 29.6604 26.0122 29.9137 25.303 29.9137H7.61386C6.88441 29.9137 6.26641 29.6604 5.75984 29.1538C5.25328 28.6472 5 28.0343 5 27.315C5 26.6058 5.25328 25.9979 5.75984 25.4914C6.26641 24.9747 6.88441 24.7163 7.61386 24.7163L9.01198 24.2148C9.43749 21.8644 9.71103 19.6608 9.83261 17.6042C9.96431 15.5475 10.1011 13.4301 10.2429 11.2519V9.18512H8.14575V3H12.2945V6.03937H14.4069V3H18.51V6.03937H20.6224V3H24.7711V9.18512H22.674C22.674 9.53972 22.674 9.88925 22.674 10.2337C22.674 10.5782 22.674 10.9176 22.674 11.2519C22.7955 13.5314 22.9272 15.6742 23.0691 17.6802C23.2109 19.6862 23.5098 21.8644 23.9657 24.2148ZM14.8932 21.6466H18.0237V24.0629H14.8932V21.6466ZM14.8932 14.9143H18.0237V17.2547H14.8932V14.9143ZM16.9903 18.2729H20.0753V20.6132H16.9903V18.2729ZM12.8416 18.2729H15.9114V20.6132H12.8416V18.2729ZM16.9903 11.5254H20.0753V13.8506H16.9903V11.5254ZM12.8416 11.5254H15.9114V13.8506H12.8416V11.5254ZM21.7014 11.5254V10.4921H11.2763L11.2459 11.5254H11.8082V13.8506H11.0332L11.0028 14.9143H11.8082H13.8598V17.2547H10.8356L10.7596 18.2729H11.8082V20.6132H10.5468L10.4861 21.6466H13.8598V24.0629H9.65024V25.2482H23.2666V24.0629H19.0419V21.6466H22.5372L22.4308 20.6132H21.1087V18.2729H22.2028L22.1269 17.2547H19.0419V14.9143H21.9141V13.8506H21.1087V11.5254H21.7014Z" fill="#402218" />
    <path d="M14.8931 21.6465H18.0237V24.0628H14.8931V21.6465ZM14.8931 14.9143H18.0237V17.2547H14.8931V14.9143ZM16.9903 18.2728H20.0753V20.6132H16.9903V18.2728ZM12.8416 18.2728H15.9113V20.6132H12.8416V18.2728ZM16.9903 11.5254H20.0753V13.8506H16.9903V11.5254ZM12.8416 11.5254H15.9113V13.8506H12.8416V11.5254ZM21.7013 11.5254V10.4921H11.2763L11.2459 11.5254H11.8082V13.8506H11.0331L11.0027 14.9143H11.8082H13.8597V17.2547H10.8356L10.7596 18.2728H11.8082V20.6132H10.5468L10.486 21.6465H13.8597V24.0628H9.65021V25.2482H23.2666V24.0628H19.0419V21.6465H22.5371L22.4308 20.6132H21.1086V18.2728H22.2028L22.1268 17.2547H19.0419V14.9143H21.9141V13.8506H21.1086V11.5254H21.7013Z" fill="#C68B59" />
  </g>
  <g id="wb" fill="none" transform="scale(1.25 1.25)">
    <path d="M16.4584 7.13355C17.4716 7.13355 17.9781 6.62699 17.9781 5.61387C17.9781 4.59061 17.4716 4.07899 16.4584 4.07899C15.4453 4.07899 14.9387 4.59061 14.9387 5.61387C14.9387 6.62699 15.4453 7.13355 16.4584 7.13355ZM10.2429 22.7559C9.56413 22.7559 9.22473 23.1004 9.22473 23.7893C9.22473 24.4782 9.56413 24.8227 10.2429 24.8227H22.6587C23.3477 24.8227 23.6921 24.4782 23.6921 23.7893C23.6921 23.1004 23.3477 22.7559 22.6587 22.7559H10.2429ZM7.59866 25.9017C6.58553 25.9017 6.07897 26.4082 6.07897 27.4214C6.07897 28.4345 6.58553 28.9411 7.59866 28.9411H25.303C26.3161 28.9411 26.8227 28.4345 26.8227 27.4214C26.8227 26.4082 26.3161 25.9017 25.303 25.9017H7.59866ZM17.811 14.8992L20.7591 11.5406C21.0834 11.8547 21.4177 12.3005 21.7621 12.878C22.0458 13.3339 22.3194 13.8404 22.5828 14.3977C22.8462 14.965 23.0488 15.507 23.1906 16.0237C23.0995 17.0976 22.7651 18.1513 22.1877 19.1847C21.6102 20.2181 20.8655 21.0539 19.9537 21.6922L22.6891 21.7225C23.2666 21.7225 23.758 21.9302 24.1633 22.3456C24.5685 22.7509 24.7711 23.2372 24.7711 23.8045V23.8197C24.7711 24.0831 24.6799 24.4174 24.4976 24.8227H25.303C26.0122 24.8227 26.6201 25.081 27.1266 25.5977C27.6433 26.1043 27.9017 26.7122 27.9017 27.4214C27.9017 28.1407 27.6433 28.7536 27.1266 29.2602C26.6201 29.7667 26.0122 30.02 25.303 30.02H7.61386C6.88441 30.02 6.26641 29.7667 5.75984 29.2602C5.25328 28.7536 5 28.1407 5 27.4214C5 26.7122 5.25328 26.1043 5.75984 25.5977C6.26641 25.081 6.88441 24.8227 7.61386 24.8227H8.46489C8.25213 24.5694 8.14575 24.2351 8.14575 23.8197V23.8045C8.14575 23.2372 8.34837 22.7509 8.75362 22.3456C9.15887 21.9302 9.65024 21.7225 10.2277 21.7225H12.8872C11.9348 21.1451 11.1699 20.3548 10.5924 19.3518C10.015 18.3488 9.73129 17.2395 9.74142 16.0237C10.3392 14.1292 11.0939 12.4879 12.0057 11.0999C12.9277 9.70182 13.566 8.77481 13.9206 8.3189C14.0523 7.91365 14.2903 7.60465 14.6348 7.3919C14.108 6.94612 13.8446 6.35344 13.8446 5.61386C13.8446 4.89454 14.0979 4.2816 14.6044 3.77504C15.111 3.25835 15.729 3 16.4584 3C17.1676 3 17.7755 3.25835 18.2821 3.77504C18.7988 4.2816 19.0571 4.89454 19.0571 5.61386C19.0571 6.27239 18.8089 6.92079 18.3124 7.55906C18.5151 7.96431 18.6367 8.20239 18.6772 8.27331C18.9912 8.71909 19.4016 9.42827 19.9081 10.4009L16.6864 13.9721C16.3419 14.3166 16.3774 14.6509 16.7927 14.9751C17.1676 15.3095 17.507 15.2841 17.8109 14.8991L17.811 14.8992ZM18.3884 15.5982C18.0946 15.9021 17.7046 16.0541 17.2183 16.0541C16.7421 16.044 16.3977 15.9376 16.1849 15.735C15.9721 15.5324 15.8151 15.2234 15.7138 14.808C15.6226 14.3825 15.7138 13.9924 15.9873 13.6378L18.8899 10.2185C18.9203 10.1881 18.8595 10.1121 18.7076 9.99056C18.5657 9.85886 18.4594 9.74235 18.3884 9.64104C18.2567 9.42828 18.1048 9.175 17.9325 8.88119C17.7704 8.57726 17.5982 8.30371 17.4158 8.06056C17.0714 8.16188 16.7522 8.21253 16.4584 8.21253C16.1038 8.21253 15.7746 8.14668 15.4706 8.01497C14.9843 8.33917 14.5386 8.91159 14.1333 9.73222C12.5326 11.7889 11.4384 13.9012 10.8508 16.0693C10.5874 17.4674 11.1193 18.7642 12.4465 19.9597C13.7838 21.1552 15.1211 21.7529 16.4584 21.7529C17.7958 21.7529 19.1027 21.1197 20.3792 19.8533C21.6659 18.5768 22.2586 17.28 22.1573 15.9629C22.0053 15.507 21.7925 15.0055 21.519 14.4584C21.2455 13.9012 20.9972 13.4099 20.7743 12.9843L18.3884 15.5982Z" fill="#461111" />
    <path d="M16.4584 7.13356C17.4715 7.13356 17.9781 6.627 17.9781 5.61388C17.9781 4.59062 17.4715 4.07899 16.4584 4.07899C15.4453 4.07899 14.9387 4.59062 14.9387 5.61388C14.9387 6.627 15.4453 7.13356 16.4584 7.13356ZM10.2429 22.7559C9.5641 22.7559 9.22471 23.1004 9.22471 23.7893C9.22471 24.4783 9.5641 24.8227 10.2429 24.8227H22.6587C23.3476 24.8227 23.6921 24.4783 23.6921 23.7893C23.6921 23.1004 23.3476 22.7559 22.6587 22.7559H10.2429ZM7.59864 25.9017C6.58551 25.9017 6.07895 26.4083 6.07895 27.4214C6.07895 28.4345 6.58551 28.9411 7.59864 28.9411H25.303C26.3161 28.9411 26.8227 28.4345 26.8227 27.4214C26.8227 26.4083 26.3161 25.9017 25.303 25.9017H7.59864ZM18.3884 15.5982C18.0946 15.9022 17.7046 16.0541 17.2183 16.0541C16.7421 16.044 16.3976 15.9376 16.1849 15.735C15.9721 15.5324 15.8151 15.2234 15.7138 14.808C15.6226 14.3825 15.7138 13.9924 15.9873 13.6378L18.8899 10.2185C18.9203 10.1881 18.8595 10.1121 18.7076 9.99057C18.5657 9.85887 18.4593 9.74237 18.3884 9.64106C18.2567 9.4283 18.1047 9.17501 17.9325 8.8812C17.7704 8.57727 17.5982 8.30372 17.4158 8.06057C17.0714 8.16188 16.7522 8.21254 16.4584 8.21254C16.1038 8.21254 15.7746 8.1467 15.4706 8.01499C14.9843 8.33919 14.5385 8.9116 14.1333 9.73223C12.5326 11.7889 11.4384 13.9012 10.8508 16.0693C10.5874 17.4674 11.1192 18.7642 12.4464 19.9597C13.7838 21.1552 15.1211 21.7529 16.4584 21.7529C17.7957 21.7529 19.1027 21.1197 20.3792 19.8533C21.6659 18.5768 22.2585 17.28 22.1572 15.9629C22.0053 15.507 21.7925 15.0055 21.519 14.4585C21.2454 13.9012 20.9972 13.4099 20.7743 12.9844L18.3884 15.5982Z" fill="#F0D290" />
  </g>
  <g id="wk" fill="none" transform="scale(1.25 1.25)">
    <path d="M18.8899 19.5798L16.5192 20.7651L14.0877 19.5798L16.5192 18.3792L18.8899 19.5798ZM22.0813 20.6284L19.9993 19.5798L22.4308 18.3792L22.7651 18.5768C22.8361 18.3944 22.907 18.2121 22.9779 18.0297C23.0589 17.8473 23.1299 17.6802 23.1906 17.5282L9.863 17.5434C9.9947 18.0398 10.1061 18.3995 10.1973 18.6224L10.6076 18.3792L12.9784 19.5798L10.8964 20.6132C10.947 20.7955 10.9977 20.983 11.0484 21.1755C11.1091 21.3578 11.1699 21.5452 11.2307 21.7377L21.7317 21.7225C21.8635 21.2565 21.98 20.8918 22.0813 20.6284ZM23.7833 16.4948C24.0974 15.9477 24.4216 15.4868 24.7559 15.1119C25.0903 14.737 25.4398 14.3521 25.8045 13.9569C26.0477 13.6631 26.2756 13.3997 26.4884 13.1667C26.7113 12.9236 26.8227 12.6551 26.8227 12.3613C26.8227 11.6521 26.4732 11.2975 25.7741 11.2975H7.14276C6.43357 11.2975 6.07898 11.6521 6.07898 12.3613C6.07898 12.6551 6.18029 12.9236 6.38291 13.1667C6.59567 13.3997 6.85402 13.6631 7.15796 13.9569C7.53281 14.3521 7.89247 14.737 8.23693 15.1119C8.59153 15.4766 8.92079 15.9427 9.22473 16.51L23.7833 16.4948ZM16.428 9.24591C15.8506 9.24591 15.3592 9.30164 14.9539 9.41308C14.5487 9.52452 14.3461 9.65623 14.3461 9.8082C14.3461 9.9703 14.5487 10.1071 14.9539 10.2185C15.3592 10.33 15.8506 10.3857 16.428 10.3857C16.9954 10.3857 17.4817 10.33 17.8869 10.2185C18.3023 10.1071 18.51 9.9703 18.51 9.8082C18.51 9.65623 18.3023 9.52452 17.8869 9.41308C17.4817 9.30164 16.9954 9.24591 16.428 9.24591ZM13.8598 6.66244V4.58047L15.6682 4.83882L15.425 3H17.4766L17.2335 4.83882L19.0419 4.58047V6.66244L17.2335 6.3889V8.25811H15.6682V6.3889L13.8598 6.66244ZM10.2277 22.7407C9.55906 22.7407 9.22473 23.0751 9.22473 23.7437V23.7589C9.22473 24.4276 9.55906 24.7619 10.2277 24.7619H22.6892C23.3578 24.7619 23.6921 24.4276 23.6921 23.7589V23.7437C23.6921 23.0751 23.3578 22.7407 22.6892 22.7407H10.2277ZM7.65945 25.8409C6.6058 25.8409 6.07898 26.3626 6.07898 27.4062V27.4214C6.07898 28.4649 6.6058 28.9866 7.65945 28.9866H25.2574C26.3009 28.9866 26.8227 28.4649 26.8227 27.4214V27.4062C26.8227 26.3626 26.3009 25.8409 25.2574 25.8409H7.65945ZM8.4041 24.7619C8.22173 24.4478 8.13055 24.1186 8.13055 23.7741C8.13055 23.2169 8.33318 22.7407 8.73843 22.3456C9.14368 21.9404 9.63504 21.7529 10.2125 21.7833C9.65531 19.9293 9.20447 18.6274 8.86 17.8777C8.51554 17.128 7.94819 16.3277 7.15796 15.4766C6.50956 14.7472 5.9878 14.195 5.59268 13.8202C5.19756 13.4352 5 12.959 5 12.3917V12.3765C5 11.8193 5.19756 11.338 5.59268 10.9328C5.99793 10.5275 6.48929 10.3249 7.06677 10.3249H13.5862C13.414 10.1223 13.3279 9.93991 13.3279 9.77781C13.3279 8.76468 13.8344 8.25812 14.8476 8.25812H18.0693C19.0824 8.25812 19.589 8.76468 19.589 9.77781C19.589 9.95004 19.4978 10.1324 19.3154 10.3249H25.8501C26.4073 10.3249 26.8886 10.5275 27.2938 10.9328C27.6991 11.338 27.9017 11.8193 27.9017 12.3765V12.3917C27.9017 12.959 27.6889 13.425 27.2634 13.7898C26.848 14.1444 26.306 14.6864 25.6373 15.4158C24.9079 16.3175 24.3608 17.1635 23.9961 17.9537C23.6314 18.744 23.2058 20.0205 22.7195 21.7833C23.2768 21.7529 23.758 21.9404 24.1632 22.3456C24.5685 22.7407 24.7711 23.2169 24.7711 23.7741C24.7711 24.1186 24.6951 24.4478 24.5432 24.7619H25.303C26.0122 24.7619 26.6201 25.0203 27.1266 25.537C27.6433 26.0435 27.9017 26.6514 27.9017 27.3606C27.9017 28.0799 27.6433 28.6928 27.1266 29.1994C26.6201 29.706 26.0122 29.9592 25.303 29.9592H7.61386C6.88441 29.9592 6.26641 29.706 5.75984 29.1994C5.25328 28.6928 5 28.0799 5 27.3606C5 26.6514 5.25328 26.0435 5.75984 25.537C6.26641 25.0203 6.88441 24.7619 7.61386 24.7619H8.4041Z" fill="#461111" />
    <path d="M18.8899 19.5798L16.5192 20.7651L14.0877 19.5798L16.5192 18.3792L18.8899 19.5798ZM22.0812 20.6284L19.9993 19.5798L22.4308 18.3792L22.7651 18.5768C22.836 18.3944 22.9069 18.212 22.9779 18.0297C23.0589 17.8473 23.1298 17.6802 23.1906 17.5282L9.86297 17.5434C9.99468 18.0398 10.1061 18.3995 10.1973 18.6224L10.6076 18.3792L12.9783 19.5798L10.8964 20.6131C10.947 20.7955 10.9977 20.9829 11.0483 21.1754C11.1091 21.3578 11.1699 21.5452 11.2307 21.7377L21.7317 21.7225C21.8634 21.2565 21.9799 20.8918 22.0812 20.6284ZM23.7833 16.4948C24.0974 15.9477 24.4216 15.4867 24.7559 15.1119C25.0902 14.737 25.4398 14.352 25.8045 13.9569C26.0476 13.6631 26.2756 13.3997 26.4883 13.1667C26.7112 12.9235 26.8227 12.6551 26.8227 12.3613C26.8227 11.6521 26.4731 11.2975 25.7741 11.2975H7.14273C6.43354 11.2975 6.07895 11.6521 6.07895 12.3613C6.07895 12.6551 6.18026 12.9235 6.38289 13.1667C6.59564 13.3997 6.85399 13.6631 7.15793 13.9569C7.53278 14.352 7.89244 14.737 8.2369 15.1119C8.5915 15.4766 8.92076 15.9427 9.2247 16.51L23.7833 16.4948ZM16.428 9.2459C15.8505 9.2459 15.3592 9.30162 14.9539 9.41306C14.5487 9.52451 14.346 9.65621 14.346 9.80818C14.346 9.97028 14.5487 10.1071 14.9539 10.2185C15.3592 10.3299 15.8505 10.3857 16.428 10.3857C16.9954 10.3857 17.4817 10.3299 17.8869 10.2185C18.3023 10.1071 18.51 9.97028 18.51 9.80818C18.51 9.65621 18.3023 9.52451 17.8869 9.41306C17.4817 9.30162 16.9954 9.2459 16.428 9.2459ZM10.2277 22.7407C9.55903 22.7407 9.2247 23.075 9.2247 23.7437V23.7589C9.2247 24.4276 9.55903 24.7619 10.2277 24.7619H22.6891C23.3578 24.7619 23.6921 24.4276 23.6921 23.7589V23.7437C23.6921 23.075 23.3578 22.7407 22.6891 22.7407H10.2277ZM7.65942 25.8409C6.60577 25.8409 6.07895 26.3626 6.07895 27.4062V27.4213C6.07895 28.4649 6.60577 28.9866 7.65942 28.9866H25.2574C26.3009 28.9866 26.8227 28.4649 26.8227 27.4213V27.4062C26.8227 26.3626 26.3009 25.8409 25.2574 25.8409H7.65942Z" fill="#F0D290" />
  </g>
  <g id="wn" fill="none" transform="scale(1.25 1.25)">
    <path d="M13.7686 7.30071C14.417 6.92586 14.8374 6.8904 15.0299 7.19433C15.2123 7.5084 14.9742 7.85793 14.3157 8.24292C13.6673 8.61777 13.2519 8.64817 13.0695 8.33409C12.877 8.02003 13.1101 7.67556 13.7686 7.30071ZM13.9358 20.522C13.338 19.5291 13.571 18.1158 14.6348 16.2821C15.0401 15.5931 15.4402 15.0663 15.8354 14.7016C15.653 14.8333 15.7087 14.8434 16.0025 14.732C16.2963 14.6205 16.4433 14.7978 16.4433 15.2639C16.3419 15.3753 16.2052 15.5779 16.0329 15.8717C15.8607 16.1655 15.729 16.3935 15.6378 16.5556C15.2427 17.2344 15.0451 17.9183 15.0451 18.6072C15.0553 19.2961 15.1667 19.8837 15.3795 20.37C15.2174 20.6334 14.9945 20.7499 14.7108 20.7195C14.4271 20.679 14.1688 20.6132 13.9358 20.522ZM18.4796 10.4769C18.6215 10.7605 18.4644 11.1455 18.0085 11.6318C17.5526 12.108 16.9599 12.3967 16.2305 12.498C16.0177 12.5284 15.8506 12.574 15.729 12.6348C15.6175 12.6956 15.496 12.7311 15.3643 12.7412C15.2832 12.802 15.1616 12.8678 14.9995 12.9388C14.8476 12.9995 14.6652 13.0857 14.4524 13.1971C13.8952 13.4909 13.3887 13.8911 12.9328 14.3977C12.487 14.9042 12.0969 15.4462 11.7626 16.0237C11.5296 16.743 11.3624 17.7004 11.2611 18.8959C11.1699 20.0914 11.1547 21.0539 11.2155 21.7833C12.9378 21.7833 14.6602 21.7833 16.3825 21.7833C18.1149 21.7833 19.8474 21.7833 21.5798 21.7833C21.5393 21.5604 21.4988 21.3376 21.4582 21.1147C21.4278 20.8816 21.3975 20.6486 21.3671 20.4156C20.9314 19.9293 20.5718 19.2556 20.2881 18.3944C20.0145 17.5333 19.8829 16.743 19.893 16.0237C20.0146 15.274 20.2982 14.4128 20.744 13.4402C21.1999 12.4575 21.5494 11.6926 21.7926 11.1455C21.823 10.7403 21.823 10.3046 21.7926 9.83859C21.7622 9.37256 21.5494 8.92172 21.1543 8.48607C20.9314 8.08082 20.4755 7.57933 19.7866 6.98158C19.1078 6.38384 18.2821 6.05457 17.3095 5.99379C17.4514 5.31499 17.2741 4.78817 16.7776 4.41332C16.7067 4.85909 16.3521 5.2846 15.7138 5.68985C15.0756 6.0951 14.4221 6.32306 13.7534 6.37371C13.176 7.05251 12.3857 7.51348 11.3827 7.75663C10.3899 7.99978 9.39701 8.24292 8.40415 8.48607C8.10021 9.00277 8.10528 9.36749 8.41934 9.58025C8.74354 9.79301 8.93603 10.0615 8.99682 10.3857C9.26024 10.5782 9.36662 10.7453 9.31596 10.8872C9.27544 11.0189 9.69083 11.0138 10.5621 10.872C11.1396 10.6086 11.5803 10.5073 11.8842 10.568C12.1882 10.6288 12.6643 10.7099 13.3127 10.8112C13.5154 10.9632 13.6825 11.0543 13.8142 11.0847C14.3512 11.5406 15.0654 11.6876 15.957 11.5255C17.0512 11.3431 17.6742 10.8163 17.8262 9.94498C18.2011 9.94498 18.4189 10.1223 18.4797 10.4769H18.4796ZM10.1821 22.7559C9.50334 22.7559 9.16394 23.1004 9.16394 23.7893C9.16394 24.4782 9.50334 24.8227 10.1821 24.8227H22.598C23.2869 24.8227 23.6314 24.4782 23.6314 23.7893C23.6314 23.1004 23.2869 22.7559 22.598 22.7559H10.1821ZM20.5768 25.9017H12.2641H7.59866C6.54501 25.9017 6.01819 26.4234 6.01819 27.467C6.01819 28.5206 6.54501 29.0474 7.59866 29.0474H25.1966C26.2401 29.0474 26.7619 28.5206 26.7619 27.467C26.7619 26.4234 26.2401 25.9017 25.1966 25.9017H20.5768ZM22.7651 21.7833C23.2413 21.8542 23.682 22.0771 24.0873 22.452C24.5026 22.8167 24.7103 23.2777 24.7103 23.8349C24.7103 24.1794 24.6344 24.5086 24.4824 24.8227H25.1814C25.9008 24.8227 26.5137 25.081 27.0203 25.5977C27.5369 26.1043 27.7953 26.7122 27.7953 27.4214C27.7953 28.1407 27.5369 28.7536 27.0203 29.2602C26.5137 29.7667 25.9008 30.02 25.1814 30.02H7.59866C6.87935 30.02 6.26641 29.7667 5.75984 29.2602C5.25328 28.7536 5 28.1407 5 27.4214C5 26.7122 5.25328 26.1043 5.75984 25.5977C6.26641 25.081 6.87935 24.8227 7.59866 24.8227H8.31292C8.15083 24.4884 8.06977 24.1591 8.06977 23.8349C8.06977 23.2777 8.27239 22.7914 8.67764 22.376C9.09302 21.9606 9.60465 21.7225 10.2125 21.6618C10.1619 20.7195 10.1467 19.7773 10.167 18.8351C10.1872 17.8929 10.3442 16.9811 10.6381 16.0997C11.2155 14.8738 11.8183 13.9823 12.4465 13.425C13.0746 12.8678 13.799 12.4525 14.6196 12.1789C13.9408 12.1485 13.5559 12.1282 13.4647 12.1181C13.3836 12.108 13.1 11.9662 12.6137 11.6926C12.1273 11.5609 11.8031 11.49 11.641 11.4799C11.4789 11.4697 11.0484 11.571 10.3493 11.7838C9.58947 11.9054 9.02718 11.9459 8.66246 11.9054C8.29773 11.8648 8.10523 11.5001 8.08498 10.8112C7.78104 10.3857 7.4619 9.92977 7.12757 9.44347C6.80337 8.94704 6.94015 8.35436 7.53788 7.66544C9.14876 7.15888 10.3139 6.88027 11.0332 6.82961C11.7626 6.77896 12.5225 6.37371 13.3127 5.61386C14.3157 5.40111 15.0249 5.13263 15.4403 4.80843C15.8556 4.4741 16.0633 3.87129 16.0633 3C16.6104 3.11144 17.0917 3.3546 17.507 3.72945C17.9224 4.09418 18.1301 4.57541 18.1301 5.17315C19.2547 5.4467 20.0044 5.78103 20.3792 6.17615C20.7642 6.56113 21.2353 6.98665 21.7926 7.45268C22.4916 8.37463 22.8513 9.18006 22.8715 9.86899C22.9019 10.5579 22.8665 11.2519 22.7652 11.951C22.4511 12.6297 22.132 13.263 21.8078 13.8506C21.4836 14.428 21.2404 15.1727 21.0783 16.0845C21.0783 16.9659 21.2151 17.7612 21.4886 18.4704C21.7622 19.1796 22.1218 19.828 22.5676 20.4156L22.7651 21.7833Z" fill="#461111" />
    <path d="M13.7686 7.3007C14.417 6.92584 14.8374 6.89038 15.0299 7.19432C15.2123 7.50839 14.9742 7.85792 14.3157 8.2429C13.6673 8.61776 13.2519 8.64815 13.0695 8.33408C12.877 8.02001 13.1101 7.67555 13.7686 7.3007ZM13.9358 20.522C13.338 19.5291 13.571 18.1158 14.6348 16.282C15.0401 15.5931 15.4402 15.0663 15.8354 14.7016C15.653 14.8333 15.7087 14.8434 16.0025 14.732C16.2963 14.6205 16.4433 14.7978 16.4433 15.2638C16.3419 15.3753 16.2052 15.5779 16.0329 15.8717C15.8607 16.1655 15.729 16.3935 15.6378 16.5556C15.2427 17.2344 15.0451 17.9182 15.0451 18.6072C15.0553 19.2961 15.1667 19.8837 15.3795 20.37C15.2174 20.6334 14.9945 20.7499 14.7108 20.7195C14.4271 20.679 14.1688 20.6132 13.9358 20.522ZM18.4796 10.4768C18.6215 10.7605 18.4644 11.1455 18.0085 11.6318C17.5526 12.108 16.9599 12.3967 16.2305 12.498C16.0177 12.5284 15.8506 12.574 15.729 12.6348C15.6175 12.6956 15.496 12.731 15.3643 12.7412C15.2832 12.802 15.1616 12.8678 14.9995 12.9387C14.8476 12.9995 14.6652 13.0856 14.4524 13.1971C13.8952 13.4909 13.3887 13.8911 12.9328 14.3976C12.487 14.9042 12.0969 15.4462 11.7626 16.0237C11.5296 16.743 11.3624 17.7004 11.2611 18.8959C11.1699 20.0914 11.1547 21.0539 11.2155 21.7833C12.9378 21.7833 14.6602 21.7833 16.3825 21.7833C18.1149 21.7833 19.8474 21.7833 21.5798 21.7833C21.5393 21.5604 21.4988 21.3375 21.4582 21.1147C21.4278 20.8816 21.3975 20.6486 21.3671 20.4156C20.9314 19.9293 20.5718 19.2556 20.2881 18.3944C20.0145 17.5333 19.8829 16.743 19.893 16.0237C20.0146 15.274 20.2982 14.4128 20.744 13.4402C21.1999 12.4575 21.5494 11.6926 21.7926 11.1455C21.823 10.7403 21.823 10.3046 21.7926 9.83858C21.7622 9.37254 21.5494 8.9217 21.1543 8.48606C20.9314 8.08081 20.4755 7.57931 19.7866 6.98157C19.1078 6.38382 18.2821 6.05456 17.3095 5.99377C17.4514 5.31498 17.2741 4.78816 16.7776 4.4133C16.7067 4.85907 16.3521 5.28458 15.7138 5.68983C15.0756 6.09508 14.4221 6.32304 13.7534 6.3737C13.176 7.05249 12.3857 7.51346 11.3827 7.75661C10.3899 7.99976 9.39701 8.24291 8.40415 8.48606C8.10021 9.00275 8.10528 9.36748 8.41934 9.58023C8.74354 9.79299 8.93603 10.0615 8.99682 10.3857C9.26024 10.5782 9.36662 10.7453 9.31596 10.8872C9.27545 11.0189 9.69083 11.0138 10.5621 10.872C11.1396 10.6086 11.5803 10.5072 11.8842 10.568C12.1882 10.6288 12.6643 10.7099 13.3127 10.8112C13.5154 10.9632 13.6825 11.0543 13.8142 11.0847C14.3512 11.5406 15.0654 11.6875 15.957 11.5254C17.0512 11.3431 17.6742 10.8162 17.8262 9.94496C18.2011 9.94496 18.4188 10.1223 18.4796 10.4768ZM10.1821 22.7559C9.50334 22.7559 9.16394 23.1004 9.16394 23.7893C9.16394 24.4782 9.50334 24.8227 10.1821 24.8227H22.598C23.2869 24.8227 23.6314 24.4782 23.6314 23.7893C23.6314 23.1004 23.2869 22.7559 22.598 22.7559H10.1821ZM20.5768 25.9017H12.2641H7.59866C6.54501 25.9017 6.01819 26.4234 6.01819 27.4669C6.01819 28.5206 6.54501 29.0474 7.59866 29.0474H25.1966C26.2401 29.0474 26.7619 28.5206 26.7619 27.4669C26.7619 26.4234 26.2401 25.9017 25.1966 25.9017H20.5768Z" fill="#F0D290" />
  </g>
  <g id="wp" fill="none" transform="scale(1.25 1.25)">
    <path d="M8.36714 26.3845C7.42931 26.3845 6.96039 26.8489 6.96039 27.7777V27.7912C6.96039 28.7201 7.42931 29.1845 8.36714 29.1845H24.0309C24.9597 29.1845 25.4241 28.7201 25.4241 27.7912V27.7777C25.4241 26.8489 24.9597 26.3845 24.0309 26.3845H8.36714ZM18.8908 17.1053H13.4125C13.2322 19.017 12.8985 20.7169 12.4116 22.2048C11.9246 23.6837 11.3565 24.7568 10.7072 25.4241H21.7314C21.037 24.7478 20.4193 23.6702 19.8782 22.1913C19.3462 20.7033 19.017 19.008 18.8908 17.1053ZM10.6667 14.4135C10.0625 14.4135 9.76039 14.7156 9.76039 15.3198C9.76039 15.933 10.0625 16.2396 10.6667 16.2396H21.7178C22.331 16.2396 22.6376 15.933 22.6376 15.3198C22.6376 14.7156 22.331 14.4135 21.7178 14.4135H10.6667ZM19.9053 17.1053C19.9684 19.4318 20.3742 21.4022 21.1227 23.0164C21.8711 24.6215 22.7368 25.4241 23.7198 25.4241H24.0714C24.7027 25.4241 25.2437 25.6541 25.6946 26.114C26.1545 26.5648 26.3845 27.1059 26.3845 27.7371C26.3845 28.3774 26.1545 28.923 25.6946 29.3738C25.2437 29.8247 24.7027 30.0502 24.0714 30.0502H8.32657C7.6773 30.0502 7.12721 29.8247 6.67633 29.3738C6.22544 28.923 6 28.3774 6 27.7371C6 27.1059 6.22544 26.5648 6.67633 26.114C7.12721 25.6541 7.6773 25.4241 8.32657 25.4241H8.71884C9.6747 25.4241 10.5269 24.6215 11.2753 23.0164C12.0328 21.4022 12.4567 19.4318 12.5469 17.1053H10.6261C10.1121 17.1053 9.6747 16.9294 9.314 16.5777C8.96231 16.2261 8.78647 15.7932 8.78647 15.2792C8.78647 14.7742 8.96231 14.3414 9.314 13.9807C9.6747 13.6199 10.1121 13.4396 10.6261 13.4396H13.5343C12.5063 12.61 11.9923 11.5324 11.9923 10.2067C11.9923 9.05249 12.4026 8.06505 13.2232 7.24444C14.0438 6.41482 15.0357 6 16.199 6C17.3533 6 18.3407 6.41482 19.1613 7.24444C19.9819 8.06505 20.3922 9.05249 20.3922 10.2067C20.3922 11.5233 19.8872 12.6009 18.8773 13.4396H21.7719C22.2679 13.4396 22.6963 13.6199 23.057 13.9807C23.4177 14.3414 23.598 14.7742 23.598 15.2792C23.598 15.7932 23.4177 16.2261 23.057 16.5777C22.6963 16.9294 22.2679 17.1053 21.7719 17.1053H19.9053ZM16.199 6.97391C15.3063 6.97391 14.5443 7.28953 13.913 7.92077C13.2818 8.55201 12.9662 9.314 12.9662 10.2067C12.9662 11.0995 13.2818 11.8615 13.913 12.4927C14.5443 13.124 15.3063 13.4396 16.199 13.4396C17.0827 13.4396 17.8402 13.124 18.4715 12.4927C19.1117 11.8615 19.4319 11.0995 19.4319 10.2067C19.4319 9.314 19.1117 8.55201 18.4715 7.92077C17.8402 7.28953 17.0827 6.97391 16.199 6.97391Z" fill="#461111" />
    <path d="M8.36711 26.3845C7.42928 26.3845 6.96036 26.8489 6.96036 27.7777V27.7912C6.96036 28.7201 7.42928 29.1845 8.36711 29.1845H24.0308C24.9597 29.1845 25.4241 28.7201 25.4241 27.7912V27.7777C25.4241 26.8489 24.9597 26.3845 24.0308 26.3845H8.36711ZM18.8908 17.1053H13.4125C13.2322 19.017 12.8985 20.7169 12.4116 22.2048C11.9246 23.6837 11.3565 24.7568 10.7072 25.4241H21.7313C21.037 24.7478 20.4193 23.6702 19.8782 22.1913C19.3461 20.7033 19.017 19.008 18.8908 17.1053ZM10.6666 14.4135C10.0624 14.4135 9.76036 14.7156 9.76036 15.3198C9.76036 15.933 10.0624 16.2396 10.6666 16.2396H21.7178C22.331 16.2396 22.6376 15.933 22.6376 15.3198C22.6376 14.7156 22.331 14.4135 21.7178 14.4135H10.6666ZM16.199 6.97391C15.3062 6.97391 14.5442 7.28953 13.913 7.92076C13.2818 8.552 12.9661 9.31399 12.9661 10.2067C12.9661 11.0995 13.2818 11.8615 13.913 12.4927C14.5442 13.124 15.3062 13.4396 16.199 13.4396C17.0827 13.4396 17.8402 13.124 18.4714 12.4927C19.1117 11.8615 19.4318 11.0995 19.4318 10.2067C19.4318 9.31399 19.1117 8.552 18.4714 7.92076C17.8402 7.28953 17.0827 6.97391 16.199 6.97391Z" fill="#F0D290" />
  </g>
  <g id="wq" fill="none" transform="scale(1.25 1.25)">
    <path d="M16.2031 5.09418C15.4027 5.09418 15.0025 5.48929 15.0025 6.27953C15.0025 7.0799 15.4027 7.48008 16.2031 7.48008C16.9933 7.48008 17.3884 7.0799 17.3884 6.27953C17.3884 5.48929 16.9933 5.09418 16.2031 5.09418ZM19.668 11.6744C19.6072 10.8031 19.2425 10.0686 18.5738 9.47087C17.9051 8.863 17.1149 8.55906 16.2031 8.55906C15.2811 8.55906 14.496 8.863 13.8476 9.47087C13.2093 10.0686 12.9256 10.8031 12.9965 11.6744C13.8577 11.6947 14.5162 11.5275 14.9721 11.1729C15.4382 10.8082 15.8485 10.3371 16.2031 9.75961C16.5374 10.3574 17.0085 10.8437 17.6164 11.2185C18.2243 11.5832 18.9081 11.7352 19.668 11.6744ZM17.9659 7.73843C18.7967 8.07276 19.4755 8.58439 20.0023 9.27332C20.5291 9.96224 20.7976 10.7373 20.8077 11.5984C21.2738 11.4465 21.6689 11.2084 21.9931 10.8842C22.3173 10.56 22.6314 10.1851 22.9353 9.75961C23.2798 11.0969 24.0396 11.7656 25.2148 11.7656C25.7619 11.7656 26.3394 11.5934 26.9473 11.2489C27.5551 10.9044 28.0414 10.4435 28.4062 9.86599L22.4642 21.2484C23.0011 21.289 23.4773 21.5068 23.8927 21.9019C24.3081 22.2869 24.5158 22.758 24.5158 23.3152C24.5158 23.6293 24.4246 23.9586 24.2422 24.303H25.0477C25.7568 24.303 26.3647 24.5614 26.8713 25.0781C27.388 25.5846 27.6463 26.1925 27.6463 26.9017C27.6463 27.621 27.388 28.2339 26.8713 28.7405C26.3647 29.2471 25.7568 29.5003 25.0477 29.5003H7.35851C6.62906 29.5003 6.01105 29.2471 5.50449 28.7405C4.99793 28.2339 4.74465 27.621 4.74465 26.9017C4.74465 26.1925 4.99793 25.5846 5.50449 25.0781C6.01105 24.5614 6.62906 24.303 7.35851 24.303H8.10315C7.95119 24.1004 7.8752 23.7711 7.8752 23.3152C7.8752 22.758 8.08289 22.2869 8.49827 21.9019C8.91365 21.5068 9.39489 21.294 9.94197 21.2636L4 9.86599C4.86116 11.1324 5.90974 11.7656 7.14575 11.7656C8.34124 11.7656 9.11628 11.102 9.47087 9.77481C10.0078 10.6258 10.7373 11.2286 11.6592 11.5832C11.639 10.7322 11.8872 9.96224 12.4039 9.27332C12.9206 8.58439 13.5943 8.07276 14.425 7.73843C14.0907 7.29265 13.9236 6.80635 13.9236 6.27953C13.9236 5.65139 14.1414 5.11444 14.577 4.66866C15.0228 4.22289 15.5648 4 16.2031 4C16.8312 4 17.3682 4.22289 17.814 4.66866C18.2597 5.11444 18.4826 5.65139 18.4826 6.27953C18.4826 6.81649 18.3104 7.30278 17.9659 7.73843ZM10.0332 16.5678L12.0847 15.5344L14.1819 16.5678L12.0847 17.6012L10.0332 16.5678ZM18.2091 16.5678L20.2606 15.5344L22.373 16.5678L20.2606 17.6012L18.2091 16.5678ZM14.1515 17.7076L16.2031 16.6742L18.3003 17.7076L16.2031 18.741L14.1515 17.7076ZM14.1515 15.2153L16.2031 14.1819L18.3003 15.2153L16.2031 16.2487L14.1515 15.2153ZM7.4041 25.382C6.35045 25.382 5.82362 25.9037 5.82362 26.9473V26.9625C5.82362 28.006 6.35045 28.5277 7.4041 28.5277H25.0021C26.0456 28.5277 26.5673 28.006 26.5673 26.9625V26.9473C26.5673 25.9037 26.0456 25.382 25.0021 25.382H7.4041ZM21.3852 21.2636L26.0355 12.5254C25.6809 12.6977 25.3111 12.7889 24.9261 12.799C24.1865 12.8496 23.528 12.414 22.9505 11.4921C22.7073 11.8872 22.2058 12.2316 21.446 12.5254C20.6862 12.8192 19.9364 12.9104 19.1969 12.799C18.5586 12.7179 17.9761 12.5812 17.4492 12.3887C16.9224 12.1962 16.507 11.9024 16.2031 11.5073C15.4939 12.3887 14.4909 12.8192 13.1941 12.799C11.3198 12.799 10.0889 12.3279 9.50127 11.3857C8.99471 12.2164 8.32098 12.6875 7.48008 12.799C7.20654 12.8496 6.83675 12.7585 6.37071 12.5254L11.021 21.2636H21.3852ZM9.98757 22.2362C9.30877 22.2362 8.96938 22.5807 8.96938 23.2696C8.96938 23.9586 9.30877 24.303 9.98757 24.303H22.4034C23.0923 24.303 23.4368 23.9586 23.4368 23.2696C23.4368 22.5807 23.0923 22.2362 22.4034 22.2362H9.98757Z" fill="#461111" />
    <path d="M16.2031 5.09418C15.4027 5.09418 15.0025 5.48929 15.0025 6.27953C15.0025 7.0799 15.4027 7.48008 16.2031 7.48008C16.9933 7.48008 17.3885 7.0799 17.3885 6.27953C17.3885 5.48929 16.9933 5.09418 16.2031 5.09418ZM19.668 11.6744C19.6072 10.8031 19.2425 10.0686 18.5738 9.47087C17.9051 8.863 17.1149 8.55906 16.2031 8.55906C15.2812 8.55906 14.496 8.863 13.8476 9.47087C13.2093 10.0686 12.9256 10.8031 12.9966 11.6744C13.8577 11.6947 14.5162 11.5275 14.9722 11.1729C15.4382 10.8082 15.8485 10.3371 16.2031 9.75961C16.5374 10.3574 17.0085 10.8437 17.6164 11.2185C18.2243 11.5832 18.9081 11.7352 19.668 11.6744ZM10.0332 16.5678L12.0848 15.5344L14.1819 16.5678L12.0848 17.6012L10.0332 16.5678ZM18.2091 16.5678L20.2607 15.5344L22.373 16.5678L20.2607 17.6012L18.2091 16.5678ZM14.1515 17.7076L16.2031 16.6742L18.3003 17.7076L16.2031 18.741L14.1515 17.7076ZM14.1515 15.2153L16.2031 14.1819L18.3003 15.2153L16.2031 16.2487L14.1515 15.2153ZM7.40411 25.382C6.35047 25.382 5.82364 25.9037 5.82364 26.9473V26.9625C5.82364 28.006 6.35047 28.5277 7.40411 28.5277H25.0021C26.0456 28.5277 26.5674 28.006 26.5674 26.9625V26.9473C26.5674 25.9037 26.0456 25.382 25.0021 25.382H7.40411ZM21.3852 21.2636L26.0355 12.5254C25.6809 12.6977 25.3111 12.7889 24.9261 12.799C24.1865 12.8496 23.528 12.414 22.9505 11.4921C22.7074 11.8872 22.2059 12.2316 21.446 12.5254C20.6862 12.8192 19.9365 12.9104 19.1969 12.799C18.5586 12.7179 17.9761 12.5812 17.4492 12.3887C16.9224 12.1962 16.507 11.9024 16.2031 11.5073C15.4939 12.3887 14.4909 12.8192 13.1941 12.799C11.3198 12.799 10.0889 12.3279 9.50128 11.3857C8.99472 12.2164 8.32099 12.6875 7.4801 12.799C7.20655 12.8496 6.83676 12.7585 6.37073 12.5254L11.021 21.2636H21.3852ZM9.98758 22.2362C9.30879 22.2362 8.96939 22.5807 8.96939 23.2696C8.96939 23.9586 9.30879 24.303 9.98758 24.303H22.4034C23.0923 24.303 23.4368 23.9586 23.4368 23.2696C23.4368 22.5807 23.0923 22.2362 22.4034 22.2362H9.98758Z" fill="#F0D290" />
  </g>
  <g id="wr" fill="none" transform="scale(1.25 1.25)">
    <path d="M7.65945 25.7953C6.6058 25.7953 6.07898 26.3171 6.07898 27.3606V27.3758C6.07898 28.4193 6.6058 28.941 7.65945 28.941H25.2574C26.3009 28.941 26.8227 28.4193 26.8227 27.3758V27.3606C26.8227 26.3171 26.3009 25.7953 25.2574 25.7953H7.65945ZM23.9961 24.2148L25.303 24.7163C26.0122 24.7163 26.6201 24.9747 27.1266 25.4914C27.6433 25.9979 27.9017 26.6058 27.9017 27.315C27.9017 28.0343 27.6433 28.6472 27.1266 29.1538C26.6201 29.6604 26.0122 29.9137 25.303 29.9137H7.61386C6.88441 29.9137 6.26641 29.6604 5.75984 29.1538C5.25328 28.6472 5 28.0343 5 27.315C5 26.6058 5.25328 25.9979 5.75984 25.4914C6.26641 24.9747 6.88441 24.7163 7.61386 24.7163L8.98158 24.2148C9.41722 21.8644 9.7009 19.6608 9.83261 17.6042C9.96431 15.5475 10.1011 13.4301 10.2429 11.2519V9.18512H8.14575V3H12.2945V6.03937H14.4069V3H18.51V6.03937H20.6224V3H24.7711V9.18512H22.674C22.674 9.53972 22.674 9.88925 22.674 10.2337C22.674 10.5782 22.674 10.9176 22.674 11.2519C22.7449 13.5314 22.8614 15.6742 23.0235 17.6802C23.1957 19.6862 23.5199 21.8644 23.9961 24.2148ZM11.0939 14.2457L11.8082 14.2305V11.9054H11.2763L11.0939 14.2457ZM10.8052 17.7714L13.8598 17.7562V15.3855L11.0028 15.4006L10.8052 17.7714ZM10.5469 21.2362H11.8082V18.9263H10.7292L10.5469 21.2362ZM10.2429 24.7163H13.8598V22.3912L10.4405 22.4064L10.2429 24.7163ZM21.8229 14.2305L21.6558 11.9054H21.1087V14.2305H21.8229ZM22.1573 17.7562L21.9445 15.3854H19.0419V17.7562H22.1573ZM22.4308 21.2362L22.2029 18.9263H21.1087V21.2362H22.4308ZM22.674 24.7163L22.4764 22.3912H19.0419V24.7163H22.674ZM12.8416 11.9054V14.2305H15.9114V11.9054H12.8416ZM16.9903 11.9054V14.2305H20.0753V11.9054H16.9903ZM12.8416 18.9263V21.2362H15.9114V18.9263H12.8416ZM16.9903 18.9263V21.2362H20.0753V18.9263H16.9903ZM14.8932 15.3854V17.7562H18.0237V15.3854H14.8932ZM14.8932 22.3912V24.7163H18.0237V22.3912H14.8932ZM11.2763 10.7656H21.6406V8.21252H23.6921V3.9878H21.6406V7.13355H17.4766V3.9878H15.4251V7.13355H11.2763V3.9878H9.22473V8.21252H11.2763V10.7656Z" fill="#461111" />
    <path d="M7.65942 25.7953C6.60577 25.7953 6.07895 26.3171 6.07895 27.3606V27.3758C6.07895 28.4193 6.60577 28.941 7.65942 28.941H25.2574C26.3009 28.941 26.8227 28.4193 26.8227 27.3758V27.3606C26.8227 26.3171 26.3009 25.7953 25.2574 25.7953H7.65942ZM11.0939 14.2457L11.8082 14.2305V11.9054H11.2763L11.0939 14.2457ZM10.8052 17.7713L13.8597 17.7562V15.3854L11.0027 15.4006L10.8052 17.7713ZM10.5468 21.2362H11.8082V18.9263H10.7292L10.5468 21.2362ZM10.2429 24.7163H13.8597V22.3912L10.4404 22.4064L10.2429 24.7163ZM21.8229 14.2305L21.6557 11.9054H21.1086V14.2305H21.8229ZM22.1572 17.7562L21.9445 15.3854H19.0419V17.7562H22.1572ZM22.4308 21.2362L22.2028 18.9263H21.1086V21.2362H22.4308ZM22.6739 24.7163L22.4764 22.3912H19.0419V24.7163H22.6739ZM12.8416 11.9054V14.2305H15.9113V11.9054H12.8416ZM16.9903 11.9054V14.2305H20.0753V11.9054H16.9903ZM12.8416 18.9263V21.2362H15.9113V18.9263H12.8416ZM16.9903 18.9263V21.2362H20.0753V18.9263H16.9903ZM14.8931 15.3854V17.7562H18.0237V15.3854H14.8931ZM14.8931 22.3912V24.7163H18.0237V22.3912H14.8931ZM11.2763 10.7656H21.6405V8.21252H23.6921V3.98779H21.6405V7.13354H17.4766V3.98779H15.425V7.13354H11.2763V3.98779H9.2247V8.21252H11.2763V10.7656Z" fill="#F0D290" />
  </g>
</svg>