<svg xmlns="http://www.w3.org/2000/svg" width="40" height="40" viewbox="0.0 0.0 180.0 180.0">
  <g id="bb" fill="none" transform="scale(0.2222222222222222 0.2222222222222222)">
    <path d="M120.857 123.839C121.114 123.583 121.754 123.071 122.779 122.302C132.005 115.178 137.591 105.44 139.539 93.0881C141.538 80.685 139.308 69.3579 132.851 59.1075C128.34 52.0345 122.574 46.8835 115.553 43.6546C108.582 40.3744 101.458 39.1956 94.1805 40.1182C104.636 42.5783 113.375 48.498 120.396 57.8773C127.469 67.2564 131.005 78.1222 131.005 90.4742C131.005 99.3921 129.211 107.593 125.624 115.076C123.676 117.792 122.087 120.713 120.857 123.839ZM53.2805 71.5618L53.2036 78.1734C56.5864 79.8649 60.7888 80.9409 65.8119 81.4022C72.8848 82.1711 79.6241 81.1204 86.031 78.2505C92.4891 75.3801 98.1776 71.1776 103.098 65.6421L101.022 60.1065C96.7686 65.4373 91.5919 69.5374 85.4927 72.4072C79.3935 75.2777 72.9613 76.3537 66.1961 75.6366C61.5319 75.1753 57.2271 73.8169 53.2804 71.5618H53.2805ZM56.5093 122.456C60.1999 122.661 63.8899 122.584 67.5799 122.225C75.4217 121.457 82.5969 118.407 89.1062 113.077C94.7441 108.464 99.2542 102.698 102.637 95.7786L97.1786 95.7021C94.8206 100.161 91.1818 104.363 86.2616 108.31C79.7524 113.64 72.8078 116.459 65.4272 116.767C60.8659 117.125 56.5864 116.767 52.5886 115.69L56.5093 122.456ZM68.0411 144.674C66.4014 144.674 65.5813 145.571 65.5813 147.365V147.442C65.5813 149.236 66.4014 150.132 68.0411 150.132H112.478C114.118 150.132 114.938 149.236 114.938 147.442V147.365C114.938 145.571 114.118 144.674 112.478 144.674H68.0411ZM63.9669 145.135C63.6081 140.164 61.8908 135.756 58.8156 131.912C55.7918 128.017 53.1523 124.147 50.8972 120.303C46.8995 119.432 43.0811 117.843 39.4422 115.537C36.2645 108.976 34.4194 102.006 33.9069 94.6254C33.3944 87.2449 34.1375 80.0955 36.1364 73.1762L50.6666 74.7141C50.0515 62.5669 52.5886 51.9063 58.2778 42.7321C64.0181 33.5578 71.3216 28.6888 80.1883 28.125C80.3419 30.3801 80.8802 33.4297 81.8027 37.2736C91.6942 32.0458 102.125 30.9695 113.092 34.0447C124.061 37.1199 132.851 43.8083 139.462 54.1102C146.74 65.6421 149.277 78.3529 147.073 92.2421C144.869 106.132 138.54 117.1 128.084 125.147C125.675 126.992 123.189 128.555 120.626 129.836C120.114 131.015 119.653 132.04 119.243 132.911C118.833 133.783 118.551 135.218 118.397 137.217C118.244 138.805 118.141 140.164 118.09 141.291C118.038 142.419 117.936 143.674 117.782 145.059C120.242 144.904 122.472 145.827 124.471 147.826C126.47 149.825 127.469 152.234 127.469 155.053V163.048H54.2799V155.053C54.2799 152.387 55.2537 150.03 57.2012 147.98C59.1491 145.878 61.4042 144.93 63.9669 145.135Z" fill="#1C1124" />
    <path d="M120.857 123.84C121.114 123.584 121.754 123.071 122.779 122.302C132.005 115.178 137.591 105.44 139.539 93.0881C141.538 80.685 139.308 69.3579 132.85 59.1075C128.34 52.0346 122.574 46.8837 115.553 43.6547C108.582 40.3746 101.458 39.1957 94.1799 40.1183C104.636 42.5784 113.374 48.4981 120.396 57.8773C127.469 67.2564 131.005 78.1222 131.005 90.4742C131.005 99.3921 129.211 107.593 125.624 115.076C123.676 117.792 122.087 120.714 120.857 123.84ZM53.2804 71.5618L53.2035 78.1734C56.5864 79.8649 60.7888 80.9409 65.8114 81.4022C72.8848 82.1711 79.6241 81.1204 86.031 78.2505C92.4885 75.3801 98.1776 71.1776 103.098 65.6421L101.022 60.1071C96.7686 65.4373 91.5919 69.5374 85.4927 72.4078C79.3935 75.2777 72.9613 76.3543 66.1961 75.6366C61.5319 75.1753 57.2271 73.8169 53.2804 71.5618ZM56.5093 122.456C60.1993 122.661 63.8899 122.584 67.5799 122.226C75.4217 121.457 82.5969 118.407 89.1062 113.077C94.7441 108.464 99.2543 102.698 102.637 95.7791L97.1786 95.7021C94.8206 100.161 91.1818 104.363 86.2616 108.31C79.7524 113.64 72.8078 116.459 65.4272 116.767C60.8659 117.125 56.5864 116.767 52.5885 115.69L56.5093 122.456ZM68.0411 144.674C66.4009 144.674 65.5813 145.571 65.5813 147.365V147.442C65.5813 149.236 66.4009 150.132 68.0411 150.132H112.478C114.118 150.132 114.937 149.236 114.937 147.442V147.365C114.937 145.571 114.118 144.674 112.478 144.674H68.0411Z" fill="#DE774E" />
  </g>
  <g id="bk" fill="none" transform="scale(0.2222222222222222 0.2222222222222222)">
    <path d="M146.596 121.994C146.596 124.967 145.52 127.479 143.367 129.529C141.266 131.528 138.805 132.501 135.987 132.45H120.688V142.829C123.506 142.829 125.941 143.905 127.991 146.058C130.041 148.159 131.066 150.645 131.066 153.515V161.203H52.342V153.515C52.342 150.645 53.3414 148.159 55.3403 146.058C57.3902 143.957 59.8506 142.88 62.7204 142.829V132.45H47.4217C44.5003 132.45 42.0401 131.451 40.0413 129.452C38.0424 127.402 37.043 124.967 37.043 122.149L36.9661 111.309L28.9707 67.0258C28.4069 65.2832 28.125 63.4894 28.125 61.6444C28.125 55.9041 30.1495 50.9838 34.1985 46.8835C38.2987 42.7833 43.219 40.7332 48.9593 40.7332C50.9069 40.7332 52.9058 41.0407 54.9559 41.6558L78.6347 47.9599C79.6084 46.4223 80.8897 45.0897 82.4788 43.9621C79.8649 42.2708 78.5576 40.0925 78.5576 37.4274C78.5576 34.8648 79.839 32.6865 82.4018 30.8927C84.9645 29.0476 88.065 28.125 91.7044 28.125C95.292 28.125 98.3672 29.0476 100.93 30.8927C103.492 32.6865 104.773 34.8648 104.773 37.4274C104.773 39.8875 103.595 42.0145 101.237 43.8083C102.877 45.1922 104.133 46.576 105.004 47.9599L128.683 41.6558C130.682 41.0407 132.681 40.7332 134.679 40.7332C140.369 40.7332 145.263 42.7833 149.363 46.8835C153.464 50.9838 155.514 55.9041 155.514 61.6444C155.514 63.4894 155.232 65.2832 154.668 67.0258L146.596 111.309V121.994ZM91.6273 43.1165C86.6048 43.1165 84.0932 43.7828 84.0932 45.1153C84.0932 46.4479 86.6048 47.1142 91.6273 47.1142C96.5987 47.1142 99.0844 46.4479 99.0844 45.1153C99.0844 43.7828 96.5987 43.1165 91.6273 43.1165ZM68.7173 143.137C66.8211 143.137 65.8727 144.008 65.8727 145.75C65.8727 147.493 66.8211 148.364 68.7173 148.364H114.691C116.587 148.364 117.536 147.493 117.536 145.75C117.536 144.008 116.587 143.137 114.691 143.137H68.7173ZM129.452 103.774L133.987 75.2518C134.705 73.3044 135.064 71.3565 135.064 69.4091C135.064 65.8727 133.911 62.8487 131.604 60.3377C129.349 57.7749 126.608 56.4936 123.378 56.4936C121.79 56.4936 120.149 56.9036 118.458 57.7238L105.773 61.7979L104.159 84.708C114.358 88.0909 122.789 94.446 129.452 103.774ZM54.2639 103.006C61.1831 93.8824 69.6909 87.732 79.7878 84.5544L77.8658 61.875L65.2579 57.8003C63.4641 56.9801 61.7979 56.5701 60.2606 56.5701C57.0319 56.5701 54.2639 57.8514 51.9576 60.4142C49.6512 62.9258 48.498 65.9497 48.498 69.4862C48.498 71.28 48.8824 73.2274 49.6512 75.3289L54.2639 103.006ZM45.1153 110.001C43.3727 110.001 42.5014 110.95 42.5014 112.846C42.5014 114.793 43.3727 115.768 45.1153 115.768H138.293C140.035 115.768 140.907 114.793 140.907 112.846C140.907 110.95 140.035 110.001 138.293 110.001H45.1153ZM68.7173 127.453C66.8211 127.453 65.8727 128.324 65.8727 130.067C65.8727 131.809 66.8211 132.681 68.7173 132.681H114.691C116.587 132.681 117.536 131.809 117.536 130.067C117.536 128.324 116.587 127.453 114.691 127.453H68.7173Z" fill="#1C1124" />
    <path d="M91.6273 43.1165C86.6042 43.1165 84.0932 43.7828 84.0932 45.1153C84.0932 46.4479 86.6042 47.1142 91.6273 47.1142C96.5987 47.1142 99.0844 46.4479 99.0844 45.1153C99.0844 43.7828 96.5987 43.1165 91.6273 43.1165ZM68.7172 143.137C66.8205 143.137 65.8727 144.008 65.8727 145.751C65.8727 147.493 66.8205 148.364 68.7172 148.364H114.691C116.587 148.364 117.535 147.493 117.535 145.751C117.535 144.008 116.587 143.137 114.691 143.137H68.7172ZM45.1152 110.001C43.3726 110.001 42.5013 110.95 42.5013 112.846C42.5013 114.793 43.3726 115.768 45.1152 115.768H138.293C140.035 115.768 140.907 114.793 140.907 112.846C140.907 110.95 140.035 110.001 138.293 110.001H45.1152ZM68.7172 127.453C66.8205 127.453 65.8727 128.324 65.8727 130.067C65.8727 131.809 66.8205 132.681 68.7172 132.681H114.691C116.587 132.681 117.535 131.809 117.535 130.067C117.535 128.324 116.587 127.453 114.691 127.453H68.7172Z" fill="#DE774E" />
  </g>
  <g id="bn" fill="none" transform="scale(0.2222222222222222 0.2222222222222222)">
    <path d="M70.3446 145.135C68.6019 145.135 67.7306 146.006 67.7306 147.749C67.7306 149.492 68.6019 150.363 70.3446 150.363H112.167C113.91 150.363 114.781 149.492 114.781 147.749C114.781 146.006 113.91 145.135 112.167 145.135H70.3446ZM117.472 145.135C120.393 145.135 122.879 146.16 124.929 148.21C127.03 150.209 128.081 152.669 128.081 155.591V163.509H54.8151V155.591C54.8151 152.72 55.7377 150.261 57.5826 148.21C59.4281 146.16 61.9138 145.135 65.0402 145.135C65.8091 144.52 66.1933 144.11 66.1933 143.905C66.1933 138.678 64.6813 134.193 61.6573 130.451C58.6845 131.784 55.6095 132.168 52.4319 131.605C48.1266 130.836 44.6926 128.657 42.13 125.07C39.6186 121.482 38.8242 117.51 39.7467 113.154L45.0515 71.0235C43.6164 69.0249 42.4632 67.1799 41.5919 65.4885C42.4119 56.1603 44.9746 47.3448 49.2798 39.0418C48.8185 34.6341 48.8185 30.9952 49.2798 28.125C57.4802 32.789 65.7832 35.7104 74.1887 36.8893C76.905 37.453 79.6213 38.1706 82.3376 39.0418C86.1306 38.8369 90.2306 39.1187 94.6384 39.8875C99.1491 40.7076 103.531 41.9889 107.785 43.7315C112.039 45.4228 116.472 47.4986 121.085 49.9587C128.414 51.4963 133.232 55.289 135.538 61.3367C137.024 65.6421 136.999 69.9216 135.461 74.1758C140.023 77.7634 142.303 82.4529 142.303 88.2444C142.303 92.9087 140.612 97.4188 137.23 101.775C139.434 109.156 138.485 115.28 134.385 120.149C131.618 125.07 128.158 129.401 124.006 133.142C120.316 136.064 118.138 140.061 117.471 145.135H117.472ZM122.776 118.304C123.391 116.459 124.16 113.999 125.083 110.924C125.698 109.54 125.006 108.541 123.007 107.926C120.957 107.465 119.65 108.003 119.086 109.54C118.779 110.565 118.471 111.667 118.164 112.846C117.907 114.025 117.574 115.178 117.164 116.305C116.703 118.253 117.42 119.432 119.317 119.842C121.264 120.355 122.417 119.842 122.776 118.304ZM121.854 96.5475C121.597 98.5978 122.443 99.6486 124.391 99.6997C126.39 99.9045 127.517 99.2638 127.774 97.7777C127.876 95.7274 127.902 93.2676 127.851 90.3971C128.209 88.8598 127.363 87.8856 125.313 87.4761C123.161 87.2196 121.931 88.1162 121.623 90.1665C121.623 91.3455 121.674 92.4474 121.777 93.4723C121.879 94.446 121.905 95.4714 121.854 96.5475ZM69.0379 53.5721C68.1666 53.1107 66.9622 53.4952 65.4244 54.7252C63.8871 55.9553 62.5033 57.672 61.2731 59.8759C59.9406 62.1315 59.1204 64.2324 58.8127 66.1804C58.5051 68.1277 58.7874 69.3321 59.6587 69.7933C60.4783 70.3063 61.6573 69.9474 63.1952 68.7173C64.7325 67.4871 66.1674 65.7444 67.5 63.4894C68.7814 61.2343 69.5762 59.1328 69.8833 57.1854C70.191 55.2377 69.9092 54.0333 69.0379 53.5721ZM65.0402 127.837C67.9612 125.326 69.7809 122.276 70.4987 118.689C70.6522 117.356 70.4216 115.947 69.8068 114.46C69.2426 112.923 69.4479 111.693 70.4216 110.77C76.572 105.081 81.8764 99.9045 86.3359 95.2408C90.7948 90.5254 94.1518 84.1956 96.4069 76.2514C96.9705 73.7398 96.5351 72.3561 95.0996 72.1001C92.691 71.6901 91.3072 72.3308 90.9484 74.0222C88.7445 81.8634 85.2339 88.1932 80.4161 93.0111C75.5983 97.8289 70.0627 103.21 63.81 109.156C62.6822 110.232 62.6569 111.59 63.7329 113.23C64.8607 114.87 65.2961 116.382 65.0402 117.766C64.5789 120.329 63.1693 122.507 60.8119 124.301C59.1204 125.89 59.0434 127.299 60.5812 128.53C62.0162 129.606 63.5023 129.375 65.0402 127.837ZM92.5627 49.7281C99.5332 53.8283 105.607 58.9534 110.783 65.1038C112.218 66.4363 113.525 66.3598 114.704 64.8731C115.883 63.5406 115.806 62.2851 114.473 61.1061C109.041 54.5459 102.839 49.2924 95.8686 45.3459C94.5872 44.4234 93.357 44.6284 92.1786 45.961C91.0507 47.3961 91.179 48.6518 92.5627 49.7281ZM118.164 78.0199C118.369 79.8137 119.342 80.5309 121.085 80.172C122.982 79.9161 123.827 79.0701 123.622 77.6351C123.212 75.6877 122.648 73.5351 121.931 71.1776C121.931 69.7421 120.982 69.1014 119.086 69.2556C117.138 69.4603 116.267 70.5369 116.472 72.4843C116.728 73.458 117.011 74.3805 117.318 75.2518C117.625 76.1231 117.907 77.0456 118.164 78.0199Z" fill="#1C1124" />
    <path d="M70.3451 145.135C68.6025 145.135 67.7312 146.006 67.7312 147.749C67.7312 149.492 68.6025 150.363 70.3451 150.363H112.167C113.91 150.363 114.781 149.492 114.781 147.749C114.781 146.006 113.91 145.135 112.167 145.135H70.3451ZM122.777 118.304C123.392 116.459 124.161 113.999 125.083 110.924C125.698 109.54 125.006 108.541 123.008 107.926C120.957 107.464 119.65 108.002 119.086 109.54C118.779 110.565 118.472 111.667 118.164 112.846C117.907 114.025 117.574 115.178 117.164 116.305C116.703 118.253 117.421 119.432 119.317 119.842C121.265 120.354 122.418 119.842 122.777 118.304ZM121.854 96.5475C121.598 98.5978 122.443 99.648 124.391 99.6997C126.39 99.9045 127.518 99.2638 127.774 97.7777C127.876 95.7274 127.902 93.267 127.851 90.3971C128.21 88.8593 127.364 87.8856 125.314 87.4755C123.161 87.2196 121.931 88.1162 121.624 90.1665C121.624 91.3455 121.675 92.4474 121.777 93.4723C121.88 94.446 121.905 95.4709 121.854 96.5475ZM69.0379 53.5719C68.1666 53.1107 66.9623 53.495 65.4249 54.7251C63.8871 55.9552 62.5033 57.672 61.2731 59.8759C59.9406 62.1309 59.1204 64.2324 58.8133 66.1804C58.5056 68.1278 58.7874 69.3321 59.6588 69.7933C60.4789 70.3057 61.6579 69.9474 63.1952 68.7173C64.7325 67.4871 66.168 65.7444 67.5006 63.4894C68.7819 61.2343 69.5762 59.1328 69.8839 57.1854C70.191 55.2377 69.9092 54.0332 69.0379 53.5719ZM65.0402 127.837C67.9618 125.326 69.7809 122.276 70.4987 118.689C70.6523 117.356 70.4216 115.946 69.8068 114.46C69.2432 112.923 69.4479 111.693 70.4216 110.77C76.572 105.081 81.8769 99.9045 86.3359 95.2403C90.7948 90.5254 94.1518 84.1956 96.4069 76.2514C96.9711 73.7398 96.5351 72.3561 95.1002 72.1001C92.691 71.6901 91.3073 72.3308 90.9484 74.0216C88.7445 81.8634 85.2339 88.1932 80.4161 93.0111C75.5983 97.8289 70.0633 103.21 63.81 109.155C62.6828 110.232 62.6569 111.59 63.7335 113.23C64.8608 114.87 65.2967 116.382 65.0402 117.766C64.5789 120.329 63.1693 122.507 60.8119 124.301C59.1204 125.89 59.0439 127.299 60.5813 128.529C62.0162 129.606 63.5029 129.375 65.0402 127.837ZM92.5633 49.728C99.5333 53.8282 105.607 58.9534 110.783 65.1038C112.219 66.4363 113.525 66.3598 114.704 64.8731C115.883 63.5406 115.806 62.2851 114.474 61.1061C109.041 54.5457 102.839 49.2923 95.8691 45.3459C94.5878 44.4233 93.3576 44.6284 92.1786 45.9609C91.0513 47.396 91.179 48.6517 92.5633 49.728ZM118.164 78.0193C118.369 79.8131 119.343 80.5309 121.085 80.172C122.982 79.9161 123.827 79.0701 123.622 77.6351C123.212 75.6878 122.649 73.5351 121.931 71.1771C121.931 69.7421 120.983 69.1014 119.086 69.2556C117.139 69.4603 116.268 70.5364 116.472 72.4843C116.729 73.458 117.011 74.3805 117.318 75.2518C117.626 76.1231 117.907 77.0456 118.164 78.0193Z" fill="#DE774E" />
  </g>
  <g id="bp" fill="none" transform="scale(0.2222222222222222 0.2222222222222222)">
    <path d="M99.2897 54.4177H118.74V59.6452H95.2149C95.8297 70.7164 97.7777 81.9917 101.058 93.4723C104.338 104.953 110.13 113.897 118.433 120.303C118.433 125.531 117.1 130.451 114.435 135.064C111.821 139.625 108.438 143.367 104.287 146.288L113.666 146.365C116.434 146.365 118.817 147.39 120.816 149.44C122.866 151.491 123.891 153.925 123.891 156.744V164.739H50.7019L50.625 156.898C50.625 153.977 51.65 151.491 53.7002 149.44C55.7503 147.39 58.2362 146.365 61.1573 146.365L70.4599 146.288C66.1033 143.316 62.5416 139.523 59.7735 134.911C57.006 130.246 55.6221 125.377 55.6221 120.303C63.8741 113.897 69.7168 104.953 73.1509 93.4723C76.5844 81.9917 78.6606 70.7164 79.3777 59.6452H55.8528V54.4177H75.5336C72.8173 51.4963 71.4594 48.0111 71.4594 43.9621C71.4594 39.6056 72.9968 35.8898 76.0719 32.8146C79.1471 29.6882 82.8889 28.125 87.2966 28.125C91.6014 28.125 95.3173 29.6882 98.4437 32.8146C101.57 35.8898 103.133 39.6056 103.133 43.9621C103.133 48.0111 101.852 51.4963 99.2897 54.4177ZM63.6176 117.536C61.9262 117.536 61.0807 118.407 61.0807 120.149C61.0807 121.892 61.9262 122.763 63.6176 122.763H110.899C112.641 122.763 113.513 121.892 113.513 120.149C113.513 118.407 112.641 117.536 110.899 117.536H63.6176ZM75.3801 144.751C73.7916 144.751 72.9967 145.622 72.9967 147.365C72.9967 149.108 73.7916 149.979 75.3801 149.979H99.2126C100.751 149.979 101.519 149.108 101.519 147.365C101.519 145.622 100.751 144.751 99.2126 144.751H75.3801Z" fill="#1C1124" />
    <path d="M63.6176 117.536C61.9262 117.536 61.0807 118.407 61.0807 120.149C61.0807 121.892 61.9262 122.763 63.6176 122.763H110.899C112.641 122.763 113.512 121.892 113.512 120.149C113.512 118.407 112.641 117.536 110.899 117.536H63.6176ZM75.3801 144.751C73.791 144.751 72.9967 145.622 72.9967 147.365C72.9967 149.108 73.791 149.979 75.3801 149.979H99.2126C100.751 149.979 101.519 149.108 101.519 147.365C101.519 145.622 100.751 144.751 99.2126 144.751H75.3801Z" fill="#DE774E" />
  </g>
  <g id="bq" fill="none" transform="scale(0.2222222222222222 0.2222222222222222)">
    <path d="M50.7787 155.053C50.7787 152.132 51.7782 149.645 53.777 147.596C55.8272 145.545 58.2874 144.52 61.1573 144.52V134.91H57.3137C53.8796 135.372 50.5225 134.501 47.2423 132.297C44.0134 130.041 41.8095 126.684 40.6307 122.225L27.2537 59.4917C29.4576 59.3893 31.559 58.7228 33.5578 57.4931L45.3203 87.6296C45.5766 91.0637 47.2423 92.6781 50.3175 92.4728C53.4952 92.3192 54.9046 90.5254 54.5459 87.0913L55.7759 54.3408C56.9036 54.5459 57.9285 54.6483 58.851 54.6483C60.9525 54.6483 63.0793 54.0077 65.232 52.7264L69.9986 86.0153C70.3063 90.1665 72.1254 92.2421 75.4571 92.2421C78.7883 92.2421 80.5056 90.423 80.6079 86.7836L85.1439 48.1905C86.5789 49.318 88.2956 49.8818 90.2948 49.8818C92.6522 49.8818 94.6254 49.2412 96.2145 47.9598L100.596 86.7836C100.648 90.423 102.39 92.2421 105.824 92.2421C109.105 92.2421 110.899 90.1665 111.206 86.0153L116.357 53.1107C118.099 54.1358 119.919 54.6483 121.815 54.6483C122.533 54.6483 123.814 54.4946 125.659 54.1871L126.735 87.0913C126.326 90.5254 127.735 92.3192 130.964 92.4728C133.988 92.6781 135.654 91.0637 135.961 87.6296L147.954 57.0319C149.953 58.518 152.157 59.3634 154.566 59.5688L140.65 122.225C139.421 126.684 137.089 130.041 133.655 132.297C130.272 134.501 126.863 135.372 123.429 134.91H119.125V144.52C121.943 144.52 124.378 145.545 126.428 147.596C128.478 149.645 129.503 152.132 129.503 155.053V162.894H50.7787V155.053ZM27.6381 58.7998C24.6655 58.7998 22.1284 57.7491 20.027 55.6478C17.9257 53.5464 16.875 51.035 16.875 48.1136C16.875 45.1922 17.9257 42.6808 20.027 40.5794C22.1284 38.4781 24.6655 37.4274 27.6381 37.4274C30.5595 37.4274 33.0709 38.4781 35.1723 40.5794C37.2736 42.6808 38.3243 45.1922 38.3243 48.1136C38.3243 51.035 37.2736 53.5464 35.1723 55.6478C33.0709 57.7491 30.5595 58.7998 27.6381 58.7998ZM58.851 54.2639C55.8784 54.2639 53.3414 53.2133 51.24 51.1119C49.1387 49.0105 48.088 46.4735 48.088 43.5008C48.088 40.5794 49.1387 38.068 51.24 35.9667C53.3414 33.8653 55.8784 32.8146 58.851 32.8146C61.7726 32.8146 64.2836 33.8653 66.3851 35.9667C68.4866 38.068 69.5374 40.5794 69.5374 43.5008C69.5374 46.4735 68.4866 49.0105 66.3851 51.1119C64.2836 53.2133 61.7726 54.2639 58.851 54.2639ZM121.815 54.4177C118.843 54.4177 116.305 53.367 114.204 51.2656C112.154 49.1643 111.129 46.6273 111.129 43.6546C111.129 40.7332 112.154 38.2218 114.204 36.1204C116.305 34.0191 118.843 32.9684 121.815 32.9684C124.737 32.9684 127.248 34.0191 129.349 36.1204C131.451 38.2218 132.501 40.7332 132.501 43.6546C132.501 46.6273 131.451 49.1643 129.349 51.2656C127.248 53.367 124.737 54.4177 121.815 54.4177ZM90.6024 49.4974C87.6296 49.4974 85.0928 48.4468 82.9913 46.3454C80.9409 44.244 79.9161 41.7326 79.9161 38.8112C79.9161 35.8898 80.9409 33.3784 82.9913 31.277C85.0928 29.1757 87.6296 28.125 90.6024 28.125C93.5235 28.125 96.0351 29.1757 98.1366 31.277C100.238 33.3784 101.288 35.8898 101.288 38.8112C101.288 41.7326 100.238 44.244 98.1366 46.3454C96.0351 48.4468 93.5235 49.4974 90.6024 49.4974ZM154.873 59.3381C151.9 59.3381 149.363 58.3127 147.262 56.2629C145.212 54.1614 144.187 51.6245 144.187 48.6518C144.187 45.7304 145.212 43.219 147.262 41.1176C149.363 39.0162 151.9 37.9655 154.873 37.9655C157.795 37.9655 160.306 39.0162 162.407 41.1176C164.509 43.219 165.56 45.7304 165.56 48.6518C165.56 51.6245 164.509 54.1614 162.407 56.2629C160.306 58.3127 157.795 59.3381 154.873 59.3381ZM67.3847 144.52C65.4373 144.52 64.4631 145.392 64.4631 147.134C64.4631 148.877 65.4373 149.748 67.3847 149.748H113.281C115.229 149.748 116.203 148.877 116.203 147.134C116.203 145.392 115.229 144.52 113.281 144.52H67.3847ZM67.3847 130.451C65.4373 130.451 64.4631 131.322 64.4631 133.065C64.4631 134.808 65.4373 135.679 67.3847 135.679H113.281C115.229 135.679 116.203 134.808 116.203 133.065C116.203 131.322 115.229 130.451 113.281 130.451H67.3847ZM48.3955 105.004C46.6529 105.004 45.7816 105.953 45.7816 107.849C45.7816 109.797 46.6529 110.77 48.3955 110.77H132.271C134.013 110.77 134.885 109.797 134.885 107.849C134.885 105.953 134.013 105.004 132.271 105.004H48.3955Z" fill="#1C1124" />
    <path d="M67.3847 144.52C65.4368 144.52 64.4631 145.392 64.4631 147.134C64.4631 148.877 65.4368 149.748 67.3847 149.748H113.281C115.229 149.748 116.203 148.877 116.203 147.134C116.203 145.392 115.229 144.52 113.281 144.52H67.3847ZM67.3847 130.451C65.4368 130.451 64.4631 131.322 64.4631 133.065C64.4631 134.808 65.4368 135.679 67.3847 135.679H113.281C115.229 135.679 116.203 134.808 116.203 133.065C116.203 131.322 115.229 130.451 113.281 130.451H67.3847ZM48.3953 105.004C46.6527 105.004 45.7814 105.952 45.7814 107.849C45.7814 109.797 46.6527 110.77 48.3953 110.77H132.271C134.013 110.77 134.885 109.797 134.885 107.849C134.885 105.952 134.013 105.004 132.271 105.004H48.3953Z" fill="#DE774E" />
  </g>
  <g id="br" fill="none" transform="scale(0.2222222222222222 0.2222222222222222)">
    <path d="M128.952 33.3528V59.4146L118.573 75.4059L128.952 135.525L139.331 146.212V164.586H92.2039H45V146.212L55.4556 135.525L65.8344 75.4059L55.4556 59.4146V33.3528C55.4556 29.9189 57.1984 28.2019 60.6836 28.2019H68.6019C72.036 28.2019 73.7527 30.0214 73.7527 33.6603V54.4946H81.6716V33.5065C81.6716 29.9701 83.4142 28.2019 86.8989 28.2019L92.2039 28.125L97.4317 28.2019C100.917 28.2019 102.66 29.9445 102.66 33.4297V54.4946H110.578V33.3528C110.578 29.9189 112.346 28.2019 115.883 28.2019H123.801C127.235 28.2019 128.952 29.9189 128.952 33.3528ZM81.1333 122.61V142.752H102.967L103.121 122.686L118.42 122.61C120.162 122.61 121.034 121.738 121.034 119.996C121.034 118.253 120.162 117.382 118.42 117.382H102.967C102.967 114.512 101.891 112.077 99.738 110.078C97.5853 108.028 95.0226 107.003 92.0498 107.003C89.0263 107.003 86.4377 108.028 84.285 110.078C82.1841 112.077 81.1333 114.512 81.1333 117.382H65.6803C63.9377 117.382 63.0664 118.253 63.0664 119.996C63.0664 121.738 63.9377 122.61 65.6803 122.61H81.1333ZM57.9926 146.212C56.3012 146.212 55.4556 147.083 55.4556 148.826C55.4556 150.568 56.3012 151.439 57.9926 151.439H126.569C128.311 151.439 129.183 150.568 129.183 148.826C129.183 147.083 128.311 146.212 126.569 146.212H57.9926ZM70.7546 69.8704C69.2685 69.8704 68.5249 70.6134 68.5249 72.1001C68.5249 73.5351 69.2685 74.2528 70.7546 74.2528H113.345C114.832 74.2528 115.575 73.5351 115.575 72.1001C115.575 70.6134 114.832 69.8704 113.345 69.8704H70.7546Z" fill="#1C1124" />
    <path d="M81.1333 122.61V142.752H102.967L103.12 122.686L118.42 122.61C120.162 122.61 121.034 121.739 121.034 119.996C121.034 118.253 120.162 117.382 118.42 117.382H102.967C102.967 114.512 101.891 112.077 99.738 110.078C97.5853 108.028 95.0226 107.003 92.0498 107.003C89.0263 107.003 86.4377 108.028 84.285 110.078C82.1841 112.077 81.1333 114.512 81.1333 117.382H65.6803C63.9377 117.382 63.0664 118.253 63.0664 119.996C63.0664 121.739 63.9377 122.61 65.6803 122.61H81.1333ZM57.9926 146.212C56.3012 146.212 55.4555 147.083 55.4555 148.826C55.4555 150.568 56.3012 151.44 57.9926 151.44H126.569C128.311 151.44 129.183 150.568 129.183 148.826C129.183 147.083 128.311 146.212 126.569 146.212H57.9926ZM70.7546 69.8704C69.2679 69.8704 68.5249 70.6134 68.5249 72.1001C68.5249 73.5351 69.2679 74.2528 70.7546 74.2528H113.345C114.832 74.2528 115.575 73.5351 115.575 72.1001C115.575 70.6134 114.832 69.8704 113.345 69.8704H70.7546Z" fill="#DE774E" />
  </g>
  <g id="wb" fill="none" transform="scale(0.2222222222222222 0.2222222222222222)">
    <path d="M123.01 122.302C123.369 121.994 123.676 121.738 123.932 121.533C124.24 121.277 124.548 121.021 124.855 120.764C133.671 113.589 139.001 103.826 140.846 91.4737C142.742 79.1218 140.615 67.7947 134.465 57.4931C130.16 50.42 124.676 45.269 118.013 42.0401C111.401 38.76 104.636 37.5811 97.7169 38.5037C107.66 40.9638 115.963 46.8835 122.626 56.2629C129.34 65.6421 132.697 76.5332 132.697 88.9363C132.697 97.7006 130.98 105.901 127.546 113.538C125.65 116.305 124.138 119.227 123.01 122.302ZM66.5038 116.382C73.6791 116.075 80.2907 113.41 86.3387 108.387C91.9766 103.774 96.2561 97.9824 99.1772 91.0125C102.099 83.9908 103.508 76.7126 103.405 69.1785C98.8442 74.4064 93.5139 78.3782 87.4147 81.0951C81.3667 83.8114 74.9604 84.8104 68.1953 84.0932C63.5822 83.5807 59.2768 82.2994 55.2794 80.2491L42.2098 78.7882C39.0835 90.2689 39.9804 101.314 44.9006 111.923C51.871 115.562 59.0721 117.049 66.5038 116.382ZM56.7399 74.7141C60.5329 76.8662 64.6329 78.1734 69.0407 78.6347C75.4988 79.3007 81.5979 78.2505 87.3383 75.4824C93.0786 72.7149 98.0241 68.7431 102.176 63.5664C99.2031 61.5161 96.7939 60.3118 94.9489 59.9529C85.365 55.9041 79.1629 47.6524 76.3442 35.1979C70.2962 37.3505 65.4019 42.117 61.6601 49.4974C57.9701 56.8777 56.3299 65.2832 56.7399 74.7141ZM112.093 144.674C111.786 141.547 111.914 138.062 112.478 134.218C113.092 129.554 114.118 125.685 115.553 122.61C117.039 119.535 118.807 116.203 120.857 112.615C124.599 105.337 126.47 97.4447 126.47 88.9363C126.47 76.3284 122.626 65.5397 114.938 56.5701C107.301 47.6011 98.1264 43.1165 87.4147 43.1165C86.3899 43.1165 85.6468 43.1421 85.1856 43.1934C88.1066 48.4212 91.8737 52.1626 96.4868 54.4178C101.305 55.7503 105.482 58.4921 109.018 62.6439C109.941 72.1254 108.787 81.4281 105.558 90.5512C102.329 99.6227 97.1786 107.054 90.1058 112.846C84.0066 117.92 77.1902 120.841 69.6555 121.61C65.7608 121.969 62.1984 121.969 58.9697 121.61C61.4807 123.814 63.8128 127.043 65.9655 131.297C68.1182 135.551 69.579 140.01 70.3479 144.674H112.093ZM122.318 155.053C122.318 151.618 120.575 149.902 117.09 149.902H64.7353C61.1989 149.902 59.4309 151.67 59.4309 155.207V157.82H122.318V155.053ZM63.9669 145.135C63.6081 140.164 61.8908 135.756 58.8156 131.912C55.7918 128.017 53.1523 124.147 50.8972 120.303C46.8995 119.432 43.0811 117.843 39.4422 115.537C36.2645 108.976 34.4194 102.006 33.9069 94.6254C33.3944 87.2449 34.1375 80.0955 36.1364 73.1762L50.6666 74.7141C50.0515 62.5669 52.5886 51.9063 58.2778 42.7321C64.0181 33.5578 71.3216 28.6888 80.1883 28.125C80.3419 30.3801 80.8802 33.4297 81.8027 37.2736C91.6942 32.0458 102.125 30.9695 113.092 34.0447C124.061 37.1199 132.851 43.8084 139.462 54.1102C146.74 65.6421 149.277 78.3529 147.073 92.2421C144.869 106.132 138.54 117.1 128.084 125.147C125.675 126.992 123.189 128.555 120.626 129.836C120.114 131.015 119.653 132.04 119.243 132.911C118.833 133.783 118.551 135.218 118.397 137.217C118.244 138.805 118.141 140.164 118.09 141.291C118.038 142.419 117.936 143.674 117.782 145.059C120.242 144.904 122.472 145.827 124.471 147.826C126.47 149.825 127.469 152.234 127.469 155.053V163.048H54.2799V155.053C54.2799 152.387 55.2537 150.03 57.2012 147.98C59.1491 145.878 61.4042 144.93 63.9669 145.135Z" fill="#1C1124" />
    <path d="M123.01 122.302C123.369 121.994 123.676 121.739 123.932 121.533C124.24 121.277 124.548 121.021 124.855 120.765C133.671 113.589 139.001 103.826 140.846 91.4737C142.742 79.1218 140.615 67.7947 134.465 57.4931C130.16 50.4201 124.676 45.2692 118.013 42.0402C111.401 38.76 104.636 37.5812 97.7169 38.5037C107.66 40.9639 115.963 46.8836 122.626 56.2629C129.34 65.6421 132.697 76.5332 132.697 88.9363C132.697 97.7006 130.98 105.901 127.546 113.538C125.65 116.305 124.138 119.227 123.01 122.302ZM66.5038 116.382C73.6791 116.075 80.2907 113.41 86.3387 108.387C91.9766 103.775 96.2561 97.9824 99.1772 91.0125C102.099 83.9908 103.508 76.7126 103.405 69.1785C98.8442 74.4064 93.5139 78.3787 87.4147 81.0951C81.3673 83.8114 74.9604 84.8109 68.1952 84.0932C63.5822 83.5807 59.2768 82.2994 55.2793 80.2491L42.2099 78.7882C39.0835 90.2689 39.9804 101.314 44.9007 111.923C51.871 115.562 59.0721 117.049 66.5038 116.382ZM56.7399 74.7141C60.5329 76.8668 64.6329 78.1734 69.0407 78.6347C75.4987 79.3012 81.5979 78.2505 87.3382 75.4824C93.0786 72.7149 98.0241 68.7431 102.176 63.5664C99.2031 61.5161 96.7939 60.3118 94.9489 59.9529C85.365 55.9041 79.1634 47.6524 76.3442 35.198C70.2962 37.3506 65.4019 42.1171 61.6601 49.4975C57.9701 56.8777 56.3299 65.2832 56.7399 74.7141ZM112.093 144.674C111.786 141.548 111.914 138.062 112.477 134.219C113.092 129.554 114.118 125.685 115.553 122.61C117.039 119.535 118.807 116.203 120.858 112.615C124.599 105.338 126.47 97.4447 126.47 88.9363C126.47 76.3284 122.626 65.5397 114.938 56.5706C107.301 47.6012 98.127 43.1165 87.4147 43.1165C86.3899 43.1165 85.6468 43.1422 85.1856 43.1935C88.1066 48.4212 91.8737 52.1627 96.4867 54.4178C101.305 55.7504 105.482 58.4927 109.018 62.6439C109.941 72.1254 108.787 81.4281 105.558 90.5512C102.329 99.6227 97.1786 107.054 90.1057 112.846C84.0066 117.92 77.1902 120.841 69.6555 121.61C65.7607 121.969 62.1984 121.969 58.9697 121.61C61.4807 123.814 63.8128 127.043 65.9655 131.297C68.1182 135.551 69.579 140.01 70.3479 144.674H112.093ZM122.318 155.053C122.318 151.618 120.575 149.902 117.09 149.902H64.7353C61.1989 149.902 59.4309 151.67 59.4309 155.207V157.821H122.318V155.053Z" fill="#FF9165" />
  </g>
  <g id="wk" fill="none" transform="scale(0.2222222222222222 0.2222222222222222)">
    <path d="M141.137 121.994V116.767H91.8579H42.5014V121.994C42.5014 125.326 44.1415 127.069 47.4217 127.222H91.8579H136.064C139.446 127.222 141.137 125.48 141.137 121.994ZM146.596 121.994C146.596 124.967 145.52 127.479 143.367 129.529C141.266 131.528 138.805 132.501 135.987 132.45H120.688V142.829C123.506 142.829 125.941 143.905 127.991 146.058C130.041 148.159 131.066 150.645 131.066 153.515V161.203H52.342V153.515C52.342 150.645 53.3414 148.159 55.3403 146.058C57.3902 143.957 59.8506 142.88 62.7204 142.829V132.45H47.4217C44.5003 132.45 42.0401 131.451 40.0413 129.452C38.0424 127.402 37.043 124.967 37.043 122.149L36.9661 111.309L28.9707 67.0258C28.4069 65.2832 28.125 63.4894 28.125 61.6444C28.125 55.9041 30.1495 50.9838 34.1985 46.8835C38.2987 42.7833 43.219 40.7332 48.9593 40.7332C50.9069 40.7332 52.9058 41.0407 54.9559 41.6558L78.6347 47.9599C79.6084 46.4223 80.8897 45.0897 82.4788 43.9621C79.8649 42.2708 78.5576 40.0925 78.5576 37.4274C78.5576 34.8648 79.839 32.6865 82.4018 30.8927C84.9645 29.0476 88.065 28.125 91.7044 28.125C95.292 28.125 98.3672 29.0476 100.93 30.8927C103.492 32.6865 104.773 34.8648 104.773 37.4274C104.773 39.8875 103.595 42.0145 101.237 43.8083C102.877 45.1922 104.133 46.576 105.004 47.9599L128.683 41.6558C130.682 41.0407 132.681 40.7332 134.679 40.7332C140.369 40.7332 145.263 42.7833 149.363 46.8835C153.464 50.9838 155.514 55.9041 155.514 61.6444C155.514 63.4894 155.232 65.2832 154.668 67.0258L146.596 111.309V121.994ZM91.7044 32.8146C87.3478 32.8146 85.1693 34.3522 85.1693 37.4274C85.1693 40.5538 87.3478 42.117 91.7044 42.117C96.0092 42.117 98.1619 40.5538 98.1619 37.4274C98.1619 34.3522 96.0092 32.8146 91.7044 32.8146ZM141.137 111.309L149.44 66.4875C149.953 64.899 150.209 63.2846 150.209 61.6444C150.209 57.339 148.697 53.6745 145.673 50.6507C142.649 47.5755 138.985 46.0379 134.679 46.0379C133.193 46.0379 131.732 46.2685 130.297 46.7298L107.31 53.1107C107.618 54.4433 107.746 55.7247 107.695 56.9548L117.305 54.5714C119.304 53.9564 121.225 53.6489 123.071 53.6489C127.376 53.6489 131.092 55.2121 134.218 58.3386C137.345 61.4137 138.908 65.1296 138.908 69.4862C138.908 71.5359 138.498 73.6121 137.678 75.7131L131.297 111.309H141.137ZM91.8579 111.309H97.3929L102.006 59.6452C101.955 59.0816 101.955 58.5951 102.006 58.185C102.057 57.7237 102.083 57.2625 102.083 56.8007C102.083 54.0333 101.083 51.65 99.0844 49.6512C97.0858 47.6524 94.6766 46.6529 91.8579 46.6529C88.9363 46.6529 86.4765 47.6524 84.4774 49.6512C82.53 51.65 81.5563 54.0333 81.5563 56.8007C81.5563 57.2625 81.5563 57.7237 81.5563 58.185C81.6075 58.5951 81.6328 59.0816 81.6328 59.6452L86.2459 111.309H91.8579ZM78.8653 87.2449C69.2809 90.2177 61.7726 95.958 56.3394 104.466L57.6467 111.309H80.7103L78.8653 87.2449ZM127.222 104.773C121.892 96.3169 114.512 90.5254 105.081 87.399L102.929 111.309H125.992L127.222 104.773ZM55.1865 97.1623C61.3367 89.7311 69.0502 84.6315 78.327 81.8634L76.6356 63.1817L65.1038 59.7994C63.5153 59.1328 62.0286 58.7998 60.6448 58.7998C57.672 58.7998 55.1352 59.8506 53.0338 61.9521C50.9838 64.053 49.9587 66.5646 49.9587 69.4862C49.9587 70.9723 50.2918 72.5867 50.9581 74.3293L55.1865 97.1623ZM128.53 97.8548L132.681 74.3293C133.347 72.5867 133.68 70.9723 133.68 69.4862C133.68 66.5646 132.63 64.053 130.528 61.9521C128.478 59.8506 125.992 58.7998 123.071 58.7998C121.584 58.7998 120.072 59.1328 118.535 59.7994L107.003 63.1817L105.542 82.0941C114.87 84.9645 122.533 90.2177 128.53 97.8548ZM42.5014 111.309H52.342L45.961 75.7131C45.141 73.6121 44.7309 71.5359 44.7309 69.4862C44.7309 65.1296 46.2685 61.4137 49.3437 58.3386C52.4701 55.2121 56.2372 53.6489 60.6448 53.6489C62.4386 53.6489 64.3354 53.9564 66.3339 54.5714L75.9437 56.9548C75.8413 55.7247 75.9696 54.4433 76.3284 53.1107L53.3414 46.7298C51.8551 46.2685 50.3944 46.0379 48.9593 46.0379C44.654 46.0379 40.9894 47.5755 37.9655 50.6507C34.9416 53.6745 33.4297 57.339 33.4297 61.6444C33.4297 63.2846 33.6859 64.899 34.1985 66.4875L42.5014 111.309ZM68.1789 132.45V142.829H115.229V132.45H68.1789ZM57.5696 153.515V156.052H125.839V153.515C125.839 149.876 124.122 148.057 120.688 148.057H62.7204C59.2869 148.057 57.5696 149.876 57.5696 153.515Z" fill="#1C1124" />
    <path d="M141.137 121.994V116.767H91.8579H42.5016V121.994C42.5016 125.326 44.1417 127.069 47.4219 127.222H91.8579H136.064C139.447 127.222 141.137 125.48 141.137 121.994ZM91.7044 32.8146C87.3478 32.8146 85.1698 34.3522 85.1698 37.4274C85.1698 40.5538 87.3478 42.117 91.7044 42.117C96.0097 42.117 98.1624 40.5538 98.1624 37.4274C98.1624 34.3522 96.0097 32.8146 91.7044 32.8146ZM141.137 111.308L149.44 66.4875C149.953 64.899 150.209 63.2846 150.209 61.6444C150.209 57.339 148.697 53.6745 145.673 50.6506C142.649 47.5754 138.985 46.0379 134.68 46.0379C133.193 46.0379 131.733 46.2685 130.298 46.7297L107.311 53.1107C107.618 54.4433 107.746 55.7246 107.695 56.9548L117.305 54.5714C119.304 53.9564 121.226 53.6489 123.071 53.6489C127.376 53.6489 131.092 55.2121 134.219 58.3386C137.345 61.4137 138.908 65.1296 138.908 69.4862C138.908 71.5359 138.498 73.6121 137.678 75.7131L131.297 111.308H141.137ZM91.8579 111.308H97.3935L102.006 59.6452C101.955 59.0816 101.955 58.5951 102.006 58.185C102.057 57.7238 102.083 57.2619 102.083 56.8007C102.083 54.0333 101.084 51.65 99.0849 49.6512C97.0858 47.6523 94.6772 46.6529 91.8579 46.6529C88.9369 46.6529 86.4765 47.6523 84.4779 49.6512C82.53 51.65 81.5563 54.0333 81.5563 56.8007C81.5563 57.2619 81.5563 57.7238 81.5563 58.185C81.6075 58.5951 81.6334 59.0816 81.6334 59.6452L86.2459 111.308H91.8579ZM78.8653 87.2449C69.2814 90.2177 61.7726 95.958 56.34 104.466L57.6467 111.308H80.7109L78.8653 87.2449ZM127.222 104.774C121.892 96.3169 114.512 90.5254 105.081 87.399L102.929 111.308H125.993L127.222 104.774ZM42.5016 111.308H52.3421L45.9611 75.7131C45.1411 73.6121 44.7311 71.5359 44.7311 69.4862C44.7311 65.1296 46.2687 61.4137 49.3438 58.3386C52.4703 55.2121 56.2373 53.6489 60.6454 53.6489C62.4392 53.6489 64.3354 53.9564 66.3339 54.5714L75.9442 56.9548C75.8413 55.7246 75.9696 54.4433 76.3284 53.1107L53.3416 46.7297C51.8552 46.2685 50.3945 46.0379 48.9594 46.0379C44.6542 46.0379 40.9897 47.5754 37.9657 50.6506C34.9418 53.6745 33.4298 57.339 33.4298 61.6444C33.4298 63.2846 33.6861 64.899 34.1987 66.4875L42.5016 111.308ZM68.1795 132.45V142.829H115.229V132.45H68.1795ZM57.5702 153.515V156.052H125.839V153.515C125.839 149.876 124.122 148.057 120.688 148.057H62.721C59.2869 148.057 57.5702 149.876 57.5702 153.515Z" fill="#FF9165" />
  </g>
  <g id="wn" fill="none" transform="scale(0.2222222222222222 0.2222222222222222)">
    <path d="M122.853 155.591C122.853 152.106 121.111 150.363 117.625 150.363H65.1937C61.7085 150.363 59.9659 152.106 59.9659 155.591V158.281H122.853V155.591ZM117.472 145.135C120.393 145.135 122.879 146.16 124.929 148.21C127.03 150.209 128.081 152.669 128.081 155.591V163.509H54.8151V155.591C54.8151 152.72 55.7377 150.261 57.5826 148.21C59.4281 146.16 61.9138 145.135 65.0402 145.135C65.8091 144.52 66.1933 144.11 66.1933 143.905C66.1933 138.678 64.6813 134.193 61.6573 130.451C58.6845 131.784 55.6095 132.168 52.4319 131.605C48.1266 130.836 44.6926 128.657 42.13 125.07C39.6186 121.482 38.8242 117.51 39.7467 113.154L45.0515 71.0235C43.6164 69.0249 42.4632 67.1799 41.5919 65.4885C42.4119 56.1603 44.9746 47.3448 49.2798 39.0418C48.8185 34.6341 48.8185 30.9952 49.2798 28.125C57.4802 32.789 65.7832 35.7104 74.1887 36.8893C76.905 37.453 79.6213 38.1706 82.3376 39.0418C86.1306 38.8369 90.2306 39.1187 94.6384 39.8875C99.1491 40.7076 103.531 41.9889 107.785 43.7315C112.039 45.4228 116.472 47.4986 121.085 49.9587C128.414 51.4963 133.232 55.289 135.538 61.3367C137.024 65.6421 136.999 69.9216 135.461 74.1758C140.023 77.7634 142.303 82.4529 142.303 88.2444C142.303 92.9087 140.612 97.4188 137.23 101.775C139.434 109.156 138.485 115.28 134.385 120.149C131.618 125.07 128.158 129.401 124.006 133.142C120.316 136.064 118.138 140.061 117.471 145.135H117.472ZM122.623 117.92C122.366 119.355 121.315 119.816 119.47 119.304C117.728 118.894 117.087 117.817 117.548 116.075C117.907 115.05 118.215 114.025 118.471 113C118.727 111.923 119.009 110.924 119.317 110.001C119.778 108.618 120.957 108.105 122.853 108.464C124.75 108.976 125.364 109.899 124.698 111.232C123.878 113.999 123.186 116.229 122.623 117.92ZM122.238 96.2398C122.238 95.2661 122.187 94.3436 122.084 93.4723C122.033 92.5498 122.007 91.5502 122.007 90.4742C122.315 88.6804 123.392 87.8603 125.237 88.0138C127.03 88.4239 127.748 89.3211 127.389 90.7048C127.492 92.2933 127.492 94.4972 127.389 97.3164C127.184 98.649 126.21 99.2638 124.468 99.1614C122.776 99.1103 122.033 98.1366 122.238 96.2398ZM68.6531 54.3408C70.4987 55.4171 70.0374 58.4156 67.2694 63.3358C64.3995 68.256 62.0162 70.1781 60.12 69.1014C58.2232 68.0254 58.7104 65.0273 61.5802 60.1065C64.3995 55.1352 66.7569 53.2133 68.6531 54.3408ZM112.321 145.135C113.346 136.422 117.318 130.041 124.237 125.992C118.24 127.171 112.987 125.967 108.477 122.379C106.888 122.071 106.504 120.995 107.324 119.15C108.143 117.51 109.451 117.1 111.244 117.92C114.166 120.329 117.446 121.38 121.085 121.072C124.724 120.764 127.722 119.227 130.08 116.459C132.899 112.974 133.719 109.079 132.54 104.773C129.465 106.004 126.595 106.618 123.929 106.618C120.342 106.618 116.934 105.568 113.705 103.467C111.808 102.596 111.219 101.339 111.936 99.6997C112.756 98.0083 114.063 97.6236 115.857 98.5466C118.369 100.443 121.06 101.391 123.929 101.391C127.517 101.391 130.592 100.11 133.155 97.5471C135.769 94.9843 137.076 91.8832 137.076 88.2444C137.076 84.6568 135.718 81.5304 133.001 78.8653C130.439 81.7352 127.62 83.7343 124.545 84.8621C121.06 86.0918 117.497 86.2712 113.858 85.3999C111.757 85.0928 110.86 84.0161 111.167 82.1711C111.526 80.4797 112.628 79.7878 114.473 80.0955C117.241 81.018 120.009 80.9668 122.776 79.9419C126.159 78.7117 128.619 76.4567 130.157 73.1762C131.694 69.8962 131.848 66.5393 130.618 63.1052C129.337 59.6711 126.697 56.9289 122.699 54.8791C123.315 56.8266 123.827 59.0304 124.237 61.4908C123.929 67.5382 122.187 72.2025 119.009 75.4824C116.498 77.994 113.346 79.7113 109.553 80.6338C107.606 81.351 106.324 80.8133 105.709 79.0189C105.043 77.2768 105.684 76.0978 107.631 75.4824C110.655 75.1241 113.218 73.8939 115.319 71.7924C117.83 69.2809 119.086 66.2057 119.086 62.5669C119.137 58.9281 117.958 55.8785 115.55 53.4184C109.399 49.3694 102.788 46.6017 95.715 45.1154C102.89 49.3181 109.143 54.6484 114.473 61.1061C115.806 62.2851 115.883 63.5406 114.704 64.8731C113.525 66.3598 112.218 66.4363 110.783 65.1038C100.943 53.2646 88.5651 45.6536 73.6504 42.2709C67.7053 41.5533 62.0415 40.0157 56.6601 37.6581C55.3788 39.2982 54.2001 41.1946 53.1237 43.3472C50.0486 49.3437 47.8703 55.8785 46.589 62.9516C47.2553 64.4377 48.5622 66.6157 50.5098 69.4862L44.8208 113.999C44.257 116.921 44.7952 119.612 46.4353 122.071C48.1266 124.481 50.433 125.941 53.3544 126.454C56.2246 126.966 58.8639 126.377 61.2731 124.685C63.7329 122.994 65.2196 120.688 65.7321 117.766C65.9368 116.331 65.5267 114.819 64.5019 113.231C63.477 111.59 63.5023 110.232 64.5789 109.156C70.524 103.21 76.0596 97.1882 81.1845 91.089C86.31 84.9386 89.9235 77.9428 92.0244 70.101C92.4345 68.2048 93.5364 67.4106 95.3302 67.7177C97.1246 68.0254 97.8165 69.2044 97.4064 71.2541C95.2537 79.1983 91.7426 86.3483 86.8736 92.7034C82.0558 99.0591 76.7256 105.081 70.8829 110.77C69.9604 111.693 69.7809 112.923 70.3446 114.46C70.9087 115.947 71.0882 117.356 70.8829 118.689C70.2681 122.225 68.6537 125.173 66.0397 127.53C69.4221 132.245 71.1135 137.704 71.1135 143.906C71.1135 144.469 70.9599 144.879 70.6522 145.135H112.321Z" fill="#1C1124" />
    <path d="M122.853 155.591C122.853 152.106 121.111 150.363 117.626 150.363H65.1938C61.7091 150.363 59.9664 152.106 59.9664 155.591V158.282H122.853V155.591ZM122.623 117.92C122.367 119.355 121.316 119.816 119.471 119.304C117.728 118.894 117.088 117.817 117.549 116.075C117.907 115.05 118.215 114.025 118.472 113C118.727 111.923 119.009 110.924 119.317 110.001C119.778 108.618 120.957 108.105 122.853 108.464C124.75 108.976 125.365 109.899 124.698 111.232C123.878 113.999 123.186 116.229 122.623 117.92ZM122.239 96.2398C122.239 95.2661 122.187 94.3436 122.084 93.4723C122.033 92.5498 122.008 91.5502 122.008 90.4742C122.315 88.6804 123.392 87.8602 125.237 88.0138C127.031 88.4239 127.748 89.3211 127.389 90.7048C127.492 92.2933 127.492 94.4972 127.389 97.3164C127.185 98.649 126.21 99.2638 124.468 99.1614C122.777 99.1103 122.033 98.1366 122.239 96.2398ZM68.6537 54.3409C70.4987 55.4172 70.0374 58.4156 67.2699 63.3358C64.3995 68.256 62.0162 70.1781 60.12 69.1014C58.2238 68.0254 58.7104 65.0273 61.5808 60.1071C64.3995 55.1353 66.7569 53.2133 68.6537 54.3409ZM112.321 145.135C113.346 136.422 117.318 130.042 124.237 125.992C118.241 127.171 112.987 125.967 108.477 122.379C106.888 122.071 106.504 120.995 107.324 119.15C108.144 117.51 109.451 117.1 111.245 117.92C114.166 120.329 117.446 121.38 121.085 121.072C124.724 120.764 127.722 119.227 130.08 116.459C132.899 112.974 133.719 109.079 132.54 104.773C129.465 106.004 126.595 106.618 123.93 106.618C120.342 106.618 116.934 105.568 113.705 103.467C111.809 102.595 111.219 101.339 111.936 99.6997C112.757 98.0083 114.064 97.6241 115.858 98.5466C118.369 100.443 121.06 101.391 123.93 101.391C127.518 101.391 130.593 100.11 133.155 97.5471C135.769 94.9843 137.076 91.8838 137.076 88.2444C137.076 84.6568 135.718 81.5304 133.001 78.8653C130.439 81.7358 127.62 83.7343 124.545 84.8621C121.06 86.0918 117.497 86.2712 113.858 85.3999C111.757 85.0928 110.86 84.0161 111.168 82.1711C111.526 80.4797 112.628 79.7878 114.474 80.0955C117.241 81.018 120.009 80.9668 122.776 79.9419C126.159 78.7118 128.62 76.4567 130.157 73.1762C131.695 69.8963 131.848 66.5393 130.618 63.1052C129.337 59.6711 126.698 56.9289 122.7 54.8791C123.315 56.8266 123.827 59.0304 124.237 61.4908C123.93 67.5388 122.187 72.2025 119.009 75.483C116.498 77.994 113.346 79.7113 109.553 80.6338C107.606 81.351 106.324 80.8133 105.71 79.0194C105.043 77.2768 105.684 76.0978 107.632 75.483C110.655 75.1241 113.218 73.8939 115.319 71.7924C117.831 69.2809 119.086 66.2057 119.086 62.5669C119.138 58.9281 117.959 55.8785 115.55 53.4184C109.4 49.3694 102.788 46.6017 95.715 45.1154C102.89 49.3181 109.144 54.6485 114.474 61.1061C115.806 62.2851 115.883 63.5406 114.704 64.8731C113.525 66.3598 112.219 66.4369 110.783 65.1038C100.943 53.2646 88.5651 45.6536 73.6509 42.2709C67.7053 41.5533 62.0421 40.0157 56.6606 37.6581C55.3791 39.2982 54.2003 41.1946 53.124 43.3472C50.0488 49.3438 47.8706 55.8785 46.5892 62.9516C47.2555 64.4377 48.5625 66.6158 50.5101 69.4862L44.821 113.999C44.2572 116.921 44.7954 119.612 46.4354 122.071C48.1268 124.481 50.4332 125.941 53.3546 126.454C56.2247 126.966 58.8645 126.377 61.2731 124.685C63.7335 122.994 65.2196 120.688 65.7321 117.766C65.9374 116.331 65.5273 114.819 64.5019 113.231C63.477 111.59 63.5029 110.232 64.5789 109.156C70.5246 103.21 76.0596 97.1882 81.1851 91.089C86.31 84.9386 89.9235 77.9428 92.025 70.101C92.4351 68.2048 93.537 67.4106 95.3308 67.7177C97.1246 68.0254 97.8165 69.2044 97.4064 71.2541C95.2538 79.1983 91.7432 86.3482 86.8742 92.7039C82.0564 99.0591 76.7261 105.081 70.8829 110.77C69.9604 111.693 69.7809 112.923 70.3451 114.46C70.9088 115.947 71.0882 117.356 70.8829 118.689C70.2681 122.225 68.6537 125.173 66.0398 127.53C69.4226 132.245 71.1135 137.704 71.1135 143.906C71.1135 144.469 70.9599 144.879 70.6523 145.135H112.321Z" fill="#FF9165" />
  </g>
  <g id="wp" fill="none" transform="scale(0.2222222222222222 0.2222222222222222)">
    <path d="M66.5392 117.536H108.054C100.929 111.078 96.2657 102.441 94.0618 91.6273C91.9091 80.7615 90.5507 70.101 89.9871 59.6452H84.5286C83.9137 69.9986 82.53 80.6079 80.3773 91.4737C78.2246 102.339 73.6121 111.026 66.5392 117.536ZM113.513 122.994H61.0807C61.7467 129.606 64.566 135.192 69.5374 139.754C74.5599 144.315 80.4797 146.596 87.2966 146.596C94.0618 146.596 99.9304 144.315 104.902 139.754C109.924 135.192 112.795 129.606 113.513 122.994ZM118.74 156.744C118.74 153.31 116.997 151.593 113.513 151.593H61.1573C57.6208 151.593 55.8528 153.361 55.8528 156.898V159.511H118.74V156.744ZM87.2966 33.5834C84.375 33.5834 81.9146 34.6085 79.9161 36.6586C77.9169 38.6575 76.9179 41.092 76.9179 43.9621C76.9179 46.8835 77.9169 49.3437 79.9161 51.3425C81.9146 53.3414 84.375 54.3408 87.2966 54.3408C90.1153 54.3408 92.5498 53.3414 94.6001 51.3425C96.6499 49.3437 97.6753 46.8835 97.6753 43.9621C97.6753 41.092 96.6499 38.6575 94.6001 36.6586C92.5498 34.6085 90.1153 33.5834 87.2966 33.5834ZM99.2897 54.4177H118.74V59.6452H95.2149C95.8297 70.7164 97.7777 81.9917 101.058 93.4723C104.338 104.953 110.13 113.897 118.433 120.303C118.433 125.531 117.1 130.451 114.435 135.064C111.821 139.625 108.438 143.367 104.287 146.288L113.666 146.365C116.434 146.365 118.817 147.39 120.816 149.44C122.866 151.491 123.891 153.925 123.891 156.744V164.739H50.7019L50.625 156.898C50.625 153.977 51.65 151.491 53.7002 149.44C55.7503 147.39 58.2362 146.365 61.1573 146.365L70.4599 146.288C66.1033 143.316 62.5416 139.523 59.7735 134.911C57.006 130.246 55.6221 125.377 55.6221 120.303C63.8741 113.897 69.7168 104.953 73.1509 93.4723C76.5844 81.9917 78.6606 70.7164 79.3777 59.6452H55.8528V54.4177H75.5336C72.8173 51.4963 71.4594 48.0111 71.4594 43.9621C71.4594 39.6056 72.9968 35.8898 76.0719 32.8146C79.1471 29.6882 82.8889 28.125 87.2966 28.125C91.6014 28.125 95.3173 29.6882 98.4437 32.8146C101.57 35.8898 103.133 39.6056 103.133 43.9621C103.133 48.0111 101.852 51.4963 99.2897 54.4177Z" fill="#1C1124" />
    <path d="M66.5393 117.536H108.054C100.929 111.077 96.2657 102.441 94.0618 91.6273C91.9091 80.7615 90.5507 70.101 89.9871 59.6452H84.5286C83.9138 69.9986 82.53 80.6079 80.3773 91.4737C78.2246 102.339 73.6121 111.026 66.5393 117.536ZM113.512 122.994H61.0808C61.7468 129.606 64.566 135.192 69.5374 139.754C74.5599 144.315 80.4797 146.596 87.2966 146.596C94.0618 146.596 99.9304 144.315 104.902 139.754C109.924 135.192 112.795 129.606 113.512 122.994ZM118.74 156.744C118.74 153.31 116.997 151.593 113.512 151.593H61.1573C57.6208 151.593 55.8528 153.361 55.8528 156.898V159.511H118.74V156.744ZM87.2966 33.5834C84.375 33.5834 81.9146 34.6085 79.9161 36.6586C77.9169 38.6574 76.9179 41.0919 76.9179 43.9621C76.9179 46.8835 77.9169 49.3437 79.9161 51.3425C81.9146 53.3414 84.375 54.3408 87.2966 54.3408C90.1153 54.3408 92.5498 53.3414 94.6001 51.3425C96.6499 49.3437 97.6753 46.8835 97.6753 43.9621C97.6753 41.0919 96.6499 38.6574 94.6001 36.6586C92.5498 34.6085 90.1153 33.5834 87.2966 33.5834Z" fill="#FF9165" />
  </g>
  <g id="wq" fill="none" transform="scale(0.2222222222222222 0.2222222222222222)">
    <path d="M154.873 59.3381C151.9 59.3381 149.363 58.3127 147.262 56.2629C145.212 54.1614 144.187 51.6245 144.187 48.6518C144.187 45.7304 145.212 43.219 147.262 41.1176C149.363 39.0162 151.9 37.9655 154.873 37.9655C157.795 37.9655 160.306 39.0162 162.407 41.1176C164.509 43.219 165.56 45.7304 165.56 48.6518C165.56 51.6245 164.509 54.1614 162.407 56.2629C160.306 58.3127 157.795 59.3381 154.873 59.3381ZM136.96 115.691H44.1671L45.3972 120.764C46.2685 123.788 47.8317 126.172 50.0869 127.914C52.3932 129.606 54.8021 130.195 57.3137 129.683H90.6789H123.429C125.941 130.195 128.401 129.606 130.81 127.914C133.27 126.172 134.962 123.788 135.884 120.764L136.96 115.691ZM139.421 105.235H41.9376L43.0908 110.54H138.268L139.421 105.235ZM140.497 100.084L146.878 70.4852L140.42 89.3976C139.958 91.7044 138.857 93.7029 137.114 95.3944C135.423 97.0346 133.296 97.7777 130.733 97.6236C128.12 97.47 125.941 96.3681 124.198 94.3183C122.507 92.2168 121.79 89.8588 122.046 87.2449L120.662 58.4156L116.126 86.3224C116.126 89.5517 115.101 92.2933 113.051 94.5489C111.052 96.804 108.643 97.9313 105.824 97.9313C102.954 97.9313 100.52 96.8552 98.5208 94.7025C96.5222 92.4986 95.5991 89.9618 95.7533 87.0913L90.3718 53.1876L85.5281 87.0913C85.5793 89.9618 84.6056 92.4986 82.6065 94.7025C80.6079 96.8552 78.2246 97.9313 75.4571 97.9313C72.5867 97.9313 70.1522 96.804 68.1536 94.5489C66.1545 92.2933 65.1549 89.5517 65.1549 86.3224L61.0808 58.4156L59.2352 87.2449C59.3893 89.8588 58.6204 92.2168 56.9289 94.3183C55.2377 96.3681 53.1107 97.47 50.5481 97.6236C47.9342 97.7777 45.7559 97.0346 44.0134 95.3944C42.2708 93.7029 41.1945 91.7044 40.7845 89.3976L34.3266 70.4852L40.8614 100.084H140.497ZM90.6024 44.039C94.0871 44.039 95.8298 42.2964 95.8298 38.8112C95.8298 35.326 94.0871 33.5834 90.6024 33.5834C87.1172 33.5834 85.3746 35.326 85.3746 38.8112C85.3746 42.2964 87.1172 44.039 90.6024 44.039ZM90.6024 49.4974C87.6296 49.4974 85.0928 48.4467 82.9913 46.3454C80.9409 44.244 79.9161 41.7326 79.9161 38.8112C79.9161 35.8898 80.9409 33.3784 82.9913 31.277C85.0928 29.1757 87.6296 28.125 90.6024 28.125C93.5235 28.125 96.0351 29.1757 98.1366 31.277C100.238 33.3784 101.288 35.8898 101.288 38.8112C101.288 41.7326 100.238 44.244 98.1366 46.3454C96.0351 48.4467 93.5235 49.4974 90.6024 49.4974ZM121.815 48.8824C125.3 48.8824 127.043 47.1398 127.043 43.6546C127.043 40.2207 125.3 38.5037 121.815 38.5037C118.33 38.5037 116.587 40.2207 116.587 43.6546C116.587 47.1398 118.33 48.8824 121.815 48.8824ZM121.815 54.4177C118.843 54.4177 116.305 53.367 114.204 51.2656C112.154 49.1643 111.129 46.6273 111.129 43.6546C111.129 40.7332 112.154 38.2218 114.204 36.1204C116.305 34.0191 118.843 32.9684 121.815 32.9684C124.737 32.9684 127.248 34.0191 129.349 36.1204C131.451 38.2218 132.501 40.7332 132.501 43.6546C132.501 46.6273 131.451 49.1643 129.349 51.2656C127.248 53.367 124.737 54.4177 121.815 54.4177ZM154.873 53.8796C158.358 53.8796 160.101 52.1369 160.101 48.6518C160.101 45.1666 158.358 43.424 154.873 43.424C151.388 43.424 149.645 45.1666 149.645 48.6518C149.645 52.1369 151.388 53.8796 154.873 53.8796ZM58.851 48.7286C62.2851 48.7286 64.0018 46.986 64.0018 43.5008C64.0018 40.0156 62.2851 38.2731 58.851 38.2731C55.3659 38.2731 53.6233 40.0156 53.6233 43.5008C53.6233 46.986 55.3659 48.7286 58.851 48.7286ZM58.851 54.2639C55.8784 54.2639 53.3414 53.2132 51.24 51.1119C49.1387 49.0105 48.088 46.4735 48.088 43.5008C48.088 40.5794 49.1387 38.068 51.24 35.9667C53.3414 33.8653 55.8784 32.8146 58.851 32.8146C61.7726 32.8146 64.2836 33.8653 66.3851 35.9667C68.4866 38.068 69.5374 40.5794 69.5374 43.5008C69.5374 46.4735 68.4866 49.0105 66.3851 51.1119C64.2836 53.2132 61.7726 54.2639 58.851 54.2639ZM27.6381 53.3414C31.0721 53.3414 32.789 51.5988 32.789 48.1136C32.789 44.6284 31.0721 42.8858 27.6381 42.8858C24.1529 42.8858 22.4103 44.6284 22.4103 48.1136C22.4103 51.5988 24.1529 53.3414 27.6381 53.3414ZM27.6381 58.7998C24.6655 58.7998 22.1284 57.7491 20.027 55.6478C17.9257 53.5464 16.875 51.035 16.875 48.1136C16.875 45.1922 17.9257 42.6808 20.027 40.5794C22.1284 38.4781 24.6655 37.4274 27.6381 37.4274C30.5595 37.4274 33.0709 38.4781 35.1723 40.5794C37.2736 42.6808 38.3243 45.1922 38.3243 48.1136C38.3243 51.035 37.2736 53.5464 35.1723 55.6478C33.0709 57.7491 30.5595 58.7998 27.6381 58.7998ZM66.6158 134.91V144.52H113.666V134.91H66.6158ZM50.7787 155.053C50.7787 152.132 51.7782 149.645 53.777 147.596C55.8272 145.545 58.2874 144.52 61.1573 144.52V134.91H57.3137C53.8796 135.372 50.5225 134.501 47.2423 132.297C44.0134 130.041 41.8095 126.684 40.6307 122.225L27.2537 59.4917C29.4576 59.3893 31.559 58.7228 33.5578 57.4931L45.3203 87.6296C45.5766 91.0637 47.2423 92.6781 50.3175 92.4728C53.4952 92.3192 54.9046 90.5254 54.5459 87.0913L55.7759 54.3408C56.9036 54.5459 57.9285 54.6483 58.851 54.6483C60.9525 54.6483 63.0793 54.0077 65.232 52.7264L69.9986 86.0153C70.3063 90.1665 72.1254 92.2421 75.4571 92.2421C78.7883 92.2421 80.5056 90.423 80.6079 86.7836L85.1439 48.1905C86.5789 49.318 88.2956 49.8818 90.2948 49.8818C92.6522 49.8818 94.6254 49.2412 96.2145 47.9598L100.596 86.7836C100.648 90.423 102.39 92.2421 105.824 92.2421C109.105 92.2421 110.899 90.1665 111.206 86.0153L116.357 53.1107C118.099 54.1358 119.919 54.6483 121.815 54.6483C122.533 54.6483 123.814 54.4946 125.659 54.1871L126.735 87.0913C126.326 90.5254 127.735 92.3192 130.964 92.4728C133.988 92.6781 135.654 91.0637 135.961 87.6296L147.954 57.0319C149.953 58.518 152.157 59.3634 154.566 59.5688L140.65 122.225C139.421 126.684 137.089 130.041 133.655 132.297C130.272 134.501 126.863 135.372 123.429 134.91H119.125V144.52C121.943 144.52 124.378 145.545 126.428 147.596C128.478 149.645 129.503 152.132 129.503 155.053V162.894H50.7787V155.053ZM124.275 154.976C124.275 151.49 122.559 149.748 119.125 149.748H61.2343C57.7491 149.748 56.0066 151.49 56.0066 154.976V157.667H124.275V154.976Z" fill="#1C1124" />
    <path d="M136.96 115.69H44.167L45.3971 120.764C46.2683 123.788 47.8316 126.172 50.0867 127.914C52.393 129.606 54.8019 130.195 57.3132 129.683H90.6791H123.429C125.941 130.195 128.401 129.606 130.81 127.914C133.27 126.172 134.961 123.788 135.884 120.764L136.96 115.69ZM139.42 105.235H41.9375L43.0907 110.54H138.267L139.42 105.235ZM140.497 100.084L146.878 70.4852L140.42 89.3976C139.958 91.7044 138.857 93.7029 137.114 95.3944C135.422 97.0346 133.296 97.7777 130.733 97.6236C128.119 97.47 125.941 96.3681 124.198 94.3177C122.507 92.2168 121.789 89.8588 122.046 87.2449L120.662 58.4156L116.126 86.3224C116.126 89.5517 115.101 92.2933 113.051 94.5484C111.052 96.804 108.643 97.9312 105.824 97.9312C102.954 97.9312 100.519 96.8552 98.5209 94.7025C96.5217 92.4986 95.5992 89.9617 95.7528 87.0913L90.3714 53.1876L85.5282 87.0913C85.5794 89.9617 84.6057 92.4986 82.6066 94.7025C80.6075 96.8552 78.2246 97.9312 75.4566 97.9312C72.5867 97.9312 70.1523 96.804 68.1532 94.5484C66.1546 92.2933 65.155 89.5517 65.155 86.3224L61.0803 58.4156L59.2353 87.2449C59.3889 89.8588 58.6205 92.2168 56.929 94.3177C55.2376 96.3681 53.1106 97.47 50.548 97.6236C47.934 97.7777 45.7558 97.0346 44.0132 95.3944C42.2706 93.7029 41.1943 91.7044 40.7843 89.3976L34.3264 70.4852L40.8612 100.084H140.497ZM90.602 44.039C94.0872 44.039 95.8299 42.2964 95.8299 38.8112C95.8299 35.326 94.0872 33.5834 90.602 33.5834C87.1167 33.5834 85.3741 35.326 85.3741 38.8112C85.3741 42.2964 87.1167 44.039 90.602 44.039ZM121.815 48.8824C125.3 48.8824 127.043 47.1397 127.043 43.6546C127.043 40.2207 125.3 38.5037 121.815 38.5037C118.33 38.5037 116.587 40.2207 116.587 43.6546C116.587 47.1397 118.33 48.8824 121.815 48.8824ZM154.873 53.8795C158.358 53.8795 160.101 52.1369 160.101 48.6518C160.101 45.1666 158.358 43.4239 154.873 43.4239C151.388 43.4239 149.645 45.1666 149.645 48.6518C149.645 52.1369 151.388 53.8795 154.873 53.8795ZM58.8511 48.7286C62.2846 48.7286 64.0019 46.986 64.0019 43.5008C64.0019 40.0156 62.2846 38.2731 58.8511 38.2731C55.3657 38.2731 53.6231 40.0156 53.6231 43.5008C53.6231 46.986 55.3657 48.7286 58.8511 48.7286ZM27.6379 53.3414C31.0719 53.3414 32.7888 51.5988 32.7888 48.1136C32.7888 44.6284 31.0719 42.8858 27.6379 42.8858C24.1527 42.8858 22.4102 44.6284 22.4102 48.1136C22.4102 51.5988 24.1527 53.3414 27.6379 53.3414ZM66.6159 134.91V144.52H113.665V134.91H66.6159ZM124.275 154.976C124.275 151.49 122.558 149.748 119.124 149.748H61.2344C57.7492 149.748 56.0064 151.49 56.0064 154.976V157.666H124.275V154.976Z" fill="#FF9165" />
  </g>
  <g id="wr" fill="none" transform="scale(0.2222222222222222 0.2222222222222222)">
    <path d="M81.6716 146.212V125.3L62.3745 125.377L60.3759 137.14L51.6885 146.212H81.6716ZM86.8224 33.3528V54.4946H97.2011V33.3528H86.8224ZM92.2039 69.8704H115.806L123.571 59.4146H92.2039H60.8372L68.5249 69.8704H92.2039ZM60.6066 33.3528V54.4946H68.5249V33.3528H60.6066ZM92.2039 159.358H134.411V151.439H92.2039H49.9203V159.358H92.2039ZM123.724 33.3528H115.806V54.4946H123.724V33.3528ZM63.297 119.919L81.6716 119.842C81.6716 117.023 82.6706 114.589 84.6697 112.538C86.6683 110.488 89.1287 109.463 92.0503 109.463C94.869 109.463 97.3035 110.488 99.3538 112.538C101.404 114.589 102.429 117.023 102.429 119.842L121.034 119.919L113.192 74.2528H92.2039H71.1388L63.297 119.919ZM102.429 125.3L102.583 146.212H132.642L124.032 137.14L121.956 125.377L102.429 125.3ZM128.952 33.3528V59.4146L118.573 75.4059L128.952 135.525L139.331 146.212V164.586H92.2039H45V146.212L55.4556 135.525L65.8344 75.4059L55.4556 59.4146V33.3528C55.4556 29.9189 57.1984 28.2019 60.6836 28.2019H68.6019C72.036 28.2019 73.7527 30.0214 73.7527 33.6603V54.4946H81.6716V33.5065C81.6716 29.9701 83.4142 28.2019 86.8989 28.2019L92.2039 28.125L97.4317 28.2019C100.917 28.2019 102.66 29.9445 102.66 33.4297V54.4946H110.578V33.3528C110.578 29.9189 112.346 28.2019 115.883 28.2019H123.801C127.235 28.2019 128.952 29.9189 128.952 33.3528Z" fill="#1C1124" />
    <path d="M81.6716 146.212V125.3L62.3745 125.377L60.3759 137.14L51.6886 146.212H81.6716ZM86.8224 33.3529V54.4947H97.2011V33.3529H86.8224ZM92.2039 69.8704H115.806L123.571 59.4152H92.2039H60.8372L68.5249 69.8704H92.2039ZM60.6066 33.3529V54.4947H68.5249V33.3529H60.6066ZM92.2039 159.358H134.41V151.44H92.2039H49.9203V159.358H92.2039ZM123.725 33.3529H115.806V54.4947H123.725V33.3529ZM63.2976 119.919L81.6716 119.842C81.6716 117.023 82.6706 114.589 84.6697 112.538C86.6689 110.489 89.1287 109.463 92.0503 109.463C94.869 109.463 97.3035 110.489 99.3538 112.538C101.404 114.589 102.429 117.023 102.429 119.842L121.034 119.919L113.192 74.2528H92.2039H71.1388L63.2976 119.919ZM102.429 125.3L102.583 146.212H132.643L124.032 137.14L121.956 125.377L102.429 125.3Z" fill="#FF9165" />
  </g>
</svg>