<svg xmlns="http://www.w3.org/2000/svg" width="40" height="40" viewbox="0.0 0.0 50.0 50.0">
  <g id="bb" fill="none" transform="scale(0.8 0.8)">
    <path fill-rule="evenodd" clip-rule="evenodd" d="M25 42.162C24.771 43.102 24.484 43.754 24.153 44.118C23.823 44.482 23.391 44.863 22.841 45.261C22.248 45.676 21.546 46.023 20.733 46.311C19.92 46.599 19.023 46.675 18.032 46.522L11.064 45.557C10.8111 45.523 10.5548 45.523 10.302 45.557C10.082 45.591 9.86999 45.608 9.66699 45.608C9.31999 45.608 8.87999 45.684 8.34699 45.845C7.80399 45.998 7.38899 46.226 7.09299 46.522L4.68799 42.577C4.98499 42.247 5.24799 42.018 5.47599 41.883C5.71299 41.756 5.98399 41.612 6.29699 41.468C7.26574 41.0176 8.30568 40.7397 9.36999 40.647C9.83599 40.613 10.293 40.604 10.734 40.621C11.2003 40.6376 11.6671 40.6209 12.131 40.571C13.02 40.723 13.917 40.858 14.815 40.977C15.72 41.104 16.626 41.231 17.532 41.367C18.523 41.367 19.192 41.265 19.539 41.07C19.725 40.968 20.013 40.782 20.411 40.52C20.809 40.257 21.207 39.868 21.605 39.351C20.725 39.258 19.835 39.089 18.921 38.843C18.1067 38.6341 17.304 38.3828 16.516 38.09L19.099 31.689C17.803 30.944 16.906 30.351 16.389 29.894C15.89 29.4499 15.4795 28.9156 15.179 28.319C14.747 27.557 14.467 26.821 14.349 26.109C14.2301 25.4785 14.1765 24.8375 14.189 24.196C14.205 23.206 14.434 22.113 14.891 20.911C15.348 19.717 16.203 18.641 17.456 17.702C18.4951 16.909 19.5144 16.0905 20.513 15.247C21.5678 14.3373 22.5526 13.3495 23.459 12.292C22.239 11.665 21.63 10.666 21.63 9.29499C21.63 8.36299 21.952 7.57499 22.604 6.90699C23.256 6.24699 24.06 5.91699 25 5.91699C25.923 5.91699 26.719 6.24699 27.38 6.90699C28.04 7.57599 28.37 8.36299 28.37 9.29499C28.37 10.649 27.76 11.648 26.54 12.292C27.4335 13.3508 28.4077 14.3388 29.454 15.247C30.4552 16.1009 31.4858 16.9197 32.544 17.702C33.78 18.642 34.627 19.717 35.067 20.911C35.516 22.113 35.761 23.205 35.787 24.196C35.787 24.763 35.736 25.398 35.617 26.109C35.498 26.82 35.237 27.557 34.821 28.319C34.4937 28.9099 34.0702 29.4422 33.568 29.894C33.068 30.351 32.18 30.944 30.901 31.689L33.484 38.089C32.755 38.352 31.934 38.606 31.028 38.843C30.114 39.089 29.242 39.258 28.395 39.351C28.776 39.868 29.165 40.257 29.563 40.52C29.961 40.782 30.258 40.968 30.461 41.07C30.808 41.265 31.477 41.366 32.468 41.366C33.3646 41.2314 34.262 41.1014 35.16 40.976C36.0682 40.856 36.9743 40.7207 37.878 40.57C38.318 40.621 38.767 40.638 39.224 40.621C39.6924 40.6046 40.1615 40.6132 40.629 40.647C41.692 40.7479 42.7309 41.0251 43.703 41.467C43.999 41.612 44.27 41.756 44.507 41.883C44.753 42.018 45.015 42.247 45.311 42.577L42.881 46.522C42.585 46.226 42.171 45.998 41.628 45.845C41.095 45.685 40.663 45.608 40.333 45.608C40.113 45.608 39.893 45.591 39.673 45.558C39.4228 45.5239 39.1692 45.5239 38.919 45.558L31.969 46.522C30.977 46.675 30.055 46.607 29.208 46.328C28.353 46.048 27.65 45.676 27.108 45.21C26.566 44.761 26.126 44.38 25.804 44.059C25.483 43.737 25.212 43.102 25 42.162V42.162Z" fill="#222831" />
    <path fill-rule="evenodd" clip-rule="evenodd" d="M24.086 23.705V25.813C24.086 26.423 24.39 26.727 25 26.727C25.61 26.727 25.914 26.423 25.914 25.813V23.679H28.15C28.725 23.679 29.022 23.383 29.022 22.782C29.022 22.189 28.725 21.893 28.15 21.893H25.914V19.658C25.914 19.048 25.61 18.743 25 18.743C24.39 18.743 24.086 19.048 24.086 19.658V21.893H21.9C21.316 21.893 21.028 22.189 21.028 22.782C21.028 23.383 21.316 23.679 21.9 23.679L24.086 23.705ZM31.596 37.446L30.554 34.915C28.869 34.551 27.015 34.373 25 34.373C23.002 34.373 21.165 34.551 19.497 34.915L18.455 37.421C20.505 36.904 22.689 36.651 25 36.651C27.286 36.651 29.479 36.913 31.596 37.446V37.446ZM29.513 32.332L28.793 30.597V29.927C27.5366 29.7481 26.2691 29.6578 25 29.657C23.7393 29.66 22.4803 29.7503 21.232 29.927L21.207 30.597L20.538 32.332C22.0118 32.0792 23.5047 31.9547 25 31.96C26.592 31.96 28.09 32.087 29.513 32.332ZM28.649 41.713C27.989 41.213 27.319 40.426 26.659 39.351H25.872C25.872 40.164 26.058 40.951 26.439 41.713H28.649ZM23.535 41.713C23.916 40.901 24.111 40.113 24.111 39.351H23.315C22.672 40.41 22.003 41.197 21.3 41.713H23.535Z" fill="url(#bbpaint0_linear_1_254)" />
    <defs>
      <linearGradient id="bbpaint0_linear_1_254" x1="21.094" y1="37.101" x2="77.669" y2="37.469" gradientUnits="userSpaceOnUse">
        <stop stop-color="#00ADB5" />
        <stop offset="1" stop-color="white" stop-opacity="0" />
      </linearGradient>
    </defs>
  </g>
  <g id="bk" fill="none" transform="scale(0.8 0.8)">
    <path fill-rule="evenodd" clip-rule="evenodd" d="M25.821 12.022H24.061V8.772H21.994C21.436 8.772 21.156 8.5 21.156 7.95V7.925C21.156 7.383 21.436 7.112 21.994 7.112H24.06V5.004C24.06 4.419 24.357 4.132 24.95 4.132C25.525 4.132 25.821 4.419 25.821 5.004V7.112H27.955C28.497 7.112 28.768 7.382 28.768 7.925V7.95C28.768 8.5 28.497 8.771 27.955 8.771L25.838 8.797L25.821 12.022ZM11.03 37.744L10.217 33.104C10.2 33.104 10.175 33.071 10.141 33.003C10.056 32.884 9.819 32.732 9.43 32.546C9.049 32.351 8.592 32.029 8.084 31.564C7.50339 31.0827 6.93585 30.5859 6.382 30.074C5.976 29.6984 5.60759 29.2841 5.282 28.837C4.273 27.45 3.705 25.772 3.595 23.8C3.425 21.903 4.196 20.006 5.898 18.118C7.617 16.238 9.945 15.35 12.866 15.468C13.958 15.536 15.246 15.798 16.71 16.264C17.193 16.459 17.684 16.654 18.192 16.84L19.69 17.424C19.953 17.56 20.19 17.695 20.385 17.822C20.3011 17.4813 20.2585 17.1318 20.258 16.781C20.258 15.494 20.715 14.393 21.638 13.479C22.552 12.573 23.661 12.107 24.948 12.09C26.235 12.09 27.336 12.556 28.25 13.47C29.156 14.385 29.613 15.485 29.613 16.755C29.613 17.018 29.579 17.365 29.512 17.797C29.74 17.653 29.969 17.526 30.181 17.424C30.943 17.094 31.941 16.704 33.186 16.264C34.609 15.782 35.887 15.511 37.03 15.443C39.951 15.307 42.271 16.196 43.973 18.093C45.641 19.981 46.42 21.878 46.301 23.774C46.174 25.747 45.598 27.424 44.591 28.812C44.261 29.261 43.888 29.675 43.473 30.065C42.9332 30.5711 42.3797 31.0623 41.813 31.538C41.272 32.004 40.806 32.334 40.425 32.52C40.045 32.706 39.825 32.867 39.756 32.977C39.7435 33.0051 39.7266 33.0311 39.706 33.054C39.689 33.071 39.68 33.088 39.68 33.104L38.884 37.77L40.527 43.891C39.697 44.636 37.843 45.246 34.973 45.728C32.094 46.211 28.767 46.448 24.999 46.448C21.164 46.448 17.785 46.194 14.881 45.694C11.969 45.186 10.14 44.551 9.395 43.798L11.03 37.744Z" fill="#222831" />
    <path fill-rule="evenodd" clip-rule="evenodd" d="M24.95 20.675C24.921 20.5302 24.8782 20.3886 24.822 20.252C24.7567 20.0067 24.6749 19.7662 24.577 19.532C24.526 19.422 24.458 19.278 24.382 19.101C24.291 18.9173 24.2063 18.7305 24.128 18.541C24.078 18.423 24.018 18.271 23.942 18.085C23.874 17.89 23.806 17.712 23.755 17.551C23.7109 17.3969 23.6883 17.2373 23.688 17.077C23.688 16.205 24.103 15.765 24.949 15.765C25.829 15.765 26.262 16.196 26.262 17.052C26.262 17.272 26.228 17.424 26.168 17.526C25.931 18.152 25.813 18.491 25.796 18.542C25.542 19.042 25.39 19.363 25.322 19.507C25.203 19.777 25.127 20.015 25.102 20.227C25.051 20.328 25.017 20.413 25 20.489C24.983 20.565 24.966 20.625 24.95 20.675V20.675ZM22.172 29.235C20.106 29.269 18.218 29.371 16.499 29.557C14.789 29.735 13.469 29.997 12.52 30.327C11.9889 29.6715 11.4146 29.0521 10.801 28.473C10.2039 27.9133 9.62784 27.3315 9.07399 26.729C8.24399 25.882 7.83799 24.959 7.83799 23.952C7.83799 22.707 8.04099 21.802 8.45599 21.226C8.89599 20.556 9.59099 20.066 10.514 19.744C11.4142 19.4266 12.3615 19.2633 13.316 19.261C14.51 19.261 15.644 19.524 16.736 20.057C17.812 20.617 18.523 21.065 18.87 21.395C19.996 22.538 20.877 23.775 21.503 25.112C21.715 25.612 21.876 26.306 21.986 27.186C22.096 28.076 22.156 28.753 22.172 29.236V29.235ZM24.949 24.917C25.068 24.451 25.161 24.13 25.245 23.952C25.415 23.309 25.601 22.758 25.821 22.309C25.914 22.03 26.058 21.709 26.253 21.336C26.439 20.963 26.643 20.531 26.863 20.057C26.99 19.777 27.133 19.431 27.278 19.024C27.43 18.618 27.582 18.22 27.726 17.822C27.862 17.492 27.929 17.136 27.929 16.755C27.929 15.942 27.633 15.257 27.057 14.689C26.482 14.114 25.779 13.826 24.949 13.826C22.985 13.826 21.994 14.816 21.994 16.781C21.994 17.161 22.062 17.517 22.197 17.847C22.562 18.923 22.841 19.667 23.036 20.083C23.256 20.557 23.451 20.989 23.636 21.361C23.815 21.734 23.976 22.055 24.102 22.335C24.322 22.885 24.5 23.427 24.652 23.977C24.687 24.07 24.78 24.392 24.949 24.917V24.917ZM24.06 31.14C24.06 30.48 24.043 29.565 24.01 28.405C23.976 27.237 23.849 26.263 23.637 25.485C22.96 23.275 21.935 21.488 20.555 20.134C19.844 19.439 18.76 18.787 17.287 18.194C15.602 17.534 14.002 17.204 12.495 17.204C9.88699 17.204 7.94799 18.135 6.69499 20.007C5.98399 20.997 5.62799 22.242 5.62799 23.723C5.62799 25.349 6.02599 26.678 6.81399 27.72C7.22899 28.312 8.02399 29.049 9.20099 29.93C10.37 30.802 11.369 31.614 12.173 32.36C13.613 32.046 15.238 31.775 17.05 31.538C18.862 31.309 21.199 31.174 24.06 31.14V31.14ZM37.844 42.875L37.107 39.945C33.882 39.209 29.826 38.836 24.949 38.836C20.123 38.836 16.085 39.209 12.842 39.946L12.055 42.9C15.195 41.944 19.497 41.461 24.975 41.461C27.599 41.461 30.046 41.597 32.29 41.859C34.542 42.121 36.396 42.46 37.844 42.875ZM37.201 35.458C34.161 34.62 30.105 34.197 25.051 34.197C19.954 34.197 15.856 34.628 12.749 35.484L13.121 37.99C16.246 37.177 20.216 36.77 25.051 36.77C29.86 36.77 33.78 37.168 36.803 37.964L37.201 35.458ZM25.838 31.166C28.683 31.216 31.02 31.36 32.84 31.589C34.652 31.818 36.295 32.097 37.75 32.41C38.657 31.513 39.664 30.666 40.773 29.853C41.882 29.04 42.661 28.346 43.11 27.77C43.898 26.695 44.296 25.357 44.296 23.749C44.296 22.284 43.94 21.048 43.229 20.057C41.959 18.187 40.011 17.255 37.404 17.255C35.88 17.255 34.296 17.585 32.637 18.245C31.13 18.838 30.047 19.482 29.36 20.175C27.955 21.539 26.93 23.325 26.287 25.535C26.041 26.297 25.906 27.262 25.88 28.439C25.854 29.616 25.838 30.522 25.838 31.166V31.166ZM27.65 29.236C27.65 28.753 27.71 28.076 27.81 27.186C27.921 26.306 28.09 25.611 28.319 25.112C28.937 23.774 29.809 22.538 30.952 21.395C31.282 21.065 31.994 20.616 33.086 20.057C34.1568 19.5263 35.3369 19.2537 36.532 19.261C37.462 19.261 38.377 19.422 39.3 19.744C40.215 20.066 40.909 20.557 41.366 21.226C41.781 21.785 41.993 22.69 41.993 23.952C41.993 24.942 41.586 25.865 40.773 26.729C40.2193 27.296 39.6491 27.8466 39.063 28.38C38.453 28.93 37.861 29.582 37.303 30.327C36.345 29.997 35.008 29.735 33.297 29.557C31.587 29.371 29.707 29.269 27.65 29.235V29.236Z" fill="url(#bkpaint0_linear_1_260)" />
    <defs>
      <linearGradient id="bkpaint0_linear_1_260" x1="21.13" y1="37.224" x2="77.764" y2="37.469" gradientUnits="userSpaceOnUse">
        <stop stop-color="#00ADB5" />
        <stop offset="1" stop-color="white" stop-opacity="0" />
      </linearGradient>
    </defs>
  </g>
  <g id="bn" fill="none" transform="scale(0.8 0.8)">
    <path fill-rule="evenodd" clip-rule="evenodd" d="M26.178 9.39501C28.778 9.56501 31.182 10.233 33.4 11.41C35.61 12.579 37.498 14.086 39.056 15.923C40.148 17.21 41.173 18.768 42.138 20.588C43.1184 22.4228 43.8963 24.3589 44.458 26.362C45.1328 28.7986 45.5528 31.2987 45.711 33.822C45.888 36.421 45.973 38.834 45.973 41.052V46.454H15.468C15.315 46.454 15.248 46.047 15.256 45.244C15.265 44.43 15.316 43.778 15.416 43.279C15.476 42.881 15.637 42.322 15.883 41.594C16.137 40.866 16.543 39.985 17.127 38.944C17.39 38.41 18.017 37.64 19.007 36.624C20.006 35.608 21.14 34.423 22.436 33.085C23.181 32.323 23.756 31.366 24.18 30.206C24.603 29.055 24.781 28.005 24.713 27.056C24.105 27.5549 23.4297 27.9656 22.707 28.276C19.202 29.529 16.662 31.349 15.095 33.728C14.977 33.881 14.605 34.55 13.978 35.743C13.648 36.37 13.36 36.802 13.131 37.03C12.818 37.344 12.361 37.521 11.768 37.555C10.845 37.598 10.125 37.157 9.60801 36.209C8.91501 36.412 8.29601 36.497 7.74601 36.463C6.82301 36.116 6.15401 35.743 5.74001 35.346C4.89301 34.499 4.35101 33.661 4.08901 32.814C3.82936 31.9289 3.70099 31.0104 3.70801 30.088C3.70801 28.699 4.56301 26.862 6.29001 24.576C8.30501 21.951 9.38001 19.945 9.50701 18.573C9.50701 17.98 9.56701 17.312 9.68501 16.566C9.79275 16.0341 10.0026 15.5281 10.303 15.076C10.523 14.746 10.667 14.518 10.735 14.399C10.811 14.272 10.947 14.086 11.15 13.84C11.294 13.637 11.42 13.485 11.522 13.383C11.615 13.273 11.742 13.129 11.895 12.943C12.073 12.731 12.301 12.486 12.589 12.198C11.7127 9.81404 11.3491 7.27204 11.522 4.73801C14.807 5.90701 17.576 7.75301 19.802 10.268C20.353 8.39601 21.428 6.88101 23.028 5.72901C24.349 6.65201 25.399 7.87901 26.178 9.39501V9.39501Z" fill="#222831" />
    <path fill-rule="evenodd" clip-rule="evenodd" d="M15.688 17.786L16.23 17.506C16.73 17.312 16.882 16.947 16.704 16.414C16.509 15.923 16.128 15.754 15.561 15.923C13.614 16.634 12.267 17.938 11.522 19.843C11.404 20.385 11.598 20.757 12.115 20.961C12.631 21.121 12.979 20.944 13.156 20.411C13.292 20.131 13.385 19.945 13.453 19.868C13.639 20.012 13.876 20.114 14.173 20.165C15.18 20.325 15.773 19.885 15.933 18.827C15.9822 18.4617 15.895 18.091 15.688 17.786V17.786ZM11.573 34.55C11.633 34.397 11.743 34.177 11.895 33.88C12.175 33.187 12.31 32.772 12.31 32.636C12.284 32.179 12.039 31.942 11.59 31.942C11.26 31.942 10.879 32.416 10.43 33.356C10.3603 33.4936 10.2588 33.6125 10.134 33.703C9.68499 34.169 9.75299 34.558 10.328 34.871C10.862 35.185 11.268 35.083 11.573 34.55ZM26.203 25.346C27.363 23.822 27.931 22.129 27.913 20.266C27.846 19.716 27.533 19.446 26.973 19.446C26.212 19.446 25.916 19.725 26.076 20.283C26.127 21.198 26.043 21.951 25.806 22.544C25.424 23.484 25.001 24.187 24.544 24.652C24.29 25.152 24.442 25.516 24.993 25.744C25.518 25.99 25.924 25.863 26.203 25.346V25.346ZM19.726 13.24C19.6511 12.5975 19.6683 11.9476 19.777 11.31C18.787 11.504 17.855 11.97 16.975 12.698C16.45 12.978 16.323 13.368 16.602 13.867C16.882 14.375 17.272 14.459 17.771 14.112C18.118 13.926 18.44 13.757 18.727 13.604C19.015 13.444 19.345 13.324 19.727 13.24H19.726ZM42.976 44.694C42.959 44.694 42.976 44.245 43.018 43.348C43.149 40.24 43.114 37.127 43.094 34.018C43.0739 31.7853 42.7753 29.5638 42.205 27.405C41.365 24.095 40.081 20.92 38.133 18.108C35.499 14.263 31.319 12.075 26.847 11.132C26.973 11.898 26.88 12.672 26.923 13.443C28.4975 13.9728 30.0172 14.6533 31.461 15.475C35.702 18.03 37.875 22.751 38.658 27.405C39.93 33.559 39.111 38.962 39.471 44.694H42.976ZM9.43899 30.139C9.91399 29.799 9.96399 29.41 9.58299 28.945C9.18499 28.564 8.75299 28.53 8.27099 28.843C7.26399 29.503 6.72099 30.376 6.65399 31.451C6.67099 31.993 7.00099 32.255 7.62799 32.221C8.21999 32.171 8.50799 31.866 8.49099 31.299C8.62699 30.774 8.93999 30.384 9.43899 30.139V30.139Z" fill="url(#bnpaint0_linear_1_266)" />
    <defs>
      <linearGradient id="bnpaint0_linear_1_266" x1="21.253" y1="37.592" x2="77.641" y2="37.469" gradientUnits="userSpaceOnUse">
        <stop stop-color="#00ADB5" />
        <stop offset="1" stop-color="white" stop-opacity="0" />
      </linearGradient>
    </defs>
  </g>
  <g id="bp" fill="none" transform="scale(0.8 0.8)">
    <path fill-rule="evenodd" clip-rule="evenodd" d="M25 46.448H11.606C10.9472 44.8486 10.6108 43.1348 10.616 41.405C10.616 38.43 11.479 35.761 13.214 33.387C14.95 31.022 17.185 29.333 19.911 28.32C18.753 27.8021 17.7622 26.9717 17.05 25.922C16.313 24.851 15.95 23.639 15.95 22.288C15.95 20.598 16.525 19.132 17.685 17.896C18.836 16.652 20.259 15.935 21.952 15.746C20.606 14.765 19.937 13.463 19.937 11.856C19.937 10.505 20.428 9.343 21.419 8.379C22.401 7.415 23.595 6.937 25 6.937C26.389 6.937 27.582 7.415 28.573 8.379C29.564 9.343 30.063 10.505 30.063 11.856C30.063 13.463 29.394 14.765 28.048 15.746C29.741 15.935 31.164 16.652 32.315 17.896C33.475 19.132 34.051 20.599 34.051 22.288C34.051 23.639 33.678 24.851 32.925 25.922C32.2044 26.9645 31.2155 27.793 30.063 28.32C32.789 29.333 35.025 31.022 36.76 33.387C38.496 35.761 39.36 38.43 39.36 41.405C39.36 43.144 39.038 44.825 38.394 46.448H25Z" fill="#222831" />
  </g>
  <g id="bq" fill="none" transform="scale(0.8 0.8)">
    <path fill-rule="evenodd" clip-rule="evenodd" d="M24.95 10.752C24.01 10.752 23.205 10.422 22.553 9.762C21.901 9.102 21.579 8.297 21.579 7.357C21.579 6.426 21.901 5.63 22.553 4.97C23.205 4.31 24.009 3.98 24.949 3.98C25.872 3.98 26.676 4.31 27.345 4.97C27.6672 5.27743 27.9224 5.64818 28.0945 6.05896C28.2666 6.46974 28.3519 6.91168 28.345 7.357C28.345 8.297 28.015 9.101 27.345 9.762C26.676 10.422 25.872 10.752 24.949 10.752H24.95ZM40.231 43.942C39.419 44.652 37.598 45.246 34.771 45.728C31.943 46.202 28.683 46.448 25 46.448C21.25 46.448 17.947 46.194 15.102 45.703C12.258 45.203 10.462 44.585 9.718 43.84L11.284 37.888L10.59 33.993L8.405 30.2L6.297 14.774L7.507 14.3L14.307 25.755L14.459 12.115L16.144 11.819L21.326 25.535L24.102 10.778H25.822L28.598 25.484L33.73 11.82L35.44 12.116L35.593 25.756L42.417 14.276L43.577 14.817L41.519 30.176L39.309 33.969L38.615 37.914L40.231 43.942ZM14.535 11.989C13.587 11.989 12.783 11.667 12.122 11.015C11.462 10.363 11.132 9.559 11.132 8.619C11.132 7.696 11.462 6.9 12.122 6.239C12.782 5.578 13.587 5.249 14.535 5.249C15.458 5.249 16.254 5.579 16.915 6.239C17.576 6.899 17.905 7.696 17.905 8.619C17.905 9.559 17.575 10.363 16.915 11.015C16.6049 11.33 16.234 11.5787 15.8249 11.7461C15.4158 11.9135 14.977 11.9962 14.535 11.989V11.989ZM35.363 11.989C34.423 11.989 33.627 11.667 32.976 11.015C32.324 10.363 31.994 9.559 31.994 8.619C31.994 7.696 32.324 6.9 32.976 6.239C33.628 5.578 34.423 5.249 35.363 5.249C36.311 5.249 37.116 5.579 37.776 6.239C38.436 6.899 38.766 7.696 38.766 8.619C38.766 9.559 38.436 10.363 37.776 11.015C37.116 11.667 36.311 11.989 35.363 11.989ZM5.4 14.723C4.46 14.723 3.664 14.393 3.012 13.741C2.36 13.089 2.03 12.293 2.03 11.345C2.03 10.422 2.36 9.626 3.012 8.957C3.664 8.28 4.46 7.95 5.4 7.95C6.348 7.95 7.144 8.28 7.813 8.957C8.473 9.627 8.803 10.422 8.803 11.345C8.803 12.293 8.473 13.089 7.813 13.741C7.49768 14.0588 7.1214 14.3096 6.70674 14.4783C6.29209 14.6471 5.84762 14.7303 5.4 14.723ZM44.541 14.723C43.601 14.723 42.797 14.393 42.137 13.741C41.477 13.089 41.146 12.293 41.146 11.345C41.146 10.422 41.476 9.626 42.136 8.957C42.796 8.28 43.601 7.95 44.541 7.95C45.472 7.95 46.268 8.28 46.929 8.957C47.589 9.627 47.919 10.422 47.919 11.345C47.919 12.293 47.589 13.089 46.929 13.741C46.6181 14.0577 46.2462 14.3081 45.8357 14.4769C45.4252 14.6457 44.9848 14.7294 44.541 14.723Z" fill="#222831" />
    <path fill-rule="evenodd" clip-rule="evenodd" d="M37.2 35.73C34.16 34.89 30.105 34.468 25.05 34.468C19.954 34.468 15.856 34.899 12.749 35.754L13.121 38.261C16.245 37.448 20.216 37.041 25.051 37.041C29.86 37.041 33.78 37.439 36.803 38.235L37.2 35.73ZM38.936 31.293C37.564 30.793 35.634 30.387 33.145 30.065C30.655 29.743 27.912 29.582 24.898 29.582C21.952 29.582 19.26 29.735 16.813 30.04C14.366 30.344 12.435 30.742 11.03 31.242L12.275 33.494C13.663 33.088 15.466 32.791 17.685 32.604C19.895 32.427 22.316 32.334 24.949 32.334C27.582 32.334 30.012 32.427 32.239 32.604C34.474 32.791 36.286 33.096 37.675 33.519L38.936 31.293ZM37.844 43.146L37.107 40.216C33.881 39.48 29.826 39.107 24.949 39.107C20.123 39.107 16.085 39.48 12.842 40.217L12.054 43.171C15.196 42.215 19.497 41.731 24.974 41.731C27.599 41.731 30.046 41.867 32.29 42.13C34.542 42.392 36.396 42.731 37.844 43.146Z" fill="url(#bqpaint0_linear_1_277)" />
    <defs>
      <linearGradient id="bqpaint0_linear_1_277" x1="21.253" y1="37.224" x2="77.764" y2="37.36" gradientUnits="userSpaceOnUse">
        <stop stop-color="#00ADB5" />
        <stop offset="1" stop-color="white" stop-opacity="0" />
      </linearGradient>
    </defs>
  </g>
  <g id="br" fill="none" transform="scale(0.8 0.8)">
    <path fill-rule="evenodd" clip-rule="evenodd" d="M28.408 9.22H32.624V5.825H39.423V15.121L33.92 19.363V31.225L38.136 35.441V40.521H41.929V46.448H8.07101V40.52H11.864V35.44L16.106 31.224V19.363L10.602 15.121V5.825H17.376V9.22H21.618V5.825H28.408V9.22Z" fill="#222831" />
    <path fill-rule="evenodd" clip-rule="evenodd" d="M25.013 35.043H14.743L13.6 36.11V37.55H36.426V36.11L35.283 35.043H25.013ZM13.6 40.123V42.655H36.426V40.123H13.6ZM25.013 13.04H12.313V14.182L14.125 15.546H35.926L37.687 14.182V13.04H25.013ZM25.013 17.23H16.334L17.816 18.399V19.813H32.209V18.399L33.691 17.231L25.013 17.23ZM25.013 30.777H17.816V31.92L16.334 33.36H33.691L32.209 31.92V30.777H25.013Z" fill="url(#brpaint0_linear_1_283)" />
    <defs>
      <linearGradient id="brpaint0_linear_1_283" x1="21.192" y1="37.552" x2="77.736" y2="37.429" gradientUnits="userSpaceOnUse">
        <stop stop-color="#00ADB5" />
        <stop offset="1" stop-color="white" stop-opacity="0" />
      </linearGradient>
    </defs>
  </g>
  <g id="wb" fill="none" transform="scale(0.8 0.8)">
    <path fill-rule="evenodd" clip-rule="evenodd" d="M25.447 42.008C25.219 42.948 24.931 43.6 24.601 43.964C24.271 44.328 23.839 44.709 23.288 45.107C22.696 45.522 21.993 45.869 21.18 46.157C20.367 46.445 19.47 46.521 18.48 46.368L11.511 45.403C11.2581 45.369 11.0018 45.369 10.749 45.403C10.529 45.437 10.317 45.454 10.114 45.454C9.76699 45.454 9.32699 45.53 8.79399 45.691C8.25199 45.843 7.83699 46.072 7.53999 46.368L5.13599 42.423C5.43199 42.093 5.69499 41.864 5.92299 41.729C6.15999 41.602 6.43099 41.458 6.74399 41.314C7.71298 40.8631 8.75328 40.585 9.81799 40.492C10.284 40.459 10.741 40.45 11.181 40.467C11.6472 40.4836 12.1141 40.4669 12.578 40.417C13.468 40.569 14.364 40.704 15.262 40.823C16.168 40.95 17.074 41.077 17.98 41.213C18.97 41.213 19.64 41.111 19.986 40.916C20.173 40.814 20.46 40.628 20.858 40.366C21.256 40.103 21.654 39.714 22.052 39.197C21.172 39.104 20.282 38.935 19.368 38.689C18.5541 38.4801 17.7516 38.2287 16.964 37.936L19.546 31.535C18.251 30.79 17.353 30.197 16.836 29.74C16.337 29.2959 15.9265 28.7616 15.626 28.165C15.194 27.403 14.915 26.666 14.796 25.955C14.6771 25.3245 14.6235 24.6835 14.636 24.042C14.652 23.052 14.881 21.959 15.338 20.757C15.795 19.563 16.65 18.487 17.904 17.547C18.9428 16.754 19.9618 15.9355 20.96 15.092C22.0147 14.1827 22.9995 13.1952 23.906 12.138C22.687 11.511 22.078 10.512 22.078 9.14C22.078 8.21 22.399 7.422 23.051 6.753C23.703 6.093 24.508 5.763 25.447 5.763C26.37 5.763 27.167 6.093 27.827 6.753C28.487 7.422 28.817 8.209 28.817 9.14C28.817 10.495 28.207 11.494 26.988 12.138C27.8812 13.1965 28.8551 14.1841 29.901 15.092C30.883 15.931 31.916 16.752 32.991 17.548C34.227 18.488 35.074 19.563 35.514 20.757C35.963 21.959 36.208 23.051 36.234 24.042C36.234 24.609 36.184 25.244 36.064 25.955C35.944 26.666 35.684 27.403 35.269 28.165C34.9417 28.7559 34.5182 29.2882 34.016 29.74C33.516 30.197 32.627 30.79 31.349 31.535L33.931 37.935C33.1244 38.223 32.3052 38.4746 31.476 38.689C30.561 38.935 29.689 39.104 28.842 39.197C29.223 39.714 29.613 40.103 30.011 40.365C30.409 40.628 30.705 40.815 30.908 40.915C31.255 41.111 31.924 41.212 32.915 41.212C33.8116 41.0774 34.709 40.9474 35.607 40.822C36.5152 40.702 37.4213 40.5667 38.325 40.416C38.765 40.467 39.215 40.484 39.671 40.467C40.1398 40.4502 40.6091 40.4585 41.077 40.492C42.1398 40.5937 43.1783 40.8715 44.15 41.314C44.447 41.458 44.717 41.602 44.955 41.729C45.2 41.864 45.463 42.093 45.759 42.423L43.329 46.368C43.033 46.072 42.618 45.843 42.076 45.691C41.542 45.531 41.111 45.454 40.78 45.454C40.56 45.454 40.34 45.437 40.12 45.404C39.8701 45.37 39.6168 45.37 39.367 45.404L32.415 46.368C31.425 46.521 30.502 46.453 29.655 46.174C28.8 45.894 28.097 45.522 27.555 45.056C27.1042 44.6914 26.6695 44.3073 26.252 43.905C25.93 43.583 25.659 42.948 25.447 42.008Z" fill="#393E46" />
    <path fill-rule="evenodd" clip-rule="evenodd" d="M26.32 39.197C26.32 40.289 26.565 41.221 27.073 41.991C27.573 42.761 28.114 43.363 28.699 43.786C29.604 44.455 30.934 44.786 32.686 44.786C33.118 44.786 33.965 44.692 35.218 44.506C36.0426 44.3735 36.8694 44.2548 37.698 44.15C38.325 44.074 38.748 44.015 38.968 43.964C39.6274 43.8797 40.2957 43.8966 40.95 44.014C41.212 44.082 41.509 44.142 41.83 44.201C42.1289 44.249 42.408 44.3807 42.635 44.581L43.829 42.651C43.1506 42.3006 42.4219 42.0577 41.669 41.931C40.417 41.711 39.316 41.669 38.368 41.78C38.088 41.813 37.724 41.898 37.267 42.025C36.81 42.161 36.2 42.288 35.421 42.397C33.745 42.669 32.864 42.796 32.763 42.796C32.119 42.796 31.56 42.719 31.078 42.55C30.6373 42.3985 30.2073 42.2174 29.791 42.008C28.911 41.61 28.021 40.67 27.107 39.198L26.32 39.197ZM24.558 39.197H23.763C22.831 40.687 21.951 41.627 21.104 42.008C20.706 42.203 20.274 42.381 19.792 42.55C19.309 42.72 18.759 42.796 18.132 42.796C18.014 42.796 17.133 42.669 15.474 42.398C14.686 42.288 14.051 42.16 13.594 42.025C13.2356 41.9203 12.8708 41.8385 12.502 41.78C11.554 41.67 10.462 41.712 9.20001 41.932C8.45471 42.0562 7.73421 42.2993 7.06601 42.652L8.26001 44.582C8.45501 44.387 8.71701 44.26 9.03901 44.201C9.36101 44.141 9.65701 44.082 9.91901 44.015C10.5732 43.8972 11.2416 43.88 11.901 43.964C12.121 44.014 12.544 44.074 13.171 44.15C13.797 44.226 14.636 44.345 15.677 44.506C16.913 44.692 17.76 44.786 18.208 44.786C19.944 44.786 21.273 44.455 22.196 43.786C22.763 43.363 23.296 42.762 23.796 41.991C24.304 41.221 24.558 40.289 24.558 39.197ZM25.448 29.85C27.048 29.85 28.588 29.977 30.062 30.222C31.679 29.647 32.856 28.741 33.584 27.522C34.2102 26.4638 34.5353 25.2546 34.524 24.025C34.524 23.263 34.337 22.425 33.956 21.502C33.576 20.587 32.957 19.758 32.094 19.012C31.12 18.2 30.054 17.311 28.894 16.346C27.664 15.3025 26.5119 14.1705 25.447 12.959C24.287 14.246 23.136 15.38 21.977 16.346C20.9138 17.2296 19.8551 18.1186 18.801 19.013C17.921 19.758 17.302 20.587 16.93 21.502C16.557 22.425 16.371 23.262 16.371 24.025C16.371 25.295 16.676 26.463 17.285 27.522C17.997 28.741 19.182 29.647 20.833 30.222C22.358 29.9697 23.9023 29.8453 25.448 29.85ZM25.448 34.363C27.386 34.363 29.241 34.557 31.027 34.938L29.842 31.882C28.3883 31.6522 26.9188 31.5362 25.447 31.535C23.94 31.535 22.467 31.653 21.037 31.882L19.843 34.938C21.612 34.558 23.484 34.363 25.448 34.363ZM25.448 10.825C26.574 10.825 27.132 10.266 27.132 9.14001C27.132 8.01401 26.573 7.44701 25.447 7.44701C24.321 7.44701 23.763 8.01401 23.763 9.14001C23.763 10.266 24.322 10.825 25.448 10.825ZM25.448 37.834C26.5491 37.8362 27.6482 37.7425 28.733 37.554C29.799 37.36 30.833 37.131 31.823 36.869C29.883 36.361 27.759 36.099 25.447 36.099C23.102 36.099 20.977 36.361 19.072 36.869C20.029 37.131 21.045 37.359 22.12 37.555C23.219 37.7431 24.3331 37.8365 25.448 37.834ZM24.558 23.5L22.493 23.474C21.933 23.474 21.654 23.195 21.654 22.628C21.654 22.069 21.934 21.79 22.493 21.79H24.558V19.656C24.558 19.08 24.855 18.784 25.448 18.784C26.023 18.784 26.32 19.08 26.32 19.656V21.79H28.453C28.995 21.79 29.266 22.07 29.266 22.628C29.266 23.195 28.995 23.474 28.453 23.474H26.32V25.506C26.32 26.108 26.023 26.404 25.447 26.404C24.855 26.404 24.558 26.108 24.558 25.506V23.5Z" fill="url(#wbpaint0_linear_1_257)" />
    <defs>
      <linearGradient id="wbpaint0_linear_1_257" x1="21.13" y1="37.592" x2="77.641" y2="37.469" gradientUnits="userSpaceOnUse">
        <stop stop-color="#EEEEEE" />
        <stop offset="1" stop-color="white" stop-opacity="0" />
      </linearGradient>
    </defs>
  </g>
  <g id="wk" fill="none" transform="scale(0.8 0.8)">
    <path fill-rule="evenodd" clip-rule="evenodd" d="M25.821 12.022H24.061V8.772H21.994C21.436 8.772 21.156 8.5 21.156 7.95V7.925C21.156 7.383 21.436 7.112 21.994 7.112H24.06V5.004C24.06 4.419 24.357 4.132 24.95 4.132C25.525 4.132 25.821 4.419 25.821 5.004V7.112H27.955C28.497 7.112 28.768 7.382 28.768 7.925V7.95C28.768 8.5 28.497 8.771 27.955 8.771L25.838 8.797L25.821 12.022ZM11.03 37.744L10.217 33.104C10.2 33.104 10.175 33.071 10.141 33.003C10.056 32.884 9.819 32.732 9.43 32.546C9.049 32.351 8.592 32.029 8.084 31.564C7.50339 31.0827 6.93585 30.5859 6.382 30.074C5.976 29.6984 5.60759 29.2841 5.282 28.837C4.273 27.45 3.705 25.772 3.595 23.8C3.425 21.903 4.196 20.006 5.898 18.118C7.617 16.238 9.945 15.35 12.866 15.468C13.958 15.536 15.246 15.798 16.71 16.264C17.193 16.459 17.684 16.654 18.192 16.84L19.69 17.424C19.953 17.56 20.19 17.695 20.385 17.822C20.3011 17.4813 20.2585 17.1318 20.258 16.781C20.258 15.494 20.715 14.393 21.638 13.479C22.552 12.573 23.661 12.107 24.948 12.09C26.235 12.09 27.336 12.556 28.25 13.47C29.156 14.385 29.613 15.485 29.613 16.755C29.613 17.018 29.579 17.365 29.512 17.797C29.74 17.653 29.969 17.526 30.181 17.424C30.943 17.094 31.941 16.704 33.186 16.264C34.609 15.782 35.887 15.511 37.03 15.443C39.951 15.307 42.271 16.196 43.973 18.093C45.641 19.981 46.42 21.878 46.301 23.774C46.174 25.747 45.598 27.424 44.591 28.812C44.261 29.261 43.888 29.675 43.473 30.065C42.9332 30.5711 42.3797 31.0623 41.813 31.538C41.272 32.004 40.806 32.334 40.425 32.52C40.045 32.706 39.825 32.867 39.756 32.977C39.7435 33.0051 39.7266 33.0311 39.706 33.054C39.689 33.071 39.68 33.088 39.68 33.104L38.884 37.77L40.527 43.891C39.697 44.636 37.843 45.246 34.973 45.728C32.094 46.211 28.767 46.448 24.999 46.448C21.164 46.448 17.785 46.194 14.881 45.694C11.969 45.186 10.14 44.551 9.395 43.798L11.03 37.744Z" fill="#393E46" />
    <path fill-rule="evenodd" clip-rule="evenodd" d="M25.796 29.532C28.641 29.565 31.24 29.735 33.602 30.04C35.972 30.344 37.827 30.734 39.165 31.191C39.8564 30.6478 40.5421 30.0975 41.222 29.54C41.9085 28.9945 42.5332 28.3755 43.085 27.694C43.872 26.687 44.27 25.357 44.27 23.698C44.27 22.216 43.914 20.972 43.203 19.981C41.933 18.127 39.994 17.204 37.403 17.204C35.846 17.204 34.254 17.526 32.611 18.169C31.172 18.753 30.08 19.397 29.343 20.109C27.955 21.497 26.922 23.283 26.261 25.459C26.033 26.238 25.897 26.949 25.855 27.584C25.813 28.219 25.795 28.871 25.795 29.531L25.796 29.532ZM12.546 36.229C15.686 35.433 19.852 35.035 25.051 35.035C30.139 35.035 34.254 35.415 37.378 36.178L37.996 32.528C34.669 31.657 30.326 31.216 24.949 31.216C19.539 31.216 15.204 31.666 11.927 32.554L12.546 36.229ZM37.844 40.639L37.107 37.795C33.831 37.067 29.775 36.703 24.949 36.703C20.14 36.703 16.093 37.067 12.816 37.795L12.029 40.665C15.187 39.742 19.497 39.277 24.975 39.277C30.419 39.277 34.703 39.734 37.844 40.64V40.639ZM38.496 42.977C35.304 41.69 30.816 41.037 25.051 41.037C19.065 41.037 14.535 41.698 11.453 43.027C14.366 44.179 18.87 44.763 24.975 44.763C27.887 44.763 30.537 44.603 32.933 44.28C35.338 43.959 37.183 43.518 38.496 42.977V42.977ZM24.077 29.532C24.069 28.888 24.043 28.245 24.009 27.61C23.975 26.975 23.849 26.263 23.637 25.484C22.96 23.274 21.935 21.488 20.555 20.134C19.844 19.439 18.76 18.787 17.287 18.194C15.602 17.534 14.002 17.204 12.495 17.204C9.88699 17.204 7.94799 18.135 6.69499 20.007C5.98399 20.997 5.62799 22.242 5.62799 23.723C5.62799 25.349 6.02599 26.678 6.81399 27.72C7.29599 28.33 7.90599 28.947 8.65099 29.557C9.39599 30.167 10.091 30.725 10.734 31.217C13.629 30.175 18.074 29.617 24.077 29.532V29.532ZM24.949 24.917C25.068 24.452 25.161 24.13 25.245 23.952C25.415 23.309 25.601 22.758 25.821 22.309C25.914 22.03 26.058 21.709 26.253 21.336C26.439 20.963 26.643 20.531 26.863 20.057C26.99 19.777 27.133 19.431 27.278 19.024C27.43 18.618 27.582 18.22 27.726 17.822C27.862 17.492 27.929 17.136 27.929 16.755C27.929 15.942 27.633 15.257 27.057 14.689C26.482 14.114 25.779 13.826 24.949 13.826C22.985 13.826 21.994 14.816 21.994 16.781C21.994 17.161 22.062 17.517 22.197 17.848C22.562 18.923 22.841 19.668 23.036 20.083C23.256 20.557 23.451 20.989 23.636 21.361C23.815 21.734 23.976 22.055 24.102 22.335C24.322 22.885 24.5 23.427 24.652 23.977C24.687 24.071 24.78 24.392 24.949 24.917V24.917Z" fill="url(#wkpaint0_linear_1_263)" />
    <defs>
      <linearGradient id="wkpaint0_linear_1_263" x1="21.376" y1="37.346" x2="77.641" y2="37.346" gradientUnits="userSpaceOnUse">
        <stop stop-color="#EEEEEE" />
        <stop offset="1" stop-color="white" stop-opacity="0" />
      </linearGradient>
    </defs>
  </g>
  <g id="wn" fill="none" transform="scale(0.8 0.8)">
    <path fill-rule="evenodd" clip-rule="evenodd" d="M26.178 9.39501C28.778 9.56501 31.182 10.233 33.4 11.41C35.61 12.579 37.498 14.086 39.056 15.923C40.148 17.21 41.173 18.768 42.138 20.588C43.1184 22.4228 43.8963 24.3589 44.458 26.362C45.1328 28.7986 45.5528 31.2987 45.711 33.822C45.888 36.421 45.973 38.834 45.973 41.052V46.454H15.468C15.315 46.454 15.248 46.047 15.256 45.244C15.265 44.43 15.316 43.778 15.416 43.279C15.476 42.881 15.637 42.322 15.883 41.594C16.137 40.866 16.543 39.985 17.127 38.944C17.39 38.41 18.017 37.64 19.007 36.624C20.006 35.608 21.14 34.423 22.436 33.085C23.181 32.323 23.756 31.366 24.18 30.206C24.603 29.055 24.781 28.005 24.713 27.056C24.105 27.5549 23.4297 27.9656 22.707 28.276C19.202 29.529 16.662 31.349 15.095 33.728C14.977 33.881 14.605 34.55 13.978 35.743C13.648 36.37 13.36 36.802 13.131 37.03C12.818 37.344 12.361 37.521 11.768 37.555C10.845 37.598 10.125 37.157 9.60801 36.209C8.91501 36.412 8.29601 36.497 7.74601 36.463C6.82301 36.116 6.15401 35.743 5.74001 35.346C4.89301 34.499 4.35101 33.661 4.08901 32.814C3.82936 31.9289 3.70099 31.0104 3.70801 30.088C3.70801 28.699 4.56301 26.862 6.29001 24.576C8.30501 21.951 9.38001 19.945 9.50701 18.573C9.50701 17.98 9.56701 17.312 9.68501 16.566C9.79275 16.0341 10.0026 15.5281 10.303 15.076C10.523 14.746 10.667 14.518 10.735 14.399C10.811 14.272 10.947 14.086 11.15 13.84C11.294 13.637 11.42 13.485 11.522 13.383C11.615 13.273 11.742 13.129 11.895 12.943C12.073 12.731 12.301 12.486 12.589 12.198C11.7127 9.81404 11.3491 7.27204 11.522 4.73801C14.807 5.90701 17.576 7.75301 19.802 10.268C20.353 8.39601 21.428 6.88101 23.028 5.72901C24.349 6.65201 25.399 7.87901 26.178 9.39501V9.39501Z" fill="#393E46" />
    <path fill-rule="evenodd" clip-rule="evenodd" d="M42.976 44.693C42.959 44.693 42.976 44.244 43.018 43.347C43.069 42.441 43.094 41.467 43.094 40.426C43.111 38.36 43.111 36.226 43.094 34.016C43.0738 31.7836 42.7752 29.5624 42.205 27.404C41.638 25.287 41.02 23.484 40.343 21.985C39.665 20.487 38.929 19.2 38.133 18.107C36.948 16.321 35.322 14.805 33.273 13.569C31.224 12.325 29.083 11.512 26.847 11.131C26.999 11.944 27.067 12.74 27.05 13.518C27.016 14.111 26.737 14.408 26.203 14.408C25.593 14.408 25.323 14.111 25.383 13.518C25.433 11.334 24.654 9.463 23.053 7.914C21.801 9.234 21.115 10.767 21.022 12.519C20.988 13.104 20.692 13.358 20.124 13.289C19.599 13.273 19.337 12.969 19.337 12.375C19.337 12.375 19.354 12.308 19.379 12.172C18.702 12.392 17.991 12.697 17.246 13.095C16.772 13.425 16.382 13.341 16.086 12.85C15.789 12.35 15.916 11.96 16.484 11.681C17.194 11.317 17.728 11.046 18.092 10.86C16.6852 9.4169 15.0414 8.22565 13.232 7.338C13.4241 9.61744 14.0662 11.8362 15.121 13.866C15.4 14.289 15.332 14.67 14.917 15C14.452 15.364 14.062 15.313 13.749 14.83C13.5682 14.5407 13.4043 14.2412 13.258 13.933C12.911 14.28 12.674 14.543 12.564 14.703C12.445 14.856 12.242 15.186 11.954 15.694C11.666 16.211 11.454 16.634 11.319 16.964C11.175 17.379 11.107 17.709 11.133 17.972C11.158 18.226 11.183 18.505 11.2 18.827C11.0458 19.8009 10.7038 20.7356 10.193 21.579C9.54168 22.6382 8.87562 23.6883 8.195 24.729C7.6106 25.6281 7.01489 26.5199 6.408 27.404C5.993 28.005 5.68 28.758 5.468 29.69C5.316 30.249 5.316 30.934 5.468 31.73C5.612 32.535 5.943 33.161 6.434 33.61C7.196 34.38 7.932 34.736 8.644 34.677C8.872 34.677 9.185 34.584 9.574 34.397C9.964 34.219 10.261 33.872 10.481 33.356C10.904 32.416 11.26 31.942 11.548 31.942C11.954 31.942 12.183 32.179 12.216 32.636C12.216 32.738 12.081 33.153 11.819 33.881C11.666 34.211 11.471 34.558 11.226 34.922C10.904 35.354 10.769 35.532 10.803 35.464C11.065 36.412 11.505 36.574 12.115 35.964C12.293 35.786 12.505 35.439 12.733 34.948C12.97 34.448 13.334 33.779 13.825 32.941C14.409 31.959 15.027 31.171 15.688 30.553C16.348 29.943 16.932 29.444 17.448 29.072C17.745 28.852 18.109 28.606 18.541 28.327C18.973 28.039 19.549 27.751 20.277 27.455C20.853 27.226 21.496 26.938 22.199 26.599C22.902 26.26 23.528 25.829 24.069 25.296C24.832 24.551 25.416 23.636 25.831 22.544C26.051 21.934 26.127 21.181 26.076 20.284C25.932 19.724 26.212 19.445 26.923 19.445C27.456 19.445 27.753 19.716 27.821 20.266C27.821 22.129 27.287 23.831 26.229 25.372C26.576 26.43 26.669 27.59 26.499 28.843C26.356 29.851 26 30.934 25.449 32.086C24.891 33.229 23.773 34.507 22.089 35.913C18.659 38.758 17.043 41.687 17.229 44.693H29.404H42.976ZM9.338 29.613C8.855 29.91 8.568 30.308 8.466 30.807C8.483 31.349 8.229 31.646 7.704 31.697C7.12 31.764 6.824 31.519 6.806 30.951C6.874 29.859 7.356 28.996 8.271 28.352C8.703 28.005 9.101 28.03 9.465 28.445C9.829 28.894 9.787 29.283 9.338 29.614V29.613ZM16.704 17.786C16.916 18.116 17 18.463 16.949 18.827C16.789 19.885 16.196 20.326 15.189 20.165C14.9283 20.1273 14.6809 20.0256 14.469 19.869C14.409 19.945 14.308 20.131 14.172 20.41C13.994 20.944 13.647 21.122 13.131 20.96C12.623 20.758 12.42 20.385 12.538 19.843C13.283 17.938 14.629 16.634 16.577 15.923C17.144 15.753 17.517 15.923 17.694 16.414C17.898 16.948 17.745 17.312 17.246 17.506C17.1582 17.5563 17.0678 17.6017 16.975 17.642C16.89 17.684 16.805 17.735 16.704 17.786V17.786Z" fill="url(#wnpaint0_linear_1_269)" />
    <defs>
      <linearGradient id="wnpaint0_linear_1_269" x1="21.405" y1="37.346" x2="77.641" y2="37.346" gradientUnits="userSpaceOnUse">
        <stop stop-color="#EEEEEE" />
        <stop offset="1" stop-color="white" stop-opacity="0" />
      </linearGradient>
    </defs>
  </g>
  <g id="wp" fill="none" transform="scale(0.8 0.8)">
    <path fill-rule="evenodd" clip-rule="evenodd" d="M25 46.448H11.606C10.9472 44.8486 10.6108 43.1348 10.616 41.405C10.616 38.43 11.479 35.761 13.214 33.387C14.95 31.022 17.185 29.333 19.911 28.32C18.753 27.8021 17.7622 26.9717 17.05 25.922C16.313 24.851 15.95 23.639 15.95 22.288C15.95 20.598 16.525 19.132 17.685 17.896C18.836 16.652 20.259 15.935 21.952 15.746C20.606 14.765 19.937 13.463 19.937 11.856C19.937 10.505 20.428 9.343 21.419 8.379C22.401 7.415 23.595 6.937 25 6.937C26.389 6.937 27.582 7.415 28.573 8.379C29.563 9.343 30.063 10.505 30.063 11.856C30.063 13.463 29.394 14.765 28.048 15.746C29.741 15.935 31.164 16.652 32.315 17.896C33.475 19.132 34.051 20.599 34.051 22.288C34.051 23.639 33.678 24.851 32.925 25.922C32.2044 26.9645 31.2155 27.793 30.063 28.32C32.789 29.333 35.025 31.022 36.76 33.387C38.496 35.761 39.36 38.43 39.36 41.405C39.36 43.144 39.038 44.825 38.394 46.448H25Z" fill="#393E46" />
    <path fill-rule="evenodd" clip-rule="evenodd" d="M25 44.808H37.175C37.5156 43.7055 37.6925 42.5589 37.7 41.405C37.7 38.892 36.989 36.618 35.558 34.574C34.128 32.53 32.281 31.022 30.038 30.058C28.454 29.438 28.395 29.399 28.395 28.32C28.395 27.471 28.954 26.845 30.063 26.441C31.596 25.395 32.366 24.011 32.366 22.288C32.366 21.044 31.934 19.964 31.079 19.025C30.215 18.094 29.174 17.558 27.955 17.41C26.955 17.327 26.465 16.784 26.465 15.77C26.465 15.317 26.643 14.897 27.007 14.51C27.904 13.834 28.353 12.952 28.353 11.856C28.353 10.958 28.014 10.183 27.353 9.541C26.693 8.898 25.906 8.577 25 8.577C24.06 8.577 23.256 8.897 22.604 9.541C22.2909 9.83892 22.0427 10.1984 21.8751 10.5967C21.7075 10.9951 21.6241 11.4238 21.63 11.856C21.63 12.936 22.07 13.817 22.968 14.509C23.332 14.864 23.51 15.284 23.51 15.77C23.51 16.784 23.027 17.327 22.045 17.41C20.8365 17.5411 19.7199 18.1167 18.912 19.025C18.057 19.965 17.634 21.044 17.634 22.288C17.634 24.01 18.404 25.395 19.937 26.441C21.047 26.853 21.605 27.487 21.605 28.32C21.605 29.4 21.537 29.438 19.937 30.058C17.693 31.022 15.856 32.53 14.434 34.574C13.011 36.618 12.3 38.892 12.3 41.405C12.3 42.6 12.478 43.729 12.825 44.808H25Z" fill="url(#wppaint0_linear_1_274)" />
    <defs>
      <linearGradient id="wppaint0_linear_1_274" x1="21.13" y1="37.5896" x2="77.764" y2="37.716" gradientUnits="userSpaceOnUse">
        <stop stop-color="#EEEEEE" />
        <stop offset="1" stop-color="white" stop-opacity="0" />
      </linearGradient>
    </defs>
  </g>
  <g id="wq" fill="none" transform="scale(0.8 0.8)">
    <path fill-rule="evenodd" clip-rule="evenodd" d="M44.541 14.723C43.601 14.723 42.797 14.393 42.137 13.741C41.477 13.089 41.146 12.293 41.146 11.345C41.146 10.422 41.476 9.626 42.136 8.957C42.796 8.28 43.601 7.95 44.541 7.95C45.472 7.95 46.268 8.28 46.929 8.957C47.589 9.627 47.919 10.422 47.919 11.345C47.919 12.293 47.589 13.089 46.929 13.741C46.6181 14.0577 46.2462 14.3081 45.8357 14.4769C45.4252 14.6457 44.9848 14.7294 44.541 14.723ZM40.231 43.942C39.419 44.652 37.598 45.246 34.771 45.728C31.943 46.202 28.683 46.448 25 46.448C21.25 46.448 17.947 46.194 15.102 45.703C12.258 45.203 10.462 44.585 9.718 43.84L11.284 37.888L10.59 33.993L8.405 30.2L6.297 14.774L7.507 14.3L14.307 25.755L14.459 12.115L16.144 11.819L21.326 25.535L24.102 10.778H25.822L28.598 25.484L33.73 11.82L35.44 12.116L35.593 25.756L42.417 14.276L43.577 14.817L41.519 30.176L39.309 33.969L38.615 37.914L40.231 43.942ZM14.535 11.988C13.587 11.988 12.783 11.667 12.122 11.015C11.462 10.363 11.132 9.559 11.132 8.619C11.132 7.696 11.462 6.9 12.122 6.239C12.782 5.578 13.587 5.249 14.535 5.249C15.458 5.249 16.254 5.579 16.915 6.239C17.576 6.899 17.905 7.696 17.905 8.619C17.905 9.559 17.575 10.363 16.915 11.015C16.6048 11.3298 16.2339 11.5783 15.8248 11.7456C15.4157 11.9128 14.9769 11.9953 14.535 11.988V11.988ZM5.4 14.723C4.46 14.723 3.664 14.393 3.012 13.741C2.36 13.089 2.03 12.293 2.03 11.345C2.03 10.422 2.36 9.626 3.012 8.957C3.664 8.28 4.46 7.95 5.4 7.95C6.348 7.95 7.144 8.28 7.813 8.957C8.473 9.627 8.803 10.422 8.803 11.345C8.803 12.293 8.473 13.089 7.813 13.741C7.49768 14.0588 7.1214 14.3096 6.70674 14.4783C6.29209 14.6471 5.84762 14.7303 5.4 14.723ZM24.95 10.753C24.01 10.753 23.205 10.423 22.553 9.762C21.901 9.102 21.579 8.297 21.579 7.357C21.579 6.426 21.901 5.63 22.553 4.97C23.205 4.31 24.009 3.98 24.949 3.98C25.872 3.98 26.676 4.31 27.345 4.97C27.6672 5.27743 27.9224 5.64818 28.0945 6.05896C28.2666 6.46974 28.3519 6.91168 28.345 7.357C28.345 8.297 28.015 9.101 27.345 9.762C26.676 10.422 25.872 10.752 24.949 10.752L24.95 10.753ZM35.363 11.988C34.423 11.988 33.627 11.667 32.976 11.015C32.324 10.363 31.993 9.559 31.993 8.619C31.993 7.696 32.323 6.9 32.976 6.239C33.629 5.578 34.423 5.249 35.363 5.249C36.311 5.249 37.116 5.579 37.776 6.239C38.436 6.899 38.766 7.696 38.766 8.619C38.766 9.559 38.436 10.363 37.776 11.015C37.116 11.667 36.311 11.988 35.363 11.988V11.988Z" fill="#393E46" stroke="#393E46" stroke-width="0.076" />
    <path fill-rule="evenodd" clip-rule="evenodd" d="M38.217 43.044C35.194 41.791 30.8 41.164 25.051 41.164C19.175 41.164 14.738 41.808 11.724 43.095C14.62 44.238 19.04 44.805 24.974 44.805C27.819 44.805 30.419 44.653 32.772 44.34C35.135 44.026 36.947 43.595 38.217 43.044V43.044ZM24.949 9.017C26.059 9.017 26.609 8.457 26.609 7.357C26.609 6.265 26.059 5.715 24.949 5.715C23.857 5.715 23.315 6.265 23.315 7.357C23.315 8.457 23.857 9.017 24.949 9.017ZM37.573 33.993C34.381 33.181 30.207 32.783 25.051 32.783C19.759 32.783 15.534 33.189 12.376 34.019L12.749 36.398C15.966 35.636 20.072 35.255 25.051 35.255C29.995 35.255 34.026 35.627 37.15 36.372L37.573 33.993ZM38.191 32.503L39.808 29.65C39.0363 29.9639 38.2111 30.1249 37.378 30.124C35.16 30.124 33.391 29.227 32.07 27.424C31.08 28.244 29.97 28.659 28.742 28.659C27.159 28.659 25.889 28.041 24.949 26.797C23.891 27.957 22.629 28.541 21.156 28.541C19.962 28.541 18.87 28.135 17.88 27.321C16.491 29.091 14.696 29.971 12.495 29.971C11.6384 29.9694 10.7892 29.8119 9.989 29.506L11.724 32.478C14.934 31.555 19.344 31.089 24.949 31.089C30.656 31.089 35.067 31.563 38.191 32.503V32.503ZM27.083 26.577L24.975 14.444L22.866 26.433C22.917 26.399 23.027 26.314 23.214 26.179C23.594 25.434 24.17 25.061 24.949 25.061C25.796 25.061 26.338 25.434 26.583 26.179C26.685 26.28 26.854 26.416 27.083 26.577V26.577ZM33.949 27.051V15.56L29.859 26.821C30.173 26.711 30.436 26.559 30.656 26.381C30.986 25.966 31.435 25.754 31.994 25.754C32.654 25.754 33.187 26.051 33.585 26.626C33.628 26.694 33.687 26.762 33.755 26.838C33.822 26.914 33.89 26.982 33.949 27.05V27.051ZM20.013 26.704L15.95 15.562V26.898C15.993 26.831 16.069 26.754 16.17 26.653C16.5 25.959 17.042 25.611 17.804 25.611C18.431 25.611 18.947 25.874 19.345 26.407C19.794 26.602 20.015 26.704 20.015 26.704H20.013ZM13.713 28.092L8.38 18.89L9.743 27.272C10.683 27.932 11.606 28.262 12.495 28.262C12.842 28.262 13.248 28.203 13.714 28.093L13.713 28.092ZM36.108 28.211C36.489 28.329 36.913 28.389 37.378 28.389C38.386 28.389 39.326 28.075 40.206 27.449L41.569 18.864L36.108 28.211ZM37.598 40.767L36.853 37.964C33.611 37.254 29.648 36.898 24.949 36.898C20.301 36.898 16.339 37.253 13.071 37.964L12.3 40.792C15.373 39.861 19.598 39.404 24.975 39.404C30.215 39.404 34.423 39.852 37.598 40.767V40.767ZM14.535 10.253C15.619 10.253 16.169 9.711 16.169 8.619C16.169 7.527 15.619 6.985 14.535 6.985C13.426 6.985 12.867 7.527 12.867 8.619C12.867 9.711 13.427 10.253 14.535 10.253ZM35.363 10.253C36.473 10.253 37.031 9.711 37.031 8.619C37.031 7.527 36.472 6.985 35.363 6.985C34.28 6.985 33.729 7.527 33.729 8.619C33.729 9.711 34.279 10.253 35.363 10.253ZM5.4 12.988C6.509 12.988 7.068 12.438 7.068 11.345C7.068 10.235 6.508 9.685 5.4 9.685C4.316 9.685 3.766 10.235 3.766 11.345C3.766 12.437 4.316 12.988 5.4 12.988ZM44.541 12.988C45.633 12.988 46.184 12.438 46.184 11.345C46.184 10.235 45.634 9.685 44.541 9.685C43.441 9.685 42.881 10.235 42.881 11.345C42.881 12.437 43.441 12.988 44.541 12.988Z" fill="url(#wqpaint0_linear_1_280)" stroke="#393E46" stroke-width="0.076" />
    <defs>
      <linearGradient id="wqpaint0_linear_1_280" x1="21.253" y1="37.224" x2="77.641" y2="37.346" gradientUnits="userSpaceOnUse">
        <stop stop-color="#EEEEEE" />
        <stop offset="1" stop-color="white" stop-opacity="0" />
      </linearGradient>
    </defs>
  </g>
  <g id="wr" fill="none" transform="scale(0.8 0.8)">
    <path fill-rule="evenodd" clip-rule="evenodd" d="M28.408 9.22H32.624V5.825H39.423V15.121L33.92 19.363V31.225L38.136 35.441V40.521H41.929V46.448H8.07101V40.52H11.864V35.44L16.106 31.224V19.363L10.602 15.121V5.825H17.376V9.22H21.618V5.825H28.408V9.22Z" fill="#393E46" />
    <path fill-rule="evenodd" clip-rule="evenodd" d="M33.073 17.678L36.223 15.121H13.803L16.978 17.678H33.073ZM40.27 42.206H9.75601V44.763H40.27V42.206ZM36.426 37.151H13.6V40.521H36.426V37.151ZM32.209 19.363H17.816V31.225H32.209V19.363ZM37.713 13.436V7.51H34.318V10.905H26.672V7.51H23.328V10.905H15.708V7.51H12.313V13.436H37.713ZM35.799 35.441L33.251 32.91H16.8L14.2 35.441H35.799Z" fill="url(#wrpaint0_linear_1_286)" />
    <defs>
      <linearGradient id="wrpaint0_linear_1_286" x1="21.376" y1="37.469" x2="77.641" y2="37.469" gradientUnits="userSpaceOnUse">
        <stop stop-color="#EEEEEE" />
        <stop offset="1" stop-color="white" stop-opacity="0" />
      </linearGradient>
    </defs>
  </g>
</svg>