<svg xmlns="http://www.w3.org/2000/svg" width="40" height="40" viewbox="0.0 0.0 180.0 180.0">
  <g id="bb" fill="none" transform="scale(0.2222222222222222 0.2222222222222222)">
    <path d="M28.125 99.4978V64.7151L87.3174 33.75L117.346 49.4447L54.6058 81.9371V99.4978V121.81V137.08H119.856V121.471V99.4978V81.9371L100.644 72.0113L130.5 56.3164L146.25 64.7151V99.4129V121.64V163.125H28.125V121.81V99.4978Z" fill="#071C21" />
  </g>
  <g id="bk" fill="none" transform="scale(0.2222222222222222 0.2222222222222222)">
    <path d="M102.733 61.9014V69.5672L146.25 92.8125V163.125H33.75V92.8125L77.4315 69.732V61.9014H53.4478V36.5955H77.4315V22.5H102.733V36.5955H126.635V61.9014H102.733ZM121.112 109.628L90.2886 93.2248L58.9697 109.628V137.819H121.112V109.628Z" fill="#071C21" />
  </g>
  <g id="bn" fill="none" transform="scale(0.2222222222222222 0.2222222222222222)">
    <path d="M146.25 33.75V63.3144L118.722 78.138L146.25 92.8789V163.125H33.75V92.8789L97.5414 59.1143L33.75 59.0321V33.75H146.25ZM90.0411 93.2079L58.9697 109.678V137.843H121.112V109.678L90.0411 93.2079Z" fill="#071C21" />
  </g>
  <g id="bp" fill="none" transform="scale(0.2222222222222222 0.2222222222222222)">
    <path d="M33.75 92.1583L90.2886 61.875L146.25 92.1583V163.125H33.75V92.1583ZM90.1237 92.4913L58.9697 109.131V137.584H121.112V109.131L90.1237 92.4913Z" fill="#071C21" />
  </g>
  <g id="bq" fill="none" transform="scale(0.2222222222222222 0.2222222222222222)">
    <path d="M102.568 56.2961L121.112 46.3222V22.5H146.25V63.2205L118.558 77.9754L146.25 92.8125V163.125H33.75V92.8125L61.6894 78.1402L33.75 63.2205V22.5H58.9697V46.3222L77.5136 56.1313L77.4315 22.5H102.651L102.568 56.2961ZM121.112 109.628L90.1237 93.1421L58.9697 109.628V137.819H121.112V109.628Z" fill="#071C21" />
  </g>
  <g id="br" fill="none" transform="scale(0.2222222222222222 0.2222222222222222)">
    <path d="M87.2308 93.2079L54.6058 109.678V137.843H119.856V109.678L87.2308 93.2079ZM28.125 92.8789L57.4616 78.138L28.125 63.3144V33.75H54.6058V46.4322L87.5767 62.9027L119.856 46.4322V33.75H146.25V63.3144L117.346 78.138L146.25 92.8789V163.125H28.125V92.8789Z" fill="#071C21" />
  </g>
  <g id="wb" fill="none" transform="scale(0.2222222222222222 0.2222222222222222)">
    <path d="M139.006 102.139V73.4333L129.274 68.2431L115.165 75.7845L125.22 81.1367V102.139L125.139 143.657H53.1305V102.22V81.7042L104.218 54.7011L89.1349 46.6732L39.2641 73.5953V102.22V157.524H139.006V102.139ZM33.75 102.22V68.9732L89.2159 39.375L117.354 54.3767L58.5636 85.4342V102.22V123.547V138.143H119.706V123.222V102.22V85.4342L101.704 75.9471L129.68 60.9452L144.438 68.9732V102.139V123.385V163.038H33.75V123.547V102.22Z" fill="#071C21" />
    <path d="M139.005 102.139V73.4327L129.274 68.2431L115.165 75.7845L125.22 81.1367V102.139L125.139 143.657H53.1303V102.22V81.7042L104.217 54.701L89.1343 46.6731L39.2639 73.5952V102.22V157.524H139.005V102.139Z" fill="#C6DE41" />
  </g>
  <g id="wk" fill="none" transform="scale(0.2222222222222222 0.2222222222222222)">
    <path d="M125.301 105.374L125.139 141.46H53.1306V104.969L89.2159 86.1559L125.301 105.374ZM101.623 61.2613V68.8027L144.438 91.6701V160.84H33.75V91.6701L76.7278 68.9647V61.2613H53.1306V36.3665H76.7278V22.5H101.623V36.3665H125.139V61.2613H101.623ZM119.706 108.213L89.3779 92.0756L58.5636 108.213V135.946H119.706V108.213ZM96.1088 72.2087L96.0272 55.7471H119.706V41.8806H96.0272V28.0141H82.242V41.8806H58.5636V55.7471H82.242L82.161 72.3707L39.2642 95.4006V155.326H139.006V94.995L96.1088 72.2087Z" fill="#071C21" />
    <path d="M125.301 105.374L125.139 141.46H53.131V104.969L89.2164 86.1559L125.301 105.374ZM96.1087 72.2087L96.0277 55.7471H119.706V41.8807H96.0277V28.0142H82.2425V41.8807H58.5641V55.7471H82.2425L82.1615 72.3707L39.2646 95.4006V155.326H139.006V94.995L96.1087 72.2087Z" fill="#C6DE41" />
  </g>
  <g id="wn" fill="none" transform="scale(0.2222222222222222 0.2222222222222222)">
    <path d="M125.301 105.677L125.139 141.762H53.1307V105.272L89.2159 86.4591L125.301 105.677ZM89.1349 92.2972L58.5636 108.515V136.248H119.706V108.515L89.1349 92.2972ZM144.438 33.7501V62.8616L117.354 77.4579L144.438 91.9732V161.143H33.75V91.9732L96.5138 58.7261L33.75 58.6446V33.75L144.438 33.7501ZM139.006 39.2642H39.2641V53.2118H117.435L39.2641 95.3786V155.629H139.006V94.9731L105.758 77.5389L139.006 59.5367V39.2642Z" fill="#071C21" />
    <path d="M125.301 105.677L125.139 141.762H53.1311V105.272L89.2164 86.4591L125.301 105.677ZM139.006 39.2642H39.2646V53.2118H117.436L39.2646 95.3786V155.629H139.006V94.9731L105.759 77.5389L139.006 59.5367V39.2642Z" fill="#C6DE41" />
  </g>
  <g id="wp" fill="none" transform="scale(0.2222222222222222 0.2222222222222222)">
    <path d="M125.301 105.096C125.247 111.097 125.193 117.125 125.139 123.18C125.139 129.18 125.139 135.181 125.139 141.181C113.138 141.181 101.136 141.181 89.1349 141.181C77.1334 141.181 65.1319 141.181 53.1307 141.181C53.1307 135.127 53.1307 129.072 53.1307 123.017C53.1307 116.908 53.1307 110.8 53.1307 104.691C59.1311 101.609 65.1319 98.5011 71.1326 95.3651C77.1874 92.1758 83.2151 89.0134 89.2159 85.878C95.2166 89.1214 101.217 92.3378 107.218 95.5277C113.219 98.7171 119.247 101.906 125.301 105.096H125.301ZM139.006 94.7166L89.3779 68.2813L39.2641 95.1221V155.048H139.006V94.7166ZM33.75 91.3922L89.3779 61.875L144.438 91.3922V160.562H33.75V91.3922ZM89.2159 91.7162C84.0803 94.4196 78.9446 97.1224 73.8084 99.8252C68.7268 102.529 63.6452 105.231 58.5636 107.934C58.5636 112.584 58.5636 117.233 58.5636 121.882C58.5636 126.477 58.5636 131.072 58.5636 135.667C68.7268 135.667 78.8901 135.667 89.0539 135.667C99.2711 135.667 109.488 135.667 119.706 135.667C119.706 131.072 119.706 126.477 119.706 121.882C119.706 117.233 119.706 112.584 119.706 107.934C114.57 105.231 109.461 102.529 104.38 99.8252C99.2981 97.1224 94.2435 94.4196 89.2159 91.7162Z" fill="#071C21" />
    <path d="M125.301 105.096C125.247 111.097 125.193 117.125 125.139 123.18C125.139 129.18 125.139 135.181 125.139 141.181C113.138 141.181 101.137 141.181 89.1354 141.181C77.1339 141.181 65.1325 141.181 53.1312 141.181C53.1312 135.127 53.1312 129.072 53.1312 123.017C53.1312 116.908 53.1312 110.8 53.1312 104.691C59.1317 101.609 65.1324 98.5011 71.1332 95.3657C77.1879 92.1758 83.2157 89.0134 89.2164 85.878C95.2172 89.1214 101.218 92.3383 107.219 95.5277C113.219 98.7171 119.247 101.907 125.301 105.096ZM139.006 94.7166L89.3784 68.2813L39.2646 95.1221V155.048H139.006V94.7166Z" fill="#C6DE41" />
  </g>
  <g id="wq" fill="none" transform="scale(0.2222222222222222 0.2222222222222222)">
    <path d="M125.301 105.374L125.139 141.46H53.1307V104.969L89.2159 86.1559L125.301 105.374ZM101.46 55.7471L119.706 45.9352V22.5H144.438V62.5584L117.192 77.0737L144.438 91.6701V160.84H33.75V91.6701L61.2394 77.2363L33.75 62.5584V22.5H58.5636V45.9352L76.8088 55.5849L76.7278 22.5H101.541L101.46 55.7471ZM119.706 108.213L89.2159 91.9946L58.5636 108.213V135.946H119.706V108.213ZM139.006 94.6704L105.758 77.2363L139.006 59.2341V28.0141H125.139V49.0976L96.0272 64.7483V28.0141H82.242V64.7483L53.1306 49.0976V28.0141H39.2641L39.3452 59.2341L72.5113 77.2363L39.3452 94.6704L39.2641 155.326H139.006V94.6704Z" fill="#071C21" />
    <path d="M125.301 105.374L125.139 141.46H53.1312V104.969L89.2164 86.1559L125.301 105.374ZM139.006 94.6704L105.759 77.2363L139.006 59.2341V28.0142H125.139V49.0977L96.0278 64.7483V28.0142H82.2426V64.7483L53.1311 49.0977V28.0142H39.2646L39.3458 59.2341L72.5119 77.2363L39.3458 94.6704L39.2646 155.326H139.006V94.6704Z" fill="#C6DE41" />
  </g>
  <g id="wr" fill="none" transform="scale(0.2222222222222222 0.2222222222222222)">
    <path d="M33.75 91.9727L61.2394 77.4579L33.75 62.8616V33.75H58.5636V46.238L89.4589 62.4561L119.706 46.238V33.75H144.438V62.8616L117.354 77.4579L144.438 91.9727V161.143H33.75V91.9727ZM89.1349 92.2972L58.5636 108.515V136.248H119.706V108.515L89.1349 92.2972ZM125.301 105.677L125.139 141.762H53.1307V105.272L89.2159 86.4585L125.301 105.677ZM53.1306 49.4004V39.2641H39.2641L39.3452 59.5367L72.5113 77.5389L39.3452 94.9731L39.2641 155.629H139.006V94.9731L105.758 77.5389L139.006 59.5367V39.2641H125.139V49.4004L89.1349 68.6998L53.455 49.5626L53.1306 49.4004Z" fill="#071C21" />
    <path d="M125.301 105.677L125.139 141.762H53.1311V105.272L89.2164 86.4591L125.301 105.677ZM53.1311 49.4005V39.2642H39.2646L39.3457 59.5367L72.5119 77.5389L39.3457 94.9731L39.2646 155.629H139.006V94.9731L105.759 77.5389L139.006 59.5367V39.2642H125.139V49.4005L89.1354 68.6998L53.4554 49.5627L53.1311 49.4005Z" fill="#C6DE41" />
  </g>
</svg>