<svg xmlns="http://www.w3.org/2000/svg" width="40" height="40" viewbox="0.0 0.0 45.0 45.0">
  <g id="bb" transform="scale(0.8888888888888888 0.8888888888888888)">
    <g fill="#888" stroke="#888">
      <path d="m9 36c3.39-.97 10.11.43 13.5-2 3.39 2.43 10.11 1.03 13.5 2 0 0 1.65.54 3 2-.68.97-1.65.99-3 .5-3.39-.97-10.11.46-13.5-1-3.39 1.46-10.11.03-13.5 1-1.354.49-2.323.47-3-.5 1.354-1.94 3-2 3-2z" />
      <path d="m15 32c2.5 2.5 12.5 2.5 15 0 .5-1.5 0-2 0-2 0-2.5-2.5-4-2.5-4 5.5-1.5 6-11.5-5-15.5-11 4-10.5 14-5 15.5 0 0-2.5 1.5-2.5 4 0 0-.5.5 0 2z" />
      <path d="M25 8A2.5 2.5 0 1 1 20 8 2.5 2.5 0 1 1 25 8z" />
    </g>
  </g>
  <g id="bk" transform="scale(0.8888888888888888 0.8888888888888888)">
    <g fill="none" fill-rule="evenodd" stroke="#888" stroke-linejoin="round" stroke-linecap="round" stroke-width="1.5">
      <g stroke-linejoin="miter">
        <path d="m22.5 11.63v-5.63" />
        <path d="m22.5 25c0 0 4.5-7.5 3-10.5 0 0-1-2.5-3-2.5-2 0-3 2.5-3 2.5-1.5 3 3 10.5 3 10.5" fill="#888" stroke-linecap="butt" />
      </g>
      <path d="m11.5 37c5.5 3.5 15.5 3.5 21 0v-7c0 0 9-4.5 6-10.5-4-6.5-13.5-3.5-16 4v3.5-3.5c-3.5-7.5-13-10.5-16-4-3 6 5 10 5 10v7.5z" fill="#888" />
      <path d="m20 8h5" stroke-linejoin="miter" />
    </g>
  </g>
  <g id="bn" transform="scale(0.8888888888888888 0.8888888888888888)">
    <g fill="#888" fill-rule="evenodd" stroke="#888" stroke-linejoin="round" stroke-linecap="round" stroke-width="1.5">
      <path d="m22 10c10.5 1 16.5 8 16 29h-23c0-9 10-6.5 8-21" />
      <path d="m24 18c.38 2.91-5.55 7.37-8 9-3 2-2.82 4.34-5 4-1.042-.94 1.41-3.04 0-3-1 0 .19 1.23-1 2-1 0-4 1-4-4 0-2 6-12 6-12 0 0 1.89-1.9 2-3.5-.73-.994-.5-2-.5-3 1-1 3 2.5 3 2.5h2c0 0 .78-1.992 2.5-3 1 0 1 3 1 3" />
    </g>
  </g>
  <g id="bp" transform="scale(0.8888888888888888 0.8888888888888888)">
    <path d="m22 9c-2.21 0-4 1.79-4 4 0 .89.29 1.71.78 2.38-1.95 1.12-3.28 3.21-3.28 5.62 0 2.03.94 3.84 2.41 5.03-3 1.06-7.41 5.55-7.41 13.47h23c0-7.92-4.41-12.41-7.41-13.47 1.47-1.19 2.41-3 2.41-5.03 0-2.41-1.33-4.5-3.28-5.62.49-.67.78-1.49.78-2.38 0-2.21-1.79-4-4-4z" fill="#888" stroke="#888" stroke-linecap="round" stroke-width="1.5" />
  </g>
  <g id="bq" transform="scale(0.8888888888888888 0.8888888888888888)">
    <g fill="#888" fill-rule="evenodd" stroke="#888" stroke-linejoin="round" stroke-linecap="round" stroke-width="1.5">
      <g stroke="none">
        <circle cx="6" cy="12" r="2.75" />
        <circle cx="14" cy="9" r="2.75" />
        <circle cx="22.5" cy="8" r="2.75" />
        <circle cx="31" cy="9" r="2.75" />
        <circle cx="39" cy="12" r="2.75" />
      </g>
      <g stroke-linecap="butt">
        <path d="m9 26c8.5-1.5 21-1.5 27 0l2.5-12.5-7.5 11.5-.3-14.1-5.2 13.6-3-14.5-3 14.5-5.2-13.6-.3 14.1-7.5-11.5 2.5 12.5z" />
        <path d="m9 26c0 2 1.5 2 2.5 4 1 1.5 1 1 .5 3.5-1.5 1-1.5 2.5-1.5 2.5-1.5 1.5.5 2.5.5 2.5 6.5 1 16.5 1 23 0 0 0 1.5-1 0-2.5 0 0 .5-1.5-1-2.5-.5-2.5-.5-2 .5-3.5 1-2 2.5-2 2.5-4-8.5-1.5-18.5-1.5-27 0z" />
        <path d="M11 38.5A35 35 1 0 0 34 38.5" fill="none" />
      </g>
    </g>
  </g>
  <g id="br" transform="scale(0.8888888888888888 0.8888888888888888)">
    <g fill="#888" fill-rule="evenodd" stroke="#888" stroke-linejoin="round" stroke-linecap="butt" stroke-width="1.5">
      <path d="m9 39h27v-3h-27v3z" />
      <path d="m12.5 32l1.5-2.5h17l1.5 2.5h-20z" />
      <path d="m12 36v-4h21v4h-21z" />
      <path d="m14 29.5v-13h17v13h-17z" stroke-linejoin="miter" />
      <path d="m14 16.5l-3-2.5h23l-3 2.5h-17z" />
      <path d="m11 14v-5h4v2h5v-2h5v2h5v-2h4v5h-23z" />
    </g>
  </g>
  <g id="wb" transform="scale(0.8888888888888888 0.8888888888888888)">
    <g fill="#BBB" stroke="#BBB">
      <path d="m9 36c3.39-.97 10.11.43 13.5-2 3.39 2.43 10.11 1.03 13.5 2 0 0 1.65.54 3 2-.68.97-1.65.99-3 .5-3.39-.97-10.11.46-13.5-1-3.39 1.46-10.11.03-13.5 1-1.354.49-2.323.47-3-.5 1.354-1.94 3-2 3-2z" />
      <path d="m15 32c2.5 2.5 12.5 2.5 15 0 .5-1.5 0-2 0-2 0-2.5-2.5-4-2.5-4 5.5-1.5 6-11.5-5-15.5-11 4-10.5 14-5 15.5 0 0-2.5 1.5-2.5 4 0 0-.5.5 0 2z" />
      <path d="M25 8A2.5 2.5 0 1 1 20 8 2.5 2.5 0 1 1 25 8z" />
    </g>
  </g>
  <g id="wk" transform="scale(0.8888888888888888 0.8888888888888888)">
    <g fill="none" fill-rule="evenodd" stroke="#BBB" stroke-linejoin="round" stroke-linecap="round" stroke-width="1.5">
      <g stroke-linejoin="miter">
        <path d="m22.5 11.63v-5.63" />
        <path d="m22.5 25c0 0 4.5-7.5 3-10.5 0 0-1-2.5-3-2.5-2 0-3 2.5-3 2.5-1.5 3 3 10.5 3 10.5" fill="#BBB" stroke-linecap="butt" />
      </g>
      <path d="m11.5 37c5.5 3.5 15.5 3.5 21 0v-7c0 0 9-4.5 6-10.5-4-6.5-13.5-3.5-16 4v3.5-3.5c-3.5-7.5-13-10.5-16-4-3 6 5 10 5 10v7.5z" fill="#BBB" />
      <path d="m20 8h5" stroke-linejoin="miter" />
    </g>
  </g>
  <g id="wn" transform="scale(0.8888888888888888 0.8888888888888888)">
    <g fill="#BBB" fill-rule="evenodd" stroke="#BBB" stroke-linejoin="round" stroke-linecap="round" stroke-width="1.5">
      <path d="m22 10c10.5 1 16.5 8 16 29h-23c0-9 10-6.5 8-21" />
      <path d="m24 18c.38 2.91-5.55 7.37-8 9-3 2-2.82 4.34-5 4-1.042-.94 1.41-3.04 0-3-1 0 .19 1.23-1 2-1 0-4 1-4-4 0-2 6-12 6-12 0 0 1.89-1.9 2-3.5-.73-.994-.5-2-.5-3 1-1 3 2.5 3 2.5h2c0 0 .78-1.992 2.5-3 1 0 1 3 1 3" />
    </g>
  </g>
  <g id="wp" transform="scale(0.8888888888888888 0.8888888888888888)">
    <path d="m22 9c-2.21 0-4 1.79-4 4 0 .89.29 1.71.78 2.38-1.95 1.12-3.28 3.21-3.28 5.62 0 2.03.94 3.84 2.41 5.03-3 1.06-7.41 5.55-7.41 13.47h23c0-7.92-4.41-12.41-7.41-13.47 1.47-1.19 2.41-3 2.41-5.03 0-2.41-1.33-4.5-3.28-5.62.49-.67.78-1.49.78-2.38 0-2.21-1.79-4-4-4z" fill="#BBB" stroke="#BBB" stroke-linecap="round" stroke-width="1.5" />
  </g>
  <g id="wq" transform="scale(0.8888888888888888 0.8888888888888888)">
    <g fill="#BBB" fill-rule="evenodd" stroke="#BBB" stroke-linejoin="round" stroke-linecap="round" stroke-width="1.5">
      <g stroke="none">
        <circle cx="6" cy="12" r="2.75" />
        <circle cx="14" cy="9" r="2.75" />
        <circle cx="22.5" cy="8" r="2.75" />
        <circle cx="31" cy="9" r="2.75" />
        <circle cx="39" cy="12" r="2.75" />
      </g>
      <g stroke-linecap="butt">
        <path d="m9 26c8.5-1.5 21-1.5 27 0l2.5-12.5-7.5 11.5-.3-14.1-5.2 13.6-3-14.5-3 14.5-5.2-13.6-.3 14.1-7.5-11.5 2.5 12.5z" />
        <path d="m9 26c0 2 1.5 2 2.5 4 1 1.5 1 1 .5 3.5-1.5 1-1.5 2.5-1.5 2.5-1.5 1.5.5 2.5.5 2.5 6.5 1 16.5 1 23 0 0 0 1.5-1 0-2.5 0 0 .5-1.5-1-2.5-.5-2.5-.5-2 .5-3.5 1-2 2.5-2 2.5-4-8.5-1.5-18.5-1.5-27 0z" />
        <path d="M11 38.5A35 35 1 0 0 34 38.5" fill="none" />
      </g>
    </g>
  </g>
  <g id="wr" transform="scale(0.8888888888888888 0.8888888888888888)">
    <g fill="#BBB" fill-rule="evenodd" stroke="#BBB" stroke-linejoin="round" stroke-linecap="butt" stroke-width="1.5">
      <path d="m9 39h27v-3h-27v3z" />
      <path d="m12.5 32l1.5-2.5h17l1.5 2.5h-20z" />
      <path d="m12 36v-4h21v4h-21z" />
      <path d="m14 29.5v-13h17v13h-17z" stroke-linejoin="miter" />
      <path d="m14 16.5l-3-2.5h23l-3 2.5h-17z" />
      <path d="m11 14v-5h4v2h5v-2h5v2h5v-2h4v5h-23z" />
    </g>
  </g>
</svg>