<svg xmlns="http://www.w3.org/2000/svg" width="40" height="40" viewbox="0.0 0.0 180.0 180.0">
  <g id="bb" fill="none" transform="scale(0.2222222222222222 0.2222222222222222)">
    <path d="M29.8423 155.932H150.256V168.75H29.8423V155.932ZM132.634 80.2254C140.27 85.2047 146.307 91.26 150.745 98.3914C155.248 105.461 157.5 113.115 157.5 121.353C157.5 127.807 156.031 134.17 153.095 140.44C151.79 143.207 149.799 146.281 147.123 149.662H90.0489H32.975C30.2339 146.281 28.2107 143.207 26.9054 140.44C23.9685 134.17 22.5 127.807 22.5 121.353C22.5 109.549 26.9054 99.0371 35.7161 89.8155C44.5921 80.5326 55.8502 74.1701 69.4907 70.7276C71.3835 69.498 72.3296 67.9612 72.3296 66.1168C72.3296 64.3956 71.4161 62.7666 69.5886 61.2292C65.6072 58.0944 63.6165 54.5287 63.6165 50.5328C63.6165 45.9221 66.1944 41.9877 71.3509 38.7295C76.5067 35.4098 82.7392 33.75 90.0489 33.75C97.2934 33.75 103.493 35.4098 108.649 38.7295C113.806 41.9877 116.383 45.9221 116.383 50.5328C116.383 54.5902 114.425 58.1557 110.509 61.2292C108.682 62.7666 107.768 64.3956 107.768 66.1168C107.768 67.9612 108.714 69.498 110.607 70.7276C114.589 71.8341 117.852 72.9096 120.397 73.9547L92.2027 111.946C89.5922 115.512 90.1468 118.494 93.8672 120.891C97.4565 123.351 100.589 122.828 103.265 119.324L132.634 80.2254Z" fill="#632626" />
  </g>
  <g id="bk" fill="none" transform="scale(0.2222222222222222 0.2222222222222222)">
    <path d="M47.7351 153.169H135.696V166.012H47.7351V153.169ZM96.4277 39.6154H86.9107V30.1911H82.3832C79.1803 30.1911 77.5789 28.5896 77.5789 25.3865C77.5789 22.1835 79.1803 20.5819 82.3832 20.5819H86.9107V15.9622C86.9107 12.8207 88.5122 11.25 91.7156 11.25C94.8566 11.25 96.4277 12.8207 96.4277 15.9622V20.5819H101.232C104.374 20.5819 105.944 22.1835 105.944 25.3865C105.944 28.5896 104.374 30.1911 101.232 30.1911H96.4277V39.6154ZM164.246 93.4819L135.696 146.887H47.7351L19.1849 93.4819C17.645 89.5399 16.875 85.536 16.875 81.4708C16.875 71.8616 20.7556 63.6688 28.5168 56.8935C36.3396 50.0561 45.7948 46.6375 56.8823 46.6375C58.6688 46.6375 60.2702 46.7607 61.6866 47.0071C70.9262 42.1409 80.9359 39.7078 91.7156 39.7078C102.434 39.7078 112.443 42.1409 121.744 47.0071C123.099 46.7607 124.701 46.6375 126.548 46.6375C137.513 46.6375 146.906 50.0561 154.729 56.8935C162.614 63.6688 166.556 71.8616 166.556 81.4708C166.556 85.2896 165.786 89.2935 164.246 93.4819ZM110.933 59.85C112.535 58.9877 114.414 58.3408 116.57 57.9099C120.019 57.3553 121.375 55.5074 120.635 52.366V52.2736C119.834 49.2554 117.709 48.0234 114.26 48.5778C110.81 49.1938 108.039 50.1177 105.944 51.3497C99.9692 54.7991 95.2262 59.0799 91.7156 64.1925C88.2045 59.1418 83.4924 54.8607 77.5789 51.3497C75.2996 50.1177 72.4663 49.1938 69.0784 48.5778C65.5672 47.9003 63.4421 49.1322 62.703 52.2736C61.9026 55.3535 63.2886 57.2321 66.861 57.9099C69.1403 58.4027 71.1113 59.0799 72.7746 59.9422C81.5828 65.4862 85.9871 72.6621 85.9871 81.4708C85.9871 88.4925 83.1223 94.4674 77.3938 99.3954C71.7272 104.262 64.9513 106.694 57.0673 106.694C53.4944 106.694 51.7081 108.265 51.7081 111.406C51.7081 114.61 53.4944 116.211 57.0673 116.211C64.3354 116.211 71.0494 114.61 77.2093 111.406C83.3693 108.204 88.2045 103.984 91.7156 98.7486C95.2262 103.984 100.031 108.204 106.129 111.406C112.227 114.61 118.972 116.211 126.364 116.211C129.936 116.211 131.723 114.61 131.723 111.406C131.723 108.265 129.936 106.694 126.364 106.694C118.418 106.694 111.611 104.262 105.944 99.3954C100.277 94.4674 97.4441 88.4925 97.4441 81.4708C97.4441 72.4157 101.941 65.2089 110.933 59.85Z" fill="#632626" />
    <path d="M110.934 59.85C112.535 58.9877 114.414 58.3408 116.57 57.9094C120.019 57.3553 121.375 55.5073 120.635 52.3659V52.2735C119.835 49.2553 117.71 48.0233 114.26 48.5777C110.811 49.1937 108.039 50.1176 105.945 51.3496C99.9697 54.799 95.2267 59.0799 91.7156 64.1925C88.2045 59.1418 83.4924 54.8606 77.5794 51.3496C75.3002 50.1176 72.4669 49.1937 69.0789 48.5777C65.5678 47.9001 63.4427 49.1321 62.7035 52.2735C61.9025 55.3533 63.2885 57.2321 66.8615 57.9094C69.1402 58.4021 71.1118 59.0799 72.7745 59.9423C81.5833 65.4863 85.9871 72.6621 85.9871 81.4703C85.9871 88.4925 83.1229 94.4674 77.3944 99.3954C71.7277 104.262 64.9519 106.694 57.0673 106.694C53.4948 106.694 51.7085 108.265 51.7085 111.407C51.7085 114.609 53.4948 116.211 57.0673 116.211C64.3359 116.211 71.0499 114.609 77.2099 111.407C83.3692 108.204 88.2045 103.984 91.7156 98.7486C95.2267 103.984 100.032 108.204 106.13 111.407C112.228 114.609 118.973 116.211 126.364 116.211C129.937 116.211 131.723 114.609 131.723 111.407C131.723 108.265 129.937 106.694 126.364 106.694C118.418 106.694 111.612 104.262 105.945 99.3954C100.278 94.4674 97.4441 88.4925 97.4441 81.4703C97.4441 72.4157 101.941 65.2089 110.934 59.85Z" fill="#BF8B67" />
  </g>
  <g id="bn" fill="none" transform="scale(0.2222222222222222 0.2222222222222222)">
    <path d="M51.8932 155.284H156.67V168.127H51.8932V155.284ZM58.6378 59.2847C52.8479 59.2847 49.9528 61.6871 49.9528 66.4914C49.9528 71.3576 52.8479 73.7904 58.6378 73.7904C64.3663 73.7904 67.2306 71.3576 67.2306 66.4914C67.2306 61.6871 64.3663 59.2847 58.6378 59.2847ZM100.77 96.7973C104.404 90.3909 106.191 83.6769 106.129 76.6547L105.852 72.405C105.852 68.9552 104.528 67.2306 101.879 67.2306H101.787C99.1378 67.2306 97.8137 68.9552 97.8137 72.405L98.091 76.8398C98.1523 81.5209 96.9514 85.8639 94.4876 89.8673L92.7321 92.3619C90.8224 94.8263 90.8224 97.2591 92.7321 99.6615V99.7537C94.6412 102.156 96.5818 102.125 98.5528 99.6615L100.77 96.7973ZM131.631 38.6804C132.37 39.4811 133.078 40.2203 133.756 40.8979C134.495 41.5139 135.142 42.1298 135.696 42.7458C137.174 44.5321 138.283 46.4724 139.022 48.5667C138.776 51.2154 139.484 53.5253 141.147 55.4964C142.256 56.8513 143.734 57.8064 145.582 58.3605C146.875 59.346 147.954 60.3624 148.816 61.4098C151.342 64.4282 152.82 68.0316 153.251 72.2199C152.45 75.2383 152.974 77.9794 154.822 80.4431C154.945 80.5663 155.006 80.6895 155.006 80.8127C155.499 81.5518 156.115 82.1368 156.854 82.5682C159.318 86.0175 160.55 89.7137 160.55 93.6557C160.55 95.2571 160.334 96.7354 159.904 98.0904C158.918 99.8156 158.425 101.509 158.425 103.173C158.425 105.76 159.349 107.977 161.197 109.825C161.998 111.92 162.398 114.106 162.398 116.385C162.398 121.19 160.858 125.317 157.778 128.766C156.977 130.306 156.577 131.846 156.577 133.386C156.577 134.125 156.547 135.049 156.485 136.158C156.485 137.266 156.546 138.375 156.669 139.484V149.001H51.8929C51.6465 142.225 54.1104 136.681 59.2847 132.369C77.5789 117.648 86.5721 107.916 86.2639 103.173C81.8291 104.651 77.8866 105.421 74.4373 105.482C70.9881 105.482 67.2615 104.959 63.2576 103.912C57.6523 115.06 51.4617 121.282 44.6861 122.576C43.3925 122.884 42.4685 123.037 41.9142 123.037C41.3598 122.976 40.3435 122.945 38.8651 122.945C37.6948 123.13 36.4012 122.822 34.9845 122.021C33.5678 121.159 32.2127 120.481 30.9191 119.989C29.6256 119.496 28.794 118.818 28.4244 117.956C28.1164 117.093 27.3157 116.016 26.0222 114.722C24.6054 113.428 23.1887 112.227 21.772 111.119C20.4168 109.948 19.4313 108.931 18.8153 108.069C18.5073 107.761 18.1069 106.56 17.6142 104.466C17.1214 102.31 16.875 100.986 16.875 100.493C16.9981 97.5364 17.6757 95.0726 18.9077 93.1011C20.1396 91.1301 22.3264 88.1426 25.4678 84.1388C28.6092 79.9504 31.1039 76.6547 32.9518 74.2528C34.7997 71.7885 36.3089 69.2634 37.4792 66.6759C38.2184 65.0132 38.6188 63.5962 38.6803 62.4262C38.8034 61.1938 38.9883 60.3315 39.2347 59.8387C40.5282 57.3137 43.8545 53.556 49.2134 48.5666C49.0286 48.3819 49.3058 47.8891 50.045 47.0883C50.8457 46.226 51.1229 44.6245 50.8765 42.2837C50.6918 40.9286 49.6754 38.742 47.8275 35.7237C47.2731 34.9845 46.8111 34.153 46.4416 33.229C46.072 32.2435 44.994 30.488 43.2077 27.9624C48.2587 27.9008 52.4473 28.3937 55.7735 29.4408C59.0996 30.488 61.8716 31.7507 64.089 33.229C64.4586 31.0731 63.8426 29.0404 62.2412 27.1309C60.7011 25.4062 59.4382 23.8663 58.4527 22.5111C57.4672 21.156 54.9111 19.4005 50.7841 17.2446C54.172 16.6286 59.8388 16.7826 67.7852 17.7065C75.7311 18.5689 81.3673 20.54 84.6934 23.6199C92.0852 23.4967 97.875 24.0819 102.063 25.3754C106.314 26.6689 111.549 28.9788 117.771 32.3051C123.377 32.4282 127.996 34.5534 131.63 38.6804H131.631Z" fill="#632626" />
    <path d="M58.6384 59.2847C52.8482 59.2847 49.9531 61.6871 49.9531 66.4915C49.9531 71.3576 52.8482 73.791 58.6384 73.791C64.3669 73.791 67.2312 71.3576 67.2312 66.4915C67.2312 61.6871 64.3669 59.2847 58.6384 59.2847ZM100.771 96.7973C104.405 90.391 106.191 83.677 106.13 76.6553L105.852 72.405C105.852 68.9552 104.528 67.2306 101.879 67.2306H101.787C99.1384 67.2306 97.8137 68.9552 97.8137 72.405L98.091 76.8398C98.1529 81.5209 96.9514 85.864 94.4877 89.8678L92.7321 92.3625C90.823 94.8263 90.823 97.2591 92.7321 99.6615V99.7538C94.6418 102.156 96.5818 102.125 98.5534 99.6615L100.771 96.7973Z" fill="#BF8B67" />
  </g>
  <g id="bp" fill="none" transform="scale(0.2222222222222222 0.2222222222222222)">
    <path d="M43.2644 155.527H131.203V168.75H43.2644V155.527ZM43.2644 149.059C36.9214 139.989 33.75 129.399 33.75 117.285C33.75 105.68 36.9214 95.2791 43.2644 86.0833C49.6073 76.824 57.7671 70.1651 67.743 66.1061C63.9247 62.9353 62.0162 59.4472 62.0162 55.642C62.0162 51.2027 64.5103 47.3975 69.498 44.2266C74.5481 40.9922 80.5826 39.375 87.6032 39.375C94.6238 39.375 100.658 40.9922 105.708 44.2266C110.758 47.3975 113.283 51.2027 113.283 55.642C113.283 59.7009 111.189 63.2526 107.002 66.2963C116.793 70.3553 124.829 76.9826 131.111 86.1784C137.454 95.3741 140.625 105.743 140.625 117.285C140.625 129.462 137.485 140.053 131.203 149.059H43.2644Z" fill="#632626" />
  </g>
  <g id="bq" fill="none" transform="scale(0.2222222222222222 0.2222222222222222)">
    <path d="M43.9673 155.886H131.928V168.729H43.9673V155.886ZM87.6701 96.1982C85.5759 96.1982 83.7894 97.7383 82.3112 100.818C80.8329 103.898 80.0938 107.624 80.0938 111.998C80.0938 116.433 80.8329 120.19 82.3112 123.27C83.7894 126.289 85.5759 127.798 87.6701 127.798C89.703 127.798 91.4586 126.289 92.9368 123.27C94.4769 120.19 95.247 116.433 95.247 111.998C95.247 107.624 94.4769 103.898 92.9368 100.818C91.4586 97.7383 89.703 96.1982 87.6701 96.1982ZM109.845 85.2958C112.063 88.2523 114.958 89.7306 118.531 89.7306C120.009 89.7306 121.672 89.361 123.52 88.6219L121.025 71.2513L109.845 85.2958ZM131.651 78.8276L156.874 57.6692C160.201 54.651 162.449 53.5423 163.619 54.3431C164.544 55.0207 164.513 57.3306 163.527 61.2726L131.835 149.603H44.0597L12.368 61.3654C11.0128 57.4228 10.8897 55.0822 11.9984 54.3431C13.1071 53.6039 15.3862 54.6819 18.8356 57.5769L44.3368 79.0127L47.5707 55.5442C47.7555 52.526 48.4946 50.8321 49.7882 50.4624C51.0817 50.0929 52.6216 51.1708 54.4079 53.6963L70.2073 73.746L84.6214 42.7936C85.7301 40.5146 86.8388 39.375 87.9474 39.375C89.0561 39.375 90.1958 40.5762 91.3663 42.9784L105.872 73.5615L121.395 53.6963C123.181 51.1708 124.752 50.0929 126.107 50.4624C127.339 50.8321 128.078 52.526 128.324 55.5442L131.651 78.8276ZM52.2829 88.4368C54.3156 89.2991 56.1018 89.7306 57.6416 89.7306C60.9064 89.7306 63.7397 88.3755 66.1421 85.6654L54.7775 71.2513L52.2829 88.4368Z" fill="#632626" />
    <path d="M87.6701 96.1982C85.576 96.1982 83.7895 97.7383 82.3112 100.818C80.833 103.898 80.0938 107.624 80.0938 111.998C80.0938 116.433 80.833 120.19 82.3112 123.27C83.7895 126.289 85.576 127.797 87.6701 127.797C89.703 127.797 91.458 126.289 92.9368 123.27C94.4764 120.19 95.2465 116.433 95.2465 111.998C95.2465 107.624 94.4764 103.898 92.9368 100.818C91.458 97.7383 89.703 96.1982 87.6701 96.1982ZM109.845 85.2953C112.062 88.2523 114.958 89.7306 118.53 89.7306C120.008 89.7306 121.672 89.361 123.519 88.6219L121.025 71.2513L109.845 85.2953ZM52.2826 88.4368C54.3153 89.2991 56.1016 89.7306 57.6416 89.7306C60.9064 89.7306 63.7397 88.3755 66.1421 85.6654L54.7773 71.2513L52.2826 88.4368Z" fill="#BF8B67" />
  </g>
  <g id="br" fill="none" transform="scale(0.2222222222222222 0.2222222222222222)">
    <path d="M128.64 16.9674L141.114 16.875C145.302 16.875 147.396 18.9385 147.396 23.0655V49.9526C147.396 54.0796 145.302 56.1431 141.114 56.1431H131.597C131.412 67.9697 132.675 78.7494 135.385 88.4812C138.095 98.1523 142.099 107.946 147.396 117.863V149.185H90.5732H33.75V117.863C38.9858 107.946 42.928 98.1523 45.5766 88.4812C48.2869 78.7494 49.6112 67.9697 49.5496 56.1431H40.0329C35.8443 56.1431 33.75 54.0796 33.75 49.9526V23.1579C33.75 18.9693 35.8443 16.875 40.0329 16.875H53.153H62.3002V26.1146H81.0562V16.875H100.09V26.1146H118.846V16.875L128.64 16.9674ZM87.2471 83.6769V89.6827C87.2471 91.8388 88.3558 92.9166 90.5732 92.9166C92.7293 92.9166 93.807 91.8388 93.807 89.6827V83.6769H96.9486C99.0428 83.6769 100.09 82.6296 100.09 80.5354C100.09 78.4412 99.0428 77.3938 96.9486 77.3938H93.807V70.8339C93.807 68.6166 92.7293 67.5079 90.5732 67.5079C88.3558 67.5079 87.2471 68.6166 87.2471 70.8339V77.3938H84.1978C82.1036 77.3938 81.0562 78.4412 81.0562 80.5354C81.0562 82.6296 82.1036 83.6769 84.1978 83.6769H87.2471ZM90.5732 51.5233H71.5399V99.0146L90.5732 117.494L109.606 99.0146V51.5233H90.5732ZM90.5732 57.8064H103.047V97.2591L90.5732 108.901L78.0998 97.2591V57.8064H90.5732ZM33.75 155.468H147.396V168.311H33.75V155.468Z" fill="#632626" />
    <path d="M87.2471 83.6769V89.6827C87.2471 91.8388 88.3558 92.9165 90.5732 92.9165C92.7293 92.9165 93.807 91.8388 93.807 89.6827V83.6769H96.9486C99.0428 83.6769 100.09 82.6295 100.09 80.5354C100.09 78.4412 99.0428 77.3938 96.9486 77.3938H93.807V70.8339C93.807 68.6165 92.7293 67.5079 90.5732 67.5079C88.3558 67.5079 87.2471 68.6165 87.2471 70.8339V77.3938H84.1978C82.1036 77.3938 81.0568 78.4412 81.0568 80.5354C81.0568 82.6295 82.1036 83.6769 84.1978 83.6769H87.2471ZM90.5732 51.5233H71.5399V99.0146L90.5732 117.494L109.607 99.0146V51.5233H90.5732ZM90.5732 57.8064H103.047V97.259L90.5732 108.901L78.0998 97.259V57.8064H90.5732Z" fill="#BF8B67" />
  </g>
  <g id="wb" fill="none" transform="scale(0.2222222222222222 0.2222222222222222)">
    <path d="M91.8776 149.891H38.0113C35.4242 146.503 33.5148 143.423 32.2828 140.651C29.5109 134.369 28.125 127.994 28.125 121.526C28.125 109.699 32.2828 99.1659 40.5984 89.9263C48.9756 80.6254 59.6008 74.25 72.4748 70.8007C74.2613 69.5689 75.1545 68.0288 75.1545 66.1809C75.1545 64.4563 74.2922 62.8239 72.567 61.2838C68.8101 58.1423 66.9313 54.5698 66.9313 50.566C66.9313 45.9462 69.3641 42.004 74.2303 38.7394C79.0965 35.4131 84.9791 33.75 91.8776 33.75C98.7154 33.75 104.567 35.4131 109.433 38.7394C114.299 42.004 116.732 45.9462 116.732 50.566C116.732 54.6314 114.884 58.2041 111.189 61.2838C109.464 62.8239 108.601 64.4563 108.601 66.1809C108.601 68.0288 109.495 69.5689 111.281 70.8007C124.093 74.25 134.657 80.6254 142.973 89.9263C151.35 99.1659 155.539 109.699 155.539 121.526C155.539 127.994 154.153 134.369 151.381 140.651C150.149 143.423 148.27 146.503 145.744 149.891H91.8776ZM114.699 81.4258C113.714 81.0563 113.098 80.8099 112.852 80.6867C103.858 77.607 99.3617 72.6176 99.3617 65.7191C99.3617 62.0848 100.964 58.8814 104.167 56.1097C106.323 54.693 107.4 52.9991 107.4 51.028C107.4 48.6257 105.86 46.593 102.781 44.9299C99.7622 43.2051 96.1279 42.3428 91.8776 42.3428C87.5661 42.3428 83.9014 43.2051 80.883 44.9299C77.8646 46.593 76.3554 48.6257 76.3554 51.028C76.3554 53.0607 77.4332 54.7546 79.5893 56.1097C82.7921 58.8814 84.3941 62.0848 84.3941 65.7191C84.3941 72.6176 79.8666 77.607 70.812 80.6867C61.0796 84.1365 53.1334 89.5877 46.9737 97.0408C40.814 104.433 37.7341 112.748 37.7341 121.988C37.7341 128.086 39.428 134.215 42.8159 140.375H91.8776H140.94C144.266 134.338 145.929 128.209 145.929 121.988C145.929 108.19 139.4 96.7331 126.341 87.6167L104.351 118.569C101.887 122.142 98.9308 122.666 95.4816 120.14C91.9704 117.676 91.4467 114.719 93.9105 111.27L114.699 81.4258ZM35.0547 156.174H148.701V169.017H35.0547V156.174Z" fill="#632626" />
    <path d="M114.699 81.4258C113.714 81.0562 113.098 80.8099 112.852 80.6867C103.858 77.607 99.3617 72.6176 99.3617 65.7186C99.3617 62.0842 100.964 58.8814 104.167 56.1096C106.323 54.6929 107.4 52.999 107.4 51.0279C107.4 48.6256 105.86 46.5929 102.781 44.9297C99.7622 43.2051 96.1279 42.3427 91.8776 42.3427C87.5661 42.3427 83.9008 43.2051 80.883 44.9297C77.8646 46.5929 76.3555 48.6256 76.3555 51.0279C76.3555 53.0606 77.4332 54.7545 79.5893 56.1096C82.7922 58.8814 84.3936 62.0842 84.3936 65.7186C84.3936 72.6176 79.8666 77.607 70.8115 80.6867C61.0797 84.1365 53.1334 89.5877 46.9737 97.0408C40.814 104.433 37.7341 112.748 37.7341 121.988C37.7341 128.086 39.428 134.215 42.8159 140.374H91.8776H140.94C144.266 134.338 145.929 128.209 145.929 121.988C145.929 108.19 139.4 96.7325 126.341 87.6167L104.351 118.569C101.887 122.142 98.9308 122.665 95.4816 120.14C91.9705 117.676 91.4468 114.719 93.9105 111.27L114.699 81.4258Z" fill="#DACC96" />
  </g>
  <g id="wk" fill="none" transform="scale(0.2222222222222222 0.2222222222222222)">
    <path d="M47.7351 153.169H135.696V166.012H47.7351V153.169ZM96.4277 39.6154H86.9107V30.1911H82.3832C79.1803 30.1911 77.5789 28.5896 77.5789 25.3865C77.5789 22.1835 79.1803 20.5819 82.3832 20.5819H86.9107V15.9622C86.9107 12.8207 88.5122 11.25 91.7156 11.25C94.8566 11.25 96.4277 12.8207 96.4277 15.9622V20.5819H101.232C104.374 20.5819 105.944 22.1835 105.944 25.3865C105.944 28.5896 104.374 30.1911 101.232 30.1911H96.4277V39.6154ZM153.713 91.08C154.945 87.6302 155.56 84.4273 155.56 81.4708C155.56 74.5099 152.696 68.5659 146.968 63.6384C141.301 58.6491 134.494 56.1542 126.548 56.1542C118.479 56.1542 111.611 58.6491 105.944 63.6384C100.277 68.5659 97.4441 74.5099 97.4441 81.4708C97.4441 88.4925 100.277 94.4674 105.944 99.3954C111.611 104.262 118.418 106.694 126.364 106.694C129.936 106.694 131.723 108.265 131.723 111.406C131.723 114.61 129.936 116.211 126.364 116.211C118.972 116.211 112.227 114.61 106.129 111.406C100.031 108.204 95.2262 103.984 91.7156 98.7486C88.1426 103.984 83.2764 108.204 77.1171 111.406C71.019 114.61 64.3354 116.211 57.0673 116.211C53.4944 116.211 51.7081 114.61 51.7081 111.406C51.7081 108.265 53.4944 106.694 57.0673 106.694C64.9513 106.694 71.7272 104.262 77.3938 99.3954C83.1223 94.4674 85.9871 88.4925 85.9871 81.4708C85.9871 74.5099 83.1223 68.5659 77.3938 63.6384C71.6653 58.6491 64.8281 56.1542 56.8823 56.1542C48.8131 56.1542 41.945 58.6491 36.278 63.6384C30.6111 68.5659 27.7777 74.5099 27.7777 81.4708C27.7777 84.8582 28.5476 88.092 30.0876 91.1723L53.9256 137.37H129.505L153.713 91.08ZM91.7156 64.1925C95.2262 58.9567 100.154 54.7067 106.499 51.442C102.064 49.9637 97.1359 49.2245 91.7156 49.2245C86.4799 49.2245 81.6137 49.9637 77.1171 51.442C83.2151 54.6451 88.0813 58.8954 91.7156 64.1925ZM164.246 93.4819L135.696 146.887H47.7351L19.1849 93.4819C17.645 89.5399 16.875 85.536 16.875 81.4708C16.875 71.8616 20.7556 63.6688 28.5168 56.8935C36.3396 50.0561 45.7948 46.6375 56.8823 46.6375C58.6688 46.6375 60.2702 46.7607 61.6866 47.0071C70.9262 42.1409 80.9359 39.7078 91.7156 39.7078C102.434 39.7078 112.443 42.1409 121.744 47.0071C123.099 46.7607 124.701 46.6375 126.548 46.6375C137.513 46.6375 146.906 50.0561 154.729 56.8935C162.614 63.6688 166.556 71.8616 166.556 81.4708C166.556 85.2896 165.786 89.2935 164.246 93.4819Z" fill="#632626" />
    <path d="M153.713 91.0795C154.945 87.6302 155.561 84.4273 155.561 81.4708C155.561 74.5099 152.697 68.566 146.968 63.6385C141.301 58.6491 134.495 56.1542 126.548 56.1542C118.479 56.1542 111.611 58.6491 105.945 63.6385C100.277 68.566 97.4441 74.5099 97.4441 81.4708C97.4441 88.4925 100.277 94.4674 105.945 99.3954C111.611 104.262 118.418 106.694 126.364 106.694C129.936 106.694 131.723 108.266 131.723 111.407C131.723 114.61 129.936 116.211 126.364 116.211C118.972 116.211 112.227 114.61 106.129 111.407C100.031 108.204 95.2268 103.984 91.7156 98.7486C88.1432 103.984 83.277 108.204 77.1171 111.407C71.019 114.61 64.336 116.211 57.0673 116.211C53.4947 116.211 51.7083 114.61 51.7083 111.407C51.7083 108.266 53.4947 106.694 57.0673 106.694C64.9519 106.694 71.7272 104.262 77.3944 99.3954C83.1229 94.4674 85.9871 88.4925 85.9871 81.4708C85.9871 74.5099 83.1229 68.566 77.3944 63.6385C71.6659 58.6491 64.8287 56.1542 56.8823 56.1542C48.8133 56.1542 41.9453 58.6491 36.2783 63.6385C30.6114 68.566 27.7779 74.5099 27.7779 81.4708C27.7779 84.8582 28.5479 88.092 30.0878 91.1723L53.9258 137.37H129.506L153.713 91.0795ZM91.7156 64.1925C95.2268 58.9568 100.154 54.7066 106.499 51.442C102.064 49.9637 97.1359 49.2245 91.7156 49.2245C86.4799 49.2245 81.6137 49.9637 77.1171 51.442C83.2151 54.645 88.0813 58.8954 91.7156 64.1925Z" fill="#DACC96" />
  </g>
  <g id="wn" fill="none" transform="scale(0.2222222222222222 0.2222222222222222)">
    <path d="M125.809 46.4416C124.208 43.1769 121.621 41.5446 118.049 41.5446C116.94 41.5446 115.523 41.1443 113.798 40.3435C110.657 38.8652 107.885 37.818 105.482 37.2021C103.142 36.5245 100.401 35.7237 97.2591 34.7997C92.1471 33.4446 87.5576 32.6747 83.4924 32.4899C81.8291 31.6275 80.5973 31.1039 79.7968 30.9192C79.0577 30.6728 78.4412 30.3956 77.9484 30.0876C76.6553 29.4716 75.6079 29.1637 74.8074 29.1637C74.0064 29.1637 73.3596 29.1637 72.8668 29.1637C73.3596 32.0587 73.4828 34.615 73.2364 36.8324C73.0519 38.9884 71.5117 41.3598 68.6166 43.9469C67.3234 43.2078 66.0606 42.5302 64.8287 41.9142C63.6581 41.2982 61.6562 40.7131 58.8229 40.1587C59.4388 42.0066 59.7774 43.6389 59.8393 45.0557C59.9006 46.4108 59.1002 48.7207 57.4369 51.9854C53.0019 56.3586 49.9528 60.3315 48.2897 63.9045C47.6121 65.1977 46.9346 66.4914 46.257 67.7852C45.5794 69.0171 44.9327 71.019 44.3167 73.7904C43.516 75.9465 41.3292 78.8107 37.7566 82.3832C36.2783 83.9233 34.5536 85.6789 32.5825 87.6499C30.673 89.6209 29.0099 91.9311 27.5931 94.5799C26.7924 96.0581 26.2072 97.1668 25.8376 97.9059C25.5296 98.5832 25.5912 99.5693 26.0223 100.862C26.823 103.326 27.5622 104.866 28.2398 105.482C28.9173 106.037 30.2725 107.115 32.3052 108.716C33.5987 109.271 34.769 110.317 35.8162 111.858C36.9249 113.336 38.1569 114.075 39.512 114.075C42.5303 114.075 44.8094 113.613 46.3493 112.689C48.7515 111.273 50.6919 109.363 52.1702 106.961C53.7101 104.559 55.1577 101.848 56.5127 98.8301C57.6214 97.3513 58.761 96.0581 59.9316 94.9494C61.1634 93.8407 63.2886 93.8098 66.3069 94.8566C67.8465 95.5344 70.3412 95.8731 73.791 95.8731C78.9649 95.8731 83.3693 94.1175 87.0036 90.6064C90.6373 87.0339 92.3929 82.9378 92.2697 78.318L91.9929 74.2528C91.9929 71.1112 93.5634 69.5402 96.705 69.5402C99.9079 69.5402 101.509 71.1112 101.509 74.2528L101.787 78.1335C101.848 84.7856 99.6306 90.8224 95.1339 96.2426C96.1813 101.725 96.1813 105.574 95.1339 107.792C94.1484 110.01 92.547 112.751 90.3296 116.016C87.804 119.711 84.5702 123.284 80.6282 126.733C76.7475 130.183 71.4808 134.433 64.8281 139.484H147.153C147.091 137.944 147.061 135.911 147.061 133.386C147.061 129.751 148.015 126.394 149.925 123.315C151.896 121.467 152.881 119.157 152.881 116.385C152.881 115.954 152.819 115.307 152.697 114.445C151.588 113.028 150.725 111.426 150.109 109.64C149.309 107.484 148.908 105.328 148.908 103.173C148.908 100.462 149.555 97.6596 150.848 94.7644C150.972 94.1484 151.034 93.7789 151.034 93.6557C151.034 92.1156 150.602 90.576 149.74 89.0359C148.385 87.9272 147.307 86.6334 146.506 85.1552C143.796 81.09 142.81 76.6547 143.549 71.8504C143.241 70.1871 142.594 68.7398 141.609 67.5079C141.301 67.1996 141.024 66.9533 140.777 66.7688C138.129 65.5982 135.819 63.8736 133.848 61.5943C132.369 59.8084 131.291 57.8987 130.614 55.8659C130.06 54.4492 129.69 52.6629 129.505 50.507C129.32 50.2606 129.135 50.0142 128.951 49.7678C128.766 49.4598 128.581 49.1519 128.396 48.8438C128.15 48.5975 127.288 47.7967 125.809 46.4416ZM131.631 38.6804C132.37 39.4811 133.078 40.2203 133.756 40.8979C134.495 41.5139 135.142 42.1298 135.696 42.7458C137.174 44.5321 138.283 46.4724 139.022 48.5667C138.776 51.2153 139.484 53.5253 141.147 55.4964C142.256 56.8513 143.734 57.8064 145.582 58.3605C146.875 59.346 147.954 60.3624 148.816 61.4098C151.342 64.4282 152.82 68.0316 153.251 72.2199C152.45 75.2383 152.974 77.9794 154.822 80.4431C154.945 80.5663 155.006 80.6895 155.006 80.8127C155.499 81.5518 156.115 82.1368 156.854 82.5682C159.318 86.0175 160.55 89.7137 160.55 93.6557C160.55 95.2571 160.334 96.7354 159.904 98.0904C158.918 99.8156 158.425 101.509 158.425 103.173C158.425 105.76 159.349 107.977 161.197 109.825C161.998 111.92 162.398 114.106 162.398 116.385C162.398 121.19 160.858 125.317 157.778 128.766C156.977 130.306 156.577 131.846 156.577 133.386C156.577 134.125 156.547 135.049 156.485 136.158C156.485 137.266 156.546 138.375 156.669 139.484V149.001H51.8929C51.6465 142.225 54.1104 136.681 59.2847 132.369C77.5789 117.648 86.5721 107.916 86.2639 103.173C81.8291 104.651 77.8866 105.421 74.4373 105.482C70.9881 105.482 67.2615 104.959 63.2576 103.912C57.6523 115.06 51.4617 121.282 44.6861 122.576C43.3925 122.884 42.4685 123.037 41.9142 123.037C41.3598 122.976 40.3435 122.945 38.8651 122.945C37.6948 123.13 36.4012 122.822 34.9845 122.021C33.5678 121.159 32.2127 120.481 30.9191 119.989C29.6256 119.496 28.794 118.818 28.4244 117.956C28.1164 117.093 27.3157 116.016 26.0222 114.722C24.6054 113.428 23.1887 112.227 21.772 111.119C20.4168 109.948 19.4313 108.931 18.8153 108.069C18.5073 107.761 18.1069 106.56 17.6142 104.466C17.1214 102.31 16.875 100.986 16.875 100.493C16.9981 97.5364 17.6757 95.0726 18.9077 93.1011C20.1396 91.1301 22.3264 88.1426 25.4678 84.1388C28.6092 79.9504 31.1039 76.6547 32.9518 74.2528C34.7997 71.7885 36.3089 69.2634 37.4792 66.6759C38.2184 65.0132 38.6188 63.5962 38.6803 62.4262C38.8034 61.1938 38.9883 60.3315 39.2347 59.8387C40.5282 57.3137 43.8545 53.556 49.2134 48.5666C49.0286 48.3819 49.3058 47.8891 50.045 47.0883C50.8457 46.226 51.1229 44.6245 50.8765 42.2837C50.6918 40.9286 49.6754 38.742 47.8275 35.7237C47.2731 34.9845 46.8111 34.153 46.4416 33.229C46.072 32.2435 44.994 30.488 43.2077 27.9624C48.2587 27.9008 52.4473 28.3936 55.7735 29.4408C59.0996 30.488 61.8716 31.7507 64.089 33.229C64.4586 31.0731 63.8426 29.0404 62.2412 27.1309C60.7011 25.4062 59.4382 23.8663 58.4527 22.5111C57.4672 21.156 54.9111 19.4005 50.7841 17.2446C54.172 16.6286 59.8388 16.7826 67.7852 17.7065C75.7311 18.5689 81.3673 20.54 84.6934 23.6199C92.0852 23.4968 97.875 24.0819 102.063 25.3754C106.314 26.6689 111.549 28.9788 117.771 32.3051C123.377 32.4282 127.996 34.5533 131.63 38.6804H131.631ZM64.2741 59.9316C69.5098 59.9316 72.1277 62.118 72.1277 66.4914C72.1277 70.9262 69.5098 73.1441 64.2741 73.1441C59.0383 73.1441 56.4204 70.9262 56.4204 66.4914C56.4204 62.118 59.0383 59.9316 64.2741 59.9316ZM51.8932 155.284H156.67V168.127H51.8932V155.284Z" fill="#632626" />
    <path d="M125.81 46.4415C124.208 43.1769 121.621 41.5446 118.048 41.5446C116.94 41.5446 115.523 41.1442 113.799 40.3434C110.657 38.8651 107.885 37.8179 105.483 37.2019C103.142 36.5244 100.401 35.7236 97.2596 34.7997C92.147 33.4446 87.5582 32.6746 83.493 32.4898C81.8297 31.6274 80.5978 31.1039 79.7968 30.919C79.0577 30.6727 78.4417 30.3955 77.949 30.0875C76.6558 29.4715 75.6084 29.1635 74.8074 29.1635C74.007 29.1635 73.3601 29.1635 72.8673 29.1635C73.3601 32.0586 73.4833 34.6149 73.2369 36.8324C73.0518 38.9883 71.5123 41.3598 68.6171 43.9468C67.3233 43.2076 66.0611 42.5301 64.8287 41.9141C63.6587 41.2982 61.6567 40.713 58.8234 40.1586C59.4393 42.0065 59.778 43.6389 59.8393 45.0556C59.9012 46.4107 59.1002 48.7206 57.4374 51.9852C53.0023 56.3586 49.9532 60.3315 48.2901 63.9045C47.6126 65.1977 46.935 66.4914 46.2574 67.7846C45.5799 69.0171 44.9331 71.019 44.3171 73.7904C43.5163 75.9465 41.3297 78.8107 37.7571 82.3832C36.2787 83.9233 34.554 85.6789 32.5829 87.6499C30.6734 89.6209 29.0103 91.9311 27.5935 94.5793C26.7928 96.0581 26.2076 97.1668 25.838 97.9059C25.53 98.5832 25.5916 99.5687 26.0227 100.862C26.8235 103.326 27.5626 104.866 28.2402 105.482C28.9178 106.037 30.2729 107.115 32.3056 108.716C33.5991 109.271 34.7694 110.317 35.8166 111.858C36.9253 113.336 38.1573 114.075 39.5124 114.075C42.5307 114.075 44.8098 113.613 46.3497 112.689C48.752 111.273 50.6923 109.363 52.1706 106.961C53.7106 104.558 55.158 101.848 56.5132 98.8296C57.6219 97.3513 58.7615 96.0581 59.9321 94.9494C61.164 93.8402 63.2891 93.8098 66.3069 94.8566C67.847 95.5344 70.3417 95.8731 73.791 95.8731C78.9654 95.8731 83.3698 94.1175 87.0035 90.6064C90.6378 87.0339 92.3934 82.9378 92.2702 78.318L91.9929 74.2528C91.9929 71.1112 93.564 69.5402 96.7055 69.5402C99.9084 69.5402 101.51 71.1112 101.51 74.2528L101.787 78.1329C101.848 84.7856 99.6311 90.8224 95.1345 96.2426C96.1818 101.725 96.1818 105.575 95.1345 107.792C94.149 110.01 92.5475 112.751 90.3302 116.015C87.8045 119.711 84.5707 123.284 80.6282 126.733C76.748 130.183 71.4813 134.433 64.8287 139.484H147.153C147.091 137.944 147.061 135.911 147.061 133.386C147.061 129.751 148.016 126.394 149.925 123.315C151.896 121.467 152.882 119.157 152.882 116.385C152.882 115.954 152.82 115.307 152.697 114.445C151.588 113.028 150.726 111.426 150.11 109.64C149.309 107.484 148.909 105.328 148.909 103.172C148.909 100.462 149.556 97.6596 150.849 94.7644C150.972 94.1484 151.033 93.7789 151.033 93.6557C151.033 92.1156 150.603 90.576 149.74 89.0359C148.385 87.9272 147.307 86.6334 146.506 85.1552C143.796 81.09 142.81 76.6547 143.55 71.8504C143.242 70.1871 142.595 68.7398 141.609 67.5079C141.302 67.1996 141.024 66.9532 140.778 66.7687C138.129 65.5982 135.82 63.8736 133.848 61.5943C132.37 59.8078 131.292 57.8987 130.614 55.8658C130.06 54.4491 129.691 52.6628 129.505 50.5069C129.321 50.2605 129.136 50.0141 128.951 49.7678C128.766 49.4597 128.582 49.1518 128.397 48.8438C128.15 48.5974 127.288 47.7966 125.81 46.4415ZM64.2746 59.931C69.5103 59.931 72.1282 62.118 72.1282 66.4914C72.1282 70.9262 69.5103 73.1436 64.2746 73.1436C59.0388 73.1436 56.421 70.9262 56.421 66.4914C56.421 62.118 59.0388 59.931 64.2746 59.931Z" fill="#DACC96" />
  </g>
  <g id="wp" fill="none" transform="scale(0.2222222222222222 0.2222222222222222)">
    <path d="M48.8105 142.016H125.961C129.595 135.24 131.412 128.125 131.412 120.672C131.412 111.001 128.578 102.347 122.912 94.7087C117.245 87.0705 110.069 81.7425 101.383 78.7241C96.2708 78.0469 93.4993 76.1372 93.0679 72.9956C92.4519 69.5464 94.7616 66.6821 99.9973 64.4029C101.969 63.4174 102.954 62.1855 102.954 60.7073C102.954 58.8594 101.383 57.258 98.2423 55.9027C95.1621 54.5475 91.4664 53.87 87.1549 53.87C82.7196 53.87 78.9621 54.5475 75.8824 55.9027C72.8027 57.258 71.2626 58.8594 71.2626 60.7073C71.2626 62.2474 72.4944 63.6947 74.9582 65.0497C79.1471 67.4522 80.964 70.101 80.4099 72.9956C80.0404 75.6444 77.6379 77.5232 73.2026 78.6319C64.3944 81.7116 57.1568 87.0705 51.49 94.7087C45.823 102.347 42.9896 111.001 42.9896 120.672C42.9896 128.002 44.9299 135.116 48.8105 142.016ZM43.2667 151.532C36.9222 142.724 33.75 132.437 33.75 120.672C33.75 109.4 36.9222 99.2976 43.2667 90.3662C49.6112 81.3729 57.7727 74.9053 67.7514 70.9633C63.9326 67.8831 62.0229 64.4957 62.0229 60.7995C62.0229 56.4879 64.5176 52.792 69.507 49.7122C74.5583 46.5707 80.5944 45 87.6167 45C94.6384 45 100.675 46.5707 105.726 49.7122C110.777 52.792 113.303 56.4879 113.303 60.7995C113.303 64.7421 111.208 68.1913 107.02 71.1478C116.814 75.0904 124.852 81.5271 131.135 90.4584C137.48 99.3904 140.651 109.461 140.651 120.672C140.651 132.499 137.51 142.785 131.227 151.532H43.2667ZM43.2667 157.815H131.227V170.658H43.2667V157.815Z" fill="#632626" />
    <path d="M48.8106 142.016H125.961C129.595 135.24 131.412 128.125 131.412 120.672C131.412 111.001 128.578 102.347 122.912 94.7087C117.245 87.0705 110.069 81.7425 101.384 78.7242C96.2713 78.0469 93.4993 76.1372 93.0679 72.9957C92.4519 69.5464 94.7621 66.6822 99.9979 64.4029C101.969 63.4174 102.954 62.1855 102.954 60.7073C102.954 58.8595 101.384 57.258 98.2423 55.9026C95.1621 54.5475 91.4664 53.8699 87.1549 53.8699C82.7196 53.8699 78.9621 54.5475 75.8824 55.9026C72.8027 57.258 71.2626 58.8595 71.2626 60.7073C71.2626 62.2474 72.4944 63.6947 74.9588 65.0498C79.1471 67.4522 80.964 70.101 80.4099 72.9957C80.0404 75.6445 77.6379 77.5232 73.2032 78.6319C64.3944 81.7116 57.1568 87.0705 51.4901 94.7087C45.8232 102.347 42.9897 111.001 42.9897 120.672C42.9897 128.002 44.93 135.116 48.8106 142.016Z" fill="#DACC96" />
  </g>
  <g id="wq" fill="none" transform="scale(0.2222222222222222 0.2222222222222222)">
    <path d="M45.4457 91.9479L28.2601 77.9962L50.8046 140.086H124.998L147.635 77.9962L130.542 92.0402C126.6 94.8122 122.534 96.1982 118.345 96.1982C110.585 96.1982 104.856 92.6567 101.16 85.5726L87.9474 57.8542L74.9199 85.4803C71.2856 92.6257 65.5881 96.1982 57.8267 96.1982C53.5764 96.1982 49.4494 94.7812 45.4457 91.9479ZM43.9673 155.886H131.928V168.729H43.9673V155.886ZM87.6701 96.1982C89.703 96.1982 91.4586 97.7383 92.9368 100.818C94.4769 103.898 95.247 107.624 95.247 111.998C95.247 116.433 94.4769 120.19 92.9368 123.27C91.4586 126.289 89.703 127.798 87.6701 127.798C85.5759 127.798 83.79 126.289 82.3112 123.27C80.8329 120.19 80.0938 116.433 80.0938 111.998C80.0938 107.624 80.8329 103.898 82.3112 100.818C83.79 97.7383 85.5759 96.1982 87.6701 96.1982ZM110.492 82.9856C112.525 85.6344 115.143 86.9586 118.345 86.9586C119.886 86.9586 121.395 86.6199 122.873 85.9421L120.656 70.1426L110.492 82.9856ZM131.651 78.8276L156.874 57.6692C160.201 54.651 162.449 53.5423 163.619 54.3431C164.544 55.0207 164.513 57.3306 163.527 61.2726L131.835 149.603H44.0597L12.368 61.3654C11.0128 57.4228 10.8897 55.0822 11.9984 54.3431C13.1071 53.6039 15.3862 54.6819 18.8356 57.5769L44.3368 79.0127L47.5707 55.5442C47.7555 52.526 48.4946 50.8321 49.7882 50.4624C51.0817 50.0929 52.6216 51.1708 54.4079 53.6963L70.2073 73.746L84.6214 42.7936C85.7301 40.5146 86.8388 39.375 87.9474 39.375C89.0561 39.375 90.1958 40.5762 91.3663 42.9784L105.872 73.5615L121.395 53.6963C123.181 51.1708 124.752 50.0929 126.107 50.4624C127.339 50.8321 128.078 52.526 128.324 55.5442L131.651 78.8276ZM52.9297 85.8499C54.716 86.589 56.3484 86.9586 57.8267 86.9586C60.8451 86.9586 63.4011 85.7267 65.4953 83.2629L55.2396 70.1426L52.9297 85.8499Z" fill="#632626" />
    <path d="M45.4457 91.948L28.2601 77.9963L50.8046 140.086H124.998L147.635 77.9963L130.542 92.0402C126.6 94.8122 122.534 96.1982 118.346 96.1982C110.585 96.1982 104.856 92.6561 101.16 85.5726L87.9475 57.8543L74.92 85.4803C71.2856 92.6258 65.5881 96.1982 57.8267 96.1982C53.5765 96.1982 49.4495 94.7813 45.4457 91.948ZM87.6707 96.1982C89.703 96.1982 91.4586 97.7383 92.9368 100.818C94.477 103.898 95.247 107.624 95.247 111.998C95.247 116.433 94.477 120.191 92.9368 123.27C91.4586 126.289 89.703 127.798 87.6707 127.798C85.576 127.798 83.79 126.289 82.3118 123.27C80.833 120.191 80.0938 116.433 80.0938 111.998C80.0938 107.624 80.833 103.898 82.3118 100.818C83.79 97.7383 85.576 96.1982 87.6707 96.1982ZM110.492 82.9856C112.525 85.6345 115.143 86.9586 118.346 86.9586C119.886 86.9586 121.395 86.6199 122.873 85.9421L120.656 70.1426L110.492 82.9856ZM52.9297 85.8499C54.716 86.589 56.3485 86.9586 57.8267 86.9586C60.8451 86.9586 63.4011 85.7267 65.4953 83.263L55.2396 70.1426L52.9297 85.8499Z" fill="#DACC96" />
  </g>
  <g id="wr" fill="none" transform="scale(0.2222222222222222 0.2222222222222222)">
    <path d="M87.2471 83.6769H84.1978C82.1036 83.6769 81.0562 82.6296 81.0562 80.5354C81.0562 78.4412 82.1036 77.3944 84.1978 77.3944H87.2471V70.8339C87.2471 68.6166 88.3558 67.5079 90.5732 67.5079C92.7293 67.5079 93.807 68.6166 93.807 70.8339V77.3944H96.9486C99.0428 77.3944 100.09 78.4412 100.09 80.5354C100.09 82.6296 99.0428 83.6769 96.9486 83.6769H93.807V89.6827C93.807 91.8388 92.7293 92.9166 90.5732 92.9166C88.3558 92.9166 87.2471 91.8388 87.2471 89.6827V83.6769ZM90.5732 51.5234H109.606V99.0146L90.5732 117.494L71.5399 99.0146V51.5234H90.5732ZM90.5732 57.8064H78.0998V97.2591L90.5732 108.901L103.047 97.2591V57.8064H90.5732ZM128.64 16.9674L141.114 16.875C145.302 16.875 147.396 18.9385 147.396 23.0655V49.9526C147.396 54.0796 145.302 56.1431 141.114 56.1431H131.597C131.412 67.9697 132.675 78.7494 135.385 88.4812C138.095 98.1523 142.099 107.946 147.396 117.863V149.185H90.5732H33.75V117.863C38.9858 107.946 42.928 98.1523 45.5766 88.4812C48.2869 78.7494 49.6112 67.9697 49.5496 56.1431H40.0329C35.8443 56.1431 33.75 54.0796 33.75 49.9526V23.1579C33.75 18.9693 35.8443 16.875 40.0329 16.875H53.153H62.3002V26.1146H81.0562V16.875H100.09V26.1146H118.846V16.875L128.64 16.9674ZM128.363 26.1146V35.7237H52.7835V26.1146H43.2667V46.9036H59.0664V56.1431C59.2509 68.2161 57.9577 79.2113 55.1857 89.1281C52.4755 98.9837 48.5025 108.993 43.2667 119.157V139.669H90.5732H137.88V119.157C132.582 108.993 128.579 98.9837 125.868 89.1281C123.158 79.2113 121.895 68.2161 122.08 56.1431V46.9036H137.88V26.1146H128.363ZM33.75 155.468H147.396V168.311H33.75V155.468Z" fill="#632626" />
    <path d="M87.2471 83.677H84.1984C82.1042 83.677 81.0568 82.6301 81.0568 80.5354C81.0568 78.4412 82.1042 77.3944 84.1984 77.3944H87.2471V70.834C87.2471 68.6166 88.3558 67.5079 90.5737 67.5079C92.7292 67.5079 93.8076 68.6166 93.8076 70.834V77.3944H96.9491C99.0433 77.3944 100.09 78.4412 100.09 80.5354C100.09 82.6301 99.0433 83.677 96.9491 83.677H93.8076V89.6828C93.8076 91.8388 92.7292 92.9166 90.5737 92.9166C88.3558 92.9166 87.2471 91.8388 87.2471 89.6828V83.677ZM90.5737 51.5234H109.607V99.0146L90.5737 117.494L71.5399 99.0146V51.5234H90.5737ZM90.5737 57.8065H78.1003V97.2591L90.5737 108.901L103.047 97.2591V57.8065H90.5737ZM128.363 26.1146V35.7237H52.7838V26.1146H43.2671V46.9036H59.0664V56.1431C59.2515 68.2161 57.9577 79.2113 55.1861 89.1281C52.4758 98.9837 48.5028 108.993 43.2671 119.157V139.669H90.5737H137.88V119.157C132.583 108.993 128.579 98.9837 125.869 89.1281C123.158 79.2113 121.895 68.2161 122.08 56.1431V46.9036H137.88V26.1146H128.363Z" fill="#DACC96" />
  </g>
</svg>