<svg xmlns="http://www.w3.org/2000/svg" width="40" height="40" viewbox="0.0 0.0 97.2 97.2">
  <g id="bb" transform="scale(0.411522633744856 0.411522633744856)">
    <title />
    <path d="M34.27,67.62H60.86l9.72-27.56a5.49,5.49,0,0,0-1.3-5.71l-6.11-6.11L50.89,40.52l-7.12-7.12L56.05,21.11l-8.49-8.49L25.84,34.35a5.49,5.49,0,0,0-1.29,5.71Z" />
    <path d="M76.72,82.18H70.53c-5,0-9.21-4.57-10.29-9.56H35c-1,5.59-5.25,9.56-10.36,9.56H10v12H26.67A24.12,24.12,0,0,0,47.56,82.14,24.12,24.12,0,0,0,68.45,94.2H85.12v-12Z" />
  </g>
  <g id="bk" transform="scale(0.411522633744856 0.411522633744856)">
    <title />
    <path d="M83,84.25H14.66a60,60,0,0,1-1.58,9.95H84.56l0-.17A60,60,0,0,1,83,84.25Z" />
    <path d="M14.29,68.52h69.1c.24-1.77.54-3.47.91-5.07l4-16.86a33.54,33.54,0,0,0-39.43,0h0a33.54,33.54,0,0,0-39.43,0l3.95,16.68C13.73,64.92,14,66.69,14.29,68.52Z" />
    <path d="M14.76,73.52c.11,1.89.16,3.81.13,5.73H82.76c0-1.92,0-3.84.14-5.73Z" />
    <path d="M44.07,39.31a34.06,34.06,0,0,1,4.75,2.6,34.09,34.09,0,0,1,4.59-2.53V30.16H67.07V20.82H53.41V8.22H44.07v12.6H30.57v9.34H44.07Z" />
  </g>
  <g id="bn" transform="scale(0.411522633744856 0.411522633744856)">
    <title />
    <path d="M80.65,94.2l-2.79-7.48a70.07,70.07,0,0,1-4-35l1.93-14A17.47,17.47,0,0,0,68.52,21L52.19,10l-.92,10.9L15.58,35.54l9.56,12.33,25.52-4.12L36,65.94l8.25,13.14L34,94.2Z" />
  </g>
  <g id="bp" transform="scale(0.411522633744856 0.411522633744856)">
    <title />
    <polygon points="70.93 94.2 59.34 57.47 66.3 24.63 58.3 24.63 58.3 12.52 46.26 12.52 46.26 24.63 38.26 24.63 45.22 57.47 33.63 94.2 70.93 94.2" />
  </g>
  <g id="bq" transform="scale(0.411522633744856 0.411522633744856)">
    <title />
    <path d="M49.86,82.14a60.32,60.32,0,0,0-24.74,5l3,7.11a62.88,62.88,0,0,1,21.74-3.67A62.88,62.88,0,0,1,71.6,94.2l3-7.11A60.32,60.32,0,0,0,49.86,82.14Z" />
    <path d="M73.4,57,78,21.63,58.81,49.19l-9-41.11L40.91,49.19,21.71,21.63,26.31,57,5.24,40.27,23.18,82.49a65.51,65.51,0,0,1,26.68-5.35,65.52,65.52,0,0,1,26.68,5.35L94.48,40.27ZM49.86,69.69l-5.24-8.78,5.24-6.62,5.24,6.62Z" />
  </g>
  <g id="br" transform="scale(0.411522633744856 0.411522633744856)">
    <title />
    <path d="M74,16.75,73.87,6.4H66.53v7.34h-6V6.4H52.4v7.34h-6V6.4H38.26v7.34h-6V6.4H25.18l-.39,10.35A25.32,25.32,0,0,0,36,37.64l-9,56.56H72.77L63.68,37.06A25.18,25.18,0,0,0,74,16.75Z" />
  </g>
  <g id="wb" transform="scale(0.411522633744856 0.411522633744856)">
    <defs>
      <style>.wba{fill:#fff;}</style>
    </defs>
    <title />
    <path d="M87.52,94.2H68.57A26.39,26.39,0,0,1,48,84.23a26.39,26.39,0,0,1-20.61,10H8.41V77.34H25.3a7.42,7.42,0,0,0,6-3.14,8.92,8.92,0,0,0,1.08-8.28L22.89,39.1a8,8,0,0,1,1.87-8.23L48,7.67,59.87,19.58,47.75,31.7l3.49,3.49L63.37,23.08l7.8,7.8A7.92,7.92,0,0,1,73,39.1L63.67,65.63a9,9,0,0,0,1,8.17,7.58,7.58,0,0,0,5.94,3.54H87.52Z" />
    <path class="wba" d="M37.49,65.44h21l9.88-28a2.93,2.93,0,0,0-.69-3l-4.26-4.26L51.25,42.27,40.68,31.7,52.8,19.58,48,14.74,28.3,34.41a2.93,2.93,0,0,0-.69,3Z" />
    <path class="wba" d="M70.63,82.34c-6.51,0-11.57-5.87-12.69-11.9H38c-1,6.84-6.24,11.9-12.73,11.9H13.41V89.2H27.35A21.36,21.36,0,0,0,45.8,78.55L48,74.8l2.17,3.75A21.36,21.36,0,0,0,68.57,89.2H82.52V82.34Z" />
  </g>
  <g id="wk" transform="scale(0.411522633744856 0.411522633744856)">
    <defs>
      <style>.wka{fill:#fff;}</style>
    </defs>
    <title />
    <path d="M86.75,61.8,91,43.49l-1.34-1a35.63,35.63,0,0,0-33.15-4.7V30.07H70.88V15.26H56.55V2H41.74V15.26H27.58v14.8H41.74v7.73A35.64,35.64,0,0,0,8.64,42.51l-1.35,1,4.29,18.14a68.55,68.55,0,0,1-.24,29.45l-.8,3.12H87.77L87,90.92A68.65,68.65,0,0,1,86.75,61.8Z" />
    <path class="wka" d="M46.74,40q1.23.67,2.42,1.45,1.17-.76,2.38-1.43v-15H65.88v-4.8H51.55V7h-4.8V20.26H32.58v4.8H46.74Z" />
    <path class="wka" d="M50.64,46.55l-1.47,1.07L47.7,46.55a30.65,30.65,0,0,0-34.77-.93l3.52,14.86a59.46,59.46,0,0,1,1.25,7.64h63a59.35,59.35,0,0,1,1.21-7.46l3.53-15A30.65,30.65,0,0,0,50.64,46.55Z" />
    <path class="wka" d="M18.06,76.87H80.29c0-1.25,0-2.5,0-3.75H18C18.07,74.36,18.08,75.62,18.06,76.87Z" />
    <path class="wka" d="M80.51,81.87H17.84a67,67,0,0,1-1,7.33H81.46A66.85,66.85,0,0,1,80.51,81.87Z" />
  </g>
  <g id="wn" transform="scale(0.411522633744856 0.411522633744856)">
    <defs>
      <style>.wna{fill:#fff;}</style>
    </defs>
    <title />
    <path d="M77.59,94.2H24.7l11.51-17L28.34,64.64,40.08,46.82,19.83,50.09,7.76,34.52,43.53,19.85,44.64,6.7,63.79,19.65A19.15,19.15,0,0,1,71.84,38L70,51.42a64.77,64.77,0,0,0,3.67,32.25Z" />
    <path class="wna" d="M69,85.42A69.65,69.65,0,0,1,65,50.73l1.85-13.39A14.16,14.16,0,0,0,61,23.76l-12-8.14-.65,7.7L15.74,36.66l6.22,8,28.56-4.61L34.28,64.7l7.9,12.59L34.13,89.2H70.39Z" />
  </g>
  <g id="wp" transform="scale(0.411522633744856 0.411522633744856)">
    <defs>
      <style>.wpa{fill:#fff;}</style>
    </defs>
    <title />
    <polygon points="70.31 94.2 58.44 56.58 65.58 22.9 57.36 22.9 57.36 11.37 40.9 11.37 40.9 22.9 32.68 22.9 39.82 56.58 27.95 94.2 70.31 94.2" />
    <rect class="wpa" x="45.89" y="16.37" width="6.47" height="6.54" />
    <polygon class="wpa" points="53.27 56.83 59.41 27.9 38.85 27.9 44.98 56.83 34.77 89.2 63.49 89.2 53.27 56.83" />
  </g>
  <g id="wq" transform="scale(0.411522633744856 0.411522633744856)">
    <defs>
      <style>.wqa{fill:#fff;}</style>
    </defs>
    <title />
    <path d="M69.67,94.2l-2.25-.84a55.79,55.79,0,0,0-19.27-3.25,55.79,55.79,0,0,0-19.27,3.25l-2.25.84L1.92,35.53,23.06,51.08l-4.83-35L38.65,44.32l9.49-41.5,9.51,41.5L78.08,16.06l-4.83,35L94.38,35.53Z" />
    <path class="wqa" d="M48.15,80.12A55,55,0,0,0,27.7,83.84l1.71,4.05a62.22,62.22,0,0,1,18.75-2.78A62.22,62.22,0,0,1,66.9,87.89l1.71-4.05A55,55,0,0,0,48.15,80.12Z" />
    <path class="wqa" d="M25.76,79.23a60.11,60.11,0,0,1,22.39-4.12,60.11,60.11,0,0,1,22.39,4.12L82.73,50.31,66.68,62.12l3.71-26.88-15.15,21-7.09-31-7.08,31-15.15-21,3.71,26.88L13.57,50.31ZM48.15,55.81,53,61.95l-4.85,8.13L43.3,61.95Z" />
  </g>
  <g id="wr" transform="scale(0.411522633744856 0.411522633744856)">
    <defs>
      <style>.wra{fill:#fff;}</style>
    </defs>
    <title />
    <path d="M76.63,94.2H23.5l9.51-56A26.38,26.38,0,0,1,21.75,16.82l.5-12.51h55l.16,12.51A26.43,26.43,0,0,1,67,37.59Z" />
    <path class="wra" d="M62.92,34.38a21.41,21.41,0,0,0,9.52-17.54l-.1-7.53H64.66v8.36h-5V9.31H52.09v8.36h-5V9.31H39.53v8.36h-5V9.31H27.05l-.3,7.61a21.65,21.65,0,0,0,10.31,18l1.44.88L29.42,89.2H70.71L61.57,35.28Z" />
  </g>
</svg>