<svg xmlns="http://www.w3.org/2000/svg" width="40" height="40" viewbox="0.0 0.0 180.0 180.0">
  <g id="bb" fill="none" transform="scale(0.2222222222222222 0.2222222222222222)">
    <path d="M121.496 143.128V124.416C128.278 119.935 133.486 114.545 137.12 108.247C140.874 101.586 142.751 94.7436 142.751 87.7191C142.751 77.3032 138.149 67.0691 128.944 57.0173C127.855 55.9271 126.34 54.2315 124.402 51.9303C122.465 49.7503 120.83 47.9336 119.497 46.4803C117.56 44.4214 114.472 41.6357 110.233 38.1235C108.174 36.428 106.841 35.3379 106.236 34.8535C100.059 29.2823 94.185 25.1644 88.614 22.5C82.4372 25.4067 75.9578 29.8273 69.1751 35.7618C68.8123 36.1252 68.2673 36.6096 67.5405 37.2152C61.9689 41.9385 57.9724 45.572 55.5502 48.1153C54.9447 48.7208 54.0969 49.6292 53.0068 50.8403C50.8268 53.2626 49.1918 55.0187 48.1018 56.1087C38.7762 66.1613 34.1133 76.698 34.1133 87.7191C34.1133 94.6226 36.0511 101.465 39.9268 108.247C43.6812 114.667 48.8285 120.056 55.3686 124.416V142.765H80.2569C77.5929 144.097 74.0807 146.216 69.7202 149.123L69.3568 149.668C65.1178 152.332 62.0297 154.21 60.0919 155.3C57.6697 156.511 55.5503 157.116 53.7335 157.116C51.1902 157.116 48.7074 155.784 46.2851 153.12C43.984 149.85 41.8646 145.732 39.9268 140.766L33.75 148.76C36.5356 155.058 39.2606 159.72 41.9251 162.748C45.3162 166.382 49.2524 168.198 53.7335 168.198C56.6404 168.198 59.6683 167.411 62.8172 165.837C66.3294 164.383 69.66 162.506 72.8089 160.205C75.9578 157.904 78.9857 155.905 81.8921 154.21C84.0724 152.877 86.3128 152.211 88.614 152.211C90.6728 152.211 92.7315 152.817 94.7908 154.028C96.4862 154.876 99.5141 156.753 103.874 159.66L104.419 160.205C107.447 162.506 110.657 164.383 114.047 165.837C117.196 167.411 120.103 168.198 122.768 168.198C127.612 168.198 131.669 166.382 134.939 162.748C137.967 159.357 140.571 154.694 142.751 148.76L137.12 140.766C134.939 146.338 132.76 150.455 130.579 153.12C128.4 155.784 125.795 157.116 122.768 157.116C121.193 157.116 119.195 156.511 116.773 155.3C114.835 154.331 111.868 152.454 107.871 149.668L107.144 149.123C104.358 147.064 100.968 145.066 96.9705 143.128H121.496Z" fill="#470D21" />
    <path d="M84.6175 55.927V76.6373H65.1786V84.9938H84.6175V106.068H92.4289V84.9938H111.686V76.6373H92.4289V55.927H84.6175Z" fill="#E6176A" />
    <path d="M63.3623 126.233H113.684L115.864 119.511H61.5454L63.3623 126.233Z" fill="#E6176A" />
  </g>
  <g id="bk" fill="none" transform="scale(0.2222222222222222 0.2222222222222222)">
    <path d="M86.9856 50.847C86.1379 51.0893 85.4111 51.4526 84.8059 51.937C84.321 52.3004 83.8974 52.6032 83.5341 52.8454C82.2015 53.4509 81.1119 54.4804 80.2637 55.9338C78.9317 57.6292 78.0233 59.1435 77.5389 60.4755C77.0546 61.6866 76.8122 63.3819 76.8122 65.5622V68.832C76.9331 69.1954 77.1148 69.9221 77.3573 71.0123C77.4782 71.6181 77.5389 71.9814 77.5389 72.1024C74.6319 68.9535 71.1197 66.4706 67.0022 64.6538C62.6422 62.9584 58.5849 62.1107 54.8303 62.1107C51.5603 62.1107 48.1691 62.8976 44.6568 64.4721C41.2657 66.2889 38.4195 68.6503 36.1184 71.5573C33.9384 74.1004 31.94 77.3707 30.1233 81.3673C28.7911 85.7272 28.125 89.8453 28.125 93.7209C28.125 99.171 29.4572 104.197 32.1217 108.799C34.6651 112.675 38.2379 117.217 42.8402 122.425C44.0513 123.878 46.3524 125.876 49.7436 128.419C52.4081 130.479 53.8009 131.75 53.922 132.235V168.75H128.406V132.235C128.648 131.75 129.981 130.72 132.403 129.146C134.462 127.693 136.097 126.482 137.308 125.513C138.64 124.544 139.73 123.514 140.578 122.425C144.696 118.064 148.329 113.523 151.478 108.799C154.021 104.439 155.293 99.4129 155.293 93.7209C155.293 89.361 154.627 85.2429 153.295 81.3673C151.72 77.4917 149.783 74.2219 147.481 71.5573C145.18 68.7718 142.395 66.4099 139.125 64.4721C135.613 62.8976 132.221 62.1107 128.951 62.1107C124.954 62.1107 120.897 62.9584 116.779 64.6538C112.661 66.4706 109.088 68.9535 106.061 72.1024C106.182 71.739 106.243 71.1939 106.243 70.4672C106.364 69.7404 106.424 69.1954 106.424 68.832C106.545 68.3477 106.666 67.7424 106.788 67.0157C106.909 66.2889 106.969 65.8046 106.969 65.5622C106.969 63.5034 106.666 61.8075 106.061 60.4755C105.576 59.1435 104.608 57.5083 103.154 55.5704C102.912 54.9649 102.246 54.2987 101.156 53.5721C100.671 53.2087 100.369 52.9665 100.248 52.8454C100.005 52.7243 99.8843 52.6637 99.8843 52.6637C99.0366 52.1793 98.37 51.8765 97.8857 51.7554C97.5223 51.5131 96.7956 51.2104 95.706 50.847V38.3119H117.688V32.1352H95.706V16.875H86.9856V32.1352H65.0036V38.3119H86.9856V50.847Z" fill="#470D21" />
    <path fill-rule="evenodd" clip-rule="evenodd" d="M91.7089 96.6274C91.2246 94.2052 89.9528 90.693 87.894 86.0906C86.3196 81.7307 84.9876 77.976 83.8975 74.8271L78.8108 83.3659C82.323 88.3311 84.8059 93.4183 86.2588 98.6259C86.7437 99.9579 87.1071 102.077 87.349 104.984C87.5914 107.77 87.7731 110.98 87.894 114.613C88.1365 118.125 88.2574 121.335 88.2574 124.241C88.3783 127.148 88.4391 129.691 88.4391 131.871H62.4606L61.0071 138.956H120.958L118.596 131.871H94.6159C94.6159 130.418 94.6766 127.996 94.7976 124.604C94.9185 121.213 95.1002 117.883 95.3426 114.613C95.5845 111.221 95.8877 108.073 96.2511 105.166C96.6145 102.138 96.9773 99.9579 97.3406 98.6259C98.7941 93.5392 101.216 88.4526 104.608 83.3659L99.8843 75.1905C99.4 76.4016 98.7941 78.0367 98.0674 80.0955C97.8255 80.8222 97.038 83.0025 95.706 86.6357C94.1316 90.1479 92.799 93.4785 91.7089 96.6274Z" fill="#E6176A" />
  </g>
  <g id="bn" fill="none" transform="scale(0.2222222222222222 0.2222222222222222)">
    <path d="M96.6139 97.7108C96.2505 100.739 95.8269 103.767 95.3426 106.794C94.8578 109.701 94.3127 111.82 93.7074 113.152C92.3749 115.696 90.4978 118.421 88.0757 121.328L69.3636 141.311C65.8513 144.944 63.1873 149.062 61.3704 153.665C59.796 157.54 59.0085 162.264 59.0085 167.835H155.293V131.865C155.293 120.601 153.658 109.822 150.388 99.5276C147.118 89.1118 142.455 79.4835 136.4 70.6421C130.465 62.0432 123.32 54.5948 114.963 48.2969C107.09 41.9991 98.2491 37.4574 88.4391 34.6718L58.4634 22.5L66.4571 37.5785L29.7599 115.333C28.6699 117.997 28.125 120.54 28.125 122.963C28.125 126.96 29.3966 130.593 31.94 133.863C34.3623 136.77 37.39 138.223 41.0235 138.223C43.5668 138.223 46.534 137.617 49.9252 136.406C53.5586 135.195 56.1624 133.863 57.7367 132.41L96.6139 97.7108ZM97.1589 89.8993L53.1952 127.323C52.5897 127.928 51.8025 128.534 50.8336 129.139C49.8647 129.624 48.7141 130.108 47.3818 130.593C45.5651 131.44 43.4457 131.865 41.0235 131.865C39.2068 131.865 37.6928 130.956 36.4817 129.139C35.2706 127.565 34.6651 125.506 34.6651 122.963C34.6651 121.388 34.8467 119.995 35.21 118.784L72.9973 38.6685L85.8954 40.4852C94.6159 42.9074 102.972 47.0858 110.966 53.0204C118.596 58.9551 125.318 66.0398 131.131 74.2753C136.824 82.269 141.123 91.2313 144.03 101.163C147.057 110.609 148.571 120.844 148.571 131.865V161.658H66.0938C66.4571 159.478 67.4257 156.632 69.0002 153.12C71.0595 149.487 72.7549 147.004 74.0869 145.671L92.9807 125.324C95.8871 122.176 98.4915 118.058 100.793 112.971C102.488 108.127 103.336 103.463 103.336 98.9826V89.8993H97.1589Z" fill="#470D21" />
    <path d="M97.1589 89.8988L53.1952 127.323C52.5896 127.928 51.8024 128.534 50.8334 129.139C49.8645 129.624 48.7139 130.108 47.3817 130.593C45.565 131.44 43.4456 131.865 41.0233 131.865C39.2066 131.865 37.6927 130.956 36.4815 129.139C35.2704 127.565 34.6649 125.506 34.6649 122.963C34.6649 121.388 34.8465 119.995 35.2099 118.784L72.9967 38.6684L85.8954 40.4851C94.6153 42.9074 102.972 47.0857 110.966 53.0203C118.596 58.9551 125.318 66.0397 131.131 74.2753C136.823 82.269 141.123 91.2313 144.029 101.162C147.057 110.609 148.571 120.843 148.571 131.865V161.658H66.0937C66.4571 159.478 67.4257 156.632 69.0002 153.12C71.0595 149.487 72.7549 147.004 74.0869 145.671L92.9807 125.324C95.8871 122.176 98.4909 118.058 100.792 112.971C102.488 108.127 103.336 103.463 103.336 98.9826V89.8988H97.1589Z" fill="#470D21" />
  </g>
  <g id="bp" fill="none" transform="scale(0.2222222222222222 0.2222222222222222)">
    <path d="M84.0521 73.5289L61.3434 118.219L73.152 129.119L50.625 156.551V170.176H134.193V156.551L111.302 129.119L123.293 118.219L100.766 73.5289C104.156 72.3178 106.942 70.1376 109.122 66.9887C111.06 63.7189 112.029 60.4485 112.029 57.1787C112.029 52.2129 110.152 48.0345 106.397 44.6434C102.764 41.1311 98.1011 39.375 92.4086 39.375C86.5952 39.375 81.8719 41.1311 78.2387 44.6434C74.3631 48.0345 72.4252 52.2129 72.4252 57.1787C72.4252 60.5694 73.5154 63.8398 75.6951 66.9887C77.8753 70.0166 80.6608 72.1963 84.0521 73.5289Z" fill="#470D21" />
    <path d="M105.852 125.849H78.9655L79.3288 131.663H105.671L105.852 125.849Z" fill="#E6176A" />
  </g>
  <g id="bq" fill="none" transform="scale(0.2222222222222222 0.2222222222222222)">
    <path d="M114.411 34.8535C116.47 33.4001 117.499 31.644 117.499 29.5851C117.499 27.6473 116.712 26.0122 115.138 24.68C113.684 23.2267 111.928 22.5 109.869 22.5C107.689 22.5 105.812 23.2267 104.237 24.68C102.784 26.0122 102.057 27.6473 102.057 29.5851C102.057 30.6751 102.421 31.7651 103.147 32.8551C103.995 33.824 104.903 34.6112 105.873 35.2168V105.341H80.2569V34.8535C82.3163 33.4001 83.3456 31.644 83.3456 29.5851C83.3456 27.6473 82.6189 26.0122 81.1654 24.68C79.7124 23.2267 77.8956 22.5 75.7153 22.5C73.5356 22.5 71.7188 23.2267 70.2653 24.68C68.8123 26.0122 68.0856 27.6473 68.0856 29.5851C68.0856 32.0073 69.2966 33.7634 71.7188 34.8535V105.159H45.9218V49.9319C48.1018 48.3575 49.1919 46.4803 49.1919 44.3002C49.1919 42.4835 48.4046 40.9696 46.8302 39.7585C45.3768 38.4263 43.5601 37.7602 41.38 37.7602C39.3211 37.7602 37.5045 38.4263 35.93 39.7585C34.4766 40.9696 33.75 42.4835 33.75 44.3002C33.75 46.6014 34.9611 48.4786 37.3834 49.9319V106.794L56.6404 135.498V167.835H129.308V135.498L148.565 106.794V49.9319C150.744 48.3575 151.834 46.4803 151.834 44.3002C151.834 42.4835 151.048 40.9696 149.473 39.7585C148.02 38.4263 146.203 37.7602 144.023 37.7602C141.964 37.7602 140.147 38.4263 138.573 39.7585C137.12 40.9696 136.393 42.4835 136.393 44.3002C136.393 46.4803 137.604 48.3575 140.026 49.9319V105.159H114.411V34.8535Z" fill="#470D21" />
    <path d="M65.1785 137.86H120.769L122.95 130.411H63.1805L65.1785 137.86Z" fill="#E6176A" />
  </g>
  <g id="br" fill="none" transform="scale(0.2222222222222222 0.2222222222222222)">
    <path d="M142.751 148.383L117.863 119.316V76.9871L133.85 64.0884V33.75H111.686V44.1051H99.3324V33.75H77.1688V44.1051H64.8152V33.75H42.6518V63.7251L59.0017 76.9871V119.316L33.75 148.383V168.185H142.751V148.383Z" fill="#470D21" />
    <path d="M111.686 119.316H64.8153L61.0004 125.129H115.501L111.686 119.316Z" fill="#E6176A" />
    <path d="M115.683 70.992H60.8186L64.8152 76.9871H111.686L115.683 70.992Z" fill="#E6176A" />
  </g>
  <g id="wb" fill="none" transform="scale(0.2222222222222222 0.2222222222222222)">
    <path d="M121.496 143.128V124.416C128.278 119.935 133.486 114.545 137.12 108.247C140.874 101.586 142.751 94.7436 142.751 87.7191C142.751 77.3032 138.149 67.0691 128.944 57.0173C127.855 55.9271 126.34 54.2315 124.402 51.9303C122.465 49.7503 120.83 47.9336 119.497 46.4803C117.56 44.4214 114.472 41.6357 110.233 38.1235C108.174 36.428 106.841 35.3379 106.236 34.8535C100.059 29.2823 94.185 25.1644 88.614 22.5C82.4372 25.4067 75.9578 29.8273 69.1751 35.7618C68.8123 36.1252 68.2673 36.6096 67.5405 37.2152C61.9689 41.9385 57.9724 45.572 55.5502 48.1153C54.9447 48.7208 54.0969 49.6292 53.0068 50.8403C50.8268 53.2626 49.1918 55.0187 48.1018 56.1087C38.7762 66.1613 34.1133 76.698 34.1133 87.7191C34.1133 94.6226 36.0511 101.465 39.9268 108.247C43.6812 114.667 48.8285 120.056 55.3686 124.416V142.765H80.2569C77.5929 144.097 74.0807 146.216 69.7202 149.123L69.3568 149.668C65.1178 152.332 62.0297 154.21 60.0919 155.3C57.6697 156.511 55.5503 157.116 53.7335 157.116C51.1902 157.116 48.7074 155.784 46.2851 153.12C43.984 149.85 41.8646 145.732 39.9268 140.766L33.75 148.76C36.5356 155.058 39.2606 159.72 41.9251 162.748C45.3162 166.382 49.2524 168.198 53.7335 168.198C56.6404 168.198 59.6683 167.411 62.8172 165.837C66.3294 164.383 69.66 162.506 72.8089 160.205C75.9578 157.904 78.9857 155.905 81.8921 154.21C84.0724 152.877 86.3128 152.211 88.614 152.211C90.6728 152.211 92.7315 152.817 94.7908 154.028C96.4862 154.876 99.5141 156.753 103.874 159.66L104.419 160.205C107.447 162.506 110.657 164.383 114.047 165.837C117.196 167.411 120.103 168.198 122.768 168.198C127.612 168.198 131.669 166.382 134.939 162.748C137.967 159.357 140.571 154.694 142.751 148.76L137.12 140.766C134.939 146.338 132.76 150.455 130.579 153.12C128.4 155.784 125.795 157.116 122.768 157.116C121.193 157.116 119.195 156.511 116.773 155.3C114.835 154.331 111.868 152.454 107.871 149.668L107.144 149.123C104.358 147.064 100.968 145.066 96.9705 143.128H121.496ZM63.3617 136.043V126.233H113.684V136.043H63.3617ZM135.121 87.7191C135.121 94.0168 133.365 100.012 129.853 105.704C126.34 111.518 121.678 116.12 115.864 119.511H61.5454C55.7319 116.241 50.948 111.639 47.1935 105.704C43.6812 100.012 41.9251 94.0168 41.9251 87.7191C41.9251 77.9091 45.8612 68.886 53.7335 60.6504C54.4602 59.9237 55.4897 58.7734 56.8221 57.1989C58.7599 55.0187 60.2736 53.3837 61.3637 52.2937L62.9989 50.6586C68.5699 45.3297 73.0507 41.3935 76.4421 38.8502C81.2869 34.9746 85.3442 32.189 88.614 30.4934C90.6728 31.5834 93.7007 33.7029 97.6973 36.8518L98.2423 37.2152C103.45 41.0907 108.476 45.4508 113.321 50.2953C114.532 51.5064 116.228 53.4443 118.407 56.1087C120.588 58.6519 122.162 60.408 123.131 61.3772C131.124 69.7337 135.121 78.5143 135.121 87.7191ZM84.6174 55.927V76.6373H65.1786V84.9937H84.6174V106.068H92.4289V84.9937H111.686V76.6373H92.4289V55.927H84.6174Z" fill="#470D21" />
    <path d="M63.3623 136.043V126.233H113.685V136.043H63.3623ZM135.122 87.7191C135.122 94.0168 133.365 100.012 129.853 105.704C126.341 111.518 121.678 116.12 115.864 119.511H61.5454C55.7322 116.241 50.9483 111.639 47.1938 105.704C43.6815 100.012 41.9254 94.0168 41.9254 87.7191C41.9254 77.9091 45.8615 68.886 53.7338 60.6505C54.4605 59.9237 55.49 58.7734 56.8221 57.199C58.7599 55.0189 60.2741 53.3839 61.3637 52.2938L62.9989 50.6588C68.5699 45.3299 73.0513 41.3937 76.4426 38.8504C81.2869 34.9747 85.3442 32.1892 88.614 30.4936C90.6733 31.5836 93.7007 33.703 97.6978 36.852L98.2429 37.2154C103.451 41.0909 108.476 45.451 113.321 50.2955C114.532 51.5066 116.228 53.4444 118.408 56.1089C120.588 58.6525 122.163 60.4086 123.131 61.3772C131.125 69.7343 135.122 78.5149 135.122 87.7191ZM84.6174 55.9272V76.6373H65.1791V84.9943H84.6174V106.068H92.4294V84.9943H111.686V76.6373H92.4294V55.9272H84.6174Z" fill="#F9E4D4" />
  </g>
  <g id="wk" fill="none" transform="scale(0.2222222222222222 0.2222222222222222)">
    <path d="M86.9856 50.847C86.1379 51.0893 85.4111 51.4526 84.8059 51.937C84.321 52.3004 83.8974 52.6032 83.5341 52.8454C82.2015 53.4509 81.1119 54.4804 80.2637 55.9338C78.9317 57.6292 78.0233 59.1435 77.5389 60.4755C77.0546 61.6866 76.8122 63.3819 76.8122 65.5622V68.832C76.9331 69.1954 77.1148 69.9221 77.3573 71.0123C77.4782 71.6181 77.5389 71.9814 77.5389 72.1024C74.6319 68.9535 71.1197 66.4706 67.0022 64.6538C62.6422 62.9584 58.5849 62.1107 54.8303 62.1107C51.5603 62.1107 48.1691 62.8976 44.6568 64.4721C41.2657 66.2889 38.4195 68.6503 36.1184 71.5573C33.9384 74.1004 31.94 77.3707 30.1233 81.3673C28.7911 85.7272 28.125 89.8453 28.125 93.7209C28.125 99.171 29.4572 104.197 32.1217 108.799C34.6651 112.675 38.2379 117.217 42.8402 122.425C44.0513 123.878 46.3524 125.876 49.7436 128.419C52.4081 130.479 53.8009 131.75 53.922 132.235V168.75H128.406V132.235C128.648 131.75 129.981 130.72 132.403 129.146C134.462 127.693 136.097 126.482 137.308 125.513C138.64 124.544 139.73 123.514 140.578 122.425C144.696 118.064 148.329 113.523 151.478 108.799C154.021 104.439 155.293 99.4129 155.293 93.7209C155.293 89.361 154.627 85.2429 153.295 81.3673C151.72 77.4917 149.783 74.2219 147.481 71.5573C145.18 68.7718 142.395 66.4099 139.125 64.4721C135.613 62.8976 132.221 62.1107 128.951 62.1107C124.954 62.1107 120.897 62.9584 116.779 64.6538C112.661 66.4706 109.088 68.9535 106.061 72.1024C106.182 71.739 106.243 71.1939 106.243 70.4672C106.364 69.7404 106.424 69.1954 106.424 68.832C106.545 68.3477 106.666 67.7424 106.788 67.0157C106.909 66.2889 106.969 65.8046 106.969 65.5622C106.969 63.5034 106.666 61.8075 106.061 60.4755C105.576 59.1435 104.608 57.5083 103.154 55.5704C102.912 54.9649 102.246 54.2987 101.156 53.5721C100.671 53.2087 100.369 52.9665 100.248 52.8454C100.005 52.7243 99.8843 52.6637 99.8843 52.6637C99.0366 52.1793 98.37 51.8765 97.8857 51.7554C97.5223 51.5131 96.7956 51.2104 95.706 50.847V38.3119H117.688V32.1352H95.706V16.875H86.9856V32.1352H65.0036V38.3119H86.9856V50.847ZM91.7089 96.6274C91.2246 94.2052 89.9527 90.693 87.894 86.0906C86.3196 81.7307 84.9876 77.976 83.8974 74.8271C82.8073 71.9207 82.2623 68.832 82.2623 65.5622C82.2623 63.8668 82.3832 62.6557 82.6256 61.929C82.8681 61.2022 83.4733 60.3546 84.4425 59.3854C85.1687 58.0534 86.3196 57.2057 87.894 56.8423C89.3475 56.2366 90.6193 55.9338 91.7089 55.9338C93.0414 55.9338 94.4342 56.2366 95.8877 56.8423C97.0987 57.5691 97.9464 58.2952 98.4308 59.022C100.248 61.2022 101.156 63.3819 101.156 65.5622C101.156 68.9535 100.732 72.1626 99.8843 75.1905C99.3999 76.4016 98.7941 78.0367 98.0674 80.0955C97.8249 80.8222 97.038 83.0025 95.706 86.6357C94.1316 90.1479 92.799 93.4785 91.7089 96.6274ZM88.4391 131.871H62.4606C62.2181 131.508 61.3704 130.66 59.9169 129.328C58.4634 127.996 56.4654 126.119 53.922 123.696C53.0742 122.969 51.8025 121.819 50.1069 120.245C48.4113 118.67 47.2607 117.58 46.6552 116.975C42.5374 112.857 39.449 109.163 37.3901 105.893C35.089 102.259 33.9384 98.2018 33.9384 93.7209C33.9384 87.1808 35.9973 81.3673 40.1151 76.2806C44.3541 71.4364 49.2591 69.0137 54.8303 69.0137C59.3117 69.0137 63.6716 70.2253 67.9106 72.6474C72.513 75.4329 76.1462 79.0059 78.8108 83.3659C82.323 88.3316 84.8059 93.4183 86.2588 98.6259C86.7437 99.9579 87.1071 102.077 87.3489 104.984C87.5914 107.77 87.7731 110.98 87.894 114.613C88.1364 118.125 88.2574 121.335 88.2574 124.241C88.3783 127.148 88.4391 129.691 88.4391 131.871ZM118.596 131.871H94.6159C94.6159 130.418 94.6761 127.996 94.7976 124.604C94.9185 121.213 95.1002 117.883 95.3426 114.613C95.5845 111.221 95.8877 108.073 96.2505 105.166C96.6139 102.138 96.9773 99.9579 97.3406 98.6259C98.7941 93.5393 101.216 88.4526 104.608 83.3659C107.756 78.7635 111.45 75.1905 115.689 72.6474C119.928 70.2253 124.349 69.0137 128.951 69.0137C134.522 69.0137 139.367 71.4364 143.485 76.2806C146.997 80.6406 148.753 86.454 148.753 93.7209C148.753 99.171 147.905 103.228 146.209 105.893C143.545 109.768 140.457 113.462 136.945 116.975C136.46 117.58 135.552 118.428 134.219 119.518C132.887 120.487 130.404 122.364 126.771 125.15C124.591 126.845 122.714 128.298 121.139 129.509C119.686 130.72 118.838 131.508 118.596 131.871ZM61.0071 162.573V138.957H120.958V162.573H61.0071Z" fill="#470D21" />
    <path d="M91.7089 96.6273C91.2246 94.2052 89.9527 90.693 87.894 86.0906C86.3196 81.7307 84.9876 77.976 83.8974 74.8271C82.8073 71.9207 82.2622 68.832 82.2622 65.5622C82.2622 63.8662 82.3832 62.6552 82.6256 61.9284C82.8681 61.2022 83.4733 60.354 84.4425 59.3853C85.1692 58.0533 86.3196 57.2051 87.894 56.8417C89.3475 56.2364 90.6193 55.9336 91.7089 55.9336C93.0414 55.9336 94.4342 56.2364 95.8877 56.8417C97.0987 57.5685 97.9464 58.2952 98.4307 59.022C100.248 61.2022 101.156 63.3819 101.156 65.5622C101.156 68.9535 100.732 72.1625 99.8842 75.1905C99.3999 76.4015 98.7941 78.0367 98.0674 80.0955C97.8255 80.8222 97.038 83.0025 95.706 86.6357C94.1316 90.1479 92.799 93.4785 91.7089 96.6273ZM88.4391 131.871H62.4606C62.2181 131.508 61.3704 130.66 59.9169 129.328C58.464 127.996 56.4654 126.118 53.922 123.696C53.0742 122.969 51.8025 121.819 50.107 120.244C48.4114 118.67 47.2608 117.58 46.6553 116.974C42.5374 112.857 39.4491 109.163 37.3902 105.892C35.089 102.259 33.9385 98.2018 33.9385 93.7209C33.9385 87.1807 35.9973 81.3673 40.1152 76.2806C44.3541 71.4358 49.2592 69.0137 54.8303 69.0137C59.3117 69.0137 63.6716 70.2247 67.9106 72.6468C72.513 75.4329 76.1462 79.0053 78.8107 83.3658C82.323 88.331 84.8059 93.4177 86.2588 98.6259C86.7437 99.9579 87.1071 102.077 87.3489 104.984C87.5914 107.77 87.7731 110.979 87.894 114.613C88.1364 118.125 88.2574 121.335 88.2574 124.241C88.3783 127.147 88.4391 129.691 88.4391 131.871ZM118.596 131.871H94.6159C94.6159 130.418 94.6766 127.996 94.7975 124.604C94.9185 121.213 95.1002 117.883 95.3426 114.613C95.5845 111.221 95.8877 108.073 96.251 105.166C96.6144 102.138 96.9772 99.9579 97.3406 98.6259C98.7941 93.5392 101.216 88.4525 104.608 83.3658C107.756 78.7635 111.45 75.1905 115.689 72.6468C119.928 70.2247 124.349 69.0137 128.951 69.0137C134.522 69.0137 139.367 71.4358 143.485 76.2806C146.997 80.6405 148.753 86.454 148.753 93.7209C148.753 99.171 147.905 103.228 146.209 105.892C143.545 109.768 140.457 113.462 136.945 116.974C136.46 117.58 135.552 118.428 134.22 119.518C132.887 120.486 130.404 122.364 126.771 125.149C124.591 126.845 122.714 128.298 121.139 129.509C119.686 130.72 118.838 131.508 118.596 131.871ZM61.0071 162.573V138.956H120.958V162.573H61.0071Z" fill="#F9E4D4" />
  </g>
  <g id="wn" fill="none" transform="scale(0.2222222222222222 0.2222222222222222)">
    <path d="M96.6139 97.7108C96.2505 100.739 95.8269 103.767 95.3426 106.794C94.8578 109.701 94.3127 111.82 93.7074 113.152C92.3749 115.696 90.4978 118.421 88.0757 121.328L69.3636 141.311C65.8513 144.944 63.1873 149.062 61.3704 153.665C59.796 157.54 59.0085 162.264 59.0085 167.835H155.293V131.865C155.293 120.601 153.658 109.822 150.388 99.5276C147.118 89.1118 142.455 79.4835 136.4 70.6421C130.465 62.0432 123.32 54.5948 114.963 48.2969C107.09 41.9991 98.2491 37.4574 88.4391 34.6718L58.4634 22.5L66.4571 37.5785L29.7599 115.333C28.6699 117.997 28.125 120.54 28.125 122.963C28.125 126.96 29.3966 130.593 31.94 133.863C34.3623 136.77 37.39 138.223 41.0235 138.223C43.5668 138.223 46.534 137.617 49.9252 136.406C53.5586 135.195 56.1624 133.863 57.7367 132.41L96.6139 97.7108ZM97.1589 89.8993L53.1952 127.323C52.5897 127.928 51.8025 128.534 50.8336 129.139C49.8647 129.624 48.7141 130.108 47.3818 130.593C45.5651 131.44 43.4457 131.865 41.0235 131.865C39.2068 131.865 37.6928 130.956 36.4817 129.139C35.2706 127.565 34.6651 125.506 34.6651 122.963C34.6651 121.388 34.8467 119.995 35.21 118.784L72.9973 38.6685L85.8954 40.4852C94.6159 42.9074 102.972 47.0858 110.966 53.0204C118.596 58.9551 125.318 66.0398 131.131 74.2753C136.824 82.269 141.123 91.2313 144.03 101.163C147.057 110.609 148.571 120.844 148.571 131.865V161.658H66.0938C66.4571 159.478 67.4257 156.632 69.0002 153.12C71.0595 149.487 72.7549 147.004 74.0869 145.671L92.9807 125.324C95.8871 122.176 98.4915 118.058 100.793 112.971C102.488 108.127 103.336 103.463 103.336 98.9826V89.8993H97.1589Z" fill="#470D21" />
    <path d="M97.1589 89.8993L53.1953 127.323C52.5898 127.928 51.8025 128.534 50.8336 129.139C49.8648 129.624 48.7141 130.109 47.3819 130.593C45.5652 131.441 43.4458 131.865 41.0235 131.865C39.2068 131.865 37.6928 130.956 36.4817 129.139C35.2706 127.565 34.6651 125.506 34.6651 122.963C34.6651 121.389 34.8467 119.995 35.2101 118.784L72.9973 38.6685L85.8954 40.4852C94.6159 42.9075 102.972 47.0859 110.966 53.0204C118.596 58.9551 125.318 66.0398 131.131 74.2753C136.824 82.269 141.123 91.2313 144.03 101.163C147.058 110.609 148.571 120.844 148.571 131.865V161.658H66.0937C66.4571 159.478 67.4257 156.632 69.0007 153.12C71.0595 149.487 72.7549 147.004 74.0874 145.671L92.9807 125.324C95.8877 122.176 98.4915 118.058 100.793 112.971C102.488 108.127 103.336 103.463 103.336 98.9826V89.8993H97.1589Z" fill="#F9E4D4" />
  </g>
  <g id="wp" fill="none" transform="scale(0.2222222222222222 0.2222222222222222)">
    <path d="M84.0521 73.5289L61.3434 118.219L73.152 129.119L50.625 156.551V170.176H134.193V156.551L111.302 129.119L123.293 118.219L100.766 73.5289C104.156 72.3178 106.942 70.1376 109.122 66.9887C111.06 63.7189 112.029 60.4485 112.029 57.1787C112.029 52.2129 110.152 48.0345 106.397 44.6434C102.764 41.1311 98.1011 39.375 92.4086 39.375C86.5952 39.375 81.8719 41.1311 78.2387 44.6434C74.3631 48.0345 72.4252 52.2129 72.4252 57.1787C72.4252 60.5694 73.5154 63.8398 75.6951 66.9887C77.8753 70.0166 80.6608 72.1963 84.0521 73.5289ZM90.4106 75.3452H94.4072L115.481 117.129L105.852 125.849H78.9654L69.1554 117.129L90.4106 75.3452ZM92.4086 45.3701C96.0424 45.3701 99.1913 46.5207 101.856 48.8218C104.52 51.1229 105.852 53.9085 105.852 57.1787C105.852 60.6909 104.52 63.5974 101.856 65.8986C99.1913 68.1997 96.0424 69.3501 92.4086 69.3501C88.533 69.3501 85.3239 68.1997 82.7803 65.8986C80.2373 63.4764 78.9654 60.5694 78.9654 57.1787C78.9654 53.9085 80.2373 51.1229 82.7803 48.8218C85.3239 46.5207 88.533 45.3701 92.4086 45.3701ZM79.3288 131.663H105.671L127.653 158.368V164.181H56.9835V158.368L79.3288 131.663Z" fill="#470D21" />
    <path d="M90.4106 75.3452H94.4072L115.481 117.129L105.852 125.849H78.9655L69.1549 117.129L90.4106 75.3452ZM92.4086 45.37C96.0424 45.37 99.1913 46.5206 101.855 48.8218C104.52 51.1229 105.852 53.9084 105.852 57.1787C105.852 60.691 104.52 63.5974 101.855 65.8986C99.1913 68.1998 96.0424 69.3501 92.4086 69.3501C88.533 69.3501 85.3234 68.1998 82.7803 65.8986C80.2367 63.4765 78.9655 60.5695 78.9655 57.1787C78.9655 53.9084 80.2367 51.1229 82.7803 48.8218C85.3234 46.5206 88.533 45.37 92.4086 45.37ZM79.3288 131.663H105.671L127.653 158.368V164.181H56.9835V158.368L79.3288 131.663Z" fill="#F9E4D4" />
  </g>
  <g id="wq" fill="none" transform="scale(0.2222222222222222 0.2222222222222222)">
    <path d="M114.411 34.8535C116.47 33.4001 117.499 31.644 117.499 29.5851C117.499 27.6473 116.712 26.0122 115.138 24.68C113.684 23.2267 111.928 22.5 109.869 22.5C107.689 22.5 105.812 23.2267 104.237 24.68C102.784 26.0122 102.057 27.6473 102.057 29.5851C102.057 30.6751 102.421 31.7651 103.147 32.8551C103.995 33.824 104.903 34.6112 105.873 35.2168V105.341H80.2569V34.8535C82.3163 33.4001 83.3456 31.644 83.3456 29.5851C83.3456 27.6473 82.6189 26.0122 81.1654 24.68C79.7124 23.2267 77.8956 22.5 75.7153 22.5C73.5356 22.5 71.7188 23.2267 70.2653 24.68C68.8123 26.0122 68.0856 27.6473 68.0856 29.5851C68.0856 32.0073 69.2966 33.7634 71.7188 34.8535V105.159H45.9218V49.9319C48.1018 48.3575 49.1919 46.4803 49.1919 44.3002C49.1919 42.4835 48.4046 40.9696 46.8302 39.7585C45.3768 38.4263 43.5601 37.7602 41.38 37.7602C39.3211 37.7602 37.5045 38.4263 35.93 39.7585C34.4766 40.9696 33.75 42.4835 33.75 44.3002C33.75 46.6014 34.9611 48.4786 37.3834 49.9319V106.794L56.6404 135.498V167.835H129.308V135.498L148.565 106.794V49.9319C150.744 48.3575 151.834 46.4803 151.834 44.3002C151.834 42.4835 151.048 40.9696 149.473 39.7585C148.02 38.4263 146.203 37.7602 144.023 37.7602C141.964 37.7602 140.147 38.4263 138.573 39.7585C137.12 40.9696 136.393 42.4835 136.393 44.3002C136.393 46.4803 137.604 48.3575 140.026 49.9319V105.159H114.411V34.8535ZM65.1786 160.205V137.86H120.769V160.205H65.1786ZM135.484 111.518L122.95 130.411H63.1806L50.2818 111.518H135.484Z" fill="#470D21" />
    <path d="M65.1791 160.205V137.859H120.769V160.205H65.1791ZM135.485 111.517L122.95 130.411H63.1805L50.282 111.517H135.485Z" fill="#F9E4D4" />
  </g>
  <g id="wr" fill="none" transform="scale(0.2222222222222222 0.2222222222222222)">
    <path d="M142.751 148.383L117.863 119.316V76.9871L133.85 64.0884V33.75H111.686V44.1051H99.3324V33.75H77.1688V44.1051H64.8152V33.75H42.6518V63.7251L59.0017 76.9871V119.316L33.75 148.383V168.185H142.751V148.383ZM127.855 61.9087L115.683 70.992H60.8186L48.6469 61.0003V39.7451H59.0017V50.4635H83.1639V39.7451H93.3373V50.4635H117.863V39.7451H127.855V61.9087ZM64.8152 76.9871H111.686V119.316H64.8152V76.9871ZM136.938 150.563V161.826H39.7451V150.744L61.0003 125.129H115.501L136.938 150.563Z" fill="#470D21" />
    <path d="M127.854 61.9088L115.683 70.992H60.8186L48.6467 61.0003V39.745H59.0017V50.4635H83.1639V39.745H93.3373V50.4635H117.862V39.745H127.854V61.9088ZM64.8152 76.9871H111.685V119.316H64.8152V76.9871ZM136.938 150.563V161.826H39.7449V150.744L61.0003 125.129H115.501L136.938 150.563Z" fill="#F9E4D4" />
  </g>
</svg>