<svg xmlns="http://www.w3.org/2000/svg" width="40" height="40" viewbox="0.0 0.0 144.0 144.0">
  <g id="bb" fill="none" transform="scale(0.2777777777777778 0.2777777777777778)">
    <path d="M75.4419 20.952C76.7803 19.9626 77.6221 18.5282 77.6221 16.9323C77.6221 13.9473 74.6777 11.5276 71.0457 11.5276C67.4136 11.5276 64.4693 13.9473 64.4693 16.9323C64.4693 18.5003 65.2818 19.9124 66.5796 20.8996C60.0641 25.2627 49.4889 35.1636 53.8866 51.6283C54.4526 53.7475 55.0956 55.5616 55.7967 57.1087H48.5953V62.8535H58.5945L42.6646 122.381H30.1512V130.091H36.5386V132.472H30V140.183H113.792V132.472H107.783V130.091H113.943V122.381H101.033L83.531 62.8535H93.9496V57.1087H86.0611C86.7654 55.5534 87.4108 53.727 87.978 51.5905C92.319 35.2383 81.9472 25.3604 75.4419 20.952Z" fill="#FF8264" />
    <path d="M75.8929 16.5543C75.8929 14.2488 74.2677 12.2079 74.2677 12.2079C81.1465 16.5543 75.3638 21.0142 75.3638 21.0142C75.3638 21.0142 75.8929 18.8598 75.8929 16.5543Z" fill="#D15252" />
    <path d="M75.3638 21.0142H75.2882C75.2882 21.0142 80.6173 26.7968 82.6205 31.1811C84.6614 35.5276 85.0016 39.2315 84.6236 45.0898C84.3619 48.7776 82.7223 50.8778 81.6375 52.2672C80.9991 53.085 80.5529 53.6565 80.6929 54.1606C81.0709 55.4835 81.1465 57.0709 81.1465 57.0709L81.789 62.8157H93.9213V57.0709H86.022C86.022 57.0709 87.9874 53.8205 88.5921 48.6047C88.6193 48.37 88.6463 48.1405 88.6728 47.9155C89.234 43.1417 89.5538 40.4218 86.7024 33.6C83.7165 26.4567 75.3638 21.0142 75.3638 21.0142Z" fill="#D15252" />
    <path d="M95.6598 130.091L36.548 130.091V132.472H95.6598V140.183H113.839V132.472L107.792 132.472V130.091L113.991 130.091V122.381H101.102L83.5276 62.8535H58.2425L80.6929 68.3717L92.485 122.381L95.6598 130.091Z" fill="#D15252" />
  </g>
  <g id="bk" fill="none" transform="scale(0.2777777777777778 0.2777777777777778)">
    <path d="M75.4772 7.56003C75.9521 7.31795 76.492 7.1811 77.0646 7.1811C78.9641 7.1811 80.5039 8.68712 80.5039 10.5449C80.5039 12.2833 79.1556 13.7136 77.426 13.8903C78.01 14.3181 78.3874 14.9967 78.3874 15.7606C78.3874 17.0141 77.3714 18.0378 76.0936 18.1009C76.1055 18.1854 76.1142 18.2745 76.1197 18.3685C76.2431 21.021 80.1418 23.3966 81.572 24.1808C93.4466 26.3713 101.131 31.0284 102.576 39.2693C103.679 45.6757 99.6201 53.6142 97.0387 57.8646H103.03V66.1795H93.0152L103.781 122.494H113.953V130.205H107.792V132.548H113.802V140.258H30.0094V132.548H36.548V130.205H30.1606V122.494H40.5487L49.9689 66.1795H41.1213V57.8646H46.3188C43.7374 53.6142 39.6784 45.6757 40.7811 39.2693C42.1088 31.7016 48.6972 27.156 58.9606 24.7676V24.7559C58.9606 24.7559 68.5228 22.3748 67.5024 18.3685C67.4789 18.2765 67.4588 18.1883 67.442 18.1039L67.4268 18.1039C66.0909 18.1039 65.0079 17.0548 65.0079 15.7606C65.0079 14.9967 65.3853 14.3181 65.9693 13.8903C64.2396 13.7136 62.8913 12.2833 62.8913 10.5449C62.8913 8.68712 64.4312 7.1811 66.3307 7.1811C66.9974 7.1811 67.6199 7.36664 68.1469 7.68782C68.1456 7.64507 68.1449 7.60214 68.1449 7.55905C68.1449 5.4508 69.7863 3.74173 71.811 3.74173C73.8358 3.74173 75.4772 5.45178 75.4772 7.56003Z" fill="#FF8264" />
    <path d="M76.1092 18.3891C76.116 18.3755 76.1197 18.3685 76.1197 18.3685L76.0819 18.3307C76.0819 18.3307 76.0913 18.3512 76.1092 18.3891Z" fill="#D15252" />
    <path d="M76.1092 18.3891C75.9636 18.6814 74.3804 22.0053 76.8 23.811C78.0441 24.7535 80.2189 25.5174 82.4992 26.3183C84.791 27.1233 87.1895 27.9657 88.8567 29.0646C89.3513 29.3869 89.8965 29.7125 90.4669 30.0531C93.7762 32.0291 97.9331 34.5114 97.9654 39.7984C98.0409 45.9968 96.7181 48.7181 92.7118 53.0646C88.6677 57.4488 86.0976 57.8268 86.0976 57.8268H96.9827C96.9827 57.8268 100.271 52.0819 101.14 49.285L101.145 49.2683C102.014 46.4741 103.104 42.9657 102.501 39.1937C101.896 35.4142 99.0992 30.6898 94.715 28.611C93.1978 27.8786 92.3414 27.4223 91.7386 27.101C90.5995 26.494 90.3659 26.3696 88.2898 25.7764C85.3588 24.9289 84.8034 24.8072 84.4656 24.7332C84.4419 24.728 84.4192 24.7231 84.3969 24.7181C84.0567 24.6425 80.8063 23.6976 80.8063 23.6976C80.8063 23.6976 79.1055 22.7528 78.1606 21.7701C77.302 20.8771 76.2873 18.767 76.1092 18.3891Z" fill="#D15252" />
    <path d="M87.3827 66.1795L86.0976 57.8646H103.03V66.1795L93.052 66.1795L103.937 122.457H113.991V130.167L107.906 130.054V132.435L113.839 132.548V140.258H101.896C101.896 140.258 101.215 136.354 100.005 132.472H36.6614V130.091H99.1833C98.7299 128.929 98.2896 128.172 97.8519 127.419C96.6592 125.369 95.4847 123.35 94.1102 113.235C92.2583 99.326 88.4409 71.622 88.4409 71.622L53.1959 66.1795L87.3827 66.1795Z" fill="#D15252" />
    <path d="M53.1959 66.1795L52.9512 66.1417V66.1795H53.1959Z" fill="#D15252" />
  </g>
  <g id="bn" fill="none" transform="scale(0.2777777777777778 0.2777777777777778)">
    <path d="M27.8861 61.0537C25.7715 57.3971 25.686 57.2491 31.3323 52.0819C34.1474 49.5212 38.2141 45.0999 42.2566 40.7051C47.8204 34.6561 53.3382 28.6572 55.4835 27.6284C56.1955 27.2855 56.8017 27.0163 57.4338 26.7356C58.6134 26.2117 59.8828 25.648 62.0976 24.4913C62.9606 24.0311 62.7119 22.6757 62.4309 21.1441C61.6041 16.6384 60.4976 10.6075 86.589 21.3543C121.55 35.7543 113.991 62.3622 106.507 75.137C99.7996 86.5871 103.051 102.774 105.921 117.057C106.252 118.709 106.579 120.336 106.885 121.928C106.917 122.093 106.947 122.257 106.974 122.419H117.43V130.129H111.269V132.51H117.279V140.22H33.4866V132.51H40.0252V130.129H33.6378V122.419H45.3561C45.354 119.333 45.147 115.2 44.7496 109.531C43.8774 96.6583 48.1987 93.1197 54.0758 88.307C55.5843 87.0718 57.1953 85.7526 58.8472 84.1701C60.6142 82.4691 62.3452 80.8494 63.9683 79.3305C69.7748 73.8969 74.2017 69.7543 73.9653 67.8047C73.663 65.3102 72.4535 63.0047 67.6535 61.8709C63.9651 61.0286 55.3445 63.8911 48.8401 66.0508C46.8801 66.7017 45.1119 67.2888 43.7291 67.6913C37.7197 69.4299 31.3323 67.2756 28.611 62.3244C28.3502 61.8563 28.1069 61.4356 27.8861 61.0537Z" fill="#FF8264" />
    <path d="M70.9417 57.1843C64.252 57.4488 61.0394 62.1354 61.0394 62.1354L61.0772 62.0976C72.189 62.778 73.3228 69.6567 73.3228 69.6567C73.3228 69.6567 82.3559 67.1622 82.3559 61.4551C82.3559 55.748 73.7764 44.674 73.7764 44.674C73.7764 44.674 77.5937 56.9197 70.9417 57.1843Z" fill="#D15252" />
    <path d="M101.876 30.329C100.238 28.821 98.9858 28.1197 98.9858 28.1197H98.948C99.9952 28.829 100.97 29.5668 101.876 30.329Z" fill="#D15252" />
    <path d="M111.231 130.129V130.091H117.392V122.381H106.923C106.923 122.381 103.332 105.449 102.539 94.8661C101.745 84.2835 104.731 77.7071 108.964 70.1858C112.925 63.049 117.189 43.2108 101.876 30.329C106.103 34.2215 112.896 43.4891 107.339 59.9433C104.011 69.7964 99.6126 77.5866 95.8765 84.2041C90.9566 92.9184 87.1846 99.5994 88.5165 106.28C90.0622 114.034 89.7168 117.544 89.5412 119.329C89.4506 120.25 89.4052 120.711 89.6882 121.058C90.5197 122.079 93.2031 122.079 97.0583 120.907C100.196 119.954 100.329 121.653 100.454 123.236C100.482 123.598 100.51 123.954 100.573 124.271C100.702 124.902 101.125 127.342 101.6 130.129H40.063V132.51H102.004C102.663 136.403 103.294 140.183 103.294 140.183H117.241V132.472H111.307V130.129H111.231Z" fill="#D15252" />
  </g>
  <g id="bp" fill="none" transform="scale(0.2777777777777778 0.2777777777777778)">
    <path d="M80.2375 72.0756C84.3683 69.1296 87.0803 64.1685 87.0803 58.5449C87.0803 49.5066 80.0748 42.1795 71.4331 42.1795C62.7913 42.1795 55.7858 49.5066 55.7858 58.5449C55.7858 64.1685 58.4978 69.1296 62.6286 72.0756H51.2126V78.0473H62.645L51.421 122.419H36.0189V130.129H41.537V132.51H35.9055V140.22H107.981V132.51H102.803V130.129H108.094V122.419H93.2879L80.945 78.0473H93.3543V72.0756H80.2375Z" fill="#FF8264" />
    <path d="M83.074 55.748C82.2047 48.1134 74.8346 42.5575 74.8346 42.5575C74.8346 42.5575 78.7653 43.578 80.5795 45.2409C82.4315 46.8661 83.5275 48.1134 84.548 49.5496C85.5685 50.9858 87.1181 54.463 87.1181 58.5071C87.1181 62.4923 85.9436 64.7525 84.4627 67.6024L84.3968 67.7291C83.0784 70.2342 80.7827 71.7331 80.2169 72.0756H93.3165V78.0472H80.9953L78.4204 72.1512H62.8157C62.8157 72.1512 61.1149 70.7906 59.7165 69.3165C58.2803 67.8425 57.4866 65.915 57.4866 65.915C57.2695 65.4473 57.8937 65.7472 59.1245 66.3385C60.6789 67.0853 63.2009 68.297 66.2173 69.0142C76.9512 71.5465 84.4346 67.6535 83.074 55.748Z" fill="#D15252" />
    <path d="M93.3565 122.419L80.9953 78.0472H58.885L78.085 83.6031L84.4346 124.989H93.5851L94.349 130.129H41.537V132.51H94.7029L95.8488 140.22H107.981V132.51H102.803V130.129H108.094V122.419H93.3565Z" fill="#D15252" />
  </g>
  <g id="bq" fill="none" transform="scale(0.2777777777777778 0.2777777777777778)">
    <path d="M53.3608 17.9086C53.2878 17.9128 53.2142 17.915 53.1402 17.915C51.0528 17.915 49.3606 16.2228 49.3606 14.1354C49.3606 12.0481 51.0528 10.3559 53.1402 10.3559C55.2275 10.3559 56.9197 12.0481 56.9197 14.1354C56.9197 15.2827 56.4086 16.3105 55.6016 17.0037L71.1874 35.1654L86.7707 17.0393C85.9652 16.3461 85.4551 15.3193 85.4551 14.1732C85.4551 12.0859 87.1473 10.3937 89.2346 10.3937C91.322 10.3937 93.0142 12.0859 93.0142 14.1732C93.0142 16.2606 91.322 17.9528 89.2346 17.9528C89.1605 17.9528 89.0868 17.9506 89.0137 17.9464L87.7228 39.9874L103.194 31.9102C102.92 31.3871 102.765 30.7919 102.765 30.1606C102.765 28.0733 104.458 26.3811 106.545 26.3811C108.632 26.3811 110.324 28.0733 110.324 30.1606C110.324 32.248 108.632 33.9402 106.545 33.9402C105.909 33.9402 105.309 33.7829 104.783 33.5052L92.0501 57.6756H103.03V65.9906H89.4355L103.658 122.268H113.953V129.978H107.792V132.321H113.802V140.031H30.0095V132.321H36.548V129.978H30.1606V122.268H40.6176L53.5703 65.9906H41.1213V57.6756H50.3625L37.6296 33.5052C37.1035 33.7829 36.504 33.9402 35.8677 33.9402C33.7803 33.9402 32.0882 32.248 32.0882 30.1606C32.0882 28.0733 33.7803 26.3811 35.8677 26.3811C37.9551 26.3811 39.6473 28.0733 39.6473 30.1606C39.6473 30.793 39.4919 31.3892 39.2174 31.913L54.652 39.9874L53.3608 17.9086Z" fill="#FF8264" />
    <path d="M91.5024 11.1496L87.8362 17.6882L78.7654 57.6756H85.4174V65.9528L53.1583 65.9528L52.9134 65.915L52.9512 65.9528H53.1583L84.5102 70.7906C84.5102 70.7906 92.2205 99.0992 94.0724 113.008C95.4469 123.124 96.6214 125.143 97.8141 127.193C98.2519 127.945 98.6921 128.702 99.1455 129.865H36.6614V132.246H99.9671C101.177 136.127 101.858 140.031 101.858 140.031H113.802V132.321L107.868 132.208V129.94H113.953V122.23H103.899L89.4236 65.9528L103.03 65.9528V57.6756H92.0315L104.769 33.5244L104.709 33.4654C105.253 33.7678 105.879 33.9402 106.545 33.9402C108.632 33.9402 110.324 32.248 110.324 30.1606C110.324 28.0733 108.632 26.3811 106.545 26.3811C104.458 26.3811 102.765 28.0733 102.765 30.1606C102.765 30.8267 102.938 31.4526 103.24 31.9961L103.181 31.937L87.7229 39.9874L89.2347 17.915C89.2347 17.915 95.7733 16.6299 91.5024 11.1118V11.1496Z" fill="#D15252" />
  </g>
  <g id="br" fill="none" transform="scale(0.2777777777777778 0.2777777777777778)">
    <path d="M47.3345 66.0284H37.8709L30.1228 22.526L49.8142 24.0756L49.9276 34.3559H62.022V24.0378H82.7716V34.3559H94.3748V23.6977L114.18 22.526L105.978 66.0284H96.319L103.712 122.268H113.764V129.978H107.603V132.359H113.613V140.069H29.8205V132.359H36.3591V129.978H29.9716V122.268H40.3225L47.3345 66.0284Z" fill="#FF8264" />
    <path d="M101.442 60.1701C102.274 57.6378 107.792 22.904 107.792 22.904H107.754L114.142 22.526L105.94 66.0284H97.8897C97.8897 66.0284 100.611 62.7024 101.442 60.1701Z" fill="#D15252" />
    <path d="M96.3023 66.0284H52.3842L52.3464 66.104L88.063 74.5323C88.063 74.5323 91.9937 99.1748 93.8456 113.083C95.2328 123.473 96.5987 125.635 97.864 127.638C98.2823 128.301 98.6896 128.946 99.0831 129.865H36.4346V132.246H99.9454C101.036 135.826 101.631 140.069 101.631 140.069H113.575V132.359L107.641 132.246L107.679 132.246V129.865L113.726 129.978V122.268H103.672L96.3023 66.0284Z" fill="#D15252" />
  </g>
  <g id="wb" fill="none" transform="scale(0.2777777777777778 0.2777777777777778)">
    <path d="M75.4419 20.952C76.7803 19.9626 77.6221 18.5282 77.6221 16.9323C77.6221 13.9473 74.6777 11.5276 71.0457 11.5276C67.4136 11.5276 64.4693 13.9473 64.4693 16.9323C64.4693 18.5003 65.2818 19.9124 66.5796 20.8996C60.0641 25.2627 49.4889 35.1636 53.8866 51.6283C54.4526 53.7475 55.0956 55.5616 55.7967 57.1087H48.5953V62.8535H58.5945L42.6646 122.381H30.1512V130.091H36.5386V132.472H30V140.183H113.792V132.472H107.783V130.091H113.943V122.381H101.033L83.531 62.8535H93.9496V57.1087H86.0611C86.7654 55.5534 87.4108 53.727 87.978 51.5905C92.319 35.2383 81.9472 25.3604 75.4419 20.952Z" fill="#FFF5A5" />
    <path d="M75.8929 16.5543C75.8929 14.2488 74.2677 12.2079 74.2677 12.2079C81.1465 16.5543 75.3638 21.0142 75.3638 21.0142C75.3638 21.0142 75.8929 18.8598 75.8929 16.5543Z" fill="#FFAA64" />
    <path d="M75.3638 21.0142H75.2882C75.2882 21.0142 80.6173 26.7968 82.6205 31.1811C84.6614 35.5276 85.0016 39.2315 84.6236 45.0898C84.3619 48.7776 82.7223 50.8778 81.6375 52.2672C80.9991 53.085 80.5529 53.6565 80.6929 54.1606C81.0709 55.4835 81.1465 57.0709 81.1465 57.0709L81.789 62.8157H93.9213V57.0709H86.022C86.022 57.0709 87.9874 53.8205 88.5921 48.6047C88.6193 48.37 88.6463 48.1405 88.6728 47.9155C89.234 43.1417 89.5538 40.4218 86.7024 33.6C83.7165 26.4567 75.3638 21.0142 75.3638 21.0142Z" fill="#FFAA64" />
    <path d="M95.6598 130.091L36.548 130.091V132.472H95.6598V140.183H113.839V132.472L107.792 132.472V130.091L113.991 130.091V122.381H101.102L83.5276 62.8535H58.2425L80.6929 68.3717L92.485 122.381L95.6598 130.091Z" fill="#FFAA64" />
  </g>
  <g id="wk" fill="none" transform="scale(0.2777777777777778 0.2777777777777778)">
    <path d="M75.4772 7.56003C75.9521 7.31795 76.492 7.1811 77.0646 7.1811C78.9641 7.1811 80.5039 8.68712 80.5039 10.5449C80.5039 12.2833 79.1556 13.7136 77.426 13.8903C78.01 14.3181 78.3874 14.9967 78.3874 15.7606C78.3874 17.0264 77.3514 18.0578 76.0561 18.1024C76.0678 18.1865 76.0765 18.2751 76.0819 18.3685C76.2361 21.0209 80.1403 23.3965 81.5717 24.1808C93.4464 26.3712 101.131 31.0284 102.576 39.2693C103.679 45.6757 99.6201 53.6142 97.0387 57.8646H103.03V66.1795H93.0152L103.781 122.494H113.953V130.205H107.792V132.548H113.802V140.258H30.0094V132.548H36.548V130.205H30.1606V122.494H40.5487L49.9689 66.1795H41.1213V57.8646H46.3188C43.7374 53.6142 39.6784 45.6757 40.7811 39.2693C42.1088 31.7016 48.6972 27.156 58.9606 24.7676V24.7559C58.9606 24.7559 68.5228 22.3748 67.5024 18.3685C67.4789 18.2765 67.4588 18.1883 67.442 18.1039L67.4268 18.1039C66.0909 18.1039 65.0079 17.0548 65.0079 15.7606C65.0079 14.9967 65.3853 14.3181 65.9693 13.8903C64.2396 13.7136 62.8913 12.2833 62.8913 10.5449C62.8913 8.68712 64.4312 7.1811 66.3307 7.1811C66.9974 7.1811 67.6199 7.36664 68.1469 7.68782C68.1456 7.64507 68.1449 7.60214 68.1449 7.55905C68.1449 5.4508 69.7863 3.74173 71.811 3.74173C73.8358 3.74173 75.4772 5.45178 75.4772 7.56003Z" fill="#FFF5A5" />
    <path fill-rule="evenodd" clip-rule="evenodd" d="M76.1092 18.3891C76.116 18.3755 76.1197 18.3685 76.1197 18.3685L76.0819 18.3307C76.0819 18.3307 76.0913 18.3512 76.1092 18.3891ZM76.1092 18.3891C75.9636 18.6814 74.3804 22.0053 76.8 23.811C78.0441 24.7535 80.2189 25.5174 82.4992 26.3183C84.791 27.1233 87.1895 27.9657 88.8567 29.0646C89.3513 29.3869 89.8965 29.7125 90.4669 30.0531C93.7762 32.0291 97.9331 34.5114 97.9654 39.7984C98.0409 45.9968 96.7181 48.7181 92.7118 53.0646C88.6677 57.4488 86.0976 57.8268 86.0976 57.8268H96.9827C96.9827 57.8268 100.271 52.0819 101.14 49.285L101.145 49.2683C102.014 46.4741 103.104 42.9657 102.501 39.1937C101.896 35.4142 99.0992 30.6898 94.715 28.611C93.1978 27.8786 92.3414 27.4223 91.7386 27.101C90.5995 26.494 90.3659 26.3696 88.2898 25.7764C85.3588 24.9289 84.8034 24.8072 84.4656 24.7332C84.4419 24.728 84.4192 24.7231 84.3969 24.7181C84.0567 24.6425 80.8063 23.6976 80.8063 23.6976C80.8063 23.6976 79.1055 22.7528 78.1606 21.7701C77.302 20.8771 76.2873 18.767 76.1092 18.3891ZM87.3827 66.1795L86.0976 57.8646H103.03V66.1795L93.052 66.1795L103.937 122.457H113.991V130.167L107.906 130.054V132.435L113.839 132.548V140.258H101.896C101.896 140.258 101.215 136.354 100.005 132.472H36.6614V130.091H99.1833C98.7299 128.929 98.2896 128.172 97.8519 127.419C96.6592 125.369 95.4847 123.35 94.1102 113.235C92.2583 99.326 88.4409 71.622 88.4409 71.622L53.1959 66.1795L87.3827 66.1795ZM53.1959 66.1795L52.9512 66.1417V66.1795H53.1959Z" fill="#FFAA64" />
  </g>
  <g id="wn" fill="none" transform="scale(0.2777777777777778 0.2777777777777778)">
    <path d="M27.7434 60.7745C25.9052 57.9194 25.5578 57.3797 31.2945 52.0819L31.2567 52.1197C33.9962 49.5981 37.9472 45.3073 41.906 41.0081C47.5598 34.8681 53.2293 28.711 55.4079 27.6661C56.1199 27.3233 56.7261 27.0541 57.3581 26.7734C58.5377 26.2496 59.8072 25.6858 62.022 24.5291C62.885 24.0689 62.6363 22.7135 62.3553 21.1819C61.5285 16.6762 60.422 10.6453 86.5134 21.3921C121.474 35.7921 113.915 62.4 106.431 75.1748C99.724 86.6249 102.976 102.812 105.845 117.095C106.177 118.747 106.504 120.374 106.809 121.965C106.839 122.118 106.867 122.269 106.892 122.419H117.43V130.129H111.269V132.51H117.279V140.22H33.4866V132.51H40.0252V130.129H33.6378V122.419H45.2805C45.2768 119.337 45.0698 115.215 44.674 109.569C43.8018 96.6961 48.1231 93.1575 54.0002 88.3448C55.5087 87.1096 57.1197 85.7904 58.7716 84.2079C60.5381 82.5074 62.2686 80.8881 63.8913 79.3696L63.8926 79.3683C69.6991 73.9347 74.1261 69.792 73.8898 67.8425C73.5874 65.348 72.3779 63.0425 67.5779 61.9087C62.7779 60.7748 59.6787 60.1323 48.0378 65.8016C36.3968 71.4709 31.748 67.8425 29.0268 62.8913C28.5626 62.0468 28.1215 61.3617 27.7434 60.7745Z" fill="#FFF5A5" />
    <path d="M70.9417 57.1843C64.252 57.4488 61.0394 62.1354 61.0394 62.1354L61.0772 62.0976C72.189 62.778 73.3228 69.6567 73.3228 69.6567C73.3228 69.6567 82.3559 67.1622 82.3559 61.4551C82.3559 55.748 73.7764 44.674 73.7764 44.674C73.7764 44.674 77.5937 56.9197 70.9417 57.1843Z" fill="#FFAA64" />
    <path d="M101.876 30.329C100.238 28.821 98.9858 28.1197 98.9858 28.1197H98.948C99.9952 28.829 100.97 29.5668 101.876 30.329Z" fill="#FFAA64" />
    <path d="M111.231 130.129V130.091H117.392V122.381H106.923C106.923 122.381 103.332 105.449 102.539 94.8661C101.745 84.2835 104.731 77.7071 108.964 70.1858C112.925 63.049 117.189 43.2108 101.876 30.329C106.103 34.2215 112.896 43.4891 107.339 59.9433C104.011 69.7964 99.6126 77.5866 95.8765 84.2041C90.9566 92.9184 87.1846 99.5994 88.5165 106.28C90.0622 114.034 89.7168 117.544 89.5412 119.329C89.4506 120.25 89.4052 120.711 89.6882 121.058C90.5197 122.079 93.2031 122.079 97.0583 120.907C100.196 119.954 100.329 121.653 100.454 123.236C100.482 123.598 100.51 123.954 100.573 124.271C100.702 124.902 101.125 127.342 101.6 130.129H40.063V132.51H102.004C102.663 136.403 103.294 140.183 103.294 140.183H117.241V132.472H111.307V130.129H111.231Z" fill="#FFAA64" />
  </g>
  <g id="wp" fill="none" transform="scale(0.2777777777777778 0.2777777777777778)">
    <path d="M80.2375 72.0756C84.3683 69.1296 87.0803 64.1685 87.0803 58.5449C87.0803 49.5066 80.0748 42.1795 71.4331 42.1795C62.7913 42.1795 55.7858 49.5066 55.7858 58.5449C55.7858 64.1685 58.4978 69.1296 62.6286 72.0756H51.2126V78.0473H62.645L51.421 122.419H36.0189V130.129H41.537V132.51H35.9055V140.22H107.981V132.51H102.803V130.129H108.094V122.419H93.2879L80.945 78.0473H93.3543V72.0756H80.2375Z" fill="#FFF5A5" />
    <path d="M83.074 55.748C82.2047 48.1134 74.8347 42.5575 74.8347 42.5575C74.8347 42.5575 78.7654 43.578 80.5795 45.2409C82.4315 46.8661 83.5276 48.1134 84.548 49.5496C85.5685 50.9858 87.1181 54.463 87.1181 58.5071C87.1181 62.4923 85.9436 64.7525 84.4627 67.6024L84.3969 67.7291C83.0784 70.2342 80.7827 71.7331 80.2169 72.0756H93.3166V78.0472H80.9953L78.4204 72.1512H62.8158C62.8158 72.1512 61.115 70.7906 59.7166 69.3165C58.2803 67.8425 57.4866 65.915 57.4866 65.915C57.2695 65.4473 57.8937 65.7472 59.1245 66.3385C60.6789 67.0853 63.2009 68.297 66.2173 69.0142C76.9512 71.5465 84.4347 67.6535 83.074 55.748Z" fill="#FFAA64" />
    <path d="M93.3565 122.419L80.9953 78.0472H58.8851L78.0851 83.6031L84.4347 124.989H93.5852L94.3491 130.129H41.537V132.51H94.703L95.8489 140.22H107.981V132.51H102.803V130.129H108.095V122.419H93.3565Z" fill="#FFAA64" />
  </g>
  <g id="wq" fill="none" transform="scale(0.2777777777777778 0.2777777777777778)">
    <path d="M53.3608 17.9086C53.2878 17.9128 53.2142 17.915 53.1402 17.915C51.0528 17.915 49.3606 16.2228 49.3606 14.1354C49.3606 12.0481 51.0528 10.3559 53.1402 10.3559C55.2275 10.3559 56.9197 12.0481 56.9197 14.1354C56.9197 15.2827 56.4086 16.3105 55.6016 17.0037L71.1874 35.1654L86.7707 17.0393C85.9652 16.3461 85.4551 15.3193 85.4551 14.1732C85.4551 12.0859 87.1473 10.3937 89.2346 10.3937C91.322 10.3937 93.0142 12.0859 93.0142 14.1732C93.0142 16.2606 91.322 17.9528 89.2346 17.9528C89.1605 17.9528 89.0868 17.9506 89.0137 17.9464L87.7228 39.9874L103.191 31.9427C102.919 31.4209 102.765 30.8276 102.765 30.1984C102.765 28.1111 104.458 26.4189 106.545 26.4189C108.632 26.4189 110.324 28.1111 110.324 30.1984C110.324 32.2858 108.632 33.978 106.545 33.978C105.908 33.978 105.308 33.8204 104.781 33.5421L92.051 57.6756H103.03V65.9906H89.4355L103.658 122.268H113.953V129.978H107.792V132.321H113.802V140.031H30.0095V132.321H36.548V129.978H30.1606V122.268H40.6176L53.5703 65.9906H41.1213V57.6756H50.3625L37.6296 33.5052C37.1035 33.7829 36.504 33.9402 35.8677 33.9402C33.7803 33.9402 32.0882 32.248 32.0882 30.1606C32.0882 28.0733 33.7803 26.3811 35.8677 26.3811C37.9551 26.3811 39.6473 28.0733 39.6473 30.1606C39.6473 30.793 39.4919 31.3892 39.2174 31.913L54.652 39.9874L53.3608 17.9086Z" fill="#FFF5A5" />
    <path d="M87.8362 17.6882L91.5024 11.1496V11.1118C96.2268 16.7055 89.3481 17.915 89.3481 17.915L87.7229 39.9874L103.181 31.937L103.196 31.9516C102.921 31.4276 102.765 30.8312 102.765 30.1984C102.765 28.1111 104.458 26.4189 106.545 26.4189C108.632 26.4189 110.324 28.1111 110.324 30.1984C110.324 32.2858 108.632 33.978 106.545 33.978C105.901 33.978 105.295 33.8169 104.764 33.5329L92.0315 57.6756H103.03V65.9528L89.4236 65.9528L103.899 122.23H113.953V129.94H107.868V132.208L113.802 132.321V140.031H101.858C101.858 140.031 101.177 136.127 99.9671 132.246H36.6614V129.865H99.1455C98.6921 128.702 98.2519 127.945 97.8141 127.193C96.6214 125.143 95.4469 123.124 94.0724 113.008C92.2205 99.0992 84.5102 70.7906 84.5102 70.7906L53.1583 65.9528L85.4174 65.9528V57.6756H78.7654L87.8362 17.6882Z" fill="#FFAA64" />
    <path d="M53.1583 65.9528H52.9512L52.9134 65.915L53.1583 65.9528Z" fill="#FFAA64" />
  </g>
  <g id="wr" fill="none" transform="scale(0.2777777777777778 0.2777777777777778)">
    <path d="M47.3343 66.0284H37.8709L30.1228 22.526L49.8142 24.0756L49.9276 34.3559H62.022V24.0378H82.7716V34.3559H94.3748V23.6977L114.18 22.526L105.978 66.0284H96.319L103.712 122.268H113.764V129.978H107.603V132.359H113.613V140.069H29.8205V132.359H36.3591V129.978H29.9716V122.268H40.3179L47.3343 66.0284Z" fill="#FFF5A5" />
    <path d="M101.442 60.1701C102.274 57.6378 107.792 22.904 107.792 22.904H107.754L114.142 22.526L105.94 66.0284H97.8897C97.8897 66.0284 100.611 62.7024 101.442 60.1701Z" fill="#FFAA64" />
    <path d="M96.3023 66.0284H52.3842L52.3464 66.104L88.063 74.5323C88.063 74.5323 91.9937 99.1748 93.8456 113.083C95.2328 123.473 96.5987 125.635 97.864 127.638C98.2823 128.301 98.6896 128.946 99.0831 129.865H36.4346V132.246H99.9454C101.036 135.826 101.631 140.069 101.631 140.069H113.575V132.359L107.641 132.246L107.679 132.246V129.865L113.726 129.978V122.268H103.672L96.3023 66.0284Z" fill="#FFAA64" />
  </g>
</svg>