<svg xmlns="http://www.w3.org/2000/svg" width="40" height="40" viewbox="0.0 0.0 144.0 144.0">
  <g id="bb" fill="none" transform="scale(0.2777777777777778 0.2777777777777778)">
    <path d="M48.5953 56.1087H47.5953V57.1087V62.8535V63.8535H48.5953H57.2917L41.897 121.381H30.1512H29.1512V122.381V130.091V131.091H30.1512H35.5386V131.472H30H29V132.472V140.183V141.183H30H113.792H114.792V140.183V132.472V131.472H113.792H108.783V131.091H113.943H114.943V130.091V122.381V121.381H113.943H101.781L84.8674 63.8535H93.9496H94.9496V62.8535V57.1087V56.1087H93.9496H87.5671C88.0658 54.8361 88.5269 53.4199 88.9445 51.8471C93.2239 35.7272 83.6859 25.6711 77.0421 20.8528C78.016 19.7884 78.6221 18.4349 78.6221 16.9323C78.6221 13.2205 75.0375 10.5276 71.0457 10.5276C67.0538 10.5276 63.4693 13.2205 63.4693 16.9323C63.4693 18.4031 64.0502 19.7315 64.9885 20.7855C58.3193 25.5625 48.583 35.6472 52.9205 51.8864C53.3363 53.443 53.7947 54.8462 54.2901 56.1087H48.5953Z" fill="#A9AC36" stroke="#111111" stroke-width="2" />
    <path d="M75.8929 16.5543C75.8929 14.2488 74.2677 12.2079 74.2677 12.2079C81.1465 16.5543 75.3638 21.0142 75.3638 21.0142C75.3638 21.0142 75.8929 18.8598 75.8929 16.5543Z" fill="#778943" />
    <path d="M75.3638 21.0142H75.2882C75.2882 21.0142 80.6173 26.7968 82.6205 31.1811C84.6614 35.5276 85.0016 39.2315 84.6236 45.0898C84.3619 48.7776 82.7223 50.8778 81.6375 52.2672C80.9991 53.085 80.5529 53.6565 80.6929 54.1606C81.0709 55.4835 81.1465 57.0709 81.1465 57.0709L81.789 62.8157H93.9213V57.0709H86.022C86.022 57.0709 87.9874 53.8205 88.5921 48.6047C88.6193 48.37 88.6463 48.1405 88.6728 47.9155C89.234 43.1417 89.5538 40.4218 86.7024 33.6C83.7165 26.4567 75.3638 21.0142 75.3638 21.0142Z" fill="#778943" />
    <path d="M95.6598 130.091L36.548 130.091V132.472H95.6598V140.183H113.839V132.472L107.792 132.472V130.091L113.991 130.091V122.381H101.102L83.5276 62.8535H58.2425L80.6929 68.3717L92.485 122.381L95.6598 130.091Z" fill="#778943" />
  </g>
  <g id="bk" fill="none" transform="scale(0.2777777777777778 0.2777777777777778)">
    <path d="M61.8913 10.5449C61.8913 12.2434 62.8728 13.6994 64.293 14.4221C64.1102 14.8306 64.0079 15.2831 64.0079 15.7606C64.0079 17.3417 65.1164 18.6323 66.577 18.9992C66.5651 19.4236 66.3513 19.8685 65.8758 20.3652C65.2443 21.025 64.2692 21.6362 63.1783 22.1646C62.1022 22.6857 60.9853 23.0925 60.13 23.3701C59.7043 23.5083 59.3476 23.6132 59.0989 23.6831C58.9747 23.718 58.8776 23.7441 58.8126 23.7613C58.7801 23.7699 58.7556 23.7762 58.7398 23.7802L58.7227 23.7846L58.7191 23.7855L58.719 23.7855L58.7187 23.7856L58.7186 23.7856L57.9606 23.9744V23.9793C48.0001 26.4472 41.1953 31.1213 39.7961 39.0965L39.7956 39.0997C39.2013 42.5521 40.0041 46.3316 41.228 49.7156C42.1935 52.3849 43.4456 54.8744 44.5728 56.8646H41.1213H40.1213V57.8646V66.1795V67.1795H41.1213H48.7877L39.7021 121.494H30.1606H29.1606V122.494V130.205V131.205H30.1606H35.548V131.548H30.0094H29.0094V132.548V140.258V141.258H30.0094H113.802H114.802V140.258V132.548V131.548H113.802H108.792V131.205H113.953H114.953V130.205V122.494V121.494H113.953H104.608L94.2245 67.1795H103.03H104.03V66.1795V57.8646V56.8646H103.03H98.7847C99.9119 54.8744 101.164 52.3849 102.129 49.7156C103.353 46.3316 104.156 42.5521 103.562 39.0997L103.561 39.0965C102.005 30.227 93.7765 25.4447 81.9144 23.2273C81.2043 22.8301 80.0347 22.1162 79.0146 21.2229C78.1037 20.4254 77.4642 19.6163 77.223 18.8708C78.4785 18.3854 79.3874 17.1917 79.3874 15.7606C79.3874 15.2831 79.2851 14.8307 79.1022 14.4221C80.5225 13.6994 81.5039 12.2434 81.5039 10.5449C81.5039 8.114 79.4953 6.1811 77.0646 6.1811C76.8044 6.1811 76.549 6.2032 76.3004 6.24566C75.75 4.24351 73.9733 2.74173 71.811 2.74173C69.6335 2.74173 67.8467 4.26424 67.31 6.28783C66.9945 6.21793 66.6667 6.1811 66.3307 6.1811C63.9 6.1811 61.8913 8.114 61.8913 10.5449Z" fill="#A9AC36" stroke="#111111" stroke-width="2" />
    <path d="M76.1092 18.3891C76.116 18.3755 76.1197 18.3685 76.1197 18.3685L76.0819 18.3307C76.0819 18.3307 76.0913 18.3512 76.1092 18.3891Z" fill="#778943" />
    <path d="M76.1092 18.3891C75.9636 18.6814 74.3804 22.0053 76.8 23.811C78.0441 24.7535 80.2189 25.5174 82.4992 26.3183C84.791 27.1233 87.1895 27.9657 88.8567 29.0646C89.3513 29.3869 89.8965 29.7125 90.4669 30.0531C93.7762 32.0291 97.9331 34.5114 97.9654 39.7984C98.0409 45.9968 96.7181 48.7181 92.7118 53.0646C88.6677 57.4488 86.0976 57.8268 86.0976 57.8268H96.9827C96.9827 57.8268 100.271 52.0819 101.14 49.285L101.145 49.2683C102.014 46.4741 103.104 42.9657 102.501 39.1937C101.896 35.4142 99.0992 30.6898 94.715 28.611C93.1978 27.8786 92.3414 27.4223 91.7386 27.101C90.5995 26.494 90.3659 26.3696 88.2898 25.7764C85.3588 24.9289 84.8034 24.8072 84.4656 24.7332C84.4419 24.728 84.4192 24.7231 84.3969 24.7181C84.0567 24.6425 80.8063 23.6976 80.8063 23.6976C80.8063 23.6976 79.1055 22.7528 78.1606 21.7701C77.302 20.8771 76.2873 18.767 76.1092 18.3891Z" fill="#778943" />
    <path d="M87.3827 66.1795L86.0976 57.8646H103.03V66.1795L93.052 66.1795L103.937 122.457H113.991V130.167L107.906 130.054V132.435L113.839 132.548V140.258H101.896C101.896 140.258 101.215 136.354 100.005 132.472H36.6614V130.091H99.1833C98.7299 128.929 98.2896 128.172 97.8519 127.419C96.6592 125.369 95.4847 123.35 94.1102 113.235C92.2583 99.326 88.4409 71.622 88.4409 71.622L53.1959 66.1795L87.3827 66.1795Z" fill="#778943" />
    <path d="M53.1959 66.1795L52.9512 66.1417V66.1795H53.1959Z" fill="#778943" />
  </g>
  <g id="bn" fill="none" transform="scale(0.2777777777777778 0.2777777777777778)">
    <path d="M62.0698 23.6092C62.0671 23.6139 62.0664 23.614 62.0686 23.6114C62.0692 23.6108 62.0697 23.6103 62.0702 23.6098L62.0698 23.6092ZM62.0698 23.6092L62.0697 23.609C62.0698 23.6089 62.0699 23.6089 62.07 23.6088L62.0698 23.6092ZM31.1021 51.3421L31.0999 51.3442C29.6944 52.6304 28.6126 53.6338 27.8299 54.463C27.0582 55.2806 26.4865 56.0197 26.2032 56.7885C25.8947 57.6258 25.9623 58.3952 26.2393 59.1718C26.4874 59.8674 26.9284 60.63 27.4227 61.4845L27.4631 61.5543C27.6837 61.9359 27.9228 62.3494 28.1787 62.8086C31.1712 68.25 38.0884 70.4923 44.4497 68.652L44.4513 68.6515C45.8524 68.2436 47.6352 67.6516 49.5826 67.005L49.5979 66.9999C53.7481 65.6218 58.67 63.9892 62.629 63.1947C67.3704 63.7114 69.8862 65.4563 71.2194 66.9706C71.9018 67.7457 72.2962 68.4851 72.5183 69.0191C72.592 69.1963 72.6465 69.3505 72.6862 69.4756C72.0097 70.4432 70.9188 71.6552 69.4842 73.0996C67.8825 74.7121 65.9118 76.5564 63.7277 78.6003L63.7262 78.6017C62.1044 80.1193 60.3693 81.743 58.5973 83.4488C56.9775 85.0003 55.3955 86.2963 53.885 87.5333L53.8132 87.5921C50.9271 89.9554 48.2478 92.1492 46.4486 95.4138C44.619 98.7334 43.7507 103.047 44.1946 109.598L44.1947 109.601C44.55 114.669 44.7514 118.487 44.7914 121.419H34.0805H33.0805V122.419V130.129V131.129H34.0805H39.4679V131.51H33.9293H32.9293V132.51V140.22V141.22H33.9293H117.721H118.721V140.22V132.51V131.51H118.684V131.472H117.684H112.75V131.129H117.873H118.873V130.129V122.419V121.419H118.835V121.381H117.835H108.241C107.955 119.901 107.651 118.392 107.345 116.865L107.344 116.86C107.026 115.279 106.705 113.68 106.393 112.066C105.577 107.49 104.709 102.091 104.22 97.4448C103.716 91.1645 104 85.1701 105.837 79.937C105.961 79.5894 106.091 79.244 106.225 78.9002C106.674 77.7743 107.201 76.6868 107.813 75.6425C108.836 73.8948 109.861 71.8949 110.782 69.7054C111.909 67.3898 112.981 64.1831 113.596 60.4934C114.941 53.3905 114.494 45.3974 109.999 37.9119C108.305 34.9581 106.011 32.1321 102.979 29.5781C101.468 28.1892 100.264 27.45 99.9796 27.2832C96.5507 24.7906 92.3988 22.4835 87.4125 20.4297C80.868 17.7341 75.9935 16.0754 72.3727 15.1831C68.7847 14.2988 66.3023 14.1335 64.6135 14.5599C63.7444 14.7794 63.0489 15.1646 62.5382 15.7201C62.0284 16.2748 61.7658 16.9306 61.6465 17.5857C61.4257 18.7989 61.6783 20.1731 61.8738 21.2364C61.8792 21.266 61.8846 21.2954 61.89 21.3246C62.0367 22.1245 62.1445 22.7356 62.1361 23.2015C62.1321 23.4242 62.1008 23.5405 62.0787 23.5913C62.075 23.5998 62.0721 23.6054 62.0701 23.6088C59.8878 24.7482 58.6415 25.3016 57.4729 25.8206L57.4706 25.8217L57.4662 25.8236C56.8365 26.1033 56.2187 26.3776 55.493 26.727C54.8191 27.0504 53.9813 27.7034 53.0741 28.5061C52.143 29.33 51.0598 30.384 49.8814 31.5833C47.5267 33.9795 44.7474 37.0012 41.9719 40.0187L41.9632 40.0281C37.9062 44.4388 33.876 48.819 31.1021 51.3421Z" fill="#A9AC36" stroke="#111111" stroke-width="2" />
    <path d="M71.3844 57.1843C64.6947 57.4488 61.4821 62.1354 61.4821 62.1354L61.5199 62.0976C72.6317 62.778 73.7655 69.6567 73.7655 69.6567C73.7655 69.6567 82.7986 67.1622 82.7986 61.4551C82.7986 55.748 74.2191 44.674 74.2191 44.674C74.2191 44.674 78.0364 56.9197 71.3844 57.1843Z" fill="#778943" />
    <path d="M102.318 30.329C100.681 28.821 99.4285 28.1197 99.4285 28.1197H99.3907C100.438 28.829 101.412 29.5668 102.318 30.329Z" fill="#778943" />
    <path d="M111.674 130.129V130.091H117.835V122.381H107.366C107.366 122.381 103.775 105.449 102.981 94.8661C102.188 84.2835 105.173 77.7071 109.406 70.1858C113.367 63.049 117.632 43.2108 102.318 30.329C106.545 34.2215 113.339 43.4891 107.781 59.9433C104.453 69.7964 100.055 77.5866 96.3192 84.2041C91.3992 92.9184 87.6273 99.5994 88.9592 106.28C90.5049 114.034 90.1595 117.544 89.9839 119.329C89.8932 120.25 89.8479 120.711 90.1309 121.058C90.9624 122.079 93.6458 122.079 97.501 120.907C100.638 119.954 100.772 121.653 100.896 123.236C100.925 123.598 100.953 123.954 101.016 124.271C101.145 124.902 101.567 127.342 102.042 130.129H40.5057V132.51H102.447C103.106 136.403 103.737 140.183 103.737 140.183H117.684V132.472H111.75V130.129H111.674Z" fill="#778943" />
  </g>
  <g id="bp" fill="none" transform="scale(0.2777777777777778 0.2777777777777778)">
    <path d="M94.0477 121.419L82.2611 79.0473H93.3543H94.3543V78.0473V72.0756V71.0756H93.3543H82.9586C86.1194 67.9113 88.0803 63.4622 88.0803 58.5449C88.0803 48.997 80.6689 41.1795 71.4331 41.1795C62.1972 41.1795 54.7858 48.997 54.7858 58.5449C54.7858 63.4622 56.7467 67.9113 59.9075 71.0756H51.2126H50.2126V72.0756V78.0473V79.0473H51.2126H61.3605L50.6424 121.419H36.0189H35.0189V122.419V130.129V131.129H36.0189H40.537V131.51H35.9055H34.9055V132.51V140.22V141.22H35.9055H107.981H108.981V140.22V132.51V131.51H107.981H103.803V131.129H108.094H109.094V130.129V122.419V121.419H108.094H94.0477Z" fill="#A9AC36" stroke="#111111" stroke-width="2" />
    <path d="M83.074 55.748C82.2047 48.1134 74.8346 42.5575 74.8346 42.5575C74.8346 42.5575 78.7653 43.578 80.5795 45.2409C82.4315 46.8661 83.5275 48.1134 84.548 49.5496C85.5685 50.9858 87.1181 54.463 87.1181 58.5071C87.1181 62.4923 85.9436 64.7525 84.4627 67.6024L84.3968 67.7291C83.0784 70.2342 80.7827 71.7331 80.2169 72.0756H93.3165V78.0472H80.9953L78.4204 72.1512H62.8157C62.8157 72.1512 61.1149 70.7906 59.7165 69.3165C58.2803 67.8425 57.4866 65.915 57.4866 65.915C57.2695 65.4473 57.8937 65.7472 59.1245 66.3385C60.6789 67.0853 63.2009 68.297 66.2173 69.0142C76.9512 71.5465 84.4346 67.6535 83.074 55.748Z" fill="#778943" />
    <path d="M93.3565 122.419L80.9953 78.0472H58.885L78.085 83.6031L84.4346 124.989H93.5851L94.349 130.129H41.537V132.51H94.7029L95.8488 140.22H107.981V132.51H102.803V130.129H108.094V122.419H93.3565Z" fill="#778943" />
  </g>
  <g id="bq" fill="none" transform="scale(0.2777777777777778 0.2777777777777778)">
    <path d="M48.7055 56.6756H41.1213H40.1213V57.6756V65.9906V66.9906H41.1213H52.314L39.8216 121.268H30.1606H29.1606V122.268V129.978V130.978H30.1606H35.548V131.321H30.0095H29.0095V132.321V140.031V141.031H30.0095H113.802H114.802V140.031V132.321V131.321H113.802H108.792V130.978H113.953H114.953V129.978V122.268V121.268H113.953H104.436L90.7197 66.9906H103.03H104.03V65.9906V57.6756V56.6756H103.03H93.7071L105.251 34.7626C105.663 34.8783 106.097 34.9402 106.545 34.9402C109.185 34.9402 111.324 32.8003 111.324 30.1606C111.324 27.521 109.185 25.3811 106.545 25.3811C103.905 25.3811 101.765 27.521 101.765 30.1606C101.765 30.6022 101.826 31.0306 101.938 31.4377L88.8243 38.2843L89.9597 18.8981C92.2553 18.5488 94.0142 16.5664 94.0142 14.1732C94.0142 11.5336 91.8743 9.39371 89.2346 9.39371C86.595 9.39371 84.4551 11.5336 84.4551 14.1732C84.4551 15.2602 84.8187 16.2629 85.4294 17.0655L71.1881 33.6307L56.9429 17.0311C57.5551 16.228 57.9197 15.224 57.9197 14.1354C57.9197 11.4958 55.7798 9.35591 53.1402 9.35591C50.5005 9.35591 48.3606 11.4958 48.3606 14.1354C48.3606 16.5285 50.1194 18.5108 52.4148 18.8603L53.5506 38.2826L40.4734 31.4415C40.5868 31.0333 40.6473 30.6036 40.6473 30.1606C40.6473 27.521 38.5074 25.3811 35.8677 25.3811C33.2281 25.3811 31.0882 27.521 31.0882 30.1606C31.0882 32.8003 33.2281 34.9402 35.8677 34.9402C36.3155 34.9402 36.7497 34.8783 37.1618 34.7626L48.7055 56.6756Z" fill="#A9AC36" stroke="#111111" stroke-width="2" />
    <path d="M91.5024 11.1496L87.8362 17.6882L78.7654 57.6756H85.4174V65.9528L53.1583 65.9528L52.9134 65.915L52.9512 65.9528H53.1583L84.5102 70.7906C84.5102 70.7906 92.2205 99.0992 94.0724 113.008C95.4469 123.124 96.6214 125.143 97.8141 127.193C98.2519 127.945 98.6921 128.702 99.1455 129.865H36.6614V132.246H99.9671C101.177 136.127 101.858 140.031 101.858 140.031H113.802V132.321L107.868 132.208V129.94H113.953V122.23H103.899L89.4236 65.9528L103.03 65.9528V57.6756H92.0315L104.769 33.5244L104.709 33.4654C105.253 33.7678 105.879 33.9402 106.545 33.9402C108.632 33.9402 110.324 32.248 110.324 30.1606C110.324 28.0733 108.632 26.3811 106.545 26.3811C104.458 26.3811 102.765 28.0733 102.765 30.1606C102.765 30.8267 102.938 31.4526 103.24 31.9961L103.181 31.937L87.7229 39.9874L89.2347 17.915C89.2347 17.915 95.7733 16.6299 91.5024 11.1118V11.1496Z" fill="#778943" />
  </g>
  <g id="br" fill="none" transform="scale(0.2777777777777778 0.2777777777777778)">
    <path d="M36.8864 66.2037L37.0332 67.0284H37.8709H46.2021L39.4394 121.268H29.9716H28.9716V122.268V129.978V130.978H29.9716H35.3591V131.359H29.8205H28.8205V132.359V140.069V141.069H29.8205H113.613H114.613V140.069V132.359V131.359H113.613H108.603V130.978H113.764H114.764V129.978V122.268V121.268H113.764H104.589L97.4591 67.0284H105.978H106.807L106.961 66.2136L115.162 22.7113L115.4 21.4521L114.12 21.5277L94.3157 22.6994L93.3748 22.7551V23.6977V33.3559H83.7716V24.0378V23.0378H82.7716H62.022H61.022V24.0378V33.3559H50.9166L50.8141 24.0646L50.804 23.1504L49.8926 23.0787L30.2013 21.5291L28.9115 21.4276L29.1383 22.7013L36.8864 66.2037Z" fill="#A9AC36" stroke="#111111" stroke-width="2" />
    <path d="M101.442 60.1701C102.274 57.6378 107.792 22.904 107.792 22.904H107.754L114.142 22.526L105.94 66.0284H97.8897C97.8897 66.0284 100.611 62.7024 101.442 60.1701Z" fill="#778943" />
    <path d="M96.3023 66.0284H52.3842L52.3464 66.104L88.063 74.5323C88.063 74.5323 91.9937 99.1748 93.8456 113.083C95.2328 123.473 96.5987 125.635 97.864 127.638C98.2823 128.301 98.6896 128.946 99.0831 129.865H36.4346V132.246H99.9454C101.036 135.826 101.631 140.069 101.631 140.069H113.575V132.359L107.641 132.246L107.679 132.246V129.865L113.726 129.978V122.268H103.672L96.3023 66.0284Z" fill="#778943" />
  </g>
  <g id="wb" fill="none" transform="scale(0.2777777777777778 0.2777777777777778)">
    <path d="M48.5953 56.1087H47.5953V57.1087V62.8535V63.8535H48.5953H57.2917L41.897 121.381H30.1512H29.1512V122.381V130.091V131.091H30.1512H35.5386V131.472H30H29V132.472V140.183V141.183H30H113.792H114.792V140.183V132.472V131.472H113.792H108.783V131.091H113.943H114.943V130.091V122.381V121.381H113.943H101.781L84.8674 63.8535H93.9496H94.9496V62.8535V57.1087V56.1087H93.9496H87.5671C88.0658 54.8361 88.5269 53.4199 88.9445 51.8471C93.2239 35.7272 83.6859 25.6711 77.0421 20.8528C78.016 19.7884 78.6221 18.4349 78.6221 16.9323C78.6221 13.2205 75.0375 10.5276 71.0457 10.5276C67.0538 10.5276 63.4693 13.2205 63.4693 16.9323C63.4693 18.4031 64.0502 19.7315 64.9885 20.7855C58.3193 25.5625 48.583 35.6472 52.9205 51.8864C53.3363 53.443 53.7947 54.8462 54.2901 56.1087H48.5953Z" fill="#FFEF82" stroke="#111111" stroke-width="2" />
    <path d="M75.8929 16.5543C75.8929 14.2488 74.2677 12.2079 74.2677 12.2079C81.1465 16.5543 75.3638 21.0142 75.3638 21.0142C75.3638 21.0142 75.8929 18.8598 75.8929 16.5543Z" fill="#E2C73F" />
    <path d="M75.3638 21.0142H75.2882C75.2882 21.0142 80.6173 26.7968 82.6205 31.1811C84.6614 35.5276 85.0016 39.2315 84.6236 45.0898C84.3619 48.7776 82.7223 50.8778 81.6375 52.2672C80.9991 53.085 80.5529 53.6565 80.6929 54.1606C81.0709 55.4835 81.1465 57.0709 81.1465 57.0709L81.789 62.8157H93.9213V57.0709H86.022C86.022 57.0709 87.9874 53.8205 88.5921 48.6047C88.6193 48.37 88.6463 48.1405 88.6728 47.9155C89.234 43.1417 89.5538 40.4218 86.7024 33.6C83.7165 26.4567 75.3638 21.0142 75.3638 21.0142Z" fill="#E2C73F" />
    <path d="M95.6598 130.091L36.548 130.091V132.472H95.6598V140.183H113.839V132.472L107.792 132.472V130.091L113.991 130.091V122.381H101.102L83.5276 62.8535H58.2425L80.6929 68.3717L92.485 122.381L95.6598 130.091Z" fill="#E2C73F" />
  </g>
  <g id="wk" fill="none" transform="scale(0.2777777777777778 0.2777777777777778)">
    <path d="M61.8913 10.5449C61.8913 12.2434 62.8728 13.6994 64.293 14.4221C64.1102 14.8306 64.0079 15.2831 64.0079 15.7606C64.0079 17.3417 65.1164 18.6323 66.577 18.9992C66.5651 19.4236 66.3513 19.8685 65.8758 20.3652C65.2443 21.025 64.2692 21.6362 63.1783 22.1646C62.1022 22.6857 60.9853 23.0925 60.13 23.3701C59.7043 23.5083 59.3476 23.6132 59.0989 23.6831C58.9747 23.718 58.8776 23.7441 58.8126 23.7613C58.7801 23.7699 58.7556 23.7762 58.7398 23.7802L58.7227 23.7846L58.7191 23.7855L58.719 23.7855L58.7187 23.7856L58.7186 23.7856L57.9606 23.9744V23.9793C48.0001 26.4472 41.1953 31.1213 39.7961 39.0965L39.7956 39.0997C39.2013 42.5521 40.0041 46.3316 41.228 49.7156C42.1935 52.3849 43.4456 54.8744 44.5728 56.8646H41.1213H40.1213V57.8646V66.1795V67.1795H41.1213H48.7877L39.7021 121.494H30.1606H29.1606V122.494V130.205V131.205H30.1606H35.548V131.548H30.0094H29.0094V132.548V140.258V141.258H30.0094H113.802H114.802V140.258V132.548V131.548H113.802H108.792V131.205H113.953H114.953V130.205V122.494V121.494H113.953H104.608L94.2245 67.1795H103.03H104.03V66.1795V57.8646V56.8646H103.03H98.7847C99.9119 54.8744 101.164 52.3849 102.129 49.7156C103.353 46.3316 104.156 42.5521 103.562 39.0997L103.561 39.0965C102.005 30.2269 93.7763 25.4445 81.9138 23.2272C81.203 22.8299 80.0308 22.1155 79.0049 21.2213C78.0969 20.4299 77.4516 19.6249 77.1973 18.8806C78.4662 18.4016 79.3874 17.2015 79.3874 15.7606C79.3874 15.2831 79.2851 14.8307 79.1022 14.4221C80.5225 13.6994 81.5039 12.2434 81.5039 10.5449C81.5039 8.114 79.4953 6.1811 77.0646 6.1811C76.8044 6.1811 76.549 6.2032 76.3004 6.24566C75.75 4.24351 73.9733 2.74173 71.811 2.74173C69.6335 2.74173 67.8467 4.26424 67.31 6.28783C66.9945 6.21793 66.6667 6.1811 66.3307 6.1811C63.9 6.1811 61.8913 8.114 61.8913 10.5449Z" fill="#FFEF82" stroke="#111111" stroke-width="2" />
    <path fill-rule="evenodd" clip-rule="evenodd" d="M76.1092 18.3891C76.116 18.3755 76.1197 18.3685 76.1197 18.3685L76.0819 18.3307C76.0819 18.3307 76.0913 18.3512 76.1092 18.3891ZM76.1092 18.3891C75.9636 18.6814 74.3804 22.0053 76.8 23.811C78.0441 24.7535 80.2189 25.5174 82.4992 26.3183C84.791 27.1233 87.1895 27.9657 88.8567 29.0646C89.3513 29.3869 89.8965 29.7125 90.4669 30.0531C93.7762 32.0291 97.9331 34.5114 97.9654 39.7984C98.0409 45.9968 96.7181 48.7181 92.7118 53.0646C88.6677 57.4488 86.0976 57.8268 86.0976 57.8268H96.9827C96.9827 57.8268 100.271 52.0819 101.14 49.285L101.145 49.2683C102.014 46.4741 103.104 42.9657 102.501 39.1937C101.896 35.4142 99.0992 30.6898 94.715 28.611C93.1978 27.8786 92.3414 27.4223 91.7386 27.101C90.5995 26.494 90.3659 26.3696 88.2898 25.7764C85.3588 24.9289 84.8034 24.8072 84.4656 24.7332C84.4419 24.728 84.4192 24.7231 84.3969 24.7181C84.0567 24.6425 80.8063 23.6976 80.8063 23.6976C80.8063 23.6976 79.1055 22.7528 78.1606 21.7701C77.302 20.8771 76.2873 18.767 76.1092 18.3891ZM87.3827 66.1795L86.0976 57.8646H103.03V66.1795L93.052 66.1795L103.937 122.457H113.991V130.167L107.906 130.054V132.435L113.839 132.548V140.258H101.896C101.896 140.258 101.215 136.354 100.005 132.472H36.6614V130.091H99.1833C98.7299 128.929 98.2896 128.172 97.8519 127.419C96.6592 125.369 95.4847 123.35 94.1102 113.235C92.2583 99.326 88.4409 71.622 88.4409 71.622L53.1959 66.1795L87.3827 66.1795ZM53.1959 66.1795L52.9512 66.1417V66.1795H53.1959Z" fill="#E2C73F" />
  </g>
  <g id="wn" fill="none" transform="scale(0.2777777777777778 0.2777777777777778)">
    <path d="M62.0698 23.6092C62.0671 23.6139 62.0664 23.614 62.0686 23.6114C62.0692 23.6108 62.0697 23.6103 62.0702 23.6098L62.0698 23.6092ZM62.0698 23.6092L62.0697 23.609C62.0698 23.6089 62.0699 23.6089 62.07 23.6088L62.0698 23.6092ZM31.1021 51.3421L31.0999 51.3442C29.6944 52.6304 28.6126 53.6338 27.8299 54.463C27.0582 55.2806 26.4865 56.0197 26.2032 56.7885C25.8947 57.6258 25.9623 58.3952 26.2393 59.1718C26.4874 59.8674 26.9284 60.63 27.4227 61.4845L27.4631 61.5543C27.6837 61.9359 27.9228 62.3494 28.1787 62.8086C31.1712 68.25 38.0884 70.4923 44.4497 68.652L44.4513 68.6515C45.8524 68.2436 47.6352 67.6516 49.5826 67.005L49.5979 66.9999C53.7481 65.6218 58.67 63.9892 62.629 63.1947C67.3704 63.7114 69.8862 65.4563 71.2194 66.9706C71.9018 67.7457 72.2962 68.4851 72.5183 69.0191C72.592 69.1963 72.6465 69.3505 72.6862 69.4756C72.0097 70.4432 70.9188 71.6552 69.4842 73.0996C67.8825 74.7121 65.9118 76.5564 63.7277 78.6003L63.7262 78.6017C62.1044 80.1193 60.3693 81.743 58.5973 83.4488C56.9775 85.0003 55.3955 86.2963 53.885 87.5333L53.8132 87.5921C50.9271 89.9554 48.2478 92.1492 46.4486 95.4138C44.619 98.7334 43.7507 103.047 44.1946 109.598L44.1947 109.601C44.55 114.669 44.7514 118.487 44.7914 121.419H34.0805H33.0805V122.419V130.129V131.129H34.0805H39.4679V131.51H33.9293H32.9293V132.51V140.22V141.22H33.9293H117.721H118.721V140.22V132.51V131.51H118.684V131.472H117.684H112.75V131.129H117.873H118.873V130.129V122.419V121.419H118.835V121.381H117.835H108.241C107.955 119.901 107.651 118.392 107.345 116.865L107.344 116.86C107.026 115.279 106.705 113.68 106.393 112.066C105.577 107.49 104.709 102.091 104.22 97.4448C103.716 91.1645 104 85.1701 105.837 79.937C105.961 79.5894 106.091 79.244 106.225 78.9002C106.674 77.7743 107.201 76.6868 107.813 75.6425C108.836 73.8948 109.861 71.8949 110.782 69.7054C111.909 67.3898 112.981 64.1831 113.596 60.4934C114.941 53.3905 114.494 45.3974 109.999 37.9119C108.305 34.9581 106.011 32.1321 102.979 29.5781C101.468 28.1892 100.264 27.45 99.9796 27.2832C96.5507 24.7906 92.3988 22.4835 87.4125 20.4297C80.868 17.7341 75.9935 16.0754 72.3727 15.1831C68.7847 14.2988 66.3023 14.1335 64.6135 14.5599C63.7444 14.7794 63.0489 15.1646 62.5382 15.7201C62.0284 16.2748 61.7658 16.9306 61.6465 17.5857C61.4257 18.7989 61.6783 20.1731 61.8738 21.2364C61.8792 21.266 61.8846 21.2954 61.89 21.3246C62.0367 22.1245 62.1445 22.7356 62.1361 23.2015C62.1321 23.4242 62.1008 23.5405 62.0787 23.5913C62.075 23.5998 62.0721 23.6054 62.0701 23.6088C59.8878 24.7482 58.6415 25.3016 57.4729 25.8206L57.4706 25.8217L57.4662 25.8236C56.8365 26.1033 56.2187 26.3776 55.493 26.727C54.8191 27.0504 53.9813 27.7034 53.0741 28.5061C52.143 29.33 51.0598 30.384 49.8814 31.5833C47.5267 33.9795 44.7474 37.0012 41.9719 40.0187L41.9632 40.0281C37.9062 44.4388 33.876 48.819 31.1021 51.3421Z" fill="#FFEF82" stroke="#111111" stroke-width="2" />
    <path d="M71.3844 57.1843C64.6947 57.4488 61.4821 62.1354 61.4821 62.1354L61.5199 62.0976C72.6317 62.778 73.7655 69.6567 73.7655 69.6567C73.7655 69.6567 82.7986 67.1622 82.7986 61.4551C82.7986 55.748 74.2191 44.674 74.2191 44.674C74.2191 44.674 78.0364 56.9197 71.3844 57.1843Z" fill="#E2C73F" />
    <path d="M102.318 30.329C100.681 28.821 99.4285 28.1197 99.4285 28.1197H99.3907C100.438 28.829 101.412 29.5668 102.318 30.329Z" fill="#E2C73F" />
    <path d="M111.674 130.129V130.091H117.835V122.381H107.366C107.366 122.381 103.775 105.449 102.981 94.8661C102.188 84.2835 105.173 77.7071 109.406 70.1858C113.367 63.049 117.632 43.2108 102.318 30.329C106.545 34.2215 113.339 43.4891 107.781 59.9433C104.453 69.7964 100.055 77.5866 96.3192 84.2041C91.3992 92.9184 87.6273 99.5994 88.9592 106.28C90.5049 114.034 90.1595 117.544 89.9839 119.329C89.8932 120.25 89.8479 120.711 90.1309 121.058C90.9624 122.079 93.6458 122.079 97.501 120.907C100.638 119.954 100.772 121.653 100.896 123.236C100.925 123.598 100.953 123.954 101.016 124.271C101.145 124.902 101.567 127.342 102.042 130.129H40.5057V132.51H102.447C103.106 136.403 103.737 140.183 103.737 140.183H117.684V132.472H111.75V130.129H111.674Z" fill="#E2C73F" />
  </g>
  <g id="wp" fill="none" transform="scale(0.2777777777777778 0.2777777777777778)">
    <path d="M94.0477 121.419L82.2611 79.0473H93.3543H94.3543V78.0473V72.0756V71.0756H93.3543H82.9586C86.1194 67.9113 88.0803 63.4622 88.0803 58.5449C88.0803 48.997 80.6689 41.1795 71.4331 41.1795C62.1972 41.1795 54.7858 48.997 54.7858 58.5449C54.7858 63.4622 56.7467 67.9113 59.9075 71.0756H51.2126H50.2126V72.0756V78.0473V79.0473H51.2126H61.3605L50.6424 121.419H36.0189H35.0189V122.419V130.129V131.129H36.0189H40.537V131.51H35.9055H34.9055V132.51V140.22V141.22H35.9055H107.981H108.981V140.22V132.51V131.51H107.981H103.803V131.129H108.094H109.094V130.129V122.419V121.419H108.094H94.0477Z" fill="#FFEF82" stroke="#111111" stroke-width="2" />
    <path d="M83.074 55.748C82.2047 48.1134 74.8347 42.5575 74.8347 42.5575C74.8347 42.5575 78.7654 43.578 80.5795 45.2409C82.4315 46.8661 83.5276 48.1134 84.548 49.5496C85.5685 50.9858 87.1181 54.463 87.1181 58.5071C87.1181 62.4923 85.9436 64.7525 84.4627 67.6024L84.3969 67.7291C83.0784 70.2342 80.7827 71.7331 80.2169 72.0756H93.3166V78.0472H80.9953L78.4204 72.1512H62.8158C62.8158 72.1512 61.115 70.7906 59.7166 69.3165C58.2803 67.8425 57.4866 65.915 57.4866 65.915C57.2695 65.4473 57.8937 65.7472 59.1245 66.3385C60.6789 67.0853 63.2009 68.297 66.2173 69.0142C76.9512 71.5465 84.4347 67.6535 83.074 55.748Z" fill="#E2C73F" />
    <path d="M93.3565 122.419L80.9953 78.0472H58.8851L78.0851 83.6031L84.4347 124.989H93.5852L94.3491 130.129H41.537V132.51H94.703L95.8489 140.22H107.981V132.51H102.803V130.129H108.095V122.419H93.3565Z" fill="#E2C73F" />
  </g>
  <g id="wq" fill="none" transform="scale(0.2777777777777778 0.2777777777777778)">
    <path d="M90.7197 66.9906H103.03H104.03V65.9906V57.6756V56.6756H103.03H93.7091L105.248 34.7997C105.661 34.9159 106.096 34.978 106.545 34.978C109.185 34.978 111.324 32.8381 111.324 30.1984C111.324 27.5588 109.185 25.4189 106.545 25.4189C103.905 25.4189 101.765 27.5588 101.765 30.1984C101.765 30.6374 101.825 31.0633 101.936 31.4682L88.8241 38.2875L89.9597 18.8981C92.2553 18.5488 94.0142 16.5664 94.0142 14.1732C94.0142 11.5336 91.8743 9.39371 89.2346 9.39371C86.595 9.39371 84.4551 11.5336 84.4551 14.1732C84.4551 15.2602 84.8187 16.2629 85.4294 17.0655L71.1881 33.6307L56.9429 17.0311C57.5551 16.228 57.9197 15.224 57.9197 14.1354C57.9197 11.4958 55.7798 9.35591 53.1402 9.35591C50.5005 9.35591 48.3606 11.4958 48.3606 14.1354C48.3606 16.5285 50.1194 18.5108 52.4148 18.8603L53.5506 38.2826L40.4734 31.4415C40.5868 31.0333 40.6473 30.6036 40.6473 30.1606C40.6473 27.521 38.5074 25.3811 35.8677 25.3811C33.2281 25.3811 31.0882 27.521 31.0882 30.1606C31.0882 32.8003 33.2281 34.9402 35.8677 34.9402C36.3155 34.9402 36.7497 34.8783 37.1618 34.7626L48.7055 56.6756H41.1213H40.1213V57.6756V65.9906V66.9906H41.1213H52.314L39.8216 121.268H30.1606H29.1606V122.268V129.978V130.978H30.1606H35.548V131.321H30.0095H29.0095V132.321V140.031V141.031H30.0095H113.802H114.802V140.031V132.321V131.321H113.802H108.792V130.978H113.953H114.953V129.978V122.268V121.268H113.953H104.436L90.7197 66.9906Z" fill="#FFEF82" stroke="#111111" stroke-width="2" />
    <path d="M87.8362 17.6882L91.5024 11.1496V11.1118C96.2268 16.7055 89.3481 17.915 89.3481 17.915L87.7229 39.9874L103.181 31.937L103.196 31.9516C102.921 31.4276 102.765 30.8312 102.765 30.1984C102.765 28.1111 104.458 26.4189 106.545 26.4189C108.632 26.4189 110.324 28.1111 110.324 30.1984C110.324 32.2858 108.632 33.978 106.545 33.978C105.901 33.978 105.295 33.8169 104.764 33.5329L92.0315 57.6756H103.03V65.9528L89.4236 65.9528L103.899 122.23H113.953V129.94H107.868V132.208L113.802 132.321V140.031H101.858C101.858 140.031 101.177 136.127 99.9671 132.246H36.6614V129.865H99.1455C98.6921 128.702 98.2519 127.945 97.8141 127.193C96.6214 125.143 95.4469 123.124 94.0724 113.008C92.2205 99.0992 84.5102 70.7906 84.5102 70.7906L53.1583 65.9528L85.4174 65.9528V57.6756H78.7654L87.8362 17.6882Z" fill="#E2C73F" />
    <path d="M53.1583 65.9528H52.9512L52.9134 65.915L53.1583 65.9528Z" fill="#E2C73F" />
  </g>
  <g id="wr" fill="none" transform="scale(0.2777777777777778 0.2777777777777778)">
    <path d="M36.8864 66.2037L37.0332 67.0284H37.8709H46.2018L39.4349 121.268H29.9716H28.9716V122.268V129.978V130.978H29.9716H35.3591V131.359H29.8205H28.8205V132.359V140.069V141.069H29.8205H113.613H114.613V140.069V132.359V131.359H113.613H108.603V130.978H113.764H114.764V129.978V122.268V121.268H113.764H104.589L97.4591 67.0284H105.978H106.807L106.961 66.2136L115.162 22.7113L115.4 21.4521L114.12 21.5277L94.3157 22.6994L93.3748 22.7551V23.6977V33.3559H83.7716V24.0378V23.0378H82.7716H62.022H61.022V24.0378V33.3559H50.9166L50.8141 24.0646L50.804 23.1504L49.8926 23.0787L30.2013 21.5291L28.9115 21.4276L29.1383 22.7013L36.8864 66.2037Z" fill="#FFEF82" stroke="#111111" stroke-width="2" />
    <path d="M101.442 60.1701C102.274 57.6378 107.792 22.904 107.792 22.904H107.754L114.142 22.526L105.94 66.0284H97.8897C97.8897 66.0284 100.611 62.7024 101.442 60.1701Z" fill="#E2C73F" />
    <path d="M96.3023 66.0284H52.3842L52.3464 66.104L88.063 74.5323C88.063 74.5323 91.9937 99.1748 93.8456 113.083C95.2328 123.473 96.5987 125.635 97.864 127.638C98.2823 128.301 98.6896 128.946 99.0831 129.865H36.4346V132.246H99.9454C101.036 135.826 101.631 140.069 101.631 140.069H113.575V132.359L107.641 132.246L107.679 132.246V129.865L113.726 129.978V122.268H103.672L96.3023 66.0284Z" fill="#E2C73F" />
  </g>
</svg>