<svg xmlns="http://www.w3.org/2000/svg" width="40" height="40" viewbox="0.0 0.0 180.0 180.0">
  <g id="bb" fill="none" transform="scale(0.2222222222222222 0.2222222222222222)">
    <path d="M157.396 168.75H106.379C103.873 168.75 101.785 168.094 100.114 166.781L96.3546 162.305L95.9968 161.769L94.5647 159.442L93.4909 157.472L91.7004 155.503L90.0894 154.787C89.1349 155.026 88.5381 155.265 88.2996 155.503L86.8674 156.935L85.2564 159.083L83.6454 161.769L83.2871 162.305C82.2133 163.738 80.7216 165.229 78.8119 166.781C76.9027 168.094 74.5757 168.75 71.8307 168.75H22.7823L16.875 142.257H57.3311C58.5242 142.257 59.2999 141.839 59.6582 141.004L60.3743 137.782V137.423V136.528L60.5531 135.633C60.7916 134.56 61.1499 133.604 61.6269 132.769C62.2238 131.934 63.2981 131.457 64.8495 131.337H119.268C119.984 131.337 120.521 131.755 120.879 132.59L121.595 134.917V135.992V136.708V137.244V138.319C121.595 139.512 121.714 140.407 121.953 141.004C122.072 141.72 122.55 142.138 123.385 142.257H163.125L157.396 168.75ZM92.5954 87.48L92.7748 84.6157C92.7748 83.4227 92.8941 82.4681 93.1326 81.7521L93.6697 77.0974L94.7436 71.5483L95.2808 69.4001L95.8179 67.2519C96.4142 65.5813 96.8918 64.2088 97.2501 63.135C97.7271 62.0606 98.5028 60.5689 99.5771 58.6598C100.77 56.6308 102.381 54.5425 104.41 52.3945C108.707 53.1105 112.764 55.9746 116.583 60.9868C120.401 65.88 123.624 71.3694 126.249 77.4557L128.576 85.5112L129.471 92.4924C129.471 101.92 128.636 108.543 126.965 112.362C125.533 116.3 123.743 118.986 121.595 120.418C120.64 121.015 119.506 121.432 118.194 121.671L115.509 121.85H115.151H68.2504H67.8926L64.3123 121.671C63.1187 121.671 61.7462 121.253 60.1948 120.418C57.9274 119.224 55.7198 116.599 53.5717 112.541C51.543 108.364 50.5286 101.681 50.5286 92.4924C50.5286 85.2126 52.0203 78.8878 55.0038 73.5176C57.9876 68.1474 61.2096 63.5524 64.6701 59.7336C68.2504 55.9149 71.4724 52.9315 74.3366 50.7833C77.3201 48.5159 78.8715 46.9049 78.9907 45.9501L78.633 43.623L78.0958 41.2959L77.9169 40.7589L77.022 37.3577L76.6637 34.3146C76.6637 31.3311 77.5586 28.6459 79.3491 26.2592C81.1389 23.753 84.1224 22.5 88.2996 22.5C91.044 22.5 93.4313 23.6337 95.4596 25.9012C97.6078 28.0493 98.9207 30.5554 99.3977 33.4195L99.5771 34.4936V35.5676C99.5771 38.5511 98.9803 41.4152 97.7867 44.16L94.0275 52.2154L92.9537 53.8265L92.2376 55.4376L87.9412 63.4927C86.6289 65.9992 85.7334 68.4456 85.2564 70.8322C84.8981 73.0997 84.6 75.0094 84.3615 76.5607C84.1224 77.9929 83.9436 79.1859 83.8243 80.1405V87.48H92.5954Z" fill="url(#bbpaint0_linear_1_94)" />
    <defs>
      <linearGradient id="bbpaint0_linear_1_94" x1="17" y1="77.5" x2="163" y2="77.5" gradientUnits="userSpaceOnUse">
        <stop stop-color="#0F2B56" />
        <stop offset="1" stop-color="#15133C" />
      </linearGradient>
    </defs>
  </g>
  <g id="bk" fill="none" transform="scale(0.2222222222222222 0.2222222222222222)">
    <path d="M33.7341 168.75V168.374V163.669L34.3054 157.835C34.6862 154.07 35.7017 150.683 37.3519 147.672C39.0021 144.535 41.9852 142.779 46.3011 142.402L52.9655 141.838L60.201 141.085L73.9102 139.768L90.0951 139.203C92.8879 139.203 95.9979 139.266 99.4253 139.391C102.98 139.517 106.661 139.768 110.469 140.144C114.785 140.144 119.291 140.458 123.988 141.085C128.685 141.712 132.684 142.214 135.984 142.59C139.284 142.967 141.76 145.1 143.41 148.989C143.791 149.993 144.298 151.624 144.933 153.883C145.568 156.141 145.885 158.587 145.885 161.222L146.076 164.798V168.185V168.75H33.7341ZM137.126 118.125L137.888 120.76L138.459 123.583L138.84 126.029C138.84 127.033 138.522 128.037 137.888 129.04C137.253 129.919 135.984 130.859 134.08 131.863L110.469 129.605L90.0951 128.664L72.5777 129.229L57.9161 130.546L52.0134 131.299L46.3011 131.863C44.7779 130.985 43.5085 129.856 42.4929 128.476C42.1121 127.723 41.7948 126.406 41.5409 124.523L41.7313 122.642C41.7313 121.763 41.8583 121.074 42.1121 120.571L42.3025 119.442L42.6833 118.501L43.2546 115.49L43.6354 112.667C43.6354 110.785 43.1277 109.28 42.1121 108.151C41.3505 106.77 40.2081 105.453 38.6848 104.199L36.0191 101.94L32.9725 99.3054C30.5607 97.1724 28.1488 94.4122 25.737 91.0249C23.579 87.5115 22.5 82.9946 22.5 77.4743C22.5 68.8174 25.4196 61.4149 31.2588 55.2672C37.098 48.994 44.0797 45.8574 52.2038 45.8574C59.3122 45.8574 65.088 47.1747 69.5312 49.8095C73.4659 52.0679 76.8302 54.8908 79.6224 58.2784L80.0038 58.8431C82.0344 61.227 83.5577 63.5479 84.5736 65.8063C85.716 68.0648 86.7949 69.6954 87.8102 70.6995L88.9526 71.8284L90.0951 72.0169L90.8567 71.8284L91.809 70.8874L94.4747 65.9942C95.3634 63.8617 96.7596 61.4779 98.6636 58.8431L99.0444 58.2784C101.583 55.1418 105.137 52.3188 109.707 49.8095C114.277 47.1747 120.814 45.8574 129.319 45.8574C137.316 45.8574 143.981 48.743 149.312 54.5144C154.771 60.1605 157.5 67.8139 157.5 77.4743C157.5 82.242 156.358 86.3196 154.073 89.7075C151.915 92.9694 149.63 95.9175 147.218 98.5522L144.933 100.811L142.838 103.069L138.649 108.903C137.507 110.785 136.936 112.856 136.936 115.114L137.126 118.125ZM60.5818 88.578L61.1528 89.7075L62.6766 92.5301L64.9614 95.1649L67.2463 98.3644C68.0079 99.3679 68.5789 100.434 68.9597 101.564L69.1504 102.505L69.3405 103.258V104.199L69.5312 104.951L70.1021 107.962C70.4829 108.715 71.118 109.092 72.0062 109.092C72.6412 109.092 73.2757 108.715 73.9102 107.962L74.4818 105.14V104.01V102.881C74.4818 102.003 74.3546 101.313 74.1009 100.811L73.5294 98.7407L72.387 96.2944L71.2446 93.8475L69.5312 89.8954L68.3887 85.7554L68.0079 84.6259L66.4847 82.7438C66.1039 82.3674 65.3422 82.0541 64.1998 81.8032C63.5647 81.8032 62.8667 82.1796 62.1051 82.9322L60.9626 85.3785C60.8355 86.0063 60.7089 86.3826 60.5818 86.508V87.4491V88.578ZM119.037 86.508L118.847 85.3785L117.514 82.9322C117.133 82.1796 116.499 81.8032 115.61 81.8032C114.721 81.8032 113.896 82.1166 113.135 82.7438L111.802 84.6259L111.421 85.3785L110.088 89.5191L108.565 93.2827L107.232 96.1059L106.28 98.7407L105.518 100.811L105.328 102.881V104.01V105.14L105.899 107.962C106.28 108.715 106.915 109.092 107.803 109.092C108.565 109.092 109.136 108.653 109.517 107.774L110.279 104.951L110.469 103.822V102.505L110.85 101.564L112.564 98.3644L114.848 95.1649L116.943 92.5301L118.657 89.7075L119.037 88.578L119.228 87.4491L119.037 86.508ZM99.6159 20.0743C102.027 22.2073 103.233 25.1557 103.233 28.9196C103.233 30.9271 102.599 33.75 101.329 37.3885L97.1404 48.8685C96.8867 49.8722 96.5689 50.625 96.1881 51.1269L95.4264 53.197L92.3799 60.1605L89.9049 65.8063L87.2393 59.9721C86.6042 57.9645 86.0968 56.5847 85.716 55.8318C84.9544 54.4517 84.4464 53.5107 84.1927 53.0088L83.4311 50.9387L82.4788 48.8685L78.48 37.9531C77.3376 34.5656 76.7666 31.868 76.7666 29.8606V28.7314L76.9568 27.6022C77.3376 24.9675 78.6071 22.5209 80.7654 20.2625C83.0503 18.0042 86.0968 16.875 89.9049 16.875C94.0939 16.875 97.3305 17.9414 99.6159 20.0743Z" fill="url(#bkpaint0_linear_1_99)" />
    <defs>
      <linearGradient id="bkpaint0_linear_1_99" x1="22" y1="93" x2="157" y2="93" gradientUnits="userSpaceOnUse">
        <stop stop-color="#0F2B56" />
        <stop offset="1" stop-color="#15133C" />
      </linearGradient>
    </defs>
  </g>
  <g id="bn" fill="none" transform="scale(0.2222222222222222 0.2222222222222222)">
    <path d="M42.5748 168.75V168.376V163.707L43.1306 157.917C43.5011 154.181 44.4891 150.819 46.0946 147.831C47.7002 144.717 50.6026 142.974 54.8017 142.601L61.2855 142.04L68.3252 141.293L81.6637 139.985L97.4104 139.425C100.127 139.425 103.153 139.488 106.487 139.612C109.946 139.737 113.527 139.985 117.232 140.36C121.431 140.36 125.816 140.671 130.385 141.293C134.955 141.916 138.845 142.414 142.057 142.787C145.267 143.161 147.676 145.278 149.281 149.138C149.652 150.134 150.146 151.753 150.764 153.995C151.381 156.236 151.69 158.664 151.69 161.279L151.875 164.828V168.19V168.75H42.5748ZM75.1798 95.3449C72.7093 96.4654 70.6719 97.3373 69.066 97.9599C68.6959 98.0843 66.411 98.8312 62.2119 100.201L61.8413 100.388L57.951 101.509L54.2459 102.816C53.3813 103.065 52.3316 103.812 51.0965 105.058L49.0587 108.233L48.6883 108.793L48.503 109.353L46.0946 112.715C45.3536 113.462 44.3039 113.898 42.9454 114.023L40.9075 113.836L38.8698 113.462C36.3997 112.715 33.9914 111.408 31.6448 109.54C29.2983 107.673 28.125 105.618 28.125 103.376C28.125 98.0218 29.4835 92.979 32.2006 88.2473C34.7942 83.2663 37.8817 79.0948 41.4633 75.7328C42.9454 74.2388 44.4274 72.495 45.9095 70.5026C46.6504 69.507 47.515 68.2616 48.503 66.7671C50.479 63.1564 51.467 59.2959 51.467 55.1868C51.467 53.6925 51.7758 52.4473 52.3933 51.4511L55.1721 48.2759L57.5803 46.4081L60.174 43.9799L63.6936 40.0575C64.6819 38.6877 65.6696 36.82 66.6579 34.454L67.2137 32.3994L67.7694 30.158V29.7845L69.066 24.7414C69.6836 23.2472 70.857 22.5 72.5861 22.5L76.1057 26.0489L79.6258 29.9713L80.1816 30.9052L80.9224 31.8391C83.1454 34.8276 85.6159 37.5671 88.3327 40.0575C91.1734 42.5479 94.5697 43.7931 98.5219 43.7931C100.003 43.7931 102.844 44.5403 107.043 46.0345C111.242 47.4042 115.627 49.8946 120.197 53.5057C125.754 57.8638 131.065 64.4012 136.128 73.1177C138.598 77.3516 140.451 82.2077 141.686 87.687C142.921 93.0414 143.539 99.2672 143.539 106.365V107.673V108.793V112.155C143.539 113.649 143.662 114.77 143.909 115.517V127.472C143.909 130.584 142.859 132.141 140.759 132.141H140.574H140.389H139.278L138.351 131.954L116.492 129.712L97.5954 128.966L82.0339 129.526L68.6959 130.834L61.6562 131.581L55.1721 132.141C54.3076 132.141 53.6901 132.017 53.3196 131.767C52.9491 131.394 52.7639 130.895 52.7639 130.273L53.3196 128.218L54.9869 125.603L57.2102 123.362L59.8033 121.121L60.3591 120.747L60.9148 120.187L67.0286 117.385C68.7577 116.763 70.0543 116.264 70.9189 115.891C71.7834 115.517 73.1419 114.832 74.9942 113.836C79.0701 111.968 82.7753 109.54 86.1098 106.552C89.4443 103.563 91.1115 99.5788 91.1115 94.5979L90.9264 92.9166L90.7408 90.8623C90.4939 89.9904 90.3088 89.3053 90.1851 88.8075C89.9381 88.1848 89.6293 87.4378 89.2592 86.5659C88.8885 85.5697 88.3946 84.8228 87.777 84.3249H87.2212L86.6655 84.6984L86.1098 85.2587C83.1454 90.2396 79.5021 93.6017 75.1798 95.3449Z" fill="url(#bnpaint0_linear_1_104)" />
    <defs>
      <linearGradient id="bnpaint0_linear_1_104" x1="28" y1="96" x2="152" y2="96" gradientUnits="userSpaceOnUse">
        <stop stop-color="#0F2B56" />
        <stop offset="1" stop-color="#15133C" />
      </linearGradient>
    </defs>
  </g>
  <g id="bp" fill="none" transform="scale(0.2222222222222222 0.2222222222222222)">
    <path d="M34.6118 168.75L33.9654 164.446L33.75 160.356C33.75 154.33 34.8991 149.309 37.1975 145.291C38.4903 142.996 39.7114 141.131 40.8606 139.696C42.1534 138.117 43.6617 136.539 45.3855 134.961L46.6783 133.885L48.1866 132.808C51.0596 130.513 53.8608 128.72 56.5903 127.428C59.463 126.137 61.0431 125.205 61.3305 124.63L61.1151 123.124V121.402L61.7614 115.376L63.7009 109.35C65.8558 104.615 68.8005 100.598 72.5355 97.2979C76.4139 93.8542 80.5798 91.7021 85.0326 90.8415L86.1103 90.6261H87.1875L88.6956 90.8415H90.2042C94.0826 91.7021 97.8896 93.8542 101.624 97.2979C105.359 100.741 108.304 104.759 110.459 109.35L111.967 113.87L112.829 118.389L113.044 119.896V121.402V123.124L112.829 124.63L117.354 127.428C119.94 128.576 123.028 130.513 126.619 133.239L127.696 134.1L128.989 134.961C131.862 137.4 134.52 140.772 136.962 145.076C139.404 149.38 140.625 154.546 140.625 160.572L140.41 164.661L139.763 168.75H34.6118ZM72.5355 51.0261C76.5574 47.0087 81.4416 45 87.1875 45C92.79 45 97.6022 47.0087 101.624 51.0261C105.646 55.0435 107.657 59.85 107.657 65.4457C107.657 71.0415 105.646 75.8481 101.624 79.8654C97.6022 83.8828 92.79 85.8915 87.1875 85.8915C81.585 85.8915 76.7728 83.9542 72.7509 80.0803C68.7285 76.0629 66.7176 71.1849 66.7176 65.4457C66.7176 59.9934 68.6565 55.187 72.5355 51.0261Z" fill="url(#bppaint0_linear_1_109)" />
    <defs>
      <linearGradient id="bppaint0_linear_1_109" x1="34" y1="107" x2="141" y2="107" gradientUnits="userSpaceOnUse">
        <stop stop-color="#0F2B56" />
        <stop offset="1" stop-color="#15133C" />
      </linearGradient>
    </defs>
  </g>
  <g id="bq" fill="none" transform="scale(0.2222222222222222 0.2222222222222222)">
    <path d="M37.2228 168.75V168.362V163.326C37.2228 160.743 37.3439 158.225 37.5862 155.771C37.9495 153.189 38.858 150.283 40.3113 147.055C41.7648 143.826 44.2477 142.018 47.7601 141.631L54.1188 141.05L61.0223 140.275L74.1032 138.919L89.5461 138.338C92.2106 138.338 95.1778 138.403 98.4482 138.531C101.839 138.661 105.352 138.919 108.986 139.307C113.103 139.307 117.403 139.629 121.884 140.275C126.366 140.92 130.181 141.437 133.33 141.824C136.479 142.212 138.841 144.407 140.415 148.411C140.779 149.444 141.263 151.122 141.869 153.447C142.474 155.771 142.777 158.29 142.777 161.002L142.959 164.682V168.169V168.75H37.2228ZM140.052 68.6025L137.872 64.9221L137.145 60.0795C137.145 56.5926 138.417 53.4288 140.96 50.5878C143.504 47.7467 146.532 46.3261 150.044 46.3261C153.314 46.3261 156.282 47.7467 158.946 50.5878C161.732 53.2997 163.125 56.4638 163.125 60.0795C163.125 63.6953 161.974 66.7946 159.673 69.3776C157.493 71.8313 154.768 73.3809 151.498 74.0267L131.876 130.783L109.167 128.459L89.9089 127.49L74.4666 128.071L61.3856 129.427L54.4821 130.202L48.1234 130.783L28.8657 73.8326C25.8377 73.8326 23.052 72.477 20.5085 69.7646C18.0862 66.924 16.875 63.6953 16.875 60.0795C16.875 56.5926 18.1468 53.4288 20.6902 50.5878C23.3548 47.6175 26.4433 46.1325 29.9558 46.1325C33.3471 46.1325 36.3144 47.553 38.8579 50.394C41.5225 53.106 42.8548 56.3344 42.8548 60.0795V60.6606L42.1281 63.7599C41.7647 65.0514 40.9775 66.6011 39.7663 68.409L58.4792 91.0727L66.2912 50.7815C63.7476 50.7815 61.3856 49.4255 59.2059 46.7136C57.1466 43.8725 56.1172 40.7086 56.1172 37.2219C56.1172 33.0894 57.51 29.6026 60.2961 26.7616C63.0816 23.9205 66.2912 22.5 69.9249 22.5C73.5581 22.5 76.7678 23.9205 79.5538 26.7616C82.3393 29.4735 83.7321 32.9602 83.7321 37.2219L83.5504 38.5778V39.9338C83.187 41.6126 82.521 43.2914 81.5518 44.9702C80.5832 46.5199 79.1904 47.8758 77.3736 49.0381L90.2723 88.9419L102.99 49.0381C101.415 47.7467 100.083 46.0679 98.9933 44.0017C98.0241 41.8063 97.5398 39.5464 97.5398 37.2219C97.5398 33.0894 98.9325 29.6026 101.718 26.7616C104.504 23.9205 107.714 22.5 111.347 22.5C114.981 22.5 118.19 23.9205 120.976 26.7616C123.762 29.4735 125.155 32.9602 125.155 37.2219C125.155 40.7086 124.307 43.5497 122.611 45.745C120.916 47.9404 118.614 49.6192 115.707 50.7815L122.066 91.0727L140.052 68.6025Z" fill="url(#bqpaint0_linear_1_114)" />
    <defs>
      <linearGradient id="bqpaint0_linear_1_114" x1="17" y1="96" x2="163" y2="96" gradientUnits="userSpaceOnUse">
        <stop stop-color="#0F2B56" />
        <stop offset="1" stop-color="#15133C" />
      </linearGradient>
    </defs>
  </g>
  <g id="br" fill="none" transform="scale(0.2222222222222222 0.2222222222222222)">
    <path d="M33.75 168.75V168.374V163.666L34.322 157.83C34.7034 154.064 35.7203 150.675 37.3728 147.662C39.0254 144.524 42.0127 142.767 46.3348 142.39L53.0084 141.825L60.6358 141.072L74.7456 139.754L91.1441 139.19C94.068 139.19 97.182 139.252 100.487 139.377C103.793 139.503 107.288 139.754 110.974 140.131C115.042 140.131 119.428 140.444 124.131 141.072C128.835 141.7 132.839 142.202 136.144 142.579C139.449 142.955 141.928 145.089 143.58 148.98C143.962 149.984 144.47 151.616 145.106 153.876C145.742 156.135 146.059 158.583 146.059 161.219L146.25 164.796V168.185V168.75H33.75ZM56.4407 87.5993C59.6188 86.7206 64.449 85.905 70.9324 85.1518C77.4152 84.3986 84.1528 84.0217 91.1441 84.0217C97.8812 84.0217 104.492 84.3986 110.974 85.1518C117.458 85.7796 122.733 86.5952 126.801 87.5993L133.284 131.846L110.593 129.587C107.669 129.587 103.856 129.461 99.1524 129.21C94.5765 128.834 91.9069 128.645 91.1441 128.645L74.5549 129.21L60.8265 130.528L54.3432 131.281L49.1949 131.846L56.4407 87.5993ZM75.699 55.7793L79.3221 34.6915H80.6569L82.1824 34.3149L86.5676 33.9383L91.1441 33.75L94.9579 33.9383L98.7711 34.1266L100.678 34.5031L102.585 34.6915L105.827 55.7793H115.742L122.224 37.5157L126.038 38.0806L130.042 38.6454L133.856 39.7751L137.86 41.4697L136.716 59.9214C136.335 63.5619 135.318 66.8256 133.665 69.7123C132.14 72.4736 129.851 74.9841 126.801 77.2436L121.843 76.6789L116.886 75.9257L105.254 74.6078L91.1441 73.8546C88.7287 73.8546 86.1227 73.9176 83.3265 74.043C80.6569 74.1684 77.9237 74.4193 75.1269 74.7962C72.8392 74.7962 70.1696 75.0471 67.1186 75.5494C64.1948 75.9257 60.6358 76.4904 56.4407 77.2436C53.0084 75.4864 50.5297 73.3522 49.0042 70.8418C47.6059 68.3314 46.5889 65.4446 45.9534 62.181L44.0466 41.4697L48.2415 39.7751L53.0084 38.4571L56.6314 37.8923L60.0638 37.5157L66.5466 55.7793H75.699Z" fill="url(#brpaint0_linear_1_119)" />
    <defs>
      <linearGradient id="brpaint0_linear_1_119" x1="34" y1="101" x2="146" y2="101" gradientUnits="userSpaceOnUse">
        <stop stop-color="#0F2B56" />
        <stop offset="1" stop-color="#15133C" />
      </linearGradient>
    </defs>
  </g>
  <g id="wb" fill="none" transform="scale(0.2222222222222222 0.2222222222222222)">
    <path d="M162.944 171.185H107.488C105.455 171.185 103.613 170.629 101.962 169.52C100.31 168.41 98.8487 167.054 97.5786 165.452L95.8635 163.418L94.3386 161.568L92.8142 160.458C92.4328 160.089 91.8613 159.904 91.0991 159.904L89.9556 160.089L89.1934 160.458C88.5583 160.828 87.732 161.568 86.7161 162.678L84.0476 165.452C82.7775 166.931 81.0624 168.287 78.9024 169.52C76.8696 170.629 74.0745 171.185 70.5172 171.185H19.254L11.25 134.198H61.5606H62.3228H63.2756L65.5627 134.013C65.9436 133.89 66.2614 133.52 66.5156 132.904C66.5156 131.918 65.5628 130.561 63.657 128.835L57.5584 121.993C55.1447 119.034 53.0485 115.52 51.2698 111.452C49.4911 107.384 48.6018 102.452 48.6018 96.6572C48.6018 89.3835 49.9358 83.1572 52.6038 77.9794C55.2718 72.6778 58.3211 68.1165 61.7512 64.2943C65.1814 60.3489 68.2307 57.267 70.8986 55.0478C73.6937 52.8287 75.1545 51.2876 75.2816 50.4245L74.9003 48.7601L74.3287 46.1711L73.5666 43.0273L73.3759 38.7739C73.3759 34.7054 75.2181 31.0068 78.9024 27.678C82.5868 24.226 86.6526 22.5 91.0991 22.5H92.052H93.0049C96.6893 22.8698 100.183 24.7808 103.486 28.2328C106.916 31.6849 108.632 35.8766 108.632 40.8081L108.441 43.3972C108.441 44.3835 108.314 45.1232 108.06 45.6163L107.297 47.6506L106.154 49.8697L109.965 53.0135L113.586 56.1574C120.193 61.9521 125.148 67.9928 128.451 74.2804C131.881 80.568 133.596 88.0886 133.596 96.8423C133.596 101.527 132.643 105.904 130.738 109.972C128.959 113.918 126.926 117.37 124.639 120.328L118.351 128.095C116.826 129.945 115.937 131.547 115.683 132.904C116.191 133.643 116.572 134.013 116.826 134.013L120.066 134.198H121.019H170.948L162.944 171.185ZM154.559 147.328H113.205C109.902 147.328 106.98 146.28 104.439 144.185C101.898 141.965 100.627 139.314 100.627 136.232L100.818 134.383L101.39 132.349C102.152 130.376 103.359 128.219 105.011 125.876L110.347 119.034C111.109 118.047 112.189 116.507 113.586 114.411C114.603 112.931 115.746 111.143 117.016 109.047C119.049 105.349 120.066 101.342 120.066 97.0273C120.066 89.1366 118.478 82.0479 115.301 75.7603C112.252 69.4727 107.361 64.5407 100.627 60.9654C97.3243 67.7464 95.2914 74.5273 94.5293 81.3083L93.5764 97.0273V98.5067V99.6159H80.8082V98.3216C80.8082 93.5134 80.8718 90 80.9989 87.7804C81.2526 85.4381 81.8246 82.5407 82.7139 79.0886C84.4926 72.801 86.4619 67.1299 88.6219 62.0753L93.9577 50.2396C95.355 47.0341 96.1807 44.8766 96.435 43.767V42.8424C96.435 40.6232 95.9271 38.7123 94.9106 37.1095C94.1484 35.3835 92.6235 34.5205 90.3369 34.5205H89.3841C88.2405 34.6438 87.0334 35.3219 85.7633 36.5547C84.4926 37.7876 83.8575 39.3287 83.8575 41.178L84.0476 44.6917L84.8104 47.8355V48.5753L85.0005 49.13L85.3819 51.5341L85.5726 53.9382C85.5726 55.0478 85.3183 56.0341 84.8104 56.8969L82.7139 59.4861L78.5216 63C76.8696 64.2324 75.3452 65.5886 73.9479 67.0686C71.0258 69.7804 68.2942 73.6644 65.7529 78.7191C63.3392 83.7737 62.1321 90.6778 62.1321 99.4314C62.1321 103.499 63.0849 107.198 64.9907 110.527C66.8964 113.732 69.12 116.815 71.6608 119.774L75.0909 124.212L78.3309 128.465L80.2367 132.349L80.9989 136.418C80.9989 140.116 79.7917 142.89 77.3781 144.739C75.0909 146.465 72.2323 147.328 68.8022 147.328H27.6391L29.9259 158.054H72.9951C75.1545 158.054 76.9967 157.499 78.5216 156.39L82.3326 152.322L82.9046 151.766L86.3348 148.253C87.4783 147.143 89.0663 146.589 91.0991 146.589C92.3693 146.589 93.7035 147.143 95.1007 148.253L98.9123 151.582L99.4843 152.322L103.677 156.39C105.074 157.499 106.599 158.054 108.25 158.054H152.081L154.559 147.328Z" fill="url(#wbpaint0_linear_1_96)" />
    <path d="M154.559 147.328H113.205C109.902 147.328 106.98 146.28 104.439 144.184C101.898 141.965 100.627 139.314 100.627 136.232L100.818 134.383L101.39 132.349C102.152 130.376 103.359 128.219 105.01 125.876L110.347 119.034C111.109 118.047 112.189 116.507 113.586 114.411C114.603 112.931 115.746 111.143 117.016 109.047C119.049 105.349 120.066 101.342 120.066 97.0273C120.066 89.1366 118.478 82.0479 115.301 75.7603C112.253 69.4727 107.361 64.5407 100.627 60.9654C97.3243 67.7464 95.2914 74.5273 94.5293 81.3083L93.5764 97.0273V98.5067V99.6159H80.8082V98.3216C80.8082 93.5134 80.8718 90 80.9989 87.7804C81.2526 85.4381 81.8246 82.5407 82.7139 79.0886C84.4926 72.801 86.4619 67.1299 88.6213 62.0752L93.9578 50.2397C95.355 47.0342 96.1808 44.8767 96.435 43.7671V42.8424C96.435 40.6233 95.9265 38.7123 94.9106 37.1096C94.1479 35.3836 92.6235 34.5206 90.3369 34.5206H89.3841C88.2405 34.6439 87.0334 35.3219 85.7633 36.5548C84.4926 37.7877 83.8575 39.3288 83.8575 41.1781L84.0476 44.6917L84.8104 47.8356V48.5753L85.0005 49.1301L85.3819 51.5342L85.5726 53.9383C85.5726 55.0479 85.3183 56.0342 84.8104 56.8969L82.7139 59.4861L78.5211 63C76.8696 64.2324 75.3452 65.5886 73.9474 67.0686C71.0258 69.7804 68.2943 73.6644 65.7529 78.7191C63.3392 83.7737 62.1321 90.6778 62.1321 99.4314C62.1321 103.499 63.0849 107.198 64.9907 110.527C66.8964 113.732 69.12 116.815 71.6608 119.774L75.0909 124.212L78.3309 128.465L80.2367 132.349L80.9989 136.418C80.9989 140.116 79.7918 142.89 77.3781 144.739C75.0909 146.465 72.2323 147.328 68.8022 147.328H27.639L29.9259 158.054H72.9945C75.1545 158.054 76.9967 157.499 78.5211 156.39L82.3326 152.322L82.9046 151.766L86.3348 148.253C87.4783 147.143 89.0663 146.589 91.0991 146.589C92.3693 146.589 93.7035 147.143 95.1008 148.253L98.9123 151.582L99.4843 152.322L103.677 156.39C105.074 157.499 106.599 158.054 108.25 158.054H152.081L154.559 147.328Z" fill="#F5F5F5" />
    <defs>
      <linearGradient id="wbpaint0_linear_1_96" x1="11" y1="97" x2="171" y2="97" gradientUnits="userSpaceOnUse">
        <stop stop-color="#0F2B56" />
        <stop offset="1" stop-color="#15133C" />
      </linearGradient>
    </defs>
  </g>
  <g id="wk" fill="none" transform="scale(0.2222222222222222 0.2222222222222222)">
    <path d="M29.3666 168.75C29.3666 163.146 29.4297 159.285 29.5559 157.168C29.8082 155.051 30.2498 152.373 30.8807 149.135C32.0163 143.407 35.6755 138.113 41.8582 133.256C41.8582 131.513 41.7951 130.143 41.6689 129.147C41.5427 128.026 41.1642 126.843 40.5333 125.597C39.5239 123.231 38.1359 120.989 36.3695 118.872L32.9627 115.136L29.3666 110.839C26.7168 107.726 24.004 103.803 21.2281 99.0703C19.9663 96.7044 18.8939 94.0888 18.0106 91.2246C17.2535 88.3603 16.875 85.3093 16.875 82.071V79.6427L17.0643 77.2138C18.0737 70.1151 21.0388 63.7014 25.9598 57.9729C30.8807 52.244 37.1265 49.3796 44.6972 49.3796C52.2678 49.3796 58.3245 50.9986 62.8667 54.2366C67.5354 57.2254 71.4471 60.7129 74.6016 64.6976C77.2509 68.0602 79.5853 71.6096 81.6041 75.3458C83.2444 78.3349 84.8216 79.8919 86.3359 80.0162C87.219 80.0162 88.4177 78.4592 89.9319 75.3458C91.5722 72.108 93.9066 68.5586 96.9345 64.6976C99.963 60.8372 103.875 57.3502 108.669 54.2366C113.464 50.9986 119.773 49.3796 127.596 49.3796C137.816 49.3796 145.324 52.7421 150.119 59.4675C155.04 66.0679 157.5 74.1004 157.5 83.5656C157.5 88.7963 156.238 93.5286 153.715 97.7631C152.327 100.129 151.065 102.184 149.929 103.927C148.794 105.546 147.279 107.477 145.387 109.718L139.709 117.004L135.356 123.729L133.842 127.652L133.274 131.575V132.509L133.463 133.63C139.646 137.864 143.242 143.032 144.251 149.135C145.387 155.238 145.955 161.776 145.955 168.75H29.3666ZM131.949 155.487C131.949 150.879 130.246 147.641 126.839 145.772C123.558 143.904 119.016 142.41 113.212 141.289L107.912 140.542L99.5844 139.981C98.3227 139.981 97.3766 139.981 96.7455 139.981C95.6098 139.981 94.0326 139.857 92.0137 139.608L86.7144 139.421L81.6041 139.608L73.0873 140.168C70.5634 140.168 68.5446 140.293 67.0309 140.542L62.1096 141.103L60.5953 141.289L59.6492 141.476C55.4854 141.974 51.7 143.22 48.2932 145.212C45.0126 147.205 43.3723 150.63 43.3723 155.487H131.949ZM82.7398 94.0269L79.5223 91.0378L75.3581 85.6204L70.8159 78.8951C67.7874 74.5363 64.2549 70.8002 60.2173 67.6868C56.1794 64.3241 50.943 62.6428 44.5079 62.6428C41.3535 62.6428 38.8299 63.5147 36.9372 65.2584C35.0446 67.0016 33.4673 69.1189 32.2056 71.6096L30.6915 76.4668L30.3129 79.8294C30.3129 85.5579 31.5116 90.4776 33.909 94.5872C36.3063 98.5725 39.2084 102.682 42.6152 106.917L46.7791 112.147L50.7537 117.378L53.5927 122.982C54.3498 124.725 54.7283 126.593 54.7283 128.586C58.0089 127.964 60.6589 127.528 62.6777 127.279C64.8225 126.905 67.1569 126.718 69.6802 126.718L85.3897 126.157L93.528 126.345L102.045 126.905C105.325 126.905 108.417 127.154 111.319 127.652C112.96 127.652 114.284 127.715 115.293 127.839C116.303 127.964 117.943 128.213 120.215 128.586C120.215 125.473 120.972 122.546 122.485 119.806C124 116.942 125.703 114.326 127.596 111.961L129.867 109.158L132.139 106.356C135.167 102.745 137.879 98.8836 140.277 94.7739C142.8 90.5394 144.062 85.6204 144.062 80.0162C144.062 73.9136 142.296 69.4924 138.763 66.753C135.229 64.0131 130.624 62.6428 124.946 62.6428C118.763 62.6428 113.716 64.3241 109.805 67.6868C105.893 71.0494 102.613 74.7855 99.963 78.8951L95.9884 85.2469L92.5813 90.4776C91.8248 91.8472 90.8781 92.9683 89.7424 93.8402C88.6072 94.5872 87.4716 94.9607 86.3359 94.9607C85.0742 94.9607 83.8755 94.6496 82.7398 94.0269ZM96.5559 20.4244C99.2059 22.6661 100.531 25.5927 100.531 29.2043C100.531 30.5743 100.026 33.065 99.0169 36.6767C98.0072 40.1637 96.6195 43.7754 94.8527 47.5115L93.9066 50.1268L92.7709 52.7421L89.1748 60.7748L86.3359 66.0054C85.4528 64.8849 84.5061 63.2655 83.4969 61.1488L80.2794 53.4894L78.9542 50.5005L77.8191 47.3247L74.223 36.6767C74.0964 36.0539 73.8444 34.8086 73.4659 32.9405C73.0873 30.9479 72.8347 29.7025 72.7087 29.2043C72.7087 25.9664 74.0334 23.0397 76.6834 20.4244C79.4593 18.0581 82.9288 16.875 87.093 16.875C90.8781 16.875 94.0326 18.0581 96.5559 20.4244ZM83.1184 28.8307L82.3613 32.7537C82.3613 34.2481 82.7398 36.3031 83.4969 38.9184L86.1463 47.5115L88.9853 38.9184C89.7424 36.4276 90.1209 34.3727 90.1209 32.7537C90.1209 30.7611 89.8059 29.4534 89.1748 28.8307C88.7963 28.0835 87.8501 27.7099 86.3359 27.7099C84.9476 27.7099 83.8755 28.0835 83.1184 28.8307Z" fill="url(#wkpaint0_linear_1_101)" />
    <path d="M131.949 155.487C131.949 150.879 130.245 147.64 126.839 145.772C123.558 143.904 119.015 142.41 113.212 141.289L107.912 140.542L99.5844 139.981C98.3222 139.981 97.3761 139.981 96.7449 139.981C95.6098 139.981 94.0326 139.857 92.0137 139.608L86.7139 139.421L81.6041 139.608L73.0867 140.168C70.5634 140.168 68.5446 140.293 67.0303 140.542L62.1096 141.103L60.5953 141.289L59.6492 141.476C55.4851 141.974 51.6998 143.22 48.293 145.212C45.0123 147.205 43.372 150.63 43.372 155.487H131.949ZM82.7392 94.0269L79.5217 91.0378L75.3581 85.6204L70.8159 78.8951C67.7874 74.5363 64.2544 70.8002 60.2167 67.6868C56.1791 64.3241 50.9427 62.6428 44.5076 62.6428C41.3532 62.6428 38.8296 63.5147 36.9369 65.2584C35.0443 67.0016 33.4671 69.1189 32.2053 71.6096L30.6912 76.4668L30.3127 79.8294C30.3127 85.5579 31.5114 90.4776 33.9087 94.5872C36.3061 98.5725 39.2082 102.682 42.615 106.917L46.7788 112.147L50.7534 117.378L53.5924 122.982C54.3495 124.725 54.728 126.593 54.728 128.586C58.0084 127.964 60.6583 127.528 62.6771 127.279C64.8225 126.905 67.1563 126.718 69.6802 126.718L85.3892 126.158L93.5274 126.345L102.045 126.905C105.325 126.905 108.417 127.154 111.319 127.652C112.959 127.652 114.284 127.714 115.293 127.839C116.302 127.964 117.943 128.213 120.214 128.586C120.214 125.473 120.971 122.546 122.485 119.806C124 116.942 125.703 114.326 127.596 111.961L129.867 109.158L132.138 106.356C135.166 102.745 137.879 98.8836 140.276 94.7739C142.8 90.54 144.062 85.6204 144.062 80.0162C144.062 73.9136 142.295 69.4929 138.763 66.753C135.229 64.0131 130.624 62.6428 124.946 62.6428C118.763 62.6428 113.716 64.3241 109.804 67.6868C105.893 71.0494 102.612 74.7855 99.963 78.8951L95.9884 85.2469L92.5813 90.4776C91.8242 91.8472 90.8781 92.9683 89.7424 93.8402C88.6067 94.5872 87.471 94.9607 86.3353 94.9607C85.0736 94.9607 83.8749 94.6496 82.7392 94.0269ZM83.1178 28.8308L82.3607 32.7538C82.3607 34.2482 82.7392 36.3031 83.4964 38.9184L86.1463 47.5116L88.9852 38.9184C89.7424 36.4276 90.1209 34.3727 90.1209 32.7538C90.1209 30.7611 89.8054 29.4535 89.1742 28.8308C88.7962 28.0835 87.8496 27.7099 86.3353 27.7099C84.9476 27.7099 83.8749 28.0835 83.1178 28.8308Z" fill="#F5F5F5" />
    <defs>
      <linearGradient id="wkpaint0_linear_1_101" x1="17" y1="93" x2="158" y2="93" gradientUnits="userSpaceOnUse">
        <stop stop-color="#0F2B56" />
        <stop offset="1" stop-color="#15133C" />
      </linearGradient>
    </defs>
  </g>
  <g id="wn" fill="none" transform="scale(0.2222222222222222 0.2222222222222222)">
    <path d="M40.4637 168.75V165.396L40.6451 162.043C40.6451 159.062 41.0081 156.143 41.7338 153.287C42.5806 150.306 43.7903 147.263 45.3629 144.158C47.9032 138.569 52.9234 134.283 60.4232 131.303C60.4232 127.577 61.9959 124.285 65.1409 121.429L75.6653 113.604L76.7542 112.858L77.8427 112.113L86.9153 105.22C89.5764 102.86 90.9073 100.127 90.9073 97.0222L90.3628 94.2278C90 93.4824 89.0325 93.0476 87.4597 92.9233L85.8268 93.4824L84.5567 94.7869L83.1049 96.6499L81.8347 98.5129L79.6573 101.121L76.9354 103.17C75.8469 103.667 74.7579 104.164 73.6695 104.661C73.4276 104.785 72.2784 105.158 70.2219 105.779L64.4153 107.642C62.4797 108.138 60.8467 108.822 59.5159 109.691C58.3065 110.436 57.5809 111.492 57.3384 112.858C57.2175 114.1 57.0966 114.783 56.9756 114.907L56.4317 116.026C55.4637 117.019 53.7702 118.199 51.3508 119.566C49.0524 120.559 46.633 121.056 44.0927 121.056C39.375 121.056 35.625 119.254 32.8427 115.653C30.0605 112.051 28.4879 108.076 28.125 103.729V102.611C28.125 97.8919 29.2137 93.5443 31.3911 89.5703C32.6008 87.3343 33.75 85.4094 34.8387 83.7945C35.9274 82.0558 37.2581 80.2547 38.8307 78.3917L41.9153 74.4795L44.8185 70.3806C45.7863 69.0143 46.3911 68.0827 46.6331 67.5861C46.996 66.8407 47.4193 65.8474 47.9032 64.6048C48.508 63.3628 48.9314 62.3076 49.1734 61.4379C49.4153 60.444 49.5363 59.2644 49.5363 57.8981C49.5363 55.9108 50.2016 54.2341 51.5323 52.8679L56.6128 48.2102L57.3384 47.6513L58.2458 47.0923L63.8708 42.0621C65.8063 40.0749 66.7744 38.0255 66.7744 35.914L67.1372 33.3057C67.1372 31.9395 67.2581 30.5732 67.5 29.207C67.8628 27.8408 68.4073 26.4745 69.1329 25.1083C69.9801 23.7421 71.2502 22.8726 72.9433 22.5C74.5161 23.3694 76.149 24.7978 77.8427 26.785L83.1049 32.9331C84.9195 35.5414 86.8551 37.9012 88.911 40.0128C91.0884 42 93.3266 43.3041 95.625 43.9252C95.9878 44.0494 96.9559 44.3599 98.5281 44.8567C100.222 45.2293 102.157 45.7882 104.335 46.5334C109.052 47.8997 114.133 50.57 119.577 54.5446C125.141 58.3948 130.464 64.2324 135.544 72.0574C140.625 79.758 143.165 90.1288 143.165 103.17C143.165 105.779 143.105 108.201 142.984 110.436C142.863 112.672 142.621 114.783 142.258 116.77L140.081 127.577L139.355 129.626L138.81 131.675C145.343 136.022 149.153 141.052 150.242 146.766C151.33 152.479 151.875 158.752 151.875 165.583V167.259V168.75H40.4637ZM138.448 155.522C138.448 151.423 136.815 148.443 133.548 146.58C131.976 145.586 130.343 144.779 128.649 144.158C126.956 143.537 124.536 142.729 121.391 141.736L120.847 141.549L117.036 140.618L113.77 140.059L105.423 139.5H98.3469H96.7134H95.2622H94.536H93.8104L86.7341 139.686L77.2982 140.245L73.3067 140.804L69.6774 141.549C65.4435 142.667 61.7541 144.22 58.6091 146.207C55.4637 148.07 53.8911 151.175 53.8911 155.522H138.448ZM121.573 74.8519C115.766 67.0269 109.355 61.2517 102.338 57.5252C100.161 56.2832 97.8632 55.2898 95.4433 54.5446C93.024 53.7994 90.6654 53.4268 88.3671 53.4268C87.6409 53.4268 86.7336 52.8679 85.6451 51.75L82.5604 48.0239L82.1976 47.6513L78.75 43.1799C77.7825 42.1863 76.8752 41.5653 76.0281 41.3169L75.3024 41.6895C74.9396 44.2978 74.0925 46.5334 72.7622 48.3965C71.4313 50.2595 69.9801 51.8742 68.4073 53.2405L63.6896 56.9666C62.4797 57.8363 61.6933 58.8296 61.3305 59.9473C60.1211 64.2943 58.7902 68.0209 57.3384 71.1259L52.9838 79.5094C50.9274 82.7387 48.9314 85.5332 46.9959 87.8934C45.1814 90.1288 43.7903 92.1786 42.8226 94.0416L41.371 97.0222L41.008 99.8167V100.934L41.1895 102.053C41.4314 103.667 41.9153 105.033 42.6411 106.151C43.3669 107.269 44.4556 107.828 45.9073 107.828L47.5403 107.642L48.8105 106.896L50.2621 105.406L52.621 102.798L52.9838 102.425L53.7096 101.867L56.7945 100.003L60.7866 98.1399L66.5927 95.9046L69.8591 94.9731C70.7057 94.8487 71.2502 94.7244 71.4921 94.6001L72.9433 93.1101L74.9396 90.5017L77.2982 87.3343L81.6531 82.1177C83.4677 80.5033 85.4032 79.6961 87.4597 79.6961H88.5482C91.4518 79.6961 94.113 80.8138 96.5323 83.0492C98.9516 85.2851 100.887 87.831 102.338 90.6879L103.427 93.6686L103.79 96.4631C103.79 102.425 102.399 106.959 99.6171 110.064C96.9559 113.045 93.9313 115.653 90.5445 117.889L86.0079 120.31C84.3143 120.931 83.0441 121.615 82.1976 122.36L78.5683 124.782C77.9636 125.403 77.5401 126.397 77.2982 127.763L85.2823 126.831C88.5482 126.458 93.1449 126.272 99.0726 126.272L113.952 126.831C115.403 126.831 116.794 126.893 118.125 127.018C119.577 127.018 122.177 127.266 125.927 127.763C127.379 125.403 128.589 121.615 129.557 116.398C129.799 114.783 129.98 112.299 130.101 108.946C130.222 105.468 130.282 102.736 130.282 100.748C130.282 91.5576 127.379 82.9254 121.573 74.8519Z" fill="url(#wnpaint0_linear_1_106)" />
    <path d="M138.448 155.522C138.448 151.423 136.815 148.443 133.549 146.58C131.976 145.586 130.343 144.779 128.649 144.158C126.956 143.537 124.536 142.729 121.391 141.735L120.847 141.549L117.037 140.618L113.77 140.059L105.424 139.5H98.3469H96.714H95.2622H94.5366H93.8104L86.7341 139.686L77.2987 140.245L73.3067 140.804L69.6774 141.549C65.4435 142.667 61.7541 144.22 58.6091 146.207C55.4639 148.07 53.8913 151.175 53.8913 155.522H138.448ZM121.573 74.8519C115.766 67.0269 109.355 61.2517 102.339 57.5252C100.162 56.2832 97.8632 55.2898 95.4439 54.5446C93.0246 53.7993 90.6654 53.4268 88.3671 53.4268C87.6414 53.4268 86.7341 52.8679 85.6451 51.75L82.5604 48.0238L82.1976 47.6512L78.75 43.1799C77.7825 42.1863 76.8752 41.5653 76.0286 41.3168L75.3024 41.6895C74.9396 44.2977 74.0931 46.5334 72.7622 48.3965C71.4319 50.2595 69.9801 51.8741 68.4073 53.2404L63.6896 56.9666C62.4797 57.8357 61.6939 58.8296 61.3311 59.9473C60.1211 64.2943 58.7902 68.0209 57.339 71.1259L52.984 79.5094C50.9276 82.7387 48.9316 85.5332 46.9961 87.8934C45.1816 90.1288 43.7905 92.1786 42.8227 94.0416L41.3711 97.0222L41.0082 99.8167V100.934L41.1897 102.053C41.4316 103.667 41.9155 105.033 42.6413 106.151C43.3671 107.269 44.4558 107.828 45.9074 107.828L47.5405 107.642L48.8107 106.896L50.2622 105.406L52.6211 102.798L52.984 102.425L53.7098 101.866L56.7945 100.003L60.7866 98.1399L66.5927 95.9046L69.8591 94.9731C70.7057 94.8487 71.2502 94.7244 71.4921 94.6001L72.9439 93.1101L74.9396 90.5017L77.2987 87.3343L81.6536 82.1177C83.4677 80.5033 85.4033 79.6956 87.4598 79.6956H88.5488C91.4518 79.6956 94.113 80.8138 96.5323 83.0492C98.9516 85.2851 100.887 87.831 102.339 90.6879L103.427 93.6686L103.79 96.4631C103.79 102.425 102.399 106.959 99.6171 110.064C96.9559 113.044 93.9319 115.653 90.5445 117.889L86.0085 120.31C84.3148 120.931 83.0447 121.615 82.1976 122.36L78.5689 124.782C77.9636 125.403 77.5406 126.397 77.2987 127.763L85.2823 126.831C88.5487 126.458 93.1455 126.272 99.0726 126.272L113.952 126.831C115.404 126.831 116.795 126.893 118.125 127.018C119.577 127.018 122.178 127.266 125.927 127.763C127.379 125.403 128.589 121.615 129.557 116.398C129.799 114.783 129.98 112.299 130.101 108.946C130.222 105.468 130.282 102.736 130.282 100.748C130.282 91.557 127.379 82.9249 121.573 74.8519Z" fill="#F5F5F5" />
    <defs>
      <linearGradient id="wnpaint0_linear_1_106" x1="28" y1="96" x2="152" y2="96" gradientUnits="userSpaceOnUse">
        <stop stop-color="#0F2B56" />
        <stop offset="1" stop-color="#15133C" />
      </linearGradient>
    </defs>
  </g>
  <g id="wp" fill="none" transform="scale(0.2222222222222222 0.2222222222222222)">
    <path d="M33.75 168.75C33.75 158.873 35.5794 150.178 39.238 142.666C43.0373 135.154 48.5954 128.824 55.9127 123.677C57.6011 122.564 58.6564 120.964 59.0788 118.878L59.9231 112.201V111.157V110.323L60.1341 106.567C60.1341 105.315 60.4153 104.201 60.9784 103.228L62.8779 100.307L65.8333 97.3851L66.2552 96.9677L70.0543 92.7945C71.3211 91.5424 71.9544 90.0124 71.9544 88.2034C71.9544 86.8123 71.4617 85.3521 70.4767 83.8215L67.3104 78.1875L63.9332 71.3014C63.0889 68.7971 62.667 66.2237 62.667 63.5805C62.667 57.0426 65.2702 51.4083 70.4767 46.6784C75.8239 41.8095 81.945 39.375 88.8401 39.375C95.5941 39.375 101.575 41.8095 106.781 46.6784C112.128 51.4083 114.802 57.0426 114.802 63.5805C114.802 65.9458 114.38 68.5193 113.536 71.3014C112.691 73.9446 111.566 76.2401 110.158 78.1875L106.992 83.8215C106.851 84.0999 106.57 84.8649 106.148 86.1171C105.726 87.2297 105.515 87.9255 105.515 88.2034C105.515 90.0124 106.077 91.5424 107.203 92.7945L111.214 96.9677L111.636 97.3851L114.591 100.307C115.576 101.141 116.209 102.115 116.49 103.228L117.335 106.984L117.546 111.783V112.827V113.662C117.546 115.748 117.827 117.696 118.39 119.504C118.953 121.173 120.008 122.564 121.556 123.677C128.451 128.408 133.869 134.598 137.809 142.249C139.779 146.144 141.256 150.178 142.241 154.352C143.226 158.525 143.719 163.325 143.719 168.75H33.75ZM128.733 153.934C128.733 150.04 127.607 146.701 125.355 143.918C123.104 141.136 120.501 138.632 117.546 136.406L112.269 132.442L108.259 128.894C107.555 128.199 106.992 127.294 106.57 126.182L106.148 123.26V121.591L106.57 119.504V117.417L106.781 115.122C106.781 113.313 106.64 111.783 106.359 110.531C106.219 109.14 105.585 107.54 104.46 105.732C104.037 104.341 103.263 103.297 102.138 102.602L99.1823 99.6806L98.9713 99.4719C97.2827 98.2198 95.8056 96.759 94.5388 95.0895C93.2726 93.4206 92.6393 91.125 92.6393 88.2034C92.6393 86.6734 92.7799 85.5608 93.0611 84.8649L94.3279 82.152L95.1722 80.6917L96.0165 79.0222L98.5494 73.5969C99.3937 71.5101 99.8156 68.5884 99.8156 64.8326C99.8156 61.3547 98.8307 58.7115 96.8608 56.9031C96.2977 56.4857 95.3128 55.9294 93.906 55.2339C92.6393 54.5383 91.0209 54.1905 89.0511 54.1905C85.5332 54.1905 82.719 55.0947 80.6079 56.9031C78.6381 58.7115 77.6531 61.3547 77.6531 64.8326C77.6531 68.4495 77.9344 71.3014 78.4974 73.3882C79.2011 75.3356 79.9751 76.9354 80.8194 78.1875L81.2413 79.0222L82.0856 80.6917L83.1409 82.152L84.4076 84.8649L84.8295 88.2034C84.8295 91.125 84.1967 93.4206 82.9299 95.0895L78.7084 99.4719L78.2865 99.8893L75.3311 102.602L73.2206 105.732L71.1096 111.157L70.6877 115.748V117.835L71.1096 119.922V121.799L71.3211 123.469L70.6877 126.39C70.4064 127.364 69.9137 128.199 69.21 128.894L65.1999 132.442L59.9231 136.406C57.3902 138.354 54.787 140.858 52.1134 143.918C49.862 146.84 48.7362 150.179 48.7362 153.934H128.733Z" fill="url(#wppaint0_linear_1_111)" />
    <path d="M128.733 153.934C128.733 150.039 127.607 146.701 125.355 143.918C123.104 141.136 120.501 138.632 117.546 136.406L112.269 132.442L108.259 128.894C107.555 128.199 106.992 127.294 106.57 126.182L106.148 123.26V121.591L106.57 119.504V117.417L106.781 115.122C106.781 113.313 106.64 111.783 106.359 110.531C106.219 109.14 105.585 107.54 104.459 105.732C104.037 104.341 103.263 103.298 102.138 102.602L99.1823 99.6806L98.9713 99.472C97.2827 98.2198 95.8056 96.759 94.5388 95.0895C93.2726 93.4206 92.6393 91.125 92.6393 88.2034C92.6393 86.6734 92.7799 85.5602 93.0611 84.8649L94.3279 82.152L95.1722 80.6918L96.0165 79.0223L98.5494 73.5969C99.3937 71.5101 99.8156 68.5884 99.8156 64.8326C99.8156 61.3547 98.8307 58.7115 96.8608 56.9031C96.2977 56.4857 95.3128 55.9295 93.906 55.2339C92.6393 54.5383 91.0209 54.1906 89.0511 54.1906C85.5332 54.1906 82.719 55.0948 80.6079 56.9031C78.6381 58.7115 77.6531 61.3547 77.6531 64.8326C77.6531 68.4495 77.9344 71.3014 78.4974 73.3883C79.2011 75.3356 79.9751 76.9354 80.8194 78.1875L81.2413 79.0223L82.0856 80.6918L83.1409 82.152L84.4076 84.8649L84.8295 88.2034C84.8295 91.125 84.1961 93.4206 82.9299 95.0895L78.7084 99.472L78.2865 99.8893L75.3311 102.602L73.2206 105.732L71.1096 111.157L70.6877 115.748V117.835L71.1096 119.921V121.799L71.3211 123.469L70.6877 126.39C70.4064 127.364 69.9137 128.199 69.21 128.894L65.1999 132.442L59.9231 136.406C57.3902 138.354 54.787 140.858 52.1134 143.918C49.862 146.84 48.7362 150.179 48.7362 153.934H128.733Z" fill="#F5F5F5" />
    <defs>
      <linearGradient id="wppaint0_linear_1_111" x1="34" y1="104" x2="144" y2="104" gradientUnits="userSpaceOnUse">
        <stop stop-color="#0F2B56" />
        <stop offset="1" stop-color="#15133C" />
      </linearGradient>
    </defs>
  </g>
  <g id="wq" fill="none" transform="scale(0.2222222222222222 0.2222222222222222)">
    <path d="M34.005 168.75C34.005 163.018 34.0665 159.069 34.1893 156.904C34.4348 154.739 34.926 151.363 35.6628 146.777C36.3995 142.192 39.8378 137.415 45.9776 132.447L29.216 77.229C25.6549 77.229 22.7078 75.8914 20.3746 73.2167C18.0416 70.542 16.875 67.4213 16.875 63.8544C16.875 59.9057 18.1644 56.5937 20.743 53.919C23.3218 51.244 26.3917 49.9066 29.9528 49.9066C33.6367 49.9066 36.7679 51.3078 39.3466 54.11C41.9254 56.7849 43.2147 60.0334 43.2147 63.8544L42.6621 67.2936C42.4166 68.4399 41.7412 69.714 40.636 71.1152L55.1873 87.1644L60.7129 57.9313C57.6433 56.5301 55.2487 54.5559 53.5296 52.0083C51.8104 49.4608 50.9509 46.5947 50.9509 43.4103C50.9509 39.2069 52.363 35.6403 55.1873 32.7106C58.1344 29.6535 61.6956 28.125 65.8704 28.125C69.8001 28.125 73.2999 29.6535 76.3695 32.7106C79.4396 35.6403 80.9747 39.2069 80.9747 43.4103C80.9747 45.8305 80.3604 48.187 79.1325 50.4798C78.0272 52.6452 76.554 54.4922 74.7118 56.0207L89.6316 84.8717L104.735 56.0207C103.507 55.129 102.403 54.0464 101.42 52.7726C100.56 51.3714 99.8235 49.7792 99.2098 47.9959L98.6569 45.512L98.4729 43.4103C98.4729 39.3342 99.9467 35.7677 102.894 32.7106C105.841 29.6535 109.34 28.125 113.393 28.125C117.322 28.125 120.822 29.6535 123.892 32.7106C126.961 35.6403 128.496 39.2069 128.496 43.4103C128.496 46.4674 127.576 49.3334 125.733 52.0083C124.014 54.6833 121.681 56.6578 118.734 57.9313L123.892 87.3557L138.627 71.1152L137.338 67.6755L136.785 63.8544C136.785 59.9057 138.075 56.5937 140.653 53.919C143.232 51.244 146.302 49.9066 149.863 49.9066C153.547 49.9066 156.678 51.3078 159.257 54.11C161.836 56.7849 163.125 60.0334 163.125 63.8544C163.125 67.4213 161.958 70.4779 159.625 73.0254C157.415 75.4459 154.529 76.8471 150.968 77.229L133.838 132.065C139.855 136.778 143.416 142.192 144.521 148.306C145.627 154.42 146.179 161.234 146.179 168.75H34.005ZM132.549 155.184C132.549 150.981 130.891 147.988 127.576 146.204C124.383 144.294 119.962 142.51 114.313 140.855L110.077 139.899L106.025 139.135L98.4729 138.752H92.2101H90.7369H89.6316H88.8947L81.711 138.944C79.6236 138.944 77.5974 138.944 75.6326 138.944C73.6684 139.326 72.2559 139.58 71.3964 139.708L67.3442 140.281L63.6604 141.045C59.4849 141.937 55.7399 143.402 52.4244 145.44C49.2317 147.478 47.6354 150.726 47.6354 155.184H132.549ZM117.813 107.035L111.182 66.3384L89.6316 106.271L68.4495 66.3384L61.4498 107.418L42.478 87.3557L42.1095 87.9289L57.0291 128.053L66.4234 126.524L75.4487 125.569L81.5271 125.378L87.7899 125.187L102.157 125.76L117.813 127.479L120.576 128.053C121.804 128.053 122.786 128.18 123.523 128.435L137.338 87.7376L136.969 87.3557L117.813 107.035ZM26.8215 66.9116C27.5582 67.6761 28.602 68.1216 29.9528 68.2492C31.3035 68.2492 32.3473 67.8032 33.0841 66.9116C33.8208 66.0201 34.312 64.8737 34.5576 63.4725C34.5576 62.3261 34.1893 61.3704 33.4524 60.6066C32.7157 59.7144 31.5491 59.1413 29.9528 58.8864C28.8476 58.8864 27.8652 59.3325 27.0057 60.2241C26.1461 60.9885 25.6549 62.0713 25.5321 63.4725C25.5321 64.746 25.9619 65.8924 26.8215 66.9116ZM146.731 66.9116C147.468 67.6761 148.512 68.1216 149.863 68.2492C150.968 68.2492 151.95 67.8668 152.81 67.1023C153.67 66.2108 154.222 65.0008 154.468 63.4725C154.468 62.3261 153.976 61.3069 152.994 60.4153C152.38 59.5238 151.337 59.0141 149.863 58.8864C148.758 58.8864 147.776 59.3325 146.916 60.2241C146.179 60.9885 145.688 62.0713 145.442 63.4725C145.442 64.746 145.872 65.8924 146.731 66.9116ZM62.1866 47.6138C63.1693 48.378 64.3973 48.8876 65.8704 49.1423C67.3442 49.1423 68.5721 48.6328 69.5543 47.6138C70.6596 46.4674 71.2119 45.1299 71.2119 43.6014C71.2119 42.2002 70.7209 40.9902 69.7387 39.9711C68.8792 38.9521 67.59 38.3789 65.8704 38.2515C64.5199 38.2515 63.3532 38.6974 62.3711 39.589C61.5111 40.4807 60.9587 41.8181 60.7129 43.6014C60.7129 45.2573 61.2045 46.5947 62.1866 47.6138ZM109.709 47.6138C110.691 48.378 111.919 48.8876 113.393 49.1423C114.989 49.1423 116.278 48.6328 117.26 47.6138C117.997 46.5947 118.489 45.2573 118.734 43.6014C118.734 42.0729 118.304 40.8628 117.445 39.9711C116.585 39.0795 115.234 38.5063 113.393 38.2515C112.042 38.2515 110.876 38.6974 109.893 39.589C109.033 40.4807 108.481 41.8181 108.235 43.6014C108.235 45.2573 108.726 46.5947 109.709 47.6138Z" fill="url(#wqpaint0_linear_1_116)" />
    <path d="M132.549 155.184C132.549 150.981 130.891 147.988 127.576 146.204C124.383 144.294 119.962 142.51 114.313 140.854L110.077 139.899L106.025 139.134L98.4729 138.752H92.2106H90.7369H89.6316H88.8947L81.7116 138.944C79.6241 138.944 77.598 138.944 75.6332 138.944C73.6684 139.326 72.2559 139.58 71.3964 139.708L67.3442 140.281L63.6604 141.045C59.4855 141.937 55.74 143.402 52.4245 145.44C49.2319 147.478 47.6355 150.726 47.6355 155.184H132.549ZM117.813 107.035L111.183 66.3384L89.6316 106.271L68.4495 66.3384L61.4503 107.418L42.4781 87.3557L42.1097 87.9289L57.0296 128.053L66.4234 126.524L75.4487 125.569L81.5271 125.378L87.7899 125.187L102.157 125.76L117.813 127.479L120.576 128.053C121.804 128.053 122.786 128.18 123.523 128.435L137.338 87.7376L136.969 87.3557L117.813 107.035ZM26.8216 66.9116C27.5583 67.6755 28.6021 68.1216 29.9529 68.2487C31.3036 68.2487 32.3474 67.8032 33.0842 66.9116C33.821 66.0201 34.3121 64.8737 34.5577 63.4725C34.5577 62.3261 34.1894 61.3704 33.4526 60.606C32.7158 59.7144 31.5492 59.1413 29.9529 58.8864C28.8477 58.8864 27.8654 59.3325 27.0058 60.2241C26.1462 60.9885 25.655 62.0713 25.5322 63.4725C25.5322 64.746 25.962 65.8924 26.8216 66.9116ZM146.732 66.9116C147.468 67.6755 148.512 68.1216 149.863 68.2487C150.968 68.2487 151.951 67.8668 152.81 67.1023C153.67 66.2108 154.222 65.0008 154.468 63.4725C154.468 62.3261 153.977 61.3069 152.994 60.4153C152.381 59.5238 151.337 59.0141 149.863 58.8864C148.758 58.8864 147.776 59.3325 146.916 60.2241C146.179 60.9885 145.688 62.0713 145.442 63.4725C145.442 64.746 145.873 65.8924 146.732 66.9116ZM62.1866 47.6138C63.1693 48.378 64.3973 48.8875 65.8704 49.1423C67.3442 49.1423 68.5721 48.6327 69.5548 47.6138C70.6596 46.4673 71.2125 45.1299 71.2125 43.6013C71.2125 42.2002 70.7214 40.9901 69.7387 39.9711C68.8792 38.9521 67.59 38.3789 65.8704 38.2515C64.5199 38.2515 63.3532 38.6973 62.3711 39.5889C61.5116 40.4806 60.9587 41.8181 60.7134 43.6013C60.7134 45.2572 61.2045 46.5947 62.1866 47.6138ZM109.709 47.6138C110.691 48.378 111.919 48.8875 113.393 49.1423C114.989 49.1423 116.278 48.6327 117.261 47.6138C117.997 46.5947 118.489 45.2572 118.734 43.6013C118.734 42.0728 118.304 40.8627 117.445 39.9711C116.585 39.0794 115.235 38.5062 113.393 38.2515C112.042 38.2515 110.876 38.6973 109.893 39.5889C109.033 40.4806 108.481 41.8181 108.235 43.6013C108.235 45.2572 108.727 46.5947 109.709 47.6138Z" fill="#F5F5F5" />
    <defs>
      <linearGradient id="wqpaint0_linear_1_116" x1="17" y1="98" x2="163" y2="98" gradientUnits="userSpaceOnUse">
        <stop stop-color="#0F2B56" />
        <stop offset="1" stop-color="#15133C" />
      </linearGradient>
    </defs>
  </g>
  <g id="wr" fill="none" transform="scale(0.2222222222222222 0.2222222222222222)">
    <path d="M33.75 168.75C33.75 160.465 34.2568 153.499 35.2703 147.85C36.4105 142.076 40.1478 136.491 46.4822 131.093L52.5634 84.3986L51.2331 82.8922L49.9029 81.1974L46.8623 77.2436L44.3919 72.7251C44.2652 72.0973 44.1385 71.7204 44.0119 71.595L43.6317 70.2771C42.8716 68.1435 42.3015 65.9464 41.9215 63.6874L41.5414 55.9676L41.7314 49.3776L42.6816 42.0345C46.3556 40.2772 50.0929 39.022 53.8936 38.2688L63.9653 36.9508L67.9562 45.6119H76.8876L79.1679 34.5031L84.8689 33.9383L90.5704 33.75H92.4705L94.3706 33.9383L98.1714 34.1266L101.972 34.5031L103.682 45.6119H112.234L115.655 37.1391L117.555 37.3274H119.455L128.767 39.022C131.934 39.6496 134.785 40.6538 137.319 42.0345L138.079 46.3651L138.269 51.6371L138.079 54.8378V58.2272L137.319 64.0637C137.192 65.1938 137.129 66.3233 137.129 67.4528C136.748 68.3314 136.495 68.9591 136.369 69.336L135.988 70.0892L134.468 73.6661L132.947 76.4904L130.477 80.2564L127.437 84.3986L133.708 131.093C139.409 135.235 142.893 140.633 144.16 147.286C145.553 153.938 146.25 161.093 146.25 168.75H33.75ZM132.188 155.382C132.188 151.114 130.477 148.101 127.056 146.344C123.763 144.461 119.202 142.704 113.374 141.072L108.053 139.943L101.212 139.377L95.7009 139.19H91.1402L85.6294 139.377C84.2355 139.377 82.9052 139.377 81.6384 139.377C80.3717 139.377 78.7247 139.503 76.6974 139.754L69.6662 140.319C68.6531 140.444 67.7025 140.507 66.816 140.507C66.3092 140.633 65.4857 140.884 64.3455 141.261C60.0379 142.139 56.1739 143.583 52.7534 145.591C49.4594 147.599 47.8125 150.863 47.8125 155.382H132.188ZM115.274 90.9883C113.501 90.3611 111.094 89.7334 108.053 89.1056L99.6919 87.9761L94.7509 87.5993L90.3803 87.4108C86.9597 87.4108 83.8558 87.4738 81.0686 87.5993C78.2814 87.7247 75.3671 88.0386 72.3268 88.5409C69.4131 89.0426 66.9426 89.8588 64.9153 90.9883L60.3546 127.892L74.6072 126.386L91.3303 125.821L107.483 126.386C110.017 126.386 111.981 126.511 113.374 126.763C114.768 126.888 116.985 127.265 120.025 127.892L115.274 90.9883ZM102.542 60.6746L98.5517 49.9425L94.1805 49.1893L90 49.0011L86.1992 49.3776L82.3989 49.9425L78.0278 60.6746H66.4357L62.0651 50.3191L61.3046 50.1307H60.5447L58.6446 50.5073L56.7439 51.0722L55.7939 51.4487L54.8438 51.8253V52.5784C54.8438 56.8462 54.9705 59.796 55.2238 61.4278C55.4772 62.9342 56.1107 65.0678 57.1241 67.8296C58.7711 72.2228 61.1151 75.1725 64.1554 76.6789L78.2179 74.7962L90 74.043C91.7736 74.043 93.4206 74.043 94.941 74.043C96.588 74.043 98.3616 74.1684 100.262 74.4193C103.809 74.4193 106.913 74.7332 109.573 75.3609L113.184 75.9257L116.795 76.6789C119.582 75.1725 121.546 72.6621 122.686 69.1476C123.193 67.5158 123.573 65.8209 123.826 64.0637C124.206 62.3064 124.523 60.1723 124.776 57.6619L124.966 54.6496V51.8253L123.066 51.0722L120.786 50.5073L119.265 50.3191L117.745 50.1307L113.374 60.6746H102.542Z" fill="url(#wrpaint0_linear_1_121)" />
    <path d="M132.188 155.382C132.188 151.114 130.477 148.102 127.056 146.344C123.763 144.461 119.202 142.704 113.374 141.072L108.053 139.943L101.212 139.377L95.7009 139.19H91.1402L85.6294 139.377C84.2355 139.377 82.9052 139.377 81.6384 139.377C80.3717 139.377 78.7247 139.503 76.6974 139.754L69.6662 140.319C68.6531 140.444 67.7025 140.507 66.816 140.507C66.3092 140.633 65.4857 140.884 64.3455 141.261C60.0379 142.139 56.174 143.583 52.7534 145.591C49.4594 147.599 47.8125 150.863 47.8125 155.382H132.188ZM115.275 90.9883C113.501 90.3611 111.094 89.7334 108.053 89.1056L99.6919 87.9761L94.7509 87.5993L90.3803 87.4114C86.9597 87.4114 83.8558 87.4738 81.0686 87.5993C78.2814 87.7247 75.3677 88.0386 72.3268 88.5409C69.4131 89.0432 66.9426 89.8588 64.9153 90.9883L60.3546 127.892L74.6072 126.386L91.3303 125.821L107.483 126.386C110.017 126.386 111.981 126.511 113.374 126.763C114.768 126.888 116.985 127.265 120.025 127.892L115.275 90.9883ZM102.542 60.6746L98.5517 49.9425L94.1805 49.1894L90 49.0011L86.1992 49.3777L82.3989 49.9425L78.0278 60.6746H66.4357L62.0651 50.3191L61.3052 50.1308H60.5447L58.6446 50.5074L56.7439 51.0722L55.7939 51.4488L54.8438 51.8253V52.5785C54.8438 56.8463 54.9705 59.796 55.2238 61.4278C55.4772 62.9342 56.1107 65.0678 57.1241 67.8296C58.7711 72.2228 61.1151 75.1725 64.1554 76.6789L78.2179 74.7962L90 74.043C91.7736 74.043 93.4206 74.043 94.941 74.043C96.588 74.043 98.3616 74.1684 100.262 74.4193C103.809 74.4193 106.913 74.7332 109.573 75.3609L113.184 75.9257L116.795 76.6789C119.582 75.1725 121.546 72.6621 122.686 69.1476C123.193 67.5158 123.573 65.8209 123.826 64.0637C124.206 62.3064 124.523 60.1729 124.776 57.6624L124.966 54.6496V51.8253L123.066 51.0722L120.786 50.5074L119.265 50.3191L117.745 50.1308L113.374 60.6746H102.542Z" fill="#F5F5F5" />
    <defs>
      <linearGradient id="wrpaint0_linear_1_121" x1="34" y1="101" x2="146" y2="101" gradientUnits="userSpaceOnUse">
        <stop stop-color="#0F2B56" />
        <stop offset="1" stop-color="#15133C" />
      </linearGradient>
    </defs>
  </g>
</svg>