<svg xmlns="http://www.w3.org/2000/svg" width="40" height="40" viewbox="0.0 0.0 180.0 180.0">
  <g id="bb" fill="none" transform="scale(0.2222222222222222 0.2222222222222222)">
    <path d="M64.4318 146.214C53.1409 138.523 45.0409 125.104 42.9137 111.523C40.6227 96.959 44.9591 82.2317 51.8318 69.5499C55.5955 62.5954 60.0955 56.0499 65.0046 49.9136L83.5773 75.2772L96.6682 61.9408L77.2773 36.1681C81.3682 31.9136 85.7046 27.9045 90.0409 23.8954H89.9591C179.632 104.241 115.568 146.214 115.568 146.214" fill="#1B120F" />
    <path d="M64.4318 146.214C53.1409 138.523 45.0409 125.104 42.9137 111.523C40.6227 96.959 44.9591 82.2317 51.8318 69.5499C55.5955 62.5954 60.0955 56.0499 65.0046 49.9136L83.5773 75.2772L96.6682 61.9408L77.2773 36.1681C81.3682 31.9136 85.7046 27.9045 90.0409 23.8954H89.9591C179.632 104.241 115.568 146.214 115.568 146.214" stroke="#1B120F" stroke-width="4.90909" stroke-miterlimit="10" />
    <path d="M96.4227 17.3451C96.4227 20.9451 93.5591 23.8906 89.9591 23.8906C86.3591 23.8906 83.4954 20.9451 83.4954 17.3451C83.4954 13.7451 86.3591 10.7997 89.9591 10.7997C93.5591 10.7997 96.4227 13.7451 96.4227 17.3451Z" fill="#1B120F" />
    <path d="M89.9591 23.8906C93.5288 23.8906 96.4227 20.9601 96.4227 17.3451C96.4227 13.7302 93.5288 10.7997 89.9591 10.7997C86.3893 10.7997 83.4954 13.7302 83.4954 17.3451C83.4954 20.9601 86.3893 23.8906 89.9591 23.8906Z" stroke="#1B120F" stroke-width="4.90909" stroke-miterlimit="10" />
    <path d="M52.159 152.67V146.206H127.923V152.67" fill="#F89D13" />
    <path d="M52.159 152.67V146.206H127.923V152.67" stroke="#1B120F" stroke-width="4.90909" stroke-miterlimit="10" />
    <path d="M90.0408 152.677H52.159V165.522H127.923V152.677H90.0408Z" fill="#1B120F" />
    <path d="M90.0408 152.677H52.159V165.522H127.923V152.677H90.0408Z" stroke="#1B120F" stroke-width="4.90909" stroke-miterlimit="10" />
  </g>
  <g id="bk" fill="none" transform="scale(0.2222222222222222 0.2222222222222222)">
    <path d="M90.1232 152.435H52.2414V165.363H127.923V152.435H90.1232Z" fill="#1B120F" />
    <path d="M90.1232 152.435H52.2414V165.363H127.923V152.435H90.1232Z" stroke="#1B120F" stroke-width="4.90909" stroke-miterlimit="10" />
    <path d="M52.2414 146.052V152.434H127.923V146.052" fill="#F89D13" />
    <path d="M52.2414 146.052V152.434H127.923V146.052" stroke="#1B120F" stroke-width="4.90909" stroke-miterlimit="10" />
    <path d="M96.3413 64.1499V42.959H115.323V30.0317H96.3413L96.4231 10.7227H83.7413V30.0317H64.8413V42.959H83.7413V64.1499" fill="#1B120F" />
    <path d="M96.3413 64.1499V42.959H115.323V30.0317H96.3413L96.4231 10.7227H83.7413V30.0317H64.8413V42.959H83.7413V64.1499" stroke="#1B120F" stroke-width="4.90909" stroke-miterlimit="10" />
    <path d="M164.741 70.1224C158.85 46.6406 136.514 44.186 136.514 44.186C105.014 39.7679 90.3683 74.2951 90.041 75.1133C89.7138 74.2951 75.0683 39.686 43.5683 44.1042C43.5683 44.1042 21.1501 46.5588 15.341 70.0406C15.341 70.0406 4.05011 112.422 52.1592 145.968H127.841C175.95 112.504 164.741 70.1224 164.741 70.1224Z" fill="#1B120F" />
    <path d="M83.741 64.1497H96.341M164.741 70.1224C158.85 46.6406 136.514 44.186 136.514 44.186C105.014 39.7679 90.3683 74.2951 90.041 75.1133C89.7137 74.2951 75.0683 39.686 43.5683 44.1042C43.5683 44.1042 21.1501 46.5588 15.341 70.0406C15.341 70.0406 4.05011 112.422 52.1592 145.968H127.841C175.95 112.504 164.741 70.1224 164.741 70.1224V70.1224Z" stroke="#1B120F" stroke-width="4.90909" stroke-miterlimit="10" />
    <path d="M132.178 63.1708C111.641 61.3708 96.5049 104.816 96.5049 104.816V131.653C96.5049 131.653 117.941 131.162 134.632 113.816C151.323 96.3071 152.714 64.8889 132.178 63.1708V63.1708ZM47.9049 63.1708C27.3685 64.9708 28.7594 96.3889 45.4503 113.816C62.1413 131.243 83.7413 131.653 83.7413 131.653V104.816C83.7413 104.816 68.4413 61.3708 47.9049 63.1708Z" stroke="#F89D13" stroke-width="4.90909" stroke-miterlimit="10" />
    <path d="M77.4413 36.4928H102.723M90.0413 23.5656V55.8019V23.5656Z" stroke="#F89D13" stroke-width="3.27273" stroke-miterlimit="10" />
  </g>
  <g id="bn" fill="none" transform="scale(0.2222222222222222 0.2222222222222222)">
    <path d="M106.568 147.683C114.505 147.683 114.505 135.41 106.568 135.41C98.632 135.41 98.632 147.683 106.568 147.683ZM58.4592 33.2193C56.8229 30.7648 54.7774 29.6193 52.0774 28.5557C49.2138 27.492 46.7592 25.7738 43.8956 24.7102C38.4138 22.6648 28.8411 20.292 28.3502 29.2102C28.1865 31.7466 29.332 33.9557 30.232 36.3284C31.4592 39.3557 32.6865 42.5466 34.9774 45.0011C37.1047 47.3738 39.5592 48.6829 42.5047 49.8284C44.0592 50.4829 46.3502 50.4829 47.9865 50.0738C48.8865 49.9102 49.7047 49.5829 50.5229 49.1738C51.832 48.5193 51.9956 48.4375 51.0138 48.8466C53.3865 47.8647 55.8411 45.8193 55.5138 42.9557C55.0229 38.4557 51.9138 35.5102 47.7411 34.2011C42.1774 32.4829 36.8592 40.5011 41.7683 44.4284C46.5138 48.2738 55.0229 56.4557 60.4229 48.7647C64.432 43.1193 59.4411 34.3648 56.1683 29.7011C53.8774 32.7284 51.5865 35.6738 49.2138 38.7011C52.2411 39.2738 54.9411 41.2375 58.0502 41.8102C62.632 42.5466 67.132 40.9102 69.1774 36.492C70.732 33.1375 69.7501 28.3102 65.4956 27.492C63.2865 27.0829 61.4047 27.2466 59.1956 27.2466C51.2592 27.3284 51.2592 39.5193 59.1956 39.5193C65.4138 39.5193 71.3865 38.9466 76.4592 35.0193C78.5865 33.3829 81.9411 33.5466 84.4774 32.892C88.4047 31.8284 91.1047 30.7648 95.1138 31.9102C100.35 33.3829 104.441 36.9011 110.168 35.6738C113.114 35.0193 115.323 32.2375 115.977 29.4557C116.387 27.7375 116.059 26.1829 115.814 24.5466C115.241 26.0193 115.323 26.2648 115.977 25.3648C116.714 24.8738 116.632 24.792 115.65 25.2011C114.587 24.9557 113.605 24.6284 112.541 24.3829C113.523 24.8738 114.505 28.1466 115.405 29.4557C117.123 31.992 118.923 34.3648 120.477 36.9829L121.214 38.4557L121.132 38.3738C121.541 40.5829 122.359 39.2738 123.505 34.6102C121.868 35.2648 120.068 35.5102 118.432 36.1648C119.496 35.7557 119.987 38.7829 118.596 35.6738C118.268 34.8557 118.023 33.9557 117.777 33.0557C117.287 31.0102 119.577 32.9738 116.387 34.7738C115.323 35.0193 114.341 35.3466 113.277 35.592C110.087 36.0011 111.805 31.5011 112.623 30.8466C111.232 31.8284 109.759 32.8102 108.368 33.7102C105.587 35.5102 102.641 37.0648 99.7774 38.7011C93.7229 42.2193 87.9956 46.3102 82.1047 50.0738C76.4592 53.6738 71.3865 57.6829 64.7592 59.0738C61.5683 59.8102 58.4592 58.6647 55.432 57.6829C52.2411 56.6193 48.7229 56.2102 45.9411 54.3284C44.8774 58.1738 43.8956 61.9375 42.832 65.7829C50.5229 66.7648 56.1683 64.8829 62.2229 59.9738C65.0865 57.6011 67.2956 54.9011 67.5411 51.0557C67.7047 49.3375 67.3774 47.7011 66.8865 46.0648C66.7229 45.6557 66.5592 45.2466 66.3956 44.7557C66.3138 44.5102 66.232 44.2647 66.232 44.0193C66.3138 45.3284 65.8229 46.392 64.6774 47.2102C63.6138 47.4557 62.632 47.7829 61.5683 48.0284C63.6138 47.9466 62.8774 47.292 59.2774 46.0648C58.9502 44.2647 58.7865 43.9375 58.8683 45.0829C58.8683 45.8193 58.7865 45.9011 58.5411 47.0466C58.0501 49.2557 57.232 51.4647 56.6592 53.6738C54.9411 59.5647 57.8047 66.7648 65.1683 64.8829C67.9502 64.1466 70.2411 61.3647 71.8774 59.2375C74.4138 56.0466 75.8047 52.2011 76.0502 48.192C76.132 46.5557 76.0502 44.9193 75.9683 43.2829V39.8466C75.9683 39.3557 76.0502 38.7829 76.0502 38.292C76.0502 38.3738 76.0502 38.5375 75.9683 38.6193C76.4592 36.9829 75.7229 37.7193 73.7592 40.9102C72.6956 41.1557 71.7138 41.4829 70.6502 41.7284H70.9774C69.9138 41.4829 68.932 41.1557 67.8683 40.9102C68.6047 41.2375 70.9774 43.7738 71.0592 45.5738C71.2229 47.5375 70.4047 49.8284 70.1592 51.792C69.9138 54.492 70.8956 57.3557 72.2865 59.5648C75.3138 64.4738 81.532 62.8375 83.4956 58.092C86.1138 51.7102 86.6865 44.8375 86.1956 38.0466C86.1138 37.3102 86.1138 36.6557 86.1956 35.9193C82.5138 37.5557 81.6956 38.5375 83.9865 38.7829C84.3138 38.8648 84.7229 38.9466 85.0502 39.1102C86.5229 40.092 86.2774 39.192 84.3138 36.492C83.9047 38.4557 82.5956 40.5011 81.8592 42.3829C79.5683 48.5193 84.7229 54.8193 91.1865 51.7102C93.9683 50.4011 95.932 47.9466 97.8138 45.492C98.7956 44.1829 99.4502 42.7102 100.023 41.2375C100.35 40.5829 100.596 39.8466 100.841 39.192C101.659 36.9829 102.559 36.6557 100.023 38.5375C98.9592 38.7829 97.9774 39.1102 96.9138 39.3557C95.032 39.5193 95.6047 38.9466 96.832 39.9284C97.8138 40.7466 98.7956 41.4829 99.9411 42.2193C102.477 43.9375 105.177 43.2829 107.877 42.6284L100.35 35.1011C99.7774 39.1102 98.8774 42.9557 98.8774 47.0466C98.7956 50.1557 96.2592 52.1193 94.2956 54.2466C91.9229 56.7829 89.7956 59.7284 87.9138 62.6738C87.2592 63.7375 86.6865 64.8829 86.1956 66.1102C85.9502 66.6011 85.7865 67.092 85.5411 67.5829C84.4774 69.792 84.232 68.1557 86.5229 67.6647H89.7956C91.9229 70.2011 92.5774 70.5284 91.9229 68.6466C91.5956 67.4193 91.1047 66.3557 90.4501 65.292C89.7956 64.2284 88.8138 63.3284 87.7502 62.6738C85.7865 61.3647 86.7683 61.1193 87.7502 63.7375V67.0102C87.832 66.7648 87.9138 66.6011 87.9956 66.3557C89.0592 63.1648 86.8502 59.6466 83.7411 58.8284C82.7592 58.5829 81.6956 58.5011 80.7138 58.092C81.2047 61.8557 81.6956 65.5375 82.1865 69.3011C86.5229 66.8466 91.2683 65.2102 95.5229 62.7557C92.4138 60.9557 89.3865 59.2375 86.2774 57.4375C86.5229 59.8102 85.132 62.592 84.232 64.7193C83.4956 66.4375 82.8411 68.0738 82.5138 69.8738C82.3502 70.692 82.2683 71.592 82.3502 72.4102C82.5138 71.9193 82.6774 71.5102 82.8411 71.0193L81.3683 72.9829C76.9502 79.5284 87.5865 85.6648 92.0047 79.2011C92.9865 77.7284 93.8047 76.6647 94.3774 74.9466C94.7047 73.8829 94.3774 72.9011 94.6229 71.8375C94.8683 70.6102 95.5229 69.3829 96.0138 68.1557C97.3229 64.8011 99.1229 61.0375 98.632 57.3557C98.0592 52.9375 93.8047 49.5011 89.3865 52.0375C85.0502 54.5738 80.3865 56.2102 76.0502 58.5829C71.0592 61.3647 72.7774 68.0738 77.5229 69.792C78.5047 70.2011 79.5683 70.2011 80.5501 70.5284C79.1592 67.992 77.6865 65.4557 76.2956 63.0011C75.3138 65.9466 76.3774 68.5648 78.4229 70.7738L80.3865 72.2466C81.4502 72.9829 81.3683 72.9011 80.3047 71.8375C80.7956 73.3102 81.2047 74.7011 82.1047 76.0102C86.4411 82.3102 93.4774 79.2829 96.4229 73.6375C97.732 71.2648 98.7138 68.892 100.268 66.6011C102.068 63.9829 104.441 61.7738 106.568 59.3193C111.887 53.3466 111.559 45.8193 112.541 38.292C113.196 33.6284 110.005 29.6193 105.014 30.7648C102.968 31.2557 107.223 32.1557 105.177 30.6011C104.032 29.7011 102.887 28.8011 101.577 28.0648C99.2047 26.6738 96.0138 26.592 93.8047 28.2284C91.1047 30.192 90.4502 32.892 89.4683 35.9193C89.0592 37.1466 88.4047 38.2102 87.6683 39.3557C87.0956 40.2557 85.2956 40.7466 86.5229 40.5829C88.0774 40.8284 89.7138 40.992 91.2683 41.2375L93.1502 43.0375C93.3956 44.1011 93.7229 45.0829 93.9683 46.1466C94.0502 47.7011 93.9683 46.392 94.132 45.7375C94.3774 45.0829 94.4592 45.0011 94.8683 44.1011C95.8502 41.9738 97.0774 39.6829 97.0774 37.3102C96.9956 31.092 91.5956 27.492 85.8683 26.6738C78.7502 25.692 74.6592 30.1102 74.4138 36.9829C74.332 39.4375 74.8229 41.8102 74.6592 44.2647C74.4138 47.9466 73.5956 51.4647 72.2047 54.9011L83.4138 53.4284C82.1865 51.4647 83.7411 47.8647 83.8229 45.5738C83.9865 42.7102 82.9229 39.7648 81.3683 37.392C78.9138 33.792 73.1865 26.4284 68.032 30.2738C63.7774 33.4648 64.0229 38.4557 64.1047 43.2829C64.1047 44.6738 64.3502 46.7193 64.1865 47.8647C64.0229 49.1738 63.6138 50.5648 62.7956 51.5466C62.1411 52.3647 59.7683 53.7557 61.6502 53.2647C63.2047 53.5102 64.8411 53.6738 66.3956 53.9193L65.9047 53.6738L68.6865 57.3557C68.932 57.9284 68.1956 59.4829 68.6047 57.6829C68.8502 56.7829 69.0956 55.8829 69.3411 55.0648C69.9956 53.0193 70.5683 51.0557 70.9774 48.9284C71.9592 43.5284 70.8138 37.8829 65.0047 36.0829C57.1502 33.7102 53.3047 41.8102 54.8592 48.1102C55.0229 48.5193 55.1047 49.0102 55.2683 49.4193C55.5956 50.892 55.7592 50.9738 55.6774 49.7466C54.6956 50.892 53.1411 51.9557 51.9138 52.7738C49.132 54.7375 46.1047 54.0011 43.0774 53.592C36.4502 52.7738 35.5502 61.9375 39.9683 65.0466C44.3047 68.0738 50.1956 68.9738 55.1865 70.6102C61.3229 72.5738 67.9502 71.6738 73.9229 69.5466C79.1592 67.6648 83.9047 63.8193 88.5683 60.8738C94.0502 57.4375 99.3683 53.6738 105.014 50.3193C112.705 45.6557 128.741 39.9284 122.196 28.3102C119.659 23.892 114.259 22.2557 109.841 24.792C105.423 27.3284 105.505 33.0557 106.487 37.392C107.387 41.1557 109.596 45.1648 112.787 47.4557C117.041 50.5648 123.505 48.1102 127.923 46.3102C137.905 42.1375 132.341 32.1557 127.923 25.9375C123.587 19.8829 120.068 9.32839 110.496 14.6466C105.996 17.1829 103.05 22.092 104.032 27.2466C104.605 30.2738 109.923 24.7102 106.814 23.7284C105.996 23.4829 105.177 22.992 104.359 22.5829C101.659 21.2738 98.7956 20.292 95.8502 19.6375C88.9774 18.0829 82.8411 21.4375 76.2138 22.3375C73.1865 22.7466 71.1411 24.3011 68.6865 26.0193C66.0683 27.8193 62.3865 27.492 59.4411 27.492V39.7647C60.3411 39.7647 61.5683 39.3557 62.4683 39.6011C61.2411 36.5738 60.0138 33.6284 58.7865 30.6011C57.7229 32.892 59.1138 29.9466 60.7502 30.192C59.8502 30.0284 58.9501 29.7011 58.132 29.3738C56.332 28.6375 54.6138 27.6557 52.6502 27.2466C47.9047 26.3466 42.3411 31.4193 45.6956 36.2466C46.5138 37.392 47.7411 38.4557 48.232 39.6829C48.5592 40.5011 48.8865 41.3193 49.132 42.1375C49.7047 43.8557 49.0502 44.3466 50.032 42.9557L53.7138 40.1738C53.5502 40.2557 53.3047 40.2557 53.1411 40.3375H56.4138C54.2865 39.8466 52.3229 37.5557 50.6865 36.1648C48.7229 39.6011 46.6774 43.0375 44.7138 46.392C45.0411 46.4738 44.8774 46.392 44.3047 46.0648C44.0592 45.0011 43.732 44.0193 43.4865 42.9557V43.2829C44.9592 41.3193 46.5138 39.3557 47.9865 37.392C47.4138 37.6375 45.4502 38.292 46.0229 38.3738C44.8774 38.1284 44.1411 36.9829 43.6502 36.1648C42.6683 34.6102 40.8683 30.6011 40.9502 29.6193C40.7047 30.6829 40.3774 31.6648 40.132 32.7284C40.2138 32.5648 40.2956 32.4829 40.3774 32.3193L36.3683 34.692C34.2411 35.592 37.0229 35.5102 38.0047 35.7557C39.7229 36.1648 41.032 36.9829 42.5865 37.8011C44.0592 38.6193 45.532 39.2738 47.0865 39.8466C49.0502 40.5829 49.0502 41.1557 47.8229 39.4375C52.2411 45.9011 62.8774 39.7648 58.4592 33.2193Z" fill="#1B120F" />
    <path d="M109.841 52.3682C112.623 53.4318 114.914 55.4773 118.105 55.4773C119.905 55.4773 121.705 55.2318 123.423 54.8227C124.078 54.6591 124.814 54.4954 125.469 54.4954C123.75 53.5954 123.423 53.6773 124.487 54.5773C125.959 56.05 126.696 58.8318 127.514 60.7136C127.841 61.5318 128.25 62.2682 128.578 63.0045C127.269 59.5682 132.832 58.2591 128.823 59.65C126.123 60.55 123.505 61.1227 120.887 62.2682C117.778 63.5773 114.832 65.3773 111.887 67.0954C109.023 68.7318 106.159 70.45 103.132 71.5954C101.578 72.25 99.8595 72.5773 98.2231 72.9864C98.8776 72.9045 98.714 72.9045 97.814 72.9864C96.0958 72.8227 96.5867 73.3136 99.2049 74.2954C99.4504 75.85 99.614 77.4864 99.8595 79.0409C100.35 76.9136 103.541 73.9682 105.178 72.0864C108.041 68.8136 109.514 65.2136 111.396 61.2864C112.95 58.0954 114.669 60.4682 117.614 61.5318C118.759 61.9409 119.987 62.35 121.132 62.7591C121.459 62.9227 121.869 63.0045 122.196 63.1682C123.75 63.8227 123.669 64.7227 122.441 62.6773C122.196 61.6136 121.869 60.6318 121.623 59.5682C121.787 58.3409 122.278 57.3591 123.096 56.7045C122.441 57.1136 122.523 57.0318 121.787 57.2773C120.232 57.85 118.678 58.1773 117.123 58.5045C112.787 59.4864 108.859 61.1227 104.85 62.9227C107.305 66.1136 109.841 69.3864 112.296 72.5773C113.114 71.6773 113.932 70.6954 114.75 69.7136C115.323 69.0591 115.896 68.4864 116.469 67.8318C117.532 67.0136 117.778 66.7682 117.123 67.0954C115.569 66.85 113.932 66.6864 112.378 66.4409C110.332 65.4591 110.496 64.3954 111.887 66.5227C112.541 67.5864 113.359 68.4045 114.259 69.2227C116.141 70.9409 118.35 71.8409 120.641 72.8227C124.405 74.3773 128.741 73.8864 131.114 77.65C132.259 79.5318 133.159 81.5773 134.223 83.5409C134.796 84.5227 135.369 85.5045 135.778 86.5682C135.859 86.9773 136.023 87.3864 136.105 87.7954C136.105 89.5954 137.005 89.1864 138.887 86.7318C137.578 86.8136 136.105 86.2409 134.796 86.0773C131.441 85.5864 128.087 85.8318 124.814 85.4227C126.287 88.9409 127.678 92.3773 129.15 95.8954C130.214 94.9136 131.769 94.3409 132.914 93.4409C135.041 91.8045 136.759 89.6773 137.659 87.1409C139.296 82.6409 137.332 78.6318 134.469 75.1954C129.559 69.3045 116.387 65.95 114.178 76.3409C112.623 83.5409 117.532 88.6136 121.05 94.2591C122.85 97.2045 123.259 101.05 124.405 104.323C125.959 108.414 128.414 111.768 132.178 114.059C133.896 115.123 136.678 115.286 138.396 114.059C143.223 110.459 145.187 105.55 145.678 99.6591C146.25 92.6227 138.805 88.7773 133.159 92.2136C129.396 94.5045 128.905 100.723 133.159 102.85C134.305 103.423 135.287 103.914 136.514 104.077C137.414 104.241 138.314 104.323 139.132 104.323C137.005 102.441 136.432 102.195 137.414 103.668C138.559 105.795 138.559 109.723 138.805 112.095C138.969 113.65 139.132 115.205 139.296 116.677C139.459 117.332 139.541 118.068 139.541 118.723C142.487 116.841 142.896 116.023 140.85 116.268C137.578 116.268 134.55 116.268 131.278 116.759C126.696 117.495 119.823 118.805 118.432 123.959C116.387 131.241 123.669 133.286 128.741 135.332C127.841 131.895 126.941 128.459 126.041 125.105C124.078 127.068 122.441 129.277 120.805 131.486C120.15 132.468 119.332 133.368 118.514 134.186L119.741 133.941C119.169 133.695 118.514 133.45 117.859 133.286C110.25 130.832 107.305 142.368 114.587 145.15C117.941 146.377 123.096 148.586 126.614 144.659C130.541 140.323 127.105 135.168 126.041 130.505C124.323 123.223 137.169 121.014 141.587 119.459C146.823 117.659 147.396 111.359 143.059 108.25C140.278 106.286 136.514 106.45 133.241 106.532C131.769 106.532 124.241 106.041 123.832 105.141C121.787 100.232 121.95 94.5045 121.459 89.35C121.05 84.85 120.723 78.55 118.105 74.7045C114.914 69.8773 106.405 71.35 106.65 77.8136C106.814 83.05 109.923 88.3682 112.214 93.0318C113.441 95.4864 115.078 97.6954 116.796 99.9045C117.614 100.968 120.559 103.75 120.478 104.895C120.723 103.832 121.05 102.85 121.296 101.786C122.114 101.214 122.032 101.214 120.969 101.868L119.25 102.85C117.532 103.832 115.896 105.223 114.341 106.532C110.741 109.559 109.269 113.405 108.696 117.905C108.205 121.995 108.205 126.577 109.023 130.586C109.514 132.877 108.369 135.905 106.569 137.786C101.087 143.514 109.759 152.186 115.241 146.459C119.169 142.368 122.441 135.495 121.378 129.768C120.723 126.25 120.723 122.895 120.805 119.295C120.887 116.023 123.587 114.468 126.205 112.914C128.905 111.359 131.523 109.723 132.423 106.532C133.405 102.932 131.605 99.4954 129.559 96.6318C127.514 93.6864 125.141 91.2318 123.341 88.1227C121.787 85.5045 118.841 81.0045 118.759 77.8954C114.914 78.9591 111.15 79.9409 107.305 81.0045C108.369 82.6409 108.205 85.0954 108.532 86.9773C109.023 89.6773 109.187 92.3773 109.35 95.1591C109.759 100.559 110.332 107.023 113.278 111.768C115.896 116.023 121.05 117.332 125.632 118.068C128.005 118.477 130.541 118.805 132.996 118.805C133.978 118.805 136.596 118.805 136.596 118.886C137.087 115.123 137.578 111.441 138.069 107.677C130.378 110.295 121.541 112.341 116.632 119.377C114.014 123.141 113.032 127.886 113.769 132.468C114.096 134.677 114.75 136.641 115.569 138.686C117.041 142.123 123.996 135.741 120.478 134.595C119.496 134.268 118.596 133.777 117.614 133.45C116.55 137.377 115.405 141.305 114.341 145.314C118.678 146.705 122.278 146.95 125.959 143.841C129.314 140.977 131.196 136.968 134.387 133.941C138.069 130.423 135.778 125.35 131.687 123.714C131.196 123.468 130.705 123.305 130.132 123.141L129.15 122.895C127.759 122.405 127.841 122.486 129.314 123.305C129.559 124.368 129.887 125.35 130.132 126.414V125.841C129.887 126.905 129.559 127.886 129.314 128.95C128.578 130.095 126.859 130.586 128.578 130.259C129.232 130.095 129.805 130.014 130.459 129.85C133.241 129.114 135.614 128.541 138.559 128.705C144.696 128.95 150.505 127.15 151.405 120.114C151.732 117.577 151.078 114.959 150.832 112.341C150.505 108.986 149.932 105.714 149.359 102.441C148.95 100.068 147.805 96.4682 145.759 94.9136C144.696 94.0136 143.796 93.1954 142.405 92.7864C141.669 92.5409 138.723 92.3773 139.05 92.4591V103.095C139.378 102.932 139.705 102.686 140.032 102.523C138.969 102.768 137.987 103.095 136.923 103.341C137.169 103.341 137.496 103.259 137.741 103.259C136.678 103.014 135.696 102.686 134.632 102.441C132.259 101.295 133.487 98.5136 132.832 101.377C132.669 101.95 132.178 103.505 131.85 103.75H138.069C135.123 101.95 134.714 97.45 133.814 94.3409C132.669 90.4136 130.705 87.3864 128.414 84.1136C127.514 82.8864 126.532 81.5773 125.959 80.1864C125.469 79.0409 125.878 79.45 125.305 80.7591C124.159 83.4591 120.887 80.8409 123.587 82.4773C124.323 82.8864 124.896 83.6227 125.469 84.2773C126.205 85.0136 125.141 84.5227 125.632 83.7045C124.814 85.0954 121.378 86.4045 120.15 87.55C115.896 91.6409 119.496 97.45 124.487 98.0227C128.087 98.4318 131.605 98.35 135.205 98.9227C139.05 99.5773 142.65 99.25 145.596 96.3864C152.387 89.6773 145.023 78.1409 141.423 71.7591C139.541 68.4864 136.759 65.7045 133.323 64.2318C129.723 62.6773 125.632 62.5136 122.196 60.55C121.132 59.9773 120.641 58.1773 119.823 57.3591C118.187 55.7227 115.65 54.9864 113.441 55.5591C109.023 56.7864 106.159 60.8773 103.214 64.15C98.3867 69.6318 104.359 76.5864 110.659 73.8045C114.014 72.3318 117.205 71.1864 120.723 70.45C123.75 69.7954 126.859 68.8954 129.478 67.1773C132.832 64.9682 134.959 60.4682 132.669 56.7045C131.278 53.1864 127.187 51.9591 123.75 50.7318C120.478 49.5864 117.123 47.2954 113.605 47.2954C108.123 47.2954 103.623 50.4864 100.923 55.15C99.9413 56.95 99.2867 58.9136 98.3867 60.7955C97.3231 62.9227 95.6049 64.5591 94.0504 66.3591C91.3504 69.3864 86.8504 74.6227 88.0776 79.0409C90.9413 89.4318 105.096 84.2773 111.478 81.3318C115.732 79.3682 119.659 76.75 123.75 74.5409C127.678 72.4136 131.932 71.8409 135.941 69.9591C144.859 65.7864 139.132 55.6409 135.696 49.4227C133.65 45.7409 130.541 42.7954 126.205 42.3045C123.832 41.9773 121.623 42.8773 119.332 43.1227C117.532 43.3682 114.75 41.1591 113.032 40.5045C109.923 39.2773 106.323 41.8136 105.505 44.7591C104.605 48.3591 106.732 51.2227 109.841 52.3682Z" fill="#1B120F" />
    <path d="M88.3227 74.709C83.8227 75.4453 79.5681 80.0271 75.9681 82.6453C71.2227 86.0817 67.3772 90.2544 64.1045 95.0817C60.8318 99.7453 58.6227 104.982 56.4954 110.3C54.1227 116.109 51.9136 121.836 51.1772 128.054C50.8499 130.673 51.259 133.454 50.5227 135.909C49.8681 138.2 49.6227 140.736 50.8499 142.864C54.5318 149.164 60.9136 145.482 66.1499 145.154C78.1772 144.5 90.2863 148.345 102.232 146.3C115.241 144.009 114.914 128.873 116.55 118.809C118.35 107.682 122.523 94.1817 117.204 83.3817C110.741 70.209 96.0954 81.009 87.9136 85.9999C78.259 91.8908 69.5863 100.891 64.8408 111.282C61.6499 118.236 56.0863 127.482 62.3045 134.273C66.8045 139.182 74.0045 140.164 80.2227 140.982C88.0772 141.964 98.8772 143.436 105.75 138.773C113.032 133.782 116.959 123.554 118.186 115.209C119.332 107.109 119.414 97.5362 116.55 89.7635C114.995 85.4271 112.214 82.4817 107.959 80.7635C103.214 78.8817 98.059 82.6453 94.459 85.1817C86.5227 90.7453 83.0045 100.727 76.7045 107.845C73.1863 111.773 69.3408 115.454 65.5772 119.136C62.3863 122.245 59.8499 126.009 57.1499 129.118C53.059 133.945 56.9863 140.491 63.1227 139.345C69.0954 138.282 74.2499 135.254 79.8954 133.127C85.9499 130.836 91.4318 132.227 97.5681 133.045C109.759 134.682 111.886 120.854 112.704 111.936C113.277 106.045 114.095 98.7635 112.132 93.1181C110.086 86.9817 103.295 86.4908 98.7954 90.3362C95.1954 93.4453 92.659 97.8635 90.2045 101.873C88.4863 104.654 86.7681 107.436 84.6409 109.891C82.9227 111.936 79.5681 113.163 77.4409 114.882C74.2499 117.418 75.559 122.654 78.6681 124.536C81.6136 126.336 85.2136 126.009 88.5681 126.173C92.9045 126.418 96.9954 125.763 100.677 123.473C106.732 119.791 106.323 109.809 103.377 104.164C99.7772 97.1271 89.1409 103.345 92.7409 110.382C92.2499 109.4 92.7409 111.854 92.7409 112.018C92.7409 112.673 92.8227 113.327 92.9045 113.982C92.9045 115.454 93.0681 115.291 93.3954 113.491C92.0045 114.309 89.8772 113.982 88.4045 113.9C87.8318 113.9 84.0681 113.491 84.7227 113.9C85.1318 117.091 85.5409 120.364 85.9499 123.554C88.2409 121.673 90.9409 120.691 93.1499 118.645C95.5227 116.354 97.3227 113.245 99.1227 110.545C100.923 107.764 102.641 104.9 104.523 102.2C105.014 101.464 107.059 99.6635 106.404 99.8271H103.132C102.232 99.009 101.332 98.109 100.432 97.2908C100.514 98.109 100.595 98.9271 100.595 99.8271C100.677 101.382 100.677 102.854 100.677 104.409C100.677 107.927 100.35 111.527 99.9408 115.045C99.7772 116.6 99.3681 118.4 98.8772 120.118C98.6318 120.936 98.4681 121.1 97.9772 121.836C98.3045 121.345 98.7954 121.1 99.3681 121.182C98.5499 121.018 97.7318 120.773 96.9954 120.609C90.6954 119.054 84.1499 119.463 77.8499 121.018C71.5499 122.573 66.2318 126.418 59.6863 127.645C61.6499 131.082 63.6954 134.518 65.659 137.873C67.1318 136.154 68.7681 134.927 69.9136 132.8C71.1409 130.509 73.1863 128.709 74.9863 126.909C79.4863 122.409 84.0681 117.991 88.159 113.082C91.6772 108.909 94.2954 104 97.4045 99.4999C98.7954 97.4544 100.514 95.7362 102.559 94.3453C103.459 93.6908 104.441 92.9544 105.504 92.6271C103.786 93.2817 104.114 91.809 104.932 94.018C106.404 98.109 106.404 102.773 106.404 107.027C106.404 112.509 105.586 117.991 102.886 122.818C101.904 124.536 100.923 126.336 99.6136 127.809C98.2227 129.445 96.5863 129.363 94.6227 129.445C90.0408 129.691 83.659 129.282 80.2227 128.791C77.359 128.382 74.1681 127.891 71.7136 126.5C70.6499 125.927 71.4681 126.173 71.3863 126.991C71.8772 124.209 73.759 121.427 74.8227 118.809C78.9954 108.009 87.5863 100.318 97.2409 94.5908C99.7772 93.118 102.395 91.5635 105.014 90.1726C105.423 89.9271 105.914 89.6817 106.323 89.5181C107.632 89.1908 107.55 88.8635 105.995 88.6999C106.486 89.3544 106.568 90.4999 106.732 91.2362C108.123 97.209 106.568 103.427 105.586 109.318C104.523 115.536 103.541 121.836 102.559 128.054C102.314 129.527 102.395 132.064 101.332 133.209C99.6136 135.091 96.3409 134.6 94.1318 134.518C87.7499 134.191 81.4499 133.618 75.0681 133.127C72.0408 132.882 68.9318 132.882 65.9045 132.964C64.4318 132.964 63.0408 133.209 61.6499 133.454C60.8318 133.7 60.0954 133.864 59.2772 134.191C56.659 134.6 57.4772 135.664 61.6499 137.545V140.818C62.059 138.445 62.7136 136.236 62.8772 133.782C63.0408 130.918 63.1227 128.382 63.7772 125.6C65.1681 119.709 67.7863 113.9 70.3227 108.418C72.5318 103.754 75.3954 99.4999 78.9954 95.818C80.959 93.7726 83.3318 92.2181 85.6227 90.6635C87.1772 89.5999 89.4681 86.8999 91.2681 86.6544C99.3681 85.2635 96.0136 73.3999 88.3227 74.709Z" fill="#1B120F" />
    <path d="M51.3411 152.599V146.217H127.105V152.599" fill="#F89D13" />
    <path d="M51.3411 152.599V146.217H127.105V152.599" stroke="#1B120F" stroke-width="4.90909" stroke-miterlimit="10" />
    <path d="M62.5501 157.509C62.4683 157.263 62.4683 157.018 62.3865 156.772C61.8956 158.736 61.3229 160.782 60.832 162.745L61.3229 162.254H52.5683C56.2501 166.345 61.4047 165.936 66.3956 165.282C72.4501 164.463 78.9138 164.382 84.9683 164.954C91.432 165.527 97.732 164.709 104.114 164.872C107.468 164.954 110.659 165.282 114.014 165.118C116.387 165.036 119.087 163.891 121.296 164.709C128.741 167.409 131.932 155.545 124.568 152.845C119.905 151.209 114.587 152.927 109.759 152.927C106.896 152.927 104.032 152.6 101.168 152.6C97.732 152.6 94.2956 153.091 90.8592 153.091C84.7229 153.172 78.9138 152.109 72.7774 152.6C70.1592 152.763 67.541 152.763 64.9229 153.172C64.1865 153.254 63.3683 153.418 62.632 153.5C61.9774 153.582 61.3229 153.582 60.6683 153.582C60.341 153.418 60.4229 153.5 61.0774 153.663C58.8683 151.209 54.6138 151.291 52.4047 153.663C50.3592 155.791 49.7865 157.918 50.5229 160.863C52.5683 168.472 64.432 165.2 62.5501 157.509Z" fill="#1B120F" />
    <path d="M93.3141 77.1571C49.3777 84.1116 51.3413 146.13 51.3413 146.13M89.2232 152.593H51.3413V165.521H127.105V152.593H89.2232Z" stroke="#1B120F" stroke-width="4.90909" stroke-miterlimit="10" />
    <path d="M119.25 48.1134C130.296 45.9861 133.241 38.1316 133.241 38.1316C126.859 20.5407 114.341 11.4589 114.341 11.4589C114.341 11.4589 105.341 19.8043 105.178 23.8134C105.178 23.8134 93.4776 16.1225 78.5049 22.668C78.5049 22.668 62.1413 31.177 48.314 26.1861C48.314 26.1861 30.9685 19.2316 29.8231 23.977C29.8231 23.977 27.1231 32.568 31.8685 40.7498C31.8685 40.7498 36.614 48.3589 38.7413 48.3589C38.7413 48.3589 56.414 50.4043 53.8776 51.2225C53.8776 51.2225 52.7322 54.9861 40.6231 54.3316C40.6231 54.3316 36.2867 54.2498 37.1049 58.4225C38.0049 62.8407 41.0322 67.0952 49.4594 68.6498C49.4594 68.6498 57.3958 71.0225 70.7322 69.0589C84.0685 67.0952 81.3685 80.8407 81.3685 80.8407" stroke="#1B120F" stroke-width="4.90909" stroke-miterlimit="10" />
    <path d="M124.978 68.9737C136.023 69.5464 141.26 63.8191 141.26 63.8191C141.26 63.8191 138.478 52.201 129.805 42.7919" stroke="#1B120F" stroke-width="4.90909" stroke-miterlimit="10" />
    <path d="M91.9225 36.6624C91.9225 38.2987 90.6134 39.6078 89.0589 39.6078C87.5043 39.6078 86.1953 38.2987 86.1953 36.6624C86.1953 35.026 87.5043 33.7169 89.0589 33.7169C90.6953 33.7987 91.9225 35.1078 91.9225 36.6624Z" fill="#F89D13" />
    <path d="M89.0589 39.6078C90.6404 39.6078 91.9225 38.2891 91.9225 36.6624C91.9225 35.0356 90.6404 33.7169 89.0589 33.7169C87.4773 33.7169 86.1953 35.0356 86.1953 36.6624C86.1953 38.2891 87.4773 39.6078 89.0589 39.6078Z" stroke="#F89D13" stroke-width="3.27273" stroke-miterlimit="10" />
    <path d="M88.8141 33.7941C88.8141 33.7941 85.705 33.7123 82.5959 36.8214" stroke="#F89D13" stroke-width="3.27273" stroke-miterlimit="10" />
    <path d="M138.313 66.4453C147.804 79.2908 149.113 93.3635 149.113 93.3635C149.113 93.3635 141.177 98.8453 127.023 95.7362" stroke="#1B120F" stroke-width="4.90909" stroke-miterlimit="10" />
    <path d="M127.105 146.217C127.105 146.217 128.905 130.181 145.105 128.135M126.859 125.353C140.85 131.326 150.341 126.744 150.341 126.744C150.341 126.744 152.305 110.872 145.677 94.9989L126.859 125.353Z" stroke="#1B120F" stroke-width="4.90909" stroke-miterlimit="10" />
    <path d="M111.314 102.442C110.414 103.096 110.66 103.015 111.887 102.115C112.951 101.378 114.178 100.805 115.323 100.233C117.778 99.0054 120.396 98.1872 122.932 97.1236C127.269 95.2418 131.932 92.2963 136.678 92.2145C142.732 92.1327 145.187 83.8691 139.787 80.76C134.796 77.8963 129.314 76.8327 123.914 75.1145C117.778 73.2327 112.623 70.0418 107.06 66.9327C100.187 63.0054 93.9687 73.56 100.841 77.5691C106.405 80.76 111.805 84.0327 117.86 86.16C123.014 87.96 128.741 88.6963 133.487 91.4782C134.551 87.6327 135.532 83.8691 136.596 80.0236C129.641 80.1872 124.241 83.3782 117.941 85.9963C112.541 88.2872 103.378 90.4145 100.596 96.2236C97.4051 103.342 107.96 109.56 111.314 102.442Z" fill="#1B120F" />
  </g>
  <g id="bp" fill="none" transform="scale(0.2222222222222222 0.2222222222222222)">
    <path d="M89.9178 152.427H52.036V165.272H127.8V152.427H52.036V145.963C76.0906 115.936 74.2906 95.1541 70.036 84.1904C67.7451 78.2177 64.7178 75.1904 64.7178 75.1904H114.954C114.954 75.1904 90.6542 99.6541 127.718 145.963V152.427" fill="#1B120F" />
    <path d="M89.9178 152.427H52.036V165.272H127.8V152.427H52.036V145.963C76.0906 115.936 74.2906 95.1541 70.036 84.1904C67.7451 78.2177 64.7178 75.1904 64.7178 75.1904H114.954C114.954 75.1904 90.6542 99.6541 127.718 145.963V152.427" stroke="#1B120F" stroke-width="4.90909" stroke-miterlimit="10" />
    <path d="M115.036 36.4088C115.036 50.5633 103.745 62.0997 89.8359 62.0997C75.9268 62.0997 64.6359 50.6451 64.6359 36.4088C64.7177 22.2542 75.9268 10.7997 89.8359 10.7997C103.745 10.7997 115.036 22.2542 115.036 36.4088Z" fill="#1B120F" />
    <path d="M89.8359 62.1045C103.754 62.1045 115.036 50.6023 115.036 36.4136C115.036 22.2249 103.754 10.7227 89.8359 10.7227C75.9184 10.7227 64.6359 22.2249 64.6359 36.4136C64.6359 50.6023 75.9184 62.1045 89.8359 62.1045Z" stroke="#1B120F" stroke-width="4.90909" stroke-miterlimit="10" />
    <path d="M89.9178 62.1056C89.9178 62.1056 116.918 62.1874 127.718 75.1965H52.1178C62.9178 62.1874 89.9178 62.1056 89.9178 62.1056Z" fill="#1B120F" />
    <path d="M89.9178 62.1056C89.9178 62.1056 116.918 62.1874 127.718 75.1965H52.1178C62.9178 62.1874 89.9178 62.1056 89.9178 62.1056" stroke="#1B120F" stroke-width="4.90909" stroke-miterlimit="10" />
    <path d="M71.3452 88.1212H108.491" stroke="#F89D13" stroke-width="3.27273" stroke-miterlimit="10" />
    <path d="M52.036 145.964H127.8" stroke="#1B120F" stroke-width="4.90909" stroke-miterlimit="10" />
    <path d="M54.1633 149.161H125.672" stroke="#F89D13" stroke-width="1.63636" stroke-miterlimit="10" />
  </g>
  <g id="bq" fill="none" transform="scale(0.2222222222222222 0.2222222222222222)">
    <path d="M127.923 145.07C127.923 145.07 128.414 139.097 124.978 138.361C105.505 134.597 155.169 59.488 155.169 59.488C155.169 59.488 110.005 110.297 112.787 22.2608L112.132 21.8517C89.3869 102.115 68.196 21.8517 68.196 21.8517L67.3778 22.3426C70.1596 110.379 24.996 59.5699 24.996 59.5699C24.996 59.5699 74.6596 134.679 55.1869 138.443C51.7505 139.097 52.2414 145.152 52.2414 145.152" fill="#1B120F" />
    <path d="M127.923 145.07C127.923 145.07 128.414 139.097 124.978 138.361C105.505 134.597 155.169 59.488 155.169 59.488C155.169 59.488 110.005 110.297 112.787 22.2608L112.132 21.8517C89.3869 102.115 68.196 21.8517 68.196 21.8517L67.3778 22.3426C70.1596 110.379 24.996 59.5699 24.996 59.5699C24.996 59.5699 74.6596 134.679 55.1869 138.443C51.7505 139.097 52.2414 145.152 52.2414 145.152" stroke="#1B120F" stroke-width="4.90909" stroke-miterlimit="10" />
    <path d="M52.1597 152.428V145.964H127.923V152.428" fill="#F89D13" />
    <path d="M52.1597 152.428V145.964H127.923V152.428" stroke="#1B120F" stroke-width="4.90909" stroke-miterlimit="10" />
    <path d="M72.3682 16.1994C73.1045 20.6175 69.3409 24.3812 65.0045 23.6448C62.3863 23.2357 60.2591 21.0266 59.85 18.3266C59.1136 13.9084 62.8772 10.1448 67.2136 10.8812C69.8318 11.3721 71.9591 13.4994 72.3682 16.1994Z" fill="#1B120F" />
    <path d="M72.3682 16.1994C73.1045 20.6175 69.3409 24.3812 65.0045 23.6448C62.3863 23.2357 60.2591 21.0266 59.85 18.3266C59.1136 13.9084 62.8772 10.1448 67.2136 10.8812C69.8318 11.3721 71.9591 13.4994 72.3682 16.1994V16.1994Z" stroke="#1B120F" stroke-width="4.90909" stroke-miterlimit="10" />
    <path d="M26.8775 54.2449C27.6139 58.6631 23.8502 62.4267 19.5139 61.6903C16.8957 61.2813 14.7684 59.0722 14.3593 56.3722C13.6229 51.954 17.3048 48.1903 21.7229 48.9267C24.3411 49.4176 26.4684 51.5449 26.8775 54.2449Z" fill="#1B120F" />
    <path d="M26.8775 54.2449C27.6139 58.6631 23.8502 62.4267 19.5139 61.6903C16.8957 61.2813 14.7684 59.0722 14.3593 56.3722C13.6229 51.954 17.3048 48.1903 21.7229 48.9267C24.3411 49.4176 26.4684 51.5449 26.8775 54.2449V54.2449Z" stroke="#1B120F" stroke-width="4.90909" stroke-miterlimit="10" />
    <path d="M59.114 136.56H120.969" stroke="#F89D13" stroke-width="3.27273" stroke-miterlimit="10" />
    <path d="M107.714 16.1226C106.978 20.5408 110.741 24.3044 115.078 23.568C117.696 23.1589 119.823 20.9498 120.232 18.2498C120.969 13.8317 117.205 10.068 112.869 10.8044C110.25 11.2953 108.123 13.4226 107.714 16.1226Z" fill="#1B120F" />
    <path d="M107.714 16.1226C106.978 20.5408 110.741 24.3044 115.078 23.568C117.696 23.1589 119.823 20.9498 120.232 18.2498C120.969 13.8317 117.205 10.068 112.869 10.8044C110.25 11.2953 108.123 13.4226 107.714 16.1226V16.1226Z" stroke="#1B120F" stroke-width="4.90909" stroke-miterlimit="10" />
    <path d="M153.205 54.1681C152.469 58.5863 156.232 62.3499 160.569 61.6136C163.187 61.2045 165.314 58.9954 165.723 56.2954C166.46 51.8772 162.696 48.1136 158.36 48.8499C155.741 49.3408 153.614 51.4681 153.205 54.1681Z" fill="#1B120F" />
    <path d="M153.205 54.1681C152.469 58.5863 156.232 62.3499 160.569 61.6136C163.187 61.2045 165.314 58.9954 165.723 56.2954C166.46 51.8772 162.696 48.1136 158.36 48.8499C155.741 49.3408 153.614 51.4681 153.205 54.1681V54.1681Z" stroke="#1B120F" stroke-width="4.90909" stroke-miterlimit="10" />
    <path d="M90.0415 152.183H52.1597V165.028H127.923V152.183H90.0415Z" fill="#1B120F" />
    <path d="M90.0415 152.183H52.1597V165.028H127.923V152.183H90.0415Z" stroke="#1B120F" stroke-width="4.90909" stroke-miterlimit="10" />
    <path d="M146.332 70.6915L91.105 135.246C90.7778 135.655 90.0414 135.41 90.0414 134.837L70.0778 36.5734" stroke="#F89D13" stroke-width="3.27273" stroke-miterlimit="10" />
    <path d="M109.759 36.5734L90.6956 133.61C90.4502 134.755 88.9774 135.164 88.2411 134.264L33.6683 70.7734" stroke="#F89D13" stroke-width="3.27273" stroke-miterlimit="10" />
  </g>
  <g id="br" fill="none" transform="scale(0.2222222222222222 0.2222222222222222)">
    <path d="M130.377 146.04C130.214 97.931 117.941 62.6674 117.941 62.6674L130.377 55.9583V10.8765H111.396V23.7219H101.986V10.8765H83.0046V23.7219H73.5955V10.8765H54.6137V55.9583L67.0501 62.7492C67.0501 62.7492 54.6955 97.931 54.6137 146.122" fill="#1B120F" />
    <path d="M130.377 146.04C130.214 97.931 117.941 62.6674 117.941 62.6674L130.377 55.9583V10.8765H111.396V23.7219H101.986V10.8765H83.0046V23.7219H73.5955V10.8765H54.6137V55.9583L67.0501 62.7492C67.0501 62.7492 54.6955 97.931 54.6137 146.122" stroke="#1B120F" stroke-width="4.90909" stroke-miterlimit="10" />
    <path d="M54.6137 152.505V146.041H130.377V152.505" fill="#F89D13" />
    <path d="M54.6137 152.505V146.041H130.377V152.505" stroke="#1B120F" stroke-width="4.90909" stroke-miterlimit="10" />
    <path d="M92.4955 152.501H54.6137V165.347H130.377V152.501H92.4955Z" fill="#1B120F" />
    <path d="M92.4955 152.501H54.6137V165.347H130.377V152.501H92.4955Z" stroke="#1B120F" stroke-width="4.90909" stroke-miterlimit="10" />
    <path d="M54.6137 55.2173H130.377M67.0501 62.6627H117.941H67.0501Z" stroke="#F89D13" stroke-width="3.27273" stroke-miterlimit="10" />
  </g>
  <g id="wb" fill="none" transform="scale(0.2222222222222222 0.2222222222222222)">
    <path d="M64.3498 146.29C53.0589 138.681 44.9589 125.181 42.8317 111.599C40.4589 97.0358 44.8771 82.3903 51.668 69.6267C55.4317 62.6722 59.9317 56.1267 64.8408 49.9903L83.4135 75.354L96.5044 62.0176L77.1135 36.2449C81.2044 31.9903 85.5408 27.9813 89.8771 23.9722C179.55 104.318 115.486 146.29 115.486 146.29" fill="#E6DEDD" />
    <path d="M64.3498 146.29C53.0589 138.681 44.9589 125.181 42.8317 111.599C40.4589 97.0358 44.8771 82.3903 51.668 69.6267C55.4317 62.6722 59.9317 56.1267 64.8408 49.9903L83.4135 75.354L96.5044 62.0176L77.1135 36.2449C81.2044 31.9903 85.5408 27.9813 89.8771 23.9722C179.55 104.318 115.486 146.29 115.486 146.29" stroke="#4B2A28" stroke-width="4.90909" stroke-miterlimit="10" />
    <path d="M96.341 17.5115C96.341 21.1115 93.4773 24.0569 89.8773 24.0569C86.3592 24.0569 83.4137 21.1115 83.4137 17.5115C83.4137 13.9115 86.2773 10.966 89.8773 10.966C93.3955 10.8842 96.341 13.8297 96.341 17.5115Z" fill="#E6DEDD" />
    <path d="M89.8773 24.0553C93.4471 24.0553 96.341 21.1248 96.341 17.5098C96.341 13.8949 93.4471 10.9644 89.8773 10.9644C86.3076 10.9644 83.4137 13.8949 83.4137 17.5098C83.4137 21.1248 86.3076 24.0553 89.8773 24.0553Z" stroke="#4B2A28" stroke-width="4.90909" stroke-miterlimit="10" />
    <path d="M52.0773 152.758V146.294H127.759V152.758" fill="#E6DEDD" />
    <path d="M52.0773 152.758V146.294H127.759V152.758" stroke="#4B2A28" stroke-width="4.90909" stroke-miterlimit="10" />
    <path d="M89.9591 152.754H52.0773V165.599H127.759V152.754H89.9591Z" fill="#E6DEDD" />
    <path d="M89.9591 152.754H52.0773V165.599H127.759V152.754H89.9591Z" stroke="#4B2A28" stroke-width="4.90909" stroke-miterlimit="10" />
  </g>
  <g id="wk" fill="none" transform="scale(0.2222222222222222 0.2222222222222222)">
    <path d="M90.0408 152.677H52.159V165.522H127.841V152.677H90.0408Z" fill="#E6DEDD" />
    <path d="M90.0408 152.677H52.159V165.522H127.841V152.677H90.0408Z" stroke="#4B2A28" stroke-width="4.90909" stroke-miterlimit="10" />
    <path d="M52.159 146.206V152.67H127.841V146.206" fill="#E6DEDD" />
    <path d="M52.159 146.206V152.67H127.841V146.206" stroke="#4B2A28" stroke-width="4.90909" stroke-miterlimit="10" />
    <path d="M96.2596 64.3916V43.2007H115.241V30.2734H96.2596L96.3414 10.9644H83.6596V30.2734H64.7596V43.1189H83.6596V64.3916" fill="#E6DEDD" />
    <path d="M96.2596 64.3916V43.2007H115.241V30.2734H96.2596L96.3414 10.9644H83.6596V30.2734H64.7596V43.1189H83.6596V64.3916" stroke="#4B2A28" stroke-width="4.90909" stroke-miterlimit="10" />
    <path d="M164.659 70.2829C158.85 46.8011 136.432 44.3465 136.432 44.3465C104.932 39.9283 90.3684 74.4556 89.9593 75.3556C89.632 74.5374 74.9866 39.9283 43.4866 44.3465C43.4866 44.3465 21.0684 46.8011 15.2593 70.2829C15.2593 70.2829 3.96839 112.665 52.0775 146.21H127.759C175.95 112.747 164.659 70.2829 164.659 70.2829Z" fill="#E6DEDD" />
    <path d="M164.659 70.2829C158.85 46.8011 136.432 44.3465 136.432 44.3465C104.932 39.9283 90.3684 74.4556 89.9593 75.3556C89.632 74.5374 74.9866 39.9283 43.4866 44.3465C43.4866 44.3465 21.0684 46.8011 15.2593 70.2829C15.2593 70.2829 3.96839 112.665 52.0775 146.21H127.759C175.95 112.747 164.659 70.2829 164.659 70.2829V70.2829Z" stroke="#4B2A28" stroke-width="4.90909" stroke-miterlimit="10" />
    <path d="M132.096 63.3248C111.56 61.5248 96.4232 104.97 96.4232 104.97V131.807C96.4232 131.807 117.86 131.316 134.55 113.97C151.241 96.543 152.632 65.1248 132.096 63.3248ZM47.8232 63.3248C27.2868 65.1248 28.6777 96.543 45.3686 113.97C62.0595 131.398 83.6595 131.807 83.6595 131.807V104.97C83.6595 104.97 68.3595 61.6066 47.8232 63.3248V63.3248Z" stroke="#4B2A28" stroke-width="4.90909" stroke-miterlimit="10" />
    <path d="M77.3596 36.7348H102.641M89.9596 23.8075V56.0439V23.8075Z" stroke="#4B2A28" stroke-width="3.27273" stroke-miterlimit="10" />
    <path d="M83.6595 64.3907H96.2595" stroke="#4B2A28" stroke-width="4.90909" stroke-miterlimit="10" />
  </g>
  <g id="wn" fill="none" transform="scale(0.2222222222222222 0.2222222222222222)">
    <path d="M106.65 147.593C114.586 147.593 114.586 135.32 106.65 135.32C98.7955 135.32 98.7955 147.593 106.65 147.593ZM58.541 33.1293C56.9046 30.6748 54.8592 29.5293 52.1592 28.4657C49.2955 27.4021 46.841 25.6839 43.9773 24.6202C38.4955 22.5748 28.9228 20.2021 28.4319 29.1202C28.2682 31.6566 29.4137 33.8657 30.3137 36.2384C31.541 39.2657 32.7682 42.4566 35.0592 44.9112C37.1864 47.2839 39.641 48.593 42.5864 49.7384C44.141 50.393 46.4319 50.393 48.0682 49.9839C48.9682 49.8202 49.7864 49.493 50.6046 49.0839C51.9137 48.4293 52.0773 48.3475 51.0955 48.7566C53.4682 47.7748 55.9228 45.7293 55.5955 42.8657C55.1046 38.3657 51.9955 35.4202 47.8228 34.1112C42.2592 32.393 36.941 40.4112 41.8501 44.3384C46.6773 48.2657 55.1864 56.3657 60.5864 48.6748C64.5955 43.0293 59.6046 34.2748 56.3319 29.6112C54.041 32.6384 51.7501 35.5839 49.3773 38.6112C52.4046 39.1839 55.1046 41.1475 58.2137 41.7202C62.7955 42.4566 67.2955 40.8202 69.341 36.4021C70.8955 33.0475 69.9137 28.2202 65.6592 27.4021C63.4501 26.993 61.5682 27.1566 59.3592 27.1566C51.4228 27.2384 51.4228 39.4293 59.3592 39.4293C65.5773 39.4293 71.5501 38.8566 76.6228 34.9293C78.7501 33.293 82.1046 33.4566 84.641 32.8021C88.5682 31.7384 91.2682 30.6748 95.2773 31.8202C100.514 33.293 104.605 36.8112 110.332 35.5839C113.277 34.9293 115.486 32.1475 116.141 29.3657C116.55 27.6475 116.223 26.093 115.977 24.4566C115.405 25.9293 115.486 26.1748 116.141 25.2748C116.877 24.7839 116.796 24.7021 115.814 25.1112C114.75 24.8657 113.768 24.5384 112.705 24.293C113.686 24.7839 114.668 28.0566 115.568 29.3657C117.286 31.9021 119.086 34.2748 120.641 36.893L121.377 38.3657L121.296 38.2839C121.705 40.493 122.523 39.1839 123.668 34.5202C122.032 35.1748 120.232 35.4202 118.596 36.0748C119.659 35.6657 120.15 38.693 118.759 35.5839C118.432 34.7657 118.186 33.8657 117.941 32.9657C117.45 30.9202 119.741 32.8839 116.55 34.6839C115.486 34.9293 114.505 35.2566 113.441 35.5021C110.25 35.9112 111.968 31.4112 112.786 30.7566C111.396 31.7384 109.923 32.7202 108.532 33.6202C105.75 35.4202 102.805 36.9748 99.941 38.6112C93.8864 42.1293 88.1591 46.2202 82.2682 49.9839C76.6228 53.5839 71.5501 57.593 64.9228 58.9839C61.6501 59.7202 58.6228 58.5748 55.5955 57.593C52.4046 56.5293 48.8864 56.1202 46.1046 54.2384C45.041 58.0839 44.0592 61.8475 42.9955 65.693C50.6864 66.6748 56.3319 64.793 62.3864 59.8839C65.2501 57.5112 67.4592 54.8111 67.7046 50.9657C67.8682 49.2475 67.541 47.6112 67.0501 45.9748C66.8864 45.5657 66.7228 45.1566 66.5592 44.6657C66.4773 44.4202 66.3955 44.1748 66.3955 43.9293C66.4773 45.2384 65.9864 46.3021 64.841 47.1202C63.7773 47.3657 62.7955 47.693 61.7319 47.9384C63.7773 47.8566 63.041 47.2021 59.441 45.9748C59.1137 44.1748 58.9501 43.8475 59.0319 44.993C59.0319 45.7293 58.9501 45.8112 58.7046 46.9566C58.2137 49.1657 57.3955 51.3748 56.8228 53.5839C55.1046 59.4748 57.9682 66.6748 65.3319 64.793C68.1137 64.0566 70.4046 61.2748 72.041 59.1475C74.5773 55.9566 75.9682 52.1111 76.2137 48.1021C76.2955 46.4657 76.2137 44.8293 76.1319 43.193V39.7566C76.1319 39.2657 76.2137 38.693 76.2137 38.2021C76.2137 38.2839 76.2137 38.4475 76.1319 38.5293C76.6228 36.893 75.8864 37.6293 73.9228 40.8202C72.8592 41.0657 71.8773 41.393 70.8137 41.6384H71.141C70.0773 41.393 69.0955 41.0657 68.0319 40.8202C68.7682 41.1475 71.141 43.6839 71.2228 45.4839C71.3864 47.4475 70.5682 49.7384 70.3228 51.7021C70.0773 54.4021 71.0592 57.2657 72.4501 59.4748C75.4773 64.3839 81.6955 62.7475 83.6592 58.0021C86.2773 51.6202 86.8501 44.7475 86.3591 37.9566C86.2773 37.2202 86.2773 36.5657 86.3591 35.8293C82.6773 37.4657 81.8591 38.4475 84.1501 38.693C84.4773 38.7748 84.8864 38.8566 85.2137 39.0202C86.6864 40.0021 86.441 39.1021 84.4773 36.4021C84.0682 38.3657 82.7592 40.4112 82.0228 42.293C79.7319 48.4293 84.8864 54.7293 91.3501 51.6202C94.1319 50.3111 96.0955 47.8566 97.9773 45.4021C98.9592 44.093 99.6137 42.6202 100.186 41.1475C100.514 40.493 100.759 39.7566 101.005 39.1021C101.823 36.893 102.723 36.5657 100.186 38.4475C99.1228 38.693 98.141 39.0202 97.0773 39.2657C95.1955 39.4293 95.7682 38.8566 96.9955 39.8384C97.9773 40.6566 98.9592 41.393 100.105 42.1293C102.641 43.8475 105.341 43.193 108.041 42.5384L100.514 35.0112C99.941 39.0202 99.041 42.8657 99.041 46.9566C98.9592 50.0657 96.4228 52.0293 94.4592 54.1566C92.0864 56.693 89.9591 59.6384 88.0773 62.5839C87.4228 63.6475 86.8501 64.793 86.3591 66.0202C86.1137 66.5112 85.9501 67.0021 85.7046 67.493C84.641 69.7021 84.3955 68.0657 86.6864 67.5748H89.9592C92.0864 70.1111 92.741 70.4384 92.0864 68.5566C91.7591 67.3293 91.2682 66.2657 90.6137 65.2021C89.9592 64.1384 88.9773 63.2384 87.9137 62.5839C85.9501 61.2748 86.9319 61.0293 87.9137 63.6475V66.9202C87.9955 66.6748 88.0773 66.5112 88.1592 66.2657C89.2228 63.0748 87.0137 59.5566 83.9046 58.7384C82.9228 58.493 81.8591 58.4112 80.8773 58.0021C81.3682 61.7657 81.8591 65.4475 82.3501 69.2112C86.6864 66.7566 91.4319 65.1202 95.6864 62.6657C92.5773 60.8657 89.5501 59.1475 86.441 57.3475C86.6864 59.7202 85.2955 62.5021 84.3955 64.6293C83.6591 66.3475 83.0046 67.9839 82.6773 69.7839C82.5137 70.6021 82.4319 71.5021 82.5137 72.3202C82.6773 71.8293 82.841 71.4202 83.0046 70.9293L81.5319 72.893C77.1137 79.4384 87.7501 85.5748 92.1682 79.1111C93.1501 77.6384 93.9682 76.5748 94.541 74.8566C94.8682 73.793 94.541 72.8111 94.7864 71.7475C95.0319 70.5202 95.6864 69.293 96.1773 68.0657C97.4864 64.7112 99.2864 60.9475 98.7955 57.2657C98.2228 52.8475 93.9682 49.4112 89.5501 51.9475C85.2137 54.4839 80.5501 56.1202 76.2137 58.493C71.2228 61.2748 72.941 67.9839 77.6864 69.7021C78.6682 70.1111 79.7319 70.1111 80.7137 70.4384C79.3228 67.9021 77.8501 65.3657 76.4592 62.9112C75.4773 65.8566 76.541 68.4748 78.5864 70.6839L80.5501 72.1566C81.6137 72.893 81.5319 72.8111 80.4682 71.7475C80.9592 73.2202 81.3682 74.6112 82.2682 75.9202C86.6046 82.2202 93.641 79.193 96.5864 73.5475C97.8955 71.1748 98.8773 68.8021 100.432 66.5112C102.232 63.893 104.605 61.6839 106.732 59.2293C112.05 53.2566 111.723 45.7293 112.705 38.2021C113.359 33.5384 110.168 29.5293 105.177 30.6748C103.132 31.1657 107.386 32.0657 105.341 30.5112C104.196 29.6112 103.05 28.7112 101.741 27.9748C99.3682 26.5839 96.1773 26.5021 93.9682 28.1384C91.2682 30.1021 90.6137 32.8021 89.6319 35.8293C89.2228 37.0566 88.5682 38.1202 87.8319 39.2657C87.2592 40.1657 85.4592 40.6566 86.6864 40.493C88.241 40.7384 89.8773 40.9021 91.4319 41.1475C92.0864 41.7202 92.6591 42.3748 93.3137 42.9475C93.5592 44.0112 93.8864 44.993 94.1319 46.0566C94.2137 47.6111 94.1319 46.3021 94.2955 45.6475C94.541 44.993 94.6228 44.9112 95.0319 44.0112C96.0137 41.8839 97.241 39.593 97.241 37.2202C97.1591 31.0021 91.7591 27.4021 86.0319 26.5839C78.9137 25.6021 74.8228 30.0202 74.5773 36.893C74.4955 39.3475 74.9864 41.7202 74.8228 44.1748C74.5773 47.8566 73.7592 51.3748 72.3682 54.8111L83.5773 53.3384C82.3501 51.3748 83.9046 47.7748 83.9864 45.4839C84.1501 42.6202 83.0864 39.6748 81.5319 37.3021C79.0773 33.7021 73.3501 26.3384 68.1955 30.1839C63.941 33.3748 64.1864 38.3657 64.2682 43.193C64.2682 44.5839 64.5137 46.6293 64.3501 47.7748C64.1864 49.0839 63.7773 50.4748 62.9592 51.4566C62.3046 52.2748 59.9319 53.6657 61.8137 53.1748C63.3682 53.4202 65.0046 53.5839 66.5592 53.8293L66.0682 53.5839C66.9682 54.8111 67.9501 56.0384 68.8501 57.2657C69.0955 57.8384 68.3592 59.393 68.7682 57.593C69.0137 56.693 69.2592 55.793 69.5046 54.9748C70.1592 52.9293 70.7319 50.9657 71.141 48.8384C72.1228 43.4384 70.9773 37.793 65.1682 35.993C57.3137 33.6202 53.4682 41.7202 55.0228 48.0202C55.1864 48.4293 55.2682 48.9202 55.4319 49.3293C55.7592 50.8021 55.9228 50.8839 55.841 49.6566C54.6955 50.4748 53.141 51.5384 51.9137 52.3566C49.1319 54.3202 46.1046 53.5839 43.0773 53.1748C36.4501 52.3566 35.5501 61.5202 39.9682 64.6293C44.3046 67.6566 50.1955 68.5566 55.1864 70.193C61.3228 72.1566 67.9501 71.2566 73.9228 69.1293C79.1592 67.2475 83.9046 63.4021 88.5682 60.4566C94.0501 57.0202 99.3682 53.2566 105.014 49.9021C112.705 45.2384 128.741 39.5112 122.196 27.893C119.659 23.4748 114.259 21.8384 109.841 24.3748C105.423 26.9112 105.505 32.6384 106.486 36.9748C107.386 40.7384 109.596 44.7475 112.786 47.0384C117.041 50.1475 123.505 47.693 127.923 45.893C137.905 41.7202 132.341 31.7384 127.923 25.5202C123.586 19.4657 120.068 8.91115 110.496 14.2293C105.996 16.7657 103.05 21.6748 104.032 26.8293C104.605 29.8566 109.923 24.293 106.814 23.3112C105.996 23.0657 105.177 22.5748 104.359 22.1657C101.659 20.8566 98.7955 19.8748 95.8501 19.2202C88.9773 17.6657 82.841 21.0202 76.2137 21.9202C73.1864 22.3293 71.141 23.8839 68.6864 25.6021C66.0682 27.4021 62.3864 27.0748 59.441 27.0748V39.3475C60.341 39.3475 61.5682 38.9384 62.4682 39.1839C61.241 36.1566 60.0137 33.2112 58.7864 30.1839C57.7228 32.4748 59.1137 29.5293 60.7501 29.7748C59.8501 29.6112 58.9501 29.2839 58.1319 28.9566C56.3319 28.2202 54.6137 27.2384 52.6501 26.8293C47.9046 25.9293 42.341 31.0021 45.6955 35.8293C46.5137 36.9748 47.741 38.0384 48.2319 39.2657C48.5592 40.0839 48.8864 40.9021 49.1319 41.7202C49.7046 43.4384 49.0501 43.9293 50.0319 42.5384C51.2592 41.6384 52.4864 40.6566 53.7137 39.7566C53.5501 39.8384 53.3046 39.8384 53.141 39.9202H56.4137C54.2864 39.4293 52.3228 37.1384 50.6864 35.7475C48.7228 39.1839 46.6773 42.6202 44.7137 45.9748C45.041 46.0566 44.8773 45.9748 44.3046 45.6475C44.0592 44.5839 43.7319 43.6021 43.4864 42.5384V42.8657C44.9592 40.9021 46.5137 38.9384 47.9864 36.9748C47.4137 37.2202 45.4501 37.8748 46.0228 37.9566C44.8773 37.7112 44.141 36.5657 43.6501 35.7475C42.6682 34.193 40.8682 30.1839 40.9501 29.2021C40.7046 30.2657 40.3773 31.2475 40.1319 32.3112C40.2137 32.1475 40.2955 32.0657 40.3773 31.9021C39.1501 32.8021 37.9228 33.7839 36.6955 34.6839C34.5682 35.5839 37.3501 35.5021 38.3319 35.7475C40.0501 36.1566 41.3592 36.9748 42.9137 37.793C44.3864 38.6112 45.8592 39.2657 47.4137 39.8384C49.3773 40.5748 49.3773 41.1475 48.1501 39.4293C52.3228 45.893 62.9592 39.7566 58.541 33.1293Z" fill="#E6DEDD" />
    <path d="M110.004 52.3631C112.786 53.4268 115.077 55.4722 118.268 55.4722C120.068 55.4722 121.868 55.2268 123.586 54.8177C124.241 54.654 124.977 54.4904 125.632 54.4904C123.913 53.5904 123.586 53.6722 124.65 54.5722C126.122 56.045 126.859 58.8268 127.677 60.7086C128.004 61.5268 128.413 62.2631 128.741 62.9995C127.432 59.5631 132.995 58.254 128.986 59.645C126.286 60.545 123.668 61.1177 121.05 62.2631C117.941 63.5722 114.995 65.3722 112.05 67.0904C109.186 68.7268 106.322 70.445 103.295 71.5904C101.741 72.245 100.022 72.5722 98.3861 72.9813C99.0406 72.8995 98.877 72.8995 97.977 72.9813C96.2588 72.8177 96.7497 73.3086 99.3679 74.2904C99.6134 75.845 99.777 77.4813 100.022 79.0359C100.513 76.9086 103.704 73.9631 105.341 72.0813C108.204 68.8086 109.677 65.2086 111.559 61.2813C113.113 58.0904 114.832 60.4631 117.777 61.5268C118.922 61.9359 120.15 62.345 121.295 62.754C121.622 62.9177 122.032 62.9995 122.359 63.1631C123.913 63.8177 123.832 64.7177 122.604 62.6722C122.359 61.6086 122.032 60.6268 121.786 59.5631C121.95 58.3359 122.441 57.354 123.259 56.6995C122.604 57.1086 122.686 57.0268 121.95 57.2722C120.395 57.845 118.841 58.1722 117.286 58.4995C112.95 59.4813 109.022 61.1177 105.013 62.9177C107.468 66.1086 110.004 69.3813 112.459 72.5722C113.277 71.6722 114.095 70.6904 114.913 69.7086C115.486 69.054 116.059 68.4813 116.632 67.8268C117.695 67.0086 117.941 66.7631 117.286 67.0904C115.732 66.845 114.095 66.6813 112.541 66.4359C110.495 65.454 110.659 64.3904 112.05 66.5177C112.704 67.5813 113.522 68.3995 114.422 69.2177C116.304 70.9359 118.513 71.8359 120.804 72.8177C124.568 74.3722 128.904 73.8813 131.277 77.645C132.422 79.5268 133.322 81.5722 134.386 83.5359C134.959 84.5177 135.532 85.4995 135.941 86.5631C136.022 86.9722 136.186 87.3813 136.268 87.7904C136.268 89.5904 137.168 89.1813 139.05 86.7268C137.741 86.8086 136.268 86.2359 134.959 86.0722C131.604 85.5813 128.25 85.8268 124.977 85.4177C126.45 88.9359 127.841 92.3722 129.313 95.8904C130.377 94.9086 131.932 94.3359 133.077 93.4359C135.204 91.7995 136.922 89.6722 137.822 87.1359C139.459 82.6359 137.495 78.6268 134.632 75.1904C129.722 69.2995 116.55 65.945 114.341 76.3359C112.786 83.5359 117.695 88.6086 121.213 94.254C123.013 97.1995 123.422 101.045 124.568 104.318C126.122 108.409 128.577 111.763 132.341 114.054C134.059 115.118 136.841 115.281 138.559 114.054C143.386 110.454 145.35 105.545 145.841 99.654C146.413 92.6177 138.968 88.7722 133.322 92.2086C129.559 94.4995 129.068 100.718 133.322 102.845C134.468 103.418 135.45 103.909 136.677 104.072C137.577 104.236 138.477 104.318 139.295 104.318C137.168 102.436 136.595 102.19 137.577 103.663C138.722 105.79 138.722 109.718 138.968 112.09C139.132 113.645 139.295 115.2 139.459 116.672C139.622 117.327 139.704 118.063 139.704 118.718C142.65 116.836 143.059 116.018 141.013 116.263C137.741 116.263 134.713 116.263 131.441 116.754C126.859 117.49 119.986 118.799 118.595 123.954C116.55 131.236 123.832 133.281 128.904 135.327L126.204 125.099C124.241 127.063 122.604 129.272 120.968 131.481C120.313 132.463 119.495 133.363 118.677 134.181L119.904 133.936C119.332 133.69 118.677 133.445 118.022 133.281C110.413 130.827 107.468 142.363 114.75 145.145C118.104 146.372 123.259 148.581 126.777 144.654C130.704 140.318 127.268 135.163 126.204 130.499C124.486 123.218 137.332 121.009 141.75 119.454C146.986 117.654 147.559 111.354 143.222 108.245C140.441 106.281 136.677 106.445 133.404 106.527C131.932 106.527 124.404 106.036 123.995 105.136C121.95 100.227 122.113 94.4995 121.622 89.345C121.213 84.845 120.886 78.545 118.268 74.6995C115.077 69.8722 106.568 71.345 106.813 77.8086C106.977 83.045 110.086 88.3631 112.377 93.0268C113.604 95.4813 115.241 97.6904 116.959 99.8995C117.777 100.963 120.722 103.745 120.641 104.89C120.886 103.827 121.213 102.845 121.459 101.781C122.277 101.209 122.195 101.209 121.132 101.863L119.413 102.845C117.695 103.827 116.059 105.218 114.504 106.527C110.904 109.554 109.432 113.4 108.859 117.9C108.368 121.99 108.368 126.572 109.186 130.581C109.677 132.872 108.532 135.899 106.732 137.781C101.25 143.509 109.922 152.181 115.404 146.454C119.332 142.363 122.604 135.49 121.541 129.763C120.886 126.245 120.886 122.89 120.968 119.29C121.05 116.018 123.75 114.463 126.368 112.909C129.068 111.354 131.686 109.718 132.586 106.527C133.568 102.927 131.686 99.4904 129.722 96.6268C127.677 93.6813 125.304 91.2268 123.504 88.1177C121.95 85.4995 119.004 80.9995 118.922 77.8904C115.077 78.954 111.313 79.9359 107.468 80.9995C108.532 82.6359 108.368 85.0904 108.695 86.9722C109.186 89.6722 109.35 92.3722 109.513 95.154C109.922 100.554 110.495 107.018 113.441 111.763C116.059 116.018 121.213 117.327 125.795 118.063C128.168 118.472 130.704 118.799 133.159 118.799C134.141 118.799 136.759 118.799 136.759 118.881C137.25 115.118 137.741 111.436 138.232 107.672C130.541 110.29 121.704 112.336 116.795 119.372C114.177 123.136 113.195 127.881 113.932 132.463C114.259 134.672 114.913 136.636 115.732 138.681C117.204 142.118 124.159 135.736 120.641 134.59C119.659 134.263 118.759 133.772 117.777 133.445C116.713 137.372 115.568 141.299 114.504 145.309C118.841 146.7 122.441 146.945 126.122 143.836C129.477 140.972 131.359 136.963 134.55 133.936C138.232 130.418 135.941 125.345 131.85 123.709C131.359 123.463 130.868 123.299 130.295 123.136L129.313 122.89C127.922 122.399 128.004 122.481 129.477 123.299C129.722 124.363 130.05 125.345 130.295 126.409V125.836C130.05 126.899 129.722 127.881 129.477 128.945C128.741 130.09 127.022 130.581 128.741 130.254C129.395 130.09 129.968 130.009 130.622 129.845C133.404 129.109 135.777 128.536 138.722 128.7C144.859 128.945 150.668 127.145 151.568 120.109C151.895 117.572 151.241 114.954 150.995 112.336C150.668 108.981 150.095 105.709 149.522 102.436C149.113 100.063 147.968 96.4631 145.922 94.9086C144.859 94.0086 143.959 93.1904 142.568 92.7813C141.832 92.5359 138.886 92.3722 139.213 92.454V103.09C139.541 102.927 139.868 102.681 140.195 102.518C139.132 102.763 138.15 103.09 137.086 103.336C137.332 103.336 137.659 103.254 137.904 103.254C136.841 103.009 135.859 102.681 134.795 102.436C132.422 101.29 133.65 98.5086 132.995 101.372C132.832 101.945 132.341 103.5 132.013 103.745H138.232C135.286 101.945 134.877 97.445 133.977 94.3359C132.832 90.4086 130.868 87.3813 128.577 84.1086C127.677 82.8813 126.695 81.5722 126.122 80.1813C125.632 79.0359 126.041 79.445 125.468 80.754C124.322 83.454 121.05 80.8359 123.75 82.4722C124.486 82.8813 125.059 83.6177 125.632 84.2722C126.368 85.0086 125.304 84.5177 125.795 83.6995C124.977 85.0904 121.541 86.3995 120.313 87.545C116.059 91.6359 119.659 97.445 124.65 98.0177C128.25 98.4268 131.768 98.345 135.368 98.9177C139.213 99.5722 142.813 99.245 145.677 96.3813C152.468 89.6722 145.104 78.1359 141.504 71.754C139.622 68.4813 136.841 65.6995 133.404 64.2268C129.804 62.6722 125.713 62.5086 122.277 60.545C121.213 59.9722 120.722 58.1722 119.904 57.354C118.268 55.7177 115.732 54.9813 113.522 55.5541C109.104 56.7813 106.241 60.8722 103.295 64.145C98.4679 69.6268 104.441 76.5813 110.741 73.7995C114.095 72.3268 117.286 71.1813 120.804 70.445C123.832 69.7904 126.941 68.8904 129.559 67.1722C132.913 64.9631 135.041 60.4631 132.75 56.6995C130.786 53.345 126.695 52.0359 123.177 50.8086C119.904 49.6631 116.55 47.3722 113.032 47.3722C107.55 47.3722 103.05 50.5631 100.35 55.2268C99.3679 57.0268 98.7134 58.9904 97.8134 60.8722C96.7497 62.9995 95.0315 64.6359 93.477 66.4359C90.777 69.4631 86.277 74.6995 87.5043 79.1177C90.3679 89.5086 104.522 84.354 110.904 81.4086C115.159 79.445 119.086 76.8268 123.177 74.6177C127.104 72.4904 131.359 71.9177 135.368 70.0359C144.286 65.8631 138.559 55.7177 135.122 49.4995C133.077 45.8177 129.968 42.8722 125.632 42.3813C123.259 42.054 121.05 42.954 118.759 43.1995C116.959 43.445 114.177 41.2359 112.459 40.5813C109.35 39.354 105.75 41.8904 104.932 44.8359C104.768 48.2722 106.895 51.1359 110.004 52.3631Z" fill="#E6DEDD" />
    <path d="M88.4867 74.6978C83.9867 75.4342 79.7322 80.016 76.1322 82.6342C71.3867 86.0706 67.5413 90.2433 64.2685 95.0706C60.9958 99.7342 58.7867 104.971 56.6595 110.289C54.2867 116.098 52.0776 121.825 51.3413 128.043C51.014 130.661 51.4231 133.443 50.6867 135.898C50.0322 138.189 49.7867 140.725 51.014 142.852C54.6958 149.152 60.9958 145.471 66.314 145.143C78.3413 144.489 90.4504 148.334 102.396 146.289C115.405 143.998 115.078 128.861 116.714 118.798C118.514 107.671 122.687 94.1706 117.369 83.3706C110.905 70.1978 96.2594 80.9978 88.0776 85.9887C78.4231 91.9615 69.7504 100.88 65.0049 111.271C61.814 118.225 56.2504 127.471 62.4685 134.261C66.9685 139.171 74.1685 140.152 80.3867 140.971C88.2413 141.952 99.0413 143.425 105.914 138.761C113.196 133.771 117.123 123.543 118.35 115.198C119.496 107.098 119.496 97.5251 116.714 89.7524C115.159 85.416 112.378 82.4706 108.123 80.7524C103.459 78.8706 98.3049 82.6342 94.7049 85.2524C86.7685 90.816 83.2504 100.798 76.9504 107.916C73.4322 111.843 69.5867 115.525 65.8231 119.207C62.6322 122.316 60.0958 126.08 57.3958 129.189C53.3049 134.016 57.2322 140.561 63.3685 139.416C69.3413 138.352 74.4958 135.325 80.1413 133.198C86.1958 130.907 91.6776 132.298 97.814 133.116C110.005 134.752 112.132 120.925 112.95 112.007C113.523 106.116 114.341 98.8342 112.378 93.1887C110.332 87.0524 103.541 86.5615 99.0413 90.4069C95.4413 93.516 92.9049 97.9342 90.4504 101.943C88.7322 104.725 87.014 107.507 84.8867 109.961C83.1685 112.007 79.814 113.234 77.6867 114.952C74.4958 117.489 75.8049 122.725 78.914 124.607C81.8595 126.407 85.4595 126.08 88.814 126.243C93.1504 126.489 97.2413 125.834 100.923 123.543C106.978 119.861 106.569 109.88 103.623 104.234C100.023 97.1978 89.3867 103.416 92.9867 110.452C92.4958 109.471 92.9867 111.925 92.9867 112.089C92.9867 112.743 93.0685 113.398 93.1504 114.052C93.1504 115.525 93.314 115.361 93.6413 113.561C92.2504 114.38 90.1231 114.052 88.6504 113.971C88.0776 113.971 84.314 113.561 84.9685 113.971C85.3776 117.161 85.7867 120.434 86.1958 123.625C88.4867 121.743 91.1867 120.761 93.3958 118.716C95.7685 116.425 97.5685 113.316 99.3685 110.616C101.169 107.834 102.887 104.971 104.769 102.271C105.259 101.534 107.305 99.7342 106.65 99.8978H103.378C102.478 99.0797 101.578 98.1797 100.678 97.3615C100.759 98.1797 100.841 98.9978 100.841 99.8978C100.923 101.452 100.923 102.925 100.923 104.48C100.923 107.998 100.596 111.598 100.187 115.116C100.023 116.671 99.614 118.471 99.1231 120.189C98.8776 121.007 98.714 121.171 98.2231 121.907C98.5504 121.416 99.0413 121.171 99.614 121.252C98.7958 121.089 97.9776 120.843 97.2413 120.68C90.9413 119.125 84.3958 119.534 78.0958 121.089C71.7958 122.643 66.4776 126.489 59.9322 127.716L65.9049 137.943C67.3776 136.225 69.014 134.998 70.1595 132.871C71.3867 130.58 73.4322 128.78 75.2322 126.98C79.7322 122.48 84.314 118.061 88.4049 113.152C91.9231 108.98 94.5413 104.071 97.6504 99.5706C99.0413 97.5251 100.759 95.8069 102.805 94.416C103.705 93.7615 104.687 93.0251 105.75 92.6978C104.032 93.3524 104.359 91.8797 105.178 94.0887C106.65 98.1797 106.65 102.843 106.65 107.098C106.65 112.58 105.832 118.061 103.132 122.889C102.15 124.607 101.169 126.407 99.8595 127.88C98.4685 129.516 96.8322 129.434 94.8685 129.516C90.2867 129.761 83.9049 129.352 80.4685 128.861C77.6049 128.452 74.414 127.961 71.9595 126.571C70.8958 125.998 71.714 126.243 71.6322 127.061C72.1231 124.28 74.0049 121.498 75.0685 118.88C79.2413 108.08 87.8322 100.389 97.4867 94.6615C100.023 93.1887 102.641 91.6342 105.259 90.2433C105.669 89.9978 106.159 89.7524 106.569 89.5887C107.878 89.2615 107.796 88.9342 106.241 88.7706C106.732 89.4251 106.814 90.5706 106.978 91.3069C108.369 97.2797 106.814 103.498 105.832 109.389C104.769 115.607 103.787 121.907 102.805 128.125C102.559 129.598 102.641 132.134 101.578 133.28C99.8595 135.161 96.5867 134.671 94.3776 134.589C87.9958 134.261 81.6958 133.689 75.314 133.198C72.2867 132.952 69.1776 132.952 66.1504 133.034C64.6776 133.034 63.2867 133.28 61.8958 133.525C61.0776 133.771 60.3413 133.934 59.5231 134.261C56.9049 134.671 57.7231 135.734 61.8958 137.616V140.889C62.3049 138.516 62.9595 136.307 63.1231 133.852C63.2867 130.989 63.3685 128.452 64.0231 125.671C65.414 119.78 68.0322 113.971 70.5685 108.489C72.7776 103.825 75.6413 99.5706 79.2413 95.8887C81.2049 93.8433 83.5776 92.2887 85.8685 90.7342C87.4231 89.6706 89.714 86.9706 91.514 86.7251C99.5322 85.2524 96.1776 73.3888 88.4867 74.6978Z" fill="#E6DEDD" />
    <path d="M51.5046 152.593V146.129H127.186V152.593" fill="#E6DEDD" />
    <path d="M51.5046 152.593V146.129H127.186V152.593" stroke="#4B2A28" stroke-width="4.90909" stroke-miterlimit="10" />
    <path d="M62.7135 157.498C62.6317 157.252 62.6317 157.007 62.5499 156.761C62.059 158.725 61.4863 160.77 60.9953 162.734L61.4863 162.243H52.7317C56.4135 166.334 61.5681 165.925 66.559 165.27C72.6135 164.452 79.0772 164.37 85.1317 164.943C91.5953 165.516 97.8953 164.698 104.277 164.861C107.632 164.943 110.823 165.27 114.177 165.107C116.55 165.025 119.25 163.88 121.459 164.698C128.904 167.398 132.095 155.534 124.732 152.834C120.068 151.198 114.75 152.916 109.923 152.916C107.059 152.916 104.195 152.589 101.332 152.589C97.8953 152.589 94.459 153.08 91.0226 153.08C84.8863 153.161 79.0772 152.098 72.9408 152.589C70.3226 152.752 67.7044 152.752 65.0863 153.161C64.3499 153.243 63.5317 153.407 62.7953 153.489C62.1408 153.57 61.4863 153.57 60.8317 153.57C60.5044 153.407 60.5863 153.489 61.2408 153.652C59.0317 151.198 54.7772 151.28 52.5681 153.652C50.5226 155.78 49.9499 157.907 50.6863 160.852C52.7317 168.461 64.5953 165.189 62.7135 157.498Z" fill="#E6DEDD" />
    <path d="M93.3957 77.1571C49.4594 84.1116 51.423 146.13 51.423 146.13M89.3048 152.593H51.5048V165.439H127.187V152.593H89.3048Z" stroke="#4B2A28" stroke-width="4.90909" stroke-miterlimit="10" />
    <path d="M119.332 48.0255C130.377 45.8982 133.323 38.0437 133.323 38.0437C126.941 20.5346 114.423 11.371 114.423 11.371C114.423 11.371 105.505 19.7982 105.341 23.7255C105.341 23.7255 93.6411 16.0346 78.6683 22.5801C78.6683 22.5801 62.3047 31.0892 48.4774 26.0982C48.4774 26.0982 31.132 19.1437 29.9865 23.8892C29.9865 23.8892 27.2865 32.4801 32.032 40.6619C32.032 40.6619 36.7774 48.271 38.9047 48.271C38.9047 48.271 56.5774 50.3164 54.0411 51.1346C54.0411 51.1346 52.8956 54.8982 40.7865 54.2437C40.7865 54.2437 36.4502 54.1619 37.2683 58.3346C38.0865 62.671 41.1956 66.9255 49.6229 68.5619C49.6229 68.5619 57.5592 70.9346 70.8956 68.971C84.232 67.0073 81.532 80.7528 81.532 80.7528" stroke="#4B2A28" stroke-width="4.90909" stroke-miterlimit="10" />
    <path d="M125.141 68.9737C136.187 69.5464 141.423 63.8191 141.423 63.8191C141.423 63.8191 138.641 52.201 129.968 42.7919" stroke="#4B2A28" stroke-width="4.90909" stroke-miterlimit="10" />
    <path d="M92.0867 36.6515C92.0867 38.2879 90.7776 39.597 89.2231 39.597C87.6685 39.597 86.3594 38.2879 86.3594 36.6515C86.3594 35.0151 87.6685 33.7061 89.2231 33.7061C90.7776 33.7061 92.0867 35.0151 92.0867 36.6515Z" fill="#4B2A28" />
    <path d="M89.2231 39.597C90.8046 39.597 92.0867 38.2782 92.0867 36.6515C92.0867 35.0248 90.8046 33.7061 89.2231 33.7061C87.6415 33.7061 86.3594 35.0248 86.3594 36.6515C86.3594 38.2782 87.6415 39.597 89.2231 39.597Z" stroke="#4B2A28" stroke-width="3.27273" stroke-miterlimit="10" />
    <path d="M88.8958 33.7063C88.8958 33.7063 85.7867 33.6244 82.6776 36.7335L88.8958 33.7063Z" fill="#4B2A28" />
    <path d="M88.8958 33.7063C88.8958 33.7063 85.7867 33.6244 82.6776 36.7335" stroke="#4B2A28" stroke-width="3.27273" stroke-miterlimit="10" />
    <path d="M138.478 66.4344C147.969 79.2799 149.278 93.3526 149.278 93.3526C149.278 93.3526 141.341 98.8345 127.187 95.7254" stroke="#4B2A28" stroke-width="4.90909" stroke-miterlimit="10" />
    <path d="M126.941 125.266C140.932 131.238 150.423 126.656 150.423 126.656C150.423 126.656 152.386 110.784 145.759 94.911M127.186 146.129C127.186 146.129 128.986 130.093 145.186 128.047" stroke="#4B2A28" stroke-width="4.90909" stroke-miterlimit="10" />
    <path d="M111.478 102.354C110.578 103.008 110.823 102.927 112.05 102.027C113.114 101.29 114.341 100.718 115.487 100.145C117.941 98.9175 120.559 98.0994 123.096 97.0357C127.432 95.1539 132.096 92.2084 136.841 92.1266C142.896 92.0448 145.35 83.7812 139.95 80.6721C134.959 77.8084 129.478 76.7448 124.078 75.0266C117.941 73.1448 112.787 69.9539 107.223 66.8448C100.35 62.9175 94.1321 73.4721 101.005 77.4812C106.569 80.6721 111.969 83.9448 118.023 86.0721C123.178 87.8721 128.905 88.6084 133.65 91.3903C134.714 87.5448 135.696 83.7812 136.759 79.9357C129.805 80.0994 124.405 83.2903 118.105 85.9084C112.705 88.1994 103.541 90.3266 100.759 96.1357C97.4867 103.336 108.041 109.554 111.478 102.354Z" fill="#E6DEDD" />
  </g>
  <g id="wp" fill="none" transform="scale(0.2222222222222222 0.2222222222222222)">
    <path d="M89.9178 152.668H52.036V165.514H127.8V152.668H52.036V146.205C76.0906 116.178 74.2906 95.3958 70.036 84.4321C67.7451 78.4594 64.7178 75.4321 64.7178 75.4321H114.954C114.954 75.4321 90.6542 99.8958 127.718 146.205V152.668" fill="#E6DEDD" />
    <path d="M89.9178 152.668H52.036V165.514H127.8V152.668H52.036V146.205C76.0906 116.178 74.2906 95.3958 70.036 84.4321C67.7451 78.4594 64.7178 75.4321 64.7178 75.4321H114.954C114.954 75.4321 90.6542 99.8958 127.718 146.205V152.668" stroke="#4B2A28" stroke-width="4.90909" stroke-miterlimit="10" />
    <path d="M115.036 36.6553C115.036 50.8098 103.745 62.3462 89.836 62.3462C75.9269 62.3462 64.7178 50.8916 64.7178 36.6553C64.7178 22.5007 76.0087 10.9644 89.836 10.9644C103.745 11.0462 115.036 22.5007 115.036 36.6553Z" fill="#E6DEDD" />
    <path d="M89.836 62.3462C103.754 62.3462 115.036 50.844 115.036 36.6553C115.036 22.4666 103.754 10.9644 89.836 10.9644C75.9184 10.9644 64.636 22.4666 64.636 36.6553C64.636 50.844 75.9184 62.3462 89.836 62.3462Z" stroke="#4B2A28" stroke-width="4.90909" stroke-miterlimit="10" />
    <path d="M89.9178 62.3475C89.9178 62.3475 116.918 62.4294 127.718 75.4384H52.1178C62.9178 62.4294 89.9178 62.3475 89.9178 62.3475Z" fill="#E6DEDD" />
    <path d="M89.9178 62.3475C89.9178 62.3475 116.918 62.4294 127.718 75.4384H52.1178C62.9178 62.4294 89.9178 62.3475 89.9178 62.3475Z" stroke="#4B2A28" stroke-width="4.90909" stroke-miterlimit="10" />
    <path d="M71.3452 88.3632H108.491" stroke="#4B2A28" stroke-width="3.27273" stroke-miterlimit="10" />
    <path d="M52.036 146.206H127.8" stroke="#4B2A28" stroke-width="4.90909" stroke-miterlimit="10" />
  </g>
  <g id="wq" fill="none" transform="scale(0.2222222222222222 0.2222222222222222)">
    <path d="M127.8 145.07C127.8 145.07 128.291 139.097 124.855 138.361C105.382 134.597 155.046 59.488 155.046 59.488C155.046 59.488 109.882 110.297 112.664 22.2608L112.009 21.8517C89.264 102.115 68.073 21.8517 68.073 21.8517L67.2549 22.3426C70.0367 110.379 24.873 59.5699 24.873 59.5699C24.873 59.5699 74.5367 134.679 55.064 138.443C51.6276 139.097 52.1185 145.152 52.1185 145.152" fill="#E6DEDD" />
    <path d="M127.8 145.07C127.8 145.07 128.291 139.097 124.855 138.361C105.382 134.597 155.046 59.488 155.046 59.488C155.046 59.488 109.882 110.297 112.664 22.2608L112.009 21.8517C89.264 102.115 68.073 21.8517 68.073 21.8517L67.2549 22.3426C70.0367 110.379 24.873 59.5699 24.873 59.5699C24.873 59.5699 74.5367 134.679 55.064 138.443C51.6276 139.097 52.1185 145.152 52.1185 145.152" stroke="#4B2A28" stroke-width="4.90909" stroke-miterlimit="10" />
    <path d="M52.0367 152.428V145.964H127.8V152.428" fill="#E6DEDD" />
    <path d="M52.0367 152.428V145.964H127.8V152.428" stroke="#4B2A28" stroke-width="4.90909" stroke-miterlimit="10" />
    <path d="M72.327 16.1994C73.0634 20.6175 69.2997 24.3812 64.9634 23.6448C62.3452 23.2357 60.2179 21.0266 59.8088 18.3266C59.0725 13.9084 62.8361 10.1448 67.1725 10.8812C69.7088 11.3721 71.8361 13.4994 72.327 16.1994Z" fill="#E6DEDD" />
    <path d="M72.327 16.1994C73.0634 20.6175 69.2997 24.3812 64.9634 23.6448C62.3452 23.2357 60.2179 21.0266 59.8088 18.3266C59.0725 13.9084 62.8361 10.1448 67.1725 10.8812C69.7088 11.3721 71.8361 13.4994 72.327 16.1994V16.1994Z" stroke="#4B2A28" stroke-width="4.90909" stroke-miterlimit="10" />
    <path d="M26.7546 54.2449C27.4909 58.6631 23.7273 62.4267 19.3909 61.6903C16.7727 61.2813 14.6455 59.0722 14.2364 56.3722C13.5 51.954 17.1818 48.1903 21.6 48.9267C24.2182 49.4176 26.3455 51.5449 26.7546 54.2449Z" fill="#E6DEDD" />
    <path d="M26.7546 54.2449C27.4909 58.6631 23.7273 62.4267 19.3909 61.6903C16.7727 61.2813 14.6455 59.0722 14.2364 56.3722C13.5 51.954 17.1818 48.1903 21.6 48.9267C24.2182 49.4176 26.3455 51.5449 26.7546 54.2449V54.2449Z" stroke="#4B2A28" stroke-width="4.90909" stroke-miterlimit="10" />
    <path d="M58.9911 136.56H120.846" stroke="#4B2A28" stroke-width="4.09091" stroke-miterlimit="10" />
    <path d="M107.591 16.1226C106.855 20.5408 110.618 24.3044 114.955 23.568C117.573 23.1589 119.7 20.9498 120.109 18.2498C120.846 13.8317 117.164 10.068 112.746 10.8044C110.128 11.2953 108 13.4226 107.591 16.1226Z" fill="#E6DEDD" />
    <path d="M107.591 16.1226C106.855 20.5408 110.618 24.3044 114.955 23.568C117.573 23.1589 119.7 20.9498 120.109 18.2498C120.846 13.8317 117.164 10.068 112.746 10.8044C110.128 11.2953 108 13.4226 107.591 16.1226V16.1226Z" stroke="#4B2A28" stroke-width="4.90909" stroke-miterlimit="10" />
    <path d="M153.082 54.1681C152.346 58.5863 156.109 62.3499 160.446 61.6136C163.064 61.2045 165.191 58.9954 165.6 56.2954C166.336 51.8772 162.573 48.1136 158.236 48.8499C155.618 49.3408 153.491 51.4681 153.082 54.1681Z" fill="#E6DEDD" />
    <path d="M153.082 54.1681C152.346 58.5863 156.109 62.3499 160.446 61.6136C163.064 61.2045 165.191 58.9954 165.6 56.2954C166.336 51.8772 162.573 48.1136 158.236 48.8499C155.618 49.3408 153.491 51.4681 153.082 54.1681V54.1681Z" stroke="#4B2A28" stroke-width="4.90909" stroke-miterlimit="10" />
    <path d="M89.9186 152.183H52.0367V165.028H127.8V152.183H89.9186Z" fill="#E6DEDD" />
    <path d="M89.9186 152.183H52.0367V165.028H127.8V152.183H89.9186Z" stroke="#4B2A28" stroke-width="4.90909" stroke-miterlimit="10" />
    <path d="M146.21 70.6967L90.9822 135.251C90.655 135.66 89.9186 135.415 89.9186 134.842L69.3004 33.3876" stroke="#4B2A28" stroke-width="3.27273" stroke-miterlimit="10" />
    <path d="M110.291 33.3876L90.5725 133.615C90.3271 134.76 88.8544 135.169 88.118 134.269L33.5453 70.7785" stroke="#4B2A28" stroke-width="3.27273" stroke-miterlimit="10" />
  </g>
  <g id="wr" fill="none" transform="scale(0.2222222222222222 0.2222222222222222)">
    <path d="M127.882 146.374C127.8 98.1836 115.446 63.0018 115.446 63.0018L127.882 56.2108V11.129H108.9V23.9745H99.4911V11.129H80.5093V23.9745H71.1002V11.129H52.2002V56.2108L64.6365 63.0018C64.6365 63.0018 52.282 98.1836 52.2002 146.374" fill="#E6DEDD" />
    <path d="M127.882 146.374C127.8 98.1836 115.446 63.0018 115.446 63.0018L127.882 56.2108V11.129H108.9V23.9745H99.4911V11.129H80.5093V23.9745H71.1002V11.129H52.2002V56.2108L64.6365 63.0018C64.6365 63.0018 52.282 98.1836 52.2002 146.374" stroke="#4B2A28" stroke-width="4.90909" stroke-miterlimit="10" />
    <path d="M52.2002 152.753V146.371H127.882V152.753" fill="#E6DEDD" />
    <path d="M52.2002 152.753V146.371H127.882V152.753" stroke="#4B2A28" stroke-width="4.90909" stroke-miterlimit="10" />
    <path d="M90.0002 152.754H52.2002V165.599H127.882V152.754H90.0002Z" fill="#E6DEDD" />
    <path d="M90.0002 152.754H52.2002V165.599H127.882V152.754H90.0002Z" stroke="#4B2A28" stroke-width="4.90909" stroke-miterlimit="10" />
    <path d="M52.2002 55.4698H127.882M64.6365 62.9971H115.446H64.6365Z" stroke="#4B2A28" stroke-width="3.27273" stroke-miterlimit="10" />
  </g>
</svg>