<svg xmlns="http://www.w3.org/2000/svg" width="40" height="40" viewbox="0.0 0.0 133.0 133.0">
  <g id="bb" fill="none" transform="scale(0.3007518796992481 0.3007518796992481)">
    <path d="M29 115V105H47.6L51.4 88.8C53.5 79.8 55.4 72 55.7 71.4C55.9 70.8 52.7 66 48.5 60.7C44.4 55.3 41 50.5 41 49.9C41 49.3 43.1 46.1 45.7 42.8L50.4 36.7L53 39.8L55.7 43L58.9 38.5L62.1 34L60.1 31.1C58.9 29.5 58 27.9 58 27.5C58 26.5 67.2 15 67.9 15C68.2 15.1 71.6 19.2 75.5 24.3C79.3 29.3 85.4 37.1 88.8 41.7L95.2 49.9L87.4 60L79.6 70.1L82.8 83.8C84.6 91.3 86.5 99.2 87.1 101.3L88.1 105H106V125H29V115Z" fill="#11999E" />
    <path d="M106 115V105H88.1L87.1 101.3C86.5 99.2 84.6 91.3 82.8 83.8L79.6 70.1L87.3 60.1C91.5 54.6 95 50 95 49.8C95 49.6 89.6 49.7 83.1 50L71.2 50.5L64 59.8C60.1 64.8 56.6 69 56.2 69C55.8 69 55.4 70.1 55.4 71.5C55.3 72.9 55.6 74 56 74C56.5 74 59.8 75.8 63.4 78.1L69.8 82.1L70.5 91.8C71.4 105.2 71.3 105 76.6 105H81V125H106V115ZM63.8 45.1C65.6 42.9 67 40.8 67 40.3C67 39.9 66 38.2 64.7 36.6L62.4 33.7L58.8 38.6L55.2 43.4L57.3 46.2C58.4 47.7 59.7 49 60 49C60.4 49 62.1 47.2 63.8 45.1Z" fill="#0C667A" />
    <path d="M81 115V105H76.6C71.3 105 71.4 105.2 70.5 91.8L69.8 82.1L63.4 78.1C59.8 75.8 56.5 74 56.1 74C55.4 74 54.1 78.6 49.8 96.3L47.7 105H29V125H81V115ZM64.2 59.5L71.5 50H82.7C88.9 50 94 49.7 93.9 49.3C93.9 48.4 90.8 44.3 78.2 28.5C73.2 22.1 69 16.4 69 15.9C69 13.9 67.2 15.4 62.7 21.5L57.9 27.9L62.4 33.7C64.9 36.9 67 39.9 67 40.3C67 41.4 60.9 49 60 49C59.6 49 57.4 46.3 55 43C52.6 39.8 50.4 37.3 49.9 37.5C49.5 37.8 47.3 40.8 45 44.1L40.9 50.2L45.6 56.3C48.3 59.7 51.6 64 53 65.7C54.4 67.5 55.8 69 56.2 69C56.6 69 60.2 64.7 64.2 59.5Z" fill="#11999E" />
    <path d="M29 115V105H47.6L51.4 88.8C53.5 79.8 55.4 72 55.7 71.4C55.9 70.8 52.7 66 48.5 60.7C44.4 55.3 41 50.5 41 49.9C41 49.3 43.1 46.1 45.7 42.8L50.4 36.7L53 39.8L55.7 43L58.9 38.5L62.1 34L60.1 31.1C58.9 29.5 58 27.9 58 27.5C58 26.5 67.2 15 67.9 15C68.2 15.1 71.6 19.2 75.5 24.3C79.3 29.3 85.4 37.1 88.8 41.7L95.2 49.9L87.4 60L79.6 70.1L82.8 83.8C84.6 91.3 86.5 99.2 87.1 101.3L88.1 105H106V125H29V115Z" stroke="black" stroke-width="2.4" />
  </g>
  <g id="bk" fill="none" transform="scale(0.3007518796992481 0.3007518796992481)">
    <path d="M27.937 114.741V104.764H51.5836L53.2798 99.0765L54.8762 93.2896L47.6924 78.024L40.5086 62.6587L42.9032 60.7629C48.6902 56.3728 55.874 54.4771 66.8492 54.3773C76.6272 54.3773 77.7247 54.5769 83.8109 57.5701C87.4028 59.2663 90.895 61.162 91.5934 61.6609C92.6909 62.3593 91.4936 65.7517 85.7067 77.7247L78.4231 92.8905L79.9197 98.5776L81.4164 104.265L93.09 104.564L104.764 104.863V124.719H27.937V114.741ZM61.162 44.3998C61.5611 41.9055 62.06 38.8125 62.4591 37.4156C63.0578 35.021 62.958 34.9212 58.4681 35.5199L53.8785 36.2183V25.7419L58.4681 26.4404C62.5589 27.039 62.958 26.9392 62.4591 25.2431C62.1598 24.2453 61.6609 22.2498 61.2618 20.7532L60.6632 17.9595H72.1373L71.5386 22.4494L70.8402 26.9392L74.8312 26.3406L78.8222 25.6422V36.2183L74.7314 35.5199L70.5409 34.8215L71.1395 38.6129C71.5386 40.7082 72.0375 43.901 72.4366 45.6969L73.0353 48.8897H60.5634L61.162 44.3998Z" fill="#11999E" />
    <path d="M104.764 114.741V104.863L93.09 104.564L81.4163 104.265L79.9197 98.5776L78.4231 92.8905L85.6069 77.9242C89.5979 69.6429 92.7907 62.8582 92.7907 62.6587C92.7907 62.4591 88.3008 62.4591 82.913 62.6587C76.4276 62.8582 72.8357 63.3571 72.5364 64.1553C72.3368 64.8537 70.8402 71.5386 69.3436 79.1215L66.5499 92.7907H60.7629C56.4726 92.7907 54.976 93.1898 54.4771 94.3871C53.6789 96.4824 53.6789 96.7817 54.8762 96.7817C55.3751 96.7817 58.7674 98.5776 62.3593 100.773C67.8469 104.165 69.7427 104.764 74.3323 104.764H79.8199V124.719H104.764V114.741ZM72.4366 45.6969C72.0375 43.901 71.5386 40.7082 71.1395 38.6129L70.5409 34.8215L74.7314 35.5199L78.8222 36.2183V25.6422L74.8312 26.3406L70.8402 26.9392L71.5386 22.4494C72.1373 18.0593 72.0375 17.9595 69.2438 17.9595H66.3503V48.8897H69.7427C72.9355 48.8897 73.0352 48.7899 72.4366 45.6969ZM54.5769 30.9302C54.5769 27.937 54.3773 26.6399 54.1778 28.2363C53.9782 29.7329 53.9782 32.1275 54.1778 33.7239C54.3773 35.2206 54.5769 33.9235 54.5769 30.9302Z" fill="#0C667A" />
    <path d="M79.82 114.741V104.764H74.3323C69.7427 104.764 67.847 104.165 62.3593 100.773C58.7674 98.5776 55.4749 96.7817 54.976 96.7817C54.5769 96.7817 53.5791 98.5776 52.8807 100.773L51.5836 104.764H27.937V124.719H79.82V114.741ZM69.3436 79.1215C70.8402 71.5386 72.3368 64.7539 72.6362 64.1553C72.9355 63.2573 75.9287 62.8582 82.7134 62.8582C91.5934 62.7584 92.0923 62.6587 90.2963 61.2618C88.1013 59.5656 82.2145 56.8717 77.2258 55.1755C72.6362 53.6789 58.1688 54.2776 52.3818 56.2731C47.6924 57.8695 40.9077 61.7607 40.9077 62.8582C40.9077 63.1575 44.0007 69.8424 47.6924 77.8244L54.3773 92.2918L60.4636 92.5911L66.5499 92.8905L69.3436 79.1215ZM66.4501 47.5926C66.6497 46.8942 66.7494 40.0097 66.6497 32.4268L66.3503 18.4584L63.4569 18.159C60.8627 17.8597 60.6632 18.0593 61.2618 20.3541C61.5611 21.7509 62.1598 24.0457 62.4591 25.4426C62.958 27.3383 62.7584 27.8372 61.7607 27.5379C60.9625 27.3383 59.1665 26.8394 57.5701 26.5401C54.8762 25.9415 54.8762 25.9415 54.8762 30.9302V35.919L59.0668 35.3203L63.1575 34.6219L62.5589 38.5131C62.1598 40.6084 61.6609 43.901 61.2618 45.6969C60.6632 48.6902 60.7629 48.8897 63.2573 48.8897C64.7539 48.8897 66.1508 48.2911 66.4501 47.5926Z" fill="#11999E" />
    <path d="M27.937 114.741V104.764H51.5836L53.2798 99.0765L54.8762 93.2896L47.6924 78.024L40.5086 62.6587L42.9032 60.7629C48.6902 56.3728 55.874 54.4771 66.8492 54.3773C76.6272 54.3773 77.7247 54.5769 83.8109 57.5701C87.4028 59.2663 90.895 61.162 91.5934 61.6609C92.6909 62.3593 91.4936 65.7517 85.7067 77.7247L78.4231 92.8905L79.9197 98.5776L81.4164 104.265L93.09 104.564L104.764 104.863V124.719H27.937V114.741ZM61.162 44.3998C61.5611 41.9055 62.06 38.8125 62.4591 37.4156C63.0578 35.021 62.958 34.9212 58.4681 35.5199L53.8785 36.2183V25.7419L58.4681 26.4404C62.5589 27.039 62.958 26.9392 62.4591 25.2431C62.1598 24.2453 61.6609 22.2498 61.2618 20.7532L60.6632 17.9595H72.1373L71.5386 22.4494L70.8402 26.9392L74.8312 26.3406L78.8222 25.6422V36.2183L74.7314 35.5199L70.5409 34.8215L71.1395 38.6129C71.5386 40.7082 72.0375 43.901 72.4366 45.6969L73.0353 48.8897H60.5634L61.162 44.3998Z" stroke="black" stroke-width="2.3946" />
  </g>
  <g id="bn" fill="none" transform="scale(0.3007518796992481 0.3007518796992481)">
    <path d="M27.937 114.741V104.863L38.5131 104.564L49.0893 104.265L40.9077 97.3803L32.7262 90.4959L49.4884 73.7337L66.1508 57.0713L63.5566 55.4749C59.2663 52.5814 54.4771 52.3818 49.4884 54.8762C46.994 56.0735 44.8987 57.4704 44.8987 57.9692C44.8987 60.1643 42.7037 58.4681 38.2138 52.6812C35.4201 49.189 32.9257 45.8965 32.5266 45.1981C32.1275 44.3999 39.1118 39.1118 53.6789 29.3338L75.6294 14.7667L79.82 16.9617C98.7772 26.6399 107.059 50.8852 98.0788 69.9422C96.4824 73.4344 94.1875 77.4254 92.9902 78.8222L90.895 81.3166L95.3848 85.9062L99.8747 90.4959L91.6932 97.3803L83.6114 104.265L94.1875 104.564L104.764 104.863V124.719H27.937V114.741Z" fill="#11999E" />
    <path d="M104.764 114.741V104.863L94.1875 104.564L83.6114 104.265L91.6932 97.3804L99.8747 90.4959L95.3848 85.9062L90.895 81.3166L92.9902 78.8222C94.1875 77.4254 96.4824 73.4344 98.0788 69.9422C103.566 58.3683 102.768 43.6017 96.183 32.3271C93.09 27.1388 85.4073 19.7554 80.0195 17.0615C74.7314 14.3676 73.8334 14.3676 77.4253 17.2611C82.015 20.7532 84.7089 24.0458 87.7022 29.9325C100.074 53.7787 87.1035 82.3143 61.0623 88.8995C57.5701 89.6977 54.7764 90.5957 54.6767 90.895C54.5769 91.0945 55.5746 94.2873 56.7719 98.0788L59.0668 104.764H74.8312V124.719H104.764V114.741Z" fill="#0C667A" />
    <path d="M75.829 57.171V47.4929L71.0398 52.1823C67.0488 56.0735 66.051 56.6722 64.8537 55.6744C63.5566 54.5769 63.5566 54.5769 64.6542 55.874C65.6519 57.0713 65.0533 58.069 61.162 62.06L56.4726 66.8492H75.829V57.171Z" fill="#0C667A" />
    <path d="M74.8312 114.741V104.764H59.0668L56.9715 98.5776C55.7742 95.0855 54.8762 91.8927 54.8762 91.3938C54.7764 90.895 57.5701 89.6977 61.0623 88.8995C87.1035 82.3143 99.9745 53.9782 87.8019 29.9325C85.108 24.7442 77.5251 15.964 75.6294 15.964C74.4321 15.964 32.9257 43.8012 32.9257 44.5994C32.9257 45.198 40.3091 55.1755 43.003 58.2686C43.5019 58.7674 44.5994 58.2686 45.5971 57.171C49.2888 52.8807 58.1688 51.6834 63.3571 54.8762L66.3503 56.6722L71.0398 52.0825L75.829 47.4929V66.8492H56.3728L44.8987 78.3233L33.5244 89.6977L35.5199 91.9925C36.5176 93.2896 38.0143 94.6864 38.8125 95.1853C39.5109 95.5844 41.8057 97.5799 43.7014 99.3758C45.6969 101.272 47.6924 102.768 48.0915 102.768C48.4906 102.768 48.8897 103.267 48.8897 103.766C48.8897 104.365 44.6992 104.764 38.4134 104.764H27.937V124.719H74.8312V114.741Z" fill="#11999E" />
    <path d="M27.937 114.741V104.863L38.5131 104.564L49.0893 104.265L40.9077 97.3803L32.7262 90.4959L49.4884 73.7337L66.1508 57.0713L63.5566 55.4749C59.2663 52.5814 54.4771 52.3818 49.4884 54.8762C46.994 56.0735 44.8987 57.4704 44.8987 57.9692C44.8987 60.1643 42.7037 58.4681 38.2138 52.6812C35.4201 49.189 32.9257 45.8965 32.5266 45.1981C32.1275 44.3999 39.1118 39.1118 53.6789 29.3338L75.6294 14.7667L79.82 16.9617C98.7772 26.6399 107.059 50.8852 98.0788 69.9422C96.4824 73.4344 94.1875 77.4254 92.9902 78.8222L90.895 81.3166L95.3848 85.9062L99.8747 90.4959L91.6932 97.3803L83.6114 104.265L94.1875 104.564L104.764 104.863V124.719H27.937V114.741Z" stroke="black" stroke-width="2.3946" />
  </g>
  <g id="bp" fill="none" transform="scale(0.3007518796992481 0.3007518796992481)">
    <path d="M28.4359 114.741V104.863L37.1163 104.564L45.7967 104.265L51.3841 86.1058L57.0713 67.9467L54.078 65.153C47.892 59.3661 45.8965 50.4861 48.9895 43.1028C54.1778 30.5311 70.042 26.5401 80.0195 35.2206C89.099 43.2025 89.5979 55.874 81.2168 64.1553L77.3256 68.0465L83.1125 86.2056L88.8995 104.265L97.081 104.564L105.263 104.863V124.719H28.4359V114.741Z" fill="#11999E" />
    <path d="M105.263 114.741V104.863L97.081 104.564L88.8995 104.265L83.1125 86.2056L77.3256 68.0465L81.2168 64.1553C85.0082 60.3638 87.3031 55.0758 87.3031 49.7877C87.3031 46.7945 85.4073 40.9077 84.4096 40.9077C84.1103 40.9077 77.9242 46.7945 70.8402 53.8785C62.4591 62.2596 57.3706 66.6497 56.3728 66.3503C54.6767 65.7517 54.1778 65.3526 64.0555 73.135L70.042 77.9242L71.2393 89.5979C72.8357 104.963 72.7359 104.764 76.9265 104.764H80.3188V124.719H105.263V114.741Z" fill="#0C667A" />
    <path d="M80.3188 114.741V104.764H76.9265C72.7359 104.764 72.8357 104.963 71.2393 89.5979L70.042 77.9242L63.6564 72.8357L57.3706 67.7472L56.3728 70.3413C55.7742 71.838 55.3751 73.4344 55.3751 74.1328C55.3751 75.2303 52.9805 82.8132 47.892 97.7794L45.5971 104.265L37.0165 104.564L28.4359 104.863V124.719H80.3188V114.741ZM71.2393 53.4794L84.5094 40.1095L80.4186 36.1185C74.931 30.8305 68.7449 29.3338 61.4614 31.4291C50.1868 34.8215 44.4996 48.9895 49.9872 60.0645C51.2843 62.5589 55.874 66.8492 57.2708 66.8492C57.5701 66.8492 63.856 60.8627 71.2393 53.4794Z" fill="#11999E" />
    <path d="M28.4359 114.741V104.863L37.1163 104.564L45.7967 104.265L51.3841 86.1058L57.0713 67.9467L54.078 65.153C47.892 59.3661 45.8965 50.4861 48.9895 43.1028C54.1778 30.5311 70.042 26.5401 80.0195 35.2206C89.099 43.2025 89.5979 55.874 81.2168 64.1553L77.3256 68.0465L83.1125 86.2056L88.8995 104.265L97.081 104.564L105.263 104.863V124.719H28.4359V114.741Z" stroke="black" stroke-width="2.3946" />
  </g>
  <g id="bq" fill="none" transform="scale(0.3007518796992481 0.3007518796992481)">
    <path d="M28.9348 114.741V104.764H46.6947L47.6924 100.074C48.2911 97.3803 49.4884 91.4936 50.3864 86.8042L52.0825 78.3233L41.4066 55.0758C35.5199 42.3046 30.9303 31.6287 31.1298 31.4291C31.3294 31.1298 33.5244 31.5289 36.0188 32.2273C40.3091 33.4246 40.4089 33.6242 40.7082 38.0143C41.0075 42.0053 41.7059 43.4021 46.8942 48.9895L52.781 55.3751L52.8807 45.9963C52.8807 37.1163 52.6812 36.3181 50.2866 33.8237L47.5927 31.03L49.8875 24.9437C51.0848 21.6512 52.3819 18.9572 52.781 18.9572C53.1801 18.9572 55.3751 20.9527 57.7697 23.3473L61.9603 27.6377L60.4636 31.2296C59.0668 34.7217 59.1666 35.1208 62.6587 43.3023C64.6542 48.0915 66.5499 51.883 66.949 51.883C67.2483 51.883 69.1441 47.9918 71.1396 43.3023C74.6317 35.021 74.7315 34.6219 73.3346 31.1298L71.7382 27.5379L76.0285 23.2476C78.3233 20.853 80.5184 18.9572 80.9175 18.9572C81.6159 18.9572 85.8065 28.6354 85.8065 30.4314C85.8065 31.03 84.7089 32.6264 83.3121 33.9235C81.0173 36.1185 80.8177 36.9167 80.8177 46.096V55.9737L86.8042 49.1891C92.1921 43.2026 92.7907 42.0053 92.7907 38.2138C92.7907 33.5244 93.3894 33.0255 100.473 31.5289L103.666 30.8305L92.6909 54.5769L81.7157 78.3233L83.3121 86.8042C84.2101 91.4936 85.4074 97.3803 86.006 100.074L87.0038 104.764H104.764V124.719H28.9348V114.741Z" fill="#11999E" />
    <path d="M104.764 114.741V104.764H87.0038L86.0061 100.074C85.4074 97.3803 84.2101 91.4936 83.3121 86.8042L81.7157 78.3233L92.691 54.5769L103.666 30.8305L100.473 31.5289C93.3894 33.0255 92.7908 33.5244 92.7908 38.2138C92.7908 42.0053 92.1921 43.2026 86.8043 49.1891L80.8178 55.9737V46.096C80.8178 36.9167 81.0173 36.1185 83.3121 33.9235C84.709 32.6264 85.8065 31.03 85.8065 30.4314C85.8065 28.2363 81.616 18.9572 80.6182 18.9572C80.1193 18.9572 79.9198 19.3563 80.2191 19.7554C80.5184 20.2543 78.0241 33.1253 74.8313 48.4906C71.5387 63.7562 68.8448 76.6272 68.8448 77.0263C68.8448 77.5251 65.0533 77.8245 60.3639 77.8245C53.679 77.8245 51.883 78.1238 51.883 79.2213C51.883 80.0195 51.5837 81.5161 51.2844 82.5139C50.8853 83.7112 50.9851 83.9107 51.5837 83.0128C52.2821 82.1148 54.577 83.1125 60.9626 87.0038L69.3436 92.2918L69.643 98.5776L69.9423 104.764H80.8178V124.719H104.764V114.741Z" fill="#0C667A" />
    <path d="M62.8582 64.0555C62.8582 63.3571 63.9558 60.5634 65.3526 57.6699C66.7495 54.8762 67.4479 52.2821 66.949 51.9827C66.5499 51.6834 64.5544 47.6924 62.5589 43.1028C59.0668 35.1208 59.0668 34.7217 60.4636 31.2296L61.9603 27.6377L57.7697 23.3473C55.3751 20.9527 53.1801 18.9572 52.8807 18.9572C52.0825 18.9572 61.1621 63.5566 62.1598 64.4546C62.5589 64.8537 62.8582 64.6542 62.8582 64.0555Z" fill="#0C667A" />
    <path d="M80.8177 114.741V104.764H69.9423L69.6429 98.5776L69.3436 92.2918L60.9625 87.0037C54.8762 83.2123 52.2821 82.1148 51.7832 83.0127C51.4839 83.7112 50.5859 87.2033 49.9873 90.7952C49.2888 94.3871 48.2911 98.9767 47.6924 101.072L46.5949 104.764H28.9348V124.719H80.8177V114.741ZM68.8447 77.0263C68.8447 76.6272 71.5387 63.7562 74.8312 48.3908C78.1238 33.1253 80.5184 20.3541 80.2191 20.0548C80.0195 19.7554 77.9242 21.3518 75.7292 23.5469L71.7382 27.5379L73.3346 31.4291C74.7315 34.5221 74.7315 35.7194 73.7337 37.8147C72.5364 40.4088 70.8402 44.3001 69.0443 48.8897C68.5454 50.2866 66.8492 53.9782 65.4524 57.171C64.0555 60.3638 62.8582 63.4569 62.8582 64.1553C62.7585 68.1463 60.5634 59.7652 56.8717 41.207C54.4771 29.5334 52.1823 20.2543 51.7832 20.5536C51.2843 20.853 50.8852 21.8507 50.8852 22.8485C50.8852 23.7464 50.4861 24.9437 49.9873 25.5424C47.7922 27.937 47.892 31.6287 50.3864 33.9235C52.6812 36.1185 52.8807 36.9167 52.8807 45.5971C52.8807 50.6857 52.4816 54.8762 52.0825 54.8762C51.5837 54.8762 49.6879 52.9805 47.892 50.6857C45.9963 48.2911 43.7014 45.7967 42.7037 45.0983C41.4066 44.2003 40.9077 42.5041 40.9077 39.4111C40.9077 37.0165 40.3091 34.7217 39.6107 34.2228C37.7149 33.0255 31.5289 30.9302 31.1298 31.4291C30.8305 31.6287 31.928 34.4224 33.4246 37.6151C41.7059 55.2753 45.9963 64.7539 49.2888 72.1373L51.7832 77.8244H60.2641C65.0533 77.8244 68.8447 77.5251 68.8447 77.0263Z" fill="#11999E" />
    <path d="M28.9348 114.741V104.764H46.6947L47.6924 100.074C48.2911 97.3803 49.4884 91.4936 50.3864 86.8042L52.0825 78.3233L41.4066 55.0758C35.5199 42.3046 30.9303 31.6287 31.1298 31.4291C31.3294 31.1298 33.5244 31.5289 36.0188 32.2273C40.3091 33.4246 40.4089 33.6242 40.7082 38.0143C41.0075 42.0053 41.7059 43.4021 46.8942 48.9895L52.781 55.3751L52.8807 45.9963C52.8807 37.1163 52.6812 36.3181 50.2866 33.8237L47.5927 31.03L49.8875 24.9437C51.0848 21.6512 52.3819 18.9572 52.781 18.9572C53.1801 18.9572 55.3751 20.9527 57.7697 23.3473L61.9603 27.6377L60.4636 31.2296C59.0668 34.7217 59.1666 35.1208 62.6587 43.3023C64.6542 48.0915 66.5499 51.883 66.949 51.883C67.2483 51.883 69.1441 47.9918 71.1396 43.3023C74.6317 35.021 74.7315 34.6219 73.3346 31.1298L71.7382 27.5379L76.0285 23.2476C78.3233 20.853 80.5184 18.9572 80.9175 18.9572C81.6159 18.9572 85.8065 28.6354 85.8065 30.4314C85.8065 31.03 84.7089 32.6264 83.3121 33.9235C81.0173 36.1185 80.8177 36.9167 80.8177 46.096V55.9737L86.8042 49.1891C92.1921 43.2026 92.7907 42.0053 92.7907 38.2138C92.7907 33.5244 93.3894 33.0255 100.473 31.5289L103.666 30.8305L92.6909 54.5769L81.7157 78.3233L83.3121 86.8042C84.2101 91.4936 85.4074 97.3803 86.006 100.074L87.0038 104.764H104.764V124.719H28.9348V114.741Z" stroke="black" stroke-width="2.3946" />
  </g>
  <g id="br" fill="none" transform="scale(0.3007518796992481 0.3007518796992481)">
    <path d="M26.9392 114.741V104.863L33.1253 104.564L39.4111 104.265L41.6062 83.3121C44.5994 54.6767 44.8987 57.7697 37.9145 53.4794L31.928 49.6879L32.1275 33.6242L32.4269 17.4606L38.114 17.1613L43.901 16.862V26.9392H54.7764L55.0758 22.2498L55.3751 17.4606H74.3323L74.6317 22.2498L74.931 26.9392H85.8065V16.862L91.4936 17.1613L97.2806 17.4606L97.5799 33.7239L97.7794 49.8875L93.1898 52.6812C90.6954 54.1778 88.0015 55.874 87.2033 56.3728C86.006 57.2708 86.1058 60.2641 87.802 77.8245C88.8995 89.099 90.0968 99.7749 90.3961 101.571L90.895 104.764H103.766V124.719H26.9392V114.741Z" fill="#11999E" />
    <path d="M103.766 114.741V104.764H90.895L90.3961 101.571C90.0968 99.7749 88.8995 89.099 87.802 77.8245C86.1058 60.2641 86.006 57.2708 87.2033 56.3728C88.0015 55.874 90.6954 54.1778 93.1898 52.6812L97.7795 49.8875L97.5799 33.7239L97.2806 17.4606L91.4936 17.1613L85.8065 16.862V21.9505C85.8065 26.8395 85.7067 26.9392 82.8132 26.9392H79.82V49.8875H56.0735L32.4269 49.9872L37.8147 53.3796C40.808 55.2753 43.5019 57.171 43.8012 57.5701C44.1005 58.069 44.9985 58.4681 45.5972 58.5679C46.2956 58.7674 52.0825 62.06 58.3684 65.9512L69.8425 73.0353L69.9423 78.1238C70.042 81.0173 70.3414 88.0015 70.7405 93.7884L71.3391 104.265L75.0308 104.564L78.8222 104.863V124.719H103.766V114.741Z" fill="#0C667A" />
    <path d="M74.6317 22.2498L74.3324 17.4606L69.3436 17.1613L64.3549 16.862L64.6542 21.9505L65.0533 26.9392H74.931L74.6317 22.2498Z" fill="#0C667A" />
    <path d="M78.8222 114.841V104.863L75.0308 104.564L71.3391 104.265L70.7404 93.7884C70.3413 88.0015 70.042 81.0173 69.9422 78.1238L69.8425 73.0353L57.6699 65.4524C50.8852 61.3616 45.0983 58.2686 44.6992 58.6677C44.3999 59.0668 43.8012 62.5589 43.4021 66.3503C43.003 70.2416 42.6039 74.931 42.4044 76.8267C41.7059 83.6114 41.0075 91.3939 40.5086 97.081C40.2093 100.274 39.7104 103.367 39.4111 103.866C39.012 104.365 36.1185 104.764 32.826 104.764H26.9392V124.719H78.8222V114.841ZM79.82 38.4134V26.9392H64.9535L64.6542 22.2498L64.3548 17.4606H55.3751L55.0758 22.2498L54.7764 26.9392H43.901V16.862L38.114 17.1613L32.4269 17.4606L32.1275 33.7239L31.928 49.8875H79.82V38.4134Z" fill="#11999E" />
    <path d="M26.9392 114.741V104.863L33.1253 104.564L39.4111 104.265L41.6062 83.3121C44.5994 54.6767 44.8987 57.7697 37.9145 53.4794L31.928 49.6879L32.1275 33.6242L32.4269 17.4606L38.114 17.1613L43.901 16.862V26.9392H54.7764L55.0758 22.2498L55.3751 17.4606H74.3323L74.6317 22.2498L74.931 26.9392H85.8065V16.862L91.4936 17.1613L97.2806 17.4606L97.5799 33.7239L97.7794 49.8875L93.1898 52.6812C90.6954 54.1778 88.0015 55.874 87.2033 56.3728C86.006 57.2708 86.1058 60.2641 87.802 77.8245C88.8995 89.099 90.0968 99.7749 90.3961 101.571L90.895 104.764H103.766V124.719H26.9392V114.741Z" stroke="black" stroke-width="2.3946" />
  </g>
  <g id="wb" fill="none" transform="scale(0.3007518796992481 0.3007518796992481)">
    <path d="M29 115V105H47.6L51.4 88.8C53.5 79.8 55.4 72 55.7 71.4C55.9 70.8 52.7 66 48.5 60.7C44.4 55.3 41 50.5 41 49.9C41 49.3 43.1 46.1 45.7 42.8L50.4 36.7L53 39.8L55.7 43L58.9 38.5L62.1 34L60.1 31.1C58.9 29.5 58 27.9 58 27.5C58 26.5 67.2 15 67.9 15C68.2 15.1 71.6 19.2 75.5 24.3C79.3 29.3 85.4 37.1 88.8 41.7L95.2 49.9L87.4 60L79.6 70.1L82.8 83.8C84.6 91.3 86.5 99.2 87.1 101.3L88.1 105H106V125H29V115Z" fill="#E4F9F5" />
    <path d="M106 115V105H88.1L87.1 101.3C86.5 99.2 84.6 91.3 82.8 83.8L79.6 70.1L87.3 60.1C91.5 54.6 95 50 95 49.8C95 49.6 89.6 49.7 83.1 50L71.2 50.5L64 59.8C60.1 64.8 56.6 69 56.2 69C55.8 69 55.4 70.1 55.4 71.5C55.3 72.9 55.6 74 56 74C56.5 74 59.8 75.8 63.4 78.1L69.8 82.1L70.5 91.8C71.4 105.2 71.3 105 76.6 105H81V125H106V115ZM63.8 45.1C65.6 42.9 67 40.8 67 40.3C67 39.9 66 38.2 64.7 36.6L62.4 33.7L58.8 38.6L55.2 43.4L57.3 46.2C58.4 47.7 59.7 49 60 49C60.4 49 62.1 47.2 63.8 45.1Z" fill="#6DD6C7" />
    <path d="M81 115V105H76.6C71.3 105 71.4 105.2 70.5 91.8L69.8 82.1L63.4 78.1C59.8 75.8 56.5 74 56.1 74C55.4 74 54.1 78.6 49.8 96.3L47.7 105H29V125H81V115ZM64.2 59.5L71.5 50H82.7C88.9 50 94 49.7 93.9 49.3C93.9 48.4 90.8 44.3 78.2 28.5C73.2 22.1 69 16.4 69 15.9C69 13.9 67.2 15.4 62.7 21.5L57.9 27.9L62.4 33.7C64.9 36.9 67 39.9 67 40.3C67 41.4 60.9 49 60 49C59.6 49 57.4 46.3 55 43C52.6 39.8 50.4 37.3 49.9 37.5C49.5 37.8 47.3 40.8 45 44.1L40.9 50.2L45.6 56.3C48.3 59.7 51.6 64 53 65.7C54.4 67.5 55.8 69 56.2 69C56.6 69 60.2 64.7 64.2 59.5Z" fill="#E4F9F5" />
    <path d="M29 115V105H47.6L51.4 88.8C53.5 79.8 55.4 72 55.7 71.4C55.9 70.8 52.7 66 48.5 60.7C44.4 55.3 41 50.5 41 49.9C41 49.3 43.1 46.1 45.7 42.8L50.4 36.7L53 39.8L55.7 43L58.9 38.5L62.1 34L60.1 31.1C58.9 29.5 58 27.9 58 27.5C58 26.5 67.2 15 67.9 15C68.2 15.1 71.6 19.2 75.5 24.3C79.3 29.3 85.4 37.1 88.8 41.7L95.2 49.9L87.4 60L79.6 70.1L82.8 83.8C84.6 91.3 86.5 99.2 87.1 101.3L88.1 105H106V125H29V115Z" stroke="black" stroke-width="2.4" />
  </g>
  <g id="wk" fill="none" transform="scale(0.3007518796992481 0.3007518796992481)">
    <path d="M27.937 114.741V104.764H51.5836L53.2798 99.0765L54.8762 93.2896L47.6924 78.024L40.5086 62.6587L42.9032 60.7629C48.6902 56.3728 55.874 54.4771 66.8492 54.3773C76.6272 54.3773 77.7247 54.5769 83.8109 57.5701C87.4028 59.2663 90.895 61.162 91.5934 61.6609C92.6909 62.3593 91.4936 65.7517 85.7067 77.7247L78.4231 92.8905L79.9197 98.5776L81.4164 104.265L93.09 104.564L104.764 104.863V124.719H27.937V114.741ZM61.162 44.3998C61.5611 41.9055 62.06 38.8125 62.4591 37.4156C63.0578 35.021 62.958 34.9212 58.4681 35.5199L53.8785 36.2183V25.7419L58.4681 26.4404C62.5589 27.039 62.958 26.9392 62.4591 25.2431C62.1598 24.2453 61.6609 22.2498 61.2618 20.7532L60.6632 17.9595H72.1373L71.5386 22.4494L70.8402 26.9392L74.8312 26.3406L78.8222 25.6422V36.2183L74.7314 35.5199L70.5409 34.8215L71.1395 38.6129C71.5386 40.7082 72.0375 43.901 72.4366 45.6969L73.0353 48.8897H60.5634L61.162 44.3998Z" fill="#E4F9F5" />
    <path d="M104.764 114.741V104.863L93.09 104.564L81.4163 104.265L79.9197 98.5776L78.4231 92.8905L85.6069 77.9242C89.5979 69.6429 92.7907 62.8582 92.7907 62.6587C92.7907 62.4591 88.3008 62.4591 82.913 62.6587C76.4276 62.8582 72.8357 63.3571 72.5364 64.1553C72.3368 64.8537 70.8402 71.5386 69.3436 79.1215L66.5499 92.7907H60.7629C56.4726 92.7907 54.976 93.1898 54.4771 94.3871C53.6789 96.4824 53.6789 96.7817 54.8762 96.7817C55.3751 96.7817 58.7674 98.5776 62.3593 100.773C67.8469 104.165 69.7427 104.764 74.3323 104.764H79.8199V124.719H104.764V114.741ZM72.4366 45.6969C72.0375 43.901 71.5386 40.7082 71.1395 38.6129L70.5409 34.8215L74.7314 35.5199L78.8222 36.2183V25.6422L74.8312 26.3406L70.8402 26.9392L71.5386 22.4494C72.1373 18.0593 72.0375 17.9595 69.2438 17.9595H66.3503V48.8897H69.7427C72.9355 48.8897 73.0352 48.7899 72.4366 45.6969ZM54.5769 30.9302C54.5769 27.937 54.3773 26.6399 54.1778 28.2363C53.9782 29.7329 53.9782 32.1275 54.1778 33.7239C54.3773 35.2206 54.5769 33.9235 54.5769 30.9302Z" fill="#6DD6C7" />
    <path d="M79.82 114.741V104.764H74.3323C69.7427 104.764 67.847 104.165 62.3593 100.773C58.7674 98.5776 55.4749 96.7817 54.976 96.7817C54.5769 96.7817 53.5791 98.5776 52.8807 100.773L51.5836 104.764H27.937V124.719H79.82V114.741ZM69.3436 79.1215C70.8402 71.5386 72.3368 64.7539 72.6362 64.1553C72.9355 63.2573 75.9287 62.8582 82.7134 62.8582C91.5934 62.7584 92.0923 62.6587 90.2963 61.2618C88.1013 59.5656 82.2145 56.8717 77.2258 55.1755C72.6362 53.6789 58.1688 54.2776 52.3818 56.2731C47.6924 57.8695 40.9077 61.7607 40.9077 62.8582C40.9077 63.1575 44.0007 69.8424 47.6924 77.8244L54.3773 92.2918L60.4636 92.5911L66.5499 92.8905L69.3436 79.1215ZM66.4501 47.5926C66.6497 46.8942 66.7494 40.0097 66.6497 32.4268L66.3503 18.4584L63.4569 18.159C60.8627 17.8597 60.6632 18.0593 61.2618 20.3541C61.5611 21.7509 62.1598 24.0457 62.4591 25.4426C62.958 27.3383 62.7584 27.8372 61.7607 27.5379C60.9625 27.3383 59.1665 26.8394 57.5701 26.5401C54.8762 25.9415 54.8762 25.9415 54.8762 30.9302V35.919L59.0668 35.3203L63.1575 34.6219L62.5589 38.5131C62.1598 40.6084 61.6609 43.901 61.2618 45.6969C60.6632 48.6902 60.7629 48.8897 63.2573 48.8897C64.7539 48.8897 66.1508 48.2911 66.4501 47.5926Z" fill="#E4F9F5" />
    <path d="M27.937 114.741V104.764H51.5836L53.2798 99.0765L54.8762 93.2896L47.6924 78.024L40.5086 62.6587L42.9032 60.7629C48.6902 56.3728 55.874 54.4771 66.8492 54.3773C76.6272 54.3773 77.7247 54.5769 83.8109 57.5701C87.4028 59.2663 90.895 61.162 91.5934 61.6609C92.6909 62.3593 91.4936 65.7517 85.7067 77.7247L78.4231 92.8905L79.9197 98.5776L81.4164 104.265L93.09 104.564L104.764 104.863V124.719H27.937V114.741ZM61.162 44.3998C61.5611 41.9055 62.06 38.8125 62.4591 37.4156C63.0578 35.021 62.958 34.9212 58.4681 35.5199L53.8785 36.2183V25.7419L58.4681 26.4404C62.5589 27.039 62.958 26.9392 62.4591 25.2431C62.1598 24.2453 61.6609 22.2498 61.2618 20.7532L60.6632 17.9595H72.1373L71.5386 22.4494L70.8402 26.9392L74.8312 26.3406L78.8222 25.6422V36.2183L74.7314 35.5199L70.5409 34.8215L71.1395 38.6129C71.5386 40.7082 72.0375 43.901 72.4366 45.6969L73.0353 48.8897H60.5634L61.162 44.3998Z" stroke="black" stroke-width="2.3946" />
  </g>
  <g id="wn" fill="none" transform="scale(0.3007518796992481 0.3007518796992481)">
    <path d="M27.937 114.741V104.863L38.5131 104.564L49.0893 104.265L40.9077 97.3803L32.7262 90.4959L49.4884 73.7337L66.1508 57.0713L63.5566 55.4749C59.2663 52.5814 54.4771 52.3818 49.4884 54.8762C46.994 56.0735 44.8987 57.4704 44.8987 57.9692C44.8987 60.1643 42.7037 58.4681 38.2138 52.6812C35.4201 49.189 32.9257 45.8965 32.5266 45.1981C32.1275 44.3999 39.1118 39.1118 53.6789 29.3338L75.6294 14.7667L79.82 16.9617C98.7772 26.6399 107.059 50.8852 98.0788 69.9422C96.4824 73.4344 94.1875 77.4254 92.9902 78.8222L90.895 81.3166L95.3848 85.9062L99.8747 90.4959L91.6932 97.3803L83.6114 104.265L94.1875 104.564L104.764 104.863V124.719H27.937V114.741Z" fill="#E4F9F5" />
    <path d="M104.764 114.741V104.863L94.1875 104.564L83.6114 104.265L91.6932 97.3804L99.8747 90.4959L95.3848 85.9062L90.895 81.3166L92.9902 78.8222C94.1875 77.4254 96.4824 73.4344 98.0788 69.9422C103.566 58.3683 102.768 43.6017 96.183 32.3271C93.09 27.1388 85.4073 19.7554 80.0195 17.0615C74.7314 14.3676 73.8334 14.3676 77.4253 17.2611C82.015 20.7532 84.7089 24.0458 87.7022 29.9325C100.074 53.7787 87.1035 82.3143 61.0623 88.8995C57.5701 89.6977 54.7764 90.5957 54.6767 90.895C54.5769 91.0945 55.5746 94.2873 56.7719 98.0788L59.0668 104.764H74.8312V124.719H104.764V114.741Z" fill="#6DD6C7" />
    <path d="M75.829 57.171V47.4929L71.0398 52.1823C67.0488 56.0735 66.051 56.6722 64.8537 55.6744C63.5566 54.5769 63.5566 54.5769 64.6542 55.874C65.6519 57.0713 65.0533 58.069 61.162 62.06L56.4726 66.8492H75.829V57.171Z" fill="#6DD6C7" />
    <path d="M74.8312 114.741V104.764H59.0668L56.9715 98.5776C55.7742 95.0855 54.8762 91.8927 54.8762 91.3938C54.7764 90.895 57.5701 89.6977 61.0623 88.8995C87.1035 82.3143 99.9745 53.9782 87.8019 29.9325C85.108 24.7442 77.5251 15.964 75.6294 15.964C74.4321 15.964 32.9257 43.8012 32.9257 44.5994C32.9257 45.198 40.3091 55.1755 43.003 58.2686C43.5019 58.7674 44.5994 58.2686 45.5971 57.171C49.2888 52.8807 58.1688 51.6834 63.3571 54.8762L66.3503 56.6722L71.0398 52.0825L75.8289 47.4929V66.8492H56.3728L44.8987 78.3233L33.5244 89.6977L35.5199 91.9925C36.5176 93.2896 38.0142 94.6864 38.8124 95.1853C39.5109 95.5844 41.8057 97.5799 43.7014 99.3758C45.6969 101.272 47.6924 102.768 48.0915 102.768C48.4906 102.768 48.8897 103.267 48.8897 103.766C48.8897 104.365 44.6992 104.764 38.4133 104.764H27.937V124.719H74.8312V114.741Z" fill="#E4F9F5" />
    <path d="M27.937 114.741V104.863L38.5131 104.564L49.0893 104.265L40.9077 97.3803L32.7262 90.4959L49.4884 73.7337L66.1508 57.0713L63.5566 55.4749C59.2663 52.5814 54.4771 52.3818 49.4884 54.8762C46.994 56.0735 44.8987 57.4704 44.8987 57.9692C44.8987 60.1643 42.7037 58.4681 38.2138 52.6812C35.4201 49.189 32.9257 45.8965 32.5266 45.1981C32.1275 44.3999 39.1118 39.1118 53.6789 29.3338L75.6294 14.7667L79.82 16.9617C98.7772 26.6399 107.059 50.8852 98.0788 69.9422C96.4824 73.4344 94.1875 77.4254 92.9902 78.8222L90.895 81.3166L95.3848 85.9062L99.8747 90.4959L91.6932 97.3803L83.6114 104.265L94.1875 104.564L104.764 104.863V124.719H27.937V114.741Z" stroke="black" stroke-width="2.3946" />
  </g>
  <g id="wp" fill="none" transform="scale(0.3007518796992481 0.3007518796992481)">
    <path d="M28.4359 114.741V104.863L37.1163 104.564L45.7967 104.265L51.3841 86.1058L57.0713 67.9467L54.078 65.153C47.892 59.3661 45.8965 50.4861 48.9895 43.1028C54.1778 30.5311 70.042 26.5401 80.0195 35.2206C89.099 43.2025 89.5979 55.874 81.2168 64.1553L77.3256 68.0465L83.1125 86.2056L88.8995 104.265L97.081 104.564L105.263 104.863V124.719H28.4359V114.741Z" fill="#E4F9F5" />
    <path d="M105.263 114.741V104.863L97.081 104.564L88.8995 104.265L83.1125 86.2056L77.3256 68.0465L81.2168 64.1553C85.0082 60.3638 87.3031 55.0758 87.3031 49.7877C87.3031 46.7945 85.4073 40.9077 84.4096 40.9077C84.1103 40.9077 77.9242 46.7945 70.8402 53.8785C62.4591 62.2596 57.3706 66.6497 56.3728 66.3503C54.6767 65.7517 54.1778 65.3526 64.0555 73.135L70.042 77.9242L71.2393 89.5979C72.8357 104.963 72.7359 104.764 76.9265 104.764H80.3188V124.719H105.263V114.741Z" fill="#6DD6C7" />
    <path d="M80.3188 114.741V104.764H76.9265C72.7359 104.764 72.8357 104.963 71.2393 89.5979L70.042 77.9242L63.6564 72.8357L57.3706 67.7472L56.3728 70.3413C55.7742 71.838 55.3751 73.4344 55.3751 74.1328C55.3751 75.2303 52.9805 82.8132 47.892 97.7794L45.5971 104.265L37.0165 104.564L28.4359 104.863V124.719H80.3188V114.741ZM71.2393 53.4794L84.5094 40.1095L80.4186 36.1185C74.931 30.8305 68.7449 29.3338 61.4614 31.4291C50.1868 34.8215 44.4996 48.9895 49.9872 60.0645C51.2843 62.5589 55.874 66.8492 57.2708 66.8492C57.5701 66.8492 63.856 60.8627 71.2393 53.4794Z" fill="#E4F9F5" />
    <path d="M28.4359 114.741V104.863L37.1163 104.564L45.7967 104.265L51.3841 86.1058L57.0713 67.9467L54.078 65.153C47.892 59.3661 45.8965 50.4861 48.9895 43.1028C54.1778 30.5311 70.042 26.5401 80.0195 35.2206C89.099 43.2025 89.5979 55.874 81.2168 64.1553L77.3256 68.0465L83.1125 86.2056L88.8995 104.265L97.081 104.564L105.263 104.863V124.719H28.4359V114.741Z" stroke="black" stroke-width="2.3946" />
  </g>
  <g id="wq" fill="none" transform="scale(0.3007518796992481 0.3007518796992481)">
    <path d="M28.9348 114.741V104.764H46.6947L47.6924 100.074C48.2911 97.3803 49.4884 91.4936 50.3864 86.8042L52.0825 78.3233L41.4066 55.0758C35.5199 42.3046 30.9303 31.6287 31.1298 31.4291C31.3294 31.1298 33.5244 31.5289 36.0188 32.2273C40.3091 33.4246 40.4089 33.6242 40.7082 38.0143C41.0075 42.0053 41.7059 43.4021 46.8942 48.9895L52.781 55.3751L52.8807 45.9963C52.8807 37.1163 52.6812 36.3181 50.2866 33.8237L47.5927 31.03L49.8875 24.9437C51.0848 21.6512 52.3819 18.9572 52.781 18.9572C53.1801 18.9572 55.3751 20.9527 57.7697 23.3473L61.9603 27.6377L60.4636 31.2296C59.0668 34.7217 59.1666 35.1208 62.6587 43.3023C64.6542 48.0915 66.5499 51.883 66.949 51.883C67.2483 51.883 69.1441 47.9918 71.1396 43.3023C74.6317 35.021 74.7315 34.6219 73.3346 31.1298L71.7382 27.5379L76.0285 23.2476C78.3233 20.853 80.5184 18.9572 80.9175 18.9572C81.6159 18.9572 85.8065 28.6354 85.8065 30.4314C85.8065 31.03 84.7089 32.6264 83.3121 33.9235C81.0173 36.1185 80.8177 36.9167 80.8177 46.096V55.9737L86.8042 49.1891C92.1921 43.2026 92.7907 42.0053 92.7907 38.2138C92.7907 33.5244 93.3894 33.0255 100.473 31.5289L103.666 30.8305L92.6909 54.5769L81.7157 78.3233L83.3121 86.8042C84.2101 91.4936 85.4074 97.3803 86.006 100.074L87.0038 104.764H104.764V124.719H28.9348V114.741Z" fill="#E4F9F5" />
    <path d="M104.764 114.741V104.764H87.0038L86.0061 100.074C85.4074 97.3803 84.2101 91.4936 83.3121 86.8042L81.7157 78.3233L92.691 54.5769L103.666 30.8305L100.473 31.5289C93.3894 33.0255 92.7908 33.5244 92.7908 38.2138C92.7908 42.0053 92.1921 43.2026 86.8043 49.1891L80.8178 55.9737V46.096C80.8178 36.9167 81.0173 36.1185 83.3121 33.9235C84.709 32.6264 85.8065 31.03 85.8065 30.4314C85.8065 28.2363 81.616 18.9572 80.6182 18.9572C80.1193 18.9572 79.9198 19.3563 80.2191 19.7554C80.5184 20.2543 78.0241 33.1253 74.8313 48.4906C71.5387 63.7562 68.8448 76.6272 68.8448 77.0263C68.8448 77.5251 65.0533 77.8245 60.3639 77.8245C53.679 77.8245 51.883 78.1238 51.883 79.2213C51.883 80.0195 51.5837 81.5161 51.2844 82.5139C50.8853 83.7112 50.9851 83.9107 51.5837 83.0128C52.2821 82.1148 54.577 83.1125 60.9626 87.0038L69.3436 92.2918L69.643 98.5776L69.9423 104.764H80.8178V124.719H104.764V114.741Z" fill="#6DD6C7" />
    <path d="M62.8582 64.0555C62.8582 63.3571 63.9558 60.5634 65.3526 57.6699C66.7495 54.8762 67.4479 52.2821 66.949 51.9827C66.5499 51.6834 64.5544 47.6924 62.5589 43.1028C59.0668 35.1208 59.0668 34.7217 60.4636 31.2296L61.9603 27.6377L57.7697 23.3473C55.3751 20.9527 53.1801 18.9572 52.8807 18.9572C52.0825 18.9572 61.1621 63.5566 62.1598 64.4546C62.5589 64.8537 62.8582 64.6542 62.8582 64.0555Z" fill="#6DD6C7" />
    <path d="M80.8177 114.741V104.764H69.9423L69.6429 98.5776L69.3436 92.2918L60.9625 87.0037C54.8762 83.2123 52.2821 82.1148 51.7832 83.0127C51.4839 83.7112 50.5859 87.2033 49.9873 90.7952C49.2888 94.3871 48.2911 98.9767 47.6924 101.072L46.5949 104.764H28.9348V124.719H80.8177V114.741ZM68.8447 77.0263C68.8447 76.6272 71.5387 63.7562 74.8312 48.3908C78.1238 33.1253 80.5184 20.3541 80.2191 20.0548C80.0195 19.7554 77.9242 21.3518 75.7292 23.5469L71.7382 27.5379L73.3346 31.4291C74.7315 34.5221 74.7315 35.7194 73.7337 37.8147C72.5364 40.4088 70.8402 44.3001 69.0443 48.8897C68.5454 50.2866 66.8492 53.9782 65.4524 57.171C64.0555 60.3638 62.8582 63.4569 62.8582 64.1553C62.7585 68.1463 60.5634 59.7652 56.8717 41.207C54.4771 29.5334 52.1823 20.2543 51.7832 20.5536C51.2843 20.853 50.8852 21.8507 50.8852 22.8485C50.8852 23.7464 50.4861 24.9437 49.9873 25.5424C47.7922 27.937 47.892 31.6287 50.3864 33.9235C52.6812 36.1185 52.8807 36.9167 52.8807 45.5971C52.8807 50.6857 52.4816 54.8762 52.0825 54.8762C51.5837 54.8762 49.6879 52.9805 47.892 50.6857C45.9963 48.2911 43.7014 45.7967 42.7037 45.0983C41.4066 44.2003 40.9077 42.5041 40.9077 39.4111C40.9077 37.0165 40.3091 34.7217 39.6107 34.2228C37.7149 33.0255 31.5289 30.9302 31.1298 31.4291C30.8305 31.6287 31.928 34.4224 33.4246 37.6151C41.7059 55.2753 45.9963 64.7539 49.2888 72.1373L51.7832 77.8244H60.2641C65.0533 77.8244 68.8447 77.5251 68.8447 77.0263Z" fill="#E4F9F5" />
    <path d="M28.9348 114.741V104.764H46.6947L47.6924 100.074C48.2911 97.3803 49.4884 91.4936 50.3864 86.8042L52.0825 78.3233L41.4066 55.0758C35.5199 42.3046 30.9303 31.6287 31.1298 31.4291C31.3294 31.1298 33.5244 31.5289 36.0188 32.2273C40.3091 33.4246 40.4089 33.6242 40.7082 38.0143C41.0075 42.0053 41.7059 43.4021 46.8942 48.9895L52.781 55.3751L52.8807 45.9963C52.8807 37.1163 52.6812 36.3181 50.2866 33.8237L47.5927 31.03L49.8875 24.9437C51.0848 21.6512 52.3819 18.9572 52.781 18.9572C53.1801 18.9572 55.3751 20.9527 57.7697 23.3473L61.9603 27.6377L60.4636 31.2296C59.0668 34.7217 59.1666 35.1208 62.6587 43.3023C64.6542 48.0915 66.5499 51.883 66.949 51.883C67.2483 51.883 69.1441 47.9918 71.1396 43.3023C74.6317 35.021 74.7315 34.6219 73.3346 31.1298L71.7382 27.5379L76.0285 23.2476C78.3233 20.853 80.5184 18.9572 80.9175 18.9572C81.6159 18.9572 85.8065 28.6354 85.8065 30.4314C85.8065 31.03 84.7089 32.6264 83.3121 33.9235C81.0173 36.1185 80.8177 36.9167 80.8177 46.096V55.9737L86.8042 49.1891C92.1921 43.2026 92.7907 42.0053 92.7907 38.2138C92.7907 33.5244 93.3894 33.0255 100.473 31.5289L103.666 30.8305L92.6909 54.5769L81.7157 78.3233L83.3121 86.8042C84.2101 91.4936 85.4074 97.3803 86.006 100.074L87.0038 104.764H104.764V124.719H28.9348V114.741Z" stroke="black" stroke-width="2.3946" />
  </g>
  <g id="wr" fill="none" transform="scale(0.3007518796992481 0.3007518796992481)">
    <path d="M26.9392 114.741V104.863L33.1253 104.564L39.4111 104.265L41.6062 83.3121C44.5994 54.6767 44.8987 57.7697 37.9145 53.4794L31.928 49.6879L32.1275 33.6242L32.4269 17.4606L38.114 17.1613L43.901 16.862V26.9392H54.7764L55.0758 22.2498L55.3751 17.4606H74.3323L74.6317 22.2498L74.931 26.9392H85.8065V16.862L91.4936 17.1613L97.2806 17.4606L97.5799 33.7239L97.7794 49.8875L93.1898 52.6812C90.6954 54.1778 88.0015 55.874 87.2033 56.3728C86.006 57.2708 86.1058 60.2641 87.802 77.8245C88.8995 89.099 90.0968 99.7749 90.3961 101.571L90.895 104.764H103.766V124.719H26.9392V114.741Z" fill="#E4F9F5" />
    <path d="M103.766 114.741V104.764H90.895L90.3961 101.571C90.0968 99.7749 88.8995 89.099 87.802 77.8245C86.1058 60.2641 86.006 57.2708 87.2033 56.3728C88.0015 55.874 90.6954 54.1778 93.1898 52.6812L97.7795 49.8875L97.5799 33.7239L97.2806 17.4606L91.4936 17.1613L85.8065 16.862V21.9505C85.8065 26.8395 85.7067 26.9392 82.8132 26.9392H79.82V49.8875H56.0735L32.4269 49.9872L37.8147 53.3796C40.808 55.2753 43.5019 57.171 43.8012 57.5701C44.1005 58.069 44.9985 58.4681 45.5972 58.5679C46.2956 58.7674 52.0825 62.06 58.3684 65.9512L69.8425 73.0353L69.9423 78.1238C70.042 81.0173 70.3414 88.0015 70.7405 93.7884L71.3391 104.265L75.0308 104.564L78.8222 104.863V124.719H103.766V114.741Z" fill="#6DD6C7" />
    <path d="M74.6317 22.2498L74.3324 17.4606L69.3436 17.1613L64.3549 16.862L64.6542 21.9505L65.0533 26.9392H74.931L74.6317 22.2498Z" fill="#6DD6C7" />
    <path d="M78.8222 114.841V104.863L75.0308 104.564L71.3391 104.265L70.7404 93.7884C70.3413 88.0015 70.042 81.0173 69.9422 78.1238L69.8425 73.0353L57.6699 65.4524C50.8852 61.3616 45.0983 58.2686 44.6992 58.6677C44.3999 59.0668 43.8012 62.5589 43.4021 66.3503C43.003 70.2416 42.6039 74.931 42.4044 76.8267C41.7059 83.6114 41.0075 91.3939 40.5086 97.081C40.2093 100.274 39.7104 103.367 39.4111 103.866C39.012 104.365 36.1185 104.764 32.826 104.764H26.9392V124.719H78.8222V114.841ZM79.82 38.4134V26.9392H64.9535L64.6542 22.2498L64.3548 17.4606H55.3751L55.0758 22.2498L54.7764 26.9392H43.901V16.862L38.114 17.1613L32.4269 17.4606L32.1275 33.7239L31.928 49.8875H79.82V38.4134Z" fill="#E4F9F5" />
    <path d="M26.9392 114.741V104.863L33.1253 104.564L39.4111 104.265L41.6062 83.3121C44.5994 54.6767 44.8987 57.7697 37.9145 53.4794L31.928 49.6879L32.1275 33.6242L32.4269 17.4606L38.114 17.1613L43.901 16.862V26.9392H54.7764L55.0758 22.2498L55.3751 17.4606H74.3323L74.6317 22.2498L74.931 26.9392H85.8065V16.862L91.4936 17.1613L97.2806 17.4606L97.5799 33.7239L97.7794 49.8875L93.1898 52.6812C90.6954 54.1778 88.0015 55.874 87.2033 56.3728C86.006 57.2708 86.1058 60.2641 87.802 77.8245C88.8995 89.099 90.0968 99.7749 90.3961 101.571L90.895 104.764H103.766V124.719H26.9392V114.741Z" stroke="black" stroke-width="2.3946" />
  </g>
</svg>