<svg xmlns="http://www.w3.org/2000/svg" width="40" height="40" viewbox="0.0 0.0 256.0 256.0">
  <g id="bb" fill="none" transform="scale(0.15625 0.15625)">
    <g opacity="0.9">
      <path d="M90.2275 91.3767L88.0992 93.5767L80.6943 101.047C72.4783 109.336 63.9357 117.955 57.5295 126.908C51.0295 135.992 46 146.39 46 158.356C46.0016 176.788 52.6165 191.227 66.0778 201.097C65.6287 201.616 65.1967 202.174 64.7984 202.772C64.3218 203.488 63.7509 204.476 63.3043 205.693C55.471 206.435 48.281 212.636 48.281 221.895C48.281 231.785 56.4734 238.172 64.8834 238.172H190.381C196.044 238.172 202.3 234.158 204.641 230.36C206.983 226.563 206.983 221.903 206.983 221.903V221.898L206.792 219.322C205.598 211.468 198.993 206.328 191.887 205.686C191.469 204.601 190.96 203.711 190.528 203.05C190.122 202.43 189.68 201.852 189.221 201.316C202.659 191.555 209.26 177.215 209.26 158.807C209.26 147.822 205.018 138.07 199.312 129.459C193.652 120.916 186.078 112.802 178.509 105.072C176.678 103.201 174.831 101.337 172.995 99.4825L172.99 99.4775L172.99 99.4766L172.981 99.4684C161.264 87.6348 150.051 76.2654 142.421 63.5866C144.73 60.5076 146.109 56.6757 146.109 52.5126C146.109 42.343 137.867 34 127.633 34C117.397 34 109.161 42.3502 109.161 52.5126C109.161 56.6726 110.539 60.5021 112.844 63.58C107.027 73.2329 99.0363 82.2711 90.2275 91.3767Z" fill="#23142D" />
      <path d="M141.109 52.5126C141.109 56.6851 139.213 60.4023 136.25 62.8739C144.252 77.56 156.881 90.3149 169.437 102.995L169.437 102.995C171.277 104.853 173.115 106.709 174.936 108.57C182.497 116.291 189.771 124.111 195.144 132.22C200.54 140.365 204.26 149.154 204.26 158.807C204.26 176.925 197.467 190.211 183.843 198.934C182.86 199.564 181.843 200.169 180.794 200.748C181.939 201.462 182.962 202.214 183.843 202.986C184.779 203.806 185.66 204.742 186.343 205.786C186.985 206.769 187.712 208.245 187.712 210.04C187.712 210.238 187.703 210.43 187.687 210.618L194.835 216.258L201.983 221.897C201.982 228.646 196.422 233.172 190.381 233.172H64.8834C58.8394 233.172 53.281 228.644 53.281 221.895C53.281 215.154 58.8349 210.618 64.8834 210.618H67.6003C67.571 210.368 67.5553 210.11 67.5553 209.844C67.5553 208.021 68.3034 206.53 68.9606 205.542C69.6587 204.494 70.5586 203.556 71.5107 202.737C72.379 201.989 73.3832 201.262 74.5028 200.567C73.4318 199.968 72.3944 199.343 71.3911 198.691C57.7872 189.852 51.0016 176.466 51 158.355C51 147.849 55.4057 138.468 61.5958 129.817C67.7533 121.212 76.0377 112.848 84.3569 104.455L88.7298 100.043L109.671 132.391C110.154 133.137 111.16 133.335 111.871 132.87C112.605 132.39 112.834 131.35 112.345 130.594L91.0574 97.71L93.8211 94.8532C103.622 84.7216 112.767 74.3282 119.015 62.8703C116.056 60.3987 114.161 56.6831 114.161 52.5126C114.161 45.0863 120.183 39 127.633 39C135.083 39 141.109 45.0821 141.109 52.5126Z" fill="#E23E57" />
      <path d="M187.687 210.618L201.983 221.895C201.985 215.152 196.426 210.619 190.384 210.618H187.687Z" fill="#E23E57" />
      <path fill-rule="evenodd" clip-rule="evenodd" d="M190.384 215.618H172.851C179.057 213.526 182.712 211.993 182.712 210.041C182.712 208.262 179.691 205.36 174.46 203.062C162.495 207.958 146.856 211.434 127.633 211.434H127.631C108.51 211.434 92.9343 207.752 80.998 202.818C75.6521 205.14 72.5553 208.044 72.5553 209.844C72.5553 211.798 76.2067 213.526 82.4166 215.618H64.8834C61.2509 215.618 58.281 218.248 58.281 221.895C58.281 225.547 61.2523 228.172 64.8834 228.172H190.381C194.01 228.172 196.983 225.547 196.983 221.895C196.985 218.248 194.012 215.618 190.382 215.618H190.384Z" fill="#23142D" />
      <path fill-rule="evenodd" clip-rule="evenodd" d="M129.595 60.8034C129.59 60.7946 129.586 60.7873 129.581 60.7786C133.312 59.8869 136.109 56.5243 136.109 52.5126C136.109 47.8235 132.302 44 127.633 44C122.967 44 119.161 47.825 119.161 52.5126C119.161 56.5229 121.956 59.8838 125.683 60.7771C125.679 60.7858 125.674 60.7931 125.67 60.8048C119.113 74.7436 108.448 86.925 97.4147 98.3297L116.543 127.878C118.522 130.937 117.652 135.064 114.608 137.055C111.566 139.044 107.457 138.168 105.475 135.111L87.9081 107.975C71.1295 124.902 56 140.259 56 158.355C56.0029 191.638 80.4274 205.157 127.631 207.249H127.633C174.834 205.156 199.26 192.089 199.26 158.807C199.26 125.526 148.091 100.118 129.594 60.8033L129.595 60.8034Z" fill="#23142D" />
    </g>
  </g>
  <g id="bk" fill="none" transform="scale(0.15625 0.15625)">
    <g opacity="0.9">
      <path d="M60.2029 211.63C36.4582 195.426 24.9394 175.379 23.2248 155.443C21.533 135.773 29.5312 117.607 42.0963 105.355C54.6294 93.1345 72.5493 86.072 90.8963 90.339C93.716 90.9947 96.4962 91.9079 99.2207 93.0837C101.539 90.4791 104.198 88.1813 107.132 86.2659H101.815V57.3536H113.94V45H142.687V57.3566H154.807V86.2689H149.498C152.432 88.184 155.091 90.4814 157.409 93.0863C160.134 91.9102 162.914 90.9968 165.734 90.3408C184.081 86.0732 202.001 93.1356 214.534 105.356C227.099 117.608 235.096 135.774 233.405 155.444C231.699 175.275 220.291 195.218 196.798 211.376C199.424 214.261 201.003 218.096 201.003 222.227C201.003 230.887 194.044 238.282 185.063 238.282H72.1636C63.1825 238.282 56.224 230.886 56.224 222.227C56.224 218.214 57.7129 214.483 60.2029 211.63Z" fill="#23142D" />
      <path d="M68.59 208.77C68.9391 209.426 69.3076 210.306 69.6966 211.457C64.7991 212.599 61.224 217.064 61.224 222.227C61.224 228.228 66.0461 233.282 72.1636 233.282H185.063C191.18 233.282 196.003 228.228 196.003 222.227C196.003 216.87 192.154 212.265 186.973 211.343C187.347 210.247 187.703 209.402 188.04 208.768C188.275 208.328 188.465 208.056 188.594 207.897C188.683 207.923 188.796 207.96 188.937 208.016L191.408 209.002L193.606 207.502C216.35 191.983 226.86 173.191 228.423 155.015C229.975 136.973 222.637 120.241 211.043 108.936C199.464 97.6455 183.221 91.4069 166.867 95.2108C163.177 96.0691 159.551 97.4218 156.029 99.2935L154.959 97.9408C150.598 92.4315 144.597 88.2874 137.687 86.2888L137.687 81.2689H149.807V62.3566H137.687V50H118.94V62.3536H106.815V81.2659H118.94V86.2878C112.029 88.2855 106.029 92.4316 101.669 97.9405L100.6 99.2905C97.0794 97.4194 93.4531 96.0671 89.7636 95.209C73.4098 91.4055 57.1663 97.6444 45.5869 108.935C33.9926 120.24 26.6545 136.972 28.2064 155.014C29.7696 173.19 40.2803 191.982 63.0244 207.502L65.2213 209.001L67.6922 208.017C67.8331 207.961 67.9467 207.923 68.0355 207.898C68.1648 208.057 68.3554 208.329 68.59 208.77Z" fill="#E23E57" />
      <path fill-rule="evenodd" clip-rule="evenodd" d="M87.6386 203.017C97.516 200.089 109.83 197.503 127.562 197.728L128.311 197.719H128.312L129.061 197.728C146.789 197.502 159.104 200.091 168.984 203.017C177.298 205.477 182.214 212.702 170.422 212.702C145.726 212.702 140.028 212.7 129.06 212.702C128.81 212.702 128.558 212.7 128.311 212.697H128.31C128.059 212.699 127.812 212.702 127.561 212.702C116.594 212.7 110.895 212.702 86.1994 212.702C74.4103 212.699 79.3183 205.477 87.6369 203.017H87.6386ZM126.968 140.199C87.7208 41.4815 -21.1177 144.034 65.8425 203.372C70.3288 201.586 72.6548 204.481 74.5098 210.085H74.52C72.2273 196.72 100.243 190.027 128.315 190.007C156.387 190.027 184.401 196.72 182.111 210.085H182.121C183.974 204.478 186.303 201.584 190.788 203.372C277.745 144.036 168.912 41.4815 129.663 140.203L128.317 143.589L126.968 140.199ZM132.687 90.2967C140.074 91.4291 146.556 95.3811 151.038 101.044C141.835 107.68 134.329 116.811 130.005 127.665C129.357 129.295 128.794 130.926 128.315 132.561C127.838 130.926 127.276 129.295 126.627 127.665C122.298 116.81 114.794 107.68 105.589 101.044C110.072 95.3799 116.552 91.4265 123.94 90.2967V76.2659H111.815V67.3536H123.94V55H132.687V67.3566H144.807V76.2689H132.687L132.687 90.2967ZM72.1635 216.175H185.063C188.329 216.175 191.003 218.901 191.003 222.227C191.003 225.558 188.329 228.282 185.063 228.282H72.1635C68.8974 228.282 66.224 225.558 66.224 222.227C66.224 218.901 68.8976 216.175 72.1635 216.175V216.175Z" fill="#23142D" />
    </g>
  </g>
  <g id="bn" fill="none" transform="scale(0.15625 0.15625)">
    <g opacity="0.9">
      <path d="M82.3199 196.95L82.3195 196.948C82.2336 196.439 81.9243 195.623 80.9311 194.008C80.7192 193.664 80.4537 193.251 80.1399 192.764L80.108 192.715L80.1047 192.71C79.2788 191.427 78.1657 189.698 77.3399 188.051C76.0636 185.503 74.8794 182.123 75.2611 178.073C75.6442 174.009 77.5067 170.261 80.4666 166.747C83.0872 163.636 86.7137 160.206 90.4429 156.773L90.4471 156.769L102.537 145.548C109.737 138.583 115.984 131.586 119.5 124.858C118.695 125.131 117.861 125.362 116.997 125.548C108.737 127.339 102.315 125.834 97.5835 124.725L97.52 124.71C96.2891 124.422 95.2288 124.174 94.2549 124.001C91.8047 123.567 89.4228 123.41 86.464 123.954C83.4183 124.514 79.4003 125.886 73.8599 128.989L73.8516 128.993C73.2506 129.327 72.5386 129.709 71.7531 130.09L71.7426 130.095C70.9925 130.454 70.1517 130.831 69.24 131.198L66.5896 132.264L65.2644 132.797L64.1323 131.926L61.833 130.157C61.7663 130.102 61.5888 129.957 61.4012 129.804C60.7898 129.306 59.7119 128.427 59.3166 128.078C54.7674 124.067 51.1739 119.71 48.0956 114.547C47.5847 113.689 47.0486 112.725 46.5801 111.712L46.5774 111.706C46.1101 110.687 45.6652 109.523 45.3664 108.229L45.3661 108.228C45.0622 106.908 44.9181 105.415 45.0476 103.884L45.0486 103.873L45.0497 103.861C45.1925 102.341 45.6003 100.819 46.3103 99.3471C47.0083 97.898 47.9507 96.6121 48.9679 95.5108L48.9727 95.5054L48.9777 95.5002C49.9991 94.407 51.1735 93.4067 52.4783 92.4756C64.8897 83.6152 68.4828 79.4187 74.8604 71.9701L74.8605 71.97L74.9135 71.9081L74.9163 71.9048L74.9184 71.9023C77.852 68.4761 81.3743 64.3623 86.542 58.8576C87.2439 58.1066 87.957 57.4171 88.6604 56.7878C89.1011 56.3935 89.982 55.7099 90.7678 55.1128C90.5435 54.0882 90.4304 53.0293 90.4542 51.9426C90.509 49.4495 91.274 47.2771 92.3532 45.4771C94.3075 42.2172 97.4466 39.9931 99.4666 38.6185L102.057 36.8558L103.315 36L104.653 36.7238C106.627 37.7916 111.21 40.4721 114.797 43.2214C152.438 37.0979 182.972 55.8757 197.928 85.8965C213.238 116.625 212.102 158.678 187.672 197.761C187.609 197.949 187.526 198.258 187.457 198.678C187.317 199.531 187.271 200.609 187.416 201.742C187.659 203.631 188.357 205.279 189.632 206.51C192.351 206.994 195.19 207.503 198.165 208.037L198.518 208.101C203.847 209.059 211.201 213.25 211.201 222.008C211.201 229.721 204.934 236.036 197.192 236.036H192.667H192.444L192.226 235.997L191.788 235.919C163.896 230.919 149.552 228.581 135.317 228.583C121.08 228.585 106.738 230.927 78.8468 235.919L78.4108 235.997L78.1927 236.036H77.9711L73.4363 236.038C65.6879 236.038 59.4319 229.718 59.4319 222.01C59.4319 213.253 66.7798 209.061 72.109 208.101H72.1106C73.0506 207.932 73.9771 207.766 74.8906 207.603L78.0893 204.601C81.0379 201.835 81.9315 199.958 82.2238 199.051C82.3653 198.611 82.4107 198.267 82.4169 197.973C82.4234 197.666 82.3892 197.358 82.3199 196.95Z" fill="#E23E57" />
      <path d="M59.3166 128.078C59.7119 128.427 60.7898 129.306 61.4012 129.804C61.5888 129.957 61.7663 130.102 61.833 130.157L64.1323 131.926L65.2644 132.797L66.5896 132.264L69.24 131.198C70.1517 130.831 70.9925 130.454 71.7426 130.095L71.7531 130.09C72.5386 129.709 73.2506 129.327 73.8516 128.993L73.8599 128.989C79.4003 125.886 83.4183 124.514 86.464 123.954C89.4228 123.41 91.8047 123.567 94.2549 124.001C95.2288 124.174 96.2891 124.422 97.52 124.71L97.5835 124.725C102.315 125.834 108.737 127.339 116.997 125.548C117.861 125.362 118.695 125.131 119.5 124.858C115.984 131.586 109.737 138.583 102.537 145.548L90.4471 156.769L90.4429 156.773C86.7137 160.206 83.0872 163.636 80.4666 166.747C77.5067 170.261 75.6442 174.009 75.2611 178.073C74.8794 182.123 76.0636 185.503 77.3399 188.051C78.1668 189.701 79.2818 191.432 80.108 192.715L80.1399 192.764C80.4537 193.251 80.7192 193.664 80.9311 194.008C81.9243 195.623 82.2336 196.439 82.3195 196.948L82.3199 196.95C82.3892 197.358 82.4234 197.666 82.4169 197.973C82.4107 198.267 82.3653 198.611 82.2238 199.051C81.9315 199.958 81.0379 201.835 78.0893 204.601L74.8906 207.603C73.9771 207.766 73.0506 207.932 72.1106 208.101H72.109C66.7798 209.061 59.4319 213.253 59.4319 222.01C59.4319 229.718 65.6879 236.038 73.4363 236.038L77.9711 236.036H78.1927L78.4108 235.997L78.8468 235.919C106.738 230.927 121.08 228.585 135.317 228.583C149.552 228.581 163.896 230.919 191.788 235.919L192.226 235.997L192.444 236.036H192.667H197.192C204.934 236.036 211.201 229.721 211.201 222.008C211.201 213.25 203.847 209.059 198.518 208.101C195.415 207.544 192.458 207.013 189.632 206.51C188.357 205.279 187.659 203.631 187.416 201.742C187.271 200.609 187.317 199.531 187.457 198.678C187.526 198.258 187.609 197.949 187.672 197.761C212.102 158.678 213.238 116.625 197.928 85.8965C182.972 55.8757 152.438 37.0979 114.797 43.2214C111.21 40.4721 106.627 37.7916 104.653 36.7238L103.315 36L102.057 36.8558L99.4666 38.6185C97.4466 39.9931 94.3075 42.2172 92.3532 45.4771C91.274 47.2771 90.509 49.4495 90.4542 51.9426C90.4304 53.0293 90.5435 54.0882 90.7678 55.1128C89.982 55.7099 89.1011 56.3935 88.6604 56.7878C87.957 57.4171 87.2439 58.1066 86.542 58.8576C81.3731 64.3636 77.8503 68.4781 74.9163 71.9048L74.9135 71.9081L74.8605 71.97C68.4828 79.4187 64.8897 83.6152 52.4783 92.4756M59.3166 128.078C54.7674 124.067 51.1739 119.71 48.0956 114.547C47.5847 113.689 47.0486 112.725 46.5801 111.712L46.5774 111.706C46.1101 110.687 45.6652 109.523 45.3664 108.229L45.3661 108.228C45.0622 106.908 44.9181 105.415 45.0476 103.884L45.0486 103.873L45.0497 103.861C45.1925 102.341 45.6003 100.819 46.3103 99.3471C47.0083 97.898 47.9507 96.6121 48.9679 95.5108L48.9727 95.5054M59.3166 128.078L59.3175 128.079M48.9727 95.5054L48.9777 95.5002C49.9991 94.407 51.1735 93.4067 52.4783 92.4756M48.9727 95.5054L52.4783 92.4756" stroke="#23142D" stroke-width="5" />
      <path fill-rule="evenodd" clip-rule="evenodd" d="M83.2212 210.071C90.4789 203.261 90.1767 198.417 89.7141 195.694C88.3671 187.718 77.1151 182.367 86.2028 171.579C95.2874 160.794 120.617 143.096 127.946 124.408C129.175 121.271 130.123 118.1 130.735 114.926C131.348 111.755 131.628 108.576 131.521 105.424C131.502 104.869 131.41 104.392 131.266 103.991C131.121 103.586 130.918 103.254 130.684 102.992C130.447 102.728 130.171 102.534 129.879 102.403C129.589 102.273 129.28 102.206 128.972 102.2C128.664 102.194 128.354 102.247 128.064 102.353C127.771 102.46 127.499 102.623 127.263 102.836C127.022 103.049 126.823 103.313 126.679 103.623C126.53 103.932 126.438 104.288 126.419 104.688C126.386 105.452 126.283 106.291 126.101 107.162C125.922 108.035 125.657 108.938 125.297 109.844C124.939 110.746 124.485 111.648 123.918 112.509C123.35 113.372 122.674 114.193 121.872 114.94C121.068 115.688 120.138 116.359 119.067 116.915C117.996 117.474 116.78 117.922 115.41 118.218C98.5607 121.871 94.4118 108.886 70.1959 122.445C69.6647 122.739 69.0999 123.041 68.4826 123.341C67.8609 123.638 67.1881 123.939 66.4409 124.24C66.4409 124.24 66.346 124.167 66.1709 124.031C65.9958 123.895 65.7375 123.694 65.4193 123.428C65.0997 123.164 64.7144 122.839 64.2795 122.455C60.3216 118.965 57.2248 115.213 54.5382 110.707C54.1033 109.977 53.7136 109.269 53.394 108.577C53.0759 107.884 52.8292 107.211 52.6745 106.542C52.5213 105.876 52.4614 105.218 52.5169 104.563C52.5782 103.91 52.7519 103.255 53.0671 102.603C53.3823 101.947 53.8406 101.289 54.4579 100.621C55.0811 99.9537 55.8619 99.2751 56.8353 98.5804C75.7389 85.0854 76.0628 80.9773 92.0169 63.9839C92.5539 63.4089 93.1071 62.8733 93.6616 62.3771C94.2161 61.8809 94.7751 61.4255 95.3355 61.0067C95.8916 60.5864 96.4491 60.207 97.0007 59.8625C97.5494 59.5167 98.0923 59.2073 98.6206 58.9329C99.1504 58.6585 99.6685 58.4206 100.165 58.2134C99.9851 57.7537 99.7648 57.2998 99.524 56.843C99.2876 56.3862 99.0351 55.9294 98.8045 55.4624C96.3425 50.5223 99.5897 47.6067 103.686 44.8192C104.064 45.0366 104.442 45.2585 104.824 45.4862C105.202 45.7138 105.582 45.9459 105.964 46.1867C106.342 46.4245 106.722 46.6683 107.104 46.9163C107.482 47.1674 107.863 47.4271 108.238 47.6898C108.616 47.954 108.994 48.2254 109.37 48.5042C109.743 48.7829 110.118 49.0689 110.488 49.3638C110.856 49.6571 111.227 49.9607 111.592 50.2715C111.958 50.5838 112.32 50.902 112.677 51.2318C184.103 36.7501 227.83 119.531 181.249 193.856C179.246 197.05 179.136 204.319 182.636 209.319C138.17 201.898 128.308 202.514 83.2212 210.071ZM98.9608 68.9926C96.153 71.2474 94.7111 74.0654 95.7429 75.2811C96.7659 76.5012 99.8746 75.6576 102.681 73.4029C105.484 71.1437 106.926 68.3301 105.899 67.1114C104.874 65.8899 101.764 66.7335 98.9608 68.9926ZM59.0823 102.807C57.7761 103.709 57.0494 104.903 57.4609 105.47C57.871 106.035 59.2647 105.764 60.5723 104.859C61.8785 103.956 62.6053 102.763 62.1923 102.196C61.7778 101.631 60.3899 101.904 59.0823 102.807Z" fill="#23142D" />
      <path fill-rule="evenodd" clip-rule="evenodd" d="M73.4352 215.483C134.217 204.577 136.417 204.56 197.192 215.483C200.718 216.117 203.701 218.421 203.701 222.008C203.701 225.6 200.772 228.536 197.192 228.536H193.111C137.627 218.59 133.002 218.607 77.5254 228.536L73.4363 228.538C69.8565 228.538 66.9319 225.603 66.9319 222.01C66.9319 218.421 69.912 216.118 73.4363 215.483H73.4352Z" fill="#23142D" />
    </g>
  </g>
  <g id="bp" fill="none" transform="scale(0.15625 0.15625)">
    <g opacity="0.9">
      <path d="M57 222.683C57.0049 217.507 59.5222 213.032 63.2829 210.22C63.2821 208.361 63.3831 206.46 63.5961 204.523C64.1524 199.401 66.8174 194.838 69.1771 191.425C71.681 187.803 74.884 184.047 77.9505 180.51C78.395 179.997 78.8409 179.484 79.2855 178.973L79.3109 178.944C85.3421 172.004 90.9827 165.475 94.4875 158.862C98.6422 151.025 100.962 143.939 101.67 135.751C98.4455 135.316 95.5056 134.789 92.9768 134.171C90.6131 133.593 88.0576 132.806 85.8699 131.649C84.7857 131.075 83.2885 130.151 81.9467 128.708C80.5695 127.226 78.8315 124.592 78.8315 120.945C78.8315 117.862 80.093 115.543 81.0355 114.216C82.0081 112.847 83.1342 111.827 84.0404 111.114C85.8551 109.684 88.0133 108.533 90.0927 107.605C90.3792 107.477 90.6715 107.351 90.9694 107.225C88.0657 101.679 86.4157 95.382 86.4157 88.6999C86.4196 65.9782 105.406 48.0609 128.058 48C150.761 48 169.702 65.9357 169.702 88.7013C169.702 95.3854 168.05 101.683 165.146 107.227C165.443 107.352 165.735 107.479 166.022 107.606C168.101 108.534 170.259 109.685 172.074 111.114C172.981 111.827 174.107 112.847 175.08 114.216C176.023 115.543 177.285 117.862 177.285 120.947C177.285 124.59 175.55 127.225 174.172 128.708C172.83 130.152 171.333 131.077 170.248 131.651C168.059 132.809 165.503 133.597 163.139 134.174C160.611 134.792 157.673 135.318 154.45 135.753C155.158 143.941 157.477 151.026 161.631 158.863C165.136 165.476 170.776 172.004 176.806 178.942C177.26 179.465 177.715 179.989 178.169 180.513C181.235 184.05 184.438 187.805 186.941 191.427C189.302 194.843 191.969 199.41 192.522 204.537C192.758 206.717 192.86 208.871 192.828 210.985C196.057 213.808 198.165 217.957 198.165 222.692C198.165 231.555 190.844 238.32 182.399 238.32H72.7647C64.3167 238.32 57 231.542 57 222.683Z" fill="#23142D" />
      <path fill-rule="evenodd" clip-rule="evenodd" d="M62 222.687C62.0041 218.32 64.655 214.65 68.3634 213L68.3307 212.286C68.2241 209.96 68.2932 207.55 68.5665 205.067C68.9818 201.234 71.0373 197.526 73.29 194.268C75.6165 190.902 78.6459 187.341 81.7283 183.786C82.179 183.266 82.6315 182.745 83.0848 182.223C89.0188 175.396 95.0803 168.421 98.9055 161.203C104.125 151.358 106.717 142.397 106.896 131.329C101.934 130.829 97.5764 130.149 94.1643 129.314C91.9533 128.774 89.8601 128.103 88.2083 127.229C87.3882 126.795 86.4248 126.181 85.6088 125.304C84.7702 124.402 83.8315 122.925 83.8315 120.945C83.8315 119.26 84.5211 117.943 85.1118 117.111C85.7159 116.261 86.4536 115.577 87.1338 115.042C88.4963 113.969 90.2425 113.013 92.1297 112.171C93.9598 111.355 96.1099 110.563 98.5184 109.83C94.064 103.927 91.4157 96.6231 91.4157 88.6999C91.4191 68.8648 107.935 53.0296 128 53.0001L128.004 53H128.058C148.149 53 164.702 68.8446 164.702 88.7013C164.702 96.6268 162.05 103.93 157.595 109.832C160.004 110.565 162.155 111.357 163.985 112.173C165.872 113.015 167.619 113.97 168.982 115.043C169.662 115.578 170.4 116.262 171.004 117.112C171.595 117.944 172.285 119.261 172.285 120.947C172.285 122.925 171.348 124.402 170.509 125.305C169.693 126.183 168.729 126.798 167.909 127.232C166.257 128.106 164.163 128.777 161.952 129.318C158.54 130.151 154.184 130.831 149.224 131.331C149.403 142.399 151.995 151.359 157.213 161.205C161.039 168.422 167.099 175.395 173.031 182.222C173.486 182.745 173.939 183.267 174.391 183.788C177.473 187.343 180.502 190.905 182.828 194.27C185.082 197.53 187.138 201.24 187.551 205.075C187.818 207.543 187.895 209.955 187.786 212.291L187.731 213.469C190.945 215.285 193.165 218.693 193.165 222.692V222.693C193.165 228.664 188.215 233.32 182.399 233.32H72.7647C66.9469 233.32 62 228.662 62 222.693V222.687Z" fill="#E23E57" />
      <path fill-rule="evenodd" clip-rule="evenodd" d="M72.7647 217.066H182.399C185.57 217.066 188.165 219.598 188.165 222.692V222.693C188.165 225.787 185.57 228.32 182.399 228.32H72.7647C69.5935 228.32 67 225.788 67 222.693V222.692C67.0029 219.598 69.5919 217.066 72.7647 217.066V217.066ZM128.058 58C145.532 58 159.702 71.7475 159.702 88.7013C159.702 98.3583 155.105 106.973 147.924 112.599C159.508 114.851 167.285 118.606 167.285 120.947C167.285 123.543 157.682 125.78 143.926 126.767C144.12 127.625 144.224 128.493 144.217 129.366C144.107 142.244 146.928 152.477 152.795 163.546C161.691 180.328 181.485 195.454 182.58 205.61C182.821 207.836 182.888 209.99 182.792 212.058L73.3254 212.057C73.2305 209.987 73.2918 207.835 73.537 205.609C74.633 195.451 94.4297 180.326 103.323 163.545C109.192 152.475 112.013 142.242 111.903 129.365C111.897 128.492 111.998 127.623 112.189 126.765C98.4331 125.777 88.8315 123.539 88.8315 120.945C88.8315 118.604 96.6058 114.848 108.19 112.597C101.007 106.971 96.4157 98.3553 96.4157 88.6999C96.4186 71.7476 110.585 58 128.057 58L128.058 58Z" fill="#23142D" />
    </g>
  </g>
  <g id="bq" fill="none" transform="scale(0.15625 0.15625)">
    <g opacity="0.9">
      <path fill-rule="evenodd" clip-rule="evenodd" d="M209.401 76.9272L214.498 76.1062H214.898C224.21 76.1062 233.181 83.2619 233.179 93.775M209.401 76.9272L209.025 77.0511ZM198.191 100.96C197.192 98.7921 196.617 96.3653 196.617 93.7746C196.617 85.5378 202.205 79.2952 209.025 77.0511M198.191 100.96L181.164 126.805L182.488 98.3885C187.655 95.4375 191.473 89.996 191.473 83.1898C191.473 72.6762 182.499 65.5223 173.189 65.5223C163.875 65.5223 154.905 72.6806 154.905 83.1898C154.905 86.9542 156.108 90.3501 158.061 93.1202L145.367 122.786L140.031 92.6097C143.52 89.4879 145.872 84.97 145.872 79.6675C145.872 69.1565 136.901 62 127.592 62C118.281 62 109.307 69.1559 109.307 79.6675C109.307 84.9704 111.66 89.4879 115.148 92.6093L109.813 122.785L97.1176 93.1178C99.0714 90.3477 100.274 86.9513 100.274 83.1861C100.274 72.6715 91.2986 65.5186 81.9888 65.5186C72.6783 65.5186 63.7082 72.678 63.7082 83.1861C63.7082 89.9896 67.523 95.4324 72.6897 98.3843L74.014 126.8L56.9898 100.959C57.9892 98.7924 58.5641 96.3661 58.5641 93.7746C58.5641 83.2588 49.5921 76.1082 40.2806 76.1082C30.9655 76.1082 22 83.2648 22 93.7746C22 101.575 26.9825 107.558 33.316 110.097C36.1147 125.402 37.6696 137.998 38.7476 148.503C39.1681 152.6 39.5207 156.443 39.8521 160.053L39.8636 160.179C40.4828 166.927 41.0368 172.964 41.8228 178.09C43.0498 186.092 45.0432 193.569 49.9339 199.979C52.9271 203.902 56.6684 206.992 61.0986 209.591C57.6154 212.13 54.6628 216.218 54.6628 222.098C54.6628 230.973 61.911 238.068 70.6741 238.068H184.919C193.683 238.068 200.927 230.965 200.927 222.098C200.927 216.092 197.871 211.985 194.302 209.459C198.635 206.887 202.301 203.836 205.243 199.979C210.134 193.569 212.127 186.092 213.354 178.09C214.141 172.962 214.695 166.922 215.314 160.171L215.325 160.049C215.657 156.439 216.009 152.598 216.43 148.502C217.508 137.996 219.062 125.4 221.86 110.095C228.193 107.556 233.178 101.575 233.179 93.775" fill="#23142D" />
      <path d="M214.898 76.1062H214.498L209.401 76.9272L209.025 77.0511C202.205 79.2952 196.617 85.5378 196.617 93.7746C196.617 96.3653 197.192 98.7921 198.191 100.96L181.164 126.805L182.488 98.3885C187.655 95.4375 191.473 89.996 191.473 83.1898C191.473 72.6762 182.499 65.5223 173.189 65.5223C163.875 65.5223 154.905 72.6806 154.905 83.1898C154.905 86.9542 156.108 90.3501 158.061 93.1202L145.367 122.786L140.031 92.6097C143.52 89.4879 145.872 84.97 145.872 79.6675C145.872 69.1565 136.901 62 127.592 62C118.281 62 109.307 69.1559 109.307 79.6675C109.307 84.9704 111.66 89.4879 115.148 92.6093L109.813 122.785L97.1176 93.1178C99.0714 90.3477 100.274 86.9513 100.274 83.1861C100.274 72.6715 91.2986 65.5186 81.9888 65.5186C72.6783 65.5186 63.7082 72.678 63.7082 83.1861C63.7082 89.9896 67.523 95.4324 72.6897 98.3843L74.014 126.8L56.9898 100.959C57.9892 98.7924 58.5641 96.3661 58.5641 93.7746C58.5641 83.2588 49.5921 76.1082 40.2806 76.1082C30.9655 76.1082 22 83.2648 22 93.7746C22 101.575 26.9825 107.558 33.316 110.097C36.1147 125.402 37.6696 137.998 38.7476 148.503C39.1681 152.6 39.5207 156.443 39.8521 160.053L39.8636 160.179C40.4828 166.927 41.0368 172.964 41.8228 178.09C43.0498 186.092 45.0432 193.569 49.9339 199.979C52.9271 203.902 56.6684 206.992 61.0986 209.591C57.6154 212.13 54.6628 216.218 54.6628 222.098C54.6628 230.973 61.911 238.068 70.6741 238.068H184.919C193.683 238.068 200.927 230.965 200.927 222.098C200.927 216.092 197.871 211.985 194.302 209.459C198.635 206.887 202.301 203.836 205.243 199.979C210.134 193.569 212.127 186.092 213.354 178.09C214.141 172.962 214.695 166.922 215.314 160.171L215.325 160.049C215.657 156.439 216.009 152.598 216.43 148.502C217.508 137.996 219.062 125.4 221.86 110.095C228.193 107.556 233.178 101.575 233.179 93.775C233.181 83.2619 224.21 76.1062 214.898 76.1062Z" fill="#23142D" />
      <path d="M204.075 101.118C202.55 99.0799 201.617 96.5615 201.617 93.7746C201.617 87.9891 205.527 83.4658 210.588 81.8006L214.898 81.1062C221.863 81.1062 228.181 86.4201 228.179 93.7743C228.178 100.193 223.361 105.06 217.501 106.191C214.317 123.022 212.613 136.714 211.456 147.991C211.032 152.118 210.677 155.985 210.346 159.592C209.718 166.441 209.175 172.355 208.412 177.332C207.228 185.054 205.397 191.535 201.268 196.946C197.522 201.855 192.255 205.408 185.131 208.493L188.291 211.889C192.117 213.322 195.927 216.577 195.927 222.098C195.927 228.17 190.955 233.068 184.919 233.068H70.6741C64.6361 233.068 59.6628 228.176 59.6628 222.098C59.6628 216.976 62.9424 213.804 66.474 212.228L70.0279 208.486C62.9128 205.402 57.6517 201.852 53.909 196.946C49.78 191.535 47.9491 185.054 46.7651 177.332C46.002 172.356 45.4596 166.444 44.8312 159.596C44.5001 155.988 44.1451 152.12 43.7215 147.992C42.5642 136.715 40.8593 123.024 37.6754 106.193C31.8157 105.062 27 100.195 27 93.7746C27 86.4221 33.3136 81.1082 40.2806 81.1082C47.2467 81.1082 53.5641 86.4186 53.5641 93.7746C53.5641 96.5618 52.6299 99.0797 51.1062 101.117L79.8563 144.757L77.5427 95.1141C72.5503 93.4129 68.7082 88.92 68.7082 83.1861C68.7082 75.8354 75.0264 70.5186 81.9888 70.5186C88.9533 70.5186 95.2739 75.8314 95.2739 83.1861C95.2739 86.8133 93.7052 89.9739 91.297 92.225L111.815 140.175L120.609 90.4384C116.918 88.2611 114.307 84.371 114.307 79.6675C114.307 72.3151 120.627 67 127.592 67C134.554 67 140.872 72.3145 140.872 79.6675C140.872 84.3709 138.262 88.2614 134.57 90.4387L143.364 140.176L163.881 92.2277C161.474 89.9764 159.905 86.8161 159.905 83.1898C159.905 75.8386 166.223 70.5223 173.189 70.5223C180.153 70.5223 186.473 75.8355 186.473 83.1898C186.473 88.9254 182.627 93.4171 177.635 95.1178L175.322 144.761L204.075 101.118Z" fill="#E23E57" />
      <path fill-rule="evenodd" clip-rule="evenodd" d="M168.321 201.881C167.62 202.262 146.99 214.135 146.983 214.132C147.986 199.987 146.751 214.364 147.986 199.987C134.943 212.517 147.576 200.395 134.534 212.924C132.329 208.349 129.879 203.515 127.792 198.907C125.702 203.515 123.255 208.349 121.05 212.924C108.009 200.394 120.639 212.516 107.601 199.987C108.836 214.364 107.601 199.987 108.601 214.132C108.595 214.134 87.9653 202.263 87.2674 201.881C90.9699 212.244 87.2674 201.881 91.132 212.216C84.6507 213.282 79.3298 214.586 70.6741 216.124C67.4182 216.704 64.6628 218.813 64.6628 222.098C64.6628 225.383 67.3656 228.068 70.6741 228.068H184.919C188.223 228.068 190.927 225.38 190.927 222.098C190.927 218.811 188.17 216.704 184.919 216.124C176.262 214.586 170.939 213.282 164.461 212.216C168.322 201.881 164.618 212.244 168.322 201.881H168.321Z" fill="#23142D" />
      <path fill-rule="evenodd" clip-rule="evenodd" d="M214.898 86.1082C210.323 86.1082 206.617 89.5392 206.617 93.7746C206.617 96.5489 208.205 98.9729 210.587 100.321L169.479 162.717L172.829 90.8504C172.948 90.8547 173.069 90.8562 173.189 90.8562C177.76 90.8562 181.473 87.4252 181.473 83.1898C181.473 78.9545 177.763 75.5223 173.189 75.5223C168.614 75.5223 164.905 78.9563 164.905 83.1898C164.905 86.4282 167.073 89.1981 170.136 90.3205L141.361 157.566L128.925 87.2345C132.864 86.6449 135.872 83.4794 135.872 79.6675C135.872 75.4323 132.163 72 127.592 72C123.017 72 119.307 75.434 119.307 79.6675C119.307 83.4794 122.316 86.6449 126.253 87.2345L113.818 157.566L85.0419 90.3167C88.1052 89.1959 90.2739 86.426 90.2739 83.1861C90.2739 78.9509 86.5641 75.5186 81.9888 75.5186C77.4181 75.5186 73.7082 78.9526 73.7082 83.1861C73.7082 87.4213 77.418 90.8525 81.9888 90.8525C82.1099 90.8525 82.2267 90.851 82.3493 90.8466L85.6986 162.713L44.5946 100.321C46.9719 98.9742 48.5641 96.5486 48.5641 93.7746C48.5641 89.5379 44.8573 86.1082 40.2806 86.1082C35.7054 86.1082 32 89.5392 32 93.7746C32 98.0097 35.7069 101.442 40.2806 101.442C40.8074 101.442 41.327 101.395 41.8246 101.311C56.6799 176.626 42.5149 192.194 74.2494 204.825C77.2791 206.032 77.12 208.28 74.7996 210.723C78.1737 210.193 81.3799 209.7 84.4419 209.247L78.1504 191.888L103.836 206.721L103.865 206.717L101.769 189.607L119.651 205.505L119.85 205.497L127.59 188.849L135.316 205.476L135.547 205.486L153.41 189.605L151.317 206.667L151.418 206.677L177.026 191.888L170.758 209.18C173.789 209.625 176.959 210.111 180.296 210.636C178.053 208.225 177.936 206.017 180.93 204.823C212.66 192.195 198.499 176.625 213.351 101.309C213.853 101.395 214.369 101.44 214.895 101.44C219.471 101.44 223.179 98.0061 223.179 93.7726C223.18 89.5374 219.474 86.1062 214.898 86.1062L214.898 86.1082Z" fill="#23142D" />
    </g>
  </g>
  <g id="br" fill="none" transform="scale(0.15625 0.15625)">
    <g opacity="0.9">
      <path d="M45.004 45.455C41.1908 46.517 37.1189 47.9152 34.0793 49.9105L28.4329 53.6172L29.7629 60.2393C30.5176 63.9971 30.9161 67.9229 31.3505 72.2483L31.4189 72.929C31.8535 77.245 32.3649 82.228 33.5219 86.739C34.6867 91.2801 36.7794 96.5177 41.2106 100.561C43.6565 102.793 46.4916 104.368 49.6199 105.349L50.314 106.763C63.0502 132.721 69.1289 150.418 71.4111 162.588C73.6753 174.663 72.0385 180.369 70.4532 183.277C68.905 186.116 66.7565 187.756 63.0656 190.433L63.0633 190.435C62.6568 190.729 62.2314 191.038 61.7982 191.356C58.3462 193.888 52.2346 198.495 51.2448 206.971C47.181 210.077 44.54 214.98 44.54 220.501V220.505C44.54 229.887 52.1708 237.527 61.5612 237.527H195.084C204.468 237.527 212.108 229.893 212.108 220.505V220.501C212.108 214.982 209.468 210.082 205.408 206.977C204.421 198.496 198.307 193.887 194.853 191.354C194.432 191.045 194.018 190.744 193.622 190.457L193.608 190.447L193.589 190.433L193.584 190.43L193.582 190.428C189.892 187.753 187.745 186.113 186.197 183.275C184.611 180.367 182.974 174.662 185.239 162.588C187.521 150.418 193.601 132.722 206.338 106.764L207.035 105.345C210.158 104.364 212.988 102.791 215.43 100.563C219.862 96.5196 221.955 91.2824 223.121 86.7409C224.278 82.2297 224.79 77.2458 225.224 72.9292L225.294 72.2409C225.728 67.9181 226.126 63.9943 226.879 60.2376L228.208 53.6191L222.566 49.9126C219.525 47.9151 215.45 46.5165 211.637 45.455C207.556 44.3184 202.698 43.2871 197.421 42.368L188.202 40.7623L183.542 59.9091H176.885L175.514 39.2934L166.964 38.5571C153.826 37.4259 140.128 36.8318 128.327 37.0417C116.523 36.8318 102.826 37.4259 89.6829 38.5571L81.131 39.2931L79.7623 59.9091H72.7797L68.7285 40.7125L59.2213 42.3679C53.9428 43.287 49.0855 44.3184 45.004 45.455Z" fill="#23142D" />
      <path d="M34 55.9437L36.8232 54.0904C39.1775 52.5449 42.6139 51.3109 46.3455 50.2717C50.2131 49.1946 54.8961 48.1963 60.079 47.2938L64.8326 46.4661L68.7248 64.9091H84.4413L85.8357 43.9067L90.1117 43.5387C103.161 42.4156 116.715 41.8318 128.327 42.0425C139.936 41.8318 153.492 42.4157 166.535 43.5387L170.81 43.9068L172.207 64.9091H187.471L191.953 46.491L196.563 47.2939C201.744 48.1963 206.428 49.1947 210.296 50.2717C214.028 51.3107 217.466 52.5449 219.82 54.0914L222.641 55.9447L221.977 59.2539C221.167 63.2926 220.748 67.4642 220.319 71.7415L220.249 72.4292C219.808 76.8093 219.326 81.414 218.278 85.4982C217.226 89.5975 215.468 93.7602 212.06 96.8688C209.719 99.0045 206.875 100.397 203.553 101.089L201.85 104.561C189.024 130.699 182.727 148.859 180.325 161.666C177.931 174.426 179.486 181.412 181.807 185.668C183.969 189.634 187.05 191.868 190.649 194.478L190.656 194.483C191.063 194.778 191.476 195.078 191.896 195.385C195.703 198.178 200.73 202.172 200.539 209.792C204.433 211.784 207.108 215.839 207.108 220.501V220.505C207.108 227.13 201.708 232.527 195.084 232.527H61.5612C54.9338 232.527 49.54 227.127 49.54 220.505V220.501C49.54 215.836 52.2157 211.779 56.1129 209.788C55.9243 202.171 60.9496 198.179 64.7555 195.387C65.1769 195.078 65.5922 194.777 66.0009 194.481C69.6 191.871 72.6806 189.637 74.8431 185.67C77.1638 181.414 78.7184 174.428 76.3254 161.667C73.9237 148.859 67.6275 130.699 54.8028 104.561L53.1008 101.092C49.7737 100.4 46.9249 99.0069 44.5809 96.8679C41.1739 93.7589 39.4166 89.5959 38.3651 85.4967C37.3175 81.4125 36.8348 76.8078 36.3938 72.4281L36.3254 71.7482C35.8956 67.4686 35.4764 63.2949 34.665 59.2548L34 55.9437Z" fill="#E23E57" />
      <path fill-rule="evenodd" clip-rule="evenodd" d="M39.5671 58.2702C42.9019 56.0811 50.762 53.9913 60.9367 52.2197L64.6699 69.9091H89.1204L90.5404 48.5203C103.496 47.4053 116.909 46.8318 128.327 47.0434C139.742 46.8318 153.157 47.4053 166.106 48.5203L167.529 69.9091H191.4L195.705 52.2197C205.877 53.9914 213.743 56.0813 217.075 58.2702C213.428 76.4454 217.313 96.6095 198.179 96.6095C139.041 101.247 118.164 102.148 58.4618 96.6095C39.3291 96.6095 43.2169 76.4424 39.5671 58.2702Z" fill="#23142D" />
      <path fill-rule="evenodd" clip-rule="evenodd" d="M197.361 102.359C145.703 207.633 196.445 189.775 195.532 209.916H61.1201C60.2065 189.779 110.944 207.633 59.2915 102.359C109.851 107.099 146.801 107.099 197.361 102.359Z" fill="#23142D" />
      <path fill-rule="evenodd" clip-rule="evenodd" d="M61.5612 213.48H195.084C198.948 213.48 202.108 216.639 202.108 220.501V220.505C202.108 224.367 198.948 227.527 195.084 227.527H61.5612C57.6966 227.527 54.54 224.367 54.54 220.505V220.501C54.54 216.638 57.6967 213.48 61.5612 213.48V213.48Z" fill="#23142D" />
    </g>
  </g>
  <g id="wb" fill="none" transform="scale(0.15625 0.15625)">
    <path d="M90.2275 91.3767L88.0992 93.5767L80.6943 101.047C72.4783 109.336 63.9357 117.955 57.5295 126.908C51.0295 135.992 46 146.39 46 158.356C46.0016 176.788 52.6165 191.227 66.0778 201.097C65.6287 201.616 65.1967 202.174 64.7984 202.772C64.3218 203.488 63.7509 204.476 63.3043 205.693C55.471 206.435 48.281 212.636 48.281 221.895C48.281 231.785 56.4734 238.172 64.8834 238.172H190.381C196.044 238.172 202.3 234.158 204.641 230.36C206.983 226.563 206.983 221.903 206.983 221.903V221.898L206.792 219.322C205.598 211.468 198.993 206.328 191.887 205.686C191.469 204.601 190.96 203.711 190.528 203.05C190.122 202.43 189.68 201.852 189.221 201.316C202.659 191.555 209.26 177.215 209.26 158.807C209.26 147.822 205.018 138.07 199.312 129.459C193.652 120.916 186.078 112.802 178.509 105.072C176.678 103.201 174.831 101.337 172.995 99.4825L172.99 99.4775L172.99 99.4766L172.981 99.4684C161.264 87.6348 150.051 76.2654 142.421 63.5866C144.73 60.5076 146.109 56.6757 146.109 52.5126C146.109 42.343 137.867 34 127.633 34C117.397 34 109.161 42.3502 109.161 52.5126C109.161 56.6726 110.539 60.5021 112.844 63.58C107.027 73.2329 99.0363 82.2711 90.2275 91.3767Z" fill="#DDFFBC" />
    <path d="M141.109 52.5126C141.109 56.6851 139.213 60.4023 136.25 62.8739C144.252 77.56 156.881 90.3149 169.437 102.995L169.437 102.995C171.277 104.853 173.115 106.709 174.936 108.57C182.497 116.291 189.771 124.111 195.144 132.22C200.54 140.365 204.26 149.154 204.26 158.807C204.26 176.925 197.467 190.211 183.843 198.934C182.86 199.564 181.843 200.169 180.794 200.748C181.939 201.462 182.962 202.214 183.843 202.986C184.779 203.806 185.66 204.742 186.343 205.786C186.985 206.769 187.712 208.245 187.712 210.04C187.712 210.238 187.703 210.43 187.687 210.618L194.835 216.258L201.983 221.897C201.982 228.646 196.422 233.172 190.381 233.172H64.8834C58.8394 233.172 53.281 228.644 53.281 221.895C53.281 215.154 58.8349 210.618 64.8834 210.618H67.6003C67.571 210.368 67.5553 210.11 67.5553 209.844C67.5553 208.021 68.3034 206.53 68.9606 205.542C69.6587 204.494 70.5586 203.556 71.5107 202.737C72.379 201.989 73.3832 201.262 74.5028 200.567C73.4318 199.968 72.3944 199.343 71.3911 198.691C57.7872 189.852 51.0016 176.466 51 158.355C51 147.849 55.4057 138.468 61.5958 129.817C67.7533 121.212 76.0377 112.848 84.3569 104.455L88.7298 100.043L109.671 132.391C110.154 133.137 111.16 133.335 111.871 132.87C112.605 132.39 112.834 131.35 112.345 130.594L91.0574 97.71L93.8211 94.8532C103.622 84.7216 112.767 74.3282 119.015 62.8703C116.056 60.3987 114.161 56.6831 114.161 52.5126C114.161 45.0863 120.183 39 127.633 39C135.083 39 141.109 45.0821 141.109 52.5126Z" fill="#354A32" />
    <path d="M187.687 210.618L201.983 221.895C201.985 215.152 196.426 210.619 190.384 210.618H187.687Z" fill="#354A32" />
    <path fill-rule="evenodd" clip-rule="evenodd" d="M190.384 215.618H172.851C179.057 213.526 182.712 211.993 182.712 210.041C182.712 208.262 179.691 205.36 174.46 203.062C162.495 207.958 146.856 211.434 127.633 211.434H127.631C108.51 211.434 92.9343 207.752 80.998 202.818C75.6521 205.14 72.5553 208.044 72.5553 209.844C72.5553 211.798 76.2067 213.526 82.4166 215.618H64.8834C61.2509 215.618 58.281 218.248 58.281 221.895C58.281 225.547 61.2523 228.172 64.8834 228.172H190.381C194.01 228.172 196.983 225.547 196.983 221.895C196.985 218.248 194.012 215.618 190.382 215.618H190.384Z" fill="#DDFFBC" />
    <path fill-rule="evenodd" clip-rule="evenodd" d="M129.595 60.8034C129.59 60.7946 129.586 60.7873 129.581 60.7786C133.312 59.8869 136.109 56.5243 136.109 52.5126C136.109 47.8235 132.302 44 127.633 44C122.967 44 119.161 47.825 119.161 52.5126C119.161 56.5229 121.956 59.8838 125.683 60.7771C125.679 60.7858 125.674 60.7931 125.67 60.8048C119.113 74.7436 108.448 86.925 97.4147 98.3297L116.543 127.878C118.522 130.937 117.652 135.064 114.608 137.055C111.566 139.044 107.457 138.168 105.475 135.111L87.9081 107.975C71.1295 124.902 56 140.259 56 158.355C56.0029 191.638 80.4274 205.157 127.631 207.249H127.633C174.834 205.156 199.26 192.089 199.26 158.807C199.26 125.526 148.091 100.118 129.594 60.8033L129.595 60.8034Z" fill="#DDFFBC" />
  </g>
  <g id="wk" fill="none" transform="scale(0.15625 0.15625)">
    <path d="M60.2032 211.63C36.4585 195.426 24.9397 175.379 23.2251 155.443C21.5333 135.773 29.5315 117.607 42.0966 105.355C54.6297 93.1345 72.5496 86.072 90.8966 90.339C93.7163 90.9947 96.4965 91.9079 99.221 93.0837C101.539 90.4791 104.198 88.1813 107.133 86.2659H101.815V57.3536H113.94V45H142.688V57.3566H154.808V86.2689H149.498C152.432 88.184 155.091 90.4814 157.409 93.0863C160.134 91.9102 162.915 90.9968 165.735 90.3408C184.082 86.0732 202.001 93.1356 214.534 105.356C227.099 117.608 235.097 135.774 233.405 155.444C231.699 175.275 220.292 195.218 196.798 211.376C199.424 214.261 201.003 218.096 201.003 222.227C201.003 230.887 194.044 238.282 185.064 238.282H72.1639C63.1828 238.282 56.2244 230.886 56.2244 222.227C56.2244 218.214 57.7132 214.483 60.2032 211.63Z" fill="#DDFFBC" />
    <path d="M68.5904 208.77C68.9394 209.426 69.3079 210.306 69.6969 211.457C64.7994 212.599 61.2243 217.064 61.2243 222.227C61.2243 228.228 66.0464 233.282 72.1639 233.282H185.064C191.181 233.282 196.003 228.228 196.003 222.227C196.003 216.87 192.155 212.265 186.973 211.343C187.348 210.247 187.703 209.402 188.041 208.768C188.275 208.328 188.465 208.056 188.595 207.897C188.683 207.923 188.797 207.96 188.937 208.016L191.409 209.002L193.607 207.502C216.35 191.983 226.86 173.191 228.423 155.015C229.975 136.973 222.637 120.241 211.043 108.936C199.464 97.6455 183.221 91.4069 166.868 95.2108C163.178 96.0691 159.551 97.4218 156.029 99.2935L154.959 97.9408C150.599 92.4315 144.597 88.2874 137.688 86.2888L137.688 81.2689H149.808V62.3566H137.688V50H118.94V62.3536H106.815V81.2659H118.94V86.2878C112.029 88.2855 106.03 92.4316 101.669 97.9405L100.601 99.2905C97.0797 97.4194 93.4534 96.0671 89.764 95.209C73.4101 91.4055 57.1666 97.6444 45.5872 108.935C33.9929 120.24 26.6548 136.972 28.2067 155.014C29.7699 173.19 40.2806 191.982 63.0247 207.502L65.2216 209.001L67.6925 208.017C67.8334 207.961 67.947 207.923 68.0358 207.898C68.1651 208.057 68.3557 208.329 68.5904 208.77Z" fill="#354A32" />
    <path fill-rule="evenodd" clip-rule="evenodd" d="M87.6389 203.017C97.5163 200.089 109.83 197.503 127.562 197.728L128.311 197.719H128.312L129.061 197.728C146.79 197.502 159.104 200.091 168.984 203.017C177.299 205.477 182.214 212.702 170.422 212.702C145.726 212.702 140.029 212.7 129.06 212.702C128.811 212.702 128.558 212.7 128.312 212.697H128.31C128.059 212.699 127.812 212.702 127.561 212.702C116.594 212.7 110.895 212.702 86.1997 212.702C74.4106 212.699 79.3186 205.477 87.6372 203.017H87.6389ZM126.968 140.199C87.7211 41.4815 -21.1174 144.034 65.8428 203.372C70.3291 201.586 72.6551 204.481 74.5101 210.085H74.5203C72.2276 196.72 100.244 190.027 128.316 190.007C156.387 190.027 184.401 196.72 182.111 210.085H182.121C183.975 204.478 186.304 201.584 190.788 203.372C277.745 144.036 168.912 41.4815 129.663 140.203L128.317 143.589L126.968 140.199ZM132.688 90.2967C140.074 91.4291 146.556 95.3811 151.038 101.044C141.835 107.68 134.329 116.811 130.005 127.665C129.357 129.295 128.794 130.926 128.315 132.561C127.838 130.926 127.276 129.295 126.627 127.665C122.298 116.81 114.794 107.68 105.59 101.044C110.073 95.3799 116.553 91.4265 123.94 90.2967V76.2659H111.815V67.3536H123.94V55H132.687V67.3566H144.808V76.2689H132.687L132.688 90.2967ZM72.1638 216.175H185.063C188.33 216.175 191.003 218.901 191.003 222.227C191.003 225.558 188.329 228.282 185.063 228.282H72.1638C68.8977 228.282 66.2243 225.558 66.2243 222.227C66.2243 218.901 68.8979 216.175 72.1638 216.175V216.175Z" fill="#DDFFBC" />
  </g>
  <g id="wn" fill="none" transform="scale(0.15625 0.15625)">
    <path d="M82.3199 196.95L82.3195 196.948C82.2336 196.439 81.9243 195.623 80.9311 194.008C80.7192 193.664 80.4537 193.251 80.1399 192.764L80.108 192.715L80.1047 192.71C79.2788 191.427 78.1657 189.698 77.3399 188.051C76.0636 185.503 74.8794 182.123 75.2611 178.073C75.6442 174.009 77.5067 170.261 80.4666 166.747C83.0872 163.636 86.7137 160.206 90.4429 156.773L90.4471 156.769L102.537 145.548C109.737 138.583 115.984 131.586 119.5 124.858C118.695 125.131 117.861 125.362 116.997 125.548C108.737 127.339 102.315 125.834 97.5835 124.725L97.52 124.71C96.2891 124.422 95.2288 124.174 94.2549 124.001C91.8047 123.567 89.4228 123.41 86.464 123.954C83.4183 124.514 79.4003 125.886 73.8599 128.989L73.8516 128.993C73.2506 129.327 72.5386 129.709 71.7531 130.09L71.7426 130.095C70.9925 130.454 70.1517 130.831 69.24 131.198L66.5896 132.264L65.2644 132.797L64.1323 131.926L61.833 130.157C61.7663 130.102 61.5888 129.957 61.4012 129.804C60.7898 129.306 59.7119 128.427 59.3166 128.078C54.7674 124.067 51.1739 119.71 48.0956 114.547C47.5847 113.689 47.0486 112.725 46.5801 111.712L46.5774 111.706C46.1101 110.687 45.6652 109.523 45.3664 108.229L45.3661 108.228C45.0622 106.908 44.9181 105.415 45.0476 103.884L45.0486 103.873L45.0497 103.861C45.1925 102.341 45.6003 100.819 46.3103 99.3471C47.0083 97.898 47.9507 96.6121 48.9679 95.5108L48.9727 95.5054L48.9777 95.5002C49.9991 94.407 51.1735 93.4067 52.4783 92.4756C64.8897 83.6152 68.4828 79.4187 74.8604 71.9701L74.8605 71.97L74.9135 71.9081L74.9163 71.9048L74.9184 71.9023C77.852 68.4761 81.3743 64.3623 86.542 58.8576C87.2439 58.1066 87.957 57.4171 88.6604 56.7878C89.1011 56.3935 89.982 55.7099 90.7678 55.1128C90.5435 54.0882 90.4304 53.0293 90.4542 51.9426C90.509 49.4495 91.274 47.2771 92.3532 45.4771C94.3075 42.2172 97.4466 39.9931 99.4666 38.6185L102.057 36.8558L103.315 36L104.653 36.7238C106.627 37.7916 111.21 40.4721 114.797 43.2214C152.438 37.0979 182.972 55.8757 197.928 85.8965C213.238 116.625 212.102 158.678 187.672 197.761C187.609 197.949 187.526 198.258 187.457 198.678C187.317 199.531 187.271 200.609 187.416 201.742C187.659 203.631 188.357 205.279 189.632 206.51C192.351 206.994 195.19 207.503 198.165 208.037L198.518 208.101C203.847 209.059 211.201 213.25 211.201 222.008C211.201 229.721 204.934 236.036 197.192 236.036H192.667H192.444L192.226 235.997L191.788 235.919C163.896 230.919 149.552 228.581 135.317 228.583C121.08 228.585 106.738 230.927 78.8468 235.919L78.4108 235.997L78.1927 236.036H77.9711L73.4363 236.038C65.6879 236.038 59.4319 229.718 59.4319 222.01C59.4319 213.253 66.7798 209.061 72.109 208.101H72.1106C73.0506 207.932 73.9771 207.766 74.8906 207.603L78.0893 204.601C81.0379 201.835 81.9315 199.958 82.2238 199.051C82.3653 198.611 82.4107 198.267 82.4169 197.973C82.4234 197.666 82.3892 197.358 82.3199 196.95Z" fill="#354A32" />
    <path d="M59.3166 128.078C59.7119 128.427 60.7898 129.306 61.4012 129.804C61.5888 129.957 61.7663 130.102 61.833 130.157L64.1323 131.926L65.2644 132.797L66.5896 132.264L69.24 131.198C70.1517 130.831 70.9925 130.454 71.7426 130.095L71.7531 130.09C72.5386 129.709 73.2506 129.327 73.8516 128.993L73.8599 128.989C79.4003 125.886 83.4183 124.514 86.464 123.954C89.4228 123.41 91.8047 123.567 94.2549 124.001C95.2288 124.174 96.2891 124.422 97.52 124.71L97.5835 124.725C102.315 125.834 108.737 127.339 116.997 125.548C117.861 125.362 118.695 125.131 119.5 124.858C115.984 131.586 109.737 138.583 102.537 145.548L90.4471 156.769L90.4429 156.773C86.7137 160.206 83.0872 163.636 80.4666 166.747C77.5067 170.261 75.6442 174.009 75.2611 178.073C74.8794 182.123 76.0636 185.503 77.3399 188.051C78.1668 189.701 79.2818 191.432 80.108 192.715L80.1399 192.764C80.4537 193.251 80.7192 193.664 80.9311 194.008C81.9243 195.623 82.2336 196.439 82.3195 196.948L82.3199 196.95C82.3892 197.358 82.4234 197.666 82.4169 197.973C82.4107 198.267 82.3653 198.611 82.2238 199.051C81.9315 199.958 81.0379 201.835 78.0893 204.601L74.8906 207.603C73.9771 207.766 73.0506 207.932 72.1106 208.101H72.109C66.7798 209.061 59.4319 213.253 59.4319 222.01C59.4319 229.718 65.6879 236.038 73.4363 236.038L77.9711 236.036H78.1927L78.4108 235.997L78.8468 235.919C106.738 230.927 121.08 228.585 135.317 228.583C149.552 228.581 163.896 230.919 191.788 235.919L192.226 235.997L192.444 236.036H192.667H197.192C204.934 236.036 211.201 229.721 211.201 222.008C211.201 213.25 203.847 209.059 198.518 208.101C195.415 207.544 192.458 207.013 189.632 206.51C188.357 205.279 187.659 203.631 187.416 201.742C187.271 200.609 187.317 199.531 187.457 198.678C187.526 198.258 187.609 197.949 187.672 197.761C212.102 158.678 213.238 116.625 197.928 85.8965C182.972 55.8757 152.438 37.0979 114.797 43.2214C111.21 40.4721 106.627 37.7916 104.653 36.7238L103.315 36L102.057 36.8558L99.4666 38.6185C97.4466 39.9931 94.3075 42.2172 92.3532 45.4771C91.274 47.2771 90.509 49.4495 90.4542 51.9426C90.4304 53.0293 90.5435 54.0882 90.7678 55.1128C89.982 55.7099 89.1011 56.3935 88.6604 56.7878C87.957 57.4171 87.2439 58.1066 86.542 58.8576C81.3731 64.3636 77.8503 68.4781 74.9163 71.9048L74.9135 71.9081L74.8605 71.97C68.4828 79.4187 64.8897 83.6152 52.4783 92.4756M59.3166 128.078C54.7674 124.067 51.1739 119.71 48.0956 114.547C47.5847 113.689 47.0486 112.725 46.5801 111.712L46.5774 111.706C46.1101 110.687 45.6652 109.523 45.3664 108.229L45.3661 108.228C45.0622 106.908 44.9181 105.415 45.0476 103.884L45.0486 103.873L45.0497 103.861C45.1925 102.341 45.6003 100.819 46.3103 99.3471C47.0083 97.898 47.9507 96.6121 48.9679 95.5108L48.9727 95.5054M59.3166 128.078L59.3175 128.079M48.9727 95.5054L48.9777 95.5002C49.9991 94.407 51.1735 93.4067 52.4783 92.4756M48.9727 95.5054L52.4783 92.4756" stroke="#DDFFBC" stroke-width="5" />
    <path fill-rule="evenodd" clip-rule="evenodd" d="M83.2212 210.071C90.4789 203.261 90.1767 198.417 89.7141 195.694C88.3671 187.718 77.1151 182.367 86.2028 171.579C95.2874 160.794 120.617 143.096 127.946 124.408C129.175 121.271 130.123 118.1 130.735 114.926C131.348 111.755 131.628 108.576 131.521 105.424C131.502 104.869 131.41 104.392 131.266 103.991C131.121 103.586 130.918 103.254 130.684 102.992C130.447 102.728 130.171 102.534 129.879 102.403C129.589 102.273 129.28 102.206 128.972 102.2C128.664 102.194 128.354 102.247 128.064 102.353C127.771 102.46 127.499 102.623 127.263 102.836C127.022 103.049 126.823 103.313 126.679 103.623C126.53 103.932 126.438 104.288 126.419 104.688C126.386 105.452 126.283 106.291 126.101 107.162C125.922 108.035 125.657 108.938 125.297 109.844C124.939 110.746 124.485 111.648 123.918 112.509C123.35 113.372 122.674 114.193 121.872 114.94C121.068 115.688 120.138 116.359 119.067 116.915C117.996 117.474 116.78 117.922 115.41 118.218C98.5607 121.871 94.4118 108.886 70.1959 122.445C69.6647 122.739 69.0999 123.041 68.4826 123.341C67.8609 123.638 67.1881 123.939 66.4409 124.24C66.4409 124.24 66.346 124.167 66.1709 124.031C65.9958 123.895 65.7375 123.694 65.4193 123.428C65.0997 123.164 64.7144 122.839 64.2795 122.455C60.3216 118.965 57.2248 115.213 54.5382 110.707C54.1033 109.977 53.7136 109.269 53.394 108.577C53.0759 107.884 52.8292 107.211 52.6745 106.542C52.5213 105.876 52.4614 105.218 52.5169 104.563C52.5782 103.91 52.7519 103.255 53.0671 102.603C53.3823 101.947 53.8406 101.289 54.4579 100.621C55.0811 99.9537 55.8619 99.2751 56.8353 98.5804C75.7389 85.0854 76.0628 80.9773 92.0169 63.9839C92.5539 63.4089 93.1071 62.8733 93.6616 62.3771C94.2161 61.8809 94.7751 61.4255 95.3355 61.0067C95.8916 60.5864 96.4491 60.207 97.0007 59.8625C97.5494 59.5167 98.0923 59.2073 98.6206 58.9329C99.1504 58.6585 99.6685 58.4206 100.165 58.2134C99.9851 57.7537 99.7648 57.2998 99.524 56.843C99.2876 56.3862 99.0351 55.9294 98.8045 55.4624C96.3425 50.5223 99.5897 47.6067 103.686 44.8192C104.064 45.0366 104.442 45.2585 104.824 45.4862C105.202 45.7138 105.582 45.9459 105.964 46.1867C106.342 46.4245 106.722 46.6683 107.104 46.9163C107.482 47.1674 107.863 47.4271 108.238 47.6898C108.616 47.954 108.994 48.2254 109.37 48.5042C109.743 48.7829 110.118 49.0689 110.488 49.3638C110.856 49.6571 111.227 49.9607 111.592 50.2715C111.958 50.5838 112.32 50.902 112.677 51.2318C184.103 36.7501 227.83 119.531 181.249 193.856C179.246 197.05 179.136 204.319 182.636 209.319C138.17 201.898 128.308 202.514 83.2212 210.071ZM98.9608 68.9926C96.153 71.2474 94.7111 74.0654 95.7429 75.2811C96.7659 76.5012 99.8746 75.6576 102.681 73.4029C105.484 71.1437 106.926 68.3301 105.899 67.1114C104.874 65.8899 101.764 66.7335 98.9608 68.9926ZM59.0823 102.807C57.7761 103.709 57.0494 104.903 57.4609 105.47C57.871 106.035 59.2647 105.764 60.5723 104.859C61.8785 103.956 62.6053 102.763 62.1923 102.196C61.7778 101.631 60.3899 101.904 59.0823 102.807Z" fill="#DDFFBC" />
    <path fill-rule="evenodd" clip-rule="evenodd" d="M73.4352 215.483C134.217 204.577 136.417 204.56 197.192 215.483C200.718 216.117 203.701 218.421 203.701 222.008C203.701 225.6 200.772 228.536 197.192 228.536H193.111C137.627 218.59 133.002 218.607 77.5254 228.536L73.4363 228.538C69.8565 228.538 66.9319 225.603 66.9319 222.01C66.9319 218.421 69.912 216.118 73.4363 215.483H73.4352Z" fill="#DDFFBC" />
  </g>
  <g id="wp" fill="none" transform="scale(0.15625 0.15625)">
    <path d="M57 222.683C57.0049 217.507 59.5222 213.032 63.2829 210.22C63.2821 208.361 63.3831 206.46 63.5961 204.523C64.1524 199.401 66.8174 194.838 69.1771 191.425C71.681 187.803 74.884 184.047 77.9505 180.51C78.395 179.997 78.8409 179.484 79.2855 178.973L79.3109 178.944C85.3421 172.004 90.9827 165.475 94.4875 158.862C98.6422 151.025 100.962 143.939 101.67 135.751C98.4455 135.316 95.5056 134.789 92.9768 134.171C90.6131 133.593 88.0576 132.806 85.8699 131.649C84.7857 131.075 83.2885 130.151 81.9467 128.708C80.5695 127.226 78.8315 124.592 78.8315 120.945C78.8315 117.862 80.093 115.543 81.0355 114.216C82.0081 112.847 83.1342 111.827 84.0404 111.114C85.8551 109.684 88.0133 108.533 90.0927 107.605C90.3792 107.477 90.6715 107.351 90.9694 107.225C88.0657 101.679 86.4157 95.382 86.4157 88.6999C86.4196 65.9782 105.406 48.0609 128.058 48C150.761 48 169.702 65.9357 169.702 88.7013C169.702 95.3854 168.05 101.683 165.146 107.227C165.443 107.352 165.735 107.479 166.022 107.606C168.101 108.534 170.259 109.685 172.074 111.114C172.981 111.827 174.107 112.847 175.08 114.216C176.023 115.543 177.285 117.862 177.285 120.947C177.285 124.59 175.55 127.225 174.172 128.708C172.83 130.152 171.333 131.077 170.248 131.651C168.059 132.809 165.503 133.597 163.139 134.174C160.611 134.792 157.673 135.318 154.45 135.753C155.158 143.941 157.477 151.026 161.631 158.863C165.136 165.476 170.776 172.004 176.806 178.942C177.26 179.465 177.715 179.989 178.169 180.513C181.235 184.05 184.438 187.805 186.941 191.427C189.302 194.843 191.969 199.41 192.522 204.537C192.758 206.717 192.86 208.871 192.828 210.985C196.057 213.808 198.165 217.957 198.165 222.692C198.165 231.555 190.844 238.32 182.399 238.32H72.7647C64.3167 238.32 57 231.542 57 222.683Z" fill="#DDFFBC" />
    <path fill-rule="evenodd" clip-rule="evenodd" d="M62 222.687C62.0041 218.32 64.655 214.65 68.3634 213L68.3307 212.286C68.2241 209.96 68.2932 207.55 68.5665 205.067C68.9818 201.234 71.0373 197.526 73.29 194.268C75.6165 190.902 78.6459 187.341 81.7283 183.786C82.179 183.266 82.6315 182.745 83.0848 182.223C89.0188 175.396 95.0803 168.421 98.9055 161.203C104.125 151.358 106.717 142.397 106.896 131.329C101.934 130.829 97.5764 130.149 94.1643 129.314C91.9533 128.774 89.8601 128.103 88.2083 127.229C87.3882 126.795 86.4248 126.181 85.6088 125.304C84.7702 124.402 83.8315 122.925 83.8315 120.945C83.8315 119.26 84.5211 117.943 85.1118 117.111C85.7159 116.261 86.4536 115.577 87.1338 115.042C88.4963 113.969 90.2425 113.013 92.1297 112.171C93.9598 111.355 96.1099 110.563 98.5184 109.83C94.064 103.927 91.4157 96.6231 91.4157 88.6999C91.4191 68.8648 107.935 53.0296 128 53.0001L128.004 53H128.058C148.149 53 164.702 68.8446 164.702 88.7013C164.702 96.6268 162.05 103.93 157.595 109.832C160.004 110.565 162.155 111.357 163.985 112.173C165.872 113.015 167.619 113.97 168.982 115.043C169.662 115.578 170.4 116.262 171.004 117.112C171.595 117.944 172.285 119.261 172.285 120.947C172.285 122.925 171.348 124.402 170.509 125.305C169.693 126.183 168.729 126.798 167.909 127.232C166.257 128.106 164.163 128.777 161.952 129.318C158.54 130.151 154.184 130.831 149.224 131.331C149.403 142.399 151.995 151.359 157.213 161.205C161.039 168.422 167.099 175.395 173.031 182.222C173.486 182.745 173.939 183.267 174.391 183.788C177.473 187.343 180.502 190.905 182.828 194.27C185.082 197.53 187.138 201.24 187.551 205.075C187.818 207.543 187.895 209.955 187.786 212.291L187.731 213.469C190.945 215.285 193.165 218.693 193.165 222.692V222.693C193.165 228.664 188.215 233.32 182.399 233.32H72.7647C66.9469 233.32 62 228.662 62 222.693V222.687Z" fill="#354A32" />
    <path fill-rule="evenodd" clip-rule="evenodd" d="M72.7647 217.066H182.399C185.57 217.066 188.165 219.598 188.165 222.692V222.693C188.165 225.787 185.57 228.32 182.399 228.32H72.7647C69.5935 228.32 67 225.788 67 222.693V222.692C67.0029 219.598 69.5919 217.066 72.7647 217.066V217.066ZM128.058 58C145.532 58 159.702 71.7475 159.702 88.7013C159.702 98.3583 155.105 106.973 147.924 112.599C159.508 114.851 167.285 118.606 167.285 120.947C167.285 123.543 157.682 125.78 143.926 126.767C144.12 127.625 144.224 128.493 144.217 129.366C144.107 142.244 146.928 152.477 152.795 163.546C161.691 180.328 181.485 195.454 182.58 205.61C182.821 207.836 182.888 209.99 182.792 212.058L73.3254 212.057C73.2305 209.987 73.2918 207.835 73.537 205.609C74.633 195.451 94.4297 180.326 103.323 163.545C109.192 152.475 112.013 142.242 111.903 129.365C111.897 128.492 111.998 127.623 112.189 126.765C98.4331 125.777 88.8315 123.539 88.8315 120.945C88.8315 118.604 96.6058 114.848 108.19 112.597C101.007 106.971 96.4157 98.3553 96.4157 88.6999C96.4186 71.7476 110.585 58 128.057 58L128.058 58Z" fill="#DDFFBC" />
  </g>
  <g id="wq" fill="none" transform="scale(0.15625 0.15625)">
    <path fill-rule="evenodd" clip-rule="evenodd" d="M209.401 76.9272L214.498 76.1062H214.898C224.21 76.1062 233.181 83.2619 233.179 93.775M209.401 76.9272L209.025 77.0511ZM198.191 100.96C197.192 98.7921 196.617 96.3653 196.617 93.7746C196.617 85.5378 202.205 79.2952 209.025 77.0511M198.191 100.96L181.164 126.805L182.488 98.3885C187.655 95.4375 191.473 89.996 191.473 83.1898C191.473 72.6762 182.499 65.5223 173.189 65.5223C163.875 65.5223 154.905 72.6806 154.905 83.1898C154.905 86.9542 156.108 90.3501 158.061 93.1202L145.367 122.786L140.031 92.6097C143.52 89.4879 145.872 84.97 145.872 79.6675C145.872 69.1565 136.901 62 127.592 62C118.281 62 109.307 69.1559 109.307 79.6675C109.307 84.9704 111.66 89.4879 115.148 92.6093L109.813 122.785L97.1176 93.1178C99.0714 90.3477 100.274 86.9513 100.274 83.1861C100.274 72.6715 91.2986 65.5186 81.9888 65.5186C72.6783 65.5186 63.7082 72.678 63.7082 83.1861C63.7082 89.9896 67.523 95.4324 72.6897 98.3843L74.014 126.8L56.9898 100.959C57.9892 98.7924 58.5641 96.3661 58.5641 93.7746C58.5641 83.2588 49.5921 76.1082 40.2806 76.1082C30.9655 76.1082 22 83.2648 22 93.7746C22 101.575 26.9825 107.558 33.316 110.097C36.1147 125.402 37.6696 137.998 38.7476 148.503C39.1681 152.6 39.5207 156.443 39.8521 160.053L39.8636 160.179C40.4828 166.927 41.0368 172.964 41.8228 178.09C43.0498 186.092 45.0432 193.569 49.9339 199.979C52.9271 203.902 56.6684 206.992 61.0986 209.591C57.6154 212.13 54.6628 216.218 54.6628 222.098C54.6628 230.973 61.911 238.068 70.6741 238.068H184.919C193.683 238.068 200.927 230.965 200.927 222.098C200.927 216.092 197.871 211.985 194.302 209.459C198.635 206.887 202.301 203.836 205.243 199.979C210.134 193.569 212.127 186.092 213.354 178.09C214.141 172.962 214.695 166.922 215.314 160.171L215.325 160.049C215.657 156.439 216.009 152.598 216.43 148.502C217.508 137.996 219.062 125.4 221.86 110.095C228.193 107.556 233.178 101.575 233.179 93.775" fill="#DDFFBC" />
    <path d="M214.898 76.1062H214.498L209.401 76.9272L209.025 77.0511C202.205 79.2952 196.617 85.5378 196.617 93.7746C196.617 96.3653 197.192 98.7921 198.191 100.96L181.164 126.805L182.488 98.3885C187.655 95.4375 191.473 89.996 191.473 83.1898C191.473 72.6762 182.499 65.5223 173.189 65.5223C163.875 65.5223 154.905 72.6806 154.905 83.1898C154.905 86.9542 156.108 90.3501 158.061 93.1202L145.367 122.786L140.031 92.6097C143.52 89.4879 145.872 84.97 145.872 79.6675C145.872 69.1565 136.901 62 127.592 62C118.281 62 109.307 69.1559 109.307 79.6675C109.307 84.9704 111.66 89.4879 115.148 92.6093L109.813 122.785L97.1176 93.1178C99.0714 90.3477 100.274 86.9513 100.274 83.1861C100.274 72.6715 91.2986 65.5186 81.9888 65.5186C72.6783 65.5186 63.7082 72.678 63.7082 83.1861C63.7082 89.9896 67.523 95.4324 72.6897 98.3843L74.014 126.8L56.9898 100.959C57.9892 98.7924 58.5641 96.3661 58.5641 93.7746C58.5641 83.2588 49.5921 76.1082 40.2806 76.1082C30.9655 76.1082 22 83.2648 22 93.7746C22 101.575 26.9825 107.558 33.316 110.097C36.1147 125.402 37.6696 137.998 38.7476 148.503C39.1681 152.6 39.5207 156.443 39.8521 160.053L39.8636 160.179C40.4828 166.927 41.0368 172.964 41.8228 178.09C43.0498 186.092 45.0432 193.569 49.9339 199.979C52.9271 203.902 56.6684 206.992 61.0986 209.591C57.6154 212.13 54.6628 216.218 54.6628 222.098C54.6628 230.973 61.911 238.068 70.6741 238.068H184.919C193.683 238.068 200.927 230.965 200.927 222.098C200.927 216.092 197.871 211.985 194.302 209.459C198.635 206.887 202.301 203.836 205.243 199.979C210.134 193.569 212.127 186.092 213.354 178.09C214.141 172.962 214.695 166.922 215.314 160.171L215.325 160.049C215.657 156.439 216.009 152.598 216.43 148.502C217.508 137.996 219.062 125.4 221.86 110.095C228.193 107.556 233.178 101.575 233.179 93.775C233.181 83.2619 224.21 76.1062 214.898 76.1062Z" fill="#DDFFBC" />
    <path d="M204.075 101.118C202.55 99.0799 201.617 96.5615 201.617 93.7746C201.617 87.9891 205.527 83.4658 210.588 81.8006L214.898 81.1062C221.863 81.1062 228.181 86.4201 228.179 93.7743C228.178 100.193 223.361 105.06 217.501 106.191C214.317 123.022 212.613 136.714 211.456 147.991C211.032 152.118 210.677 155.985 210.346 159.592C209.718 166.441 209.175 172.355 208.412 177.332C207.228 185.054 205.397 191.535 201.268 196.946C197.522 201.855 192.255 205.408 185.131 208.493L188.291 211.889C192.117 213.322 195.927 216.577 195.927 222.098C195.927 228.17 190.955 233.068 184.919 233.068H70.6741C64.6361 233.068 59.6628 228.176 59.6628 222.098C59.6628 216.976 62.9424 213.804 66.474 212.228L70.0279 208.486C62.9128 205.402 57.6517 201.852 53.909 196.946C49.78 191.535 47.9491 185.054 46.7651 177.332C46.002 172.356 45.4596 166.444 44.8312 159.596C44.5001 155.988 44.1451 152.12 43.7215 147.992C42.5642 136.715 40.8593 123.024 37.6754 106.193C31.8157 105.062 27 100.195 27 93.7746C27 86.4221 33.3136 81.1082 40.2806 81.1082C47.2467 81.1082 53.5641 86.4186 53.5641 93.7746C53.5641 96.5618 52.6299 99.0797 51.1062 101.117L79.8563 144.757L77.5427 95.1141C72.5503 93.4129 68.7082 88.92 68.7082 83.1861C68.7082 75.8354 75.0264 70.5186 81.9888 70.5186C88.9533 70.5186 95.2739 75.8314 95.2739 83.1861C95.2739 86.8133 93.7052 89.9739 91.297 92.225L111.815 140.175L120.609 90.4384C116.918 88.2611 114.307 84.371 114.307 79.6675C114.307 72.3151 120.627 67 127.592 67C134.554 67 140.872 72.3145 140.872 79.6675C140.872 84.3709 138.262 88.2614 134.57 90.4387L143.364 140.176L163.881 92.2277C161.474 89.9764 159.905 86.8161 159.905 83.1898C159.905 75.8386 166.223 70.5223 173.189 70.5223C180.153 70.5223 186.473 75.8355 186.473 83.1898C186.473 88.9254 182.627 93.4171 177.635 95.1178L175.322 144.761L204.075 101.118Z" fill="#354A32" />
    <path fill-rule="evenodd" clip-rule="evenodd" d="M168.321 201.881C167.62 202.262 146.99 214.135 146.983 214.132C147.986 199.987 146.751 214.364 147.986 199.987C134.943 212.517 147.576 200.395 134.534 212.924C132.329 208.349 129.879 203.515 127.792 198.907C125.702 203.515 123.255 208.349 121.05 212.924C108.009 200.394 120.639 212.516 107.601 199.987C108.836 214.364 107.601 199.987 108.601 214.132C108.595 214.134 87.9653 202.263 87.2674 201.881C90.9699 212.244 87.2674 201.881 91.132 212.216C84.6507 213.282 79.3298 214.586 70.6741 216.124C67.4182 216.704 64.6628 218.813 64.6628 222.098C64.6628 225.383 67.3656 228.068 70.6741 228.068H184.919C188.223 228.068 190.927 225.38 190.927 222.098C190.927 218.811 188.17 216.704 184.919 216.124C176.262 214.586 170.939 213.282 164.461 212.216C168.322 201.881 164.618 212.244 168.322 201.881H168.321Z" fill="#DDFFBC" />
    <path fill-rule="evenodd" clip-rule="evenodd" d="M214.898 86.1082C210.323 86.1082 206.617 89.5392 206.617 93.7746C206.617 96.5489 208.205 98.9729 210.587 100.321L169.479 162.717L172.829 90.8504C172.948 90.8547 173.069 90.8562 173.189 90.8562C177.76 90.8562 181.473 87.4252 181.473 83.1898C181.473 78.9545 177.763 75.5223 173.189 75.5223C168.614 75.5223 164.905 78.9563 164.905 83.1898C164.905 86.4282 167.073 89.1981 170.136 90.3205L141.361 157.566L128.925 87.2345C132.864 86.6449 135.872 83.4794 135.872 79.6675C135.872 75.4323 132.163 72 127.592 72C123.017 72 119.307 75.434 119.307 79.6675C119.307 83.4794 122.316 86.6449 126.253 87.2345L113.818 157.566L85.0419 90.3167C88.1052 89.1959 90.2739 86.426 90.2739 83.1861C90.2739 78.9509 86.5641 75.5186 81.9888 75.5186C77.4181 75.5186 73.7082 78.9526 73.7082 83.1861C73.7082 87.4213 77.418 90.8525 81.9888 90.8525C82.1099 90.8525 82.2267 90.851 82.3493 90.8466L85.6986 162.713L44.5946 100.321C46.9719 98.9742 48.5641 96.5486 48.5641 93.7746C48.5641 89.5379 44.8573 86.1082 40.2806 86.1082C35.7054 86.1082 32 89.5392 32 93.7746C32 98.0097 35.7069 101.442 40.2806 101.442C40.8074 101.442 41.327 101.395 41.8246 101.311C56.6799 176.626 42.5149 192.194 74.2494 204.825C77.2791 206.032 77.12 208.28 74.7996 210.723C78.1737 210.193 81.3799 209.7 84.4419 209.247L78.1504 191.888L103.836 206.721L103.865 206.717L101.769 189.607L119.651 205.505L119.85 205.497L127.59 188.849L135.316 205.476L135.547 205.486L153.41 189.605L151.317 206.667L151.418 206.677L177.026 191.888L170.758 209.18C173.789 209.625 176.959 210.111 180.296 210.636C178.053 208.225 177.936 206.017 180.93 204.823C212.66 192.195 198.499 176.625 213.351 101.309C213.853 101.395 214.369 101.44 214.895 101.44C219.471 101.44 223.179 98.0061 223.179 93.7726C223.18 89.5374 219.474 86.1062 214.898 86.1062L214.898 86.1082Z" fill="#DDFFBC" />
  </g>
  <g id="wr" fill="none" transform="scale(0.15625 0.15625)">
    <path d="M44.5712 45.455C40.7579 46.517 36.686 47.9152 33.6465 49.9105L28 53.6172L29.33 60.2393C30.0847 63.9971 30.4832 67.9229 30.9176 72.2483L30.986 72.929C31.4207 77.245 31.932 82.228 33.089 86.739C34.2538 91.2801 36.3465 96.5177 40.7777 100.561C43.2236 102.793 46.0587 104.368 49.187 105.349L49.8811 106.763C62.6173 132.721 68.696 150.418 70.9782 162.588C73.2424 174.663 71.6057 180.369 70.0204 183.277C68.4721 186.116 66.3236 187.756 62.6327 190.433L62.6304 190.435C62.2239 190.729 61.7985 191.038 61.3653 191.356C57.9133 193.888 51.8017 198.495 50.8119 206.971C46.7481 210.077 44.1072 214.98 44.1072 220.501V220.505C44.1072 229.887 51.7379 237.527 61.1283 237.527H194.651C204.035 237.527 211.675 229.893 211.675 220.505V220.501C211.675 214.982 209.035 210.082 204.975 206.977C203.988 198.496 197.874 193.887 194.42 191.354C193.999 191.045 193.585 190.744 193.189 190.457L193.175 190.447L193.156 190.433L193.151 190.43L193.149 190.428C189.46 187.753 187.312 186.113 185.764 183.275C184.178 180.367 182.542 174.662 184.806 162.588C187.088 150.418 193.168 132.722 205.905 106.764L206.602 105.345C209.725 104.364 212.555 102.791 214.997 100.563C219.429 96.5196 221.523 91.2824 222.688 86.7409C223.845 82.2297 224.357 77.2458 224.791 72.9292L224.861 72.2409C225.295 67.9181 225.693 63.9943 226.447 60.2376L227.775 53.6191L222.133 49.9126C219.092 47.9151 215.017 46.5165 211.205 45.455C207.123 44.3184 202.265 43.2871 196.988 42.368L187.769 40.7623L183.109 59.9091H176.453L175.081 39.2934L166.531 38.5571C153.393 37.4259 139.695 36.8318 127.894 37.0417C116.09 36.8318 102.393 37.4259 89.25 38.5571L80.6981 39.2931L79.3294 59.9091H72.3468L68.2956 40.7125L58.7884 42.3679C53.5099 43.287 48.6526 44.3184 44.5712 45.455Z" fill="#DDFFBC" />
    <path d="M33.5671 55.9437L36.3904 54.0904C38.7446 52.5449 42.1811 51.3109 45.9126 50.2717C49.7802 49.1946 54.4632 48.1963 59.6461 47.2938L64.3997 46.4661L68.2919 64.9091H84.0085L85.4028 43.9067L89.6788 43.5387C102.728 42.4156 116.282 41.8318 127.894 42.0425C139.503 41.8318 153.059 42.4157 166.102 43.5387L170.377 43.9068L171.774 64.9091H187.038L191.52 46.491L196.13 47.2939C201.312 48.1963 205.995 49.1947 209.863 50.2717C213.595 51.3107 217.033 52.5449 219.387 54.0914L222.208 55.9447L221.544 59.2539C220.734 63.2926 220.315 67.4642 219.886 71.7415L219.817 72.4292C219.376 76.8093 218.893 81.414 217.845 85.4982C216.793 89.5975 215.035 93.7602 211.628 96.8688C209.286 99.0045 206.442 100.397 203.12 101.089L201.417 104.561C188.591 130.699 182.294 148.859 179.892 161.666C177.499 174.426 179.053 181.412 181.374 185.668C183.537 189.634 186.617 191.868 190.216 194.478L190.223 194.483C190.63 194.778 191.044 195.078 191.463 195.385C195.27 198.178 200.297 202.172 200.106 209.792C204 211.784 206.675 215.839 206.675 220.501V220.505C206.675 227.13 201.275 232.527 194.651 232.527H61.1283C54.501 232.527 49.1072 227.127 49.1072 220.505V220.501C49.1072 215.836 51.7828 211.779 55.6801 209.788C55.4914 202.171 60.5168 198.179 64.3226 195.387C64.744 195.078 65.1594 194.777 65.568 194.481C69.1671 191.871 72.2477 189.637 74.4103 185.67C76.731 181.414 78.2855 174.428 75.8926 161.667C73.4908 148.859 67.1946 130.699 54.3699 104.561L52.6679 101.092C49.3408 100.4 46.492 99.0069 44.148 96.8679C40.741 93.7589 38.9837 89.5959 37.9323 85.4967C36.8847 81.4125 36.4019 76.8078 35.9609 72.4281L35.8926 71.7482C35.4627 67.4686 35.0436 63.2949 34.2321 59.2548L33.5671 55.9437Z" fill="#354A32" />
    <path fill-rule="evenodd" clip-rule="evenodd" d="M39.1343 58.2702C42.469 56.0811 50.3291 53.9913 60.5039 52.2197L64.237 69.9091H88.6876L90.1076 48.5203C103.063 47.4053 116.476 46.8318 127.894 47.0434C139.309 46.8318 152.724 47.4053 165.673 48.5203L167.096 69.9091H190.967L195.272 52.2197C205.444 53.9914 213.31 56.0813 216.642 58.2702C212.995 76.4454 216.88 96.6095 197.746 96.6095C138.608 101.247 117.731 102.148 58.029 96.6095C38.8963 96.6095 42.784 76.4424 39.1343 58.2702Z" fill="#DDFFBC" />
    <path fill-rule="evenodd" clip-rule="evenodd" d="M196.928 102.359C145.27 207.633 196.013 189.775 195.099 209.916H60.6873C59.7737 189.779 110.511 207.633 58.8586 102.359C109.419 107.099 146.368 107.099 196.928 102.359Z" fill="#DDFFBC" />
    <path fill-rule="evenodd" clip-rule="evenodd" d="M61.1283 213.48H194.651C198.515 213.48 201.675 216.639 201.675 220.501V220.505C201.675 224.367 198.515 227.527 194.651 227.527H61.1283C57.2638 227.527 54.1072 224.367 54.1072 220.505V220.501C54.1072 216.638 57.2638 213.48 61.1283 213.48V213.48Z" fill="#DDFFBC" />
  </g>
</svg>