<svg xmlns="http://www.w3.org/2000/svg" width="40" height="40" viewbox="0.0 0.0 200.0 200.0">
  <g id="bb" fill="none" transform="scale(0.2 0.2)">
    <path fill-rule="evenodd" clip-rule="evenodd" d="M68.787 40.503L100 71.716L131.213 40.503L166.569 33.431L159.497 68.787L128.284 100L159.497 131.213L166.569 166.569L131.213 159.497L100 128.284L68.787 159.497L33.431 166.569L40.503 131.213L71.716 100L40.503 68.787L33.43 33.43L68.787 40.503Z" fill="#393E46" stroke="black" stroke-width="6" stroke-linejoin="bevel" />
  </g>
  <g id="bk" fill="none" transform="scale(0.2 0.2)">
    <path fill-rule="evenodd" clip-rule="evenodd" d="M68.787 24.645L24.645 68.787V131.213L68.787 175.355H131.213L175.355 131.213V68.787L131.213 24.645H68.787ZM88 67.857H112V88H132.143V112H112V132.143H88V112H67.857V88H88V67.857Z" fill="#393E46" stroke="black" stroke-width="6" stroke-linejoin="round" />
  </g>
  <g id="bn" fill="none" transform="scale(0.2 0.2)">
    <path fill-rule="evenodd" clip-rule="evenodd" d="M35.5 122.839V79.565L148.17 33.057L163.432 70.03L87.917 101.202L163.432 132.373L148.17 169.347L35.5 122.839Z" fill="#393E46" stroke="black" stroke-width="6" stroke-linejoin="bevel" />
  </g>
  <g id="bp" fill="none" transform="scale(0.2 0.2)">
    <path d="M47.8 47.8V155.8H155.8V47.8H47.8ZM83.8 83.8H119.8V119.8H83.8V83.8Z" fill="#393E46" stroke="black" stroke-width="5.4" stroke-linejoin="bevel" />
  </g>
  <g id="bq" fill="none" transform="scale(0.2 0.2)">
    <path fill-rule="evenodd" clip-rule="evenodd" d="M80 20V51.715L57.574 29.289L29.29 57.574L51.715 80H20V120H51.715L29.289 142.426L57.574 170.711L80 148.285V180H120V148.285L142.426 170.711L170.711 142.426L148.285 120H180V80H148.285L170.711 57.574L142.426 29.289L120 51.715V20H80ZM100 78.033C102.885 78.0329 105.741 78.601 108.407 79.7049C111.072 80.8088 113.493 82.4268 115.533 84.4667C117.573 86.5065 119.191 88.9282 120.295 91.5934C121.399 94.2587 121.967 97.1152 121.967 100C121.967 102.885 121.399 105.741 120.295 108.407C119.191 111.072 117.573 113.493 115.533 115.533C113.493 117.573 111.072 119.191 108.407 120.295C105.741 121.399 102.885 121.967 100 121.967C97.1152 121.967 94.2587 121.399 91.5934 120.295C88.9282 119.191 86.5065 117.573 84.4667 115.533C82.4268 113.493 80.8088 111.072 79.7049 108.407C78.601 105.741 78.0329 102.885 78.033 100C78.0329 97.1152 78.601 94.2587 79.7049 91.5934C80.8088 88.9282 82.4268 86.5065 84.4667 84.4667C86.5065 82.4268 88.9282 80.8088 91.5934 79.7049C94.2587 78.601 97.1152 78.0329 100 78.033V78.033Z" fill="#393E46" stroke="black" stroke-width="6" stroke-linejoin="bevel" />
  </g>
  <g id="br" fill="none" transform="scale(0.2 0.2)">
    <path fill-rule="evenodd" clip-rule="evenodd" d="M75 15H125V75H185V125H125V185H75V125H15V75H75V15Z" fill="#393E46" stroke="black" stroke-width="6" stroke-linejoin="bevel" />
  </g>
  <g id="wb" fill="none" transform="scale(0.2 0.2)">
    <path fill-rule="evenodd" clip-rule="evenodd" d="M68.787 40.503L100 71.716L131.213 40.503L166.569 33.431L159.497 68.787L128.284 100L159.497 131.213L166.569 166.569L131.213 159.497L100 128.284L68.787 159.497L33.431 166.569L40.503 131.213L71.716 100L40.503 68.787L33.43 33.43L68.787 40.503Z" fill="#00ADB5" stroke="black" stroke-width="6" stroke-linejoin="bevel" />
  </g>
  <g id="wk" fill="none" transform="scale(0.2 0.2)">
    <path fill-rule="evenodd" clip-rule="evenodd" d="M68.787 24.645L24.645 68.787V131.213L68.787 175.355H131.213L175.355 131.213V68.787L131.213 24.645H68.787ZM88 67.857H112V88H132.143V112H112V132.143H88V112H67.857V88H88V67.857Z" fill="#00ADB5" stroke="black" stroke-width="6" stroke-linejoin="round" />
  </g>
  <g id="wn" fill="none" transform="scale(0.2 0.2)">
    <path fill-rule="evenodd" clip-rule="evenodd" d="M35.5 122.839V79.565L148.17 33.057L163.432 70.03L87.917 101.202L163.432 132.373L148.17 169.347L35.5 122.839Z" fill="#00ADB5" stroke="black" stroke-width="6" stroke-linejoin="bevel" />
  </g>
  <g id="wp" fill="none" transform="scale(0.2 0.2)">
    <path d="M47.8 47.8V155.8H155.8V47.8H47.8ZM83.8 83.8H119.8V119.8H83.8V83.8Z" fill="#00ADB5" stroke="black" stroke-width="5.4" stroke-linejoin="bevel" />
  </g>
  <g id="wq" fill="none" transform="scale(0.2 0.2)">
    <path fill-rule="evenodd" clip-rule="evenodd" d="M80 20V51.715L57.574 29.289L29.29 57.574L51.715 80H20V120H51.715L29.289 142.426L57.574 170.711L80 148.285V180H120V148.285L142.426 170.711L170.711 142.426L148.285 120H180V80H148.285L170.711 57.574L142.426 29.289L120 51.715V20H80ZM100 78.033C102.885 78.0329 105.741 78.601 108.407 79.7049C111.072 80.8088 113.493 82.4268 115.533 84.4667C117.573 86.5065 119.191 88.9282 120.295 91.5934C121.399 94.2587 121.967 97.1152 121.967 100C121.967 102.885 121.399 105.741 120.295 108.407C119.191 111.072 117.573 113.493 115.533 115.533C113.493 117.573 111.072 119.191 108.407 120.295C105.741 121.399 102.885 121.967 100 121.967C97.1152 121.967 94.2587 121.399 91.5934 120.295C88.9282 119.191 86.5065 117.573 84.4667 115.533C82.4268 113.493 80.8088 111.072 79.7049 108.407C78.601 105.741 78.0329 102.885 78.033 100C78.0329 97.1152 78.601 94.2587 79.7049 91.5934C80.8088 88.9282 82.4268 86.5065 84.4667 84.4667C86.5065 82.4268 88.9282 80.8088 91.5934 79.7049C94.2587 78.601 97.1152 78.0329 100 78.033V78.033Z" fill="#00ADB5" stroke="black" stroke-width="6" stroke-linejoin="bevel" />
  </g>
  <g id="wr" fill="none" transform="scale(0.2 0.2)">
    <path fill-rule="evenodd" clip-rule="evenodd" d="M75 15H125V75H185V125H125V185H75V125H15V75H75V15Z" fill="#00ADB5" stroke="black" stroke-width="6" stroke-linejoin="bevel" />
  </g>
</svg>