<svg xmlns="http://www.w3.org/2000/svg" width="40" height="40" viewbox="0.0 0.0 50.0 50.0">
  <g id="bb" fill="none" transform="scale(0.8 0.8)">
    <path fill-rule="evenodd" clip-rule="evenodd" d="M25 5.767C22.8944 5.767 21.1876 6.64565 21.1879 7.7302L22.7045 10.3807C6.6555 24.4697 16.9975 37.5157 16.9975 37.5157H33.0035C33.0035 37.5157 40.0531 28.8443 33.7658 18.0057L30.7768 22.8333C30.106 23.9166 28.8136 24.3231 27.8788 23.7444C26.944 23.1656 26.7316 21.8274 27.4023 20.7441L31.2889 14.467C30.1816 13.1221 28.8638 11.7569 27.2964 10.3809L28.813 7.73037C28.813 6.64577 27.1064 5.76717 25.0009 5.76717L25 5.767Z" fill="#6A4A79" stroke="#1E1E1E" stroke-width="1.2" stroke-linejoin="round" />
    <path opacity="0.18" fill-rule="evenodd" clip-rule="evenodd" d="M25 5.767C24.1836 5.767 23.4289 5.9005 22.8087 6.12547C27.1474 6.97265 27.7852 7.24497 25.3688 10.4761L28.6148 14.0426C24.9583 22.2829 27.0111 22.0345 27.0111 22.0345C27.0111 22.0345 27.7075 19.386 31.1228 14.2656C30.0506 12.986 28.7851 11.6876 27.2962 10.3805L28.8123 7.73037C28.8124 6.64587 27.1056 5.76727 25 5.76697V5.767ZM33.7655 18.005L32.7564 19.5177C36.4927 27.9306 28.6217 37.5147 28.6217 37.5147H33.0032C33.1613 37.5486 39.9612 28.6709 33.7655 18.0047L33.7655 18.005Z" fill="#020014" />
    <path opacity="0.25" fill-rule="evenodd" clip-rule="evenodd" d="M15.145 31.721C14.9259 31.6896 11.7217 21.9351 20.8993 12.97C18.5974 14.865 13.7642 26.133 15.145 31.721Z" fill="white" />
    <path opacity="0.25" fill-rule="evenodd" clip-rule="evenodd" d="M23.292 10.196L21.8148 7.6017C21.8148 7.6017 22.0573 6.87995 23.5956 6.5545C21.869 7.9047 22.6076 8.2167 23.292 10.196Z" fill="white" />
    <path fill-rule="evenodd" clip-rule="evenodd" d="M25 36.457C25 36.457 15.8691 36.505 13.309 38.0762C11.5817 39.1364 11.1742 41.7276 11.4092 44.3999H38.5912C38.8261 41.7276 38.4186 39.1363 36.6913 38.0762C34.1316 36.5051 25.0003 36.457 25.0003 36.457H25Z" fill="#6A4A79" stroke="#1E1E1E" stroke-width="1.2" stroke-linejoin="round" />
    <path opacity="0.25" fill-rule="evenodd" clip-rule="evenodd" d="M25 37.147C25 37.147 16.2879 37.0096 13.376 38.8128C13.0061 39.0418 12.6767 39.6522 12.4224 40.203C12.6831 39.8717 12.9245 39.5899 13.309 39.3539C15.8688 37.7828 25 37.7348 25 37.7348C25 37.7348 34.1318 37.7828 36.692 39.3539C37.083 39.5939 37.2844 39.8856 37.5476 40.224C37.5736 40.148 37.1392 39.0662 36.4038 38.6278C33.6484 37.1358 25.0008 37.147 25.0008 37.147H25Z" fill="white" />
  </g>
  <g id="bk" fill="none" transform="scale(0.8 0.8)">
    <path fill-rule="evenodd" clip-rule="evenodd" d="M27.67 15.225V11.6814H32.1096V7.2521H27.1752V3.3588H22.8092V7.2521H17.8748V11.6814H22.3144V15.225" fill="#6A4A79" />
    <path d="M27.67 15.225V11.6814H32.1096V7.2521H27.1752V3.3588H22.8092V7.2521H17.8748V11.6814H22.3144V15.225" stroke="#1E1E1E" stroke-width="1.2" stroke-linecap="round" />
    <path d="M28.3037 14.215H21.6927C20.923 14.215 20.299 14.839 20.299 15.6087C20.299 16.3783 20.923 17.0023 21.6927 17.0023H28.3037C29.0734 17.0023 29.6974 16.3783 29.6974 15.6087C29.6974 14.839 29.0734 14.215 28.3037 14.215Z" fill="#6A4A79" stroke="#1E1E1E" stroke-width="1.2" stroke-linejoin="round" />
    <path opacity="0.18" fill-rule="evenodd" clip-rule="evenodd" d="M26.416 14.215C27.1408 14.215 27.7242 14.8364 27.7242 15.6085C27.7242 16.3806 27.1408 17.002 26.416 17.002H28.3896C29.1144 17.002 29.6977 16.3806 29.6977 15.6085C29.6977 14.8364 29.1143 14.215 28.3896 14.215H26.416Z" fill="#020014" />
    <path opacity="0.25" fill-rule="evenodd" clip-rule="evenodd" d="M21.631 14.842C21.2293 14.842 20.906 15.1867 20.906 15.6146C20.906 16.0425 21.2293 16.3869 21.631 16.3869H22.5048C22.1031 16.3869 21.7798 16.0425 21.7798 15.6146C21.7798 15.1867 22.1031 14.842 22.5048 14.842H21.631Z" fill="white" />
    <path fill-rule="evenodd" clip-rule="evenodd" d="M33.635 36.986C33.635 36.986 41.411 23.668 40.2477 21.07C39.0845 18.4736 31.7675 16.5726 24.9997 16.5726C18.232 16.5726 10.9157 18.473 9.75171 21.07C8.58851 23.6666 16.3644 36.986 16.3644 36.986H33.635Z" fill="#6A4A79" stroke="#1E1E1E" stroke-width="1.2" stroke-linecap="round" />
    <path opacity="0.18" fill-rule="evenodd" clip-rule="evenodd" d="M24.996 16.576C40.934 19.1976 37.569 25.9299 31.6366 39.119L33.6639 37.3902C33.6639 37.3902 41.4111 23.6672 40.2478 21.0702C38.7026 18.2368 32.7451 16.911 24.9958 16.5757L24.996 16.576Z" fill="#020014" />
    <path opacity="0.25" fill-rule="evenodd" clip-rule="evenodd" d="M23.765 17.295C19.861 17.1106 9.144 19.0964 10.262 22.3117C11.0792 26.0391 13.0164 29.5557 14.7705 32.8157C9.0833 22.4807 8.8284 19.0417 23.7648 17.2947L23.765 17.295Z" fill="white" />
    <path opacity="0.25" fill-rule="evenodd" clip-rule="evenodd" d="M23.391 3.997L23.3749 7.3093H23.9205L23.9367 3.997H23.391ZM18.4599 7.8669L18.4524 11.0746H19.2256L19.2331 7.8669H18.4599ZM22.8727 11.0799L22.8984 13.5658H23.4184L23.3927 11.0799H22.8727Z" fill="white" />
    <path opacity="0.18" fill-rule="evenodd" clip-rule="evenodd" d="M26.189 3.3582L26.189 7.2517H27.1758L27.1758 3.3582H26.189ZM30.63 7.2519V12.1972H32.1102V7.2519H30.63ZM26.1904 11.681L26.1904 14.1733H27.6706L27.6706 11.681H26.1904Z" fill="#020014" />
    <path fill-rule="evenodd" clip-rule="evenodd" d="M25 36.457C25 36.457 15.8691 36.5051 13.309 38.0762C11.5817 39.1364 11.1742 41.7276 11.4092 44.3999H38.5912C38.8262 41.7276 38.4186 39.1363 36.6913 38.0762C34.1316 36.5051 25.0003 36.457 25.0003 36.457H25Z" fill="#6A4A79" stroke="#1E1E1E" stroke-width="1.2" stroke-linejoin="round" />
    <path opacity="0.25" fill-rule="evenodd" clip-rule="evenodd" d="M25 37.147C25 37.147 16.2879 37.0097 13.376 38.8128C13.0061 39.0418 12.6767 39.6522 12.4224 40.203C12.6832 39.8717 12.9245 39.59 13.309 39.354C15.8688 37.7829 25 37.7349 25 37.7349C25 37.7349 34.1318 37.7828 36.692 39.354C37.0831 39.594 37.2845 39.8856 37.5476 40.2241C37.5734 40.1482 37.1393 39.0663 36.4039 38.6279C33.6485 37.1359 25.0008 37.1471 25.0008 37.1471L25 37.147Z" fill="white" />
  </g>
  <g id="bn" fill="none" transform="scale(0.8 0.8)">
    <path fill-rule="evenodd" clip-rule="evenodd" d="M25.192 23.015C25.0266 29.9822 13.434 28.2339 13.676 41.119L36.536 41.2374C34.442 34.7954 46.226 16.0774 24.605 8.9794V8.9793C24.605 8.9793 22.1669 6.3783 18.6395 6.1556L18.8622 9.6903L14.3039 14.2719C11.6745 17.4174 5.5692 22.6503 6.5526 23.883C9.6684 29.1871 12.8832 28.3146 12.8832 28.3146C17.125 23.7713 18.7025 26.2252 25.1922 23.0149L25.192 23.015Z" fill="#6A4A79" stroke="#1E1E1E" stroke-width="1.2" stroke-linejoin="round" />
    <path opacity="0.4" fill-rule="evenodd" clip-rule="evenodd" d="M19.32 14.694C18.5443 15.5549 18.6298 15.8096 18.5063 16.8443C19.3118 16.9675 20.0132 17.0841 20.7549 16.9099C23.1358 15.6479 20.8299 13.5073 19.3202 14.6937L19.32 14.694Z" fill="#020014" />
    <path opacity="0.35" fill-rule="evenodd" clip-rule="evenodd" d="M9.1916 22.166C8.342 22.5738 8.1932 23.1268 8.1351 23.6414C8.8639 24.0595 10.0116 23.5159 10.1763 22.2098L9.1917 22.1658L9.1916 22.166Z" fill="#020014" />
    <path opacity="0.25" fill-rule="evenodd" clip-rule="evenodd" d="M8.1905 25.15C8.1905 25.15 8.843 26.2874 7.0886 23.509C7.748 21.5316 15.3516 14.4294 19.5266 9.975L19.343 6.8893C19.343 6.8893 20.4119 8.5794 20.5905 10.3573C16.2007 14.7473 8.3705 21.1903 7.7665 23.5703C7.7895 24.2441 8.0065 24.5981 8.1896 25.15H8.1905Z" fill="white" />
    <path opacity="0.18" fill-rule="evenodd" clip-rule="evenodd" d="M13.26 28.257C15.2891 24.9203 21.6514 25.0331 25.192 23.0146C25.5148 23.117 25.3224 24.3843 25.4318 24.2446C26.2794 23.1543 28.3577 20.9656 26.3002 17.3703C26.8216 23.3278 12.5822 22.9615 10.4102 27.6753C10.2097 28.1108 12.592 28.4685 13.2602 28.2571L13.26 28.257Z" fill="#020014" />
    <path opacity="0.25" fill-rule="evenodd" clip-rule="evenodd" d="M25.8 23.781C24.7869 29.5942 16.2551 29.8979 14.812 36.422C17.6452 30.0162 25.574 30.7084 25.8 23.781Z" fill="white" />
    <path opacity="0.18" fill-rule="evenodd" clip-rule="evenodd" d="M18.64 6.1556C18.64 6.1556 21.691 6.89367 23.5445 10.1381C44.0435 17.2917 31.1858 38.0751 29.3328 41.2111L36.5362 41.2371C34.5491 37.994 46.0844 15.6401 24.6052 8.9791C22.8295 7.91 21.8375 6.3699 18.6397 6.1553L18.64 6.1556Z" fill="#020014" />
    <path fill-rule="evenodd" clip-rule="evenodd" d="M25 36.457C25 36.457 15.8691 36.505 13.309 38.0762C11.5817 39.1364 11.1742 41.7276 11.4092 44.3999H38.5912C38.8262 41.7276 38.4187 39.1363 36.6913 38.0762C34.1316 36.5051 25.0003 36.457 25.0003 36.457H25Z" fill="#6A4A79" stroke="#1E1E1E" stroke-width="1.2" stroke-linejoin="round" />
    <path opacity="0.25" fill-rule="evenodd" clip-rule="evenodd" d="M25 37.147C25 37.147 16.2879 37.0097 13.376 38.8128C13.0062 39.0419 12.6768 39.6522 12.4224 40.203C12.6832 39.8717 12.9246 39.59 13.3091 39.354C15.8689 37.7829 25.0001 37.7349 25.0001 37.7349C25.0001 37.7349 34.1319 37.7829 36.6921 39.354C37.0831 39.594 37.2845 39.8856 37.5477 40.2241C37.5737 40.1481 37.1393 39.0663 36.4039 38.6279C33.6485 37.1359 25.0009 37.1471 25.0009 37.1471L25 37.147Z" fill="white" />
  </g>
  <g id="bp" fill="none" transform="scale(0.8 0.8)">
    <path fill-rule="evenodd" clip-rule="evenodd" d="M21.503 27.594H28.4974H21.503ZM19 17.508C19 19.2395 19.7123 20.8953 20.9657 22.095L17.3153 24.1949L17.7462 27.5937H22.0521C21.2577 31.1527 19.2973 34.9245 16.9899 36.211C14.6825 37.4975 11.6905 39.3078 12.1474 44.4L37.8534 44.4C38.3103 39.3078 35.3182 37.4975 33.0109 36.211C30.7035 34.9245 28.7431 31.1527 27.9487 27.5937H32.2546L32.6855 24.1949L29.0352 22.095C30.2885 20.8954 31.0007 19.2396 31.0007 17.5081C31.001 14.1414 28.3727 11.5963 25.0001 11.5963C21.6275 11.5963 18.9993 14.1413 18.9995 17.508L19 17.508Z" fill="#6A4A79" stroke="#1E1E1E" stroke-width="1.2" stroke-linejoin="round" />
    <path opacity="0.18" fill-rule="evenodd" clip-rule="evenodd" d="M24.962 11.537C26.1329 11.0784 34.4893 17.4427 25.6091 22.31L30.1211 24.41L29.5589 27.535H32.2175L32.6462 24.1363L28.9958 22.0364C30.2492 20.8368 30.9576 19.4552 30.9604 17.7236C30.4915 12.3077 24.9619 11.5375 24.9619 11.5375L24.962 11.537ZM22.0135 27.535C26.516 35.4687 31.4836 37.529 35.0875 37.4996L32.9718 36.1526C30.8968 34.6631 28.2401 31.2954 27.9096 27.5349L22.0135 27.535Z" fill="#020014" />
    <path opacity="0.25" fill-rule="evenodd" clip-rule="evenodd" d="M21.983 22.213L20.336 24.5596L17.9799 24.5459L21.9929 22.2225L21.983 22.213Z" fill="white" />
    <path opacity="0.25" fill-rule="evenodd" clip-rule="evenodd" d="M24.307 12.267C21.7645 12.4051 18.577 15.4403 19.9222 19.1853L20.121 19.8284C19.7912 16.339 22.2478 12.7115 24.307 12.267L24.307 12.267Z" fill="white" />
    <path opacity="0.25" fill-rule="evenodd" clip-rule="evenodd" d="M17.863 37.625C13.8791 39.9303 12.746 43.7652 12.746 43.7652C12.7356 43.7652 12.1985 39.5901 16.7024 37.1112C21.2063 34.6323 21.5239 30.9605 22.5626 28.2185C21.9255 31.9216 21.8469 35.3197 17.863 37.625V37.625Z" fill="white" />
  </g>
  <g id="bq" fill="none" transform="scale(0.8 0.8)">
    <path fill-rule="evenodd" clip-rule="evenodd" d="M24.959 5.0937C24.0796 5.09377 23.2363 5.4055 22.6146 5.96032C21.9928 6.51513 21.6435 7.2676 21.6435 8.0522C21.6435 8.83679 21.9928 9.58926 22.6146 10.1441C23.2363 10.6989 24.0796 11.0106 24.959 11.0107C25.3944 11.0107 25.8256 10.9342 26.228 10.7855C26.6303 10.6369 26.9958 10.419 27.3037 10.1442C27.6117 9.86951 27.8559 9.54336 28.0226 9.18441C28.1892 8.82545 28.275 8.44073 28.275 8.0522C28.275 7.66367 28.1892 7.27894 28.0226 6.91999C27.8559 6.56103 27.6117 6.23488 27.3037 5.96016C26.9958 5.68543 26.6303 5.46752 26.228 5.31885C25.8256 5.17018 25.3944 5.09367 24.959 5.0937V5.0937Z" fill="#6A4A79" stroke="#1E1E1E" stroke-width="1.1999" stroke-linecap="round" stroke-linejoin="round" />
    <path opacity="0.25" fill-rule="evenodd" clip-rule="evenodd" d="M24.836 5.7323C24.4602 5.52268 21.1117 6.53816 22.6512 9.3076C22.4157 7.763 23.0888 6.1045 24.836 5.7323Z" fill="white" />
    <path fill-rule="evenodd" clip-rule="evenodd" d="M24.959 11.011C18.4522 11.011 15.3637 16.8953 15.3639 21.369H34.6269C34.6271 16.8949 31.4662 11.011 24.9593 11.011H24.959Z" fill="#6A4A79" stroke="#1E1E1E" stroke-width="1.2" stroke-linecap="round" stroke-linejoin="round" />
    <path opacity="0.25" fill-rule="evenodd" clip-rule="evenodd" d="M18.161 14.977C19.2028 13.4987 21.0806 11.7571 25.0014 11.5974C24.6907 11.8745 20.2126 12.7348 18.161 14.977Z" fill="white" />
    <path opacity="0.18" fill-rule="evenodd" clip-rule="evenodd" d="M24.836 5.0067C24.836 5.0067 24.8817 5.24478 24.8359 5.0067C27.3158 6.1356 26.8856 8.854 25.6532 10.5537C33.0068 14.3573 27.8657 19.2227 27.8654 19.2218H30.5662C32.3281 20.5088 37.7748 16.4809 26.7311 10.5528C30.2587 7.4374 26.8276 4.9456 24.8359 5.0062L24.836 5.0067Z" fill="#020014" />
    <path fill-rule="evenodd" clip-rule="evenodd" d="M25 15.225C23.029 15.225 22.6517 17.8744 20.8634 18.0842C19.0421 18.2979 17.4818 15.7728 15.6129 16.3481C14.1184 16.8081 14.8346 18.948 13.8076 19.5233C12.4058 20.3084 10.6231 17.6909 8.5174 19.225C15.3561 28.0538 16.6033 31.602 16.5007 38.044L33.4987 38.0439C33.396 31.6013 34.6432 28.0535 41.4818 19.2249C39.3762 17.6908 37.5934 20.3082 36.1917 19.5232C35.1646 18.9479 35.8809 16.808 34.3864 16.348C32.5176 15.7727 30.9571 18.2978 29.1358 18.0841C27.3474 17.8743 26.9703 15.2249 24.9993 15.2249L25 15.225Z" fill="#6A4A79" stroke="#1E1E1E" stroke-width="1.1999" stroke-linecap="round" stroke-linejoin="round" />
    <path opacity="0.25" fill-rule="evenodd" clip-rule="evenodd" d="M9.8952 19.34C9.75932 19.3301 9.56381 19.3961 9.43658 19.4247C12.5181 23.5246 16.0117 28.9619 16.5357 31.8417C15.1295 26.9094 13.2693 22.2795 10.3954 19.3697L9.8952 19.34Z" fill="white" />
    <path opacity="0.18" fill-rule="evenodd" clip-rule="evenodd" d="M39.974 18.735C30.4888 28.738 30.0501 36.72 23.033 38.045H33.509C33.4063 31.6023 34.6535 28.0545 41.4921 19.226C41.4921 19.226 40.8041 18.4702 39.9742 18.7348L39.974 18.735Z" fill="#020014" />
    <path opacity="0.25" fill-rule="evenodd" clip-rule="evenodd" d="M14.912 18.945C15.1148 18.8573 16.0961 17.1372 16.8925 16.9949C15.4725 16.6494 15.2737 16.9486 14.912 18.945V18.945Z" fill="white" />
    <path opacity="0.25" fill-rule="evenodd" clip-rule="evenodd" d="M22.511 17.876C23.4644 17.029 24.1443 15.2209 25.7489 16.0307C24.9514 15.8019 23.5341 17.071 22.511 17.876V17.876Z" fill="white" />
    <path opacity="0.25" fill-rule="evenodd" clip-rule="evenodd" d="M31.12 18.133C31.3298 18.2029 33.2962 16.4907 33.9825 16.9154C33.9825 16.9154 32.5512 18.035 31.12 18.133Z" fill="white" />
    <path fill-rule="evenodd" clip-rule="evenodd" d="M25 36.457C25 36.457 15.8691 36.505 13.309 38.0762C11.5817 39.1364 11.1742 41.7277 11.4092 44.3999L38.5912 44.3998C38.8261 41.7275 38.4186 39.1363 36.6913 38.0761C34.1315 36.505 25.0003 36.4569 25.0003 36.4569L25 36.457Z" fill="#6A4A79" stroke="#1E1E1E" stroke-width="1.2" stroke-linejoin="round" />
    <path opacity="0.25" fill-rule="evenodd" clip-rule="evenodd" d="M25 37.147C25 37.147 16.2879 37.0096 13.376 38.8128C13.0061 39.0418 12.6767 39.6522 12.4224 40.203C12.6832 39.8717 12.9245 39.59 13.309 39.354C15.8687 37.7829 25 37.7348 25 37.7348C25 37.7348 34.1318 37.7828 36.692 39.354C37.0831 39.594 37.2845 39.8856 37.5476 40.224C37.5736 40.148 37.1393 39.0662 36.4038 38.6278C33.6484 37.1358 25.0008 37.147 25.0008 37.147H25Z" fill="white" />
  </g>
  <g id="br" fill="none" transform="scale(0.8 0.8)">
    <path fill-rule="evenodd" clip-rule="evenodd" d="M17.932 20.414C22.8376 19.6733 27.5107 19.8355 32.068 20.414H17.932ZM14.183 9.662C13.1238 18.4289 15.2864 20.339 17.9312 20.414L14.6158 38.573H35.3828L32.0674 20.414C34.7122 20.3395 36.8748 18.4291 35.8156 9.662L32.2084 9.13283L31.1351 12.7755L27.9935 12.676L27.4713 8.92203H22.5265L22.0052 12.676L18.8632 12.7755L17.7899 9.13283L14.183 9.662Z" fill="#6A4A79" stroke="#1E1E1E" stroke-width="1.2" />
    <path opacity="0.18" fill-rule="evenodd" clip-rule="evenodd" d="M17.932 20.414C24.76 20.414 31.05 20.8216 32.88 36.986L35.1987 37.3718L32.0676 20.9439C32.0362 20.6361 25.9795 19.1215 17.9316 20.4147L17.932 20.414Z" fill="#020014" />
    <path opacity="0.25" fill-rule="evenodd" clip-rule="evenodd" d="M14.777 10.219L17.0536 9.93301C15.1399 10.245 14.7408 15.2288 14.7408 15.2288C14.5028 15.0523 14.5527 10.3255 14.777 10.219L14.777 10.219Z" fill="white" />
    <path opacity="0.25" fill-rule="evenodd" clip-rule="evenodd" d="M25.276 9.5507C23.6283 9.5507 22.7569 12.2982 22.7569 12.2982L23.0942 9.5694L25.276 9.5507Z" fill="white" />
    <path opacity="0.25" fill-rule="evenodd" clip-rule="evenodd" d="M32.671 9.8162L33.605 9.93446C32.8202 10.434 32.0145 11.9229 32.0145 11.9229L32.671 9.8162Z" fill="white" />
    <path opacity="0.25" fill-rule="evenodd" clip-rule="evenodd" d="M18.472 20.964L21.0926 20.6709C18.472 20.964 16.1967 33.7239 16.186 33.7839L18.472 20.964Z" fill="white" />
    <path opacity="0.18" fill-rule="evenodd" clip-rule="evenodd" d="M34.013 9.3979C34.3698 15.7614 32.0631 20.0009 25.9715 19.9339L30.7495 20.4971C38.2721 20.8062 35.8505 9.69113 35.8166 9.66213L34.013 9.3979Z" fill="#020014" />
    <path fill-rule="evenodd" clip-rule="evenodd" d="M25 36.457C25 36.457 15.8691 36.5051 13.309 38.0762C11.5817 39.1364 11.1742 41.7277 11.4092 44.3999H38.5912C38.8262 41.7276 38.4186 39.1364 36.6913 38.0762C34.1316 36.5051 25.0003 36.457 25.0003 36.457H25Z" fill="#6A4A79" stroke="#1E1E1E" stroke-width="1.2" stroke-linejoin="round" />
    <path opacity="0.25" fill-rule="evenodd" clip-rule="evenodd" d="M25 37.146C25 37.146 16.2879 37.0087 13.376 38.8118C13.0061 39.0408 12.6767 39.6512 12.4224 40.202C12.6832 39.8707 12.9245 39.589 13.309 39.353C15.8687 37.7819 25 37.7339 25 37.7339C25 37.7339 34.1319 37.7818 36.6921 39.353C37.0831 39.593 37.2845 39.8846 37.5477 40.2231C37.5735 40.1472 37.1393 39.0652 36.4039 38.6269C33.6485 37.1349 25.0009 37.1461 25.0009 37.1461L25 37.146Z" fill="white" />
  </g>
  <g id="wb" fill="none" transform="scale(0.8 0.8)">
    <path fill-rule="evenodd" clip-rule="evenodd" d="M25 5.767C22.8944 5.767 21.1876 6.64565 21.1879 7.7302L22.7045 10.3807C6.6555 24.4697 16.9975 37.5157 16.9975 37.5157H33.0035C33.0035 37.5157 40.0531 28.8443 33.7658 18.0057L30.7768 22.8333C30.106 23.9166 28.8136 24.3231 27.8788 23.7444C26.944 23.1656 26.7316 21.8274 27.4023 20.7441L31.2889 14.467C30.1816 13.1221 28.8638 11.7569 27.2964 10.3809L28.813 7.73037C28.813 6.64577 27.1064 5.76717 25.0009 5.76717L25 5.767Z" fill="#F3DCFE" stroke="#3C3C3C" stroke-width="1.2" stroke-linejoin="round" />
    <path opacity="0.15" fill-rule="evenodd" clip-rule="evenodd" d="M25 5.767C24.1836 5.767 23.4289 5.9005 22.8087 6.12547C27.1474 6.97265 27.7852 7.24497 25.3688 10.4761L28.6148 14.0426C24.9583 22.2829 27.0111 22.0345 27.0111 22.0345C27.0111 22.0345 27.7075 19.386 31.1228 14.2656C30.0506 12.986 28.7851 11.6876 27.2962 10.3805L28.8123 7.73037C28.8124 6.64587 27.1056 5.76727 25 5.76697V5.767ZM33.7655 18.005L32.7564 19.5177C36.4927 27.9306 28.6217 37.5147 28.6217 37.5147H33.0032C33.1613 37.5486 39.9612 28.6709 33.7655 18.0047L33.7655 18.005Z" fill="#000214" />
    <path fill-rule="evenodd" clip-rule="evenodd" d="M15.145 31.721C14.9259 31.6896 11.7217 21.9351 20.8993 12.97C18.5974 14.865 13.7642 26.133 15.145 31.721Z" fill="white" />
    <path fill-rule="evenodd" clip-rule="evenodd" d="M23.292 10.196L21.8148 7.6017C21.8148 7.6017 22.0573 6.87995 23.5956 6.5545C21.869 7.9047 22.6076 8.2167 23.292 10.196Z" fill="white" />
    <path fill-rule="evenodd" clip-rule="evenodd" d="M25 36.457C25 36.457 15.8691 36.505 13.309 38.0762C11.5817 39.1364 11.1742 41.7276 11.4092 44.3999H38.5912C38.8261 41.7276 38.4186 39.1363 36.6913 38.0762C34.1316 36.5051 25.0003 36.457 25.0003 36.457H25Z" fill="#F3DCFE" stroke="#3C3C3C" stroke-width="1.2" stroke-linejoin="round" />
    <path fill-rule="evenodd" clip-rule="evenodd" d="M25 37.147C25 37.147 16.2879 37.0096 13.376 38.8128C13.0061 39.0418 12.6767 39.6522 12.4224 40.203C12.6831 39.8717 12.9245 39.5899 13.309 39.3539C15.8688 37.7828 25 37.7348 25 37.7348C25 37.7348 34.1318 37.7828 36.692 39.3539C37.083 39.5939 37.2844 39.8856 37.5476 40.224C37.5736 40.148 37.1392 39.0662 36.4038 38.6278C33.6484 37.1358 25.0008 37.147 25.0008 37.147H25Z" fill="white" />
  </g>
  <g id="wk" fill="none" transform="scale(0.8 0.8)">
    <path fill-rule="evenodd" clip-rule="evenodd" d="M27.67 15.225V11.6814H32.1096V7.2521H27.1752V3.3588H22.8092V7.2521H17.8748V11.6814H22.3144V15.225" fill="#F3DCFE" />
    <path d="M27.67 15.225V11.6814H32.1096V7.2521H27.1752V3.3588H22.8092V7.2521H17.8748V11.6814H22.3144V15.225" stroke="#3C3C3C" stroke-width="1.2" stroke-linecap="round" />
    <path d="M28.3037 14.215H21.6927C20.923 14.215 20.299 14.839 20.299 15.6087C20.299 16.3783 20.923 17.0023 21.6927 17.0023H28.3037C29.0734 17.0023 29.6974 16.3783 29.6974 15.6087C29.6974 14.839 29.0734 14.215 28.3037 14.215Z" fill="#F3DCFE" stroke="#3C3C3C" stroke-width="1.2" stroke-linejoin="round" />
    <path opacity="0.15" fill-rule="evenodd" clip-rule="evenodd" d="M26.416 14.215C27.1408 14.215 27.7242 14.8364 27.7242 15.6085C27.7242 16.3806 27.1408 17.002 26.416 17.002H28.3896C29.1144 17.002 29.6977 16.3806 29.6977 15.6085C29.6977 14.8364 29.1143 14.215 28.3896 14.215H26.416Z" fill="#000214" />
    <path fill-rule="evenodd" clip-rule="evenodd" d="M21.631 14.842C21.2293 14.842 20.906 15.1867 20.906 15.6146C20.906 16.0425 21.2293 16.3869 21.631 16.3869H22.5048C22.1031 16.3869 21.7798 16.0425 21.7798 15.6146C21.7798 15.1867 22.1031 14.842 22.5048 14.842H21.631Z" fill="white" />
    <path fill-rule="evenodd" clip-rule="evenodd" d="M33.635 36.986C33.635 36.986 41.411 23.668 40.2477 21.07C39.0845 18.4736 31.7675 16.5726 24.9997 16.5726C18.232 16.5726 10.9157 18.473 9.7517 21.07C8.5885 23.6666 16.3644 36.986 16.3644 36.986H33.635Z" fill="#F3DCFE" stroke="#3C3C3C" stroke-width="1.2" stroke-linecap="round" />
    <path opacity="0.15" fill-rule="evenodd" clip-rule="evenodd" d="M24.996 16.576C40.934 19.1976 37.569 25.9299 31.6366 39.119L33.6639 37.3902C33.6639 37.3902 41.4111 23.6672 40.2478 21.0702C38.7026 18.2368 32.7451 16.911 24.9958 16.5757L24.996 16.576Z" fill="#000214" />
    <path fill-rule="evenodd" clip-rule="evenodd" d="M23.765 17.295C19.861 17.1106 9.144 19.0964 10.262 22.3117C11.0792 26.0391 13.0164 29.5557 14.7705 32.8157C9.0833 22.4807 8.8284 19.0417 23.7648 17.2947L23.765 17.295Z" fill="white" />
    <path fill-rule="evenodd" clip-rule="evenodd" d="M23.391 3.997L23.3749 7.3093H23.9205L23.9367 3.997H23.391ZM18.4599 7.8669L18.4524 11.0746H19.2256L19.2331 7.8669H18.4599ZM22.8727 11.0799L22.8984 13.5658H23.4184L23.3927 11.0799H22.8727Z" fill="white" />
    <path opacity="0.15" fill-rule="evenodd" clip-rule="evenodd" d="M26.189 3.3582L26.189 7.2517H27.1758L27.1758 3.3582H26.189ZM30.63 7.2519V12.1972H32.1102V7.2519H30.63ZM26.1904 11.681L26.1904 14.1733H27.6706L27.6706 11.681H26.1904Z" fill="#000214" />
    <path fill-rule="evenodd" clip-rule="evenodd" d="M25 36.457C25 36.457 15.8691 36.5051 13.309 38.0762C11.5817 39.1364 11.1742 41.7276 11.4092 44.3999H38.5912C38.8262 41.7276 38.4186 39.1363 36.6913 38.0762C34.1316 36.5051 25.0003 36.457 25.0003 36.457H25Z" fill="#F3DCFE" stroke="#3C3C3C" stroke-width="1.2" stroke-linejoin="round" />
    <path fill-rule="evenodd" clip-rule="evenodd" d="M25 37.147C25 37.147 16.2879 37.0097 13.376 38.8128C13.0061 39.0418 12.6767 39.6522 12.4224 40.203C12.6832 39.8717 12.9245 39.59 13.309 39.354C15.8688 37.7829 25 37.7349 25 37.7349C25 37.7349 34.1318 37.7828 36.692 39.354C37.0831 39.594 37.2845 39.8856 37.5476 40.2241C37.5734 40.1482 37.1393 39.0663 36.4039 38.6279C33.6485 37.1359 25.0008 37.1471 25.0008 37.1471L25 37.147Z" fill="white" />
  </g>
  <g id="wn" fill="none" transform="scale(0.8 0.8)">
    <path fill-rule="evenodd" clip-rule="evenodd" d="M25.192 23.015C25.0266 29.9822 13.434 28.2339 13.676 41.119L36.536 41.2374C34.442 34.7954 46.226 16.0774 24.605 8.9794V8.9793C24.605 8.9793 22.1669 6.3783 18.6395 6.1556L18.8622 9.6903L14.3039 14.2719C11.6745 17.4174 5.5692 22.6503 6.5526 23.883C9.6684 29.1871 12.8832 28.3146 12.8832 28.3146C17.125 23.7713 18.7025 26.2252 25.1922 23.0149L25.192 23.015Z" fill="#F3DCFE" stroke="#3C3C3C" stroke-width="1.2" stroke-linejoin="round" />
    <path opacity="0.35" fill-rule="evenodd" clip-rule="evenodd" d="M19.32 14.694C18.5443 15.5549 18.6298 15.8096 18.5063 16.8443C19.3118 16.9675 20.0132 17.0841 20.7549 16.9099C23.1358 15.6479 20.8299 13.5073 19.3202 14.6937L19.32 14.694Z" fill="#000214" />
    <path opacity="0.3" fill-rule="evenodd" clip-rule="evenodd" d="M9.1916 22.166C8.342 22.5738 8.1932 23.1268 8.1351 23.6414C8.8639 24.0595 10.0116 23.5159 10.1763 22.2098L9.1917 22.1658L9.1916 22.166Z" fill="#000214" />
    <path fill-rule="evenodd" clip-rule="evenodd" d="M8.1905 25.15C8.1905 25.15 8.843 26.2874 7.0886 23.509C7.748 21.5316 15.3516 14.4294 19.5266 9.975L19.343 6.8893C19.343 6.8893 20.4119 8.5794 20.5905 10.3573C16.2007 14.7473 8.3705 21.1903 7.7665 23.5703C7.7895 24.2441 8.0065 24.5981 8.1896 25.15H8.1905Z" fill="white" />
    <path opacity="0.15" fill-rule="evenodd" clip-rule="evenodd" d="M13.26 28.257C15.2891 24.9203 21.6514 25.0331 25.192 23.0146C25.5148 23.117 25.3224 24.3843 25.4318 24.2446C26.2794 23.1543 28.3577 20.9656 26.3002 17.3703C26.8216 23.3278 12.5822 22.9615 10.4102 27.6753C10.2097 28.1108 12.592 28.4685 13.2602 28.2571L13.26 28.257Z" fill="#020014" />
    <path fill-rule="evenodd" clip-rule="evenodd" d="M25.8 23.781C24.7869 29.5942 16.2551 29.8979 14.812 36.422C17.6452 30.0162 25.574 30.7084 25.8 23.781Z" fill="white" />
    <path opacity="0.15" fill-rule="evenodd" clip-rule="evenodd" d="M18.64 6.1556C18.64 6.1556 21.691 6.89367 23.5445 10.1381C44.0435 17.2917 31.1858 38.0751 29.3328 41.2111L36.5362 41.2371C34.5491 37.994 46.0844 15.6401 24.6052 8.9791C22.8295 7.91 21.8375 6.3699 18.6397 6.1553L18.64 6.1556Z" fill="#000214" />
    <path fill-rule="evenodd" clip-rule="evenodd" d="M25 36.457C25 36.457 15.8691 36.505 13.309 38.0762C11.5817 39.1364 11.1742 41.7276 11.4092 44.3999H38.5912C38.8262 41.7276 38.4187 39.1363 36.6913 38.0762C34.1316 36.5051 25.0003 36.457 25.0003 36.457H25Z" fill="#F3DCFE" stroke="#3C3C3C" stroke-width="1.2" stroke-linejoin="round" />
    <path fill-rule="evenodd" clip-rule="evenodd" d="M25 37.147C25 37.147 16.2879 37.0097 13.376 38.8128C13.0062 39.0419 12.6768 39.6522 12.4224 40.203C12.6832 39.8717 12.9246 39.59 13.3091 39.354C15.8689 37.7829 25.0001 37.7349 25.0001 37.7349C25.0001 37.7349 34.1319 37.7829 36.6921 39.354C37.0831 39.594 37.2845 39.8856 37.5477 40.2241C37.5737 40.1481 37.1393 39.0663 36.4039 38.6279C33.6485 37.1359 25.0009 37.1471 25.0009 37.1471L25 37.147Z" fill="white" />
  </g>
  <g id="wp" fill="none" transform="scale(0.8 0.8)">
    <path fill-rule="evenodd" clip-rule="evenodd" d="M21.503 27.594H28.4974H21.503ZM19 17.508C19 19.2395 19.7123 20.8953 20.9657 22.095L17.3153 24.1949L17.7462 27.5937H22.0521C21.2577 31.1527 19.2973 34.9245 16.9899 36.211C14.6825 37.4975 11.6905 39.3078 12.1474 44.4L37.8534 44.4C38.3103 39.3078 35.3182 37.4975 33.0109 36.211C30.7035 34.9245 28.7431 31.1527 27.9487 27.5937H32.2546L32.6855 24.1949L29.0352 22.095C30.2885 20.8954 31.0007 19.2396 31.0007 17.5081C31.001 14.1414 28.3727 11.5963 25.0001 11.5963C21.6275 11.5963 18.9993 14.1413 18.9995 17.508L19 17.508Z" fill="#F3DCFE" stroke="#3C3C3C" stroke-width="1.2" stroke-linejoin="round" />
    <path opacity="0.15" fill-rule="evenodd" clip-rule="evenodd" d="M24.962 11.537C26.1329 11.0784 34.4893 17.4427 25.6091 22.31L30.1211 24.41L29.5589 27.535H32.2175L32.6462 24.1363L28.9958 22.0364C30.2492 20.8368 30.9576 19.4552 30.9604 17.7236C30.4915 12.3077 24.9619 11.5375 24.9619 11.5375L24.962 11.537ZM22.0135 27.535C26.516 35.4687 31.4836 37.529 35.0875 37.4996L32.9718 36.1526C30.8968 34.6631 28.2401 31.2954 27.9096 27.5349L22.0135 27.535Z" fill="#000214" />
    <path fill-rule="evenodd" clip-rule="evenodd" d="M21.983 22.213L20.336 24.5596L17.9799 24.5459L21.9929 22.2225L21.983 22.213Z" fill="white" />
    <path fill-rule="evenodd" clip-rule="evenodd" d="M24.307 12.267C21.7645 12.4051 18.577 15.4403 19.9222 19.1853L20.121 19.8284C19.7912 16.339 22.2478 12.7115 24.307 12.267L24.307 12.267Z" fill="white" />
    <path fill-rule="evenodd" clip-rule="evenodd" d="M17.863 37.625C13.8791 39.9303 12.746 43.7652 12.746 43.7652C12.7356 43.7652 12.1985 39.5901 16.7024 37.1112C21.2063 34.6323 21.5239 30.9605 22.5626 28.2185C21.9255 31.9216 21.8469 35.3197 17.863 37.625V37.625Z" fill="white" />
  </g>
  <g id="wq" fill="none" transform="scale(0.8 0.8)">
    <path fill-rule="evenodd" clip-rule="evenodd" d="M24.959 5.0937C24.0796 5.09377 23.2363 5.4055 22.6146 5.96032C21.9928 6.51513 21.6435 7.2676 21.6435 8.0522C21.6435 8.83679 21.9928 9.58926 22.6146 10.1441C23.2363 10.6989 24.0796 11.0106 24.959 11.0107C25.3944 11.0107 25.8256 10.9342 26.228 10.7855C26.6303 10.6369 26.9958 10.419 27.3037 10.1442C27.6117 9.86951 27.8559 9.54336 28.0226 9.18441C28.1892 8.82545 28.275 8.44073 28.275 8.0522C28.275 7.66367 28.1892 7.27894 28.0226 6.91999C27.8559 6.56103 27.6117 6.23488 27.3037 5.96016C26.9958 5.68543 26.6303 5.46752 26.228 5.31885C25.8256 5.17018 25.3944 5.09367 24.959 5.0937V5.0937Z" fill="#F3DCFE" stroke="#3C3C3C" stroke-width="1.1999" stroke-linecap="round" stroke-linejoin="round" />
    <path fill-rule="evenodd" clip-rule="evenodd" d="M24.836 5.7323C24.4602 5.52268 21.1117 6.53816 22.6512 9.3076C22.4157 7.763 23.0888 6.1045 24.836 5.7323Z" fill="white" />
    <path fill-rule="evenodd" clip-rule="evenodd" d="M24.959 11.011C18.4522 11.011 15.3637 16.8953 15.3639 21.369H34.6269C34.6271 16.8949 31.4662 11.011 24.9593 11.011H24.959Z" fill="#F3DCFE" stroke="#3C3C3C" stroke-width="1.2" stroke-linecap="round" stroke-linejoin="round" />
    <path fill-rule="evenodd" clip-rule="evenodd" d="M18.161 14.977C19.2028 13.4987 21.0806 11.7571 25.0014 11.5974C24.6907 11.8745 20.2126 12.7348 18.161 14.977Z" fill="white" />
    <path opacity="0.15" fill-rule="evenodd" clip-rule="evenodd" d="M24.836 5.0067C24.836 5.0067 24.8817 5.24478 24.8359 5.0067C27.3158 6.1356 26.8856 8.854 25.6532 10.5537C33.0068 14.3573 27.8657 19.2227 27.8654 19.2218H30.5662C32.3281 20.5088 37.7748 16.4809 26.7311 10.5528C30.2587 7.4374 26.8276 4.9456 24.8359 5.0062L24.836 5.0067Z" fill="#000214" />
    <path fill-rule="evenodd" clip-rule="evenodd" d="M25 15.225C23.029 15.225 22.6517 17.8744 20.8634 18.0842C19.0421 18.2979 17.4818 15.7728 15.6129 16.3481C14.1184 16.8081 14.8346 18.948 13.8076 19.5233C12.4058 20.3084 10.6231 17.6909 8.5174 19.225C15.3561 28.0538 16.6033 31.602 16.5007 38.044L33.4987 38.0439C33.396 31.6013 34.6432 28.0535 41.4818 19.2249C39.3762 17.6908 37.5934 20.3082 36.1917 19.5232C35.1646 18.9479 35.8809 16.808 34.3864 16.348C32.5176 15.7727 30.9571 18.2978 29.1358 18.0841C27.3474 17.8743 26.9703 15.2249 24.9993 15.2249L25 15.225Z" fill="#F3DCFE" stroke="#3C3C3C" stroke-width="1.1999" stroke-linecap="round" stroke-linejoin="round" />
    <path fill-rule="evenodd" clip-rule="evenodd" d="M9.8952 19.34C9.75932 19.3301 9.56381 19.3961 9.43658 19.4247C12.5181 23.5246 16.0117 28.9619 16.5357 31.8417C15.1295 26.9094 13.2693 22.2795 10.3954 19.3697L9.8952 19.34Z" fill="white" />
    <path opacity="0.15" fill-rule="evenodd" clip-rule="evenodd" d="M39.974 18.735C30.4888 28.738 30.0501 36.72 23.033 38.045H33.509C33.4063 31.6023 34.6535 28.0545 41.4921 19.226C41.4921 19.226 40.8041 18.4702 39.9742 18.7348L39.974 18.735Z" fill="#000214" />
    <path fill-rule="evenodd" clip-rule="evenodd" d="M14.912 18.945C15.1148 18.8573 16.0961 17.1372 16.8925 16.9949C15.4725 16.6494 15.2737 16.9486 14.912 18.945V18.945Z" fill="white" />
    <path fill-rule="evenodd" clip-rule="evenodd" d="M22.511 17.876C23.4644 17.029 24.1443 15.2209 25.7489 16.0307C24.9514 15.8019 23.5341 17.071 22.511 17.876V17.876Z" fill="white" />
    <path fill-rule="evenodd" clip-rule="evenodd" d="M31.12 18.133C31.3298 18.2029 33.2962 16.4907 33.9825 16.9154C33.9825 16.9154 32.5512 18.035 31.12 18.133Z" fill="white" />
    <path fill-rule="evenodd" clip-rule="evenodd" d="M25 36.457C25 36.457 15.8691 36.505 13.309 38.0762C11.5817 39.1364 11.1742 41.7277 11.4092 44.3999L38.5912 44.3998C38.8261 41.7275 38.4186 39.1363 36.6913 38.0761C34.1315 36.505 25.0003 36.4569 25.0003 36.4569L25 36.457Z" fill="#F3DCFE" stroke="#3C3C3C" stroke-width="1.2" stroke-linejoin="round" />
    <path fill-rule="evenodd" clip-rule="evenodd" d="M25 37.147C25 37.147 16.2879 37.0096 13.376 38.8128C13.0061 39.0418 12.6767 39.6522 12.4224 40.203C12.6832 39.8717 12.9245 39.59 13.309 39.354C15.8687 37.7829 25 37.7348 25 37.7348C25 37.7348 34.1318 37.7828 36.692 39.354C37.0831 39.594 37.2845 39.8856 37.5476 40.224C37.5736 40.148 37.1393 39.0662 36.4038 38.6278C33.6484 37.1358 25.0008 37.147 25.0008 37.147H25Z" fill="white" />
  </g>
  <g id="wr" fill="none" transform="scale(0.8 0.8)">
    <path fill-rule="evenodd" clip-rule="evenodd" d="M17.932 20.414C22.8376 19.6733 27.5107 19.8355 32.068 20.414H17.932ZM14.183 9.662C13.1238 18.4289 15.2864 20.339 17.9312 20.414L14.6158 38.573H35.3828L32.0674 20.414C34.7122 20.3395 36.8748 18.4291 35.8156 9.662L32.2084 9.13283L31.1351 12.7755L27.9935 12.676L27.4713 8.92203H22.5265L22.0052 12.676L18.8632 12.7755L17.7899 9.13283L14.183 9.662Z" fill="#F3DCFE" stroke="#3C3C3C" stroke-width="1.2" />
    <path opacity="0.15" fill-rule="evenodd" clip-rule="evenodd" d="M17.932 20.414C24.76 20.414 31.05 20.8216 32.88 36.986L35.1987 37.3718L32.0676 20.9439C32.0362 20.6361 25.9795 19.1215 17.9316 20.4147L17.932 20.414Z" fill="#000214" />
    <path fill-rule="evenodd" clip-rule="evenodd" d="M14.777 10.219L17.0536 9.93301C15.1399 10.245 14.7408 15.2288 14.7408 15.2288C14.5028 15.0523 14.5527 10.3255 14.777 10.219L14.777 10.219Z" fill="white" />
    <path fill-rule="evenodd" clip-rule="evenodd" d="M25.276 9.5507C23.6283 9.5507 22.7569 12.2982 22.7569 12.2982L23.0942 9.5694L25.276 9.5507Z" fill="white" />
    <path fill-rule="evenodd" clip-rule="evenodd" d="M32.671 9.8162L33.605 9.93446C32.8202 10.434 32.0145 11.9229 32.0145 11.9229L32.671 9.8162Z" fill="white" />
    <path fill-rule="evenodd" clip-rule="evenodd" d="M18.472 20.964L21.0926 20.6709C18.472 20.964 16.2038 33.7839 16.2038 33.7839L18.472 20.964Z" fill="white" />
    <path opacity="0.15" fill-rule="evenodd" clip-rule="evenodd" d="M34.013 9.3979C34.3698 15.7614 32.0631 20.0009 25.9715 19.9339L30.7495 20.4971C38.2721 20.8062 35.8505 9.69113 35.8166 9.66213L34.013 9.3979Z" fill="#020014" />
    <path fill-rule="evenodd" clip-rule="evenodd" d="M25 36.457C25 36.457 15.8691 36.5051 13.309 38.0762C11.5817 39.1364 11.1742 41.7277 11.4092 44.3999H38.5912C38.8262 41.7276 38.4186 39.1364 36.6913 38.0762C34.1316 36.5051 25.0003 36.457 25.0003 36.457H25Z" fill="#F3DCFE" stroke="#3C3C3C" stroke-width="1.2" stroke-linejoin="round" />
    <path fill-rule="evenodd" clip-rule="evenodd" d="M25 37.146C25 37.146 16.2879 37.0087 13.376 38.8118C13.0061 39.0408 12.6767 39.6512 12.4224 40.202C12.6832 39.8707 12.9245 39.589 13.309 39.353C15.8687 37.7819 25 37.7339 25 37.7339C25 37.7339 34.1319 37.7818 36.6921 39.353C37.0831 39.593 37.2845 39.8846 37.5477 40.2231C37.5735 40.1472 37.1393 39.0652 36.4039 38.6269C33.6485 37.1349 25.0009 37.1461 25.0009 37.1461L25 37.146Z" fill="white" />
  </g>
</svg>