<svg xmlns="http://www.w3.org/2000/svg" width="40" height="40" viewbox="0.0 0.0 181.0 181.0">
  <g id="bb" fill="none" transform="scale(0.2222222222222222 0.2222222222222222)">
    <g clip-path="url(#bbclip0_5_795)">
      <path d="M149.635 151.122C148.231 153.482 148.544 156.58 150.575 158.611C152.976 161.012 156.869 161.012 159.27 158.611C161.671 156.209 161.671 152.316 159.27 149.915C157.189 147.834 153.987 147.557 151.608 149.083C149.634 142.389 149.77 136.038 149.962 127.148C150.012 124.808 150.066 122.292 150.086 119.548C150.176 111.758 147.213 103.993 141.288 98.068C135.363 92.1428 127.597 89.1804 119.832 89.1804C115.114 89.1663 110.817 86.4839 107.456 83.4805L108.9 82.0364L97.9496 71.0864L97.285 71.751C94.4854 68.7305 91.4914 64.6026 91.2261 59.4608C91.2261 51.6952 88.2633 43.9296 82.3381 38.0048C80.8569 36.5236 79.3445 35.2716 77.7909 34.2236C76.2861 33.205 74.679 32.3466 72.9957 31.6624C71.3493 30.9944 69.6513 30.5032 67.8917 30.1628L67.7395 30.1339C65.7613 29.7578 64.7899 29.5731 62.5057 29.52L62.4341 42.0724L51.4373 42.3936L51.5121 29.4688C50.9226 29.4749 50.3452 29.4817 49.7788 29.4883L49.7221 29.489C47.2139 29.5186 44.9232 29.5456 42.7673 29.4992C40.1089 29.442 37.6549 29.2728 35.2501 28.8588C33.8291 28.6174 32.4268 28.2821 31.0525 27.8555C32.4228 25.502 32.0997 22.4335 30.0833 20.417C27.6822 18.0159 23.7893 18.016 21.3882 20.4171C18.9871 22.8182 18.9871 26.7111 21.3882 29.1122C23.4857 31.2098 26.7218 31.4749 29.1073 29.9077C31.0794 36.5991 30.9429 42.9494 30.752 51.8363C30.7017 54.1764 30.6476 56.6927 30.6273 59.4372C30.5381 67.2268 33.5009 74.9924 39.4261 80.9172C45.3509 86.8424 53.1165 89.8048 60.8821 89.8048C66.3625 89.8212 71.2741 93.438 74.8121 96.976L75.1291 96.6582L83.2177 104.747L82.1045 105.862C85.1941 108.952 89.1797 113.555 89.4877 119.524C89.4877 127.29 92.4505 135.055 98.3753 140.98C99.8565 142.462 101.369 143.713 102.923 144.762C104.427 145.78 106.035 146.638 107.718 147.322C109.364 147.99 111.062 148.482 112.822 148.822L112.968 148.85C114.95 149.227 115.921 149.412 118.208 149.465L118.28 136.913L129.276 136.591L129.201 149.516C129.789 149.51 130.364 149.503 130.929 149.496C133.462 149.467 135.772 149.439 137.946 149.486C140.605 149.544 143.058 149.712 145.463 150.126C146.875 150.366 148.269 150.699 149.635 151.122Z" fill="#13252E" stroke="#13252E" stroke-width="4.00661" />
      <path d="M125.939 83.9325L84.6369 125.234C78.8299 125.303 74.8428 121.307 74.8545 115.452L116.156 74.1501C122.059 75.1529 125.399 77.9501 125.939 83.9325Z" fill="#B3B3B3" stroke="#13252E" stroke-width="8.01322" stroke-linejoin="round" />
      <path d="M72.376 97.9888C77.77 98.7876 81.4652 101.547 82.158 107.771M100.376 69.9884C101.175 75.3828 103.934 79.078 110.158 79.7708" stroke="#13252E" stroke-width="4.00667" />
      <path d="M54.7196 95.0952L96.0216 53.7932C101.828 53.7248 105.816 57.72 105.804 63.5752L64.5016 104.878C58.5984 103.875 55.2588 101.078 54.7196 95.0956V95.0952Z" fill="#B3B3B3" stroke="#13252E" stroke-width="8.01333" stroke-linejoin="round" />
    </g>
    <defs>
      <clipPath id="bbclip0_5_795">
        <rect width="180" height="180" fill="white" />
      </clipPath>
    </defs>
  </g>
  <g id="bk" fill="none" transform="scale(0.22099447513812154 0.22099447513812157)">
    <path fill-rule="evenodd" clip-rule="evenodd" d="M81.2808 137.458L90.81 120.441L100.145 137.652L81.2808 137.458ZM81.004 42.0688L90.5336 59.0856L99.8684 41.874L81.004 42.0688Z" fill="#B3B3B3" />
    <path d="M79.8812 43.4152C79.2783 42.1241 78.9658 40.7164 78.9658 39.2914C78.9658 37.8664 79.2783 36.4588 79.8812 35.1676C80.4704 33.9 81.3232 32.7588 82.3764 31.8C83.43 30.8416 84.6844 30.0656 86.0776 29.5296C87.5243 28.976 89.0606 28.6939 90.6096 28.6972C92.2172 28.6972 93.7488 28.9936 95.1416 29.5296C96.5348 30.0656 97.7892 30.8416 98.8424 31.8C99.896 32.7588 100.749 33.9 101.338 35.168C101.941 36.4591 102.253 37.8667 102.253 39.2916C102.253 40.7165 101.941 42.1241 101.338 43.4152" fill="#B3B3B3" />
    <path d="M79.8812 43.4152C79.2783 42.1241 78.9658 40.7164 78.9658 39.2914C78.9658 37.8664 79.2783 36.4588 79.8812 35.1676C80.4704 33.9 81.3232 32.7588 82.3764 31.8C83.43 30.8416 84.6844 30.0656 86.0776 29.5296C87.5243 28.976 89.0606 28.6939 90.6096 28.6972C92.2172 28.6972 93.7488 28.9936 95.1416 29.5296C96.5348 30.0656 97.7892 30.8416 98.8424 31.8C99.896 32.7588 100.749 33.9 101.338 35.168C101.941 36.4591 102.253 37.8667 102.253 39.2916C102.253 40.7165 101.941 42.1241 101.338 43.4152" stroke="#13252E" stroke-width="6.01" />
    <path d="M39.2792 91.064C39.2792 82.0128 33.6792 75.9624 27.8888 71.0568C25.058 68.6236 22.7672 65.7264 21.184 62.5088C19.6008 59.292 18.7252 55.7544 18.7252 52.0416C18.7252 48.3288 19.6012 44.7912 21.184 41.574C22.7672 38.3568 25.058 35.4596 27.8888 33.026C30.7196 30.5928 34.09 28.624 37.8328 27.2632C41.576 25.9024 45.6912 25.1496 50.0108 25.1496C54.3304 25.1496 58.4456 25.9024 62.1884 27.2632C65.9312 28.624 69.302 30.5928 72.1328 33.0264C74.9636 35.4596 77.2544 38.3568 78.8376 41.5744C80.4208 44.7912 85.9052 52.2104 90.728 62.256C96.0632 52.0728 100.779 44.7584 102.362 41.5408C103.946 38.3236 106.236 35.4264 109.067 32.9928C111.898 30.56 115.269 28.5908 119.011 27.23C122.754 25.8692 126.87 25.1168 131.189 25.1168C135.509 25.1168 139.624 25.8692 143.367 27.23C147.11 28.5908 150.48 30.56 153.311 32.9932C156.142 35.4264 158.433 38.3236 160.016 41.5412C161.599 44.7584 162.474 48.2956 162.474 52.0084C162.474 55.7216 161.599 59.2588 160.016 62.476C158.433 65.6932 156.142 68.5908 153.311 71.024C147.52 75.9296 142.349 82.4616 142.349 91.5124" fill="#B3B3B3" />
    <path d="M39.2792 91.064C39.2792 82.0128 33.6792 75.9624 27.8888 71.0568C25.058 68.6236 22.7672 65.7264 21.184 62.5088C19.6008 59.292 18.7252 55.7544 18.7252 52.0416C18.7252 48.3288 19.6012 44.7912 21.184 41.574C22.7672 38.3568 25.058 35.4596 27.8888 33.026C30.7196 30.5928 34.09 28.624 37.8328 27.2632C41.576 25.9024 45.6912 25.1496 50.0108 25.1496C54.3304 25.1496 58.4456 25.9024 62.1884 27.2632C65.9312 28.624 69.302 30.5928 72.1328 33.0264C74.9636 35.4596 77.2544 38.3568 78.8376 41.5744C80.4208 44.7912 85.9052 52.2104 90.728 62.256C96.0632 52.0728 100.779 44.7584 102.362 41.5408C103.946 38.3236 106.236 35.4264 109.067 32.9928C111.898 30.56 115.269 28.5908 119.011 27.23C122.754 25.8692 126.87 25.1168 131.189 25.1168C135.509 25.1168 139.624 25.8692 143.367 27.23C147.11 28.5908 150.48 30.56 153.311 32.9932C156.142 35.4264 158.433 38.3236 160.016 41.5412C161.599 44.7584 162.474 48.2956 162.474 52.0084C162.474 55.7216 161.599 59.2588 160.016 62.476C158.433 65.6932 156.142 68.5908 153.311 71.024C147.52 75.9296 142.349 82.4616 142.349 91.5124" stroke="#13252E" stroke-width="6.01" />
    <path d="M47.064 76.0536C44.356 72.0764 42.048 68.1432 35.5532 63.7452C33.7732 62.264 32.3332 60.5 31.338 58.5416C30.3424 56.5832 29.792 54.4296 29.792 52.1696C29.792 49.9096 30.3424 47.756 31.338 45.7976C32.3332 43.8392 33.7732 42.0756 35.5532 40.594C37.3328 39.1132 39.452 37.914 41.8052 37.086C44.1584 36.2576 46.7452 35.7996 49.4612 35.7996C52.1772 35.7996 54.764 36.2576 57.1172 37.086C59.4704 37.914 61.5892 39.1132 63.3692 40.594C65.1492 42.0756 67.8376 45.514 68.9716 47.416C71.6932 51.3 76.0704 59.5312 76.0704 59.5312L82.8808 72.7556" fill="#13252E" />
    <path d="M47.064 76.0536C44.356 72.0764 42.048 68.1432 35.5532 63.7452C33.7732 62.264 32.3332 60.5 31.338 58.5416C30.3424 56.5832 29.792 54.4296 29.792 52.1696C29.792 49.9096 30.3424 47.756 31.338 45.7976C32.3332 43.8392 33.7732 42.0756 35.5532 40.594C37.3328 39.1132 39.452 37.914 41.8052 37.086C44.1584 36.2576 46.7452 35.7996 49.4612 35.7996C52.1772 35.7996 54.764 36.2576 57.1172 37.086C59.4704 37.914 61.5892 39.1132 63.3692 40.594C65.1492 42.0756 67.8376 45.514 68.9716 47.416C71.6932 51.3 76.0704 59.5312 76.0704 59.5312L82.8808 72.7556" stroke="#13252E" stroke-width="3.368" />
    <path d="M87.0156 39.476C87.0154 39.0285 87.1114 38.5863 87.2972 38.1792C87.4808 37.779 87.7418 37.4192 88.0652 37.1204C88.3972 36.8132 88.7839 36.571 89.2052 36.4064C89.6496 36.2323 90.1227 36.1433 90.6 36.144C91.0952 36.144 91.5668 36.2372 91.9956 36.406C92.4168 36.5707 92.8033 36.8129 93.1352 37.12C93.4586 37.4188 93.7196 37.7786 93.9032 38.1788C94.089 38.5859 94.185 39.0281 94.1848 39.4756C94.1848 41.5264 91.4028 44.8576 90.6 46.3996C89.7264 44.8712 87.0156 41.43 87.0156 39.4756V39.476Z" fill="#13252E" stroke="#13252E" stroke-width="1.89235" />
    <path d="M39.5208 82.4032C74.5828 72.914 108.658 72.7236 143.031 82.4048L143.288 93.0632H39.0668L39.5208 82.4032Z" fill="#13252E" />
    <path d="M79.8812 136.584C79.2782 137.875 78.9657 139.283 78.9657 140.708C78.9657 142.133 79.2782 143.541 79.8812 144.832C80.4704 146.099 81.3232 147.241 82.3768 148.199C83.43 149.158 84.6848 149.934 86.0776 150.47C87.5243 151.023 89.0607 151.305 90.6096 151.302C92.2176 151.302 93.7488 151.006 95.1416 150.47C96.5348 149.934 97.7892 149.158 98.8428 148.199C99.896 147.241 100.749 146.099 101.338 144.832C101.941 143.541 102.254 142.133 102.254 140.708C102.254 139.283 101.941 137.875 101.338 136.584" fill="#B3B3B3" />
    <path d="M79.8812 136.584C79.2782 137.875 78.9657 139.283 78.9657 140.708C78.9657 142.133 79.2782 143.541 79.8812 144.832C80.4704 146.099 81.3232 147.241 82.3768 148.199C83.43 149.158 84.6848 149.934 86.0776 150.47C87.5243 151.023 89.0607 151.305 90.6096 151.302C92.2176 151.302 93.7488 151.006 95.1416 150.47C96.5348 149.934 97.7892 149.158 98.8428 148.199C99.896 147.241 100.749 146.099 101.338 144.832C101.941 143.541 102.254 142.133 102.254 140.708C102.254 139.283 101.941 137.875 101.338 136.584" stroke="#13252E" stroke-width="6.01" />
    <path d="M39.2796 88.936C39.2796 97.9868 33.6796 104.037 27.8888 108.943C25.058 111.376 22.7672 114.274 21.184 117.491C19.6008 120.708 18.7256 124.245 18.7256 127.958C18.7256 131.671 19.6008 135.208 21.184 138.426C22.7672 141.643 25.058 144.54 27.8888 146.974C30.7196 149.407 34.0904 151.376 37.8332 152.737C41.576 154.098 45.6912 154.85 50.0108 154.85C54.3308 154.85 58.4456 154.098 62.1884 152.737C65.9316 151.376 69.302 149.407 72.1328 146.974C74.9636 144.54 77.2544 141.643 78.8376 138.426C80.4208 135.208 85.9052 127.79 90.728 117.744C96.0632 127.927 100.78 135.242 102.362 138.459C103.946 141.676 106.236 144.574 109.067 147.007C111.898 149.44 115.269 151.409 119.012 152.77C122.755 154.131 126.87 154.883 131.189 154.883C135.509 154.883 139.624 154.131 143.367 152.77C147.11 151.409 150.481 149.44 153.311 147.007C156.142 144.574 158.433 141.676 160.016 138.459C161.599 135.242 162.475 131.704 162.475 127.991C162.475 124.278 161.599 120.741 160.016 117.524C158.433 114.306 156.142 111.409 153.312 108.976C147.521 104.07 142.349 97.5384 142.349 88.4876" fill="#B3B3B3" />
    <path d="M39.2796 88.936C39.2796 97.9868 33.6796 104.037 27.8888 108.943C25.058 111.376 22.7672 114.274 21.184 117.491C19.6008 120.708 18.7256 124.245 18.7256 127.958C18.7256 131.671 19.6008 135.208 21.184 138.426C22.7672 141.643 25.058 144.54 27.8888 146.974C30.7196 149.407 34.0904 151.376 37.8332 152.737C41.576 154.098 45.6912 154.85 50.0108 154.85C54.3308 154.85 58.4456 154.098 62.1884 152.737C65.9316 151.376 69.302 149.407 72.1328 146.974C74.9636 144.54 77.2544 141.643 78.8376 138.426C80.4208 135.208 85.9052 127.79 90.728 117.744C96.0632 127.927 100.78 135.242 102.362 138.459C103.946 141.676 106.236 144.574 109.067 147.007C111.898 149.44 115.269 151.409 119.012 152.77C122.755 154.131 126.87 154.883 131.189 154.883C135.509 154.883 139.624 154.131 143.367 152.77C147.11 151.409 150.481 149.44 153.311 147.007C156.142 144.574 158.433 141.676 160.016 138.459C161.599 135.242 162.475 131.704 162.475 127.991C162.475 124.278 161.599 120.741 160.016 117.524C158.433 114.306 156.142 111.409 153.312 108.976C147.521 104.07 142.349 97.5384 142.349 88.4876" stroke="#13252E" stroke-width="6.01" />
    <path d="M39.5212 97.3964C74.5828 106.886 108.658 107.076 143.031 97.3948L143.288 86.7368H39.0672L39.5212 97.3964Z" fill="#13252E" />
    <path d="M90.6 100L84.6 90L90.6 80L96.6 90L90.6 100ZM69.4 98L64.6 90L69.4 82L74.2 90L69.4 98ZM51.4 96L47.8 90L51.4 84L55 90L51.4 96ZM111.8 98L116.6 90L111.8 82L107 90L111.8 98ZM129.8 96L133.4 90L129.8 84L126.2 90L129.8 96Z" fill="#B3B3B3" />
    <path d="M87.0152 140.524C87.015 140.971 87.1111 141.413 87.2968 141.82C87.4803 142.221 87.7414 142.581 88.0648 142.88C88.3968 143.187 88.7835 143.429 89.2048 143.594C89.6493 143.767 90.1226 143.856 90.6 143.855C91.0773 143.856 91.5506 143.767 91.9952 143.594C92.4163 143.429 92.8029 143.187 93.1348 142.88C93.4582 142.581 93.7192 142.221 93.9028 141.82C94.0886 141.413 94.1848 140.971 94.1848 140.524C94.1848 138.473 91.4028 135.142 90.6 133.6C89.7264 135.128 87.0152 138.57 87.0152 140.524Z" fill="#13252E" stroke="#13252E" stroke-width="1.89235" />
    <path d="M90.6 28.6V4.60001" stroke="#13252E" stroke-width="6.01" />
    <path d="M81.6 14.754H99.6" stroke="#13252E" stroke-width="6.36699" />
    <path d="M90.6 151.4V175.4" stroke="#13252E" stroke-width="6.01" />
    <path d="M81.6 165.246H99.6" stroke="#13252E" stroke-width="6.36699" />
    <path d="M47.064 103.346C44.356 107.324 42.048 111.256 35.5528 115.655C33.7732 117.136 32.3328 118.9 31.3376 120.858C30.3424 122.817 29.792 124.97 29.792 127.23C29.792 129.49 30.3424 131.644 31.3376 133.602C32.3332 135.561 33.7736 137.324 35.5528 138.806C37.3328 140.287 39.452 141.486 41.8048 142.314C44.158 143.142 46.7452 143.6 49.4608 143.6C52.1768 143.6 54.764 143.142 57.1168 142.314C59.4704 141.486 61.5896 140.287 63.3688 138.806C65.1488 137.324 67.8376 133.886 68.9716 131.984C71.6932 128.1 76.0704 119.869 76.0704 119.869L82.8808 106.644L47.064 103.346ZM134.138 76.0536C136.846 72.076 139.155 68.1432 145.65 63.7448C147.43 62.2636 148.87 60.5 149.865 58.5416C150.86 56.5828 151.411 54.4296 151.411 52.1696C151.411 49.9096 150.86 47.756 149.865 45.7976C148.87 43.8392 147.43 42.0752 145.65 40.594C143.87 39.1128 141.751 37.914 139.398 37.086C137.044 36.2576 134.458 35.7992 131.742 35.7992C129.026 35.7992 126.439 36.2576 124.086 37.086C121.732 37.914 119.614 39.1128 117.834 40.594C116.054 42.0752 113.365 45.514 112.231 47.416C109.51 51.2996 105.132 59.5308 105.132 59.5308L98.322 72.7556" fill="#13252E" />
    <path d="M134.138 76.0536C136.846 72.076 139.155 68.1432 145.65 63.7448C147.43 62.2636 148.87 60.5 149.865 58.5416C150.86 56.5828 151.411 54.4296 151.411 52.1696C151.411 49.9096 150.86 47.756 149.865 45.7976C148.87 43.8392 147.43 42.0752 145.65 40.594C143.87 39.1128 141.751 37.914 139.398 37.086C137.044 36.2576 134.458 35.7992 131.742 35.7992C129.026 35.7992 126.439 36.2576 124.086 37.086C121.732 37.914 119.614 39.1128 117.834 40.594C116.054 42.0752 113.365 45.514 112.231 47.416C109.51 51.2996 105.132 59.5308 105.132 59.5308L98.322 72.7556M47.064 103.346C44.356 107.324 42.048 111.256 35.5528 115.655C33.7732 117.136 32.3328 118.9 31.3376 120.858C30.3424 122.817 29.792 124.97 29.792 127.23C29.792 129.49 30.3424 131.644 31.3376 133.602C32.3332 135.561 33.7736 137.324 35.5528 138.806C37.3328 140.287 39.452 141.486 41.8048 142.314C44.158 143.142 46.7452 143.6 49.4608 143.6C52.1768 143.6 54.764 143.142 57.1168 142.314C59.4704 141.486 61.5896 140.287 63.3688 138.806C65.1488 137.324 67.8376 133.886 68.9716 131.984C71.6932 128.1 76.0704 119.869 76.0704 119.869L82.8808 106.644L47.064 103.346Z" stroke="#13252E" stroke-width="3.368" />
    <path d="M38.3528 80.0288C76.8276 70.328 115.601 70.0768 143.081 80.2732" stroke="#B3B3B3" stroke-width="6.01" />
    <path d="M134.138 103.346C136.846 107.324 139.155 111.256 145.65 115.655C147.43 117.136 148.87 118.9 149.865 120.858C150.86 122.817 151.411 124.97 151.411 127.23C151.411 129.49 150.86 131.644 149.865 133.602C148.87 135.561 147.43 137.324 145.65 138.806C143.87 140.287 141.751 141.486 139.398 142.314C137.044 143.142 134.458 143.6 131.742 143.6C129.026 143.6 126.439 143.142 124.086 142.314C121.732 141.486 119.614 140.287 117.834 138.806C116.054 137.324 113.365 133.886 112.231 131.984C109.51 128.1 105.132 119.869 105.132 119.869L98.322 106.644" fill="#13252E" />
    <path d="M134.138 103.346C136.846 107.324 139.155 111.256 145.65 115.655C147.43 117.136 148.87 118.9 149.865 120.858C150.86 122.817 151.411 124.97 151.411 127.23C151.411 129.49 150.86 131.644 149.865 133.602C148.87 135.561 147.43 137.324 145.65 138.806C143.87 140.287 141.751 141.486 139.398 142.314C137.044 143.142 134.458 143.6 131.742 143.6C129.026 143.6 126.439 143.142 124.086 142.314C121.732 141.486 119.614 140.287 117.834 138.806C116.054 137.324 113.365 133.886 112.231 131.984C109.51 128.1 105.132 119.869 105.132 119.869L98.322 106.644" stroke="#13252E" stroke-width="3.368" />
    <path d="M38.3528 99.9712C76.8276 109.672 115.601 109.923 143.081 99.7268" stroke="#B3B3B3" stroke-width="6.01" />
    <path d="M39.2796 91.064C39.2796 82.0128 33.6796 75.9624 27.8888 71.0568C25.058 68.6236 22.7672 65.7264 21.184 62.5088C19.6012 59.2916 18.7256 55.7544 18.7256 52.0416C18.7256 48.3284 19.6012 44.7912 21.184 41.574C22.7672 38.3568 25.058 35.4592 27.8888 33.026C30.7196 30.5928 34.0904 28.624 37.8332 27.2632C41.5764 25.9024 45.6912 25.1496 50.0108 25.1496C54.3308 25.1496 58.4456 25.9024 62.1888 27.2632C65.9316 28.624 69.3024 30.5928 72.1328 33.026C74.9636 35.4592 77.2544 38.3568 78.8376 41.574C80.4208 44.7912 85.9056 52.21 90.7284 62.256C96.0632 52.0728 100.78 44.7584 102.363 41.5408C103.946 38.3236 106.236 35.4264 109.067 32.9928C111.898 30.56 115.269 28.5908 119.012 27.23C122.755 25.8692 126.87 25.1168 131.19 25.1168C135.509 25.1168 139.624 25.8688 143.367 27.23C147.11 28.5908 150.481 30.56 153.311 32.9932C156.142 35.4264 158.433 38.3236 160.016 41.5412C161.599 44.7584 162.475 48.2956 162.475 52.0084C162.475 55.7216 161.599 59.2588 160.016 62.476C158.433 65.6932 156.142 68.5904 153.312 71.024C147.521 75.9296 142.349 82.4612 142.349 91.5124" stroke="#13252E" stroke-width="6.01" />
    <path d="M39.28 88.936C39.28 97.9868 33.68 104.037 27.8888 108.943C25.0584 111.376 22.7672 114.274 21.1844 117.491C19.6012 120.708 18.7256 124.245 18.7256 127.958C18.7256 131.671 19.6012 135.208 21.1844 138.426C22.7676 141.643 25.0584 144.54 27.8888 146.974C30.7196 149.407 34.0904 151.376 37.8336 152.737C41.5764 154.098 45.6916 154.85 50.0112 154.85C54.3308 154.85 58.446 154.098 62.1888 152.737C65.9316 151.376 69.3024 149.407 72.1328 146.974C74.964 144.54 77.2548 141.643 78.838 138.426C80.4208 135.208 85.9056 127.79 90.7284 117.744C96.0632 127.927 100.78 135.242 102.363 138.459C103.946 141.676 106.237 144.574 109.068 147.007C111.898 149.44 115.269 151.409 119.012 152.77C122.755 154.131 126.87 154.883 131.19 154.883C135.509 154.883 139.624 154.131 143.367 152.77C147.11 151.409 150.481 149.44 153.312 147.007C156.142 144.574 158.433 141.676 160.016 138.459C161.6 135.242 162.475 131.704 162.475 127.991C162.475 124.278 161.6 120.741 160.016 117.524C158.433 114.306 156.142 111.409 153.312 108.976C147.521 104.07 142.349 97.5384 142.349 88.4876" stroke="#13252E" stroke-width="6.01" />
  </g>
  <g id="bn" fill="none" transform="scale(0.22099447513812154 0.22099447513812157)">
    <path d="M19.4992 62.35H149.387V88.0208H19.4992V62.35Z" fill="#13252E" />
    <path fill-rule="evenodd" clip-rule="evenodd" d="M80.662 104.302C76.8512 112.735 71.5616 118.509 63.4832 123.261C47.2316 132.328 43.366 142.311 37.3856 160H133.825C139.912 146.216 142.174 132.911 142.972 116.853" fill="#B3B3B3" />
    <path d="M80.662 104.302C76.8512 112.735 71.5616 118.509 63.4832 123.261C47.2316 132.328 43.366 142.311 37.3856 160H133.825C139.912 146.216 142.174 132.911 142.972 116.853" stroke="#13252E" stroke-width="4.00667" />
    <path fill-rule="evenodd" clip-rule="evenodd" d="M18.5928 75.1916C18.6192 84.2428 21.3156 97.002 26.9288 98.1788C58.586 100.234 58.8176 90.6888 82.7192 103.882C95.2888 113.35 111.307 114.286 125.035 114.196C126.715 115.201 129.215 117.342 131.706 119.448C132.84 116.556 132.45 115.007 132.622 113.716C135.157 114.051 137.141 115.94 138.149 116.558C139.725 113.927 138.228 111.808 137.603 108.641C143.284 118.428 147.86 121.636 156.786 126.492C161.688 108.942 162.358 104.101 147.515 85.7844" fill="#13252E" />
    <path d="M18.5928 75.1916C18.6192 84.2428 21.3156 97.002 26.9288 98.1788C58.586 100.234 58.8176 90.6888 82.7192 103.882C95.2888 113.35 111.307 114.286 125.035 114.196C126.715 115.201 129.215 117.342 131.706 119.448C132.84 116.556 132.45 115.007 132.622 113.716C135.157 114.051 137.141 115.94 138.149 116.558C139.725 113.927 138.228 111.808 137.603 108.641C143.284 118.428 147.86 121.636 156.786 126.492C161.688 108.942 162.358 104.101 147.515 85.7844" stroke="#13252E" stroke-width="4.00667" />
    <path fill-rule="evenodd" clip-rule="evenodd" d="M18.5928 75.8508C18.6192 66.7996 21.3156 54.0404 26.9288 52.8636C58.586 50.808 58.818 60.354 82.7192 47.1608C95.2892 37.6928 111.308 36.7568 125.035 37.6468C126.715 37.4412 129.215 35.3 131.706 33.1948C132.84 36.0864 132.45 37.6352 132.622 38.926C135.157 38.592 137.141 36.702 138.149 36.0844C139.725 38.7156 138.228 40.8344 137.603 43.2016C143.284 32.6144 147.859 29.4068 156.786 24.55C161.688 42.1008 162.915 46.2916 148.072 64.608" fill="#13252E" />
    <path d="M18.5928 75.8508C18.6192 66.7996 21.3156 54.0404 26.9288 52.8636C58.586 50.808 58.818 60.354 82.7192 47.1608C95.2892 37.6928 111.308 36.7568 125.035 37.6468C126.715 37.4412 129.215 35.3 131.706 33.1948C132.84 36.0864 132.45 37.6352 132.622 38.926C135.157 38.592 137.141 36.702 138.149 36.0844C139.725 38.7156 138.228 40.8344 137.603 43.2016C143.284 32.6144 147.859 29.4068 156.786 24.55C161.688 42.1008 162.915 46.2916 148.072 64.608" stroke="#13252E" stroke-width="4.00667" />
    <path d="M50.692 144.235C53.8664 139.514 56.1704 135.553 61.5492 132.28C62.64 131.616 67.0776 129.26 68.0124 128.578C74.7072 123.691 79.0232 120.316 82.798 114.022C83.0986 113.519 83.3845 113.008 83.6556 112.49C88.3972 115.522 92.266 116.846 97.158 118.258C103.463 120.04 115.689 120.509 115.689 120.509L122.872 120.442L127.713 124.004C128.621 124.672 130.373 126.147 131.649 127.226C132.925 128.306 134.021 129.129 134.085 129.057C134.357 128.748 135.569 125.326 135.773 124.293C135.895 123.674 135.938 123.55 136.048 123.094C136.756 123.518 136.951 123.586 137.988 124.279C139.026 124.972 140.005 125.549 140.165 125.561C140.339 125.574 140.749 125.076 141.189 124.318C142.31 122.387 142.426 122.73 142.125 127.068C141.507 135.961 139.223 141.228 137.469 148.192C136.652 151.438 134.449 156.412 133.306 159.2C117.925 159.56 104.224 160 88.438 159.662L44.644 159.221C44.4824 161.093 48.7832 147.259 50.692 144.235V144.235Z" fill="#13252E" stroke="#13252E" stroke-width="0.929947" />
    <path fill-rule="evenodd" clip-rule="evenodd" d="M28.104 80.9812C31.582 86.4332 28.104 89.6292 28.104 89.6292Z" fill="#B3B3B3" />
    <path d="M28.104 80.9812C31.582 86.4332 28.104 89.6292 28.104 89.6292" stroke="#B3B3B3" stroke-width="4.00667" stroke-linecap="round" />
    <path fill-rule="evenodd" clip-rule="evenodd" d="M93.0964 92.7896C99.7108 90.676 104.68 93.976 106.382 99.0552C99.244 99.3272 98.3364 94.6924 98.3364 94.6924" fill="#B3B3B3" />
    <path d="M93.0964 92.7896C99.7108 90.676 104.68 93.976 106.382 99.0552C99.244 99.3272 98.3364 94.6924 98.3364 94.6924" stroke="#B3B3B3" stroke-width="6.01" stroke-linecap="round" stroke-linejoin="round" />
    <path fill-rule="evenodd" clip-rule="evenodd" d="M28.104 70.0612C31.582 64.6092 28.104 61.4132 28.104 61.4132Z" fill="#B3B3B3" />
    <path d="M28.104 70.0612C31.582 64.6092 28.104 61.4132 28.104 61.4132" stroke="#B3B3B3" stroke-width="4.00667" stroke-linecap="round" />
    <path fill-rule="evenodd" clip-rule="evenodd" d="M93.0964 58.2528C99.7108 60.366 104.68 57.0664 106.382 51.9868C99.244 51.7148 98.3364 56.35 98.3364 56.35" fill="#B3B3B3" />
    <path d="M93.0964 58.2528C99.7108 60.366 104.68 57.0664 106.382 51.9868C99.244 51.7148 98.3364 56.35 98.3364 56.35" stroke="#B3B3B3" stroke-width="6.01" stroke-linecap="round" stroke-linejoin="round" />
    <path fill-rule="evenodd" clip-rule="evenodd" d="M146.666 51.26C150.219 48.1488 150.688 44.2932 150.41 40.93Z" fill="#B3B3B3" />
    <path d="M146.666 51.26C150.219 48.1488 150.688 44.2932 150.41 40.93" stroke="#B3B3B3" stroke-width="4.00667" stroke-linecap="round" stroke-linejoin="round" />
    <path d="M101.812 98.3716C103.091 98.3716 104.127 97.3354 104.127 96.0572C104.127 94.779 103.091 93.7428 101.812 93.7428C100.534 93.7428 99.498 94.779 99.498 96.0572C99.498 97.3354 100.534 98.3716 101.812 98.3716Z" fill="#B3B3B3" />
    <path d="M101.838 58.1436C103.116 58.1436 104.152 57.1074 104.152 55.8292C104.152 54.551 103.116 53.5148 101.838 53.5148C100.56 53.5148 99.5236 54.551 99.5236 55.8292C99.5236 57.1074 100.56 58.1436 101.838 58.1436Z" fill="#B3B3B3" />
    <path fill-rule="evenodd" clip-rule="evenodd" d="M146.666 100.312C150.219 103.423 150.688 107.278 150.41 110.642Z" fill="#B3B3B3" />
    <path d="M146.666 100.312C150.219 103.423 150.688 107.278 150.41 110.642" stroke="#B3B3B3" stroke-width="4.00667" stroke-linecap="round" stroke-linejoin="round" />
    <path fill-rule="evenodd" clip-rule="evenodd" d="M158.391 62.7524C157.839 65.7044 156.513 69.4656 154.198 71.36C155.95 73.112 156.822 73.2864 162.191 76.386C157.06 79.3484 155.833 79.7768 154.197 81.412C156.513 83.3064 157.839 87.0672 158.391 90.0196L148.404 87.8156C146.29 91.4792 142.797 94.2772 137.618 95.6652C138.17 92.7132 138.628 87.4 140.211 84.6576C137.984 84.6576 134.482 84.4936 131.418 83.6724C134.034 80.3092 135.886 77.9796 138.567 76.4316C135.571 74.7016 134.034 72.554 131.418 69.1912C135.192 68.1796 137.984 68.2056 140.211 68.2056C138.539 65.3096 138.17 60.1504 137.618 57.198C142.876 58.6072 145.402 61.5108 148.404 64.2016L158.391 62.7524Z" fill="#B3B3B3" stroke="#13252E" stroke-width="4.00667" stroke-linecap="square" />
  </g>
  <g id="bp" fill="none" transform="scale(0.22099447513812154 0.22099447513812157)">
    <path d="M74 105.988C79.3016 96.8056 80.5928 85.0208 74 73.6012H107.129C99.8348 86.2348 101.302 95.8964 107.129 105.988" stroke="#13252E" stroke-width="4.00667" stroke-linecap="round" />
    <path d="M73.584 115.322C70.252 119.362 68.4752 124.463 68.4652 129.582C68.4652 135.773 70.9744 141.377 75.0312 145.434C79.088 149.491 84.6924 152 90.8832 152C97.0736 152 102.678 149.491 106.735 145.434C110.792 141.377 113.301 135.773 113.301 129.582C113.298 124.345 111.437 119.282 108.182 115.322H73.584ZM73.584 64.6056C70.252 60.5664 68.4752 55.4648 68.4652 50.3456C68.4652 44.1552 70.9744 38.5508 75.0312 34.494C79.088 30.4372 84.6924 27.928 90.8832 27.928C97.0736 27.928 102.678 30.4372 106.735 34.494C110.792 38.5508 113.301 44.1552 113.301 50.346C113.298 55.5832 111.437 60.6468 108.182 64.6056" fill="#13252E" />
    <path d="M73.584 64.6056C70.252 60.5664 68.4752 55.4648 68.4652 50.3456C68.4652 44.1552 70.9744 38.5508 75.0312 34.494C79.088 30.4372 84.6924 27.928 90.8832 27.928C97.0736 27.928 102.678 30.4372 106.735 34.494C110.792 38.5508 113.301 44.1552 113.301 50.346C113.298 55.5832 111.437 60.6468 108.182 64.6056M73.584 115.322C70.252 119.362 68.4752 124.463 68.4652 129.582C68.4652 135.773 70.9744 141.377 75.0312 145.434C79.088 149.491 84.6924 152 90.8832 152C97.0736 152 102.678 149.491 106.735 145.434C110.792 141.377 113.301 135.773 113.301 129.582C113.298 124.345 111.437 119.282 108.182 115.322H73.584Z" stroke="#13252E" stroke-width="4.00667" stroke-linecap="round" />
    <path d="M66.2 116.382H115.412V105.239H66.2V116.382Z" fill="#B3B3B3" stroke="#13252E" stroke-width="6.01" stroke-linecap="round" stroke-linejoin="round" />
    <path d="M66.2 61.9324H115.412V73.0756H66.2V61.9324Z" fill="#B3B3B3" stroke="#13252E" stroke-width="6.01" stroke-linecap="round" stroke-linejoin="round" />
    <path d="M75.78 104.634C75.78 104.582 76.0796 103.646 76.4456 102.553C79.2184 94.2764 79.1676 85.4048 76.2988 77.0524L75.2168 73.9C75.096 73.546 75.9168 73.526 90.5016 73.526C98.9784 73.526 105.914 73.5644 105.914 73.6116C105.914 73.6588 105.474 74.7892 104.936 76.1228C101.526 84.5772 101.2 92.9428 103.961 101.14C104.408 102.468 104.886 103.764 105.024 104.021C105.161 104.277 105.273 104.541 105.273 104.608C105.273 104.674 98.6372 104.729 90.5264 104.729C82.416 104.729 75.78 104.686 75.78 104.634V104.634Z" fill="#13252E" />
  </g>
  <g id="bq" fill="none" transform="scale(0.22099447513812154 0.22099447513812157)">
    <path fill-rule="evenodd" clip-rule="evenodd" d="M32.8025 44.5772C34.2785 47.2592 40.0085 58.2196 41.3185 61.472C42.6662 64.8221 43.8325 68.2424 44.8121 71.718C45.8057 75.2476 43.2097 78.842 43.7365 82.3556C44.2637 85.8692 47.9137 89.3012 47.8233 92.5056L92.5393 92.2444L92.2777 25.5624C82.5169 38.246 75.2801 48.8964 69.6321 63.6364C61.9281 55.8588 48.0977 46.234 39.0393 41.1652L32.8025 44.5772Z" fill="#13252E" />
    <path fill-rule="evenodd" clip-rule="evenodd" d="M147.991 44.718C146.515 47.4004 142.821 59.2656 141.511 62.518C140.163 65.8681 138.997 69.2884 138.018 72.764C137.024 76.2936 138.489 78.7568 137.962 82.2704C137.435 85.784 134.916 90.3472 135.007 93.5516L90.2905 93.2904L90.5521 26.6084C100.313 39.292 107.55 49.9424 113.198 64.6824C120.902 56.9048 133.148 43.7372 142.207 38.6684L147.991 44.718Z" fill="#13252E" />
    <path fill-rule="evenodd" clip-rule="evenodd" d="M33.9773 134.354C35.4533 131.672 39.8253 122.974 41.1357 119.722C42.4833 116.372 43.6494 112.951 44.6289 109.476C45.6229 105.946 43.7053 101.899 44.2325 98.3852C44.7593 94.872 47.7305 91.8924 47.6405 88.688L92.3565 88.9492L92.0949 155.631C82.3337 142.948 75.0969 132.297 69.4489 117.557C61.7449 125.335 49.3113 135.677 40.2529 140.746L33.9773 134.354Z" fill="#13252E" />
    <path fill-rule="evenodd" clip-rule="evenodd" d="M148.939 135.624C147.463 132.942 142.638 122.66 141.328 119.408C139.98 116.058 138.814 112.638 137.834 109.162C136.841 105.632 141.232 100.995 139.589 97.8452C138 94.8 133.333 91.4984 133.423 88.294L90.1073 88.6356L90.3689 155.317C100.13 142.634 107.367 131.983 113.015 117.243C120.719 125.021 132.777 134.685 141.836 139.754L148.939 135.624Z" fill="#13252E" />
    <path d="M33.1384 36.1946C43.3671 41.6321 57.2915 54.124 68.7578 63.0151C76.5861 47.5684 84.4826 35.0361 92.6254 26.3273M47.8671 83.9387C48.1057 85.953 48.1051 88.5606 48.108 90.2555C48.1051 91.9506 48.1059 94.5577 47.8671 96.5722M30.3229 37.7946C34.7865 47.7538 43.5277 65.8257 46.1227 76.0129L30.3229 37.7946Z" stroke="#13252E" stroke-width="6.01004" />
    <path d="M30.1089 45.638C36.254 45.638 41.2357 40.6564 41.2357 34.5112C41.2357 28.366 36.254 23.3844 30.1089 23.3844C23.9637 23.3844 18.9821 28.366 18.9821 34.5112C18.9821 40.6564 23.9637 45.638 30.1089 45.638Z" fill="#13252E" stroke="#13252E" stroke-width="6.01" />
    <path d="M90.4473 99.4776L84.4069 90.3256L90.4473 81.1728L96.4881 90.3256L90.4473 99.4776ZM67.1201 97.1208L62.5441 90.2564L67.1201 83.3924L71.6961 90.2564L67.1201 97.1208Z" fill="#B3B3B3" />
    <path d="M33.1385 144.315C43.3672 138.878 57.2914 126.386 68.7577 117.495C76.586 132.941 82.2859 143.277 90.4284 151.986M30.323 142.715C34.7866 132.756 43.5278 114.684 46.1228 104.497" stroke="#13252E" stroke-width="6.01" />
    <path d="M30.109 134.871C36.2541 134.871 41.2358 139.852 41.2358 145.997C41.2358 152.143 36.2541 157.124 30.109 157.124C23.9639 157.124 18.9822 152.143 18.9822 145.997C18.9822 139.852 23.9639 134.871 30.109 134.871Z" fill="#13252E" stroke="#13252E" stroke-width="6.00995" />
    <path d="M148.776 144.315C138.547 138.877 124.623 126.385 113.157 117.494C105.329 132.941 98.0289 143.277 89.8861 151.985M151.592 142.715C147.128 132.756 138.387 114.684 135.792 104.497" stroke="#13252E" stroke-width="6.01" />
    <path d="M151.805 134.87C145.66 134.87 140.679 139.852 140.679 145.997C140.679 152.142 145.66 157.124 151.805 157.124C157.951 157.124 162.932 152.142 162.932 145.997C162.932 139.852 157.951 134.87 151.805 134.87Z" fill="#13252E" stroke="#13252E" stroke-width="6.00995" />
    <path d="M113.879 83.4111L118.455 90.2754L113.879 97.1397L109.303 90.2754L113.879 83.4111Z" fill="#B3B3B3" />
    <path d="M90.5913 148.025C84.4461 148.025 79.4645 153.007 79.4645 159.152C79.4645 165.297 84.4461 170.278 90.5913 170.278C96.7364 170.278 101.718 165.297 101.718 159.152C101.718 153.007 96.7364 148.025 90.5913 148.025Z" fill="#13252E" stroke="#13252E" stroke-width="6.00995" />
    <path d="M148.776 34.5914C138.547 40.0289 124.623 52.5207 113.157 61.4117C105.328 45.9652 98.0288 35.6295 89.886 26.921M134.047 82.3351C133.809 84.3494 133.809 86.9569 133.806 88.6524C133.809 90.348 133.808 92.9553 134.047 94.9699M151.591 36.1915C147.128 46.1506 138.387 64.2223 135.792 74.4094L151.591 36.1915Z" stroke="#13252E" stroke-width="6.00998" />
    <path d="M151.805 44.0358C145.66 44.0358 140.679 39.0541 140.679 32.909C140.679 26.7638 145.66 21.7822 151.805 21.7822C157.95 21.7822 162.932 26.7638 162.932 32.909C162.932 39.0541 157.95 44.0358 151.805 44.0358Z" fill="#13252E" stroke="#13252E" stroke-width="6.01001" />
    <path d="M90.5912 31.6812C84.4461 31.6812 79.4644 26.6996 79.4644 20.5544C79.4644 14.4092 84.4461 9.42761 90.5912 9.42761C96.7364 9.42761 101.718 14.4092 101.718 20.5544C101.718 26.6996 96.7364 31.6812 90.5912 31.6812Z" fill="#13252E" stroke="#13252E" stroke-width="6.01001" />
    <path fill-rule="evenodd" clip-rule="evenodd" d="M90.9575 60.7974C76.4126 60.7084 62.141 64.0804 46.6152 72.0013C37.8493 76.3544 41.6781 84.4455 48.7513 83.217C63.6485 75.8357 77.158 72.644 90.9575 72.7283C104.757 72.6428 118.267 75.8346 133.168 83.2162C140.246 84.4455 144.075 76.3544 135.304 72.0005C119.774 64.0788 105.502 60.7069 90.9575 60.7974V60.7974Z" fill="#B3B3B3" stroke="#13252E" stroke-width="5.20873" />
    <path fill-rule="evenodd" clip-rule="evenodd" d="M135.304 107.783C119.774 115.716 105.502 119.088 90.9573 118.998C76.4125 119.088 62.1409 115.716 46.6149 107.782C37.8489 103.417 41.6777 95.3256 48.7509 96.5668C63.6481 103.96 77.1577 107.152 90.9573 107.067C104.756 107.152 118.266 103.96 133.168 96.5672C140.246 95.3256 144.075 103.417 135.304 107.783H135.304Z" fill="#B3B3B3" stroke="#13252E" stroke-width="5.20867" />
  </g>
  <g id="br" fill="none" transform="scale(0.2222222222222222 0.2222222222222222)">
    <path d="M42.8 140.3H137.701L122.029 125.555H57.932L42.8 140.3Z" fill="#B3B3B3" />
    <path d="M42.8 41.5552H137.701L122.029 56.3H57.932L42.8 41.5552Z" fill="#B3B3B3" />
    <path d="M80 31.3V21.3H100V31.3" stroke="#13252E" stroke-width="4.00667" stroke-linecap="round" />
    <path d="M120 31.3V21.3H140V41.3H40V21.3H60V31.3" stroke="#13252E" stroke-width="4.00667" stroke-linecap="round" />
    <path d="M60 31.3H80.6252M99.3752 31.3H120H99.3752Z" stroke="#13252E" stroke-width="4.00667" />
    <path d="M60 61.3H120V121.3H60V61.3Z" fill="#13252E" stroke="#13252E" stroke-width="4.00667" stroke-linecap="round" />
    <path d="M42.2612 31.364V23.5252H57.9388V27.954C57.9388 30.876 58.0988 32.5428 58.4092 32.8532C58.7528 33.1972 61.8608 33.3236 69.9432 33.3236C79.4792 33.3236 81.0924 33.2384 81.6232 32.7076C82.108 32.2228 82.2392 31.1796 82.2392 27.8084V23.5252H97.9168V27.954C97.9168 30.876 98.0768 32.5428 98.3872 32.8532C98.7308 33.1972 101.839 33.3236 109.921 33.3236C119.457 33.3236 121.07 33.2384 121.601 32.7076C122.086 32.2228 122.217 31.1796 122.217 27.8084V23.5252H137.895V39.2028H42.2612V31.364Z" fill="#13252E" stroke="#13252E" stroke-width="1.96287" />
    <path d="M49.39 39.7H131.152V43.7232H49.39V39.7Z" fill="#13252E" stroke="#13252E" stroke-width="4.00667" />
    <path d="M120.668 60.798L140.455 41.7952M39.468 41.7616L59.2548 60.7644L39.468 41.7616Z" stroke="#13252E" stroke-width="4.00667" />
    <path d="M56.0748 57.3752H123.925V69.2252H56.0748V57.3752Z" fill="#B3B3B3" stroke="#13252E" stroke-width="4.00667" stroke-linejoin="round" />
    <path d="M119.665 57.924L139.452 38.9212M40.428 38.8888L60.2148 57.8916L40.428 38.8888Z" stroke="#13252E" stroke-width="4.00667" />
    <path d="M57.5268 53.84H124.335V56.76H57.5268V53.84Z" fill="#13252E" stroke="#13252E" stroke-width="3.08553" />
    <path d="M55.998 66.17H123.13V68.4972H55.998V66.17Z" fill="#13252E" stroke="#13252E" stroke-width="2.76099" />
    <path d="M55.8932 59.386H61.7004V66.038H55.8932V59.386ZM118.016 59.19H123.823V65.842H118.016V59.19Z" fill="#13252E" stroke="#13252E" stroke-width="1.37308" />
    <path d="M42.8 140.045H137.701L122.029 125.3H57.9316L42.8 140.045Z" fill="#B3B3B3" />
    <path d="M80 150.3V160.3H100V150.3" stroke="#13252E" stroke-width="4.00667" stroke-linecap="round" />
    <path d="M120 150.3V160.3H140V140.3H40V160.3H60V150.3" stroke="#13252E" stroke-width="4.00667" stroke-linecap="round" />
    <path d="M60 150.3H80.6248M99.3748 150.3H120H99.3748Z" stroke="#13252E" stroke-width="4.00667" />
    <path d="M42.2612 150.236V158.075H57.9388V153.646C57.9388 150.724 58.0988 149.057 58.4092 148.747C58.7528 148.403 61.8608 148.276 69.9432 148.276C79.4792 148.276 81.0924 148.362 81.6232 148.892C82.108 149.377 82.2392 150.42 82.2392 153.792V158.075H97.9168V153.646C97.9168 150.724 98.0768 149.057 98.3872 148.747C98.7308 148.403 101.839 148.276 109.921 148.276C119.457 148.276 121.07 148.362 121.601 148.892C122.086 149.377 122.217 150.42 122.217 153.792V158.075H137.895V142.397H42.2612V150.236V150.236Z" fill="#13252E" stroke="#13252E" stroke-width="1.96287" />
    <path d="M49.39 141.9H131.152V137.877H49.39V141.9Z" fill="#13252E" stroke="#13252E" stroke-width="4.00667" />
    <path d="M120.668 120.802L140.455 139.805M39.468 139.838L59.2548 120.836L39.468 139.838Z" stroke="#13252E" stroke-width="4.00667" />
    <path d="M56.0744 124.225H123.925V112.375H56.0744V124.225Z" fill="#B3B3B3" stroke="#13252E" stroke-width="4.00667" stroke-linejoin="round" />
    <path d="M119.665 123.676L139.452 142.679M40.428 142.711L60.2148 123.708L40.428 142.711Z" stroke="#13252E" stroke-width="4.00667" />
    <path d="M57.5264 127.76H124.335V124.84H57.5268L57.5264 127.76Z" fill="#13252E" stroke="#13252E" stroke-width="3.08553" />
    <path d="M55.998 115.43H123.13V113.103H55.998V115.43Z" fill="#13252E" stroke="#13252E" stroke-width="2.76099" />
    <path d="M55.8928 122.214H61.7V115.562H55.8928V122.214ZM118.016 122.41H123.823V115.758H118.016V122.41Z" fill="#13252E" stroke="#13252E" stroke-width="1.37308" />
  </g>
  <g id="wb" fill="none" transform="scale(0.22099447513812154 0.22099447513812157)">
    <g clip-path="url(#wbclip0_5_802)">
      <path d="M74.2472 95.0888L98.4432 70.8924L109.394 81.8424L85.1976 106.039L74.2472 95.0888Z" fill="#BCE9FF" />
      <path d="M75.3056 96.7824C71.7676 93.2444 66.856 89.6276 61.3756 89.6112C53.61 89.6112 45.8444 86.6484 39.9196 80.7236C33.9944 74.7988 31.0316 67.0328 31.1208 59.2436C31.2308 44.4548 32.3192 36.2996 28.52 26.5556C30.8384 27.5355 33.2626 28.2433 35.744 28.6648C38.1488 29.0788 40.6024 29.248 43.2608 29.3056C45.9196 29.3628 48.7824 29.3084 52.006 29.2752L51.9308 42.2L61.3276 41.8784L61.3992 29.3264C61.896 29.3396 62.4004 29.3548 62.9128 29.3728C64.8052 29.4384 66.626 29.6288 68.3856 29.9688C70.1448 30.3096 71.8428 30.8008 73.4892 31.4688C75.1725 32.153 76.7797 33.0114 78.2844 34.03C79.838 35.078 81.3508 36.33 82.832 37.8112C88.7568 43.736 91.7192 51.5016 91.7192 59.2672C92.0272 65.236 96.0132 69.8392 99.1028 72.9288" fill="#BCE9FF" />
      <path d="M75.3056 96.7824C71.7676 93.2444 66.856 89.6276 61.3756 89.6112C53.61 89.6112 45.8444 86.6484 39.9196 80.7236C33.9944 74.7988 31.0316 67.0328 31.1208 59.2436C31.2308 44.4548 32.3192 36.2996 28.52 26.5556C30.8384 27.5355 33.2626 28.2433 35.744 28.6648C38.1488 29.0788 40.6024 29.248 43.2608 29.3056C45.9196 29.3628 48.7824 29.3084 52.006 29.2752L51.9308 42.2L61.3276 41.8784L61.3992 29.3264C61.896 29.3396 62.4004 29.3548 62.9128 29.3728C64.8052 29.4384 66.626 29.6288 68.3856 29.9688C70.1448 30.3096 71.8428 30.8008 73.4892 31.4688C75.1725 32.153 76.7797 33.0114 78.2844 34.03C79.838 35.078 81.3508 36.33 82.832 37.8112C88.7568 43.736 91.7192 51.5016 91.7192 59.2672C92.0272 65.236 96.0132 69.8392 99.1028 72.9288" stroke="#13252E" stroke-width="6.01" />
      <path d="M30.577 28.9185C32.9781 26.5174 32.9781 22.6244 30.577 20.2233C28.1759 17.8222 24.2829 17.8222 21.8818 20.2233C19.4807 22.6244 19.4807 26.5173 21.8818 28.9184C24.2829 31.3195 28.1759 31.3196 30.577 28.9185Z" fill="#BCE9FF" stroke="#13252E" stroke-width="6.01" />
      <path d="M55.2132 94.902L96.5156 53.5992C102.322 53.5304 106.31 57.526 106.298 63.3812L64.9952 104.684C59.0924 103.681 55.7528 100.884 55.2132 94.902Z" fill="#BCE9FF" stroke="#13252E" stroke-width="6.01" stroke-linejoin="round" />
      <path d="M106.34 81.8574C109.878 85.3952 114.79 89.0122 120.27 89.029C128.036 89.029 135.801 91.9912 141.726 97.9162C147.651 103.841 150.614 111.607 150.525 119.397C150.415 134.185 149.326 142.34 153.126 152.084C150.808 151.104 148.384 150.396 145.902 149.975C143.497 149.561 141.043 149.392 138.385 149.335C135.727 149.277 132.864 149.332 129.64 149.364L129.715 136.44L120.318 136.761L120.247 149.313C119.75 149.3 119.246 149.285 118.733 149.267C116.841 149.201 115.02 149.011 113.26 148.671C111.514 148.338 109.805 147.836 108.157 147.171C106.473 146.487 104.866 145.628 103.361 144.609C101.807 143.561 100.295 142.31 98.8141 140.829C92.8891 134.904 89.9268 127.138 89.9268 119.372C89.6187 113.404 85.6323 108.8 82.5434 105.711" fill="#BCE9FF" />
      <path d="M106.34 81.8574C109.878 85.3952 114.79 89.0122 120.27 89.029C128.036 89.029 135.801 91.9912 141.726 97.9162C147.651 103.841 150.614 111.607 150.525 119.397C150.415 134.185 149.326 142.34 153.126 152.084C150.808 151.104 148.384 150.396 145.902 149.975C143.497 149.561 141.043 149.392 138.385 149.335C135.727 149.277 132.864 149.332 129.64 149.364L129.715 136.44L120.318 136.761L120.247 149.313C119.75 149.3 119.246 149.285 118.733 149.267C116.841 149.201 115.02 149.011 113.26 148.671C111.514 148.338 109.805 147.836 108.157 147.171C106.473 146.487 104.866 145.628 103.361 144.609C101.807 143.561 100.295 142.31 98.8141 140.829C92.8891 134.904 89.9268 127.138 89.9268 119.372C89.6187 113.404 85.6323 108.8 82.5434 105.711" stroke="#13252E" stroke-width="6.01018" />
      <path d="M151.069 149.721C148.667 152.122 148.667 156.015 151.069 158.417C153.47 160.818 157.363 160.818 159.764 158.417C162.165 156.015 162.165 152.122 159.764 149.721C157.363 147.32 153.47 147.32 151.069 149.721Z" fill="#BCE9FF" stroke="#13252E" stroke-width="6.01018" />
      <path d="M126.433 83.7385L85.131 125.04C79.3239 125.109 75.3368 121.114 75.3486 115.258L116.65 73.9561C122.554 74.9589 125.893 77.7561 126.433 83.7385Z" fill="#BCE9FF" stroke="#13252E" stroke-width="6.01018" stroke-linejoin="round" />
      <path d="M72.8692 97.7952C78.2636 98.594 81.9588 101.353 82.6516 107.577M100.87 69.7952C101.669 75.1892 104.428 78.884 110.652 79.5768" stroke="#13252E" stroke-width="6.01" />
    </g>
    <defs>
      <clipPath id="wbclip0_5_802">
        <rect width="180" height="180" fill="white" transform="translate(0.299988)" />
      </clipPath>
    </defs>
  </g>
  <g id="wk" fill="none" transform="scale(0.22099447513812154 0.22099447513812157)">
    <path d="M80.1812 136.584C79.5782 137.875 79.2657 139.283 79.2657 140.708C79.2657 142.133 79.5782 143.541 80.1812 144.832C80.7704 146.099 81.6232 147.241 82.6768 148.2C83.73 149.158 84.9848 149.934 86.3776 150.47C87.8243 151.023 89.3607 151.305 90.9096 151.302C92.5176 151.302 94.0488 151.006 95.4416 150.47C96.8348 149.934 98.0892 149.158 99.1428 148.2C100.196 147.241 101.049 146.1 101.638 144.832C102.241 143.54 102.553 142.133 102.553 140.708C102.553 139.283 102.241 137.875 101.638 136.584" fill="#BCE9FF" />
    <path d="M80.1812 136.584C79.5782 137.875 79.2657 139.283 79.2657 140.708C79.2657 142.133 79.5782 143.541 80.1812 144.832C80.7704 146.099 81.6232 147.241 82.6768 148.2C83.73 149.158 84.9848 149.934 86.3776 150.47C87.8243 151.023 89.3607 151.305 90.9096 151.302C92.5176 151.302 94.0488 151.006 95.4416 150.47C96.8348 149.934 98.0892 149.158 99.1428 148.2C100.196 147.241 101.049 146.1 101.638 144.832C102.241 143.54 102.553 142.133 102.553 140.708C102.553 139.283 102.241 137.875 101.638 136.584" stroke="#13252E" stroke-width="6.01" />
    <path fill-rule="evenodd" clip-rule="evenodd" d="M81.5808 137.458L91.11 120.441L100.445 137.652L81.5808 137.458ZM81.304 42.0688L90.8336 59.0856L100.168 41.874L81.304 42.0688Z" fill="#BCE9FF" />
    <path d="M80.1812 43.4152C79.5783 42.1241 79.2658 40.7164 79.2658 39.2914C79.2658 37.8664 79.5783 36.4588 80.1812 35.1676C80.7704 33.9 81.6232 32.7588 82.6764 31.8C83.73 30.8416 84.9844 30.0656 86.3776 29.5296C87.8243 28.976 89.3606 28.6939 90.9096 28.6972C92.5172 28.6972 94.0488 28.9936 95.4416 29.5296C96.8348 30.0656 98.0892 30.8416 99.1424 31.8C100.196 32.7588 101.049 33.9 101.638 35.168C102.241 36.4591 102.553 37.8667 102.553 39.2916C102.553 40.7165 102.241 42.1241 101.638 43.4152" fill="#BCE9FF" />
    <path d="M80.1812 43.4152C79.5783 42.1241 79.2658 40.7164 79.2658 39.2914C79.2658 37.8664 79.5783 36.4588 80.1812 35.1676C80.7704 33.9 81.6232 32.7588 82.6764 31.8C83.73 30.8416 84.9844 30.0656 86.3776 29.5296C87.8243 28.976 89.3606 28.6939 90.9096 28.6972C92.5172 28.6972 94.0488 28.9936 95.4416 29.5296C96.8348 30.0656 98.0892 30.8416 99.1424 31.8C100.196 32.7588 101.049 33.9 101.638 35.168C102.241 36.4591 102.553 37.8667 102.553 39.2916C102.553 40.7165 102.241 42.1241 101.638 43.4152" stroke="#13252E" stroke-width="6.01" />
    <path d="M153.611 71.024C156.442 68.5908 158.733 65.6932 160.316 62.476C161.899 59.2588 162.774 55.7216 162.774 52.0084C162.774 48.2956 161.899 44.7584 160.316 41.5408C158.733 38.3236 156.442 35.4264 153.611 32.9928C150.78 30.56 147.41 28.5908 143.667 27.23C139.924 25.8692 135.809 25.1168 131.489 25.1168C127.17 25.1168 123.054 25.8692 119.312 27.23C115.569 28.5908 112.198 30.56 109.367 32.9932C106.536 35.4264 104.246 38.3236 102.662 41.5412C101.079 44.7584 96.3632 52.8732 91.028 63.056C86.2052 53.01 80.7208 44.7912 79.1376 41.574C77.5544 38.3568 75.2636 35.4596 72.4328 33.026C69.602 30.5928 66.2312 28.624 62.4884 27.2632C58.7456 25.9024 54.6304 25.1496 50.3108 25.1496C45.9908 25.1496 41.876 25.9024 38.1332 27.2632C34.39 28.624 31.0196 30.5928 28.1888 33.0264C25.358 35.4596 23.0672 38.3568 21.484 41.5744C19.9008 44.7912 19.0252 48.3288 19.0252 52.0416C19.0252 55.7544 19.9012 59.292 21.484 62.5092C23.0672 65.7264 25.3464 68.6372 28.1888 71.0572C33.968 75.9764 39.5792 82.0132 39.5792 90C39.5792 97.9872 33.9792 104.037 28.1888 108.943C25.358 111.376 23.0672 114.274 21.484 117.491C19.9008 120.708 19.0256 124.245 19.0256 127.958C19.0256 131.671 19.9008 135.208 21.484 138.426C23.0672 141.643 25.358 144.54 28.1888 146.974C31.0196 149.407 34.3904 151.376 38.1332 152.737C41.876 154.098 45.9912 154.85 50.3108 154.85C54.6308 154.85 58.7456 154.098 62.4884 152.737C66.2316 151.376 69.602 149.407 72.4328 146.974C75.2636 144.54 77.5544 141.643 79.1376 138.426C80.7208 135.208 86.2056 126.99 91.028 116.944C96.3632 127.127 101.08 135.242 102.662 138.459C104.246 141.676 106.536 144.574 109.367 147.007C112.198 149.44 115.569 151.409 119.312 152.77C123.055 154.131 127.17 154.883 131.489 154.883C135.809 154.883 139.924 154.131 143.667 152.77C147.41 151.409 150.781 149.44 153.611 147.007C156.442 144.574 158.733 141.676 160.316 138.459C161.899 135.242 162.775 131.704 162.775 127.992C162.775 124.278 161.899 120.741 160.316 117.524C158.733 114.307 156.442 111.409 153.612 108.976C147.821 104.07 142.649 97.5384 142.649 90C142.649 82.4616 147.82 75.9296 153.611 71.024Z" fill="#BCE9FF" stroke="#13252E" stroke-width="6.01" />
    <path d="M90.9 100L84.9 90L90.9 80L96.9 90L90.9 100ZM69.7 98L64.9 90L69.7 82L74.5 90L69.7 98ZM51.7 96L48.1 90L51.7 84L55.3 90L51.7 96ZM112.1 98L116.9 90L112.1 82L107.3 90L112.1 98ZM130.1 96L133.7 90L130.1 84L126.5 90L130.1 96Z" fill="#13252E" />
    <path d="M90.9 28.6V4.60001" stroke="#13252E" stroke-width="6.01" />
    <path d="M81.9 14.754H99.9" stroke="#13252E" stroke-width="6.36699" />
    <path d="M90.9 151.4V175.4" stroke="#13252E" stroke-width="6.01" />
    <path d="M81.9 165.246H99.9" stroke="#13252E" stroke-width="6.36699" />
    <path d="M38.6528 80.0288C77.1276 70.328 115.901 70.0764 143.381 80.2732M38.6528 99.9708C77.1276 109.672 115.901 109.924 143.381 99.7268" stroke="#13252E" stroke-width="6.01" />
  </g>
  <g id="wn" fill="none" transform="scale(0.22099447513812154 0.22099447513812157)">
    <path d="M19.7992 62.128H147.485V90.9056H19.7992V62.128Z" fill="#BCE9FF" />
    <path fill-rule="evenodd" clip-rule="evenodd" d="M80.9621 104.302C77.1513 112.735 71.8613 118.509 63.7833 123.261C47.5313 132.328 43.6661 142.311 37.6857 160H134.124C140.212 146.216 142.474 132.911 143.272 116.853" fill="#BCE9FF" />
    <path d="M80.9621 104.302C77.1513 112.735 71.8613 118.509 63.7833 123.261C47.5313 132.328 43.6661 142.311 37.6857 160H134.124C140.212 146.216 142.474 132.911 143.272 116.853" stroke="#13252E" stroke-width="6.01" />
    <path fill-rule="evenodd" clip-rule="evenodd" d="M147.814 86.5844C162.658 104.901 161.988 108.942 157.086 126.492C148.159 121.636 143.584 118.428 137.903 108.641C138.528 111.808 140.025 113.927 138.449 116.558C137.441 115.941 135.457 114.05 132.922 113.717C132.749 115.007 133.14 116.556 132.006 119.448C129.515 117.343 127.014 115.202 125.335 114.196C111.608 114.286 95.5888 113.35 83.0188 103.882C59.1176 90.6888 58.8856 100.236 27.2288 98.1808C21.6156 97.004 18.9192 84.2428 18.8928 75.5212C18.9192 66.7996 21.6156 54.0404 27.2288 52.8636C58.886 50.8084 59.1176 60.354 83.0192 47.1608C95.5888 37.6928 111.607 36.7568 125.335 37.6468C127.015 37.4412 129.515 35.3 132.006 33.1948C133.14 36.0864 132.749 37.6352 132.922 38.926C135.457 38.592 137.441 36.702 138.449 36.0844C140.025 38.7156 138.528 40.8344 137.903 43.2016C143.584 32.6144 148.159 29.4068 157.086 24.5504C161.988 42.1008 163.215 46.2916 148.372 64.608" fill="#BCE9FF" />
    <path d="M147.814 86.5844C162.658 104.901 161.988 108.942 157.086 126.492C148.159 121.636 143.584 118.428 137.903 108.641C138.528 111.808 140.025 113.927 138.449 116.558C137.441 115.941 135.457 114.05 132.922 113.717C132.749 115.007 133.14 116.556 132.006 119.448C129.515 117.343 127.014 115.202 125.335 114.196C111.608 114.286 95.5888 113.35 83.0188 103.882C59.1176 90.6888 58.8856 100.236 27.2288 98.1808C21.6156 97.004 18.9192 84.2428 18.8928 75.5212C18.9192 66.7996 21.6156 54.0404 27.2288 52.8636C58.886 50.8084 59.1176 60.354 83.0192 47.1608C95.5888 37.6928 111.607 36.7568 125.335 37.6468C127.015 37.4412 129.515 35.3 132.006 33.1948C133.14 36.0864 132.749 37.6352 132.922 38.926C135.457 38.592 137.441 36.702 138.449 36.0844C140.025 38.7156 138.528 40.8344 137.903 43.2016C143.584 32.6144 148.159 29.4068 157.086 24.5504C161.988 42.1008 163.215 46.2916 148.372 64.608" stroke="#13252E" stroke-width="6.01" />
    <path d="M28.404 80.9816C31.882 86.4332 28.404 89.6292 28.404 89.6292" stroke="#13252E" stroke-width="4.00667" stroke-linecap="round" />
    <path d="M93.3961 92.7896C100.01 90.6764 104.98 93.976 106.682 99.0556C99.5437 99.3276 98.6365 94.6924 98.6365 94.6924" stroke="#13252E" stroke-width="6.01" stroke-linecap="round" stroke-linejoin="round" />
    <path d="M93.3961 58.2528C100.01 60.3664 104.98 57.0668 106.682 51.9872C99.5437 51.7152 98.6365 56.3504 98.6365 56.3504" stroke="#13252E" stroke-width="6.01" stroke-linecap="round" stroke-linejoin="round" />
    <path fill-rule="evenodd" clip-rule="evenodd" d="M158.691 62.7528C158.138 65.7048 156.812 69.466 154.497 71.3604C156.249 73.1124 157.122 73.2868 162.49 76.3864C157.359 79.3488 156.132 79.7772 154.497 81.4124C156.813 83.3068 158.138 87.0676 158.691 90.02L148.704 87.816C146.589 91.4796 143.097 94.2776 137.917 95.6656C138.47 92.7136 138.928 87.4004 140.511 84.658C138.284 84.658 134.782 84.494 131.718 83.6728C134.334 80.3096 136.185 77.98 138.866 76.432C135.87 74.702 134.333 72.5544 131.718 69.1916C135.492 68.18 138.284 68.206 140.511 68.206C138.839 65.31 138.47 60.1508 137.917 57.1984C143.176 58.6076 145.702 61.5112 148.704 64.202L158.691 62.7528Z" fill="#BCE9FF" stroke="#13252E" stroke-width="4.00667" stroke-linecap="square" />
    <path d="M146.966 51.2604C150.519 48.1492 150.988 44.2932 150.71 40.9304" stroke="#13252E" stroke-width="4.00667" stroke-linecap="round" stroke-linejoin="round" />
    <path d="M102.112 98.3716C103.39 98.3716 104.426 97.3354 104.426 96.0572C104.426 94.779 103.39 93.7428 102.112 93.7428C100.834 93.7428 99.7976 94.779 99.7976 96.0572C99.7976 97.3354 100.834 98.3716 102.112 98.3716Z" fill="#13252E" />
    <path d="M102.138 58.144C103.416 58.144 104.452 57.1078 104.452 55.8296C104.452 54.5514 103.416 53.5152 102.138 53.5152C100.86 53.5152 99.8237 54.5514 99.8237 55.8296C99.8237 57.1078 100.86 58.144 102.138 58.144Z" fill="#13252E" />
    <path d="M146.966 100.312C150.519 103.423 150.988 107.278 150.71 110.642" stroke="#13252E" stroke-width="4.00667" stroke-linecap="round" stroke-linejoin="round" />
    <path d="M28.404 61.4184C28.404 61.4184 31.6136 64.4272 28.404 70.0664" stroke="#13252E" stroke-width="4.00667" stroke-linecap="round" />
  </g>
  <g id="wp" fill="none" transform="scale(0.22099447513812154 0.22099447513812157)">
    <path d="M74.2372 73.5404H104.359C101.495 83.9804 98.6588 94.426 104.359 106.643H74.2372C79.8692 91.2908 76.622 82.746 74.2372 73.5404V73.5404Z" fill="#BCE9FF" />
    <path d="M106.429 73.6816C99.1348 86.3148 100.602 95.9768 106.429 106.068Z" fill="#BCE9FF" />
    <path d="M73.3 106.068C78.6016 96.8856 79.8928 85.1004 73.3 73.6816H106.429C99.1348 86.3148 100.602 95.9768 106.429 106.068" stroke="#13252E" stroke-width="6.01" stroke-linecap="round" />
    <path d="M72.8844 115.402C69.5524 119.442 67.7748 124.543 67.7652 129.662C67.7652 135.853 70.2744 141.457 74.3312 145.514C78.388 149.571 83.9924 152.08 90.1828 152.08C96.3732 152.08 101.978 149.571 106.035 145.514C110.091 141.457 112.6 135.853 112.6 129.662C112.598 124.425 110.736 119.362 107.482 115.402" fill="#BCE9FF" />
    <path d="M72.8844 115.402C69.5524 119.442 67.7748 124.543 67.7652 129.662C67.7652 135.853 70.2744 141.457 74.3312 145.514C78.388 149.571 83.9924 152.08 90.1828 152.08C96.3732 152.08 101.978 149.571 106.035 145.514C110.091 141.457 112.6 135.853 112.6 129.662C112.598 124.425 110.736 119.362 107.482 115.402" stroke="#13252E" stroke-width="6.01" stroke-linecap="round" />
    <path d="M65.5 116.462H114.712V105.319H65.5V116.462Z" fill="#BCE9FF" stroke="#13252E" stroke-width="6.01" stroke-linecap="round" stroke-linejoin="round" />
    <path d="M72.8841 64.6856C69.5521 60.6468 67.7753 55.5448 67.7653 50.4256C67.7653 44.2356 70.2745 38.6312 74.3313 34.574C78.3881 30.5172 83.9925 28.008 90.1833 28.008C96.3737 28.008 101.978 30.5172 106.035 34.574C110.092 38.6312 112.601 44.2356 112.601 50.426C112.598 55.6636 110.737 60.7268 107.482 64.686" fill="#BCE9FF" />
    <path d="M72.8841 64.6856C69.5521 60.6468 67.7753 55.5448 67.7653 50.4256C67.7653 44.2356 70.2745 38.6312 74.3313 34.574C78.3881 30.5172 83.9925 28.008 90.1833 28.008C96.3737 28.008 101.978 30.5172 106.035 34.574C110.092 38.6312 112.601 44.2356 112.601 50.426C112.598 55.6636 110.737 60.7268 107.482 64.686" stroke="#13252E" stroke-width="6.01" stroke-linecap="round" />
    <path d="M65.5 62.0124H114.712V73.1556H65.5V62.0124Z" fill="#BCE9FF" stroke="#13252E" stroke-width="6.01" stroke-linecap="round" stroke-linejoin="round" />
  </g>
  <g id="wq" fill="none" transform="scale(0.22099447513812154 0.22099447513812157)">
    <path fill-rule="evenodd" clip-rule="evenodd" d="M33.1024 44.5772C34.5784 47.2592 40.3084 58.2196 41.6184 61.472C42.9662 64.8221 44.1324 68.2424 45.112 71.718C46.1056 75.2476 43.5096 78.842 44.0364 82.3556C44.5636 85.8692 48.2136 89.3012 48.1232 92.5056L92.8392 92.2444L92.5776 25.5624C82.8168 38.246 75.58 48.8964 69.932 63.6364C62.228 55.8588 48.3976 46.234 39.3392 41.1652L33.1024 44.5772Z" fill="#BCE9FF" />
    <path fill-rule="evenodd" clip-rule="evenodd" d="M34.2772 134.354C35.7532 131.672 40.1252 122.974 41.4356 119.722C42.7832 116.372 43.9493 112.951 44.9288 109.476C45.9228 105.946 44.0052 101.899 44.5324 98.3852C45.0592 94.872 48.0304 91.8924 47.9404 88.688L92.6564 88.9492L92.3948 155.631C82.6336 142.948 75.3968 132.297 69.7488 117.557C62.0448 125.335 49.6112 135.677 40.5528 140.746L34.2772 134.354Z" fill="#BCE9FF" />
    <path fill-rule="evenodd" clip-rule="evenodd" d="M148.29 44.7179C146.814 47.4003 143.121 59.2655 141.811 62.5179C140.463 65.8681 139.297 69.2885 138.317 72.7642C137.324 76.2933 138.788 78.7572 138.262 82.2706C137.734 85.784 135.216 90.3474 135.306 93.5518L90.5901 93.2904L90.8518 26.6086C100.613 39.292 107.85 49.9425 113.497 64.6826C121.202 56.9049 133.448 43.7372 142.507 38.6686L148.29 44.7179Z" fill="#BCE9FF" />
    <path fill-rule="evenodd" clip-rule="evenodd" d="M149.239 135.624C147.763 132.942 142.938 122.66 141.628 119.408C140.28 116.058 139.114 112.637 138.134 109.162C137.141 105.633 141.532 100.995 139.889 97.8454C138.3 94.8002 133.633 91.4984 133.724 88.2939L90.4071 88.6355L90.6689 155.317C100.43 142.634 107.667 131.983 113.314 117.243C121.019 125.021 133.077 134.685 142.136 139.753L149.239 135.624Z" fill="#BCE9FF" />
    <path d="M33.4383 36.1946C43.6671 41.6321 57.5914 54.124 69.0577 63.0151C76.8861 47.5684 84.7825 35.0361 92.9253 26.3273M30.6228 37.7946C35.0864 47.7539 43.8277 65.8257 46.4227 76.0129L30.6228 37.7946ZM48.167 83.9387C48.4056 85.953 48.405 88.5606 48.4079 90.2555C48.405 91.9506 48.4059 94.5577 48.167 96.5722V83.9387Z" stroke="#13252E" stroke-width="6.01004" />
    <path d="M30.4088 45.638C36.5539 45.638 41.5356 40.6564 41.5356 34.5112C41.5356 28.366 36.5539 23.3844 30.4088 23.3844C24.2636 23.3844 19.282 28.366 19.282 34.5112C19.282 40.6564 24.2636 45.638 30.4088 45.638Z" fill="#BCE9FF" stroke="#13252E" stroke-width="6.01" />
    <path d="M90.7472 99.4776L84.7068 90.3256L90.7472 81.1728L96.788 90.3256L90.7472 99.4776ZM67.42 97.1208L62.844 90.2564L67.42 83.3924L71.996 90.2564L67.42 97.1208Z" fill="#13252E" />
    <path d="M33.4384 144.315C43.6671 138.878 57.5913 126.386 69.0576 117.495C76.8859 132.941 82.5859 143.277 90.7284 151.986M30.6229 142.715C35.0865 132.756 43.8277 114.684 46.4227 104.497" stroke="#13252E" stroke-width="6.01" />
    <path d="M30.409 134.871C36.5541 134.871 41.5357 139.852 41.5357 145.997C41.5357 152.143 36.5541 157.124 30.409 157.124C24.2638 157.124 19.2822 152.143 19.2822 145.997C19.2822 139.852 24.2638 134.871 30.409 134.871Z" fill="#BCE9FF" stroke="#13252E" stroke-width="6.00995" />
    <path d="M149.076 144.315C138.847 138.877 124.923 126.385 113.457 117.494C105.628 132.941 98.3287 143.277 90.1859 151.985M151.891 142.715C147.428 132.756 138.687 114.684 136.092 104.497" stroke="#13252E" stroke-width="6.01" />
    <path d="M152.105 134.87C145.96 134.87 140.979 139.852 140.979 145.997C140.979 152.142 145.96 157.124 152.105 157.124C158.25 157.124 163.232 152.142 163.232 145.997C163.232 139.852 158.25 134.87 152.105 134.87Z" fill="#BCE9FF" stroke="#13252E" stroke-width="6.00995" />
    <path d="M114.179 83.4111L118.755 90.2754L114.179 97.1397L109.603 90.2754L114.179 83.4111Z" fill="#13252E" />
    <path d="M90.8912 148.025C84.7461 148.025 79.7644 153.007 79.7644 159.152C79.7644 165.297 84.7461 170.278 90.8912 170.278C97.0363 170.278 102.018 165.297 102.018 159.152C102.018 153.007 97.0363 148.025 90.8912 148.025Z" fill="#BCE9FF" stroke="#13252E" stroke-width="6.00995" />
    <path d="M149.076 34.5914C138.847 40.0289 124.923 52.5207 113.457 61.4117C105.628 45.9652 98.3287 35.6295 90.1859 26.921M134.347 82.3351C134.109 84.3494 134.109 86.9569 134.106 88.6524C134.109 90.348 134.108 92.9553 134.347 94.9699M151.891 36.1915C147.428 46.1506 138.687 64.2223 136.092 74.4094L151.891 36.1915Z" stroke="#13252E" stroke-width="6.00998" />
    <path d="M152.105 44.0358C145.96 44.0358 140.978 39.0541 140.978 32.909C140.978 26.7638 145.96 21.7822 152.105 21.7822C158.25 21.7822 163.232 26.7638 163.232 32.909C163.232 39.0541 158.25 44.0358 152.105 44.0358Z" fill="#BCE9FF" stroke="#13252E" stroke-width="6.01001" />
    <path d="M90.891 31.6812C84.7459 31.6812 79.7642 26.6996 79.7642 20.5544C79.7642 14.4092 84.7459 9.42761 90.891 9.42761C97.0362 9.42761 102.018 14.4092 102.018 20.5544C102.018 26.6996 97.0362 31.6812 90.891 31.6812Z" fill="#BCE9FF" stroke="#13252E" stroke-width="6.01001" />
    <path fill-rule="evenodd" clip-rule="evenodd" d="M91.2574 60.7974C76.7125 60.7084 62.4409 64.0804 46.9151 72.0013C38.1493 76.3544 41.978 84.4455 49.0513 83.217C63.9484 75.8357 77.4579 72.644 91.2574 72.7283C105.057 72.6428 118.566 75.8346 133.468 83.2162C140.546 84.4455 144.375 76.3544 135.604 72.0005C120.074 64.0788 105.802 60.7069 91.2574 60.7974V60.7974Z" fill="#BCE9FF" stroke="#13252E" stroke-width="5.20873" />
    <path fill-rule="evenodd" clip-rule="evenodd" d="M135.604 107.783C120.074 115.716 105.802 119.088 91.2572 118.998C76.7124 119.088 62.4408 115.716 46.9148 107.782C38.1488 103.417 41.9776 95.3256 49.0508 96.5668C63.948 103.96 77.4576 107.152 91.2572 107.067C105.056 107.152 118.566 103.96 133.468 96.5672C140.546 95.3256 144.375 103.417 135.604 107.783H135.604Z" fill="#BCE9FF" stroke="#13252E" stroke-width="5.20867" />
  </g>
  <g id="wr" fill="none" transform="scale(0.22099447513812154 0.22099447513812154)">
    <path fill-rule="evenodd" clip-rule="evenodd" d="M56.9228 57.4572L40.4176 42.2328L40.6156 21.3H59.9768L60.3 30.5676L80.3 30.4404V20.7592L100.682 20.8864L100.427 30.5672L120.173 30.6944V21.5236L140.555 21.396L140.352 41.8092L124.812 57.3744L56.9228 57.4572Z" fill="#BCE9FF" stroke="#13252E" stroke-width="0.400667" />
    <path d="M80.3 31.3V21.3H100.3V31.3" stroke="#13252E" stroke-width="6.01" stroke-linecap="round" />
    <path d="M120.3 31.3V21.3H140.3V43.3H40.3V21.3H60.3V31.3" stroke="#13252E" stroke-width="6.01" stroke-linecap="round" />
    <path d="M60.3 31.3H80.9252M99.6752 31.3H120.3H99.6752Z" stroke="#13252E" stroke-width="6.01" />
    <path d="M60.3 61.3H120.3V121.3H60.3V61.3Z" fill="#BCE9FF" stroke="#13252E" stroke-width="6.01" stroke-linecap="round" />
    <path d="M120.968 60.798L141.475 43.7952M39.168 43.7952L59.5548 60.7644L39.168 43.7952Z" stroke="#13252E" stroke-width="6.01" />
    <path d="M56.3748 57.3752H124.225V69.2252H56.3748V57.3752Z" fill="#BCE9FF" stroke="#13252E" stroke-width="6.01" stroke-linejoin="round" />
    <path fill-rule="evenodd" clip-rule="evenodd" d="M56.9228 124.143L40.4176 139.367L40.6156 160.3H59.9772L60.3 151.032L80.3 151.16V160.84L100.682 160.713L100.428 151.032L120.3 150.905V160.076L140.555 160.204L140.352 139.79L124.812 124.225L56.9228 124.143Z" fill="#BCE9FF" stroke="#13252E" stroke-width="0.400667" />
    <path d="M80.3 150.3V160.3H100.3V150.3" stroke="#13252E" stroke-width="6.01" stroke-linecap="round" />
    <path d="M120.3 150.3V160.3H140.3V138.3H40.3V160.3H60.3V150.3" stroke="#13252E" stroke-width="6.01" stroke-linecap="round" />
    <path d="M60.3 150.3H80.9252M99.6752 150.3H120.3H99.6752Z" stroke="#13252E" stroke-width="6.01" />
    <path d="M120.968 120.802L141.475 137.805M39.168 137.838L59.5548 120.836L39.168 137.838Z" stroke="#13252E" stroke-width="6.01" />
    <path d="M56.3748 124.225H124.226V112.375H56.3748V124.225Z" fill="#BCE9FF" stroke="#13252E" stroke-width="6.01" stroke-linejoin="round" />
  </g>
</svg>