<svg xmlns="http://www.w3.org/2000/svg" width="40" height="40" viewbox="0.0 0.0 50.0 50.0">
  <g id="bb" fill="none" transform="scale(0.8 0.8)">
    <path fill-rule="evenodd" clip-rule="evenodd" d="M25.004 5.75C23.321 5.75 21.9568 6.8485 21.957 8.2026C21.957 8.70558 22.1515 9.19601 22.5109 9.6076C19.9702 12.9144 13.7298 19.4078 13.5255 25.9436C13.4387 29.3187 17.4586 34.6673 17.6327 35.2033C17.8067 35.7393 18.9655 36.1372 20.9011 36.38C19.5706 40.9705 10.8031 35.3014 6.75412 39.7508L8.59582 44.25C14.1687 41.1277 18.5629 47.3994 25.0048 40.8284V40.8295C31.4457 47.3987 35.8398 41.128 41.4118 44.2501L43.2541 39.7509C39.2043 35.3016 30.4371 40.9706 29.1061 36.3801C31.0416 36.1373 32.2005 35.7394 32.3745 35.2034C32.5486 34.6674 36.5684 29.3188 36.4817 25.9437C36.2775 19.408 30.0371 12.9147 27.4964 9.6077C27.8559 9.19615 28.0503 8.70572 28.0503 8.2027C28.0505 6.8488 26.6868 5.7505 25.0043 5.7501L25.004 5.75Z" fill="#3D506C" stroke="#1E1E1E" stroke-width="1.5" stroke-linejoin="round" />
    <path opacity="0.5" fill-rule="evenodd" clip-rule="evenodd" d="M25.004 21.106C24.305 21.106 23.9847 21.4476 23.9847 22.1307V24.5839H21.5965C20.9558 24.5839 20.6354 24.8945 20.6354 25.5155C20.6354 26.1365 20.9557 26.4471 21.5965 26.4471H23.9847V28.9002C23.9847 29.5833 24.3341 29.9249 25.004 29.9249C25.6738 29.9249 26.0233 29.5833 26.0233 28.9002V26.4471H28.4989C29.1106 26.4471 29.4308 26.1365 29.4308 25.5155C29.4308 24.8945 29.1106 24.5839 28.4989 24.5839H26.0233V22.1307C26.0233 21.4476 25.6738 21.106 25.004 21.106Z" fill="#0A0020" />
    <path opacity="0.25" fill-rule="evenodd" clip-rule="evenodd" d="M25.004 5.74989C24.1767 5.7501 23.3844 6.02068 22.8103 6.50017C26.7469 6.69384 26.8551 8.76157 25.8824 9.97467C26.9838 12.3686 28.7022 14.1749 30.043 16.4064C30.043 16.4064 41.647 38.2944 16.685 33.6594C16.685 33.6594 17.3142 35.2119 18.7151 35.9394C19.4151 36.303 19.8789 36.3348 20.9003 36.38C22.2235 36.4609 26.2337 36.9172 27.2061 37.0706C29.1434 44.1263 40.5381 37.0819 42.3331 42.0007L43.2542 39.7511C39.5283 35.2987 33.2579 40.8142 29.1972 36.441C30.5763 36.2267 31.5891 35.8375 32.151 35.5427C32.151 35.3999 36.5727 29.4778 36.482 25.9439C36.2776 19.4091 30.0389 12.9169 27.4974 9.60886C27.8567 9.19682 28.0506 8.70544 28.0511 8.20196C28.0511 6.84766 26.6867 5.74996 25.0036 5.74986L25.004 5.74989Z" fill="#0A0020" />
    <path opacity="0.25" fill-rule="evenodd" clip-rule="evenodd" d="M23.797 6.8981C23.0835 7.21782 22.5321 7.84831 22.7955 8.6767C22.8795 8.9973 23.1103 9.18416 23.2612 9.46665C23.3277 9.74504 23.2501 10.0056 23.1181 10.1968C21.5425 12.1435 17.5522 16.6085 15.7043 20.7958C14.9996 22.5315 14.1387 24.5416 14.3082 26.444C14.7826 29.8566 17.6962 33.8358 17.6962 33.8358C17.6962 33.8358 15.643 29.4789 15.4502 26.8146C15.4179 19.7352 21.25 14.3906 23.7511 9.71555C23.3723 8.13825 22.5787 8.25095 23.7971 6.89775L23.797 6.8981Z" fill="#C0F1FC" />
    <path opacity="0.25" fill-rule="evenodd" clip-rule="evenodd" d="M9.01001 43.191C9.01001 43.1325 7.66501 39.9292 7.66501 39.9292C10.5854 37.3691 16.0341 39.6299 18.894 38.9766C14.6079 39.8239 11.2554 38.4668 8.82501 40.0679L9.01001 43.191Z" fill="#C0F1FC" />
  </g>
  <g id="bk" fill="none" transform="scale(0.8 0.8)">
    <path fill-rule="evenodd" clip-rule="evenodd" d="M25.0037 44.2739C31.1253 44.2739 36.0802 43.7348 36.0802 43.0729L37.3712 36.7979C48.2803 29.2756 43.8088 17.8928 34.1482 17.9342C32.1433 17.9438 29.4387 18.4442 28.1198 19.2204L27.277 15.278H31.0251C32.1512 15.4035 32.7285 13.7392 32.7285 12.7122C32.7285 11.6854 32.1585 10.1467 31.0251 10.1467H27.7648V7.17304C27.7648 6.24038 26.0285 5.77393 24.9828 5.77393C23.937 5.77393 22.2008 6.24038 22.2008 7.17304V10.1467H18.9402C17.8048 10.1467 17.237 11.6854 17.237 12.7122C17.237 13.7391 17.8143 15.4035 18.9402 15.278H22.6885L21.8455 19.2204C20.5265 18.4442 17.8223 17.943 15.8173 17.9342C6.1573 17.8928 1.68514 29.2765 12.594 36.7979L13.8851 43.0729C13.8851 43.7348 18.8403 44.2713 24.9616 44.2739H24.9839H25.0037Z" fill="#3D506C" stroke="#141414" stroke-width="1.49998" />
    <path opacity="0.25" fill-rule="evenodd" clip-rule="evenodd" d="M30.5851 9.94118C30.0552 9.93156 29.6532 10.0344 29.6359 10.1191C30.3465 10.8423 33.2519 14.2967 26.0389 13.7654C25.1709 14.2524 26.1827 20.8138 26.8969 22.6605C26.8969 22.6605 28.0706 22.1346 28.8698 21.7208C43.0768 17.6303 41.0974 33.6191 32.6254 36.4339C27.5683 37.199 20.0053 37.5105 15.0204 36.7702L15.4179 39.2108C21.9079 39.7911 21.765 39.6574 29.9606 39.7785C34.0023 42.5118 18.4607 43.5917 13.8887 43.0449C13.9782 43.2981 36.0514 44.223 36.0793 43.0794L37.3701 36.7713C48.2783 29.2492 43.8084 17.8663 34.1488 17.9067C33.306 17.9067 32.3423 18.0061 31.4072 18.1678L28.1241 19.1921L27.2813 15.2498H31.0289C32.0169 15.5324 32.7061 13.7294 32.7321 12.684C32.8774 10.5189 31.3558 10.0835 30.5877 9.94071L30.5851 9.94118Z" fill="#0A0020" />
    <path opacity="0.25" fill-rule="evenodd" clip-rule="evenodd" d="M25.9659 6.67141C25.0595 6.42791 23.4908 6.48454 22.9156 7.2011C22.8732 7.25399 22.8829 7.40735 22.8838 7.48496L22.9106 10.9239H19.5873C19.3025 10.9238 18.8296 10.9084 18.6536 11.0085C18.2974 11.2071 17.9643 11.9131 17.9321 12.7297C17.9061 13.3925 18.414 14.5537 18.7767 14.5855C19.0047 14.6057 19.3308 14.5585 19.9141 14.5759C18.101 13.9041 18.5685 11.2077 19.7215 11.2578L23.2144 11.2308L23.17 8.20835C23.1565 7.27579 23.796 6.79351 24.8416 6.79351C25.2524 6.79351 26.2163 6.8329 26.6933 6.97735C26.1942 6.68759 25.9654 6.67306 25.9654 6.67306L25.9659 6.67141Z" fill="#C0F1FC" />
    <path opacity="0.25" fill-rule="evenodd" clip-rule="evenodd" d="M23.0788 16.8654L22.3385 20.3863C21.0193 19.61 18.3828 18.6877 16.3779 18.6789C7.31777 17.9549 2.50583 28.9257 13.2602 36.3635L14.5578 42.7305L14.6621 42.7448L14.2277 36.2858C4.11349 28.8398 7.62167 19.4579 17.2822 19.4992C19.2871 19.5088 21.3754 20.4401 22.6947 21.2162L23.5689 14.6093L23.0788 16.8654Z" fill="#C0F1FC" />
  </g>
  <g id="bn" fill="none" transform="scale(0.8 0.8)">
    <path fill-rule="evenodd" clip-rule="evenodd" d="M22.803 5.7681L20.3079 6.23617L19.3132 9.66117L17.1441 8.23757L15.7166 8.6623L16.4772 13.613L6.77511 28.593C6.41705 34.5488 8.64641 34.6096 12.918 36.2405C17.8913 29.2211 23.607 31.2238 28.289 25.9175C28.8524 32.5394 12.444 35.117 14.643 44.1925L41.733 44.2502C45.544 27.4722 42.7524 16.4992 27.126 10.4542L22.803 5.7681Z" fill="#3D506C" stroke="#1E1E1E" stroke-width="1.5" stroke-linejoin="round" />
    <path opacity="0.5" fill-rule="evenodd" clip-rule="evenodd" d="M21.619 17.718C21.1685 17.7079 20.784 18.0029 20.5291 18.3269C20.1151 18.8596 19.8996 19.5048 19.7807 20.1477C19.7373 20.4246 19.6869 20.7053 19.7037 20.9853C19.7304 21.0826 19.8485 21.0481 19.9214 21.0289C20.5527 20.9113 21.2106 20.9011 21.8278 20.7129C22.2752 20.5733 22.6293 20.2491 22.8615 19.8722C23.0952 19.5139 23.1954 19.1 23.3332 18.7051C23.3944 18.5666 23.3776 18.3897 23.2375 18.2977C23.005 18.1375 22.7236 18.0565 22.4651 17.9415C22.2111 17.8453 21.9596 17.7129 21.6774 17.7181C21.6577 17.7176 21.6389 17.7174 21.6182 17.7176L21.619 17.718Z" fill="#0A0020" />
    <path opacity="0.25" fill-rule="evenodd" clip-rule="evenodd" d="M22.803 5.7681L21.5558 6.00224L25.3633 11.7041C44.4083 19.8286 44.2313 36.4941 32.2232 44.2281L41.7326 44.2494C45.5436 27.4714 42.756 16.4984 27.1286 10.4534L22.803 5.7681Z" fill="#0A0020" />
    <path opacity="0.25" fill-rule="evenodd" clip-rule="evenodd" d="M16.586 9.2113C16.7317 10.9168 17.4597 13.6419 17.1573 14.0468L7.54675 28.7778C7.22362 32.3871 8.61345 33.6652 8.88945 33.6094C8.80165 33.6195 7.47105 31.4806 8.35847 28.9617L18.0291 14.0787L16.5974 9.2214C16.4569 9.08935 16.7558 9.2933 16.5865 9.2113H16.586Z" fill="#C0F1FC" />
    <path opacity="0.25" fill-rule="evenodd" clip-rule="evenodd" d="M27.442 25.617C27.442 25.617 29.4629 22.9926 29.4313 21.7939C29.3997 20.5952 30.4967 27.3469 28.1285 28.1569C28.0308 27.7441 28.4014 26.448 28.3274 26.1642C28.0079 24.9403 27.4426 25.7471 27.442 25.617L27.442 25.617Z" fill="#0A0020" stroke="#0A0020" stroke-width="0.26458" />
    <path opacity="0.25" fill-rule="evenodd" clip-rule="evenodd" d="M28.727 28.005C25.8925 34.2373 13.993 36.1441 15.402 43.547C14.3296 37.0103 28.578 34.6677 28.727 28.005V28.005Z" fill="#C0F1FC" />
    <path opacity="0.5" fill-rule="evenodd" clip-rule="evenodd" d="M10.763 28.109C10.763 28.109 10.7164 30.4948 9.2017 30.2941C9.2017 30.2941 7.3675 29.2782 10.763 28.109Z" fill="#0A0020" />
  </g>
  <g id="bp" fill="none" transform="scale(0.8 0.8)">
    <path fill-rule="evenodd" clip-rule="evenodd" d="M25 11.961C21.6098 11.961 18.968 14.4658 18.9682 17.779C18.9682 19.4829 19.6842 21.1124 20.944 22.2928C17.0478 23.9851 17.3004 24.6148 17.7083 28.7718H21.4843C19.8241 36.9992 12.4637 35.1095 12.6225 44.2428C12.6225 44.2428 37.3705 44.2428 37.3775 44.2428C37.5362 35.1097 30.1759 36.9995 28.5157 28.7718H32.2917C32.6996 24.6147 32.9517 23.985 29.0555 22.2928C30.3153 21.1124 31.0313 19.483 31.0313 17.779C31.0315 14.4658 28.3902 11.961 25 11.961V11.961Z" fill="#3D506C" stroke="#1E1E1E" stroke-width="1.5" stroke-linejoin="round" />
    <path opacity="0.25" fill-rule="evenodd" clip-rule="evenodd" d="M24.999 11.96C24.4048 11.9601 23.835 12.0412 23.2972 12.1864C31.3393 13.4453 30.0281 21.1342 25.6519 22.2924C27.4876 22.9557 29.3519 23.8979 29.9936 24.7455C30.574 25.5123 30.1362 27.279 30.1362 27.279L17.5812 27.4832L17.7088 28.5027L23.4034 28.5242C25.1143 36.6218 37.5294 35.1524 37.3714 44.2422C37.5295 35.1522 30.2528 36.6001 28.542 28.5022H32.2944C32.6029 23.5216 33.3126 24.8975 29.0559 22.292C30.3159 21.1116 31.0289 19.4825 31.0318 17.7786C31.0318 14.4649 28.3893 11.9587 24.9992 11.9592L24.999 11.96Z" fill="#0A0020" />
    <path opacity="0.25" fill-rule="evenodd" clip-rule="evenodd" d="M23.738 12.775C23.4368 12.669 19.4591 14.0195 19.7521 18.0716C19.872 19.7298 20.9693 21.2475 21.1321 21.2133L21.6249 21.7718C21.6249 21.7718 20.6791 19.7767 20.6791 18.071C20.6791 14.9149 23.7427 12.7715 23.7427 12.7715L23.738 12.775ZM22.1665 29.264C20.1992 37.3279 13.9359 35.7344 13.4162 43.397V43.3813C15.1766 37.0891 20.8113 37.8752 22.5534 29.3183L22.1665 29.264Z" fill="#C0F1FC" />
    <path opacity="0.25" fill-rule="evenodd" clip-rule="evenodd" d="M22.256 22.461C20.8593 23.1331 18.4426 23.8304 18.3136 25.2489L20.0754 24.8448C20.2186 24.5246 20.7162 23.4394 22.2842 22.4534L22.256 22.461Z" fill="#C0F1FC" />
  </g>
  <g id="bq" fill="none" transform="scale(0.8 0.8)">
    <path fill-rule="evenodd" clip-rule="evenodd" d="M19.1298 5.76172C16.7453 5.76172 14.8123 7.64498 14.8123 9.96668C14.8123 11.8732 16.1352 13.5398 18.0287 14.0263V24.7722L12.7352 17.5566C13.2142 16.8636 13.4709 16.0472 13.4709 15.2119C13.4709 12.8896 11.5374 11.0072 9.15219 11.0072C6.76754 11.0072 4.83374 12.8901 4.83374 15.2119C4.89792 17.2728 6.74491 18.8866 9.10784 19.4155L9.97563 23.4951L11.7131 31.6551L14.4438 36.654L15.5492 42.8846C15.5492 43.6554 19.8135 44.2804 25.0747 44.2804C30.336 44.2804 34.6011 43.6555 34.6006 42.8846L35.7063 36.654L38.4367 31.6551L40.1744 23.4951L41.0422 19.4155C43.4048 18.8866 45.2519 17.2728 45.3153 15.2119C45.3153 12.8901 43.3828 11.0078 40.9981 11.0072C38.6127 11.0072 36.679 12.8896 36.6792 15.2119C36.6792 16.0472 36.9355 16.8636 37.4144 17.5566L32.1211 24.7722V14.0263C34.0143 13.5398 35.3345 11.8732 35.337 9.96668C35.337 7.64479 33.4047 5.7622 31.02 5.76172C28.6345 5.76172 26.7002 7.64411 26.7008 9.96668C26.7008 11.3389 27.3936 12.6235 28.5499 13.408L25.0747 23.3882L21.5989 13.408C22.7553 12.6235 23.449 11.3389 23.449 9.96668C23.449 7.6443 21.5154 5.76201 19.1303 5.76172H19.1298Z" fill="#3D506C" stroke="#1E1E1E" stroke-width="1.49996" />
    <path opacity="0.25" fill-rule="evenodd" clip-rule="evenodd" d="M41.3451 10.673C42.2837 11.6222 44.6021 15.7969 39.294 19.0822L34.169 32.0398C27.2953 33.2491 19.661 33.5353 14.1062 31.6355L15.9874 34.6445C22.4968 36.8549 33.5683 35.1142 33.5683 35.1142C32.5079 38.5522 31.022 41.7079 27.9744 44.1901C27.9744 44.1901 32.437 44.3057 34.5031 42.8649L36.0533 36.3198L38.783 31.3216L40.5217 23.1614L41.3887 19.0822C43.7513 18.5533 45.5989 16.9397 45.6624 14.8789C45.6624 12.5571 43.7301 10.6736 41.3453 10.673H41.3451Z" fill="#0A0020" />
    <path opacity="0.25" fill-rule="evenodd" clip-rule="evenodd" d="M19.1298 5.76172C18.8679 5.76172 18.6129 5.78868 18.3638 5.83201C21.3554 7.61763 20.744 11.6101 19.9489 12.9334L25.0749 21.2713L24.3081 19.5366L21.5989 13.4083C22.7553 12.6237 23.449 11.3391 23.449 9.96691C23.449 7.64454 21.5156 5.76224 19.1303 5.76195L19.1298 5.76172Z" fill="#010101" />
    <path opacity="0.25" fill-rule="evenodd" clip-rule="evenodd" d="M30.978 5.76172C30.7161 5.76172 30.4605 5.78868 30.2114 5.83201C34.7157 7.10129 31.9657 12.1548 30.8577 12.5619L32.0796 22.6556L32.0793 21.179V14.0268C33.9724 13.5402 35.293 11.8738 35.2955 9.96715C35.2955 7.64526 33.3627 5.76277 30.978 5.76219V5.76172Z" fill="#010101" />
    <path opacity="0.25" fill-rule="evenodd" clip-rule="evenodd" d="M9.05878 10.9619C8.79664 10.9619 8.54134 10.9879 8.29224 11.0322C11.536 12.2312 11.3139 15.3327 10.641 17.4323L17.9355 24.7266L12.6418 17.5115C13.1209 16.8185 13.3775 16.002 13.3775 15.1669C13.3775 12.8444 11.444 10.9621 9.05878 10.9621V10.9619Z" fill="#010101" />
    <path opacity="0.25" fill-rule="evenodd" clip-rule="evenodd" d="M6.88691 12.4064C6.88691 12.4064 3.61395 15.0128 7.00816 17.7151C6.78887 17.1666 6.10226 13.9525 6.88691 12.4064Z" fill="#C0F1FC" />
    <path opacity="0.25" fill-rule="evenodd" clip-rule="evenodd" d="M17.3527 6.91745C16.9938 6.76184 14.0495 9.11502 16.201 12.0656C16.2997 11.588 15.3651 8.30094 17.3527 6.91745Z" fill="#C0F1FC" />
    <path opacity="0.25" fill-rule="evenodd" clip-rule="evenodd" d="M29.4969 6.82108C29.138 6.66546 25.9927 8.99802 28.1895 12.0219C28.0214 11.4682 27.4712 7.78904 29.4969 6.82108Z" fill="#C0F1FC" />
    <path opacity="0.25" fill-rule="evenodd" clip-rule="evenodd" d="M9.75 18.8582L12.4025 31.4295L15.157 36.4754L16.2444 42.6522L16.9464 42.8776L15.8614 36.4263L13.0568 31.4542L9.75 18.8582Z" fill="#C0F1FC" />
    <path opacity="0.25" fill-rule="evenodd" clip-rule="evenodd" d="M39.4692 12.1175C39.1103 11.9618 35.9954 14.3837 38.1769 17.363C37.9662 16.3795 37.1443 13.0087 39.4692 12.1175Z" fill="#C0F1FC" />
  </g>
  <g id="br" fill="none" transform="scale(0.8 0.8)">
    <path fill-rule="evenodd" clip-rule="evenodd" d="M22.3772 8.73564L21.786 11.1736L18.673 11.3545L18.1315 8.93123L13.6577 9.86856V17.2264C14.4341 19.2004 15.465 19.5314 16.4387 20.0553H18.4242L15.5322 36.1809C11.5687 38.4766 10.6777 39.5177 10.6777 44.1289H39.1908C39.1908 39.5177 38.2998 38.4766 34.3365 36.1809L31.4445 20.0553H33.4299C34.4035 19.5313 35.4344 19.1999 36.2108 17.2259V9.86788L31.7374 8.93123L31.1955 11.3541L28.0828 11.1731L27.4917 8.7345H24.9344L22.3772 8.73564Z" fill="#3D506C" stroke="#1E1E1E" stroke-width="1.49996" />
    <path opacity="0.25" fill-rule="evenodd" clip-rule="evenodd" d="M34.0456 9.39001C37.8786 21.0182 21.1194 18.942 14.4473 18.5444C14.4473 18.5444 14.5254 20.04 16.5107 20.0446H18.5292H18.496L18.4115 20.5147C31.1383 19.5375 28.8204 23.3633 31.0659 35.0576L15.7068 35.5981L15.6045 36.1711L14.6388 36.744C19.6317 37.2998 36.5966 33.8441 35.088 44.1194H39.2624C39.5029 39.3581 37.639 37.8678 34.4079 36.1711L31.6863 19.7828C31.9617 19.6019 32.5677 19.783 33.4521 19.6326C34.628 19.4334 35.8628 18.2466 36.2817 17.0644V10.0023L34.0456 9.39001Z" fill="#0A0020" />
    <path opacity="0.25" fill-rule="evenodd" clip-rule="evenodd" d="M14.3838 10.4184L16.5558 9.97424C15.3463 10.4491 14.9364 13.0187 14.4513 16.3349C14.306 17.3286 14.3834 10.4184 14.3834 10.4184H14.3838Z" fill="#C0F1FC" />
    <path opacity="0.25" fill-rule="evenodd" clip-rule="evenodd" d="M22.9284 9.48348L22.3555 11.8835L24.3027 9.47595L22.9284 9.48348Z" fill="#C0F1FC" />
    <path opacity="0.25" fill-rule="evenodd" clip-rule="evenodd" d="M32.2998 9.76404L31.8003 12.0669L33.2112 9.95826L32.2998 9.76404Z" fill="#C0F1FC" />
    <path opacity="0.25" fill-rule="evenodd" clip-rule="evenodd" d="M19.0697 20.6078L16.3318 35.635L19.8189 20.6995L19.0697 20.6078Z" fill="#C0F1FC" />
    <path opacity="0.25" fill-rule="evenodd" clip-rule="evenodd" d="M11.4438 43.2304C11.4309 43.1874 11.4127 42.2191 11.5963 41.316C11.8046 40.2936 12.2917 39.3095 13.0842 38.6764C14.5462 37.5081 15.7717 36.8473 15.9102 36.843C13.8062 38.4718 11.8585 40.4637 11.4438 43.2304Z" fill="#C0F1FC" />
  </g>
  <g id="wb" fill="none" transform="scale(0.8 0.8)">
    <path fill-rule="evenodd" clip-rule="evenodd" d="M25 5.75C23.317 5.75 21.9528 6.8485 21.953 8.2026C21.953 8.70558 22.1475 9.19601 22.5069 9.6076C19.9662 12.9144 13.7258 19.4078 13.5216 25.9436C13.4348 29.3187 17.4547 34.6673 17.6288 35.2033C17.8028 35.7393 18.9616 36.1372 20.8972 36.38C19.5667 40.9705 10.8002 35.3014 6.75021 39.7508L8.59191 44.25C14.1648 41.1277 18.559 47.3994 24.9999 40.8284V40.8295C31.4407 47.3987 35.8349 41.128 41.4069 44.2501L43.2492 39.7509C39.1994 35.3016 30.4322 40.9706 29.1012 36.3801C31.0367 36.1373 32.1956 35.7394 32.3696 35.2034C32.5437 34.6674 36.5635 29.3188 36.4767 25.9437C36.2725 19.408 30.0321 12.9147 27.4914 9.6077C27.8509 9.19615 28.0453 8.70572 28.0453 8.2027C28.0455 6.8488 26.6818 5.7505 24.9994 5.7501L25 5.75Z" fill="#FFCAAC" stroke="#2A2A2A" stroke-width="1.5" stroke-linejoin="round" />
    <path opacity="0.5" fill-rule="evenodd" clip-rule="evenodd" d="M25 21.106C24.301 21.106 23.9807 21.4476 23.9807 22.1307V24.5839H21.5925C20.9517 24.5839 20.6314 24.8945 20.6314 25.5155C20.6314 26.1365 20.9517 26.4471 21.5925 26.4471H23.9807V28.9002C23.9807 29.5833 24.3301 29.9249 25 29.9249C25.6698 29.9249 26.0193 29.5833 26.0193 28.9002V26.4471H28.4949C29.1066 26.4471 29.4268 26.1365 29.4268 25.5155C29.4268 24.8945 29.1066 24.5839 28.4949 24.5839H26.0193V22.1307C26.0193 21.4476 25.6698 21.106 25 21.106Z" fill="#8E1100" />
    <path opacity="0.2" fill-rule="evenodd" clip-rule="evenodd" d="M25 5.74989C24.1727 5.7501 23.3804 6.02068 22.8063 6.50017C26.7428 6.69384 26.8511 8.76157 25.8784 9.97467C26.9798 12.3686 28.6981 14.1749 30.039 16.4064C30.039 16.4064 41.643 38.2944 16.681 33.6594C16.681 33.6594 17.3102 35.2119 18.7111 35.9394C19.4111 36.303 19.8749 36.3348 20.8963 36.38C22.2195 36.4609 26.2296 36.9172 27.2021 37.0706C29.1394 44.1263 40.5341 37.0819 42.3291 42.0007L43.2502 39.7511C39.5244 35.2987 33.254 40.8142 29.1932 36.441C30.5723 36.2267 31.5851 35.8375 32.147 35.5427C32.147 35.3999 36.5687 29.4778 36.478 25.9439C36.2736 19.4091 30.0349 12.9169 27.4935 9.60886C27.8528 9.19682 28.0467 8.70544 28.0472 8.20196C28.0472 6.84766 26.6828 5.74996 24.9997 5.74986L25 5.74989Z" fill="#8E1100" />
    <path fill-rule="evenodd" clip-rule="evenodd" d="M23.793 6.8981C23.0795 7.21782 22.5281 7.84831 22.7915 8.6767C22.8755 8.9973 23.1063 9.18416 23.2572 9.46665C23.3237 9.74504 23.2461 10.0056 23.1141 10.1968C21.5385 12.1435 17.5483 16.6085 15.7003 20.7958C14.9956 22.5315 14.1347 24.5416 14.3042 26.444C14.7786 29.8566 17.6922 33.8358 17.6922 33.8358C17.6922 33.8358 15.639 29.4789 15.4462 26.8146C15.4139 19.7352 21.246 14.3906 23.747 9.71555C23.3682 8.13825 22.5746 8.25095 23.793 6.89775V6.8981Z" fill="#FFFACE" />
    <path fill-rule="evenodd" clip-rule="evenodd" d="M9.00649 43.191C9.00649 43.1325 7.66159 39.9292 7.66159 39.9292C10.582 37.3691 16.0306 39.6299 18.8906 38.9766C14.6045 39.8239 11.252 38.4668 8.82159 40.0679L9.00649 43.191Z" fill="#FFFACE" />
  </g>
  <g id="wk" fill="none" transform="scale(0.8 0.8)">
    <path fill-rule="evenodd" clip-rule="evenodd" d="M25.0037 44.2739C31.1253 44.2739 36.0802 43.7348 36.0802 43.0729L37.3712 36.7979C48.2803 29.2756 43.8088 17.8928 34.1482 17.9342C32.1433 17.9438 29.4387 18.4442 28.1198 19.2204L27.277 15.278H31.0251C32.1512 15.4035 32.7285 13.7392 32.7285 12.7122C32.7285 11.6854 32.1585 10.1467 31.0251 10.1467H27.7648V7.17304C27.7648 6.24038 26.0285 5.77393 24.9828 5.77393C23.937 5.77393 22.2008 6.24038 22.2008 7.17304V10.1467H18.9402C17.8048 10.1467 17.237 11.6854 17.237 12.7122C17.237 13.7391 17.8143 15.4035 18.9402 15.278H22.6885L21.8455 19.2204C20.5265 18.4442 17.8223 17.943 15.8173 17.9342C6.1573 17.8928 1.68514 29.2765 12.594 36.7979L13.8851 43.0729C13.8851 43.7348 18.8403 44.2713 24.9616 44.2739H24.9839H25.0037Z" fill="#FFCAAC" stroke="#2A2A2A" stroke-width="1.49998" />
    <path opacity="0.2" fill-rule="evenodd" clip-rule="evenodd" d="M30.5851 9.94118C30.0552 9.93156 29.6532 10.0344 29.6359 10.1191C30.3465 10.8423 33.2519 14.2967 26.0389 13.7654C25.1709 14.2524 26.1827 20.8138 26.8969 22.6605C26.8969 22.6605 28.0706 22.1346 28.8698 21.7208C43.0768 17.6303 41.0974 33.6191 32.6254 36.4339C27.5683 37.199 20.0053 37.5105 15.0204 36.7702L15.4179 39.2108C21.9079 39.7911 21.765 39.6574 29.9606 39.7785C34.0023 42.5118 18.4607 43.5917 13.8887 43.0449C13.9782 43.2981 36.0514 44.223 36.0793 43.0794L37.3701 36.7713C48.2783 29.2492 43.8084 17.8663 34.1488 17.9067C33.306 17.9067 32.3423 18.0061 31.4072 18.1678L28.1241 19.1921L27.2813 15.2498H31.0289C32.0169 15.5324 32.7061 13.7294 32.7321 12.684C32.8774 10.5189 31.3558 10.0835 30.5877 9.94071L30.5851 9.94118Z" fill="#8E1100" />
    <path fill-rule="evenodd" clip-rule="evenodd" d="M25.9659 6.67141C25.0595 6.42791 23.4908 6.48454 22.9156 7.2011C22.8732 7.25399 22.8829 7.40735 22.8838 7.48496L22.9106 10.9239H19.5873C19.3025 10.9238 18.8296 10.9084 18.6536 11.0085C18.2974 11.2071 17.9643 11.9131 17.9321 12.7297C17.9061 13.3925 18.414 14.5537 18.7767 14.5855C19.0047 14.6057 19.3308 14.5585 19.9141 14.5759C18.101 13.9041 18.5685 11.2077 19.7215 11.2578L23.2144 11.2308L23.17 8.20835C23.1565 7.27579 23.796 6.79351 24.8416 6.79351C25.2524 6.79351 26.2163 6.8329 26.6933 6.97735C26.1942 6.68759 25.9654 6.67306 25.9654 6.67306L25.9659 6.67141Z" fill="#FFFACE" />
    <path fill-rule="evenodd" clip-rule="evenodd" d="M23.0788 16.8654L22.3385 20.3863C21.0193 19.61 18.3828 18.6877 16.3779 18.6789C7.31777 17.9549 2.50583 28.9257 13.2602 36.3635L14.5578 42.7305L14.6621 42.7448L14.2277 36.2858C4.11349 28.8398 7.62167 19.4579 17.2822 19.4992C19.2871 19.5088 21.3754 20.4401 22.6947 21.2162L23.5689 14.6093L23.0788 16.8654Z" fill="#FFFACE" />
  </g>
  <g id="wn" fill="none" transform="scale(0.8 0.8)">
    <path fill-rule="evenodd" clip-rule="evenodd" d="M22.803 5.7681L20.3079 6.23617L19.3132 9.66117L17.1441 8.23757L15.7166 8.6623L16.4772 13.613L6.77511 28.593C6.41705 34.5488 8.64641 34.6096 12.918 36.2405C17.8913 29.2211 23.607 31.2238 28.289 25.9175C28.8524 32.5394 12.444 35.117 14.643 44.1925L41.733 44.2502C45.544 27.4722 42.7524 16.4992 27.126 10.4542L22.803 5.7681Z" fill="#FFCAAC" stroke="#2A2A2A" stroke-width="1.5" stroke-linejoin="round" />
    <path opacity="0.5" fill-rule="evenodd" clip-rule="evenodd" d="M21.619 17.718C21.1685 17.7079 20.784 18.0029 20.5291 18.3269C20.1151 18.8596 19.8996 19.5048 19.7807 20.1477C19.7373 20.4246 19.6869 20.7053 19.7037 20.9853C19.7304 21.0826 19.8485 21.0481 19.9214 21.0289C20.5527 20.9113 21.2106 20.9011 21.8278 20.7129C22.2752 20.5733 22.6293 20.2491 22.8615 19.8722C23.0952 19.5139 23.1954 19.1 23.3332 18.7051C23.3944 18.5666 23.3776 18.3897 23.2375 18.2977C23.005 18.1375 22.7236 18.0565 22.4651 17.9415C22.2111 17.8453 21.9596 17.7129 21.6774 17.7181C21.6577 17.7176 21.6389 17.7174 21.6182 17.7176L21.619 17.718Z" fill="#8E1100" />
    <path opacity="0.2" fill-rule="evenodd" clip-rule="evenodd" d="M22.803 5.7681L21.5558 6.00224L25.3633 11.7041C44.4083 19.8286 44.2313 36.4941 32.2232 44.2281L41.7326 44.2494C45.5436 27.4714 42.756 16.4984 27.1286 10.4534L22.803 5.7681Z" fill="#8E1100" />
    <path fill-rule="evenodd" clip-rule="evenodd" d="M16.586 9.2113C16.7317 10.9168 17.4597 13.6419 17.1573 14.0468L7.54675 28.7778C7.22362 32.3871 8.61345 33.6652 8.88945 33.6094C8.80165 33.6195 7.47105 31.4806 8.35847 28.9617L18.0291 14.0787L16.5974 9.2214C16.4569 9.08935 16.7558 9.2933 16.5865 9.2113H16.586Z" fill="#FFFACE" />
    <path opacity="0.2" fill-rule="evenodd" clip-rule="evenodd" d="M27.442 25.617C27.442 25.617 29.4629 22.9926 29.4313 21.7939C29.3997 20.5952 30.4967 27.3469 28.1285 28.1569C28.0308 27.7441 28.4014 26.448 28.3274 26.1642C28.0079 24.9403 27.4426 25.7471 27.442 25.617L27.442 25.617Z" fill="#8E1100" stroke="#8E1100" stroke-width="0.26458" />
    <path fill-rule="evenodd" clip-rule="evenodd" d="M28.727 28.005C25.8925 34.2373 13.993 36.1441 15.402 43.547C14.3296 37.0103 28.578 34.6677 28.727 28.005V28.005Z" fill="#FFFACE" />
    <path opacity="0.5" fill-rule="evenodd" clip-rule="evenodd" d="M10.763 28.109C10.763 28.109 10.7164 30.4948 9.2017 30.2941C9.2017 30.2941 7.3675 29.2782 10.763 28.109Z" fill="#8E1100" />
  </g>
  <g id="wp" fill="none" transform="scale(0.8 0.8)">
    <path fill-rule="evenodd" clip-rule="evenodd" d="M25 11.961C21.6098 11.961 18.968 14.4658 18.9682 17.779C18.9682 19.4829 19.6842 21.1124 20.944 22.2928C17.0478 23.9851 17.3004 24.6148 17.7083 28.7718H21.4843C19.8241 36.9992 12.4637 35.1095 12.6225 44.2428C12.6225 44.2428 37.3705 44.2429 37.3775 44.2428C37.5362 35.1097 30.1759 36.9995 28.5157 28.7718H32.2917C32.6996 24.6147 32.9517 23.985 29.0555 22.2928C30.3153 21.1124 31.0313 19.483 31.0313 17.779C31.0315 14.4658 28.3902 11.961 25 11.961V11.961Z" fill="#FFCAAC" stroke="#2A2A2A" stroke-width="1.5" stroke-linejoin="round" />
    <path opacity="0.2" fill-rule="evenodd" clip-rule="evenodd" d="M24.999 11.96C24.4048 11.9601 23.835 12.0412 23.2972 12.1864C31.3393 13.4453 30.0281 21.1342 25.6519 22.2924C27.4876 22.9557 29.3519 23.8979 29.9936 24.7455C30.574 25.5123 30.1362 27.279 30.1362 27.279L17.5812 27.4832L17.7088 28.5027L23.4034 28.5242C25.1143 36.6218 37.5294 35.1524 37.3714 44.2422C37.5295 35.1522 30.2528 36.6001 28.542 28.5022H32.2944C32.6029 23.5216 33.3126 24.8975 29.0559 22.292C30.3159 21.1116 31.0289 19.4825 31.0318 17.7786C31.0318 14.4649 28.3893 11.9587 24.9992 11.9592L24.999 11.96Z" fill="#8E1100" />
    <path fill-rule="evenodd" clip-rule="evenodd" d="M23.738 12.775C23.4368 12.669 19.4591 14.0195 19.7521 18.0716C19.872 19.7298 20.9693 21.2475 21.1321 21.2133L21.6249 21.7718C21.6249 21.7718 20.6791 19.7767 20.6791 18.071C20.6791 14.9149 23.7427 12.7715 23.7427 12.7715L23.738 12.775ZM22.1665 29.264C20.1992 37.3279 13.9359 35.7344 13.4162 43.397V43.3813C15.1766 37.0891 20.8113 37.8752 22.5534 29.3183L22.1665 29.264Z" fill="#FFFACE" />
    <path fill-rule="evenodd" clip-rule="evenodd" d="M22.256 22.461C20.8593 23.1331 18.4426 23.8304 18.3136 25.2489L20.0754 24.8448C20.2186 24.5246 20.7162 23.4394 22.2842 22.4534L22.256 22.461Z" fill="#FFFACE" />
  </g>
  <g id="wq" fill="none" transform="scale(0.8 0.8)">
    <path fill-rule="evenodd" clip-rule="evenodd" d="M19.095 5.76172C16.7105 5.76172 14.7776 7.64498 14.7776 9.96668C14.7776 11.8732 16.1004 13.5398 17.9939 14.0263V24.7722L12.7004 17.5566C13.1794 16.8636 13.4361 16.0472 13.4361 15.2119C13.4361 12.8896 11.5027 11.0072 9.11748 11.0072C6.73286 11.0072 4.79907 12.8901 4.79907 15.2119C4.86325 17.2728 6.71022 18.8866 9.07313 19.4155L9.94091 23.4951L11.6784 31.6551L14.409 36.654L15.5145 42.8846C15.5145 43.6554 19.7786 44.2804 25.0398 44.2804C30.3011 44.2804 34.5661 43.6555 34.5656 42.8846L35.6713 36.654L38.4017 31.6551L40.1394 23.4951L41.0072 19.4155C43.3698 18.8866 45.2169 17.2728 45.2803 15.2119C45.2803 12.8901 43.3478 11.0078 40.9631 11.0072C38.5777 11.0072 36.644 12.8896 36.6442 15.2119C36.6442 16.0472 36.9005 16.8636 37.3794 17.5566L32.0862 24.7722V14.0263C33.9794 13.5398 35.2995 11.8732 35.302 9.96668C35.302 7.64479 33.3698 5.7622 30.985 5.76172C28.5996 5.76172 26.6653 7.64411 26.6659 9.96668C26.6659 11.3389 27.3587 12.6235 28.515 13.408L25.0398 23.3882L21.5641 13.408C22.7205 12.6235 23.4141 11.3389 23.4141 9.96668C23.4141 7.6443 21.4806 5.76201 19.0955 5.76172H19.095Z" fill="#FFCAAC" stroke="#2A2A2A" stroke-width="1.49996" />
    <path opacity="0.2" fill-rule="evenodd" clip-rule="evenodd" d="M41.3102 10.673C42.2487 11.6222 44.5671 15.7969 39.2591 19.0822L34.1341 32.0398C27.2605 33.2491 19.6263 33.5353 14.0715 31.6355L15.9527 34.6445C22.462 36.8549 33.5334 35.1142 33.5334 35.1142C32.473 38.5522 30.9871 41.7079 27.9396 44.1901C27.9396 44.1901 32.4022 44.3057 34.4682 42.8649L36.0184 36.3198L38.748 31.3216L40.4867 23.1614L41.3538 19.0822C43.7163 18.5533 45.5639 16.9397 45.6274 14.8789C45.6274 12.5571 43.6951 10.6736 41.3104 10.673H41.3102Z" fill="#8E1100" />
    <path opacity="0.25" fill-rule="evenodd" clip-rule="evenodd" d="M19.0949 5.76172C18.833 5.76172 18.578 5.78868 18.3289 5.83201C21.3205 7.61763 20.7091 11.6101 19.914 12.9334L25.0399 21.2713L24.2731 19.5366L21.564 13.4083C22.7204 12.6237 23.414 11.3391 23.414 9.96691C23.414 7.64454 21.4806 5.76224 19.0954 5.76195L19.0949 5.76172Z" fill="#010101" />
    <path opacity="0.25" fill-rule="evenodd" clip-rule="evenodd" d="M30.9431 5.76172C30.6812 5.76172 30.4256 5.78868 30.1765 5.83201C34.6808 7.10129 31.9308 12.1548 30.8228 12.5619L32.0446 22.6556L32.0444 21.179V14.0268C33.9374 13.5402 35.258 11.8738 35.2605 9.96715C35.2605 7.64526 33.3278 5.76277 30.9431 5.76219V5.76172Z" fill="#010101" />
    <path opacity="0.25" fill-rule="evenodd" clip-rule="evenodd" d="M9.02411 10.9619C8.76197 10.9619 8.50667 10.9879 8.25757 11.0322C11.5013 12.2312 11.2792 15.3327 10.6064 17.4323L17.9008 24.7266L12.6071 17.5115C13.0862 16.8185 13.3428 16.002 13.3428 15.1669C13.3428 12.8444 11.4093 10.9621 9.02411 10.9621V10.9619Z" fill="#010101" />
    <path fill-rule="evenodd" clip-rule="evenodd" d="M6.85223 12.4064C6.85223 12.4064 3.5793 15.0128 6.97347 17.7151C6.75419 17.1666 6.06759 13.9525 6.85223 12.4064Z" fill="#FFFACE" />
    <path fill-rule="evenodd" clip-rule="evenodd" d="M17.318 6.91745C16.9591 6.76184 14.0149 9.11502 16.1663 12.0656C16.265 11.588 15.3304 8.30094 17.318 6.91745Z" fill="#FFFACE" />
    <path fill-rule="evenodd" clip-rule="evenodd" d="M29.462 6.82108C29.1031 6.66546 25.9578 8.99802 28.1545 12.0219C27.9865 11.4682 27.4363 7.78904 29.462 6.82108Z" fill="#FFFACE" />
    <path fill-rule="evenodd" clip-rule="evenodd" d="M9.71533 18.8582L12.3678 31.4295L15.1223 36.4754L16.2097 42.6522L16.9116 42.8776L15.8267 36.4263L13.0221 31.4542L9.71533 18.8582Z" fill="#FFFACE" />
    <path fill-rule="evenodd" clip-rule="evenodd" d="M39.4342 12.1175C39.0753 11.9618 35.9605 14.3837 38.142 17.363C37.9313 16.3795 37.1094 13.0087 39.4342 12.1175Z" fill="#FFFACE" />
  </g>
  <g id="wr" fill="none" transform="scale(0.8 0.8)">
    <path fill-rule="evenodd" clip-rule="evenodd" d="M22.3772 8.73564L21.786 11.1736L18.673 11.3545L18.1315 8.93123L13.6577 9.86856V17.2264C14.4341 19.2004 15.465 19.5314 16.4387 20.0553H18.4242L15.5322 36.1809C11.5687 38.4766 10.6777 39.5177 10.6777 44.1289H39.1908C39.1908 39.5177 38.2998 38.4766 34.3365 36.1809L31.4445 20.0553H33.4299C34.4035 19.5313 35.4344 19.1999 36.2108 17.2259V9.86788L31.7374 8.93123L31.1955 11.3541L28.0828 11.1731L27.4917 8.7345H24.9344L22.3772 8.73564Z" fill="#FFCAAC" stroke="#2A2A2A" stroke-width="1.49996" />
    <path opacity="0.2" fill-rule="evenodd" clip-rule="evenodd" d="M34.0456 9.39001C37.8786 21.0182 21.1194 18.942 14.4473 18.5444C14.4473 18.5444 14.5254 20.04 16.5107 20.0446H18.5292H18.496L18.4115 20.5147C31.1383 19.5375 28.8204 23.3633 31.0659 35.0576L15.7068 35.5981L15.6045 36.1711L14.6388 36.744C19.6317 37.2998 36.5966 33.8441 35.088 44.1194H39.2624C39.5029 39.3581 37.639 37.8678 34.4079 36.1711L31.6863 19.7828C31.9617 19.6019 32.5677 19.783 33.4521 19.6326C34.628 19.4334 35.8628 18.2466 36.2817 17.0644V10.0023L34.0456 9.39001Z" fill="#8E1100" />
    <path fill-rule="evenodd" clip-rule="evenodd" d="M14.3838 10.4184L16.5558 9.97424C15.3463 10.4491 14.9364 13.0187 14.4513 16.3349C14.306 17.3286 14.3834 10.4184 14.3834 10.4184H14.3838Z" fill="#FFFACE" />
    <path fill-rule="evenodd" clip-rule="evenodd" d="M22.9284 9.48348L22.3555 11.8835L24.3027 9.47595L22.9284 9.48348Z" fill="#FFFACE" />
    <path fill-rule="evenodd" clip-rule="evenodd" d="M32.2998 9.76404L31.8003 12.0669L33.2112 9.95826L32.2998 9.76404Z" fill="#FFFACE" />
    <path fill-rule="evenodd" clip-rule="evenodd" d="M19.0697 20.6078L16.3318 35.635L19.8189 20.6995L19.0697 20.6078Z" fill="#FFFACE" />
    <path fill-rule="evenodd" clip-rule="evenodd" d="M11.4438 43.2304C11.4309 43.1874 11.4127 42.2191 11.5963 41.316C11.8046 40.2936 12.2917 39.3095 13.0842 38.6764C14.5462 37.5081 15.7717 36.8473 15.9102 36.843C13.8062 38.4718 11.8585 40.4637 11.4438 43.2304Z" fill="#FFFACE" />
  </g>
</svg>