<svg xmlns="http://www.w3.org/2000/svg" width="40" height="40" viewbox="0.0 0.0 180.0 180.0">
  <g id="bb" fill="none" transform="scale(0.2222222222222222 0.2222222222222222)">
    <path d="M89.7317 32.5096L89.6474 32.5H89.5625C87.589 32.5 85.83 32.9413 84.4038 33.9487C82.9672 34.9634 82.0131 36.4502 81.4761 38.2714L81.4149 38.4791V38.6956V39.8696C81.4149 41.3893 81.9787 42.712 82.9669 43.8286C81.2882 45.5178 79.9826 46.856 79.0539 47.84C78.4947 48.4325 78.0579 48.9117 77.7551 49.2681C77.6065 49.4431 77.4695 49.6125 77.3625 49.7638C77.3106 49.8371 77.2439 49.9365 77.184 50.0493C77.1832 50.051 77.1821 50.053 77.1808 50.0554C77.1485 50.1151 76.9829 50.4215 76.9829 50.8261C76.9829 51.1499 77.0882 51.3884 77.1204 51.4596C77.1665 51.5615 77.215 51.6398 77.2438 51.6841C77.3027 51.7745 77.3632 51.8493 77.4014 51.895C77.4831 51.9926 77.5804 52.096 77.673 52.1912C77.7572 52.2776 77.8546 52.3747 77.9624 52.48L77.0711 52.113L76.2327 51.7678L75.5374 52.3496C69.5305 57.3763 67.3541 60.2678 67.0176 63.9954L67.0115 64.0627V64.1303V66.0867C67.0115 69.4113 68.6042 72.7937 71.4605 76.2088C70.7883 77.0351 70.3353 77.9669 70.3353 79V79.7824C70.3353 80.931 70.6271 82.067 71.4729 82.9035C71.9416 83.3671 72.502 83.661 73.1051 83.8305V87.2176V87.3678L73.1348 87.515L73.3413 88.5353C71.6048 88.6961 70.1065 89.1124 68.9386 89.8739C67.2692 90.9624 66.4574 92.6355 66.4574 94.6521C66.4574 96.9688 68.251 98.6574 70.579 99.8909L70.8593 100.039L71.1757 100.062C73.0056 100.191 74.3065 100.348 75.125 100.522C75.1875 100.535 75.2451 100.548 75.2982 100.56C74.9711 106.596 71.0851 114.728 63.1724 125.066C61.4571 125.644 60.0394 126.316 59.0043 127.12C57.8629 128.007 57.0398 129.182 57.0398 130.652V131.044C57.0398 132.012 57.3075 132.933 57.9278 133.699C58.0846 133.893 58.2572 134.069 58.443 134.227C56.3862 136.774 54.7735 139.093 53.6249 141.179C52.2801 143.622 51.5 145.873 51.5 147.87V150.608C51.5 153.65 52.9059 157.103 55.429 160.906C53.5571 162.722 52.608 165.06 52.608 167.826V168.474L53.0797 168.918C53.5168 169.33 53.9213 169.677 54.2812 169.932C54.4607 170.058 54.6603 170.184 54.871 170.284C55.0595 170.372 55.3802 170.5 55.7699 170.5H122.801C123.302 170.5 123.945 170.42 124.497 170.03C125.145 169.572 125.409 168.88 125.409 168.218V166.261C125.409 164.175 124.607 162.449 123.112 161.147C124.464 158.766 125.519 156.664 126.266 154.847C127.121 152.768 127.625 150.936 127.625 149.435C127.625 147.634 126.911 145.321 125.693 142.609C124.604 140.183 123.051 137.307 121.047 133.989C121.306 133.792 121.542 133.566 121.751 133.308C122.371 132.541 122.639 131.621 122.639 130.652V130.478L122.599 130.308C122.267 128.898 121.617 127.685 120.549 126.836C119.691 126.154 118.666 125.79 117.548 125.673C112.236 117.473 108.169 109.068 105.34 100.456H107.29C108.983 100.456 110.512 100.082 111.756 99.2033C113.013 98.3157 113.83 97.0184 114.273 95.4523L114.33 95.2519V95.0436V94.2606C114.33 91.4714 111.963 89.6922 108.925 88.552L108.67 88.4564H108.398H106.574V84.0665C107.445 83.4085 108.168 82.7615 108.71 82.1235C109.357 81.3617 109.898 80.4352 109.898 79.3915V79.1958L109.848 79.0066C109.552 77.8926 109.172 76.9113 108.653 76.1769C108.621 76.1316 108.587 76.0866 108.553 76.042C111.268 73.113 112.668 69.6491 112.668 65.6957V64.1303C112.668 63.0386 112.164 61.8153 111.471 60.5827C110.748 59.2971 109.691 57.7857 108.329 56.0597C105.778 52.8291 102.062 48.7316 97.2026 43.7775C97.5233 43.4094 97.8024 43.0416 98.0338 42.6739C98.4938 41.9429 98.8182 41.1273 98.8182 40.2608V38.6956C98.8182 36.7928 97.7985 35.3253 96.1562 34.331C94.5902 33.3829 92.3984 32.8123 89.7317 32.5096ZM75.816 100.72C75.8159 100.72 75.8136 100.719 75.8094 100.717C75.8139 100.719 75.816 100.72 75.816 100.72Z" fill="#85586F" stroke="black" stroke-width="3" />
    <path d="M55.7699 169C55.4929 169 54.9389 168.609 54.108 167.826C54.108 165.022 55.2159 162.805 57.4318 161.174C54.4773 157 53 153.478 53 150.608V147.87C53 144.609 55.5853 139.913 60.7558 133.782C59.2786 133.326 58.5398 132.413 58.5398 131.044V130.652C58.5398 128.957 60.3862 127.522 64.0796 126.348C72.5739 115.326 76.8208 106.457 76.8208 99.7394C76.8208 99.2174 74.9746 98.8259 71.2812 98.5654C69.0656 97.3915 67.9574 96.0871 67.9574 94.6521C67.9574 91.5218 70.3582 89.9564 75.1591 89.9564L74.6051 87.2176V82.5218C72.7584 82.5218 71.8353 81.6089 71.8353 79.7824V79C71.8353 78.1523 72.3894 77.2394 73.4969 76.2606C70.1731 72.6089 68.5115 69.2176 68.5115 66.0867V64.1303C68.7882 61.0652 70.4987 58.522 76.5 53.5L85 57C84.6304 56.4783 78.4829 51.0869 78.4829 50.8261C78.4829 50.5652 80.6986 48.2174 85.1306 43.7826C83.6534 42.6739 82.9149 41.3696 82.9149 39.8696V38.6956C83.8379 35.5652 86.0542 34 89.5625 34V169H55.7699Z" fill="#AC7D88" />
  </g>
  <g id="bk" fill="none" transform="scale(0.2222222222222222 0.2222222222222222)">
    <path d="M90.9144 15.5H90.871L90.8277 15.5025C88.1098 15.66 85.9839 15.8998 84.5076 16.2419C83.7822 16.41 83.1063 16.6261 82.5772 16.9325C82.0958 17.2115 81.3234 17.8184 81.3234 18.875V19.625V20.4091L81.9672 20.8566C82.2636 21.0627 82.5408 21.2624 82.7995 21.4557C82.2314 21.1103 81.6262 20.7156 80.9831 20.2684L80.597 20H80.1268H79.0479H78.6378L78.2847 20.2087C76.0738 21.5154 74.8507 23.4835 74.8507 26V28.625V28.7707L74.8788 28.9138C75.1632 30.3636 75.5697 31.6151 76.1744 32.5397C76.8062 33.5059 77.7608 34.25 79.0479 34.25H80.1268H80.5852L80.9653 33.9937C81.7191 33.4856 82.4119 33.0575 83.046 32.702C82.9396 32.8268 82.8388 32.9472 82.7435 33.0631C82.3655 33.5229 82.0492 33.9438 81.8194 34.3132C81.7046 34.4977 81.5935 34.6978 81.5071 34.9044C81.4893 34.9469 81.4701 34.9955 81.4509 35.0495C79.3694 35.1638 77.6269 35.482 76.2927 36.0618C75.4137 36.4437 74.6393 36.9702 74.0822 37.6964C73.7521 38.1267 73.5204 38.5988 73.3834 39.1006C73.1936 39.1261 72.9659 39.1525 72.6969 39.1792C71.486 39.2995 69.6358 39.4076 67.1256 39.5011L66.9617 39.5072L66.803 39.5485C63.4508 40.4225 60.7692 41.6431 58.9036 43.3005C56.9888 45.0016 55.9727 47.1344 55.9727 49.625C55.9727 50.7327 56.476 51.9658 57.1775 53.2096C57.907 54.5028 58.9726 56.0143 60.3462 57.7333C63.0136 61.0714 66.9438 65.3169 72.1131 70.4588C71.8134 75.107 71.6467 78.377 71.6189 80.2344C69.236 80.6904 67.274 81.3603 65.8232 82.306C64.0555 83.4582 62.9848 85.0765 62.9848 87.1252V87.424L63.0993 87.7001C63.8457 89.4989 64.8638 90.9641 66.2115 91.9792C67.5761 93.007 69.1818 93.4998 70.9569 93.4998H74.8242C74.4371 104.508 69.805 116.752 60.7298 130.26C59.2433 131.155 58.0916 131.883 57.2907 132.44C56.87 132.733 56.5094 133.003 56.2406 133.242C56.1097 133.358 55.9591 133.503 55.8292 133.668L55.8257 133.673C55.7483 133.771 55.4333 134.172 55.4333 134.75V135.875C55.4333 136.839 55.8401 137.707 56.4467 138.476C54.3857 140.578 52.7629 142.575 51.6074 144.469C50.264 146.67 49.5 148.817 49.5 150.875V153.125C49.5 155.822 50.6644 158.639 52.7427 161.543C50.9965 163.278 50.0394 165.355 50.0394 167.75V168.233L50.3217 168.626C50.9447 169.492 51.8746 170.375 53.1575 170.375H127.592C128.079 170.375 128.711 170.299 129.257 169.919C129.903 169.471 130.171 168.786 130.171 168.125V166.625C130.171 165.297 129.829 164.073 129.08 163.03C128.706 162.51 128.25 162.063 127.726 161.68C130.013 158.648 131.25 155.541 131.25 152.375C131.25 148.304 129.023 143.777 124.997 138.852C125.37 138.476 125.742 138.017 126.113 137.501L126.396 137.109V136.625V135.875V135.669L126.34 135.471C125.977 134.172 125.389 133.039 124.479 132.225C123.736 131.561 122.855 131.18 121.891 131.05C111.246 117.358 106.014 104.852 105.901 93.4998H109.254C111.176 93.4998 112.894 93.077 114.29 92.1065C115.698 91.1275 116.635 89.6907 117.163 87.9303L117.226 87.7197V87.4998V87.1252V86.8638L117.137 86.6178C116.446 84.6945 115.461 83.1189 114.109 82.0224C112.736 80.9085 111.089 80.3748 109.254 80.3748H109.05C108.745 75.1139 108.596 71.7537 108.596 70.2502V70.1175C113.604 65.0611 117.405 60.9844 119.979 57.8984C121.301 56.3139 122.326 54.9597 123.028 53.8483C123.379 53.2928 123.668 52.7692 123.874 52.2867C124.07 51.8253 124.238 51.2926 124.238 50.75V48.875C124.238 46.7843 123.008 44.8054 121.127 42.964C119.843 41.5305 117.848 40.5988 115.403 40.0104C113.199 39.4802 110.493 39.1961 107.311 39.1368C107.198 38.7546 107.038 38.3871 106.825 38.039C106.35 37.2602 105.665 36.661 104.848 36.2149C103.694 35.5844 102.223 35.2287 100.505 35.0814V35V34.2307L99.8801 33.7818C99.657 33.6215 99.4427 33.4643 99.2369 33.3099C99.7435 33.6252 100.285 33.9773 100.862 34.3674L101.242 34.625H101.702H102.242H102.572L102.872 34.486C104.203 33.8692 105.26 32.9495 105.969 31.7167C106.67 30.4978 106.978 29.0675 106.978 27.5C106.978 25.7777 106.682 24.2297 105.989 22.9443C105.28 21.629 104.199 20.6751 102.805 20.1099L102.534 20H102.242H101.702H101.232L100.846 20.2684C100.062 20.8131 99.3414 21.2656 98.6804 21.6354L100.041 20.3343L100.505 19.8912V19.25C100.505 18.3385 99.9538 17.7116 99.4657 17.3462C98.98 16.9825 98.3605 16.7179 97.7103 16.5092C96.3927 16.0864 94.5173 15.7614 92.1529 15.5085L92.0733 15.5H91.9933H90.9144Z" fill="#85586F" stroke="black" stroke-width="3" />
    <path d="M53.1575 168.875C52.6181 168.875 52.0788 168.5 51.5394 167.75C51.5394 165.438 52.6181 163.437 54.7757 161.75C52.2585 158.563 51 155.688 51 153.125V150.875C51 147.5 53.5171 143.375 58.5516 138.5C57.4727 137.562 56.9333 136.688 56.9333 135.875V134.75C56.9333 134.438 58.5516 133.313 61.7876 131.375C71.4964 117 76.3507 103.875 76.3507 91.9998H70.9569C67.9903 91.9998 65.8331 90.3747 64.4848 87.1252C64.4848 84.2502 67.3614 82.3749 73.1147 81.5002V80.7498C73.1147 78.9999 73.2947 75.3751 73.6541 69.875C62.8665 59.1875 57.4727 52.4375 57.4727 49.625C57.4727 45.5625 60.7088 42.6875 67.1814 41C72.2158 40.8125 74.733 40.5625 74.733 40.25C74.733 37.75 77.6096 36.5 83.3629 36.5L82.8234 35.75C82.8234 35.1875 84.2617 33.4375 87.1389 30.5V29.75C85.4306 29.75 83.0934 30.75 80.1268 32.75H79.0479C77.7896 32.75 76.8902 31.375 76.3507 28.625V26C76.3507 24.0625 77.2502 22.5625 79.0479 21.5H80.1268C83.0034 23.5 85.3406 24.625 87.1389 24.875V24.5C87.1389 23.25 85.7001 21.625 82.8234 19.625V18.875C82.8234 17.9693 85.3408 17.3553 90.3749 17.0329V168.875H53.1575Z" fill="#AC7D88" />
  </g>
  <g id="bn" fill="none" transform="scale(0.2222222222222222 0.2222222222222222)">
    <path d="M102.337 49.5H102.021L101.732 49.6273C100.075 50.3574 98.6934 51.1914 97.7146 52.1756L92.4658 51.8345L92.4172 51.8314H92.3685H88.3815C82.214 51.8314 75.8433 53.4574 69.2843 56.645L69.2455 56.6638L69.2079 56.6849C55.9356 64.1054 49.5 78.2107 49.5 98.4053C49.5 111.256 52.0085 121.894 57.1417 130.213C56.9 130.373 56.6722 130.563 56.4606 130.783C55.6913 131.582 55.2508 132.667 55.0118 133.859L54.9826 134.005V134.154V134.542C54.9826 135.366 55.139 136.197 55.5938 136.906C55.6574 137.005 55.7251 137.1 55.7966 137.189C53.9239 139.568 52.4548 141.778 51.4099 143.815C50.1867 146.199 49.5 148.432 49.5 150.474V151.639C49.5 154.986 50.5772 158.22 52.6368 161.321C51.2268 163.321 50.3386 165.466 50.0134 167.748L49.9102 168.472L50.4177 169C50.8116 169.409 51.1797 169.759 51.5107 170.017C51.6755 170.145 51.8642 170.277 52.0682 170.383C52.2463 170.476 52.5781 170.625 52.9937 170.625H115.794H116.161L116.486 170.456L117.981 169.678L118.789 169.258V168.348C118.789 165.607 118.016 163.319 116.304 161.751C118.242 158.488 119.288 155.367 119.288 152.417V150.474C119.288 146.967 117.313 142.59 113.778 137.458C114.058 137.165 114.305 136.877 114.512 136.595C114.909 136.053 115.301 135.345 115.301 134.542V134.358L115.256 134.179C114.928 132.864 114.396 131.704 113.554 130.86C113.103 130.408 112.589 130.074 112.028 129.856C112.742 125.518 113.288 122.085 113.664 119.561C114.071 116.835 114.304 115.028 114.304 114.337C114.304 113.848 114.109 113.452 113.973 113.22C113.821 112.961 113.626 112.715 113.424 112.488C113.019 112.034 112.454 111.517 111.767 110.947C110.405 109.819 108.406 108.358 105.795 106.575C101.073 101.771 97.5754 97.5073 95.2633 93.7779C94.2388 92.1255 93.462 90.602 92.9124 89.2029C94.4077 89.9972 96.3294 90.5603 98.5957 90.9469L98.8453 90.9895L99.095 90.9478C103.783 90.1649 106.64 89.8028 107.82 89.8028H111.308C113.193 89.8028 115.882 90.7736 119.474 93.0644L119.843 93.2998H120.28H122.274H122.829L123.25 92.9384C125.78 90.7693 127.735 88.815 129.07 87.0804C130.367 85.3942 131.25 83.6997 131.25 82.0854V81.3086C131.25 80.1255 130.703 79.0265 129.931 78.048L129.793 77.8733L129.611 77.7462C123.514 73.5001 119.48 70.483 117.437 68.6631C115.427 65.6335 113.621 63.159 112.021 61.2549C110.709 59.6938 109.485 58.4542 108.354 57.6109C108.37 57.4403 108.391 57.3012 108.414 57.1907C108.429 57.1218 108.443 57.0741 108.453 57.0433L108.821 56.6844V56.0514C108.821 53.2289 106.904 51.1416 104.017 49.6646L103.695 49.5H103.334H102.337Z" fill="#85586F" stroke="black" stroke-width="3" />
    <path d="M52.9937 169.125C52.7445 169.125 52.246 168.736 51.4984 167.96C51.8307 165.628 52.8275 163.426 54.4889 161.354C52.163 158.18 51 154.942 51 151.639V150.474C51 147.041 53.3259 142.508 57.9778 136.873C56.9811 136.615 56.4826 135.837 56.4826 134.542V134.154C56.8978 132.082 57.8946 131.045 59.4729 131.045C53.8244 122.821 51 111.941 51 98.4053C51 78.5237 57.3135 65.0535 69.9399 57.9941C76.3361 54.8857 82.4831 53.3314 88.3815 53.3314C58.2867 76.3965 73.1837 114.751 84.394 131.045V169.125H52.9937Z" fill="#AC7D88" />
  </g>
  <g id="bp" fill="none" transform="scale(0.2222222222222222 0.2222222222222222)">
    <path d="M110.533 76.9168L110.522 76.8998L110.511 76.8831C105.965 70.048 99.899 66.5 92.387 66.5H87.113C85.4657 66.5 83.8943 66.7726 82.4101 67.3265C77.7426 68.7623 74.0863 70.6382 71.576 73.0325C69.0166 75.4737 67.6839 78.426 67.6839 81.824V83.318C67.6839 86.7735 69.3084 89.8777 72.2473 92.6529H71.2932C69.0942 92.6529 67.1557 93.2244 65.6029 94.4818C64.0596 95.7315 63.0444 97.5397 62.4598 99.7472L62.4099 99.9359V100.131V100.878C62.4099 102.384 63.2018 103.66 64.3557 104.701C65.5011 105.734 67.1253 106.653 69.1317 107.492L69.4096 107.609H69.7109H76.4794C76.3717 108.175 76.2094 108.84 75.9838 109.61C75.5208 111.191 74.8169 113.13 73.8621 115.436C71.9543 120.044 69.0796 126.034 65.226 133.419C65.0912 133.539 64.8562 133.723 64.4933 133.98C63.7451 134.51 62.5937 135.252 61.0195 136.212L60.3005 136.65V137.492V139.734C60.3005 140.194 60.4298 140.67 60.7315 141.069C58.8839 143.348 57.4341 145.417 56.4028 147.272C55.2104 149.416 54.5 151.41 54.5 153.184C54.5 156.269 55.6074 159.317 57.6736 162.308C57.2086 162.76 56.8097 163.213 56.4884 163.668C55.9458 164.437 55.5547 165.313 55.5547 166.261V168.129V168.386L55.6402 168.628C55.9777 169.584 56.7725 170.111 57.5427 170.384C58.3016 170.653 59.2213 170.75 60.2188 170.75H120.863H121.121L121.363 170.664C121.941 170.46 122.487 170.218 122.917 169.914C123.293 169.647 123.945 169.069 123.945 168.129V166.261V166.031L123.877 165.812C123.501 164.616 123.039 163.579 122.439 162.813C122.311 162.65 122.172 162.494 122.022 162.349C123.955 159.384 125 156.447 125 153.558C125 149.713 123.011 145.682 119.424 141.5C119.868 141.125 120.245 140.656 120.558 140.148L120.781 139.786V139.36V138.987V138.779L120.725 138.579L120.197 136.711L120.026 136.104L119.471 135.802C117.293 134.614 115.921 133.621 115.201 132.84C109.828 124.574 105.847 116.165 103.246 107.609H108.207C110.222 107.609 112.032 107.105 113.557 106.025C115.074 104.95 116.197 103.384 116.981 101.439L117.09 101.169V100.878V100.131V99.9203L117.032 99.7176C116.402 97.5198 115.365 95.7238 113.831 94.4818C112.284 93.2293 110.371 92.6529 108.207 92.6529H107.216C110.175 89.8486 111.816 86.7442 111.816 83.318V82.571C111.816 80.3259 111.451 78.3802 110.533 76.9168Z" fill="#85586F" stroke="black" stroke-width="3" />
    <path d="M60.2188 169.25C58.3732 169.25 57.3185 168.876 57.0547 168.129V166.261C57.0547 165.202 57.9339 163.957 59.6911 162.525C57.2308 159.349 56 156.235 56 153.184C56 150.383 58.2849 146.272 62.8557 140.855V140.481C62.1526 140.481 61.8005 140.232 61.8005 139.734V137.492C64.9651 135.562 66.5469 134.441 66.5469 134.13C74.2812 119.31 78.1484 109.97 78.1484 106.109H69.7109C65.8438 104.49 63.9099 102.746 63.9099 100.878V100.131C64.9651 96.1458 67.4255 94.1529 71.2932 94.1529H76.5661C71.6443 90.8527 69.1839 87.2414 69.1839 83.318V81.824C69.1839 75.9082 73.7536 71.5494 82.8943 68.747C84.2128 68.2492 85.619 68 87.113 68H90.5409V169.25H60.2188Z" fill="#AC7D88" />
  </g>
  <g id="bq" fill="none" transform="scale(0.2222222222222222 0.2222222222222222)">
    <mask id="bqpath-1-outside-1_3_35" maskUnits="userSpaceOnUse" x="45" y="13" width="91" height="159" fill="black">
      <rect fill="white" x="45" y="13" width="91" height="159" />
      <path d="M100.711 37.146C103.947 34.9448 106 31.6642 106 28C106 21.3726 99.2843 16 91 16C82.7157 16 76 21.3726 76 28C76 31.517 77.8912 34.6806 80.9045 36.8754C77.58 38.4751 74.8071 39.275 72.5863 39.275C67.7432 37.655 64.9493 36.845 64.2045 36.845C58.9892 36.845 56.0091 39.005 55.2641 43.325L56.3816 46.16C68.6747 53.5175 74.8211 63.2375 74.8211 75.32V75.725H68.6747C65.5084 75.725 63.273 77.48 61.9691 80.99V82.205C61.9691 84.095 63.6459 85.715 66.9984 87.065H76.4974C76.4974 100.632 70.9095 114.808 59.7343 129.59C56.0091 130.94 54.1466 132.425 54.1466 134.045C54.8916 135.665 55.6366 136.475 56.3816 136.475C50.7939 142.145 48 146.87 48 150.65C48 154.16 49.4901 157.805 52.4702 161.585C50.2351 162.665 49.1176 164.285 49.1176 166.445V168.065C49.1176 168.605 49.4901 168.875 50.2351 168.875H130.14C130.885 168.875 131.257 168.605 131.257 168.065V165.635C131.257 164.015 130.14 162.665 127.905 161.585C130.885 158.48 132.375 155.375 132.375 152.27V151.46C132.375 147.072 129.953 142.077 125.111 136.475C126.601 136.475 127.346 135.665 127.346 134.045V133.64C127.346 131.885 125.856 130.67 122.876 129.995C111.328 115.212 105.554 101.037 105.554 87.47V87.065H112.818C115.891 87.065 117.94 85.445 118.964 82.205C118.964 78.6275 116.543 76.4675 111.7 75.725H107.23C107.23 67.22 110.396 59.39 116.729 52.235C123.435 47.915 126.787 44.945 126.787 43.325C125.577 39.005 122.783 36.845 118.406 36.845C117.567 36.845 114.401 37.655 108.906 39.275C104.923 38.2251 102.191 37.5154 100.711 37.146Z" />
    </mask>
    <path d="M100.711 37.146C103.947 34.9448 106 31.6642 106 28C106 21.3726 99.2843 16 91 16C82.7157 16 76 21.3726 76 28C76 31.517 77.8912 34.6806 80.9045 36.8754C77.58 38.4751 74.8071 39.275 72.5863 39.275C67.7432 37.655 64.9493 36.845 64.2045 36.845C58.9892 36.845 56.0091 39.005 55.2641 43.325L56.3816 46.16C68.6747 53.5175 74.8211 63.2375 74.8211 75.32V75.725H68.6747C65.5084 75.725 63.273 77.48 61.9691 80.99V82.205C61.9691 84.095 63.6459 85.715 66.9984 87.065H76.4974C76.4974 100.632 70.9095 114.808 59.7343 129.59C56.0091 130.94 54.1466 132.425 54.1466 134.045C54.8916 135.665 55.6366 136.475 56.3816 136.475C50.7939 142.145 48 146.87 48 150.65C48 154.16 49.4901 157.805 52.4702 161.585C50.2351 162.665 49.1176 164.285 49.1176 166.445V168.065C49.1176 168.605 49.4901 168.875 50.2351 168.875H130.14C130.885 168.875 131.257 168.605 131.257 168.065V165.635C131.257 164.015 130.14 162.665 127.905 161.585C130.885 158.48 132.375 155.375 132.375 152.27V151.46C132.375 147.072 129.953 142.077 125.111 136.475C126.601 136.475 127.346 135.665 127.346 134.045V133.64C127.346 131.885 125.856 130.67 122.876 129.995C111.328 115.212 105.554 101.037 105.554 87.47V87.065H112.818C115.891 87.065 117.94 85.445 118.964 82.205C118.964 78.6275 116.543 76.4675 111.7 75.725H107.23C107.23 67.22 110.396 59.39 116.729 52.235C123.435 47.915 126.787 44.945 126.787 43.325C125.577 39.005 122.783 36.845 118.406 36.845C117.567 36.845 114.401 37.655 108.906 39.275C104.923 38.2251 102.191 37.5154 100.711 37.146Z" fill="#85586F" />
    <path d="M100.711 37.146L99.0239 34.6654L93.484 38.4338L99.9846 40.0566L100.711 37.146ZM80.9045 36.8754L82.2053 39.5787L86.7252 37.4038L82.6708 34.4505L80.9045 36.8754ZM72.5863 39.275L71.6347 42.1201L72.0979 42.275H72.5863V39.275ZM55.2641 43.325L52.3077 42.8151L52.1649 43.6433L52.4731 44.4252L55.2641 43.325ZM56.3816 46.16L53.5907 47.2602L53.9651 48.2099L54.841 48.7342L56.3816 46.16ZM74.8211 75.725V78.725H77.8211V75.725H74.8211ZM61.9691 80.99L59.1569 79.9453L58.9691 80.4508V80.99H61.9691ZM66.9984 87.065L65.8778 89.8478L66.4171 90.065H66.9984V87.065ZM76.4974 87.065H79.4974V84.065H76.4974V87.065ZM59.7343 129.59L60.7564 132.411L61.5917 132.108L62.1274 131.399L59.7343 129.59ZM54.1466 134.045H51.1466V134.702L51.421 135.298L54.1466 134.045ZM56.3816 136.475L58.5184 138.581L63.5501 133.475H56.3816V136.475ZM52.4702 161.585L53.7754 164.286L57.1387 162.661L54.8261 159.728L52.4702 161.585ZM127.905 161.585L125.74 159.508L122.88 162.488L126.599 164.286L127.905 161.585ZM125.111 136.475V133.475H118.552L122.841 138.437L125.111 136.475ZM122.876 129.995L120.512 131.842L121.17 132.685L122.213 132.921L122.876 129.995ZM105.554 87.065V84.065H102.554V87.065H105.554ZM118.964 82.205L121.825 83.1093L121.964 82.6679V82.205H118.964ZM111.7 75.725L112.155 72.7597L111.929 72.725H111.7V75.725ZM107.23 75.725H104.23V78.725H107.23V75.725ZM116.729 52.235L115.104 49.7131L114.757 49.937L114.483 50.2467L116.729 52.235ZM126.787 43.325H129.787V42.9126L129.676 42.5156L126.787 43.325ZM108.906 39.275L108.142 42.1759L108.952 42.3894L109.755 42.1525L108.906 39.275ZM103 28C103 30.4683 101.622 32.8983 99.0239 34.6654L102.399 39.6265C106.272 36.9914 109 32.8601 109 28H103ZM91 19C98.2867 19 103 23.6195 103 28H109C109 19.1256 100.282 13 91 13V19ZM79 28C79 23.6195 83.7133 19 91 19V13C81.7182 13 73 19.1256 73 28H79ZM82.6708 34.4505C80.2692 32.7012 79 30.3721 79 28H73C73 32.6618 75.5133 36.6599 79.1382 39.3003L82.6708 34.4505ZM72.5863 42.275C75.4608 42.275 78.7101 41.2606 82.2053 39.5787L79.6036 34.1721C76.4499 35.6897 74.1534 36.275 72.5863 36.275V42.275ZM64.2045 39.845C64.0152 39.845 64.0313 39.819 64.4779 39.9212C64.8417 40.0045 65.3512 40.139 66.0232 40.3339C67.3627 40.7222 69.2276 41.3149 71.6347 42.1201L73.538 36.4299C71.1019 35.6151 69.1483 34.9928 67.6939 34.5711C66.9689 34.361 66.3376 34.1917 65.8167 34.0725C65.3786 33.9722 64.7662 33.845 64.2045 33.845V39.845ZM58.2204 43.8349C58.4871 42.2886 59.0807 41.4288 59.8185 40.8941C60.6228 40.3111 61.9741 39.845 64.2045 39.845V33.845C61.2196 33.845 58.4732 34.4589 56.2974 36.0359C54.0551 37.6612 52.7861 40.0414 52.3077 42.8151L58.2204 43.8349ZM59.1726 45.0598L58.055 42.2248L52.4731 44.4252L53.5907 47.2602L59.1726 45.0598ZM77.8211 75.32C77.8211 61.9707 70.9227 51.3667 57.9223 43.5858L54.841 48.7342C66.4267 55.6683 71.8211 64.5043 71.8211 75.32H77.8211ZM77.8211 75.725V75.32H71.8211V75.725H77.8211ZM68.6747 78.725H74.8211V72.725H68.6747V78.725ZM64.7814 82.0347C65.3004 80.6374 65.911 79.8446 66.4761 79.4008C67.0049 78.9857 67.6822 78.725 68.6747 78.725V72.725C66.5008 72.725 64.4773 73.3418 62.7708 74.6817C61.1008 75.9929 59.9417 77.8326 59.1569 79.9453L64.7814 82.0347ZM64.9691 82.205V80.99H58.9691V82.205H64.9691ZM68.119 84.2822C66.6252 83.6806 65.7614 83.1152 65.3112 82.6801C65.0996 82.4757 65.0186 82.3375 64.9905 82.2788C64.968 82.2317 64.9691 82.2168 64.9691 82.205H58.9691C58.9691 84.1461 59.8645 85.7605 61.142 86.9949C62.3683 88.1799 64.0192 89.0994 65.8778 89.8478L68.119 84.2822ZM76.4974 84.065H66.9984V90.065H76.4974V84.065ZM62.1274 131.399C73.5544 116.284 79.4974 101.487 79.4974 87.065H73.4974C73.4974 99.7778 68.2646 113.331 57.3412 127.781L62.1274 131.399ZM57.1466 134.045C57.1466 134.515 56.8492 134.512 57.4137 134.062C57.9766 133.613 59.0254 133.038 60.7564 132.411L58.7122 126.77C56.718 127.492 54.9729 128.334 53.6733 129.371C52.3752 130.405 51.1466 131.955 51.1466 134.045H57.1466ZM56.3816 133.475C56.7615 133.475 57.0637 133.583 57.2557 133.687C57.431 133.783 57.4979 133.865 57.4721 133.837C57.4488 133.811 57.3757 133.724 57.2628 133.54C57.1519 133.359 57.0204 133.114 56.8721 132.792L51.421 135.298C51.8538 136.24 52.3814 137.165 53.0561 137.898C53.7236 138.624 54.8374 139.475 56.3816 139.475V133.475ZM51 150.65C51 149.487 51.4381 147.895 52.6778 145.798C53.9083 143.717 55.8265 141.312 58.5184 138.581L54.2449 134.369C51.349 137.308 49.0764 140.1 47.5131 142.744C45.9588 145.373 45 148.033 45 150.65H51ZM54.8261 159.728C52.1099 156.282 51 153.274 51 150.65H45C45 155.045 46.8702 159.328 50.1143 163.442L54.8261 159.728ZM52.1176 166.445C52.1176 165.911 52.2456 165.574 52.4252 165.314C52.6212 165.029 53.0055 164.658 53.7754 164.286L51.165 158.884C49.6998 159.592 48.4077 160.571 47.4863 161.907C46.5483 163.266 46.1176 164.819 46.1176 166.445H52.1176ZM52.1176 168.065V166.445H46.1176V168.065H52.1176ZM50.2351 165.875C50.1355 165.875 50.6022 165.841 51.1576 166.243C51.4678 166.468 51.7372 166.784 51.913 167.166C52.0813 167.532 52.1176 167.857 52.1176 168.065H46.1176C46.1176 169.106 46.5293 170.299 47.6363 171.102C48.5642 171.774 49.5897 171.875 50.2351 171.875V165.875ZM130.14 165.875H50.2351V171.875H130.14V165.875ZM128.257 168.065C128.257 167.857 128.294 167.532 128.462 167.166C128.638 166.784 128.907 166.468 129.217 166.243C129.773 165.841 130.24 165.875 130.14 165.875V171.875C130.785 171.875 131.811 171.774 132.739 171.102C133.846 170.299 134.257 169.106 134.257 168.065H128.257ZM128.257 165.635V168.065H134.257V165.635H128.257ZM126.599 164.286C127.479 164.711 127.914 165.086 128.108 165.321C128.261 165.505 128.257 165.583 128.257 165.635H134.257C134.257 162.311 131.867 160.168 129.21 158.884L126.599 164.286ZM129.375 152.27C129.375 154.343 128.394 156.743 125.74 159.508L130.069 163.662C133.376 160.217 135.375 156.407 135.375 152.27H129.375ZM129.375 151.46V152.27H135.375V151.46H129.375ZM122.841 138.437C127.511 143.84 129.375 148.146 129.375 151.46H135.375C135.375 145.999 132.396 140.315 127.381 134.513L122.841 138.437ZM124.346 134.045C124.346 134.452 124.247 134.197 124.58 133.836C124.745 133.656 124.93 133.552 125.067 133.503C125.186 133.459 125.22 133.475 125.111 133.475V139.475C126.386 139.475 127.874 139.117 128.995 137.899C130.072 136.728 130.346 135.258 130.346 134.045H124.346ZM124.346 133.64V134.045H130.346V133.64H124.346ZM122.213 132.921C123.49 133.21 124.098 133.546 124.333 133.738C124.429 133.816 124.417 133.832 124.385 133.77C124.371 133.742 124.36 133.71 124.353 133.679C124.346 133.65 124.346 133.634 124.346 133.64H130.346C130.346 131.767 129.492 130.203 128.125 129.087C126.87 128.064 125.243 127.455 123.539 127.069L122.213 132.921ZM102.554 87.47C102.554 101.922 108.707 116.731 120.512 131.842L125.24 128.148C113.949 113.694 108.554 100.153 108.554 87.47H102.554ZM102.554 87.065V87.47H108.554V87.065H102.554ZM112.818 84.065H105.554V90.065H112.818V84.065ZM116.104 81.3007C115.719 82.519 115.23 83.1561 114.799 83.4967C114.394 83.8169 113.803 84.065 112.818 84.065V90.065C114.906 90.065 116.876 89.5032 118.52 88.2033C120.138 86.9239 121.186 85.131 121.825 83.1093L116.104 81.3007ZM111.246 78.6903C113.366 79.0155 114.542 79.5968 115.151 80.1406C115.654 80.5893 115.964 81.1733 115.964 82.205H121.964C121.964 79.6592 121.064 77.3745 119.145 75.6632C117.334 74.0469 114.877 73.177 112.155 72.7597L111.246 78.6903ZM107.23 78.725H111.7V72.725H107.23V78.725ZM114.483 50.2467C107.729 57.8777 104.23 66.396 104.23 75.725H110.23C110.23 68.044 113.064 60.9024 118.976 54.2233L114.483 50.2467ZM123.787 43.325C123.787 42.7705 124.031 42.6198 123.736 43.0236C123.495 43.354 123.041 43.8506 122.283 44.5219C120.777 45.8566 118.411 47.5826 115.104 49.7131L118.354 54.7569C121.752 52.5674 124.416 50.6484 126.262 49.0131C127.18 48.1994 127.984 47.3797 128.581 46.5626C129.124 45.8189 129.787 44.6895 129.787 43.325H123.787ZM118.406 39.845C120.093 39.845 121.193 40.2539 121.949 40.8384C122.712 41.4284 123.42 42.4261 123.898 44.1345L129.676 42.5156C128.944 39.9039 127.649 37.6616 125.619 36.0916C123.581 34.5161 121.096 33.845 118.406 33.845V39.845ZM109.755 42.1525C112.489 41.3464 114.614 40.7507 116.146 40.3589C116.913 40.1625 117.505 40.0244 117.935 39.9373C118.439 39.8354 118.529 39.845 118.406 39.845V33.845C117.864 33.845 117.243 33.9558 116.746 34.0564C116.175 34.1719 115.474 34.3375 114.659 34.5461C113.024 34.9643 110.818 35.5836 108.058 36.3975L109.755 42.1525ZM99.9846 40.0566C101.443 40.4207 104.157 41.1256 108.142 42.1759L109.671 36.3741C105.689 35.3246 102.94 34.6102 101.438 34.2353L99.9846 40.0566Z" fill="black" mask="url(#bqpath-1-outside-1_3_35)" />
    <path d="M80.9045 36.8754C77.8912 34.6806 76 31.517 76 28C76 21.5907 82.281 16.355 90.1874 16.0173V168.875H50.2351C49.4901 168.875 49.1176 168.605 49.1176 168.065V166.445C49.1176 164.285 50.2351 162.665 52.4702 161.585C49.4901 157.805 48 154.16 48 150.65C48 146.87 50.7939 142.145 56.3816 136.475C55.6366 136.475 54.8916 135.665 54.1466 134.045C54.1466 132.425 56.0091 130.94 59.7343 129.59C70.9095 114.808 76.4974 100.632 76.4974 87.065H66.9984C63.6459 85.715 61.9691 84.095 61.9691 82.205V80.99C63.273 77.48 65.5084 75.725 68.6747 75.725H74.8211V75.32C74.8211 63.2375 68.6747 53.5175 56.3816 46.16L55.2641 43.325C56.0091 39.005 58.9892 36.845 64.2045 36.845C64.9493 36.845 67.7432 37.655 72.5863 39.275C74.8071 39.275 77.58 38.4751 80.9045 36.8754Z" fill="#AC7D88" />
  </g>
  <g id="br" fill="none" transform="scale(0.2222222222222222 0.2222222222222222)">
    <path d="M53.2734 55.5H53.0098L52.762 55.5899L51.7073 55.9724L50.7188 56.3309V57.3825C50.7188 64.9514 54.3671 71.904 61.3205 78.2345C61.1182 78.4062 60.9287 78.5994 60.7529 78.812C60.0195 79.6988 59.5313 80.9047 59.1981 82.2859L59.1562 82.4593V82.6376C59.1562 84.3301 60.0008 85.6772 61.4075 86.613C62.4167 87.2843 63.7212 87.7547 65.2529 88.0734C64.9736 89.8668 64.5268 93.0266 63.9161 97.502C63.0686 103.713 61.8947 112.545 60.3946 123.995H59.0742H58.8237L58.5868 124.076C56.6727 124.734 55.1376 125.805 54.1266 127.354L53.8828 127.728V128.174V130.469V130.897L54.108 131.26C54.5051 131.9 54.9738 132.484 55.5211 132.937C52.8249 136.025 50.7214 138.766 49.232 141.155C47.5264 143.891 46.5 146.359 46.5 148.454V150.75C46.5 153.763 48.0176 157.155 50.704 160.859C48.3598 163.045 47.0273 165.542 47.0273 168.352C47.0273 168.936 47.1587 169.654 47.6864 170.228C48.2363 170.826 48.9652 171 49.582 171H130.266H130.529L130.777 170.91L131.832 170.528L132.82 170.169V169.117C132.82 165.804 131.571 163.092 129.136 161.087C130.545 158.872 131.649 156.85 132.434 155.026C133.354 152.89 133.875 150.939 133.875 149.22C133.875 147.06 132.988 144.53 131.451 141.71C130.011 139.067 127.929 136.04 125.228 132.636C125.606 132.223 125.922 131.857 126.17 131.541C126.367 131.292 126.547 131.042 126.685 130.804C126.782 130.637 127.019 130.217 127.019 129.704C127.019 127.798 126.093 126.286 124.466 125.274C123.209 124.492 121.549 124.01 119.581 123.753C119.445 121.673 119.058 118.104 118.439 113.113C117.683 107.018 116.567 98.7063 115.092 88.1801C117.162 87.7618 118.934 86.5662 120.377 84.7046L120.691 84.2989V83.7857V81.4896V81.1619L120.554 80.864C120.389 80.5041 120.136 80.1941 119.907 79.9498C119.662 79.6891 119.364 79.4179 119.028 79.1393C118.723 78.8865 118.371 78.6137 117.972 78.3214C125.251 72.0363 129.129 65.3147 129.129 58.1481C129.129 57.5648 128.998 56.8471 128.47 56.2725C127.92 55.6737 127.191 55.5 126.575 55.5H107.59H107.327L107.079 55.5898L106.024 55.9723L104.902 56.3788L105.046 57.5629C105.397 60.464 105.661 62.6766 105.836 64.2026C105.873 64.5211 105.905 64.8089 105.934 65.0664H100.178C100.298 63.2467 100.618 60.9119 101.154 58.0411L101.365 56.9145L100.333 56.4153L98.7507 55.6497L98.4412 55.5H98.0974H81.75H81.4061L81.0965 55.6498L79.5148 56.4154L78.5157 56.8989L78.686 57.9958C79.1836 61.1997 79.4937 63.5411 79.6341 65.0664H73.8538C73.9977 63.5736 74.306 61.2314 74.7957 57.9896L74.8125 57.8782V57.7656C74.8125 57.0779 74.5073 56.4444 73.9301 56.0253C73.4386 55.6685 72.8626 55.5486 72.3929 55.5061L72.3255 55.5H72.2578H53.2734Z" fill="#85586F" stroke="black" stroke-width="3" />
    <path d="M53.2734 57H72.2578C72.9609 57.0636 73.3125 57.3189 73.3125 57.7656C72.6094 62.4208 72.2578 65.3548 72.2578 66.5664H81.2224C81.2224 65.2271 80.8714 62.2931 80.1682 57.7656L81.75 57H89.9237V169.5H49.582C48.8789 169.5 48.5273 169.117 48.5273 168.352C48.5273 165.737 49.9336 163.314 52.7461 161.082C49.582 157 48 153.556 48 150.75V148.454C48 145.138 51.3398 139.781 58.0195 132.383C57.0528 132.383 56.1739 131.745 55.3828 130.469V128.174C56.1739 126.961 57.4043 126.069 59.0742 125.495H61.7109C64.875 101.324 66.6328 88.4415 66.9844 86.8468C62.7656 86.2731 60.6562 84.8696 60.6562 82.6376C61.2716 80.0867 62.3263 78.8115 63.8203 78.8115V78.4284C56.0859 71.9237 52.2188 64.9082 52.2188 57.3825L53.2734 57Z" fill="#AC7D88" />
  </g>
  <g id="wb" fill="none" transform="scale(0.2222222222222222 0.2222222222222222)">
    <path d="M89.7317 32.5096L89.6474 32.5H89.5625C87.589 32.5 85.83 32.9413 84.4038 33.9487C82.9672 34.9634 82.0131 36.4502 81.4761 38.2714L81.4149 38.4791V38.6956V39.8696C81.4149 41.3893 81.9787 42.712 82.9669 43.8286C81.2882 45.5178 79.9826 46.856 79.0539 47.84C78.4947 48.4325 78.0579 48.9117 77.7551 49.2681C77.6065 49.4431 77.4695 49.6125 77.3625 49.7638C77.3106 49.8371 77.2439 49.9365 77.184 50.0493C77.1832 50.051 77.1821 50.053 77.1808 50.0554C77.1485 50.1151 76.9829 50.4215 76.9829 50.8261C76.9829 51.1499 77.0882 51.3884 77.1204 51.4596C77.1665 51.5615 77.215 51.6398 77.2438 51.6841C77.3027 51.7745 77.3632 51.8493 77.4014 51.895C77.4831 51.9926 77.5804 52.096 77.673 52.1912C77.7572 52.2776 77.8546 52.3747 77.9624 52.48L77.0711 52.113L76.2327 51.7678L75.5374 52.3496C69.5305 57.3763 67.3541 60.2678 67.0176 63.9954L67.0115 64.0627V64.1303V66.0867C67.0115 69.4113 68.6042 72.7937 71.4605 76.2088C70.7883 77.0351 70.3353 77.9669 70.3353 79V79.7824C70.3353 80.931 70.6271 82.067 71.4729 82.9035C71.9416 83.3671 72.502 83.661 73.1051 83.8305V87.2176V87.3678L73.1348 87.515L73.3413 88.5353C71.6048 88.6961 70.1065 89.1124 68.9386 89.8739C67.2692 90.9624 66.4574 92.6355 66.4574 94.6521C66.4574 96.9688 68.251 98.6574 70.579 99.8909L70.8593 100.039L71.1757 100.062C73.0056 100.191 74.3065 100.348 75.125 100.522C75.1875 100.535 75.2451 100.548 75.2982 100.56C74.9711 106.596 71.0851 114.728 63.1724 125.066C61.4571 125.644 60.0394 126.316 59.0043 127.12C57.8629 128.007 57.0398 129.182 57.0398 130.652V131.044C57.0398 132.012 57.3075 132.933 57.9278 133.699C58.0846 133.893 58.2572 134.069 58.443 134.227C56.3862 136.774 54.7735 139.093 53.6249 141.179C52.2801 143.622 51.5 145.873 51.5 147.87V150.608C51.5 153.65 52.9059 157.103 55.429 160.906C53.5571 162.722 52.608 165.06 52.608 167.826V168.474L53.0797 168.918C53.5168 169.33 53.9213 169.677 54.2812 169.932C54.4607 170.058 54.6603 170.184 54.871 170.284C55.0595 170.372 55.3802 170.5 55.7699 170.5H122.801C123.302 170.5 123.945 170.42 124.497 170.03C125.145 169.572 125.409 168.88 125.409 168.218V166.261C125.409 164.175 124.607 162.449 123.112 161.147C124.464 158.766 125.519 156.664 126.266 154.847C127.121 152.768 127.625 150.936 127.625 149.435C127.625 147.634 126.911 145.321 125.693 142.609C124.604 140.183 123.051 137.307 121.047 133.989C121.306 133.792 121.542 133.566 121.751 133.308C122.371 132.541 122.639 131.621 122.639 130.652V130.478L122.599 130.308C122.267 128.898 121.617 127.685 120.549 126.836C119.691 126.154 118.666 125.79 117.548 125.673C112.236 117.473 108.169 109.068 105.34 100.456H107.29C108.983 100.456 110.512 100.082 111.756 99.2033C113.013 98.3157 113.83 97.0184 114.273 95.4523L114.33 95.2519V95.0436V94.2606C114.33 91.4714 111.963 89.6922 108.925 88.552L108.67 88.4564H108.398H106.574V84.0665C107.445 83.4085 108.168 82.7615 108.71 82.1235C109.357 81.3617 109.898 80.4352 109.898 79.3915V79.1958L109.848 79.0066C109.552 77.8926 109.172 76.9113 108.653 76.1769C108.621 76.1316 108.587 76.0866 108.553 76.042C111.268 73.113 112.668 69.6491 112.668 65.6957V64.1303C112.668 63.0386 112.164 61.8153 111.471 60.5827C110.748 59.2971 109.691 57.7857 108.329 56.0597C105.778 52.8291 102.062 48.7316 97.2026 43.7775C97.5233 43.4094 97.8024 43.0416 98.0338 42.6739C98.4938 41.9429 98.8182 41.1273 98.8182 40.2608V38.6956C98.8182 36.7928 97.7985 35.3253 96.1562 34.331C94.5902 33.3829 92.3984 32.8123 89.7317 32.5096ZM75.816 100.72C75.8159 100.72 75.8136 100.719 75.8094 100.717C75.8139 100.719 75.816 100.72 75.816 100.72Z" fill="#DEB6AB" stroke="black" stroke-width="3" />
    <path d="M55.7699 169C55.4929 169 54.9389 168.609 54.108 167.826C54.108 165.022 55.2159 162.805 57.4318 161.174C54.4773 157 53 153.478 53 150.608V147.87C53 144.609 55.5853 139.913 60.7558 133.782C59.2786 133.326 58.5398 132.413 58.5398 131.044V130.652C58.5398 128.957 60.3862 127.522 64.0796 126.348C72.5739 115.326 76.8208 106.457 76.8208 99.7394C76.8208 99.2174 74.9746 98.8259 71.2812 98.5654C69.0656 97.3915 67.9574 96.0871 67.9574 94.6521C67.9574 91.5218 70.3582 89.9564 75.1591 89.9564L74.6051 87.2176V82.5218C72.7584 82.5218 71.8353 81.6089 71.8353 79.7824V79C71.8353 78.1523 72.3894 77.2394 73.4969 76.2606C70.1731 72.6089 68.5115 69.2176 68.5115 66.0867V64.1303C68.7882 61.0652 70.4987 58.522 76.5 53.5L85 57C84.6304 56.4783 78.4829 51.0869 78.4829 50.8261C78.4829 50.5652 80.6986 48.2174 85.1306 43.7826C83.6534 42.6739 82.9149 41.3696 82.9149 39.8696V38.6956C83.8379 35.5652 86.0542 34 89.5625 34V169H55.7699Z" fill="#F8ECD1" />
  </g>
  <g id="wk" fill="none" transform="scale(0.2222222222222222 0.2222222222222222)">
    <path d="M90.9144 15.5H90.871L90.8277 15.5025C88.1098 15.66 85.9839 15.8998 84.5076 16.2419C83.7822 16.41 83.1063 16.6261 82.5772 16.9325C82.0958 17.2115 81.3234 17.8184 81.3234 18.875V19.625V20.4091L81.9672 20.8566C82.2636 21.0627 82.5408 21.2624 82.7995 21.4557C82.2314 21.1103 81.6262 20.7156 80.9831 20.2684L80.597 20H80.1268H79.0479H78.6378L78.2847 20.2087C76.0738 21.5154 74.8507 23.4835 74.8507 26V28.625V28.7707L74.8788 28.9138C75.1632 30.3636 75.5697 31.6151 76.1744 32.5397C76.8062 33.5059 77.7608 34.25 79.0479 34.25H80.1268H80.5852L80.9653 33.9937C81.7191 33.4856 82.4119 33.0575 83.046 32.702C82.9396 32.8268 82.8388 32.9472 82.7435 33.0631C82.3655 33.5229 82.0492 33.9438 81.8194 34.3132C81.7046 34.4977 81.5935 34.6978 81.5071 34.9044C81.4893 34.9469 81.4701 34.9955 81.4509 35.0495C79.3694 35.1638 77.6269 35.482 76.2927 36.0618C75.4137 36.4437 74.6393 36.9702 74.0822 37.6964C73.7521 38.1267 73.5204 38.5988 73.3834 39.1006C73.1936 39.1261 72.9659 39.1525 72.6969 39.1792C71.486 39.2995 69.6358 39.4076 67.1256 39.5011L66.9617 39.5072L66.803 39.5485C63.4508 40.4225 60.7692 41.6431 58.9036 43.3005C56.9888 45.0016 55.9727 47.1344 55.9727 49.625C55.9727 50.7327 56.476 51.9658 57.1775 53.2096C57.907 54.5028 58.9726 56.0143 60.3462 57.7333C63.0136 61.0714 66.9438 65.3169 72.1131 70.4588C71.8134 75.107 71.6467 78.377 71.6189 80.2344C69.236 80.6904 67.274 81.3603 65.8232 82.306C64.0555 83.4582 62.9848 85.0765 62.9848 87.1252V87.424L63.0993 87.7001C63.8457 89.4989 64.8638 90.9641 66.2115 91.9792C67.5761 93.007 69.1818 93.4998 70.9569 93.4998H74.8242C74.4371 104.508 69.805 116.752 60.7298 130.26C59.2433 131.155 58.0916 131.883 57.2907 132.44C56.87 132.733 56.5094 133.003 56.2406 133.242C56.1097 133.358 55.9591 133.503 55.8292 133.668L55.8257 133.673C55.7483 133.771 55.4333 134.172 55.4333 134.75V135.875C55.4333 136.839 55.8401 137.707 56.4467 138.476C54.3857 140.578 52.7629 142.575 51.6074 144.469C50.264 146.67 49.5 148.817 49.5 150.875V153.125C49.5 155.822 50.6644 158.639 52.7427 161.543C50.9965 163.278 50.0394 165.355 50.0394 167.75V168.233L50.3217 168.626C50.9447 169.492 51.8746 170.375 53.1575 170.375H127.592C128.079 170.375 128.711 170.299 129.257 169.919C129.903 169.471 130.171 168.786 130.171 168.125V166.625C130.171 165.297 129.829 164.073 129.08 163.03C128.706 162.51 128.25 162.063 127.726 161.68C130.013 158.648 131.25 155.541 131.25 152.375C131.25 148.304 129.023 143.777 124.997 138.852C125.37 138.476 125.742 138.017 126.113 137.501L126.396 137.109V136.625V135.875V135.669L126.34 135.471C125.977 134.172 125.389 133.039 124.479 132.225C123.736 131.561 122.855 131.18 121.891 131.05C111.246 117.358 106.014 104.852 105.901 93.4998H109.254C111.176 93.4998 112.894 93.077 114.29 92.1065C115.698 91.1275 116.635 89.6907 117.163 87.9303L117.226 87.7197V87.4998V87.1252V86.8638L117.137 86.6178C116.446 84.6945 115.461 83.1189 114.109 82.0224C112.736 80.9085 111.089 80.3748 109.254 80.3748H109.05C108.745 75.1139 108.596 71.7537 108.596 70.2502V70.1175C113.604 65.0611 117.405 60.9844 119.979 57.8984C121.301 56.3139 122.326 54.9597 123.028 53.8483C123.379 53.2928 123.668 52.7692 123.874 52.2867C124.07 51.8253 124.238 51.2926 124.238 50.75V48.875C124.238 46.7843 123.008 44.8054 121.127 42.964C119.843 41.5305 117.848 40.5988 115.403 40.0104C113.199 39.4802 110.493 39.1961 107.311 39.1368C107.198 38.7546 107.038 38.3871 106.825 38.039C106.35 37.2602 105.665 36.661 104.848 36.2149C103.694 35.5844 102.223 35.2287 100.505 35.0814V35V34.2307L99.8801 33.7818C99.657 33.6215 99.4427 33.4643 99.2369 33.3099C99.7435 33.6252 100.285 33.9773 100.862 34.3674L101.242 34.625H101.702H102.242H102.572L102.872 34.486C104.203 33.8692 105.26 32.9495 105.969 31.7167C106.67 30.4978 106.978 29.0675 106.978 27.5C106.978 25.7777 106.682 24.2297 105.989 22.9443C105.28 21.629 104.199 20.6751 102.805 20.1099L102.534 20H102.242H101.702H101.232L100.846 20.2684C100.062 20.8131 99.3414 21.2656 98.6804 21.6354L100.041 20.3343L100.505 19.8912V19.25C100.505 18.3385 99.9538 17.7116 99.4657 17.3462C98.98 16.9825 98.3605 16.7179 97.7103 16.5092C96.3927 16.0864 94.5173 15.7614 92.1529 15.5085L92.0733 15.5H91.9933H90.9144Z" fill="#DEB6AB" stroke="black" stroke-width="3" />
    <path d="M53.1575 168.875C52.6181 168.875 52.0788 168.5 51.5394 167.75C51.5394 165.438 52.6181 163.437 54.7757 161.75C52.2585 158.563 51 155.688 51 153.125V150.875C51 147.5 53.5171 143.375 58.5516 138.5C57.4727 137.562 56.9333 136.688 56.9333 135.875V134.75C56.9333 134.438 58.5516 133.313 61.7876 131.375C71.4964 117 76.3507 103.875 76.3507 91.9998H70.9569C67.9903 91.9998 65.8331 90.3747 64.4848 87.1252C64.4848 84.2502 67.3614 82.3749 73.1147 81.5002V80.7498C73.1147 78.9999 73.2947 75.3751 73.6541 69.875C62.8665 59.1875 57.4727 52.4375 57.4727 49.625C57.4727 45.5625 60.7088 42.6875 67.1814 41C72.2158 40.8125 74.733 40.5625 74.733 40.25C74.733 37.75 77.6096 36.5 83.3629 36.5L82.8234 35.75C82.8234 35.1875 84.2617 33.4375 87.1389 30.5V29.75C85.4306 29.75 83.0934 30.75 80.1268 32.75H79.0479C77.7896 32.75 76.8902 31.375 76.3507 28.625V26C76.3507 24.0625 77.2502 22.5625 79.0479 21.5H80.1268C83.0034 23.5 85.3406 24.625 87.1389 24.875V24.5C87.1389 23.25 85.7001 21.625 82.8234 19.625V18.875C82.8234 17.9693 85.3408 17.3553 90.3749 17.0329V168.875H53.1575Z" fill="#F8ECD1" />
  </g>
  <g id="wn" fill="none" transform="scale(0.2222222222222222 0.2222222222222222)">
    <path d="M102.337 49.5H102.021L101.732 49.6273C100.075 50.3574 98.6934 51.1914 97.7146 52.1756L92.4658 51.8345L92.4172 51.8314H92.3685H88.3815C82.214 51.8314 75.8433 53.4574 69.2843 56.645L69.2455 56.6638L69.2079 56.6849C55.9356 64.1054 49.5 78.2107 49.5 98.4053C49.5 111.256 52.0085 121.894 57.1417 130.213C56.9 130.373 56.6722 130.563 56.4606 130.783C55.6913 131.582 55.2508 132.667 55.0118 133.859L54.9826 134.005V134.154V134.542C54.9826 135.366 55.139 136.197 55.5938 136.906C55.6574 137.005 55.7251 137.1 55.7966 137.189C53.9239 139.568 52.4548 141.778 51.4099 143.815C50.1867 146.199 49.5 148.432 49.5 150.474V151.639C49.5 154.986 50.5772 158.22 52.6368 161.321C51.2268 163.321 50.3386 165.466 50.0134 167.748L49.9102 168.472L50.4177 169C50.8116 169.409 51.1797 169.759 51.5107 170.017C51.6755 170.145 51.8642 170.277 52.0682 170.383C52.2463 170.476 52.5781 170.625 52.9937 170.625H115.794H116.161L116.486 170.456L117.981 169.678L118.789 169.258V168.348C118.789 165.607 118.016 163.319 116.304 161.751C118.242 158.488 119.288 155.367 119.288 152.417V150.474C119.288 146.967 117.313 142.59 113.778 137.458C114.058 137.165 114.305 136.877 114.512 136.595C114.909 136.053 115.301 135.345 115.301 134.542V134.358L115.256 134.179C114.928 132.864 114.396 131.704 113.554 130.86C113.103 130.408 112.589 130.074 112.028 129.856C112.742 125.518 113.288 122.085 113.664 119.561C114.071 116.835 114.304 115.028 114.304 114.337C114.304 113.848 114.109 113.452 113.973 113.22C113.821 112.961 113.626 112.715 113.424 112.488C113.019 112.034 112.454 111.517 111.767 110.947C110.405 109.819 108.406 108.358 105.795 106.575C101.073 101.771 97.5754 97.5073 95.2633 93.7779C94.2388 92.1255 93.462 90.602 92.9124 89.2029C94.4077 89.9972 96.3294 90.5603 98.5957 90.9469L98.8453 90.9895L99.095 90.9478C103.783 90.1649 106.64 89.8028 107.82 89.8028H111.308C113.193 89.8028 115.882 90.7736 119.474 93.0644L119.843 93.2998H120.28H122.274H122.829L123.25 92.9384C125.78 90.7693 127.735 88.815 129.07 87.0804C130.367 85.3942 131.25 83.6997 131.25 82.0854V81.3086C131.25 80.1255 130.703 79.0265 129.931 78.048L129.793 77.8733L129.611 77.7462C123.514 73.5001 119.48 70.483 117.437 68.6631C115.427 65.6335 113.621 63.159 112.021 61.2549C110.709 59.6938 109.485 58.4542 108.354 57.6109C108.37 57.4403 108.391 57.3012 108.414 57.1907C108.429 57.1218 108.443 57.0741 108.453 57.0433L108.821 56.6844V56.0514C108.821 53.2289 106.904 51.1416 104.017 49.6646L103.695 49.5H103.334H102.337Z" fill="#DEB6AB" stroke="black" stroke-width="3" />
    <path d="M52.9937 169.125C52.7445 169.125 52.246 168.736 51.4984 167.96C51.8307 165.628 52.8275 163.426 54.4889 161.354C52.163 158.18 51 154.942 51 151.639V150.474C51 147.041 53.3259 142.508 57.9778 136.873C56.9811 136.615 56.4826 135.837 56.4826 134.542V134.154C56.8978 132.082 57.8946 131.045 59.4729 131.045C53.8244 122.821 51 111.941 51 98.4053C51 78.5237 57.3135 65.0535 69.9399 57.9941C76.3361 54.8857 82.4831 53.3314 88.3815 53.3314C58.2867 76.3965 73.1837 114.751 84.394 131.045V169.125H52.9937Z" fill="#F8ECD1" />
  </g>
  <g id="wp" fill="none" transform="scale(0.2222222222222222 0.2222222222222222)">
    <path d="M110.533 76.9168L110.522 76.8998L110.511 76.8831C105.965 70.048 99.899 66.5 92.387 66.5H87.113C85.4657 66.5 83.8943 66.7726 82.4101 67.3265C77.7426 68.7623 74.0863 70.6382 71.576 73.0325C69.0166 75.4737 67.6839 78.426 67.6839 81.824V83.318C67.6839 86.7735 69.3084 89.8777 72.2473 92.6529H71.2932C69.0942 92.6529 67.1557 93.2244 65.6029 94.4818C64.0596 95.7315 63.0444 97.5397 62.4598 99.7472L62.4099 99.9359V100.131V100.878C62.4099 102.384 63.2018 103.66 64.3557 104.701C65.5011 105.734 67.1253 106.653 69.1317 107.492L69.4096 107.609H69.7109H76.4794C76.3717 108.175 76.2094 108.84 75.9838 109.61C75.5208 111.191 74.8169 113.13 73.8621 115.436C71.9543 120.044 69.0796 126.034 65.226 133.419C65.0912 133.539 64.8562 133.723 64.4933 133.98C63.7451 134.51 62.5937 135.252 61.0195 136.212L60.3005 136.65V137.492V139.734C60.3005 140.194 60.4298 140.67 60.7315 141.069C58.8839 143.348 57.4341 145.417 56.4028 147.272C55.2104 149.416 54.5 151.41 54.5 153.184C54.5 156.269 55.6074 159.317 57.6736 162.308C57.2086 162.76 56.8097 163.213 56.4884 163.668C55.9458 164.437 55.5547 165.313 55.5547 166.261V168.129V168.386L55.6402 168.628C55.9777 169.584 56.7725 170.111 57.5427 170.384C58.3016 170.653 59.2213 170.75 60.2188 170.75H120.863H121.121L121.363 170.664C121.941 170.46 122.487 170.218 122.917 169.914C123.293 169.647 123.945 169.069 123.945 168.129V166.261V166.031L123.877 165.812C123.501 164.616 123.039 163.579 122.439 162.813C122.311 162.65 122.172 162.494 122.022 162.349C123.955 159.384 125 156.447 125 153.558C125 149.713 123.011 145.682 119.424 141.5C119.868 141.125 120.245 140.656 120.558 140.148L120.781 139.786V139.36V138.987V138.779L120.725 138.579L120.197 136.711L120.026 136.104L119.471 135.802C117.293 134.614 115.921 133.621 115.201 132.84C109.828 124.574 105.847 116.165 103.246 107.609H108.207C110.222 107.609 112.032 107.105 113.557 106.025C115.074 104.95 116.197 103.384 116.981 101.439L117.09 101.169V100.878V100.131V99.9203L117.032 99.7176C116.402 97.5198 115.365 95.7238 113.831 94.4818C112.284 93.2293 110.371 92.6529 108.207 92.6529H107.216C110.175 89.8486 111.816 86.7442 111.816 83.318V82.571C111.816 80.3259 111.451 78.3802 110.533 76.9168Z" fill="#DEB6AB" stroke="black" stroke-width="3" />
    <path d="M60.2188 169.25C58.3732 169.25 57.3185 168.876 57.0547 168.129V166.261C57.0547 165.202 57.9339 163.957 59.6911 162.525C57.2308 159.349 56 156.235 56 153.184C56 150.383 58.2849 146.272 62.8557 140.855V140.481C62.1526 140.481 61.8005 140.232 61.8005 139.734V137.492C64.9651 135.562 66.5469 134.441 66.5469 134.13C74.2812 119.31 78.1484 109.97 78.1484 106.109H69.7109C65.8438 104.49 63.9099 102.746 63.9099 100.878V100.131C64.9651 96.1458 67.4255 94.1529 71.2932 94.1529H76.5661C71.6443 90.8527 69.1839 87.2414 69.1839 83.318V81.824C69.1839 75.9082 73.7536 71.5494 82.8943 68.747C84.2128 68.2492 85.619 68 87.113 68H90.5409V169.25H60.2188Z" fill="#F8ECD1" />
  </g>
  <g id="wq" fill="none" transform="scale(0.2222222222222222 0.2222222222222222)">
    <mask id="wqpath-1-outside-1_3_40" maskUnits="userSpaceOnUse" x="45" y="13" width="91" height="159" fill="black">
      <rect fill="white" x="45" y="13" width="91" height="159" />
      <path d="M100.711 37.146C103.947 34.9448 106 31.6642 106 28C106 21.3726 99.2843 16 91 16C82.7157 16 76 21.3726 76 28C76 31.517 77.8912 34.6806 80.9045 36.8754C77.58 38.4751 74.8071 39.275 72.5863 39.275C67.7432 37.655 64.9493 36.845 64.2045 36.845C58.9892 36.845 56.0091 39.005 55.2641 43.325L56.3816 46.16C68.6747 53.5175 74.8211 63.2375 74.8211 75.32V75.725H68.6747C65.5084 75.725 63.273 77.48 61.9691 80.99V82.205C61.9691 84.095 63.6459 85.715 66.9984 87.065H76.4974C76.4974 100.632 70.9095 114.808 59.7343 129.59C56.0091 130.94 54.1466 132.425 54.1466 134.045C54.8916 135.665 55.6366 136.475 56.3816 136.475C50.7939 142.145 48 146.87 48 150.65C48 154.16 49.4901 157.805 52.4702 161.585C50.2351 162.665 49.1176 164.285 49.1176 166.445V168.065C49.1176 168.605 49.4901 168.875 50.2351 168.875H130.14C130.885 168.875 131.257 168.605 131.257 168.065V165.635C131.257 164.015 130.14 162.665 127.905 161.585C130.885 158.48 132.375 155.375 132.375 152.27V151.46C132.375 147.072 129.953 142.077 125.111 136.475C126.601 136.475 127.346 135.665 127.346 134.045V133.64C127.346 131.885 125.856 130.67 122.876 129.995C111.328 115.212 105.554 101.037 105.554 87.47V87.065H112.818C115.891 87.065 117.94 85.445 118.964 82.205C118.964 78.6275 116.543 76.4675 111.7 75.725H107.23C107.23 67.22 110.396 59.39 116.729 52.235C123.435 47.915 126.787 44.945 126.787 43.325C125.577 39.005 122.783 36.845 118.406 36.845C117.567 36.845 114.401 37.655 108.906 39.275C104.923 38.2251 102.191 37.5154 100.711 37.146Z" />
    </mask>
    <path d="M100.711 37.146C103.947 34.9448 106 31.6642 106 28C106 21.3726 99.2843 16 91 16C82.7157 16 76 21.3726 76 28C76 31.517 77.8912 34.6806 80.9045 36.8754C77.58 38.4751 74.8071 39.275 72.5863 39.275C67.7432 37.655 64.9493 36.845 64.2045 36.845C58.9892 36.845 56.0091 39.005 55.2641 43.325L56.3816 46.16C68.6747 53.5175 74.8211 63.2375 74.8211 75.32V75.725H68.6747C65.5084 75.725 63.273 77.48 61.9691 80.99V82.205C61.9691 84.095 63.6459 85.715 66.9984 87.065H76.4974C76.4974 100.632 70.9095 114.808 59.7343 129.59C56.0091 130.94 54.1466 132.425 54.1466 134.045C54.8916 135.665 55.6366 136.475 56.3816 136.475C50.7939 142.145 48 146.87 48 150.65C48 154.16 49.4901 157.805 52.4702 161.585C50.2351 162.665 49.1176 164.285 49.1176 166.445V168.065C49.1176 168.605 49.4901 168.875 50.2351 168.875H130.14C130.885 168.875 131.257 168.605 131.257 168.065V165.635C131.257 164.015 130.14 162.665 127.905 161.585C130.885 158.48 132.375 155.375 132.375 152.27V151.46C132.375 147.072 129.953 142.077 125.111 136.475C126.601 136.475 127.346 135.665 127.346 134.045V133.64C127.346 131.885 125.856 130.67 122.876 129.995C111.328 115.212 105.554 101.037 105.554 87.47V87.065H112.818C115.891 87.065 117.94 85.445 118.964 82.205C118.964 78.6275 116.543 76.4675 111.7 75.725H107.23C107.23 67.22 110.396 59.39 116.729 52.235C123.435 47.915 126.787 44.945 126.787 43.325C125.577 39.005 122.783 36.845 118.406 36.845C117.567 36.845 114.401 37.655 108.906 39.275C104.923 38.2251 102.191 37.5154 100.711 37.146Z" fill="#DEB6AB" />
    <path d="M100.711 37.146L99.0239 34.6654L93.484 38.4338L99.9846 40.0566L100.711 37.146ZM80.9045 36.8754L82.2053 39.5787L86.7252 37.4038L82.6708 34.4505L80.9045 36.8754ZM72.5863 39.275L71.6347 42.1201L72.0979 42.275H72.5863V39.275ZM55.2641 43.325L52.3077 42.8151L52.1649 43.6433L52.4731 44.4252L55.2641 43.325ZM56.3816 46.16L53.5907 47.2602L53.9651 48.2099L54.841 48.7342L56.3816 46.16ZM74.8211 75.725V78.725H77.8211V75.725H74.8211ZM61.9691 80.99L59.1569 79.9453L58.9691 80.4508V80.99H61.9691ZM66.9984 87.065L65.8778 89.8478L66.4171 90.065H66.9984V87.065ZM76.4974 87.065H79.4974V84.065H76.4974V87.065ZM59.7343 129.59L60.7564 132.411L61.5917 132.108L62.1274 131.399L59.7343 129.59ZM54.1466 134.045H51.1466V134.702L51.421 135.298L54.1466 134.045ZM56.3816 136.475L58.5184 138.581L63.5501 133.475H56.3816V136.475ZM52.4702 161.585L53.7754 164.286L57.1387 162.661L54.8261 159.728L52.4702 161.585ZM127.905 161.585L125.74 159.508L122.88 162.488L126.599 164.286L127.905 161.585ZM125.111 136.475V133.475H118.552L122.841 138.437L125.111 136.475ZM122.876 129.995L120.512 131.842L121.17 132.685L122.213 132.921L122.876 129.995ZM105.554 87.065V84.065H102.554V87.065H105.554ZM118.964 82.205L121.825 83.1093L121.964 82.6679V82.205H118.964ZM111.7 75.725L112.155 72.7597L111.929 72.725H111.7V75.725ZM107.23 75.725H104.23V78.725H107.23V75.725ZM116.729 52.235L115.104 49.7131L114.757 49.937L114.483 50.2467L116.729 52.235ZM126.787 43.325H129.787V42.9126L129.676 42.5156L126.787 43.325ZM108.906 39.275L108.142 42.1759L108.952 42.3894L109.755 42.1525L108.906 39.275ZM103 28C103 30.4683 101.622 32.8983 99.0239 34.6654L102.399 39.6265C106.272 36.9914 109 32.8601 109 28H103ZM91 19C98.2867 19 103 23.6195 103 28H109C109 19.1256 100.282 13 91 13V19ZM79 28C79 23.6195 83.7133 19 91 19V13C81.7182 13 73 19.1256 73 28H79ZM82.6708 34.4505C80.2692 32.7012 79 30.3721 79 28H73C73 32.6618 75.5133 36.6599 79.1382 39.3003L82.6708 34.4505ZM72.5863 42.275C75.4608 42.275 78.7101 41.2606 82.2053 39.5787L79.6036 34.1721C76.4499 35.6897 74.1534 36.275 72.5863 36.275V42.275ZM64.2045 39.845C64.0152 39.845 64.0313 39.819 64.4779 39.9212C64.8417 40.0045 65.3512 40.139 66.0232 40.3339C67.3627 40.7222 69.2276 41.3149 71.6347 42.1201L73.538 36.4299C71.1019 35.6151 69.1483 34.9928 67.6939 34.5711C66.9689 34.361 66.3376 34.1917 65.8167 34.0725C65.3786 33.9722 64.7662 33.845 64.2045 33.845V39.845ZM58.2204 43.8349C58.4871 42.2886 59.0807 41.4288 59.8185 40.8941C60.6228 40.3111 61.9741 39.845 64.2045 39.845V33.845C61.2196 33.845 58.4732 34.4589 56.2974 36.0359C54.0551 37.6612 52.7861 40.0414 52.3077 42.8151L58.2204 43.8349ZM59.1726 45.0598L58.055 42.2248L52.4731 44.4252L53.5907 47.2602L59.1726 45.0598ZM77.8211 75.32C77.8211 61.9707 70.9227 51.3667 57.9223 43.5858L54.841 48.7342C66.4267 55.6683 71.8211 64.5043 71.8211 75.32H77.8211ZM77.8211 75.725V75.32H71.8211V75.725H77.8211ZM68.6747 78.725H74.8211V72.725H68.6747V78.725ZM64.7814 82.0347C65.3004 80.6374 65.911 79.8446 66.4761 79.4008C67.0049 78.9857 67.6822 78.725 68.6747 78.725V72.725C66.5008 72.725 64.4773 73.3418 62.7708 74.6817C61.1008 75.9929 59.9417 77.8326 59.1569 79.9453L64.7814 82.0347ZM64.9691 82.205V80.99H58.9691V82.205H64.9691ZM68.119 84.2822C66.6252 83.6806 65.7614 83.1152 65.3112 82.6801C65.0996 82.4757 65.0186 82.3375 64.9905 82.2788C64.968 82.2317 64.9691 82.2168 64.9691 82.205H58.9691C58.9691 84.1461 59.8645 85.7605 61.142 86.9949C62.3683 88.1799 64.0192 89.0994 65.8778 89.8478L68.119 84.2822ZM76.4974 84.065H66.9984V90.065H76.4974V84.065ZM62.1274 131.399C73.5544 116.284 79.4974 101.487 79.4974 87.065H73.4974C73.4974 99.7778 68.2646 113.331 57.3412 127.781L62.1274 131.399ZM57.1466 134.045C57.1466 134.515 56.8492 134.512 57.4137 134.062C57.9766 133.613 59.0254 133.038 60.7564 132.411L58.7122 126.77C56.718 127.492 54.9729 128.334 53.6733 129.371C52.3752 130.405 51.1466 131.955 51.1466 134.045H57.1466ZM56.3816 133.475C56.7615 133.475 57.0637 133.583 57.2557 133.687C57.431 133.783 57.4979 133.865 57.4721 133.837C57.4488 133.811 57.3757 133.724 57.2628 133.54C57.1519 133.359 57.0204 133.114 56.8721 132.792L51.421 135.298C51.8538 136.24 52.3814 137.165 53.0561 137.898C53.7236 138.624 54.8374 139.475 56.3816 139.475V133.475ZM51 150.65C51 149.487 51.4381 147.895 52.6778 145.798C53.9083 143.717 55.8265 141.312 58.5184 138.581L54.2449 134.369C51.349 137.308 49.0764 140.1 47.5131 142.744C45.9588 145.373 45 148.033 45 150.65H51ZM54.8261 159.728C52.1099 156.282 51 153.274 51 150.65H45C45 155.045 46.8702 159.328 50.1143 163.442L54.8261 159.728ZM52.1176 166.445C52.1176 165.911 52.2456 165.574 52.4252 165.314C52.6212 165.029 53.0055 164.658 53.7754 164.286L51.165 158.884C49.6998 159.592 48.4077 160.571 47.4863 161.907C46.5483 163.266 46.1176 164.819 46.1176 166.445H52.1176ZM52.1176 168.065V166.445H46.1176V168.065H52.1176ZM50.2351 165.875C50.1355 165.875 50.6022 165.841 51.1576 166.243C51.4678 166.468 51.7372 166.784 51.913 167.166C52.0813 167.532 52.1176 167.857 52.1176 168.065H46.1176C46.1176 169.106 46.5293 170.299 47.6363 171.102C48.5642 171.774 49.5897 171.875 50.2351 171.875V165.875ZM130.14 165.875H50.2351V171.875H130.14V165.875ZM128.257 168.065C128.257 167.857 128.294 167.532 128.462 167.166C128.638 166.784 128.907 166.468 129.217 166.243C129.773 165.841 130.24 165.875 130.14 165.875V171.875C130.785 171.875 131.811 171.774 132.739 171.102C133.846 170.299 134.257 169.106 134.257 168.065H128.257ZM128.257 165.635V168.065H134.257V165.635H128.257ZM126.599 164.286C127.479 164.711 127.914 165.086 128.108 165.321C128.261 165.505 128.257 165.583 128.257 165.635H134.257C134.257 162.311 131.867 160.168 129.21 158.884L126.599 164.286ZM129.375 152.27C129.375 154.343 128.394 156.743 125.74 159.508L130.069 163.662C133.376 160.217 135.375 156.407 135.375 152.27H129.375ZM129.375 151.46V152.27H135.375V151.46H129.375ZM122.841 138.437C127.511 143.84 129.375 148.146 129.375 151.46H135.375C135.375 145.999 132.396 140.315 127.381 134.513L122.841 138.437ZM124.346 134.045C124.346 134.452 124.247 134.197 124.58 133.836C124.745 133.656 124.93 133.552 125.067 133.503C125.186 133.459 125.22 133.475 125.111 133.475V139.475C126.386 139.475 127.874 139.117 128.995 137.899C130.072 136.728 130.346 135.258 130.346 134.045H124.346ZM124.346 133.64V134.045H130.346V133.64H124.346ZM122.213 132.921C123.49 133.21 124.098 133.546 124.333 133.738C124.429 133.816 124.417 133.832 124.385 133.77C124.371 133.742 124.36 133.71 124.353 133.679C124.346 133.65 124.346 133.634 124.346 133.64H130.346C130.346 131.767 129.492 130.203 128.125 129.087C126.87 128.064 125.243 127.455 123.539 127.069L122.213 132.921ZM102.554 87.47C102.554 101.922 108.707 116.731 120.512 131.842L125.24 128.148C113.949 113.694 108.554 100.153 108.554 87.47H102.554ZM102.554 87.065V87.47H108.554V87.065H102.554ZM112.818 84.065H105.554V90.065H112.818V84.065ZM116.104 81.3007C115.719 82.519 115.23 83.1561 114.799 83.4967C114.394 83.8169 113.803 84.065 112.818 84.065V90.065C114.906 90.065 116.876 89.5032 118.52 88.2033C120.138 86.9239 121.186 85.131 121.825 83.1093L116.104 81.3007ZM111.246 78.6903C113.366 79.0155 114.542 79.5968 115.151 80.1406C115.654 80.5893 115.964 81.1733 115.964 82.205H121.964C121.964 79.6592 121.064 77.3745 119.145 75.6632C117.334 74.0469 114.877 73.177 112.155 72.7597L111.246 78.6903ZM107.23 78.725H111.7V72.725H107.23V78.725ZM114.483 50.2467C107.729 57.8777 104.23 66.396 104.23 75.725H110.23C110.23 68.044 113.064 60.9024 118.976 54.2233L114.483 50.2467ZM123.787 43.325C123.787 42.7705 124.031 42.6198 123.736 43.0236C123.495 43.354 123.041 43.8506 122.283 44.5219C120.777 45.8566 118.411 47.5826 115.104 49.7131L118.354 54.7569C121.752 52.5674 124.416 50.6484 126.262 49.0131C127.18 48.1994 127.984 47.3797 128.581 46.5626C129.124 45.8189 129.787 44.6895 129.787 43.325H123.787ZM118.406 39.845C120.093 39.845 121.193 40.2539 121.949 40.8384C122.712 41.4284 123.42 42.4261 123.898 44.1345L129.676 42.5156C128.944 39.9039 127.649 37.6616 125.619 36.0916C123.581 34.5161 121.096 33.845 118.406 33.845V39.845ZM109.755 42.1525C112.489 41.3464 114.614 40.7507 116.146 40.3589C116.913 40.1625 117.505 40.0244 117.935 39.9373C118.439 39.8354 118.529 39.845 118.406 39.845V33.845C117.864 33.845 117.243 33.9558 116.746 34.0564C116.175 34.1719 115.474 34.3375 114.659 34.5461C113.024 34.9643 110.818 35.5836 108.058 36.3975L109.755 42.1525ZM99.9846 40.0566C101.443 40.4207 104.157 41.1256 108.142 42.1759L109.671 36.3741C105.689 35.3246 102.94 34.6102 101.438 34.2353L99.9846 40.0566Z" fill="black" mask="url(#wqpath-1-outside-1_3_40)" />
    <path d="M80.9045 36.8754C77.8912 34.6806 76 31.517 76 28C76 21.5907 82.281 16.355 90.1874 16.0173V168.875H50.2351C49.4901 168.875 49.1176 168.605 49.1176 168.065V166.445C49.1176 164.285 50.2351 162.665 52.4702 161.585C49.4901 157.805 48 154.16 48 150.65C48 146.87 50.7939 142.145 56.3816 136.475C55.6366 136.475 54.8916 135.665 54.1466 134.045C54.1466 132.425 56.0091 130.94 59.7343 129.59C70.9095 114.808 76.4974 100.632 76.4974 87.065H66.9984C63.6459 85.715 61.9691 84.095 61.9691 82.205V80.99C63.273 77.48 65.5084 75.725 68.6747 75.725H74.8211V75.32C74.8211 63.2375 68.6747 53.5175 56.3816 46.16L55.2641 43.325C56.0091 39.005 58.9892 36.845 64.2045 36.845C64.9493 36.845 67.7432 37.655 72.5863 39.275C74.8071 39.275 77.58 38.4751 80.9045 36.8754Z" fill="#F8ECD1" />
  </g>
  <g id="wr" fill="none" transform="scale(0.2222222222222222 0.2222222222222222)">
    <path d="M53.2734 55.5H53.0098L52.762 55.5899L51.7073 55.9724L50.7188 56.3309V57.3825C50.7188 64.9514 54.3671 71.904 61.3205 78.2345C61.1182 78.4062 60.9287 78.5994 60.7529 78.812C60.0195 79.6988 59.5313 80.9047 59.1981 82.2859L59.1562 82.4593V82.6376C59.1562 84.3301 60.0008 85.6772 61.4075 86.613C62.4167 87.2843 63.7212 87.7547 65.2529 88.0734C64.9736 89.8668 64.5268 93.0266 63.9161 97.502C63.0686 103.713 61.8947 112.545 60.3946 123.995H59.0742H58.8237L58.5868 124.076C56.6727 124.734 55.1376 125.805 54.1266 127.354L53.8828 127.728V128.174V130.469V130.897L54.108 131.26C54.5051 131.9 54.9738 132.484 55.5211 132.937C52.8249 136.025 50.7214 138.766 49.232 141.155C47.5264 143.891 46.5 146.359 46.5 148.454V150.75C46.5 153.763 48.0176 157.155 50.704 160.859C48.3598 163.045 47.0273 165.542 47.0273 168.352C47.0273 168.936 47.1587 169.654 47.6864 170.228C48.2363 170.826 48.9652 171 49.582 171H130.266H130.529L130.777 170.91L131.832 170.528L132.82 170.169V169.117C132.82 165.804 131.571 163.092 129.136 161.087C130.545 158.872 131.649 156.85 132.434 155.026C133.354 152.89 133.875 150.939 133.875 149.22C133.875 147.06 132.988 144.53 131.451 141.71C130.011 139.067 127.929 136.04 125.228 132.636C125.606 132.223 125.922 131.857 126.17 131.541C126.367 131.292 126.547 131.042 126.685 130.804C126.782 130.637 127.019 130.217 127.019 129.704C127.019 127.798 126.093 126.286 124.466 125.274C123.209 124.492 121.549 124.01 119.581 123.753C119.445 121.673 119.058 118.104 118.439 113.113C117.683 107.018 116.567 98.7063 115.092 88.1801C117.162 87.7618 118.934 86.5662 120.377 84.7046L120.691 84.2989V83.7857V81.4896V81.1619L120.554 80.864C120.389 80.5041 120.136 80.1941 119.907 79.9498C119.662 79.6891 119.364 79.4179 119.028 79.1393C118.723 78.8865 118.371 78.6137 117.972 78.3214C125.251 72.0363 129.129 65.3147 129.129 58.1481C129.129 57.5648 128.998 56.8471 128.47 56.2725C127.92 55.6737 127.191 55.5 126.575 55.5H107.59H107.327L107.079 55.5898L106.024 55.9723L104.902 56.3788L105.046 57.5629C105.397 60.464 105.661 62.6766 105.836 64.2026C105.873 64.5211 105.905 64.8089 105.934 65.0664H100.178C100.298 63.2467 100.618 60.9119 101.154 58.0411L101.365 56.9145L100.333 56.4153L98.7507 55.6497L98.4412 55.5H98.0974H81.75H81.4061L81.0965 55.6498L79.5148 56.4154L78.5157 56.8989L78.686 57.9958C79.1836 61.1997 79.4937 63.5411 79.6341 65.0664H73.8538C73.9977 63.5736 74.306 61.2314 74.7957 57.9896L74.8125 57.8782V57.7656C74.8125 57.0779 74.5073 56.4444 73.9301 56.0253C73.4386 55.6685 72.8626 55.5486 72.3929 55.5061L72.3255 55.5H72.2578H53.2734Z" fill="#DEB6AB" stroke="black" stroke-width="3" />
    <path d="M53.2734 57H72.2578C72.9609 57.0636 73.3125 57.3189 73.3125 57.7656C72.6094 62.4208 72.2578 65.3548 72.2578 66.5664H81.2224C81.2224 65.2271 80.8714 62.2931 80.1682 57.7656L81.75 57H89.9237V169.5H49.582C48.8789 169.5 48.5273 169.117 48.5273 168.352C48.5273 165.737 49.9336 163.314 52.7461 161.082C49.582 157 48 153.556 48 150.75V148.454C48 145.138 51.3398 139.781 58.0195 132.383C57.0528 132.383 56.1739 131.745 55.3828 130.469V128.174C56.1739 126.961 57.4043 126.069 59.0742 125.495H61.7109C64.875 101.324 66.6328 88.4415 66.9844 86.8468C62.7656 86.2731 60.6562 84.8696 60.6562 82.6376C61.2716 80.0867 62.3263 78.8115 63.8203 78.8115V78.4284C56.0859 71.9237 52.2188 64.9082 52.2188 57.3825L53.2734 57Z" fill="#F8ECD1" />
  </g>
</svg>