<svg xmlns="http://www.w3.org/2000/svg" width="40" height="40" viewbox="0.0 0.0 180.0 180.0">
  <g id="bb" fill="none" transform="scale(0.2222222222222222 0.2222222222222222)">
    <path d="M70.1331 112.865C69.3039 115.059 68.7431 116.425 68.4506 116.962C68.2065 117.498 67.6946 118.864 66.9139 121.06C81.2064 116.767 94.8403 116.889 107.816 121.425C107.035 119.181 106.304 116.182 105.621 112.425C100.206 113.596 94.5231 114.279 88.5718 114.474C82.6695 114.621 76.5236 114.084 70.1331 112.865ZM87.0356 126.108C83.3771 126.108 79.4503 126.084 75.2552 126.035C71.109 125.986 69.0356 126.474 69.0356 127.498C69.0356 128.571 71.109 129.206 75.2552 129.4C79.4503 129.596 83.3771 129.693 87.0356 129.693C90.5962 129.693 94.4741 129.669 98.6693 129.62C102.913 129.571 105.035 129.011 105.035 127.937C105.035 126.864 102.913 126.303 98.6693 126.254C94.4741 126.157 90.5962 126.108 87.0356 126.108ZM105.401 69.6943C104.474 69.6943 102.377 69.6943 99.1086 69.6943C95.8404 69.6943 93.2546 69.597 91.3523 69.4018V58.4994H80.9623V69.2556C79.6455 69.2556 77.3286 69.2556 74.0115 69.2556C70.6944 69.2066 68.2307 69.1824 66.6214 69.1824V79.4993C69.0114 79.6455 71.0601 79.6939 72.7673 79.6455C74.5234 79.5476 77.2554 79.4993 80.9623 79.4993V89.2305H91.3523V79.2793C96.2303 79.2793 99.5473 79.3041 101.303 79.353C103.06 79.353 104.474 79.3283 105.547 79.2793L105.401 69.6943ZM93.8402 140.742C95.0597 141.474 95.8646 141.986 96.255 142.278C96.6448 142.571 98.5961 143.181 102.108 144.107C110.888 144.107 116.328 143.62 118.425 142.644C120.571 141.668 124.401 141.547 129.913 142.278C136.498 143.4 140.669 144.278 142.425 144.912C144.181 145.498 147.693 147.181 152.961 149.961C152.961 151.473 152.985 153.863 153.034 157.132C153.132 160.4 153.181 162.766 153.181 164.229C150.742 163.497 147.62 162.23 143.815 160.424C140.059 158.619 136.766 157.449 133.937 156.912C128.669 155.156 124.108 154.473 120.254 154.864C116.449 155.254 110.254 155.522 101.669 155.669C96.3523 154.449 91.9378 151.815 88.4256 147.766C88.4256 146.693 88.4256 145.62 88.4256 144.547C88.4256 143.425 88.4256 142.327 88.4256 141.254C87.6938 141.254 87.1819 141.23 86.8888 141.181C86.8888 142.303 86.8888 143.425 86.8888 144.547C86.8888 145.62 86.8888 146.693 86.8888 147.766C85.0354 148.547 83.6696 149.595 82.7916 150.913C81.9135 152.18 78.6212 153.717 72.9135 155.522C65.1578 155.473 60.0114 155.156 57.4751 154.571C54.9384 153.937 50.8409 153.986 45.1825 154.717C42.3045 155.254 38.3777 156.839 33.4023 159.473C28.4755 162.107 24.8414 163.79 22.5 164.522C22.5 163.01 22.5 160.717 22.5 157.644C22.5 154.571 22.5 152.254 22.5 150.693C25.0853 150.254 28.5974 148.912 33.0364 146.669C37.5241 144.425 41.0851 142.913 43.7191 142.132C49.6703 140.912 54.5238 140.547 58.2801 141.035C62.0359 141.473 66.7676 142.205 72.4748 143.229C75.4014 143.327 77.3528 143.083 78.3281 142.498C79.3041 141.913 80.4504 141.254 81.7672 140.522C78.3529 139.742 74.1577 138.449 69.1819 136.644C64.2066 134.84 59.8894 132.352 56.2311 129.181C57.987 125.62 59.2554 122.376 60.0362 119.45C60.8164 116.522 61.8165 113.596 63.036 110.669C53.3775 99.4011 48.2312 91.5722 47.5971 87.1819C47.0118 82.7426 47.0118 77.8163 47.5971 72.4016C51.2556 65.2798 55.4506 59.5238 60.1824 55.1336C64.9626 50.7434 71.1332 45.402 78.6943 39.1094C75.5724 37.207 74.0115 34.5242 74.0115 31.0608C74.0115 28.7194 75.4504 26.7194 78.3281 25.0609C81.2548 23.3536 83.8648 22.5 86.1576 22.5C88.3524 22.5 90.6941 23.5 93.1815 25.4999C95.6694 27.4511 96.9131 29.5974 96.9131 31.9388C96.9131 34.5729 95.3522 37.1827 92.2303 39.768C101.108 46.4996 107.864 51.8165 112.498 55.7189C117.181 59.6211 121.425 65.6213 125.23 73.7184C125.035 79.1331 124.669 84.06 124.133 88.4987C123.596 92.889 119.45 99.6936 111.693 108.913C113.108 112.084 114.035 115.23 114.474 118.352C114.962 121.474 115.718 124.937 116.742 128.742C113.376 132.059 109.572 134.718 105.328 136.717C101.084 138.718 97.2546 140.059 93.8402 140.742Z" fill="#1A1A2E" />
    <path d="M70.1336 112.865C69.3045 115.059 68.7431 116.425 68.4506 116.962C68.2065 117.498 67.6946 118.864 66.9139 121.059C81.2064 116.767 94.8403 116.889 107.816 121.425C107.035 119.181 106.303 116.181 105.621 112.425C100.206 113.596 94.5236 114.279 88.5724 114.474C82.67 114.62 76.5236 114.084 70.1336 112.865ZM87.0356 126.108C83.3771 126.108 79.4503 126.083 75.2552 126.035C71.109 125.986 69.0362 126.474 69.0362 127.498C69.0362 128.571 71.109 129.205 75.2552 129.4C79.4503 129.596 83.3771 129.693 87.0356 129.693C90.5968 129.693 94.4747 129.669 98.6698 129.62C102.913 129.571 105.036 129.01 105.036 127.937C105.036 126.864 102.913 126.303 98.6698 126.254C94.4747 126.156 90.5968 126.108 87.0356 126.108ZM105.401 69.6943C104.474 69.6943 102.377 69.6943 99.1085 69.6943C95.8404 69.6943 93.2552 69.597 91.3528 69.4018V58.4995H80.9629V69.255C79.6455 69.255 77.3285 69.255 74.0115 69.255C70.6944 69.2066 68.2312 69.1819 66.6214 69.1819V79.4987C69.0114 79.6455 71.0606 79.6939 72.7678 79.6449C74.5239 79.5476 77.2554 79.4987 80.9629 79.4987V89.2305H91.3528V79.2793C96.2308 79.2793 99.5479 79.3041 101.304 79.3524C103.06 79.3524 104.474 79.3283 105.547 79.2793L105.401 69.6943Z" fill="#E94560" />
  </g>
  <g id="bk" fill="none" transform="scale(0.2222222222222222 0.2222222222222222)">
    <path d="M60.39 131.532C60.1948 133.873 59.8775 134.678 59.4388 133.946C58.9995 133.215 58.8043 134.141 58.8532 136.726C69.3894 133.653 79.7068 132.312 89.8037 132.702C99.95 133.044 109.876 134.678 119.584 137.604C119.681 135.995 119.706 135.117 119.657 134.97C119.608 134.776 119.535 133.775 119.438 131.97C111.974 130.019 103.023 128.824 92.5847 128.385C82.1458 127.946 71.4139 128.995 60.39 131.532ZM87.4625 45.8501C88.2917 45.6062 89.1939 46.4599 90.1698 48.411C91.1942 50.3622 91.7066 51.9963 91.7066 53.3134C91.7066 54.6304 91.1942 58.8009 90.1698 65.8254C89.1939 72.8494 88.4137 76.2396 87.8282 75.996C87.2432 75.7519 86.3893 71.9961 85.2677 64.728C84.1455 57.4594 83.5847 53.3621 83.5847 52.4354C83.5847 51.5085 83.9992 50.2647 84.8284 48.7037C85.7064 47.094 86.5845 46.1428 87.4625 45.8501ZM123.096 60.7033C129.486 61.5814 133.266 64.4349 134.437 69.2646C135.657 74.0447 136.267 77.7763 136.267 80.4594C136.364 82.5081 134.608 86.7516 130.998 93.1905C127.389 99.6294 122.681 106.117 116.877 112.654C113.56 113.044 110.072 113.02 106.413 112.58C102.804 112.142 99.3161 111.751 95.9501 111.41C96.3405 104.239 97.3406 97.7029 98.9499 91.8006C100.609 85.8493 102.292 80.2643 103.999 75.0448C105.706 72.1181 107.755 68.7763 110.145 65.0205C112.584 61.2641 116.901 59.8253 123.096 60.7033ZM57.3165 61.5814C59.3657 61.5814 62.1461 62.6788 65.6578 64.8743C69.17 67.0202 71.4628 70.1179 72.536 74.1667C73.8045 78.7033 75.4138 85.3374 77.3651 94.0686C79.3654 102.751 80.0966 108.751 79.56 112.069C76.5849 112.312 73.463 112.727 70.1944 113.312C66.9262 113.898 64.0485 113.434 61.5605 111.922C55.1216 106.654 50.6095 100.995 48.0242 94.9466C45.4389 88.8981 44.1462 83.313 44.1462 78.1909C44.1462 74.142 45.8048 70.362 49.1218 66.8498C52.4388 63.3375 55.1704 61.5814 57.3165 61.5814ZM84.2428 16.875H92.1453V24.5578H100.633V30.1919H92.1453V37.3624C94.6817 37.3624 96.7792 37.7527 98.438 38.5332C100.145 39.3136 101.121 41.8258 101.365 46.0696C100.925 48.85 100.633 50.8744 100.487 52.1427C100.389 53.3621 99.8527 55.0207 98.8768 57.1179C101.852 53.7524 105.999 51.2646 111.316 49.6549C116.682 48.0452 122.071 47.7769 127.486 48.85C132.95 49.9232 137.876 52.5817 142.266 56.8254C146.706 61.0206 149.486 67.2154 150.608 75.4104C148.51 89.4105 144.559 99.4832 138.754 105.63C132.998 111.727 129.218 116.898 127.413 121.142C127.364 125.483 127.584 131.629 128.072 139.58C128.608 147.482 129.413 154.824 130.486 161.604C116.828 164.092 102.267 165.189 86.8039 164.897C71.3407 164.604 58.6339 163.824 48.6827 162.555C49.9998 154.848 50.6827 147.336 50.7315 140.019C50.7802 132.653 50.9997 126.409 51.39 121.288C50.4631 119.678 48.634 117.532 45.9023 114.849C43.2194 112.117 40.4877 108.8 37.7073 104.898C34.9268 100.995 32.5367 96.4592 30.5367 91.2881C28.5367 86.0687 27.7807 80.1664 28.2685 73.5812C29.3904 66.996 31.9025 61.7524 35.8049 57.8497C39.7073 53.8987 44.0487 51.2403 48.829 49.8744C53.6583 48.5086 58.4876 48.3866 63.3167 49.5086C68.1457 50.6305 72.0967 52.9231 75.1702 56.3867C74.2922 54.5816 73.7555 52.8987 73.5604 51.3378C73.4141 49.7281 73.0479 48.0451 72.4629 46.2891C73.1947 42.4355 74.804 39.9721 77.292 38.899C79.8283 37.8258 82.1458 37.2405 84.2428 37.1429V30.1919H75.7552V24.5578H84.2428V16.875ZM61.4874 57.5572C55.0485 55.9963 49.8046 57.411 45.7559 61.8008C41.7072 66.1427 39.1707 71.7519 38.1463 78.6302C38.7317 90.0444 41.8536 98.4831 47.512 103.947C53.1705 109.41 57.4144 113.703 60.2437 116.825C63.9022 116.678 67.5602 116.702 71.2187 116.898C74.9261 117.093 78.8771 116.776 83.0722 115.946C83.6578 108.239 83.1454 100.922 81.536 93.9954C79.9751 87.0199 78.0722 80.0932 75.8284 73.2156C74.219 68.7279 72.4382 65.4351 70.4874 63.3375C68.585 61.2399 65.5847 59.3134 61.4874 57.5572ZM122.071 56.6061C117.096 56.6061 113.072 57.5814 109.999 59.5328C106.975 61.4841 103.584 66.2642 99.828 73.8742C96.9502 81.9714 94.8527 88.7276 93.5358 94.1417C92.2674 99.5563 91.9012 106.703 92.4378 115.581C98.1939 115.581 103.877 116.044 109.487 116.971C115.145 117.849 118.34 117.8 119.072 116.825C124.096 110.63 128.535 104.825 132.388 99.4101C136.242 93.9471 139.218 87.7764 141.315 80.8982C141.754 77.4349 140.608 72.5327 137.876 66.1911C135.193 59.8011 129.925 56.6061 122.071 56.6061ZM87.8282 43.216C84.4627 43.655 82.0721 45.6062 80.658 49.0696C80.4139 51.7524 80.9994 57.0937 82.4135 65.0936C83.8772 73.0446 85.8285 79.8007 88.2675 85.3616C90.0236 80.6788 91.6087 74.1668 93.0234 65.8254C94.4381 57.4841 94.8527 52.1914 94.2671 49.9476C94.2671 48.6305 93.7305 47.2403 92.6578 45.7769C91.6329 44.3135 90.0236 43.4599 87.8282 43.216ZM56.8777 146.019C56.8777 146.604 56.8046 147.36 56.6584 148.287C56.5121 149.165 56.4384 149.897 56.4384 150.482C68.585 147.507 80.1214 146.092 91.0479 146.239C101.974 146.385 111.95 147.653 120.974 150.044C121.169 150.433 121.291 149.995 121.34 148.726C121.389 147.458 121.413 146.555 121.413 146.019C112.389 143.629 102.243 142.336 90.9748 142.141C79.7552 141.946 68.3899 143.238 56.8777 146.019Z" fill="#1A1A2E" />
    <path d="M60.39 131.532C60.1948 133.873 59.8775 134.678 59.4388 133.946C58.9995 133.215 58.8043 134.141 58.8532 136.726C69.3894 133.653 79.7062 132.312 89.8037 132.702C99.95 133.044 109.876 134.678 119.584 137.604C119.681 135.995 119.706 135.117 119.657 134.97C119.608 134.776 119.535 133.775 119.437 131.97C111.974 130.019 103.023 128.824 92.5841 128.385C82.1452 127.946 71.4138 128.995 60.39 131.532ZM87.4625 45.8501C88.2917 45.6062 89.1939 46.4598 90.1698 48.411C91.1941 50.3622 91.706 51.9963 91.706 53.3134C91.706 54.6304 91.1941 58.8009 90.1698 65.8254C89.1939 72.8494 88.4137 76.2395 87.8282 75.996C87.2432 75.7519 86.3893 71.996 85.2671 64.728C84.1455 57.4594 83.5847 53.3622 83.5847 52.4353C83.5847 51.5085 83.9992 50.2646 84.8283 48.7037C85.7064 47.094 86.5845 46.1428 87.4625 45.8501ZM123.096 60.7033C129.486 61.5814 133.266 64.4349 134.437 69.2645C135.656 74.0447 136.266 77.7763 136.266 80.4594C136.364 82.508 134.608 86.7515 130.998 93.1905C127.389 99.6294 122.681 106.117 116.877 112.654C113.56 113.044 110.072 113.02 106.413 112.58C102.804 112.142 99.3161 111.751 95.9501 111.41C96.3405 104.239 97.34 97.7029 98.9499 91.8005C100.609 85.8493 102.291 80.2642 103.999 75.0448C105.706 72.1181 107.755 68.7763 110.145 65.0205C112.584 61.2647 116.901 59.8252 123.096 60.7033ZM57.3165 61.5814C59.3651 61.5814 62.1455 62.6788 65.6578 64.8742C69.17 67.0202 71.4628 70.1179 72.536 74.1667C73.8039 78.7033 75.4138 85.3374 77.3651 94.0685C79.3648 102.751 80.0966 108.751 79.56 112.069C76.5843 112.312 73.4625 112.727 70.1943 113.312C66.9262 113.898 64.0485 113.434 61.5605 111.922C55.1215 106.654 50.6094 100.995 48.0241 94.9466C45.4388 88.898 44.1461 83.313 44.1461 78.1909C44.1461 74.142 45.8046 70.362 49.1216 66.8497C52.4386 63.3375 55.1703 61.5814 57.3165 61.5814ZM61.4874 57.5572C55.0484 55.9962 49.8046 57.411 45.7559 61.8013C41.7071 66.1427 39.1706 71.7519 38.1462 78.6302C38.7316 90.0444 41.8535 98.483 47.5119 103.947C53.1703 109.41 57.4143 113.703 60.2432 116.824C63.9017 116.678 67.5602 116.702 71.2187 116.898C74.9261 117.093 78.8771 116.776 83.0722 115.946C83.6578 108.239 83.1453 100.922 81.5355 93.9954C79.9745 87.0199 78.0722 80.0932 75.8283 73.2155C74.2185 68.7279 72.4382 65.435 70.4868 63.3375C68.5845 61.2399 65.5847 59.3134 61.4874 57.5572ZM122.071 56.606C117.096 56.606 113.071 57.5814 109.999 59.5327C106.974 61.484 103.584 66.2642 99.828 73.8742C96.9502 81.9714 94.8527 88.7276 93.5353 94.1417C92.2674 99.5563 91.9012 106.703 92.4378 115.581C98.1939 115.581 103.877 116.044 109.487 116.971C115.145 117.849 118.34 117.8 119.072 116.824C124.096 110.63 128.535 104.825 132.388 99.41C136.242 93.947 139.218 87.7764 141.315 80.8982C141.754 77.4349 140.608 72.5327 137.876 66.191C135.193 59.801 129.925 56.606 122.071 56.606ZM87.8282 43.216C84.4627 43.655 82.0721 45.6062 80.6574 49.0696C80.4138 51.7524 80.9988 57.0937 82.4135 65.0936C83.8772 73.0445 85.8285 79.8007 88.2675 85.3616C90.0236 80.6788 91.6087 74.1667 93.0234 65.8254C94.4381 57.4841 94.8527 52.1914 94.2671 49.9476C94.2671 48.6305 93.7305 47.2403 92.6572 45.7769C91.6329 44.3135 90.0236 43.4599 87.8282 43.216ZM56.8777 146.019C56.8777 146.604 56.8046 147.36 56.6583 148.287C56.5115 149.165 56.4384 149.897 56.4384 150.482C68.5845 147.507 80.1213 146.092 91.0479 146.239C101.974 146.385 111.95 147.653 120.974 150.043C121.169 150.433 121.291 149.995 121.34 148.726C121.389 147.458 121.413 146.555 121.413 146.019C112.389 143.629 102.243 142.336 90.9748 142.141C79.7552 141.946 68.3898 143.238 56.8777 146.019Z" fill="#E94560" />
  </g>
  <g id="bn" fill="none" transform="scale(0.2222222222222222 0.2222222222222222)">
    <path d="M43.7833 106.855C37.9785 107.587 35.6127 109.245 36.6858 111.831C37.4175 113.782 39.0273 114.099 41.515 112.782C44.0027 111.465 44.7589 109.49 43.7833 106.855ZM70.7828 61.2709C66.2951 61.0757 63.0023 62.3441 60.9047 65.0756C58.8561 67.7582 58.4904 70.4655 59.8072 73.1976C62.8318 73.3438 64.8073 73.0997 65.7343 72.4658C66.6608 71.7829 67.1974 69.8316 67.3436 66.6124C68.0265 65.5875 68.49 64.6121 68.7341 63.6851C68.9777 62.7098 69.6611 61.9048 70.7828 61.2709ZM93.9043 49.9295L93.9774 54.5392C103.929 61.1246 111.684 68.6363 117.245 77.0754C122.806 85.5141 126.928 94.3678 129.611 103.636C132.294 112.855 133.904 122.245 134.44 131.806C135.025 141.318 135.318 150.44 135.318 159.171H140.294C139.611 145.659 138.855 133.831 138.026 123.684C137.245 113.489 135.416 104.221 132.538 95.8798C129.66 87.5385 125.245 79.7338 119.294 72.4658C113.343 65.1977 104.88 57.6855 93.9043 49.9295ZM61.1977 165.098C61.0515 161.147 61.3193 156.879 62.0027 152.293C62.7339 147.66 63.7341 143.782 65.0025 140.659C68.661 135.391 71.4656 131.392 73.4169 128.66C75.4166 125.88 77.1244 123.465 78.5385 121.416C79.9532 119.367 81.3921 117.221 82.8557 114.977C84.3193 112.733 86.4169 109.441 89.1484 105.099C90.4168 99.8797 92.7337 95.0018 96.0992 90.4652C99.5141 85.8803 98.514 84.4166 93.0994 86.0754C91.9288 90.2216 91.4653 93.4897 91.7094 95.8798C91.953 98.2215 91.2701 100.904 89.6602 103.929C87.3191 107.148 84.0752 108.88 79.929 109.123C75.8312 109.367 70.7096 111.173 64.5632 114.538C62.6608 116.587 60.9536 118.904 59.4416 121.489C57.978 124.075 56.1489 126.44 53.9538 128.586C51.1734 129.464 49.2222 129.44 48.1003 128.513C48.6856 127.635 49.4173 126.806 50.2953 126.026C51.1734 125.196 51.6855 124.001 51.8319 122.441C51.1002 123.319 49.8563 124.562 48.1003 126.172C46.393 127.733 44.515 128.099 42.4662 127.27C40.4175 126.099 37.5639 123.757 33.9054 120.245C30.2957 116.684 28.3689 113.831 28.125 111.684C29.2469 106.514 31.8323 99.9287 35.881 91.9288C39.9297 83.88 43.271 77.7336 45.9052 73.4901C47.0271 65.1488 49.2709 59.8072 52.6368 57.4661C56.0513 55.0757 59.4416 52.6123 62.8071 50.0758C60.1734 44.6124 58.2221 40.8808 56.9537 38.8808C55.7342 36.8321 55.783 35.1736 57.0999 33.9054C58.4173 33.4663 61.1241 34.4663 65.2219 36.9053C69.3191 39.2955 72.3437 41.8808 74.295 44.6613C75.7581 44.3198 76.2947 44.1735 75.9043 44.2222C75.5145 44.2711 75.6849 44.2955 76.4168 44.2955C77.2948 39.4663 77.4169 35.7103 76.7824 33.0274C76.1484 30.2957 76.563 28.6616 78.0266 28.125C83.7337 28.4177 87.5143 31.2713 89.3677 36.6858C91.2701 42.0516 92.5627 44.8564 93.2456 45.1003C100.807 47.832 106.489 50.7588 110.294 53.8806C114.148 56.9537 120.27 63.3684 128.66 73.1244C133.684 79.7096 137.611 88.1972 140.44 98.5871C143.318 108.977 145.367 119.099 146.586 128.953C147.854 138.806 148.464 147.293 148.416 154.415C148.367 161.537 147.952 165.098 147.171 165.098H61.1977Z" fill="#1A1A2E" />
    <path d="M43.7834 106.855C37.9786 107.587 35.6128 109.245 36.686 111.831C37.4177 113.782 39.0274 114.099 41.5152 112.782C44.0029 111.465 44.759 109.49 43.7834 106.855ZM70.7828 61.2709C66.2952 61.0757 63.0028 62.3436 60.9053 65.0756C58.8561 67.7582 58.4905 70.4655 59.8073 73.1976C62.8318 73.3438 64.8073 73.0997 65.7343 72.4658C66.6608 71.7829 67.1974 69.8316 67.3442 66.6118C68.0271 65.5875 68.49 64.6121 68.7342 63.6851C68.9783 62.7098 69.6612 61.9048 70.7828 61.2709ZM93.9043 49.9294L93.9775 54.5391C103.929 61.1246 111.684 68.6363 117.245 77.0755C122.806 85.5141 126.928 94.3678 129.611 103.636C132.294 112.855 133.904 122.245 134.44 131.806C135.026 141.318 135.318 150.44 135.318 159.171H140.294C139.611 145.659 138.855 133.831 138.026 123.684C137.245 113.489 135.416 104.221 132.538 95.8798C129.66 87.5385 125.245 79.7338 119.294 72.4658C113.343 65.1977 104.88 57.6855 93.9043 49.9294Z" fill="#E94560" />
  </g>
  <g id="bp" fill="none" transform="scale(0.2222222222222222 0.2222222222222222)">
    <path d="M87.1875 28.125C90.8139 28.125 94.0477 29.5336 96.8901 32.3507C99.7813 35.1678 101.227 38.5534 101.227 42.5072C101.227 48.4874 98.6788 52.639 93.5826 54.9619C99.6097 56.1481 104.437 59.1874 108.062 64.0806C111.689 68.9243 113.502 74.3856 113.502 80.4645C113.502 88.6191 110.17 95.1924 103.506 100.184C106.887 101.568 110.537 103.125 114.457 104.855C118.426 106.535 122.2 109.451 125.777 113.602C129.354 117.754 132.491 123.685 135.186 131.395C137.881 139.056 139.694 149.558 140.625 162.903C137.979 163.051 131.069 163.125 119.897 163.125C108.724 163.076 96.8901 163.026 84.3941 162.977C71.8987 162.928 60.5301 162.903 50.2884 162.903C40.0468 162.853 34.5341 162.853 33.75 162.903C34.5831 141.255 39.0178 125.983 47.0543 117.087C55.1397 108.142 62.7598 102.359 69.9143 99.7397C63.6418 94.7481 60.5053 88.3226 60.5053 80.4645C60.5053 74.3856 62.4656 68.8253 66.3857 63.7841C70.3552 58.6935 75.4267 55.5797 81.6013 54.443C76.3087 51.9224 73.6628 47.9438 73.6628 42.5073C73.6628 38.5534 75.0105 35.1679 77.7054 32.3507C80.4004 29.5336 83.5611 28.1251 87.1875 28.1251V28.125Z" fill="#1A1A2E" />
  </g>
  <g id="bq" fill="none" transform="scale(0.2222222222222222 0.2222222222222222)">
    <path d="M146.303 47.5825C152.302 47.68 155.473 51.4848 155.815 58.9967C155.62 64.899 151.864 67.5821 144.547 67.0455C141.181 78.021 137.791 88.6792 134.376 99.0208C130.961 109.313 128.449 114.459 126.84 114.459C126.84 118.411 126.718 125.117 126.474 134.581C126.23 144.044 127.352 151.898 129.84 158.141C116.571 160.434 102.426 161.434 87.4013 161.142C72.3774 160.849 60.0362 160.117 50.3776 158.946C51.8897 148.117 52.6946 139.654 52.7921 133.557C52.9385 127.41 53.0116 121.337 53.0116 115.337C51.2068 115.484 48.402 109.874 44.5972 98.5084C40.7923 87.1425 37.1095 75.6793 33.5486 64.1188C32.2315 64.3629 30.0608 63.9726 27.0365 62.9482C24.0122 61.875 22.5 59.2166 22.5 54.9726C22.6951 50.5336 24.0853 47.5581 26.6707 46.0459C29.256 44.5337 31.6218 43.7777 33.7681 43.7777C34.9388 43.7777 36.9632 44.363 39.8411 45.5337C42.7679 46.6557 44.2313 49.1434 44.2313 52.997C44.2801 55.7774 43.7435 57.8992 42.6216 59.3629C41.4997 60.8259 40.5241 61.8261 39.6948 62.3627C42.2314 66.3137 44.1825 69.3141 45.5484 71.3627C46.9142 73.3624 48.2069 75.3379 49.4264 77.2892C50.6946 79.1916 52.158 81.5332 53.8165 84.3137C55.475 87.0452 57.8897 91.0941 61.0605 96.4597C59.9872 87.8254 59.1092 78.5576 58.4263 68.6554C57.7434 58.7531 57.1089 52.2897 56.5239 49.2654C54.6702 49.2166 53.0848 48.1922 51.7678 46.1923C50.4995 44.1923 49.8653 42.6557 49.8653 41.5826C50.0117 37.7778 51.1093 35.0461 53.158 33.3876C55.2067 31.7291 57.5235 30.851 60.1093 30.7535C61.2799 30.7535 63.3285 31.1925 66.2552 32.0705C69.1819 32.9486 70.7676 35.5096 71.0111 39.7533C71.0111 40.7777 70.5724 42.3387 69.6943 44.4362C68.8652 46.5337 67.2795 47.8507 64.9384 48.3873C66.8407 52.1922 69.3287 59.1187 72.4016 69.1672C75.5235 79.1674 77.9867 86.2892 79.7917 90.5327L86.5232 41.5094C84.1821 41.6069 82.1818 40.5094 80.5236 38.2168C78.9137 35.9241 78.1087 34.2412 78.1087 33.1681C77.9625 29.9486 79.1331 27.3877 81.621 25.4853C84.1084 23.5341 86.8404 22.5586 89.8161 22.5586C92.5476 22.2658 95.0597 23.0707 97.3524 24.9731C99.6452 26.8267 100.767 29.3389 100.718 32.5096C100.718 33.973 100.157 35.7778 99.0354 37.9241C97.9133 40.0216 96.255 41.2167 94.0596 41.5094L100.425 91.6307L115.645 49.2654C114.474 48.68 113.23 47.7532 111.913 46.4849C110.645 45.2167 110.279 43.4118 110.815 41.0704C111.157 36.8754 112.84 34.2169 115.864 33.0949C118.888 31.973 120.986 31.412 122.157 31.412C123.328 31.412 125.425 32.2413 128.449 33.8998C131.523 35.5096 133.059 38.2656 133.059 42.1679C133.157 45.6801 132.181 47.9971 130.132 49.119C128.132 50.241 125.937 50.68 123.547 50.4361L118.205 96.7522L139.205 64.8506C137.986 64.1188 136.839 63.0214 135.766 61.5577C134.742 60.0947 134.351 58.6552 134.596 57.2411C134.986 54.4604 136.327 52.1434 138.62 50.2897C140.961 48.3874 143.522 47.4849 146.303 47.5825ZM58.2801 141.166C58.2801 141.752 58.2069 142.727 58.0601 144.093C57.9628 145.459 57.9139 146.41 57.9139 146.946C69.7185 144.264 81.0602 143.02 91.9378 143.215C102.864 143.361 112.718 144.532 121.498 146.727C121.645 145.849 121.571 144.849 121.279 143.727C120.986 142.557 120.84 141.727 120.84 141.239C112.06 139.044 102.23 137.874 91.3523 137.727C80.5236 137.532 69.4991 138.678 58.2801 141.166ZM58.4994 116.508C58.4994 117.386 58.5236 118.24 58.5726 119.069C58.6699 119.85 58.7188 120.655 58.7188 121.484C70.8159 118.557 80.9623 116.801 89.1574 116.215C97.3524 115.63 107.913 116.898 120.84 120.02C120.84 119.288 120.791 118.557 120.693 117.825C120.644 117.093 120.62 116.313 120.62 115.483C111.791 112.557 101.864 111.118 90.8404 111.167C79.8159 111.167 69.0356 112.947 58.4994 116.508ZM58.2801 129.166C58.2801 130.289 58.2801 131.191 58.2801 131.874C58.3284 132.557 58.3532 133.386 58.3532 134.362C68.0113 131.581 77.7431 129.922 87.5475 129.386C97.3524 128.849 108.401 130.191 120.693 133.41C120.791 131.947 120.766 131.264 120.62 131.362C120.523 131.459 120.449 130.654 120.401 128.947C109.864 126.459 99.5473 125.117 89.4499 124.923C79.3524 124.728 68.9625 126.142 58.2801 129.166Z" fill="#1A1A2E" />
    <path d="M58.28 141.166C58.28 141.752 58.2069 142.727 58.0601 144.093C57.9628 145.459 57.9138 146.41 57.9138 146.946C69.7184 144.264 81.0601 143.02 91.9378 143.215C102.864 143.361 112.718 144.532 121.498 146.727C121.645 145.849 121.571 144.849 121.279 143.727C120.986 142.557 120.84 141.727 120.84 141.239C112.06 139.044 102.23 137.874 91.3522 137.727C80.5235 137.532 69.4991 138.678 58.28 141.166ZM58.4994 116.508C58.4994 117.386 58.5236 118.24 58.5725 119.069C58.6698 119.85 58.7188 120.655 58.7188 121.484C70.8159 118.557 80.9623 116.801 89.1573 116.215C97.3524 115.63 107.913 116.898 120.84 120.02C120.84 119.288 120.791 118.557 120.693 117.825C120.644 117.093 120.62 116.313 120.62 115.484C111.791 112.557 101.864 111.118 90.8403 111.167C79.8159 111.167 69.0356 112.947 58.4994 116.508ZM58.28 129.166C58.28 130.289 58.28 131.191 58.28 131.874C58.3284 132.557 58.3531 133.386 58.3531 134.362C68.0113 131.581 77.7431 129.922 87.5474 129.386C97.3524 128.849 108.401 130.191 120.693 133.41C120.791 131.947 120.766 131.264 120.62 131.361C120.523 131.459 120.449 130.654 120.401 128.947C109.864 126.459 99.5473 125.117 89.4498 124.923C79.3524 124.728 68.9624 126.142 58.28 129.166Z" fill="#E94560" />
  </g>
  <g id="br" fill="none" transform="scale(0.2222222222222222 0.2222222222222222)">
    <path d="M33.75 163.333V147.748L42.3108 147.529V134.138L49.5546 133.992L60.7494 121.407V71.2131L51.6034 59.3595L46.0425 59.2133L46.1157 34.116H62.3593L62.4324 43.628L76.9933 43.7743L77.1396 33.7501H109.041L109.334 42.6036L121.7 42.7498V33.75H136.407V58.8471L130.26 58.9202L121.7 70.335V121.773L133.48 135.602L139.333 135.383V148.114H147.894V163.333H33.75ZM70.2613 60.0908C60.6032 60.0908 57.4813 60.6274 60.8957 61.7006C64.359 62.7739 67.7739 63.3105 71.1394 63.3105L115.114 63.3836C117.749 63.3836 120.139 62.847 122.285 61.7738C124.48 60.6521 122.212 60.0913 115.48 60.0913L70.2613 60.0908ZM63.2374 127.992L60.0176 130.773H122.138L120.09 127.992H63.2374ZM50.14 139.919V143.138H132.382L132.748 139.919H50.14ZM40.7011 153.894V156.309H142.992V153.894H40.7011ZM51.3838 51.0911L51.457 54.3106H131.87V51.0911H51.3838Z" fill="#1A1A2E" />
    <path d="M70.2619 60.0913C60.6032 60.0913 57.4813 60.6274 60.8963 61.7006C64.3596 62.7739 67.7739 63.3105 71.1399 63.3105L115.115 63.3836C117.749 63.3836 120.139 62.847 122.285 61.7737C124.48 60.6521 122.212 60.0913 115.48 60.0913H70.2619ZM63.2374 127.992L60.0182 130.773H122.139L120.09 127.992H63.2374ZM50.1401 139.919V143.138H132.383L132.748 139.919H50.1401ZM40.7013 153.894V156.309H142.992V153.894H40.7013ZM51.384 51.0912L51.4572 54.3107H131.87V51.0912H51.384Z" fill="#E94560" />
  </g>
  <g id="wb" fill="none" transform="scale(0.2222222222222222 0.2222222222222222)">
    <path d="M89.3677 32.1493C85.9534 32.6371 84.051 34.2224 83.6606 36.9053C84.4408 39.1492 86.4411 40.2223 89.6602 40.1248C92.4407 39.5882 94.0264 38.3199 94.4168 36.32C93.6849 33.7346 92.0019 32.3444 89.3677 32.1493ZM89.2946 46.1247C84.1725 49.149 79.0267 53.3441 73.8557 58.7098C68.7341 64.0266 64.368 70.2951 60.7584 77.5142C59.5389 82.9288 59.8314 87.246 61.6365 90.4652C63.4899 93.636 67.6119 99.2458 74.0019 107.294C82.0997 105.392 88.4408 104.612 93.0263 104.953C97.6118 105.294 102.831 105.928 108.685 106.855C111.904 101.831 114.196 98.1968 115.562 95.9529C116.928 93.6602 117.831 91.8309 118.27 90.4652C118.709 89.0994 118.879 87.7337 118.782 86.3679C118.684 85.0022 118.782 82.6605 119.075 79.3434C117.514 72.612 113.685 66.1972 107.587 60.1003C101.538 54.0026 95.4411 49.3441 89.2946 46.1247ZM89.6602 128.44C86.1486 128.44 82.0018 128.855 77.2217 129.684C72.441 130.514 70.0509 131.44 70.0509 132.465C70.0509 133.489 72.441 134.294 77.2217 134.879C82.0018 135.416 86.1486 135.684 89.6602 135.684C93.1236 135.684 97.0504 135.343 101.441 134.66C105.879 133.977 108.099 133.123 108.099 132.099C108.099 131.074 105.879 130.221 101.441 129.538C97.0504 128.806 93.1236 128.44 89.6602 128.44ZM107.514 74.7338L107.44 84.6849C106.465 84.7339 105.172 84.7581 103.562 84.7581C102.002 84.7091 98.8796 84.6849 94.1968 84.6849V93.8312H84.2456V84.7581C80.7339 84.7581 78.1729 84.807 76.563 84.9043C74.9531 84.9532 73.0024 84.9043 70.7096 84.7581V75.0268C72.3679 75.0268 74.7096 75.0268 77.7336 75.0268C80.8071 75.0268 82.9778 75.0268 84.2456 75.0268V64.6363H94.1968L94.1237 74.7338C95.0991 74.88 97.3918 74.9289 101.001 74.88C104.611 74.7827 106.782 74.7338 107.513 74.7338H107.514ZM96.6116 141.61C97.7822 142.294 98.5382 142.782 98.8796 143.074C99.27 143.367 101.148 143.952 104.514 144.83C112.953 144.83 118.196 144.367 120.245 143.44C122.294 142.464 125.952 142.342 131.221 143.074C137.513 144.147 141.513 144.977 143.22 145.562C144.928 146.147 148.318 147.781 153.391 150.464C153.391 151.928 153.342 154.22 153.245 157.342C153.196 160.464 153.172 162.757 153.172 164.22C150.83 163.488 147.903 162.245 144.391 160.489C140.928 158.732 137.83 157.61 135.098 157.123C130.074 155.464 125.709 154.83 122.001 155.22C118.343 155.562 112.392 155.806 104.148 155.952C99.0748 154.781 94.8313 152.269 91.4164 148.416C91.4164 147.391 91.4164 146.342 91.4164 145.269C91.4164 144.196 91.4164 143.147 91.4164 142.123C90.7335 142.123 90.2216 142.099 89.8802 142.05C89.8802 143.123 89.8802 144.196 89.8802 145.269C89.8802 146.293 89.8802 147.318 89.8802 148.342C88.1241 149.074 86.8314 150.074 86.0017 151.342C85.1726 152.562 82.0266 154.05 76.563 155.806C69.0998 155.806 64.1486 155.513 61.7096 154.928C59.2706 154.293 55.344 154.318 49.9295 155.001C47.149 155.537 43.3686 157.074 38.5882 159.611C33.8566 162.098 30.3689 163.708 28.125 164.44C28.125 162.976 28.125 160.781 28.125 157.854C28.125 154.879 28.125 152.659 28.125 151.196C30.6128 150.757 34.003 149.464 38.2956 147.318C42.5882 145.172 45.9784 143.733 48.4661 143.001C54.1733 141.83 58.8319 141.464 62.4414 141.904C66.051 142.342 70.6123 143.05 76.1243 144.025C78.9047 144.123 80.7581 143.903 81.6851 143.367C82.6116 142.782 83.7096 142.123 84.9774 141.391C81.7093 140.659 77.6852 139.44 72.9045 137.733C68.1733 135.976 64.0513 133.562 60.5391 130.489C62.1489 127.123 63.3437 124.026 64.1244 121.196C64.9046 118.367 65.8806 115.562 67.0511 112.782C57.7344 101.953 52.7831 94.4409 52.1978 90.2458C51.6612 86.0017 51.6612 81.2706 52.1978 76.0511C54.9294 68.1975 58.6856 62.0269 63.4657 57.5393C68.2464 53.0514 74.4412 48.5393 82.0507 44.0027C79.0751 42.7345 77.5873 40.1979 77.5873 36.3931C77.5873 34.1493 78.9778 32.2225 81.7582 30.6128C84.5387 28.9542 87.0266 28.125 89.2215 28.125C91.368 28.125 93.636 29.0762 96.0261 30.9786C98.4167 32.881 99.6114 34.9541 99.6114 37.198C99.6114 40.6614 98.0994 43.1491 95.0749 44.6613C104.392 49.3441 111.416 53.9538 116.148 58.4904C120.928 63.027 124.465 69.2949 126.757 77.2948C126.562 82.4653 126.538 86.8798 126.684 90.5383C126.879 94.1484 122.562 100.977 113.733 111.026C115.05 114.099 115.928 117.148 116.367 120.172C116.855 123.148 117.611 126.465 118.636 130.123C115.416 133.294 111.758 135.855 107.66 137.806C103.611 139.708 99.9287 140.977 96.6116 141.61ZM32.442 154.781C32.0029 154.977 31.881 155.586 32.0761 156.611C32.2712 157.586 32.5395 157.928 32.8809 157.635C40.7833 152.22 47.1734 149.464 52.0513 149.367C56.9779 149.221 62.9539 149.391 69.9778 149.879C72.8072 149.879 75.8559 149.659 79.1241 149.221C82.4411 148.781 85.4167 147.684 88.0509 145.928C88.0509 144.659 88.0509 144.172 88.0509 144.465C88.0509 144.757 88.0509 144.611 88.0509 144.025C84.2946 145.977 81.0996 147.05 78.4654 147.245C75.8801 147.391 73.1976 147.464 70.4171 147.464C62.856 146.977 56.4902 147.196 51.3196 148.123C46.1978 149.001 39.9052 151.22 32.442 154.781ZM148.489 153.757C142.342 150.196 136.733 148.147 131.66 147.611C126.636 147.074 119.904 147.342 111.465 148.416C108.685 148.952 106.416 149.098 104.66 148.854C102.953 148.562 99.6604 146.952 94.7824 144.025C94.7824 144.611 94.7824 145.196 94.7824 145.781C94.7824 146.318 94.7824 146.855 94.7824 147.391C98.0994 149.879 100.904 151.123 103.197 151.123C105.49 151.074 108.075 151.05 110.953 151.05C118.514 150.318 124.66 149.732 129.391 149.294C134.172 148.854 140.538 151.318 148.489 156.684C148.781 156.879 148.927 156.513 148.927 155.586C148.927 154.61 148.781 154.001 148.489 153.757ZM72.6851 113.88L68.0023 126.757C74.4902 124.855 81.612 123.757 89.3677 123.465C97.1235 123.172 104.148 124.124 110.441 126.318C109.904 124.855 109.514 122.709 109.27 119.879C109.075 117.05 108.758 114.904 108.318 113.441L72.6851 113.88Z" fill="#0F3460" />
    <path d="M89.3678 32.1493C85.9534 32.6371 84.051 34.2225 83.6606 36.9053C84.4414 39.1492 86.4411 40.2223 89.6608 40.1248C92.4413 39.5882 94.0264 38.32 94.4168 36.32C93.685 33.7347 92.002 32.3445 89.3678 32.1493ZM89.2946 46.1247C84.1731 49.1491 79.0268 53.3441 73.8563 58.7098C68.7341 64.0266 64.3686 70.2951 60.7585 77.5142C59.539 82.9288 59.832 87.246 61.6365 90.4652C63.4905 93.636 67.612 99.2458 74.0025 107.294C82.0997 105.392 88.4413 104.611 93.0263 104.953C97.6118 105.294 102.831 105.928 108.685 106.855C111.904 101.831 114.197 98.1967 115.563 95.9529C116.929 93.6602 117.831 91.8309 118.27 90.4652C118.709 89.0994 118.879 87.7337 118.782 86.3679C118.685 85.0022 118.782 82.6605 119.075 79.3434C117.514 72.612 113.685 66.1972 107.587 60.1003C101.539 54.0026 95.4411 49.3441 89.2946 46.1247ZM89.6608 128.44C86.1486 128.44 82.0024 128.855 77.2217 129.684C72.4416 130.514 70.051 131.44 70.051 132.465C70.051 133.489 72.4416 134.294 77.2217 134.879C82.0024 135.416 86.1486 135.684 89.6608 135.684C93.1241 135.684 97.0509 135.343 101.441 134.66C105.88 133.977 108.099 133.123 108.099 132.099C108.099 131.074 105.88 130.221 101.441 129.538C97.0509 128.806 93.1241 128.44 89.6608 128.44ZM107.514 74.7337L107.441 84.6849C106.465 84.7339 105.172 84.7581 103.562 84.7581C102.002 84.7091 98.8796 84.6849 94.1968 84.6849V93.8312H84.2462V84.7581C80.734 84.7581 78.1729 84.807 76.563 84.9043C74.9537 84.9532 73.0024 84.9043 70.7096 84.7581V75.0268C72.3679 75.0268 74.7096 75.0268 77.7341 75.0268C80.8071 75.0268 82.9778 75.0268 84.2462 75.0268V64.6363H94.1968L94.1237 74.7337C95.0996 74.8806 97.3918 74.9289 101.002 74.8806C104.612 74.7827 106.782 74.7337 107.514 74.7337ZM32.4421 154.781C32.0031 154.977 31.8811 155.586 32.0762 156.611C32.2714 157.586 32.5397 157.927 32.8811 157.635C40.7834 152.22 47.1735 149.464 52.0515 149.367C56.9785 149.221 62.9539 149.391 69.9778 149.879C72.8072 149.879 75.856 149.659 79.1241 149.221C82.4411 148.781 85.4168 147.684 88.051 145.928C88.051 144.659 88.051 144.172 88.051 144.465C88.051 144.757 88.051 144.611 88.051 144.025C84.2946 145.977 81.0996 147.05 78.4654 147.245C75.8801 147.391 73.1976 147.464 70.4171 147.464C62.856 146.977 56.4902 147.196 51.3198 148.123C46.198 149.001 39.9054 151.22 32.4421 154.781ZM148.489 153.757C142.342 150.196 136.733 148.147 131.66 147.611C126.636 147.074 119.904 147.342 111.465 148.416C108.685 148.952 106.417 149.098 104.66 148.854C102.953 148.562 99.6604 146.952 94.7824 144.025C94.7824 144.611 94.7824 145.196 94.7824 145.781C94.7824 146.318 94.7824 146.855 94.7824 147.391C98.0995 149.879 100.904 151.123 103.197 151.123C105.49 151.074 108.075 151.05 110.953 151.05C118.514 150.318 124.66 149.732 129.391 149.294C134.172 148.854 140.538 151.318 148.489 156.684C148.781 156.879 148.928 156.513 148.928 155.586C148.928 154.61 148.781 154.001 148.489 153.757ZM72.6851 113.88L68.0023 126.757C74.4902 124.855 81.612 123.757 89.3678 123.465C97.1241 123.172 104.148 124.124 110.441 126.318C109.904 124.855 109.514 122.709 109.27 119.879C109.075 117.05 108.758 114.904 108.319 113.44L72.6851 113.88Z" fill="white" />
  </g>
  <g id="wk" fill="none" transform="scale(0.2222222222222222 0.2222222222222222)">
    <path d="M86.1604 22.5H93.4768V29.6706H101.379V34.9388H93.4768V41.5972C95.8674 41.646 97.843 42.0362 99.4039 42.7679C101.014 43.4996 101.916 45.8655 102.111 49.8653C101.672 52.4507 101.404 54.3287 101.306 55.4994C101.209 56.6702 100.721 58.2311 99.8426 60.1824C102.575 57.0606 106.428 54.7433 111.404 53.2312C116.428 51.719 121.476 51.4751 126.55 52.4995C131.623 53.4751 136.208 55.9384 140.306 59.8894C144.452 63.792 147.062 69.597 148.134 77.3038C146.135 90.3769 142.427 99.7914 137.013 105.547C131.647 111.255 128.111 116.084 126.403 120.035C126.354 124.133 126.574 129.889 127.062 137.303C127.55 144.717 128.282 151.595 129.257 157.937C116.525 160.278 102.94 161.327 88.5015 161.083C74.0627 160.79 62.2091 160.034 52.9412 158.815C54.2095 151.644 54.8436 144.62 54.8436 137.742C54.8924 130.864 55.1119 125.011 55.5022 120.181C53.7461 117.206 49.4779 112.108 42.6975 104.889C35.9172 97.6208 32.9904 87.8406 33.9172 75.5477C34.9903 69.4018 37.3318 64.4991 40.9415 60.8406C44.5511 57.1337 48.5998 54.6458 53.0876 53.3775C57.6242 52.0604 62.136 51.9385 66.6242 53.0116C71.1118 54.0361 74.7945 56.1823 77.6723 59.4506C76.7942 57.7918 76.2823 56.2311 76.1361 54.7677C76.0382 53.2555 75.6968 51.6702 75.1118 50.0117C75.7946 46.402 77.3066 44.1094 79.6483 43.1338C82.0384 42.1094 84.2091 41.5484 86.1604 41.4509V34.9388H78.1847V29.6706H86.1604V22.5ZM120.769 153.327C119.55 152.01 115.916 151.01 109.867 150.327C103.818 149.595 97.3305 149.23 90.4039 149.23C83.4773 149.23 77.1114 149.595 71.307 150.327C65.502 151.059 62.2823 152.205 61.6483 153.766C64.8681 154.351 69.2094 154.839 74.6724 155.229C80.1844 155.62 85.8673 155.839 91.7213 155.888C97.5746 155.888 103.136 155.717 108.404 155.375C113.721 154.986 117.843 154.303 120.769 153.327ZM63.1119 124.718C62.9168 126.961 62.7458 128.522 62.5995 129.4C62.4533 130.23 62.4043 131.839 62.4533 134.23C68.8922 132.181 78.3557 131.23 90.8432 131.376C103.38 131.523 112.794 132.766 119.086 135.108C119.184 133.547 119.208 131.937 119.159 130.278C119.111 128.571 119.062 126.864 119.013 125.157C112.038 123.791 103.453 123.157 93.2574 123.254C83.0627 123.352 73.0142 123.839 63.1119 124.718ZM64.9412 60.5481C58.941 59.085 53.7461 59.9383 49.356 63.1091C45.0146 66.2799 42.9414 72.0113 43.1366 80.3036C43.7219 90.9866 46.6486 98.8886 51.9168 104.011C57.1849 109.084 61.1364 113.084 63.7701 116.011C67.1361 115.864 70.5263 115.889 73.9406 116.084C77.4039 116.279 81.0872 115.986 84.9893 115.206C85.5748 107.987 85.1113 101.133 83.5993 94.6451C82.1357 88.1089 80.3554 81.621 78.2578 75.1821C76.7942 70.9869 75.1601 67.914 73.3556 65.9627C71.5506 64.0114 68.7459 62.2069 64.9412 60.5481ZM121.428 59.67C116.794 59.67 113.038 60.597 110.16 62.4504C107.331 64.2555 104.16 68.7189 100.648 75.8407C98.0134 83.4013 96.0868 89.7182 94.8673 94.7914C93.6478 99.8646 93.3064 106.572 93.843 114.913C99.1598 114.864 104.428 115.255 109.648 116.084C114.916 116.913 117.916 116.889 118.648 116.011C123.33 110.206 127.452 104.767 131.013 99.6936C134.623 94.6204 137.428 88.8649 139.427 82.4259C139.818 76.9624 138.745 71.8161 136.208 66.987C133.671 62.109 128.745 59.67 121.428 59.67ZM89.5258 47.0849C86.4039 47.5239 84.1601 49.3532 82.7944 52.5727C82.5503 55.1092 83.1116 60.1093 84.4774 67.5726C85.8431 75.0358 87.6482 81.3769 89.892 86.5963C91.5503 82.206 93.0381 76.1091 94.3549 68.3038C95.6723 60.4991 96.0379 55.5482 95.4529 53.4507C95.4529 52.1824 94.9646 50.8654 93.9893 49.4996C93.0623 48.1337 91.5744 47.3288 89.5258 47.0849ZM60.9896 141.254C60.9896 141.839 60.9165 142.84 60.7703 144.254C60.624 145.62 60.5509 146.571 60.5509 147.108C71.9168 144.327 82.6971 143.01 92.8918 143.156C103.087 143.303 112.404 144.498 120.842 146.742C120.989 147.083 121.087 146.376 121.135 144.62C121.184 142.864 121.208 141.742 121.208 141.254C112.818 139.01 103.355 137.815 92.8187 137.668C82.3309 137.473 71.7216 138.669 60.9902 141.254H60.9896Z" fill="#0F3460" />
    <path d="M120.769 153.327C119.55 152.01 115.916 151.01 109.867 150.327C103.818 149.595 97.3305 149.23 90.4039 149.23C83.4773 149.23 77.1114 149.595 71.3064 150.327C65.502 151.059 62.2823 152.205 61.6483 153.766C64.8675 154.351 69.2089 154.839 74.6724 155.229C80.1844 155.62 85.8673 155.839 91.7207 155.888C97.5746 155.888 103.136 155.717 108.403 155.375C113.721 154.985 117.842 154.302 120.769 153.327ZM63.1114 124.717C62.9162 126.961 62.7458 128.522 62.5995 129.4C62.4533 130.229 62.4043 131.839 62.4533 134.229C68.8922 132.181 78.3551 131.23 90.8426 131.376C103.379 131.523 112.794 132.766 119.086 135.107C119.184 133.546 119.208 131.937 119.159 130.278C119.111 128.571 119.062 126.864 119.013 125.157C112.038 123.79 103.452 123.157 93.2574 123.254C83.0627 123.352 73.0136 123.839 63.1114 124.717ZM64.9406 60.548C58.941 59.0844 53.7459 59.9383 49.3557 63.1091C45.0144 66.2794 42.9412 72.0112 43.1363 80.3036C43.7217 90.9866 46.6485 98.8886 51.9167 104.011C57.1849 109.084 61.1359 113.084 63.7701 116.011C67.1361 115.864 70.5263 115.888 73.9406 116.084C77.404 116.279 81.0866 115.986 84.9893 115.206C85.5748 107.986 85.1113 101.132 83.5988 94.6451C82.1357 88.1083 80.3554 81.621 78.2578 75.182C76.7942 70.9869 75.1601 67.914 73.3551 65.9627C71.5506 64.0114 68.7454 62.2063 64.9406 60.548ZM121.427 59.67C116.794 59.67 113.038 60.597 110.159 62.4504C107.33 64.2555 104.16 68.7184 100.648 75.8402C98.0134 83.4013 96.0868 89.7182 94.8673 94.7914C93.6478 99.8645 93.3064 106.572 93.843 114.913C99.1598 114.864 104.428 115.255 109.648 116.084C114.915 116.913 117.916 116.889 118.647 116.011C123.33 110.206 127.452 104.767 131.013 99.6935C134.623 94.6204 137.427 88.8643 139.427 82.4254C139.817 76.9624 138.745 71.816 136.208 66.987C133.671 62.109 128.744 59.67 121.427 59.67ZM89.5258 47.0848C86.404 47.5238 84.1601 49.3531 82.7944 52.5725C82.5503 55.1091 83.1111 60.1087 84.4768 67.572C85.8431 75.0358 87.6476 81.3769 89.8914 86.5963C91.5503 82.206 93.0381 76.1085 94.3549 68.3038C95.6723 60.4991 96.0379 55.5481 95.4523 53.4505C95.4523 52.1823 94.9646 50.8652 93.9893 49.4994C93.0623 48.1336 91.5745 47.3287 89.5258 47.0848ZM60.9896 141.254C60.9896 141.839 60.9165 142.839 60.7703 144.254C60.624 145.619 60.5509 146.571 60.5509 147.107C71.9162 144.327 82.6965 143.01 92.8918 143.156C103.087 143.302 112.403 144.498 120.842 146.742C120.989 147.083 121.086 146.376 121.135 144.62C121.184 142.864 121.208 141.742 121.208 141.254C112.818 139.01 103.355 137.815 92.8187 137.668C82.3309 137.473 71.721 138.669 60.9896 141.254Z" fill="white" />
  </g>
  <g id="wn" fill="none" transform="scale(0.2222222222222222 0.2222222222222222)">
    <path d="M74.286 158.577H139.407C139.309 156.089 139.138 151.797 138.894 145.699C138.7 139.553 138.09 132.699 137.066 125.139C136.041 117.578 134.407 109.846 132.163 101.944C129.968 94.0416 126.821 87.0907 122.724 81.0906C116.675 73.2369 111.797 67.8471 108.09 64.9204C104.383 61.9931 98.9927 59.1885 91.9198 56.5059C91.1391 56.8474 90.8708 57.5055 91.1149 58.4814C91.4074 59.4079 91.2611 60.5301 90.6756 61.8469C90.9686 59.6031 91.0907 58.3594 91.0417 58.1153C90.9928 57.8228 90.9928 56.7984 91.0417 55.0423C90.5541 52.7009 90.0416 49.9692 89.505 46.8473C89.0173 43.6767 87.4322 41.945 84.7491 41.6523C84.6028 43.8474 84.4566 45.7742 84.3103 47.4327C84.1635 49.0424 83.9931 51.018 83.7979 53.3594C83.4075 53.3594 82.359 53.5789 80.6518 54.0179C78.9441 54.4082 77.7246 54.7009 76.9933 54.896C76.2615 53.9204 75.1393 52.457 73.6273 50.5058C72.1153 48.5058 70.92 47.579 70.0419 47.7254C69.3101 48.7985 69.4569 50.2131 70.4812 51.9692C71.5056 53.6765 72.2858 55.3106 72.8224 56.8716C71.2125 59.5547 68.6031 61.6033 64.9935 63.018C61.3834 64.3838 59.0423 68.2127 57.969 74.5054C56.5059 78.7494 53.457 85.2126 48.8229 93.8953C44.2376 102.529 41.1645 109.334 39.6035 114.31C39.7499 116.212 40.9694 118.309 43.262 120.602C45.5547 122.895 47.4327 124.334 48.896 124.919C50.9448 124.382 52.896 123.187 54.7496 121.334C56.6032 119.48 57.8717 118.187 58.5546 117.456C59.481 118.773 59.8472 120.066 59.652 121.334C59.5058 122.602 59.5299 123.456 59.7251 123.895C60.1644 122.724 60.8226 120.748 61.7006 117.968C62.5787 115.188 63.4815 113.334 64.4079 112.407C69.4322 110.261 73.6273 108.846 76.9933 108.163C80.4077 107.48 84.2614 105.358 88.5538 101.797C90.6514 96.6757 92.0661 91.7736 92.7979 87.0907C93.5781 82.4079 94.9686 79.7979 96.9683 79.2613C98.2367 81.1637 99.1147 83.4323 99.6024 86.0659C100.139 88.7001 100.115 96.0418 99.5293 108.09C97.2855 112.822 94.6271 117.187 91.5536 121.187C88.5296 125.139 83.4806 132.236 76.4078 142.48C75.5297 144.87 74.9931 147.309 74.7979 149.797C74.6516 152.285 74.4812 155.211 74.286 158.577ZM74.7247 65.5785C73.6515 66.1641 72.9934 66.9201 72.7492 67.8471C72.5051 68.7735 72.0664 69.7005 71.4324 70.6275C71.2862 73.7494 70.7738 75.6276 69.8957 76.2615C69.0176 76.8954 67.1152 77.1396 64.1886 76.9933C62.9201 74.3591 63.2863 71.7491 65.286 69.1639C67.2862 66.5297 70.4323 65.3349 74.7247 65.5785ZM47.5058 110.651C47.3595 112.017 47.14 113.139 46.8473 114.017C46.5546 114.846 45.384 115.163 43.3352 114.968C42.6035 114.919 42.4816 114.261 42.9694 112.993C43.4571 111.724 44.9693 110.944 47.5058 110.651ZM65.5054 165.236C65.3591 161.431 65.6274 157.333 66.3103 152.943C67.0421 148.504 67.9933 144.772 69.1639 141.748C72.7251 136.723 75.4324 132.895 77.2858 130.26C79.1882 127.578 80.8223 125.26 82.188 123.31C83.5538 121.309 84.9443 119.236 86.3589 117.09C87.7736 114.895 89.7733 111.724 92.3586 107.578C93.5781 102.602 94.4561 99.0906 94.9927 97.0414C95.5294 94.9438 95.9197 92.3833 96.1633 89.3587C94.9927 93.3097 94.3341 95.7487 94.1878 96.6758C94.0416 97.6028 93.3097 100.285 91.9929 104.725C89.7002 107.798 86.7246 109.749 83.0661 110.578C79.4076 111.407 74.6516 113.431 68.7982 116.651C66.9442 118.602 65.286 120.822 63.8224 123.31C62.4082 125.797 60.6763 128.065 58.6277 130.114C55.896 130.943 53.9935 130.943 52.9204 130.114C53.5057 129.285 54.213 128.48 55.0423 127.699C55.9203 126.919 56.4323 125.773 56.5791 124.261C55.8472 125.09 54.6277 126.26 52.9204 127.772C51.2619 129.285 49.457 129.651 47.5058 128.87C45.5547 127.797 42.823 125.553 39.3109 122.138C35.8475 118.724 33.9939 115.993 33.75 113.944C34.872 108.968 37.3597 102.627 41.2133 94.9196C45.1156 87.2122 48.3107 81.3099 50.7985 77.2127C51.9204 69.2128 54.0911 64.0907 57.3103 61.8469C60.579 59.6031 63.8224 57.2619 67.0421 54.8228C64.5542 49.5546 62.7008 45.9449 61.4813 43.9937C60.3107 42.0425 60.3591 40.4572 61.6275 39.2377C62.8959 38.7987 65.4812 39.7499 69.3832 42.0913C73.2859 44.384 76.1884 46.8961 78.0908 49.6277C79.4565 49.2863 79.9684 49.14 79.6269 49.1888C79.2855 49.1888 79.4565 49.1888 80.1394 49.1888C80.9685 44.5547 81.0906 40.945 80.505 38.3597C79.92 35.7744 80.3098 34.2378 81.6761 33.75C87.1391 33.9939 90.7734 36.7256 92.5779 41.945C94.4319 47.1156 95.6514 49.7985 96.2364 49.9936C103.504 52.6277 109.139 55.2618 113.139 57.8959C117.187 60.5301 122.894 66.8711 130.26 76.9202C135.529 83.115 139.553 91.2122 142.333 101.212C145.114 111.163 147.04 120.895 148.114 130.407C149.236 139.87 149.699 148.04 149.504 154.919C149.309 161.796 148.845 165.236 148.114 165.236H65.5054Z" fill="#0F3460" />
    <path d="M74.286 158.577H139.407C139.309 156.089 139.138 151.797 138.894 145.699C138.699 139.553 138.09 132.699 137.065 125.139C136.041 117.578 134.407 109.846 132.163 101.944C129.968 94.0415 126.821 87.0907 122.724 81.0905C116.675 73.2369 111.797 67.847 108.09 64.9204C104.383 61.9931 98.9927 59.1885 91.9198 56.5054C91.139 56.8474 90.8707 57.5055 91.1148 58.4814C91.4073 59.4079 91.2611 60.53 90.6755 61.8469C90.9686 59.603 91.0901 58.3594 91.0417 58.1152C90.9928 57.8227 90.9928 56.7984 91.0417 55.0422C90.554 52.7008 90.0416 49.9692 89.505 46.8473C89.0173 43.6766 87.4316 41.9449 84.749 41.6523C84.6028 43.8473 84.4565 45.7741 84.3097 47.4326C84.1635 49.0423 83.993 51.0179 83.7978 53.3593C83.4075 53.3593 82.359 53.5788 80.6518 54.0179C78.944 54.4081 77.7245 54.7008 76.9933 54.8959C76.2615 53.9203 75.1393 52.4569 73.6273 50.5057C72.1153 48.5058 70.92 47.579 70.0419 47.7253C69.3101 48.7984 69.4563 50.2131 70.4812 51.9691C71.5055 53.6764 72.2857 55.3105 72.8223 56.8715C71.2125 59.5541 68.603 61.6033 64.9935 63.018C61.3833 64.3837 59.0422 68.2127 57.969 74.5054C56.5053 78.7494 53.4569 85.2125 48.8228 93.8953C44.2375 102.529 41.1644 109.334 39.6035 114.31C39.7498 116.212 40.9693 118.309 43.2619 120.602C45.5546 122.894 47.4326 124.334 48.896 124.919C50.9447 124.382 52.8959 123.187 54.7495 121.333C56.6032 119.48 57.8717 118.187 58.5545 117.456C59.481 118.773 59.8472 120.066 59.652 121.333C59.5057 122.602 59.5299 123.456 59.7251 123.895C60.1638 122.724 60.8225 120.748 61.7006 117.968C62.5787 115.188 63.4809 113.334 64.4079 112.407C69.4322 110.261 73.6273 108.846 76.9933 108.163C80.4077 107.48 84.2613 105.358 88.5538 101.797C90.6513 96.6757 92.066 91.7735 92.7978 87.0907C93.578 82.4074 94.9685 79.7979 96.9682 79.2613C98.2367 81.1637 99.1147 83.4322 99.6024 86.0659C100.139 88.7 100.115 96.0418 99.5293 108.09C97.2855 112.822 94.6271 117.187 91.5536 121.187C88.5296 125.139 83.4806 132.236 76.4077 142.48C75.5297 144.87 74.993 147.309 74.7978 149.797C74.6516 152.284 74.4812 155.211 74.286 158.577ZM74.7247 65.5785C73.6515 66.164 72.9933 66.92 72.7492 67.847C72.5051 68.7735 72.0663 69.7005 71.4324 70.6275C71.2856 73.7494 70.7737 75.627 69.8957 76.2615C69.0176 76.8954 67.1152 77.1395 64.1885 76.9933C62.9201 74.3591 63.2857 71.7491 65.286 69.1639C67.2857 66.5297 70.4323 65.3349 74.7247 65.5785ZM47.5057 110.651C47.3594 112.017 47.1399 113.139 46.8472 114.017C46.5545 114.846 45.3838 115.163 43.3351 114.968C42.6034 114.919 42.4814 114.261 42.9692 112.992C43.457 111.724 44.9692 110.944 47.5057 110.651Z" fill="white" />
  </g>
  <g id="wp" fill="none" transform="scale(0.2222222222222222 0.2222222222222222)">
    <path d="M92.5689 28.125C96.1791 28.125 99.3982 29.5152 102.228 32.2957C105.057 35.0761 106.471 38.4175 106.471 42.3199C106.471 48.2222 103.935 52.2953 98.8616 54.5392C104.862 55.7099 109.667 58.7098 113.276 63.5389C116.935 68.3679 118.764 73.7826 118.764 79.7828C118.764 87.7337 115.447 94.2216 108.813 99.2458C112.179 100.563 115.813 102.075 119.715 103.782C123.666 105.441 127.422 108.343 130.983 112.489C134.544 116.587 137.666 122.441 140.349 130.05C143.032 137.611 144.836 147.952 145.763 161.074C143.08 161.22 136.178 161.294 125.056 161.294C113.983 161.294 102.228 161.269 89.7885 161.22C77.3499 161.122 66.033 161.074 55.8381 161.074C45.6432 161.025 40.1555 161.025 39.375 161.074C40.1555 139.757 44.57 124.709 52.6187 115.928C60.6673 107.099 68.2526 101.392 75.3744 98.8065C69.0818 93.8801 65.9357 87.5385 65.9357 79.7828C65.9357 73.7826 67.9112 68.2948 71.8622 63.3195C75.8132 58.2952 80.8622 55.2221 87.0081 54.1002C81.7402 51.6612 79.1061 47.7345 79.1061 42.3199C79.1061 38.4176 80.4229 35.0761 83.0571 32.2957C85.7402 29.5153 88.9104 28.1251 92.5689 28.1251V28.125ZM93.0814 33.4664C89.9106 34.9298 87.7157 36.0517 86.4962 36.8322C85.2767 37.5639 84.6669 39.7345 84.6669 43.3442C84.6669 46.0271 85.545 48.3442 87.3011 50.2953C89.0572 52.1978 91.0327 53.6367 93.2276 54.6123C87.5205 55.6367 82.7887 58.5394 79.0329 63.3195C75.2766 68.0512 73.3989 73.1976 73.3989 78.7584C73.3989 82.3191 75.2524 86.3921 78.9598 90.9776C82.7156 95.5142 85.9354 98.8312 88.6179 100.929C85.3009 102.148 81.5451 103.709 77.3499 105.612C73.2037 107.465 69.2527 110.294 65.4964 114.099C61.7406 117.855 58.4966 122.855 55.765 129.099C53.0821 135.294 51.5699 143.318 51.2284 153.172C51.9601 153.123 56.3017 153.123 64.2527 153.172C72.2526 153.22 81.1305 153.269 90.8865 153.318C100.642 153.367 109.91 153.391 118.691 153.391C127.52 153.391 133.178 153.318 135.666 153.172C134.788 141.025 132.861 131.708 129.886 125.221C126.959 118.684 123.569 113.831 119.715 110.66C115.91 107.489 111.959 105.392 107.862 104.367C103.764 103.343 100.154 102.197 97.0324 100.929C99.8128 98.8312 102.984 95.5384 106.545 91.0508C110.154 86.5142 111.959 82.4169 111.959 78.7584C111.959 73.2459 110.203 68.1244 106.691 63.3926C103.228 58.6609 98.7154 55.7342 93.1545 54.6123C98.1298 52.466 100.618 48.71 100.618 43.3442C100.618 39.7345 100.227 37.4419 99.4472 36.4663C98.7154 35.4907 96.5936 34.4907 93.0814 33.4663V33.4664Z" fill="#0F3460" />
    <path d="M93.0814 33.4663C89.9106 34.9297 87.7152 36.0516 86.4957 36.8321C85.2762 37.5638 84.6664 39.7345 84.6664 43.3442C84.6664 46.0271 85.5445 48.3441 87.3006 50.2953C89.0567 52.1977 91.0322 53.6367 93.2277 54.6123C87.5205 55.6366 82.7888 58.5388 79.0324 63.3195C75.2766 68.0512 73.3984 73.1976 73.3984 78.7584C73.3984 82.3191 75.2524 86.3921 78.9593 90.9776C82.7157 95.5142 85.9349 98.8313 88.618 100.929C85.3009 102.148 81.5445 103.709 77.35 105.612C73.2032 107.465 69.2522 110.294 65.4964 114.099C61.74 117.855 58.4967 122.855 55.7648 129.099C53.0819 135.294 51.5697 143.318 51.2283 153.172C51.96 153.123 56.3012 153.123 64.2522 153.172C72.252 153.22 81.13 153.269 90.886 153.318C100.642 153.367 109.91 153.391 118.69 153.391C127.519 153.391 133.178 153.318 135.666 153.172C134.788 141.025 132.861 131.708 129.885 125.221C126.959 118.684 123.568 113.831 119.715 110.66C115.91 107.489 111.959 105.392 107.862 104.367C103.764 103.343 100.154 102.197 97.0324 100.928C99.8129 98.8313 102.984 95.5384 106.544 91.0508C110.154 86.5142 111.959 82.4164 111.959 78.7579C111.959 73.2459 110.203 68.1244 106.691 63.3926C103.227 58.6609 98.7154 55.7342 93.1546 54.6122C98.1299 52.466 100.618 48.7099 100.618 43.3442C100.618 39.7344 100.227 37.4418 99.4467 36.4663C98.7154 35.4907 96.5931 34.4907 93.0814 33.4663Z" fill="white" />
  </g>
  <g id="wq" fill="none" transform="scale(0.2222222222222222 0.2222222222222222)">
    <path d="M62.6608 118.331C62.6608 119.209 62.6366 120.428 62.5877 121.989C62.5388 123.55 62.5146 124.721 62.5146 125.502C74.0751 122.721 83.8558 121.136 91.8557 120.746C99.855 120.306 110.074 121.575 122.514 124.55C122.514 123.819 122.465 122.648 122.367 121.038C122.318 119.38 122.294 118.16 122.294 117.38C113.806 114.599 104.27 113.209 93.6849 113.209C83.0992 113.209 72.7582 114.917 62.6608 118.331ZM62.5146 139.258C62.5146 139.843 62.4414 141.257 62.2952 143.501C62.1489 145.745 62.0758 147.111 62.0758 147.599C73.3927 145.014 84.2946 143.818 94.7824 144.013C105.27 144.209 114.709 145.355 123.099 147.453C123.294 146.575 123.294 145.062 123.099 142.916C122.952 140.721 122.879 139.38 122.879 138.891C114.49 136.843 105.002 135.794 94.4168 135.745C83.88 135.696 73.2459 136.868 62.5146 139.258ZM62.4414 128.941C62.4414 129.965 62.4414 131.16 62.4414 132.526C62.4904 133.843 62.5146 134.965 62.5146 135.892C71.7339 133.257 81.1243 131.745 90.6851 131.355C100.245 130.965 110.928 132.306 122.733 135.38C122.83 133.965 122.83 132.843 122.733 132.014C122.636 131.185 122.563 129.965 122.514 128.355C112.367 125.916 102.368 124.673 92.5138 124.624C82.7094 124.575 72.6851 126.014 62.4414 128.941ZM123.465 154.623C124.586 154.477 125.148 154.013 125.148 153.233C125.148 152.452 124.635 151.891 123.611 151.55C120.684 150.574 116.489 149.77 111.026 149.135C105.612 148.452 99.9039 148.038 93.9043 147.891C87.9531 147.696 82.2218 147.818 76.7093 148.258C71.1973 148.696 66.9049 149.501 63.8314 150.672C62.6608 151.111 61.9779 151.745 61.7827 152.574C61.6365 153.403 62.1731 154.086 63.3926 154.623C71.3436 156.038 81.7582 156.623 94.6361 156.379C107.514 156.086 117.123 155.501 123.465 154.623ZM146.952 52.1858C152.708 52.2834 155.757 55.9419 156.098 63.1614C155.854 68.8686 152.245 71.4296 145.269 70.8441C142.05 81.4292 138.684 91.7708 135.172 101.868C131.66 111.965 129.367 116.819 128.294 116.429C128.245 120.233 128.123 126.672 127.928 135.745C127.733 144.818 128.806 152.355 131.147 158.354C118.416 160.55 104.831 161.525 90.3921 161.282C75.9533 160.989 64.0997 160.282 54.8318 159.159C56.8806 148.184 57.7097 139.599 57.3193 133.404C56.9779 127.209 57.0026 121.843 57.393 117.307C54.466 115.697 51.4661 109.867 48.3929 99.819C45.3686 89.7705 42.1491 79.1854 38.7345 68.0636C37.4663 68.3077 35.3688 67.9416 32.442 66.9662C29.564 65.9419 28.125 63.3808 28.125 59.283C28.2714 55.0394 29.5884 52.1858 32.0762 50.7224C34.5639 49.2591 36.8322 48.5274 38.8809 48.5274C40.0516 48.5274 42.0272 49.0883 44.8076 50.2103C47.5881 51.3322 48.9539 53.7468 48.9051 57.4543C49.0026 60.0879 48.4904 62.1124 47.3686 63.5271C46.2954 64.9418 45.3686 65.8929 44.5881 66.3806C47.0271 70.1854 48.9051 73.0637 50.2221 75.0144C51.5392 76.9658 52.7831 78.8681 53.9538 80.7221C55.1733 82.5756 56.5633 84.8194 58.1243 87.4536C59.7341 90.0878 62.0511 93.9898 65.0756 99.1609C64.0513 90.8196 63.2222 81.9169 62.5877 72.4539C61.9538 62.9415 61.344 56.7225 60.7584 53.7956C59.0023 53.7956 57.4903 52.8443 56.222 50.942C55.0025 48.9908 54.3928 47.4786 54.3928 46.4055C54.4903 42.747 55.5147 40.1372 57.4661 38.5763C59.4658 36.9666 61.7096 36.1374 64.1976 36.0885C65.3192 36.0885 67.2953 36.5032 70.1241 37.3324C72.9534 38.1617 74.4654 40.625 74.6606 44.7226C74.6606 45.7469 74.2461 47.2591 73.4169 49.2591C72.6362 51.259 71.1242 52.5029 68.8804 52.9907C70.6365 56.6004 73.0024 63.2346 75.978 72.8927C78.9536 82.5024 81.3189 89.3559 83.0751 93.4532L89.514 46.4055C87.2702 46.503 85.3678 45.4543 83.8069 43.2592C82.2459 41.0641 81.4657 39.4544 81.4657 38.43C81.3189 35.3081 82.4411 32.8203 84.8312 30.9667C87.2213 29.1131 89.8554 28.1863 92.7338 28.1863C95.3679 27.8936 97.7822 28.6496 99.9776 30.4545C102.172 32.2594 103.246 34.6983 103.197 37.7715C103.197 39.1373 102.66 40.8446 101.587 42.8933C100.514 44.9421 98.9044 46.0884 96.7579 46.3323L102.904 94.4775L117.538 53.7956C116.416 53.2102 115.221 52.3322 113.953 51.1615C112.733 49.942 112.367 48.2103 112.855 45.9664C113.196 41.9665 114.806 39.43 117.685 38.3568C120.562 37.2349 122.587 36.6739 123.757 36.6739C124.928 36.6739 126.977 37.4788 129.904 39.0885C132.83 40.6495 134.294 43.2835 134.294 46.9908C134.342 50.3566 133.391 52.5761 131.44 53.6492C129.538 54.7224 127.416 55.1614 125.075 54.9663L119.953 99.3803L140.147 68.7954C138.977 68.0636 137.879 67.0146 136.855 65.6488C135.879 64.2341 135.489 62.8442 135.684 61.4784C136.074 58.8442 137.391 56.6246 139.635 54.82C141.879 53.0151 144.318 52.1371 146.952 52.1858ZM147.171 57.1612C146.147 57.1612 145.074 57.6489 143.952 58.6249C142.83 59.6003 142.269 60.8198 142.269 62.2834C142.269 63.8443 142.757 64.8686 143.733 65.3563C144.708 65.844 145.659 66.0881 146.586 66.0881C147.513 66.0881 148.464 65.7467 149.44 65.0638C150.464 64.3809 150.976 63.4539 150.976 62.2834C150.976 61.2101 150.586 60.0879 149.806 58.9174C149.074 57.7468 148.196 57.1612 147.171 57.1612ZM123.757 41.5031C120.88 41.5031 119.44 43.1372 119.44 46.4055C119.44 49.4298 120.953 50.8932 123.977 50.7956C125.391 50.7956 126.489 50.2834 127.27 49.2591C128.05 48.2347 128.391 47.2103 128.294 46.1859C128.197 45.1615 127.708 44.1372 126.83 43.1128C126.001 42.0397 124.977 41.5031 123.757 41.5031ZM92.8069 33.0886C91.7826 33.0886 90.6604 33.43 89.4409 34.113C88.2703 34.7471 87.6847 35.9422 87.6847 37.6983C87.6847 39.5031 88.2456 40.747 89.3677 41.4299C90.5383 42.0641 91.7578 42.3811 93.0263 42.3811C96.1481 42.3811 97.8553 40.7714 98.1478 37.5519C98.2457 36.2349 97.6359 35.1618 96.3191 34.3325C95.0017 33.5032 93.8312 33.0886 92.8069 33.0886ZM64.6363 41.7958C61.9048 41.7958 60.6611 43.064 60.9047 45.6006C61.0509 48.381 62.2221 49.6737 64.4169 49.4786C67.3436 49.2834 68.8072 47.8932 68.8072 45.3079C68.8072 42.9665 67.4168 41.7958 64.6363 41.7958ZM39.3199 53.7956C36.2955 53.7956 34.7834 55.3078 34.7834 58.3318C34.7834 60.381 36.2224 61.4053 39.1004 61.4053C41.4906 61.4053 42.6857 60.381 42.6857 58.3318C42.6857 57.7468 42.5637 56.8446 42.3198 55.6248C42.0759 54.4053 41.0759 53.7956 39.3199 53.7956ZM93.3919 54.1614L85.2705 108.38L100.343 108.746C99.9039 107.039 99.2942 103.355 98.514 97.6973C97.7822 91.9901 97.0262 86.0147 96.2454 79.7709C95.4653 73.4783 94.7824 67.7953 94.1968 62.7221C93.6602 57.6006 93.3919 54.7468 93.3919 54.1614ZM68.4411 65.8688C68.5879 71.0882 68.8804 78.6729 69.3191 88.6241C69.7584 98.5264 70.1972 106.039 70.6365 111.16C71.7581 110.917 73.8557 110.404 76.9292 109.624C80.0511 108.843 82.0997 108.404 83.0751 108.307C82.2459 104.502 79.8801 97.6241 75.978 87.6729C72.1243 77.6734 69.6122 70.4048 68.4411 65.8688ZM47.8807 79.4047C49.0514 84.2338 51.1001 90.234 54.0269 97.4048C56.9537 104.575 59.1244 110.746 60.5391 115.917C61.5144 115.087 62.9049 114.185 64.7094 113.209C66.5145 112.233 67.905 111.795 68.8804 111.892C66.6855 108.087 63.2706 102.868 58.6367 96.2336C54.0025 89.5511 50.4172 83.9413 47.8807 79.4047ZM119.148 65.1369L101.368 109.112L114.611 110.941C114.952 109.038 115.367 105.697 115.855 100.916C116.343 96.0874 116.806 91.1363 117.245 86.0631C117.733 80.9415 118.147 76.3318 118.489 72.234C118.83 68.0878 119.05 65.7219 119.148 65.1369ZM138.977 78.0879C137.026 82.1363 132.928 88.0633 126.684 95.868C120.489 103.624 116.733 108.916 115.416 111.746C116.245 112.136 117.977 112.673 120.611 113.356C123.294 113.989 125.269 114.185 126.538 113.941C126.879 112.038 127.708 109.209 129.026 105.453C130.343 101.697 131.708 97.8924 133.123 94.0388C134.587 90.1361 135.903 86.6486 137.074 83.5757C138.245 80.5022 138.879 78.6729 138.977 78.0879Z" fill="#0F3460" />
    <path d="M62.6608 118.331C62.6608 119.209 62.6366 120.428 62.5877 121.989C62.5388 123.55 62.5146 124.721 62.5146 125.502C74.0751 122.721 83.8558 121.136 91.8557 120.746C99.8556 120.306 110.075 121.575 122.514 124.55C122.514 123.819 122.465 122.648 122.367 121.038C122.318 119.38 122.294 118.16 122.294 117.38C113.806 114.599 104.27 113.209 93.685 113.209C83.0998 113.209 72.7583 114.917 62.6608 118.331ZM62.5146 139.258C62.5146 139.843 62.4415 141.257 62.2952 143.501C62.149 145.745 62.0758 147.111 62.0758 147.599C73.3928 145.014 84.2946 143.818 94.7824 144.014C105.27 144.209 114.709 145.355 123.099 147.453C123.294 146.575 123.294 145.062 123.099 142.916C122.952 140.721 122.879 139.38 122.879 138.891C114.49 136.843 105.002 135.794 94.4168 135.745C83.88 135.696 73.246 136.867 62.5146 139.258ZM62.4415 128.941C62.4415 129.965 62.4415 131.16 62.4415 132.526C62.4904 133.843 62.5146 134.965 62.5146 135.892C71.734 133.257 81.1243 131.745 90.6851 131.355C100.246 130.965 110.928 132.306 122.733 135.38C122.831 133.965 122.831 132.843 122.733 132.014C122.636 131.185 122.563 129.965 122.514 128.355C112.367 125.916 102.368 124.673 92.5144 124.624C82.7095 124.575 72.6851 126.014 62.4415 128.941ZM123.465 154.623C124.586 154.477 125.148 154.013 125.148 153.233C125.148 152.452 124.635 151.891 123.611 151.55C120.684 150.575 116.489 149.77 111.026 149.135C105.612 148.452 99.904 148.038 93.9043 147.891C87.9531 147.696 82.2218 147.818 76.7093 148.257C71.1973 148.696 66.9049 149.501 63.832 150.672C62.6608 151.111 61.978 151.745 61.7828 152.574C61.6365 153.403 62.1731 154.086 63.3926 154.623C71.3436 156.038 81.7583 156.623 94.6361 156.379C107.514 156.086 117.123 155.501 123.465 154.623ZM147.171 57.1613C146.147 57.1613 145.074 57.649 143.952 58.6249C142.83 59.6003 142.269 60.8198 142.269 62.2834C142.269 63.8443 142.757 64.8686 143.733 65.3563C144.708 65.844 145.659 66.0881 146.586 66.0881C147.513 66.0881 148.465 65.7467 149.44 65.0638C150.464 64.381 150.977 63.454 150.977 62.2834C150.977 61.2101 150.586 60.088 149.806 58.9174C149.074 57.7468 148.196 57.1613 147.171 57.1613ZM123.757 41.5031C120.88 41.5031 119.441 43.1372 119.441 46.4054C119.441 49.4298 120.953 50.8932 123.977 50.7956C125.391 50.7956 126.489 50.2834 127.27 49.259C128.05 48.2347 128.392 47.2103 128.294 46.1859C128.197 45.1616 127.709 44.1372 126.831 43.1128C126.001 42.0397 124.977 41.5031 123.757 41.5031ZM92.8069 33.0886C91.7826 33.0886 90.6604 33.4301 89.4409 34.113C88.2703 34.7471 87.6848 35.9422 87.6848 37.6983C87.6848 39.5031 88.2461 40.747 89.3678 41.4299C90.5383 42.0641 91.7578 42.3811 93.0263 42.3811C96.1481 42.3811 97.8553 40.7714 98.1484 37.552C98.2457 36.2349 97.636 35.1617 96.3191 34.3325C95.0018 33.5032 93.8312 33.0886 92.8069 33.0886ZM64.6363 41.7958C61.9048 41.7958 60.6611 43.0641 60.9047 45.6006C61.0515 48.381 62.2221 49.6737 64.417 49.4785C67.3436 49.2835 68.8073 47.8932 68.8073 45.3079C68.8073 42.9665 67.4168 41.7958 64.6363 41.7958ZM39.32 53.7955C36.2956 53.7955 34.7834 55.3077 34.7834 58.3318C34.7834 60.381 36.2224 61.4053 39.1004 61.4053C41.4906 61.4053 42.6857 60.381 42.6857 58.3318C42.6857 57.7468 42.5638 56.844 42.3199 55.6248C42.076 54.4053 41.076 53.7955 39.32 53.7955ZM93.3919 54.1614L85.2705 108.38L100.343 108.746C99.904 107.039 99.2942 103.355 98.514 97.6973C97.7822 91.9901 97.0262 86.0147 96.246 79.771C95.4653 73.4783 94.7824 67.7953 94.1968 62.7221C93.6602 57.6006 93.3919 54.7467 93.3919 54.1614ZM68.4411 65.8688C68.5879 71.0882 68.8804 78.673 69.3191 88.6241C69.7585 98.5264 70.1972 106.039 70.6365 111.16C71.7581 110.917 73.8557 110.404 76.9292 109.624C80.0511 108.843 82.0997 108.404 83.0751 108.307C82.246 104.502 79.8801 97.6241 75.978 87.673C72.1243 77.6734 69.6122 70.4048 68.4411 65.8688ZM47.8808 79.4048C49.0515 84.2338 51.1002 90.234 54.027 97.4048C56.9537 104.575 59.1244 110.746 60.5391 115.917C61.5145 115.087 62.905 114.185 64.7095 113.209C66.5145 112.233 67.905 111.795 68.8804 111.892C66.6855 108.087 63.2706 102.868 58.6367 96.2336C54.0026 89.5511 50.4173 83.9413 47.8808 79.4048ZM119.148 65.137L101.368 109.112L114.611 110.941C114.953 109.038 115.367 105.697 115.855 100.916C116.343 96.0874 116.807 91.1363 117.245 86.0631C117.733 80.9415 118.148 76.3318 118.49 72.234C118.831 68.0878 119.05 65.722 119.148 65.137ZM138.977 78.088C137.026 82.1363 132.928 88.0633 126.684 95.868C120.489 103.624 116.733 108.916 115.416 111.746C116.245 112.136 117.977 112.673 120.611 113.356C123.294 113.99 125.269 114.185 126.538 113.941C126.879 112.038 127.708 109.209 129.026 105.453C130.343 101.697 131.708 97.8925 133.123 94.0388C134.587 90.1361 135.903 86.6486 137.075 83.5757C138.245 80.5022 138.879 78.673 138.977 78.088Z" fill="white" />
  </g>
  <g id="wr" fill="none" transform="scale(0.2222222222222222 0.2222222222222222)">
    <path d="M33.75 163.47V148.031L41.945 148.251V135.374L48.896 135.227L59.652 123.154V75.3744C58.1884 73.4721 56.7253 71.5449 55.2618 69.5942C53.7984 67.6429 52.3351 65.7157 50.8717 63.8134C49.7497 63.8134 48.6522 63.8381 47.579 63.8865C46.5059 63.9354 45.4327 63.9354 44.3596 63.8865V39.4482H62.4324V48.0822L75.3834 48.009V39.375H102.675L102.602 47.9358L115.041 47.8627V39.375H133.48V63.9602L128.358 63.8134C126.407 65.5695 124.7 67.2767 123.236 68.9355C121.822 70.5454 120.139 72.423 118.187 74.5695V123.52L129.455 136.763L135.089 136.544V148.836H143.358V163.47H33.75ZM68.7982 64.3258C59.5299 64.3258 56.1155 65.3259 58.5546 67.3256C61.0419 69.2769 63.9444 70.2523 67.2615 70.2523H111.822C114.456 70.2523 116.773 69.2769 118.773 67.3256C120.822 65.3259 118.627 64.3258 112.188 64.3258H68.7982ZM66.7496 74.9351V124.691H111.895L111.968 74.9351H66.7496ZM62.0668 129.446L54.9691 136.544H122.943L116.651 129.446H62.0668ZM49.4814 140.934V147.593H128.797V140.934H49.4814ZM40.4084 154.324V158.714H138.602V154.324H40.4084ZM49.1156 43.7651V59.2037H128.797V43.692L120.529 43.7651L120.456 52.1065H97.1876V43.7651H81.4562L81.3099 52.2528L56.7253 52.1796L56.8716 43.692L49.1156 43.7651Z" fill="#0F3460" />
    <path d="M68.7982 64.3258C59.5299 64.3258 56.1154 65.3259 58.5545 67.3256C61.0419 69.2769 63.9444 70.2523 67.2615 70.2523H111.822C114.456 70.2523 116.773 69.2769 118.773 67.3256C120.822 65.3259 118.627 64.3258 112.188 64.3258H68.7982ZM66.7496 74.9351V124.691H111.895L111.968 74.9351H66.7496ZM62.0668 129.446L54.9691 136.544H122.943L116.651 129.446H62.0668ZM49.4814 140.934V147.593H128.797V140.934H49.4814ZM40.4084 154.324V158.714H138.602V154.324H40.4084ZM49.1156 43.7652V59.2037H128.797V43.692L120.529 43.7652L120.455 52.1065H97.1876V43.7652H81.4562L81.3099 52.2528L56.7253 52.1797L56.8715 43.692L49.1156 43.7652Z" fill="white" />
  </g>
</svg>