<svg xmlns="http://www.w3.org/2000/svg" width="40" height="40" viewbox="0.0 0.0 256.0 256.0">
  <g id="bb" fill="none" transform="scale(0.15625 0.15625)">
    <path d="M109.492 73.3387L111.427 71.7493L113.536 71.2278L113.543 71.2262L122.728 68.93L122.121 64.0046H111.471C111.406 63.4093 111.372 62.8005 111.372 62.183C111.372 52.9792 119.045 45.5 128.055 45.5C136.754 45.5 143.892 52.1509 144.678 60.6279C143.59 61.844 142.522 63.1113 141.473 64.4294C141.288 64.6495 141.011 65.0049 140.817 65.2522C140.725 65.3703 140.652 65.4638 140.617 65.5061L140.601 65.5257L140.586 65.5456C137.077 70.0341 134.1 74.6528 131.574 79.294L131.574 79.2943C117.851 104.521 117.371 130.538 117.882 142.838L117.981 145.235H120.379H135.731H138.455L138.222 142.52C137.425 133.27 136.441 107.203 153.146 82.765L153.149 82.7603C153.636 82.045 154.129 81.3479 154.627 80.6664C171.609 98.0239 180.715 120.309 179.278 142.533C178.252 158.16 171.896 175.619 162.104 188.809L160.896 190.437L154.86 191.93V191.889L151.757 192.659L146.249 194.026L146.851 198.953H175.011L175.013 198.963C185.836 198.963 194.611 207.739 194.611 218.562V232.342H61.5V218.562C61.5 207.739 70.2754 198.963 81.0985 198.963H97.1338H102.882L98.9624 194.758C86.4049 181.289 78.0369 160.703 76.8464 142.545C75.1896 117.048 87.414 91.4723 109.492 73.3387Z" fill="black" stroke="black" stroke-width="5" />
  </g>
  <g id="bk" fill="none" transform="scale(0.15625 0.15625)">
    <path d="M214.989 148.389C220.317 133.257 215.841 119.376 214.989 116.86C209.958 102.05 197.625 89.8465 183.461 85.3313C168.393 80.5195 161.246 87.6276 145.753 91.2656C142.553 84.0285 139.367 76.7784 136.168 69.5542H151.945V53.7771H136.168V38H120.391V53.7771H104.613V69.5542H120.391C118.21 74.508 116.004 79.4617 113.824 84.4413L110.831 91.2785L105.039 104.489L106.845 93.8584L108.728 83.3574L105.774 89.9238C93.5704 86.1698 86.4492 81.0998 73.0975 85.3571C58.9327 89.8723 46.6002 102.076 41.5688 116.886C40.7174 119.401 36.2408 133.295 41.5688 148.415C45.5292 159.677 51.4763 161.844 65.2283 179.943C71.7561 188.548 74.1295 192.96 75.7937 196.108C65.2927 198.107 57.359 207.331 57.359 218.412V235.131H199.265V218.412C199.265 207.499 191.589 198.404 181.32 196.223H165.04L167.052 195.72L183.294 191.669L193.227 189.206H184.829C186.377 186.767 188.454 183.775 191.357 179.956C205.083 161.856 211.03 159.689 215.016 148.427L214.989 148.389ZM112.509 164.166H96.7319L80.9549 148.389C75.9753 139.436 76.2333 129.451 80.9549 124.729C85.0959 120.562 93.5457 119.621 101.596 123.452C105.517 125.323 109.323 128.316 112.484 132.611V164.14L112.509 164.166ZM175.58 148.389C170.33 153.639 165.08 158.89 159.803 164.166H144.026V132.637C147.187 128.328 150.993 125.336 154.914 123.478C162.938 119.646 171.414 120.614 175.555 124.755C180.277 129.477 180.535 139.462 175.555 148.415L175.58 148.389Z" fill="black" />
  </g>
  <g id="bn" fill="none" transform="scale(0.15625 0.15625)">
    <path d="M133.538 148.601C131.358 154.566 127.815 158.047 123.812 161.153C122.675 162.036 121.528 162.872 120.367 163.718C117.397 165.883 114.333 168.117 111.097 171.371L111.095 171.373C107.963 174.517 103.795 179.525 100.759 184.72C99.2412 187.316 98.0531 189.881 97.3958 192.225C96.7323 194.591 96.6673 196.526 97.1311 198L98.1533 201.25H94.7463H93.882C83.6653 201.25 75.3928 209.523 75.3928 219.739V232.694H201.592V219.764H201.591C201.591 211.319 195.932 204.195 188.189 201.984H174.948L174.342 197.059L177.124 196.363L177.129 196.362L190.489 192.995L191.094 191.815C192.506 189.065 193.434 186.354 194.402 183.427C201.203 162.796 198.244 137.673 189.629 116.855C185.332 106.471 179.672 97.2706 173.241 90.3175C166.795 83.3485 159.704 78.7712 152.551 77.3311L152.55 77.3309C150.419 76.9013 148.175 76.7274 145.753 76.5931C145.296 76.5679 144.832 76.544 144.362 76.5197C142.384 76.4179 140.292 76.3101 138.211 76.0706C132.964 75.4666 127.447 73.9965 122.262 69.4784C119.053 66.689 116.737 63.3694 114.906 60.7444C114.547 60.2298 114.206 59.7418 113.881 59.2898C112.836 57.8351 112.008 56.8208 111.229 56.1836C110.52 55.6034 110.016 55.4674 109.521 55.5062L133.538 148.601ZM133.538 148.601C134.594 145.715 135.156 142.739 135.311 140.097L135.609 135.029L141.063 122.224L136.746 119.768L127.441 132.478C126.722 133.286 126.011 134.266 125.214 135.365C123.083 138.303 120.338 142.087 115.191 145.695L115.191 145.695C112.332 147.699 110.56 148.322 108.605 149.008L108.596 149.012C106.466 149.76 104.154 150.571 100.641 152.964C95.5408 156.438 93.0961 159.691 91.2505 162.327C91.1577 162.46 91.0673 162.589 90.979 162.716C89.3101 165.104 88.3957 166.413 86.409 167.345L86.4064 167.346C84.1088 168.427 80.9864 168.646 77.3681 167.964C73.7811 167.288 69.9264 165.764 66.3552 163.65C62.7836 161.536 59.5914 158.888 57.2789 156.042C54.9511 153.177 53.6433 150.276 53.511 147.618L53.5109 147.617C53.3475 144.344 54.935 142.767 59.2317 138.961C63.4277 135.244 69.2533 130.066 75.0551 119.833C78.8088 113.212 80.3955 108.302 81.6782 104.333C81.882 103.702 82.0782 103.095 82.2741 102.509C83.6511 98.3887 85.0186 95.2256 89.1803 91.27L89.1812 91.2691C91.4854 89.0767 93.6071 87.5959 95.6538 86.1673C96.5655 85.531 97.4623 84.9051 98.3538 84.2312C101.169 82.1029 103.659 79.6249 104.49 75.358L104.49 75.3573C105.062 72.4143 104.553 69.9143 104.154 67.9544C104.1 67.6923 104.049 67.4398 104.002 67.1973C103.605 65.1314 103.437 63.4466 104.344 61.2616L104.345 61.2592C104.806 60.1474 105.61 58.639 106.64 57.4217C107.712 56.1546 108.709 55.5708 109.521 55.5063L133.538 148.601Z" fill="black" stroke="black" stroke-width="5" />
  </g>
  <g id="bp" fill="none" transform="scale(0.15625 0.15625)">
    <path d="M202 217.235V234.667H54V217.235C54 205.675 62.2828 196.05 73.2377 193.974C74.6765 193.697 76.1613 193.556 77.6791 193.556H78.6665C84.2182 190.344 95.3238 182.887 103.333 168.889C107.277 161.994 109.393 155.396 110.549 150.072L100.035 150.053L113.506 146.709L123.459 144.222H95.1091C93.4298 143.501 91.7486 142.778 90.071 142.057L85.6534 131.476L106.438 119.726C99.4973 113.699 95.1089 104.805 95.1089 94.8889C95.1089 89.0032 96.6543 83.4769 99.3632 78.6996C105.012 68.7281 115.718 62 127.998 62C128.293 62 128.585 62.0018 128.879 62.011C128.891 62.0128 128.908 62.0128 128.923 62.0128C140.171 62.323 150.009 68.2805 155.7 77.1525C158.983 82.2696 160.886 88.3592 160.886 94.8891C160.886 104.47 156.792 113.092 150.256 119.1L172.15 131.48L167.769 141.97C165.475 142.721 163.181 143.474 160.887 144.222H144.442C145.178 150.035 147.102 159.164 152.665 168.889C157.537 177.409 163.561 183.502 168.777 187.693L176.015 187.712L170.543 189.064C170.543 189.064 170.555 189.075 170.563 189.081L152.663 193.557H178.317C179.835 193.557 181.32 193.699 182.758 193.976C193.715 196.052 201.996 205.676 201.996 217.237L202 217.235Z" fill="black" />
  </g>
  <g id="bq" fill="none" transform="scale(0.15625 0.15625)">
    <path d="M221.741 101.547V103.076C221.741 111.796 215.366 119.018 207.027 120.385L205.651 120.611L205.12 121.9L178.364 186.854L177.81 188.2L159.544 192.773L160.152 197.698H177.128C188.493 197.698 197.695 206.899 197.695 218.264V232.741H58.5331V218.264C58.5331 206.899 67.7342 197.698 79.0992 197.698V195.198V195.001L80.9334 194.246C78.8143 189.102 76.6951 183.958 74.5758 178.813C66.7612 159.843 58.9447 140.868 51.1203 121.9L50.5872 120.608L49.2072 120.385C40.8792 119.042 34.5 111.802 34.5 103.077C34.5 93.4005 42.3474 85.5423 52.0344 85.5423C61.7106 85.5423 69.5688 93.3897 69.5688 103.077C69.5688 105.462 69.0949 107.718 68.2359 109.798L67.6481 111.221L68.6543 112.386C69.6941 113.591 70.7373 114.802 71.7831 116.017C73.5168 118.031 75.2581 120.054 77.0049 122.066L80.1504 125.691L85.6524 147.724L90.5779 147.119V79.044V77.792L89.5754 77.042C85.3185 73.8578 82.5667 68.7572 82.5667 63.0344C82.5667 53.3582 90.4141 45.5 100.101 45.5C109.777 45.5 117.635 53.3474 117.635 63.0344C117.635 68.3414 115.278 73.1031 111.551 76.3105L110.279 77.405L110.81 78.9966C113.865 88.1511 116.914 97.3049 119.964 106.463C121.9 112.274 123.836 118.088 125.775 123.904L128.145 131.016L130.518 123.904C133.567 114.766 136.611 105.626 139.656 96.4839C141.597 90.6557 143.539 84.8265 145.482 78.9959L146.012 77.4076L144.745 76.3134C141.012 73.0896 138.657 68.3513 138.657 63.0344C138.657 53.3582 146.505 45.5 156.192 45.5C165.868 45.5 173.726 53.3474 173.726 63.0344C173.726 68.7572 170.974 73.8578 166.717 77.0421L165.715 77.792V79.044V131.111V137.147L169.982 132.879L188.443 114.419L189.763 113.099L188.872 111.458C187.515 108.958 186.737 106.115 186.737 103.066C186.737 93.39 194.584 85.5318 204.271 85.5318C213.436 85.5318 220.97 92.5719 221.741 101.547Z" fill="black" stroke="black" stroke-width="5" />
  </g>
  <g id="br" fill="none" transform="scale(0.15625 0.15625)">
    <path d="M83.3014 121.778V121.375L97.2877 117.882L96.6819 112.956H80.1822C73.1518 112.956 67.4467 107.251 67.4467 100.221V61.8722C75.1779 59.9685 84.1528 58.1427 94.1819 56.7813V83.7349V86.2349H96.6819H112.549H115.049V83.7349V54.8412C119.377 54.6189 123.832 54.5 128.417 54.5C132.998 54.5 137.469 54.6279 141.785 54.8606V83.735V86.235H144.285H160.152H162.652V83.735V56.8206C172.7 58.1886 181.658 60.0393 189.387 61.9575V100.234C189.387 107.264 183.682 112.969 176.652 112.969H176.02H173.52V115.469V188.329V188.892L159.547 192.38L160.152 197.305H176.987C187.885 197.305 196.776 205.856 197.321 216.618V217.679V232.014L59.5 232.001V217.666C59.5 206.429 68.6118 197.306 79.8597 197.306H80.8014H83.3014V194.806V121.778Z" fill="black" stroke="black" stroke-width="5" />
  </g>
  <g id="wb" fill="none" transform="scale(0.15625 0.15625)">
    <path d="M175.039 196.453H146.851L152.36 195.085V195.124L171.865 190.299H164.112C174.187 176.728 180.714 158.809 181.772 142.697C183.32 118.779 173.078 94.939 154.359 76.8776C153.25 78.2966 152.153 79.7802 151.082 81.3541C133.886 106.51 134.918 133.293 135.731 142.735H120.379C119.876 130.608 120.366 105.129 133.77 80.4889C136.234 75.9608 139.137 71.4585 142.555 67.0853C142.839 66.737 143.11 66.3629 143.407 66.0145C144.658 64.4407 145.935 62.9442 147.238 61.5251C146.89 51.2434 138.44 43 128.055 43C117.684 43 108.872 51.5789 108.872 62.183C108.872 63.6665 109.04 65.1242 109.376 66.5046H122.121L112.936 68.8009L102.397 71.4068H107.905C85.3035 89.9706 72.6344 116.288 74.3517 142.708C75.5773 161.401 84.1563 182.543 97.1338 196.463H81.0985C68.8947 196.463 59 206.358 59 218.562V234.842H197.111V218.562C197.111 206.358 187.216 196.463 175.013 196.463L175.039 196.453ZM110.329 69.4477H110.407L110.329 69.4864V69.4477Z" fill="black" />
    <path fill-rule="evenodd" clip-rule="evenodd" d="M151.762 190.121C151.559 190.145 151.356 190.182 151.155 190.232L145.646 191.6C143.194 192.209 141.581 194.551 141.888 197.059C142.195 199.567 144.324 201.453 146.851 201.453H174.686C174.794 201.46 174.903 201.463 175.013 201.463C184.455 201.463 192.111 209.119 192.111 218.562V229.842H64V218.562C64 209.119 71.6561 201.463 81.0985 201.463H97.1338C99.1243 201.463 100.925 200.282 101.719 198.457C102.513 196.632 102.148 194.509 100.791 193.054C88.6536 180.035 80.4965 160.005 79.341 142.381C77.7448 117.808 89.5245 92.974 111.079 75.2706C111.469 74.9502 111.801 74.5794 112.07 74.1735C112.091 74.166 112.111 74.1584 112.131 74.1506L114.136 73.6548L123.334 71.3553C125.784 70.7429 127.392 68.3999 127.084 65.8937C126.775 63.3874 124.647 61.5046 122.121 61.5046H113.889C114.254 54.0132 120.629 48 128.055 48C135.093 48 140.929 53.1203 142.054 59.8234C141.203 60.8004 140.366 61.8072 139.541 62.8433C139.338 63.0841 139.16 63.3126 139.028 63.4826C138.998 63.5208 138.971 63.5559 138.946 63.5884C138.83 63.7369 138.757 63.8318 138.679 63.927C138.67 63.9382 138.661 63.9495 138.652 63.9609C138.64 63.9758 138.628 63.9908 138.616 64.0058C135.017 68.6096 131.965 73.3447 129.378 78.099C115.337 103.912 114.866 130.468 115.384 142.942C115.495 145.62 117.699 147.735 120.379 147.735H135.731C137.131 147.735 138.468 147.147 139.415 146.115C140.362 145.083 140.833 143.701 140.712 142.306C139.937 133.303 139.007 108.202 154.917 84.6069C170.125 101.179 178.109 121.863 176.783 142.369M151.762 190.121L159.579 188.187C159.72 187.885 159.893 187.593 160.097 187.319C169.605 174.511 175.789 157.511 176.783 142.369" fill="white" />
  </g>
  <g id="wk" fill="none" transform="scale(0.15625 0.15625)">
    <path d="M214.989 148.389C220.317 133.257 215.841 119.376 214.989 116.86C209.958 102.05 197.625 89.8465 183.461 85.3313C168.393 80.5195 161.246 87.6276 145.753 91.2656C142.553 84.0285 139.367 76.7784 136.168 69.5542H151.945V53.7771H136.168V38H120.391V53.7771H104.613V69.5542H120.391C118.21 74.508 116.004 79.4617 113.824 84.4413L110.831 91.2785L105.039 104.489L106.845 93.8584L108.728 83.3574L105.774 89.9238C93.5704 86.1698 86.4492 81.0998 73.0975 85.3571C58.9327 89.8723 46.6002 102.076 41.5688 116.886C40.7174 119.401 36.2408 133.295 41.5688 148.415C45.5292 159.677 51.4763 161.844 65.2283 179.943C71.7561 188.548 74.1295 192.96 75.7937 196.108C65.2927 198.107 57.359 207.331 57.359 218.412V235.131H199.265V218.412C199.265 207.499 191.589 198.404 181.32 196.223H165.04L167.052 195.72L183.294 191.669L193.227 189.206H184.829C186.377 186.767 188.454 183.775 191.357 179.956C205.083 161.856 211.03 159.689 215.016 148.427L214.989 148.389ZM112.509 164.166H96.7319L80.9549 148.389C75.9753 139.436 76.2333 129.451 80.9549 124.729C85.0959 120.562 93.5457 119.621 101.596 123.452C105.517 125.323 109.323 128.316 112.484 132.611V164.14L112.509 164.166ZM175.58 148.389C170.33 153.639 165.08 158.89 159.803 164.166H144.026V132.637C147.187 128.328 150.993 125.336 154.914 123.478C162.938 119.646 171.414 120.614 175.555 124.755C180.277 129.477 180.56 139.436 175.58 148.389Z" fill="black" />
    <path fill-rule="evenodd" clip-rule="evenodd" d="M210.113 147.282C210.156 147.096 210.209 146.911 210.273 146.728C215.019 133.25 211.024 120.74 210.255 118.468C205.715 105.104 194.539 94.1104 181.942 90.0951L181.94 90.0943C175.533 88.0483 171.014 88.5203 166.162 89.9309C164.149 90.5164 162.158 91.2383 159.87 92.0682C159.191 92.3145 158.485 92.5704 157.745 92.835C154.596 93.9612 151.039 95.1602 146.895 96.1332C144.554 96.6831 142.152 95.4874 141.179 93.2872C139.782 90.1256 138.391 86.9713 137.001 83.8202C135.201 79.7371 133.403 75.6595 131.596 71.5787C130.911 70.0322 131.054 68.2444 131.977 66.8268C132.9 65.4092 134.476 64.5542 136.168 64.5542H146.945V58.7771H136.168C133.406 58.7771 131.168 56.5385 131.168 53.7771V43H125.391V53.7771C125.391 56.5385 123.152 58.7771 120.391 58.7771H109.613V64.5542H120.391C122.08 64.5542 123.655 65.4072 124.578 66.822C125.501 68.2368 125.647 70.0221 124.967 71.5683C124.064 73.6203 123.163 75.658 122.263 77.6928C120.975 80.6058 119.689 83.5126 118.404 86.4463L115.412 93.2835L115.41 93.2863L109.618 106.496C108.604 108.809 106.025 110.003 103.605 109.279C101.186 108.555 99.6865 106.141 100.11 103.651L101.767 93.8926C99.7027 93.2096 97.8498 92.5423 96.1386 91.926C88.2514 89.0854 83.3734 87.3286 74.6164 90.1208C62.0207 94.1358 50.8448 105.128 46.3039 118.492C45.5375 120.757 41.5378 133.283 46.2845 146.753L46.2856 146.756C47.9703 151.547 49.9989 154.35 53.4828 158.315C54.2406 159.177 55.0689 160.095 55.9708 161.095C59.3187 164.806 63.68 169.641 69.2095 176.918L69.2117 176.921C75.928 185.775 78.4435 190.422 80.2139 193.771C80.9554 195.173 80.9873 196.844 80.2999 198.274C79.6125 199.704 78.2874 200.723 76.7289 201.019C68.5421 202.578 62.359 209.776 62.359 218.412V230.131H194.265V218.412C194.265 210.077 188.524 203.1 180.762 201.223H165.04C162.515 201.223 160.386 199.341 160.077 196.834C159.769 194.328 161.377 191.985 163.827 191.373L165.84 190.87L165.842 190.869L180.213 187.285C180.321 187.023 180.453 186.769 180.608 186.525C182.248 183.943 184.409 180.834 187.376 176.93C192.913 169.63 197.276 164.79 200.627 161.073C201.516 160.087 202.333 159.18 203.083 158.327C206.441 154.506 208.453 151.762 210.113 147.282ZM117.121 166.098C116.342 167.956 114.524 169.166 112.509 169.166H96.7319C95.4058 169.166 94.134 168.639 93.1964 167.701L77.4193 151.924C77.0914 151.596 76.8107 151.225 76.5853 150.819C73.7082 145.647 72.2777 140.068 72.3171 134.934C72.3559 129.874 73.8498 124.766 77.4157 121.197C83.5687 115.015 94.5371 114.555 103.744 118.937L103.748 118.939C108.414 121.165 112.863 124.691 116.511 129.648C117.143 130.507 117.484 131.545 117.484 132.611V163.662C117.566 164.475 117.45 165.312 117.121 166.098ZM179.95 150.819C179.725 151.224 179.444 151.596 179.116 151.924L163.339 167.701C162.401 168.639 161.129 169.166 159.803 169.166H144.026C141.265 169.166 139.026 166.927 139.026 164.166V132.637C139.026 131.573 139.365 130.537 139.995 129.68C143.641 124.708 148.093 121.178 152.768 118.962C161.973 114.57 172.952 115.081 179.091 121.22C182.653 124.782 184.159 129.879 184.205 134.939C184.253 140.069 182.828 145.644 179.95 150.819Z" fill="white" />
  </g>
  <g id="wn" fill="none" transform="scale(0.15625 0.15625)">
    <path d="M204.092 219.739V235.194H72.8928V219.739C72.8928 208.142 82.2845 198.75 93.882 198.75H94.7463C92.0888 190.301 102.822 176.136 109.324 169.608C118.625 160.256 127.281 158.437 131.19 147.742C132.158 145.097 132.674 142.363 132.816 139.95L128.133 146.104L132.609 135.693L138.763 121.245L129.384 134.055C127.256 136.403 124.044 142.543 116.626 147.742C110.369 152.128 108.563 150.593 102.048 155.031C92.5406 161.507 93.0825 166.977 87.4705 169.608C75.7053 175.143 51.6845 161.21 51.014 147.742C50.5496 138.441 61.6828 138.35 72.8804 118.6C81.2915 103.764 78.3371 98.1271 87.458 89.458C94.3728 82.8787 100.72 81.6402 102.036 74.8803C103.106 69.3717 99.6619 66.0176 102.036 60.3026C103.093 57.7483 105.738 53.2977 109.324 53.014C114.562 52.6012 116.794 61.4123 123.902 67.5917C133.242 75.7317 143.768 73.0097 153.044 74.8803C184.379 81.1887 210.851 141.512 196.776 184.21C195.808 187.138 194.828 190.015 193.318 192.956H200.981L192.067 195.175L177.735 198.788L174.948 199.484H188.507C188.623 199.523 188.752 199.536 188.855 199.575C197.653 202.077 204.091 210.166 204.091 219.764L204.092 219.739Z" fill="black" />
    <path fill-rule="evenodd" clip-rule="evenodd" d="M135.886 149.46C133.479 156.043 129.535 159.877 125.344 163.129C124.102 164.093 122.896 164.972 121.703 165.841C118.79 167.964 115.958 170.028 112.869 173.134L112.866 173.137C109.853 176.163 105.826 181.004 102.917 185.981C101.464 188.468 100.383 190.83 99.8028 192.9C99.21 195.014 99.2526 196.413 99.5159 197.25C99.9936 198.769 99.7193 200.425 98.7774 201.708C97.8354 202.992 96.3384 203.75 94.7462 203.75H93.8819C85.0458 203.75 77.8927 210.903 77.8927 219.739V230.194H199.092V219.875C199.091 219.838 199.091 219.801 199.091 219.764C199.091 212.583 194.358 206.5 187.826 204.484H174.948C172.423 204.484 170.294 202.601 169.986 200.095C169.677 197.589 171.286 195.246 173.736 194.634L176.513 193.939L188.786 190.846C188.812 190.788 188.841 190.731 188.87 190.674C190.184 188.113 191.061 185.568 192.028 182.641C198.591 162.728 195.772 138.24 187.319 117.811C183.112 107.646 177.599 98.7116 171.405 92.015C165.182 85.2865 158.53 81.085 152.057 79.7819L152.055 79.7816C150.113 79.3899 148.022 79.2228 145.614 79.0893C145.178 79.0652 144.728 79.042 144.266 79.0183C142.284 78.9164 140.093 78.8037 137.925 78.5542C132.388 77.9167 126.318 76.3303 120.617 71.361C117.152 68.3477 114.631 64.728 112.81 62.1122C112.466 61.6183 112.147 61.1603 111.851 60.7488C110.811 59.3012 110.147 58.5284 109.646 58.1186C109.627 58.1034 109.61 58.0895 109.594 58.0768C109.403 58.1885 109.047 58.4477 108.549 59.0366C107.73 60.0037 107.047 61.2693 106.655 62.2158L106.653 62.2205C106.025 63.733 106.094 64.8354 106.457 66.7257C106.499 66.941 106.547 67.1755 106.599 67.428C106.999 69.3686 107.618 72.3665 106.944 75.8343L106.943 75.8357C105.94 80.9896 102.877 83.9461 99.8612 86.2256C98.8352 87.0011 97.8707 87.6733 96.9268 88.3312C94.9541 89.7062 93.0713 91.0185 90.9044 93.0803L90.9025 93.0821C87.1396 96.6586 85.9462 99.4082 84.6451 103.301C84.4547 103.871 84.2623 104.467 84.0607 105.091C82.7745 109.075 81.1155 114.213 77.2298 121.066C71.2248 131.658 65.1564 137.052 60.8893 140.832C56.4209 144.79 55.9131 145.597 56.0077 147.493C56.1047 149.442 57.0934 151.85 59.219 154.466C61.3139 157.044 64.2653 159.507 67.6286 161.498C70.9912 163.489 74.5739 164.893 77.8311 165.507C81.1508 166.133 83.6883 165.862 85.3421 165.084L85.3475 165.081C86.7215 164.437 87.2608 163.667 89.1868 160.916L89.2024 160.893C91.1391 158.127 93.787 154.608 99.2333 150.898C103.013 148.324 105.56 147.428 107.777 146.649L107.799 146.642C109.651 145.991 111.177 145.455 113.756 143.648C118.547 140.29 120.884 137.057 122.945 134.205C123.791 133.035 124.59 131.929 125.493 130.905L134.728 118.291C136.229 116.242 139.028 115.643 141.235 116.899C143.443 118.155 144.358 120.867 143.363 123.204L137.23 137.603C137.652 138.394 137.862 139.303 137.807 140.244C137.638 143.115 137.03 146.332 135.886 149.46Z" fill="white" />
  </g>
  <g id="wp" fill="none" transform="scale(0.15625 0.15625)">
    <path d="M202 217.235V234.667H54V217.235C54 205.675 62.2828 196.05 73.2377 193.974C74.6765 193.697 76.1613 193.556 77.6791 193.556H78.6665C84.2182 190.344 95.3238 182.887 103.333 168.889C107.277 161.994 109.393 155.396 110.549 150.072L100.035 150.053L113.506 146.709L123.459 144.222H95.1091C93.4298 143.501 91.7486 142.778 90.071 142.057L85.6534 131.476L106.438 119.726C99.4973 113.699 95.1089 104.805 95.1089 94.8889C95.1089 89.0032 96.6543 83.4769 99.3632 78.6996C105.012 68.7281 115.718 62 127.998 62C128.293 62 128.585 62.0018 128.879 62.011C128.891 62.0128 128.908 62.0128 128.923 62.0128C140.171 62.323 150.009 68.2805 155.7 77.1525C158.983 82.2696 160.886 88.3592 160.886 94.8891C160.886 104.47 156.792 113.092 150.256 119.1L172.15 131.48L167.769 141.97C165.475 142.721 163.181 143.474 160.887 144.222H144.442C145.178 150.035 147.102 159.164 152.665 168.889C157.537 177.409 163.561 183.502 168.777 187.693L176.015 187.712L170.543 189.064C170.543 189.064 170.555 189.075 170.563 189.081L152.663 193.557H178.317C179.835 193.557 181.32 193.699 182.758 193.976C193.715 196.052 201.996 205.676 201.996 217.237L202 217.235Z" fill="black" />
    <path fill-rule="evenodd" clip-rule="evenodd" d="M115.378 151.395C114.123 157.07 111.853 164.064 107.673 171.372C99.0534 186.437 87.1163 194.444 81.1703 197.884C80.4093 198.324 79.5457 198.556 78.6665 198.556H77.6791C76.4722 198.556 75.3043 198.668 74.1833 198.884L74.1685 198.887C65.5311 200.524 59 208.121 59 217.235V229.667H197V217.434C196.997 217.369 196.996 217.303 196.996 217.237C196.996 208.121 190.467 200.525 181.828 198.888L181.813 198.886C180.692 198.67 179.524 198.557 178.317 198.557H152.663C150.138 198.557 148.009 196.675 147.7 194.168C147.392 191.662 149 189.319 151.45 188.707L160.011 186.566C155.989 182.585 151.874 177.578 148.324 171.371C142.338 160.906 140.272 151.09 139.482 144.85C139.302 143.426 139.742 141.993 140.691 140.916C141.641 139.839 143.007 139.222 144.442 139.222H160.091C161.365 138.806 162.639 138.389 163.914 137.971C163.955 137.958 163.996 137.944 164.038 137.931L165.826 133.648L147.795 123.453C146.403 122.666 145.472 121.26 145.289 119.671C145.106 118.082 145.695 116.502 146.872 115.42C152.421 110.318 155.886 103.014 155.886 94.8891C155.886 89.3439 154.273 84.1875 151.492 79.8528C146.665 72.3282 138.339 67.2884 128.826 67.0121C128.804 67.0118 128.778 67.0112 128.749 67.0103C128.725 67.0096 128.693 67.0085 128.652 67.0066C128.457 67.0015 128.247 67 127.998 67C117.591 67 108.511 72.6958 103.714 81.1641L103.713 81.1658C101.42 85.2097 100.109 89.8887 100.109 94.8889C100.109 103.297 103.824 110.834 109.716 115.951C110.943 117.016 111.576 118.61 111.413 120.227C111.251 121.843 110.313 123.279 108.899 124.079L91.9772 133.645L93.9053 138.263C94.6495 138.583 95.3937 138.903 96.1377 139.222H123.459C125.985 139.222 128.114 141.105 128.422 143.612C128.73 146.118 127.121 148.461 124.671 149.073L115.378 151.395Z" fill="white" />
  </g>
  <g id="wq" fill="none" transform="scale(0.15625 0.15625)">
    <path d="M224.241 103.076C224.241 113.048 216.952 121.291 207.432 122.852L180.676 187.806H189.732L179.631 190.322L160.152 195.198H177.128C189.874 195.198 200.195 205.518 200.195 218.264V235.241H56.0331V218.264C56.0331 205.518 66.3535 195.198 79.0992 195.198H78.6219C68.6886 171.087 58.7554 146.965 48.8092 122.853C39.2887 121.318 32 113.049 32 103.077C32 92.0209 40.9657 83.0423 52.0344 83.0423C63.0902 83.0423 72.0688 92.008 72.0688 103.077C72.0688 105.799 71.527 108.379 70.5465 110.752C73.3201 113.965 76.0937 117.203 78.8929 120.428V110.288L82.4405 124.543L88.0779 147.119V79.044C83.2143 75.4059 80.0667 69.575 80.0667 63.0344C80.0667 51.9786 89.0324 43 100.101 43C111.157 43 120.135 51.9657 120.135 63.0344C120.135 69.0975 117.439 74.5416 113.182 78.2054C118.174 93.1698 123.154 108.135 128.146 123.113C133.139 108.149 138.118 93.184 143.111 78.2054C138.853 74.5287 136.157 69.1107 136.157 63.0344C136.157 51.9786 145.123 43 156.192 43C167.247 43 176.226 51.9657 176.226 63.0344C176.226 69.575 173.078 75.4059 168.215 79.044V131.111L186.675 112.651C185.127 109.8 184.237 106.549 184.237 103.066C184.237 92.0103 193.203 83.0318 204.271 83.0318C215.327 83.0318 224.306 91.9974 224.306 103.066L224.241 103.076Z" fill="black" />
    <path fill-rule="evenodd" clip-rule="evenodd" d="M219.29 102.373C218.928 94.3897 212.336 88.0318 204.271 88.0318C195.966 88.0318 189.237 94.7696 189.237 103.066C189.237 105.682 189.902 108.116 191.069 110.265C192.126 112.211 191.777 114.621 190.211 116.187L171.75 134.647C170.32 136.077 168.17 136.505 166.301 135.731C164.433 134.957 163.215 133.134 163.215 131.111V79.044C163.215 77.4679 163.958 75.9842 165.22 75.0402C168.87 72.3098 171.226 67.9393 171.226 63.0344C171.226 54.7292 164.488 48 156.192 48C147.886 48 141.157 54.7379 141.157 63.0344C141.157 67.5919 143.17 71.6506 146.379 74.4213C147.912 75.7456 148.495 77.8643 147.854 79.7864C145.911 85.6154 143.97 91.4436 142.029 97.2711C138.983 106.414 135.938 115.556 132.889 124.695C132.208 126.737 130.298 128.113 128.146 128.113C125.994 128.113 124.083 126.736 123.403 124.694C121.463 118.875 119.526 113.06 117.59 107.247C114.54 98.0913 111.492 88.9403 108.439 79.7878C107.797 77.8624 108.382 75.7397 109.92 74.4156C113.117 71.6645 115.135 67.5853 115.135 63.0344C115.135 54.7292 108.398 48 100.101 48C91.7959 48 85.0667 54.7379 85.0667 63.0344C85.0667 67.9393 87.4227 72.3098 91.0729 75.0401C92.3349 75.9841 93.0779 77.4679 93.0779 79.044V147.119C93.0779 149.644 91.1947 151.773 88.6882 152.081C86.1816 152.39 83.8387 150.78 83.2269 148.33L77.4557 125.217C76.5682 124.951 75.7524 124.437 75.1168 123.705C73.3675 121.69 71.619 119.659 69.8821 117.641C68.8372 116.427 67.7964 115.218 66.7621 114.02C65.5281 112.591 65.2044 110.589 65.9253 108.844C66.6628 107.058 67.0688 105.125 67.0688 103.077C67.0688 94.7715 60.3309 88.0423 52.0344 88.0423C43.7292 88.0423 37 94.7802 37 103.077C37 110.556 42.4697 116.766 49.6051 117.917C51.3203 118.193 52.7689 119.34 53.4314 120.946C61.2554 139.914 69.0714 158.887 76.8853 177.856C78.7676 182.425 80.6497 186.994 82.5318 191.562C83.497 192.474 84.0992 193.766 84.0992 195.198C84.0992 197.96 81.8607 200.198 79.0992 200.198C69.1149 200.198 61.0331 208.28 61.0331 218.264V230.241H195.195V218.264C195.195 208.28 187.113 200.198 177.128 200.198H160.152C157.627 200.198 155.498 198.316 155.189 195.81C154.88 193.304 156.488 190.961 158.937 190.348L175.983 186.08C176.005 186.021 176.028 185.961 176.053 185.902L202.809 120.948C203.469 119.345 204.912 118.198 206.623 117.918C213.78 116.744 219.241 110.545 219.241 103.076C219.241 102.838 219.258 102.603 219.29 102.373Z" fill="white" />
  </g>
  <g id="wr" fill="none" transform="scale(0.15625 0.15625)">
    <path d="M199.821 217.679V234.514L57 234.501V217.666C57 205.049 67.2302 194.806 79.8597 194.806H80.8014V121.778L71.3453 121.739L82.6848 118.952L96.6819 115.456H80.1822C71.771 115.456 64.9467 108.632 64.9467 100.221V60.2175C64.9467 60.2175 65.0628 60.0756 65.037 60.0111C65.0241 59.9595 64.9596 59.9337 64.9467 59.9208C73.8738 57.6503 84.5554 55.4443 96.6819 53.935V83.7349H112.549V52.4773C117.658 52.1677 122.947 52 128.417 52C133.887 52 139.202 52.1806 144.285 52.5031V83.735H160.152V53.9737C172.175 55.4702 182.728 57.6761 191.591 59.9337C191.591 59.9337 191.72 59.9338 191.797 60.0241C191.849 60.0757 191.887 60.1531 191.887 60.2305V100.234C191.887 108.645 185.063 115.469 176.652 115.469H176.02V188.329L186.082 188.368L176.02 190.845L160.152 194.805H176.987C189.617 194.805 199.847 205.036 199.847 217.665L199.821 217.679Z" fill="black" />
    <path fill-rule="evenodd" clip-rule="evenodd" d="M194.842 217.22C194.606 207.558 186.707 199.805 176.987 199.805H160.152C157.627 199.805 155.498 197.922 155.189 195.415C154.881 192.909 156.491 190.566 158.941 189.954L171.02 186.94V115.469C171.02 112.708 173.258 110.469 176.02 110.469H176.652C182.302 110.469 186.887 105.884 186.887 100.234V63.9205C180.43 62.3695 173.16 60.887 165.152 59.701V83.735C165.152 86.4964 162.914 88.735 160.152 88.735H144.285C141.523 88.735 139.285 86.4964 139.285 83.735V57.2409C135.751 57.0845 132.12 57 128.417 57C124.709 57 121.087 57.0785 117.549 57.2272V83.7349C117.549 86.4963 115.311 88.7349 112.549 88.7349H96.6819C93.9205 88.7349 91.6819 86.4963 91.6819 83.7349V59.66C83.6845 60.838 76.4046 62.3019 69.9467 63.8391V100.221C69.9467 105.871 74.5325 110.456 80.1822 110.456H96.6819C99.2073 110.456 101.336 112.34 101.645 114.846C101.953 117.353 100.344 119.695 97.8935 120.307L85.8014 123.328V194.806C85.8014 197.568 83.5629 199.806 80.8014 199.806H79.8597C69.9935 199.806 62 207.809 62 217.666V229.501L194.821 229.513V217.679C194.821 217.525 194.828 217.372 194.842 217.22Z" fill="white" />
  </g>
</svg>