<svg xmlns="http://www.w3.org/2000/svg" width="40" height="40" viewbox="0.0 0.0 180.0 180.0">
  <g id="bb" fill="none" transform="scale(0.2222222222222222 0.2222222222222222)">
    <path d="M129.375 163.125H50.625C50.625 143.441 51.0168 128.06 51.8004 116.984C52.584 105.841 54.3144 95.9653 56.9914 87.3574C59.7341 78.75 63.6846 69.8085 68.8433 60.534C74.0672 51.2589 81.1193 38.581 90 22.5C90.7183 24.1014 91.5345 25.7362 92.4486 27.4044C93.3626 29.0725 94.212 30.5071 94.9956 31.7082C95.7139 32.976 96.5627 34.4106 97.542 36.012C98.5866 37.5467 99.2396 38.8145 99.5012 39.8154C99.9579 41.1499 100.578 42.4511 101.362 43.7189C102.211 44.92 102.929 46.0209 103.517 47.0218C103.974 48.0227 104.659 49.2905 105.574 50.8252C106.553 52.3599 107.174 53.6277 107.435 54.6285C107.696 55.1623 108.381 56.4969 109.492 58.6322C110.602 60.7674 111.418 62.3357 111.94 63.3364L87.5514 75.0465L90 82.6538L116.446 71.9437C116.642 72.4776 117.099 73.3787 117.817 74.6466C118.601 75.8475 119.156 76.815 119.482 77.5491C119.678 78.3495 120.07 79.4841 120.657 80.9522C121.245 82.4198 121.67 83.6544 121.931 84.6551C122.388 85.9899 122.91 87.3911 123.498 88.8593C124.086 90.2604 124.379 91.5947 124.379 92.8626C124.576 94.1304 124.869 95.4984 125.261 96.966C125.653 98.4341 125.849 99.7689 125.849 100.97C126.11 102.304 126.437 103.805 126.829 105.474C127.22 107.075 127.416 108.644 127.416 110.178C127.416 111.446 127.481 113.014 127.612 114.882C127.808 116.75 127.906 118.586 127.906 120.387C127.906 122.188 127.971 124.124 128.102 126.192C128.297 128.194 128.395 130.329 128.395 132.598C128.395 134.599 128.46 136.769 128.591 139.103C128.787 141.373 128.885 143.808 128.885 146.41C128.885 148.945 128.95 151.615 129.081 154.417C129.277 157.22 129.375 160.122 129.375 163.125Z" fill="#1B262C" />
  </g>
  <g id="bk" fill="none" transform="scale(0.2222222222222222 0.2222222222222222)">
    <path d="M123.75 163.125H56.25L64.4473 97.0768L81.1451 72.1851V55.3257H64.4473V38.9625H81.1451V22.5H98.3492V38.9625H115.047V55.3257H98.3492V72.1851L115.047 97.0768L123.75 163.125Z" fill="#1B262C" />
  </g>
  <g id="bn" fill="none" transform="scale(0.2222222222222222 0.2222222222222222)">
    <path d="M91.9401 56.094C89.8864 56.094 88.8593 57.4853 88.8593 60.2685C88.8593 62.3222 89.8864 63.3493 91.9401 63.3493C93.9943 63.3493 95.0214 62.3222 95.0214 60.2685C95.0214 57.4853 93.9943 56.094 91.9401 56.094ZM58.545 142.961C58.545 136.269 59.8371 129.411 62.4212 122.388C65.0053 115.364 67.8218 108.97 70.8694 103.205C73.9839 97.4402 76.833 92.7028 79.4171 88.992C82.0676 85.2817 83.3929 83.4266 83.3929 83.4266C80.4111 84.6855 78.5228 85.7126 77.7274 86.5074C76.9984 87.3028 75.3092 88.0644 72.6587 88.7934C68.4844 90.0523 64.7072 91.4439 61.3283 92.9677C57.9488 94.4257 54.0726 95.1542 49.6994 95.1542C48.5067 95.1542 46.8833 93.9617 44.8292 91.5767C42.7752 89.1911 41.6487 87.6341 41.45 86.9051C40.6548 85.1822 40.1579 83.2607 39.9591 81.1406C39.8266 78.9536 39.661 77.0985 39.4621 75.5747C38.932 71.9303 40.8205 68.4518 45.1274 65.1386C49.5006 61.7591 54.8014 58.5124 61.0301 55.3983C67.3245 52.2178 73.818 49.1698 80.5106 46.2543C87.2027 43.3389 92.7023 40.4566 97.0093 37.6073L102.376 22.5L106.75 37.6073C116.291 56.6241 123.48 76.1709 128.318 96.2477C133.154 116.259 135.573 138.323 135.573 162.442H58.545V142.961Z" fill="#1B262C" />
    <path d="M91.9401 56.0942C89.8864 56.0942 88.8593 57.4858 88.8593 60.2685C88.8593 62.3227 89.8864 63.3498 91.9401 63.3498C93.9944 63.3498 95.0215 62.3227 95.0215 60.2685C95.0215 57.4858 93.9944 56.0942 91.9401 56.0942Z" fill="#BBE1FA" />
  </g>
  <g id="bp" fill="none" transform="scale(0.2222222222222222 0.2222222222222222)">
    <path d="M90.7976 160.889H61.875C63.5979 154.263 65.9171 147.67 68.8326 141.11C71.748 134.551 72.7087 128.19 71.7148 122.028C71.1844 117.654 69.3956 114.507 66.3474 112.585C63.3656 110.598 61.875 107.384 61.875 102.945C61.875 98.3064 63.2334 93.933 65.9497 89.8251C68.6666 85.7171 71.3835 83.5301 74.0998 83.2652C77.0816 83.0666 78.9041 82.4704 79.5667 81.4764C80.2294 80.4161 80.5607 78.8923 80.5607 76.9044C80.5607 74.9829 79.0031 72.5642 75.8891 69.6487C72.7746 66.6669 71.2176 63.6857 71.2176 60.7039C71.2176 56.0655 73.305 52.2886 77.4793 49.3732C81.72 46.4577 86.1592 45 90.7976 45C95.7009 45 100.273 46.4577 104.514 49.3732C108.821 52.2886 110.974 56.0655 110.974 60.7039C110.974 63.6857 109.417 66.6669 106.302 69.6487C103.188 72.5642 101.631 74.9829 101.631 76.9044C101.631 78.8923 101.93 80.4161 102.526 81.4764C103.188 82.4704 105.01 83.0666 107.992 83.2652C110.709 83.5301 113.425 85.7171 116.142 89.8251C118.925 93.933 120.317 98.3064 120.317 102.945C120.317 107.384 118.793 110.598 115.744 112.585C112.697 114.507 110.941 117.654 110.477 122.028C109.483 128.19 110.411 134.551 113.26 141.11C116.175 147.67 118.528 154.263 120.317 160.889H90.7976ZM73.6031 124.115V127.494H108.588V124.115H73.6031ZM81.8528 77.5007V80.7806H100.24V77.5007H81.8528Z" fill="#1B262C" />
    <path d="M73.6031 124.114V127.494H108.589V124.114H73.6031ZM81.8528 77.5006V80.7806H100.24V77.5006H81.8528Z" fill="#BBE1FA" />
  </g>
  <g id="bq" fill="none" transform="scale(0.2222222222222222 0.2222222222222222)">
    <path d="M108.061 163.125H71.9387L45 39.9411L71.9387 83.5937L62.8571 30.9714L80.6124 75.1224L89.7958 22.5L98.9797 75.1224L116.734 30.9714L108.061 83.5937L135 39.9411L108.061 163.125Z" fill="#1B262C" />
  </g>
  <g id="br" fill="none" transform="scale(0.2222222222222222 0.2222222222222222)">
    <path d="M77.1801 45H96.6144V72.1508H115.566V45H135V90.1834L115.566 99.4022V144.586L135 153.805V163.125H39.375V153.805L58.2294 144.586V99.4022L39.375 90.1834V45H58.2294V72.1508H77.1801V45Z" fill="#1B262C" />
  </g>
  <g id="wb" fill="none" transform="scale(0.2222222222222222 0.2222222222222222)">
    <path d="M118.906 84.6191C118.442 83.3603 117.946 82.035 117.416 80.6434C116.952 79.1859 116.389 77.8275 115.726 76.5686L88.1944 87.5014L83.1257 72.5929L107.377 61.1629C106.78 60.1689 106.217 59.175 105.688 58.1811C105.157 57.1871 104.694 56.1271 104.296 55.0007C103.766 53.9405 103.136 52.8803 102.408 51.8202C101.745 50.7601 101.149 49.6667 100.618 48.5403C100.022 47.4139 99.3594 46.3206 98.6304 45.2604C97.902 44.2002 97.272 43.0738 96.7421 41.8812C96.5436 41.5499 96.3776 41.2185 96.2454 40.8872C96.1791 40.5559 96.0795 40.1915 95.9473 39.794C95.2847 38.6675 94.3898 37.1766 93.2636 35.3214C92.7996 34.7913 91.872 33.3005 90.4804 30.8488C86.571 37.7399 82.629 44.6641 78.6532 51.6214C74.6775 58.5124 70.9009 65.4699 67.3228 72.4933C65.2022 76.9331 63.4466 81.1074 62.055 85.0168C60.597 89.3233 59.4045 93.5308 58.4769 97.6393C57.0853 104.265 56.1246 112.051 55.5945 120.996C55.1969 127.225 54.9319 133.453 54.7994 139.682C54.7331 145.844 54.6999 152.006 54.6999 158.168H126.46C126.46 156.777 126.394 155.352 126.261 153.894C126.195 152.37 126.162 150.913 126.162 149.521C125.963 144.154 125.731 138.754 125.466 133.32C125.267 127.887 125.102 122.487 124.969 117.12C124.903 115.927 124.804 114.701 124.671 113.442C124.604 112.183 124.571 110.924 124.571 109.666C124.505 108.009 123.975 105.094 122.981 100.919C122.981 99.594 122.782 98.2688 122.385 96.9435C122.053 95.6183 121.755 94.2598 121.49 92.8688C121.424 91.4108 121.06 90.0523 120.397 88.7934C119.801 87.4682 119.304 86.0766 118.906 84.6191ZM130.535 162.243H50.625C50.625 142.63 51.0226 127.324 51.8177 116.324C52.6128 105.259 54.3687 95.4529 57.0853 86.9051C59.8686 78.3574 63.8769 69.4783 69.1116 60.2685C74.4126 51.0582 81.5687 38.4688 90.5799 22.5C91.3089 24.0902 92.1369 25.7136 93.0645 27.3701C93.9926 29.0266 94.8538 30.4512 95.6486 31.6439C96.3776 32.9029 97.2394 34.3275 98.2333 35.9177C99.2931 37.4417 99.9557 38.7006 100.221 39.6946C100.685 41.0198 101.314 42.3119 102.109 43.5708C102.971 44.7635 103.7 45.8567 104.296 46.8507C104.759 47.8446 105.455 49.1035 106.383 50.6275C107.377 52.1515 108.006 53.4104 108.272 54.4043C108.537 54.9344 109.232 56.2596 110.359 58.3802C111.485 60.5003 112.313 62.0573 112.844 63.0512L88.0954 74.6798L90.5799 82.2336L117.416 71.5989C117.614 72.1288 118.078 73.0238 118.807 74.2826C119.602 75.4751 120.165 76.4359 120.497 77.1649C120.695 77.9597 121.093 79.0864 121.689 80.5438C122.286 82.0018 122.716 83.2275 122.981 84.2214C123.445 85.5467 123.975 86.9383 124.572 88.3958C125.168 89.7874 125.466 91.1126 125.466 92.3715C125.665 93.6304 125.963 94.9888 126.361 96.4468C126.758 97.9043 126.957 99.2295 126.957 100.422C127.222 101.747 127.553 103.238 127.951 104.895C128.348 106.485 128.547 108.042 128.547 109.566C128.547 110.891 128.613 112.481 128.746 114.337C128.945 116.126 129.044 117.915 129.044 119.704C129.044 121.493 129.11 123.415 129.243 125.468C129.441 127.456 129.541 129.577 129.541 131.83C129.541 133.818 129.607 135.971 129.74 138.29C129.938 140.543 130.038 142.961 130.038 145.545C130.038 148.064 130.104 150.714 130.236 153.497C130.435 156.279 130.534 159.195 130.534 162.243H130.535Z" fill="#1B262C" />
    <path d="M118.906 84.6191C118.442 83.3603 117.946 82.035 117.415 80.6434C116.952 79.186 116.389 77.8275 115.726 76.5686L88.1943 87.5014L83.1257 72.5929L107.377 61.1629C106.78 60.169 106.217 59.175 105.688 58.1811C105.157 57.1871 104.694 56.1273 104.296 55.0008C103.765 53.9407 103.136 52.8805 102.408 51.8203C101.745 50.7602 101.148 49.6669 100.618 48.5404C100.022 47.414 99.3594 46.3207 98.6304 45.2606C97.9014 44.2004 97.272 43.074 96.7421 41.8813C96.5435 41.55 96.3776 41.2187 96.2454 40.8874C96.179 40.5561 96.0795 40.1917 95.9467 39.7941C95.2847 38.6677 94.3897 37.1768 93.2636 35.3215C92.7995 34.7914 91.872 33.3006 90.4803 30.8489C86.571 37.74 82.6284 44.6642 78.6532 51.6215C74.6775 58.5124 70.9008 65.47 67.3228 72.4933C65.2022 76.9331 63.446 81.1075 62.055 85.0168C60.597 89.3239 59.4045 93.5314 58.4769 97.6393C57.0853 104.266 56.1245 112.051 55.5944 120.996C55.1969 127.225 54.9319 133.453 54.7993 139.682C54.733 145.844 54.6999 152.006 54.6999 158.168H126.46C126.46 156.777 126.394 155.352 126.261 153.894C126.195 152.371 126.162 150.913 126.162 149.521C125.963 144.154 125.731 138.754 125.466 133.32C125.267 127.887 125.102 122.487 124.969 117.12C124.903 115.927 124.804 114.702 124.671 113.442C124.604 112.183 124.571 110.924 124.571 109.666C124.505 108.009 123.975 105.094 122.981 100.919C122.981 99.594 122.782 98.2688 122.385 96.9435C122.053 95.6183 121.755 94.2598 121.49 92.8688C121.424 91.4108 121.06 90.0523 120.397 88.7935C119.801 87.4682 119.304 86.0771 118.906 84.6191Z" fill="#BBE1FA" />
  </g>
  <g id="wk" fill="none" transform="scale(0.2222222222222222 0.2222222222222222)">
    <path d="M122.543 163.436H56.25L64.3005 97.2416L80.7002 72.2947V55.3983H64.3005V38.9988H80.7002V22.5H97.5966V38.9988H113.996V55.3983H97.5966V72.2947L113.996 97.2416L122.543 163.436ZM110.119 98.6332L93.6208 73.5868V51.4226H110.021V42.9744H93.6208V26.575H84.6759V42.9744H68.2762V51.4226H84.6759V73.5868L68.1767 98.6332L60.822 159.46H117.971L110.119 98.6332Z" fill="#1B262C" />
    <path d="M110.12 98.6332L93.6208 73.5868V51.4225H110.02V42.9743H93.6208V26.5749H84.6754V42.9743H68.2763V51.4225H84.6754V73.5868L68.1767 98.6332L60.822 159.46H117.971L110.12 98.6332Z" fill="#BBE1FA" />
  </g>
  <g id="wn" fill="none" transform="scale(0.2222222222222222 0.2222222222222222)">
    <path d="M91.94 56.094C93.9943 56.094 95.0214 57.4853 95.0214 60.2685C95.0214 62.3222 93.9943 63.3493 91.94 63.3493C89.82 63.3493 88.7596 62.3222 88.7596 60.2685C88.7596 57.4853 89.82 56.094 91.94 56.094Z" fill="#1B262C" />
    <path fill-rule="evenodd" clip-rule="evenodd" d="M58.446 162.243V142.763C58.446 136.07 59.7381 129.212 62.3222 122.189C64.9063 115.165 67.7554 108.804 70.8694 103.106C73.9839 97.3412 76.833 92.6364 79.4171 88.992L83.3929 83.4266C80.4111 84.6855 78.5228 85.7126 77.7274 86.5074C76.9326 87.3028 75.2428 88.0644 72.6587 88.7934C68.4844 90.0523 64.7072 91.4108 61.3283 92.8688C57.9488 94.3262 54.0726 95.0552 49.6994 95.0552C48.4405 95.0552 46.784 93.8953 44.7299 91.5761C42.7421 89.1911 41.6487 87.6341 41.45 86.9051C40.6548 85.1822 40.158 83.2607 39.9592 81.1406C39.8267 78.9536 39.661 77.0985 39.4621 75.5747C38.932 71.9303 40.8205 68.4518 45.1275 65.1386C49.5006 61.7591 54.8015 58.5124 61.0301 55.3983C67.2587 52.2178 73.719 49.1698 80.4111 46.2543C87.1031 43.3389 92.6027 40.4566 96.9098 37.6073L102.277 22.5L106.65 37.6073C116.192 56.6241 123.348 76.1378 128.118 96.1481C132.955 116.093 135.374 138.124 135.374 162.243H58.446ZM130.703 143.16C131.1 148.196 131.299 153.199 131.299 158.168H62.5208V142.763C62.5871 139.184 63.117 135.209 64.1109 130.836C65.8339 123.945 68.2521 117.318 71.3666 110.958C74.547 104.596 78.0919 98.4341 82.0013 92.4711C84.1877 89.1579 86.5069 85.9444 88.9588 82.8298C91.4102 79.6494 93.8948 76.4691 96.4131 73.2887L80.7092 80.2457C78.8541 81.0411 77.2965 81.9023 76.0376 82.8298C74.7788 83.7579 73.2881 84.4532 71.5652 84.9173C68.0535 85.9112 64.5418 87.2033 61.0296 88.7934C57.5179 90.3173 53.9399 91.0794 50.2957 91.0794C48.5729 89.9533 46.8833 88.0644 45.2268 85.4139C44.6304 83.8238 44.2328 82.1672 44.034 80.4448C43.9015 78.7219 43.7358 76.9989 43.5371 75.2766C43.4046 74.6139 43.504 73.8849 43.8352 73.0896C44.8292 71.0359 46.3532 69.2466 48.4072 67.7228C50.4613 66.1326 52.4822 64.7409 54.47 63.5484C59.6385 60.5666 64.9721 57.8166 70.4717 55.2989C76.0376 52.781 81.5372 50.23 86.9709 47.6458C91.2774 45.5917 95.7504 43.1401 100.388 40.2909L101.978 35.5201L103.072 39.0982L104.96 42.9744C109.466 52.516 113.408 61.9583 116.788 71.3008C121.029 83.6252 124.309 96.0159 126.628 108.473C127.82 115.099 128.781 121.625 129.51 128.053C129.974 133.089 130.371 138.124 130.703 143.16Z" fill="#1B262C" />
    <path fill-rule="evenodd" clip-rule="evenodd" d="M131.299 158.168C131.299 153.199 131.1 148.196 130.702 143.16C130.371 138.124 129.973 133.089 129.51 128.053C128.781 121.625 127.82 115.099 126.628 108.473C124.309 96.0159 121.029 83.6252 116.788 71.3008C113.408 61.9577 109.466 52.5158 104.96 42.9744L103.072 39.0981L101.978 35.5201L100.388 40.2908C95.7504 43.14 91.2774 45.5916 86.9709 47.6457C81.5372 50.2299 76.0376 52.7809 70.4717 55.2988C64.9721 57.8166 59.6385 60.5666 54.47 63.5484C52.4822 64.7409 50.4613 66.1326 48.4072 67.7228C46.3531 69.2466 44.8292 71.0359 43.8352 73.0896C43.504 73.8849 43.4046 74.6139 43.537 75.2766C43.7358 76.9989 43.9015 78.7219 44.034 80.4448C44.2328 82.1672 44.6304 83.8238 45.2267 85.4139C46.8832 88.0644 48.5729 89.9528 50.2957 91.0794C53.9399 91.0794 57.5179 90.3173 61.0296 88.7934C64.5418 87.2033 68.0535 85.9112 71.5652 84.9173C73.2881 84.4532 74.7787 83.7574 76.0376 82.8298C77.2965 81.9023 78.8541 81.0411 80.7092 80.2457L96.4131 73.2887C93.8948 76.4691 91.4102 79.6494 88.9588 82.8298C86.5069 85.9444 84.1877 89.1579 82.0012 92.4711C78.0919 98.4341 74.547 104.596 71.3666 110.958C68.2521 117.318 65.8339 123.945 64.1109 130.836C63.117 135.209 62.5871 139.184 62.5207 142.763V158.168H131.299ZM95.0214 60.2685C95.0214 57.4853 93.9943 56.0939 91.9401 56.0939C89.82 56.0939 88.7597 57.4853 88.7597 60.2685C88.7597 62.3222 89.82 63.3493 91.9401 63.3493C93.9943 63.3493 95.0214 62.3222 95.0214 60.2685Z" fill="#BBE1FA" />
  </g>
  <g id="wp" fill="none" transform="scale(0.2222222222222222 0.2222222222222222)">
    <path d="M85.7289 77.5007H95.4692V80.8802H85.7289V77.5007ZM78.3737 124.214H105.11V127.594H78.3737V124.214ZM90.8972 160.989H61.875C63.5979 154.363 65.9171 147.77 68.8326 141.21C71.748 134.65 72.7087 128.289 71.7148 122.127C71.1844 117.754 69.3956 114.573 66.3474 112.585C63.3656 110.598 61.875 107.384 61.875 102.945C61.875 98.3064 63.2334 93.9662 65.9497 89.9246C68.6666 85.8161 71.4167 83.6297 74.1994 83.3648C77.1148 83.1662 78.9041 82.5694 79.5667 81.5754C80.2294 80.5157 80.5607 78.9913 80.5607 77.004C80.5607 75.0161 79.0031 72.5642 75.8891 69.6487C72.7746 66.7333 71.2176 63.7847 71.2176 60.8029C71.2176 56.1649 73.305 52.388 77.4793 49.4726C81.72 46.4909 86.1924 45 90.8972 45C95.8005 45 100.373 46.4909 104.613 49.4726C108.853 52.388 110.974 56.1649 110.974 60.8029C110.974 63.7847 109.417 66.7333 106.302 69.6487C103.255 72.5642 101.73 75.0161 101.73 77.004C101.73 78.9913 102.028 80.5157 102.625 81.5754C103.288 82.5694 105.11 83.1662 108.092 83.3648C110.742 83.6297 113.425 85.8161 116.142 89.9246C118.925 93.9662 120.317 98.3064 120.317 102.945C120.317 107.384 118.793 110.598 115.744 112.585C112.697 114.573 110.941 117.754 110.477 122.127C109.483 128.289 110.444 134.65 113.359 141.21C116.275 147.77 118.594 154.363 120.317 160.989H90.8972ZM107.794 133.358C107.329 130.907 107.065 128.72 106.998 126.798C106.998 125.142 107.098 123.419 107.296 121.63L107.694 119.841L108.191 118.052L108.886 116.362L109.781 114.872C110.643 113.613 111.537 112.453 112.465 111.393C114.452 109.272 115.811 107.484 116.54 106.026C117.534 102.978 117.203 99.4989 115.546 95.5896C113.956 91.6802 111.802 88.8311 109.086 87.0424C108.622 86.8433 107.429 86.5783 105.508 86.247C103.983 85.9821 102.724 85.518 101.73 84.8554C99.8752 83.5965 98.8149 81.7414 98.55 79.29C98.55 78.8923 98.5168 78.4946 98.4504 78.0969C98.4504 77.6334 98.4504 77.1694 98.4504 76.7053C98.6496 75.2479 99.3454 73.5913 100.538 71.7362C101.598 70.2782 102.724 68.8539 103.917 67.4623C105.176 66.0043 106.269 64.4141 107.197 62.6917C107.86 61.2337 107.893 59.5772 107.296 57.7221C106.037 54.5415 103.785 52.1893 100.538 50.6653C97.2911 49.1413 94.0776 48.3461 90.8972 48.2799C84.3373 48.4123 79.434 50.7977 76.1873 55.436C74.6634 57.8874 74.1662 60.0413 74.6966 61.8964C75.2929 63.3544 76.0877 64.7122 77.0816 65.9711C78.1419 67.2306 79.1691 68.4562 80.163 69.6487C81.6868 71.5039 82.8461 73.4259 83.6415 75.4133C83.9064 77.7988 83.7079 79.9521 83.0453 81.8741C82.3163 83.133 81.4883 84.1269 80.5607 84.8554C78.8378 85.7835 76.8499 86.3466 74.5971 86.5451C73.7359 86.6779 72.7419 87.2077 71.6152 88.1353C69.4288 90.1232 67.7059 92.7405 66.447 95.9872C65.1881 99.234 64.8568 102.282 65.4531 105.131C65.9171 106.655 66.6456 107.98 67.6395 109.107C68.6334 110.167 69.6274 111.26 70.6213 112.387L71.6152 113.579L72.5096 114.872L73.305 116.362L74.0998 118.052L74.5971 119.841C74.9284 121.564 75.1601 123.486 75.2929 125.606C75.2929 126.467 75.2265 127.759 75.0943 129.482C74.4975 133.656 73.4378 137.897 71.9134 142.204C70.9194 144.788 69.9255 147.372 68.9321 149.956C67.9382 152.54 67.0433 155.125 66.2484 157.709H116.043C114.784 154.131 113.426 150.553 111.968 146.974C110.576 143.33 109.384 139.62 108.39 135.843L108.092 134.65L107.794 133.358Z" fill="#1B262C" />
    <path d="M85.7289 77.5007H95.4692V80.8802H85.7289V77.5007ZM78.3737 124.214H105.11V127.594H78.3737V124.214ZM107.794 133.358C107.329 130.907 107.065 128.72 106.998 126.798C106.998 125.142 107.098 123.419 107.296 121.63L107.694 119.841L108.191 118.052L108.886 116.362L109.781 114.872C110.643 113.613 111.537 112.453 112.465 111.393C114.452 109.272 115.811 107.484 116.54 106.026C117.534 102.978 117.202 99.499 115.546 95.5896C113.956 91.6802 111.802 88.8311 109.086 87.0424C108.622 86.8433 107.429 86.5783 105.508 86.247C103.984 85.9821 102.724 85.518 101.73 84.8554C99.8752 83.5965 98.8149 81.7414 98.55 79.2895C98.55 78.8923 98.5168 78.4946 98.451 78.097C98.451 77.6335 98.451 77.1694 98.451 76.7053C98.6495 75.2479 99.3454 73.5913 100.538 71.7362C101.598 70.2782 102.724 68.854 103.917 67.4623C105.176 66.0043 106.269 64.4141 107.197 62.6918C107.86 61.2338 107.893 59.5772 107.296 57.7221C106.037 54.5415 103.785 52.1892 100.538 50.6652C97.2911 49.1413 94.0775 48.3461 90.8972 48.2798C84.3373 48.4123 79.434 50.7977 76.1872 55.436C74.6634 57.8875 74.1662 60.0413 74.6966 61.8964C75.2929 63.3538 76.0877 64.7123 77.0816 65.9711C78.1419 67.2306 79.169 68.4563 80.163 69.6488C81.6868 71.5039 82.8467 73.4254 83.6415 75.4133C83.9064 77.7988 83.7079 79.9521 83.0452 81.8736C82.3162 83.133 81.4882 84.127 80.5607 84.8554C78.8377 85.783 76.8499 86.3466 74.597 86.5451C73.7359 86.6779 72.7419 87.2078 71.6152 88.1353C69.4288 90.1232 67.7059 92.7405 66.447 95.9873C65.1881 99.234 64.8568 102.282 65.453 105.131C65.9171 106.655 66.6455 107.98 67.6395 109.107C68.6334 110.167 69.6274 111.26 70.6213 112.387L71.6152 113.579L72.5096 114.872L73.305 116.362L74.0998 118.052L74.597 119.841C74.9284 121.564 75.1601 123.485 75.2929 125.606C75.2929 126.467 75.2265 127.759 75.0943 129.482C74.4975 133.656 73.4377 137.897 71.9134 142.204C70.9194 144.788 69.926 147.372 68.9321 149.956C67.9382 152.54 67.0432 155.125 66.2484 157.709H116.043C114.784 154.131 113.426 150.553 111.968 146.975C110.576 143.33 109.384 139.62 108.39 135.843L108.092 134.65L107.794 133.358Z" fill="#BBE1FA" />
  </g>
  <g id="wq" fill="none" transform="scale(0.2222222222222222 0.2222222222222222)">
    <path d="M106.423 162.74H71.2389L45 39.8933L71.2389 83.4266L62.3931 30.9482L79.6871 74.9784L88.6326 22.5L97.5774 74.9784L114.872 30.9482L106.423 83.4266L132.662 39.8933L106.423 162.74ZM123.817 62.4549L99.1676 103.205L105.032 66.9274L95.9872 89.8869L88.6326 46.4531L81.2773 89.8869L72.8291 68.319L78.7927 103.702L53.9452 62.4549L74.5189 158.665H103.243L123.817 62.4549Z" fill="#1B262C" />
    <path d="M123.816 62.4549L99.1676 103.205L105.032 66.9274L95.9872 89.8869L88.6325 46.453L81.2773 89.8869L72.8291 68.319L78.7927 103.702L53.9451 62.4549L74.5188 158.665H103.243L123.816 62.4549Z" fill="#BBE1FA" />
  </g>
  <g id="wr" fill="none" transform="scale(0.2222222222222222 0.2222222222222222)">
    <path d="M78.2364 45H98.2142V71.6366H117.695V45H137.672V89.3284L117.695 98.3728V142.701L137.672 151.746V160.889H39.375V151.746L58.7559 142.701V98.3728L39.375 89.3284V45H58.7559V71.6366H78.2364V45ZM94.2384 48.9756H82.3117V75.6124H54.7805V48.9756H43.3506V86.7442L62.8313 95.7887V145.285L43.3506 154.33V156.814H133.697V154.33L113.719 145.285V95.7887L133.697 86.7442V48.9756H121.67V75.6124H94.2384V48.9756Z" fill="#1B262C" />
    <path d="M94.2384 48.9756H82.3117V75.6124H54.7806V48.9756H43.3507V86.7443L62.8312 95.7887V145.285L43.3507 154.33V156.814H133.697V154.33L113.719 145.285V95.7887L133.697 86.7443V48.9756H121.67V75.6124H94.2384V48.9756Z" fill="#BBE1FA" />
  </g>
</svg>