<svg xmlns="http://www.w3.org/2000/svg" width="40" height="40" viewbox="0.0 0.0 256.0 256.0">
  <g id="bb" fill="none" transform="scale(0.15625 0.15625)">
    <path fill-rule="evenodd" clip-rule="evenodd" d="M128.301 37.0003C123.521 37.0003 119.104 39.6104 116.799 43.7978C114.927 47.1972 114.708 51.2082 116.047 54.7616C107.787 63.2654 100.18 71.8848 97.2079 81.3421C95.6248 86.3803 95.4722 91.7561 97.4895 96.9716C98.6897 100.072 100.701 103.065 103.389 105.984L92.1505 105.983C88.6661 105.983 85.3208 107.369 82.8562 109.834C80.3916 112.299 79.0049 115.644 79.0049 119.128V125.701C79.0049 129.186 80.3913 132.531 82.8562 134.996C85.321 137.46 88.6662 138.847 92.1505 138.847H101.907C100.841 181.292 79.6595 198.93 65.1787 206.265C59.5655 209.025 56 214.753 56 221.009V227.582C56 231.066 57.3865 234.411 59.8513 236.876C62.3161 239.34 65.6613 240.727 69.1456 240.727H187.456C190.941 240.727 194.286 239.341 196.751 236.876C199.215 234.411 200.602 231.066 200.602 227.582V221.009C200.602 214.753 197.037 209.025 191.423 206.265C176.943 198.931 155.762 181.293 154.695 138.847H164.452C167.936 138.847 171.281 137.46 173.746 134.996C176.211 132.531 177.597 129.186 177.597 125.701V119.128C177.597 115.644 176.211 112.299 173.746 109.834C171.281 107.369 167.937 105.983 164.452 105.983H153.212C155.898 103.065 157.911 100.072 159.111 96.9701C161.13 91.7528 160.977 86.3788 159.393 81.3407C156.42 71.8818 148.813 63.2654 140.553 54.7601C141.894 51.2082 141.676 47.1969 139.803 43.7974C137.499 39.6104 133.081 37 128.301 37L128.301 37.0003Z" fill="#8879B0" />
    <path fill-rule="evenodd" clip-rule="evenodd" d="M128.372 42.6342H128.301C125.574 42.6342 123.048 44.1271 121.734 46.5146L121.734 46.5155C120.683 48.4226 120.541 50.7101 121.319 52.7744L122.581 56.1213L120.089 58.687C111.74 67.2818 105.1 75.0211 102.582 83.0314C101.318 87.0568 101.26 91.1007 102.743 94.9376C103.622 97.2075 105.181 99.6126 107.534 102.168L116.235 111.62L92.1505 111.617C90.1617 111.617 88.2487 112.409 86.8401 113.818C85.4308 115.227 84.6387 117.14 84.6387 119.128V125.701C84.6387 127.69 85.4308 129.603 86.8397 131.012C88.2492 132.421 90.1619 133.213 92.1505 133.213H107.684L107.539 138.988C106.982 161.172 101.143 177.271 93.2303 188.893C85.3373 200.486 75.6039 207.3 67.7245 211.291L67.6945 211.306L67.6644 211.321C63.9792 213.133 61.6338 216.9 61.6338 221.009V227.582C61.6338 229.571 62.4259 231.483 63.8348 232.892C65.2443 234.301 67.157 235.093 69.1456 235.093H187.456C189.446 235.093 191.358 234.301 192.767 232.892C194.176 231.483 194.968 229.57 194.968 227.582V221.009C194.968 216.899 192.623 213.133 188.938 211.321L188.908 211.306L188.878 211.291C180.998 207.3 171.265 200.487 163.372 188.894C155.459 177.271 149.62 161.172 149.063 138.988L148.918 133.213H164.452C166.441 133.213 168.353 132.421 169.762 131.012C171.171 129.603 171.963 127.69 171.963 125.701V119.128C171.963 117.139 171.171 115.227 169.762 113.818C168.353 112.408 166.441 111.617 164.452 111.617H140.368L149.067 102.167C151.419 99.6114 152.979 97.2069 153.857 94.9372C155.342 91.0979 155.284 87.0557 154.018 83.0309L154.018 83.0297C151.5 75.0183 144.861 67.2824 136.512 58.6852L134.019 56.1181L135.282 52.7703C136.06 50.7094 135.919 48.4225 134.868 46.5151C133.566 44.1486 131.072 42.66 128.372 42.6342ZM134.1 38.3525C132.326 37.4783 130.348 37.0005 128.304 37L128.301 37L128.298 37.0003C127.41 37.0006 126.534 37.0909 125.683 37.2646L125.679 37.2653C121.949 38.0273 118.674 40.3903 116.799 43.7978C114.927 47.1972 114.708 51.2082 116.047 54.7616C107.787 63.2654 100.18 71.8848 97.2079 81.3421C95.6248 86.3803 95.4722 91.7561 97.4895 96.9716C97.9309 98.1116 98.4819 99.2371 99.1359 100.35C100.26 102.263 101.69 104.138 103.389 105.984L92.1505 105.983C88.6661 105.983 85.3208 107.369 82.8562 109.834C80.3916 112.299 79.0049 115.644 79.0049 119.128V125.701C79.0049 129.186 80.3913 132.531 82.8562 134.996C85.321 137.46 88.6662 138.847 92.1505 138.847H101.907C101.859 140.776 101.769 142.653 101.64 144.481C98.9295 182.874 79.0015 199.263 65.1787 206.265C59.5655 209.025 56 214.753 56 221.009V227.582C56 231.066 57.3865 234.411 59.8513 236.876C62.3161 239.34 65.6613 240.727 69.1456 240.727H187.456C190.941 240.727 194.286 239.341 196.751 236.876C199.215 234.411 200.602 231.066 200.602 227.582V221.009C200.602 214.753 197.037 209.025 191.423 206.265C177.601 199.264 157.673 182.875 154.962 144.481C154.833 142.653 154.743 140.776 154.695 138.847H164.452C167.936 138.847 171.281 137.46 173.746 134.996C176.211 132.531 177.597 129.186 177.597 125.701V119.128C177.597 115.644 176.211 112.299 173.746 109.834C171.281 107.369 167.937 105.983 164.452 105.983H153.212C154.91 104.138 156.34 102.262 157.465 100.349C158.119 99.2362 158.67 98.1105 159.111 96.9701C161.13 91.7528 160.977 86.3788 159.393 81.3407C156.42 71.8818 148.813 63.2654 140.553 54.7601C141.894 51.2082 141.676 47.1969 139.803 43.7974C138.485 41.4018 136.474 39.5223 134.1 38.3525Z" fill="black" />
  </g>
  <g id="bk" fill="none" transform="scale(0.15625 0.15625)">
    <path fill-rule="evenodd" clip-rule="evenodd" d="M115.155 37C113.335 37 111.869 38.4657 111.869 40.2864V56.7185H95.4369C93.6162 56.7185 92.1505 58.1841 92.1505 60.0049V86.2962C92.1505 88.1169 93.6162 89.5826 95.4369 89.5826H111.869V106.015H92.1505C88.6661 106.015 85.3208 107.401 82.8562 109.866C80.3916 112.331 79.0049 115.676 79.0049 119.16V125.733C79.0049 129.218 80.3913 132.563 82.8562 135.027C85.321 137.492 88.6662 138.879 92.1505 138.879H101.907C100.841 181.324 79.6595 198.962 65.1787 206.297C59.5655 209.057 56 214.785 56 221.041V227.613C56 231.098 57.3865 234.443 59.8513 236.908C62.3161 239.372 65.6613 240.759 69.1456 240.759H187.456C190.941 240.759 194.286 239.373 196.751 236.908C199.215 234.443 200.602 231.098 200.602 227.613V221.041C200.602 214.785 197.037 209.057 191.423 206.297C176.943 198.963 155.762 181.325 154.695 138.879H164.452C167.936 138.879 171.281 137.492 173.746 135.027C176.211 132.563 177.597 129.217 177.597 125.733V119.16C177.597 115.676 176.211 112.331 173.746 109.866C171.281 107.401 167.936 106.015 164.452 106.015H144.733V89.5826H161.165C162.986 89.5826 164.452 88.1169 164.452 86.2962V60.0049C164.452 58.1841 162.986 56.7185 161.165 56.7185H144.733V40.2864C144.733 38.4657 143.267 37 141.447 37H115.155Z" fill="#8879B0" />
    <path fill-rule="evenodd" clip-rule="evenodd" d="M117.503 62.3523H97.7844V83.9487H117.503V111.649H92.1505C90.1614 111.649 88.2489 112.441 86.8401 113.85C85.4308 115.259 84.6387 117.172 84.6387 119.16V125.733C84.6387 127.722 85.4308 129.635 86.8397 131.044C88.2492 132.453 90.1619 133.245 92.1505 133.245H107.684L107.539 139.02C106.982 161.204 101.143 177.302 93.2303 188.925C85.3373 200.518 75.6039 207.332 67.7245 211.323L67.6945 211.338L67.6644 211.353C63.9792 213.165 61.6338 216.931 61.6338 221.041V227.613C61.6338 229.603 62.4259 231.515 63.8348 232.924C65.2443 234.333 67.157 235.125 69.1456 235.125H187.456C189.446 235.125 191.358 234.333 192.767 232.924C194.176 231.515 194.968 229.602 194.968 227.613V221.041C194.968 216.931 192.623 213.165 188.938 211.353L188.908 211.338L188.878 211.323C180.998 207.332 171.265 200.519 163.372 188.926C155.459 177.303 149.62 161.204 149.063 139.02L148.918 133.245H164.452C166.441 133.245 168.353 132.453 169.762 131.044C171.171 129.635 171.963 127.722 171.963 125.733V119.16C171.963 117.171 171.171 115.259 169.762 113.85C168.353 112.441 166.44 111.649 164.452 111.649H139.099V83.9487H158.818V62.3523H139.099V42.6338H117.503V62.3523ZM164.452 138.879C167.936 138.879 171.281 137.492 173.746 135.027C176.211 132.563 177.597 129.217 177.597 125.733V119.16C177.597 115.676 176.211 112.331 173.746 109.866C171.281 107.401 167.936 106.015 164.452 106.015H144.733V89.5826H161.165C162.986 89.5826 164.452 88.1169 164.452 86.2962V60.0049C164.452 58.1841 162.986 56.7185 161.165 56.7185H144.733V40.2864C144.733 38.4657 143.267 37 141.447 37H115.155C113.335 37 111.869 38.4657 111.869 40.2864V56.7185H95.4369C93.6162 56.7185 92.1505 58.1841 92.1505 60.0049V86.2962C92.1505 88.1169 93.6162 89.5826 95.4369 89.5826H111.869V106.015H92.1505C88.6661 106.015 85.3208 107.401 82.8562 109.866C80.3916 112.331 79.0049 115.676 79.0049 119.16V125.733C79.0049 129.218 80.3913 132.563 82.8562 135.027C85.321 137.492 88.6662 138.879 92.1505 138.879H101.907C101.859 140.808 101.769 142.685 101.64 144.513C98.9295 182.906 79.0015 199.295 65.1787 206.297C59.5655 209.057 56 214.785 56 221.041V227.613C56 231.098 57.3865 234.443 59.8513 236.908C62.3161 239.372 65.6613 240.759 69.1456 240.759H187.456C190.941 240.759 194.286 239.373 196.751 236.908C199.215 234.443 200.602 231.098 200.602 227.613V221.041C200.602 214.785 197.037 209.057 191.423 206.297C177.601 199.296 157.673 182.907 154.962 144.513C154.833 142.685 154.743 140.808 154.695 138.879H164.452Z" fill="black" />
  </g>
  <g id="bn" fill="none" transform="scale(0.15625 0.15625)">
    <path fill-rule="evenodd" clip-rule="evenodd" d="M125.015 37C123.194 37 121.729 38.2823 121.729 39.8756V56.8665C103.906 58.3513 89.2007 71.7861 86.1809 89.5504L63.5926 103.62C58.5912 106.759 56 112.588 56 119.16C56 122.828 57.052 126.534 59.0487 129.693C64.4155 138.186 75.3783 141.257 84.3703 136.863L91.9129 133.314C93.9067 132.488 96.0958 131.668 98.7234 133.186C100.761 134.363 102.01 136.526 102.01 138.88C100.943 181.326 79.6592 198.963 65.1787 206.299C59.5656 209.057 56.0001 214.785 56.0001 221.041V227.613C56.0001 231.098 57.3865 234.443 59.8514 236.908C62.3162 239.372 65.6614 240.759 69.1457 240.759H187.457C190.941 240.759 194.286 239.373 196.751 236.908C199.216 234.443 200.602 231.098 200.602 227.613V221.041C200.602 214.785 197.037 209.057 191.424 206.297C176.943 198.963 155.763 181.325 154.695 138.879H164.452C167.936 138.879 171.281 137.492 173.746 135.028C176.211 132.563 177.597 129.218 177.597 125.733V89.5827C177.597 75.6389 172.053 62.266 162.192 52.4053C152.333 42.5445 138.96 37.0001 125.015 37.0001L125.015 37Z" fill="#8879B0" />
    <path fill-rule="evenodd" clip-rule="evenodd" d="M125.015 37.0001C124.824 37.0001 124.637 37.0141 124.456 37.0411C122.903 37.2721 121.729 38.4492 121.729 39.8756V56.8665C103.906 58.3513 89.2007 71.7861 86.1809 89.5504L63.5926 103.62C58.5912 106.759 56 112.588 56 119.16C56 122.828 57.052 126.534 59.0487 129.693C64.4155 138.186 75.3783 141.257 84.3703 136.863L91.9129 133.314C93.9067 132.488 96.0958 131.668 98.7234 133.186C100.761 134.363 102.01 136.526 102.01 138.88C100.943 181.326 79.6592 198.963 65.1787 206.299C59.5656 209.057 56.0001 214.785 56.0001 221.041V227.613C56.0001 231.098 57.3865 234.443 59.8514 236.908C62.3162 239.372 65.6614 240.759 69.1457 240.759H187.457C190.941 240.759 194.286 239.373 196.751 236.908C199.216 234.443 200.602 231.098 200.602 227.613V221.041C200.602 214.785 197.037 209.057 191.424 206.297C177.601 199.296 157.674 182.907 154.963 144.513C154.834 142.685 154.744 140.808 154.695 138.879H164.452C167.936 138.879 171.281 137.492 173.746 135.028C176.211 132.563 177.597 129.218 177.597 125.733V89.5827C177.597 75.6389 172.053 62.266 162.192 52.4053C152.466 42.6775 139.32 37.1504 125.578 37.0031C125.391 37.0011 125.203 37.0001 125.015 37.0001ZM127.362 42.6926V62.0506L122.196 62.4809C106.934 63.7524 94.3235 75.2676 91.7351 90.4945L91.3104 92.9927L66.587 108.393C66.5849 108.394 66.5827 108.395 66.5806 108.397C63.6406 110.245 61.6338 113.983 61.6338 119.16C61.6338 121.774 62.3896 124.434 63.8109 126.683L63.8114 126.684C67.636 132.736 75.4756 134.939 81.8968 131.801L81.9341 131.783L89.6342 128.16L89.8048 128.089C91.8982 127.222 96.4183 125.348 101.541 128.307M127.362 42.6926C138.957 43.2733 149.96 48.1389 158.208 56.3887C167.013 65.194 171.963 77.1346 171.963 89.5827V125.733C171.963 127.722 171.171 129.635 169.762 131.044C168.353 132.453 166.441 133.245 164.452 133.245H148.918L149.063 139.021C149.621 161.204 155.46 177.303 163.373 188.926C171.265 200.519 180.998 207.332 188.878 211.323L188.908 211.338L188.938 211.353C192.623 213.165 194.968 216.931 194.968 221.041V227.613C194.968 229.602 194.176 231.515 192.767 232.924C191.358 234.333 189.446 235.125 187.457 235.125H69.1457C67.157 235.125 65.2443 234.333 63.8349 232.924C62.426 231.515 61.6339 229.603 61.6339 227.613V221.041C61.6339 216.931 63.9794 213.165 67.6634 211.355L67.6941 211.34L67.7246 211.325C75.5984 207.336 85.3565 200.525 93.2762 188.934C101.217 177.312 107.084 161.211 107.642 139.022L107.644 138.951V138.88C107.644 134.514 105.323 130.492 101.542 128.308" fill="black" />
  </g>
  <g id="bp" fill="none" transform="scale(0.15625 0.15625)">
    <path fill-rule="evenodd" clip-rule="evenodd" d="M128.037 60C111.633 60 97.4146 71.4511 93.9153 87.4771C91.15 100.139 95.6813 112.978 105.053 121.191H93.1082C90.022 121.191 87.059 122.42 84.8761 124.606C82.6931 126.791 81.4649 129.757 81.4649 132.846V138.674C81.4649 141.763 82.6929 144.729 84.8761 146.914C87.0592 149.1 90.0221 150.329 93.1082 150.329H104.661C103.716 187.962 84.9556 203.6 72.1297 210.104C67.158 212.551 64 217.629 64 223.176V229.004C64 232.093 65.228 235.059 67.4112 237.244C69.5943 239.429 72.5572 240.659 75.6433 240.659H180.433C183.519 240.659 186.482 239.43 188.665 237.244C190.848 235.059 192.076 232.093 192.076 229.004V223.176C192.076 217.629 188.918 212.551 183.946 210.104C171.121 203.601 152.36 187.963 151.415 150.329H162.968C166.054 150.329 169.017 149.1 171.2 146.914C173.383 144.729 174.611 141.763 174.611 138.674V132.846C174.611 129.757 173.383 126.791 171.2 124.606C169.017 122.42 166.054 121.191 162.968 121.191H151.023C160.395 112.979 164.926 100.14 162.161 87.4771C158.66 71.4511 144.441 60 128.039 60H128.037Z" fill="black" />
    <path fill-rule="evenodd" clip-rule="evenodd" d="M99.4194 88.6792C97.1039 99.2816 100.894 110.055 108.766 116.954L120.03 126.825H93.1082C91.5192 126.825 89.9896 127.458 88.862 128.587C87.7338 129.717 87.0988 131.251 87.0988 132.846V138.674C87.0988 140.27 87.7338 141.804 88.8617 142.933C89.9899 144.062 91.5196 144.695 93.1082 144.695H110.438L110.293 150.47C109.796 170.247 104.594 184.642 97.5091 195.059C90.4441 205.446 81.73 211.553 74.6776 215.129L74.6476 215.144L74.6174 215.159C71.5747 216.656 69.6338 219.773 69.6338 223.176V229.004C69.6338 230.599 70.2689 232.133 71.3968 233.262C72.5249 234.391 74.0547 235.025 75.6433 235.025H180.433C182.022 235.025 183.551 234.391 184.679 233.263C185.807 232.133 186.442 230.599 186.442 229.004V223.176C186.442 219.773 184.502 216.656 181.459 215.159L181.429 215.144L181.399 215.129C174.346 211.553 165.632 205.447 158.567 195.059C151.482 184.642 146.28 170.247 145.783 150.47L145.638 144.695H162.968C164.557 144.695 166.087 144.062 167.214 142.933C168.342 141.803 168.977 140.269 168.977 138.674V132.846C168.977 131.25 168.342 129.716 167.214 128.587C166.086 127.458 164.557 126.825 162.968 126.825H136.045L147.31 116.954C155.183 110.056 158.972 99.2823 156.657 88.6792C153.721 75.2396 141.792 65.6339 128.039 65.6339H128.037C114.282 65.6339 102.354 75.2401 99.4194 88.6792Z" fill="#8879B0" />
  </g>
  <g id="bq" fill="none" transform="scale(0.15625 0.15625)">
    <path fill-rule="evenodd" clip-rule="evenodd" d="M128.179 37.0024C127.029 37.0449 125.985 37.6846 125.426 38.6911L110.591 65.3549L83.8891 50.5398C81.1734 49.0374 78.0776 51.7854 79.2543 54.6536L100.437 106.016H92.1505C88.6661 106.016 85.3208 107.402 82.8562 109.867C80.3916 112.332 79.0049 115.677 79.0049 119.161V125.734C79.0049 129.219 80.3913 132.564 82.8562 135.028C85.321 137.493 88.6662 138.88 92.1505 138.88H101.907C100.841 181.325 79.6595 198.963 65.1787 206.298C59.5655 209.058 56 214.786 56 221.042V227.614C56 231.099 57.3865 234.444 59.8513 236.909C62.3161 239.373 65.6613 240.76 69.1456 240.76H187.456C190.941 240.76 194.286 239.374 196.751 236.909C199.215 234.444 200.602 231.099 200.602 227.614V221.042C200.602 214.786 197.037 209.058 191.423 206.298C176.943 198.964 155.762 181.326 154.695 138.88H164.452C167.936 138.88 171.281 137.493 173.746 135.028C176.211 132.564 177.597 129.218 177.597 125.734V119.161C177.597 115.677 176.211 112.331 173.746 109.867C171.281 107.402 167.937 106.016 164.452 106.016H156.165L177.347 54.6536C178.525 51.7854 175.428 49.0359 172.712 50.5398L146.01 65.3549L131.177 38.6911C130.577 37.6083 129.418 36.9554 128.18 37.0024H128.179Z" fill="black" />
    <path d="M86.8401 113.85C88.2489 112.441 90.1614 111.649 92.1505 111.649H108.854L87.4365 59.7166L87.027 58.7237L112.779 73.0115L128.301 45.1106L143.822 73.0116L148.117 70.6285L169.574 58.7236L156.261 91.0061L152.549 100.007L147.748 111.649H164.452C166.441 111.649 168.353 112.441 169.762 113.851C171.171 115.26 171.963 117.172 171.963 119.161V125.734C171.963 127.723 171.171 129.635 169.762 131.045C168.353 132.454 166.441 133.246 164.452 133.246H148.918L149.063 139.021C149.62 161.205 155.459 177.304 163.372 188.927C171.265 200.52 180.998 207.333 188.878 211.324L188.908 211.339L188.938 211.354C192.623 213.166 194.968 216.932 194.968 221.042V227.614C194.968 229.603 194.176 231.516 192.767 232.925C191.358 234.334 189.446 235.126 187.456 235.126H69.1456C67.157 235.126 65.2443 234.334 63.8348 232.925C62.4259 231.516 61.6338 229.603 61.6338 227.614V221.042C61.6338 216.932 63.9792 213.166 67.6644 211.354L67.6945 211.339L67.7245 211.324C75.6039 207.333 85.3373 200.519 93.2303 188.926C101.143 177.303 106.982 161.205 107.539 139.021L107.684 133.246H92.1505C90.1619 133.246 88.2492 132.454 86.8397 131.044C85.4308 129.636 84.6387 127.723 84.6387 125.734V119.161C84.6387 117.173 85.4308 115.26 86.8401 113.85Z" fill="#8879B0" />
  </g>
  <g id="br" fill="none" transform="scale(0.15625 0.15625)">
    <path fill-rule="evenodd" clip-rule="evenodd" d="M82.2913 37C80.4764 37 79.0049 38.4716 79.0049 40.2864L85.5777 92.869C85.5777 94.6839 87.0493 96.1554 88.8641 96.1554H98.7234V106.015H88.8641C85.3797 106.015 82.0344 107.401 79.5698 109.866C77.1052 112.331 75.7185 115.676 75.7185 119.16V125.733C75.7185 129.218 77.1049 132.563 79.5698 135.027C82.0346 137.492 85.3798 138.879 88.8641 138.879H101.907C100.841 181.324 79.6595 198.962 65.1787 206.297C59.5655 209.058 56 214.785 56 221.041V227.613C56 231.098 57.3865 234.443 59.8513 236.908C62.3161 239.372 65.6613 240.759 69.1456 240.759H187.456C190.941 240.759 194.286 239.373 196.751 236.908C199.215 234.443 200.602 231.099 200.602 227.613V221.041C200.602 214.785 197.037 209.057 191.423 206.297C176.943 198.963 155.762 181.325 154.695 138.879H167.738C171.222 138.879 174.568 137.492 177.032 135.027C179.497 132.563 180.884 129.219 180.884 125.733V119.16C180.884 115.676 179.497 112.331 177.032 109.866C174.568 107.401 171.222 106.015 167.738 106.015H157.879V96.1554H167.738C169.553 96.1554 171.024 94.6839 171.024 92.869L177.597 40.2864C177.597 38.4716 176.126 37 174.311 37H154.592C152.778 37 151.306 38.4716 151.306 40.2864V53.4321H141.447V40.2864C141.447 38.4716 139.975 37 138.16 37H118.442C116.627 37 115.155 38.4716 115.155 40.2864V53.4321H105.296V40.2864C105.296 38.4716 103.825 37 102.01 37H82.2913Z" fill="#8879B0" />
    <path fill-rule="evenodd" clip-rule="evenodd" d="M167.738 138.879C171.222 138.879 174.568 137.492 177.032 135.027C179.497 132.563 180.884 129.219 180.884 125.733V119.16C180.884 115.676 179.497 112.331 177.032 109.866C174.568 107.401 171.222 106.015 167.738 106.015H157.879V96.1554H167.738C169.553 96.1554 171.024 94.6839 171.024 92.869L177.597 40.2864C177.597 38.4716 176.126 37 174.311 37H154.592C152.778 37 151.306 38.4716 151.306 40.2864V53.4321H141.447V40.2864C141.447 38.4716 139.975 37 138.16 37H118.442C116.627 37 115.155 38.4716 115.155 40.2864V53.4321H105.296V40.2864C105.296 38.4716 103.825 37 102.01 37H82.2913C80.4764 37 79.0049 38.4716 79.0049 40.2864L85.5777 92.869C85.5777 94.6839 87.0493 96.1554 88.8641 96.1554H98.7234V106.015H88.8641C85.3797 106.015 82.0344 107.401 79.5698 109.866C77.1052 112.331 75.7185 115.676 75.7185 119.16V125.733C75.7185 129.218 77.1049 132.563 79.5698 135.027C82.0346 137.492 85.3798 138.879 88.8641 138.879H101.907C101.859 140.808 101.769 142.685 101.64 144.513C98.9295 182.906 79.0015 199.295 65.1787 206.297C59.5655 209.058 56 214.785 56 221.041V227.613C56 231.098 57.3865 234.443 59.8513 236.908C62.3161 239.372 65.6613 240.759 69.1456 240.759H187.456C190.941 240.759 194.286 239.373 196.751 236.908C199.215 234.443 200.602 231.099 200.602 227.613V221.041C200.602 214.785 197.037 209.057 191.423 206.297C177.601 199.296 157.673 182.907 154.962 144.513C154.833 142.685 154.743 140.808 154.695 138.879H167.738ZM84.976 42.6338L90.962 90.5216H104.357V111.649H88.8641C86.875 111.649 84.9625 112.441 83.5537 113.85C82.1444 115.259 81.3523 117.172 81.3523 119.16V125.733C81.3523 127.722 82.1444 129.635 83.5533 131.044C84.9627 132.453 86.8754 133.245 88.8641 133.245H107.684L107.539 139.02C106.982 161.204 101.143 177.302 93.2303 188.925C85.3373 200.518 75.6039 207.332 67.7245 211.323L67.6951 211.338L67.6654 211.353C63.9786 213.166 61.6338 216.932 61.6338 221.041V227.613C61.6338 229.603 62.4259 231.515 63.8348 232.924C65.2443 234.333 67.157 235.125 69.1456 235.125H187.456C189.446 235.125 191.358 234.333 192.767 232.924C194.176 231.515 194.968 229.603 194.968 227.613V221.041C194.968 216.931 192.623 213.165 188.938 211.353L188.908 211.338L188.878 211.323C180.998 207.332 171.265 200.519 163.372 188.926C155.459 177.303 149.62 161.204 149.063 139.02L148.918 133.245H167.738C169.727 133.245 171.64 132.453 173.048 131.044C174.458 129.634 175.25 127.723 175.25 125.733V119.16C175.25 117.171 174.458 115.259 173.049 113.85C171.639 112.441 169.727 111.649 167.738 111.649H152.245V90.5216H165.64L171.626 42.6338H156.94V59.0659H135.813V42.6338H120.789V59.0659H99.6623V42.6338H84.976Z" fill="black" />
  </g>
  <g id="wb" fill="none" transform="scale(0.15625 0.15625)">
    <path fill-rule="evenodd" clip-rule="evenodd" d="M128.301 37.0003C123.521 37.0003 119.104 39.6104 116.799 43.7978C114.927 47.1972 114.708 51.2082 116.047 54.7616C107.787 63.2654 100.18 71.8848 97.2079 81.3421C95.6248 86.3803 95.4722 91.7561 97.4895 96.9716C98.6897 100.072 100.701 103.065 103.389 105.984L92.1505 105.983C88.6661 105.983 85.3208 107.369 82.8562 109.834C80.3916 112.299 79.0049 115.644 79.0049 119.128V125.701C79.0049 129.186 80.3913 132.531 82.8562 134.996C85.321 137.46 88.6662 138.847 92.1505 138.847H101.907C100.841 181.292 79.6595 198.93 65.1787 206.265C59.5655 209.025 56 214.753 56 221.009V227.582C56 231.066 57.3865 234.411 59.8513 236.876C62.3161 239.34 65.6613 240.727 69.1456 240.727H187.456C190.941 240.727 194.286 239.341 196.751 236.876C199.215 234.411 200.602 231.066 200.602 227.582V221.009C200.602 214.753 197.037 209.025 191.423 206.265C176.943 198.931 155.762 181.293 154.695 138.847H164.452C167.936 138.847 171.281 137.46 173.746 134.996C176.211 132.531 177.597 129.186 177.597 125.701V119.128C177.597 115.644 176.211 112.299 173.746 109.834C171.281 107.369 167.937 105.983 164.452 105.983H153.212C155.898 103.065 157.911 100.072 159.111 96.9701C161.13 91.7528 160.977 86.3788 159.393 81.3407C156.42 71.8818 148.813 63.2654 140.553 54.7601C141.894 51.2082 141.676 47.1969 139.803 43.7974C137.499 39.6104 133.081 37 128.301 37L128.301 37.0003Z" fill="#FBC5C5" />
    <path fill-rule="evenodd" clip-rule="evenodd" d="M128.372 42.6342H128.301C125.574 42.6342 123.048 44.1271 121.734 46.5146L121.734 46.5155C120.683 48.4226 120.541 50.7101 121.319 52.7744L122.581 56.1213L120.089 58.687C111.74 67.2818 105.1 75.0211 102.582 83.0314C101.318 87.0568 101.26 91.1007 102.743 94.9376C103.622 97.2075 105.181 99.6126 107.534 102.168L116.235 111.62L92.1505 111.617C90.1617 111.617 88.2487 112.409 86.8401 113.818C85.4308 115.227 84.6387 117.14 84.6387 119.128V125.701C84.6387 127.69 85.4308 129.603 86.8397 131.012C88.2492 132.421 90.1619 133.213 92.1505 133.213H107.684L107.539 138.988C106.982 161.172 101.143 177.271 93.2303 188.893C85.3373 200.486 75.6039 207.3 67.7245 211.291L67.6945 211.306L67.6644 211.321C63.9792 213.133 61.6338 216.9 61.6338 221.009V227.582C61.6338 229.571 62.4259 231.483 63.8348 232.892C65.2443 234.301 67.157 235.093 69.1456 235.093H187.456C189.446 235.093 191.358 234.301 192.767 232.892C194.176 231.483 194.968 229.57 194.968 227.582V221.009C194.968 216.899 192.623 213.133 188.938 211.321L188.908 211.306L188.878 211.291C180.998 207.3 171.265 200.487 163.372 188.894C155.459 177.271 149.62 161.172 149.063 138.988L148.918 133.213H164.452C166.441 133.213 168.353 132.421 169.762 131.012C171.171 129.603 171.963 127.69 171.963 125.701V119.128C171.963 117.139 171.171 115.227 169.762 113.818C168.353 112.408 166.441 111.617 164.452 111.617H140.368L149.067 102.167C151.419 99.6114 152.979 97.2069 153.857 94.9372C155.342 91.0979 155.284 87.0557 154.018 83.0309L154.018 83.0297C151.5 75.0183 144.861 67.2824 136.512 58.6852L134.019 56.1181L135.282 52.7703C136.06 50.7094 135.919 48.4225 134.868 46.5151C133.566 44.1486 131.072 42.66 128.372 42.6342ZM134.1 38.3525C132.326 37.4783 130.348 37.0005 128.304 37L128.301 37L128.298 37.0003C127.41 37.0006 126.534 37.0909 125.683 37.2646L125.679 37.2653C121.949 38.0273 118.674 40.3903 116.799 43.7978C114.927 47.1972 114.708 51.2082 116.047 54.7616C107.787 63.2654 100.18 71.8848 97.2079 81.3421C95.6248 86.3803 95.4722 91.7561 97.4895 96.9716C97.9309 98.1116 98.4819 99.2371 99.1359 100.35C100.26 102.263 101.69 104.138 103.389 105.984L92.1505 105.983C88.6661 105.983 85.3208 107.369 82.8562 109.834C80.3916 112.299 79.0049 115.644 79.0049 119.128V125.701C79.0049 129.186 80.3913 132.531 82.8562 134.996C85.321 137.46 88.6662 138.847 92.1505 138.847H101.907C101.859 140.776 101.769 142.653 101.64 144.481C98.9295 182.874 79.0015 199.263 65.1787 206.265C59.5655 209.025 56 214.753 56 221.009V227.582C56 231.066 57.3865 234.411 59.8513 236.876C62.3161 239.34 65.6613 240.727 69.1456 240.727H187.456C190.941 240.727 194.286 239.341 196.751 236.876C199.215 234.411 200.602 231.066 200.602 227.582V221.009C200.602 214.753 197.037 209.025 191.423 206.265C177.601 199.264 157.673 182.875 154.962 144.481C154.833 142.653 154.743 140.776 154.695 138.847H164.452C167.936 138.847 171.281 137.46 173.746 134.996C176.211 132.531 177.597 129.186 177.597 125.701V119.128C177.597 115.644 176.211 112.299 173.746 109.834C171.281 107.369 167.937 105.983 164.452 105.983H153.212C154.91 104.138 156.34 102.262 157.465 100.349C158.119 99.2362 158.67 98.1105 159.111 96.9701C161.13 91.7528 160.977 86.3788 159.393 81.3407C156.42 71.8818 148.813 63.2654 140.553 54.7601C141.894 51.2082 141.676 47.1969 139.803 43.7974C138.485 41.4018 136.474 39.5223 134.1 38.3525Z" fill="black" />
  </g>
  <g id="wk" fill="none" transform="scale(0.15625 0.15625)">
    <path fill-rule="evenodd" clip-rule="evenodd" d="M115.155 37C113.335 37 111.869 38.4657 111.869 40.2864V56.7185H95.4369C93.6162 56.7185 92.1505 58.1841 92.1505 60.0049V86.2962C92.1505 88.1169 93.6162 89.5826 95.4369 89.5826H111.869V106.015H92.1505C88.6661 106.015 85.3208 107.401 82.8562 109.866C80.3916 112.331 79.0049 115.676 79.0049 119.16V125.733C79.0049 129.218 80.3913 132.563 82.8562 135.027C85.321 137.492 88.6662 138.879 92.1505 138.879H101.907C100.841 181.324 79.6595 198.962 65.1787 206.297C59.5655 209.057 56 214.785 56 221.041V227.613C56 231.098 57.3865 234.443 59.8513 236.908C62.3161 239.372 65.6613 240.759 69.1456 240.759H187.456C190.941 240.759 194.286 239.373 196.751 236.908C199.215 234.443 200.602 231.098 200.602 227.613V221.041C200.602 214.785 197.037 209.057 191.423 206.297C176.943 198.963 155.762 181.325 154.695 138.879H164.452C167.936 138.879 171.281 137.492 173.746 135.027C176.211 132.563 177.597 129.217 177.597 125.733V119.16C177.597 115.676 176.211 112.331 173.746 109.866C171.281 107.401 167.936 106.015 164.452 106.015H144.733V89.5826H161.165C162.986 89.5826 164.452 88.1169 164.452 86.2962V60.0049C164.452 58.1841 162.986 56.7185 161.165 56.7185H144.733V40.2864C144.733 38.4657 143.267 37 141.447 37H115.155Z" fill="#FBC5C5" />
    <path fill-rule="evenodd" clip-rule="evenodd" d="M117.503 62.3523H97.7844V83.9487H117.503V111.649H92.1505C90.1614 111.649 88.2489 112.441 86.8401 113.85C85.4308 115.259 84.6387 117.172 84.6387 119.16V125.733C84.6387 127.722 85.4308 129.635 86.8397 131.044C88.2492 132.453 90.1619 133.245 92.1505 133.245H107.684L107.539 139.02C106.982 161.204 101.143 177.302 93.2303 188.925C85.3373 200.518 75.6039 207.332 67.7245 211.323L67.6945 211.338L67.6644 211.353C63.9792 213.165 61.6338 216.931 61.6338 221.041V227.613C61.6338 229.603 62.4259 231.515 63.8348 232.924C65.2443 234.333 67.157 235.125 69.1456 235.125H128.301H187.456C189.446 235.125 191.358 234.333 192.767 232.924C194.176 231.515 194.968 229.602 194.968 227.613V221.041C194.968 216.931 192.623 213.165 188.938 211.353L188.908 211.338L188.878 211.323C180.998 207.332 171.265 200.519 163.372 188.926C155.459 177.303 149.62 161.204 149.063 139.02L148.918 133.245H164.452C166.441 133.245 168.353 132.453 169.762 131.044C171.171 129.635 171.963 127.722 171.963 125.733V119.16C171.963 117.171 171.171 115.259 169.762 113.85C168.353 112.441 166.44 111.649 164.452 111.649H139.099V83.9487H158.818V62.3523H139.099V42.6338H128.301H117.503V62.3523ZM164.452 138.879C167.936 138.879 171.281 137.492 173.746 135.027C176.211 132.563 177.597 129.217 177.597 125.733V119.16C177.597 115.676 176.211 112.331 173.746 109.866C171.281 107.401 167.936 106.015 164.452 106.015H144.733V89.5826H161.165C162.986 89.5826 164.452 88.1169 164.452 86.2962V60.0049C164.452 58.1841 162.986 56.7185 161.165 56.7185H144.733V40.2864C144.733 38.4657 143.267 37 141.447 37H115.155C113.335 37 111.869 38.4657 111.869 40.2864V56.7185H95.4369C93.6162 56.7185 92.1505 58.1841 92.1505 60.0049V86.2962C92.1505 88.1169 93.6162 89.5826 95.4369 89.5826H111.869V106.015H92.1505C88.6661 106.015 85.3208 107.401 82.8562 109.866C80.3916 112.331 79.0049 115.676 79.0049 119.16V125.733C79.0049 129.218 80.3913 132.563 82.8562 135.027C85.321 137.492 88.6662 138.879 92.1505 138.879H101.907C101.859 140.808 101.769 142.685 101.64 144.513C98.9295 182.906 79.0015 199.295 65.1787 206.297C59.5655 209.057 56 214.785 56 221.041V227.613C56 231.098 57.3865 234.443 59.8513 236.908C62.3161 239.372 65.6613 240.759 69.1456 240.759H187.456C190.941 240.759 194.286 239.373 196.751 236.908C199.215 234.443 200.602 231.098 200.602 227.613V221.041C200.602 214.785 197.037 209.057 191.423 206.297C177.601 199.296 157.673 182.907 154.962 144.513C154.833 142.685 154.743 140.808 154.695 138.879H164.452Z" fill="black" />
  </g>
  <g id="wn" fill="none" transform="scale(0.15625 0.15625)">
    <path fill-rule="evenodd" clip-rule="evenodd" d="M125.015 37C123.194 37 121.729 38.2823 121.729 39.8756V56.8665C103.906 58.3513 89.2007 71.7861 86.1809 89.5504L63.5926 103.62C58.5912 106.759 56 112.588 56 119.16C56 122.828 57.052 126.534 59.0487 129.693C64.4155 138.186 75.3783 141.257 84.3703 136.863L91.9129 133.314C93.9067 132.488 96.0958 131.668 98.7234 133.186C100.761 134.363 102.01 136.526 102.01 138.88C100.943 181.326 79.6592 198.963 65.1787 206.299C59.5656 209.057 56.0001 214.785 56.0001 221.041V227.613C56.0001 231.098 57.3865 234.443 59.8514 236.908C62.3162 239.372 65.6614 240.759 69.1457 240.759H187.457C190.941 240.759 194.286 239.373 196.751 236.908C199.216 234.443 200.602 231.098 200.602 227.613V221.041C200.602 214.785 197.037 209.057 191.424 206.297C176.943 198.963 155.763 181.325 154.695 138.879H164.452C167.936 138.879 171.281 137.492 173.746 135.028C176.211 132.563 177.597 129.218 177.597 125.733V89.5827C177.597 75.6389 172.053 62.266 162.192 52.4053C152.333 42.5445 138.96 37.0001 125.015 37.0001L125.015 37Z" fill="#FBC5C5" />
    <path fill-rule="evenodd" clip-rule="evenodd" d="M125.015 37.0001C124.824 37.0001 124.637 37.0141 124.456 37.0411C122.903 37.2721 121.729 38.4492 121.729 39.8756V56.8665C103.906 58.3513 89.2007 71.7861 86.1809 89.5504L63.5926 103.62C58.5912 106.759 56 112.588 56 119.16C56 122.828 57.052 126.534 59.0487 129.693C64.4155 138.186 75.3783 141.257 84.3703 136.863L91.9129 133.314C93.9067 132.488 96.0958 131.668 98.7234 133.186C100.761 134.363 102.01 136.526 102.01 138.88C100.943 181.326 79.6592 198.963 65.1787 206.299C59.5656 209.057 56.0001 214.785 56.0001 221.041V227.613C56.0001 231.098 57.3865 234.443 59.8514 236.908C62.3162 239.372 65.6614 240.759 69.1457 240.759H187.457C190.941 240.759 194.286 239.373 196.751 236.908C199.216 234.443 200.602 231.098 200.602 227.613V221.041C200.602 214.785 197.037 209.057 191.424 206.297C177.601 199.296 157.674 182.907 154.963 144.513C154.834 142.685 154.744 140.808 154.695 138.879H164.452C167.936 138.879 171.281 137.492 173.746 135.028C176.211 132.563 177.597 129.218 177.597 125.733V89.5827C177.597 75.6389 172.053 62.266 162.192 52.4053C152.466 42.6775 139.32 37.1504 125.578 37.0031C125.391 37.0011 125.203 37.0001 125.015 37.0001ZM127.362 42.6926V62.0506L122.196 62.4809C106.934 63.7524 94.3235 75.2676 91.7351 90.4945L91.3104 92.9927L66.587 108.393C66.5849 108.394 66.5827 108.395 66.5806 108.397C63.6406 110.245 61.6338 113.983 61.6338 119.16C61.6338 121.774 62.3896 124.434 63.8109 126.683L63.8114 126.684C67.636 132.736 75.4756 134.939 81.8968 131.801L81.9341 131.783L89.6342 128.16L89.8048 128.089C91.8982 127.222 96.4183 125.348 101.541 128.307M127.362 42.6926C138.957 43.2733 149.96 48.1389 158.208 56.3887C167.013 65.194 171.963 77.1346 171.963 89.5827V125.733C171.963 127.722 171.171 129.635 169.762 131.044C168.353 132.453 166.441 133.245 164.452 133.245H148.918L149.063 139.021C149.621 161.204 155.46 177.303 163.373 188.926C171.265 200.519 180.998 207.332 188.878 211.323L188.908 211.338L188.938 211.353C192.623 213.165 194.968 216.931 194.968 221.041V227.613C194.968 229.602 194.176 231.515 192.767 232.924C191.358 234.333 189.446 235.125 187.457 235.125H69.1457C67.157 235.125 65.2443 234.333 63.8349 232.924C62.426 231.515 61.6339 229.603 61.6339 227.613V221.041C61.6339 216.931 63.9794 213.165 67.6634 211.355L67.6941 211.34L67.7246 211.325C75.5984 207.336 85.3565 200.525 93.2762 188.934C101.217 177.312 107.084 161.211 107.642 139.022L107.644 138.951V138.88C107.644 134.514 105.323 130.492 101.542 128.308" fill="black" />
  </g>
  <g id="wp" fill="none" transform="scale(0.15625 0.15625)">
    <path fill-rule="evenodd" clip-rule="evenodd" d="M128.037 60C111.633 60 97.4146 71.4511 93.9153 87.4771C91.15 100.139 95.6813 112.978 105.053 121.191H93.1082C90.022 121.191 87.059 122.42 84.8761 124.606C82.6931 126.791 81.4649 129.757 81.4649 132.846V138.674C81.4649 141.763 82.6929 144.729 84.8761 146.914C87.0592 149.1 90.0221 150.329 93.1082 150.329H104.661C103.716 187.962 84.9556 203.6 72.1297 210.104C67.158 212.551 64 217.629 64 223.176V229.004C64 232.093 65.228 235.059 67.4112 237.244C69.5943 239.429 72.5572 240.659 75.6433 240.659H180.433C183.519 240.659 186.482 239.43 188.665 237.244C190.848 235.059 192.076 232.093 192.076 229.004V223.176C192.076 217.629 188.918 212.551 183.946 210.104C171.121 203.601 152.36 187.963 151.415 150.329H162.968C166.054 150.329 169.017 149.1 171.2 146.914C173.383 144.729 174.611 141.763 174.611 138.674V132.846C174.611 129.757 173.383 126.791 171.2 124.606C169.017 122.42 166.054 121.191 162.968 121.191H151.023C160.395 112.979 164.926 100.14 162.161 87.4771C158.66 71.4511 144.441 60 128.039 60H128.037Z" fill="black" />
    <path fill-rule="evenodd" clip-rule="evenodd" d="M99.4194 88.6792C97.1039 99.2816 100.894 110.055 108.766 116.954L120.03 126.825H93.1082C91.5192 126.825 89.9896 127.458 88.862 128.587C87.7338 129.717 87.0988 131.251 87.0988 132.846V138.674C87.0988 140.27 87.7338 141.804 88.8617 142.933C89.9899 144.062 91.5196 144.695 93.1082 144.695H110.438L110.293 150.47C109.796 170.247 104.594 184.642 97.5091 195.059C90.4441 205.446 81.73 211.553 74.6776 215.129L74.6476 215.144L74.6174 215.159C71.5747 216.656 69.6338 219.773 69.6338 223.176V229.004C69.6338 230.599 70.2689 232.133 71.3968 233.262C72.5249 234.391 74.0547 235.025 75.6433 235.025H180.433C182.022 235.025 183.551 234.391 184.679 233.263C185.807 232.133 186.442 230.599 186.442 229.004V223.176C186.442 219.773 184.502 216.656 181.459 215.159L181.429 215.144L181.399 215.129C174.346 211.553 165.632 205.447 158.567 195.059C151.482 184.642 146.28 170.247 145.783 150.47L145.638 144.695H162.968C164.557 144.695 166.087 144.062 167.214 142.933C168.342 141.803 168.977 140.269 168.977 138.674V132.846C168.977 131.25 168.342 129.716 167.214 128.587C166.086 127.458 164.557 126.825 162.968 126.825H136.045L147.31 116.954C155.183 110.056 158.972 99.2823 156.657 88.6792C153.721 75.2396 141.792 65.6339 128.039 65.6339H128.037C114.282 65.6339 102.354 75.2401 99.4194 88.6792Z" fill="#FBC5C5" />
  </g>
  <g id="wq" fill="none" transform="scale(0.15625 0.15625)">
    <path fill-rule="evenodd" clip-rule="evenodd" d="M128.179 37.0024C127.029 37.0449 125.985 37.6846 125.426 38.6911L110.591 65.3549L83.8891 50.5398C81.1734 49.0374 78.0776 51.7854 79.2543 54.6536L100.437 106.016H92.1505C88.6661 106.016 85.3208 107.402 82.8562 109.867C80.3916 112.332 79.0049 115.677 79.0049 119.161V125.734C79.0049 129.219 80.3913 132.564 82.8562 135.028C85.321 137.493 88.6662 138.88 92.1505 138.88H101.907C100.841 181.325 79.6595 198.963 65.1787 206.298C59.5655 209.058 56 214.786 56 221.042V227.614C56 231.099 57.3865 234.444 59.8513 236.909C62.3161 239.373 65.6613 240.76 69.1456 240.76H187.456C190.941 240.76 194.286 239.374 196.751 236.909C199.215 234.444 200.602 231.099 200.602 227.614V221.042C200.602 214.786 197.037 209.058 191.423 206.298C176.943 198.964 155.762 181.326 154.695 138.88H164.452C167.936 138.88 171.281 137.493 173.746 135.028C176.211 132.564 177.597 129.218 177.597 125.734V119.161C177.597 115.677 176.211 112.331 173.746 109.867C171.281 107.402 167.937 106.016 164.452 106.016H156.165L177.347 54.6536C178.525 51.7854 175.428 49.0359 172.712 50.5398L146.01 65.3549L131.177 38.6911C130.577 37.6083 129.418 36.9554 128.18 37.0024H128.179Z" fill="black" />
    <path d="M86.8401 113.85C88.2489 112.441 90.1614 111.649 92.1505 111.649H108.854L87.4365 59.7166L87.027 58.7237L112.779 73.0115L128.301 45.1106L143.822 73.0116L148.117 70.6285L169.574 58.7236L156.261 91.0061L152.549 100.007L147.748 111.649H164.452C166.441 111.649 168.353 112.441 169.762 113.851C171.171 115.26 171.963 117.172 171.963 119.161V125.734C171.963 127.723 171.171 129.635 169.762 131.045C168.353 132.454 166.441 133.246 164.452 133.246H148.918L149.063 139.021C149.62 161.205 155.459 177.304 163.372 188.927C171.265 200.52 180.998 207.333 188.878 211.324L188.908 211.339L188.938 211.354C192.623 213.166 194.968 216.932 194.968 221.042V227.614C194.968 229.603 194.176 231.516 192.767 232.925C191.358 234.334 189.446 235.126 187.456 235.126H69.1456C67.157 235.126 65.2443 234.334 63.8348 232.925C62.4259 231.516 61.6338 229.603 61.6338 227.614V221.042C61.6338 216.932 63.9792 213.166 67.6644 211.354L67.6945 211.339L67.7245 211.324C75.6039 207.333 85.3373 200.519 93.2303 188.926C101.143 177.303 106.982 161.205 107.539 139.021L107.684 133.246H92.1505C90.1619 133.246 88.2492 132.454 86.8397 131.044C85.4308 129.636 84.6387 127.723 84.6387 125.734V119.161C84.6387 117.173 85.4308 115.26 86.8401 113.85Z" fill="#FBC5C5" />
  </g>
  <g id="wr" fill="none" transform="scale(0.15625 0.15625)">
    <path fill-rule="evenodd" clip-rule="evenodd" d="M82.2913 37C80.4764 37 79.0049 38.4716 79.0049 40.2864L85.5777 92.869C85.5777 94.6839 87.0493 96.1554 88.8641 96.1554H98.7234V106.015H88.8641C85.3797 106.015 82.0344 107.401 79.5698 109.866C77.1052 112.331 75.7185 115.676 75.7185 119.16V125.733C75.7185 129.218 77.1049 132.563 79.5698 135.027C82.0346 137.492 85.3798 138.879 88.8641 138.879H101.907C100.841 181.324 79.6595 198.962 65.1787 206.297C59.5655 209.058 56 214.785 56 221.041V227.613C56 231.098 57.3865 234.443 59.8513 236.908C62.3161 239.372 65.6613 240.759 69.1456 240.759H187.456C190.941 240.759 194.286 239.373 196.751 236.908C199.215 234.443 200.602 231.099 200.602 227.613V221.041C200.602 214.785 197.037 209.057 191.423 206.297C176.943 198.963 155.762 181.325 154.695 138.879H167.738C171.222 138.879 174.568 137.492 177.032 135.027C179.497 132.563 180.884 129.219 180.884 125.733V119.16C180.884 115.676 179.497 112.331 177.032 109.866C174.568 107.401 171.222 106.015 167.738 106.015H157.879V96.1554H167.738C169.553 96.1554 171.024 94.6839 171.024 92.869L177.597 40.2864C177.597 38.4716 176.126 37 174.311 37H154.592C152.778 37 151.306 38.4716 151.306 40.2864V53.4321H141.447V40.2864C141.447 38.4716 139.975 37 138.16 37H118.442C116.627 37 115.155 38.4716 115.155 40.2864V53.4321H105.296V40.2864C105.296 38.4716 103.825 37 102.01 37H82.2913Z" fill="#FBC5C5" />
    <path fill-rule="evenodd" clip-rule="evenodd" d="M167.738 138.879C171.222 138.879 174.568 137.492 177.032 135.027C179.497 132.563 180.884 129.219 180.884 125.733V119.16C180.884 115.676 179.497 112.331 177.032 109.866C174.568 107.401 171.222 106.015 167.738 106.015H157.879V96.1554H167.738C169.553 96.1554 171.024 94.6839 171.024 92.869L177.597 40.2864C177.597 38.4716 176.126 37 174.311 37H154.592C152.778 37 151.306 38.4716 151.306 40.2864V53.4321H141.447V40.2864C141.447 38.4716 139.975 37 138.16 37H118.442C116.627 37 115.155 38.4716 115.155 40.2864V53.4321H105.296V40.2864C105.296 38.4716 103.825 37 102.01 37H82.2913C80.4764 37 79.0049 38.4716 79.0049 40.2864L85.5777 92.869C85.5777 94.6839 87.0493 96.1554 88.8641 96.1554H98.7234V106.015H88.8641C85.3797 106.015 82.0344 107.401 79.5698 109.866C77.1052 112.331 75.7185 115.676 75.7185 119.16V125.733C75.7185 129.218 77.1049 132.563 79.5698 135.027C82.0346 137.492 85.3798 138.879 88.8641 138.879H101.907C101.859 140.808 101.769 142.685 101.64 144.513C98.9295 182.906 79.0015 199.295 65.1787 206.297C59.5655 209.058 56 214.785 56 221.041V227.613C56 231.098 57.3865 234.443 59.8513 236.908C62.3161 239.372 65.6613 240.759 69.1456 240.759H187.456C190.941 240.759 194.286 239.373 196.751 236.908C199.215 234.443 200.602 231.099 200.602 227.613V221.041C200.602 214.785 197.037 209.057 191.423 206.297C177.601 199.296 157.673 182.907 154.962 144.513C154.833 142.685 154.743 140.808 154.695 138.879H167.738ZM84.976 42.6338L90.962 90.5216H104.357V111.649H88.8641C86.875 111.649 84.9625 112.441 83.5537 113.85C82.1444 115.259 81.3523 117.172 81.3523 119.16V125.733C81.3523 127.722 82.1444 129.635 83.5533 131.044C84.9627 132.453 86.8754 133.245 88.8641 133.245H107.684L107.539 139.02C106.982 161.204 101.143 177.302 93.2303 188.925C85.3373 200.518 75.6039 207.332 67.7245 211.323L67.6951 211.338L67.6654 211.353C63.9786 213.166 61.6338 216.932 61.6338 221.041V227.613C61.6338 229.603 62.4259 231.515 63.8348 232.924C65.2443 234.333 67.157 235.125 69.1456 235.125H187.456C189.446 235.125 191.358 234.333 192.767 232.924C194.176 231.515 194.968 229.603 194.968 227.613V221.041C194.968 216.931 192.623 213.165 188.938 211.353L188.908 211.338L188.878 211.323C180.998 207.332 171.265 200.519 163.372 188.926C155.459 177.303 149.62 161.204 149.063 139.02L148.918 133.245H167.738C169.727 133.245 171.64 132.453 173.048 131.044C174.458 129.634 175.25 127.723 175.25 125.733V119.16C175.25 117.171 174.458 115.259 173.049 113.85C171.639 112.441 169.727 111.649 167.738 111.649H152.245V90.5216H165.64L171.626 42.6338H156.94V59.0659H135.813V42.6338H120.789V59.0659H99.6623V42.6338H84.976Z" fill="black" />
  </g>
</svg>